<svg width="163" height="29" viewBox="0 0 163 29" fill="none" xmlns="http://www.w3.org/2000/svg">
<path d="M12.5 12.87C12.5 8.28 10.64 5.1 7.73 5.1C4.85 5.1 2.96 8.28 2.96 12.87C2.96 17.43 4.85 20.61 7.73 20.61C10.64 20.61 12.5 17.43 12.5 12.87ZM0.59 12.84C0.59 6.96 3.2 3 7.73 3C12.29 3 14.87 6.96 14.87 12.87C14.87 18.78 12.29 22.71 7.73 22.71C3.2 22.71 0.59 18.78 0.59 12.84ZM26.21 14.16H21.65V28.8H19.22V0.899999H21.65V12.12H26.21V14.16ZM40.3377 19.98L38.8677 21.78C36.7077 20.22 33.7677 16.92 32.8977 13.74C32.2677 16.95 29.9877 20.58 27.1977 22.59L25.6977 20.79C28.8777 18.78 31.6677 14.01 31.6677 8.55V3.48H34.0677V8.49C34.0677 13.92 37.3077 17.97 40.3377 19.98ZM44.4177 27.39H42.0477V12.99H37.0977V10.95H42.0477V1.56H44.4177V27.39ZM49.9377 28.8H47.5377V0.899999H49.9377V28.8ZM66.2553 21.03C64.7553 21.24 62.2953 21.48 59.8353 21.6C57.2553 21.78 54.7953 21.87 52.4253 21.87L52.0653 19.74H55.1553L54.3153 8.25L56.7453 7.92C56.9553 11.85 57.2253 15.75 57.4653 19.68L59.6853 19.59C59.8653 19.59 60.0753 19.59 60.2853 19.56C60.5253 15.69 60.7653 11.79 61.0353 7.92L63.4653 8.16C63.1353 11.91 62.8053 15.66 62.4453 19.44C63.7953 19.32 65.0553 19.2 66.0453 19.05C66.1053 19.71 66.1653 20.37 66.2553 21.03ZM70.7253 27.36H68.3553V13.62H64.5453V11.61H68.3553V1.56H70.7253V27.36ZM75.9153 28.8H73.5453V0.899999H75.9153V28.8ZM65.3553 6.39H52.7553V4.38H65.3553V6.39ZM98.4212 12.87C98.4212 8.28 96.5012 5.1 93.5312 5.1C90.5912 5.1 88.6412 8.28 88.6412 12.87C88.6412 17.43 90.5912 20.61 93.5312 20.61C96.5012 20.61 98.4212 17.43 98.4212 12.87ZM86.3312 12.84C86.3312 6.96 88.9412 3 93.5312 3C98.1512 3 100.731 6.96 100.731 12.87C100.731 18.78 98.1512 22.71 93.5312 22.71C88.9412 22.71 86.3312 18.78 86.3312 12.84ZM108.351 28.8H105.921V0.899999H108.351V28.8ZM121.339 14.25V9.51H115.159V14.25H121.339ZM135.019 21.69H132.619V0.899999H135.019V21.69ZM135.769 27.9H116.719V19.26H119.149V25.86H135.769V27.9ZM123.709 16.26H112.789V2.97H115.159V7.5H121.339V2.97H123.709V8.52H127.399V1.47H129.739V20.94H127.399V10.53H123.709V16.26ZM162.796 25.23H137.596V23.19H162.796V25.23ZM158.956 11.7H143.116V16.05H159.796V18.09H140.686V3.57H159.496V5.61H143.116V9.66H158.956V11.7Z" fill="#495576"/>
</svg>
