<svg width="187" height="29" viewBox="0 0 187 29" fill="none" xmlns="http://www.w3.org/2000/svg">
<path d="M12.5 12.87C12.5 8.28 10.64 5.1 7.73 5.1C4.85 5.1 2.96 8.28 2.96 12.87C2.96 17.43 4.85 20.61 7.73 20.61C10.64 20.61 12.5 17.43 12.5 12.87ZM0.59 12.84C0.59 6.96 3.2 3 7.73 3C12.29 3 14.87 6.96 14.87 12.87C14.87 18.78 12.29 22.71 7.73 22.71C3.2 22.71 0.59 18.78 0.59 12.84ZM26.21 14.16H21.65V28.8H19.22V0.899999H21.65V12.12H26.21V14.16ZM40.3377 19.98L38.8677 21.78C36.7077 20.22 33.7677 16.92 32.8977 13.74C32.2677 16.95 29.9877 20.58 27.1977 22.59L25.6977 20.79C28.8777 18.78 31.6677 14.01 31.6677 8.55V3.48H34.0677V8.49C34.0677 13.92 37.3077 17.97 40.3377 19.98ZM44.4177 27.39H42.0477V12.99H37.0977V10.95H42.0477V1.56H44.4177V27.39ZM49.9377 28.8H47.5377V0.899999H49.9377V28.8ZM66.2553 21.03C64.7553 21.24 62.2953 21.48 59.8353 21.6C57.2553 21.78 54.7953 21.87 52.4253 21.87L52.0653 19.74H55.1553L54.3153 8.25L56.7453 7.92C56.9553 11.85 57.2253 15.75 57.4653 19.68L59.6853 19.59C59.8653 19.59 60.0753 19.59 60.2853 19.56C60.5253 15.69 60.7653 11.79 61.0353 7.92L63.4653 8.16C63.1353 11.91 62.8053 15.66 62.4453 19.44C63.7953 19.32 65.0553 19.2 66.0453 19.05C66.1053 19.71 66.1653 20.37 66.2553 21.03ZM70.7253 27.36H68.3553V13.62H64.5453V11.61H68.3553V1.56H70.7253V27.36ZM75.9153 28.8H73.5453V0.899999H75.9153V28.8ZM65.3553 6.39H52.7553V4.38H65.3553V6.39ZM110.601 25.23H85.4012V23.19H96.7412V16.05H99.1712V23.19H110.601V25.23ZM109.611 14.67L108.261 16.62C103.371 15.27 99.1712 11.79 97.9712 8.64C96.8912 11.85 92.6012 15.3 87.7112 16.62L86.4512 14.67C91.3112 13.74 96.7412 9.78 96.7412 4.98V2.97H99.2612V4.98C99.2612 9.78 105.021 13.8 109.611 14.67ZM133.849 27.9H114.649V20.01H117.079V25.89H133.849V27.9ZM125.359 22.89H122.929V17.4H111.499V15.39H136.699V17.4H125.359V22.89ZM131.119 10.26V4.44H117.109V10.26H131.119ZM133.549 12.27H114.679V2.43H133.549V12.27ZM150.826 18.45L151.096 20.49C148.786 21.03 144.496 21.42 140.956 21.42H138.826V3.96H141.256V19.32C144.136 19.38 148.786 18.99 150.826 18.45ZM161.116 28.8H158.746V14.04H155.056V27.36H152.716V1.56H155.056V12H158.746V0.899999H161.116V28.8ZM165.014 3.87H178.304C178.154 12.93 172.604 19.86 165.404 23.28L163.994 21.36C171.044 18.27 175.184 12.18 175.694 5.91H165.014V3.87ZM186.494 28.8H184.064V0.899999H186.494V28.8Z" fill="white"/>
</svg>
