<svg width="137" height="29" viewBox="0 0 137 29" fill="none" xmlns="http://www.w3.org/2000/svg">
<path d="M12.53 14.52C12.53 12.66 10.52 11.55 8.27 11.55C6.02 11.55 4.01 12.66 4.01 14.52C4.01 16.35 6.02 17.46 8.27 17.46C10.52 17.46 12.53 16.35 12.53 14.52ZM14.84 14.52C14.84 17.46 12.02 19.41 8.27 19.41C4.55 19.41 1.7 17.46 1.7 14.52C1.7 11.52 4.52 9.63 8.27 9.63C12.02 9.63 14.84 11.52 14.84 14.52ZM16.43 8.13H0.0800001V6.12H16.43V8.13ZM12.11 4.02H4.07V1.89H12.11V4.02ZM22.73 27.9H4.16V20.73H6.59V25.86H22.73V27.9ZM25.91 12.39H21.65V21.48H19.22V0.899999H21.65V10.35H25.91V12.39ZM46.6677 10.17H41.0577V8.13H46.6677V0.899999H49.0977V18.21H46.6677V10.17ZM39.9477 20.19C35.6577 20.19 33.0777 21.39 33.0777 23.49C33.0777 25.56 35.6577 26.76 39.9477 26.76C44.2977 26.76 46.8477 25.56 46.8477 23.49C46.8477 21.39 44.2977 20.19 39.9477 20.19ZM27.0477 5.25V3.21H42.1377V5.25H35.8677C35.8677 5.82 35.8677 6.45 35.8977 6.78C36.1077 10.56 39.6777 13.59 43.0977 14.61L41.6577 16.56C38.7477 15.42 35.7477 12.81 34.6077 10.29C33.8577 12.9 30.4977 16.26 27.4977 17.55L26.1777 15.6C29.6877 14.25 33.2277 10.71 33.3777 6.75C33.4077 6.45 33.4077 5.79 33.4077 5.25H27.0477ZM49.3077 23.49C49.3077 26.76 45.9477 28.8 39.9477 28.8C33.9777 28.8 30.6177 26.76 30.6177 23.49C30.6177 20.19 33.9777 18.15 39.9477 18.15C45.9477 18.15 49.3077 20.19 49.3077 23.49ZM75.6835 20.13L74.1535 21.99C71.2735 20.01 68.1535 16.68 67.0435 13.32C66.0535 16.8 63.3535 20.34 60.0535 22.62L58.4935 20.76C62.5435 18.27 65.8135 13.26 65.8135 8.31V3.36H68.3035V8.22C68.3035 13.32 71.8135 17.88 75.6835 20.13ZM85.2535 14.19H80.7535V28.8H78.3235V0.899999H80.7535V12.15H85.2535V14.19ZM98.0312 3.72C93.6212 3.72 90.7412 4.89 90.7412 7.2C90.7412 9.48 93.5912 10.65 98.0012 10.65C102.411 10.65 105.321 9.48 105.321 7.2C105.321 4.89 102.441 3.72 98.0312 3.72ZM107.721 7.17C107.721 10.74 104.091 12.69 98.0012 12.69C91.9112 12.69 88.3112 10.74 88.3112 7.17C88.3112 3.66 91.9412 1.71 98.0312 1.71C104.091 1.71 107.721 3.66 107.721 7.17ZM107.751 27.99H88.7312V19.86H91.1612V25.95H107.751V27.99ZM110.601 17.25H85.4012V15.21H110.601V17.25ZM134.089 4.2H113.959V2.19H134.089V4.2ZM133.879 12.03H114.169V10.02H118.399L117.679 5.55L120.199 5.25L120.709 10.02H127.339L127.969 5.22L130.489 5.49L129.679 10.02H133.879V12.03ZM131.209 26.4V21.63H116.989V26.4H131.209ZM133.609 28.41H114.559V19.62H122.839V16.47H111.499V14.46H136.699V16.47H125.269V19.62H133.609V28.41Z" fill="white"/>
</svg>
