<svg width="109" height="29" viewBox="0 0 109 29" fill="none" xmlns="http://www.w3.org/2000/svg">
<path d="M24.05 28.62H4.97V21.6H20.57V18.54H4.88V16.62H23V23.37H7.4V26.7H24.05V28.62ZM1.76 2.43H14.48C13.91 9.78 8.72 14.22 1.79 16.23L0.56 14.28C6.68 12.72 10.79 9.03 11.69 4.47H1.76V2.43ZM14.78 6.93V5.01H20.57V0.899999H23V15.09H20.57V12.09H14.42V10.14H20.57V6.93H14.78ZM49.8477 28.8H47.4477V0.899999H49.8477V28.8ZM44.2977 27.39H41.9277V13.14H37.4577V11.13H41.9277V1.56H44.2977V27.39ZM40.5477 20.43L39.0177 22.2C37.0377 20.82 34.0977 17.55 33.2877 14.61C32.7177 17.7 30.1977 21.03 27.4977 22.95L25.8777 21.24C29.1477 19.14 32.0877 14.73 32.0877 9.33V6.18H26.5377V4.17H39.8277V6.18H34.4877V9.24C34.4877 14.76 37.0977 18.18 40.5477 20.43ZM69.5635 16.86C69.5635 14.82 68.0935 13.44 66.0535 13.44C63.9835 13.44 62.5135 14.85 62.5135 16.86C62.5135 18.93 63.9835 20.28 66.0535 20.28C68.0935 20.28 69.5635 18.87 69.5635 16.86ZM71.8435 16.86C71.8435 20.16 69.5335 22.29 66.0535 22.29C62.6035 22.29 60.2635 19.98 60.2635 16.86C60.2635 13.56 62.6035 11.43 66.0535 11.43C69.5335 11.43 71.8435 13.59 71.8435 16.86ZM72.6235 9.66H59.2735V7.65H72.6235V9.66ZM69.8035 5.37H62.4235V3.3H69.8035V5.37ZM77.7835 27.39H75.4135V19.56H72.2635V17.58H75.4135V12.81H72.0535V10.83H75.4135V1.56H77.7835V27.39ZM82.8535 28.8H80.4535V0.899999H82.8535V28.8ZM90.1112 19.05H108.921V28.8H106.491V21.09H90.1112V19.05ZM89.1212 13.92H89.9012C93.1112 13.92 96.3212 13.68 98.5112 13.2L98.8412 15.21C96.1112 15.75 92.3312 15.99 88.5212 15.99H86.7212V2.97H97.5212V4.98H89.1212V8.31H97.0712V10.26H89.1212V13.92ZM108.921 17.58H106.521V10.26H102.981V17.43H100.641V1.41H102.981V8.22H106.521V0.899999H108.921V17.58Z" fill="#495576"/>
</svg>
