<svg width="124" height="29" viewBox="0 0 124 29" fill="none" xmlns="http://www.w3.org/2000/svg">
<path d="M2.54 25.35L10.97 6.03H0.0800001V3.9H13.76V5.52L5.36 25.35H2.54ZM39.5445 16.89H14.3445V14.85H25.7145V10.62H28.1445V14.85H39.5445V16.89ZM26.9445 21.09C22.4445 21.09 19.6545 22.11 19.6545 23.91C19.6545 25.77 22.4445 26.76 26.9445 26.76C31.4745 26.76 34.2645 25.77 34.2645 23.91C34.2645 22.11 31.4745 21.09 26.9445 21.09ZM38.2845 10.2L37.1745 12.24C32.5245 11.49 28.3245 9.03 26.9445 6.48C25.8345 9.06 21.6945 11.55 16.7745 12.27L15.6645 10.23C19.9845 9.84 24.7245 7.62 25.5645 4.35H16.6545V2.34H37.2345V4.35H28.3545C29.2545 7.65 34.4145 9.84 38.2845 10.2ZM36.7245 23.91C36.7245 26.97 33.1845 28.71 26.9445 28.71C20.7045 28.71 17.1945 26.94 17.1945 23.91C17.1945 20.94 20.7045 19.14 26.9445 19.14C33.1845 19.14 36.7245 20.82 36.7245 23.91ZM50.6204 2.7H69.2204C69.2204 6.27 69.1004 11.52 68.2004 15.93H72.5504V17.97H61.1504V28.8H58.7204V17.97H47.3504V15.93H65.7704C66.1304 14.58 66.3404 12.63 66.4904 10.68L50.2604 11.37L49.8704 9.24L66.5804 8.73C66.6704 7.14 66.7004 5.67 66.7004 4.71H50.6204V2.7ZM96.188 4.32H75.758V2.31H96.188V4.32ZM95.738 27.93H76.598V20.43H79.028V25.89H95.738V27.93ZM98.648 18.45H73.448V16.41H84.788V13.08H75.788V11.1H80.378L79.538 5.76L82.058 5.43L82.688 11.1H89.258L89.978 5.37L92.498 5.7L91.598 11.1H96.188V13.08H87.218V16.41H98.648V18.45ZM112.956 5.25H100.086V3.21H112.956V5.25ZM104.256 18.9H123.066V28.8H120.636V20.91H104.256V18.9ZM113.706 13.14L113.916 15.06C112.356 15.33 109.926 15.51 107.226 15.69C104.526 15.87 102.036 15.96 99.7857 16.02C99.6957 15.3 99.5757 14.61 99.4557 13.89C100.536 13.89 101.616 13.86 102.696 13.83C102.426 11.52 102.216 9.21 101.946 6.87L104.346 6.51C104.526 8.91 104.736 11.34 104.946 13.74L107.016 13.65C107.346 13.65 107.646 13.65 107.946 13.62C108.186 11.25 108.426 8.88 108.636 6.48L111.006 6.75C110.676 9 110.436 11.25 110.136 13.5C111.546 13.41 112.716 13.29 113.706 13.14ZM123.066 17.46H120.666V10.14H117.306V17.19H114.936V1.41H117.306V8.1H120.666V0.899999H123.066V17.46Z" fill="#495576"/>
</svg>
