<svg width="109" height="29" viewBox="0 0 109 29" fill="none" xmlns="http://www.w3.org/2000/svg">
<path d="M3.17 2.97H22.1C22.1 6.75 22.01 11.01 21.08 15.33H25.4V17.37H14V28.8H11.57V17.37H0.2V15.33H18.65C19.43 12.33 19.58 7.71 19.58 4.98H3.17V2.97ZM35.9277 19.32V5.97H29.5977V19.32H35.9277ZM49.8477 28.8H47.4477V14.07H44.0277V27.39H41.6577V1.56H44.0277V12.03H47.4477V0.899999H49.8477V28.8ZM38.2977 21.33H27.2277V3.96H38.2977V21.33ZM69.5635 16.86C69.5635 14.82 68.0935 13.44 66.0535 13.44C63.9835 13.44 62.5135 14.85 62.5135 16.86C62.5135 18.93 63.9835 20.28 66.0535 20.28C68.0935 20.28 69.5635 18.87 69.5635 16.86ZM71.8435 16.86C71.8435 20.16 69.5335 22.29 66.0535 22.29C62.6035 22.29 60.2635 19.98 60.2635 16.86C60.2635 13.56 62.6035 11.43 66.0535 11.43C69.5335 11.43 71.8435 13.59 71.8435 16.86ZM72.6235 9.66H59.2735V7.65H72.6235V9.66ZM69.8035 5.37H62.4235V3.3H69.8035V5.37ZM77.7835 27.39H75.4135V19.56H72.2635V17.58H75.4135V12.81H72.0535V10.83H75.4135V1.56H77.7835V27.39ZM82.8535 28.8H80.4535V0.899999H82.8535V28.8ZM90.1112 19.05H108.921V28.8H106.491V21.09H90.1112V19.05ZM89.1212 13.92H89.9012C93.1112 13.92 96.3212 13.68 98.5112 13.2L98.8412 15.21C96.1112 15.75 92.3312 15.99 88.5212 15.99H86.7212V2.97H97.5212V4.98H89.1212V8.31H97.0712V10.26H89.1212V13.92ZM108.921 17.58H106.521V10.26H102.981V17.43H100.641V1.41H102.981V8.22H106.521V0.899999H108.921V17.58Z" fill="white"/>
</svg>
