<svg width="113" height="29" viewBox="0 0 113 29" fill="none" xmlns="http://www.w3.org/2000/svg">
<path d="M0.76 25.2V3.81H3.31V23.07H12.97V25.2H0.76ZM15.4933 25.2V3.81H18.0133V25.2H15.4933ZM27.8043 25.2L20.0343 3.81H22.6743L29.0643 21.81H29.1243L35.5143 3.81H37.9143L30.1443 25.2H27.8043ZM39.8252 25.2V3.81H52.5152V5.94H42.3452V13.11H50.1752V15.24H42.3452V23.07H52.6052V25.2H39.8252ZM72.7722 13.65V9H64.5522V13.65H72.7722ZM75.2022 15.66H62.1222V2.4H64.5522V6.99H72.7722V2.4H75.2022V15.66ZM73.7922 20.1C69.6222 20.1 67.2222 21.42 67.2222 23.43C67.2222 25.47 69.6822 26.73 73.7922 26.73C78.0522 26.73 80.4522 25.47 80.4522 23.43C80.4522 21.39 78.0522 20.1 73.7922 20.1ZM82.9422 23.43C82.9422 26.64 79.6422 28.71 73.7922 28.71C67.9122 28.71 64.7022 26.64 64.7022 23.43C64.7022 20.22 67.9122 18.12 73.7922 18.12C79.7922 18.12 82.9422 20.25 82.9422 23.43ZM86.9022 10.26H82.6422V17.55H80.2122V0.899999H82.6422V8.22H86.9022V10.26ZM111.26 9.72L110.15 11.82C105.53 10.95 101.21 8.01 99.8898 5.34C98.7498 8.01 94.5498 10.95 89.7498 11.82L88.6098 9.78C93.2898 9.27 98.6598 6.12 98.6598 2.19V1.23H101.18V2.19C101.18 6.12 107.09 9.33 111.26 9.72ZM112.49 16.56H87.2898V14.52H98.6598V10.23H101.09V14.52H112.49V16.56ZM99.8898 20.88C95.5098 20.88 92.8098 21.99 92.8098 23.88C92.8098 25.77 95.5098 26.85 99.8898 26.85C104.3 26.85 107 25.77 107 23.88C107 21.99 104.3 20.88 99.8898 20.88ZM109.49 23.88C109.49 27.06 106.01 28.86 99.8898 28.86C93.7698 28.86 90.3198 27 90.3198 23.88C90.3198 20.79 93.7698 18.87 99.8898 18.87C106.01 18.87 109.49 20.64 109.49 23.88Z" fill="#495576"/>
</svg>
