<svg width="271" height="312" viewBox="0 0 271 312" fill="none" xmlns="http://www.w3.org/2000/svg">
<path d="M42.4186 300.544H19.6306V291.94H37.8826V288.772H19.3786V286.036H41.2666V294.46H23.0146V297.808H42.4186V300.544ZM15.7066 269.008H30.9346C30.3586 277.756 23.8426 282.94 15.8506 285.172L14.0146 282.472C20.8906 280.96 25.8586 276.964 27.1186 271.816H15.7066V269.008ZM31.3306 274.696V272.068H37.8826V267.28H41.2666V284.236H37.8826V280.816H30.8986V278.188H37.8826V274.696H31.3306ZM73.4118 300.76H70.1358V267.28H73.4118V300.76ZM66.7878 299.104H63.5478V282.076H58.5798V279.304H63.5478V268.036H66.7878V299.104ZM62.2158 290.644L60.1638 293.056C57.8598 291.508 54.3318 287.692 53.3958 284.344C52.6758 287.872 49.7238 291.652 46.6638 293.74L44.5038 291.4C48.6798 288.7 51.7758 283.66 51.7758 277.108V273.976H45.2598V271.24H61.2438V273.976H55.0878V277C55.0878 283.84 58.5798 288.412 62.2158 290.644ZM106.827 299.104H103.623V289.852H100.023V287.188H103.623V282.112H99.8428V279.412H103.623V268.036H106.827V299.104ZM96.5668 286.504C96.5668 284.164 94.9828 282.544 92.6788 282.544C90.3388 282.544 88.7548 284.2 88.7548 286.504C88.7548 288.844 90.3388 290.464 92.6788 290.464C94.9828 290.464 96.5668 288.772 96.5668 286.504ZM99.6988 286.504C99.6988 290.536 96.9268 293.272 92.6788 293.272C88.4668 293.272 85.6228 290.32 85.6228 286.504C85.6228 282.436 88.4668 279.736 92.6788 279.736C96.9268 279.736 99.6988 282.472 99.6988 286.504ZM100.527 278.008H84.6868V275.272H100.527V278.008ZM97.0708 272.968H88.5028V270.16H97.0708V272.968ZM113.019 300.76H109.743V267.28H113.019V300.76ZM120.828 282.652H121.548C125.58 282.652 129.468 282.436 131.988 281.86L132.42 284.596C129.756 285.172 125.256 285.46 121.368 285.46H117.48V269.656H130.584V272.428H120.828V276.064H130.08V278.764H120.828V282.652ZM121.548 288.88H144.336V300.76H140.952V291.652H121.548V288.88ZM144.336 287.296H141.06V278.584H137.244V287.044H134.004V267.892H137.244V275.812H141.06V267.28H144.336V287.296ZM178.831 284.524V278.44H162.703V284.524H178.831ZM182.215 287.296H172.387V293.884H185.887V296.656H155.647V293.884H169.003V287.296H159.319V269.62H162.703V275.704H178.831V269.62H182.215V287.296ZM188.512 270.844H204.64C204.424 281.464 198.232 289.312 189.088 294.28L187 291.688C194.92 287.908 200.356 280.924 200.968 273.688H188.512V270.844ZM214.432 300.76H211.048V267.28H214.432V300.76Z" fill="white"/>
<path d="M241 272L255 284L241 296" stroke="white" stroke-width="4" stroke-linecap="round" stroke-linejoin="round"/>
<path d="M6.07534 85.656V64.056L1.64734 64.92V62.184L8.34334 59.196H10.8273V85.656H6.07534ZM27.1652 71.148V62.04H20.0732V71.148H27.1652ZM31.5932 74.64H15.6452V58.584H31.5932V74.64ZM42.1412 89.076H19.2092V78.168H23.6732V85.548H42.1412V89.076ZM41.3132 55.956V65.712H46.1732V69.42H41.3132V80.688H36.7772V55.956H41.3132ZM60.9303 63.408C60.9303 61.896 59.3463 60.384 56.8263 60.384C54.2343 60.384 52.6863 61.896 52.6863 63.408C52.6863 64.884 54.2343 66.324 56.8263 66.324C59.3463 66.324 60.9303 64.884 60.9303 63.408ZM60.3183 80.688H55.8543V74.604C52.3263 74.748 48.9783 74.784 46.4223 74.784L45.8103 71.256C54.1983 71.256 62.7663 70.824 67.5543 70.212L67.8063 73.524C65.5023 73.884 62.9463 74.136 60.3183 74.316V80.688ZM75.2943 89.184H50.2383V79.104H54.7383V85.62H75.2943V89.184ZM63.7743 78.888V75.684H70.2543V55.956H74.7543V82.344H70.2543V78.888H63.7743ZM65.3583 63.408C65.3583 67.08 61.7943 69.672 56.8263 69.672C51.8583 69.672 48.1863 67.08 48.1863 63.336C48.1863 59.736 51.8583 57.036 56.8263 57.036C61.7943 57.036 65.3583 59.736 65.3583 63.408ZM114.829 89.868H91.3574V80.652H109.285V78.312H91.1414V74.748H113.749V83.928H95.8574V86.268H114.829V89.868ZM87.2174 57.432H103.093C103.057 67.08 95.3534 72.264 87.7574 73.884L85.5614 70.248C91.6454 69.42 96.9374 66.036 98.1254 61.14H87.2174V57.432ZM113.749 73.056H109.285V70.14H102.913V66.756H109.285V63.912H103.525V60.528H109.285V55.956H113.749V73.056ZM145.931 90.084H141.683V55.956H145.931V90.084ZM139.091 88.5H134.915V71.4H130.487V67.728H134.915V56.604H139.091V88.5ZM133.691 78.996L131.171 82.2C128.939 80.796 126.059 77.304 125.231 74.28C124.403 77.448 121.523 81.408 118.751 82.956L116.051 79.932C120.911 76.728 123.071 71.868 123.071 65.136V63.48H117.347V59.916H132.719V63.48H127.391V65.028C127.391 71.724 129.623 76.584 133.691 78.996ZM153.632 64.992C153.632 67.296 155.612 68.952 158.276 68.952C161.048 68.952 162.812 67.116 162.812 64.992C162.812 62.652 161.12 60.78 158.276 60.78C155.756 60.78 153.632 62.688 153.632 64.992ZM149.204 65.028C149.204 60.492 153.02 57.108 158.276 57.108C163.46 57.108 167.276 60.42 167.276 65.028C167.276 69.6 163.46 72.66 158.276 72.66C153.2 72.66 149.204 69.708 149.204 65.028ZM176.384 73.056H171.92V55.956H176.384V73.056ZM177.464 89.832H153.992V80.652H171.92V78.312H153.776V74.784H176.384V83.892H158.456V86.232H177.464V89.832ZM193.995 70.536C193.995 71.832 195.723 72.624 197.739 72.624C199.719 72.624 201.447 71.832 201.447 70.536C201.447 69.276 199.719 68.448 197.739 68.448C195.687 68.448 193.995 69.276 193.995 70.536ZM205.839 70.536C205.839 73.704 202.383 75.828 197.739 75.828C193.059 75.828 189.567 73.704 189.567 70.536C189.567 67.368 193.023 65.208 197.739 65.208C202.383 65.208 205.839 67.368 205.839 70.536ZM215.343 90.012H192.015V81.948H209.979V80.328H191.979V76.98H214.479V84.972H196.479V86.628H215.343V90.012ZM219.267 68.556H214.479V75.36H210.015V55.956H214.479V64.884H219.267V68.556ZM192.699 59.484V56.136H202.815V59.484H192.699ZM207.351 64.344H187.551V60.924H207.351V64.344ZM224.772 66.936C224.772 69.636 226.536 71.616 229.416 71.616C232.368 71.616 234.096 69.636 234.096 66.936C234.096 64.308 232.368 62.328 229.416 62.328C226.536 62.328 224.772 64.308 224.772 66.936ZM220.2 66.936C220.2 62.076 223.836 58.512 229.416 58.512C235.032 58.512 238.668 62.076 238.668 66.936C238.668 71.832 235.032 75.324 229.416 75.324C223.836 75.324 220.2 71.832 220.2 66.936ZM248.064 89.184H224.412V78.24H228.912V85.656H248.064V89.184ZM247.308 80.724H242.844V55.956H247.308V80.724ZM252.345 86.016V81.552H256.953V86.016H252.345ZM252.741 77.88L252.129 58.224H257.097L256.557 77.88H252.741Z" fill="#E74723"/>
<path d="M23.2281 142.26L31.2081 123.6H21.2781V120.51H35.4681V122.85L27.5781 142.26H23.2281ZM46.4137 130.29V122.7H40.5037V130.29H46.4137ZM50.1037 133.2H36.8137V119.82H50.1037V133.2ZM58.8937 145.23H39.7837V136.14H43.5037V142.29H58.8937V145.23ZM58.2037 117.63V125.76H62.2537V128.85H58.2037V138.24H54.4237V117.63H58.2037ZM74.5513 123.84C74.5513 122.58 73.2313 121.32 71.1313 121.32C68.9713 121.32 67.6813 122.58 67.6813 123.84C67.6813 125.07 68.9713 126.27 71.1313 126.27C73.2313 126.27 74.5513 125.07 74.5513 123.84ZM74.0413 138.24H70.3213V133.17C67.3813 133.29 64.5913 133.32 62.4613 133.32L61.9513 130.38C68.9413 130.38 76.0813 130.02 80.0713 129.51L80.2813 132.27C78.3613 132.57 76.2313 132.78 74.0413 132.93V138.24ZM86.5213 145.32H65.6413V136.92H69.3913V142.35H86.5213V145.32ZM76.9213 136.74V134.07H82.3213V117.63H86.0713V139.62H82.3213V136.74H76.9213ZM78.2413 123.84C78.2413 126.9 75.2713 129.06 71.1313 129.06C66.9913 129.06 63.9313 126.9 63.9313 123.78C63.9313 120.78 66.9913 118.53 71.1313 118.53C75.2713 118.53 78.2413 120.78 78.2413 123.84ZM107.017 129.75C107.017 125.28 105.427 122.58 103.207 122.58C101.077 122.58 99.5172 125.28 99.5172 129.75C99.5172 134.22 101.077 136.89 103.207 136.89C105.427 136.89 107.017 134.22 107.017 129.75ZM95.8872 129.75C95.8872 123.78 98.5872 119.58 103.207 119.58C107.887 119.58 110.587 123.78 110.587 129.78C110.587 135.69 107.887 139.89 103.207 139.89C98.5872 139.89 95.8872 135.72 95.8872 129.75ZM118.567 146.07H114.847V117.63H118.567V146.07ZM133.985 137.52C130.265 137.52 128.105 138.6 128.105 140.34C128.105 142.02 130.265 143.07 133.985 143.07C137.735 143.07 139.925 142.02 139.925 140.34C139.925 138.6 137.735 137.52 133.985 137.52ZM143.735 140.34C143.735 143.82 140.165 146.07 133.985 146.07C127.835 146.07 124.265 143.82 124.265 140.34C124.265 136.77 127.835 134.55 133.985 134.55C140.165 134.55 143.735 136.77 143.735 140.34ZM137.885 130.05L135.755 132.96C133.565 132.12 130.625 129.84 129.365 127.2C128.525 130.11 125.435 132.78 122.795 133.68L120.545 130.71C124.685 129.24 127.415 125.88 127.415 121.59V118.92H131.255V121.38C131.255 125.79 134.555 128.97 137.885 130.05ZM147.455 127.47H143.405V134.25H139.655V117.63H143.405V124.41H147.455V127.47ZM157.331 119.16H176.591C176.591 123.78 176.291 128.04 175.661 131.31H179.861V134.25H168.821V146.07H165.101V134.25H154.181V131.31H172.121C172.631 128.85 172.871 125.64 172.871 122.16H157.331V119.16ZM189.158 135.81V123.93H184.658V135.81H189.158ZM204.458 146.07H200.888V131.82H198.608V144.75H195.098V118.14H198.608V128.82H200.888V117.63H204.458V146.07ZM192.668 121.05V138.66H181.148V121.05H192.668ZM230.924 136.83L228.764 139.62C226.424 138.18 223.454 134.73 222.494 131.79C221.564 135.03 218.654 138.63 215.714 140.22L213.434 137.49C218.024 134.52 220.484 130.02 220.484 124.38V120.03H224.354V124.17C224.354 129.81 226.634 134.04 230.924 136.83ZM236.804 146.07H233.054V117.63H236.804V146.07Z" fill="#001E6C"/>
<path d="M61.3819 19.65L59.9419 21.54C57.2719 20.25 54.5119 17.82 53.4019 15C52.5319 17.97 49.8319 20.73 46.5619 22.41L45.0619 20.55C49.0519 18.69 52.0819 15.18 52.0819 10.74V8.19H54.5419V10.65C54.5419 15.09 58.2319 18.51 61.3819 19.65ZM64.7119 32.4V26.52H52.0219V32.4H64.7119ZM67.1119 34.41H49.5919V24.51H67.1119V34.41ZM71.3719 15.96H67.1119V23.04H64.6819V6.9H67.1119V13.92H71.3719V15.96ZM87.6296 20.16L86.1896 22.05C83.5196 20.79 80.7296 18.36 79.6496 15.57C78.7796 18.45 76.1396 21.39 72.9296 23.01L71.4296 21.12C75.4496 19.29 78.3596 15.69 78.3596 11.28V8.49H80.8196V11.19C80.8196 15.66 84.4796 19.02 87.6296 20.16ZM85.4996 26.19C81.2096 26.19 78.6296 27.42 78.6296 29.49C78.6296 31.59 81.2096 32.79 85.4996 32.79C89.8496 32.79 92.3996 31.59 92.3996 29.49C92.3996 27.42 89.8496 26.19 85.4996 26.19ZM94.8596 29.49C94.8596 32.73 91.4996 34.77 85.4996 34.77C79.5296 34.77 76.1696 32.73 76.1696 29.49C76.1696 26.25 79.5296 24.21 85.4996 24.21C91.4996 24.21 94.8596 26.25 94.8596 29.49ZM92.1296 15.33H86.1296V13.32H92.1296V6.9H94.5596V24.21H92.1296V15.33ZM99.5072 9.75H112.377C112.197 19.86 107.307 25.86 99.6572 29.55L98.1572 27.72C102.747 25.77 106.287 22.62 108.237 18.48L98.8172 19.32L98.3072 17.1L109.017 16.47C109.467 15 109.737 13.44 109.827 11.79H99.5072V9.75ZM119.307 6.9V18.33H123.867V20.4H119.307V34.8H116.877V6.9H119.307ZM149.155 30.96H123.955V28.92H149.155V30.96ZM146.125 22.8H127.135V9.66H145.855V11.67H129.565V20.79H146.125V22.8ZM158.521 31.2V9.81H161.071V29.07H170.731V31.2H158.521ZM173.254 31.2V9.81H175.774V31.2H173.254ZM179.925 31.2V9.81H182.895L193.215 26.94H193.305V9.81H195.615V31.2H193.005L182.355 13.26H182.265V31.2H179.925ZM199.695 31.2V9.81H202.215V31.2H199.695ZM211.725 31.2L202.635 20.31L211.575 9.81H214.305L205.605 20.04L214.695 31.2H211.725Z" fill="#161D30"/>
</svg>
