<svg width="220" height="119" viewBox="0 0 220 119" fill="none" xmlns="http://www.w3.org/2000/svg">
<path d="M94.9469 28.1269C94.9469 28.1269 95.0413 28.1269 95.0833 28.1059C95.2407 28.0744 95.3771 27.9695 95.4715 27.8331L102.459 16.8266L109.416 26.8468C109.51 26.9727 109.657 27.0777 109.815 27.0986C109.982 27.1301 110.14 27.0881 110.276 26.9937L112.994 25.0841C113.13 24.9897 113.225 24.8533 113.246 24.6854C113.277 24.528 113.246 24.3601 113.141 24.2237L102.806 9.37707C102.69 9.20919 102.491 9.11476 102.281 9.11476C102.082 9.11476 101.882 9.23018 101.777 9.39805L91.6418 25.3884C91.4634 25.6717 91.5474 26.0494 91.8307 26.2383L94.6111 28.022C94.7161 28.0849 94.821 28.1164 94.9364 28.1164L94.9469 28.1269Z" fill="black"/>
<path d="M69.251 28.7561C71.9371 28.7561 74.4028 27.7279 76.1969 26.0386C77.9911 24.3493 79.1453 21.9466 79.1453 19.3025C79.1453 16.6479 78.0016 14.2452 76.1969 12.5559C74.4028 10.8562 71.9371 9.82791 69.251 9.82791C66.565 9.82791 64.0993 10.8562 62.3051 12.5559C60.5109 14.2452 59.3567 16.6374 59.3567 19.2815V19.313C59.3567 21.9571 60.5109 24.3493 62.3051 26.0386C64.0993 27.7383 66.565 28.7561 69.251 28.7561ZM65.4738 15.924C66.4181 15.0321 67.7506 14.4655 69.251 14.4655C70.7514 14.4655 72.0735 15.0321 73.0283 15.924C73.9726 16.8263 74.5182 17.991 74.5182 19.292C74.5182 20.5826 73.9726 21.7577 73.0283 22.66C72.084 23.5519 70.7619 24.1185 69.2615 24.1185C67.7611 24.1185 66.4391 23.5519 65.4843 22.6496C64.54 21.7472 63.9944 20.5826 63.9944 19.2815C63.9944 17.9805 64.54 16.8158 65.4843 15.9135L65.4738 15.924Z" fill="black"/>
<path d="M173.367 39.3028H134.492C134.325 39.3028 134.167 39.3657 134.052 39.4917C133.936 39.5966 133.873 39.7645 133.873 39.9218V43.2584C133.873 43.4263 133.936 43.5837 134.052 43.6991C134.167 43.8145 134.325 43.8775 134.492 43.8775H169.411V51.0752C169.411 51.2431 169.474 51.4005 169.589 51.5054C169.705 51.6208 169.862 51.6838 170.02 51.6838H173.346C173.513 51.6838 173.671 51.6208 173.786 51.5054C173.902 51.39 173.965 51.2326 173.965 51.0752V39.9323C173.965 39.7749 173.902 39.6176 173.786 39.5021C173.671 39.3867 173.513 39.3133 173.346 39.3133L173.367 39.3028Z" fill="black"/>
<path d="M174.353 31.9677C174.237 31.8523 174.08 31.7894 173.923 31.7894H156.275V28.1275H168.876C169.044 28.1275 169.191 28.0646 169.306 27.9492C169.421 27.8338 169.484 27.6659 169.484 27.5085V24.1719C169.484 24.0041 169.421 23.8572 169.306 23.7313C169.191 23.6158 169.033 23.5529 168.876 23.5529H146.412V20.9298H163.042C163.21 20.9298 163.367 20.8668 163.472 20.7514C163.588 20.636 163.651 20.4681 163.651 20.3107V9.61905C163.651 9.46166 163.588 9.30428 163.472 9.17837C163.367 9.07345 163.199 9 163.042 9H144.492C144.334 9 144.166 9.07345 144.061 9.17837C143.946 9.29379 143.883 9.45117 143.883 9.61905V12.9451C143.883 13.113 143.956 13.2599 144.061 13.3753C144.177 13.4907 144.334 13.5537 144.492 13.5537H159.097V16.3446H142.467C142.12 16.3446 141.848 16.6174 141.848 16.9637V27.4875C141.848 27.6449 141.91 27.8023 142.026 27.9282C142.141 28.0436 142.299 28.1066 142.467 28.1066H151.71V31.7684H134.702C134.545 31.7684 134.387 31.8313 134.272 31.9468C134.157 32.0622 134.094 32.2196 134.094 32.3874V35.7135C134.094 35.8814 134.157 36.0388 134.272 36.1542C134.387 36.2696 134.545 36.3326 134.702 36.3326H173.912C174.07 36.3326 174.227 36.2696 174.342 36.1542C174.458 36.0388 174.521 35.8814 174.521 35.7135V32.3874C174.521 32.2196 174.458 32.0622 174.342 31.9468L174.353 31.9677Z" fill="black"/>
<path d="M90.0678 45.4406C90.1833 45.3251 90.2462 45.1678 90.2462 44.9999V41.6738C90.2462 41.5059 90.1833 41.3486 90.0678 41.2331C89.9524 41.1177 89.7951 41.0548 89.6272 41.0548H71.339V32.0523C71.339 31.895 71.2761 31.7271 71.1606 31.6221C71.0452 31.5067 70.8878 31.4438 70.72 31.4438H67.5513C67.3834 31.4438 67.226 31.5172 67.1106 31.6221C66.9952 31.7376 66.9322 31.895 66.9322 32.0523V41.0548H46.619C46.4512 41.0548 46.2938 41.1282 46.1784 41.2331C46.063 41.3486 46 41.5059 46 41.6738V44.9999C46 45.1678 46.063 45.3251 46.1784 45.4406C46.2938 45.556 46.4512 45.6294 46.619 45.6294H89.6377C89.8055 45.6294 89.9524 45.556 90.0783 45.4406H90.0678Z" fill="black"/>
<path d="M99.3326 41.337H128.019C128.176 41.337 128.344 41.2635 128.459 41.1586C128.564 41.0432 128.638 40.8858 128.638 40.7284V30.4459C128.638 30.2781 128.575 30.1207 128.459 30.0053C128.344 29.8898 128.176 29.8269 128.019 29.8269H95.7442C95.5868 29.8269 95.4294 29.8898 95.314 30.0053C95.1986 30.1207 95.1356 30.2781 95.1356 30.4459V33.772C95.1356 33.9399 95.1986 34.0973 95.314 34.2127C95.4294 34.3281 95.5868 34.3911 95.7442 34.3911H124.063V36.7833H95.3874C95.2196 36.7833 95.0622 36.8463 94.9468 36.9617C94.8314 37.0771 94.7684 37.2345 94.7684 37.3919V47.3701C94.7684 47.5275 94.8314 47.6954 94.9468 47.8003C95.0622 47.9157 95.2196 47.9786 95.3874 47.9786H130.495C130.663 47.9786 130.81 47.9157 130.936 47.8003C131.051 47.6849 131.114 47.5275 131.114 47.3701V44.044C131.114 43.8866 131.04 43.7188 130.936 43.6033C130.82 43.4879 130.663 43.425 130.495 43.425H99.3326V41.337Z" fill="black"/>
<path d="M114.945 19.7764H124.221V26.4075C124.221 26.5754 124.284 26.7328 124.399 26.8482C124.514 26.9636 124.682 27.0266 124.84 27.0266H128.176C128.344 27.0266 128.501 26.9636 128.617 26.8482C128.732 26.7328 128.795 26.5754 128.795 26.4075V10.1024C128.795 9.94505 128.732 9.78766 128.617 9.67225C128.501 9.55683 128.344 9.49388 128.176 9.49388H124.84C124.682 9.49388 124.514 9.55683 124.399 9.67225C124.284 9.78766 124.221 9.94505 124.221 10.1024V15.2122H114.945C114.777 15.2122 114.62 15.2752 114.505 15.3906C114.389 15.506 114.326 15.6634 114.326 15.8313V19.1573C114.326 19.3147 114.389 19.4721 114.505 19.5875C114.62 19.7029 114.777 19.7659 114.945 19.7659V19.7764Z" fill="black"/>
<path d="M87.4658 63.6237C85.3883 63.0991 84.8847 62.8368 84.8847 62.0499V62.0184C84.8847 61.4308 85.4093 60.9692 86.4271 60.9692C87.7176 60.9692 89.3124 61.9974 89.3124 61.9974L90.9178 60.1612C89.7007 59.1855 88.2108 58.6399 86.4585 58.6399C84.0033 58.6399 82.2616 60.0878 82.2616 62.2597V62.3017C82.2616 64.6834 83.825 65.355 86.2382 65.9635C88.2422 66.4776 88.6514 66.8239 88.6514 67.4954V67.5374C88.6514 68.2403 88.0009 68.6705 86.9202 68.6705C85.5982 68.6705 84.507 68.1459 83.4577 67.3065C82.9856 67.8836 81.8314 69.1217 81.8629 69.1427C83.2898 70.3808 85.084 70.9893 86.8677 70.9893C89.4593 70.9893 91.2745 69.6568 91.2745 67.2646V67.2331C91.2745 65.1451 89.9 64.2742 87.4658 63.6342V63.6237Z" fill="black"/>
<path d="M73.5528 58.5968C69.849 58.5968 67.1525 61.3878 67.1525 64.7978V64.8293C67.1525 68.2393 69.807 70.9988 73.5108 70.9988C77.2146 70.9988 79.9007 68.2078 79.9007 64.7978V64.7663C79.9007 61.3563 77.2461 58.5968 73.5423 58.5968H73.5528ZM77.1517 64.8398C77.1517 66.8963 75.6828 68.575 73.5528 68.575C71.4229 68.575 69.9225 66.8543 69.9225 64.7978V64.7663C69.9225 62.7098 71.3914 61.031 73.5213 61.031C75.6513 61.031 77.1517 62.7518 77.1517 64.8083V64.8398Z" fill="black"/>
<path d="M101.735 65.6804C101.735 67.59 100.759 68.5658 99.1436 68.5658C97.5278 68.5658 96.552 67.548 96.552 65.5964V58.8079H93.908V65.6594C93.908 69.1953 95.8805 71 99.1017 71C102.323 71 104.369 69.2163 104.369 65.5755V58.8079H101.735V65.6804Z" fill="black"/>
<path d="M148.688 68.575C146.632 68.575 145.216 66.8543 145.216 64.7978V64.7663C145.216 62.7098 146.674 61.031 148.688 61.031C149.885 61.031 150.829 61.5452 151.752 62.3846L153.431 60.4435C152.319 59.3418 150.965 58.5968 148.699 58.5968C145.016 58.5968 142.435 61.3878 142.435 64.7978V64.8293C142.435 68.2708 145.058 70.9988 148.584 70.9988C150.902 70.9988 152.266 70.1804 153.504 68.8478L151.826 67.1586C150.881 68.0084 150.042 68.5645 148.678 68.5645L148.688 68.575Z" fill="black"/>
<path d="M110.392 58.8079H107.758V70.8006H114.305L116.372 68.3979H110.392V58.8079Z" fill="black"/>
<path d="M134.167 58.5968C130.463 58.5968 127.767 61.3878 127.767 64.7978V64.8293C127.767 68.2393 130.421 70.9988 134.125 70.9988C137.829 70.9988 140.515 68.2078 140.515 64.7978V64.7663C140.515 61.3563 137.86 58.5968 134.157 58.5968H134.167ZM137.766 64.8398C137.766 66.8963 136.287 68.575 134.167 68.575C132.048 68.575 130.526 66.8543 130.526 64.7978V64.7663C130.526 62.7098 132.006 61.031 134.125 61.031C136.245 61.031 137.766 62.7518 137.766 64.8083V64.8398Z" fill="black"/>
<path d="M120.968 58.8079H118.334V70.8006H124.85L126.948 68.3979H120.968V58.8079Z" fill="black"/>
<path d="M96.891 102.36H92.603C91.803 102.36 91.291 101.848 91.291 101.208C91.291 100.568 91.803 100.056 92.603 100.056H98.075C98.779 100.056 99.259 100.536 99.259 101.24V103.064C99.259 107.192 96.315 111.384 90.971 111.384C85.179 111.384 81.787 106.392 81.787 100.472C81.787 94.552 85.179 89.56 90.971 89.56C93.659 89.56 95.771 90.648 97.211 92.184C97.467 92.472 97.659 92.824 97.659 93.24C97.659 93.944 97.179 94.36 96.603 94.36C96.155 94.36 95.803 94.136 95.451 93.784C94.299 92.6 92.859 91.864 90.971 91.864C86.683 91.864 84.155 95.704 84.155 100.472C84.155 105.24 86.683 109.08 90.971 109.08C94.587 109.08 96.891 106.296 96.891 103.032V102.36ZM103.881 111.224C103.209 111.224 102.697 110.712 102.697 109.88V91.064C102.697 90.232 103.209 89.72 103.881 89.72C104.553 89.72 105.065 90.232 105.065 91.064V109.88C105.065 110.712 104.553 111.224 103.881 111.224ZM111.508 101.56V109.88C111.508 110.712 110.996 111.224 110.324 111.224C109.652 111.224 109.14 110.712 109.14 109.88V91.128C109.14 90.424 109.62 89.944 110.324 89.944H120.82C121.62 89.944 122.132 90.456 122.132 91.096C122.132 91.736 121.62 92.248 120.82 92.248H111.508V99.256H117.428C118.228 99.256 118.74 99.768 118.74 100.408C118.74 101.048 118.228 101.56 117.428 101.56H111.508ZM131.319 92.248V109.88C131.319 110.712 130.807 111.224 130.135 111.224C129.463 111.224 128.951 110.712 128.951 109.88V92.248H123.543C122.743 92.248 122.231 91.736 122.231 91.096C122.231 90.456 122.743 89.944 123.543 89.944H136.727C137.527 89.944 138.039 90.456 138.039 91.096C138.039 91.736 137.527 92.248 136.727 92.248H131.319Z" fill="black"/>
</svg>
