<svg width="273" height="34" viewBox="0 0 273 34" fill="none" xmlns="http://www.w3.org/2000/svg">
<path d="M4.54448 2.332H26.9725C26.9725 6.868 26.7925 13.204 25.7845 18.1H31.0765V20.872H17.6125V33.76H14.2285V20.872H0.836484V18.1H22.4725C22.8325 16.624 23.0845 14.392 23.2645 12.124L4.14848 12.916L3.64448 10.144L23.4085 9.496C23.5165 7.804 23.5525 6.184 23.5525 5.068H4.54448V2.332ZM59.4777 4.492H34.9257V1.756H59.4777V4.492ZM58.9017 32.752H36.0777V23.86H39.4617V30.016H58.9017V32.752ZM62.3937 21.484H32.1537V18.712H45.5097V15.04H34.9617V12.268H40.2537L39.2817 6.184L42.6657 5.68L43.4217 12.268H50.9817L51.8097 5.644L55.2297 6.148L54.0777 12.268H59.4417V15.04H48.8937V18.712H62.3937V21.484ZM79.4909 5.788H64.0469V3.016H79.4909V5.788ZM68.9789 21.808H91.7669V33.76H88.3829V24.58H68.9789V21.808ZM80.2829 14.932L80.5709 17.56C78.6629 17.884 75.8189 18.136 72.4709 18.352C69.1589 18.568 66.6029 18.64 63.7229 18.712L63.2549 15.832C64.6229 15.832 65.8829 15.832 67.1069 15.796L66.2069 7.696L69.5189 7.228L70.1309 15.652L72.2549 15.544C72.6509 15.544 73.0109 15.544 73.3709 15.508L74.1269 7.228L77.3309 7.588L76.3589 15.364C77.8709 15.256 79.0589 15.112 80.2829 14.932ZM91.7669 20.152H88.4909V11.512H84.9269V19.792H81.6869V0.891999H84.9269V8.74H88.4909V0.279999H91.7669V20.152ZM117.298 16.66C117.298 14.536 115.21 13.384 112.762 13.384C110.314 13.384 108.226 14.536 108.226 16.66C108.226 18.676 110.35 19.9 112.762 19.9C115.21 19.9 117.298 18.676 117.298 16.66ZM120.682 16.66C120.682 20.332 117.298 22.636 112.762 22.636C108.262 22.636 104.842 20.368 104.842 16.66C104.842 12.88 108.226 10.648 112.762 10.648C117.298 10.648 120.682 12.88 120.682 16.66ZM122.554 9.1H102.898V6.364H122.554V9.1ZM117.406 4.06H107.686V1.324H117.406V4.06ZM130.078 32.752H107.758V23.968H111.142V30.016H130.078V32.752ZM133.966 14.356H128.926V24.94H125.578V0.279999H128.926V11.512H133.966V14.356ZM170.945 32.716H148.445V22.42H151.829V29.98H170.945V32.716ZM166.769 12.412H161.549V9.604H166.769V0.279999H170.153V24.652H166.769V12.412ZM156.257 16.768V11.26H147.437V16.768H156.257ZM159.641 19.54H144.053V2.476H147.437V8.524H156.257V2.44H159.641V19.54ZM202.298 33.76H199.058V0.279999H202.298V33.76ZM186.062 14.644C186.062 9.424 184.694 5.788 181.994 5.788C179.33 5.788 177.962 9.424 177.962 14.644C177.962 19.864 179.33 23.5 181.994 23.5C184.694 23.5 186.062 19.864 186.062 14.644ZM181.994 2.908C186.674 2.908 189.05 7.336 189.338 13.348H192.578V0.927999H195.818V32.176H192.578V16.12H189.338C189.014 22.06 186.602 26.38 181.994 26.38C176.99 26.38 174.614 21.304 174.614 14.608C174.614 7.948 176.99 2.908 181.994 2.908ZM239.889 33.292H218.325V21.448H239.565V24.22H221.709V30.556H239.889V33.292ZM227.361 15.04V10.072H218.145V15.04H227.361ZM230.745 17.812H214.761V2.188H218.145V7.336H227.361V2.152H230.745V17.812ZM244.461 11.62H239.457V19.504H236.073V0.279999H239.457V8.812H244.461V11.62ZM246.474 3.844H262.602C262.386 14.464 256.194 22.312 247.05 27.28L244.962 24.688C252.882 20.908 258.318 13.924 258.93 6.688H246.474V3.844ZM272.394 33.76H269.01V0.279999H272.394V33.76Z" fill="white"/>
</svg>
