<svg width="231" height="141" viewBox="0 0 231 141" fill="none" xmlns="http://www.w3.org/2000/svg">
<path d="M23.43 2.43V4.92C23.43 7.26 23.07 10.62 22.62 12.36L20.25 12.03C20.67 10.5 20.88 7.98 20.91 6.69L20.94 4.44H3.99V2.43H23.43ZM26.4 16.2H1.2V14.19H11.58V8.31H14.01V14.19H26.4V16.2ZM21.36 23.52C21.36 21.6 18.42 20.46 13.74 20.46C9.03 20.46 6.12 21.6 6.12 23.52C6.12 25.47 9.03 26.58 13.74 26.58C18.42 26.58 21.36 25.47 21.36 23.52ZM23.76 23.52C23.76 26.64 20.28 28.53 13.74 28.53C7.23 28.53 3.69 26.64 3.69 23.52C3.69 20.4 7.23 18.48 13.74 18.48C20.28 18.48 23.76 20.4 23.76 23.52ZM39.8977 4.32C35.2477 4.32 32.3977 5.85 32.3977 8.22C32.3977 10.59 35.2477 12.12 39.8977 12.12C44.5777 12.12 47.4277 10.59 47.4277 8.22C47.4277 5.85 44.5777 4.32 39.8977 4.32ZM36.2377 28.8H33.8077V18.9H27.2977V16.86H52.4977V18.9H45.8977V28.8H43.4677V18.9H36.2377V28.8ZM49.7977 8.22C49.7977 11.82 46.0777 14.28 39.8977 14.28C33.7177 14.28 29.9977 11.85 29.9977 8.22C29.9977 4.59 33.7177 2.16 39.8977 2.16C46.0777 2.16 49.7977 4.59 49.7977 8.22ZM75.9253 27.84H57.3853V19.26H59.8153V25.83H75.9253V27.84ZM79.1053 11.25H74.8453V21.15H72.4153V0.899999H74.8453V9.21H79.1053V11.25ZM65.1553 14.25V5.37H56.7853V14.25H65.1553ZM67.5853 16.29H54.3553V3.36H67.5853V16.29ZM97.2312 5.13H89.6112V3.03H97.2312V5.13ZM100.231 9.69H86.3412V7.68H100.231V9.69ZM97.3812 16.89C97.3812 14.73 95.8212 13.35 93.6312 13.35C91.4112 13.35 89.8812 14.76 89.8812 16.89C89.8812 19.05 91.4112 20.43 93.6312 20.43C95.8212 20.43 97.3812 18.99 97.3812 16.89ZM99.7212 16.89C99.7212 20.25 97.2312 22.44 93.6312 22.44C90.0612 22.44 87.5412 20.07 87.5412 16.89C87.5412 13.5 90.0612 11.31 93.6312 11.31C97.2312 11.31 99.7212 13.53 99.7212 16.89ZM109.951 28.8H107.551V14.34H104.191V27.39H101.821V1.56H104.191V12.3H107.551V0.899999H109.951V28.8ZM137.699 25.23H112.499V23.19H123.839V16.38H115.559V3.24H134.699V5.25H117.989V14.37H134.849V16.38H126.269V23.19H137.699V25.23Z" fill="#161D30"/>
<path d="M19.104 74.2L16.896 77.176C14.56 76.28 11.424 73.976 10.144 71.16C9.216 74.264 5.92 76.984 3.072 77.944L0.768 74.968C5.152 73.368 8 69.88 8 65.272V63.032H12.16V65.08C12.16 69.752 15.584 73.08 19.104 74.2ZM27.04 92.184H6.176V84.12H22.112V82.136H5.984V78.968H26.112V87.032H10.176V88.984H27.04V92.184ZM26.112 77.432H22.112V70.712H16.96V67.512H22.112V62.072H26.112V77.432ZM41.3735 77.368C41.3735 76.216 40.0295 75.288 38.1095 75.288C36.2535 75.288 34.9095 76.216 34.9095 77.368C34.9095 78.488 36.2535 79.48 38.1095 79.48C40.0295 79.48 41.3735 78.488 41.3735 77.368ZM33.9175 66.968V63.928H42.4935V66.968H33.9175ZM46.7815 71.32H29.4695V68.28H46.7815V71.32ZM52.8295 62.072V74.456H56.7335V77.752H52.8295V92.408H48.8615V62.072H52.8295ZM45.3415 77.368C45.3415 79.896 43.2935 81.72 40.2535 82.328V84.312C42.9415 84.152 45.3735 83.96 47.1655 83.736C47.2615 84.728 47.3575 85.784 47.4855 86.776C44.6055 87.16 40.3175 87.544 37.2455 87.704C34.8135 87.832 32.1255 87.928 29.1495 87.928L28.6375 84.632C31.1335 84.632 33.7255 84.6 36.2535 84.504V82.36C33.0855 81.848 30.9095 79.96 30.9095 77.368C30.9095 74.328 33.9815 72.248 38.1095 72.248C42.3015 72.248 45.3415 74.328 45.3415 77.368ZM82.971 72.76L81.243 75.992C76.763 75.32 71.899 72.44 70.427 69.08C69.083 72.44 64.251 75.288 59.643 76.024L57.947 72.76C63.195 72.184 68.315 68.824 68.315 64.28V62.744H72.539V64.28C72.539 68.824 78.107 72.312 82.971 72.76ZM72.315 92.44H68.315V81.656H56.699V78.52H84.091V81.656H72.315V92.44ZM112.097 69.176C112.097 67.32 109.601 66.104 105.601 66.104C101.665 66.104 99.1372 67.32 99.1372 69.176C99.1372 70.968 101.665 72.152 105.601 72.152C109.601 72.152 112.097 70.968 112.097 69.176ZM116.129 91.608H95.3612V83.064H99.3612V88.44H116.129V91.608ZM104.577 85.656H100.609V80.152H91.9052V76.984H119.297V80.152H112.513V85.656H108.545V80.152H104.577V85.656ZM116.193 69.112C116.193 72.664 112.257 75.256 105.633 75.256C98.9452 75.256 95.0732 72.664 95.0732 69.112C95.0732 65.656 98.9452 63.064 105.601 63.064C112.257 63.064 116.193 65.656 116.193 69.112ZM147.135 88.6H119.743V85.496H131.359V78.712H135.359V85.496H147.135V88.6ZM146.335 76.472L144.319 79.576C140.191 78.616 135.167 75.864 133.439 71.864C131.871 75.96 126.623 78.68 122.495 79.608L120.607 76.376C125.343 75.704 130.847 72.504 131.327 67.544H122.079V64.408H144.799V67.544H135.583C136.095 72.472 141.919 75.8 146.335 76.472ZM162.716 64.888V84.568H148.316V64.888H162.716ZM158.748 81.4V68.088H152.284V81.4H158.748ZM171.292 62.072V73.72H175.42V77.016H171.292V92.408H167.26V62.072H171.292ZM202.234 76.024L200.218 79.128C196.09 78.168 190.842 75.032 189.114 71.032C187.546 75.128 182.106 78.36 177.946 79.256L176.058 76.024C181.018 75.32 187.066 71.32 187.066 65.944V63.928H191.226V65.944C191.226 71.256 197.626 75.256 202.234 76.024ZM202.81 88.472H175.418V85.304H202.81V88.472ZM206.519 65.368H227.447C227.447 72.92 226.839 80.216 225.975 83.8L222.135 83.448C222.583 81.656 222.903 79.128 223.127 76.504L205.943 77.4L205.431 74.232C211.415 74.008 217.367 73.752 223.319 73.496C223.415 71.672 223.479 69.944 223.479 68.504H206.519V65.368ZM230.647 88.408H203.255V85.272H230.647V88.408ZM5.376 136.472V117.272L1.44 118.04V115.608L7.392 112.952H9.6V136.472H5.376ZM22.8425 133.528C25.9785 133.528 27.5465 131.288 27.5465 125.72V123.96C27.5465 118.424 25.9465 115.96 22.8745 115.96C19.7385 115.96 18.1705 118.296 18.1705 123.736V125.528C18.1705 130.936 19.7065 133.528 22.8425 133.528ZM22.8425 136.728C17.7545 136.728 13.7865 133.464 13.7865 125.528V124.088C13.7865 115.736 18.1065 112.728 22.9065 112.728C27.7385 112.728 31.8665 115.768 31.8665 123.96V125.432C31.8665 133.624 27.7385 136.728 22.8425 136.728ZM43.2112 133.528C46.3472 133.528 47.9152 131.288 47.9152 125.72V123.96C47.9152 118.424 46.3152 115.96 43.2432 115.96C40.1072 115.96 38.5392 118.296 38.5392 123.736V125.528C38.5392 130.936 40.0752 133.528 43.2112 133.528ZM43.2112 136.728C38.1232 136.728 34.1552 133.464 34.1552 125.528V124.088C34.1552 115.736 38.4752 112.728 43.2752 112.728C48.1073 112.728 52.2353 115.768 52.2353 123.96V125.432C52.2353 133.624 48.1073 136.728 43.2112 136.728ZM75.644 134.328C77.244 134.328 78.012 133.304 78.012 130.616V129.848C78.012 127.224 77.18 126.104 75.644 126.104C74.076 126.104 73.308 127.192 73.308 129.816V130.584C73.308 133.272 74.044 134.328 75.644 134.328ZM75.644 136.76C72.156 136.76 69.82 134.488 69.82 130.552V130.072C69.82 126.168 72.188 123.704 75.644 123.704C79.068 123.704 81.468 125.976 81.468 129.848V130.36C81.468 134.264 79.132 136.76 75.644 136.76ZM59.644 123.448C61.276 123.448 62.044 122.36 62.044 119.672V118.936C62.044 116.344 61.212 115.16 59.644 115.16C58.108 115.16 57.308 116.312 57.308 118.904V119.64C57.308 122.36 58.076 123.448 59.644 123.448ZM59.644 125.88C56.156 125.88 53.884 123.576 53.884 119.64V119.192C53.884 115.256 56.188 112.76 59.644 112.76C63.068 112.76 65.436 115.032 65.436 118.936V119.448C65.436 123.352 63.132 125.88 59.644 125.88ZM57.948 137.784L73.884 112.504H76.988L61.052 137.784H57.948ZM109.592 134.808C109.592 133.272 107.032 132.312 103.064 132.312C99.1278 132.312 96.5677 133.272 96.5677 134.808C96.5677 136.344 99.1278 137.272 103.064 137.272C107.032 137.272 109.592 136.344 109.592 134.808ZM116.76 124.568V127.704H89.3678V124.568H116.76ZM115.384 119.736L113.688 122.872C109.24 122.52 104.824 120.152 103.096 117.24C101.56 120.248 97.2718 122.488 92.4718 122.872L90.8398 119.8C95.5438 119.576 99.6718 117.656 100.728 114.584H92.1838V111.416H114.04V114.584H105.528C106.744 117.656 111.32 119.544 115.384 119.736ZM113.656 134.776C113.656 138.264 109.784 140.408 103.096 140.408C96.3438 140.408 92.4718 138.264 92.4718 134.776C92.4718 131.32 96.3438 129.176 103.064 129.176C109.784 129.176 113.656 131.32 113.656 134.776ZM131.861 131.448C127.765 131.448 125.333 132.504 125.333 134.36C125.333 136.12 127.765 137.176 131.861 137.176C136.053 137.176 138.453 136.12 138.453 134.36C138.453 132.504 136.053 131.448 131.861 131.448ZM133.749 120.536V117.336H138.293V110.072H142.293V128.12H138.293V120.536H133.749ZM118.261 115.48V112.216H134.229V115.48H128.469C128.789 119.704 131.829 122.552 135.157 123.64C134.453 124.696 133.717 125.72 132.981 126.776C130.677 125.88 127.733 123.608 126.421 120.824C125.493 123.768 122.293 126.616 119.381 127.64L117.013 124.536C121.237 123 124.053 119.8 124.277 115.48H118.261ZM142.485 134.36C142.485 138.04 138.581 140.344 131.861 140.344C125.173 140.344 121.269 138.04 121.269 134.36C121.269 130.584 125.173 128.248 131.861 128.248C138.581 128.248 142.485 130.584 142.485 134.36Z" fill="#161D30"/>
</svg>
