<svg width="217" height="30" viewBox="0 0 217 30" fill="none" xmlns="http://www.w3.org/2000/svg">
<path d="M0.905859 25.23V22.95L5.10586 18.54C8.13586 15.36 10.5659 12.63 10.5659 9.9C10.5659 7.26 9.12586 6.21 6.33586 6.21C4.80586 6.21 3.00586 6.96 1.80586 7.68L1.17586 4.8C2.64586 3.93 4.86586 3.12 7.38586 3.12C12.1859 3.12 14.6459 5.43 14.6459 9.39C14.6459 13.29 11.3159 16.77 8.64586 19.53L6.06586 22.17H14.8259V25.23H0.905859ZM26.2359 13.29V5.7H20.3259V13.29H26.2359ZM29.9259 16.2H16.6359V2.82H29.9259V16.2ZM38.7159 28.23H19.6059V19.14H23.3259V25.29H38.7159V28.23ZM38.0259 0.629999V8.76H42.0759V11.85H38.0259V21.24H34.2459V0.629999H38.0259ZM54.3736 6.84C54.3736 5.58 53.0536 4.32 50.9536 4.32C48.7936 4.32 47.5036 5.58 47.5036 6.84C47.5036 8.07 48.7936 9.27 50.9536 9.27C53.0536 9.27 54.3736 8.07 54.3736 6.84ZM53.8636 21.24H50.1436V16.17C47.2036 16.29 44.4136 16.32 42.2836 16.32L41.7736 13.38C48.7636 13.38 55.9036 13.02 59.8936 12.51L60.1036 15.27C58.1836 15.57 56.0536 15.78 53.8636 15.93V21.24ZM66.3436 28.32H45.4636V19.92H49.2136V25.35H66.3436V28.32ZM56.7436 19.74V17.07H62.1436V0.629999H65.8936V22.62H62.1436V19.74H56.7436ZM58.0636 6.84C58.0636 9.9 55.0936 12.06 50.9536 12.06C46.8136 12.06 43.7536 9.9 43.7536 6.78C43.7536 3.78 46.8136 1.53 50.9536 1.53C55.0936 1.53 58.0636 3.78 58.0636 6.84ZM86.8395 12.75C86.8395 8.28 85.2495 5.58 83.0295 5.58C80.8995 5.58 79.3395 8.28 79.3395 12.75C79.3395 17.22 80.8995 19.89 83.0295 19.89C85.2495 19.89 86.8395 17.22 86.8395 12.75ZM75.7095 12.75C75.7095 6.78 78.4095 2.58 83.0295 2.58C87.7095 2.58 90.4095 6.78 90.4095 12.78C90.4095 18.69 87.7095 22.89 83.0295 22.89C78.4095 22.89 75.7095 18.72 75.7095 12.75ZM98.3895 29.07H94.6695V0.629999H98.3895V29.07ZM113.807 20.52C110.087 20.52 107.927 21.6 107.927 23.34C107.927 25.02 110.087 26.07 113.807 26.07C117.557 26.07 119.747 25.02 119.747 23.34C119.747 21.6 117.557 20.52 113.807 20.52ZM123.557 23.34C123.557 26.82 119.987 29.07 113.807 29.07C107.657 29.07 104.087 26.82 104.087 23.34C104.087 19.77 107.657 17.55 113.807 17.55C119.987 17.55 123.557 19.77 123.557 23.34ZM117.707 13.05L115.577 15.96C113.387 15.12 110.447 12.84 109.187 10.2C108.347 13.11 105.257 15.78 102.617 16.68L100.367 13.71C104.507 12.24 107.237 8.88 107.237 4.59V1.92H111.077V4.38C111.077 8.79 114.377 11.97 117.707 13.05ZM127.277 10.47H123.227V17.25H119.477V0.629999H123.227V7.41H127.277V10.47ZM137.153 2.16H156.413C156.413 6.78 156.113 11.04 155.483 14.31H159.683V17.25H148.643V29.07H144.923V17.25H134.003V14.31H151.943C152.453 11.85 152.693 8.64 152.693 5.16H137.153V2.16ZM168.981 18.81V6.93H164.481V18.81H168.981ZM184.281 29.07H180.711V14.82H178.431V27.75H174.921V1.14H178.431V11.82H180.711V0.629999H184.281V29.07ZM172.491 4.05V21.66H160.971V4.05H172.491ZM210.746 19.83L208.586 22.62C206.246 21.18 203.276 17.73 202.316 14.79C201.386 18.03 198.476 21.63 195.536 23.22L193.256 20.49C197.846 17.52 200.306 13.02 200.306 7.38V3.03H204.176V7.17C204.176 12.81 206.456 17.04 210.746 19.83ZM216.626 29.07H212.876V0.629999H216.626V29.07Z" fill="#495576"/>
</svg>
