<svg width="94" height="90" viewBox="0 0 94 90" fill="none" xmlns="http://www.w3.org/2000/svg">
<path d="M14.1406 35.5859C11.5625 35.5859 9.28125 35.1719 7.29688 34.3438C5.32812 33.5156 3.78906 32.3672 2.67969 30.8984C1.57031 29.4141 1.01562 27.7109 1.01562 25.7891V25.7422C1.01562 24.3203 1.33594 23.0234 1.97656 21.8516C2.61719 20.6641 3.50781 19.6719 4.64844 18.875C5.80469 18.0625 7.125 17.5078 8.60938 17.2109V17.0703C6.70312 16.5547 5.16406 15.6328 3.99219 14.3047C2.82031 12.9766 2.23438 11.4141 2.23438 9.61719V9.57031C2.23438 7.85156 2.74219 6.32031 3.75781 4.97656C4.77344 3.61719 6.17969 2.54687 7.97656 1.76562C9.77344 0.984375 11.8281 0.59375 14.1406 0.59375C16.4688 0.59375 18.5234 0.984375 20.3047 1.76562C22.1016 2.54687 23.5078 3.61719 24.5234 4.97656C25.5391 6.32031 26.0469 7.85156 26.0469 9.57031V9.61719C26.0469 11.4141 25.4609 12.9766 24.2891 14.3047C23.1328 15.6328 21.5938 16.5547 19.6719 17.0703V17.2109C21.1719 17.5078 22.4922 18.0625 23.6328 18.875C24.7734 19.6719 25.6641 20.6641 26.3047 21.8516C26.9453 23.0234 27.2656 24.3203 27.2656 25.7422V25.7891C27.2656 27.7109 26.7109 29.4141 25.6016 30.8984C24.4922 32.3672 22.9453 33.5156 20.9609 34.3438C18.9922 35.1719 16.7188 35.5859 14.1406 35.5859ZM14.1406 30.9688C15.5 30.9688 16.6953 30.7344 17.7266 30.2656C18.7578 29.7812 19.5703 29.125 20.1641 28.2969C20.7578 27.4531 21.0547 26.4922 21.0547 25.4141V25.3672C21.0547 24.2734 20.7578 23.3125 20.1641 22.4844C19.5859 21.6406 18.7734 20.9766 17.7266 20.4922C16.6953 20.0078 15.5 19.7656 14.1406 19.7656C12.7812 19.7656 11.5781 20.0078 10.5312 20.4922C9.5 20.9766 8.6875 21.6406 8.09375 22.4844C7.51562 23.3125 7.22656 24.2734 7.22656 25.3672V25.4141C7.22656 26.4922 7.52344 27.4531 8.11719 28.2969C8.71094 29.125 9.52344 29.7812 10.5547 30.2656C11.6016 30.7344 12.7969 30.9688 14.1406 30.9688ZM14.1406 15.1484C15.3125 15.1484 16.3438 14.9375 17.2344 14.5156C18.125 14.0938 18.8203 13.5078 19.3203 12.7578C19.8203 12.0078 20.0703 11.1484 20.0703 10.1797V10.1328C20.0703 9.14844 19.8203 8.28906 19.3203 7.55469C18.8203 6.80469 18.125 6.21875 17.2344 5.79688C16.3438 5.375 15.3125 5.16406 14.1406 5.16406C12.9688 5.16406 11.9375 5.375 11.0469 5.79688C10.1562 6.21875 9.46094 6.80469 8.96094 7.55469C8.46094 8.28906 8.21094 9.14844 8.21094 10.1328V10.1797C8.21094 11.1484 8.46094 12.0078 8.96094 12.7578C9.46094 13.5078 10.1562 14.0938 11.0469 14.5156C11.9375 14.9375 12.9688 15.1484 14.1406 15.1484ZM41.5297 35.5859C39.0609 35.5859 36.9047 35.1719 35.0609 34.3438C33.2172 33.5156 31.7563 32.3828 30.6781 30.9453C29.6156 29.4922 28.9984 27.8281 28.8266 25.9531L28.8031 25.6484H34.5688L34.6156 25.9062C34.7719 27.2656 35.4672 28.3984 36.7016 29.3047C37.9359 30.1953 39.5453 30.6406 41.5297 30.6406C42.8422 30.6406 43.9828 30.4219 44.9516 29.9844C45.9359 29.5312 46.6938 28.9141 47.225 28.1328C47.7719 27.3516 48.0453 26.4453 48.0453 25.4141V25.3672C48.0453 23.5859 47.4281 22.2188 46.1938 21.2656C44.975 20.3125 43.2797 19.8359 41.1078 19.8359H37.1V15.3359H40.9672C42.2172 15.3359 43.3031 15.1172 44.225 14.6797C45.1625 14.2422 45.8891 13.6484 46.4047 12.8984C46.9359 12.1328 47.2016 11.2578 47.2016 10.2734V10.2266C47.2016 9.19531 46.975 8.32812 46.5219 7.625C46.0688 6.90625 45.4125 6.35938 44.5531 5.98438C43.7094 5.59375 42.6859 5.39844 41.4828 5.39844C40.2953 5.39844 39.2406 5.59375 38.3188 5.98438C37.4125 6.375 36.6859 6.92969 36.1391 7.64844C35.5922 8.35156 35.2641 9.1875 35.1547 10.1562L35.1313 10.3906H29.5297L29.5531 10.1094C29.725 8.20312 30.3188 6.53906 31.3344 5.11719C32.3656 3.69531 33.7484 2.58594 35.4828 1.78906C37.2172 0.992188 39.2172 0.59375 41.4828 0.59375C43.8109 0.59375 45.8344 0.96875 47.5531 1.71875C49.2875 2.45312 50.6234 3.48437 51.5609 4.8125C52.5141 6.125 52.9906 7.66406 52.9906 9.42969V9.47656C52.9906 10.8672 52.6781 12.1016 52.0531 13.1797C51.4281 14.2422 50.5766 15.125 49.4984 15.8281C48.4359 16.5312 47.2328 17.0234 45.8891 17.3047V17.4219C48.3891 17.6562 50.3969 18.4844 51.9125 19.9062C53.4281 21.3125 54.1859 23.1875 54.1859 25.5312V25.5781C54.1859 27.5312 53.6469 29.2656 52.5688 30.7812C51.5063 32.2812 50.0297 33.4609 48.1391 34.3203C46.2484 35.1641 44.0453 35.5859 41.5297 35.5859ZM63.5516 18.3359C61.2391 18.3359 59.4109 17.5547 58.0672 15.9922C56.7391 14.4141 56.075 12.2812 56.075 9.59375V9.57031C56.075 6.89844 56.7391 4.78125 58.0672 3.21875C59.4109 1.65625 61.2391 0.875 63.5516 0.875C65.8953 0.875 67.7234 1.65625 69.0359 3.21875C70.3641 4.78125 71.0281 6.89844 71.0281 9.57031V9.59375C71.0281 12.2812 70.3641 14.4141 69.0359 15.9922C67.7234 17.5547 65.8953 18.3359 63.5516 18.3359ZM63.5516 14.8438C64.5672 14.8438 65.3484 14.3906 65.8953 13.4844C66.4422 12.5781 66.7156 11.2891 66.7156 9.61719V9.59375C66.7156 7.92188 66.4422 6.64062 65.8953 5.75C65.3484 4.84375 64.5672 4.39062 63.5516 4.39062C62.5359 4.39062 61.7547 4.84375 61.2078 5.75C60.6609 6.64062 60.3875 7.92188 60.3875 9.59375V9.61719C60.3875 11.2891 60.6609 12.5781 61.2078 13.4844C61.7547 14.3906 62.5359 14.8438 63.5516 14.8438ZM66.3406 35H61.6063L83.1219 1.17969H87.8094L66.3406 35ZM85.8641 35.3047C83.5359 35.3047 81.7 34.5234 80.3563 32.9609C79.0281 31.3828 78.3641 29.2578 78.3641 26.5859V26.5625C78.3641 23.875 79.0281 21.75 80.3563 20.1875C81.7 18.625 83.5359 17.8438 85.8641 17.8438C88.1922 17.8438 90.0125 18.625 91.325 20.1875C92.6531 21.75 93.3172 23.875 93.3172 26.5625V26.5859C93.3172 29.2578 92.6531 31.3828 91.325 32.9609C90.0125 34.5234 88.1922 35.3047 85.8641 35.3047ZM85.8641 31.8125C86.8641 31.8125 87.6375 31.3594 88.1844 30.4531C88.7313 29.5469 89.0047 28.2578 89.0047 26.5859V26.5625C89.0047 24.8906 88.7313 23.6094 88.1844 22.7188C87.6375 21.8125 86.8641 21.3594 85.8641 21.3594C84.8328 21.3594 84.0438 21.8125 83.4969 22.7188C82.95 23.6094 82.6766 24.8906 82.6766 26.5625V26.5859C82.6766 28.2578 82.95 29.5469 83.4969 30.4531C84.0438 31.3594 84.8328 31.8125 85.8641 31.8125ZM16.8828 89.5859C13.5859 89.5859 10.7344 88.875 8.32812 87.4531C5.9375 86.0312 4.08594 84.0156 2.77344 81.4062C1.47656 78.7812 0.828125 75.6797 0.828125 72.1016V72.0547C0.828125 68.4766 1.48438 65.3828 2.79688 62.7734C4.10938 60.1641 5.96094 58.1484 8.35156 56.7266C10.7578 55.3047 13.6016 54.5938 16.8828 54.5938C20.1641 54.5938 23 55.3047 25.3906 56.7266C27.7969 58.1484 29.6484 60.1641 30.9453 62.7734C32.2578 65.3828 32.9141 68.4766 32.9141 72.0547V72.1016C32.9141 75.6797 32.2578 78.7812 30.9453 81.4062C29.6484 84.0156 27.8047 86.0312 25.4141 87.4531C23.0234 88.875 20.1797 89.5859 16.8828 89.5859ZM16.8828 84.3594C18.9297 84.3594 20.6875 83.8594 22.1562 82.8594C23.6406 81.8438 24.7812 80.4219 25.5781 78.5938C26.375 76.75 26.7734 74.5859 26.7734 72.1016V72.0547C26.7734 69.5547 26.3672 67.3906 25.5547 65.5625C24.7578 63.7188 23.6172 62.3047 22.1328 61.3203C20.6484 60.3203 18.8984 59.8203 16.8828 59.8203C14.8828 59.8203 13.1328 60.3203 11.6328 61.3203C10.1484 62.3047 9 63.7109 8.1875 65.5391C7.39062 67.3672 6.99219 69.5391 6.99219 72.0547V72.1016C6.99219 74.6016 7.39062 76.7734 8.1875 78.6172C9 80.4453 10.1484 81.8594 11.6328 82.8594C13.1172 83.8594 14.8672 84.3594 16.8828 84.3594ZM35.3422 89V55.1797H56.9047V60.2656H41.3891V70.2734H55.5687V75.1953H41.3891V89H35.3422ZM58.9109 89V55.1797H80.4734V60.2656H64.9578V70.2734H79.1375V75.1953H64.9578V89H58.9109Z" fill="#202F57"/>
</svg>
