<svg width="300" height="312" viewBox="0 0 300 312" fill="none" xmlns="http://www.w3.org/2000/svg">
<path d="M62.4186 300.544H39.6306V291.94H57.8826V288.772H39.3786V286.036H61.2666V294.46H43.0146V297.808H62.4186V300.544ZM35.7066 269.008H50.9346C50.3586 277.756 43.8426 282.94 35.8506 285.172L34.0146 282.472C40.8906 280.96 45.8586 276.964 47.1186 271.816H35.7066V269.008ZM51.3306 274.696V272.068H57.8826V267.28H61.2666V284.236H57.8826V280.816H50.8986V278.188H57.8826V274.696H51.3306ZM93.4118 300.76H90.1358V267.28H93.4118V300.76ZM86.7878 299.104H83.5478V282.076H78.5798V279.304H83.5478V268.036H86.7878V299.104ZM82.2158 290.644L80.1638 293.056C77.8598 291.508 74.3318 287.692 73.3958 284.344C72.6758 287.872 69.7238 291.652 66.6638 293.74L64.5038 291.4C68.6798 288.7 71.7758 283.66 71.7758 277.108V273.976H65.2598V271.24H81.2438V273.976H75.0878V277C75.0878 283.84 78.5798 288.412 82.2158 290.644ZM126.827 299.104H123.623V289.852H120.023V287.188H123.623V282.112H119.843V279.412H123.623V268.036H126.827V299.104ZM116.567 286.504C116.567 284.164 114.983 282.544 112.679 282.544C110.339 282.544 108.755 284.2 108.755 286.504C108.755 288.844 110.339 290.464 112.679 290.464C114.983 290.464 116.567 288.772 116.567 286.504ZM119.699 286.504C119.699 290.536 116.927 293.272 112.679 293.272C108.467 293.272 105.623 290.32 105.623 286.504C105.623 282.436 108.467 279.736 112.679 279.736C116.927 279.736 119.699 282.472 119.699 286.504ZM120.527 278.008H104.687V275.272H120.527V278.008ZM117.071 272.968H108.503V270.16H117.071V272.968ZM133.019 300.76H129.743V267.28H133.019V300.76ZM140.828 282.652H141.548C145.58 282.652 149.468 282.436 151.988 281.86L152.42 284.596C149.756 285.172 145.256 285.46 141.368 285.46H137.48V269.656H150.584V272.428H140.828V276.064H150.08V278.764H140.828V282.652ZM141.548 288.88H164.336V300.76H160.952V291.652H141.548V288.88ZM164.336 287.296H161.06V278.584H157.244V287.044H154.004V267.892H157.244V275.812H161.06V267.28H164.336V287.296ZM198.831 284.524V278.44H182.703V284.524H198.831ZM202.215 287.296H192.387V293.884H205.887V296.656H175.647V293.884H189.003V287.296H179.319V269.62H182.703V275.704H198.831V269.62H202.215V287.296ZM208.512 270.844H224.64C224.424 281.464 218.232 289.312 209.088 294.28L207 291.688C214.92 287.908 220.356 280.924 220.968 273.688H208.512V270.844ZM234.432 300.76H231.048V267.28H234.432V300.76Z" fill="white"/>
<path d="M261 272L275 284L261 296" stroke="white" stroke-width="4" stroke-linecap="round" stroke-linejoin="round"/>
<path d="M7.89183 61.14V57.612H18.0798V61.14H7.89183ZM23.5878 79.392L23.9118 82.812C17.7198 83.64 8.50383 84 2.09583 84L1.44783 80.364C4.57983 80.364 7.71183 80.364 10.7358 80.292V74.676H15.2358V80.112C18.2958 79.968 21.1398 79.716 23.5878 79.392ZM29.8518 55.956V90.084H25.3518V55.956H29.8518ZM3.49983 66.54V63.012H22.1118V66.54H15.3798C16.0998 69.456 19.8078 71.904 23.1198 72.3L21.0678 75.864C18.1878 75.252 14.5158 72.768 13.0758 70.32C11.7798 73.2 8.10783 75.936 4.61583 76.8L2.41983 73.344C6.48783 72.444 10.0158 69.744 10.6278 66.54H3.49983ZM61.709 90.084H57.425V72.984H54.401V88.5H50.189V56.568H54.401V69.42H57.425V55.956H61.709V90.084ZM38.165 63.552V78.348C41.657 78.456 45.761 78.132 48.029 77.556L48.461 81.084C45.905 81.768 40.901 82.02 36.941 82.02H33.701V60.024H46.589V63.588C43.781 63.588 41.009 63.552 38.165 63.552ZM77.196 85.656V64.056L72.768 64.92V62.184L79.464 59.196H81.948V85.656H77.196ZM98.2859 71.148V62.04H91.1939V71.148H98.2859ZM102.714 74.64H86.7659V58.584H102.714V74.64ZM113.262 89.076H90.3299V78.168H94.7939V85.548H113.262V89.076ZM112.434 55.956V65.712H117.294V69.42H112.434V80.688H107.898V55.956H112.434ZM132.051 63.408C132.051 61.896 130.467 60.384 127.947 60.384C125.355 60.384 123.807 61.896 123.807 63.408C123.807 64.884 125.355 66.324 127.947 66.324C130.467 66.324 132.051 64.884 132.051 63.408ZM131.439 80.688H126.975V74.604C123.447 74.748 120.099 74.784 117.543 74.784L116.931 71.256C125.319 71.256 133.887 70.824 138.675 70.212L138.927 73.524C136.623 73.884 134.067 74.136 131.439 74.316V80.688ZM146.415 89.184H121.359V79.104H125.859V85.62H146.415V89.184ZM134.895 78.888V75.684H141.375V55.956H145.875V82.344H141.375V78.888H134.895ZM136.479 63.408C136.479 67.08 132.915 69.672 127.947 69.672C122.979 69.672 119.307 67.08 119.307 63.336C119.307 59.736 122.979 57.036 127.947 57.036C132.915 57.036 136.479 59.736 136.479 63.408ZM187.498 75.972H156.682V72.408H187.498V75.972ZM160.318 78.564H183.538V90.12H179.074V82.092H160.318V78.564ZM185.95 66.864L184.042 70.392C179.254 69.96 174.07 67.224 172.126 63.912C170.434 67.332 165.574 69.996 160.174 70.428L158.338 66.936C163.702 66.684 168.454 64.38 169.534 60.744H159.85V57.216H184.438V60.744H174.79C176.05 64.38 181.45 66.72 185.95 66.864ZM209.167 78.996L206.575 82.344C203.767 80.616 200.203 76.476 199.051 72.948C197.935 76.836 194.443 81.156 190.915 83.064L188.179 79.788C193.687 76.224 196.639 70.824 196.639 64.056V58.836H201.283V63.804C201.283 70.572 204.019 75.648 209.167 78.996ZM216.223 90.084H211.723V55.956H216.223V90.084ZM233.798 70.536C233.798 71.832 235.526 72.624 237.542 72.624C239.522 72.624 241.25 71.832 241.25 70.536C241.25 69.276 239.522 68.448 237.542 68.448C235.49 68.448 233.798 69.276 233.798 70.536ZM245.642 70.536C245.642 73.704 242.186 75.828 237.542 75.828C232.862 75.828 229.37 73.704 229.37 70.536C229.37 67.368 232.826 65.208 237.542 65.208C242.186 65.208 245.642 67.368 245.642 70.536ZM255.146 90.012H231.818V81.948H249.782V80.328H231.782V76.98H254.282V84.972H236.282V86.628H255.146V90.012ZM259.07 68.556H254.282V75.36H249.818V55.956H254.282V64.884H259.07V68.556ZM232.502 59.484V56.136H242.618V59.484H232.502ZM247.154 64.344H227.354V60.924H247.154V64.344ZM264.575 66.936C264.575 69.636 266.339 71.616 269.219 71.616C272.171 71.616 273.899 69.636 273.899 66.936C273.899 64.308 272.171 62.328 269.219 62.328C266.339 62.328 264.575 64.308 264.575 66.936ZM260.003 66.936C260.003 62.076 263.639 58.512 269.219 58.512C274.835 58.512 278.471 62.076 278.471 66.936C278.471 71.832 274.835 75.324 269.219 75.324C263.639 75.324 260.003 71.832 260.003 66.936ZM287.867 89.184H264.215V78.24H268.715V85.656H287.867V89.184ZM287.111 80.724H282.647V55.956H287.111V80.724ZM292.149 86.016V81.552H296.757V86.016H292.149ZM292.545 77.88L291.933 58.224H296.901L296.361 77.88H292.545Z" fill="#E74723"/>
<path d="M39.1738 142.38V124.38L35.4838 125.1V122.82L41.0638 120.33H43.1338V142.38H39.1738ZM52.8786 142.56C50.2686 142.56 47.7186 141.84 46.4586 141.03L47.1186 138.18C48.2286 138.9 50.5686 139.44 52.2186 139.44C55.1586 139.44 56.8686 138.21 56.8686 135.78C56.8686 133.44 55.1286 132.48 52.3386 132.45L50.0586 132.39V129.54L52.0986 129.51C54.6186 129.45 56.2986 128.31 56.2986 126.24C56.2986 124.05 54.7986 123.24 52.3986 123.24C50.7786 123.24 49.0386 123.81 47.7486 124.41L47.2986 121.5C48.6486 120.72 51.2886 120.12 53.4186 120.12C57.4686 120.12 60.2286 122.04 60.2286 125.55C60.2286 128.16 58.6986 129.84 56.2986 130.65C59.0286 131.19 60.9486 132.75 60.9486 136.02C60.9486 140.04 57.8586 142.56 52.8786 142.56ZM72.358 130.29V122.7H66.448V130.29H72.358ZM76.048 133.2H62.758V119.82H76.048V133.2ZM84.838 145.23H65.728V136.14H69.448V142.29H84.838V145.23ZM84.148 117.63V125.76H88.198V128.85H84.148V138.24H80.368V117.63H84.148ZM100.496 123.84C100.496 122.58 99.1757 121.32 97.0757 121.32C94.9157 121.32 93.6257 122.58 93.6257 123.84C93.6257 125.07 94.9157 126.27 97.0757 126.27C99.1757 126.27 100.496 125.07 100.496 123.84ZM99.9857 138.24H96.2657V133.17C93.3257 133.29 90.5357 133.32 88.4057 133.32L87.8957 130.38C94.8857 130.38 102.026 130.02 106.016 129.51L106.226 132.27C104.306 132.57 102.176 132.78 99.9857 132.93V138.24ZM112.466 145.32H91.5857V136.92H95.3357V142.35H112.466V145.32ZM102.866 136.74V134.07H108.266V117.63H112.016V139.62H108.266V136.74H102.866ZM104.186 123.84C104.186 126.9 101.216 129.06 97.0757 129.06C92.9357 129.06 89.8757 126.9 89.8757 123.78C89.8757 120.78 92.9357 118.53 97.0757 118.53C101.216 118.53 104.186 120.78 104.186 123.84ZM132.962 129.75C132.962 125.28 131.372 122.58 129.152 122.58C127.022 122.58 125.462 125.28 125.462 129.75C125.462 134.22 127.022 136.89 129.152 136.89C131.372 136.89 132.962 134.22 132.962 129.75ZM121.832 129.75C121.832 123.78 124.532 119.58 129.152 119.58C133.832 119.58 136.532 123.78 136.532 129.78C136.532 135.69 133.832 139.89 129.152 139.89C124.532 139.89 121.832 135.72 121.832 129.75ZM144.512 146.07H140.792V117.63H144.512V146.07ZM159.929 137.52C156.209 137.52 154.049 138.6 154.049 140.34C154.049 142.02 156.209 143.07 159.929 143.07C163.679 143.07 165.869 142.02 165.869 140.34C165.869 138.6 163.679 137.52 159.929 137.52ZM169.679 140.34C169.679 143.82 166.109 146.07 159.929 146.07C153.779 146.07 150.209 143.82 150.209 140.34C150.209 136.77 153.779 134.55 159.929 134.55C166.109 134.55 169.679 136.77 169.679 140.34ZM163.829 130.05L161.699 132.96C159.509 132.12 156.569 129.84 155.309 127.2C154.469 130.11 151.379 132.78 148.739 133.68L146.489 130.71C150.629 129.24 153.359 125.88 153.359 121.59V118.92H157.199V121.38C157.199 125.79 160.499 128.97 163.829 130.05ZM173.399 127.47H169.349V134.25H165.599V117.63H169.349V124.41H173.399V127.47ZM183.275 119.16H202.535C202.535 123.78 202.235 128.04 201.605 131.31H205.805V134.25H194.765V146.07H191.045V134.25H180.125V131.31H198.065C198.575 128.85 198.815 125.64 198.815 122.16H183.275V119.16ZM215.103 135.81V123.93H210.603V135.81H215.103ZM230.403 146.07H226.833V131.82H224.553V144.75H221.043V118.14H224.553V128.82H226.833V117.63H230.403V146.07ZM218.613 121.05V138.66H207.093V121.05H218.613ZM256.869 136.83L254.709 139.62C252.369 138.18 249.399 134.73 248.439 131.79C247.509 135.03 244.599 138.63 241.659 140.22L239.379 137.49C243.969 134.52 246.429 130.02 246.429 124.38V120.03H250.299V124.17C250.299 129.81 252.579 134.04 256.869 136.83ZM262.749 146.07H258.999V117.63H262.749V146.07Z" fill="#001E6C"/>
<path d="M86.8559 9.75H99.7259C99.5459 19.86 94.6559 25.86 87.0059 29.55L85.5059 27.72C90.0959 25.77 93.6359 22.62 95.5859 18.48L86.1659 19.32L85.6559 17.1L96.3659 16.47C96.8159 15 97.0859 13.44 97.1759 11.79H86.8559V9.75ZM106.656 6.9V18.33H111.216V20.4H106.656V34.8H104.226V6.9H106.656ZM112.954 9.75H125.824C125.644 19.86 120.754 25.86 113.104 29.55L111.604 27.72C116.194 25.77 119.734 22.62 121.684 18.48L112.264 19.32L111.754 17.1L122.464 16.47C122.914 15 123.184 13.44 123.274 11.79H112.954V9.75ZM132.754 6.9V18.33H137.314V20.4H132.754V34.8H130.324V6.9H132.754ZM157.711 16.26C157.711 13.05 154.681 10.92 149.971 10.92C145.321 10.92 142.291 13.05 142.291 16.26C142.291 19.44 145.321 21.57 149.971 21.57C154.651 21.57 157.711 19.44 157.711 16.26ZM160.051 16.2C160.051 20.34 156.541 23.13 151.171 23.49V29.07H162.601V31.11H137.401V29.07H148.741V23.49C143.401 23.1 139.921 20.34 139.921 16.2C139.921 11.79 143.941 8.88 149.971 8.88C156.061 8.88 160.051 11.79 160.051 16.2ZM177.359 27.03C175.859 27.24 173.399 27.48 170.939 27.6C168.359 27.78 165.899 27.87 163.529 27.87L163.169 25.74H166.259L165.419 14.25L167.849 13.92C168.059 17.85 168.329 21.75 168.569 25.68L170.789 25.59C170.969 25.59 171.179 25.59 171.389 25.56C171.629 21.69 171.869 17.79 172.139 13.92L174.569 14.16C174.239 17.91 173.909 21.66 173.549 25.44C174.899 25.32 176.159 25.2 177.149 25.05C177.209 25.71 177.269 26.37 177.359 27.03ZM181.829 33.36H179.459V19.62H175.649V17.61H179.459V7.56H181.829V33.36ZM187.019 34.8H184.649V6.9H187.019V34.8ZM176.459 12.39H163.859V10.38H176.459V12.39ZM202.616 18.87C202.616 14.28 200.696 11.1 197.726 11.1C194.786 11.1 192.836 14.28 192.836 18.87C192.836 23.43 194.786 26.61 197.726 26.61C200.696 26.61 202.616 23.43 202.616 18.87ZM190.526 18.84C190.526 12.96 193.136 9 197.726 9C202.346 9 204.926 12.96 204.926 18.87C204.926 24.78 202.346 28.71 197.726 28.71C193.136 28.71 190.526 24.78 190.526 18.84ZM212.546 34.8H210.116V6.9H212.546V34.8Z" fill="#161D30"/>
</svg>
