<svg width="318" height="79" viewBox="0 0 318 79" fill="none" xmlns="http://www.w3.org/2000/svg">
<path d="M6.424 26.696C3.768 26.696 1.4 25.96 0.024 24.968L0.536 22.792C1.784 23.624 4.024 24.424 5.912 24.424C9.528 24.424 11.64 22.376 11.64 19.144C11.64 15.656 9.592 14.28 6.008 14.28C4.44 14.28 2.296 14.92 1.24 15.4L2.072 3.432H13.624V5.736H4.248L3.768 12.68C4.696 12.424 6.072 12.2 7.032 12.2C11.64 12.2 14.456 14.376 14.456 19.176C14.456 23.272 11.448 26.696 6.424 26.696ZM39.712 29.096H19.936V19.944H22.528V26.952H39.712V29.096ZM43.104 11.4H38.56V21.96H35.968V0.359999H38.56V9.224H43.104V11.4ZM28.224 14.6V5.128H19.296V14.6H28.224ZM30.816 16.776H16.704V2.984H30.816V16.776ZM54.4615 22.024H51.8695V16.616C49.0535 16.744 46.0775 16.84 43.6135 16.84L43.1975 14.632C46.2695 14.664 49.8855 14.632 53.1175 14.504C56.4455 14.376 59.6775 14.088 62.5575 13.768L62.7815 15.784C60.8935 16.04 57.5975 16.264 54.4615 16.456V22.024ZM58.3015 7.272C58.3015 5.256 56.1575 3.88 52.9575 3.88C49.7575 3.88 47.5815 5.224 47.5815 7.272C47.5815 9.288 49.7575 10.6 52.9575 10.6C56.1575 10.6 58.3015 9.288 58.3015 7.272ZM68.5735 29.384H47.2935V20.776H49.8855V27.208H68.5735V29.384ZM67.9655 23.24H65.3735V20.008H59.1335V17.96H65.3735V0.359999H67.9655V23.24ZM60.8615 7.272C60.8615 10.664 57.5655 12.712 52.9575 12.712C48.3495 12.712 44.9895 10.696 44.9895 7.24C44.9895 3.88 48.3495 1.736 52.9575 1.736C57.5655 1.736 60.8615 3.88 60.8615 7.272ZM92.6117 13.128C92.6117 8.232 90.5637 4.84 87.3957 4.84C84.2597 4.84 82.1797 8.232 82.1797 13.128C82.1797 17.992 84.2597 21.384 87.3957 21.384C90.5637 21.384 92.6117 17.992 92.6117 13.128ZM79.7157 13.096C79.7157 6.824 82.4997 2.6 87.3957 2.6C92.3237 2.6 95.0757 6.824 95.0757 13.128C95.0757 19.432 92.3237 23.624 87.3957 23.624C82.4997 23.624 79.7157 19.432 79.7157 13.096ZM103.204 30.12H100.612V0.359999H103.204V30.12ZM133.985 10.6H129.441V18.696H126.849V0.359999H129.441V8.424H133.985V10.6ZM119.841 20.808C115.361 20.808 112.577 22.12 112.577 24.392C112.577 26.664 115.361 27.944 119.841 27.944C124.385 27.944 127.201 26.664 127.201 24.392C127.201 22.12 124.385 20.808 119.841 20.808ZM129.857 24.392C129.857 27.912 126.113 30.088 119.841 30.088C113.633 30.088 109.921 27.912 109.921 24.392C109.921 20.84 113.633 18.664 119.841 18.664C126.113 18.664 129.857 20.84 129.857 24.392ZM123.393 14.088L121.857 16.136C119.009 14.76 116.065 12.2 114.881 9.192C113.953 12.36 110.945 15.336 107.457 17.128L106.017 15.112C110.273 13.128 113.473 9.384 113.473 4.648V1.768H116.097V4.552C116.097 9.288 120.033 12.904 123.393 14.088ZM144.936 2.568H165.128C165.128 6.6 165.032 11.144 164.04 15.752H168.648V17.928H156.488V30.12H153.896V17.928H141.768V15.752H161.448C162.28 12.552 162.44 7.624 162.44 4.712H144.936V2.568ZM179.877 20.008V5.768H173.125V20.008H179.877ZM194.725 30.12H192.165V14.408H188.517V28.616H185.989V1.064H188.517V12.232H192.165V0.359999H194.725V30.12ZM182.405 22.152H170.597V3.624H182.405V22.152ZM222.923 20.968L221.291 22.952C218.603 21.128 215.115 17.448 213.963 13.864C212.875 17.576 209.803 21.224 206.347 23.688L204.651 21.736C209.003 19.016 212.587 13.608 212.587 8.328V2.952H215.211V8.232C215.211 13.672 218.827 18.536 222.923 20.968ZM229.323 30.12H226.731V0.359999H229.323V30.12ZM12.088 61C12.088 56.232 10.392 53.352 8.056 53.352C5.784 53.352 4.12 56.232 4.12 61C4.12 65.768 5.784 68.616 8.056 68.616C10.392 68.616 12.088 65.768 12.088 61ZM0.216 61C0.216 54.632 3.128 50.152 8.056 50.152C13.016 50.152 15.896 54.632 15.896 61.032C15.896 67.336 13.016 71.816 8.056 71.816C3.128 71.816 0.216 67.368 0.216 61ZM25.112 78.408H21.112V62.568H16.664V59.208H21.112V48.072H25.112V78.408ZM52.0855 64.872H31.3495V50.632H51.8295V53.832H35.3175V61.704H52.0855V64.872ZM55.2535 71.272V74.44H27.8615V71.272H55.2535ZM65.043 62.056V57.928H60.755V62.056H65.043ZM81.459 70.536H77.683V48.072H81.459V70.536ZM82.227 77.672H60.787V67.944H64.755V74.504H82.227V77.672ZM69.043 65.192H56.755V50.408H60.755V54.856H65.043V50.344H69.043V55.944H71.763V48.616H75.539V69.736H71.763V59.176H69.043V65.192ZM110.928 71.464V74.6H83.5365V71.464H110.928ZM106.768 60.136H90.9925V63.432H107.792V66.568H87.0245V50.472H107.504V53.608H90.9925V57H106.768V60.136ZM145.463 78.056H123.927V70.056H140.535V68.136H123.895V64.968H144.535V72.968H127.959V74.856H145.463V78.056ZM144.535 63.72H140.727V57.736H138.135V63.56H134.391V48.616H138.135V54.536H140.727V48.072H144.535V63.72ZM120.247 49.8H132.087C131.927 57.288 128.055 62.408 121.079 65.576L118.871 62.568C121.591 61.672 123.959 60.008 125.591 58.024L119.607 58.792L119.031 55.592L127.447 54.888C127.671 54.28 127.831 53.672 127.927 53.032H120.247V49.8ZM164.372 62.44L164.756 65.48C162.196 66.12 156.276 66.536 152.18 66.536C150.804 66.536 149.46 66.504 148.116 66.504V56.616H157.78V53.352H148.052V50.184H161.78V59.624H152.084V63.368C155.86 63.368 162.068 63.08 164.372 62.44ZM172.404 77.768H151.412V68.68H155.412V74.6H172.404V77.768ZM171.636 70.088H167.636V48.072H171.636V70.088ZM191.282 66.92L191.858 70.088C188.946 70.792 184.562 71.08 178.706 71.08H175.762V50.856H189.394V54.056H179.73V67.848C184.05 67.848 187.858 67.72 191.282 66.92ZM199.474 78.408H195.506V61.768H188.274V58.408H195.506V48.072H199.474V78.408ZM213.976 66.824H220.184V58.056L213.976 66.824ZM220.152 74.696V69.928H209.432V67.496L221.24 50.984H224.088V66.824H227.512V69.928H224.088V74.696H220.152ZM227.305 78.92L228.649 72.04H232.937L230.505 78.92H227.305ZM241.148 53.864C238.62 53.864 237.244 55.72 237.244 58.568C237.244 61.704 239.004 63.08 241.404 63.08C243.1 63.08 244.828 61.928 245.628 60.808V60.232C245.628 56.36 244.284 53.864 241.148 53.864ZM241.052 50.76C246.652 50.76 249.788 54.44 249.788 61.032V62.568C249.788 71.592 245.628 74.728 239.964 74.728C237.628 74.728 235.388 73.928 234.3 73.256L235.004 70.216C235.964 70.728 238.076 71.368 239.74 71.368C243.132 71.368 245.436 69.96 245.66 64.04C244.476 65.128 242.62 66.12 240.188 66.12C236.188 66.12 233.244 63.368 233.244 58.888C233.244 54.312 235.868 50.76 241.052 50.76ZM260.836 71.528C263.972 71.528 265.54 69.288 265.54 63.72V61.96C265.54 56.424 263.94 53.96 260.868 53.96C257.732 53.96 256.164 56.296 256.164 61.736V63.528C256.164 68.936 257.7 71.528 260.836 71.528ZM260.836 74.728C255.748 74.728 251.78 71.464 251.78 63.528V62.088C251.78 53.736 256.1 50.728 260.9 50.728C265.732 50.728 269.86 53.768 269.86 61.96V63.432C269.86 71.624 265.732 74.728 260.836 74.728ZM281.205 71.528C284.341 71.528 285.909 69.288 285.909 63.72V61.96C285.909 56.424 284.309 53.96 281.237 53.96C278.101 53.96 276.533 56.296 276.533 61.736V63.528C276.533 68.936 278.069 71.528 281.205 71.528ZM281.205 74.728C276.117 74.728 272.149 71.464 272.149 63.528V62.088C272.149 53.736 276.469 50.728 281.269 50.728C286.101 50.728 290.229 53.768 290.229 61.96V63.432C290.229 71.624 286.101 74.728 281.205 74.728ZM305.03 54.696C305.03 53.352 303.622 52.008 301.382 52.008C299.078 52.008 297.702 53.352 297.702 54.696C297.702 56.008 299.078 57.288 301.382 57.288C303.622 57.288 305.03 56.008 305.03 54.696ZM304.486 70.056H300.518V64.648C297.382 64.776 294.406 64.808 292.134 64.808L291.59 61.672C299.046 61.672 306.662 61.288 310.918 60.744L311.142 63.688C309.094 64.008 306.822 64.232 304.486 64.392V70.056ZM317.798 77.608H295.526V68.648H299.526V74.44H317.798V77.608ZM307.558 68.456V65.608H313.318V48.072H317.318V71.528H313.318V68.456H307.558ZM308.966 54.696C308.966 57.96 305.798 60.264 301.382 60.264C296.966 60.264 293.702 57.96 293.702 54.632C293.702 51.432 296.966 49.032 301.382 49.032C305.798 49.032 308.966 51.432 308.966 54.696Z" fill="white"/>
</svg>
