<svg width="445" height="238" viewBox="0 0 445 238" fill="none" xmlns="http://www.w3.org/2000/svg">
<path d="M41.5984 219.2C40.7984 220.192 40.0624 221.184 39.2624 222.176C36.7664 220.576 33.2784 216.992 32.2544 213.696C31.2624 217.12 28.1904 220.928 25.0544 222.784C24.2544 221.792 23.4544 220.832 22.6224 219.872C27.5504 216.704 30.1424 211.84 30.1424 205.792V201.632H34.2384V205.568C34.2384 211.584 37.0224 216.288 41.5984 219.2ZM47.0384 199.072V210.752H51.4224V214.016H47.0384V229.408H43.1024V199.072H47.0384ZM62.4919 212.736V204.704H56.3479V212.736H62.4919ZM76.8599 228.608H56.2839V219.2H60.2519V225.44H76.8599V228.608ZM72.2839 206.976H68.0919V203.84H72.2839V199.072H76.2519V221.088H72.2839V213.664H68.0919V210.528H72.2839V206.976ZM66.4279 215.84H52.3799V201.632H66.4279V215.84ZM104.162 211.168L101.954 214.112C99.6181 213.248 96.4821 210.912 95.1381 208.096C94.2421 211.2 90.9461 213.952 88.1301 214.912L85.7941 211.904C90.1781 210.304 93.0581 206.816 93.0581 202.24V200H97.1541V202.048C97.1541 206.72 100.61 210.048 104.162 211.168ZM111.042 229.184H90.3061V221.12H106.114V219.104H90.1141V215.936H110.114V224H94.3061V225.984H111.042V229.184ZM114.434 208.576H110.114V214.4H106.114V199.072H110.114V205.312H114.434V208.576ZM140.512 209.76L138.784 212.992C134.304 212.32 129.44 209.44 127.968 206.08C126.624 209.44 121.792 212.288 117.184 213.024L115.488 209.76C120.736 209.184 125.856 205.824 125.856 201.28V199.744H130.08V201.28C130.08 205.824 135.648 209.312 140.512 209.76ZM129.856 229.44H125.856V218.656H114.24V215.52H141.632V218.656H129.856V229.44ZM145.309 220H165.949V229.44H161.981V223.168H145.309V220ZM166.653 212.736H157.693V215.04H169.469V218.24H142.077V215.04H153.725V212.736H145.693V204.928H161.821V203.072H145.565V200.064H165.789V207.776H149.661V209.728H166.653V212.736ZM194.147 217.92L194.723 221.088C191.811 221.792 187.427 222.08 181.571 222.08H178.627V201.856H192.259V205.056H182.595V218.848C186.915 218.848 190.723 218.72 194.147 217.92ZM202.339 229.408H198.371V212.768H191.139V209.408H198.371V199.072H202.339V229.408ZM214.09 202.176H227.914C227.882 212.352 223.306 219.808 214.282 224.512L212.01 221.472C216.266 219.552 219.754 216.416 221.77 212.448L213.162 213.376L212.618 209.952C216.074 209.696 219.594 209.472 223.05 209.184C223.402 208 223.594 206.752 223.69 205.472H214.09V202.176ZM237.578 229.408H233.61V214.208H227.85V210.848H233.61V199.072H237.578V229.408ZM265.415 229.408H261.415V199.072H265.415V229.408ZM259.303 219.104L257.063 222.208C254.375 220.832 250.663 216.992 249.767 214.048C249.031 217.12 245.991 221.184 242.439 222.912L240.039 219.936C245.159 217.216 247.655 212.544 247.655 206.176V205.344H241.575V202.176H257.703V205.344H251.815V206.144C251.815 212.544 254.727 216.736 259.303 219.104ZM292.389 228.608H271.653V219.648H275.621V225.44H292.389V228.608ZM292.197 210.624H271.845V200.064H275.813V207.456H292.197V210.624ZM295.557 217.216H268.165V214.016H295.557V217.216ZM306.731 200.704H327.275C327.275 205.632 326.955 210.176 326.283 213.664H330.763V216.8H318.987V229.408H315.019V216.8H303.371V213.664H322.507C323.051 211.04 323.307 207.616 323.307 203.904H306.731V200.704ZM340.68 218.464V205.792H335.88V218.464H340.68ZM357 229.408H353.192V214.208H350.76V228H347.016V199.616H350.76V211.008H353.192V199.072H357V229.408ZM344.424 202.72V221.504H332.136V202.72H344.424ZM375.983 216.832C375.983 215.04 374.895 213.76 373.135 213.76C371.375 213.76 370.319 215.008 370.319 216.832C370.319 218.624 371.375 219.872 373.135 219.872C374.895 219.872 375.983 218.56 375.983 216.832ZM379.535 216.832C379.535 220.48 377.071 223.008 373.135 223.008C369.263 223.008 366.735 220.32 366.735 216.832C366.735 213.088 369.295 210.624 373.135 210.624C377.071 210.624 379.535 213.152 379.535 216.832ZM380.271 209.472H366.031V206.336H380.271V209.472ZM377.199 204.576H369.583V201.44H377.199V204.576ZM386.351 228H382.639V219.36H379.855V216.256H382.639V212.928H379.759V209.824H382.639V199.648H386.351V228ZM392.207 229.408H388.431V199.072H392.207V229.408ZM420.044 217.216H416.236V209.632H413.644V216.928H409.9V199.616H413.644V206.432H416.236V199.072H420.044V217.216ZM399.212 210.144V213.024C401.452 213.12 406.124 212.8 408.076 212.32L408.364 215.36C406.188 215.904 401.804 216.16 397.996 216.16H395.276V201.248H407.116V204.416H399.212V207.04H406.828V210.144H399.212ZM398.796 218.656H420.044V229.44H416.076V221.824H398.796V218.656Z" fill="white"/>
<path d="M279.127 52C276.657 52 274.157 51.53 271.727 50.52C256.047 44.05 239.327 40.78 222.007 40.78C204.687 40.78 187.967 44.06 172.287 50.52C162.107 54.72 150.537 49.65 146.437 39.2C142.347 28.75 147.287 16.88 157.467 12.68C177.887 4.27 199.597 0 222.007 0C244.417 0 266.127 4.27 286.537 12.69C296.717 16.89 301.657 28.76 297.567 39.21C294.447 47.17 286.997 52 279.127 52Z" fill="#E74723"/>
<path d="M179.677 34.7803C180.387 34.5303 180.997 34.8203 181.197 35.3903C181.397 35.9603 181.107 36.5703 180.397 36.8203L170.947 40.1503C170.327 40.3703 169.747 40.0903 169.527 39.4703L163.707 22.9503C163.487 22.3303 163.767 21.7503 164.387 21.5303L173.667 18.2603C174.377 18.0103 174.987 18.3003 175.187 18.8703C175.387 19.4403 175.097 20.0503 174.387 20.3003L166.157 23.2003L168.227 29.0803L173.457 27.2403C174.167 26.9903 174.777 27.2803 174.977 27.8503C175.177 28.4203 174.887 29.0303 174.177 29.2803L168.937 31.1203L171.267 37.7403L179.667 34.7803H179.677Z" fill="white"/>
<path d="M189.948 14.7612C190.028 14.1912 190.288 13.7512 190.848 13.6212C191.428 13.4812 191.928 13.7612 192.088 14.4012C192.148 14.6612 192.168 14.9712 192.128 15.2212L189.898 33.5912C189.808 34.2612 189.508 34.6712 189.018 34.7912C188.518 34.9112 188.068 34.6812 187.688 34.1212L177.368 18.7612C177.228 18.5512 177.098 18.2712 177.038 18.0112C176.888 17.3712 177.198 16.8912 177.788 16.7512C178.338 16.6212 178.778 16.8812 179.108 17.3612L188.058 30.7312L189.958 14.7512L189.948 14.7612Z" fill="white"/>
<path d="M208.487 29.0498C209.227 28.9498 209.767 29.3598 209.847 29.9598C209.927 30.5598 209.517 31.0898 208.767 31.1898L198.837 32.5198C198.187 32.6098 197.677 32.2198 197.587 31.5698L195.267 14.1998C195.177 13.5498 195.567 13.0398 196.217 12.9498L205.967 11.6498C206.707 11.5498 207.247 11.9598 207.327 12.5598C207.407 13.1498 206.997 13.6898 206.247 13.7898L197.597 14.9498L198.427 21.1398L203.927 20.4098C204.667 20.3098 205.207 20.7198 205.287 21.3198C205.367 21.9098 204.957 22.4498 204.207 22.5498L198.707 23.2798L199.637 30.2398L208.467 29.0598L208.487 29.0498Z" fill="white"/>
<path d="M223.687 11.9403C223.677 11.1603 224.147 10.6703 224.777 10.6603C225.407 10.6503 225.897 11.1203 225.907 11.9003L226.237 29.6003C226.247 30.3203 225.807 30.8103 225.177 30.8203C224.727 30.8203 224.397 30.6003 224.147 30.2403L213.367 15.5003L213.637 29.7803C213.647 30.5603 213.177 31.0503 212.547 31.0603C211.917 31.0703 211.427 30.6003 211.417 29.8203L211.087 12.1203C211.077 11.4003 211.517 10.9103 212.147 10.9003C212.597 10.9003 212.927 11.1303 213.177 11.4803L223.957 26.2203L223.687 11.9403Z" fill="white"/>
<path d="M235.987 30.3105C235.917 31.0905 235.397 31.5205 234.767 31.4705C234.137 31.4105 233.707 30.8905 233.777 30.1205L235.257 13.6605L230.207 13.2105C229.457 13.1405 229.027 12.6205 229.077 12.0205C229.127 11.4205 229.647 10.9905 230.397 11.0505L242.707 12.1505C243.457 12.2205 243.887 12.7405 243.837 13.3405C243.787 13.9405 243.267 14.3705 242.517 14.3105L237.467 13.8605L235.987 30.3305V30.3105Z" fill="white"/>
<path d="M248.877 22.99C250.147 17.59 254.107 13.71 259.017 14.87C263.927 16.02 265.747 21.26 264.467 26.66C263.197 32.06 259.237 35.94 254.327 34.78C249.417 33.63 247.607 28.39 248.877 22.99ZM260.907 25.82C261.757 22.2 260.867 18.94 258.207 18.31C255.577 17.69 253.297 20.2 252.437 23.83C251.587 27.45 252.507 30.72 255.137 31.34C257.797 31.97 260.057 29.45 260.907 25.82Z" fill="white"/>
<path d="M274.837 37.0405C275.997 37.4505 276.437 38.4405 276.107 39.3705C275.777 40.3005 274.807 40.7905 273.647 40.3705L264.777 37.2105C263.727 36.8405 263.297 35.9205 263.667 34.8705L264.027 33.8505C265.357 30.1205 268.657 29.4205 271.587 28.8005C273.897 28.3105 275.917 27.9205 276.537 26.1705C276.947 25.0105 276.537 23.8205 274.677 23.1505C272.957 22.5405 272.037 23.1405 271.307 23.5805C270.697 23.9705 270.177 24.2605 269.437 24.0005C268.507 23.6705 268.097 22.7605 268.417 21.8505C268.547 21.4805 268.817 21.0705 269.167 20.7205C270.557 19.4005 273.307 18.9105 276.107 19.9105C279.917 21.2705 281.087 24.4505 280.017 27.4505C278.907 30.5605 276.027 31.5105 273.327 32.1105C270.707 32.6705 268.237 32.9105 267.677 34.4905L274.827 37.0305L274.837 37.0405Z" fill="white"/>
<path d="M10.75 145.34L6.18999 157.64C5.58999 159.19 4.56 160.22 2.92 160.22C1.2 160.22 0 159.1 0 157.21C0 156.44 0.169997 155.58 0.429996 154.89L18.92 105.18C19.61 103.37 20.73 102.43 22.19 102.43C23.65 102.43 24.77 103.38 25.46 105.18L43.95 154.89C44.21 155.58 44.38 156.44 44.38 157.21C44.38 159.1 43.18 160.22 41.46 160.22C39.74 160.22 38.79 159.19 38.19 157.64L33.63 145.34H10.75ZM22.19 114.38L12.99 139.15H31.31L22.19 114.38Z" fill="white"/>
<path d="M103.031 104.92C103.891 103.2 105.011 102.43 106.301 102.43C108.021 102.43 109.401 103.72 109.401 105.78V156.61C109.401 158.85 108.021 160.22 106.221 160.22C104.421 160.22 103.041 158.84 103.041 156.61V118.86L88.1606 147.93C87.3006 149.56 86.2705 150.34 84.9805 150.34C83.6905 150.34 82.6606 149.57 81.8006 147.93L66.9205 118.86V156.61C66.9205 158.85 65.5405 160.22 63.7405 160.22C61.9405 160.22 60.5605 158.84 60.5605 156.61V105.78C60.5605 103.72 61.9405 102.43 63.6605 102.43C64.9505 102.43 66.0705 103.2 66.9305 104.92L84.9906 140.27L103.031 104.92Z" fill="white"/>
<path d="M115.58 131.33C115.58 115.42 124.7 102 140.26 102C155.82 102 164.94 115.42 164.94 131.33C164.94 147.24 155.82 160.66 140.26 160.66C124.7 160.66 115.58 147.24 115.58 131.33ZM158.58 131.33C158.58 118.52 151.79 108.2 140.26 108.2C128.73 108.2 121.94 118.52 121.94 131.33C121.94 144.14 128.73 154.46 140.26 154.46C151.79 154.46 158.58 144.14 158.58 131.33Z" fill="white"/>
<path d="M177.501 156.609C177.501 158.849 176.121 160.219 174.321 160.219C172.521 160.219 171.141 158.839 171.141 156.609V106.209C171.141 104.319 172.431 103.029 174.321 103.029H190.831C202.011 103.029 209.231 109.649 209.231 119.539C209.231 126.249 205.701 132.699 197.361 135.109L208.631 154.289C209.151 155.149 209.661 156.099 209.661 157.299C209.661 159.109 208.461 160.219 206.741 160.219C204.931 160.219 204.071 159.099 203.211 157.639L190.651 136.049H177.491V156.599L177.501 156.609ZM190.831 129.859C198.571 129.859 202.871 125.989 202.871 119.539C202.871 113.089 198.571 109.219 190.831 109.219H177.501V129.859H190.831Z" fill="white"/>
<path d="M246.9 153.429C249.05 153.429 250.43 154.809 250.43 156.529C250.43 158.249 249.05 159.629 246.9 159.629H218.18C216.29 159.629 215 158.339 215 156.449V106.209C215 104.319 216.29 103.029 218.18 103.029H246.39C248.54 103.029 249.92 104.409 249.92 106.129C249.92 107.849 248.54 109.229 246.39 109.229H221.36V127.119H237.27C239.42 127.119 240.8 128.499 240.8 130.219C240.8 131.939 239.42 133.319 237.27 133.319H221.36V153.439H246.9V153.429Z" fill="white"/>
<path d="M294.2 139.32C289.9 139.32 287.23 136.57 287.23 133.04C287.23 129.51 289.9 126.76 294.2 126.76H307.79C311.83 126.76 314.5 129.43 314.5 133.47V138.29C314.5 149.38 306.24 160.65 290.85 160.65C273.99 160.65 264.1 147.23 264.1 131.32C264.1 115.41 273.99 102 290.76 102C297.64 102 303.4 104.24 307.87 108.11C309.76 109.74 311.14 111.89 311.14 114.65C311.14 118.26 308.65 121.01 304.86 121.01C302.62 121.01 300.82 120.06 299.18 118.52C297.29 116.63 294.54 115.08 290.75 115.08C282.58 115.08 277.68 122.39 277.68 131.33C277.68 140.27 282.41 147.58 291.1 147.58C296.26 147.58 300.65 144.91 301.08 139.32H294.2Z" fill="#FFDA74"/>
<path d="M319.65 153.08V109.57C319.65 105.01 322.57 102.17 326.36 102.17C330.15 102.17 333.07 105.01 333.07 109.57V153.08C333.07 157.64 330.15 160.48 326.36 160.48C322.57 160.48 319.65 157.64 319.65 153.08Z" fill="#FFDA74"/>
<path d="M363.079 126.599C367.379 126.599 370.049 129.349 370.049 132.879C370.049 136.409 367.379 139.159 363.079 139.159H353.359V153.089C353.359 157.649 350.439 160.489 346.649 160.489C342.859 160.489 339.939 157.649 339.939 153.089V109.739C339.939 105.699 342.609 103.029 346.649 103.029H371.929C376.399 103.029 379.149 105.869 379.149 109.569C379.149 113.269 376.399 116.109 371.929 116.109H353.349V126.599H363.069H363.079Z" fill="#FFDA74"/>
<path d="M410.99 153.08C410.99 157.64 408.07 160.48 404.28 160.48C400.49 160.48 397.57 157.64 397.57 153.08V116.1H388.97C384.5 116.1 381.75 113.26 381.75 109.56C381.75 105.86 384.5 103.02 388.97 103.02H419.59C424.06 103.02 426.81 105.86 426.81 109.56C426.81 113.26 424.06 116.1 419.59 116.1H410.99V153.08Z" fill="#FFDA74"/>
<path d="M428.96 152.74C428.96 148.53 432.49 145 436.7 145C440.91 145 444.44 148.53 444.44 152.74C444.44 156.95 440.91 160.48 436.7 160.48C432.49 160.48 428.96 156.95 428.96 152.74ZM430.25 134.34V109.31C430.25 104.92 433.09 102.17 436.7 102.17C440.31 102.17 443.15 104.92 443.15 109.31V134.34C443.15 138.73 440.31 141.48 436.7 141.48C433.09 141.48 430.25 138.73 430.25 134.34Z" fill="white"/>
<path d="M271.65 131.33C267.31 131.33 264.039 127.29 265.029 123.07C267.859 111.04 276.989 102.01 290.749 102.01C297.629 102.01 303.389 104.25 307.859 108.12C309.749 109.75 311.129 111.9 311.129 114.66C311.129 118.27 308.639 121.02 304.849 121.02C302.609 121.02 300.809 120.07 299.169 118.53C297.279 116.64 294.529 115.09 290.74 115.09C284.27 115.09 279.849 119.67 278.289 126.02C277.529 129.11 274.859 131.35 271.669 131.35H271.629L271.65 131.33Z" fill="#001E6C"/>
<path d="M339.95 132.87C339.95 129.4 342.76 126.59 346.23 126.59H363.09C367.39 126.59 370.06 129.34 370.06 132.87C370.06 136.4 367.39 139.15 363.09 139.15H346.23C342.76 139.15 339.95 136.34 339.95 132.87Z" fill="#E74723"/>
<path d="M397.57 116.1H388.97C384.5 116.1 381.75 113.26 381.75 109.56C381.75 105.86 384.5 103.02 388.97 103.02H419.59C424.06 103.02 426.81 105.86 426.81 109.56C426.81 113.26 424.06 116.1 419.59 116.1H397.57Z" fill="#001E6C"/>
<path d="M293.51 139.35C296.989 139.35 299.81 136.529 299.81 133.05C299.81 129.571 296.989 126.75 293.51 126.75C290.031 126.75 287.21 129.571 287.21 133.05C287.21 136.529 290.031 139.35 293.51 139.35Z" fill="#FFBC00"/>
<path d="M326.36 115.42C330.066 115.42 333.07 112.416 333.07 108.71C333.07 105.004 330.066 102 326.36 102C322.655 102 319.65 105.004 319.65 108.71C319.65 112.416 322.655 115.42 326.36 115.42Z" fill="#FFBC00"/>
<path d="M404.28 160.52C407.986 160.52 410.99 157.515 410.99 153.81C410.99 150.104 407.986 147.1 404.28 147.1C400.574 147.1 397.57 150.104 397.57 153.81C397.57 157.515 400.574 160.52 404.28 160.52Z" fill="#FFBC00"/>
<path d="M372.681 116.109C376.293 116.109 379.221 113.181 379.221 109.569C379.221 105.957 376.293 103.029 372.681 103.029C369.069 103.029 366.141 105.957 366.141 109.569C366.141 113.181 369.069 116.109 372.681 116.109Z" fill="#FFBC00"/>
</svg>
