<svg width="224" height="34" viewBox="0 0 224 34" fill="none" xmlns="http://www.w3.org/2000/svg">
<path d="M25.6329 0.279999V13.564H30.8529V16.372H25.6329V33.76H22.2849V0.279999H25.6329ZM19.6209 21.88L19.9809 24.688C16.3809 25.3 10.3329 25.804 5.04093 25.804H1.00892V12.664H13.0329V6.04H0.900925V3.304H16.4169V15.4H4.39293V23.032C9.21693 23.068 15.1569 22.744 19.6209 21.88ZM46.1141 14.644C46.1141 9.46 44.3501 5.716 40.9301 5.716C37.5101 5.716 35.7461 9.46 35.7461 14.644C35.7461 19.792 37.5101 23.536 40.9301 23.536C44.3501 23.536 46.1141 19.792 46.1141 14.644ZM32.2901 14.608C32.2901 7.984 34.9901 2.8 40.9301 2.8C46.8701 2.8 49.4981 7.984 49.4981 14.644C49.4981 21.268 46.8701 26.452 40.9301 26.452C34.9901 26.452 32.2901 21.268 32.2901 14.608ZM58.7141 33.76H55.3301V0.279999H58.7141V33.76ZM85.5313 17.524V11.836H69.5473V17.524H85.5313ZM88.9153 20.296H66.1633V3.268H69.5473V9.1H85.5313V3.232H88.9153V20.296ZM92.6593 29.26H62.4193V26.488H92.6593V29.26ZM125.21 17.524V11.44H109.082V17.524H125.21ZM128.594 20.296H118.766V26.884H132.266V29.656H102.026V26.884H115.382V20.296H105.698V2.62H109.082V8.704H125.21V2.62H128.594V20.296ZM152.388 22.096L152.748 24.868C149.256 25.516 143.64 25.912 137.952 25.912H134.424V12.556H146.484V6.04H134.424V3.304H149.868V15.328H137.808V23.104C143.064 23.104 148.14 22.924 152.388 22.096ZM160.776 33.76H157.392V15.94H151.776V13.06H157.392V0.279999H160.776V33.76ZM190.509 0.279999V13.996H195.873V16.804H190.509V33.76H187.161V0.279999H190.509ZM166.173 3.844H181.725C181.509 14.464 175.929 22.312 166.785 27.28L164.697 24.688C172.617 20.908 177.477 13.924 178.089 6.688H166.173V3.844ZM197.526 3.844H213.654C213.438 14.464 207.246 22.312 198.102 27.28L196.014 24.688C203.934 20.908 209.37 13.924 209.982 6.688H197.526V3.844ZM223.446 33.76H220.062V0.279999H223.446V33.76Z" fill="white"/>
</svg>
