<svg width="220" height="119" viewBox="0 0 220 119" fill="none" xmlns="http://www.w3.org/2000/svg">
<path d="M52.2378 19.7467H45V60.1498H52.2378V19.7467Z" fill="black"/>
<path d="M149.102 19.7467V60.1498H175.598V57.5105H156.339V40.5804H172.035V37.9484H156.339V22.3861H175.598V19.7467H149.102Z" fill="black"/>
<path d="M127.248 19.7541L110.998 19.7467V60.1498H118.236V44.8314H125.584C135.432 45.0236 140.674 40.6543 140.674 31.9675C140.674 23.5172 134.752 19.7172 127.255 19.7615M124.705 42.1994H118.243V22.3713H124.956C130.612 22.6448 133.096 27.1324 133.317 31.4204C133.561 36.285 130.508 41.9333 124.705 42.1921" fill="black"/>
<path d="M81.6178 19C92.6113 19.0074 100.433 28.2931 100.418 40.0185C100.404 51.7513 92.5521 61.0148 81.5587 61C70.6243 60.9852 62.8025 51.7069 62.8173 39.9741C62.8394 28.2414 70.6835 18.9779 81.6178 19ZM81.5734 58.4198C90.7039 58.4198 92.7591 47.7516 92.7591 40.0111C92.7739 32.278 90.7408 21.5876 81.6178 21.5728C72.4948 21.5654 70.4913 32.2484 70.4765 39.9815C70.4691 47.7147 72.443 58.3976 81.5734 58.4124" fill="black"/>
<path d="M96.891 102.36H92.603C91.803 102.36 91.291 101.848 91.291 101.208C91.291 100.568 91.803 100.056 92.603 100.056H98.075C98.779 100.056 99.259 100.536 99.259 101.24V103.064C99.259 107.192 96.315 111.384 90.971 111.384C85.179 111.384 81.787 106.392 81.787 100.472C81.787 94.552 85.179 89.56 90.971 89.56C93.659 89.56 95.771 90.648 97.211 92.184C97.467 92.472 97.659 92.824 97.659 93.24C97.659 93.944 97.179 94.36 96.603 94.36C96.155 94.36 95.803 94.136 95.451 93.784C94.299 92.6 92.859 91.864 90.971 91.864C86.683 91.864 84.155 95.704 84.155 100.472C84.155 105.24 86.683 109.08 90.971 109.08C94.587 109.08 96.891 106.296 96.891 103.032V102.36ZM103.881 111.224C103.209 111.224 102.697 110.712 102.697 109.88V91.064C102.697 90.232 103.209 89.72 103.881 89.72C104.553 89.72 105.065 90.232 105.065 91.064V109.88C105.065 110.712 104.553 111.224 103.881 111.224ZM111.508 101.56V109.88C111.508 110.712 110.996 111.224 110.324 111.224C109.652 111.224 109.14 110.712 109.14 109.88V91.128C109.14 90.424 109.62 89.944 110.324 89.944H120.82C121.62 89.944 122.132 90.456 122.132 91.096C122.132 91.736 121.62 92.248 120.82 92.248H111.508V99.256H117.428C118.228 99.256 118.74 99.768 118.74 100.408C118.74 101.048 118.228 101.56 117.428 101.56H111.508ZM131.319 92.248V109.88C131.319 110.712 130.807 111.224 130.135 111.224C129.463 111.224 128.951 110.712 128.951 109.88V92.248H123.543C122.743 92.248 122.231 91.736 122.231 91.096C122.231 90.456 122.743 89.944 123.543 89.944H136.727C137.527 89.944 138.039 90.456 138.039 91.096C138.039 91.736 137.527 92.248 136.727 92.248H131.319Z" fill="black"/>
</svg>
