<svg width="520" height="270" viewBox="0 0 520 270" fill="none" xmlns="http://www.w3.org/2000/svg">
<path d="M476.251 0H437.812C435.822 0 434.192 1.46995 433.852 3.41987C432.232 12.8295 424.022 19.9993 414.142 19.9993C404.262 19.9993 396.062 12.8395 394.432 3.41987C394.092 1.45995 392.462 0 390.473 0H43.7392C19.5796 0 0 19.5793 0 43.7384V226.262C0 250.411 19.5796 270 43.7392 270H390.482C392.472 270 394.102 268.53 394.442 266.58C396.062 257.17 404.272 250.001 414.152 250.001C424.032 250.001 432.232 257.16 433.862 266.58C434.202 268.54 435.832 270 437.822 270H476.261C500.41 270 520 250.421 520 226.262V43.7384C520 19.5893 500.42 0 476.261 0H476.251Z" fill="#FFB385"/>
</svg>
