<svg width="201" height="141" viewBox="0 0 201 141" fill="none" xmlns="http://www.w3.org/2000/svg">
<path d="M6.816 66.68V63.544H15.872V66.68H6.816ZM20.768 82.904L21.056 85.944C15.552 86.68 7.36 87 1.664 87L1.088 83.768C3.872 83.768 6.656 83.768 9.344 83.704V78.712H13.344V83.544C16.064 83.416 18.592 83.192 20.768 82.904ZM26.336 62.072V92.408H22.336V62.072H26.336ZM2.912 71.48V68.344H19.456V71.48H13.472C14.112 74.072 17.408 76.248 20.352 76.6L18.528 79.768C15.968 79.224 12.704 77.016 11.424 74.84C10.272 77.4 7.008 79.832 3.904 80.6L1.952 77.528C5.568 76.728 8.704 74.328 9.248 71.48H2.912ZM54.6535 92.408H50.8455V77.208H48.1575V91H44.4135V62.616H48.1575V74.04H50.8455V62.072H54.6535V92.408ZM33.7255 68.824V81.976C36.8295 82.072 40.4775 81.784 42.4935 81.272L42.8775 84.408C40.6055 85.016 36.1575 85.24 32.6375 85.24H29.7575V65.688H41.2135V68.856C38.7175 68.856 36.2535 68.824 33.7255 68.824ZM69.1878 68.056V82.104C73.5078 82.104 77.7318 81.976 81.1558 81.176L81.6038 84.344C78.6598 85.08 74.0838 85.368 68.1638 85.368H65.2198V64.856H79.0758V68.056H69.1878ZM87.7478 62.072V73.528H92.0998V76.824H87.7478V92.408H83.7798V62.072H87.7478ZM104.641 75C104.641 70.232 102.945 67.352 100.577 67.352C98.3052 67.352 96.6412 70.232 96.6412 75C96.6412 79.768 98.3052 82.616 100.577 82.616C102.945 82.616 104.641 79.768 104.641 75ZM92.7692 75C92.7692 68.632 95.6492 64.152 100.577 64.152C105.569 64.152 108.449 68.632 108.449 75.032C108.449 81.336 105.569 85.816 100.577 85.816C95.6492 85.816 92.7692 81.368 92.7692 75ZM116.961 92.408H112.993V62.072H116.961V92.408ZM133.471 68.504C131.935 71.992 126.975 74.744 122.591 75.384L120.927 72.28C126.015 71.736 131.423 68.44 131.423 63.96V62.936H135.551V63.96C135.551 68.44 141.695 72.024 146.047 72.28L144.351 75.416C140.287 74.808 135.007 71.992 133.471 68.504ZM143.967 91.608H123.231V82.712H127.199V88.472H143.967V91.608ZM147.135 80.6H119.743V77.432H147.135V80.6ZM10.784 123.224C10.784 119.16 9.952 115.832 7.904 115.832C5.92 115.832 5.088 119.16 5.088 123.224C5.088 127.288 5.92 130.584 7.904 130.584C9.952 130.584 10.784 127.288 10.784 123.224ZM26.816 140.408H23.072V110.072H26.816V140.408ZM20.768 139H17.024V124.888H14.432C14.08 129.784 12.128 134.104 7.872 134.104C3.2 134.104 1.312 128.76 1.312 123.192C1.312 117.656 3.2 112.376 7.872 112.376C12.16 112.376 14.08 116.696 14.432 121.624H17.024V110.648H20.768V139ZM40.9255 123C40.9255 118.232 39.2295 115.352 36.8935 115.352C34.6215 115.352 32.9575 118.232 32.9575 123C32.9575 127.768 34.6215 130.616 36.8935 130.616C39.2295 130.616 40.9255 127.768 40.9255 123ZM29.0535 123C29.0535 116.632 31.9655 112.152 36.8935 112.152C41.8535 112.152 44.7335 116.632 44.7335 123.032C44.7335 129.336 41.8535 133.816 36.8935 133.816C31.9655 133.816 29.0535 129.368 29.0535 123ZM53.9495 140.408H49.9495V124.568H45.5015V121.208H49.9495V110.072H53.9495V140.408ZM78.459 136.856V134.36H65.851V136.856H78.459ZM82.491 126.84H78.683V120.024H76.251V126.648H72.507V110.616H76.251V116.856H78.683V110.072H82.491V126.84ZM70.779 122.744L71.227 125.72C68.635 126.36 63.547 126.648 60.059 126.648C59.387 126.648 58.651 126.616 57.979 126.616V117.432H65.467V114.904H57.851V111.736H69.499V120.536H61.947V123.48C64.443 123.48 68.795 123.224 70.779 122.744ZM82.491 140.024H61.883V128.376H65.851V131.256H78.459V128.344H82.491V140.024ZM102.273 124.536C102.273 123.544 101.249 122.712 99.4572 122.712C97.6652 122.712 96.6412 123.544 96.6412 124.536C96.6412 125.56 97.6652 126.392 99.4572 126.392C101.249 126.392 102.273 125.56 102.273 124.536ZM95.3932 114.328V111.256H103.457V114.328H95.3932ZM91.9692 118.744V115.672H106.465V118.744H91.9692ZM113.793 135.16C113.793 133.752 111.233 132.856 107.201 132.856C103.137 132.856 100.673 133.752 100.673 135.16C100.673 136.6 103.137 137.432 107.201 137.432C111.233 137.432 113.793 136.6 113.793 135.16ZM105.921 124.536C105.921 127.416 103.425 129.432 99.4572 129.432C95.5212 129.432 93.0252 127.416 93.0252 124.536C93.0252 121.656 95.5212 119.672 99.4572 119.672C103.425 119.672 105.921 121.656 105.921 124.536ZM117.697 129.688H113.921V121.88H111.457V128.696H107.777V110.616H111.457V118.648H113.921V110.072H117.697V129.688ZM117.857 135.128C117.857 138.52 113.793 140.472 107.233 140.472C100.609 140.472 96.5452 138.52 96.5452 135.128C96.5452 131.8 100.609 129.816 107.233 129.816C113.793 129.816 117.857 131.8 117.857 135.128ZM139.935 117.08C139.935 115.224 137.439 114.008 133.439 114.008C129.503 114.008 126.975 115.224 126.975 117.08C126.975 118.872 129.503 120.056 133.439 120.056C137.439 120.056 139.935 118.872 139.935 117.08ZM143.967 139.608H123.231V130.936H127.199V136.472H143.967V139.608ZM135.711 133.752H131.743V128.248H119.743V125.08H147.135V128.248H135.711V133.752ZM144.031 117.016C144.031 120.568 140.095 123.16 133.471 123.16C126.783 123.16 122.911 120.568 122.911 117.016C122.911 113.56 126.783 110.968 133.439 110.968C140.095 110.968 144.031 113.56 144.031 117.016ZM171.452 110.072V122.136H175.772V125.432H171.452V140.408H167.58V110.072H171.452ZM158.108 113.24H165.148C165.18 123.704 163.612 129.272 158.3 135.608L155.196 133.4C159.516 128.856 161.404 123.288 161.404 116.536H158.108V113.24ZM148.604 113.24H156.732C156.764 122.904 154.46 128.664 149.66 133.784L146.716 131.512C150.94 127.576 153.02 121.976 152.988 116.536H148.604V113.24ZM200.506 140.408H196.506V110.072H200.506V140.408ZM194.394 130.104L192.154 133.208C189.466 131.832 185.754 127.992 184.858 125.048C184.122 128.12 181.082 132.184 177.53 133.912L175.13 130.936C180.25 128.216 182.746 123.544 182.746 117.176V116.344H176.666V113.176H192.794V116.344H186.906V117.144C186.906 123.544 189.818 127.736 194.394 130.104Z" fill="#161D30"/>
<path d="M6.96 25.59C4.47 25.59 2.25 24.9 0.96 23.97L1.44 21.93C2.61 22.71 4.71 23.46 6.48 23.46C9.87 23.46 11.85 21.54 11.85 18.51C11.85 15.24 9.93 13.95 6.57 13.95C5.1 13.95 3.09 14.55 2.1 15L2.88 3.78H13.71V5.94H4.92L4.47 12.45C5.34 12.21 6.63 12 7.53 12C11.85 12 14.49 14.04 14.49 18.54C14.49 22.38 11.67 25.59 6.96 25.59ZM28.8075 4.32H20.7975V2.28H28.8075V4.32ZM33.2475 8.58H16.6575V6.57H33.2475V8.58ZM29.2275 14.76C29.2275 13.14 27.4875 12.06 24.8775 12.06C22.2975 12.06 20.5275 13.14 20.5275 14.76C20.5275 16.35 22.2975 17.46 24.8775 17.46C27.4875 17.46 29.2275 16.35 29.2275 14.76ZM38.5275 28.8H36.1275V0.899999H38.5275V28.8ZM31.5975 14.76C31.5975 17.34 29.4375 19.05 26.0775 19.38V22.08C29.1975 21.9 32.4975 21.63 34.2975 21.36L34.5075 23.31C32.3175 23.61 28.1775 23.94 24.7875 24.15C21.6675 24.33 18.5475 24.42 16.1775 24.45L15.7875 22.32C17.8875 22.32 20.7075 22.35 23.6475 22.23V19.38C20.3175 19.05 18.1575 17.28 18.1575 14.76C18.1575 11.88 20.8575 10.05 24.8775 10.05C28.9275 10.05 31.5975 11.85 31.5975 14.76ZM70.8734 2.43V4.92C70.8734 7.26 70.5134 10.62 70.0634 12.36L67.6934 12.03C68.1134 10.5 68.3234 7.98 68.3534 6.69L68.3834 4.44H51.4334V2.43H70.8734ZM73.8434 16.2H48.6434V14.19H59.0234V8.31H61.4534V14.19H73.8434V16.2ZM68.8034 23.52C68.8034 21.6 65.8634 20.46 61.1834 20.46C56.4734 20.46 53.5634 21.6 53.5634 23.52C53.5634 25.47 56.4734 26.58 61.1834 26.58C65.8634 26.58 68.8034 25.47 68.8034 23.52ZM71.2034 23.52C71.2034 26.64 67.7234 28.53 61.1834 28.53C54.6734 28.53 51.1334 26.64 51.1334 23.52C51.1334 20.4 54.6734 18.48 61.1834 18.48C67.7234 18.48 71.2034 20.4 71.2034 23.52ZM87.341 4.32C82.691 4.32 79.841 5.85 79.841 8.22C79.841 10.59 82.691 12.12 87.341 12.12C92.021 12.12 94.871 10.59 94.871 8.22C94.871 5.85 92.021 4.32 87.341 4.32ZM83.681 28.8H81.251V18.9H74.741V16.86H99.941V18.9H93.341V28.8H90.911V18.9H83.681V28.8ZM97.241 8.22C97.241 11.82 93.521 14.28 87.341 14.28C81.161 14.28 77.441 11.85 77.441 8.22C77.441 4.59 81.161 2.16 87.341 2.16C93.521 2.16 97.241 4.59 97.241 8.22ZM113.109 17.16C113.109 14.97 111.369 13.44 109.029 13.44C106.689 13.44 104.949 14.97 104.949 17.16C104.949 19.35 106.689 20.91 109.029 20.91C111.429 20.91 113.109 19.35 113.109 17.16ZM115.539 17.16C115.539 20.4 112.929 22.92 109.029 22.92C105.129 22.92 102.519 20.43 102.519 17.16C102.519 13.92 105.129 11.4 109.029 11.4C112.929 11.4 115.539 13.89 115.539 17.16ZM117.189 9.6H100.719V7.59H117.189V9.6ZM113.079 4.89H104.889V2.82H113.079V4.89ZM126.819 14.7H122.289V28.8H119.859V0.899999H122.289V12.66H126.819V14.7ZM138.486 14.43V5.4H130.626V14.43H138.486ZM140.916 16.41H128.196V3.39H140.916V16.41ZM150.336 27.87H131.766V19.32H134.196V25.83H150.336V27.87ZM147.306 7.77H142.116V5.76H147.306V0.899999H149.736V21.15H147.306V13.92H142.116V11.91H147.306V7.77Z" fill="#161D30"/>
</svg>
