<svg width="670" height="1792" viewBox="0 0 670 1792" fill="none" xmlns="http://www.w3.org/2000/svg">
<g opacity="0.5" filter="url(#filter0_f_94_7)">
<path fill-rule="evenodd" clip-rule="evenodd" d="M658 33.6376V862.191H657.95C645.328 862.191 635.092 872.433 635.092 885.062H635.14C635.14 897.69 645.377 907.932 658 907.932V1757.13C645.377 1757.13 635.14 1767.37 635.14 1780H616.255C616.255 1775.6 612.697 1772.05 608.304 1772.05C603.911 1772.05 600.353 1775.6 600.353 1780H584.102C584.102 1775.6 580.544 1772.05 576.151 1772.05C571.757 1772.05 568.199 1775.6 568.199 1780H551.948C551.948 1775.6 548.39 1772.05 543.997 1772.05C539.604 1772.05 536.046 1775.6 536.046 1780H519.795C519.795 1775.6 516.237 1772.05 511.844 1772.05C507.451 1772.05 503.892 1775.6 503.892 1780H487.642C487.642 1775.6 484.083 1772.05 479.69 1772.05C475.297 1772.05 471.739 1775.6 471.739 1780H455.488C455.488 1775.6 451.93 1772.05 447.537 1772.05C443.144 1772.05 439.586 1775.6 439.586 1780H423.335C423.335 1775.6 419.777 1772.05 415.384 1772.05C410.99 1772.05 407.432 1775.6 407.432 1780H391.181C391.181 1775.6 387.623 1772.05 383.23 1772.05C378.837 1772.05 375.279 1775.6 375.279 1780H359.028C359.028 1775.6 355.47 1772.05 351.077 1772.05C346.684 1772.05 343.125 1775.6 343.125 1780H326.875C326.875 1775.6 323.316 1772.05 318.923 1772.05C314.53 1772.05 310.972 1775.6 310.972 1780H294.721C294.721 1775.6 291.163 1772.05 286.77 1772.05C282.377 1772.05 278.819 1775.6 278.819 1780H262.568C262.568 1775.6 259.01 1772.05 254.617 1772.05C250.223 1772.05 246.665 1775.6 246.665 1780H230.415C230.415 1775.6 226.856 1772.05 222.463 1772.05C218.07 1772.05 214.512 1775.6 214.512 1780H198.261C198.261 1775.6 194.703 1772.05 190.31 1772.05C185.917 1772.05 182.358 1775.6 182.358 1780H166.108C166.108 1775.6 162.549 1772.05 158.156 1772.05C153.763 1772.05 150.205 1775.6 150.205 1780H133.954C133.954 1775.6 130.396 1772.05 126.003 1772.05C121.61 1772.05 118.052 1775.6 118.052 1780H101.801C101.801 1775.6 98.2427 1772.05 93.8495 1772.05C89.4564 1772.05 85.8981 1775.6 85.8981 1780H69.6475C69.6475 1775.6 66.0893 1772.05 61.6961 1772.05C57.303 1772.05 53.7447 1775.6 53.7447 1780H34.8602C34.8602 1767.37 24.6228 1757.13 12 1757.13V907.932C24.6228 907.932 34.8602 897.69 34.8585 885.062C34.8585 872.433 24.6218 862.191 12 862.191V33.6376C12 21.6852 21.6801 12 33.6261 12H636.374C648.32 12 658 21.6852 658 33.6376ZM53.7415 885.062H53.7447C53.7447 889.457 57.303 893.017 61.6961 893.017C66.0893 893.017 69.6475 889.457 69.6475 885.062H69.6431C69.6431 880.667 66.0851 877.107 61.6923 877.107C57.2995 877.107 53.7415 880.667 53.7415 885.062ZM85.8925 885.062H85.8981C85.8981 889.457 89.4564 893.017 93.8495 893.017C98.2427 893.017 101.801 889.457 101.801 885.062H101.794C101.794 880.667 98.236 877.107 93.8432 877.107C89.4504 877.107 85.8925 880.667 85.8925 885.062ZM118.043 885.062H118.052C118.052 889.457 121.61 893.017 126.003 893.017C130.396 893.017 133.954 889.457 133.954 885.062H133.945C133.945 880.667 130.387 877.107 125.994 877.107C121.601 877.107 118.043 880.667 118.043 885.062ZM150.194 885.062H150.205C150.205 889.457 153.763 893.017 158.156 893.017C162.549 893.017 166.108 889.457 166.108 885.062H166.096C166.096 880.667 162.538 877.107 158.145 877.107C153.752 877.107 150.194 880.667 150.194 885.062ZM182.345 885.062H182.358C182.358 889.457 185.917 893.017 190.31 893.017C194.703 893.017 198.261 889.457 198.261 885.062H198.247C198.247 880.667 194.689 877.107 190.296 877.107C185.903 877.107 182.345 880.667 182.345 885.062ZM214.496 885.062H214.512C214.512 889.457 218.07 893.017 222.463 893.017C226.856 893.017 230.415 889.457 230.415 885.062H230.398C230.398 880.667 226.84 877.107 222.447 877.107C218.054 877.107 214.496 880.667 214.496 885.062ZM246.647 885.062H246.665C246.665 889.457 250.223 893.017 254.617 893.017C259.01 893.017 262.568 889.457 262.568 885.062H262.549C262.549 880.667 258.991 877.107 254.598 877.107C250.205 877.107 246.647 880.667 246.647 885.062ZM278.798 885.062H278.819C278.819 889.457 282.377 893.017 286.77 893.017C291.163 893.017 294.721 889.457 294.721 885.062H294.7C294.7 880.667 291.142 877.107 286.749 877.107C282.356 877.107 278.798 880.667 278.798 885.062ZM310.949 885.062H310.972C310.972 889.457 314.53 893.017 318.923 893.017C323.316 893.017 326.875 889.457 326.875 885.062H326.85C326.85 880.667 323.293 877.107 318.9 877.107C314.507 877.107 310.949 880.667 310.949 885.062ZM343.1 885.062H343.125C343.125 889.457 346.684 893.017 351.077 893.017C355.47 893.017 359.028 889.457 359.028 885.062H359.001C359.001 880.667 355.443 877.107 351.051 877.107C346.658 877.107 343.1 880.667 343.1 885.062ZM375.251 885.062H375.279C375.279 889.457 378.837 893.017 383.23 893.017C387.623 893.017 391.181 889.457 391.181 885.062H391.152C391.152 880.667 387.594 877.107 383.202 877.107C378.809 877.107 375.251 880.667 375.251 885.062ZM407.402 885.062H407.432C407.432 889.457 410.99 893.017 415.384 893.017C419.777 893.017 423.335 889.457 423.335 885.062H423.303C423.303 880.667 419.745 877.107 415.352 877.107C410.96 877.107 407.402 880.667 407.402 885.062ZM439.553 885.062H439.586C439.586 889.457 443.144 893.017 447.537 893.017C451.93 893.017 455.488 889.457 455.488 885.062H455.454C455.454 880.667 451.896 877.107 447.503 877.107C443.111 877.107 439.553 880.667 439.553 885.062ZM471.704 885.062H471.739C471.739 889.457 475.297 893.017 479.69 893.017C484.083 893.017 487.642 889.457 487.642 885.062H487.605C487.605 880.667 484.047 877.107 479.654 877.107C475.262 877.107 471.704 880.667 471.704 885.062ZM503.854 885.062H503.892C503.892 889.457 507.451 893.017 511.844 893.017C516.237 893.017 519.795 889.457 519.795 885.062H519.756C519.756 880.667 516.198 877.107 511.805 877.107C507.412 877.107 503.854 880.667 503.854 885.062ZM536.005 885.062H536.046C536.046 889.457 539.604 893.017 543.997 893.017C548.39 893.017 551.948 889.457 551.948 885.062H551.907C551.907 880.667 548.349 877.107 543.956 877.107C539.563 877.107 536.005 880.667 536.005 885.062ZM568.156 885.062H568.199C568.199 889.457 571.757 893.017 576.151 893.017C580.544 893.017 584.102 889.457 584.102 885.062H584.058C584.058 880.667 580.5 877.107 576.107 877.107C571.714 877.107 568.156 880.667 568.156 885.062ZM600.307 885.062H600.353C600.353 889.457 603.911 893.017 608.304 893.017C612.697 893.017 616.255 889.457 616.255 885.062H616.209C616.209 880.667 612.651 877.107 608.258 877.107C603.865 877.107 600.307 880.667 600.307 885.062Z" fill="#392200"/>
</g>
<path d="M657 856V22.76C657 10.74 647.26 1 635.24 1H28.76C16.74 1 7 10.74 7 22.76V856C19.7 856 30 866.3 30 879H49C49 874.58 52.58 871 57 871C61.42 871 65 874.58 65 879H81.35C81.35 874.58 84.93 871 89.35 871C93.77 871 97.35 874.58 97.35 879H113.7C113.7 874.58 117.28 871 121.7 871C126.12 871 129.7 874.58 129.7 879H146.05C146.05 874.58 149.63 871 154.05 871C158.47 871 162.05 874.58 162.05 879H178.4C178.4 874.58 181.98 871 186.4 871C190.82 871 194.4 874.58 194.4 879H210.75C210.75 874.58 214.33 871 218.75 871C223.17 871 226.75 874.58 226.75 879H243.1C243.1 874.58 246.68 871 251.1 871C255.52 871 259.1 874.58 259.1 879H275.45C275.45 874.58 279.03 871 283.45 871C287.87 871 291.45 874.58 291.45 879H307.8C307.8 874.58 311.38 871 315.8 871C320.22 871 323.8 874.58 323.8 879H340.15C340.15 874.58 343.73 871 348.15 871C352.57 871 356.15 874.58 356.15 879H372.5C372.5 874.58 376.08 871 380.5 871C384.92 871 388.5 874.58 388.5 879H404.85C404.85 874.58 408.43 871 412.85 871C417.27 871 420.85 874.58 420.85 879H437.2C437.2 874.58 440.78 871 445.2 871C449.62 871 453.2 874.58 453.2 879H469.55C469.55 874.58 473.13 871 477.55 871C481.97 871 485.55 874.58 485.55 879H501.9C501.9 874.58 505.48 871 509.9 871C514.32 871 517.9 874.58 517.9 879H534.25C534.25 874.58 537.83 871 542.25 871C546.67 871 550.25 874.58 550.25 879H566.6C566.6 874.58 570.18 871 574.6 871C579.02 871 582.6 874.58 582.6 879H598.95C598.95 874.58 602.53 871 606.95 871C611.37 871 614.95 874.58 614.95 879H633.95C633.95 866.3 644.25 856 656.95 856H657Z" fill="white"/>
<path d="M657 1756V902C644.299 902 633.998 891.7 633.998 879H614.997C614.997 883.42 611.417 887 606.996 887C602.576 887 598.996 883.42 598.996 879H582.644C582.644 883.42 579.064 887 574.644 887C570.223 887 566.643 883.42 566.643 879H550.292C550.292 883.42 546.711 887 542.291 887C537.871 887 534.291 883.42 534.291 879H517.939C517.939 883.42 514.359 887 509.939 887C505.518 887 501.938 883.42 501.938 879H485.587C485.587 883.42 482.007 887 477.586 887C473.166 887 469.586 883.42 469.586 879H453.234C453.234 883.42 449.654 887 445.234 887C440.813 887 437.233 883.42 437.233 879H420.882C420.882 883.42 417.302 887 412.881 887C408.461 887 404.881 883.42 404.881 879H388.529C388.529 883.42 384.949 887 380.529 887C376.108 887 372.528 883.42 372.528 879H356.177C356.177 883.42 352.597 887 348.176 887C343.756 887 340.176 883.42 340.176 879H323.824C323.824 883.42 320.244 887 315.824 887C311.403 887 307.823 883.42 307.823 879H291.472C291.472 883.42 287.892 887 283.471 887C279.051 887 275.471 883.42 275.471 879H259.119C259.119 883.42 255.539 887 251.119 887C246.698 887 243.118 883.42 243.118 879H226.767C226.767 883.42 223.187 887 218.766 887C214.346 887 210.766 883.42 210.766 879H194.414C194.414 883.42 190.834 887 186.414 887C181.993 887 178.413 883.42 178.413 879H162.062C162.062 883.42 158.482 887 154.061 887C149.641 887 146.061 883.42 146.061 879H129.709C129.709 883.42 126.129 887 121.709 887C117.288 887 113.708 883.42 113.708 879H97.3569C97.3569 883.42 93.7767 887 89.3563 887C84.936 887 81.3557 883.42 81.3557 879H65.0045C65.0045 883.42 61.4242 887 57.0038 887C52.5835 887 49.0032 883.42 49.0032 879H30.0018C30.0018 891.7 19.701 902 7 902V1756C19.701 1756 30.0018 1766.3 30.0018 1779H49.0032C49.0032 1774.58 52.5835 1771 57.0038 1771C61.4242 1771 65.0045 1774.58 65.0045 1779H81.3557C81.3557 1774.58 84.936 1771 89.3563 1771C93.7767 1771 97.3569 1774.58 97.3569 1779H113.708C113.708 1774.58 117.288 1771 121.709 1771C126.129 1771 129.709 1774.58 129.709 1779H146.061C146.061 1774.58 149.641 1771 154.061 1771C158.482 1771 162.062 1774.58 162.062 1779H178.413C178.413 1774.58 181.993 1771 186.414 1771C190.834 1771 194.414 1774.58 194.414 1779H210.766C210.766 1774.58 214.346 1771 218.766 1771C223.187 1771 226.767 1774.58 226.767 1779H243.118C243.118 1774.58 246.698 1771 251.119 1771C255.539 1771 259.119 1774.58 259.119 1779H275.471C275.471 1774.58 279.051 1771 283.471 1771C287.892 1771 291.472 1774.58 291.472 1779H307.823C307.823 1774.58 311.403 1771 315.824 1771C320.244 1771 323.824 1774.58 323.824 1779H340.176C340.176 1774.58 343.756 1771 348.176 1771C352.597 1771 356.177 1774.58 356.177 1779H372.528C372.528 1774.58 376.108 1771 380.529 1771C384.949 1771 388.529 1774.58 388.529 1779H404.881C404.881 1774.58 408.461 1771 412.881 1771C417.302 1771 420.882 1774.58 420.882 1779H437.233C437.233 1774.58 440.813 1771 445.234 1771C449.654 1771 453.234 1774.58 453.234 1779H469.586C469.586 1774.58 473.166 1771 477.586 1771C482.007 1771 485.587 1774.58 485.587 1779H501.938C501.938 1774.58 505.518 1771 509.939 1771C514.359 1771 517.939 1774.58 517.939 1779H534.291C534.291 1774.58 537.871 1771 542.291 1771C546.711 1771 550.292 1774.58 550.292 1779H566.643C566.643 1774.58 570.223 1771 574.644 1771C579.064 1771 582.644 1774.58 582.644 1779H598.996C598.996 1774.58 602.576 1771 606.996 1771C611.417 1771 614.997 1774.58 614.997 1779H633.998C633.998 1766.3 644.299 1756 657 1756Z" fill="white"/>
<defs>
<filter id="filter0_f_94_7" x="0" y="0" width="670" height="1792" filterUnits="userSpaceOnUse" color-interpolation-filters="sRGB">
<feFlood flood-opacity="0" result="BackgroundImageFix"/>
<feBlend mode="normal" in="SourceGraphic" in2="BackgroundImageFix" result="shape"/>
<feGaussianBlur stdDeviation="6" result="effect1_foregroundBlur_94_7"/>
</filter>
</defs>
</svg>
