<svg width="571" height="238" viewBox="0 0 571 238" fill="none" xmlns="http://www.w3.org/2000/svg">
<path d="M135.907 203.232V200.096H144.675V203.232H135.907ZM156.355 219.168H152.387V211.904H147.779V208.704H152.387V199.072H156.355V219.168ZM157.891 226.624C157.283 227.68 156.643 228.672 156.035 229.728C152.035 229.024 147.651 226.4 146.179 223.648C144.867 226.432 140.579 228.992 136.291 229.728C135.683 228.64 135.043 227.616 134.435 226.528C139.715 225.92 144.195 223.008 144.195 218.848V218.112H148.291V218.848C148.291 223.008 152.803 225.76 157.891 226.624ZM132.291 208.032V204.864H148.227V208.032H142.435C143.043 211.584 145.955 213.472 149.027 214.336L147.043 217.44C144.707 216.672 141.539 214.624 140.291 212.032C139.267 214.752 136.195 217.344 133.187 218.272C132.483 217.28 131.747 216.224 131.011 215.232C134.819 213.952 137.571 211.648 138.083 208.032H132.291ZM169.865 200.704H190.409C190.409 205.632 190.089 210.176 189.417 213.664H193.897V216.8H182.121V229.408H178.153V216.8H166.505V213.664H185.641C186.185 211.04 186.441 207.616 186.441 203.904H169.865V200.704ZM203.815 218.464V205.792H199.015V218.464H203.815ZM220.135 229.408H216.327V214.208H213.895V228H210.151V199.616H213.895V211.008H216.327V199.072H220.135V229.408ZM207.559 202.72V221.504H195.271V202.72H207.559ZM256.941 225.152H229.549V221.984H239.373V211.776H243.373V221.984H256.941V225.152ZM232.461 201.728H253.805C253.965 209.376 253.581 214.912 252.525 218.944L248.717 218.464C249.677 214.944 249.901 209.12 249.805 204.928H232.461V201.728ZM283.178 216.896H279.402V209.536H276.778V216.544H273.066V199.616H276.778V206.336H279.402V199.072H283.178V216.896ZM283.178 229.44H279.242V221.472H262.186V218.304H283.178V229.44ZM258.73 201.216H270.57C270.57 208.96 266.154 214.176 259.306 217.184L256.97 214.112C261.706 212.544 265.93 208.576 266.378 204.416H258.73V201.216ZM298.065 214.048C298.065 215.424 299.569 216.384 301.329 216.384C303.089 216.384 304.593 215.424 304.593 214.048C304.593 212.64 303.089 211.648 301.329 211.648C299.569 211.648 298.065 212.64 298.065 214.048ZM317.041 228.704H296.305V220.704H300.305V225.536H317.041V228.704ZM316.305 199.072V208.896H320.529V212.192H316.305V221.6H312.337V199.072H316.305ZM296.849 203.104V200.064H305.873V203.104H296.849ZM308.497 214.048C308.497 217.28 305.425 219.584 301.329 219.584C297.201 219.584 294.129 217.28 294.129 214.048C294.129 210.848 297.169 208.48 301.329 208.48C305.425 208.48 308.497 210.848 308.497 214.048ZM309.937 207.616H292.337V204.544H309.937V207.616ZM335.086 220.448C330.99 220.448 328.558 221.504 328.558 223.36C328.558 225.12 330.99 226.176 335.086 226.176C339.278 226.176 341.678 225.12 341.678 223.36C341.678 221.504 339.278 220.448 335.086 220.448ZM336.974 209.536V206.336H341.518V199.072H345.518V217.12H341.518V209.536H336.974ZM321.486 204.48V201.216H337.454V204.48H331.694C332.014 208.704 335.054 211.552 338.382 212.64C337.678 213.696 336.942 214.72 336.206 215.776C333.902 214.88 330.958 212.608 329.646 209.824C328.718 212.768 325.518 215.616 322.606 216.64L320.238 213.536C324.462 212 327.278 208.8 327.502 204.48H321.486ZM345.71 223.36C345.71 227.04 341.806 229.344 335.086 229.344C328.398 229.344 324.494 227.04 324.494 223.36C324.494 219.584 328.398 217.248 335.086 217.248C341.806 217.248 345.71 219.584 345.71 223.36ZM373.876 219.2C373.076 220.192 372.34 221.184 371.54 222.176C369.044 220.576 365.556 216.992 364.532 213.696C363.54 217.12 360.468 220.928 357.332 222.784C356.532 221.792 355.732 220.832 354.9 219.872C359.828 216.704 362.42 211.84 362.42 205.792V201.632H366.516V205.568C366.516 211.584 369.3 216.288 373.876 219.2ZM379.316 199.072V210.752H383.7V214.016H379.316V229.408H375.38V199.072H379.316ZM403.666 206.336C403.666 204.48 401.17 203.264 397.17 203.264C393.234 203.264 390.706 204.48 390.706 206.336C390.706 208.096 393.234 209.28 397.17 209.28C401.17 209.28 403.666 208.096 403.666 206.336ZM407.762 206.272C407.762 209.792 403.826 212.384 397.202 212.384C390.514 212.384 386.642 209.792 386.642 206.272C386.642 202.784 390.514 200.192 397.17 200.192C403.826 200.192 407.762 202.784 407.762 206.272ZM407.698 228.608H386.834V219.744H390.834V225.472H407.698V228.608ZM410.866 217.536H383.474V214.336H410.866V217.536ZM431.28 225.92V222.048H418.736V225.92H431.28ZM435.952 203.104H413.936V199.968H435.952V203.104ZM435.856 211.648H414V208.512H418.192C417.936 207.2 417.648 205.92 417.424 204.576L421.264 204.064C421.456 205.568 421.712 207.04 421.904 208.512H427.984L428.752 204.096L432.624 204.576C432.304 205.92 432.048 207.2 431.728 208.512H435.856V211.648ZM435.216 228.992H414.768V219.008H422.928V216.768H411.312V213.568H438.704V216.768H426.928V219.008H435.216V228.992Z" fill="#202F57"/>
<path d="M342.127 52C339.657 52 337.157 51.53 334.727 50.52C319.047 44.05 302.327 40.78 285.007 40.78C267.687 40.78 250.967 44.06 235.287 50.52C225.107 54.72 213.537 49.65 209.437 39.2C205.347 28.75 210.287 16.88 220.467 12.68C240.887 4.27 262.597 0 285.007 0C307.417 0 329.127 4.27 349.537 12.69C359.717 16.89 364.657 28.76 360.567 39.21C357.447 47.17 349.997 52 342.127 52Z" fill="#EECD2A"/>
<path d="M242.887 34.7184C243.597 34.4684 244.207 34.7684 244.407 35.3284C244.607 35.8984 244.307 36.5084 243.607 36.7584L234.147 40.0684C233.527 40.2884 232.947 40.0084 232.737 39.3884L226.947 22.8584C226.727 22.2384 227.007 21.6584 227.627 21.4484L236.917 18.1984C237.627 17.9484 238.237 18.2484 238.437 18.8084C238.637 19.3784 238.337 19.9884 237.637 20.2384L229.397 23.1284L231.457 29.0184L236.697 27.1884C237.407 26.9384 238.017 27.2384 238.217 27.7984C238.417 28.3584 238.117 28.9784 237.417 29.2284L232.177 31.0584L234.497 37.6784L242.907 34.7284L242.887 34.7184Z" fill="#001E6C"/>
<path d="M253.187 14.7104C253.267 14.1404 253.537 13.7004 254.087 13.5704C254.667 13.4304 255.167 13.7104 255.327 14.3504C255.387 14.6104 255.397 14.9204 255.367 15.1704L253.117 33.5304C253.027 34.2004 252.727 34.6104 252.227 34.7304C251.727 34.8504 251.277 34.6204 250.897 34.0604L240.597 18.6904C240.457 18.4804 240.327 18.2004 240.267 17.9404C240.117 17.3004 240.437 16.8204 241.017 16.6804C241.567 16.5504 242.007 16.8104 242.337 17.2904L251.267 30.6704L253.197 14.7004L253.187 14.7104Z" fill="#001E6C"/>
<path d="M271.687 29.0405C272.427 28.9405 272.967 29.3505 273.047 29.9505C273.127 30.5405 272.717 31.0805 271.967 31.1805L262.037 32.4905C261.387 32.5805 260.877 32.1905 260.787 31.5305L258.497 14.1605C258.407 13.5105 258.797 13.0005 259.457 12.9105L269.217 11.6205C269.957 11.5205 270.497 11.9305 270.577 12.5305C270.657 13.1205 270.247 13.6605 269.497 13.7605L260.837 14.9005L261.657 21.0905L267.157 20.3605C267.897 20.2605 268.437 20.6805 268.517 21.2705C268.597 21.8605 268.187 22.4005 267.437 22.5005L261.937 23.2305L262.857 30.1905L271.687 29.0205V29.0405Z" fill="#001E6C"/>
<path d="M286.887 11.9403C286.877 11.1603 287.347 10.6703 287.977 10.6603C288.607 10.6503 289.097 11.1203 289.107 11.9003L289.437 29.6003C289.447 30.3203 289.007 30.8103 288.377 30.8203C287.927 30.8203 287.597 30.6003 287.347 30.2403L276.567 15.5003L276.837 29.7803C276.847 30.5603 276.377 31.0503 275.747 31.0603C275.117 31.0703 274.627 30.6003 274.617 29.8203L274.287 12.1203C274.277 11.4003 274.717 10.9103 275.347 10.9003C275.797 10.9003 276.127 11.1303 276.377 11.4803L287.157 26.2203L286.887 11.9403Z" fill="#001E6C"/>
<path d="M299.187 30.3287C299.117 31.1087 298.597 31.5387 297.967 31.4787C297.337 31.4187 296.907 30.8987 296.977 30.1187L298.477 13.6487L293.427 13.1887C292.677 13.1187 292.247 12.5987 292.297 11.9987C292.347 11.3987 292.877 10.9687 293.617 11.0387L305.927 12.1587C306.677 12.2287 307.107 12.7487 307.057 13.3487C307.007 13.9487 306.477 14.3787 305.737 14.3087L300.687 13.8487L299.187 30.3187V30.3287Z" fill="#001E6C"/>
<path d="M312.108 23.0312C313.388 17.6312 317.358 13.7612 322.258 14.9212C327.158 16.0812 328.968 21.3212 327.688 26.7212C326.408 32.1212 322.438 35.9912 317.538 34.8312C312.638 33.6712 310.828 28.4312 312.108 23.0312ZM324.138 25.8812C324.998 22.2612 324.108 19.0012 321.448 18.3712C318.818 17.7512 316.528 20.2612 315.678 23.8812C314.818 27.5012 315.738 30.7712 318.368 31.3912C321.028 32.0212 323.288 29.5012 324.148 25.8812H324.138Z" fill="#001E6C"/>
<path d="M340.188 35.6118C339.068 38.7518 335.848 40.4718 331.698 38.9918C328.898 37.9918 327.278 36.1118 326.998 34.3918C326.938 33.9218 326.958 33.4218 327.098 33.0318C327.428 32.1018 328.418 31.6518 329.288 31.9618C330.138 32.2618 330.398 33.0518 330.608 33.5418C330.988 34.4418 331.578 35.1918 332.848 35.6418C334.768 36.3218 336.268 35.6118 336.778 34.1718C337.288 32.7318 336.578 31.2318 334.658 30.5518L333.898 30.2818C332.768 29.8818 332.308 28.9218 332.648 27.9918C332.968 27.0918 333.938 26.6018 335.068 27.0018L335.828 27.2718C337.408 27.8318 338.638 27.2518 339.068 26.0318C339.498 24.8118 338.918 23.5918 337.338 23.0318C336.068 22.5818 335.358 22.9618 334.658 23.2218C334.168 23.4318 333.678 23.5718 333.078 23.3618C332.118 23.0218 331.698 22.0418 332.008 21.1718C332.198 20.6318 332.648 20.1918 333.178 19.8618C334.468 19.1118 336.458 18.9618 338.578 19.7118C342.248 21.0218 343.668 24.1018 342.628 27.0418C342.048 28.6818 340.808 29.9318 339.088 30.2718C340.558 31.6818 340.878 33.6518 340.188 35.6018V35.6118Z" fill="#001E6C"/>
<path d="M10.75 145.09L6.19 157.39C5.59 158.94 4.56 159.97 2.92 159.97C1.2 159.97 0 158.85 0 156.96C0 156.19 0.17 155.33 0.43 154.64L18.92 104.93C19.61 103.12 20.73 102.18 22.19 102.18C23.65 102.18 24.77 103.13 25.46 104.93L43.95 154.64C44.21 155.33 44.38 156.19 44.38 156.96C44.38 158.85 43.18 159.97 41.46 159.97C39.74 159.97 38.79 158.94 38.19 157.39L33.63 145.09H10.75ZM22.19 114.13L12.99 138.9H31.31L22.19 114.13Z" fill="black"/>
<path d="M103.031 104.67C103.891 102.95 105.011 102.18 106.301 102.18C108.021 102.18 109.401 103.47 109.401 105.53V156.36C109.401 158.6 108.021 159.97 106.221 159.97C104.421 159.97 103.041 158.59 103.041 156.36V118.61L88.1605 147.68C87.3005 149.31 86.2705 150.09 84.9805 150.09C83.6905 150.09 82.6605 149.32 81.8005 147.68L66.9205 118.61V156.36C66.9205 158.6 65.5405 159.97 63.7405 159.97C61.9405 159.97 60.5605 158.59 60.5605 156.36V105.53C60.5605 103.47 61.9405 102.18 63.6605 102.18C64.9505 102.18 66.0705 102.95 66.9305 104.67L84.9905 140.02L103.051 104.67H103.031Z" fill="black"/>
<path d="M115.58 131.08C115.58 115.17 124.7 101.75 140.26 101.75C155.82 101.75 164.94 115.17 164.94 131.08C164.94 146.99 155.82 160.41 140.26 160.41C124.7 160.41 115.58 146.99 115.58 131.08ZM158.58 131.08C158.58 118.27 151.79 107.95 140.26 107.95C128.73 107.95 121.94 118.27 121.94 131.08C121.94 143.89 128.73 154.21 140.26 154.21C151.79 154.21 158.58 143.89 158.58 131.08Z" fill="black"/>
<path d="M177.501 156.361C177.501 158.601 176.121 159.971 174.321 159.971C172.521 159.971 171.141 158.591 171.141 156.361V105.961C171.141 104.071 172.431 102.781 174.321 102.781H190.831C202.011 102.781 209.231 109.401 209.231 119.291C209.231 126.001 205.701 132.451 197.361 134.861L208.631 154.041C209.151 154.901 209.661 155.851 209.661 157.051C209.661 158.861 208.461 159.971 206.741 159.971C204.931 159.971 204.071 158.851 203.211 157.391L190.651 135.801H177.491V156.351L177.501 156.361ZM190.831 129.611C198.571 129.611 202.871 125.741 202.871 119.291C202.871 112.841 198.571 108.971 190.831 108.971H177.501V129.611H190.831Z" fill="black"/>
<path d="M246.9 153.181C249.05 153.181 250.43 154.561 250.43 156.281C250.43 158.001 249.05 159.381 246.9 159.381H218.18C216.29 159.381 215 158.091 215 156.201V105.981C215 104.091 216.29 102.801 218.18 102.801H246.39C248.54 102.801 249.92 104.181 249.92 105.901C249.92 107.621 248.54 109.001 246.39 109.001H221.36V126.891H237.27C239.42 126.891 240.8 128.271 240.8 129.991C240.8 131.711 239.42 133.091 237.27 133.091H221.36V153.211H246.9V153.181Z" fill="black"/>
<path d="M308.73 143.891C308.73 153.871 301.94 159.371 287.06 159.371H272.87C268.83 159.371 266.16 156.701 266.16 152.661V109.491C266.16 105.451 268.83 102.781 272.87 102.781H285.08C298.93 102.781 306.32 109.061 306.32 118.691C306.32 125.141 303.05 128.411 298.32 130.211C303.91 131.411 308.73 135.541 308.73 143.881V143.891ZM285.94 124.801C289.9 124.801 292.48 123.421 292.48 120.161C292.48 116.901 289.9 115.521 285.94 115.521H279.58V124.811H285.94V124.801ZM287.4 146.641C291.79 146.641 294.62 145.091 294.62 141.481C294.62 137.871 291.78 136.321 287.4 136.321H279.57V146.641H287.4Z" fill="#557EFF"/>
<path d="M344.42 146.299C348.89 146.299 351.64 149.139 351.64 152.839C351.64 156.539 348.89 159.379 344.42 159.379H318.62C314.58 159.379 311.91 156.709 311.91 152.669V109.499C311.91 105.459 314.58 102.789 318.62 102.789H343.9C348.37 102.789 351.12 105.629 351.12 109.329C351.12 113.029 348.37 115.869 343.9 115.869H325.32V124.299H335.04C339.34 124.299 342.01 127.049 342.01 130.579C342.01 134.109 339.34 136.859 335.04 136.859H325.32V146.319H344.41L344.42 146.299Z" fill="#557EFF"/>
<path d="M388.2 117.492V109.322C388.2 104.762 391.12 101.922 394.91 101.922C398.7 101.922 401.62 104.762 401.62 109.322V153.272C401.62 157.572 399.04 160.242 395.17 160.242C392.5 160.242 390.7 159.042 388.72 156.372L375.99 139.692C372.98 135.652 370.14 131.612 367.13 126.622C367.65 132.732 367.82 138.922 367.82 144.682V152.852C367.82 157.412 364.9 160.252 361.11 160.252C357.32 160.252 354.4 157.412 354.4 152.852V108.902C354.4 104.602 356.98 101.932 360.85 101.932C363.52 101.932 365.32 103.132 367.3 105.802L380.03 122.482C383.04 126.522 385.88 130.562 388.89 135.552C388.37 129.442 388.2 123.252 388.2 117.492Z" fill="#557EFF"/>
<path d="M440.48 146.299C444.95 146.299 447.7 149.139 447.7 152.839C447.7 156.539 444.95 159.379 440.48 159.379H414.68C410.64 159.379 407.97 156.709 407.97 152.669V109.499C407.97 105.459 410.64 102.789 414.68 102.789H439.96C444.43 102.789 447.18 105.629 447.18 109.329C447.18 113.029 444.43 115.869 439.96 115.869H421.38V124.299H431.1C435.4 124.299 438.07 127.049 438.07 130.579C438.07 134.109 435.4 136.859 431.1 136.859H421.38V146.319H440.47L440.48 146.299Z" fill="#557EFF"/>
<path d="M473.59 126.349C477.89 126.349 480.56 129.099 480.56 132.629C480.56 136.159 477.89 138.909 473.59 138.909H463.87V152.839C463.87 157.399 460.95 160.239 457.16 160.239C453.37 160.239 450.45 157.399 450.45 152.839V109.499C450.45 105.459 453.12 102.789 457.16 102.789H482.44C486.91 102.789 489.66 105.629 489.66 109.329C489.66 113.029 486.91 115.869 482.44 115.869H463.86V126.359H473.58L473.59 126.349Z" fill="#557EFF"/>
<path d="M492.08 152.832V109.322C492.08 104.762 495 101.922 498.79 101.922C502.58 101.922 505.5 104.762 505.5 109.322V152.832C505.5 157.392 502.58 160.232 498.79 160.232C495 160.232 492.08 157.392 492.08 152.832Z" fill="#557EFF"/>
<path d="M537.15 152.83C537.15 157.39 534.23 160.23 530.44 160.23C526.65 160.23 523.73 157.39 523.73 152.83V115.85H515.13C510.66 115.85 507.91 113.01 507.91 109.31C507.91 105.61 510.66 102.77 515.13 102.77H545.75C550.22 102.77 552.97 105.61 552.97 109.31C552.97 113.01 550.22 115.85 545.75 115.85H537.15V152.83Z" fill="#557EFF"/>
<path d="M555.12 152.492C555.12 148.282 558.65 144.752 562.86 144.752C567.07 144.752 570.6 148.282 570.6 152.492C570.6 156.702 567.07 160.232 562.86 160.232C558.65 160.232 555.12 156.702 555.12 152.492ZM556.41 134.092V109.062C556.41 104.672 559.25 101.922 562.86 101.922C566.47 101.922 569.31 104.672 569.31 109.062V134.092C569.31 138.482 566.47 141.232 562.86 141.232C559.25 141.232 556.41 138.482 556.41 134.092Z" fill="#001E6C"/>
<path d="M272.87 102.781C268.83 102.781 266.16 105.451 266.16 109.491V152.661C266.16 156.701 268.83 159.371 272.87 159.371C276.91 159.371 279.58 156.701 279.58 152.661V109.491C279.58 105.451 276.91 102.781 272.87 102.781Z" fill="#001E6C"/>
<path d="M351.13 109.321C351.13 106.321 349.31 103.881 346.23 103.071C345.52 102.881 344.74 102.781 343.9 102.781H318.62C314.7 102.781 312.08 105.291 311.93 109.141H311.92C311.92 109.211 311.92 109.261 311.92 109.321C311.92 109.381 311.92 109.431 311.92 109.491H311.93C312.08 113.341 314.7 115.851 318.62 115.851H343.9C345.3 115.851 346.53 115.571 347.56 115.081C349.83 113.991 351.13 111.861 351.13 109.321Z" fill="#E74723"/>
<path d="M388.2 117.492V109.322C388.2 104.762 391.12 101.922 394.91 101.922C398.7 101.922 401.62 104.762 401.62 109.322V153.272C401.62 157.572 399.04 160.242 395.17 160.242C393.84 160.242 392.72 159.942 391.69 159.302C389.79 158.132 388.72 155.972 388.69 153.732L388.21 117.492H388.2Z" fill="#001E6C"/>
<path d="M407.98 152.661C407.98 149.151 410.83 146.301 414.34 146.301H440.48C444.95 146.301 447.7 149.141 447.7 152.841C447.7 156.541 444.95 159.381 440.48 159.381H414.21C410.77 159.381 407.97 156.591 407.97 153.141V152.671L407.98 152.661Z" fill="#E74723"/>
<path d="M450.46 132.62C450.46 129.15 453.27 126.34 456.74 126.34H473.6C477.9 126.34 480.57 129.09 480.57 132.62C480.57 136.15 477.9 138.9 473.6 138.9H456.74C453.27 138.9 450.46 136.09 450.46 132.62Z" fill="#001E6C"/>
<path d="M523.73 115.85H515.13C510.66 115.85 507.91 113.01 507.91 109.31C507.91 105.61 510.66 102.77 515.13 102.77H545.75C550.22 102.77 552.97 105.61 552.97 109.31C552.97 113.01 550.22 115.85 545.75 115.85H523.73Z" fill="#E74723"/>
<path d="M345.149 159.369C348.761 159.369 351.689 156.441 351.689 152.829C351.689 149.217 348.761 146.289 345.149 146.289C341.537 146.289 338.609 149.217 338.609 152.829C338.609 156.441 341.537 159.369 345.149 159.369Z" fill="#FFBC00"/>
<path d="M440.7 115.861C444.312 115.861 447.24 112.933 447.24 109.321C447.24 105.709 444.312 102.781 440.7 102.781C437.088 102.781 434.16 105.709 434.16 109.321C434.16 112.933 437.088 115.861 440.7 115.861Z" fill="#FFBC00"/>
<path d="M498.79 160.279C502.496 160.279 505.5 157.275 505.5 153.569C505.5 149.864 502.496 146.859 498.79 146.859C495.084 146.859 492.08 149.864 492.08 153.569C492.08 157.275 495.084 160.279 498.79 160.279Z" fill="#FFBC00"/>
</svg>
