<svg width="224" height="34" viewBox="0 0 224 34" fill="none" xmlns="http://www.w3.org/2000/svg">
<path d="M13.9329 14.5C13.9329 9.316 12.1689 5.572 8.78493 5.572C5.43693 5.572 3.70893 9.316 3.70893 14.5C3.70893 19.648 5.43693 23.392 8.78493 23.392C12.1689 23.392 13.9329 19.648 13.9329 14.5ZM0.288925 14.464C0.288925 7.84 2.91693 2.656 8.78493 2.656C14.6889 2.656 17.2809 7.84 17.2809 14.5C17.2809 21.124 14.6889 26.308 8.78493 26.308C2.91693 26.308 0.288925 21.124 0.288925 14.464ZM30.9969 16.372H25.6329V33.76H22.2489V0.279999H25.6329V13.564H30.9969V16.372ZM47.7701 23.032L45.7181 25.408C43.2341 23.716 40.2821 19.972 39.2741 16.336C38.4821 20.044 35.6741 24.004 32.3981 26.272L30.2741 23.896C34.2341 21.376 37.6181 15.904 37.6181 9.172V3.448H40.8941V9.136C40.8941 15.58 43.9901 20.656 47.7701 23.032ZM52.7741 32.104H49.5341V14.932H44.2421V12.16H49.5341V1.036H52.7741V32.104ZM59.3981 33.76H56.1221V0.279999H59.3981V33.76ZM78.0073 7.084H62.7433V4.348H78.0073V7.084ZM90.7153 33.76H87.4393V0.279999H90.7153V33.76ZM84.5233 32.104H81.2833V15.976H76.9993V13.204H81.2833V1.036H84.5233V32.104ZM75.8113 9.28L74.6593 22.384C76.2433 22.276 77.6833 22.132 78.7273 21.952L79.0153 24.652C77.2513 24.904 74.0833 25.228 71.2033 25.372C67.9993 25.588 65.2633 25.696 62.4553 25.696L61.9513 22.816C63.1033 22.816 64.3273 22.816 65.6233 22.78L64.5793 9.388L67.9273 8.92L68.6473 22.708L71.0233 22.6C71.2393 22.6 71.4913 22.6 71.7433 22.564L72.5353 8.956L75.8113 9.28ZM132.266 29.512H102.026V26.74H115.382V18.424H118.766V26.74H132.266V29.512ZM131.186 16.552L129.35 19.216C124.094 17.74 118.694 13.564 117.146 9.784C115.778 13.6 110.342 17.776 104.906 19.18L103.178 16.444C108.65 15.472 115.418 10.684 115.418 5.068V2.764H118.91V5.068C118.91 10.648 126.074 15.544 131.186 16.552ZM160.236 32.752H137.124V23.464H140.508V29.98H160.236V32.752ZM156.42 11.08V4.852H140.58V11.08H156.42ZM150.3 26.704H146.916V20.152H133.344V17.416H163.584V20.152H150.3V26.704ZM159.804 13.852H137.196V2.08H159.804V13.852ZM180.537 23.716C178.125 24.292 173.301 24.724 169.197 24.796H165.993V3.988H169.377V21.916C172.653 21.916 177.729 21.556 180.033 20.908C180.213 21.844 180.393 22.78 180.537 23.716ZM192.957 33.76H189.681V16.12H185.577V32.104H182.373V0.999998H185.577V13.348H189.681V0.279999H192.957V33.76ZM197.526 3.844H213.654C213.438 14.464 207.246 22.312 198.102 27.28L196.014 24.688C203.934 20.908 209.37 13.924 209.982 6.688H197.526V3.844ZM223.446 33.76H220.062V0.279999H223.446V33.76Z" fill="white"/>
</svg>
