<svg width="344" height="35" viewBox="0 0 344 35" fill="none" xmlns="http://www.w3.org/2000/svg">
<path d="M15.4544 3.772H6.16637V1.036H15.4544V3.772ZM28.3424 0.279999V23.104H24.9584V13.852H18.7664V11.08H24.9584V0.279999H28.3424ZM30.3224 31.384L28.5944 34.084C24.1664 33.292 18.6944 29.764 17.3984 26.92C16.2104 29.836 10.9904 33.22 6.13037 34.084L4.40237 31.42C9.80237 30.808 15.7064 27.1 15.7064 22.312V21.412H19.1984V22.312C19.1984 27.136 25.3184 30.7 30.3224 31.384ZM20.6384 17.344L18.8744 19.972C16.0664 19.108 12.3944 16.516 10.8824 13.528C9.76637 16.552 6.27437 19.756 2.60237 21.016L0.730372 18.388C5.15837 17.02 8.90237 13.492 9.11837 9.172H1.66637V6.4H19.8824V9.172H12.6104C12.9344 13.42 16.8584 16.372 20.6384 17.344ZM43.9734 2.728H66.8694C66.8694 7.624 66.6174 12.664 65.6454 17.38H70.7214V20.116H57.2574V33.76H53.8734V20.116H40.4814V17.38H62.3334C63.1614 13.996 63.4494 9.172 63.4494 5.5H43.9734V2.728ZM82.9226 22.204V6.58H76.2266V22.204H82.9226ZM100.095 33.76H96.8186V16.264H93.1466V32.104H89.9066V0.999998H93.1466V13.492H96.8186V0.279999H100.095V33.76ZM86.1626 24.904H72.9866V3.88H86.1626V24.904ZM133.51 32.104H130.306V22.852H126.706V20.188H130.306V15.112H126.526V12.412H130.306V1.036H133.51V32.104ZM123.25 19.504C123.25 17.164 121.666 15.544 119.362 15.544C117.022 15.544 115.438 17.2 115.438 19.504C115.438 21.844 117.022 23.464 119.362 23.464C121.666 23.464 123.25 21.772 123.25 19.504ZM126.382 19.504C126.382 23.536 123.61 26.272 119.362 26.272C115.15 26.272 112.306 23.32 112.306 19.504C112.306 15.436 115.15 12.736 119.362 12.736C123.61 12.736 126.382 15.472 126.382 19.504ZM127.21 11.008H111.37V8.272H127.21V11.008ZM123.754 5.968H115.186V3.16H123.754V5.968ZM139.702 33.76H136.426V0.279999H139.702V33.76ZM147.511 15.652H148.231C152.263 15.652 156.151 15.436 158.671 14.86L159.103 17.596C156.439 18.172 151.939 18.46 148.051 18.46H144.163V2.656H157.267V5.428H147.511V9.064H156.763V11.764H147.511V15.652ZM148.231 21.88H171.019V33.76H167.635V24.652H148.231V21.88ZM171.019 20.296H167.743V11.584H163.927V20.044H160.687V0.891999H163.927V8.812H167.743V0.279999H171.019V20.296ZM201.518 21.592L201.986 24.292C198.422 25.048 193.346 25.516 187.154 25.516H183.734V3.52H199.394V6.292H187.118V22.708C192.482 22.708 197.774 22.384 201.518 21.592ZM209.762 33.76H206.378V15.04H196.874V12.16H206.378V0.279999H209.762V33.76ZM245.121 17.524V11.44H228.993V17.524H245.121ZM248.505 20.296H238.677V26.884H252.177V29.656H221.937V26.884H235.293V20.296H225.609V2.62H228.993V8.704H245.121V2.62H248.505V20.296ZM272.298 22.096L272.658 24.868C269.166 25.516 263.55 25.912 257.862 25.912H254.334V12.556H266.394V6.04H254.334V3.304H269.778V15.328H257.718V23.104C262.974 23.104 268.05 22.924 272.298 22.096ZM280.686 33.76H277.302V15.94H271.686V13.06H277.302V0.279999H280.686V33.76ZM310.419 0.279999V13.996H315.783V16.804H310.419V33.76H307.071V0.279999H310.419ZM286.083 3.844H301.635C301.419 14.464 295.839 22.312 286.695 27.28L284.607 24.688C292.527 20.908 297.387 13.924 297.999 6.688H286.083V3.844ZM317.436 3.844H333.564C333.348 14.464 327.156 22.312 318.012 27.28L315.924 24.688C323.844 20.908 329.28 13.924 329.892 6.688H317.436V3.844ZM343.356 33.76H339.972V0.279999H343.356V33.76Z" fill="white"/>
</svg>
