<svg width="442" height="342" viewBox="0 0 442 342" fill="none" xmlns="http://www.w3.org/2000/svg">
<path d="M116.044 65.888C109.384 65.888 103.242 63.816 100.43 60.634C99.3203 59.376 98.6543 57.896 98.6543 56.416C98.6543 54.122 100.356 52.272 102.872 52.272C104.574 52.272 105.758 53.16 106.868 54.122C108.422 55.454 111.012 57.452 116.266 57.452C121.15 57.452 123.666 55.75 123.666 52.124C123.666 47.388 119.374 46.278 113.75 44.798C107.09 43.022 99.6163 39.47 99.6163 29.628C99.6163 20.896 105.166 15.42 116.044 15.42C121.446 15.42 125.886 16.752 128.476 18.824C130.104 20.156 130.918 21.71 130.918 23.338C130.918 25.558 129.29 27.408 126.922 27.408C125.072 27.408 123.444 26.298 122.26 25.632C120.262 24.522 118.042 23.856 115.378 23.856C110.938 23.856 108.792 25.78 108.792 29.258C108.792 33.698 112.196 35.03 118.264 36.732C125.072 38.656 132.842 41.616 132.842 51.68C132.842 60.042 127.292 65.888 116.044 65.888ZM147.289 39.248H155.725C160.905 39.248 164.013 36.806 164.013 32.144C164.013 27.482 160.905 25.04 155.725 25.04H147.289V39.248ZM147.289 47.832V60.634C147.289 63.742 145.291 65.666 142.775 65.666C140.259 65.666 138.261 63.742 138.261 60.634V20.822C138.261 18.084 140.037 16.308 142.775 16.308H155.725C166.677 16.308 173.115 22.746 173.115 32.07C173.115 41.394 166.677 47.832 155.725 47.832H147.289ZM186.26 56.268H204.982C208.016 56.268 209.866 58.192 209.866 60.634C209.866 63.076 208.016 65 204.982 65H181.746C179.008 65 177.232 63.224 177.232 60.486V20.822C177.232 18.084 179.008 16.308 181.746 16.308H204.538C207.572 16.308 209.422 18.232 209.422 20.674C209.422 23.116 207.572 25.04 204.538 25.04H186.26V35.696H196.768C199.728 35.696 201.578 37.62 201.578 39.988C201.578 42.356 199.728 44.28 196.768 44.28H186.26V56.268ZM233.372 65.888C219.09 65.888 210.876 54.344 210.876 40.654C210.876 26.964 219.09 15.42 233.372 15.42C240.106 15.42 245.36 18.01 248.024 21.118C249.134 22.376 249.8 23.708 249.8 25.188C249.8 27.408 248.172 29.332 245.73 29.332C243.658 29.332 242.4 28 240.402 26.52C239.07 25.558 236.924 24.152 233.224 24.152C224.936 24.152 219.978 31.404 219.978 40.654C219.978 49.904 224.936 57.156 233.224 57.156C236.924 57.156 239.07 55.75 240.402 54.788C242.4 53.308 243.658 51.976 245.73 51.976C248.172 51.976 249.8 53.9 249.8 56.12C249.8 57.6 249.134 58.932 248.024 60.19C245.36 63.298 240.106 65.888 233.372 65.888ZM259.916 65.666C257.4 65.666 255.402 63.742 255.402 60.634V20.674C255.402 17.566 257.4 15.642 259.916 15.642C262.432 15.642 264.43 17.566 264.43 20.674V60.634C264.43 63.742 262.432 65.666 259.916 65.666ZM294.884 46.87C293.034 41.912 290.962 36.362 289.186 30.96C287.41 36.362 285.338 41.912 283.488 46.87H294.884ZM298.214 55.454H280.158L277.79 61.596C276.754 64.186 275.422 65.666 273.128 65.666C270.612 65.666 268.762 63.964 268.762 61.374C268.762 59.82 269.428 58.118 269.946 56.786L284.598 19.49C285.634 16.9 287.04 15.642 289.186 15.642C291.332 15.642 292.738 16.9 293.774 19.49L308.426 56.786C308.944 58.118 309.61 59.82 309.61 61.374C309.61 63.964 307.76 65.666 305.244 65.666C302.95 65.666 301.618 64.186 300.582 61.596L298.214 55.454ZM322.562 56.268H339.952C342.986 56.268 344.836 58.192 344.836 60.634C344.836 63.076 342.986 65 339.952 65H318.048C315.31 65 313.534 63.224 313.534 60.486V20.674C313.534 17.566 315.532 15.642 318.048 15.642C320.564 15.642 322.562 17.566 322.562 20.674V56.268Z" fill="#E74723"/>
<path d="M24.9861 143.888C11.5921 143.888 3.74815 132.344 3.74815 118.654C3.74815 104.964 11.5921 93.42 24.9861 93.42C31.2021 93.42 36.0861 95.936 39.4161 99.488C40.0081 100.154 40.4522 100.968 40.4522 101.93C40.4522 103.558 39.3421 104.52 38.0101 104.52C36.9741 104.52 36.1601 104.002 35.3461 103.188C32.6821 100.45 29.3521 98.748 24.9861 98.748C15.0701 98.748 9.22415 107.628 9.22415 118.654C9.22415 129.68 15.0701 138.56 24.9861 138.56C29.3521 138.56 32.6821 136.858 35.3461 134.12C36.1601 133.306 36.9741 132.788 38.0101 132.788C39.3421 132.788 40.4522 133.75 40.4522 135.378C40.4522 136.34 40.0081 137.154 39.4161 137.82C36.0861 141.372 31.2021 143.888 24.9861 143.888ZM65.9087 138.56C75.8247 138.56 81.6707 129.68 81.6707 118.654C81.6707 107.628 75.8247 98.748 65.9087 98.748C55.9927 98.748 50.1467 107.628 50.1467 118.654C50.1467 129.68 55.9927 138.56 65.9087 138.56ZM65.9087 143.888C52.5147 143.888 44.6707 132.344 44.6707 118.654C44.6707 104.964 52.5147 93.42 65.9087 93.42C79.3027 93.42 87.1467 104.964 87.1467 118.654C87.1467 132.344 79.3027 143.888 65.9087 143.888ZM111.494 143.888C99.6539 143.888 93.5859 135.304 93.5859 123.908V96.898C93.5859 94.974 94.7699 93.79 96.3239 93.79C97.8779 93.79 99.0619 94.974 99.0619 96.898V123.908C99.0619 133.38 103.576 138.56 111.494 138.56C119.412 138.56 123.926 133.38 123.926 123.908V96.898C123.926 94.974 125.11 93.79 126.664 93.79C128.218 93.79 129.402 94.974 129.402 96.898V123.908C129.402 135.304 123.334 143.888 111.494 143.888ZM143.534 118.284H154.56C161.516 118.284 165.364 114.88 165.364 108.96C165.364 103.04 161.516 99.636 154.56 99.636H143.534V118.284ZM143.534 123.612V140.41C143.534 142.334 142.35 143.518 140.796 143.518C139.242 143.518 138.058 142.334 138.058 140.41V97.046C138.058 95.418 139.168 94.308 140.796 94.308H154.56C164.92 94.308 170.84 100.302 170.84 108.96C170.84 117.618 164.92 123.612 154.56 123.612H143.534ZM194.819 138.56C204.735 138.56 210.581 129.68 210.581 118.654C210.581 107.628 204.735 98.748 194.819 98.748C184.903 98.748 179.057 107.628 179.057 118.654C179.057 129.68 184.903 138.56 194.819 138.56ZM194.819 143.888C181.425 143.888 173.581 132.344 173.581 118.654C173.581 104.964 181.425 93.42 194.819 93.42C208.213 93.42 216.057 104.964 216.057 118.654C216.057 132.344 208.213 143.888 194.819 143.888ZM253.946 132.122V96.898C253.946 94.974 255.13 93.79 256.684 93.79C258.238 93.79 259.422 94.974 259.422 96.898V140.558C259.422 142.334 258.312 143.518 256.758 143.518C255.648 143.518 254.834 142.926 254.242 142.038L228.342 105.186V140.41C228.342 142.334 227.158 143.518 225.604 143.518C224.05 143.518 222.866 142.334 222.866 140.41V96.75C222.866 94.974 223.976 93.79 225.53 93.79C226.64 93.79 227.454 94.382 228.046 95.27L253.946 132.122ZM285.686 137.672H308.626C310.55 137.672 311.66 138.856 311.66 140.336C311.66 141.816 310.55 143 308.626 143H280.876C279.248 143 278.138 142.038 278.138 140.484C278.138 139.67 278.508 138.93 278.878 138.264L303.816 99.636H281.912C280.062 99.636 278.878 98.452 278.878 96.972C278.878 95.492 280.062 94.308 281.912 94.308H308.626C310.254 94.308 311.364 95.27 311.364 96.824C311.364 97.638 311.068 98.378 310.624 99.044L285.686 137.672ZM335.24 138.56C345.156 138.56 351.002 129.68 351.002 118.654C351.002 107.628 345.156 98.748 335.24 98.748C325.324 98.748 319.478 107.628 319.478 118.654C319.478 129.68 325.324 138.56 335.24 138.56ZM335.24 143.888C321.846 143.888 314.002 132.344 314.002 118.654C314.002 104.964 321.846 93.42 335.24 93.42C348.634 93.42 356.478 104.964 356.478 118.654C356.478 132.344 348.634 143.888 335.24 143.888ZM394.367 132.122V96.898C394.367 94.974 395.551 93.79 397.105 93.79C398.659 93.79 399.843 94.974 399.843 96.898V140.558C399.843 142.334 398.733 143.518 397.179 143.518C396.069 143.518 395.255 142.926 394.663 142.038L368.763 105.186V140.41C368.763 142.334 367.579 143.518 366.025 143.518C364.471 143.518 363.287 142.334 363.287 140.41V96.75C363.287 94.974 364.397 93.79 365.951 93.79C367.061 93.79 367.875 94.382 368.467 95.27L394.367 132.122ZM414.383 137.672H436.361C438.211 137.672 439.395 138.856 439.395 140.336C439.395 141.816 438.211 143 436.361 143H411.645C410.017 143 408.907 141.89 408.907 140.262V97.046C408.907 95.418 410.017 94.308 411.645 94.308H435.917C437.767 94.308 438.951 95.492 438.951 96.972C438.951 98.452 437.767 99.636 435.917 99.636H414.383V115.028H428.073C429.923 115.028 431.107 116.212 431.107 117.692C431.107 119.172 429.923 120.356 428.073 120.356H414.383V137.672Z" fill="#161D30"/>
<rect x="63" y="196" width="316" height="58" rx="29" fill="#D2E2FF"/>
<path d="M100.578 236.472V217.272L96.6419 218.04V215.608L102.594 212.952H104.802V236.472H100.578ZM113.18 215.064V211.896H122.3V215.064H113.18ZM132.54 210.072V221.912H136.924V225.176H132.54V240.408H128.572V210.072H132.54ZM127.324 231.768L125.244 234.712C122.3 233.4 118.844 229.912 117.884 227C117.116 230.072 114.14 233.656 110.588 235.384L108.124 232.472C112.892 229.88 115.516 226.264 115.74 220.44H109.692V217.272H125.852V220.44H119.9C120.156 226.264 122.972 229.56 127.324 231.768ZM171.587 220.568L169.859 223.832C165.379 223.16 160.515 220.28 159.043 216.888C157.699 220.248 152.867 223.128 148.259 223.832C147.715 222.776 147.139 221.656 146.563 220.6C151.811 220.024 156.931 216.664 156.931 212.12V210.744H161.155V212.12C161.155 216.664 166.723 220.152 171.587 220.568ZM155.683 240.44H151.683V229.688H145.315V226.488H172.707V229.688H166.179V240.44H162.179V229.688H155.683V240.44ZM191.36 229.4L191.648 232.472C188.064 233.208 180.64 233.624 174.048 233.624L173.536 230.296H177.536L176.544 218.296L180.448 217.784L181.088 230.2C182.048 230.168 183.008 230.136 183.872 230.072L184.544 217.72L188.384 218.136C188 222.04 187.648 225.976 187.296 229.88C188.896 229.752 190.24 229.592 191.36 229.4ZM198.88 240.408H194.88V224.856H190.4V221.496H194.88V210.072H198.88V240.408ZM191.072 215.832H174.208V212.696H191.072V215.832ZM205.31 211.704H226.366C226.366 216.088 226.046 221.752 225.342 225.592H229.662V228.792H217.886V240.408H213.918V228.792H202.27V225.592H221.534C221.79 224.44 221.982 222.744 222.142 220.952L204.894 221.816L204.414 218.648L222.334 217.944C222.366 216.792 222.398 215.736 222.398 214.84H205.31V211.704ZM255.387 214.36H233.371V211.224H255.387V214.36ZM254.971 239.608H234.203V231.096H238.171V236.472H254.971V239.608ZM255.323 223.704H246.363V226.328H258.139V229.496H230.747V226.328H242.395V223.704H233.467V220.536H237.627L236.859 215.832L240.699 215.256L241.371 220.536H247.419L248.219 215.256L252.091 215.832L251.163 220.536H255.323V223.704ZM277.889 234.456C282.625 234.456 284.961 230.744 284.961 225.656V224.6C284.961 219.064 282.945 215.32 277.793 215.288C273.089 215.288 270.753 218.968 270.753 224.056V225.112C270.753 230.648 272.769 234.456 277.889 234.456ZM277.825 236.664C271.617 236.664 267.841 232.6 267.841 225.144V224.568C267.841 217.4 271.617 213.08 277.921 213.08C284.097 213.08 287.873 217.144 287.873 224.6V225.176C287.873 232.344 284.097 236.664 277.825 236.664ZM294.195 224.888H298.291C301.843 224.888 303.251 223.416 303.251 220.376C303.251 217.112 301.939 215.736 298.227 215.736H294.195V224.888ZM291.475 236.28V213.464H298.515C303.635 213.464 306.131 215.896 306.131 220.184C306.131 224.696 303.219 227.128 298.835 227.128H294.195V236.28H291.475ZM309.359 236.28V213.464H322.895V215.736H312.047V223.384H320.399V225.656H312.047V234.008H322.991V236.28H309.359ZM327.086 236.28V213.464H330.254L341.262 231.736H341.358V213.464H343.822V236.28H341.038L329.678 217.144H329.582V236.28H327.086Z" fill="#161D30"/>
<path d="M78.2399 316.128C78.2399 311.232 76.1919 307.84 73.0239 307.84C69.8879 307.84 67.8079 311.232 67.8079 316.128C67.8079 320.992 69.8879 324.384 73.0239 324.384C76.1919 324.384 78.2399 320.992 78.2399 316.128ZM65.3439 316.096C65.3439 309.824 68.1279 305.6 73.0239 305.6C77.9519 305.6 80.7039 309.824 80.7039 316.128C80.7039 322.432 77.9519 326.624 73.0239 326.624C68.1279 326.624 65.3439 322.432 65.3439 316.096ZM88.8319 333.12H86.2399V303.36H88.8319V333.12ZM104.541 318.304V312.896H95.9334V318.304H104.541ZM107.133 320.448H93.3414V305.344H95.9334V310.752H104.541V305.344H107.133V320.448ZM117.245 332.128H97.2134V323.072H99.8054V329.984H117.245V332.128ZM113.917 314.048H108.701V311.872H113.917V303.36H116.509V325.024H113.917V314.048ZM142.084 333.12H139.492V322.464H127.396V320.288H154.276V322.464H142.084V333.12ZM152.996 315.328L151.78 317.504C146.916 316.672 142.18 313.664 140.836 310.88C139.62 313.664 135.012 316.736 129.924 317.568L128.74 315.392C133.604 314.88 139.364 311.776 139.492 307.616H129.86V305.472H151.78V307.616H142.212C142.34 311.808 148.452 314.816 152.996 315.328ZM188.17 314.272L186.858 316.576C182.442 315.68 177.61 312.672 176.042 309.376C174.634 312.672 169.77 315.744 165.258 316.64L163.978 314.336C169.514 313.6 174.698 309.92 174.698 305.92V304.48H177.418V305.92C177.418 309.92 183.306 313.824 188.17 314.272ZM172.17 333.152H169.578V321.984H162.602V319.808H189.482V321.984H182.41V333.152H179.818V321.984H172.17V333.152ZM207.271 308.544H190.855V306.4H207.271V308.544ZM214.727 333.12H212.135V316.576H206.343V314.368H212.135V303.36H214.727V333.12ZM208.519 322.528L208.711 324.608C206.727 324.896 203.399 325.216 200.103 325.376C196.935 325.536 193.511 325.664 190.567 325.664L190.183 323.36C191.495 323.392 192.935 323.392 194.375 323.392L193.287 310.88L195.911 310.592L196.743 323.328C197.863 323.296 199.015 323.264 200.135 323.2C200.423 323.2 200.711 323.2 200.999 323.168L201.831 310.56L204.423 310.784L203.335 323.04C205.383 322.912 207.175 322.72 208.519 322.528ZM231.397 315.712C231.397 314.048 229.221 313.216 226.853 313.216C224.517 313.216 222.373 314.048 222.373 315.712C222.373 317.376 224.549 318.24 226.853 318.24C229.221 318.24 231.397 317.376 231.397 315.712ZM233.893 315.712C233.893 318.624 230.949 320.224 226.853 320.224C222.981 320.224 219.877 318.624 219.877 315.712C219.877 312.8 222.917 311.232 226.853 311.232C230.853 311.232 233.893 312.8 233.893 315.712ZM235.621 310.048H218.149V307.936H235.621V310.048ZM231.173 306.048H222.597V303.872H231.173V306.048ZM242.277 332.928H222.437V326.304H238.565V323.776H222.309V321.792H241.157V328.192H225.029V330.944H242.277V332.928ZM245.701 313.408H241.157V320.256H238.597V303.36H241.157V311.232H245.701V313.408ZM254.786 307.584C251.65 307.584 249.25 309.728 249.25 312.736C249.25 315.744 251.682 317.856 254.818 317.856C258.082 317.856 260.354 315.744 260.354 312.768C260.354 309.728 258.082 307.584 254.786 307.584ZM254.786 305.312C259.298 305.312 262.818 308.32 262.818 312.736C262.818 317.184 259.33 320.128 254.818 320.128C250.274 320.128 246.786 317.216 246.786 312.768C246.786 308.352 250.274 305.312 254.786 305.312ZM271.17 332.128H251.042V322.944H253.634V329.984H271.17V332.128ZM270.434 325.088H267.842V303.36H270.434V325.088ZM306.441 333.12H303.881V303.36H306.441V333.12ZM300.521 331.616H297.993V316.416H293.225V314.272H297.993V304.064H300.521V331.616ZM296.521 324.192L294.889 326.08C292.777 324.608 289.641 321.12 288.777 317.984C288.169 321.28 285.481 324.832 282.601 326.88L280.873 325.056C284.361 322.816 287.497 318.112 287.497 312.352V308.992H281.577V306.848H295.753V308.992H290.057V312.256C290.057 318.144 292.841 321.792 296.521 324.192ZM333.254 306.88H311.782V304.736H333.254V306.88ZM333.03 315.232H312.006V313.088H316.518L315.75 308.32L318.438 308L318.982 313.088H326.054L326.726 307.968L329.414 308.256L328.55 313.088H333.03V315.232ZM330.182 330.56V325.472H315.014V330.56H330.182ZM332.742 332.704H312.422V323.328H321.254V319.968H309.158V317.824H336.038V319.968H323.846V323.328H332.742V332.704ZM350.468 306.368C345.764 306.368 342.692 307.616 342.692 310.08C342.692 312.512 345.732 313.76 350.436 313.76C355.14 313.76 358.244 312.512 358.244 310.08C358.244 307.616 355.172 306.368 350.468 306.368ZM360.804 310.048C360.804 313.856 356.932 315.936 350.436 315.936C343.94 315.936 340.1 313.856 340.1 310.048C340.1 306.304 343.972 304.224 350.468 304.224C356.932 304.224 360.804 306.304 360.804 310.048ZM360.836 332.256H340.548V323.584H343.14V330.08H360.836V332.256ZM363.876 320.8H336.996V318.624H363.876V320.8ZM368.513 330.016V326.944H371.457V330.016H368.513ZM368.737 324.512V321.216C368.737 318.848 369.985 317.92 372.161 316.096C373.665 314.848 374.369 313.568 374.369 311.616C374.369 309.12 372.769 307.808 370.113 307.808C368.161 307.808 366.721 308.256 365.217 308.8L364.961 306.688C366.497 306.016 368.673 305.568 370.721 305.568C374.337 305.568 377.185 307.616 377.185 311.52C377.185 314.272 376.161 315.648 373.761 317.664C372.161 318.976 371.169 319.68 371.169 321.376V324.512H368.737Z" fill="#202F57"/>
</svg>
