<svg width="578" height="286" viewBox="0 0 578 286" fill="none" xmlns="http://www.w3.org/2000/svg">
<path d="M10.751 145.347L6.19098 157.647C5.59098 159.197 4.56098 160.228 2.92098 160.228C1.20098 160.228 0.000976562 159.107 0.000976562 157.217C0.000976562 156.447 0.170977 155.587 0.430977 154.897L18.921 105.188C19.611 103.378 20.731 102.438 22.191 102.438C23.651 102.438 24.771 103.388 25.461 105.188L43.951 154.897C44.211 155.587 44.381 156.447 44.381 157.217C44.381 159.107 43.181 160.228 41.461 160.228C39.741 160.228 38.791 159.197 38.191 157.647L33.631 145.347H10.751ZM22.191 114.387L12.991 139.158H31.311L22.191 114.387Z" fill="black"/>
<path d="M103.031 104.928C103.891 103.207 105.011 102.438 106.301 102.438C108.021 102.438 109.401 103.727 109.401 105.787V156.618C109.401 158.858 108.021 160.228 106.221 160.228C104.421 160.228 103.041 158.847 103.041 156.618V118.868L88.1605 147.938C87.3005 149.568 86.2705 150.347 84.9805 150.347C83.6905 150.347 82.6605 149.577 81.8005 147.938L66.9205 118.868V156.618C66.9205 158.858 65.5405 160.228 63.7405 160.228C61.9405 160.228 60.5605 158.847 60.5605 156.618V105.787C60.5605 103.727 61.9405 102.438 63.6605 102.438C64.9505 102.438 66.0705 103.207 66.9305 104.928L84.9905 140.278L103.031 104.928Z" fill="black"/>
<path d="M115.581 131.338C115.581 115.428 124.701 102.008 140.261 102.008C155.821 102.008 164.941 115.428 164.941 131.338C164.941 147.248 155.821 160.668 140.261 160.668C124.701 160.668 115.581 147.248 115.581 131.338ZM158.581 131.338C158.581 118.528 151.791 108.208 140.261 108.208C128.731 108.208 121.941 118.528 121.941 131.338C121.941 144.148 128.731 154.468 140.261 154.468C151.791 154.468 158.581 144.148 158.581 131.338Z" fill="black"/>
<path d="M177.501 156.619C177.501 158.859 176.121 160.229 174.321 160.229C172.521 160.229 171.141 158.849 171.141 156.619V106.219C171.141 104.329 172.431 103.039 174.321 103.039H190.831C202.011 103.039 209.231 109.659 209.231 119.549C209.231 126.259 205.701 132.709 197.361 135.119L208.631 154.299C209.151 155.159 209.661 156.109 209.661 157.309C209.661 159.119 208.461 160.229 206.741 160.229C204.931 160.229 204.071 159.109 203.211 157.649L190.651 136.059H177.491V156.609L177.501 156.619ZM190.831 129.869C198.571 129.869 202.871 125.999 202.871 119.549C202.871 113.099 198.571 109.229 190.831 109.229H177.501V129.869H190.831Z" fill="black"/>
<path d="M246.901 153.439C249.051 153.439 250.431 154.819 250.431 156.539C250.431 158.259 249.051 159.639 246.901 159.639H218.181C216.291 159.639 215.001 158.349 215.001 156.459V106.219C215.001 104.329 216.291 103.039 218.181 103.039H246.391C248.541 103.039 249.921 104.419 249.921 106.139C249.921 107.859 248.541 109.239 246.391 109.239H221.361V127.129H237.271C239.421 127.129 240.801 128.509 240.801 130.229C240.801 131.949 239.421 133.329 237.271 133.329H221.361V153.449H246.901V153.439Z" fill="black"/>
<path d="M288.011 126.609C292.311 126.609 294.981 129.359 294.981 132.889C294.981 136.419 292.311 139.169 288.011 139.169H278.291V153.099C278.291 157.659 275.371 160.499 271.581 160.499C267.791 160.499 264.871 157.659 264.871 153.099V109.749C264.871 105.709 267.541 103.039 271.581 103.039H296.861C301.331 103.039 304.081 105.879 304.081 109.579C304.081 113.279 301.331 116.119 296.861 116.119H278.281V126.609H288.001H288.011Z" fill="#557EFF"/>
<path d="M319.4 153.089C319.4 157.649 316.48 160.489 312.69 160.489C308.9 160.489 305.98 157.649 305.98 153.089V109.749C305.98 105.709 308.65 103.039 312.69 103.039H327.14C340.04 103.039 348.3 110.609 348.3 122.049C348.3 129.099 345.12 134.429 339.7 137.619L346.67 148.199C347.79 149.919 348.91 151.729 348.91 154.389C348.91 157.919 346.59 160.499 342.63 160.499C338.93 160.499 337.13 158.259 335.23 155.169L326.63 141.239H319.41V153.109L319.4 153.089ZM327.05 128.669C331.69 128.669 334.7 126.609 334.7 122.389C334.7 118.169 331.69 116.109 327.05 116.109H319.4V128.669H327.05Z" fill="#557EFF"/>
<path d="M352.852 153.09V109.58C352.852 105.02 355.772 102.18 359.562 102.18C363.352 102.18 366.272 105.02 366.272 109.58V153.09C366.272 157.65 363.352 160.49 359.562 160.49C355.772 160.49 352.852 157.65 352.852 153.09Z" fill="#557EFF"/>
<path d="M405.651 146.559C410.121 146.559 412.871 149.399 412.871 153.099C412.871 156.799 410.121 159.639 405.651 159.639H379.851C375.811 159.639 373.141 156.969 373.141 152.929V109.749C373.141 105.709 375.811 103.039 379.851 103.039H405.131C409.601 103.039 412.351 105.879 412.351 109.579C412.351 113.279 409.601 116.119 405.131 116.119H386.551V124.549H396.271C400.571 124.549 403.241 127.299 403.241 130.829C403.241 134.359 400.571 137.109 396.271 137.109H386.551V146.569H405.641L405.651 146.559Z" fill="#557EFF"/>
<path d="M449.431 117.75V109.58C449.431 105.02 452.351 102.18 456.141 102.18C459.931 102.18 462.851 105.02 462.851 109.58V153.53C462.851 157.83 460.271 160.5 456.401 160.5C453.731 160.5 451.931 159.3 449.951 156.63L437.221 139.95C434.211 135.91 431.371 131.87 428.361 126.88C428.881 132.99 429.051 139.18 429.051 144.94V153.11C429.051 157.67 426.131 160.51 422.341 160.51C418.551 160.51 415.631 157.67 415.631 153.11V109.15C415.631 104.85 418.211 102.18 422.081 102.18C424.751 102.18 426.551 103.38 428.531 106.05L441.261 122.73C444.271 126.77 447.111 130.81 450.121 135.8C449.601 129.69 449.431 123.5 449.431 117.74V117.75Z" fill="#557EFF"/>
<path d="M488.991 159.629H475.921C471.961 159.629 469.211 156.879 469.211 152.919V109.749C469.211 105.789 471.961 103.039 475.921 103.039H488.991C506.191 103.039 516.341 114.479 516.341 131.329C516.341 148.179 506.191 159.619 488.991 159.619V159.629ZM489.251 146.559C498.021 146.559 502.751 141.829 502.751 131.339C502.751 120.849 498.021 116.119 489.251 116.119H482.631V146.559H489.251Z" fill="#557EFF"/>
<path d="M517.621 149.05C517.621 145.7 519.771 143.03 523.981 143.03C529.831 143.03 529.311 148.1 538.431 148.1C543.161 148.1 545.051 146.64 545.051 144.23C545.051 139.84 539.461 139.07 533.701 137.26C526.561 135.11 518.481 130.64 518.481 119.03C518.481 108.62 525.101 102 538.431 102C549.951 102 556.661 106.99 556.661 112.66C556.661 116.01 554.341 118.42 550.471 118.42C545.651 118.42 545.481 114.55 538.691 114.55C534.131 114.55 532.241 116.18 532.241 118.76C532.241 122.97 537.141 124.44 541.871 125.81C549.521 128.13 558.811 131.49 558.811 143.78C558.811 153.76 552.451 160.64 538.261 160.64C526.481 160.64 517.621 155.91 517.621 149.03V149.05Z" fill="#557EFF"/>
<path d="M449.432 117.75V109.58C449.432 105.02 452.352 102.18 456.142 102.18C459.932 102.18 462.852 105.02 462.852 109.58V153.53C462.852 157.83 460.272 160.5 456.402 160.5C455.072 160.5 453.952 160.2 452.922 159.56C451.022 158.39 449.952 156.23 449.922 153.99L449.442 117.75H449.432Z" fill="#E74723"/>
<path d="M531.392 114.852C525.242 112.622 526.001 103.742 532.431 102.532C534.251 102.192 536.262 102.012 538.442 102.012C549.962 102.012 556.671 107.002 556.671 112.672C556.671 116.022 554.351 118.432 550.481 118.432C545.661 118.432 545.492 114.562 538.702 114.562C537.322 114.562 536.192 114.712 535.282 114.992C534.012 115.382 532.652 115.292 531.402 114.842L531.392 114.852Z" fill="#E74723"/>
<path d="M312.69 103.039C308.65 103.039 305.98 105.699 305.98 109.749V153.089C305.98 157.649 308.91 160.489 312.69 160.489C316.47 160.489 319.4 157.649 319.4 153.089V109.749C319.4 105.699 316.73 103.039 312.69 103.039Z" fill="#E74723"/>
<path d="M405.141 103.039H379.861C375.871 103.039 373.231 105.619 373.161 109.579C373.231 113.519 375.871 116.109 379.861 116.109H405.141C409.611 116.109 412.361 113.269 412.361 109.569C412.361 105.869 409.611 103.039 405.141 103.039Z" fill="#001E6C"/>
<path d="M475.921 133.52C471.961 133.52 469.211 136.27 469.211 140.23V152.92C469.211 156.87 471.961 159.63 475.921 159.63C479.881 159.63 482.621 156.87 482.621 152.92V140.23C482.621 136.27 479.871 133.52 475.921 133.52Z" fill="#001E6C"/>
<path d="M562.261 152.75C562.261 148.54 565.791 145.01 570.001 145.01C574.211 145.01 577.741 148.54 577.741 152.75C577.741 156.96 574.211 160.49 570.001 160.49C565.791 160.49 562.261 156.96 562.261 152.75ZM563.551 134.35V109.32C563.551 104.93 566.391 102.18 570.001 102.18C573.611 102.18 576.451 104.93 576.451 109.32V134.35C576.451 138.74 573.611 141.49 570.001 141.49C566.391 141.49 563.551 138.74 563.551 134.35Z" fill="black"/>
<path d="M271.581 160.498C275.287 160.498 278.291 157.494 278.291 153.788C278.291 150.082 275.287 147.078 271.581 147.078C267.875 147.078 264.871 150.082 264.871 153.788C264.871 157.494 267.875 160.498 271.581 160.498Z" fill="#E74723"/>
<path d="M359.562 115.529C363.267 115.529 366.272 112.525 366.272 108.819C366.272 105.114 363.267 102.109 359.562 102.109C355.856 102.109 352.852 105.114 352.852 108.819C352.852 112.525 355.856 115.529 359.562 115.529Z" fill="#E74723"/>
<path d="M456.141 115.432C459.847 115.432 462.851 112.428 462.851 108.722C462.851 105.016 459.847 102.012 456.141 102.012C452.435 102.012 449.431 105.016 449.431 108.722C449.431 112.428 452.435 115.432 456.141 115.432Z" fill="#E74723"/>
<path d="M524.041 156.041C527.747 156.041 530.751 153.037 530.751 149.331C530.751 145.625 527.747 142.621 524.041 142.621C520.335 142.621 517.331 145.625 517.331 149.331C517.331 153.037 520.335 156.041 524.041 156.041Z" fill="#E74723"/>
<path d="M98.6461 202.816H90.5501V200.64H98.6461V202.816ZM109.654 221.216H107.062V199.36H109.654V221.216ZM110.358 228.384H90.3901V219.488H92.9821V226.208H110.358V228.384ZM102.742 207.808H95.8941V208C95.8941 211.808 99.5741 214.976 103.318 215.872L101.942 217.952C99.3181 217.152 95.8301 214.56 94.5821 211.84C93.7181 214.496 90.4541 217.6 87.0301 218.816L85.6221 216.736C89.5581 215.552 93.2701 211.84 93.2701 208.032V207.808H86.5181V205.664H102.742V207.808ZM116.34 201.568H136.532C136.532 205.6 136.436 210.144 135.444 214.752H140.052V216.928H127.892V229.12H125.3V216.928H113.172V214.752H132.852C133.684 211.552 133.844 206.624 133.844 203.712H116.34V201.568ZM166.129 229.12H163.569V199.36H166.129V229.12ZM152.017 212.128C152.017 207.328 150.449 204.224 148.049 204.224C145.649 204.224 144.113 207.328 144.113 212.128C144.113 216.96 145.649 220.032 148.049 220.032C150.449 220.032 152.017 216.96 152.017 212.128ZM148.049 201.952C152.145 201.952 154.353 205.728 154.577 211.136H157.777V199.936H160.305V227.68H157.777V213.28H154.577C154.289 218.656 152.113 222.304 148.049 222.304C143.697 222.304 141.489 218.112 141.489 212.128C141.489 206.176 143.697 201.952 148.049 201.952ZM188.175 227.616H185.679V213.12H180.687V210.944H185.679V200.064H188.175V227.616ZM193.967 229.12H191.407V199.36H193.967V229.12ZM169.711 202.816H181.423C181.231 211.68 177.327 218.208 170.319 222.752L168.559 220.832C174.799 217.344 178.447 211.072 178.767 204.992H169.711V202.816ZM230.933 225.312H204.053V223.136H216.149V215.52H218.741V223.136H230.933V225.312ZM229.877 214.048L228.437 216.128C223.221 214.688 218.741 210.976 217.461 207.616C216.309 211.04 211.733 214.72 206.517 216.128L205.173 214.048C210.357 213.056 216.149 208.832 216.149 203.712V201.568H218.837V203.712C218.837 208.832 224.981 213.12 229.877 214.048ZM255.73 228.16H235.25V219.744H237.842V226.016H255.73V228.16ZM246.674 222.816H244.082V216.96H231.89V214.816H258.77V216.96H246.674V222.816ZM252.818 209.344V203.136H237.874V209.344H252.818ZM255.41 211.488H235.282V200.992H255.41V211.488ZM273.84 218.08L274.128 220.256C271.664 220.832 267.088 221.248 263.312 221.248H261.04V202.624H263.632V219.008C266.704 219.072 271.664 218.656 273.84 218.08ZM284.816 229.12H282.288V213.376H278.352V227.584H275.856V200.064H278.352V211.2H282.288V199.36H284.816V229.12ZM299.885 213.792V204.16H291.501V213.792H299.885ZM302.477 215.904H288.909V202.016H302.477V215.904ZM312.525 228.128H292.717V219.008H295.309V225.952H312.525V228.128ZM309.293 206.688H303.757V204.544H309.293V199.36H311.885V220.96H309.293V213.248H303.757V211.104H309.293V206.688ZM326.868 225.472V206.272L322.932 207.04V204.608L328.884 201.952H331.092V225.472H326.868ZM344.334 222.528C347.47 222.528 349.038 220.288 349.038 214.72V212.96C349.038 207.424 347.438 204.96 344.366 204.96C341.23 204.96 339.662 207.296 339.662 212.736V214.528C339.662 219.936 341.198 222.528 344.334 222.528ZM344.334 225.728C339.246 225.728 335.278 222.464 335.278 214.528V213.088C335.278 204.736 339.598 201.728 344.398 201.728C349.23 201.728 353.358 204.768 353.358 212.96V214.432C353.358 222.624 349.23 225.728 344.334 225.728ZM364.703 222.528C367.839 222.528 369.407 220.288 369.407 214.72V212.96C369.407 207.424 367.807 204.96 364.735 204.96C361.599 204.96 360.031 207.296 360.031 212.736V214.528C360.031 219.936 361.567 222.528 364.703 222.528ZM364.703 225.728C359.615 225.728 355.647 222.464 355.647 214.528V213.088C355.647 204.736 359.967 201.728 364.767 201.728C369.599 201.728 373.727 204.768 373.727 212.96V214.432C373.727 222.624 369.599 225.728 364.703 225.728ZM397.136 223.328C398.736 223.328 399.504 222.304 399.504 219.616V218.848C399.504 216.224 398.672 215.104 397.136 215.104C395.568 215.104 394.8 216.192 394.8 218.816V219.584C394.8 222.272 395.536 223.328 397.136 223.328ZM397.136 225.76C393.648 225.76 391.312 223.488 391.312 219.552V219.072C391.312 215.168 393.68 212.704 397.136 212.704C400.56 212.704 402.96 214.976 402.96 218.848V219.36C402.96 223.264 400.624 225.76 397.136 225.76ZM381.136 212.448C382.768 212.448 383.536 211.36 383.536 208.672V207.936C383.536 205.344 382.704 204.16 381.136 204.16C379.6 204.16 378.8 205.312 378.8 207.904V208.64C378.8 211.36 379.568 212.448 381.136 212.448ZM381.136 214.88C377.648 214.88 375.376 212.576 375.376 208.64V208.192C375.376 204.256 377.68 201.76 381.136 201.76C384.56 201.76 386.928 204.032 386.928 207.936V208.448C386.928 212.352 384.624 214.88 381.136 214.88ZM379.44 226.784L395.376 201.504H398.48L382.544 226.784H379.44ZM428.907 213.76L426.635 216.864C424.331 216 421.163 213.28 419.851 210.464C418.923 213.536 415.659 216.704 412.811 217.664L410.443 214.496C414.859 212.864 417.739 208.928 417.739 204.384V200.8H421.899V204.192C421.899 208.8 425.355 212.608 428.907 213.76ZM436.587 228.608H415.947V219.072H419.915V225.44H436.587V228.608ZM435.947 221.088H431.947V209.248H426.763V206.048H431.947V199.072H435.947V221.088ZM458.409 206.208V202.72H446.313V206.208H458.409ZM462.441 209.312H442.345V199.648H462.441V209.312ZM463.561 229.28H442.185V221.504H458.505V219.744H441.993V216.608H450.345V214.336H438.697V211.328H466.089V214.336H454.313V216.608H462.505V224.32H446.153V226.048H463.561V229.28ZM491.91 229.12H489.35V199.36H491.91V229.12ZM477.798 212.128C477.798 207.328 476.23 204.224 473.83 204.224C471.43 204.224 469.894 207.328 469.894 212.128C469.894 216.96 471.43 220.032 473.83 220.032C476.23 220.032 477.798 216.96 477.798 212.128ZM473.83 201.952C477.926 201.952 480.134 205.728 480.358 211.136H483.558V199.936H486.086V227.68H483.558V213.28H480.358C480.07 218.656 477.894 222.304 473.83 222.304C469.478 222.304 467.27 218.112 467.27 212.128C467.27 206.176 469.478 201.952 473.83 201.952ZM191.079 260.224C191.079 256.16 190.247 252.832 188.199 252.832C186.215 252.832 185.383 256.16 185.383 260.224C185.383 264.288 186.215 267.584 188.199 267.584C190.247 267.584 191.079 264.288 191.079 260.224ZM207.111 277.408H203.367V247.072H207.111V277.408ZM201.063 276H197.319V261.888H194.727C194.375 266.784 192.423 271.104 188.167 271.104C183.495 271.104 181.607 265.76 181.607 260.192C181.607 254.656 183.495 249.376 188.167 249.376C192.455 249.376 194.375 253.696 194.727 258.624H197.319V247.648H201.063V276ZM221.22 260C221.22 255.232 219.524 252.352 217.188 252.352C214.916 252.352 213.252 255.232 213.252 260C213.252 264.768 214.916 267.616 217.188 267.616C219.524 267.616 221.22 264.768 221.22 260ZM209.348 260C209.348 253.632 212.26 249.152 217.188 249.152C222.148 249.152 225.028 253.632 225.028 260.032C225.028 266.336 222.148 270.816 217.188 270.816C212.26 270.816 209.348 266.368 209.348 260ZM234.244 277.408H230.244V261.568H225.796V258.208H230.244V247.072H234.244V277.408ZM258.754 273.856V271.36H246.146V273.856H258.754ZM262.786 263.84H258.978V257.024H256.546V263.648H252.802V247.616H256.546V253.856H258.978V247.072H262.786V263.84ZM251.074 259.744L251.522 262.72C248.93 263.36 243.842 263.648 240.354 263.648C239.682 263.648 238.946 263.616 238.274 263.616V254.432H245.762V251.904H238.146V248.736H249.794V257.536H242.242V260.48C244.738 260.48 249.09 260.224 251.074 259.744ZM262.786 277.024H242.178V265.376H246.146V268.256H258.754V265.344H262.786V277.024ZM282.568 261.536C282.568 260.544 281.544 259.712 279.752 259.712C277.96 259.712 276.936 260.544 276.936 261.536C276.936 262.56 277.96 263.392 279.752 263.392C281.544 263.392 282.568 262.56 282.568 261.536ZM275.688 251.328V248.256H283.752V251.328H275.688ZM272.264 255.744V252.672H286.76V255.744H272.264ZM294.088 272.16C294.088 270.752 291.528 269.856 287.496 269.856C283.432 269.856 280.968 270.752 280.968 272.16C280.968 273.6 283.432 274.432 287.496 274.432C291.528 274.432 294.088 273.6 294.088 272.16ZM286.216 261.536C286.216 264.416 283.72 266.432 279.752 266.432C275.816 266.432 273.32 264.416 273.32 261.536C273.32 258.656 275.816 256.672 279.752 256.672C283.72 256.672 286.216 258.656 286.216 261.536ZM297.992 266.688H294.216V258.88H291.752V265.696H288.072V247.616H291.752V255.648H294.216V247.072H297.992V266.688ZM298.152 272.128C298.152 275.52 294.088 277.472 287.528 277.472C280.904 277.472 276.84 275.52 276.84 272.128C276.84 268.8 280.904 266.816 287.528 266.816C294.088 266.816 298.152 268.8 298.152 272.128ZM320.229 254.08C320.229 252.224 317.733 251.008 313.733 251.008C309.797 251.008 307.269 252.224 307.269 254.08C307.269 255.872 309.797 257.056 313.733 257.056C317.733 257.056 320.229 255.872 320.229 254.08ZM324.261 276.608H303.525V267.936H307.493V273.472H324.261V276.608ZM316.005 270.752H312.037V265.248H300.037V262.08H327.429V265.248H316.005V270.752ZM324.325 254.016C324.325 257.568 320.389 260.16 313.765 260.16C307.077 260.16 303.205 257.568 303.205 254.016C303.205 250.56 307.077 247.968 313.733 247.968C320.389 247.968 324.325 250.56 324.325 254.016ZM341.603 250.368C336.899 250.368 333.827 251.616 333.827 254.08C333.827 256.512 336.867 257.76 341.571 257.76C346.275 257.76 349.379 256.512 349.379 254.08C349.379 251.616 346.307 250.368 341.603 250.368ZM351.939 254.048C351.939 257.856 348.067 259.936 341.571 259.936C335.075 259.936 331.235 257.856 331.235 254.048C331.235 250.304 335.107 248.224 341.603 248.224C348.067 248.224 351.939 250.304 351.939 254.048ZM351.971 276.256H331.683V267.584H334.275V274.08H351.971V276.256ZM355.011 264.8H328.131V262.624H355.011V264.8ZM380.297 259.872L380.585 262.048C377.545 262.624 371.849 263.168 366.665 263.168H364.841V249.44H378.505V251.616H367.433V260.928C371.433 260.96 376.841 260.608 380.297 259.872ZM385.097 274.528V268.064H371.209V274.528H385.097ZM387.657 264.352H385.065V256.832H376.713V254.656H385.065V247.36H387.657V264.352ZM387.689 276.672H368.617V265.952H387.689V276.672ZM393.031 273.952V270.912H395.943V273.952H393.031ZM393.319 268.16L392.935 249.216H396.007L395.623 268.16H393.319Z" fill="#202F57"/>
<path d="M346.128 52C343.658 52 341.158 51.53 338.728 50.52C323.048 44.05 306.328 40.78 289.008 40.78C271.688 40.78 254.968 44.06 239.288 50.52C229.108 54.72 217.538 49.65 213.438 39.2C209.348 28.75 214.288 16.88 224.468 12.68C244.888 4.27 266.598 0 289.008 0C311.418 0 333.128 4.27 353.538 12.69C363.718 16.89 368.658 28.76 364.568 39.21C361.448 47.17 353.998 52 346.128 52Z" fill="#3FAF4B"/>
<path d="M246.011 34.9789C246.721 34.7289 247.331 35.0189 247.531 35.5789C247.731 36.1389 247.441 36.7589 246.741 37.0089L237.311 40.3789C236.691 40.5989 236.111 40.3289 235.891 39.7089L229.991 23.2189C229.771 22.5989 230.041 22.0189 230.661 21.7989L239.921 18.4889C240.631 18.2389 241.241 18.5289 241.441 19.0889C241.641 19.6589 241.351 20.2689 240.651 20.5189L232.431 23.4589L234.531 29.3389L239.761 27.4689C240.471 27.2189 241.081 27.5089 241.281 28.0689C241.481 28.6289 241.191 29.2489 240.491 29.4989L235.261 31.3689L237.621 37.9789L246.011 34.9789Z" fill="white"/>
<path d="M256.181 14.9197C256.261 14.3497 256.521 13.9097 257.071 13.7697C257.651 13.6297 258.151 13.9097 258.311 14.5497C258.371 14.8097 258.391 15.1197 258.361 15.3697L256.221 33.7497C256.141 34.4197 255.841 34.8297 255.341 34.9497C254.841 35.0697 254.391 34.8397 254.001 34.2897L243.611 18.9797C243.461 18.7697 243.341 18.4897 243.271 18.2297C243.111 17.5897 243.431 17.1097 244.011 16.9697C244.561 16.8297 245.001 17.0997 245.331 17.5697L254.341 30.8997L256.171 14.9097L256.181 14.9197Z" fill="white"/>
<path d="M274.771 29.1299C275.511 29.0299 276.051 29.4399 276.141 30.0299C276.221 30.6199 275.811 31.1699 275.071 31.2699L265.141 32.6399C264.491 32.7299 263.981 32.3499 263.891 31.6899L261.491 14.3299C261.401 13.6799 261.781 13.1699 262.441 13.0799L272.191 11.7299C272.931 11.6299 273.481 12.0399 273.561 12.6299C273.641 13.2199 273.231 13.7699 272.491 13.8699L263.841 15.0699L264.691 21.2499L270.191 20.4899C270.931 20.3899 271.471 20.7999 271.561 21.3899C271.641 21.9799 271.231 22.5299 270.491 22.6299L264.991 23.3899L265.951 30.3399L274.781 29.1199L274.771 29.1299Z" fill="white"/>
<path d="M289.971 11.9598C289.961 11.1798 290.431 10.6898 291.061 10.6798C291.691 10.6698 292.181 11.1398 292.191 11.9198L292.521 29.6198C292.531 30.3398 292.091 30.8298 291.461 30.8398C291.011 30.8398 290.681 30.6198 290.431 30.2598L279.651 15.5198L279.921 29.7998C279.931 30.5798 279.461 31.0698 278.831 31.0798C278.201 31.0898 277.711 30.6198 277.701 29.8398L277.371 12.1398C277.361 11.4198 277.801 10.9298 278.431 10.9198C278.881 10.9198 279.211 11.1498 279.461 11.4998L290.241 26.2398L289.971 11.9598Z" fill="white"/>
<path d="M302.281 30.2395C302.211 31.0195 301.701 31.4495 301.071 31.3995C300.441 31.3495 300.001 30.8295 300.071 30.0495L301.461 13.5795L296.411 13.1495C295.661 13.0895 295.231 12.5695 295.281 11.9695C295.331 11.3695 295.851 10.9295 296.601 10.9995L308.911 12.0395C309.661 12.0995 310.101 12.6195 310.041 13.2195C309.991 13.8195 309.471 14.2595 308.721 14.1895L303.671 13.7595L302.281 30.2295V30.2395Z" fill="white"/>
<path d="M315.13 22.8583C316.38 17.4483 320.32 13.5583 325.23 14.6883C330.14 15.8183 331.98 21.0483 330.74 26.4583C329.49 31.8683 325.55 35.7583 320.64 34.6283C315.73 33.4983 313.89 28.2683 315.13 22.8583ZM327.17 25.6283C328.01 22.0083 327.09 18.7483 324.43 18.1383C321.8 17.5283 319.53 20.0583 318.69 23.6783C317.85 27.2983 318.79 30.5683 321.43 31.1783C324.09 31.7883 326.33 29.2583 327.17 25.6383V25.6283Z" fill="white"/>
<path d="M341.17 38.7091C340.76 39.8691 339.73 40.3291 338.8 39.9991C337.87 39.6691 337.371 38.6591 337.781 37.4991L338.48 35.5191L331.67 33.0991C330.71 32.7591 330.301 31.9391 330.641 30.9791C330.861 30.3591 331.361 29.8691 331.891 29.3491L340.49 20.9191C341.46 19.9891 342.15 19.6591 342.99 19.9591C343.92 20.2891 344.411 21.1591 344.091 22.0691C343.871 22.6891 343.31 23.1891 342.86 23.6391L339.41 26.9991C338.14 28.2391 336.68 29.5591 335.25 30.8091C336.45 31.1991 337.67 31.6091 338.63 31.9491L339.62 32.2991L340.55 29.6991C340.96 28.5391 341.99 28.0791 342.92 28.4091C343.85 28.7391 344.35 29.7491 343.94 30.9091L343.06 33.3991L344.19 33.7991C345.35 34.2091 345.781 35.2291 345.461 36.1291C345.131 37.0591 344.16 37.5491 343 37.1291L341.87 36.7291L341.17 38.7091Z" fill="white"/>
</svg>
