<svg width="163" height="34" viewBox="0 0 163 34" fill="none" xmlns="http://www.w3.org/2000/svg">
<path d="M32.7061 16.48H27.4501V33.76H24.1021V0.279999H27.4501V13.636H32.7061V16.48ZM21.3301 23.428L19.3501 25.948C16.1101 24.076 12.2941 19.9 11.2141 16.192C10.2061 20.008 6.85811 24.292 2.86211 26.776L0.666109 24.292C5.81411 21.34 9.45011 15.652 9.45011 9.316V6.544H1.92611V3.772H20.3581V6.544H12.9421V9.28C12.9421 15.76 16.5781 20.8 21.3301 23.428ZM49.5873 23.032L47.5353 25.408C45.0513 23.716 42.0993 19.972 41.0913 16.336C40.2993 20.044 37.4913 24.004 34.2153 26.272L32.0913 23.896C36.0513 21.376 39.4353 15.904 39.4353 9.172V3.448H42.7113V9.136C42.7113 15.58 45.8073 20.656 49.5873 23.032ZM54.5913 32.104H51.3513V14.932H46.0593V12.16H51.3513V1.036H54.5913V32.104ZM61.2153 33.76H57.9393V0.279999H61.2153V33.76ZM79.5725 19.9C79.5725 17.416 77.6285 15.652 75.0365 15.652C72.4445 15.652 70.5005 17.416 70.5005 19.9C70.5005 22.384 72.4085 24.112 75.0365 24.112C77.7725 24.112 79.5725 22.384 79.5725 19.9ZM82.9205 19.9C82.9205 23.86 79.7885 26.92 75.0365 26.92C70.2845 26.92 67.1165 23.932 67.1165 19.9C67.1165 15.976 70.2845 12.844 75.0365 12.844C79.7885 12.844 82.9205 15.904 82.9205 19.9ZM84.7565 10.972H64.9205V8.236H84.7565V10.972ZM79.6445 5.212H69.7805V2.44H79.6445V5.212ZM91.9565 33.76H88.5725V0.279999H91.9565V33.76ZM127.028 17.524V11.44H110.9V17.524H127.028ZM130.412 20.296H120.584V26.884H134.084V29.656H103.844V26.884H117.2V20.296H107.516V2.62H110.9V8.704H127.028V2.62H130.412V20.296ZM136.709 3.844H152.837C152.621 14.464 146.429 22.312 137.285 27.28L135.197 24.688C143.117 20.908 148.553 13.924 149.165 6.688H136.709V3.844ZM162.629 33.76H159.245V0.279999H162.629V33.76Z" fill="white"/>
</svg>
