<svg width="54" height="64" viewBox="0 0 54 64" fill="none" xmlns="http://www.w3.org/2000/svg">
<path d="M6.24234 14.67C6.24234 15.96 7.65234 16.86 9.30234 16.86C10.9523 16.86 12.3623 15.96 12.3623 14.67C12.3623 13.35 10.9523 12.42 9.30234 12.42C7.65234 12.42 6.24234 13.35 6.24234 14.67ZM24.0323 28.41H4.59234V20.91H8.34234V25.44H24.0323V28.41ZM23.3423 0.629999V9.84H27.3023V12.93H23.3423V21.75H19.6223V0.629999H23.3423ZM5.10234 4.41V1.56H13.5623V4.41H5.10234ZM16.0223 14.67C16.0223 17.7 13.1423 19.86 9.30234 19.86C5.43234 19.86 2.55234 17.7 2.55234 14.67C2.55234 11.67 5.40234 9.45 9.30234 9.45C13.1423 9.45 16.0223 11.67 16.0223 14.67ZM17.3723 8.64H0.872344V5.76H17.3723V8.64ZM40.95 20.67C37.11 20.67 34.83 21.66 34.83 23.4C34.83 25.05 37.11 26.04 40.95 26.04C44.88 26.04 47.13 25.05 47.13 23.4C47.13 21.66 44.88 20.67 40.95 20.67ZM42.72 10.44V7.44H46.98V0.629999H50.73V17.55H46.98V10.44H42.72ZM28.2 5.7V2.64H43.17V5.7H37.77C38.07 9.66 40.92 12.33 44.04 13.35C43.38 14.34 42.69 15.3 42 16.29C39.84 15.45 37.08 13.32 35.85 10.71C34.98 13.47 31.98 16.14 29.25 17.1L27.03 14.19C30.99 12.75 33.63 9.75 33.84 5.7H28.2ZM50.91 23.4C50.91 26.85 47.25 29.01 40.95 29.01C34.68 29.01 31.02 26.85 31.02 23.4C31.02 19.86 34.68 17.67 40.95 17.67C47.25 17.67 50.91 19.86 50.91 23.4ZM25.7423 44.65L24.1223 47.68C19.9223 47.05 15.3623 44.35 13.9823 41.2C12.7223 44.35 8.19234 47.02 3.87234 47.71L2.28234 44.65C7.20234 44.11 12.0023 40.96 12.0023 36.7V35.26H15.9623V36.7C15.9623 40.96 21.1823 44.23 25.7423 44.65ZM15.7523 63.1H12.0023V52.99H1.11234V50.05H26.7923V52.99H15.7523V63.1ZM40.02 55.06C36.27 55.06 34.11 56.11 34.11 57.61C34.11 59.11 36.27 60.13 40.02 60.13C43.8 60.13 45.9 59.11 45.9 57.61C45.9 56.11 43.8 55.06 40.02 55.06ZM53.1 44.71V47.74H49.41V51.79H45.66V34.63H49.41V38.56H53.1V41.59H49.41V44.71H53.1ZM43.53 49.66C41.07 50.23 35.85 50.62 32.01 50.62H28.2V41.86H37.08V39.1H28.08V36.16H40.83V44.65H31.95V47.65C35.49 47.65 40.86 47.41 43.05 46.81C43.2 47.74 43.35 48.7 43.53 49.66ZM49.77 57.61C49.77 60.97 46.2 63.07 40.02 63.07C33.84 63.07 30.27 60.97 30.27 57.61C30.27 54.28 33.84 52.12 40.02 52.12C46.2 52.12 49.77 54.28 49.77 57.61Z" fill="#452E00"/>
</svg>
