<svg width="90" height="74" viewBox="0 0 90 74" fill="none" xmlns="http://www.w3.org/2000/svg">
<path d="M27.8848 73.2207C22.123 73.2207 17.1751 71.7396 13.041 68.7773C8.9069 65.8151 5.73307 61.6159 3.51953 56.1797C1.30599 50.7109 0.199219 44.2493 0.199219 36.7949V36.6973C0.199219 29.2428 1.30599 22.7975 3.51953 17.3613C5.73307 11.8926 8.9069 7.69336 13.041 4.76367C17.1751 1.80143 22.123 0.320312 27.8848 0.320312C33.6139 0.320312 38.5456 1.80143 42.6797 4.76367C46.8464 7.69336 50.0365 11.8926 52.25 17.3613C54.4635 22.7975 55.5703 29.2428 55.5703 36.6973V36.7949C55.5703 44.2493 54.4635 50.7109 52.25 56.1797C50.0365 61.6159 46.8464 65.8151 42.6797 68.7773C38.5456 71.7396 33.6139 73.2207 27.8848 73.2207ZM27.8848 62.918C31.0423 62.918 33.7441 61.8763 35.9902 59.793C38.2363 57.7096 39.9453 54.7148 41.1172 50.8086C42.2891 46.9023 42.875 42.2311 42.875 36.7949V36.6973C42.875 31.2611 42.2891 26.6061 41.1172 22.7324C39.9453 18.8262 38.2363 15.8477 35.9902 13.7969C33.7441 11.7135 31.0423 10.6719 27.8848 10.6719C24.6947 10.6719 21.9766 11.7135 19.7305 13.7969C17.5169 15.8477 15.8242 18.8262 14.6523 22.7324C13.4805 26.6061 12.8945 31.2611 12.8945 36.6973V36.7949C12.8945 42.2311 13.4805 46.9023 14.6523 50.8086C15.8242 54.7148 17.5169 57.7096 19.7305 59.793C21.9766 61.8763 24.6947 62.918 27.8848 62.918ZM77.084 72V13.5039H76.791L58.5781 26.0039V14.4805L76.9863 1.54102H89.4375V72H77.084Z" fill="white"/>
</svg>
