<svg width="220" height="119" viewBox="0 0 220 119" fill="none" xmlns="http://www.w3.org/2000/svg">
<path d="M209.666 59.1713H218L201.549 20L193.532 20.01C194.004 21.3563 193.18 23.9684 192.296 26.2489L179.08 59.1713H183.721L189.553 44.8752H203.849L209.671 59.1713H209.666ZM190.879 41.6L196.696 27.334L202.508 41.6H190.879Z" fill="black"/>
<path d="M92.1473 40.7008V37.8928H75.3345V22.808H94.3576V20L66.2977 20.01C66.2977 20.01 67.1416 21.4919 67.1416 25.5859V59.1814H94.885V56.3784H75.3295V40.7008H92.1473Z" fill="black"/>
<path d="M28.3419 37.8926H11.0368V20.0098H2C2 20.0098 2.84391 21.4917 2.84391 25.5856V59.1812H11.0368V41.0372H28.3419V59.1812H36.5349V20.0098H28.3419V37.8926Z" fill="black"/>
<path d="M142.706 39.8469C144.444 39.2943 146.233 38.4705 147.921 37.2097C153.974 32.6887 152.462 24.9831 148.453 22.4313C145.871 20.7887 143.324 20 138.261 20H122.227C122.227 20 123.071 21.4819 123.071 25.5758V59.1713H131.284V40.8666H133.449C133.569 40.8666 133.71 40.8666 133.866 40.8716C136.302 41.0324 137.633 41.7507 139.708 44.4331L149.9 59.1713H158.243C158.243 59.1713 147.353 44.0363 146.449 42.8659C145.675 41.8562 144.444 40.3693 142.711 39.8469M133.162 38.0988H131.284V22.7377H133.052C135.945 22.7377 140.175 22.7728 142.345 26.0078C144.409 29.0871 143.721 32.6837 142.199 34.7382C140.315 37.29 138.211 38.0938 133.162 38.0938" fill="black"/>
<path d="M96.891 102.36H92.603C91.803 102.36 91.291 101.848 91.291 101.208C91.291 100.568 91.803 100.056 92.603 100.056H98.075C98.779 100.056 99.259 100.536 99.259 101.24V103.064C99.259 107.192 96.315 111.384 90.971 111.384C85.179 111.384 81.787 106.392 81.787 100.472C81.787 94.552 85.179 89.56 90.971 89.56C93.659 89.56 95.771 90.648 97.211 92.184C97.467 92.472 97.659 92.824 97.659 93.24C97.659 93.944 97.179 94.36 96.603 94.36C96.155 94.36 95.803 94.136 95.451 93.784C94.299 92.6 92.859 91.864 90.971 91.864C86.683 91.864 84.155 95.704 84.155 100.472C84.155 105.24 86.683 109.08 90.971 109.08C94.587 109.08 96.891 106.296 96.891 103.032V102.36ZM103.881 111.224C103.209 111.224 102.697 110.712 102.697 109.88V91.064C102.697 90.232 103.209 89.72 103.881 89.72C104.553 89.72 105.065 90.232 105.065 91.064V109.88C105.065 110.712 104.553 111.224 103.881 111.224ZM111.508 101.56V109.88C111.508 110.712 110.996 111.224 110.324 111.224C109.652 111.224 109.14 110.712 109.14 109.88V91.128C109.14 90.424 109.62 89.944 110.324 89.944H120.82C121.62 89.944 122.132 90.456 122.132 91.096C122.132 91.736 121.62 92.248 120.82 92.248H111.508V99.256H117.428C118.228 99.256 118.74 99.768 118.74 100.408C118.74 101.048 118.228 101.56 117.428 101.56H111.508ZM131.319 92.248V109.88C131.319 110.712 130.807 111.224 130.135 111.224C129.463 111.224 128.951 110.712 128.951 109.88V92.248H123.543C122.743 92.248 122.231 91.736 122.231 91.096C122.231 90.456 122.743 89.944 123.543 89.944H136.727C137.527 89.944 138.039 90.456 138.039 91.096C138.039 91.736 137.527 92.248 136.727 92.248H131.319Z" fill="black"/>
</svg>
