<svg width="180" height="180" viewBox="0 0 180 180" fill="none" xmlns="http://www.w3.org/2000/svg">
<path d="M99.7784 5.72978L102.804 11.1467C105.886 16.657 112.891 18.5249 118.327 15.3121L123.669 12.1367C131.196 7.65371 140.723 13.164 140.611 21.9245L140.517 28.1259C140.424 34.4394 145.561 39.5761 151.874 39.4827L158.076 39.3893C166.836 39.2772 172.346 48.8035 167.863 56.3311L164.688 61.6733C161.456 67.0902 163.343 74.1135 168.853 77.1956L174.27 80.2215C181.91 84.499 181.91 95.501 174.27 99.7784L168.853 102.804C163.343 105.886 161.475 112.891 164.688 118.327L167.863 123.669C172.346 131.196 166.836 140.723 158.076 140.611L151.874 140.517C145.561 140.424 140.424 145.561 140.517 151.874L140.611 158.076C140.723 166.836 131.196 172.346 123.669 167.863L118.327 164.688C112.91 161.456 105.886 163.343 102.804 168.853L99.7784 174.27C95.501 181.91 84.499 181.91 80.2215 174.27L77.1956 168.853C74.1135 163.343 67.1089 161.475 61.6733 164.688L56.3311 167.863C48.8035 172.346 39.2772 166.836 39.3893 158.076L39.4827 151.874C39.5761 145.561 34.4394 140.424 28.1259 140.517L21.9245 140.611C13.164 140.723 7.65371 131.196 12.1367 123.669L15.3121 118.327C18.5436 112.91 16.657 105.886 11.1467 102.804L5.72978 99.7784C-1.90993 95.501 -1.90993 84.499 5.72978 80.2215L11.1467 77.1956C16.657 74.1135 18.5249 67.1089 15.3121 61.6733L12.1367 56.3311C7.65371 48.8035 13.164 39.2772 21.9245 39.3893L28.1259 39.4827C34.4394 39.5761 39.5761 34.4394 39.4827 28.1259L39.3893 21.9245C39.2772 13.164 48.8035 7.65371 56.3311 12.1367L61.6733 15.3121C67.0902 18.5436 74.1135 16.657 77.1956 11.1467L80.2215 5.72978C84.499 -1.90993 95.501 -1.90993 99.7784 5.72978Z" fill="#E74723"/>
<path d="M51.4294 59.53V56.59H59.6494V59.53H51.4294ZM70.5994 74.47H66.8794V67.66H62.5594V64.66H66.8794V55.63H70.5994V74.47ZM72.0394 81.46C71.4694 82.45 70.8694 83.38 70.2994 84.37C66.5494 83.71 62.4394 81.25 61.0594 78.67C59.8294 81.28 55.8094 83.68 51.7894 84.37C51.2194 83.35 50.6194 82.39 50.0494 81.37C54.9994 80.8 59.1994 78.07 59.1994 74.17V73.48H63.0394V74.17C63.0394 78.07 67.2694 80.65 72.0394 81.46ZM48.0394 64.03V61.06H62.9794V64.03H57.5494C58.1194 67.36 60.8494 69.13 63.7294 69.94L61.8694 72.85C59.6794 72.13 56.7094 70.21 55.5394 67.78C54.5794 70.33 51.6994 72.76 48.8794 73.63C48.2194 72.7 47.5294 71.71 46.8394 70.78C50.4094 69.58 52.9894 67.42 53.4694 64.03H48.0394ZM83.2653 57.16H102.525C102.525 61.78 102.225 66.04 101.595 69.31H105.795V72.25H94.7553V84.07H91.0353V72.25H80.1153V69.31H98.0553C98.5653 66.85 98.8053 63.64 98.8053 60.16H83.2653V57.16ZM115.093 73.81V61.93H110.593V73.81H115.093ZM130.393 84.07H126.823V69.82H124.543V82.75H121.033V56.14H124.543V66.82H126.823V55.63H130.393V84.07ZM118.603 59.05V76.66H107.083V59.05H118.603ZM39.1906 109.67C39.1906 110.96 40.6006 111.86 42.2506 111.86C43.9006 111.86 45.3106 110.96 45.3106 109.67C45.3106 108.35 43.9006 107.42 42.2506 107.42C40.6006 107.42 39.1906 108.35 39.1906 109.67ZM56.9806 123.41H37.5406V115.91H41.2906V120.44H56.9806V123.41ZM56.2906 95.63V104.84H60.2506V107.93H56.2906V116.75H52.5706V95.63H56.2906ZM38.0506 99.41V96.56H46.5106V99.41H38.0506ZM48.9706 109.67C48.9706 112.7 46.0906 114.86 42.2506 114.86C38.3806 114.86 35.5006 112.7 35.5006 109.67C35.5006 106.67 38.3506 104.45 42.2506 104.45C46.0906 104.45 48.9706 106.67 48.9706 109.67ZM50.3206 103.64H33.8206V100.76H50.3206V103.64ZM73.8982 115.67C70.0582 115.67 67.7782 116.66 67.7782 118.4C67.7782 120.05 70.0582 121.04 73.8982 121.04C77.8282 121.04 80.0782 120.05 80.0782 118.4C80.0782 116.66 77.8282 115.67 73.8982 115.67ZM75.6682 105.44V102.44H79.9282V95.63H83.6782V112.55H79.9282V105.44H75.6682ZM61.1482 100.7V97.64H76.1182V100.7H70.7182C71.0182 104.66 73.8682 107.33 76.9882 108.35C76.3282 109.34 75.6382 110.3 74.9482 111.29C72.7882 110.45 70.0282 108.32 68.7982 105.71C67.9282 108.47 64.9282 111.14 62.1982 112.1L59.9782 109.19C63.9382 107.75 66.5782 104.75 66.7882 100.7H61.1482ZM83.8582 118.4C83.8582 121.85 80.1982 124.01 73.8982 124.01C67.6282 124.01 63.9682 121.85 63.9682 118.4C63.9682 114.86 67.6282 112.67 73.8982 112.67C80.1982 112.67 83.8582 114.86 83.8582 118.4ZM102.134 112.28C102.134 110.6 101.114 109.4 99.4641 109.4C97.8141 109.4 96.8241 110.57 96.8241 112.28C96.8241 113.96 97.8141 115.13 99.4641 115.13C101.114 115.13 102.134 113.9 102.134 112.28ZM105.464 112.28C105.464 115.7 103.154 118.07 99.4641 118.07C95.8341 118.07 93.4641 115.55 93.4641 112.28C93.4641 108.77 95.8641 106.46 99.4641 106.46C103.154 106.46 105.464 108.83 105.464 112.28ZM106.154 105.38H92.8041V102.44H106.154V105.38ZM103.274 100.79H96.1341V97.85H103.274V100.79ZM111.854 122.75H108.374V114.65H105.764V111.74H108.374V108.62H105.674V105.71H108.374V96.17H111.854V122.75ZM117.344 124.07H113.804V95.63H117.344V124.07ZM143.442 112.64H139.872V105.53H137.442V112.37H133.932V96.14H137.442V102.53H139.872V95.63H143.442V112.64ZM123.912 106.01V108.71C126.012 108.8 130.392 108.5 132.222 108.05L132.492 110.9C130.452 111.41 126.342 111.65 122.772 111.65H120.222V97.67H131.322V100.64H123.912V103.1H131.052V106.01H123.912ZM123.522 113.99H143.442V124.1H139.722V116.96H123.522V113.99Z" fill="white"/>
</svg>
