<svg width="242" height="79" viewBox="0 0 242 79" fill="none" xmlns="http://www.w3.org/2000/svg">
<path d="M6.24 26.44V6.184L2.016 7.176V5.608L7.424 3.08H8.832V26.44H6.24ZM18.7927 26.696C16.1367 26.696 13.7687 25.96 12.3927 24.968L12.9047 22.792C14.1527 23.624 16.3927 24.424 18.2807 24.424C21.8968 24.424 24.0087 22.376 24.0087 19.144C24.0087 15.656 21.9608 14.28 18.3767 14.28C16.8087 14.28 14.6647 14.92 13.6087 15.4L14.4407 3.432H25.9928V5.736H16.6167L16.1367 12.68C17.0647 12.424 18.4408 12.2 19.4008 12.2C24.0087 12.2 26.8247 14.376 26.8247 19.176C26.8247 23.272 23.8168 26.696 18.7927 26.696ZM52.0807 29.096H32.3047V19.944H34.8967V26.952H52.0807V29.096ZM55.4727 11.4H50.9288V21.96H48.3368V0.359999H50.9288V9.224H55.4727V11.4ZM40.5927 14.6V5.128H31.6647V14.6H40.5927ZM43.1847 16.776H29.0727V2.984H43.1847V16.776ZM66.8303 22.024H64.2383V16.616C61.4223 16.744 58.4463 16.84 55.9823 16.84L55.5663 14.632C58.6383 14.664 62.2543 14.632 65.4863 14.504C68.8143 14.376 72.0463 14.088 74.9263 13.768L75.1503 15.784C73.2623 16.04 69.9663 16.264 66.8303 16.456V22.024ZM70.6703 7.272C70.6703 5.256 68.5263 3.88 65.3263 3.88C62.1263 3.88 59.9503 5.224 59.9503 7.272C59.9503 9.288 62.1263 10.6 65.3263 10.6C68.5263 10.6 70.6703 9.288 70.6703 7.272ZM80.9423 29.384H59.6623V20.776H62.2543V27.208H80.9423V29.384ZM80.3343 23.24H77.7423V20.008H71.5023V17.96H77.7423V0.359999H80.3343V23.24ZM73.2303 7.272C73.2303 10.664 69.9343 12.712 65.3263 12.712C60.7183 12.712 57.3583 10.696 57.3583 7.24C57.3583 3.88 60.7183 1.736 65.3263 1.736C69.9343 1.736 73.2303 3.88 73.2303 7.272ZM104.981 13.128C104.981 8.232 102.933 4.84 99.7645 4.84C96.6285 4.84 94.5485 8.232 94.5485 13.128C94.5485 17.992 96.6285 21.384 99.7645 21.384C102.933 21.384 104.981 17.992 104.981 13.128ZM92.0845 13.096C92.0845 6.824 94.8685 2.6 99.7645 2.6C104.693 2.6 107.444 6.824 107.444 13.128C107.444 19.432 104.693 23.624 99.7645 23.624C94.8685 23.624 92.0845 19.432 92.0845 13.096ZM115.573 30.12H112.981V0.359999H115.573V30.12ZM146.354 10.6H141.81V18.696H139.218V0.359999H141.81V8.424H146.354V10.6ZM132.21 20.808C127.73 20.808 124.946 22.12 124.946 24.392C124.946 26.664 127.73 27.944 132.21 27.944C136.754 27.944 139.57 26.664 139.57 24.392C139.57 22.12 136.754 20.808 132.21 20.808ZM142.226 24.392C142.226 27.912 138.482 30.088 132.21 30.088C126.002 30.088 122.29 27.912 122.29 24.392C122.29 20.84 126.002 18.664 132.21 18.664C138.482 18.664 142.226 20.84 142.226 24.392ZM135.762 14.088L134.226 16.136C131.378 14.76 128.434 12.2 127.25 9.192C126.322 12.36 123.314 15.336 119.826 17.128L118.386 15.112C122.642 13.128 125.842 9.384 125.842 4.648V1.768H128.466V4.552C128.466 9.288 132.402 12.904 135.762 14.088ZM157.304 2.568H177.496C177.496 6.6 177.4 11.144 176.408 15.752H181.016V17.928H168.856V30.12H166.264V17.928H154.136V15.752H173.816C174.648 12.552 174.808 7.624 174.808 4.712H157.304V2.568ZM192.246 20.008V5.768H185.494V20.008H192.246ZM207.094 30.12H204.534V14.408H200.886V28.616H198.358V1.064H200.886V12.232H204.534V0.359999H207.094V30.12ZM194.774 22.152H182.966V3.624H194.774V22.152ZM235.292 20.968L233.66 22.952C230.972 21.128 227.484 17.448 226.332 13.864C225.244 17.576 222.172 21.224 218.716 23.688L217.02 21.736C221.372 19.016 224.956 13.608 224.956 8.328V2.952H227.58V8.232C227.58 13.672 231.196 18.536 235.292 20.968ZM241.692 30.12H239.1V0.359999H241.692V30.12ZM19.072 62.76L16.8 65.864C14.496 65 11.328 62.28 10.016 59.464C9.088 62.536 5.824 65.704 2.976 66.664L0.608 63.496C5.024 61.864 7.904 57.928 7.904 53.384V49.8H12.064V53.192C12.064 57.8 15.52 61.608 19.072 62.76ZM26.752 77.608H6.112V68.072H10.08V74.44H26.752V77.608ZM26.112 70.088H22.112V58.248H16.928V55.048H22.112V48.072H26.112V70.088ZM56.0295 75.624L54.1735 78.76C50.1095 77.992 45.7255 75.304 44.2535 72.488C42.8775 75.368 38.5255 77.992 34.2375 78.76L32.3815 75.528C37.6295 74.92 42.2695 71.848 42.2695 67.656V66.824H46.3335V67.656C46.3335 71.88 50.9415 74.76 56.0295 75.624ZM44.1255 62.344L42.1415 65.224C40.1255 64.36 37.4055 61.928 36.6055 59.976C35.8055 62.312 33.3415 65.16 30.7815 66.408L28.5735 63.624C32.2855 61.608 34.5895 58.088 34.5895 53.8V50.312H38.4295V53.704C38.4295 57.928 40.9895 60.872 44.1255 62.344ZM48.7655 65.544H45.0535V57.896H41.5655V54.728H45.0535V48.616H48.7655V65.544ZM54.6535 67.848H50.8455V48.072H54.6535V67.848ZM84.0358 58.376V52.424H71.5558V58.376H84.0358ZM79.6838 78.44H75.7158V68.36H64.0678V65.192H91.4598V68.36H79.6838V78.44ZM88.0038 49.288V61.544H67.5558V49.288H88.0038ZM116.129 64.872H95.3932V50.632H115.873V53.832H99.3612V61.704H116.129V64.872ZM119.297 71.272V74.44H91.9052V71.272H119.297ZM139.935 72.68C139.935 71.08 137.375 70.152 133.439 70.152C129.503 70.152 126.975 71.08 126.975 72.68C126.975 74.216 129.503 75.144 133.439 75.144C137.375 75.144 139.935 74.216 139.935 72.68ZM143.999 72.648C143.999 76.136 140.159 78.28 133.471 78.28C126.751 78.28 122.911 76.136 122.911 72.648C122.911 69.16 126.751 66.984 133.439 66.984C140.159 66.984 143.999 69.16 143.999 72.648ZM143.935 59.528H123.391V48.968H143.711V52.168H127.359V56.36H143.935V59.528ZM147.135 61.928V65.096H119.743V61.928H147.135ZM175.173 72.808C175.173 71.272 172.613 70.312 168.645 70.312C164.709 70.312 162.149 71.272 162.149 72.808C162.149 74.344 164.709 75.272 168.645 75.272C172.613 75.272 175.173 74.344 175.173 72.808ZM182.341 62.568V65.704H154.949V62.568H182.341ZM180.965 57.736L179.269 60.872C174.821 60.52 170.405 58.152 168.677 55.24C167.141 58.248 162.853 60.488 158.053 60.872L156.421 57.8C161.125 57.576 165.253 55.656 166.309 52.584H157.765V49.416H179.621V52.584H171.109C172.325 55.656 176.901 57.544 180.965 57.736ZM179.237 72.776C179.237 76.264 175.365 78.408 168.677 78.408C161.925 78.408 158.053 76.264 158.053 72.776C158.053 69.32 161.925 67.176 168.645 67.176C175.365 67.176 179.237 69.32 179.237 72.776ZM197.442 69.448C193.346 69.448 190.914 70.504 190.914 72.36C190.914 74.12 193.346 75.176 197.442 75.176C201.634 75.176 204.034 74.12 204.034 72.36C204.034 70.504 201.634 69.448 197.442 69.448ZM199.33 58.536V55.336H203.874V48.072H207.874V66.12H203.874V58.536H199.33ZM183.842 53.48V50.216H199.81V53.48H194.05C194.37 57.704 197.41 60.552 200.738 61.64C200.034 62.696 199.298 63.72 198.562 64.776C196.258 63.88 193.314 61.608 192.002 58.824C191.074 61.768 187.874 64.616 184.962 65.64L182.594 62.536C186.818 61 189.634 57.8 189.858 53.48H183.842ZM208.066 72.36C208.066 76.04 204.162 78.344 197.442 78.344C190.754 78.344 186.85 76.04 186.85 72.36C186.85 68.584 190.754 66.248 197.442 66.248C204.162 66.248 208.066 68.584 208.066 72.36Z" fill="white"/>
</svg>
