<svg width="570" height="708" viewBox="0 0 570 708" fill="none" xmlns="http://www.w3.org/2000/svg">
<path d="M48.894 47.388L41.05 26.076L33.132 47.388H48.894ZM50.892 52.716H31.208L27.286 63.298C26.768 64.63 25.88 65.518 24.474 65.518C22.994 65.518 21.958 64.556 21.958 62.928C21.958 62.262 22.106 61.522 22.328 60.93L38.238 18.158C38.83 16.604 39.792 15.79 41.05 15.79C42.308 15.79 43.27 16.604 43.862 18.158L59.7721 60.93C59.994 61.522 60.1421 62.262 60.1421 62.928C60.1421 64.556 59.1061 65.518 57.626 65.518C56.22 65.518 55.332 64.63 54.814 63.298L50.892 52.716ZM98.0301 48.35L113.57 17.936C114.31 16.456 115.272 15.79 116.382 15.79C117.862 15.79 119.046 16.9 119.046 18.676V62.41C119.046 64.334 117.862 65.518 116.308 65.518C114.754 65.518 113.57 64.334 113.57 62.41V29.924L100.768 54.936C100.028 56.342 99.1401 57.008 98.0301 57.008C96.9201 57.008 96.032 56.342 95.2921 54.936L82.49 29.924V62.41C82.49 64.334 81.306 65.518 79.752 65.518C78.198 65.518 77.014 64.334 77.014 62.41V18.676C77.014 16.9 78.198 15.79 79.678 15.79C80.788 15.79 81.75 16.456 82.49 17.936L98.0301 48.35ZM147.072 60.56C156.988 60.56 162.834 51.68 162.834 40.654C162.834 29.628 156.988 20.748 147.072 20.748C137.156 20.748 131.31 29.628 131.31 40.654C131.31 51.68 137.156 60.56 147.072 60.56ZM147.072 65.888C133.678 65.888 125.834 54.344 125.834 40.654C125.834 26.964 133.678 15.42 147.072 15.42C160.466 15.42 168.31 26.964 168.31 40.654C168.31 54.344 160.466 65.888 147.072 65.888ZM180.595 39.396H192.065C198.725 39.396 202.425 36.066 202.425 30.516C202.425 24.892 198.725 21.636 192.065 21.636H180.595V39.396ZM180.595 44.724V62.41C180.595 64.334 179.411 65.518 177.857 65.518C176.303 65.518 175.119 64.334 175.119 62.41V19.046C175.119 17.418 176.229 16.308 177.857 16.308H192.065C201.685 16.308 207.901 22.006 207.901 30.516C207.901 36.288 204.867 41.838 197.689 43.91L207.383 60.412C207.827 61.152 208.271 61.966 208.271 63.002C208.271 64.556 207.235 65.518 205.755 65.518C204.201 65.518 203.461 64.556 202.721 63.298L191.917 44.724H180.595ZM219.783 59.672H241.761C243.611 59.672 244.795 60.856 244.795 62.336C244.795 63.816 243.611 65 241.761 65H217.045C215.417 65 214.307 63.89 214.307 62.262V19.046C214.307 17.418 215.417 16.308 217.045 16.308H241.317C243.167 16.308 244.351 17.492 244.351 18.972C244.351 20.452 243.167 21.636 241.317 21.636H219.783V37.028H233.473C235.323 37.028 236.507 38.212 236.507 39.692C236.507 41.172 235.323 42.356 233.473 42.356H219.783V59.672Z" fill="#161D30"/>
<path d="M270.768 39.248H279.204C284.384 39.248 287.492 36.806 287.492 32.144C287.492 27.482 284.384 25.04 279.204 25.04H270.768V39.248ZM270.768 47.832V60.634C270.768 63.742 268.77 65.666 266.254 65.666C263.738 65.666 261.74 63.742 261.74 60.634V20.822C261.74 18.084 263.516 16.308 266.254 16.308H279.204C290.156 16.308 296.594 22.746 296.594 32.07C296.594 41.394 290.156 47.832 279.204 47.832H270.768ZM319.226 46.87C317.376 41.912 315.304 36.362 313.528 30.96C311.752 36.362 309.68 41.912 307.83 46.87H319.226ZM322.556 55.454H304.5L302.132 61.596C301.096 64.186 299.764 65.666 297.47 65.666C294.954 65.666 293.104 63.964 293.104 61.374C293.104 59.82 293.77 58.118 294.288 56.786L308.94 19.49C309.976 16.9 311.382 15.642 313.528 15.642C315.674 15.642 317.08 16.9 318.116 19.49L332.768 56.786C333.286 58.118 333.952 59.82 333.952 61.374C333.952 63.964 332.102 65.666 329.586 65.666C327.292 65.666 325.96 64.186 324.924 61.596L322.556 55.454ZM346.454 37.546C348.674 33.032 350.746 28.888 352.522 25.558L355.482 19.86C356.888 17.122 358.22 15.642 360.514 15.642C363.104 15.642 364.88 17.418 364.88 19.934C364.88 21.488 364.214 22.746 363.474 24.078L350.968 47.018V60.634C350.968 63.742 348.97 65.666 346.454 65.666C343.938 65.666 341.94 63.742 341.94 60.634V47.018L329.434 24.078C328.694 22.746 328.028 21.488 328.028 19.934C328.028 17.418 329.804 15.642 332.394 15.642C334.688 15.642 336.02 17.122 337.426 19.86L340.386 25.558C342.162 28.888 344.234 33.032 346.454 37.546ZM377.854 35.696H385.18C389.842 35.696 392.58 33.92 392.58 30.368C392.58 26.816 389.842 25.04 385.18 25.04H377.854V35.696ZM395.096 39.692C399.98 40.95 403.976 44.502 403.976 51.532C403.976 59.82 398.426 65 386.068 65H373.34C370.602 65 368.826 63.224 368.826 60.486V20.822C368.826 18.084 370.602 16.308 373.34 16.308H384.736C395.91 16.308 401.904 21.636 401.904 29.702C401.904 35.104 399.166 38.212 395.096 39.692ZM377.854 56.268H386.142C391.322 56.268 394.504 54.492 394.504 50.274C394.504 46.056 391.322 44.28 386.142 44.28H377.854V56.268ZM431.226 46.87C429.376 41.912 427.304 36.362 425.528 30.96C423.752 36.362 421.68 41.912 419.83 46.87H431.226ZM434.556 55.454H416.5L414.132 61.596C413.096 64.186 411.764 65.666 409.47 65.666C406.954 65.666 405.104 63.964 405.104 61.374C405.104 59.82 405.77 58.118 406.288 56.786L420.94 19.49C421.976 16.9 423.382 15.642 425.528 15.642C427.674 15.642 429.08 16.9 430.116 19.49L444.768 56.786C445.286 58.118 445.952 59.82 445.952 61.374C445.952 63.964 444.102 65.666 441.586 65.666C439.292 65.666 437.96 64.186 436.924 61.596L434.556 55.454ZM469.43 65.888C455.148 65.888 446.934 54.344 446.934 40.654C446.934 26.964 455.148 15.42 469.43 15.42C476.164 15.42 481.418 18.01 484.082 21.118C485.192 22.376 485.858 23.708 485.858 25.188C485.858 27.408 484.23 29.332 481.788 29.332C479.716 29.332 478.458 28 476.46 26.52C475.128 25.558 472.982 24.152 469.282 24.152C460.994 24.152 456.036 31.404 456.036 40.654C456.036 49.904 460.994 57.156 469.282 57.156C472.982 57.156 475.128 55.75 476.46 54.788C478.458 53.308 479.716 51.976 481.788 51.976C484.23 51.976 485.858 53.9 485.858 56.12C485.858 57.6 485.192 58.932 484.082 60.19C481.418 63.298 476.164 65.888 469.43 65.888ZM500.044 50.792V60.634C500.044 63.742 498.046 65.666 495.53 65.666C493.014 65.666 491.016 63.742 491.016 60.634V20.674C491.016 17.566 493.014 15.642 495.53 15.642C498.046 15.642 500.044 17.566 500.044 20.674V38.508C503.818 33.994 508.036 29.036 512.106 24.596L517.952 18.306C519.284 16.9 520.764 15.642 522.688 15.642C524.982 15.642 526.832 17.344 526.832 19.712C526.832 21.488 525.796 22.968 524.316 24.522L513.882 35.77L527.128 57.748C527.794 58.858 528.312 60.264 528.312 61.596C528.312 64.186 526.24 65.666 524.02 65.666C521.726 65.666 520.394 64.112 519.21 62.114L507.518 42.726L500.044 50.792ZM539.231 50.644C536.789 50.644 534.865 48.794 534.865 45.76V20.526C534.865 17.492 536.789 15.642 539.231 15.642C541.673 15.642 543.597 17.492 543.597 20.526V45.76C543.597 48.794 541.673 50.644 539.231 50.644ZM539.231 65.666C536.271 65.666 533.903 63.224 533.903 60.264C533.903 57.304 536.271 54.862 539.231 54.862C542.191 54.862 544.559 57.304 544.559 60.264C544.559 63.224 542.191 65.666 539.231 65.666Z" fill="#E74723"/>
<path d="M98.2191 109.68V106.544H107.275V109.68H98.2191ZM112.171 125.904L112.459 128.944C106.955 129.68 98.7631 130 93.0671 130L92.4911 126.768C95.2751 126.768 98.0591 126.768 100.747 126.704V121.712H104.747V126.544C107.467 126.416 109.995 126.192 112.171 125.904ZM117.739 105.072V135.408H113.739V105.072H117.739ZM94.3151 114.48V111.344H110.859V114.48H104.875C105.515 117.072 108.811 119.248 111.755 119.6L109.931 122.768C107.371 122.224 104.107 120.016 102.827 117.84C101.675 120.4 98.4111 122.832 95.3071 123.6L93.3551 120.528C96.9711 119.728 100.107 117.328 100.651 114.48H94.3151ZM146.057 135.408H142.249V120.208H139.561V134H135.817V105.616H139.561V117.04H142.249V105.072H146.057V135.408ZM125.129 111.824V124.976C128.233 125.072 131.881 124.784 133.897 124.272L134.281 127.408C132.009 128.016 127.561 128.24 124.041 128.24H121.161V108.688H132.617V111.856C130.121 111.856 127.657 111.824 125.129 111.824ZM159.823 131.472V112.272L155.887 113.04V110.608L161.839 107.952H164.047V131.472H159.823ZM174.089 131.664C171.433 131.664 168.969 130.992 167.465 130.064L168.201 126.864C169.481 127.6 171.241 128.272 173.033 128.272C176.297 128.272 178.249 126.704 178.249 123.888C178.249 120.912 176.425 119.696 173.225 119.696C171.753 119.696 169.577 120.4 168.489 120.944L169.353 108.112H181.513V111.376H172.521L172.105 117.072C172.873 116.848 174.153 116.656 175.017 116.656C179.689 116.656 182.569 119.024 182.569 123.984C182.569 128.304 179.401 131.664 174.089 131.664ZM204.753 129.328C206.353 129.328 207.121 128.304 207.121 125.616V124.848C207.121 122.224 206.289 121.104 204.753 121.104C203.185 121.104 202.417 122.192 202.417 124.816V125.584C202.417 128.272 203.153 129.328 204.753 129.328ZM204.753 131.76C201.265 131.76 198.929 129.488 198.929 125.552V125.072C198.929 121.168 201.297 118.704 204.753 118.704C208.177 118.704 210.577 120.976 210.577 124.848V125.36C210.577 129.264 208.241 131.76 204.753 131.76ZM188.753 118.448C190.385 118.448 191.153 117.36 191.153 114.672V113.936C191.153 111.344 190.321 110.16 188.753 110.16C187.217 110.16 186.417 111.312 186.417 113.904V114.64C186.417 117.36 187.185 118.448 188.753 118.448ZM188.753 120.88C185.265 120.88 182.993 118.576 182.993 114.64V114.192C182.993 110.256 185.297 107.76 188.753 107.76C192.177 107.76 194.545 110.032 194.545 113.936V114.448C194.545 118.352 192.241 120.88 188.753 120.88ZM187.057 132.784L202.993 107.504H206.097L190.161 132.784H187.057ZM231.885 119.888C231.885 117.904 229.741 116.72 227.341 116.72C224.941 116.72 222.797 117.904 222.797 119.888C222.797 121.84 224.941 123.024 227.341 123.024C229.741 123.024 231.885 121.84 231.885 119.888ZM234.349 119.888C234.349 123.024 231.341 125.104 227.341 125.104C223.373 125.104 220.333 123.024 220.333 119.888C220.333 116.688 223.341 114.672 227.341 114.672C231.341 114.672 234.349 116.688 234.349 119.888ZM236.045 113.072H218.605V110.928H236.045V113.072ZM231.437 108.688H222.861V106.416H231.437V108.688ZM242.765 134.16H222.957V126.512H225.549V131.984H242.765V134.16ZM246.157 117.616H241.613V127.312H239.021V105.36H241.613V115.44H246.157V117.616ZM266.291 120.304V114.896H257.683V120.304H266.291ZM268.883 122.448H255.091V107.344H257.683V112.752H266.291V107.344H268.883V122.448ZM278.995 134.128H258.963V125.072H261.555V131.984H278.995V134.128ZM275.667 116.048H270.451V113.872H275.667V105.36H278.259V127.024H275.667V116.048ZM306.362 124.56L306.65 126.8C303.354 127.408 297.754 127.824 292.442 127.728L290.394 127.696V108.304H304.41V110.48H292.986V125.488C297.402 125.648 303.066 125.2 306.362 124.56ZM313.434 135.12H310.842V118.416H302.074V116.208H310.842V105.36H313.434V135.12ZM337.792 127.216C332.992 127.216 330.016 128.336 330.016 130.16C330.016 132.016 332.992 133.072 337.792 133.072C342.624 133.072 345.6 132.016 345.6 130.16C345.6 128.336 342.624 127.216 337.792 127.216ZM348.224 130.16C348.224 133.36 344.576 135.184 337.792 135.184C331.008 135.184 327.392 133.296 327.392 130.16C327.392 127.056 331.008 125.136 337.792 125.136C344.576 125.136 348.224 126.896 348.224 130.16ZM348.064 118.352H339.072V121.168H351.232V123.344H324.352V121.168H336.48V118.352H327.584V106.576H347.872V108.656H330.176V111.408H347.36V113.392H330.176V116.304H348.064V118.352ZM362.886 107.12H382.982C382.982 111.312 382.662 116.848 381.926 120.336H386.438V122.512H359.558V120.336H379.366C379.654 119.056 379.878 117.168 380.038 115.248L362.534 116.08L362.118 113.808L380.198 113.232C380.262 111.728 380.326 110.32 380.326 109.264H362.886V107.12ZM383.622 134.064H362.95V125.168H365.542V131.92H383.622V134.064ZM409.548 126.832C407.948 127.056 405.324 127.312 402.7 127.44C399.948 127.632 397.324 127.728 394.796 127.728L394.412 125.456H397.708L396.812 113.2L399.404 112.848C399.628 117.04 399.916 121.2 400.172 125.392L402.54 125.296C402.732 125.296 402.956 125.296 403.18 125.264C403.436 121.136 403.692 116.976 403.98 112.848L406.572 113.104C406.22 117.104 405.868 121.104 405.484 125.136C406.924 125.008 408.268 124.88 409.324 124.72C409.388 125.424 409.452 126.128 409.548 126.832ZM414.316 133.584H411.788V118.928H407.724V116.784H411.788V106.064H414.316V133.584ZM419.852 135.12H417.324V105.36H419.852V135.12ZM408.588 111.216H395.148V109.072H408.588V111.216ZM436.49 118.128C436.49 113.232 434.442 109.84 431.274 109.84C428.138 109.84 426.058 113.232 426.058 118.128C426.058 122.992 428.138 126.384 431.274 126.384C434.442 126.384 436.49 122.992 436.49 118.128ZM423.594 118.096C423.594 111.824 426.378 107.6 431.274 107.6C436.202 107.6 438.954 111.824 438.954 118.128C438.954 124.432 436.202 128.624 431.274 128.624C426.378 128.624 423.594 124.432 423.594 118.096ZM447.082 135.12H444.49V105.36H447.082V135.12ZM460.967 119.12V114.064H454.055V119.12H460.967ZM475.527 135.12H472.903V126.768H455.431V124.624H475.527V135.12ZM475.527 123.024H472.967V115.088H469.287V122.832H466.791V105.904H469.287V112.944H472.967V105.36H475.527V123.024ZM463.495 121.264H451.527V107.312H454.055V111.92H460.967V107.312H463.495V121.264Z" fill="#202F57"/>
<path d="M133 335.008C133 249.956 201.948 181.008 287 181.008C372.052 181.008 441 249.956 441 335.008V573.008H133V335.008Z" fill="#E8EECF"/>
<path d="M262.421 492.127L245.357 495.755C244.474 495.942 243.889 496.751 243.923 497.652C244.095 501.998 241.13 505.967 236.744 506.9C232.358 507.832 228.039 505.415 226.424 501.372C226.087 500.53 225.225 500.034 224.342 500.221L70.4171 532.939C59.692 535.219 52.8545 545.791 55.1427 556.556L72.4304 637.889C74.7177 648.65 85.2651 655.531 95.9902 653.251L249.919 620.533C250.803 620.345 251.387 619.536 251.353 618.635C251.181 614.289 254.147 610.32 258.533 609.388C262.919 608.455 267.237 610.872 268.853 614.916C269.189 615.757 270.051 616.254 270.935 616.066L287.999 612.439C298.72 610.16 305.562 599.587 303.273 588.822L285.986 507.489C283.698 496.728 273.151 489.847 262.426 492.126L262.421 492.127Z" fill="#9DB5FF"/>
<path d="M127.216 574.443C124.943 574.926 122.782 574.727 121.424 574.129L121.466 572.173C122.686 572.658 124.748 572.935 126.364 572.592C129.459 571.934 130.894 569.797 130.306 567.031C129.672 564.045 127.669 563.24 124.601 563.892C123.259 564.178 121.541 565.115 120.724 565.718L119.259 555.324L129.146 553.222L129.565 555.194L121.54 556.9L122.393 562.93C123.141 562.542 124.277 562.1 125.099 561.926C129.043 561.087 131.849 562.438 132.722 566.546C133.467 570.051 131.516 573.529 127.216 574.443ZM156.691 570.325L139.765 573.923L138.1 566.09L140.318 565.618L141.593 571.616L156.301 568.49L156.691 570.325ZM156.375 554.562L152.485 555.389L154.407 564.427L152.188 564.899L148.259 546.412L150.477 545.94L152.09 553.527L155.979 552.7L156.375 554.562ZM144.221 560.008L142.498 551.901L134.857 553.525L136.58 561.632L144.221 560.008ZM146.836 561.399L134.757 563.966L132.248 552.162L144.327 549.595L146.836 561.399ZM168.576 561.473L166.357 561.944L165.373 557.315C162.987 557.937 160.457 558.561 158.348 559.009L157.59 557.195C160.225 556.664 163.314 555.978 166.057 555.281C168.882 554.566 171.596 553.731 174.003 552.934L174.561 554.618C172.992 555.181 170.212 555.972 167.563 556.707L168.576 561.473ZM169.179 548.148C168.812 546.423 166.727 545.635 163.988 546.217C161.249 546.799 159.631 548.345 160.004 550.098C160.37 551.824 162.471 552.551 165.21 551.969C167.949 551.386 169.545 549.873 169.179 548.148ZM181.993 565.205L163.78 569.076L162.214 561.708L164.432 561.237L165.602 566.742L181.597 563.342L181.993 565.205ZM180.355 560.057L178.136 560.528L177.548 557.762L172.208 558.897L171.835 557.144L177.176 556.009L173.974 540.946L176.192 540.474L180.355 560.057ZM171.37 547.682C171.987 550.585 169.538 552.938 165.594 553.776C161.651 554.615 158.408 553.5 157.779 550.542C157.168 547.667 159.654 545.22 163.598 544.382C167.542 543.544 170.753 544.779 171.37 547.682ZM193.85 548.142C192.96 543.952 190.59 541.421 187.878 541.998C185.194 542.568 184.031 545.85 184.922 550.04C185.807 554.203 188.204 556.728 190.888 556.157C193.6 555.581 194.735 552.305 193.85 548.142ZM182.807 550.461C181.666 545.093 183.28 540.971 187.471 540.081C191.689 539.184 194.812 542.299 195.959 547.694C197.106 553.09 195.513 557.178 191.296 558.075C187.105 558.965 183.96 555.884 182.807 550.461ZM206.007 560.759L203.789 561.23L198.375 535.759L200.593 535.288L206.007 560.759ZM229.349 538.335L225.46 539.162L226.933 546.091L224.714 546.563L221.379 530.869L223.597 530.398L225.064 537.3L228.953 536.473L229.349 538.335ZM219.1 549.645C215.266 550.46 213.122 552.09 213.535 554.034C213.949 555.979 216.564 556.568 220.399 555.753C224.288 554.926 226.465 553.318 226.052 551.374C225.638 549.429 222.99 548.819 219.1 549.645ZM228.325 550.891C228.965 553.903 226.157 556.447 220.789 557.588C215.475 558.717 211.903 557.53 211.262 554.518C210.616 551.477 213.397 548.94 218.71 547.81C224.079 546.669 227.679 547.851 228.325 550.891ZM220.918 543.248L219.976 545.28C217.288 544.62 214.303 542.965 212.742 540.606C212.524 543.486 210.491 546.58 207.832 548.749L206.233 547.285C209.514 544.813 211.572 541.026 210.71 536.973L210.186 534.508L212.432 534.031L212.939 536.413C213.8 540.467 217.827 542.846 220.918 543.248ZM92.9724 599.588L105.078 597.015C106.551 604.889 104.435 612.037 97.4398 618.047L94.7837 615.921C99.9332 612.135 102.642 605.892 102.008 600.616L93.572 602.409L92.9724 599.588ZM118.018 618.568L114.594 619.295L109.075 593.332L112.499 592.604L118.018 618.568ZM137.627 592.186L118.51 596.25L117.934 593.538L137.051 589.475L137.627 592.186ZM143.641 609.572L120.197 614.555L119.621 611.844L143.065 606.86L143.641 609.572ZM139.819 602.77L120.812 606.81L120.236 604.098L124.043 603.289L122.028 597.448L125.364 596.31L127.247 602.608L132.423 601.508L132.004 594.956L135.429 594.772L135.573 600.838L139.243 600.058L139.819 602.77ZM167.473 601.844L168.044 604.528L144.599 609.511L144.029 606.827L167.473 601.844ZM161.852 592.905L148.349 595.775L148.949 598.596L163.328 595.54L163.898 598.224L146.123 602.002L143.195 588.226L160.724 584.5L161.294 587.184L147.162 590.188L147.779 593.091L161.281 590.221L161.852 592.905ZM166.321 583.912L177.989 581.432C179.846 590.168 177.394 597.216 170.498 602.89C169.618 602.247 168.758 601.571 167.871 600.901C171.137 598.489 173.552 595.17 174.605 591.368C172.253 592.155 169.928 592.935 167.57 593.694L166.482 590.862L175.134 588.336C175.192 587.264 175.157 586.156 175 585.015L166.921 586.733L166.321 583.912ZM184.414 577.318L186.533 587.287L190.175 586.513L190.775 589.334L187.132 590.108L189.933 603.282L186.564 603.998L181.045 578.034L184.414 577.318ZM212.309 586.417L194.561 590.189L191.971 578.002L209.499 574.276L210.081 577.015L195.949 580.019L197.381 586.756L211.733 583.706L212.309 586.417ZM216.185 591.318L216.761 594.03L193.317 599.013L192.74 596.302L216.185 591.318ZM228.275 591.611L224.782 575.178L221.553 576.551L221.111 574.47L225.722 571.114L227.612 570.712L231.89 590.842L228.275 591.611ZM235.937 589.839L235.495 587.758L238.474 582.917C240.623 579.425 242.311 576.462 241.782 573.969C241.269 571.559 239.751 570.88 237.204 571.421C235.807 571.718 234.309 572.752 233.354 573.642L232.22 571.135C233.393 570.056 235.262 568.886 237.563 568.397C241.945 567.465 244.639 569.097 245.407 572.712C246.164 576.272 243.8 580.096 241.898 583.133L240.054 586.044L248.052 584.344L248.646 587.138L235.937 589.839ZM268.211 581.204C269.581 580.913 270.052 579.897 269.563 577.596L269.423 576.939C268.946 574.693 268.03 573.886 266.715 574.166C265.373 574.451 264.914 575.522 265.391 577.768L265.531 578.425C266.02 580.725 266.842 581.495 268.211 581.204ZM268.654 583.286C265.669 583.92 263.256 582.401 262.54 579.032L262.453 578.621C261.742 575.28 263.321 572.74 266.279 572.111C269.209 571.489 271.677 572.996 272.381 576.31L272.474 576.749C273.184 580.09 271.639 582.651 268.654 583.286ZM252.538 574.803C253.935 574.506 254.394 573.435 253.905 571.135L253.771 570.505C253.3 568.286 252.372 567.424 251.03 567.71C249.716 567.989 249.241 569.121 249.712 571.339L249.846 571.969C250.341 574.297 251.196 575.088 252.538 574.803ZM252.98 576.885C249.995 577.519 247.631 575.961 246.915 572.592L246.834 572.208C246.118 568.84 247.636 566.284 250.594 565.655C253.524 565.033 255.964 566.546 256.674 569.888L256.768 570.326C257.478 573.667 255.966 576.25 252.98 576.885ZM253.695 587.382L262.735 562.846L265.391 562.281L256.351 586.817L253.695 587.382Z" fill="#161D30"/>
<path d="M500.286 535.31L482.864 534.397C481.962 534.35 481.189 534.98 480.988 535.859C480.029 540.101 476.138 543.168 471.66 542.933C467.182 542.699 463.636 539.247 463.122 534.923C463.015 534.023 462.311 533.32 461.409 533.273L304.261 525.037C293.311 524.463 283.971 532.905 283.395 543.896L279.043 626.932C278.467 637.918 286.874 647.295 297.824 647.868L454.976 656.104C455.878 656.152 456.652 655.522 456.853 654.643C457.811 650.4 461.703 647.334 466.181 647.568C470.658 647.803 474.204 651.255 474.718 655.579C474.826 656.479 475.53 657.182 476.431 657.229L493.853 658.142C504.798 658.715 514.144 650.274 514.72 639.283L519.071 556.247C519.647 545.261 511.24 535.884 500.29 535.31L500.286 535.31Z" fill="#FFDC78"/>
<path d="M341.406 578.92L342.333 561.22L338.597 561.893L338.669 560.523L343.51 558.562L344.74 558.627L343.67 579.038L341.406 578.92ZM355.932 577.943C359.008 578.104 360.766 576.121 361.036 570.976L361.15 568.795C361.414 563.762 359.912 561.384 356.837 561.223C353.733 561.06 351.913 563.152 351.652 568.129L351.536 570.338C351.275 575.315 352.829 577.78 355.932 577.943ZM355.83 579.9C351.719 579.685 348.678 576.721 349.031 569.983L349.119 568.305C349.489 561.259 353.025 559.061 356.939 559.266C360.854 559.471 363.945 562.016 363.581 568.951L363.486 570.768C363.133 577.507 359.884 580.113 355.83 579.9ZM386.336 583.602L369.055 582.696L369.474 574.699L371.739 574.818L371.418 580.941L386.434 581.728L386.336 583.602ZM390.11 568.294L386.139 568.086L385.656 577.313L383.391 577.195L384.38 558.321L386.645 558.439L386.239 566.185L390.21 566.393L390.11 568.294ZM376.961 570.409L377.395 562.132L369.594 561.723L369.16 570L376.961 570.409ZM379.126 572.429L366.795 571.783L367.427 559.731L379.758 560.378L379.126 572.429ZM400.107 578.127L397.842 578.008L398.09 573.283C395.623 573.266 393.018 573.213 390.865 573.1L390.603 571.152C393.286 571.321 396.447 571.458 399.277 571.494C402.191 571.535 405.028 571.431 407.559 571.284L407.663 573.055C406.001 573.193 403.111 573.237 400.362 573.262L400.107 578.127ZM404.138 565.412C404.23 563.651 402.42 562.35 399.624 562.204C396.827 562.057 394.864 563.132 394.771 564.922C394.678 566.683 396.52 567.929 399.316 568.076C402.112 568.222 404.045 567.174 404.138 565.412ZM412.101 585.204L393.506 584.23L393.901 576.708L396.165 576.827L395.871 582.447L412.201 583.303L412.101 585.204ZM411.851 579.808L409.586 579.689L409.734 576.865L404.282 576.579L404.375 574.79L409.828 575.075L410.634 559.697L412.899 559.815L411.851 579.808ZM406.375 565.53C406.219 568.494 403.246 570.132 399.219 569.921C395.193 569.71 392.349 567.795 392.507 564.775C392.661 561.839 395.695 560.119 399.722 560.33C403.748 560.541 406.53 562.566 406.375 565.53ZM427.97 571.792C428.195 567.514 426.56 564.457 423.792 564.312C421.052 564.168 419.079 567.037 418.855 571.315C418.632 575.565 420.294 578.624 423.035 578.768C425.803 578.913 427.748 576.043 427.97 571.792ZM416.703 571.174C416.99 565.693 419.617 562.13 423.895 562.354C428.201 562.58 430.412 566.397 430.123 571.905C429.835 577.414 427.238 580.951 422.932 580.725C418.654 580.501 416.413 576.71 416.703 571.174ZM436.448 587.125L434.183 587.006L435.545 561.002L437.81 561.121L436.448 587.125ZM464.798 571.507L460.827 571.299L460.456 578.374L458.191 578.255L459.031 562.233L461.296 562.352L460.927 569.398L464.897 569.606L464.798 571.507ZM451.971 579.78C448.056 579.574 445.564 580.593 445.46 582.579C445.356 584.564 447.73 585.81 451.644 586.015C455.615 586.223 458.134 585.234 458.238 583.248C458.342 581.263 455.942 579.988 451.971 579.78ZM460.559 583.37C460.398 586.446 457.027 588.176 451.546 587.888C446.122 587.604 442.978 585.533 443.139 582.457C443.301 579.353 446.645 577.622 452.069 577.906C457.55 578.193 460.722 580.266 460.559 583.37ZM455.383 574.07L453.947 575.789C451.521 574.457 449.066 572.085 448.169 569.402C447.213 572.128 444.448 574.591 441.318 575.997L440.152 574.169C443.962 572.631 446.93 569.506 447.147 565.367L447.279 562.851L449.571 562.971L449.444 565.404C449.227 569.542 452.501 572.882 455.383 574.07ZM310.425 595.02L322.784 595.668C322.169 603.655 318.275 610.012 309.963 614.006L307.948 611.265C313.901 608.941 318.134 603.612 318.886 598.352L310.274 597.901L310.425 595.02ZM329.705 619.836L326.21 619.652L327.599 593.145L331.094 593.328L329.705 619.836ZM355.474 599.428L335.957 598.405L336.102 595.637L355.619 596.66L355.474 599.428ZM356.783 617.778L332.848 616.523L332.993 613.755L356.928 615.01L356.783 617.778ZM354.852 610.218L335.447 609.201L335.592 606.433L339.479 606.637L339.045 600.474L342.562 600.238L342.75 606.808L348.035 607.085L349.326 600.648L352.681 601.357L351.251 607.254L354.997 607.45L354.852 610.218ZM381.803 616.482L381.66 619.222L357.725 617.967L357.868 615.227L381.803 616.482ZM378.687 606.393L364.902 605.67L364.751 608.55L379.431 609.32L379.287 612.06L361.14 611.109L361.877 597.044L379.773 597.982L379.629 600.722L365.201 599.966L365.046 602.93L378.831 603.652L378.687 606.393ZM385.332 598.862L397.244 599.486C396.776 608.406 392.584 614.579 384.455 618.275C383.77 617.426 383.115 616.55 382.432 615.673C386.211 614.189 389.403 611.609 391.403 608.209C388.928 608.359 386.481 608.511 384.007 608.634L383.688 605.617L392.699 605.417C393.033 604.397 393.286 603.316 393.43 602.174L385.181 601.742L385.332 598.862ZM404.515 597.176L403.981 607.354L407.7 607.549L407.549 610.429L403.83 610.234L403.125 623.683L399.686 623.503L401.075 596.995L404.515 597.176ZM429.104 613.185L410.985 612.235L411.637 599.792L429.533 600.73L429.386 603.526L414.958 602.77L414.598 609.648L429.249 610.416L429.104 613.185ZM431.579 618.922L431.434 621.69L407.499 620.436L407.644 617.668L431.579 618.922ZM443.182 622.334L444.062 605.557L440.587 606.048L440.698 603.923L446.021 601.874L447.95 601.976L446.873 622.527L443.182 622.334ZM456.199 623.184C453.878 623.063 451.756 622.363 450.484 621.483L451.274 618.72C452.358 619.422 453.866 620.09 455.431 620.172C458.283 620.321 460.061 619.041 460.19 616.58C460.326 613.98 458.788 612.834 455.992 612.687C454.706 612.62 452.772 613.135 451.796 613.561L453.139 602.388L463.764 602.944L463.615 605.797L455.758 605.385L455.133 610.343C455.815 610.182 456.942 610.073 457.697 610.113C461.779 610.327 464.187 612.528 463.96 616.862C463.762 620.637 460.84 623.428 456.199 623.184ZM483.659 622.577C485.057 622.65 485.775 621.79 485.898 619.442L485.934 618.77C486.054 616.478 485.378 615.461 484.036 615.39C482.666 615.319 481.945 616.234 481.825 618.527L481.789 619.198C481.666 621.547 482.261 622.503 483.659 622.577ZM483.548 624.702C480.5 624.542 478.563 622.45 478.743 619.01L478.765 618.591C478.944 615.18 481.126 613.135 484.146 613.293C487.138 613.45 489.131 615.545 488.953 618.929L488.93 619.376C488.751 622.787 486.596 624.861 483.548 624.702ZM470.177 612.337C471.603 612.412 472.324 611.496 472.447 609.147L472.48 608.504C472.599 606.239 471.926 605.167 470.556 605.095C469.214 605.025 468.462 605.995 468.344 608.259L468.31 608.903C468.185 611.279 468.807 612.265 470.177 612.337ZM470.065 614.462C467.017 614.302 465.138 612.185 465.318 608.746L465.338 608.354C465.519 604.915 467.646 602.84 470.666 602.998C473.658 603.155 475.623 605.248 475.444 608.66L475.421 609.107C475.242 612.518 473.113 614.622 470.065 614.462ZM468.038 624.786L483.121 603.426L485.833 603.568L470.75 624.928L468.038 624.786Z" fill="#161D30"/>
<path d="M307.933 298.881C307.076 275.919 322.367 263.936 338.082 263.349C353.797 262.763 369.938 273.574 370.794 296.536C371.651 319.498 356.51 331.307 340.639 331.899C324.768 332.491 308.777 321.506 307.933 298.881ZM429.093 263.763C436.469 269.369 437.932 279.341 431.608 289.435C415.731 314.926 373.4 378.932 359.14 397.626C352.304 406.521 342.553 408.271 335.313 402.142C328.559 396.512 327.148 387.925 334.074 377.29C349.257 354.066 392.353 289.695 406.848 268.92C412.912 260.221 421.237 257.838 429.093 263.763ZM344.966 297.512C344.76 291.988 342.174 289.494 339.062 289.61C335.95 289.726 333.712 292.401 333.918 297.924C334.111 303.099 336.548 305.78 339.66 305.664C342.772 305.548 345.159 302.687 344.966 297.512ZM395.646 369.63C394.79 346.668 410.08 334.685 425.795 334.099C441.511 333.512 457.651 344.323 458.508 367.285C459.364 390.247 444.223 402.056 428.352 402.648C412.482 403.24 396.49 392.256 395.646 369.63ZM432.679 368.249C432.473 362.725 429.886 360.23 426.775 360.346C423.663 360.463 421.425 363.137 421.631 368.661C421.824 373.835 424.261 376.517 427.373 376.4C430.485 376.284 432.872 373.423 432.679 368.249Z" fill="#E74723"/>
<path d="M316.281 294.333C316.087 294.34 315.905 294.334 315.709 294.316C313.571 294.084 312.032 292.16 312.264 290.027C314.043 274.001 327.912 268.47 328.5 268.241C330.497 267.467 332.754 268.458 333.53 270.463C334.306 272.454 333.312 274.694 331.328 275.48C330.893 275.652 321.239 279.652 319.996 290.878C319.783 292.816 318.175 294.262 316.281 294.333Z" fill="#FF967E"/>
<path d="M403.582 366.898C403.388 366.905 403.206 366.899 403.01 366.88C400.872 366.649 399.333 364.725 399.565 362.591C401.344 346.565 415.212 341.035 415.801 340.805C417.811 340.031 420.055 341.022 420.831 343.027C421.607 345.019 420.612 347.259 418.629 348.045C418.194 348.217 408.54 352.217 407.297 363.443C407.083 365.381 405.475 366.827 403.582 366.898Z" fill="#FF967E"/>
<path d="M392.445 308.177C391.641 308.207 390.828 307.992 390.122 307.513C388.337 306.31 387.871 303.905 389.077 302.124L412.275 267.875C413.481 266.094 415.905 265.628 417.677 266.832C419.462 268.035 419.928 270.44 418.722 272.221L395.524 306.469C394.797 307.533 393.638 308.133 392.445 308.177Z" fill="#FF967E"/>
<path d="M207.33 366.754C217.241 358.875 223.932 363.301 227.594 366.899C232.422 371.745 239.291 375.681 248.483 376.136C255.99 376.507 262.337 372.38 262.716 364.708C263.096 357.035 257.034 352.295 249.527 351.923C240.489 351.476 237 353.697 231.554 355.129C221.292 357.693 207.441 348.984 207.479 338.901C207.599 324.049 210.532 298.907 212.987 289.635C216.563 276.336 224.884 272.652 236.118 272.184C247.965 271.746 262.382 272.114 280.706 274.223C291.703 275.445 297.374 281.882 296.817 293.129C296.219 305.231 289.557 309.509 278.468 310.163C266.613 310.767 254.817 310.183 245.804 309.226C245.381 314.669 244.626 320.608 243.504 324.661C246.321 323.61 251.928 322.006 261.427 322.476C278.278 323.31 299.536 337.517 298.018 368.195C296.501 398.872 275.172 414.044 246.218 412.612C226.149 411.619 209.507 403.45 201.236 387.492C197.309 379.952 199.331 373.218 207.328 366.78L207.33 366.754Z" fill="#E74723"/>
<path d="M247.747 275.115C245.023 275.07 242.299 275.037 239.561 275.017C235.838 274.999 232.158 275.137 228.68 276.642C224.638 278.4 221.486 281.853 219.765 285.863C219.563 286.314 219.386 286.778 219.235 287.244C218.487 289.434 218.325 292.203 220.847 293.224C223.795 294.419 227.258 291.672 229.342 289.894C231.092 288.407 232.602 286.6 234.606 285.42C236.834 284.109 239.501 283.998 242.023 283.982C249.114 283.949 256.207 284.415 263.296 283.908C265.531 283.75 270.233 283.381 270.583 280.442C270.906 277.783 268.031 276.669 265.917 276.206C263.093 275.592 260.182 275.461 257.294 275.37C254.113 275.263 250.917 275.182 247.734 275.114L247.747 275.115Z" fill="#FF967E"/>
<path d="M246.265 408.825L238.003 419.832C238.003 419.832 242.078 416.629 245.325 420.322C248.172 423.56 251.406 421.839 253.618 420.067C255.83 418.295 259.174 420.022 259.174 420.022L252.897 409.281L246.278 408.813L246.265 408.825Z" fill="#E74723"/>
<path d="M118.543 287.427C129.259 276.662 149.547 263.802 162.534 263.017C174.011 262.323 181.767 270.277 183.768 283.317C187.466 306.863 190.515 357.261 188.765 380.96C187.836 393.153 183.602 400.823 172.578 401.49C161.555 402.157 156.728 395.035 154.94 383.006C151.181 358.453 149.533 328.709 149.673 308.467C146.846 311.846 140.545 315.422 135.684 317.737C129.937 320.447 120.736 321.168 115.153 311.566C109.228 301.302 112.968 292.98 118.542 287.414L118.543 287.427Z" fill="#E74723"/>
<path d="M120.088 291.88C118.834 293.484 117.851 295.401 119.042 297.147C120.026 298.578 122.084 298.15 123.454 297.625C127.91 295.916 131.694 292.277 135.584 289.566C140.25 286.329 145 283.212 149.765 280.133C151.053 279.297 152.342 278.474 153.631 277.651C155.832 276.242 159.559 274.387 160.435 271.745C161.139 269.606 160.041 267.323 157.551 267.701C155.123 268.075 152.742 269.432 150.545 270.474C148.127 271.631 145.751 272.873 143.42 274.202C138.768 276.857 134.288 279.831 129.984 283.022C129.38 283.462 128.775 283.916 128.184 284.368C125.938 286.07 123.735 287.871 121.814 289.932C121.304 290.481 120.674 291.138 120.112 291.866L120.088 291.88Z" fill="#FF967E"/>
<path d="M169.687 399.846L162.778 411.53C162.778 411.53 168.34 409.729 174.557 411.866C180.774 414.003 183.541 409.428 183.541 409.428L176.226 399.577L169.687 399.834L169.687 399.846Z" fill="#E74723"/>
<path d="M291.132 461.43C291.132 463.543 289.777 464.858 288.056 464.858C286.335 464.858 284.98 463.543 284.98 461.43V434.331C284.98 432.462 286.186 431.256 288.056 431.256H296.863C304.315 431.256 308.705 435.632 308.705 441.987C308.705 448.341 304.329 452.718 296.863 452.718H291.118V461.43H291.132ZM296.877 446.878C300.399 446.878 302.513 445.211 302.513 442.041C302.513 438.87 300.399 437.204 296.877 437.204H291.132V446.878H296.877Z" fill="#E74723"/>
<path d="M313.095 457.907L311.482 462.08C310.778 463.841 309.87 464.844 308.312 464.844C306.605 464.844 305.345 463.692 305.345 461.917C305.345 460.86 305.792 459.695 306.144 458.801L316.116 433.424C316.821 431.662 317.783 430.809 319.233 430.809C320.682 430.809 321.644 431.662 322.349 433.424L332.321 458.801C332.673 459.709 333.12 460.86 333.12 461.917C333.12 463.679 331.86 464.844 330.153 464.844C328.595 464.844 327.687 463.841 326.983 462.08L325.37 457.907H313.081H313.095ZM319.233 441.241C318.027 444.913 316.618 448.693 315.357 452.067H323.108C321.847 448.693 320.438 444.913 319.233 441.241Z" fill="#E74723"/>
<path d="M344.773 437.57L346.791 433.695C347.753 431.825 348.661 430.823 350.219 430.823C351.981 430.823 353.187 432.028 353.187 433.749C353.187 434.806 352.739 435.66 352.225 436.567L343.716 452.176V461.443C343.716 463.557 342.361 464.871 340.64 464.871C338.919 464.871 337.565 463.557 337.565 461.443V452.176L329.056 436.567C328.554 435.66 328.094 434.806 328.094 433.749C328.094 432.042 329.3 430.823 331.061 430.823C332.619 430.823 333.527 431.825 334.489 433.695L336.508 437.57C337.714 439.833 339.123 442.651 340.64 445.726C342.158 442.651 343.567 439.833 344.773 437.57Z" fill="#E74723"/>
<path d="M378.768 455.238C378.768 460.874 374.987 464.397 366.573 464.397H357.915C356.046 464.397 354.84 463.191 354.84 461.321V434.331C354.84 432.462 356.046 431.256 357.915 431.256H365.666C373.267 431.256 377.345 434.887 377.345 440.374C377.345 444.046 375.475 446.16 372.711 447.176C376.031 448.03 378.754 450.455 378.754 455.238H378.768ZM365.977 444.453C369.148 444.453 371.017 443.247 371.017 440.822C371.017 438.396 369.148 437.19 365.977 437.19H360.991V444.439H365.977V444.453ZM366.628 458.449C370.15 458.449 372.318 457.243 372.318 454.371C372.318 451.498 370.15 450.292 366.628 450.292H360.991V458.449H366.628Z" fill="#E74723"/>
<path d="M386.287 457.907L384.675 462.08C383.97 463.841 383.063 464.844 381.504 464.844C379.797 464.844 378.537 463.692 378.537 461.917C378.537 460.86 378.984 459.695 379.336 458.801L389.309 433.424C390.013 431.662 390.975 430.809 392.425 430.809C393.875 430.809 394.837 431.662 395.541 433.424L405.513 458.801C405.866 459.709 406.313 460.86 406.313 461.917C406.313 463.679 405.053 464.844 403.345 464.844C401.787 464.844 400.88 463.841 400.175 462.08L398.563 457.907H386.274H386.287ZM392.425 441.241C391.219 444.913 389.81 448.693 388.55 452.067H396.3C395.04 448.693 393.631 444.913 392.425 441.241Z" fill="#E74723"/>
<path d="M405.974 447.84C405.974 438.519 411.569 430.674 421.284 430.674C425.864 430.674 429.441 432.435 431.256 434.549C432.015 435.402 432.462 436.31 432.462 437.313C432.462 438.83 431.351 440.131 429.698 440.131C428.289 440.131 427.435 439.223 426.067 438.221C425.159 437.57 423.696 436.608 421.176 436.608C415.539 436.608 412.166 441.54 412.166 447.84C412.166 454.141 415.539 459.073 421.176 459.073C423.696 459.073 425.159 458.111 426.067 457.46C427.422 456.458 428.289 455.55 429.698 455.55C431.365 455.55 432.462 456.864 432.462 458.368C432.462 459.371 432.015 460.279 431.256 461.132C429.441 463.246 425.864 465.007 421.284 465.007C411.569 465.007 405.974 457.149 405.974 447.827V447.84Z" fill="#E74723"/>
<path d="M441.134 461.429C441.134 463.543 439.779 464.857 438.058 464.857C436.337 464.857 434.982 463.543 434.982 461.429V434.237C434.982 432.123 436.337 430.809 438.058 430.809C439.779 430.809 441.134 432.123 441.134 434.237V446.376C443.708 443.301 446.567 439.927 449.344 436.906L453.328 432.624C454.236 431.662 455.238 430.809 456.553 430.809C458.111 430.809 459.371 431.96 459.371 433.573C459.371 434.778 458.666 435.795 457.664 436.851L450.564 444.507L459.574 459.465C460.021 460.224 460.373 461.172 460.373 462.08C460.373 463.841 458.964 464.844 457.447 464.844C455.929 464.844 454.981 463.787 454.168 462.432L446.215 449.235L441.134 454.723V461.416V461.429Z" fill="#E74723"/>
</svg>
