<svg width="444" height="486" viewBox="0 0 444 486" fill="none" xmlns="http://www.w3.org/2000/svg">
<path d="M63.1719 472V467.957L73.1328 458.641C74.3568 457.508 75.2812 456.564 75.9062 455.809C76.5312 455.053 76.9544 454.376 77.1758 453.777C77.4102 453.178 77.5273 452.553 77.5273 451.902V451.863C77.5273 451.095 77.3451 450.418 76.9805 449.832C76.6159 449.233 76.1081 448.764 75.457 448.426C74.819 448.087 74.0833 447.918 73.25 447.918C72.2865 447.918 71.4401 448.113 70.7109 448.504C69.9818 448.882 69.4089 449.409 68.9922 450.086C68.5755 450.75 68.3542 451.505 68.3281 452.352L68.3086 452.527H62.8398V452.371C62.8398 450.6 63.2891 449.038 64.1875 447.684C65.0859 446.316 66.3164 445.249 67.8789 444.48C69.4544 443.712 71.2318 443.328 73.2109 443.328C75.2031 443.328 76.9544 443.68 78.4648 444.383C79.9753 445.073 81.1536 446.036 82 447.273C82.8464 448.51 83.2695 449.93 83.2695 451.531V451.57C83.2695 452.703 83.0612 453.758 82.6445 454.734C82.2409 455.698 81.5703 456.727 80.6328 457.82C79.6953 458.901 78.4128 460.19 76.7852 461.688L68.6211 469.129L70.8867 465.164V469.129L68.6406 467.312H83.6602V472H63.1719ZM95.8008 472.488C93.6654 472.488 91.8034 472.143 90.2148 471.453C88.6263 470.75 87.3633 469.78 86.4258 468.543C85.5013 467.306 84.974 465.88 84.8438 464.266L84.8242 464.012H90.4492L90.4883 464.227C90.6055 465.229 91.1328 466.069 92.0703 466.746C93.0208 467.41 94.2578 467.742 95.7812 467.742C96.7969 467.742 97.6758 467.579 98.418 467.254C99.1602 466.915 99.7331 466.453 100.137 465.867C100.553 465.268 100.762 464.585 100.762 463.816V463.777C100.762 462.423 100.286 461.388 99.3359 460.672C98.3854 459.956 97.0573 459.598 95.3516 459.598H92.1289V455.398H95.2734C96.263 455.398 97.1224 455.236 97.8516 454.91C98.5807 454.585 99.1406 454.135 99.5312 453.562C99.9349 452.977 100.137 452.306 100.137 451.551V451.512C100.137 450.743 99.9609 450.092 99.6094 449.559C99.2708 449.012 98.7695 448.595 98.1055 448.309C97.4544 448.009 96.6667 447.859 95.7422 447.859C94.8307 447.859 94.0234 448.009 93.3203 448.309C92.6172 448.608 92.0573 449.031 91.6406 449.578C91.224 450.112 90.9701 450.743 90.8789 451.473L90.8594 451.648H85.4492L85.4688 451.414C85.599 449.773 86.1003 448.354 86.9727 447.156C87.8581 445.945 89.0495 445.008 90.5469 444.344C92.0443 443.667 93.776 443.328 95.7422 443.328C97.7734 443.328 99.5312 443.641 101.016 444.266C102.513 444.878 103.672 445.737 104.492 446.844C105.312 447.951 105.723 449.246 105.723 450.73V450.77C105.723 451.941 105.462 452.97 104.941 453.855C104.421 454.741 103.711 455.47 102.812 456.043C101.927 456.616 100.938 457.02 99.8438 457.254V457.371C101.94 457.566 103.613 458.243 104.863 459.402C106.126 460.561 106.758 462.098 106.758 464.012V464.051C106.758 465.73 106.302 467.202 105.391 468.465C104.479 469.728 103.203 470.717 101.562 471.434C99.9219 472.137 98.0013 472.488 95.8008 472.488ZM111.066 472.332C110.181 472.332 109.432 472.026 108.82 471.414C108.208 470.802 107.902 470.053 107.902 469.168C107.902 468.283 108.208 467.534 108.82 466.922C109.432 466.31 110.181 466.004 111.066 466.004C111.952 466.004 112.701 466.31 113.312 466.922C113.924 467.534 114.23 468.283 114.23 469.168C114.23 470.053 113.924 470.802 113.312 471.414C112.701 472.026 111.952 472.332 111.066 472.332ZM121.371 472V449.227H121.254L114.066 454.109V448.875L121.352 443.816H127.211V472H121.371ZM131.539 472V467.957L141.5 458.641C142.724 457.508 143.648 456.564 144.273 455.809C144.898 455.053 145.322 454.376 145.543 453.777C145.777 453.178 145.895 452.553 145.895 451.902V451.863C145.895 451.095 145.712 450.418 145.348 449.832C144.983 449.233 144.475 448.764 143.824 448.426C143.186 448.087 142.451 447.918 141.617 447.918C140.654 447.918 139.807 448.113 139.078 448.504C138.349 448.882 137.776 449.409 137.359 450.086C136.943 450.75 136.721 451.505 136.695 452.352L136.676 452.527H131.207V452.371C131.207 450.6 131.656 449.038 132.555 447.684C133.453 446.316 134.684 445.249 136.246 444.48C137.822 443.712 139.599 443.328 141.578 443.328C143.57 443.328 145.322 443.68 146.832 444.383C148.342 445.073 149.521 446.036 150.367 447.273C151.214 448.51 151.637 449.93 151.637 451.531V451.57C151.637 452.703 151.428 453.758 151.012 454.734C150.608 455.698 149.938 456.727 149 457.82C148.062 458.901 146.78 460.19 145.152 461.688L136.988 469.129L139.254 465.164V469.129L137.008 467.312H152.027V472H131.539ZM156.512 472.332C155.626 472.332 154.878 472.026 154.266 471.414C153.654 470.802 153.348 470.053 153.348 469.168C153.348 468.283 153.654 467.534 154.266 466.922C154.878 466.31 155.626 466.004 156.512 466.004C157.397 466.004 158.146 466.31 158.758 466.922C159.37 467.534 159.676 468.283 159.676 469.168C159.676 470.053 159.37 470.802 158.758 471.414C158.146 472.026 157.397 472.332 156.512 472.332ZM166.816 472V449.227H166.699L159.512 454.109V448.875L166.797 443.816H172.656V472H166.816ZM187.98 472.488C185.741 472.488 183.768 472.143 182.062 471.453C180.357 470.763 179.022 469.806 178.059 468.582C177.095 467.345 176.613 465.919 176.613 464.305V464.266C176.613 463.042 176.893 461.941 177.453 460.965C178.013 459.988 178.781 459.174 179.758 458.523C180.734 457.872 181.854 457.423 183.117 457.176V457.059C181.49 456.655 180.168 455.906 179.152 454.812C178.15 453.706 177.648 452.397 177.648 450.887V450.848C177.648 449.389 178.085 448.1 178.957 446.98C179.829 445.848 181.04 444.956 182.59 444.305C184.152 443.654 185.949 443.328 187.98 443.328C190.012 443.328 191.802 443.654 193.352 444.305C194.901 444.956 196.112 445.848 196.984 446.98C197.87 448.1 198.312 449.389 198.312 450.848V450.887C198.312 452.397 197.805 453.706 196.789 454.812C195.786 455.906 194.471 456.655 192.844 457.059V457.176C194.107 457.423 195.227 457.872 196.203 458.523C197.18 459.174 197.941 459.988 198.488 460.965C199.048 461.941 199.328 463.042 199.328 464.266V464.305C199.328 465.919 198.846 467.345 197.883 468.582C196.932 469.806 195.604 470.763 193.898 471.453C192.193 472.143 190.22 472.488 187.98 472.488ZM187.98 468.191C189.009 468.191 189.914 468.009 190.695 467.645C191.477 467.28 192.089 466.772 192.531 466.121C192.987 465.47 193.215 464.734 193.215 463.914V463.875C193.215 463.042 192.993 462.299 192.551 461.648C192.108 460.997 191.49 460.49 190.695 460.125C189.914 459.747 189.009 459.559 187.98 459.559C186.939 459.559 186.021 459.747 185.227 460.125C184.445 460.49 183.833 460.997 183.391 461.648C182.948 462.299 182.727 463.042 182.727 463.875V463.914C182.727 464.734 182.948 465.47 183.391 466.121C183.846 466.772 184.465 467.28 185.246 467.645C186.04 468.009 186.952 468.191 187.98 468.191ZM187.98 455.281C188.866 455.281 189.647 455.118 190.324 454.793C191.001 454.467 191.529 454.018 191.906 453.445C192.284 452.859 192.473 452.189 192.473 451.434V451.395C192.473 450.639 192.277 449.975 191.887 449.402C191.509 448.829 190.982 448.387 190.305 448.074C189.628 447.749 188.853 447.586 187.98 447.586C187.095 447.586 186.314 447.749 185.637 448.074C184.96 448.387 184.426 448.829 184.035 449.402C183.658 449.975 183.469 450.639 183.469 451.395V451.434C183.469 452.189 183.658 452.859 184.035 453.445C184.426 454.018 184.96 454.467 185.637 454.793C186.314 455.118 187.095 455.281 187.98 455.281ZM223.004 464.168C222.092 464.168 221.188 464.057 220.289 463.836C219.391 463.615 218.505 463.361 217.633 463.074C216.773 462.788 215.921 462.534 215.074 462.312C214.241 462.091 213.421 461.98 212.613 461.98C211.48 461.98 210.484 462.143 209.625 462.469C208.766 462.781 208.056 463.23 207.496 463.816V458.875C208.069 458.341 208.779 457.885 209.625 457.508C210.484 457.117 211.507 456.922 212.691 456.922C213.603 456.922 214.508 457.033 215.406 457.254C216.305 457.475 217.184 457.729 218.043 458.016C218.915 458.302 219.768 458.556 220.602 458.777C221.448 458.999 222.275 459.109 223.082 459.109C224.215 459.109 225.211 458.953 226.07 458.641C226.93 458.315 227.639 457.859 228.199 457.273V462.215C227.626 462.749 226.91 463.211 226.051 463.602C225.204 463.979 224.189 464.168 223.004 464.168ZM236.719 472V467.957L246.68 458.641C247.904 457.508 248.828 456.564 249.453 455.809C250.078 455.053 250.501 454.376 250.723 453.777C250.957 453.178 251.074 452.553 251.074 451.902V451.863C251.074 451.095 250.892 450.418 250.527 449.832C250.163 449.233 249.655 448.764 249.004 448.426C248.366 448.087 247.63 447.918 246.797 447.918C245.833 447.918 244.987 448.113 244.258 448.504C243.529 448.882 242.956 449.409 242.539 450.086C242.122 450.75 241.901 451.505 241.875 452.352L241.855 452.527H236.387V452.371C236.387 450.6 236.836 449.038 237.734 447.684C238.633 446.316 239.863 445.249 241.426 444.48C243.001 443.712 244.779 443.328 246.758 443.328C248.75 443.328 250.501 443.68 252.012 444.383C253.522 445.073 254.701 446.036 255.547 447.273C256.393 448.51 256.816 449.93 256.816 451.531V451.57C256.816 452.703 256.608 453.758 256.191 454.734C255.788 455.698 255.117 456.727 254.18 457.82C253.242 458.901 251.96 460.19 250.332 461.688L242.168 469.129L244.434 465.164V469.129L242.188 467.312H257.207V472H236.719ZM269.348 472.488C267.212 472.488 265.35 472.143 263.762 471.453C262.173 470.75 260.91 469.78 259.973 468.543C259.048 467.306 258.521 465.88 258.391 464.266L258.371 464.012H263.996L264.035 464.227C264.152 465.229 264.68 466.069 265.617 466.746C266.568 467.41 267.805 467.742 269.328 467.742C270.344 467.742 271.223 467.579 271.965 467.254C272.707 466.915 273.28 466.453 273.684 465.867C274.1 465.268 274.309 464.585 274.309 463.816V463.777C274.309 462.423 273.833 461.388 272.883 460.672C271.932 459.956 270.604 459.598 268.898 459.598H265.676V455.398H268.82C269.81 455.398 270.669 455.236 271.398 454.91C272.128 454.585 272.688 454.135 273.078 453.562C273.482 452.977 273.684 452.306 273.684 451.551V451.512C273.684 450.743 273.508 450.092 273.156 449.559C272.818 449.012 272.316 448.595 271.652 448.309C271.001 448.009 270.214 447.859 269.289 447.859C268.378 447.859 267.57 448.009 266.867 448.309C266.164 448.608 265.604 449.031 265.188 449.578C264.771 450.112 264.517 450.743 264.426 451.473L264.406 451.648H258.996L259.016 451.414C259.146 449.773 259.647 448.354 260.52 447.156C261.405 445.945 262.596 445.008 264.094 444.344C265.591 443.667 267.323 443.328 269.289 443.328C271.32 443.328 273.078 443.641 274.562 444.266C276.06 444.878 277.219 445.737 278.039 446.844C278.859 447.951 279.27 449.246 279.27 450.73V450.77C279.27 451.941 279.009 452.97 278.488 453.855C277.967 454.741 277.258 455.47 276.359 456.043C275.474 456.616 274.484 457.02 273.391 457.254V457.371C275.487 457.566 277.16 458.243 278.41 459.402C279.673 460.561 280.305 462.098 280.305 464.012V464.051C280.305 465.73 279.849 467.202 278.938 468.465C278.026 469.728 276.75 470.717 275.109 471.434C273.469 472.137 271.548 472.488 269.348 472.488ZM284.613 472.332C283.728 472.332 282.979 472.026 282.367 471.414C281.755 470.802 281.449 470.053 281.449 469.168C281.449 468.283 281.755 467.534 282.367 466.922C282.979 466.31 283.728 466.004 284.613 466.004C285.499 466.004 286.247 466.31 286.859 466.922C287.471 467.534 287.777 468.283 287.777 469.168C287.777 470.053 287.471 470.802 286.859 471.414C286.247 472.026 285.499 472.332 284.613 472.332ZM294.918 472V449.227H294.801L287.613 454.109V448.875L294.898 443.816H300.758V472H294.918ZM305.086 472V467.957L315.047 458.641C316.271 457.508 317.195 456.564 317.82 455.809C318.445 455.053 318.868 454.376 319.09 453.777C319.324 453.178 319.441 452.553 319.441 451.902V451.863C319.441 451.095 319.259 450.418 318.895 449.832C318.53 449.233 318.022 448.764 317.371 448.426C316.733 448.087 315.997 447.918 315.164 447.918C314.201 447.918 313.354 448.113 312.625 448.504C311.896 448.882 311.323 449.409 310.906 450.086C310.49 450.75 310.268 451.505 310.242 452.352L310.223 452.527H304.754V452.371C304.754 450.6 305.203 449.038 306.102 447.684C307 446.316 308.23 445.249 309.793 444.48C311.368 443.712 313.146 443.328 315.125 443.328C317.117 443.328 318.868 443.68 320.379 444.383C321.889 445.073 323.068 446.036 323.914 447.273C324.76 448.51 325.184 449.93 325.184 451.531V451.57C325.184 452.703 324.975 453.758 324.559 454.734C324.155 455.698 323.484 456.727 322.547 457.82C321.609 458.901 320.327 460.19 318.699 461.688L310.535 469.129L312.801 465.164V469.129L310.555 467.312H325.574V472H305.086ZM330.059 472.332C329.173 472.332 328.424 472.026 327.812 471.414C327.201 470.802 326.895 470.053 326.895 469.168C326.895 468.283 327.201 467.534 327.812 466.922C328.424 466.31 329.173 466.004 330.059 466.004C330.944 466.004 331.693 466.31 332.305 466.922C332.917 467.534 333.223 468.283 333.223 469.168C333.223 470.053 332.917 470.802 332.305 471.414C331.693 472.026 330.944 472.332 330.059 472.332ZM344.973 472.488C342.837 472.488 340.975 472.143 339.387 471.453C337.798 470.75 336.535 469.78 335.598 468.543C334.673 467.306 334.146 465.88 334.016 464.266L333.996 464.012H339.621L339.66 464.227C339.777 465.229 340.305 466.069 341.242 466.746C342.193 467.41 343.43 467.742 344.953 467.742C345.969 467.742 346.848 467.579 347.59 467.254C348.332 466.915 348.905 466.453 349.309 465.867C349.725 465.268 349.934 464.585 349.934 463.816V463.777C349.934 462.423 349.458 461.388 348.508 460.672C347.557 459.956 346.229 459.598 344.523 459.598H341.301V455.398H344.445C345.435 455.398 346.294 455.236 347.023 454.91C347.753 454.585 348.312 454.135 348.703 453.562C349.107 452.977 349.309 452.306 349.309 451.551V451.512C349.309 450.743 349.133 450.092 348.781 449.559C348.443 449.012 347.941 448.595 347.277 448.309C346.626 448.009 345.839 447.859 344.914 447.859C344.003 447.859 343.195 448.009 342.492 448.309C341.789 448.608 341.229 449.031 340.812 449.578C340.396 450.112 340.142 450.743 340.051 451.473L340.031 451.648H334.621L334.641 451.414C334.771 449.773 335.272 448.354 336.145 447.156C337.03 445.945 338.221 445.008 339.719 444.344C341.216 443.667 342.948 443.328 344.914 443.328C346.945 443.328 348.703 443.641 350.188 444.266C351.685 444.878 352.844 445.737 353.664 446.844C354.484 447.951 354.895 449.246 354.895 450.73V450.77C354.895 451.941 354.634 452.97 354.113 453.855C353.592 454.741 352.883 455.47 351.984 456.043C351.099 456.616 350.109 457.02 349.016 457.254V457.371C351.112 457.566 352.785 458.243 354.035 459.402C355.298 460.561 355.93 462.098 355.93 464.012V464.051C355.93 465.73 355.474 467.202 354.562 468.465C353.651 469.728 352.375 470.717 350.734 471.434C349.094 472.137 347.173 472.488 344.973 472.488ZM368.695 472.488C366.312 472.488 364.262 471.896 362.543 470.711C360.824 469.526 359.503 467.846 358.578 465.672C357.667 463.484 357.211 460.9 357.211 457.918V457.879C357.211 454.884 357.667 452.299 358.578 450.125C359.503 447.951 360.824 446.277 362.543 445.105C364.262 443.921 366.312 443.328 368.695 443.328C371.078 443.328 373.122 443.921 374.828 445.105C376.547 446.277 377.868 447.951 378.793 450.125C379.717 452.299 380.18 454.884 380.18 457.879V457.918C380.18 460.9 379.717 463.484 378.793 465.672C377.868 467.846 376.547 469.526 374.828 470.711C373.122 471.896 371.078 472.488 368.695 472.488ZM368.695 467.762C369.867 467.762 370.863 467.371 371.684 466.59C372.504 465.809 373.129 464.682 373.559 463.211C374.001 461.74 374.223 459.975 374.223 457.918V457.879C374.223 455.809 374.001 454.044 373.559 452.586C373.129 451.115 372.504 449.995 371.684 449.227C370.863 448.445 369.867 448.055 368.695 448.055C367.523 448.055 366.521 448.445 365.688 449.227C364.867 449.995 364.242 451.115 363.812 452.586C363.383 454.044 363.168 455.809 363.168 457.879V457.918C363.168 459.975 363.383 461.74 363.812 463.211C364.242 464.682 364.867 465.809 365.688 466.59C366.521 467.371 367.523 467.762 368.695 467.762Z" fill="#001E6C"/>
<g clip-path="url(#clip0_94_2)">
<path d="M353.217 160.103C347.924 160.103 343.641 155.83 343.641 150.548C343.641 137.875 341.026 128.755 336.298 124.861C333.016 122.169 329.355 122.622 329.308 122.631C324.107 123.649 319.083 120.282 318.054 115.102C317.034 109.922 320.409 104.899 325.6 103.882C326.861 103.632 338.217 101.699 348.461 110.107C357.982 117.914 362.803 131.521 362.803 150.557C362.803 155.839 358.52 160.113 353.226 160.113L353.217 160.103Z" fill="#209F2E"/>
<path d="M236 327.953C226.72 325.733 219.971 323.559 215.855 321.478C209.458 317.408 214.13 312.515 214.13 312.515C216.606 310.147 220.638 309.018 225.802 309.24C237.409 309.74 240.589 315.475 240.718 315.725C240.616 315.521 240.57 315.41 240.57 315.41H240.598C241.961 319.008 245.446 321.589 249.544 321.589C254.819 321.589 259.102 317.316 259.102 312.052C259.102 310.563 258.75 309.157 258.138 307.899L258.184 307.881C257.693 306.724 255.69 302.654 250.795 298.603C246.475 295.032 238.781 290.666 226.636 290.139C213.37 289.556 205.305 294.477 200.883 298.705C195.673 303.681 192.688 310.434 192.688 317.223C192.688 334.104 206.482 340.589 231.93 346.638L232.671 346.777C233.135 346.851 244.148 348.729 243.796 355.768C243.657 358.497 243.342 364.879 228.231 364.879C220.861 364.879 210.237 360.199 208.967 356.406C207.289 351.393 201.865 348.683 196.85 350.357C191.825 352.031 189.109 357.442 190.787 362.447C195.701 377.145 216.031 383.99 228.231 383.999C249.108 383.999 262.078 373.796 262.931 356.721C263.885 337.564 245.993 329.59 236.009 327.944L236 327.953Z" fill="#E74723"/>
<path d="M289.491 270.04H246.967C241.674 270.04 237.391 265.767 237.391 260.485C237.391 255.203 241.674 250.93 246.967 250.93H289.491C294.785 250.93 299.068 255.203 299.068 260.485C299.068 265.767 294.785 270.04 289.491 270.04Z" fill="#E74723"/>
<path d="M157.275 269.761C156.014 269.761 154.726 269.502 153.493 268.984C148.626 266.894 146.391 261.27 148.487 256.423L178.699 186.446C180.794 181.599 186.431 179.361 191.289 181.451C196.156 183.542 198.39 189.166 196.295 194.013L166.082 263.989C164.515 267.606 160.993 269.761 157.275 269.761Z" fill="#557EFF"/>
<path d="M218.497 269.761C214.789 269.761 211.257 267.597 209.69 263.989L179.477 194.013C177.382 189.157 179.626 183.533 184.483 181.451C189.341 179.361 194.978 181.599 197.073 186.446L227.286 256.423C229.381 261.27 227.137 266.894 222.279 268.984C221.037 269.521 219.758 269.761 218.497 269.761Z" fill="#0943D3"/>
<path d="M336.909 382.086C335.649 382.086 334.36 381.827 333.127 381.309C328.269 379.218 326.026 373.594 328.121 368.747L358.334 298.77C360.429 293.923 366.065 291.685 370.923 293.775C375.781 295.866 378.024 301.49 375.929 306.337L345.716 376.314C344.15 379.93 340.618 382.086 336.909 382.086Z" fill="#E74723"/>
<path d="M398.133 382.086C394.415 382.086 390.893 379.921 389.326 376.314L359.113 306.337C357.018 301.481 359.261 295.857 364.119 293.775C368.986 291.685 374.623 293.923 376.709 298.77L406.921 368.747C409.016 373.594 406.773 379.227 401.915 381.309C400.682 381.845 399.394 382.086 398.133 382.086Z" fill="#557EFF"/>
<path d="M9.57643 159.029C8.31564 159.029 7.02703 158.77 5.79405 158.252C0.936285 156.161 -1.30719 150.537 0.787956 145.69L30.9914 75.7139C33.0865 70.8668 38.723 68.6283 43.5808 70.7188C48.4385 72.8093 50.682 78.4334 48.5869 83.2804L18.3742 153.248C16.8075 156.865 13.2846 159.02 9.56716 159.02L9.57643 159.029Z" fill="#0943D3"/>
<path d="M70.7989 159.029C67.0907 159.029 63.5586 156.865 61.9919 153.257L31.7792 83.2804C29.684 78.4334 31.9275 72.8093 36.7853 70.7188C41.643 68.6283 47.2795 70.8668 49.3747 75.7139L79.5874 145.69C81.6825 150.537 79.439 156.161 74.5813 158.252C73.3483 158.789 72.0597 159.029 70.7989 159.029Z" fill="#209F2E"/>
<path d="M300.616 159.308C295.322 159.308 291.039 155.034 291.039 149.753V79.9518C291.039 74.67 295.322 70.3965 300.616 70.3965C305.909 70.3965 310.192 74.67 310.192 79.9518V149.753C310.192 155.034 305.909 159.308 300.616 159.308Z" fill="#557EFF"/>
<path d="M247.116 270.04C241.822 270.04 237.539 265.767 237.539 260.485V190.684C237.539 185.402 241.822 181.129 247.116 181.129C252.409 181.129 256.692 185.402 256.692 190.684V260.485C256.692 265.767 252.409 270.04 247.116 270.04Z" fill="#FFBC00"/>
<path d="M174.463 158.511C169.169 158.511 164.877 154.238 164.877 148.956V79.1549C164.877 73.8731 169.16 69.5996 174.463 69.5996C179.765 69.5996 184.039 73.8731 184.039 79.1549V148.956C184.039 154.238 179.756 158.511 174.463 158.511Z" fill="#0943D3"/>
<path d="M96.2191 158.511C90.9256 158.511 86.6426 154.238 86.6426 148.956V79.1549C86.6426 73.8731 90.9256 69.5996 96.2191 69.5996C101.513 69.5996 105.796 73.8731 105.796 79.1549V148.956C105.796 154.238 101.513 158.511 96.2191 158.511Z" fill="#FFBC00"/>
<path d="M56.3001 381.567C51.0066 381.567 46.7236 377.294 46.7236 372.012V302.211C46.7236 296.929 51.0066 292.646 56.3001 292.646C61.5936 292.646 65.8766 296.92 65.8766 302.211V372.012C65.8766 377.294 61.5936 381.567 56.3001 381.567Z" fill="#0943D3"/>
<path d="M127.359 381.567C122.065 381.567 117.782 377.294 117.782 372.012V302.211C117.782 296.929 122.074 292.646 127.359 292.646C132.643 292.646 136.935 296.92 136.935 302.211V372.012C136.935 377.294 132.652 381.567 127.359 381.567Z" fill="#557EFF"/>
<path d="M328.576 311.887H274.52C269.226 311.887 264.943 307.614 264.943 302.332C264.943 297.05 269.226 292.768 274.52 292.768H328.576C333.87 292.768 338.153 297.041 338.153 302.332C338.153 307.623 333.87 311.887 328.576 311.887Z" fill="#FFBC00"/>
<path d="M173.693 311.887H127.618C122.324 311.887 118.032 307.614 118.032 302.332C118.032 297.05 122.315 292.768 127.618 292.768H173.693C178.986 292.768 183.269 297.041 183.269 302.332C183.269 307.623 178.986 311.887 173.693 311.887Z" fill="#0943D3"/>
<path d="M98.6389 311.887H56.5599C51.2664 311.887 46.9834 307.614 46.9834 302.332C46.9834 297.05 51.2664 292.768 56.5599 292.768H98.6389C103.932 292.768 108.215 297.041 108.215 302.332C108.215 307.623 103.932 311.887 98.6389 311.887Z" fill="#557EFF"/>
<path d="M173.693 381.567H127.618C122.324 381.567 118.032 377.294 118.032 372.012C118.032 366.73 122.315 362.447 127.618 362.447H173.693C178.986 362.447 183.269 366.721 183.269 372.012C183.269 377.303 178.986 381.567 173.693 381.567Z" fill="#209F2E"/>
<path d="M317.377 270.04C312.083 270.04 307.791 265.767 307.791 260.485V190.684C307.791 185.402 312.074 181.129 317.377 181.129C322.68 181.129 326.953 185.402 326.953 190.684V260.485C326.953 265.767 322.67 270.04 317.377 270.04Z" fill="#557EFF"/>
<path d="M363.712 200.358H317.637C312.344 200.358 308.061 196.085 308.061 190.794C308.061 185.503 312.344 181.238 317.637 181.238H363.712C369.005 181.238 373.288 185.512 373.288 190.794C373.288 196.075 369.005 200.358 363.712 200.358Z" fill="#E74723"/>
<path d="M363.712 270.04H317.637C312.344 270.04 308.061 265.767 308.061 260.485C308.061 255.203 312.344 250.93 317.637 250.93H363.712C369.005 250.93 373.288 255.203 373.288 260.485C373.288 265.767 369.005 270.04 363.712 270.04Z" fill="#0943D3"/>
<path d="M387.639 158.511C382.346 158.511 378.062 154.238 378.062 148.956V79.1549C378.062 73.8731 382.346 69.5996 387.639 69.5996C392.932 69.5996 397.215 73.8731 397.215 79.1549V148.956C397.215 154.238 392.932 158.511 387.639 158.511Z" fill="#557EFF"/>
<path d="M433.964 88.7102H387.889C382.596 88.7102 378.312 84.4367 378.312 79.1549C378.312 73.8731 382.596 69.5996 387.889 69.5996H433.964C439.257 69.5996 443.54 73.8731 443.54 79.1549C443.54 84.4367 439.257 88.7102 433.964 88.7102Z" fill="#0943D3"/>
<path d="M433.964 158.511H387.889C382.596 158.511 378.312 154.237 378.312 148.956C378.312 143.674 382.596 139.4 387.889 139.4H433.964C439.257 139.4 443.54 143.674 443.54 148.956C443.54 154.237 439.257 158.511 433.964 158.511Z" fill="#0943D3"/>
<path d="M136.666 158.41C135.637 158.391 134.59 158.215 133.57 157.845C128.592 156.06 125.996 150.584 127.794 145.617C128.119 144.701 128.211 144.442 166.035 74.6135C168.557 69.97 174.369 68.2402 179.023 70.747C183.677 73.263 185.411 79.0535 182.898 83.7063C168.575 110.161 146.956 150.103 145.427 153.026C143.777 156.421 140.31 158.474 136.657 158.419L136.666 158.41Z" fill="#557EFF"/>
<path d="M134.034 158.409C130.381 158.465 126.914 156.411 125.264 153.016C123.734 150.093 102.125 110.152 87.7925 83.6965C85.2802 79.053 87.0138 73.2532 91.6676 70.7372C96.3121 68.2304 102.134 69.9602 104.656 74.6037C142.489 144.442 142.572 144.691 142.897 145.607C144.686 150.574 142.099 156.05 137.121 157.836C136.092 158.206 135.054 158.381 134.025 158.4L134.034 158.409Z" fill="#557EFF"/>
<path d="M337.067 122.964H300.616C295.322 122.964 291.039 118.691 291.039 113.409C291.039 108.127 295.322 103.854 300.616 103.854H337.067C341.174 103.854 344.521 100.515 344.521 96.4168C344.521 92.319 341.174 88.9797 337.067 88.9797H300.616C295.322 88.9797 291.039 84.7062 291.039 79.4244C291.039 74.1427 295.322 69.8691 300.616 69.8691H337.067C351.743 69.8691 363.683 81.7832 363.683 96.426C363.683 111.069 351.743 122.983 337.067 122.983V122.964Z" fill="#0943D3"/>
<path d="M236.983 160.408C213.436 160.408 194.273 139.679 194.273 114.204C194.273 88.7293 213.436 68 236.983 68C260.53 68 279.692 88.7293 279.692 114.204C279.692 139.679 260.53 160.408 236.983 160.408ZM236.983 87.1198C223.995 87.1198 213.436 99.2652 213.436 114.204C213.436 129.143 223.995 141.288 236.983 141.288C249.971 141.288 260.539 129.143 260.539 114.204C260.539 99.2652 249.98 87.1198 236.983 87.1198Z" fill="#FFBC00"/>
<path d="M188.488 250.439C180.451 250.439 172.441 248.682 164.932 245.194C160.13 242.965 158.053 237.276 160.297 232.494C162.531 227.712 168.232 225.64 173.025 227.869C181.915 231.995 191.881 232.429 201.105 229.072C206.084 227.259 211.572 229.821 213.389 234.779C215.206 239.737 212.638 245.231 207.669 247.026C201.421 249.301 194.941 250.43 188.488 250.43V250.439Z" fill="#FFBC00"/>
<path d="M40.7909 139.706C32.7533 139.706 24.7436 137.958 17.2344 134.462C12.4323 132.232 10.3649 126.544 12.5991 121.761C14.8333 116.97 20.5347 114.898 25.3276 117.136C34.218 121.262 44.1931 121.697 53.4081 118.339C58.3863 116.535 63.8745 119.088 65.6915 124.046C67.4993 129.013 64.9406 134.499 59.9716 136.302C53.7233 138.569 47.2432 139.706 40.7909 139.706Z" fill="#FFBC00"/>
<path d="M368.133 362.762C360.095 362.762 352.085 361.004 344.576 357.517C339.774 355.288 337.707 349.599 339.941 344.816C342.175 340.034 347.877 337.953 352.669 340.191C361.56 344.317 371.526 344.752 380.75 341.394C385.728 339.59 391.226 342.143 393.033 347.101C394.841 352.069 392.282 357.554 387.313 359.358C381.065 361.624 374.585 362.762 368.123 362.762H368.133Z" fill="#FFBC00"/>
<path d="M407.672 125.386C399.393 125.386 391.152 123.527 383.476 119.836C378.711 117.542 376.708 111.826 378.998 107.071C381.288 102.317 387.017 100.319 391.792 102.604C400.626 106.849 410.592 107.404 419.854 104.176C424.841 102.428 430.311 105.064 432.063 110.041C433.815 115.017 431.173 120.475 426.185 122.223C420.141 124.332 413.902 125.386 407.681 125.386H407.672Z" fill="#FFBC00"/>
<path d="M72.0039 348.313C65.6814 348.313 59.3403 347.231 53.2032 345.048C48.2249 343.272 45.6199 337.805 47.3998 332.838C49.1798 327.87 54.6587 325.271 59.637 327.047C68.8704 330.331 78.8455 329.832 87.7082 325.641C92.4918 323.375 98.2024 325.41 100.464 330.183C102.736 334.956 100.696 340.663 95.9126 342.92C88.3015 346.519 80.1712 348.332 71.9946 348.332L72.0039 348.313Z" fill="#FFBC00"/>
<path d="M147.531 348.443C139.253 348.443 131.011 346.584 123.335 342.893C118.57 340.599 116.568 334.892 118.858 330.128C121.157 325.374 126.877 323.375 131.651 325.66C140.486 329.906 150.452 330.461 159.713 327.233C164.7 325.485 170.17 328.121 171.922 333.097C173.674 338.074 171.032 343.531 166.045 345.28C160 347.389 153.752 348.443 147.541 348.443H147.531Z" fill="#FFBC00"/>
<path d="M332.711 213.189C340.989 213.189 349.231 215.049 356.907 218.739C361.672 221.033 363.674 226.741 361.384 231.505C359.095 236.259 353.365 238.257 348.591 235.972C339.756 231.727 329.79 231.172 320.529 234.4C315.542 236.148 310.072 233.512 308.32 228.535C306.568 223.559 309.21 218.101 314.197 216.353C320.242 214.244 326.481 213.189 332.701 213.189H332.711Z" fill="#FFBC00"/>
<path d="M110.051 273.406V273.396L110.041 273.406H110.051Z" fill="#E74723"/>
<path d="M117.829 217.352C108.549 215.132 101.8 212.958 97.6838 210.877C91.2871 206.807 95.9595 201.913 95.9595 201.913C98.4347 199.545 102.467 198.417 107.631 198.639C119.238 199.138 122.418 204.873 122.547 205.123C122.445 204.92 122.399 204.809 122.399 204.809H122.427C123.79 208.407 127.275 210.988 131.373 210.988C136.648 210.988 140.931 206.714 140.931 201.451C140.931 199.962 140.579 198.556 139.967 197.298L140.013 197.279C139.522 196.123 137.519 192.053 132.624 188.001C128.304 184.431 120.61 180.065 108.465 179.537C95.1993 178.955 87.1339 183.876 82.7119 188.103C77.5019 193.08 74.5167 199.832 74.5167 206.622C74.5167 223.503 88.3113 229.987 113.759 236.037L114.501 236.175C114.964 236.249 125.978 238.127 125.625 245.167C125.486 247.895 125.171 254.278 110.06 254.278C102.69 254.278 92.0659 249.597 90.7958 245.805C89.1178 240.791 83.6946 238.081 78.6792 239.755C73.6546 241.43 70.9383 246.841 72.6163 251.845C77.5297 266.543 97.86 273.388 110.06 273.398C130.937 273.398 143.907 263.195 144.76 246.119C145.714 226.962 127.822 218.989 117.838 217.342L117.829 217.352Z" fill="#E74723"/>
<path d="M302.053 381.567C296.76 381.567 292.477 377.294 292.477 372.012V302.211C292.477 296.929 296.76 292.646 302.053 292.646C307.347 292.646 311.63 296.92 311.63 302.211V372.012C311.63 377.294 307.347 381.567 302.053 381.567Z" fill="#209F2E"/>
<path d="M247.06 200.128C252.318 200.128 256.581 195.875 256.581 190.629C256.581 185.382 252.318 181.129 247.06 181.129C241.802 181.129 237.539 185.382 237.539 190.629C237.539 195.875 241.802 200.128 247.06 200.128Z" fill="#E74723"/>
<path d="M237.539 160.408C242.798 160.408 247.06 156.155 247.06 150.908C247.06 145.661 242.798 141.408 237.539 141.408C232.281 141.408 228.019 145.661 228.019 150.908C228.019 156.155 232.281 160.408 237.539 160.408Z" fill="#209F2E"/>
<path d="M270.181 123.705C275.439 123.705 279.702 119.451 279.702 114.205C279.702 108.958 275.439 104.705 270.181 104.705C264.923 104.705 260.66 108.958 260.66 114.205C260.66 119.451 264.923 123.705 270.181 123.705Z" fill="#557EFF"/>
<path d="M300.671 159.306C305.929 159.306 310.192 155.053 310.192 149.806C310.192 144.56 305.929 140.307 300.671 140.307C295.413 140.307 291.15 144.56 291.15 149.806C291.15 155.053 295.413 159.306 300.671 159.306Z" fill="#E74723"/>
<path d="M434.019 158.457C439.277 158.457 443.54 154.203 443.54 148.957C443.54 143.71 439.277 139.457 434.019 139.457C428.761 139.457 424.498 143.71 424.498 148.957C424.498 154.203 428.761 158.457 434.019 158.457Z" fill="#209F2E"/>
<path d="M300.671 88.8492C305.929 88.8492 310.192 84.596 310.192 79.3494C310.192 74.1028 305.929 69.8496 300.671 69.8496C295.413 69.8496 291.15 74.1028 291.15 79.3494C291.15 84.596 295.413 88.8492 300.671 88.8492Z" fill="#E74723"/>
<path d="M363.767 269.984C369.025 269.984 373.288 265.731 373.288 260.484C373.288 255.238 369.025 250.984 363.767 250.984C358.509 250.984 354.246 255.238 354.246 260.484C354.246 265.731 358.509 269.984 363.767 269.984Z" fill="#FFBC00"/>
<path d="M302.053 381.568C307.311 381.568 311.574 377.315 311.574 372.068C311.574 366.822 307.311 362.568 302.053 362.568C296.795 362.568 292.532 366.822 292.532 372.068C292.532 377.315 296.795 381.568 302.053 381.568Z" fill="#0943D3"/>
</g>
<path d="M190.284 29.5338C192.487 29.4072 193.919 30.6919 194.031 32.42C194.142 34.1481 192.878 35.5867 190.665 35.7224L173.761 36.7086C171.771 36.8262 170.395 35.641 170.283 33.7048L170.171 31.8229C169.744 24.9105 174.718 21.5177 179.126 18.5229C182.603 16.1615 185.662 14.1438 185.458 10.8958C185.328 8.75147 183.821 7.1048 180.269 7.3129C176.987 7.5029 175.899 9.09528 174.997 10.2986C174.253 11.3391 173.602 12.1715 172.198 12.2529C170.422 12.3524 169.111 11.1672 169 9.49337C168.953 8.8148 169.121 7.96432 169.446 7.15909C170.832 4.07385 175.044 1.41385 180.372 1.09718C187.643 0.671943 191.799 5.00575 192.143 10.5519C192.497 16.3153 188.396 19.8167 184.351 22.6215C180.409 25.3267 176.485 27.3896 176.671 30.321L190.293 29.5248L190.284 29.5338Z" fill="#001E6C"/>
<path d="M195.305 18.1519C195.119 8.44385 200.307 0.165274 209.364 0.00241713C218.42 -0.16044 223.915 7.92813 224.092 17.6362C224.269 27.3443 219.09 35.6229 210.033 35.7767C200.977 35.9305 195.481 27.851 195.305 18.1429V18.1519ZM217.518 17.7629C217.397 11.2577 214.385 6.11861 209.484 6.20004C204.631 6.28146 201.767 11.5291 201.888 18.0343C202.009 24.5396 205.068 29.6786 209.921 29.5972C214.831 29.5067 217.639 24.2681 217.518 17.7629Z" fill="#001E6C"/>
<path d="M246.463 29.2182C248.676 29.2635 249.987 30.6568 249.95 32.3939C249.913 34.122 248.527 35.4611 246.314 35.4068L229.382 35.0268C227.383 34.9816 226.128 33.6968 226.165 31.7516L226.211 29.8606C226.369 22.9392 231.623 19.9535 236.272 17.3296C239.936 15.2577 243.162 13.4935 243.236 10.2454C243.283 8.09203 241.925 6.32774 238.364 6.25536C235.073 6.18298 233.855 7.67584 232.86 8.80679C232.023 9.78393 231.307 10.553 229.903 10.5258C228.127 10.4896 226.918 9.19584 226.955 7.52203C226.974 6.84346 227.206 6.00203 227.606 5.22393C229.243 2.26536 233.669 -0.0508303 239.006 0.0667888C246.286 0.229646 250.061 4.88012 249.931 10.4444C249.792 16.2168 245.403 19.3744 241.135 21.8444C236.979 24.2149 232.897 25.9611 232.822 28.9016L246.463 29.2092V29.2182Z" fill="#001E6C"/>
<path d="M274.972 27.0086C274.61 32.8262 269.905 37.2776 261.992 36.8071C256.664 36.4905 252.917 34.12 251.578 31.3605C251.243 30.6095 251.029 29.75 251.076 29.0171C251.187 27.289 252.666 26.0586 254.33 26.1581C255.948 26.2576 256.785 27.4609 257.389 28.1757C258.496 29.5057 259.89 30.4828 262.317 30.6186C265.981 30.8357 268.203 28.9176 268.37 26.2486C268.538 23.5795 266.567 21.4081 262.903 21.2L261.453 21.1186C259.295 20.9919 258.04 19.5986 258.142 17.8705C258.245 16.1967 259.677 14.9119 261.834 15.0386L263.284 15.12C266.297 15.3009 268.129 13.7267 268.268 11.4738C268.408 9.22095 266.79 7.44761 263.777 7.26666C261.35 7.1219 260.318 8.11714 259.249 8.89523C258.514 9.48333 257.724 9.96285 256.59 9.89952C254.758 9.79095 253.549 8.35237 253.651 6.73285C253.716 5.73761 254.256 4.76952 255.009 3.97333C256.859 2.08237 260.225 0.860946 264.261 1.10523C271.262 1.52142 275.251 6.00904 274.907 11.4557C274.721 14.4957 273.196 17.1919 270.407 18.6033C273.652 20.2681 275.186 23.4076 274.963 27.0176L274.972 27.0086Z" fill="#001E6C"/>
<defs>
<clipPath id="clip0_94_2">
<rect width="443.549" height="316" fill="white" transform="translate(0 68)"/>
</clipPath>
</defs>
</svg>
