<svg width="489" height="80" viewBox="0 0 489 80" fill="none" xmlns="http://www.w3.org/2000/svg">
<path d="M32.675 6.088V13.672C36.707 13.672 41.379 13.416 44.323 12.808L44.707 16.264C42.051 16.776 36.547 17.288 30.819 17.288C29.955 17.288 29.123 17.224 28.227 17.224V2.504H41.795V6.088H32.675ZM55.299 11.848H51.107V21.928H46.563V0.0719986H51.107V8.168H55.299V11.848ZM51.683 29.544H31.427V19.752H35.939V26.024H51.683V29.544ZM63.1132 26.312V23.528L67.1772 19.208C70.3772 15.816 73.1612 12.744 73.1612 9.992C73.1612 7.24 71.5932 6.312 68.7132 6.312C67.2412 6.312 65.2892 7.016 64.0092 7.72L63.4012 4.264C65.0332 3.336 67.4012 2.6 70.1212 2.6C75.4972 2.6 78.1532 5.032 78.1532 9.32C78.1532 13.544 74.1212 17.672 71.7212 20.168L69.3212 22.632H78.2172V26.312H63.1132ZM94.9952 30.44H90.5152V20.232H79.1552V16.616H106.547V20.232H94.9952V30.44ZM82.0352 14.728C81.4592 13.544 80.8512 12.424 80.2752 11.24C85.1712 10.792 89.6832 8.456 90.1632 4.84H81.4592V1.32H104.211V4.84H95.4432C95.9552 8.424 100.595 10.728 105.459 11.176L103.699 14.696C99.6352 14.248 94.6112 12.232 92.8192 8.968C91.0272 12.2 86.0352 14.312 82.0352 14.728ZM108.049 2.376H122.609C122.161 11.944 115.217 17.256 108.497 18.856L106.641 15.272C112.177 14.056 116.689 10.28 117.617 6.088H108.049V2.376ZM135.089 12.136H130.833V21.832H126.321V0.0719986H130.833V8.392H135.089V12.136ZM131.537 29.704H111.185V19.56H115.729V26.024H131.537V29.704ZM154.039 12.968C154.039 8.36 152.471 5.992 150.295 5.992C148.215 5.992 146.647 8.36 146.647 12.968C146.647 17.544 148.215 19.912 150.295 19.912C152.471 19.912 154.039 17.544 154.039 12.968ZM142.295 12.968C142.295 6.632 145.335 2.024 150.295 2.024C155.319 2.024 158.295 6.6 158.295 12.968C158.295 19.208 155.319 23.848 150.295 23.848C145.335 23.848 142.295 19.24 142.295 12.968ZM166.039 0.0719986V11.528H170.263V15.208H166.039V30.408H161.527V0.0719986H166.039ZM189.876 13.64V5.896H177.524V13.64H189.876ZM197.428 26.632H170.036V23.08H181.492V17.192H173.044V2.344H194.388V17.192H185.972V23.08H197.428V26.632ZM211.314 22.664C209.202 23.176 205.298 23.496 202.098 23.496C200.946 23.496 199.858 23.464 198.77 23.464V10.824H205.042V6.696H198.898V2.984H209.522V14.6H203.218V19.784H203.922C205.874 19.784 209.17 19.592 210.994 19.144C211.09 20.328 211.186 21.48 211.314 22.664ZM217.746 29.032H213.554V14.568H210.706V10.92H213.554V0.615999H217.746V29.032ZM223.73 30.408H219.442V0.0719986H223.73V30.408ZM242.672 6.248H226.352V2.728H242.672V6.248ZM250.896 30.408H246.352V14.472H242.352V10.632H246.352V0.0719986H250.896V30.408ZM243.184 19.272L243.568 22.664C239.536 23.272 231.856 23.752 225.84 23.752L225.296 19.976C226.576 20.04 227.984 20.04 229.391 20.04C229.072 16.072 228.688 12.104 228.368 8.104C229.84 7.944 231.312 7.848 232.784 7.688C232.944 11.752 233.072 15.88 233.264 19.976L235.408 19.88L236.208 7.688L240.528 8.136C240.08 11.976 239.696 15.816 239.28 19.656C240.752 19.528 242.064 19.4 243.184 19.272ZM272.877 19.88L270.253 23.496C267.725 22.12 264.205 18.792 263.309 15.816C262.541 18.952 259.053 22.824 256.301 24.232L253.485 20.744C258.733 17.64 260.909 13.128 260.909 6.76V2.568H265.613V6.6C265.613 12.936 268.109 17.224 272.877 19.88ZM278.765 30.408H274.189V0.0719986H278.765V30.408ZM298.954 6.152H282.73V2.6H298.954V6.152ZM306.57 18.792H302.026V0.167999H306.57V18.792ZM285.866 19.976H306.57V30.44H302.026V23.528H285.866V19.976ZM300.042 13.544L300.426 16.936C296.394 17.544 288.202 18.088 282.186 18.088L281.642 14.248C282.794 14.312 284.106 14.312 285.418 14.312C285.162 12.104 284.938 9.768 284.714 7.592L289.034 7.24C289.098 9.544 289.226 11.944 289.322 14.248L292.106 14.184C292.234 11.912 292.33 9.448 292.522 7.24C293.962 7.304 295.37 7.496 296.81 7.592C296.554 9.672 296.33 11.816 296.106 13.928C297.61 13.8 298.954 13.704 300.042 13.544ZM342.449 30.408H338.161V15.432H335.921V29.032H331.697V0.584H335.921V11.816H338.161V0.0719986H342.449V30.408ZM321.873 7.144V19.912C322.033 19.912 322.257 19.944 322.545 19.944C324.305 19.944 328.305 19.752 330.257 19.304L330.673 22.728C328.177 23.272 323.345 23.528 320.657 23.528H317.361V3.624H328.881V7.144H321.873ZM369.294 5.64H346.83V2.056H369.294V5.64ZM369.198 16.52H346.894V13H351.054L350.222 7.624L354.67 7.208L355.15 13H361.134L361.678 7.24L366.158 7.72L365.134 13H369.198V16.52ZM371.822 26.664H344.43V23.112H350.862V17.832H355.342V23.112H360.75V17.832H365.294V23.112H371.822V26.664ZM393.012 21.608C389.172 21.608 386.9 22.6 386.9 24.168C386.9 25.736 389.172 26.728 393.012 26.728C396.98 26.728 399.188 25.736 399.188 24.168C399.188 22.632 396.98 21.608 393.012 21.608ZM403.764 24.168C403.764 27.944 399.732 30.28 393.012 30.28C386.356 30.28 382.324 27.944 382.324 24.168C382.324 20.36 386.356 17.992 393.012 17.992C399.732 17.992 403.764 20.36 403.764 24.168ZM397.492 13.256L395.06 16.776C392.724 16.008 389.588 13.576 388.5 11.016C387.604 13.864 384.116 16.744 381.236 17.672L378.964 14.152C383.508 12.584 386.132 9.064 386.132 4.616V1.896H390.74V4.392C390.74 9.256 393.684 11.944 397.492 13.256ZM407.7 11.048H403.476V17.832H398.964V0.0719986H403.476V7.368H407.7V11.048ZM426.994 26.472V23.624H415.314V26.472H426.994ZM432.21 4.552H410.098V1.032H432.21V4.552ZM431.954 12.808H410.29V9.32H414.162L413.586 5.992L417.842 5.512L418.386 9.32H423.826L424.498 5.576L428.818 6.024C428.53 7.144 428.242 8.232 427.986 9.32H431.954V12.808ZM431.474 29.928H410.802V20.232H418.834V17.832H407.474V14.28H434.866V17.832H423.314V20.232H431.474V29.928ZM438.224 5.96C438.224 2.856 441.84 0.711998 449.008 0.711998C456.144 0.711998 459.792 2.856 459.792 5.96C459.792 9.064 456.144 11.176 449.008 11.176C441.84 11.176 438.224 9.064 438.224 5.96ZM442.96 5.992C442.96 7.08 444.912 7.912 449.008 7.912C453.008 7.912 455.056 7.08 455.056 5.992C455.056 4.936 453.008 4.072 449.008 4.072C444.912 4.072 442.96 4.936 442.96 5.992ZM460.08 30.248H438.704V22.152H454.832V20.872H438.672V17.352H459.344V25.288H443.184V26.568H460.08V30.248ZM462.704 15.944H435.312V12.36H462.704V15.944ZM6.11375 53.224V49.672H14.9458V53.224H6.11375ZM20.0978 68.296L20.4178 71.848C14.1138 72.712 6.56175 73.064 1.15375 73.064L0.577753 69.256C3.39375 69.256 6.08175 69.224 8.54575 69.16V64.808H13.0578V68.936C15.9378 68.776 18.3698 68.552 20.0978 68.296ZM2.36975 58.152V54.568H18.5298V58.152H13.0898C13.7938 60.488 16.8338 62.248 19.6498 62.664L17.8258 66.216C15.2338 65.8 11.6498 64.008 10.6258 61.832C9.40975 64.168 6.20975 66.056 3.36175 66.632L1.40975 63.08C4.83375 62.312 7.58575 60.68 8.12975 58.152H2.36975ZM25.8258 48.072V78.408H21.2498V48.072H25.8258ZM54.1113 78.408H49.8233V63.432H47.5833V77.032H43.3593V48.584H47.5833V59.816H49.8233V48.072H54.1113V78.408ZM33.5353 55.144V67.912C33.6953 67.912 33.9193 67.944 34.2073 67.944C35.9673 67.944 39.9673 67.752 41.9193 67.304L42.3353 70.728C39.8393 71.272 35.0073 71.528 32.3193 71.528H29.0233V51.624H40.5433V55.144H33.5353ZM72.7095 65.896C72.7095 64.264 71.5575 62.984 70.0855 62.984C68.6135 62.984 67.4935 64.232 67.4935 65.896C67.4935 67.592 68.6135 68.808 70.0855 68.808C71.5575 68.808 72.7095 67.528 72.7095 65.896ZM74.3095 53.8H66.6295V50.248H74.3095V53.8ZM76.4855 65.896C76.4855 69.448 73.8935 72.136 70.0855 72.136C66.2135 72.136 63.6855 69.416 63.6855 65.896C63.6855 62.248 66.3735 59.656 70.0855 59.656C73.8935 59.656 76.4855 62.312 76.4855 65.896ZM89.3175 78.408H85.0295V48.072H89.3175V78.408ZM83.3975 77.064H79.2695V68.328H77.0935V64.328H79.2695V61.384H77.0295V58.92H63.2055V55.4H77.2535V57.416H79.2695V48.616H83.3975V77.064ZM117.155 66.504H112.899V59.56H110.883V66.504H106.659V48.616H110.883V56.008H112.899V48.072H117.155V66.504ZM96.611 59.848V62.344C96.931 62.344 97.251 62.376 97.571 62.376C100.291 62.376 103.427 62.024 104.995 61.704C105.123 62.856 105.187 63.944 105.315 65.096C103.427 65.512 98.051 65.864 92.323 65.864V50.472H104.163V53.992H96.611V56.328H103.811V59.848H96.611ZM95.875 67.816H117.155V78.44H112.675V71.368H95.875V67.816ZM139.553 58.28C139.553 55.4 136.929 53.576 132.833 53.576C128.737 53.576 126.113 55.4 126.113 58.28C126.113 61.096 128.737 62.952 132.833 62.952C136.833 62.952 139.553 61.096 139.553 58.28ZM144.129 58.248C144.129 63.048 139.649 66.504 132.833 66.504C126.017 66.504 121.537 63.048 121.537 58.248C121.537 53.416 126.017 50.024 132.833 50.024C139.649 50.024 144.129 53.416 144.129 58.248ZM146.529 74.568H119.137V70.952H146.529V74.568ZM171.742 66.696H162.91V71.112H174.366V74.664H146.974V71.112H158.43V66.696H150.398V56.36H166.462V53.416H150.366V49.832H170.974V59.976H154.91V63.144H171.742V66.696ZM192.868 61.256V54.12H187.396V61.256H192.868ZM197.316 64.808H182.948V50.568H197.316V64.808ZM206.628 77.576H186.116V67.944H190.596V74.024H206.628V77.576ZM206.02 48.072V56.616H210.244V60.328H206.02V70.056H201.508V48.072H206.02ZM234.626 78.184H213.762V69.64H229.282V67.72H213.794V64.2H233.826V72.872H218.306V74.568H234.626V78.184ZM226.882 57.288L227.458 60.936C223.426 61.864 217.218 62.216 213.602 62.216H211.106V49.48H215.554V58.408C218.402 58.408 223.17 58.056 226.882 57.288ZM238.018 57.352H233.826V62.792H229.282V48.072H233.826V53.672H238.018V57.352ZM271.432 58.408L269.704 62.056C265.064 61.384 260.52 58.728 258.952 55.4C257.32 58.728 252.808 61.448 248.2 62.12L246.44 58.504C251.624 57.96 256.584 54.824 256.584 50.12V48.744H261.288V50.12C261.288 54.824 266.216 57.8 271.432 58.408ZM261.064 78.44H256.584V67.88H245.224V64.328H272.616V67.88H261.064V78.44ZM295.438 72.168L292.494 75.432C291.47 74.92 290.318 73.928 289.838 73C288.974 75.432 286.222 77.928 283.694 78.76L281.262 75.24C284.814 73.96 287.342 71.176 287.342 67.336V66.376H291.726V67.272C291.726 70.152 293.678 71.528 295.438 72.168ZM305.614 78.44C303.534 77.736 301.134 75.368 300.494 73.448C299.886 75.4 297.582 77.768 294.99 79.016L292.558 76.008C296.27 74.28 298.19 71.432 298.19 67.56V66.344H302.67V67.624C302.67 71.368 304.622 74.152 308.014 75.176C307.182 76.264 306.446 77.384 305.614 78.44ZM293.294 57.128C293.294 55.08 291.598 53.736 289.454 53.736C287.342 53.736 285.678 55.08 285.678 57.128C285.678 59.176 287.342 60.488 289.454 60.488C291.63 60.488 293.294 59.176 293.294 57.128ZM297.646 57.128C297.646 61.288 294.094 64.2 289.454 64.2C284.814 64.2 281.358 61.288 281.358 57.128C281.358 52.904 284.846 50.088 289.454 50.088C294.126 50.088 297.646 52.904 297.646 57.128ZM301.038 48.04H305.582V65.096H301.038V48.04ZM332.492 77.608H311.628V68.616H316.172V74.088H332.492V77.608ZM332.364 60.136H311.884V49.064H316.428V56.616H332.364V60.136ZM335.66 66.312H308.268V62.728H335.66V66.312ZM370.162 61.256L368.082 64.904C364.274 64.168 358.834 61.224 357.138 56.84C355.442 61.192 349.938 64.2 346.162 64.936L344.146 61.256C349.106 60.68 354.738 56.904 354.738 51.336V49.8H359.57V51.336C359.57 56.904 364.914 60.616 370.162 61.256ZM370.866 74.664H343.474V71.144H350.034V64.744H354.546V71.144H359.666V64.744H364.21V71.144H370.866V74.664ZM391.919 72.488C391.919 71.048 389.615 70.088 385.679 70.088C381.903 70.088 379.567 71.048 379.567 72.488C379.567 73.896 381.903 74.792 385.679 74.792C389.615 74.792 391.919 73.896 391.919 72.488ZM388.783 54.248H372.591V50.696H388.783V54.248ZM396.495 66.76H391.951V48.072H396.495V66.76ZM390.127 61.32L390.447 64.744C386.255 65.256 378.159 65.544 372.111 65.544L371.567 61.832C372.527 61.864 373.807 61.896 375.215 61.896H375.279L374.575 55.816L378.895 55.432C378.959 57.576 379.087 59.72 379.151 61.864C380.079 61.864 381.007 61.832 381.935 61.8C382.095 59.688 382.191 57.576 382.351 55.432C383.791 55.528 385.231 55.656 386.671 55.72L385.935 61.64C387.471 61.576 388.879 61.448 390.127 61.32ZM396.623 72.488C396.623 75.976 392.591 78.216 385.679 78.216C378.895 78.216 374.863 75.976 374.863 72.488C374.863 68.904 378.895 66.664 385.679 66.664C392.591 66.664 396.623 68.904 396.623 72.488ZM432.374 78.408H428.086V63.432H425.846V77.032H421.622V48.584H425.846V59.816H428.086V48.072H432.374V78.408ZM411.798 55.144V67.912C411.958 67.912 412.182 67.944 412.47 67.944C414.23 67.944 418.23 67.752 420.182 67.304L420.598 70.728C418.102 71.272 413.27 71.528 410.582 71.528H407.286V51.624H418.806V55.144H411.798ZM442.931 51.848V48.456H453.139V51.848H442.931ZM460.211 59.208L458.643 62.632C454.035 62.696 449.491 60.872 448.051 58.408C446.611 60.872 442.387 62.696 437.427 62.664L435.859 59.144C440.691 59.144 443.571 57.992 444.755 56.456H437.267V53.032H458.835V56.456H451.411C452.627 58.024 455.539 59.208 460.211 59.208ZM437.331 69.032H445.715V67.112H434.355V63.528H461.747V67.112H450.195V69.032H458.195V78.504H453.683V72.648H437.331V69.032ZM488.209 78.408H484.049V48.072H488.209V78.408ZM481.969 77.032H477.841V62.12H474.417V58.184H477.841V48.648H481.969V77.032ZM477.489 68.008L475.057 71.272C473.073 70.024 470.481 66.92 469.745 64.232C469.169 66.824 466.257 70.632 463.921 71.944L461.489 68.84C466.321 65.544 467.537 61.416 467.537 55.912V54.632H462.737V51.112H476.273V54.632H471.889V55.912C471.889 61.544 473.009 65.192 477.489 68.008Z" fill="#573A00"/>
</svg>
