<svg width="109" height="74" viewBox="0 0 109 74" fill="none" xmlns="http://www.w3.org/2000/svg">
<path d="M27.8848 73.2207C22.123 73.2207 17.1751 71.7396 13.041 68.7773C8.9069 65.8151 5.73307 61.6159 3.51953 56.1797C1.30599 50.7109 0.199219 44.2493 0.199219 36.7949V36.6973C0.199219 29.2428 1.30599 22.7975 3.51953 17.3613C5.73307 11.8926 8.9069 7.69336 13.041 4.76367C17.1751 1.80143 22.123 0.320312 27.8848 0.320312C33.6139 0.320312 38.5456 1.80143 42.6797 4.76367C46.8464 7.69336 50.0365 11.8926 52.25 17.3613C54.4635 22.7975 55.5703 29.2428 55.5703 36.6973V36.7949C55.5703 44.2493 54.4635 50.7109 52.25 56.1797C50.0365 61.6159 46.8464 65.8151 42.6797 68.7773C38.5456 71.7396 33.6139 73.2207 27.8848 73.2207ZM27.8848 62.918C31.0423 62.918 33.7441 61.8763 35.9902 59.793C38.2363 57.7096 39.9453 54.7148 41.1172 50.8086C42.2891 46.9023 42.875 42.2311 42.875 36.7949V36.6973C42.875 31.2611 42.2891 26.6061 41.1172 22.7324C39.9453 18.8262 38.2363 15.8477 35.9902 13.7969C33.7441 11.7135 31.0423 10.6719 27.8848 10.6719C24.6947 10.6719 21.9766 11.7135 19.7305 13.7969C17.5169 15.8477 15.8242 18.8262 14.6523 22.7324C13.4805 26.6061 12.8945 31.2611 12.8945 36.6973V36.7949C12.8945 42.2311 13.4805 46.9023 14.6523 50.8086C15.8242 54.7148 17.5169 57.7096 19.7305 59.793C21.9766 61.8763 24.6947 62.918 27.8848 62.918ZM59.3594 72V63.4062L84.2129 39.1387C87.3053 36.1439 89.6491 33.6536 91.2441 31.668C92.8392 29.6497 93.9297 27.8594 94.5156 26.2969C95.1341 24.7018 95.4434 23.0417 95.4434 21.3164V21.2188C95.4434 19.1029 94.9388 17.2474 93.9297 15.6523C92.9531 14.0247 91.5859 12.7552 89.8281 11.8438C88.1029 10.8997 86.1172 10.4277 83.8711 10.4277C81.2669 10.4277 78.9557 10.9648 76.9375 12.0391C74.9518 13.0807 73.373 14.513 72.2012 16.3359C71.0618 18.1263 70.4759 20.1608 70.4434 22.4395V22.7812H58.627V22.4395C58.627 18.1426 59.7337 14.334 61.9473 11.0137C64.1608 7.69336 67.1556 5.08919 70.9316 3.20117C74.7402 1.2806 79.0208 0.320312 83.7734 0.320312C88.4609 0.320312 92.6113 1.19922 96.2246 2.95703C99.8379 4.68229 102.654 7.07487 104.672 10.1348C106.723 13.1621 107.748 16.6126 107.748 20.4863V20.584C107.748 23.3509 107.243 25.9388 106.234 28.3477C105.258 30.7565 103.581 33.377 101.205 36.209C98.8613 39.041 95.6061 42.4427 91.4395 46.4141L71.4199 65.5059L75.9609 57.2051V65.5059L71.4688 61.6973H108.822V72H59.3594Z" fill="white"/>
</svg>
