<svg width="220" height="119" viewBox="0 0 220 119" fill="none" xmlns="http://www.w3.org/2000/svg">
<path d="M96.891 102.36H92.603C91.803 102.36 91.291 101.848 91.291 101.208C91.291 100.568 91.803 100.056 92.603 100.056H98.075C98.779 100.056 99.259 100.536 99.259 101.24V103.064C99.259 107.192 96.315 111.384 90.971 111.384C85.179 111.384 81.787 106.392 81.787 100.472C81.787 94.552 85.179 89.56 90.971 89.56C93.659 89.56 95.771 90.648 97.211 92.184C97.467 92.472 97.659 92.824 97.659 93.24C97.659 93.944 97.179 94.36 96.603 94.36C96.155 94.36 95.803 94.136 95.451 93.784C94.299 92.6 92.859 91.864 90.971 91.864C86.683 91.864 84.155 95.704 84.155 100.472C84.155 105.24 86.683 109.08 90.971 109.08C94.587 109.08 96.891 106.296 96.891 103.032V102.36ZM103.881 111.224C103.209 111.224 102.697 110.712 102.697 109.88V91.064C102.697 90.232 103.209 89.72 103.881 89.72C104.553 89.72 105.065 90.232 105.065 91.064V109.88C105.065 110.712 104.553 111.224 103.881 111.224ZM111.508 101.56V109.88C111.508 110.712 110.996 111.224 110.324 111.224C109.652 111.224 109.14 110.712 109.14 109.88V91.128C109.14 90.424 109.62 89.944 110.324 89.944H120.82C121.62 89.944 122.132 90.456 122.132 91.096C122.132 91.736 121.62 92.248 120.82 92.248H111.508V99.256H117.428C118.228 99.256 118.74 99.768 118.74 100.408C118.74 101.048 118.228 101.56 117.428 101.56H111.508ZM131.319 92.248V109.88C131.319 110.712 130.807 111.224 130.135 111.224C129.463 111.224 128.951 110.712 128.951 109.88V92.248H123.543C122.743 92.248 122.231 91.736 122.231 91.096C122.231 90.456 122.743 89.944 123.543 89.944H136.727C137.527 89.944 138.039 90.456 138.039 91.096C138.039 91.736 137.527 92.248 136.727 92.248H131.319Z" fill="black"/>
<path d="M3.24909 31.2636C3.24909 23.9051 9.38122 21.2674 16.1854 21.2674C17.311 21.2674 19.4782 21.4018 20.6039 21.5362C20.5703 22.0402 20.0999 23.3338 18.4702 23.2834C15.0597 23.1322 7.23078 22.5778 7.23078 29.55C7.23078 32.8596 9.96924 35.1949 12.0693 36.5389L16.6222 39.4118C20.2175 41.6294 23.7455 44.9391 23.7455 50.332C23.7455 56.5986 19.0078 60.8827 11.6157 60.8827C6.82757 60.8827 3.19869 58.7154 1.90506 56.6154C-0.144583 53.3561 1.72026 50.4664 3.23229 49.2568C4.13951 53.9273 7.18038 59.1186 12.3717 59.1186C17.1598 59.1186 19.495 55.9769 19.495 52.5665C19.495 50.0464 18.991 47.2744 14.8245 44.6031L9.41483 41.075C6.55876 39.1934 3.26589 35.9509 3.26589 31.2804" fill="black"/>
<path d="M59.1438 19C57.111 19.5712 54.5741 22.0409 54.5741 26.2578V60.0601H58.7742V31.6507C58.7742 25.5521 58.791 22.1585 59.127 19" fill="black"/>
<path d="M44.0237 52.5497C44.0237 56.985 40.378 57.9426 38.2108 57.9426C34.3299 57.9426 32.9691 56.1954 32.9691 52.2641V36.3877C30.9026 36.9421 28.7186 39.5798 28.7522 42.3519V53.6417C28.7522 57.4554 31.3058 60.6979 35.7579 60.6979C38.4964 60.6979 41.6212 59.5554 43.7885 57.7914C44.3597 57.321 48.2238 54.2633 48.2238 47.6104V36.4045C46.1573 36.9589 43.9733 39.5966 44.0069 42.3687V52.5665L44.0237 52.5497Z" fill="black"/>
<path d="M107.126 42.4029C107.126 42.0501 107.176 41.7981 107.277 41.6133C107.277 41.6133 107.562 41.2773 107.966 40.9749C109.091 40.2525 110.805 39.3284 112.737 39.3284C116.383 39.3284 118.147 41.7813 118.147 45.427V60.1105H122.28L122.347 44.0493C122.347 40.0677 120.415 36.7244 115.005 36.7244C112.082 36.7244 109.243 38.438 107.193 39.9165C107.109 39.9669 107.092 39.7485 107.092 39.5972V28.2234C107.092 24.1745 107.176 21.5033 107.445 19C106.386 19.2856 105.16 20.1256 104.253 21.4529C103.43 22.5449 102.858 23.9057 102.858 25.3001V60.0937H107.092V42.4029H107.126Z" fill="black"/>
<path d="M167.859 49.0232C167.859 56.1465 172.983 60.7666 179.536 60.7666C186.659 60.7666 191.565 55.6425 191.565 48.5192C191.565 41.3958 186.39 36.7421 180.006 36.7421C173.286 36.7421 167.876 41.8662 167.876 49.0232M172.782 48.284C172.782 42.0174 175.571 37.9685 179.317 37.9685C184.744 37.9685 186.676 44.5879 186.676 49.4264C186.676 53.8113 185.13 59.5066 180.124 59.5066C175.117 59.5066 172.782 53.4585 172.782 48.284Z" fill="black"/>
<path d="M195.194 49.0232C195.194 56.1465 200.318 60.7666 206.87 60.7666C213.976 60.7666 218.865 55.6425 218.865 48.5192C218.865 41.3958 213.691 36.7421 207.307 36.7421C200.586 36.7421 195.177 41.8662 195.177 49.0232M200.082 48.284C200.082 42.0174 202.871 37.9685 206.618 37.9685C212.027 37.9685 213.976 44.5879 213.976 49.4264C213.976 53.8113 212.431 59.5066 207.424 59.5066C202.418 59.5066 200.082 53.4585 200.082 48.284Z" fill="black"/>
<path d="M150.891 43.2085C150.891 37.6812 155.679 36.6732 159.862 36.6732C160.45 36.6732 162.265 36.8076 162.819 36.8412C162.819 37.4796 162.198 38.4876 161.055 38.4876C159.174 38.4876 154.503 37.5636 154.503 41.8477C154.503 44.183 156.906 45.4262 158.888 46.5686C161.912 48.2823 164.718 50.2143 164.718 54.2632C164.718 58.5809 160.719 60.7481 156.519 60.7481C153.831 60.7481 151.563 60.0257 150.538 58.5137C149.379 56.7664 150.32 55.1872 151.126 54.2296C151.916 57.2536 153.865 59.1017 157.074 59.1017C159.14 59.1017 160.904 57.9089 160.904 55.4728C160.904 52.8351 158.619 51.4239 156.519 50.2311C153.209 48.3495 150.874 46.3502 150.874 43.2253" fill="black"/>
<path d="M129.689 41.814H133.67C133.67 41.814 134.074 39.0923 136.291 38.4707C139.819 37.6811 140.726 41.31 140.726 44.1996V46.5685C139.534 47.4085 138.341 47.7445 134.947 48.2989C129.89 49.0885 127.723 51.1046 127.723 55.0695C127.723 58.7487 130.109 61 133.99 61C136.493 61 138.727 59.8912 140.726 57.7071V60.2944H144.876V43.5948C144.876 37.7987 140.256 36.9587 138.106 36.9587C135.552 36.9587 131.117 37.9667 129.689 41.8308M131.453 54.6327C131.453 52.5662 132.192 51.2558 133.754 50.4158C134.443 50.0798 135.082 49.895 138.694 49.0045C140.306 48.6349 140.542 48.5845 140.726 48.5341V52.7174C140.726 55.8759 138.862 58.9672 135.552 58.9672C133.15 58.9672 131.436 57.1359 131.436 54.6327" fill="black"/>
<path d="M98.1379 37.5152C97.0962 37.3136 95.0634 37.7504 93.7026 41.2449L88.7801 53.8283L83.1183 37.4312H80.1951L74.819 53.8787L68.334 37.532H63.7811L72.9541 60.4309H74.1637L80.7495 42.3705L87.1504 60.4309H88.4945L95.0466 44.1177C96.2058 41.2281 97.3819 38.4896 98.1379 37.5152Z" fill="black"/>
</svg>
