<svg width="529" height="410" viewBox="0 0 529 410" fill="none" xmlns="http://www.w3.org/2000/svg">
<path d="M149.05 145.34L144.49 157.64C143.89 159.19 142.86 160.22 141.22 160.22C139.5 160.22 138.3 159.1 138.3 157.21C138.3 156.44 138.47 155.58 138.73 154.89L157.22 105.18C157.91 103.37 159.03 102.43 160.49 102.43C161.95 102.43 163.07 103.38 163.76 105.18L182.25 154.89C182.51 155.58 182.68 156.44 182.68 157.21C182.68 159.1 181.48 160.22 179.76 160.22C178.04 160.22 177.09 159.19 176.49 157.64L171.93 145.34H149.05ZM160.49 114.38L151.29 139.15H169.61L160.49 114.38Z" fill="black"/>
<path d="M241.329 104.92C242.189 103.2 243.309 102.43 244.599 102.43C246.319 102.43 247.699 103.72 247.699 105.78V156.61C247.699 158.84 246.319 160.22 244.519 160.22C242.719 160.22 241.339 158.84 241.339 156.61V118.86L226.459 147.93C225.599 149.56 224.569 150.34 223.279 150.34C221.989 150.34 220.959 149.57 220.099 147.93L205.219 118.86V156.61C205.219 158.84 203.839 160.22 202.039 160.22C200.239 160.22 198.859 158.84 198.859 156.61V105.78C198.859 103.72 200.239 102.43 201.959 102.43C203.249 102.43 204.369 103.2 205.229 104.92L223.289 140.27L241.329 104.92Z" fill="black"/>
<path d="M253.88 131.32C253.88 115.41 263 102 278.56 102C294.12 102 303.24 115.42 303.24 131.32C303.24 147.22 294.12 160.65 278.56 160.65C263 160.65 253.88 147.23 253.88 131.32ZM296.88 131.32C296.88 118.51 290.09 108.19 278.56 108.19C267.03 108.19 260.24 118.51 260.24 131.32C260.24 144.13 267.03 154.45 278.56 154.45C290.09 154.45 296.88 144.13 296.88 131.32Z" fill="black"/>
<path d="M315.799 156.611C315.799 158.841 314.419 160.221 312.619 160.221C310.819 160.221 309.439 158.841 309.439 156.611V106.211C309.439 104.321 310.729 103.031 312.619 103.031H329.129C340.309 103.031 347.529 109.651 347.529 119.541C347.529 126.251 343.999 132.701 335.659 135.111L346.929 154.291C347.449 155.151 347.959 156.091 347.959 157.301C347.959 159.111 346.759 160.221 345.039 160.221C343.229 160.221 342.369 159.101 341.509 157.641L328.949 136.051H315.789V156.601L315.799 156.611ZM329.129 129.861C336.869 129.861 341.169 125.991 341.169 119.541C341.169 113.091 336.869 109.221 329.129 109.221H315.799V129.861H329.129Z" fill="black"/>
<path d="M385.2 153.431C387.35 153.431 388.73 154.811 388.73 156.531C388.73 158.251 387.35 159.631 385.2 159.631H356.48C354.59 159.631 353.3 158.341 353.3 156.451V106.211C353.3 104.321 354.59 103.031 356.48 103.031H384.69C386.84 103.031 388.22 104.411 388.22 106.131C388.22 107.851 386.84 109.231 384.69 109.231H359.66V127.121H375.57C377.72 127.121 379.1 128.501 379.1 130.221C379.1 131.941 377.72 133.321 375.57 133.321H359.66V153.441H385.2V153.431Z" fill="black"/>
<path d="M133.57 316.141C133.57 326.121 126.78 331.621 111.9 331.621H97.71C93.67 331.621 91 328.951 91 324.911V281.741C91 277.701 93.67 275.031 97.71 275.031H109.92C123.77 275.031 131.16 281.311 131.16 290.941C131.16 297.391 127.89 300.661 123.16 302.461C128.75 303.661 133.57 307.791 133.57 316.131V316.141ZM110.78 297.051C114.74 297.051 117.32 295.671 117.32 292.411C117.32 289.151 114.74 287.771 110.78 287.771H104.42V297.061H110.78V297.051ZM112.24 318.891C116.63 318.891 119.46 317.341 119.46 313.731C119.46 310.121 116.62 308.571 112.24 308.571H104.41V318.891H112.24Z" fill="#557EFF"/>
<path d="M169.26 318.549C173.73 318.549 176.48 321.389 176.48 325.089C176.48 328.789 173.73 331.629 169.26 331.629H143.46C139.42 331.629 136.75 328.959 136.75 324.919V281.749C136.75 277.709 139.42 275.039 143.46 275.039H168.74C173.21 275.039 175.96 277.879 175.96 281.579C175.96 285.279 173.21 288.119 168.74 288.119H150.16V296.549H159.88C164.18 296.549 166.85 299.299 166.85 302.829C166.85 306.359 164.18 309.109 159.88 309.109H150.16V318.569H169.25L169.26 318.549Z" fill="#557EFF"/>
<path d="M213.03 289.742V281.572C213.03 277.012 215.95 274.172 219.74 274.172C223.53 274.172 226.45 277.012 226.45 281.572V325.522C226.45 329.822 223.87 332.492 220 332.492C217.33 332.492 215.53 331.292 213.55 328.622L200.82 311.942C197.81 307.902 194.97 303.862 191.96 298.872C192.48 304.982 192.65 311.172 192.65 316.932V325.102C192.65 329.662 189.73 332.502 185.94 332.502C182.15 332.502 179.23 329.662 179.23 325.102V281.152C179.23 276.852 181.81 274.182 185.68 274.182C188.35 274.182 190.15 275.382 192.13 278.052L204.86 294.732C207.87 298.772 210.71 302.812 213.72 307.802C213.2 301.692 213.03 295.502 213.03 289.742Z" fill="#557EFF"/>
<path d="M265.321 318.549C269.791 318.549 272.541 321.389 272.541 325.089C272.541 328.789 269.791 331.629 265.321 331.629H239.521C235.481 331.629 232.811 328.959 232.811 324.919V281.749C232.811 277.709 235.481 275.039 239.521 275.039H264.801C269.271 275.039 272.021 277.879 272.021 281.579C272.021 285.279 269.271 288.119 264.801 288.119H246.221V296.549H255.941C260.241 296.549 262.911 299.299 262.911 302.829C262.911 306.359 260.241 309.109 255.941 309.109H246.221V318.569H265.311L265.321 318.549Z" fill="#557EFF"/>
<path d="M298.43 298.599C302.73 298.599 305.4 301.349 305.4 304.879C305.4 308.409 302.73 311.159 298.43 311.159H288.71V325.089C288.71 329.649 285.79 332.489 282 332.489C278.21 332.489 275.29 329.649 275.29 325.089V281.749C275.29 277.709 277.96 275.039 282 275.039H307.28C311.75 275.039 314.5 277.879 314.5 281.579C314.5 285.279 311.75 288.119 307.28 288.119H288.7V298.609H298.42L298.43 298.599Z" fill="#557EFF"/>
<path d="M316.92 325.082V281.572C316.92 277.012 319.84 274.172 323.63 274.172C327.42 274.172 330.34 277.012 330.34 281.572V325.082C330.34 329.642 327.42 332.482 323.63 332.482C319.84 332.482 316.92 329.642 316.92 325.082Z" fill="#557EFF"/>
<path d="M361.98 325.08C361.98 329.64 359.06 332.48 355.27 332.48C351.48 332.48 348.56 329.64 348.56 325.08V288.1H339.96C335.49 288.1 332.74 285.26 332.74 281.56C332.74 277.86 335.49 275.02 339.96 275.02H370.58C375.05 275.02 377.8 277.86 377.8 281.56C377.8 285.26 375.05 288.1 370.58 288.1H361.98V325.08Z" fill="#557EFF"/>
<path d="M376.689 321.038C376.689 317.688 378.839 315.018 383.049 315.018C388.899 315.018 388.379 320.088 397.499 320.088C402.229 320.088 404.119 318.628 404.119 316.218C404.119 311.828 398.529 311.058 392.769 309.248C385.629 307.098 377.549 302.628 377.549 291.018C377.549 280.608 384.169 273.988 397.499 273.988C409.019 273.988 415.729 278.978 415.729 284.648C415.729 287.998 413.409 290.408 409.539 290.408C404.719 290.408 404.549 286.538 397.759 286.538C393.199 286.538 391.309 288.168 391.309 290.748C391.309 294.958 396.209 296.428 400.939 297.798C408.589 300.118 417.879 303.478 417.879 315.768C417.879 325.748 411.519 332.628 397.329 332.628C385.549 332.628 376.689 327.898 376.689 321.018V321.038Z" fill="#557EFF"/>
<path d="M421.32 324.742C421.32 320.532 424.85 317.002 429.06 317.002C433.27 317.002 436.8 320.532 436.8 324.742C436.8 328.952 433.27 332.482 429.06 332.482C424.85 332.482 421.32 328.952 421.32 324.742ZM422.61 306.342V281.312C422.61 276.922 425.45 274.172 429.06 274.172C432.67 274.172 435.51 276.922 435.51 281.312V306.342C435.51 310.732 432.67 313.482 429.06 313.482C425.45 313.482 422.61 310.732 422.61 306.342Z" fill="#001E6C"/>
<path d="M97.71 275.031C93.67 275.031 91 277.701 91 281.741V324.911C91 328.951 93.67 331.621 97.71 331.621C101.75 331.621 104.42 328.951 104.42 324.911V281.741C104.42 277.701 101.75 275.031 97.71 275.031Z" fill="#001E6C"/>
<path d="M175.97 281.571C175.97 278.571 174.15 276.131 171.07 275.321C170.36 275.131 169.58 275.031 168.74 275.031H143.46C139.54 275.031 136.92 277.541 136.77 281.391H136.76C136.76 281.461 136.76 281.511 136.76 281.571C136.76 281.631 136.76 281.681 136.76 281.741H136.77C136.92 285.591 139.54 288.101 143.46 288.101H168.74C170.14 288.101 171.37 287.821 172.4 287.331C174.67 286.241 175.97 284.111 175.97 281.571Z" fill="#E74723"/>
<path d="M213.029 289.742V281.572C213.029 277.012 215.949 274.172 219.739 274.172C223.529 274.172 226.449 277.012 226.449 281.572V325.522C226.449 329.822 223.869 332.492 219.999 332.492C218.669 332.492 217.549 332.192 216.519 331.552C214.619 330.382 213.549 328.222 213.519 325.982L213.039 289.742H213.029Z" fill="#FFBC00"/>
<path d="M232.81 324.911C232.81 321.401 235.66 318.551 239.17 318.551H265.31C269.78 318.551 272.53 321.391 272.53 325.091C272.53 328.791 269.78 331.631 265.31 331.631H239.04C235.6 331.631 232.8 328.841 232.8 325.391V324.921L232.81 324.911Z" fill="#001E6C"/>
<path d="M275.29 304.87C275.29 301.4 278.1 298.59 281.57 298.59H298.43C302.73 298.59 305.4 301.34 305.4 304.87C305.4 308.4 302.73 311.15 298.43 311.15H281.57C278.1 311.15 275.29 308.34 275.29 304.87Z" fill="#E74723"/>
<path d="M348.57 288.1H339.97C335.5 288.1 332.75 285.26 332.75 281.56C332.75 277.86 335.5 275.02 339.97 275.02H370.59C375.06 275.02 377.81 277.86 377.81 281.56C377.81 285.26 375.06 288.1 370.59 288.1H348.57Z" fill="#001E6C"/>
<path d="M390.45 286.84C384.3 284.61 385.06 275.73 391.49 274.52C393.31 274.18 395.32 274 397.5 274C409.02 274 415.73 278.99 415.73 284.66C415.73 288.01 413.41 290.42 409.54 290.42C404.72 290.42 404.55 286.55 397.76 286.55C396.38 286.55 395.25 286.7 394.34 286.98C393.07 287.37 391.71 287.28 390.46 286.83L390.45 286.84Z" fill="#E74723"/>
<path d="M170.04 331.619C173.652 331.619 176.58 328.691 176.58 325.079C176.58 321.467 173.652 318.539 170.04 318.539C166.428 318.539 163.5 321.467 163.5 325.079C163.5 328.691 166.428 331.619 170.04 331.619Z" fill="#FFBC00"/>
<path d="M383.101 328.029C386.806 328.029 389.811 325.025 389.811 321.319C389.811 317.614 386.806 314.609 383.101 314.609C379.395 314.609 376.391 317.614 376.391 321.319C376.391 325.025 379.395 328.029 383.101 328.029Z" fill="#FFBC00"/>
<path d="M323.63 332.529C327.336 332.529 330.34 329.525 330.34 325.819C330.34 322.114 327.336 319.109 323.63 319.109C319.924 319.109 316.92 322.114 316.92 325.819C316.92 329.525 319.924 332.529 323.63 332.529Z" fill="#FFBC00"/>
<path d="M265.511 288.1C269.123 288.1 272.051 285.171 272.051 281.56C272.051 277.948 269.123 275.02 265.511 275.02C261.899 275.02 258.971 277.948 258.971 281.56C258.971 285.171 261.899 288.1 265.511 288.1Z" fill="#FFBC00"/>
<path d="M119.859 239.101C119.859 243.661 116.939 246.501 113.149 246.501C109.359 246.501 106.439 243.661 106.439 239.101V195.761C106.439 191.721 109.109 189.051 113.149 189.051H127.599C140.499 189.051 148.759 196.531 148.759 208.141C148.759 219.751 140.499 227.231 127.599 227.231H119.859V239.101ZM127.509 214.681C132.149 214.681 135.159 212.621 135.159 208.401C135.159 204.181 132.149 202.121 127.509 202.121H119.859V214.681H127.509Z" fill="#557EFF"/>
<path d="M157.53 236.26L155.47 241.16C154.09 244.34 152.37 246.49 148.76 246.49C144.89 246.49 142.31 243.91 142.31 240.21C142.31 239.01 142.57 237.29 143.26 235.65L160.37 193.77C161.92 189.99 164.07 188.18 167.16 188.18C170.25 188.18 172.41 189.99 173.95 193.77L191.06 235.65C191.75 237.28 192.01 239 192.01 240.21C192.01 243.91 189.43 246.49 185.56 246.49C181.95 246.49 180.23 244.34 178.85 241.16L176.7 236.26H157.52H157.53ZM167.16 210.12C165.7 215.19 164.15 219.67 162.17 224.74H172.15C170.09 219.67 168.62 215.19 167.16 210.12Z" fill="#557EFF"/>
<path d="M211.189 198.511L214.369 192.581C215.919 189.741 217.979 188.191 221.079 188.191C224.779 188.191 227.269 190.601 227.269 194.381C227.269 196.101 226.749 197.911 225.979 199.281L211.619 225.601V239.101C211.619 243.661 208.699 246.501 204.909 246.501C201.119 246.501 198.199 243.661 198.199 239.101V225.601L183.839 199.281C183.069 197.901 182.549 196.101 182.549 194.381C182.549 190.601 185.039 188.191 188.739 188.191C191.839 188.191 193.899 189.741 195.449 192.581L198.629 198.511C200.869 202.641 202.669 206.771 204.909 212.101C207.149 206.771 208.949 202.641 211.189 198.511Z" fill="#557EFF"/>
<path d="M269.42 193.43C271.48 189.65 273.72 188.18 276.47 188.18C280.08 188.18 282.83 190.76 282.83 194.89V239.09C282.83 243.65 279.91 246.49 276.12 246.49C272.33 246.49 269.41 243.65 269.41 239.09V232.64C269.41 228.25 269.75 223.44 270.27 217.68C267.69 223.53 265.37 227.83 263.05 231.96C260.99 235.57 258.84 237.03 256 237.03C253.16 237.03 251.01 235.57 248.95 231.96C246.63 227.83 244.31 223.53 241.73 217.68C242.25 223.44 242.59 228.26 242.59 232.64V239.09C242.59 243.65 239.67 246.49 235.88 246.49C232.09 246.49 229.17 243.65 229.17 239.09V194.89C229.17 190.76 231.92 188.18 235.53 188.18C238.28 188.18 240.52 189.64 242.58 193.43L256 217.17L269.42 193.43Z" fill="#557EFF"/>
<path d="M321.699 232.561C326.169 232.561 328.919 235.401 328.919 239.101C328.919 242.801 326.169 245.641 321.699 245.641H295.899C291.859 245.641 289.189 242.971 289.189 238.931V195.761C289.189 191.721 291.859 189.051 295.899 189.051H321.179C325.649 189.051 328.399 191.891 328.399 195.591C328.399 199.291 325.649 202.131 321.179 202.131H302.599V210.561H312.319C316.619 210.561 319.289 213.311 319.289 216.841C319.289 220.371 316.619 223.121 312.319 223.121H302.599V232.581H321.689L321.699 232.561Z" fill="#557EFF"/>
<path d="M365.48 203.75V195.58C365.48 191.02 368.4 188.18 372.19 188.18C375.98 188.18 378.9 191.02 378.9 195.58V239.53C378.9 243.83 376.32 246.5 372.45 246.5C369.78 246.5 367.98 245.3 366 242.63L353.27 225.95C350.26 221.91 347.42 217.87 344.41 212.88C344.93 218.99 345.1 225.18 345.1 230.94V239.11C345.1 243.67 342.18 246.51 338.39 246.51C334.6 246.51 331.68 243.67 331.68 239.11V195.16C331.68 190.86 334.26 188.19 338.13 188.19C340.8 188.19 342.6 189.39 344.58 192.06L357.31 208.74C360.32 212.78 363.16 216.82 366.17 221.81C365.65 215.7 365.48 209.51 365.48 203.75Z" fill="#557EFF"/>
<path d="M410.019 239.099C410.019 243.659 407.099 246.499 403.309 246.499C399.519 246.499 396.599 243.659 396.599 239.099V202.119H387.999C383.529 202.119 380.779 199.279 380.779 195.579C380.779 191.879 383.529 189.039 387.999 189.039H418.619C423.089 189.039 425.839 191.879 425.839 195.579C425.839 199.279 423.089 202.119 418.619 202.119H410.019V239.099Z" fill="#557EFF"/>
<path d="M189.02 201.272C192.725 201.272 195.73 198.267 195.73 194.562C195.73 190.856 192.725 187.852 189.02 187.852C185.314 187.852 182.31 190.856 182.31 194.562C182.31 198.267 185.314 201.272 189.02 201.272Z" fill="#FFBC00"/>
<path d="M235.88 246.568C239.586 246.568 242.59 243.564 242.59 239.858C242.59 236.153 239.586 233.148 235.88 233.148C232.174 233.148 229.17 236.153 229.17 239.858C229.17 243.564 232.174 246.568 235.88 246.568Z" fill="#FFBC00"/>
<path d="M321.919 202.119C325.531 202.119 328.459 199.191 328.459 195.579C328.459 191.967 325.531 189.039 321.919 189.039C318.307 189.039 315.379 191.967 315.379 195.579C315.379 199.191 318.307 202.119 321.919 202.119Z" fill="#FFBC00"/>
<path d="M372.18 201.549C375.886 201.549 378.89 198.545 378.89 194.839C378.89 191.133 375.886 188.129 372.18 188.129C368.474 188.129 365.47 191.133 365.47 194.839C365.47 198.545 368.474 201.549 372.18 201.549Z" fill="#29ABE2"/>
<path d="M112.689 189.051C116.649 189.051 119.859 192.261 119.859 196.221V239.101C119.859 243.661 116.939 246.501 113.149 246.501C109.359 246.501 106.439 243.661 106.439 239.101V195.291C106.439 191.841 109.239 189.051 112.679 189.051H112.689Z" fill="#001E6C"/>
<path d="M162.17 224.74L157.53 236.26L155.47 241.16C154.09 244.34 152.37 246.49 148.76 246.49C144.89 246.49 142.31 243.91 142.31 240.21C142.31 239.01 142.57 237.29 143.26 235.65L160.37 193.77C161.92 189.99 164.07 188.18 167.16 188.18C168.71 188.18 170.02 188.63 171.14 189.56C173.2 191.27 173.8 194.19 172.85 196.69C170.23 203.61 163.74 220.71 162.17 224.73V224.74Z" fill="#E74723"/>
<path d="M198.88 228.061C198.06 226.401 198 224.461 198.73 222.751C200.47 218.671 209.36 201.911 211.2 198.511L214.38 192.581C215.93 189.741 217.99 188.191 221.09 188.191C224.79 188.191 227.28 190.601 227.28 194.381C227.28 196.101 226.76 197.911 225.99 199.281L210.12 228.271C207.66 232.771 201.16 232.641 198.88 228.051V228.061Z" fill="#001E6C"/>
<path d="M289.199 216.819C289.199 213.349 292.009 210.539 295.479 210.539H312.339C316.639 210.539 319.309 213.289 319.309 216.819C319.309 220.349 316.639 223.099 312.339 223.099H295.479C292.009 223.099 289.199 220.289 289.199 216.819Z" fill="#001E6C"/>
<path d="M396.609 202.119H388.009C383.539 202.119 380.789 199.279 380.789 195.579C380.789 191.879 383.539 189.039 388.009 189.039H418.629C423.099 189.039 425.849 191.879 425.849 195.579C425.849 199.279 423.099 202.119 418.629 202.119H396.609Z" fill="#E74723"/>
<path d="M276.47 188.191C276.41 188.191 276.35 188.191 276.29 188.201C276.24 188.191 276.18 188.191 276.12 188.191C273.26 188.191 270.89 189.811 269.91 192.571C269.68 193.211 269.52 193.911 269.45 194.661C269.42 194.961 269.41 195.271 269.41 195.591V239.101C269.41 243.661 272.34 246.501 276.12 246.501C279.9 246.501 282.83 243.661 282.83 239.101V194.901C282.83 190.771 280.08 188.191 276.47 188.191Z" fill="#E74723"/>
<path d="M365.479 203.75V195.58C365.479 191.02 368.399 188.18 372.189 188.18C375.979 188.18 378.899 191.02 378.899 195.58V239.53C378.899 243.83 376.319 246.5 372.449 246.5C371.119 246.5 369.999 246.2 368.969 245.56C367.069 244.39 365.999 242.23 365.969 239.99L365.489 203.75H365.479Z" fill="#FFBC00"/>
<path d="M2.92699 379.68V377.536H19.823V379.68H12.591V379.808C12.591 383.104 16.559 386.016 20.463 386.752L19.375 388.8C16.207 388.064 12.463 385.696 11.279 383.104C10.479 385.632 6.89499 388.544 3.27899 389.664L2.03099 387.584C6.28699 386.496 9.93499 383.264 9.93499 379.776V379.68H2.92699ZM26.031 401.12H23.471V371.36H26.031V401.12ZM21.551 392.544L21.743 394.656C19.407 394.912 14.831 395.232 11.215 395.424C7.88699 395.616 4.55899 395.744 2.03099 395.712L1.61499 393.44C3.88699 393.472 6.89499 393.44 10.031 393.312V387.424H12.623V393.184C15.983 393.024 19.631 392.8 21.551 392.544ZM7.08699 374.72V372.416H15.375V374.72H7.08699ZM32.8125 391.2H33.7085C36.6845 391.2 41.1645 391.008 43.6605 390.464L43.9165 392.576C41.1005 393.12 36.0765 393.44 32.2045 393.44H30.2205V375.008H41.7725V377.184H32.8125V391.2ZM54.3805 401.12H51.8525V385.248H47.8525V399.584H45.3565V372.064H47.8525V383.072H51.8525V371.36H54.3805V401.12ZM89.9387 400.928H69.5867V393.44H86.2267V390.176H69.4907V388.128H88.8187V395.328H72.1787V398.88H89.9387V400.928ZM66.1627 372.992H79.7307C79.1227 380.832 73.5867 385.568 66.1947 387.712L64.8827 385.632C71.4107 383.968 75.7947 380.032 76.7547 375.168H66.1627V372.992ZM80.0507 377.792V375.744H86.2267V371.36H88.8187V386.496H86.2267V383.296H79.6667V381.216H86.2267V377.792H80.0507ZM117.456 401.12H114.896V371.36H117.456V401.12ZM111.536 399.616H109.008V384.416H104.24V382.272H109.008V372.064H111.536V399.616ZM107.536 392.192L105.904 394.08C103.792 392.608 100.656 389.12 99.7922 385.984C99.1842 389.28 96.4962 392.832 93.6162 394.88L91.8882 393.056C95.3762 390.816 98.5122 386.112 98.5122 380.352V376.992H92.5922V374.848H106.768V376.992H101.072V380.256C101.072 386.144 103.856 389.792 107.536 392.192ZM138.486 388.384C138.486 386.208 136.918 384.736 134.742 384.736C132.534 384.736 130.966 386.24 130.966 388.384C130.966 390.592 132.534 392.032 134.742 392.032C136.918 392.032 138.486 390.528 138.486 388.384ZM140.918 388.384C140.918 391.904 138.454 394.176 134.742 394.176C131.062 394.176 128.566 391.712 128.566 388.384C128.566 384.864 131.062 382.592 134.742 382.592C138.454 382.592 140.918 384.896 140.918 388.384ZM141.75 380.704H127.51V378.56H141.75V380.704ZM138.742 376.128H130.87V373.92H138.742V376.128ZM147.254 399.616H144.726V391.264H141.366V389.152H144.726V384.064H141.142V381.952H144.726V372.064H147.254V399.616ZM152.662 401.12H150.102V371.36H152.662V401.12ZM160.404 390.72H180.468V401.12H177.876V392.896H160.404V390.72ZM159.348 385.248H160.18C163.604 385.248 167.028 384.992 169.364 384.48L169.716 386.624C166.804 387.2 162.772 387.456 158.708 387.456H156.788V373.568H168.308V375.712H159.348V379.264H167.828V381.344H159.348V385.248ZM180.468 389.152H177.908V381.344H174.132V388.992H171.636V371.904H174.132V379.168H177.908V371.36H180.468V389.152ZM185.073 397.952V394.912H187.985V397.952H185.073ZM185.361 392.16L184.977 373.216H188.049L187.665 392.16H185.361ZM201.895 397.472V378.272L197.959 379.04V376.608L203.911 373.952H206.119V397.472H201.895ZM220.641 384.576V376.48H214.337V384.576H220.641ZM224.577 387.68H210.401V373.408H224.577V387.68ZM233.953 400.512H213.569V390.816H217.537V397.376H233.953V400.512ZM233.217 371.072V379.744H237.537V383.04H233.217V393.056H229.185V371.072H233.217ZM250.655 377.696C250.655 376.352 249.247 375.008 247.007 375.008C244.703 375.008 243.327 376.352 243.327 377.696C243.327 379.008 244.703 380.288 247.007 380.288C249.247 380.288 250.655 379.008 250.655 377.696ZM250.111 393.056H246.143V387.648C243.007 387.776 240.031 387.808 237.759 387.808L237.215 384.672C244.671 384.672 252.287 384.288 256.543 383.744L256.767 386.688C254.719 387.008 252.447 387.232 250.111 387.392V393.056ZM263.423 400.608H241.151V391.648H245.151V397.44H263.423V400.608ZM253.183 391.456V388.608H258.943V371.072H262.943V394.528H258.943V391.456H253.183ZM254.591 377.696C254.591 380.96 251.423 383.264 247.007 383.264C242.591 383.264 239.327 380.96 239.327 377.632C239.327 374.432 242.591 372.032 247.007 372.032C251.423 372.032 254.591 374.432 254.591 377.696ZM278.053 384.032C278.053 385.184 279.589 385.888 281.381 385.888C283.141 385.888 284.677 385.184 284.677 384.032C284.677 382.912 283.141 382.176 281.381 382.176C279.557 382.176 278.053 382.912 278.053 384.032ZM288.581 384.032C288.581 386.848 285.509 388.736 281.381 388.736C277.221 388.736 274.117 386.848 274.117 384.032C274.117 381.216 277.189 379.296 281.381 379.296C285.509 379.296 288.581 381.216 288.581 384.032ZM297.029 401.344H276.293V394.176H292.261V392.736H276.261V389.76H296.261V396.864H280.261V398.336H297.029V401.344ZM300.517 382.272H296.261V388.32H292.293V371.072H296.261V379.008H300.517V382.272ZM276.901 374.208V371.232H285.893V374.208H276.901ZM289.925 378.528H272.325V375.488H289.925V378.528ZM305.41 380.832C305.41 383.232 306.978 384.992 309.538 384.992C312.162 384.992 313.698 383.232 313.698 380.832C313.698 378.496 312.162 376.736 309.538 376.736C306.978 376.736 305.41 378.496 305.41 380.832ZM301.346 380.832C301.346 376.512 304.578 373.344 309.538 373.344C314.53 373.344 317.762 376.512 317.762 380.832C317.762 385.184 314.53 388.288 309.538 388.288C304.578 388.288 301.346 385.184 301.346 380.832ZM326.114 400.608H305.09V390.88H309.09V397.472H326.114V400.608ZM325.442 393.088H321.474V371.072H325.442V393.088ZM343.689 395.456C346.761 395.456 348.649 393.312 348.649 389.312V388.48C348.649 383.776 346.377 382.24 343.625 382.24C340.553 382.24 338.665 384.416 338.665 388.384V389.216C338.665 393.92 340.873 395.456 343.689 395.456ZM343.625 397.6C338.857 397.6 336.009 394.528 336.009 389.152V388.64C336.009 383.296 339.113 380.096 343.657 380.096C348.425 380.096 351.305 383.2 351.305 388.544V389.024C351.305 394.4 348.201 397.6 343.625 397.6ZM353.652 397.28V380.416H356.116V382.304H356.308C357.236 381.216 359.092 380.224 360.98 380.224C361.364 380.224 361.844 380.256 362.004 380.32V382.656C361.588 382.592 361.076 382.56 360.788 382.56C359.092 382.56 357.46 383.168 356.276 384.032V397.28H353.652ZM374.082 397.472V378.272L370.146 379.04V376.608L376.098 373.952H378.306V397.472H374.082ZM392.829 384.576V376.48H386.525V384.576H392.829ZM396.765 387.68H382.589V373.408H396.765V387.68ZM406.141 400.512H385.757V390.816H389.725V397.376H406.141V400.512ZM405.405 371.072V379.744H409.725V383.04H405.405V393.056H401.373V371.072H405.405ZM422.842 377.696C422.842 376.352 421.434 375.008 419.194 375.008C416.89 375.008 415.514 376.352 415.514 377.696C415.514 379.008 416.89 380.288 419.194 380.288C421.434 380.288 422.842 379.008 422.842 377.696ZM422.298 393.056H418.33V387.648C415.194 387.776 412.218 387.808 409.946 387.808L409.402 384.672C416.858 384.672 424.474 384.288 428.73 383.744L428.954 386.688C426.906 387.008 424.634 387.232 422.298 387.392V393.056ZM435.61 400.608H413.338V391.648H417.338V397.44H435.61V400.608ZM425.37 391.456V388.608H431.13V371.072H435.13V394.528H431.13V391.456H425.37ZM426.778 377.696C426.778 380.96 423.61 383.264 419.194 383.264C414.778 383.264 411.514 380.96 411.514 377.632C411.514 374.432 414.778 372.032 419.194 372.032C423.61 372.032 426.778 374.432 426.778 377.696ZM470.528 401.408H466.752V386.144H464.096V400H460.384V371.616H464.096V382.944H466.752V371.072H470.528V401.408ZM446.144 374.656H458.048C458.08 383.104 454.304 390.752 446.944 395.872L444.48 393.184C447.84 390.944 450.528 388.096 452.192 384.8L445.472 385.696L444.896 382.368L453.472 381.6C453.792 380.384 454.016 379.136 454.112 377.856H446.144V374.656ZM491.39 391.552L489.086 394.528C486.59 392.992 483.422 389.312 482.398 386.176C481.406 389.632 478.302 393.472 475.166 395.168L472.734 392.256C477.63 389.088 480.254 384.288 480.254 378.272V373.632H484.382V378.048C484.382 384.064 486.814 388.576 491.39 391.552ZM497.662 401.408H493.662V371.072H497.662V401.408ZM509.787 383.744V380.16H505.499V383.744H509.787ZM505.179 390.272H526.203V401.44H522.235V393.44H505.179V390.272ZM526.203 388.736H522.395V381.44H520.123V388.416H516.411V371.616H520.123V378.24H522.395V371.072H526.203V388.736ZM513.787 386.912H501.499V372.992H505.499V377.056H509.787V372.96H513.787V386.912Z" fill="#202F57"/>
<path d="M321.127 52C318.657 52 316.157 51.53 313.727 50.52C298.047 44.05 281.327 40.78 264.007 40.78C246.687 40.78 229.967 44.06 214.287 50.52C204.107 54.72 192.537 49.65 188.437 39.2C184.347 28.75 189.287 16.88 199.467 12.68C219.887 4.27 241.597 0 264.007 0C286.417 0 308.127 4.27 328.537 12.69C338.717 16.89 343.657 28.76 339.567 39.21C336.447 47.17 328.997 52 321.127 52Z" fill="#0943D3"/>
<path d="M221.75 34.7588C222.46 34.5088 223.07 34.7988 223.27 35.3688C223.47 35.9388 223.18 36.5488 222.47 36.7988L213.02 40.1188C212.4 40.3388 211.82 40.0588 211.6 39.4388L205.79 22.9188C205.57 22.2988 205.85 21.7188 206.47 21.4988L215.75 18.2388C216.46 17.9888 217.07 18.2788 217.27 18.8488C217.47 19.4188 217.18 20.0288 216.47 20.2788L208.24 23.1788L210.31 29.0588L215.54 27.2188C216.25 26.9688 216.86 27.2588 217.06 27.8288C217.26 28.3988 216.97 29.0088 216.26 29.2588L211.03 31.0988L213.36 37.7188L221.76 34.7688L221.75 34.7588Z" fill="white"/>
<path d="M232.04 14.7495C232.12 14.1795 232.39 13.7395 232.94 13.6095C233.52 13.4695 234.02 13.7495 234.18 14.3895C234.24 14.6495 234.25 14.9595 234.22 15.2095L231.98 33.5695C231.89 34.2395 231.59 34.6495 231.09 34.7695C230.59 34.8895 230.14 34.6595 229.76 34.0995L219.46 18.7295C219.32 18.5195 219.19 18.2395 219.13 17.9795C218.98 17.3395 219.29 16.8595 219.88 16.7195C220.43 16.5895 220.87 16.8495 221.2 17.3295L230.14 30.7095L232.06 14.7395L232.04 14.7495Z" fill="white"/>
<path d="M250.561 29.05C251.301 28.95 251.841 29.36 251.921 29.96C252.001 30.56 251.591 31.09 250.841 31.19L240.911 32.51C240.261 32.6 239.751 32.21 239.661 31.56L237.351 14.19C237.261 13.54 237.651 13.03 238.301 12.94L248.061 11.64C248.801 11.54 249.341 11.95 249.421 12.55C249.501 13.14 249.091 13.68 248.341 13.78L239.691 14.93L240.511 21.12L246.011 20.39C246.751 20.29 247.291 20.7 247.371 21.3C247.451 21.89 247.041 22.43 246.291 22.53L240.791 23.26L241.721 30.22L250.551 29.05H250.561Z" fill="white"/>
<path d="M265.76 11.9403C265.75 11.1603 266.22 10.6703 266.85 10.6603C267.48 10.6503 267.97 11.1203 267.98 11.9003L268.31 29.6003C268.32 30.3203 267.88 30.8103 267.25 30.8203C266.8 30.8203 266.47 30.6003 266.22 30.2403L255.44 15.5003L255.71 29.7803C255.72 30.5603 255.25 31.0503 254.62 31.0603C253.99 31.0703 253.5 30.6003 253.49 29.8203L253.16 12.1203C253.15 11.4003 253.59 10.9103 254.22 10.9003C254.67 10.9003 255 11.1303 255.25 11.4803L266.03 26.2203L265.76 11.9403Z" fill="white"/>
<path d="M278.041 30.319C277.971 31.099 277.451 31.529 276.821 31.469C276.191 31.409 275.761 30.889 275.831 30.119L277.321 13.649L272.271 13.189C271.521 13.119 271.091 12.599 271.141 11.999C271.191 11.399 271.721 10.969 272.461 11.029L284.771 12.139C285.521 12.209 285.951 12.729 285.901 13.329C285.851 13.929 285.321 14.359 284.581 14.299L279.531 13.839L278.041 30.309V30.319Z" fill="white"/>
<path d="M290.96 22.9978C292.23 17.5978 296.2 13.7178 301.11 14.8778C306.02 16.0378 307.83 21.2778 306.56 26.6778C305.29 32.0778 301.32 35.9578 296.41 34.7978C291.5 33.6378 289.69 28.3978 290.96 22.9978ZM302.99 25.8378C303.84 22.2178 302.95 18.9578 300.29 18.3278C297.66 17.7078 295.37 20.2178 294.52 23.8378C293.67 27.4578 294.59 30.7278 297.22 31.3478C299.88 31.9778 302.14 29.4578 302.99 25.8378Z" fill="white"/>
<path d="M306.051 34.5427C305.941 33.9627 305.981 33.4027 306.121 33.0027C306.441 32.1027 307.401 31.6427 308.331 31.9727C309.041 32.2227 309.261 32.7527 309.641 33.5827C309.931 34.1927 310.341 35.1027 311.891 35.6527C313.841 36.3427 315.431 35.7327 316.081 33.8927C316.741 32.0327 315.881 30.6027 313.961 29.9227C311.901 29.1927 310.981 30.1627 309.681 29.7027C308.631 29.3327 308.311 28.4527 308.651 27.4927C308.811 27.0427 309.021 26.5427 309.191 26.1527L311.881 19.8527C312.291 18.8827 313.151 18.5227 314.201 18.8927L320.981 21.3027C322.141 21.7127 322.581 22.7027 322.251 23.6327C321.921 24.5627 320.951 25.0527 319.791 24.6327L314.621 22.7927L312.821 26.6127C313.881 26.4127 314.851 26.5427 315.761 26.8627C318.981 28.0127 320.851 31.4427 319.561 35.0627C318.341 38.4827 314.901 40.4727 310.631 38.9527C307.971 38.0127 306.391 36.2027 306.061 34.5227L306.051 34.5427Z" fill="white"/>
</svg>
