<svg width="477" height="238" viewBox="0 0 477 238" fill="none" xmlns="http://www.w3.org/2000/svg">
<path d="M26.9825 228.768H6.5345V221.376H23.2705V218.304H6.4705V216.192H25.8625V223.328H9.1265V226.656H26.9825V228.768ZM19.3345 211.936L17.8625 213.952C14.8865 212.8 11.9105 210.336 10.5025 207.232C9.5745 210.272 6.5025 213.184 2.9185 214.88L1.4785 212.896C5.3505 211.36 9.1265 207.808 9.1265 203.04V200.384H11.7505V202.944C11.7505 207.712 15.6545 210.624 19.3345 211.936ZM25.8625 214.56H23.2705V199.36H25.8625V214.56ZM47.492 219.968L45.86 221.952C43.172 220.128 39.684 216.448 38.532 212.864C37.444 216.576 34.372 220.224 30.916 222.688L29.22 220.736C33.572 218.016 37.156 212.608 37.156 207.328V201.952H39.78V207.232C39.78 212.672 43.396 217.536 47.492 219.968ZM53.892 229.12H51.3V199.36H53.892V229.12ZM58.2415 201.984H71.8095C71.4575 210.08 65.9535 215.776 58.3695 218.176L57.0255 216C63.4255 214.368 68.2255 209.632 68.9615 204.16H58.2415V201.984ZM81.0255 228.352H61.3775V219.168H63.9695V226.208H81.0255V228.352ZM84.6415 210.848H80.0975V221.6H77.5055V199.36H80.0975V208.672H84.6415V210.848ZM106.719 209.504C106.719 206.272 103.455 204.128 98.463 204.128C93.503 204.128 90.239 206.272 90.239 209.504C90.239 212.672 93.503 214.784 98.463 214.784C103.423 214.784 106.719 212.672 106.719 209.504ZM109.311 209.472C109.311 214.016 104.991 216.992 98.463 216.992C91.967 216.992 87.647 214.016 87.647 209.472C87.647 204.928 91.967 201.952 98.463 201.952C105.023 201.952 109.311 204.928 109.311 209.472ZM111.935 225.024H85.055V222.848H111.935V225.024ZM139.772 225.312H112.892V223.136H124.988V218.08H116.22V208.768H133.852V204H116.188V201.824H136.444V210.912H118.812V215.904H137.276V218.08H127.58V223.136H139.772V225.312ZM171.843 212.096H151.491V200.96H154.083V209.92H171.843V212.096ZM162.787 229.152H160.195V218.528H148.099V216.352H174.979V218.528H162.787V229.152ZM195.072 218.848L195.328 220.992C192.224 221.472 187.104 221.984 180.576 221.984H177.536V210.528H188.832V204.256H177.408V202.112H191.424V212.672H180.128V219.776H180.864C185.6 219.776 191.456 219.52 195.072 218.848ZM197.792 199.36H200.384V229.12H197.792V199.36ZM227.646 211.008H207.39V200.608H209.982V208.864H227.646V211.008ZM227.774 228.448H207.294V219.68H209.886V226.304H227.774V228.448ZM230.654 216.896H203.774V214.72H230.654V216.896ZM242.852 208.032C242.852 210.4 244.388 212.128 246.756 212.128C249.124 212.128 250.724 210.336 250.724 208.032C250.724 205.792 249.284 203.936 246.756 203.936C244.388 203.936 242.852 205.856 242.852 208.032ZM238.98 208.064C238.98 203.84 242.372 200.64 246.756 200.64C251.108 200.64 254.564 203.808 254.564 208.064C254.564 212.352 251.172 215.232 246.756 215.232C242.436 215.232 238.98 212.352 238.98 208.064ZM255.46 213.184L255.588 209.824H259.812V206.144H255.588L255.46 202.784H259.812V199.072H263.812V216.448H259.812V213.184H255.46ZM242.66 218.016H263.812V229.44H259.812V221.184H242.66V218.016ZM292.353 229.408H288.545V214.208H285.857V228H282.113V199.616H285.857V211.04H288.545V199.072H292.353V229.408ZM271.425 205.824V218.976C274.529 219.072 278.177 218.784 280.193 218.272L280.577 221.408C278.305 222.016 273.857 222.24 270.337 222.24H267.457V202.688H278.913V205.856C276.417 205.856 273.953 205.824 271.425 205.824ZM318.239 229.024H297.823V216.448H301.791V219.84H314.271V216.384H318.239V229.024ZM297.919 200.192H318.303C318.303 204.096 317.919 207.936 317.343 210.848H321.727V214.048H294.335V210.848H313.567C314.015 208.8 314.335 205.216 314.303 203.328H297.919V200.192ZM314.271 225.92V222.848H301.791V225.92H314.271ZM339.173 216.832C339.173 215.04 338.085 213.76 336.325 213.76C334.565 213.76 333.509 215.008 333.509 216.832C333.509 218.624 334.565 219.872 336.325 219.872C338.085 219.872 339.173 218.56 339.173 216.832ZM342.725 216.832C342.725 220.48 340.261 223.008 336.325 223.008C332.453 223.008 329.925 220.32 329.925 216.832C329.925 213.088 332.485 210.624 336.325 210.624C340.261 210.624 342.725 213.152 342.725 216.832ZM343.461 209.472H329.221V206.336H343.461V209.472ZM340.389 204.576H332.773V201.44H340.389V204.576ZM349.541 228H345.829V219.36H343.045V216.256H345.829V212.928H342.949V209.824H345.829V199.648H349.541V228ZM355.397 229.408H351.621V199.072H355.397V229.408ZM383.235 217.216H379.427V209.632H376.835V216.928H373.091V199.616H376.835V206.432H379.427V199.072H383.235V217.216ZM362.403 210.144V213.024C364.643 213.12 369.315 212.8 371.267 212.32L371.555 215.36C369.379 215.904 364.995 216.16 361.187 216.16H358.467V201.248H370.307V204.416H362.403V207.04H370.019V210.144H362.403ZM361.987 218.656H383.235V229.44H379.267V221.824H361.987V218.656ZM410.601 218.816L410.921 220.896C407.593 221.568 401.385 222.016 396.521 222.016H393.993V210.528H405.097V204.256H393.929V202.112H407.689V212.672H396.585V219.84C401.321 219.872 406.601 219.584 410.601 218.816ZM415.753 199.36V211.328H420.553V213.504H415.753V229.12H413.193V199.36H415.753ZM434.631 212.128C434.631 207.232 432.583 203.84 429.415 203.84C426.279 203.84 424.199 207.232 424.199 212.128C424.199 216.992 426.279 220.384 429.415 220.384C432.583 220.384 434.631 216.992 434.631 212.128ZM421.735 212.096C421.735 205.824 424.519 201.6 429.415 201.6C434.343 201.6 437.095 205.824 437.095 212.128C437.095 218.432 434.343 222.624 429.415 222.624C424.519 222.624 421.735 218.432 421.735 212.096ZM445.223 229.12H442.631V199.36H445.223V229.12ZM469.54 214.816V209.504H454.5V214.816H469.54ZM472.132 216.96H451.908V202.016H454.5V207.392H469.54V201.984H472.132V216.96ZM475.46 225.056H448.58V222.88H475.46V225.056Z" fill="#202F57"/>
<path d="M295.127 52C292.657 52 290.157 51.53 287.727 50.52C272.047 44.05 255.327 40.78 238.007 40.78C220.687 40.78 203.967 44.06 188.287 50.52C178.107 54.72 166.537 49.65 162.437 39.2C158.347 28.75 163.287 16.88 173.467 12.68C193.887 4.27 215.597 0 238.007 0C260.417 0 282.127 4.27 302.537 12.69C312.717 16.89 317.657 28.76 313.567 39.21C310.447 47.17 302.997 52 295.127 52Z" fill="#E74723"/>
<path d="M196.011 34.6676C196.721 34.4176 197.331 34.7176 197.531 35.2776C197.731 35.8376 197.431 36.4576 196.731 36.7076L187.271 40.0176C186.651 40.2376 186.071 39.9576 185.861 39.3376L180.07 22.8076C179.85 22.1876 180.131 21.6076 180.751 21.3976L190.041 18.1476C190.751 17.8976 191.361 18.1976 191.561 18.7576C191.761 19.3276 191.461 19.9376 190.761 20.1876L182.521 23.0676L184.58 28.9576L189.82 27.1276C190.53 26.8776 191.141 27.1776 191.341 27.7376C191.541 28.3076 191.241 28.9176 190.541 29.1676L185.301 30.9976L187.621 37.6176L196.031 34.6776L196.011 34.6676Z" fill="white"/>
<path d="M206.341 14.6791C206.421 14.1091 206.691 13.6691 207.241 13.5391C207.821 13.3991 208.321 13.6791 208.471 14.3291C208.531 14.5891 208.541 14.8991 208.511 15.1491L206.241 33.5091C206.151 34.1791 205.851 34.5891 205.351 34.7091C204.851 34.8291 204.401 34.5991 204.021 34.0391L193.741 18.6591C193.601 18.4491 193.471 18.1691 193.411 17.9091C193.261 17.2691 193.581 16.7891 194.161 16.6491C194.711 16.5191 195.151 16.7891 195.481 17.2591L204.401 30.6591L206.351 14.6891L206.341 14.6791Z" fill="white"/>
<path d="M224.82 29.0285C225.56 28.9285 226.101 29.3485 226.181 29.9385C226.261 30.5285 225.84 31.0685 225.1 31.1685L215.171 32.4685C214.511 32.5485 214.011 32.1685 213.921 31.5085L211.651 14.1385C211.561 13.4785 211.95 12.9785 212.61 12.8885L222.371 11.6085C223.111 11.5085 223.65 11.9285 223.73 12.5185C223.81 13.1085 223.401 13.6485 222.651 13.7485L213.99 14.8785L214.801 21.0685L220.301 20.3485C221.041 20.2485 221.581 20.6685 221.661 21.2585C221.741 21.8485 221.33 22.3885 220.58 22.4885L215.08 23.2085L215.99 30.1685L224.82 29.0085V29.0285Z" fill="white"/>
<path d="M240.05 11.9286C240.04 11.1486 240.51 10.6586 241.14 10.6486C241.77 10.6386 242.26 11.1086 242.27 11.8886L242.6 29.5886C242.61 30.3086 242.17 30.7986 241.54 30.8086C241.09 30.8086 240.76 30.5786 240.51 30.2286L229.73 15.4886L230 29.7686C230.01 30.5486 229.54 31.0386 228.91 31.0486C228.28 31.0586 227.79 30.5886 227.78 29.8086L227.45 12.1086C227.44 11.3886 227.88 10.8986 228.51 10.8886C228.96 10.8886 229.29 11.1186 229.54 11.4686L240.32 26.2086L240.05 11.9286Z" fill="white"/>
<path d="M252.311 30.3482C252.241 31.1283 251.72 31.5582 251.09 31.4982C250.46 31.4382 250.03 30.9182 250.1 30.1382L251.621 13.6782L246.57 13.2082C245.82 13.1382 245.39 12.6182 245.44 12.0182C245.49 11.4182 246.021 10.9882 246.761 11.0582L259.07 12.1982C259.82 12.2682 260.25 12.7882 260.2 13.3882C260.14 13.9882 259.621 14.4182 258.881 14.3482L253.83 13.8782L252.311 30.3382V30.3482Z" fill="white"/>
<path d="M265.25 23.0478C266.54 17.6478 270.51 13.7778 275.41 14.9478C280.31 16.1178 282.12 21.3578 280.83 26.7578C279.54 32.1578 275.57 36.0278 270.67 34.8578C265.77 33.6878 263.96 28.4478 265.25 23.0478ZM277.28 25.9078C278.14 22.2878 277.25 19.0278 274.6 18.3878C271.97 17.7578 269.68 20.2678 268.82 23.8878C267.96 27.5078 268.88 30.7778 271.5 31.4078C274.16 32.0378 276.42 29.5278 277.28 25.9078Z" fill="white"/>
<path d="M289.16 23.0082L287.72 22.4982L287.35 23.5482C286.94 24.7082 285.91 25.1682 284.98 24.8382C284.05 24.5082 283.54 23.4982 283.95 22.3382L284.89 19.6782C285.26 18.6282 286.18 18.1982 287.23 18.5682L296.11 21.7182C297.36 22.1582 297.78 22.8482 297.42 23.8682C297.15 24.6282 296.57 25.1882 296.03 25.8282L285.93 37.4282C285.11 38.3782 284.37 38.7882 283.46 38.4682C282.5 38.1282 282.08 37.2482 282.41 36.3182C282.62 35.7282 283.1 35.1882 283.58 34.6282L289.43 28.0082C290.55 26.7482 291.72 25.5082 292.91 24.2082C291.64 23.8482 290.3 23.4082 289.17 23.0082H289.16Z" fill="white"/>
<path d="M32.7598 145.23L28.1998 157.53C27.5998 159.08 26.5698 160.11 24.9298 160.11C23.2098 160.11 22.0098 158.99 22.0098 157.1C22.0098 156.33 22.1798 155.47 22.4398 154.78L40.9298 105.07C41.6198 103.26 42.7398 102.32 44.1998 102.32C45.6598 102.32 46.7798 103.27 47.4698 105.07L65.9598 154.78C66.2198 155.47 66.3898 156.33 66.3898 157.1C66.3898 158.99 65.1898 160.11 63.4698 160.11C61.7498 160.11 60.7998 159.08 60.1998 157.53L55.6398 145.23H32.7598ZM44.1998 114.27L34.9998 139.04H53.3198L44.1998 114.27Z" fill="black"/>
<path d="M125.04 104.81C125.9 103.09 127.02 102.32 128.31 102.32C130.03 102.32 131.41 103.61 131.41 105.67V156.5C131.41 158.74 130.03 160.11 128.23 160.11C126.43 160.11 125.05 158.73 125.05 156.5V118.75L110.17 147.82C109.31 149.45 108.28 150.23 106.99 150.23C105.7 150.23 104.67 149.46 103.81 147.82L88.9303 118.75V156.5C88.9303 158.74 87.5503 160.11 85.7503 160.11C83.9503 160.11 82.5703 158.73 82.5703 156.5V105.67C82.5703 103.61 83.9503 102.32 85.6703 102.32C86.9603 102.32 88.0803 103.09 88.9403 104.81L107 140.16L125.06 104.81H125.04Z" fill="black"/>
<path d="M137.6 131.209C137.6 115.299 146.72 101.879 162.28 101.879C177.84 101.879 186.96 115.299 186.96 131.209C186.96 147.119 177.84 160.539 162.28 160.539C146.72 160.539 137.6 147.119 137.6 131.209ZM180.6 131.209C180.6 118.399 173.81 108.079 162.28 108.079C150.75 108.079 143.96 118.399 143.96 131.209C143.96 144.019 150.75 154.339 162.28 154.339C173.81 154.339 180.6 144.019 180.6 131.209Z" fill="black"/>
<path d="M199.51 156.498C199.51 158.738 198.13 160.108 196.33 160.108C194.53 160.108 193.15 158.728 193.15 156.498V106.098C193.15 104.208 194.44 102.918 196.33 102.918H212.84C224.02 102.918 231.24 109.538 231.24 119.428C231.24 126.138 227.71 132.588 219.37 134.998L230.64 154.178C231.16 155.038 231.67 155.988 231.67 157.188C231.67 158.998 230.47 160.108 228.75 160.108C226.94 160.108 226.08 158.988 225.22 157.528L212.66 135.938H199.5V156.488L199.51 156.498ZM212.84 129.748C220.58 129.748 224.88 125.878 224.88 119.428C224.88 112.978 220.58 109.108 212.84 109.108H199.51V129.748H212.84Z" fill="black"/>
<path d="M268.92 153.31C271.07 153.31 272.45 154.69 272.45 156.41C272.45 158.13 271.07 159.51 268.92 159.51H240.2C238.31 159.51 237.02 158.22 237.02 156.33V106.11C237.02 104.22 238.31 102.93 240.2 102.93H268.41C270.56 102.93 271.94 104.31 271.94 106.03C271.94 107.75 270.56 109.13 268.41 109.13H243.38V127.02H259.29C261.44 127.02 262.82 128.4 262.82 130.12C262.82 131.84 261.44 133.22 259.29 133.22H243.38V153.34H268.92V153.31Z" fill="black"/>
<path d="M319.31 146.44C323.78 146.44 326.53 149.28 326.53 152.98C326.53 156.68 323.78 159.52 319.31 159.52H294.89C290.93 159.52 288.18 156.77 288.18 152.81V109.47C288.18 104.91 291.1 102.07 294.89 102.07C298.68 102.07 301.6 104.91 301.6 109.47V146.45H319.32L319.31 146.44Z" fill="#557EFF"/>
<path d="M328.939 152.969V109.459C328.939 104.899 331.859 102.059 335.649 102.059C339.439 102.059 342.359 104.899 342.359 109.459V152.969C342.359 157.529 339.439 160.369 335.649 160.369C331.859 160.369 328.939 157.529 328.939 152.969Z" fill="#557EFF"/>
<path d="M376.15 120.029L381.31 107.389C382.6 104.119 384.58 102.059 388.19 102.059C391.8 102.059 394.47 104.379 394.47 108.249C394.47 109.539 394.21 111.259 393.52 112.889L376.41 154.769C374.86 158.549 372.71 160.359 369.62 160.359C366.53 160.359 364.37 158.549 362.83 154.769L345.72 112.889C345.03 111.259 344.77 109.539 344.77 108.249C344.77 104.379 347.26 102.059 351.05 102.059C354.84 102.059 356.64 104.119 357.93 107.389L363.09 120.029C365.15 124.929 367.3 130.349 369.63 137.569C371.95 130.349 374.1 124.929 376.17 120.029H376.15Z" fill="#557EFF"/>
<path d="M428.869 146.44C433.339 146.44 436.089 149.28 436.089 152.98C436.089 156.68 433.339 159.52 428.869 159.52H403.069C399.029 159.52 396.359 156.85 396.359 152.81V109.64C396.359 105.6 399.029 102.93 403.069 102.93H428.349C432.819 102.93 435.569 105.77 435.569 109.47C435.569 113.17 432.819 116.01 428.349 116.01H409.769V124.44H419.489C423.789 124.44 426.459 127.19 426.459 130.72C426.459 134.25 423.789 137 419.489 137H409.769V146.46H428.859L428.869 146.44Z" fill="#557EFF"/>
<path d="M439.109 152.629C439.109 148.419 442.639 144.889 446.849 144.889C451.059 144.889 454.589 148.419 454.589 152.629C454.589 156.839 451.059 160.369 446.849 160.369C442.639 160.369 439.109 156.839 439.109 152.629ZM440.399 134.229V109.199C440.399 104.809 443.239 102.059 446.849 102.059C450.459 102.059 453.299 104.809 453.299 109.199V134.229C453.299 138.619 450.459 141.369 446.849 141.369C443.239 141.369 440.399 138.619 440.399 134.229Z" fill="#001E6C"/>
<path d="M326.53 152.97C326.53 149.97 324.71 147.53 321.63 146.72C320.92 146.53 320.14 146.43 319.3 146.43H294.88C291.04 146.43 288.35 149.02 288.19 152.79H288.17C288.17 152.86 288.17 152.91 288.17 152.97C288.17 153.03 288.17 153.08 288.17 153.14H288.19C288.35 156.91 291.05 159.5 294.88 159.5H319.3C320.7 159.5 321.93 159.22 322.96 158.73C325.23 157.64 326.53 155.51 326.53 152.97Z" fill="#E74723"/>
<path d="M435.579 109.462C435.579 106.462 433.759 104.022 430.679 103.212C429.969 103.022 429.189 102.922 428.349 102.922H403.069C399.149 102.922 396.529 105.432 396.379 109.282H396.369C396.369 109.352 396.369 109.402 396.369 109.462C396.369 109.522 396.369 109.572 396.369 109.632H396.379C396.529 113.482 399.149 115.992 403.069 115.992H428.349C429.749 115.992 430.979 115.712 432.009 115.222C434.279 114.132 435.579 112.002 435.579 109.462Z" fill="#E74723"/>
<path d="M376.15 120.029L381.31 107.389C382.6 104.119 384.58 102.059 388.19 102.059C391.8 102.059 394.47 104.379 394.47 108.249C394.47 109.539 394.21 111.259 393.52 112.889L376.41 154.769C374.86 158.549 372.71 160.359 369.62 160.359C368.07 160.359 366.76 159.909 365.64 158.979C363.58 157.269 362.98 154.349 363.93 151.849C366.82 144.219 374.49 123.979 376.16 120.019L376.15 120.029Z" fill="#001E6C"/>
<path d="M294.89 115.389C298.596 115.389 301.6 112.385 301.6 108.679C301.6 104.973 298.596 101.969 294.89 101.969C291.184 101.969 288.18 104.973 288.18 108.679C288.18 112.385 291.184 115.389 294.89 115.389Z" fill="#FFBC00"/>
<path d="M335.649 115.389C339.355 115.389 342.359 112.385 342.359 108.679C342.359 104.973 339.355 101.969 335.649 101.969C331.944 101.969 328.939 104.973 328.939 108.679C328.939 112.385 331.944 115.389 335.649 115.389Z" fill="#FFBC00"/>
<path d="M429.59 159.51C433.202 159.51 436.13 156.582 436.13 152.97C436.13 149.358 433.202 146.43 429.59 146.43C425.978 146.43 423.05 149.358 423.05 152.97C423.05 156.582 425.978 159.51 429.59 159.51Z" fill="#FFBC00"/>
</svg>
