<svg width="259" height="312" viewBox="0 0 259 312" fill="none" xmlns="http://www.w3.org/2000/svg">
<path d="M30.4186 300.544H7.6306V291.94H25.8826V288.772H7.3786V286.036H29.2666V294.46H11.0146V297.808H30.4186V300.544ZM3.7066 269.008H18.9346C18.3586 277.756 11.8426 282.94 3.8506 285.172L2.0146 282.472C8.8906 280.96 13.8586 276.964 15.1186 271.816H3.7066V269.008ZM19.3306 274.696V272.068H25.8826V267.28H29.2666V284.236H25.8826V280.816H18.8986V278.188H25.8826V274.696H19.3306ZM61.4118 300.76H58.1358V267.28H61.4118V300.76ZM54.7878 299.104H51.5478V282.076H46.5798V279.304H51.5478V268.036H54.7878V299.104ZM50.2158 290.644L48.1638 293.056C45.8598 291.508 42.3318 287.692 41.3958 284.344C40.6758 287.872 37.7238 291.652 34.6638 293.74L32.5038 291.4C36.6798 288.7 39.7758 283.66 39.7758 277.108V273.976H33.2598V271.24H49.2438V273.976H43.0878V277C43.0878 283.84 46.5798 288.412 50.2158 290.644ZM94.8268 299.104H91.6228V289.852H88.0228V287.188H91.6228V282.112H87.8428V279.412H91.6228V268.036H94.8268V299.104ZM84.5668 286.504C84.5668 284.164 82.9828 282.544 80.6788 282.544C78.3388 282.544 76.7548 284.2 76.7548 286.504C76.7548 288.844 78.3388 290.464 80.6788 290.464C82.9828 290.464 84.5668 288.772 84.5668 286.504ZM87.6988 286.504C87.6988 290.536 84.9268 293.272 80.6788 293.272C76.4668 293.272 73.6228 290.32 73.6228 286.504C73.6228 282.436 76.4668 279.736 80.6788 279.736C84.9268 279.736 87.6988 282.472 87.6988 286.504ZM88.5268 278.008H72.6868V275.272H88.5268V278.008ZM85.0708 272.968H76.5028V270.16H85.0708V272.968ZM101.019 300.76H97.7428V267.28H101.019V300.76ZM108.828 282.652H109.548C113.58 282.652 117.468 282.436 119.988 281.86L120.42 284.596C117.756 285.172 113.256 285.46 109.368 285.46H105.48V269.656H118.584V272.428H108.828V276.064H118.08V278.764H108.828V282.652ZM109.548 288.88H132.336V300.76H128.952V291.652H109.548V288.88ZM132.336 287.296H129.06V278.584H125.244V287.044H122.004V267.892H125.244V275.812H129.06V267.28H132.336V287.296ZM166.831 284.524V278.44H150.703V284.524H166.831ZM170.215 287.296H160.387V293.884H173.887V296.656H143.647V293.884H157.003V287.296H147.319V269.62H150.703V275.704H166.831V269.62H170.215V287.296ZM176.512 270.844H192.64C192.424 281.464 186.232 289.312 177.088 294.28L175 291.688C182.92 287.908 188.356 280.924 188.968 273.688H176.512V270.844ZM202.432 300.76H199.048V267.28H202.432V300.76Z" fill="white"/>
<path d="M229 272L243 284L229 296" stroke="white" stroke-width="4" stroke-linecap="round" stroke-linejoin="round"/>
<path d="M34.4812 85.656V64.056L30.0532 64.92V62.184L36.7492 59.196H39.2332V85.656H34.4812ZM55.571 71.148V62.04H48.479V71.148H55.571ZM59.999 74.64H44.051V58.584H59.999V74.64ZM70.547 89.076H47.615V78.168H52.079V85.548H70.547V89.076ZM69.719 55.956V65.712H74.579V69.42H69.719V80.688H65.183V55.956H69.719ZM89.3362 63.408C89.3362 61.896 87.7522 60.384 85.2322 60.384C82.6402 60.384 81.0922 61.896 81.0922 63.408C81.0922 64.884 82.6402 66.324 85.2322 66.324C87.7522 66.324 89.3362 64.884 89.3362 63.408ZM88.7242 80.688H84.2602V74.604C80.7322 74.748 77.3842 74.784 74.8282 74.784L74.2162 71.256C82.6042 71.256 91.1722 70.824 95.9602 70.212L96.2122 73.524C93.9082 73.884 91.3522 74.136 88.7242 74.316V80.688ZM103.7 89.184H78.6442V79.104H83.1442V85.62H103.7V89.184ZM92.1802 78.888V75.684H98.6602V55.956H103.16V82.344H98.6602V78.888H92.1802ZM93.7642 63.408C93.7642 67.08 90.2002 69.672 85.2322 69.672C80.2642 69.672 76.5922 67.08 76.5922 63.336C76.5922 59.736 80.2642 57.036 85.2322 57.036C90.2002 57.036 93.7642 59.736 93.7642 63.408ZM142.983 90.084H138.735V72.912H135.747V88.5H131.571V56.568H135.747V69.312H138.735V55.956H142.983V90.084ZM115.551 59.988H128.943C128.979 69.492 124.731 78.096 116.451 83.856L113.679 80.832C117.459 78.312 120.483 75.108 122.355 71.4L114.795 72.408L114.147 68.664L123.795 67.8C124.155 66.432 124.407 65.028 124.515 63.588H115.551V59.988ZM166.452 78.996L163.86 82.344C161.052 80.616 157.488 76.476 156.336 72.948C155.22 76.836 151.728 81.156 148.2 83.064L145.464 79.788C150.972 76.224 153.924 70.824 153.924 64.056V58.836H158.568V63.804C158.568 70.572 161.304 75.648 166.452 78.996ZM173.508 90.084H169.008V55.956H173.508V90.084ZM187.15 70.212V66.18H182.326V70.212H187.15ZM181.966 77.556H205.618V90.12H201.154V81.12H181.966V77.556ZM205.618 75.828H201.334V67.62H198.778V75.468H194.602V56.568H198.778V64.02H201.334V55.956H205.618V75.828ZM191.65 73.776H177.826V58.116H182.326V62.688H187.15V58.08H191.65V73.776Z" fill="#E74723"/>
<path d="M11.2281 142.26L19.2081 123.6H9.27813V120.51H23.4681V122.85L15.5781 142.26H11.2281ZM34.4137 130.29V122.7H28.5037V130.29H34.4137ZM38.1037 133.2H24.8137V119.82H38.1037V133.2ZM46.8937 145.23H27.7837V136.14H31.5037V142.29H46.8937V145.23ZM46.2037 117.63V125.76H50.2537V128.85H46.2037V138.24H42.4237V117.63H46.2037ZM62.5513 123.84C62.5513 122.58 61.2313 121.32 59.1313 121.32C56.9713 121.32 55.6813 122.58 55.6813 123.84C55.6813 125.07 56.9713 126.27 59.1313 126.27C61.2313 126.27 62.5513 125.07 62.5513 123.84ZM62.0413 138.24H58.3213V133.17C55.3813 133.29 52.5913 133.32 50.4613 133.32L49.9513 130.38C56.9413 130.38 64.0813 130.02 68.0713 129.51L68.2813 132.27C66.3613 132.57 64.2313 132.78 62.0413 132.93V138.24ZM74.5213 145.32H53.6413V136.92H57.3913V142.35H74.5213V145.32ZM64.9213 136.74V134.07H70.3213V117.63H74.0713V139.62H70.3213V136.74H64.9213ZM66.2413 123.84C66.2413 126.9 63.2713 129.06 59.1313 129.06C54.9913 129.06 51.9313 126.9 51.9313 123.78C51.9313 120.78 54.9913 118.53 59.1313 118.53C63.2713 118.53 66.2413 120.78 66.2413 123.84ZM95.0172 129.75C95.0172 125.28 93.4272 122.58 91.2072 122.58C89.0772 122.58 87.5172 125.28 87.5172 129.75C87.5172 134.22 89.0772 136.89 91.2072 136.89C93.4272 136.89 95.0172 134.22 95.0172 129.75ZM83.8872 129.75C83.8872 123.78 86.5872 119.58 91.2072 119.58C95.8872 119.58 98.5872 123.78 98.5872 129.78C98.5872 135.69 95.8872 139.89 91.2072 139.89C86.5872 139.89 83.8872 135.72 83.8872 129.75ZM106.567 146.07H102.847V117.63H106.567V146.07ZM121.985 137.52C118.265 137.52 116.105 138.6 116.105 140.34C116.105 142.02 118.265 143.07 121.985 143.07C125.735 143.07 127.925 142.02 127.925 140.34C127.925 138.6 125.735 137.52 121.985 137.52ZM131.735 140.34C131.735 143.82 128.165 146.07 121.985 146.07C115.835 146.07 112.265 143.82 112.265 140.34C112.265 136.77 115.835 134.55 121.985 134.55C128.165 134.55 131.735 136.77 131.735 140.34ZM125.885 130.05L123.755 132.96C121.565 132.12 118.625 129.84 117.365 127.2C116.525 130.11 113.435 132.78 110.795 133.68L108.545 130.71C112.685 129.24 115.415 125.88 115.415 121.59V118.92H119.255V121.38C119.255 125.79 122.555 128.97 125.885 130.05ZM135.455 127.47H131.405V134.25H127.655V117.63H131.405V124.41H135.455V127.47ZM145.331 119.16H164.591C164.591 123.78 164.291 128.04 163.661 131.31H167.861V134.25H156.821V146.07H153.101V134.25H142.181V131.31H160.121C160.631 128.85 160.871 125.64 160.871 122.16H145.331V119.16ZM177.158 135.81V123.93H172.658V135.81H177.158ZM192.458 146.07H188.888V131.82H186.608V144.75H183.098V118.14H186.608V128.82H188.888V117.63H192.458V146.07ZM180.668 121.05V138.66H169.148V121.05H180.668ZM218.924 136.83L216.764 139.62C214.424 138.18 211.454 134.73 210.494 131.79C209.564 135.03 206.654 138.63 203.714 140.22L201.434 137.49C206.024 134.52 208.484 130.02 208.484 124.38V120.03H212.354V124.17C212.354 129.81 214.634 134.04 218.924 136.83ZM224.804 146.07H221.054V117.63H224.804V146.07Z" fill="#001E6C"/>
<path d="M47.0541 33.93H28.4541V25.35H30.8841V31.92H47.0541V33.93ZM40.5141 20.82L39.1341 22.77C36.2841 21.51 33.4041 18.87 32.2641 15.93C31.4241 18.93 28.2141 22.14 25.1541 23.67L23.6841 21.78C27.3741 20.13 30.9741 16.05 30.9741 11.58V8.49H33.4341V11.52C33.4341 16.17 37.1841 19.62 40.5141 20.82ZM46.4541 27.15H44.0241V6.9H46.4541V27.15ZM62.0818 20.52C62.0818 18.66 60.0718 17.55 57.8218 17.55C55.5718 17.55 53.5618 18.66 53.5618 20.52C53.5618 22.35 55.5718 23.46 57.8218 23.46C60.0718 23.46 62.0818 22.35 62.0818 20.52ZM64.3918 20.52C64.3918 23.46 61.5718 25.41 57.8218 25.41C54.1018 25.41 51.2518 23.46 51.2518 20.52C51.2518 17.52 54.0718 15.63 57.8218 15.63C61.5718 15.63 64.3918 17.52 64.3918 20.52ZM65.9818 14.13H49.6318V12.12H65.9818V14.13ZM61.6618 10.02H53.6218V7.89H61.6618V10.02ZM72.2818 33.9H53.7118V26.73H56.1418V31.86H72.2818V33.9ZM75.4618 18.39H71.2018V27.48H68.7718V6.9H71.2018V16.35H75.4618V18.39ZM77.4994 9.75H90.3694C90.1894 19.86 85.2994 25.86 77.6494 29.55L76.1494 27.72C80.7394 25.77 84.2794 22.62 86.2294 18.48L76.8094 19.32L76.2994 17.1L87.0094 16.47C87.4594 15 87.7294 13.44 87.8194 11.79H77.4994V9.75ZM97.2994 6.9V18.33H101.859V20.4H97.2994V34.8H94.8694V6.9H97.2994ZM127.147 30.96H101.947V28.92H127.147V30.96ZM124.117 22.8H105.127V9.66H123.847V11.67H107.557V20.79H124.117V22.8ZM160.963 20.16H156.403V34.8H153.973V6.9H156.403V18.12H160.963V20.16ZM146.443 25.77V11.79H138.253V25.77H146.443ZM148.873 27.78H135.823V9.78H148.873V27.78ZM174.071 18.87C174.071 14.28 172.151 11.1 169.181 11.1C166.241 11.1 164.291 14.28 164.291 18.87C164.291 23.43 166.241 26.61 169.181 26.61C172.151 26.61 174.071 23.43 174.071 18.87ZM161.981 18.84C161.981 12.96 164.591 9 169.181 9C173.801 9 176.381 12.96 176.381 18.87C176.381 24.78 173.801 28.71 169.181 28.71C164.591 28.71 161.981 24.78 161.981 18.84ZM184.001 34.8H181.571V6.9H184.001V34.8ZM206.168 32.43V28.98H193.478V32.43H206.168ZM212.858 16.68V18.75H208.598V22.17H206.168V6.9H208.598V10.83H212.858V12.87H208.598V16.68H212.858ZM202.928 19.35L201.488 21.27C198.818 19.98 196.058 17.58 194.948 14.76C194.078 17.73 191.528 20.19 188.108 22.02L186.608 20.13C190.538 18.39 193.628 14.91 193.628 10.47V8.04H196.088V10.38C196.088 14.85 199.778 18.21 202.928 19.35ZM208.598 34.41H191.048V23.61H193.478V27H206.168V23.52H208.598V34.41Z" fill="#161D30"/>
</svg>
