<svg width="145" height="31" viewBox="0 0 145 31" fill="none" xmlns="http://www.w3.org/2000/svg">
<path d="M5.632 4.232V1.096H14.4V4.232H5.632ZM26.08 20.168H22.112V12.904H17.504V9.704H22.112V0.0719986H26.08V20.168ZM27.616 27.624C27.008 28.68 26.368 29.672 25.76 30.728C21.76 30.024 17.376 27.4 15.904 24.648C14.592 27.432 10.304 29.992 6.016 30.728C5.408 29.64 4.768 28.616 4.16 27.528C9.44 26.92 13.92 24.008 13.92 19.848V19.112H18.016V19.848C18.016 24.008 22.528 26.76 27.616 27.624ZM2.016 9.032V5.864H17.952V9.032H12.16C12.768 12.584 15.68 14.472 18.752 15.336L16.768 18.44C14.432 17.672 11.264 15.624 10.016 13.032C8.992 15.752 5.92 18.344 2.912 19.272C2.208 18.28 1.472 17.224 0.736 16.232C4.544 14.952 7.296 12.648 7.808 9.032H2.016ZM39.5902 1.704H60.1343C60.1343 6.632 59.8143 11.176 59.1423 14.664H63.6223V17.8H51.8463V30.408H47.8783V17.8H36.2302V14.664H55.3663C55.9102 12.04 56.1663 8.616 56.1663 4.904H39.5902V1.704ZM73.5398 19.464V6.792H68.7398V19.464H73.5398ZM89.8598 30.408H86.0518V15.208H83.6198V29H79.8758V0.615999H83.6198V12.008H86.0518V0.0719986H89.8598V30.408ZM77.2838 3.72V22.504H64.9958V3.72H77.2838ZM119.05 26.312H114.218L105.61 14.472C108.458 10.632 111.37 6.792 114.25 2.984H118.57C115.786 6.664 113.002 10.344 110.186 14.024C113.162 18.12 116.106 22.216 119.05 26.312ZM101.002 26.312V2.984H105.194V26.312H101.002ZM120.998 26.312V2.984H125.222V26.312H120.998ZM134.104 26.312V6.28H127.416V2.984H144.952V6.28H138.296V26.312H134.104Z" fill="white"/>
</svg>
