<svg width="256" height="31" viewBox="0 0 256 31" fill="none" xmlns="http://www.w3.org/2000/svg">
<path d="M24.888 30.12H3.448V22.312H19.832V20.552H3.48V17.384H23.8V25.128H7.416V26.888H24.888V30.12ZM24.184 10.248H15.64V12.552H27.416V15.72H0.024V12.552H11.672V10.248H3.672V0.711998H23.96V3.912H7.64V7.08H24.184V10.248ZM48.0535 24.936C48.0535 23.336 45.4935 22.472 41.5255 22.472C37.6215 22.472 35.0615 23.336 35.0615 24.936C35.0615 26.44 37.6215 27.272 41.5255 27.272C45.4935 27.272 48.0535 26.44 48.0535 24.936ZM52.5015 4.168H30.4855V0.999998H52.5015V4.168ZM52.4055 12.744H30.5495V9.608H34.7415C34.4855 8.296 34.1975 6.984 33.9735 5.64L37.8135 5.096C38.0055 6.6 38.2295 8.104 38.4535 9.608H44.5335L45.3015 5.096L49.1735 5.64C48.8535 6.984 48.5975 8.296 48.2775 9.608H52.4055V12.744ZM52.1495 24.904C52.1495 28.328 48.2775 30.408 41.5575 30.408C34.8375 30.408 30.9655 28.328 30.9655 24.904C30.9655 21.8 34.0695 19.784 39.5095 19.4V17.672H27.8615V14.472H55.2535V17.672H43.4775V19.4C49.0135 19.784 52.1495 21.768 52.1495 24.904ZM68.435 13C68.435 8.232 66.739 5.352 64.371 5.352C62.099 5.352 60.435 8.232 60.435 13C60.435 17.768 62.099 20.616 64.371 20.616C66.739 20.616 68.435 17.768 68.435 13ZM56.563 13C56.563 6.632 59.443 2.152 64.371 2.152C69.363 2.152 72.243 6.632 72.243 13.032C72.243 19.336 69.363 23.816 64.371 23.816C59.443 23.816 56.563 19.368 56.563 13ZM80.755 30.408H76.787V0.0719986H80.755V30.408ZM117.721 14.024L115.705 17.128C111.577 16.168 106.329 13.032 104.601 9.032C103.033 13.128 97.5932 16.36 93.4332 17.256L91.5452 14.024C96.5052 13.32 102.553 9.32 102.553 3.944V1.928H106.713V3.944C106.713 9.256 113.113 13.256 117.721 14.024ZM118.297 26.472H90.9052V23.304H118.297V26.472ZM142.903 15.912H134.359V23.496H146.135V26.632H118.743V23.496H130.391V15.912H122.103V2.312H126.071V12.776H142.903V15.912ZM166.868 8.104C166.868 6.12 164.308 4.584 160.244 4.584C156.116 4.584 153.588 6.12 153.588 8.104C153.588 10.12 156.116 11.656 160.244 11.656C164.308 11.656 166.868 10.12 166.868 8.104ZM162.196 30.44H158.228V20.36H146.58V17.16H173.972V20.36H162.196V30.44ZM171.028 8.104C171.028 12.136 166.836 14.824 160.244 14.824C153.684 14.824 149.46 12.136 149.46 8.104C149.46 4.136 153.684 1.416 160.244 1.416C166.836 1.416 171.028 4.136 171.028 8.104ZM183.858 19.336V6.792H179.09V19.336H183.858ZM200.21 30.408H196.402V0.0719986H200.21V30.408ZM187.602 3.72V10.984H190.45V0.647999H194.162V29H190.45V14.184H187.602V22.376H175.346V3.72H187.602ZM214.991 13C214.991 8.232 213.295 5.352 210.927 5.352C208.655 5.352 206.991 8.232 206.991 13C206.991 17.768 208.655 20.616 210.927 20.616C213.295 20.616 214.991 17.768 214.991 13ZM203.119 13C203.119 6.632 205.999 2.152 210.927 2.152C215.919 2.152 218.799 6.632 218.799 13.032C218.799 19.336 215.919 23.816 210.927 23.816C205.999 23.816 203.119 19.368 203.119 13ZM227.311 30.408H223.343V0.0719986H227.311V30.408ZM231.693 3.176H245.517C245.485 13.352 240.909 20.808 231.885 25.512L229.613 22.472C233.869 20.552 237.357 17.416 239.373 13.448L230.765 14.376L230.221 10.952C233.677 10.696 237.197 10.472 240.653 10.184C241.005 9 241.197 7.752 241.293 6.472H231.693V3.176ZM255.181 30.408H251.213V15.208H245.453V11.848H251.213V0.0719986H255.181V30.408Z" fill="white"/>
</svg>
