<svg width="79" height="30" viewBox="0 0 79 30" fill="none" xmlns="http://www.w3.org/2000/svg">
<path d="M17.9835 14.4L15.8535 17.31C13.6935 16.5 10.7235 13.95 9.49352 11.31C8.62352 14.19 5.56352 17.16 2.89352 18.06L0.673516 15.09C4.81352 13.56 7.51352 9.87 7.51352 5.61V2.25H11.4135V5.43C11.4135 9.75 14.6535 13.32 17.9835 14.4ZM25.1835 28.32H5.83352V19.38H9.55352V25.35H25.1835V28.32ZM24.5835 21.27H20.8335V10.17H15.9735V7.17H20.8335V0.629999H24.5835V21.27ZM31.1512 4.47V1.56H39.4012V4.47H31.1512ZM53.4412 11.07H49.3612V18.06H45.6712V0.629999H49.3612V8.01H53.4412V11.07ZM30.6712 19.41H49.3912V29.1H45.6712V22.38H30.6712V19.41ZM43.4512 14.61L41.5912 17.49C39.4012 16.83 36.4612 14.85 35.2912 12.45C34.2712 15 31.4212 17.37 28.6312 18.27C27.9712 17.31 27.2512 16.35 26.5612 15.39C30.0712 14.22 32.5912 12.21 33.1912 9H27.7612V6.06H42.7612V9H37.3312C38.0212 12.15 40.6612 13.83 43.4512 14.61ZM75.9688 28.32H56.5588V20.19H60.2788V25.38H75.9688V28.32ZM66.1288 6.72C64.6888 9.99 60.0388 12.57 55.9288 13.17L54.3688 10.26C59.1388 9.78 64.2088 6.69 64.2088 2.49V1.62H68.0788V2.49C68.0788 6.69 73.8388 10.05 77.9188 10.29L76.3288 13.2C72.5188 12.63 67.5688 9.99 66.1288 6.72ZM68.2288 22.86H64.5088V17.82H53.2588V14.85H78.9388V17.82H68.2288V22.86Z" fill="#452E00"/>
</svg>
