<svg width="248" height="90" viewBox="0 0 248 90" fill="none" xmlns="http://www.w3.org/2000/svg">
<path d="M91.1671 70.736H100.479V57.584L91.1671 70.736ZM100.431 82.544V75.392H84.3511V71.744L102.063 46.976H106.335V70.736H111.471V75.392H106.335V82.544H100.431ZM111.16 88.88L113.176 78.56H119.608L115.96 88.88H111.16ZM131.925 51.296C128.133 51.296 126.069 54.08 126.069 58.352C126.069 63.056 128.709 65.12 132.309 65.12C134.853 65.12 137.445 63.392 138.645 61.712V60.848C138.645 55.04 136.629 51.296 131.925 51.296ZM131.781 46.64C140.181 46.64 144.885 52.16 144.885 62.048V64.352C144.885 77.888 138.645 82.592 130.149 82.592C126.645 82.592 123.285 81.392 121.653 80.384L122.709 75.824C124.149 76.592 127.317 77.552 129.813 77.552C134.901 77.552 138.357 75.44 138.693 66.56C136.917 68.192 134.133 69.68 130.485 69.68C124.485 69.68 120.069 65.552 120.069 58.832C120.069 51.968 124.005 46.64 131.781 46.64ZM161.457 77.792C166.161 77.792 168.513 74.432 168.513 66.08V63.44C168.513 55.136 166.113 51.44 161.505 51.44C156.801 51.44 154.449 54.944 154.449 63.104V65.792C154.449 73.904 156.753 77.792 161.457 77.792ZM161.457 82.592C153.825 82.592 147.873 77.696 147.873 65.792V63.632C147.873 51.104 154.353 46.592 161.553 46.592C168.801 46.592 174.993 51.152 174.993 63.44V65.648C174.993 77.936 168.801 82.592 161.457 82.592ZM192.011 77.792C196.715 77.792 199.067 74.432 199.067 66.08V63.44C199.067 55.136 196.667 51.44 192.059 51.44C187.355 51.44 185.003 54.944 185.003 63.104V65.792C185.003 73.904 187.307 77.792 192.011 77.792ZM192.011 82.592C184.379 82.592 178.427 77.696 178.427 65.792V63.632C178.427 51.104 184.907 46.592 192.107 46.592C199.355 46.592 205.547 51.152 205.547 63.44V65.648C205.547 77.936 199.355 82.592 192.011 82.592ZM227.748 52.544C227.748 50.528 225.636 48.512 222.276 48.512C218.82 48.512 216.756 50.528 216.756 52.544C216.756 54.512 218.82 56.432 222.276 56.432C225.636 56.432 227.748 54.512 227.748 52.544ZM226.932 75.584H220.98V67.472C216.276 67.664 211.812 67.712 208.404 67.712L207.588 63.008C218.772 63.008 230.196 62.432 236.58 61.616L236.916 66.032C233.844 66.512 230.436 66.848 226.932 67.088V75.584ZM246.9 86.912H213.492V73.472H219.492V82.16H246.9V86.912ZM231.54 73.184V68.912H240.18V42.608H246.18V77.792H240.18V73.184H231.54ZM233.652 52.544C233.652 57.44 228.9 60.896 222.276 60.896C215.652 60.896 210.756 57.44 210.756 52.448C210.756 47.648 215.652 44.048 222.276 44.048C228.9 44.048 233.652 47.648 233.652 52.544Z" fill="#202F57"/>
<path d="M118.73 8.936H114.242V7.304H118.73V1.52H120.674V15.368H118.73V8.936ZM113.354 16.952C109.922 16.952 107.858 17.912 107.858 19.592C107.858 21.248 109.922 22.208 113.354 22.208C116.834 22.208 118.874 21.248 118.874 19.592C118.874 17.912 116.834 16.952 113.354 16.952ZM103.034 5V3.368H115.106V5H110.09C110.09 5.456 110.09 5.96 110.114 6.224C110.282 9.248 113.138 11.672 115.874 12.488L114.722 14.048C112.394 13.136 109.994 11.048 109.082 9.032C108.482 11.12 105.794 13.808 103.394 14.84L102.338 13.28C105.146 12.2 107.978 9.368 108.098 6.2C108.122 5.96 108.122 5.432 108.122 5H103.034ZM120.842 19.592C120.842 22.208 118.154 23.84 113.354 23.84C108.578 23.84 105.89 22.208 105.89 19.592C105.89 16.952 108.578 15.32 113.354 15.32C118.154 15.32 120.842 16.952 120.842 19.592ZM140.952 1.52V10.808H144.601V12.464H140.952V23.84H139.008V1.52H140.952ZM124.68 3.92H135.168C135.048 11.168 130.848 16.4 125.112 19.376L123.912 17.864C129.48 15.272 132.672 10.568 133.08 5.552H124.68V3.92ZM151.781 20.96V19.76L155.861 15.536C158.285 13.016 159.917 11.144 159.917 8.696C159.917 6.416 158.837 5.288 156.413 5.288C154.949 5.288 153.557 6.008 152.573 6.704L151.997 5.096C153.053 4.4 154.805 3.536 156.725 3.536C160.181 3.536 162.053 5.456 162.053 8.504C162.053 11.48 160.253 13.52 157.301 16.52L154.613 19.232H162.437V20.96H151.781ZM169.886 5.24C167.654 5.24 166.334 6.944 166.334 9.32C166.334 12.008 167.894 13.16 169.958 13.16C171.59 13.16 173.054 12.008 173.774 11V10.52C173.774 7.328 172.622 5.24 169.886 5.24ZM169.862 3.56C173.678 3.56 175.814 6.176 175.814 11.048V12.152C175.814 18.128 173.414 21.272 169.262 21.272C167.51 21.272 165.902 20.744 165.11 20.216L165.662 18.728C166.406 19.16 167.798 19.568 169.166 19.568C171.974 19.568 173.582 17.768 173.774 12.968C172.838 14.024 171.446 14.864 169.55 14.864C166.67 14.864 164.318 12.776 164.318 9.512C164.318 6.296 166.382 3.56 169.862 3.56ZM175.792 24.296L176.752 19.304H179.056L177.184 24.296H175.792ZM187.437 19.592C190.077 19.592 191.493 17.816 191.493 13.4V11.528C191.493 7.208 190.101 5.24 187.461 5.24C184.797 5.24 183.333 7.112 183.333 11.384V13.28C183.333 17.552 184.773 19.592 187.437 19.592ZM187.437 21.272C183.909 21.272 181.173 18.872 181.173 13.088V11.648C181.173 5.6 184.101 3.56 187.461 3.56C190.821 3.56 193.581 5.6 193.581 11.552V13.112C193.581 18.896 190.917 21.272 187.437 21.272ZM202.795 19.592C205.435 19.592 206.851 17.816 206.851 13.4V11.528C206.851 7.208 205.459 5.24 202.819 5.24C200.155 5.24 198.691 7.112 198.691 11.384V13.28C198.691 17.552 200.131 19.592 202.795 19.592ZM202.795 21.272C199.267 21.272 196.531 18.872 196.531 13.088V11.648C196.531 5.6 199.459 3.56 202.819 3.56C206.179 3.56 208.939 5.6 208.939 11.552V13.112C208.939 18.896 206.275 21.272 202.795 21.272ZM218.153 19.592C220.793 19.592 222.209 17.816 222.209 13.4V11.528C222.209 7.208 220.817 5.24 218.177 5.24C215.513 5.24 214.049 7.112 214.049 11.384V13.28C214.049 17.552 215.489 19.592 218.153 19.592ZM218.153 21.272C214.625 21.272 211.889 18.872 211.889 13.088V11.648C211.889 5.6 214.817 3.56 218.177 3.56C221.537 3.56 224.297 5.6 224.297 11.552V13.112C224.297 18.896 221.633 21.272 218.153 21.272ZM234.615 17.768H232.671V13.712C230.559 13.808 228.327 13.88 226.479 13.88L226.167 12.224C228.471 12.248 231.183 12.224 233.607 12.128C236.103 12.032 238.527 11.816 240.687 11.576L240.855 13.088C239.439 13.28 236.967 13.448 234.615 13.592V17.768ZM237.495 6.704C237.495 5.192 235.887 4.16 233.487 4.16C231.087 4.16 229.455 5.168 229.455 6.704C229.455 8.216 231.087 9.2 233.487 9.2C235.887 9.2 237.495 8.216 237.495 6.704ZM245.199 23.288H229.239V16.832H231.183V21.656H245.199V23.288ZM244.743 18.68H242.799V16.256H238.119V14.72H242.799V1.52H244.743V18.68ZM239.415 6.704C239.415 9.248 236.943 10.784 233.487 10.784C230.031 10.784 227.511 9.272 227.511 6.68C227.511 4.16 230.031 2.552 233.487 2.552C236.943 2.552 239.415 4.16 239.415 6.704Z" fill="#202F57"/>
<path d="M101.474 12.992H247.528V14.192H101.474V12.992Z" fill="#202F57"/>
<path d="M10.9028 73.784C10.9028 72.536 9.27081 71.912 7.49481 71.912C5.74281 71.912 4.13481 72.536 4.13481 73.784C4.13481 75.032 5.76681 75.68 7.49481 75.68C9.27081 75.68 10.9028 75.032 10.9028 73.784ZM12.7748 73.784C12.7748 75.968 10.5668 77.168 7.49481 77.168C4.59081 77.168 2.26281 75.968 2.26281 73.784C2.26281 71.6 4.54281 70.424 7.49481 70.424C10.4948 70.424 12.7748 71.6 12.7748 73.784ZM14.0708 69.536H0.966814V67.952H14.0708V69.536ZM10.7348 66.536H4.30281V64.904H10.7348V66.536ZM19.0628 86.696H4.18281V81.728H16.2788V79.832H4.08681V78.344H18.2228V83.144H6.12681V85.208H19.0628V86.696ZM21.6308 72.056H18.2228V77.192H16.3028V64.52H18.2228V70.424H21.6308V72.056ZM28.9249 67.688C26.5729 67.688 24.7729 69.296 24.7729 71.552C24.7729 73.808 26.5969 75.392 28.9489 75.392C31.3969 75.392 33.1009 73.808 33.1009 71.576C33.1009 69.296 31.3969 67.688 28.9249 67.688ZM28.9249 65.984C32.3089 65.984 34.9489 68.24 34.9489 71.552C34.9489 74.888 32.3329 77.096 28.9489 77.096C25.5409 77.096 22.9249 74.912 22.9249 71.576C22.9249 68.264 25.5409 65.984 28.9249 65.984ZM41.2129 86.096H26.1169V79.208H28.0609V84.488H41.2129V86.096ZM40.6609 80.816H38.7169V64.52H40.6609V80.816ZM60.9391 64.52V73.808H64.5871V75.464H60.9391V86.84H58.9951V64.52H60.9391ZM44.6671 66.92H55.1551C55.0351 74.168 50.8351 79.4 45.0991 82.376L43.8991 80.864C49.4671 78.272 52.6591 73.568 53.0671 68.552H44.6671V66.92Z" fill="#495576"/>
</svg>
