<svg width="570" height="420" viewBox="0 0 570 420" fill="none" xmlns="http://www.w3.org/2000/svg">
<path d="M15.336 8.176H30.48C30.48 11.2 30.408 14.608 29.664 18.064H33.12V19.696H24V28.84H22.056V19.696H12.96V18.064H27.72C28.344 15.664 28.464 11.968 28.464 9.784H15.336V8.176ZM41.5421 21.256V10.576H36.4781V21.256H41.5421ZM52.6781 28.84H50.7581V17.056H48.0221V27.712H46.1261V7.048H48.0221V15.424H50.7581V6.52H52.6781V28.84ZM43.4381 22.864H34.5821V8.968H43.4381V22.864ZM78.9628 28.096H63.9388V21.232H65.8828V26.464H78.9628V28.096ZM78.4828 22.864H76.5388V14.344H72.0988V12.712H76.5388V6.52H78.4828V22.864ZM60.8908 10.12V8.488H72.8908V10.12H67.8988C67.8988 11.128 67.8988 11.608 67.9228 11.92C68.0908 14.776 70.8508 17.344 73.3948 18.184L72.3148 19.744C70.1788 18.88 67.8028 16.744 66.8908 14.728C66.2908 16.816 63.6988 19.24 61.2988 20.272L60.1708 18.76C62.9788 17.68 65.7868 14.848 65.9068 11.896C65.9308 11.608 65.9308 11.104 65.9308 10.12H60.8908ZM97.7355 22.624C96.5355 22.792 94.5675 22.984 92.5995 23.08C90.5355 23.224 88.5675 23.296 86.6715 23.296L86.3835 21.592H88.8555L88.1835 12.4L90.1275 12.136C90.2955 15.28 90.5115 18.4 90.7035 21.544L92.4795 21.472C92.6235 21.472 92.7915 21.472 92.9595 21.448C93.1515 18.352 93.3435 15.232 93.5595 12.136L95.5035 12.328C95.2395 15.328 94.9755 18.328 94.6875 21.352C95.7675 21.256 96.7755 21.16 97.5675 21.04C97.6155 21.568 97.6635 22.096 97.7355 22.624ZM101.312 27.688H99.4155V16.696H96.3675V15.088H99.4155V7.048H101.312V27.688ZM105.464 28.84H103.568V6.52H105.464V28.84ZM97.0155 10.912H86.9355V9.304H97.0155V10.912ZM117.942 16.096C117.942 12.424 116.406 9.88 114.03 9.88C111.678 9.88 110.118 12.424 110.118 16.096C110.118 19.744 111.678 22.288 114.03 22.288C116.406 22.288 117.942 19.744 117.942 16.096ZM108.27 16.072C108.27 11.368 110.358 8.2 114.03 8.2C117.726 8.2 119.79 11.368 119.79 16.096C119.79 20.824 117.726 23.968 114.03 23.968C110.358 23.968 108.27 20.824 108.27 16.072ZM125.886 28.84H123.942V6.52H125.886V28.84ZM136.3 16.84V13.048H131.116V16.84H136.3ZM147.22 28.84H145.252V22.576H132.148V20.968H147.22V28.84ZM147.22 19.768H145.3V13.816H142.54V19.624H140.668V6.928H142.54V12.208H145.3V6.52H147.22V19.768ZM138.196 18.448H129.22V7.984H131.116V11.44H136.3V7.984H138.196V18.448ZM157.448 21.4H158.12C160.352 21.4 163.712 21.256 165.584 20.848L165.776 22.432C163.664 22.84 159.896 23.08 156.992 23.08H155.504V9.256H164.168V10.888H157.448V21.4ZM173.624 28.84H171.728V16.936H168.728V27.688H166.856V7.048H168.728V15.304H171.728V6.52H173.624V28.84ZM196.255 14.2H192.847V20.272H190.903V6.52H192.847V12.568H196.255V14.2ZM185.647 21.856C182.287 21.856 180.199 22.84 180.199 24.544C180.199 26.248 182.287 27.208 185.647 27.208C189.055 27.208 191.167 26.248 191.167 24.544C191.167 22.84 189.055 21.856 185.647 21.856ZM193.159 24.544C193.159 27.184 190.351 28.816 185.647 28.816C180.991 28.816 178.207 27.184 178.207 24.544C178.207 21.88 180.991 20.248 185.647 20.248C190.351 20.248 193.159 21.88 193.159 24.544ZM188.311 16.816L187.159 18.352C185.023 17.32 182.815 15.4 181.927 13.144C181.231 15.52 178.975 17.752 176.359 19.096L175.279 17.584C178.471 16.096 180.871 13.288 180.871 9.736V7.576H182.839V9.664C182.839 13.216 185.791 15.928 188.311 16.816ZM222.659 14.2H219.251V20.272H217.307V6.52H219.251V12.568H222.659V14.2ZM212.051 21.856C208.691 21.856 206.603 22.84 206.603 24.544C206.603 26.248 208.691 27.208 212.051 27.208C215.459 27.208 217.571 26.248 217.571 24.544C217.571 22.84 215.459 21.856 212.051 21.856ZM219.563 24.544C219.563 27.184 216.755 28.816 212.051 28.816C207.395 28.816 204.611 27.184 204.611 24.544C204.611 21.88 207.395 20.248 212.051 20.248C216.755 20.248 219.563 21.88 219.563 24.544ZM214.715 16.816L213.563 18.352C211.427 17.32 209.219 15.4 208.331 13.144C207.635 15.52 205.379 17.752 202.763 19.096L201.683 17.584C204.875 16.096 207.275 13.288 207.275 9.736V7.576H209.243V9.664C209.243 13.216 212.195 15.928 214.715 16.816ZM241.041 9.16H224.937V7.552H241.041V9.16ZM240.873 15.424H225.105V13.816H228.489L227.913 10.24L229.929 10L230.337 13.816H235.641L236.145 9.976L238.161 10.192L237.513 13.816H240.873V15.424ZM238.737 26.92V23.104H227.361V26.92H238.737ZM240.657 28.528H225.417V21.496H232.041V18.976H222.969V17.368H243.129V18.976H233.985V21.496H240.657V28.528ZM262.207 28.624H246.199V23.32H259.543V21.352H246.151V19.792H261.487V24.784H248.143V27.04H262.207V28.624ZM253.951 8.416C250.447 8.416 248.167 9.304 248.167 10.696C248.167 12.088 250.447 12.952 253.951 12.952C257.479 12.952 259.783 12.088 259.783 10.696C259.783 9.304 257.479 8.416 253.951 8.416ZM261.751 10.696C261.751 13.144 258.799 14.56 253.951 14.56C249.151 14.56 246.175 13.144 246.175 10.696C246.175 8.248 249.151 6.832 253.951 6.832C258.799 6.832 261.751 8.248 261.751 10.696ZM264.007 17.8H243.847V16.168H264.007V17.8ZM290.412 18.544H270.252V16.912H279.588V12.52H281.532V16.912H290.412V18.544ZM272.556 21.256H287.724V28.984H285.78V22.864H272.556V21.256ZM280.74 7.408H287.988C287.988 10.672 287.796 13.048 287.292 15.112L285.372 14.824C285.828 13.096 285.996 10.912 285.996 9.016H280.74V7.408ZM272.052 7.408H278.868C278.868 10.456 278.436 13.096 277.764 15.112L275.844 14.752C276.42 13.288 276.852 11.008 276.876 9.016H272.052V7.408ZM310.481 18.808L310.649 20.296C309.041 20.488 306.377 20.752 303.737 20.896C301.217 21.04 298.145 21.16 296.585 21.16L296.273 19.552C297.905 19.552 300.161 19.504 302.441 19.408V17.896C300.089 17.68 298.289 16.768 298.289 14.968C298.289 12.904 300.617 11.944 303.449 11.944C306.305 11.944 308.657 12.88 308.657 14.944C308.657 16.744 306.809 17.704 304.409 17.896V19.312C306.761 19.192 309.185 19 310.481 18.808ZM317.249 15.544H313.865V21.352H311.921V6.52H313.865V13.912H317.249V15.544ZM299.249 22.528H313.865V28.984H311.921V24.136H299.249V22.528ZM309.905 11.2H297.065V9.64H309.905V11.2ZM306.809 14.944C306.809 13.912 305.321 13.408 303.449 13.408C301.553 13.408 300.137 13.912 300.137 14.944C300.137 16 301.577 16.504 303.449 16.504C305.321 16.504 306.809 15.976 306.809 14.944ZM306.545 8.416H300.425V6.808H306.545V8.416ZM324.039 9.688C321.687 9.688 319.887 11.296 319.887 13.552C319.887 15.808 321.711 17.392 324.063 17.392C326.511 17.392 328.215 15.808 328.215 13.576C328.215 11.296 326.511 9.688 324.039 9.688ZM324.039 7.984C327.423 7.984 330.063 10.24 330.063 13.552C330.063 16.888 327.447 19.096 324.063 19.096C320.655 19.096 318.039 16.912 318.039 13.576C318.039 10.264 320.655 7.984 324.039 7.984ZM336.327 28.096H321.231V21.208H323.175V26.488H336.327V28.096ZM335.775 22.816H333.831V6.52H335.775V22.816ZM347.077 9.904H340.981V8.224H347.077V9.904ZM349.477 13.552H338.365V11.944H349.477V13.552ZM347.197 19.312C347.197 17.584 345.949 16.48 344.197 16.48C342.421 16.48 341.197 17.608 341.197 19.312C341.197 21.04 342.421 22.144 344.197 22.144C345.949 22.144 347.197 20.992 347.197 19.312ZM349.069 19.312C349.069 22 347.077 23.752 344.197 23.752C341.341 23.752 339.325 21.856 339.325 19.312C339.325 16.6 341.341 14.848 344.197 14.848C347.077 14.848 349.069 16.624 349.069 19.312ZM357.253 28.84H355.333V17.272H352.645V27.712H350.749V7.048H352.645V15.64H355.333V6.52H357.253V28.84ZM375.834 28.84H373.89V20.848H364.818V19.216H384.978V20.848H375.834V28.84ZM384.018 15.496L383.106 17.128C379.458 16.504 375.906 14.248 374.898 12.16C373.986 14.248 370.53 16.552 366.714 17.176L365.826 15.544C369.474 15.16 373.794 12.832 373.89 9.712H366.666V8.104H383.106V9.712H375.93C376.026 12.856 380.61 15.112 384.018 15.496ZM396.928 21.784L395.752 23.224C394.024 21.976 391.672 19.336 390.976 16.792C390.472 19.36 388.648 22.264 386.416 23.872L385.216 22.432C387.76 20.824 389.992 17.008 389.992 12.64V8.584H391.912V12.592C391.912 16.936 394.504 20.176 396.928 21.784ZM400.192 27.712H398.296V16.192H394.336V14.56H398.296V7.048H400.192V27.712ZM404.608 28.84H402.688V6.52H404.608V28.84ZM426.734 25.984H406.574V24.352H411.566V19.912L413.51 19.864V24.352H419.726V19.864L421.67 19.912V24.352H426.734V25.984ZM422.822 13.648C422.822 11.224 420.374 9.592 416.63 9.592C412.91 9.592 410.462 11.224 410.462 13.648C410.462 16.072 412.91 17.704 416.63 17.704C420.35 17.704 422.822 16.072 422.822 13.648ZM424.694 13.648C424.694 17.008 421.478 19.216 416.63 19.216C411.806 19.216 408.59 17.008 408.59 13.648C408.59 10.288 411.806 8.032 416.63 8.032C421.502 8.032 424.694 10.288 424.694 13.648ZM427.572 26.608V24.328H429.78V26.608H427.572Z" fill="#392200"/>
<circle cx="2" cy="14" r="2" fill="#392200"/>
<path d="M24.048 70.624C22.848 70.792 20.88 70.984 18.912 71.08C16.848 71.224 14.88 71.296 12.984 71.296L12.696 69.592H15.168L14.496 60.4L16.44 60.136C16.608 63.28 16.824 66.4 17.016 69.544L18.792 69.472C18.936 69.472 19.104 69.472 19.272 69.448C19.464 66.352 19.656 63.232 19.872 60.136L21.816 60.328C21.552 63.328 21.288 66.328 21 69.352C22.08 69.256 23.088 69.16 23.88 69.04C23.928 69.568 23.976 70.096 24.048 70.624ZM27.624 75.688H25.728V64.696H22.68V63.088H25.728V55.048H27.624V75.688ZM31.776 76.84H29.88V54.52H31.776V76.84ZM23.328 58.912H13.248V57.304H23.328V58.912ZM44.2541 64.096C44.2541 60.424 42.7181 57.88 40.3421 57.88C37.9901 57.88 36.4301 60.424 36.4301 64.096C36.4301 67.744 37.9901 70.288 40.3421 70.288C42.7181 70.288 44.2541 67.744 44.2541 64.096ZM34.5821 64.072C34.5821 59.368 36.6701 56.2 40.3421 56.2C44.0381 56.2 46.1021 59.368 46.1021 64.096C46.1021 68.824 44.0381 71.968 40.3421 71.968C36.6701 71.968 34.5821 68.824 34.5821 64.072ZM52.1981 76.84H50.2541V54.52H52.1981V76.84ZM62.6122 64.84V61.048H57.4282V64.84H62.6122ZM73.5322 76.84H71.5642V70.576H58.4602V68.968H73.5322V76.84ZM73.5322 67.768H71.6122V61.816H68.8522V67.624H66.9802V54.928H68.8522V60.208H71.6122V54.52H73.5322V67.768ZM64.5082 66.448H55.5322V55.984H57.4282V59.44H62.6122V55.984H64.5082V66.448ZM99.3609 67.816H97.4169V62.08H92.9529V60.472H97.4169V54.52H99.3609V67.816ZM84.5049 68.992H99.3849V76.84H97.4169V70.6H84.5049V68.992ZM81.7209 57.88V56.248H93.7449V57.88H88.7769C88.7769 58.336 88.7769 58.936 88.8009 59.224C88.9689 62.248 91.6809 64.72 94.2249 65.56L93.1449 67.12C91.0089 66.256 88.6809 64.048 87.7689 62.032C87.1689 64.12 84.4809 66.808 82.0809 67.84L81.0249 66.28C83.8329 65.2 86.6649 62.368 86.7849 59.2C86.8089 58.936 86.8089 58.312 86.8089 57.88H81.7209ZM112.079 63.376C110.975 63.376 109.967 63.304 109.079 63.136V65.8H115.007V63.16C114.119 63.304 113.159 63.376 112.079 63.376ZM112.103 70.504C108.551 70.504 106.175 71.296 106.175 72.76C106.175 74.224 108.551 75.016 112.103 75.016C115.727 75.016 118.079 74.224 118.079 72.76C118.079 71.296 115.703 70.504 112.103 70.504ZM117.983 59.2C117.983 57.544 115.655 56.56 112.079 56.56C108.503 56.56 106.199 57.544 106.199 59.2C106.199 60.832 108.503 61.816 112.079 61.816C115.631 61.816 117.983 60.832 117.983 59.2ZM120.023 72.76C120.023 75.328 117.023 76.696 112.127 76.696C107.207 76.696 104.231 75.328 104.231 72.76C104.231 70.216 107.207 68.824 112.103 68.824C117.023 68.824 120.023 70.216 120.023 72.76ZM119.879 59.2C119.879 60.712 118.823 61.912 116.951 62.632V65.8H122.159V67.408H101.999V65.8H107.135V62.608C105.311 61.888 104.303 60.688 104.303 59.2C104.303 56.656 107.183 55 112.079 55C116.975 55 119.879 56.656 119.879 59.2ZM138.484 57.256C134.764 57.256 132.484 58.48 132.484 60.376C132.484 62.272 134.764 63.496 138.484 63.496C142.228 63.496 144.508 62.272 144.508 60.376C144.508 58.48 142.228 57.256 138.484 57.256ZM135.556 76.84H133.612V68.92H128.404V67.288H148.564V68.92H143.284V76.84H141.34V68.92H135.556V76.84ZM146.404 60.376C146.404 63.256 143.428 65.224 138.484 65.224C133.54 65.224 130.564 63.28 130.564 60.376C130.564 57.472 133.54 55.528 138.484 55.528C143.428 55.528 146.404 57.472 146.404 60.376ZM160.298 76.864H158.354V69.256H149.282V67.624H169.442V69.256H160.298V76.864ZM164.978 63.16V57.376H153.746V63.16H164.978ZM166.922 64.768H151.778V55.768H166.922V64.768ZM188.064 63.256H172.872V55.456H174.816V61.648H188.064V63.256ZM188.16 76.336H172.8V69.76H174.744V74.728H188.16V76.336ZM190.32 67.672H170.16V66.04H190.32V67.672ZM215.645 76.696H200.381V71.08H212.861V68.632H200.309V67.096H214.805V72.496H202.325V75.16H215.645V76.696ZM197.813 55.744H207.989C207.533 61.624 203.381 65.176 197.837 66.784L196.853 65.224C201.749 63.976 205.037 61.024 205.757 57.376H197.813V55.744ZM208.229 59.344V57.808H212.861V54.52H214.805V65.872H212.861V63.472H207.941V61.912H212.861V59.344H208.229ZM236.283 76.84H234.363V54.52H236.283V76.84ZM231.843 75.712H229.947V64.312H226.371V62.704H229.947V55.048H231.843V75.712ZM228.843 70.144L227.619 71.56C226.035 70.456 223.683 67.84 223.035 65.488C222.579 67.96 220.563 70.624 218.403 72.16L217.107 70.792C219.723 69.112 222.075 65.584 222.075 61.264V58.744H217.635V57.136H228.267V58.744H223.995V61.192C223.995 65.608 226.083 68.344 228.843 70.144ZM262.567 76.096H247.543V69.232H249.487V74.464H262.567V76.096ZM262.087 70.864H260.143V62.344H255.703V60.712H260.143V54.52H262.087V70.864ZM244.495 58.12V56.488H256.495V58.12H251.503C251.503 59.128 251.503 59.608 251.527 59.92C251.695 62.776 254.455 65.344 256.999 66.184L255.919 67.744C253.783 66.88 251.407 64.744 250.495 62.728C249.895 64.816 247.303 67.24 244.903 68.272L243.775 66.76C246.583 65.68 249.391 62.848 249.511 59.896C249.535 59.608 249.535 59.104 249.535 58.12H244.495ZM281.268 76.84H279.324V68.848H270.252V67.216H290.412V68.848H281.268V76.84ZM289.452 63.496L288.54 65.128C284.892 64.504 281.34 62.248 280.332 60.16C279.42 62.248 275.964 64.552 272.148 65.176L271.26 63.544C274.908 63.16 279.228 60.832 279.324 57.712H272.1V56.104H288.54V57.712H281.364C281.46 60.856 286.044 63.112 289.452 63.496ZM309.01 76.12H293.65V69.808H295.594V74.512H309.01V76.12ZM302.218 72.112H300.274V67.72H291.13V66.112H311.29V67.72H302.218V72.112ZM306.826 62.008V57.352H295.618V62.008H306.826ZM308.77 63.616H293.674V55.744H308.77V63.616ZM328.623 70.624C327.423 70.792 325.455 70.984 323.487 71.08C321.423 71.224 319.455 71.296 317.559 71.296L317.271 69.592H319.743L319.071 60.4L321.015 60.136C321.183 63.28 321.399 66.4 321.591 69.544L323.367 69.472C323.511 69.472 323.679 69.472 323.847 69.448C324.039 66.352 324.231 63.232 324.447 60.136L326.391 60.328C326.127 63.328 325.863 66.328 325.575 69.352C326.655 69.256 327.663 69.16 328.455 69.04C328.503 69.568 328.551 70.096 328.623 70.624ZM332.199 75.688H330.303V64.696H327.255V63.088H330.303V55.048H332.199V75.688ZM336.351 76.84H334.455V54.52H336.351V76.84ZM327.903 58.912H317.823V57.304H327.903V58.912ZM348.829 64.096C348.829 60.424 347.293 57.88 344.917 57.88C342.565 57.88 341.005 60.424 341.005 64.096C341.005 67.744 342.565 70.288 344.917 70.288C347.293 70.288 348.829 67.744 348.829 64.096ZM339.157 64.072C339.157 59.368 341.245 56.2 344.917 56.2C348.613 56.2 350.677 59.368 350.677 64.096C350.677 68.824 348.613 71.968 344.917 71.968C341.245 71.968 339.157 68.824 339.157 64.072ZM356.773 76.84H354.829V54.52H356.773V76.84ZM375.659 54.52H377.603V76.84H375.659V54.52ZM373.091 70.072L371.891 71.512C369.803 70.168 366.971 67.36 366.203 64.72C365.459 67.504 363.011 70.36 360.419 72.04L359.219 70.6C362.483 68.68 365.171 64.888 365.171 60.664V58.36H359.963V56.752H372.395V58.36H367.187V60.64C367.187 64.792 370.019 68.416 373.091 70.072ZM399.009 76.84H397.089V54.52H399.009V76.84ZM388.425 64.096C388.425 60.496 387.249 58.168 385.449 58.168C383.649 58.168 382.497 60.496 382.497 64.096C382.497 67.72 383.649 70.024 385.449 70.024C387.249 70.024 388.425 67.72 388.425 64.096ZM385.449 56.464C388.521 56.464 390.177 59.296 390.345 63.352H392.745V54.952H394.641V75.76H392.745V64.96H390.345C390.129 68.992 388.497 71.728 385.449 71.728C382.185 71.728 380.529 68.584 380.529 64.096C380.529 59.632 382.185 56.464 385.449 56.464ZM414.415 70.024L413.215 71.488C411.175 70.12 408.583 67.288 407.695 64.6C406.903 67.384 404.719 70.144 402.127 71.992L400.855 70.552C404.095 68.512 406.687 64.552 406.687 60.592V56.464H408.679V60.52C408.679 64.6 411.343 68.224 414.415 70.024ZM419.359 76.84H417.415V64.12H412.207V62.488H417.415V54.52H419.359V76.84ZM441.276 66.808L441.444 68.296C439.836 68.488 437.172 68.752 434.532 68.896C432.012 69.04 428.94 69.16 427.38 69.16L427.068 67.552C428.7 67.552 430.956 67.504 433.236 67.408V65.896C430.884 65.68 429.084 64.768 429.084 62.968C429.084 60.904 431.412 59.944 434.244 59.944C437.1 59.944 439.452 60.88 439.452 62.944C439.452 64.744 437.604 65.704 435.204 65.896V67.312C437.556 67.192 439.98 67 441.276 66.808ZM448.044 63.544H444.66V69.352H442.716V54.52H444.66V61.912H448.044V63.544ZM430.044 70.528H444.66V76.984H442.716V72.136H430.044V70.528ZM440.7 59.2H427.86V57.64H440.7V59.2ZM437.604 62.944C437.604 61.912 436.116 61.408 434.244 61.408C432.348 61.408 430.932 61.912 430.932 62.944C430.932 64 432.372 64.504 434.244 64.504C436.116 64.504 437.604 63.976 437.604 62.944ZM437.34 56.416H431.22V54.808H437.34V56.416ZM454.834 57.688C452.482 57.688 450.682 59.296 450.682 61.552C450.682 63.808 452.506 65.392 454.858 65.392C457.306 65.392 459.01 63.808 459.01 61.576C459.01 59.296 457.306 57.688 454.834 57.688ZM454.834 55.984C458.218 55.984 460.858 58.24 460.858 61.552C460.858 64.888 458.242 67.096 454.858 67.096C451.45 67.096 448.834 64.912 448.834 61.576C448.834 58.264 451.45 55.984 454.834 55.984ZM467.122 76.096H452.026V69.208H453.97V74.488H467.122V76.096ZM466.57 70.816H464.626V54.52H466.57V70.816ZM479.048 63.784C479.048 62.536 477.416 61.912 475.64 61.912C473.888 61.912 472.28 62.536 472.28 63.784C472.28 65.032 473.912 65.68 475.64 65.68C477.416 65.68 479.048 65.032 479.048 63.784ZM480.92 63.784C480.92 65.968 478.712 67.168 475.64 67.168C472.736 67.168 470.408 65.968 470.408 63.784C470.408 61.6 472.688 60.424 475.64 60.424C478.64 60.424 480.92 61.6 480.92 63.784ZM482.216 59.536H469.112V57.952H482.216V59.536ZM478.88 56.536H472.448V54.904H478.88V56.536ZM487.208 76.696H472.328V71.728H484.424V69.832H472.232V68.344H486.368V73.144H474.272V75.208H487.208V76.696ZM489.776 62.056H486.368V67.192H484.448V54.52H486.368V60.424H489.776V62.056ZM514.957 63.088L514.021 64.744C510.685 64.072 507.037 61.96 505.693 59.368C504.613 61.96 500.797 64.144 497.413 64.816L496.477 63.136C500.749 62.584 504.685 59.752 504.685 56.704V55.288H506.725V56.704C506.725 59.752 511.021 62.608 514.957 63.088ZM506.629 76.864H504.685V68.752H495.613V67.12H515.773V68.752H506.629V76.864ZM19.296 93.352C17.064 93.352 15.408 94.936 15.408 97.12C15.408 99.352 17.064 100.864 19.296 100.864C21.624 100.864 23.208 99.352 23.208 97.144C23.208 94.936 21.648 93.352 19.296 93.352ZM19.296 91.768C22.464 91.768 25.08 93.904 25.08 97.12C25.08 100.408 22.464 102.448 19.296 102.448C16.128 102.448 13.512 100.408 13.512 97.144C13.512 93.904 16.128 91.768 19.296 91.768ZM23.88 109.816L22.536 111.136C21.432 110.56 20.232 109.408 19.704 108.184C19.176 109.864 17.208 112.024 15.288 112.936L14.112 111.544C16.392 110.56 18.648 108.112 18.648 105.4V104.296H20.568V105.232C20.568 107.584 22.152 109.144 23.88 109.816ZM32.16 112.888H32.136C30.624 112.144 28.608 110.2 28.056 108.592C27.504 110.272 25.632 112.288 23.832 113.176L22.608 111.88C25.008 110.704 27.072 108.28 27.072 105.568V104.224H28.992V105.496C28.992 108.256 31.224 110.704 33.336 111.496L32.16 112.888ZM31.2 103.48H29.256V90.52H31.2V103.48ZM49.4861 110.92V108.256H38.3741V110.92H49.4861ZM51.4301 112.528H36.4301V104.08H38.3741V106.672H49.4861V104.056H51.4301V112.528ZM53.9981 102.496H33.8381V100.864H53.9981V102.496ZM52.9421 97.408L52.0301 99.088C48.6461 98.464 45.0221 96.328 43.9421 94.024C42.9581 96.328 39.2621 98.44 35.8781 99.088L34.9661 97.408C38.4701 97.024 42.9341 94.648 42.9341 91.504V90.784H44.9501V91.504C44.9501 94.648 49.5101 97.024 52.9421 97.408ZM68.6122 104.632L68.8042 106.312C66.2122 106.912 60.4042 107.344 56.9722 107.344H55.9882V92.848H57.9322V105.64C60.8122 105.64 65.9482 105.232 68.6122 104.632ZM72.8122 90.52V112.84H70.8922V90.52H72.8122ZM78.4264 105.712H79.7224C82.6024 105.712 87.0184 105.448 89.1544 104.992L89.3704 106.6C86.9704 107.056 82.5544 107.368 78.6664 107.368H76.4824V92.848H87.0664V94.48H78.4264V105.712ZM92.8024 90.52V99.376H96.4264V101.008H92.8024V112.84H90.8824V90.52H92.8024ZM96.5925 110.608V108.328H98.8005V110.608H96.5925Z" fill="#392200"/>
<circle cx="2" cy="62" r="2" fill="#392200"/>
<path d="M24.048 154.624C22.848 154.792 20.88 154.984 18.912 155.08C16.848 155.224 14.88 155.296 12.984 155.296L12.696 153.592H15.168L14.496 144.4L16.44 144.136C16.608 147.28 16.824 150.4 17.016 153.544L18.792 153.472C18.936 153.472 19.104 153.472 19.272 153.448C19.464 150.352 19.656 147.232 19.872 144.136L21.816 144.328C21.552 147.328 21.288 150.328 21 153.352C22.08 153.256 23.088 153.16 23.88 153.04C23.928 153.568 23.976 154.096 24.048 154.624ZM27.624 159.688H25.728V148.696H22.68V147.088H25.728V139.048H27.624V159.688ZM31.776 160.84H29.88V138.52H31.776V160.84ZM23.328 142.912H13.248V141.304H23.328V142.912ZM44.2541 148.096C44.2541 144.424 42.7181 141.88 40.3421 141.88C37.9901 141.88 36.4301 144.424 36.4301 148.096C36.4301 151.744 37.9901 154.288 40.3421 154.288C42.7181 154.288 44.2541 151.744 44.2541 148.096ZM34.5821 148.072C34.5821 143.368 36.6701 140.2 40.3421 140.2C44.0381 140.2 46.1021 143.368 46.1021 148.096C46.1021 152.824 44.0381 155.968 40.3421 155.968C36.6701 155.968 34.5821 152.824 34.5821 148.072ZM52.1981 160.84H50.2541V138.52H52.1981V160.84ZM62.6122 148.84V145.048H57.4282V148.84H62.6122ZM73.5322 160.84H71.5642V154.576H58.4602V152.968H73.5322V160.84ZM73.5322 151.768H71.6122V145.816H68.8522V151.624H66.9802V138.928H68.8522V144.208H71.6122V138.52H73.5322V151.768ZM64.5082 150.448H55.5322V139.984H57.4282V143.44H62.6122V139.984H64.5082V150.448ZM85.6984 140.776C82.1704 140.776 79.8664 141.712 79.8664 143.56C79.8664 145.384 82.1464 146.32 85.6744 146.32C89.2024 146.32 91.5304 145.384 91.5304 143.56C91.5304 141.712 89.2264 140.776 85.6984 140.776ZM93.4504 143.536C93.4504 146.392 90.5464 147.952 85.6744 147.952C80.8024 147.952 77.9224 146.392 77.9224 143.536C77.9224 140.728 80.8264 139.168 85.6984 139.168C90.5464 139.168 93.4504 140.728 93.4504 143.536ZM93.4744 160.192H78.2584V153.688H80.2024V158.56H93.4744V160.192ZM95.7544 151.6H75.5944V149.968H95.7544V151.6ZM104.375 140.176H119.519C119.519 143.2 119.447 146.608 118.703 150.064H122.159V151.696H113.039V160.84H111.095V151.696H101.999V150.064H116.759C117.383 147.664 117.503 143.968 117.503 141.784H104.375V140.176ZM130.581 153.256V142.576H125.517V153.256H130.581ZM141.717 160.84H139.797V149.056H137.061V159.712H135.165V139.048H137.061V147.424H139.797V138.52H141.717V160.84ZM132.477 154.864H123.621V140.968H132.477V154.864ZM157.579 150.808L157.747 152.296C156.139 152.488 153.475 152.752 150.835 152.896C148.315 153.04 145.243 153.16 143.683 153.16L143.371 151.552C145.003 151.552 147.259 151.504 149.539 151.408V149.896C147.187 149.68 145.387 148.768 145.387 146.968C145.387 144.904 147.715 143.944 150.547 143.944C153.403 143.944 155.755 144.88 155.755 146.944C155.755 148.744 153.907 149.704 151.507 149.896V151.312C153.859 151.192 156.283 151 157.579 150.808ZM164.347 147.544H160.963V153.352H159.019V138.52H160.963V145.912H164.347V147.544ZM146.347 154.528H160.963V160.984H159.019V156.136H146.347V154.528ZM157.003 143.2H144.163V141.64H157.003V143.2ZM153.907 146.944C153.907 145.912 152.419 145.408 150.547 145.408C148.651 145.408 147.235 145.912 147.235 146.944C147.235 148 148.675 148.504 150.547 148.504C152.419 148.504 153.907 147.976 153.907 146.944ZM153.643 140.416H147.523V138.808H153.643V140.416ZM180.929 145.936H176.441V144.304H180.929V138.52H182.873V152.368H180.929V145.936ZM175.553 153.952C172.121 153.952 170.057 154.912 170.057 156.592C170.057 158.248 172.121 159.208 175.553 159.208C179.033 159.208 181.073 158.248 181.073 156.592C181.073 154.912 179.033 153.952 175.553 153.952ZM165.233 142V140.368H177.305V142H172.289C172.289 142.456 172.289 142.96 172.313 143.224C172.481 146.248 175.337 148.672 178.073 149.488L176.921 151.048C174.593 150.136 172.193 148.048 171.281 146.032C170.681 148.12 167.993 150.808 165.593 151.84L164.537 150.28C167.345 149.2 170.177 146.368 170.297 143.2C170.321 142.96 170.321 142.432 170.321 142H165.233ZM183.041 156.592C183.041 159.208 180.353 160.84 175.553 160.84C170.777 160.84 168.089 159.208 168.089 156.592C168.089 153.952 170.777 152.32 175.553 152.32C180.353 152.32 183.041 153.952 183.041 156.592ZM204.862 140.512H197.398V138.856H204.862V140.512ZM205.99 148.216C205.99 146.848 203.374 146.392 201.142 146.392C198.934 146.392 196.294 146.848 196.294 148.216C196.294 149.512 198.934 149.992 201.142 149.992C203.374 149.992 205.99 149.512 205.99 148.216ZM210.118 143.824H192.19V142.192H210.118V143.824ZM202.078 160.864H200.134V154.48H191.038V152.848H211.198V154.48H202.078V160.864ZM208.006 148.216C208.006 150.52 205.102 151.624 201.142 151.624C197.206 151.624 194.278 150.52 194.278 148.216C194.278 145.864 197.206 144.784 201.142 144.784C205.102 144.784 208.006 145.864 208.006 148.216ZM238.227 149.2H234.603V160.84H232.659V138.52H234.603V147.568H238.227V149.2ZM230.691 154.144L229.515 155.608C227.403 154.264 224.691 151.456 223.875 148.792C223.131 151.504 220.947 154.264 218.283 156.136L216.987 154.672C220.275 152.728 222.867 148.816 222.867 144.784V142.504H217.707V140.872H230.043V142.504H224.883V144.736C224.883 148.912 227.619 152.416 230.691 154.144ZM248.401 154.624C244.897 154.624 242.737 155.488 242.737 156.928C242.737 158.416 244.897 159.232 248.401 159.232C251.929 159.232 254.089 158.416 254.089 156.928C254.089 155.488 251.929 154.624 248.401 154.624ZM256.057 146.968H249.361V149.8H258.481V151.408H238.321V149.8H247.417V146.968H240.793V139.576H255.937V141.208H242.737V145.36H256.057V146.968ZM256.081 156.928C256.081 159.424 253.297 160.84 248.401 160.84C243.505 160.84 240.745 159.4 240.745 156.928C240.745 154.504 243.505 153.04 248.401 153.04C253.297 153.04 256.081 154.408 256.081 156.928ZM273.99 147.688V144.256H267.462V147.688H273.99ZM275.934 149.296H265.518V139.384H267.462V142.648H273.99V139.384H275.934V149.296ZM282.702 160.672H267.654V155.104H279.942V152.92H267.63V151.336H281.886V156.616H269.598V159.064H282.702V160.672ZM285.294 145.144H281.886V150.064H279.942V138.52H281.886V143.512H285.294V145.144ZM303.316 160.504H288.004V151.216H289.948V154.168H301.372V151.168H303.316V160.504ZM287.98 139.648H303.148C303.148 142.624 302.908 145.552 302.38 147.808H305.74V149.416H285.58V147.808H300.436C300.892 146.128 301.156 143.128 301.156 141.256H287.98V139.648ZM301.372 158.896V155.776H289.948V158.896H301.372ZM324.77 160.528H310.25V152.536H312.194V154.84H322.826V152.488H324.77V160.528ZM321.098 148.768L321.266 150.328C319.514 150.544 316.802 150.784 314.09 150.928C311.57 151.048 308.282 151.12 306.794 151.12L306.506 149.416C308.234 149.416 310.562 149.416 312.986 149.344V146.632H308.426V139.744H319.25V141.352H310.37V145.024H319.466V146.632H314.93V149.272C317.306 149.152 319.706 148.984 321.098 148.768ZM322.826 158.944V156.424H312.194V158.944H322.826ZM324.77 151.288H322.826V138.52H324.77V151.288ZM341.256 152.632L341.448 154.312C338.856 154.912 333.048 155.344 329.616 155.344H328.632V140.848H330.576V153.64C333.456 153.64 338.592 153.232 341.256 152.632ZM345.456 138.52V160.84H343.536V138.52H345.456ZM351.07 153.712H352.366C355.246 153.712 359.662 153.448 361.798 152.992L362.014 154.6C359.614 155.056 355.198 155.368 351.31 155.368H349.126V140.848H359.71V142.48H351.07V153.712ZM365.446 138.52V147.376H369.07V149.008H365.446V160.84H363.526V138.52H365.446ZM369.236 158.608V156.328H371.444V158.608H369.236Z" fill="#392200"/>
<circle cx="2" cy="146" r="2" fill="#392200"/>
<path d="M33.12 205.768H12.96V204.136H33.12V205.768ZM32.376 198.016L31.296 199.648C27.552 198.52 23.928 195.352 23.016 193.072C22.224 195.352 18.672 198.52 14.784 199.624L13.752 197.944C17.4 197.248 22.032 193.792 22.032 190.144V188.368H24.048V190.144C24.048 193.792 28.944 197.248 32.376 198.016ZM44.9261 202.624C43.7261 202.792 41.7581 202.984 39.7901 203.08C37.7261 203.224 35.7581 203.296 33.8621 203.296L33.5741 201.592H36.0461L35.3741 192.4L37.3181 192.136C37.4861 195.28 37.7021 198.4 37.8941 201.544L39.6701 201.472C39.8141 201.472 39.9821 201.472 40.1501 201.448C40.3421 198.352 40.5341 195.232 40.7501 192.136L42.6941 192.328C42.4301 195.328 42.1661 198.328 41.8781 201.352C42.9581 201.256 43.9661 201.16 44.7581 201.04C44.8061 201.568 44.8541 202.096 44.9261 202.624ZM48.5021 207.688H46.6061V196.696H43.5581V195.088H46.6061V187.048H48.5021V207.688ZM52.6541 208.84H50.7581V186.52H52.6541V208.84ZM44.2061 190.912H34.1261V189.304H44.2061V190.912ZM67.0282 194.632V193.048H71.0122V190.624H67.0282V189.04H71.0122V186.52H72.9562V198.208H71.0122V194.632H67.0282ZM73.7962 208.672H58.5562V203.176H71.0362V200.992H58.4362V199.36H72.9802V204.688H60.5002V207.064H73.7962V208.672ZM67.6282 196.192L66.5242 197.704C64.3882 196.864 62.2042 194.968 61.1482 192.664C60.4762 194.944 58.3642 197.056 55.7002 198.328L54.5002 196.864C57.4282 195.712 60.1402 193.096 60.1402 189.52V187.312H62.1082V189.448C62.1082 193.072 65.2522 195.4 67.6282 196.192ZM83.7369 187.96H98.6169C98.6169 190.816 98.5209 195.016 97.8009 198.544H101.281V200.176H92.1609V208.84H90.2169V200.176H81.1209V198.544H95.8569C96.1449 197.464 96.3129 195.904 96.4329 194.344L83.4489 194.896L83.1369 193.192L96.5049 192.784C96.5769 191.512 96.6009 190.336 96.6009 189.568H83.7369V187.96ZM120.191 189.256H103.847V187.648H120.191V189.256ZM119.831 208.144H104.519V202.144H106.463V206.512H119.831V208.144ZM122.159 200.56H101.999V198.928H111.071V196.264H103.871V194.68H107.543L106.871 190.408L108.887 190.144L109.391 194.68H114.647L115.223 190.096L117.239 190.36L116.519 194.68H120.191V196.264H113.015V198.928H122.159V200.56ZM132.981 188.776C129.453 188.776 127.149 189.712 127.149 191.56C127.149 193.384 129.429 194.32 132.957 194.32C136.485 194.32 138.813 193.384 138.813 191.56C138.813 189.712 136.509 188.776 132.981 188.776ZM140.733 191.536C140.733 194.392 137.829 195.952 132.957 195.952C128.085 195.952 125.205 194.392 125.205 191.536C125.205 188.728 128.109 187.168 132.981 187.168C137.829 187.168 140.733 188.728 140.733 191.536ZM140.757 208.192H125.541V201.688H127.485V206.56H140.757V208.192ZM143.037 199.6H122.877V197.968H143.037V199.6ZM159.146 197.416C159.146 195.928 157.538 195.04 155.738 195.04C153.938 195.04 152.33 195.928 152.33 197.416C152.33 198.88 153.938 199.768 155.738 199.768C157.538 199.768 159.146 198.88 159.146 197.416ZM160.994 197.416C160.994 199.768 158.738 201.328 155.738 201.328C152.762 201.328 150.482 199.768 150.482 197.416C150.482 195.016 152.738 193.504 155.738 193.504C158.738 193.504 160.994 195.016 160.994 197.416ZM162.266 192.304H149.186V190.696H162.266V192.304ZM158.81 189.016H152.378V187.312H158.81V189.016ZM167.306 208.12H152.45V202.384H154.394V206.488H167.306V208.12ZM169.85 195.712H166.442V202.984H164.498V186.52H166.442V194.08H169.85V195.712ZM186.456 193.936H181.968V192.304H186.456V186.52H188.4V200.368H186.456V193.936ZM181.08 201.952C177.648 201.952 175.584 202.912 175.584 204.592C175.584 206.248 177.648 207.208 181.08 207.208C184.56 207.208 186.6 206.248 186.6 204.592C186.6 202.912 184.56 201.952 181.08 201.952ZM170.76 190V188.368H182.832V190H177.816C177.816 190.456 177.816 190.96 177.84 191.224C178.008 194.248 180.864 196.672 183.6 197.488L182.448 199.048C180.12 198.136 177.72 196.048 176.808 194.032C176.208 196.12 173.52 198.808 171.12 199.84L170.064 198.28C172.872 197.2 175.704 194.368 175.824 191.2C175.848 190.96 175.848 190.432 175.848 190H170.76ZM188.568 204.592C188.568 207.208 185.88 208.84 181.08 208.84C176.304 208.84 173.616 207.208 173.616 204.592C173.616 201.952 176.304 200.32 181.08 200.32C185.88 200.32 188.568 201.952 188.568 204.592ZM210.382 195.088L209.446 196.744C206.11 196.072 202.462 193.96 201.118 191.368C200.038 193.96 196.222 196.144 192.838 196.816L191.902 195.136C196.174 194.584 200.11 191.752 200.11 188.704V187.288H202.15V188.704C202.15 191.752 206.446 194.608 210.382 195.088ZM202.054 208.864H200.11V200.752H191.038V199.12H211.198V200.752H202.054V208.864ZM232.46 194.776V196.408H229.052V200.104H227.108V186.52H229.052V189.976H232.46V191.584H229.052V194.776H232.46ZM221.924 202.216C218.54 202.216 216.548 203.128 216.548 204.688C216.548 206.2 218.54 207.112 221.924 207.112C225.308 207.112 227.324 206.248 227.324 204.688C227.324 203.104 225.308 202.216 221.924 202.216ZM224.732 196.576L224.996 198.16C222.692 198.568 218.036 198.904 214.916 198.904H212.804V192.448H220.604V189.544H212.756V187.936H222.548V194.032H214.748V197.272H215.036C217.628 197.272 222.116 197.104 224.732 196.576ZM229.316 204.688C229.316 207.16 226.772 208.72 221.924 208.72C217.076 208.72 214.556 207.184 214.556 204.688C214.556 202.144 217.076 200.608 221.924 200.608C226.772 200.608 229.316 202.192 229.316 204.688ZM243.21 196.096C243.21 192.424 241.674 189.88 239.298 189.88C236.946 189.88 235.386 192.424 235.386 196.096C235.386 199.744 236.946 202.288 239.298 202.288C241.674 202.288 243.21 199.744 243.21 196.096ZM233.538 196.072C233.538 191.368 235.626 188.2 239.298 188.2C242.994 188.2 245.058 191.368 245.058 196.096C245.058 200.824 242.994 203.968 239.298 203.968C235.626 203.968 233.538 200.824 233.538 196.072ZM251.154 208.84H249.21V186.52H251.154V208.84ZM262.672 201.568V190.36H256.432V201.568H262.672ZM264.616 203.176H254.488V188.752H264.616V203.176ZM265.864 193.336V191.728H270.088V186.52H272.032V208.84H270.088V199.576H265.864V197.968H270.088V193.336H265.864ZM300.237 205.984H280.077V204.352H289.149V198.808H291.093V204.352H300.237V205.984ZM298.557 190.336H291.189V190.816C291.189 194.32 296.109 197.608 299.469 198.256L298.461 199.888C294.885 198.88 291.213 196.096 290.157 193.648C289.221 196.168 285.525 198.904 281.829 199.84L280.893 198.208C284.421 197.584 289.149 194.368 289.149 190.816V190.336H281.805V188.776H298.557V190.336ZM302.011 188.896H312.643C312.523 196.144 308.083 201.688 302.323 204.424L301.195 202.888C306.835 200.416 310.147 195.544 310.555 190.528H302.011V188.896ZM319.195 208.84H317.251V186.52H319.195V208.84ZM341.993 205.984H321.833V204.352H330.905V198.64H332.849V204.352H341.993V205.984ZM341.201 197.536L340.121 199.096C336.209 198.016 332.849 195.232 331.889 192.712C331.025 195.28 327.593 198.04 323.681 199.096L322.673 197.536C326.561 196.792 330.905 193.624 330.905 189.784V188.176H332.921V189.784C332.921 193.624 337.529 196.84 341.201 197.536ZM360.952 202.72H359.008V186.52H360.952V202.72ZM361.432 208.24H346.552V201.304H348.496V206.632H361.432V208.24ZM343.672 190.216V188.584H355.816V190.216H350.704C350.704 191.152 350.704 191.608 350.728 191.92C350.896 194.776 353.704 197.296 356.248 198.136L355.168 199.696C353.032 198.832 350.608 196.72 349.696 194.704C349.096 196.792 346.504 199.24 344.104 200.272L342.976 198.76C345.784 197.68 348.544 194.848 348.712 191.896C348.736 191.608 348.736 191.152 348.736 190.216H343.672ZM382.7 201.976L381.476 203.464C379.46 202.096 376.844 199.336 375.98 196.648C375.164 199.432 372.86 202.168 370.268 204.016L368.996 202.552C372.26 200.512 374.948 196.456 374.948 192.496V188.464H376.916V192.424C376.916 196.504 379.628 200.152 382.7 201.976ZM387.5 208.84H385.556V186.52H387.5V208.84ZM404.785 195.688V192.256H398.257V195.688H404.785ZM406.729 197.296H396.313V187.384H398.257V190.648H404.785V187.384H406.729V197.296ZM413.497 208.672H398.449V203.104H410.737V200.92H398.425V199.336H412.681V204.616H400.393V207.064H413.497V208.672ZM416.089 193.144H412.681V198.064H410.737V186.52H412.681V191.512H416.089V193.144ZM434.111 208.504H418.799V199.216H420.743V202.168H432.167V199.168H434.111V208.504ZM418.775 187.648H433.943C433.943 190.624 433.703 193.552 433.175 195.808H436.535V197.416H416.375V195.808H431.231C431.687 194.128 431.951 191.128 431.951 189.256H418.775V187.648ZM432.167 206.896V203.776H420.743V206.896H432.167ZM447.693 196.096C447.693 192.424 446.157 189.88 443.781 189.88C441.429 189.88 439.869 192.424 439.869 196.096C439.869 199.744 441.429 202.288 443.781 202.288C446.157 202.288 447.693 199.744 447.693 196.096ZM438.021 196.072C438.021 191.368 440.109 188.2 443.781 188.2C447.477 188.2 449.541 191.368 449.541 196.096C449.541 200.824 447.477 203.968 443.781 203.968C440.109 203.968 438.021 200.824 438.021 196.072ZM455.637 208.84H453.693V186.52H455.637V208.84ZM483.842 199.312H463.682V197.68H472.778V194.296H474.722V197.68H483.842V199.312ZM473.762 202.672C470.162 202.672 467.93 203.488 467.93 204.928C467.93 206.416 470.162 207.208 473.762 207.208C477.386 207.208 479.618 206.416 479.618 204.928C479.618 203.488 477.386 202.672 473.762 202.672ZM482.834 193.96L481.946 195.592C478.226 194.992 474.866 193.024 473.762 190.984C472.874 193.048 469.562 195.04 465.626 195.616L464.738 193.984C468.194 193.672 471.986 191.896 472.658 189.28H465.53V187.672H481.994V189.28H474.89C475.61 191.92 479.738 193.672 482.834 193.96ZM481.586 204.928C481.586 207.376 478.754 208.768 473.762 208.768C468.77 208.768 465.962 207.352 465.962 204.928C465.962 202.552 468.77 201.112 473.762 201.112C478.754 201.112 481.586 202.456 481.586 204.928ZM492.12 200.032V204.352H497.304V200.032H492.12ZM502.824 200.032H499.224V204.352H504.72V205.984H484.56V204.352H490.2V200.032H487.032V193.24H500.256V189.808H487.104V188.176H502.2V194.848H488.976V198.4H502.824V200.032ZM524.59 208.6H508.99V203.32H521.782V201.232H508.966V199.672H523.726V204.76H510.934V207.04H524.59V208.6ZM520.054 195.712L520.222 197.272C518.47 197.488 515.758 197.728 513.046 197.872C510.526 197.992 507.214 198.088 505.726 198.088L505.438 196.36C507.142 196.36 509.422 196.36 511.822 196.288V194.128H507.358V187.6H518.326V189.208H509.302V192.52H518.542V194.128H513.766V196.216C516.19 196.12 518.638 195.928 520.054 195.712ZM523.726 198.544H521.782V186.52H523.726V198.544ZM551.187 195.088L550.251 196.744C546.915 196.072 543.267 193.96 541.923 191.368C540.843 193.96 537.027 196.144 533.643 196.816L532.707 195.136C536.979 194.584 540.915 191.752 540.915 188.704V187.288H542.955V188.704C542.955 191.752 547.251 194.608 551.187 195.088ZM542.859 208.864H540.915V200.752H531.843V199.12H552.003V200.752H542.859V208.864ZM19.296 225.352C17.064 225.352 15.408 226.936 15.408 229.12C15.408 231.352 17.064 232.864 19.296 232.864C21.624 232.864 23.208 231.352 23.208 229.144C23.208 226.936 21.648 225.352 19.296 225.352ZM19.296 223.768C22.464 223.768 25.08 225.904 25.08 229.12C25.08 232.408 22.464 234.448 19.296 234.448C16.128 234.448 13.512 232.408 13.512 229.144C13.512 225.904 16.128 223.768 19.296 223.768ZM23.88 241.816L22.536 243.136C21.432 242.56 20.232 241.408 19.704 240.184C19.176 241.864 17.208 244.024 15.288 244.936L14.112 243.544C16.392 242.56 18.648 240.112 18.648 237.4V236.296H20.568V237.232C20.568 239.584 22.152 241.144 23.88 241.816ZM32.16 244.888H32.136C30.624 244.144 28.608 242.2 28.056 240.592C27.504 242.272 25.632 244.288 23.832 245.176L22.608 243.88C25.008 242.704 27.072 240.28 27.072 237.568V236.224H28.992V237.496C28.992 240.256 31.224 242.704 33.336 243.496L32.16 244.888ZM31.2 235.48H29.256V222.52H31.2V235.48ZM49.4861 242.92V240.256H38.3741V242.92H49.4861ZM51.4301 244.528H36.4301V236.08H38.3741V238.672H49.4861V236.056H51.4301V244.528ZM53.9981 234.496H33.8381V232.864H53.9981V234.496ZM52.9421 229.408L52.0301 231.088C48.6461 230.464 45.0221 228.328 43.9421 226.024C42.9581 228.328 39.2621 230.44 35.8781 231.088L34.9661 229.408C38.4701 229.024 42.9341 226.648 42.9341 223.504V222.784H44.9501V223.504C44.9501 226.648 49.5101 229.024 52.9421 229.408ZM68.6122 236.632L68.8042 238.312C66.2122 238.912 60.4042 239.344 56.9722 239.344H55.9882V224.848H57.9322V237.64C60.8122 237.64 65.9482 237.232 68.6122 236.632ZM72.8122 222.52V244.84H70.8922V222.52H72.8122ZM78.4264 237.712H79.7224C82.6024 237.712 87.0184 237.448 89.1544 236.992L89.3704 238.6C86.9704 239.056 82.5544 239.368 78.6664 239.368H76.4824V224.848H87.0664V226.48H78.4264V237.712ZM92.8024 222.52V231.376H96.4264V233.008H92.8024V244.84H90.8824V222.52H92.8024ZM96.5925 242.608V240.328H98.8005V242.608H96.5925Z" fill="#392200"/>
<circle cx="2" cy="194" r="2" fill="#392200"/>
<path d="M15.792 285.712H17.088C19.968 285.712 24.384 285.448 26.52 284.992L26.736 286.6C24.336 287.056 19.92 287.368 16.032 287.368H13.848V272.848H24.432V274.48H15.792V285.712ZM30.168 270.52V279.376H33.792V281.008H30.168V292.84H28.248V270.52H30.168ZM51.7181 292.192H36.5021V285.688H38.4461V290.56H51.7181V292.192ZM44.9741 288.016H43.0301V283.48H33.8381V281.872H53.9981V283.48H44.9741V288.016ZM43.9421 272.8C40.4141 272.8 38.1101 273.736 38.1101 275.584C38.1101 277.408 40.3901 278.344 43.9181 278.344C47.4461 278.344 49.7741 277.408 49.7741 275.584C49.7741 273.736 47.4701 272.8 43.9421 272.8ZM51.6941 275.56C51.6941 278.416 48.7901 279.976 43.9181 279.976C39.0461 279.976 36.1661 278.416 36.1661 275.56C36.1661 272.752 39.0701 271.192 43.9421 271.192C48.7901 271.192 51.6941 272.752 51.6941 275.56ZM74.8762 289.984H54.7162V288.352H63.7882V284.56H57.2122V277.576H70.4362V274H57.1882V272.368H72.3802V279.184H59.1562V282.928H73.0042V284.56H65.7322V288.352H74.8762V289.984ZM95.7544 289.768H75.5944V288.136H95.7544V289.768ZM93.3304 283.24H78.1384V272.728H93.1144V274.336H80.0824V281.632H93.3304V283.24ZM111.335 280.48V276.832H104.783V280.48H111.335ZM113.279 282.088H102.839V271.792H104.783V275.224H111.335V271.792H113.279V282.088ZM119.423 292.408H105.167V284.872H119.207V286.48H107.135V290.8H119.423V292.408ZM122.567 278.08H119.159V283.504H117.215V270.52H119.159V276.448H122.567V278.08ZM132.981 272.776C129.453 272.776 127.149 273.712 127.149 275.56C127.149 277.384 129.429 278.32 132.957 278.32C136.485 278.32 138.813 277.384 138.813 275.56C138.813 273.712 136.509 272.776 132.981 272.776ZM140.733 275.536C140.733 278.392 137.829 279.952 132.957 279.952C128.085 279.952 125.205 278.392 125.205 275.536C125.205 272.728 128.109 271.168 132.981 271.168C137.829 271.168 140.733 272.728 140.733 275.536ZM140.757 292.192H125.541V285.688H127.485V290.56H140.757V292.192ZM143.037 283.6H122.877V281.968H143.037V283.6ZM151.898 271.96H166.778C166.778 274.816 166.682 279.016 165.962 282.544H169.442V284.176H160.322V292.84H158.378V284.176H149.282V282.544H164.018C164.306 281.464 164.474 279.904 164.594 278.344L151.61 278.896L151.298 277.192L164.666 276.784C164.738 275.512 164.762 274.336 164.762 273.568H151.898V271.96ZM188.352 273.256H172.008V271.648H188.352V273.256ZM187.992 292.144H172.68V286.144H174.624V290.512H187.992V292.144ZM190.32 284.56H170.16V282.928H179.232V280.264H172.032V278.68H175.704L175.032 274.408L177.048 274.144L177.552 278.68H182.808L183.384 274.096L185.4 274.36L184.68 278.68H188.352V280.264H181.176V282.928H190.32V284.56ZM201.142 272.776C197.614 272.776 195.31 273.712 195.31 275.56C195.31 277.384 197.59 278.32 201.118 278.32C204.646 278.32 206.974 277.384 206.974 275.56C206.974 273.712 204.67 272.776 201.142 272.776ZM208.894 275.536C208.894 278.392 205.99 279.952 201.118 279.952C196.246 279.952 193.366 278.392 193.366 275.536C193.366 272.728 196.27 271.168 201.142 271.168C205.99 271.168 208.894 272.728 208.894 275.536ZM208.918 292.192H193.702V285.688H195.646V290.56H208.918V292.192ZM211.198 283.6H191.038V281.968H211.198V283.6ZM233.211 279.616V276.256H221.835V279.616H233.211ZM224.619 292.864H222.675V285.448H217.443V283.816H237.603V285.448H232.299V292.864H230.355V285.448H224.619V292.864ZM235.155 281.224H219.891V271.384H221.835V274.672H233.211V271.384H235.155V281.224ZM256.633 292.84H254.689V270.52H256.633V292.84ZM252.193 285.04L252.409 286.648C249.985 287.104 245.065 287.44 241.513 287.44H239.593V272.632H249.985V274.24H241.537V278.92H249.553V280.504H241.537V285.76C245.041 285.856 249.985 285.496 252.193 285.04ZM272.999 284.968L273.143 286.552C271.511 286.768 268.991 286.984 266.351 287.128C263.831 287.248 261.215 287.344 259.199 287.368L258.911 285.664C259.967 285.664 261.095 285.664 262.223 285.64L261.431 276.256L263.399 276.088L263.999 285.592C264.863 285.568 265.703 285.52 266.519 285.472C266.807 285.472 267.071 285.448 267.359 285.448L268.007 276.064L269.951 276.232L269.111 285.328C270.671 285.232 272.015 285.112 272.999 284.968ZM276.335 270.52V279.424H279.983V281.056H276.335V292.84H274.391V270.52H276.335ZM271.679 274.504H259.535V272.872H271.679V274.504ZM291.117 292.864H289.173V285.088H280.173V283.456H300.333V285.088H291.117V292.864ZM290.157 273.136C286.389 273.136 284.085 274.384 284.085 276.448C284.085 278.512 286.389 279.76 290.157 279.76C293.949 279.76 296.253 278.512 296.253 276.448C296.253 274.384 293.949 273.136 290.157 273.136ZM298.149 276.448C298.149 279.4 295.149 281.44 290.157 281.44C285.165 281.44 282.165 279.424 282.165 276.448C282.165 273.472 285.165 271.456 290.157 271.456C295.149 271.456 298.149 273.472 298.149 276.448ZM311.371 273.616H304.627V271.84H311.371V273.616ZM319.339 292.84H317.395V270.52H319.339V292.84ZM315.163 286.864L314.131 288.4C311.707 287.296 308.827 284.512 308.035 282.184C307.387 284.56 304.651 287.608 302.227 288.88L301.075 287.44C304.003 286.048 307.003 282.592 307.003 278.44V277.744H301.747V276.136H314.179V277.744H308.995V278.416C308.995 282.568 312.307 285.856 315.163 286.864ZM322.193 282.568V280.864H330.617V282.568H322.193ZM334.288 271.96H349.168C349.168 274.816 349.072 279.016 348.352 282.544H351.832V284.176H342.712V292.84H340.768V284.176H331.672V282.544H346.408C346.696 281.464 346.864 279.904 346.984 278.344L334 278.896L333.688 277.192L347.056 276.784C347.128 275.512 347.152 274.336 347.152 273.568H334.288V271.96ZM370.743 273.256H354.399V271.648H370.743V273.256ZM370.383 292.144H355.071V286.144H357.015V290.512H370.383V292.144ZM372.711 284.56H352.551V282.928H361.623V280.264H354.423V278.68H358.095L357.423 274.408L359.439 274.144L359.943 278.68H365.199L365.775 274.096L367.791 274.36L367.071 278.68H370.743V280.264H363.567V282.928H372.711V284.56ZM383.101 280.48C383.101 279.088 381.565 278.296 379.813 278.296C378.085 278.296 376.501 279.088 376.501 280.48C376.501 281.824 378.109 282.64 379.813 282.64C381.565 282.64 383.101 281.824 383.101 280.48ZM384.997 280.48C384.997 282.688 382.765 284.152 379.813 284.152C376.861 284.152 374.629 282.712 374.629 280.48C374.629 278.176 376.837 276.784 379.813 276.784C382.765 276.784 384.997 278.176 384.997 280.48ZM386.341 275.824H373.333V274.216H386.341V275.824ZM382.957 272.632H376.717V271H382.957V272.632ZM388.645 290.92V287.128H378.421V290.92H388.645ZM390.589 292.528H376.477V285.544H390.589V292.528ZM393.997 278.704H390.589V284.392H388.669V270.52H390.589V277.072H393.997V278.704ZM413.147 292.84H411.227V270.52H413.147V292.84ZM402.563 280.096C402.563 276.496 401.387 274.168 399.587 274.168C397.787 274.168 396.635 276.496 396.635 280.096C396.635 283.72 397.787 286.024 399.587 286.024C401.387 286.024 402.563 283.72 402.563 280.096ZM399.587 272.464C402.659 272.464 404.315 275.296 404.483 279.352H406.883V270.952H408.779V291.76H406.883V280.96H404.483C404.267 284.992 402.635 287.728 399.587 287.728C396.323 287.728 394.667 284.584 394.667 280.096C394.667 275.632 396.323 272.464 399.587 272.464ZM428.553 286.024L427.353 287.488C425.313 286.12 422.721 283.288 421.833 280.6C421.041 283.384 418.857 286.144 416.265 287.992L414.993 286.552C418.233 284.512 420.825 280.552 420.825 276.592V272.464H422.817V276.52C422.817 280.6 425.481 284.224 428.553 286.024ZM433.497 292.84H431.553V280.12H426.345V278.488H431.553V270.52H433.497V292.84ZM455.414 282.808L455.582 284.296C453.974 284.488 451.31 284.752 448.67 284.896C446.15 285.04 443.078 285.16 441.518 285.16L441.206 283.552C442.838 283.552 445.094 283.504 447.374 283.408V281.896C445.022 281.68 443.222 280.768 443.222 278.968C443.222 276.904 445.55 275.944 448.382 275.944C451.238 275.944 453.59 276.88 453.59 278.944C453.59 280.744 451.742 281.704 449.342 281.896V283.312C451.694 283.192 454.118 283 455.414 282.808ZM462.182 279.544H458.798V285.352H456.854V270.52H458.798V277.912H462.182V279.544ZM444.182 286.528H458.798V292.984H456.854V288.136H444.182V286.528ZM454.838 275.2H441.998V273.64H454.838V275.2ZM451.742 278.944C451.742 277.912 450.254 277.408 448.382 277.408C446.486 277.408 445.07 277.912 445.07 278.944C445.07 280 446.51 280.504 448.382 280.504C450.254 280.504 451.742 279.976 451.742 278.944ZM451.478 272.416H445.358V270.808H451.478V272.416ZM468.972 273.688C466.62 273.688 464.82 275.296 464.82 277.552C464.82 279.808 466.644 281.392 468.996 281.392C471.444 281.392 473.148 279.808 473.148 277.576C473.148 275.296 471.444 273.688 468.972 273.688ZM468.972 271.984C472.356 271.984 474.996 274.24 474.996 277.552C474.996 280.888 472.38 283.096 468.996 283.096C465.588 283.096 462.972 280.912 462.972 277.576C462.972 274.264 465.588 271.984 468.972 271.984ZM481.26 292.096H466.164V285.208H468.108V290.488H481.26V292.096ZM480.708 286.816H478.764V270.52H480.708V286.816ZM493.186 279.784C493.186 278.536 491.554 277.912 489.778 277.912C488.026 277.912 486.418 278.536 486.418 279.784C486.418 281.032 488.05 281.68 489.778 281.68C491.554 281.68 493.186 281.032 493.186 279.784ZM495.058 279.784C495.058 281.968 492.85 283.168 489.778 283.168C486.874 283.168 484.546 281.968 484.546 279.784C484.546 277.6 486.826 276.424 489.778 276.424C492.778 276.424 495.058 277.6 495.058 279.784ZM496.354 275.536H483.25V273.952H496.354V275.536ZM493.018 272.536H486.586V270.904H493.018V272.536ZM501.346 292.696H486.466V287.728H498.562V285.832H486.37V284.344H500.506V289.144H488.41V291.208H501.346V292.696ZM503.914 278.056H500.506V283.192H498.586V270.52H500.506V276.424H503.914V278.056ZM529.095 279.088L528.159 280.744C524.823 280.072 521.175 277.96 519.831 275.368C518.751 277.96 514.935 280.144 511.551 280.816L510.615 279.136C514.887 278.584 518.823 275.752 518.823 272.704V271.288H520.863V272.704C520.863 275.752 525.159 278.608 529.095 279.088ZM520.767 292.864H518.823V284.752H509.751V283.12H529.911V284.752H520.767V292.864ZM19.296 309.352C17.064 309.352 15.408 310.936 15.408 313.12C15.408 315.352 17.064 316.864 19.296 316.864C21.624 316.864 23.208 315.352 23.208 313.144C23.208 310.936 21.648 309.352 19.296 309.352ZM19.296 307.768C22.464 307.768 25.08 309.904 25.08 313.12C25.08 316.408 22.464 318.448 19.296 318.448C16.128 318.448 13.512 316.408 13.512 313.144C13.512 309.904 16.128 307.768 19.296 307.768ZM23.88 325.816L22.536 327.136C21.432 326.56 20.232 325.408 19.704 324.184C19.176 325.864 17.208 328.024 15.288 328.936L14.112 327.544C16.392 326.56 18.648 324.112 18.648 321.4V320.296H20.568V321.232C20.568 323.584 22.152 325.144 23.88 325.816ZM32.16 328.888H32.136C30.624 328.144 28.608 326.2 28.056 324.592C27.504 326.272 25.632 328.288 23.832 329.176L22.608 327.88C25.008 326.704 27.072 324.28 27.072 321.568V320.224H28.992V321.496C28.992 324.256 31.224 326.704 33.336 327.496L32.16 328.888ZM31.2 319.48H29.256V306.52H31.2V319.48ZM49.4861 326.92V324.256H38.3741V326.92H49.4861ZM51.4301 328.528H36.4301V320.08H38.3741V322.672H49.4861V320.056H51.4301V328.528ZM53.9981 318.496H33.8381V316.864H53.9981V318.496ZM52.9421 313.408L52.0301 315.088C48.6461 314.464 45.0221 312.328 43.9421 310.024C42.9581 312.328 39.2621 314.44 35.8781 315.088L34.9661 313.408C38.4701 313.024 42.9341 310.648 42.9341 307.504V306.784H44.9501V307.504C44.9501 310.648 49.5101 313.024 52.9421 313.408ZM68.6122 320.632L68.8042 322.312C66.2122 322.912 60.4042 323.344 56.9722 323.344H55.9882V308.848H57.9322V321.64C60.8122 321.64 65.9482 321.232 68.6122 320.632ZM72.8122 306.52V328.84H70.8922V306.52H72.8122ZM78.4264 321.712H79.7224C82.6024 321.712 87.0184 321.448 89.1544 320.992L89.3704 322.6C86.9704 323.056 82.5544 323.368 78.6664 323.368H76.4824V308.848H87.0664V310.48H78.4264V321.712ZM92.8024 306.52V315.376H96.4264V317.008H92.8024V328.84H90.8824V306.52H92.8024ZM96.5925 326.608V324.328H98.8005V326.608H96.5925Z" fill="#392200"/>
<circle cx="2" cy="278" r="2" fill="#392200"/>
<path d="M15.576 355.96H30.456C30.456 358.816 30.36 363.016 29.64 366.544H33.12V368.176H24V376.84H22.056V368.176H12.96V366.544H27.696C27.984 365.464 28.152 363.904 28.272 362.344L15.288 362.896L14.976 361.192L28.344 360.784C28.416 359.512 28.44 358.336 28.44 357.568H15.576V355.96ZM52.0301 357.256H35.6861V355.648H52.0301V357.256ZM51.6701 376.144H36.3581V370.144H38.3021V374.512H51.6701V376.144ZM53.9981 368.56H33.8381V366.928H42.9101V364.264H35.7101V362.68H39.3821L38.7101 358.408L40.7261 358.144L41.2301 362.68H46.4861L47.0621 358.096L49.0781 358.36L48.3581 362.68H52.0301V364.264H44.8541V366.928H53.9981V368.56ZM63.8122 364.072V360.544H57.5482V364.072H63.8122ZM65.7562 365.68H55.6042V355.528H57.5482V358.936H63.8122V355.528H65.7562V365.68ZM72.9562 354.52V366.256H71.0122V363.448H66.8842V361.84H71.0122V359.2H66.8842V357.616H71.0122V354.52H72.9562ZM73.7722 376.672H58.4602V371.128H71.0122V368.992H58.4362V367.408H72.9562V372.64H60.4042V375.088H73.7722V376.672ZM94.2249 369.904L93.0009 371.392C90.6969 369.808 88.2009 367.144 87.3129 364.456C86.5209 367.24 84.3609 370.072 81.7209 371.896L80.4729 370.408C83.7129 368.416 86.3289 364.408 86.3289 360.448V356.488H88.3209V360.376C88.3209 364.456 91.1289 368.104 94.2249 369.904ZM101.881 365.152H98.2809V376.84H96.3369V354.52H98.2809V363.52H101.881V365.152ZM112.079 363.376C110.975 363.376 109.967 363.304 109.079 363.136V365.8H115.007V363.16C114.119 363.304 113.159 363.376 112.079 363.376ZM112.103 370.504C108.551 370.504 106.175 371.296 106.175 372.76C106.175 374.224 108.551 375.016 112.103 375.016C115.727 375.016 118.079 374.224 118.079 372.76C118.079 371.296 115.703 370.504 112.103 370.504ZM117.983 359.2C117.983 357.544 115.655 356.56 112.079 356.56C108.503 356.56 106.199 357.544 106.199 359.2C106.199 360.832 108.503 361.816 112.079 361.816C115.631 361.816 117.983 360.832 117.983 359.2ZM120.023 372.76C120.023 375.328 117.023 376.696 112.127 376.696C107.207 376.696 104.231 375.328 104.231 372.76C104.231 370.216 107.207 368.824 112.103 368.824C117.023 368.824 120.023 370.216 120.023 372.76ZM119.879 359.2C119.879 360.712 118.823 361.912 116.951 362.632V365.8H122.159V367.408H101.999V365.8H107.135V362.608C105.311 361.888 104.303 360.688 104.303 359.2C104.303 356.656 107.183 355 112.079 355C116.975 355 119.879 356.656 119.879 359.2ZM143.037 373.984H122.877V372.352H131.949V366.808H133.893V372.352H143.037V373.984ZM141.357 358.336H133.989V358.816C133.989 362.32 138.909 365.608 142.269 366.256L141.261 367.888C137.685 366.88 134.013 364.096 132.957 361.648C132.021 364.168 128.325 366.904 124.629 367.84L123.693 366.208C127.221 365.584 131.949 362.368 131.949 358.816V358.336H124.605V356.776H141.357V358.336ZM144.859 356.2H155.083C154.747 362.152 150.787 366.328 145.027 368.248L144.043 366.616C148.771 365.368 152.371 361.744 152.947 357.832H144.859V356.2ZM160.051 362.68H155.155V361.048H160.051V354.52H161.995V370.72H160.051V362.68ZM162.523 376.288H147.379V369.256H149.323V374.656H162.523V376.288ZM175.049 364.096C175.049 360.424 173.513 357.88 171.137 357.88C168.785 357.88 167.225 360.424 167.225 364.096C167.225 367.744 168.785 370.288 171.137 370.288C173.513 370.288 175.049 367.744 175.049 364.096ZM165.377 364.072C165.377 359.368 167.465 356.2 171.137 356.2C174.833 356.2 176.897 359.368 176.897 364.096C176.897 368.824 174.833 371.968 171.137 371.968C167.465 371.968 165.377 368.824 165.377 364.072ZM182.993 376.84H181.049V354.52H182.993V376.84ZM193.87 369.712H195.166C198.046 369.712 202.462 369.448 204.598 368.992L204.814 370.6C202.414 371.056 197.998 371.368 194.11 371.368H191.926V356.848H202.51V358.48H193.87V369.712ZM208.246 354.52V363.376H211.87V365.008H208.246V376.84H206.326V354.52H208.246ZM232.076 373.792H211.916V372.16H232.076V373.792ZM230.132 368.392H214.46V361.408H227.612V357.904H214.388V356.272H229.556V363.016H216.404V366.76H230.132V368.392ZM252.954 373.768H232.794V372.136H252.954V373.768ZM248.394 365.416V358.312H237.378V365.416H248.394ZM250.338 367.024H235.434V356.704H250.338V367.024ZM273.832 373.984H253.672V372.352H262.744V368.56H256.168V361.576H269.392V358H256.144V356.368H271.336V363.184H258.112V366.928H271.96V368.56H264.688V372.352H273.832V373.984ZM300.861 365.2H297.237V376.84H295.293V354.52H297.237V363.568H300.861V365.2ZM293.325 370.144L292.149 371.608C290.037 370.264 287.325 367.456 286.509 364.792C285.765 367.504 283.581 370.264 280.917 372.136L279.621 370.672C282.909 368.728 285.501 364.816 285.501 360.784V358.504H280.341V356.872H292.677V358.504H287.517V360.736C287.517 364.912 290.253 368.416 293.325 370.144ZM312.187 369.784L311.011 371.224C309.283 369.976 306.931 367.336 306.235 364.792C305.731 367.36 303.907 370.264 301.675 371.872L300.475 370.432C303.019 368.824 305.251 365.008 305.251 360.64V356.584H307.171V360.592C307.171 364.936 309.763 368.176 312.187 369.784ZM315.451 375.712H313.555V364.192H309.595V362.56H313.555V355.048H315.451V375.712ZM319.867 376.84H317.947V354.52H319.867V376.84ZM331.697 365.416C331.697 363.928 330.089 363.04 328.289 363.04C326.489 363.04 324.881 363.928 324.881 365.416C324.881 366.88 326.489 367.768 328.289 367.768C330.089 367.768 331.697 366.88 331.697 365.416ZM333.545 365.416C333.545 367.768 331.289 369.328 328.289 369.328C325.313 369.328 323.033 367.768 323.033 365.416C323.033 363.016 325.289 361.504 328.289 361.504C331.289 361.504 333.545 363.016 333.545 365.416ZM334.817 360.304H321.737V358.696H334.817V360.304ZM331.361 357.016H324.929V355.312H331.361V357.016ZM339.857 376.12H325.001V370.384H326.945V374.488H339.857V376.12ZM342.401 363.712H338.993V370.984H337.049V354.52H338.993V362.08H342.401V363.712ZM361.342 369.904L360.118 371.392C357.814 369.808 355.318 367.144 354.43 364.456C353.638 367.24 351.478 370.072 348.838 371.896L347.59 370.408C350.83 368.416 353.446 364.408 353.446 360.448V356.488H355.438V360.376C355.438 364.456 358.246 368.104 361.342 369.904ZM368.998 365.152H365.398V376.84H363.454V354.52H365.398V363.52H368.998V365.152ZM379.196 363.376C378.092 363.376 377.084 363.304 376.196 363.136V365.8H382.124V363.16C381.236 363.304 380.276 363.376 379.196 363.376ZM379.22 370.504C375.668 370.504 373.292 371.296 373.292 372.76C373.292 374.224 375.668 375.016 379.22 375.016C382.844 375.016 385.196 374.224 385.196 372.76C385.196 371.296 382.82 370.504 379.22 370.504ZM385.1 359.2C385.1 357.544 382.772 356.56 379.196 356.56C375.62 356.56 373.316 357.544 373.316 359.2C373.316 360.832 375.62 361.816 379.196 361.816C382.748 361.816 385.1 360.832 385.1 359.2ZM387.14 372.76C387.14 375.328 384.14 376.696 379.244 376.696C374.324 376.696 371.348 375.328 371.348 372.76C371.348 370.216 374.324 368.824 379.22 368.824C384.14 368.824 387.14 370.216 387.14 372.76ZM386.996 359.2C386.996 360.712 385.94 361.912 384.068 362.632V365.8H389.276V367.408H369.116V365.8H374.252V362.608C372.428 361.888 371.42 360.688 371.42 359.2C371.42 356.656 374.3 355 379.196 355C384.092 355 386.996 356.656 386.996 359.2ZM410.154 373.984H389.994V372.352H399.066V366.808H401.01V372.352H410.154V373.984ZM408.474 358.336H401.106V358.816C401.106 362.32 406.026 365.608 409.386 366.256L408.378 367.888C404.802 366.88 401.13 364.096 400.074 361.648C399.138 364.168 395.442 366.904 391.746 367.84L390.81 366.208C394.338 365.584 399.066 362.368 399.066 358.816V358.336H391.722V356.776H408.474V358.336ZM411.977 356.2H422.201C421.865 362.152 417.905 366.328 412.145 368.248L411.161 366.616C415.889 365.368 419.489 361.744 420.065 357.832H411.977V356.2ZM427.169 362.68H422.273V361.048H427.169V354.52H429.113V370.72H427.169V362.68ZM429.641 376.288H414.497V369.256H416.441V374.656H429.641V376.288ZM441.855 356.776C438.327 356.776 436.023 357.712 436.023 359.56C436.023 361.384 438.303 362.32 441.831 362.32C445.359 362.32 447.687 361.384 447.687 359.56C447.687 357.712 445.383 356.776 441.855 356.776ZM449.607 359.536C449.607 362.392 446.703 363.952 441.831 363.952C436.959 363.952 434.079 362.392 434.079 359.536C434.079 356.728 436.983 355.168 441.855 355.168C446.703 355.168 449.607 356.728 449.607 359.536ZM449.631 376.192H434.415V369.688H436.359V374.56H449.631V376.192ZM451.911 367.6H431.751V365.968H451.911V367.6ZM460.771 355.96H475.651C475.651 358.816 475.555 363.016 474.835 366.544H478.315V368.176H469.195V376.84H467.251V368.176H458.155V366.544H472.891C473.179 365.464 473.347 363.904 473.467 362.344L460.483 362.896L460.171 361.192L473.539 360.784C473.611 359.512 473.635 358.336 473.635 357.568H460.771V355.96ZM497.225 357.256H480.881V355.648H497.225V357.256ZM496.865 376.144H481.553V370.144H483.497V374.512H496.865V376.144ZM499.193 368.56H479.033V366.928H488.105V364.264H480.905V362.68H484.577L483.905 358.408L485.921 358.144L486.425 362.68H491.681L492.257 358.096L494.273 358.36L493.553 362.68H497.225V364.264H490.049V366.928H499.193V368.56ZM511.654 357.808C509.398 357.808 507.694 359.464 507.694 361.768C507.694 364.072 509.422 365.704 511.678 365.704C514.03 365.704 515.638 364.072 515.638 361.792C515.638 359.464 514.03 357.808 511.654 357.808ZM511.654 356.152C514.99 356.152 517.582 358.432 517.582 361.768C517.582 365.128 515.014 367.36 511.678 367.36C508.318 367.36 505.75 365.152 505.75 361.792C505.75 358.456 508.318 356.152 511.654 356.152ZM523.414 376.072H508.606V369.136H510.55V374.464H523.414V376.072ZM526.006 362.68H522.598V370.72H520.654V354.52H522.598V361.048H526.006V362.68ZM536.9 368.56L537.116 370.192C535.268 370.624 531.836 370.936 529.004 370.936H527.3V356.968H529.244V369.256C531.548 369.304 535.268 368.992 536.9 368.56ZM545.132 376.84H543.236V365.032H540.284V375.688H538.412V355.048H540.284V363.4H543.236V354.52H545.132V376.84ZM565.29 363.136H549.762V358.528H562.914V356.776H549.738V355.264H564.858V359.92H551.706V361.696H565.29V363.136ZM565.674 376.432H549.522V371.464H563.034V369.616H549.546V368.176H564.978V372.856H551.466V374.896H565.674V376.432ZM567.354 366.424H547.194V364.912H567.354V366.424ZM26.784 402.808L26.952 404.296C25.344 404.488 22.68 404.752 20.04 404.896C17.52 405.04 14.448 405.16 12.888 405.16L12.576 403.552C14.208 403.552 16.464 403.504 18.744 403.408V401.896C16.392 401.68 14.592 400.768 14.592 398.968C14.592 396.904 16.92 395.944 19.752 395.944C22.608 395.944 24.96 396.88 24.96 398.944C24.96 400.744 23.112 401.704 20.712 401.896V403.312C23.064 403.192 25.488 403 26.784 402.808ZM33.552 399.544H30.168V405.352H28.224V390.52H30.168V397.912H33.552V399.544ZM15.552 406.528H30.168V412.984H28.224V408.136H15.552V406.528ZM26.208 395.2H13.368V393.64H26.208V395.2ZM23.112 398.944C23.112 397.912 21.624 397.408 19.752 397.408C17.856 397.408 16.44 397.912 16.44 398.944C16.44 400 17.88 400.504 19.752 400.504C21.624 400.504 23.112 399.976 23.112 398.944ZM22.848 392.416H16.728V390.808H22.848V392.416ZM40.3421 393.688C37.9901 393.688 36.1901 395.296 36.1901 397.552C36.1901 399.808 38.0141 401.392 40.3661 401.392C42.8141 401.392 44.5181 399.808 44.5181 397.576C44.5181 395.296 42.8141 393.688 40.3421 393.688ZM40.3421 391.984C43.7261 391.984 46.3661 394.24 46.3661 397.552C46.3661 400.888 43.7501 403.096 40.3661 403.096C36.9581 403.096 34.3421 400.912 34.3421 397.576C34.3421 394.264 36.9581 391.984 40.3421 391.984ZM52.6301 412.096H37.5341V405.208H39.4781V410.488H52.6301V412.096ZM52.0781 406.816H50.1341V390.52H52.0781V406.816ZM63.3802 393.904H57.2842V392.224H63.3802V393.904ZM65.7802 397.552H54.6682V395.944H65.7802V397.552ZM63.5002 403.312C63.5002 401.584 62.2522 400.48 60.5002 400.48C58.7242 400.48 57.5002 401.608 57.5002 403.312C57.5002 405.04 58.7242 406.144 60.5002 406.144C62.2522 406.144 63.5002 404.992 63.5002 403.312ZM65.3722 403.312C65.3722 406 63.3802 407.752 60.5002 407.752C57.6442 407.752 55.6282 405.856 55.6282 403.312C55.6282 400.6 57.6442 398.848 60.5002 398.848C63.3802 398.848 65.3722 400.624 65.3722 403.312ZM73.5562 412.84H71.6363V401.272H68.9482V411.712H67.0522V391.048H68.9482V399.64H71.6363V390.52H73.5562V412.84ZM92.1369 412.84H90.1929V404.848H81.1209V403.216H101.281V404.848H92.1369V412.84ZM100.321 399.496L99.4089 401.128C95.7609 400.504 92.2089 398.248 91.2009 396.16C90.2889 398.248 86.8329 400.552 83.0169 401.176L82.1289 399.544C85.7769 399.16 90.0969 396.832 90.1929 393.712H82.9689V392.104H99.4089V393.712H92.2329C92.3289 396.856 96.9129 399.112 100.321 399.496ZM113.231 405.784L112.055 407.224C110.327 405.976 107.975 403.336 107.279 400.792C106.775 403.36 104.951 406.264 102.719 407.872L101.519 406.432C104.063 404.824 106.295 401.008 106.295 396.64V392.584H108.215V396.592C108.215 400.936 110.807 404.176 113.231 405.784ZM116.495 411.712H114.599V400.192H110.639V398.56H114.599V391.048H116.495V411.712ZM120.911 412.84H118.991V390.52H120.911V412.84ZM143.037 409.984H122.877V408.352H127.869V403.912L129.813 403.864V408.352H136.029V403.864L137.973 403.912V408.352H143.037V409.984ZM139.125 397.648C139.125 395.224 136.677 393.592 132.933 393.592C129.213 393.592 126.765 395.224 126.765 397.648C126.765 400.072 129.213 401.704 132.933 401.704C136.653 401.704 139.125 400.072 139.125 397.648ZM140.997 397.648C140.997 401.008 137.781 403.216 132.933 403.216C128.109 403.216 124.893 401.008 124.893 397.648C124.893 394.288 128.109 392.032 132.933 392.032C137.805 392.032 140.997 394.288 140.997 397.648ZM143.875 410.608V408.328H146.083V410.608H143.875Z" fill="#392200"/>
<circle cx="2" cy="362" r="2" fill="#392200"/>
</svg>
