<svg width="219" height="30" viewBox="0 0 219 30" fill="none" xmlns="http://www.w3.org/2000/svg">
<path d="M4.4609 18.21H10.2809V9.99L4.4609 18.21ZM10.2509 25.59V21.12H0.200898V18.84L11.2709 3.36H13.9409V18.21H17.1509V21.12H13.9409V25.59H10.2509ZM28.0709 13.29V5.7H22.1609V13.29H28.0709ZM31.7609 16.2H18.4709V2.82H31.7609V16.2ZM40.5509 28.23H21.4409V19.14H25.1609V25.29H40.5509V28.23ZM39.8609 0.629999V8.76H43.9109V11.85H39.8609V21.24H36.0809V0.629999H39.8609ZM56.2086 6.84C56.2086 5.58 54.8886 4.32 52.7886 4.32C50.6286 4.32 49.3386 5.58 49.3386 6.84C49.3386 8.07 50.6286 9.27 52.7886 9.27C54.8886 9.27 56.2086 8.07 56.2086 6.84ZM55.6986 21.24H51.9786V16.17C49.0386 16.29 46.2486 16.32 44.1186 16.32L43.6086 13.38C50.5986 13.38 57.7386 13.02 61.7286 12.51L61.9386 15.27C60.0186 15.57 57.8886 15.78 55.6986 15.93V21.24ZM68.1786 28.32H47.2986V19.92H51.0486V25.35H68.1786V28.32ZM58.5786 19.74V17.07H63.9786V0.629999H67.7286V22.62H63.9786V19.74H58.5786ZM59.8986 6.84C59.8986 9.9 56.9286 12.06 52.7886 12.06C48.6486 12.06 45.5886 9.9 45.5886 6.78C45.5886 3.78 48.6486 1.53 52.7886 1.53C56.9286 1.53 59.8986 3.78 59.8986 6.84ZM88.6744 12.75C88.6744 8.28 87.0844 5.58 84.8644 5.58C82.7344 5.58 81.1744 8.28 81.1744 12.75C81.1744 17.22 82.7344 19.89 84.8644 19.89C87.0844 19.89 88.6744 17.22 88.6744 12.75ZM77.5444 12.75C77.5444 6.78 80.2444 2.58 84.8644 2.58C89.5444 2.58 92.2444 6.78 92.2444 12.78C92.2444 18.69 89.5444 22.89 84.8644 22.89C80.2444 22.89 77.5444 18.72 77.5444 12.75ZM100.224 29.07H96.5044V0.629999H100.224V29.07ZM115.642 20.52C111.922 20.52 109.762 21.6 109.762 23.34C109.762 25.02 111.922 26.07 115.642 26.07C119.392 26.07 121.582 25.02 121.582 23.34C121.582 21.6 119.392 20.52 115.642 20.52ZM125.392 23.34C125.392 26.82 121.822 29.07 115.642 29.07C109.492 29.07 105.922 26.82 105.922 23.34C105.922 19.77 109.492 17.55 115.642 17.55C121.822 17.55 125.392 19.77 125.392 23.34ZM119.542 13.05L117.412 15.96C115.222 15.12 112.282 12.84 111.022 10.2C110.182 13.11 107.092 15.78 104.452 16.68L102.202 13.71C106.342 12.24 109.072 8.88 109.072 4.59V1.92H112.912V4.38C112.912 8.79 116.212 11.97 119.542 13.05ZM129.112 10.47H125.062V17.25H121.312V0.629999H125.062V7.41H129.112V10.47ZM138.988 2.16H158.248C158.248 6.78 157.948 11.04 157.318 14.31H161.518V17.25H150.478V29.07H146.758V17.25H135.838V14.31H153.778C154.288 11.85 154.528 8.64 154.528 5.16H138.988V2.16ZM170.816 18.81V6.93H166.316V18.81H170.816ZM186.116 29.07H182.546V14.82H180.266V27.75H176.756V1.14H180.266V11.82H182.546V0.629999H186.116V29.07ZM174.326 4.05V21.66H162.806V4.05H174.326ZM212.581 19.83L210.421 22.62C208.081 21.18 205.111 17.73 204.151 14.79C203.221 18.03 200.311 21.63 197.371 23.22L195.091 20.49C199.681 17.52 202.141 13.02 202.141 7.38V3.03H206.011V7.17C206.011 12.81 208.291 17.04 212.581 19.83ZM218.461 29.07H214.711V0.629999H218.461V29.07Z" fill="#495576"/>
</svg>
