<svg width="570" height="72" viewBox="0 0 570 72" fill="none" xmlns="http://www.w3.org/2000/svg">
<path d="M23.976 18.512V27.8H21.984V18.512H13.296V16.904H27.576C28.248 13.808 28.248 11.528 28.248 9.512V9.224H15.72V7.64H30.168V9.512C30.168 11.528 30.168 13.808 29.568 16.904H32.76V18.512H23.976ZM52.4381 27.752H50.5661V16.376H47.6621V26.696H45.8141V6.728H47.6621V14.768H50.5661V6.248H52.4381V27.752ZM43.1021 8.744V21.992H34.9181V8.744H43.1021ZM41.2781 20.432V10.304H36.7661V20.432H41.2781ZM55.9642 17.336C59.6842 16.688 63.7642 13.736 63.7642 10.28V9.824H56.6362V8.216H72.9322V9.824H65.8042V10.28C65.8042 13.712 69.9082 16.688 73.6522 17.264L72.8602 18.848C69.5962 18.2 66.1402 16.064 64.7962 13.136C63.4522 16.136 59.9962 18.248 56.8042 18.944L55.9642 17.336ZM74.5642 25.016H55.0282V23.384H63.8122V18.176H65.7802V23.384H74.5642V25.016ZM91.6504 6.272H93.6424V22.16H91.6504V14.504H86.9944V12.896H91.6504V6.272ZM87.0904 7.928C87.0904 13.448 83.1544 17.696 77.0824 19.688L76.2424 18.104C81.1624 16.496 84.5224 13.376 84.9784 9.536H77.3224V7.928H87.0904ZM94.1944 27.296H80.0344V20.552H82.0024V25.688H94.1944V27.296ZM102.104 14.216C106.064 13.904 109.4 12.224 109.592 9.92H102.968V8.36H109.712V6.176H111.68V8.36H118.424V9.92H111.776C111.968 12.224 115.28 13.904 119.288 14.216L118.688 15.752C115.16 15.368 111.968 14.096 110.696 11.984C109.352 14.096 106.28 15.368 102.704 15.752L102.104 14.216ZM111.656 20.624C115.784 20.792 118.04 22.04 118.04 24.176C118.04 26.504 115.4 27.752 110.696 27.752C105.968 27.752 103.304 26.504 103.304 24.176C103.304 22.04 105.56 20.792 109.712 20.624V18.464H100.952V16.88H120.416V18.464H111.656V20.624ZM116.048 24.176C116.048 22.832 114.056 22.088 110.672 22.088C107.192 22.088 105.296 22.832 105.296 24.176C105.296 25.52 107.192 26.264 110.672 26.264C114.056 26.264 116.048 25.52 116.048 24.176ZM122.934 13.472C126.702 13.016 130.182 11.144 130.302 8.72H123.606V7.112H139.542V8.72H132.846C132.966 11.144 136.422 13.016 140.214 13.472L139.518 15.008C135.99 14.552 132.798 13.016 131.574 10.616C130.35 13.016 127.254 14.552 123.654 15.008L122.934 13.472ZM141.366 18.656H121.83V17.048H130.566V13.808H132.534V17.048H141.366V18.656ZM138.894 20.792V27.8H136.926V22.376H123.99V20.792H138.894ZM164.491 27.824H162.523V6.248H164.491V27.824ZM154.507 11.984C154.507 15.92 157.099 19.904 160.267 21.32L159.091 22.904C156.595 21.68 154.579 19.184 153.547 16.088C152.563 19.376 150.499 21.968 147.979 23.312L146.779 21.704C149.923 20.168 152.563 16.112 152.563 11.984V8.12H154.507V11.984ZM170.009 22.952L168.545 27.8H166.961L167.825 22.952H170.009ZM193.003 27.824H191.035V16.064H186.355C186.163 20.288 184.027 22.928 181.027 22.928C177.883 22.928 175.651 20 175.651 15.416C175.651 10.832 177.883 7.904 181.027 7.904C183.931 7.904 186.043 10.424 186.355 14.456H191.035V6.248H193.003V27.824ZM181.027 21.176C183.067 21.176 184.507 18.92 184.507 15.416C184.507 11.936 183.067 9.68 181.027 9.68C178.963 9.68 177.523 11.936 177.523 15.416C177.523 18.92 178.963 21.176 181.027 21.176ZM198.617 18.176V8.216H213.185V9.848H200.561V16.568H213.401V18.176H198.617ZM215.657 24.872H196.121V23.24H215.657V24.872ZM233.296 22.568V6.272H235.192V22.568H233.296ZM217.984 18.512V7.976H219.856V11.6H224.488V7.976H226.336V12.488H229.216V6.68H231.064V21.944H229.216V14.096H226.336V18.512H217.984ZM219.856 13.16V16.928H224.488V13.16H219.856ZM235.816 27.296H221.152V20.408H223.12V25.688H235.816V27.296ZM240.398 19.448V8.12H254.966V9.704H242.39V12.896H254.486V14.456H242.39V17.864H255.182V19.448H240.398ZM257.414 24.992H237.878V23.384H257.414V24.992ZM274.515 17.408V6.656H276.387V11.192H279.219V6.272H281.115V17.576H279.219V12.8H276.387V17.408H274.515ZM272.523 7.472C272.523 12.56 269.907 16.28 264.123 18.488L263.235 17.048C266.235 15.992 268.155 14.504 269.331 12.68L263.451 13.28L263.139 11.696L270.051 11.24C270.315 10.544 270.483 9.8 270.555 9.056H264.147V7.472H272.523ZM281.931 27.488H266.955V22.16H279.171V20.12H266.907V18.584H281.115V23.624H268.899V25.952H281.931V27.488ZM299.497 22.112V6.272H301.465V22.112H299.497ZM297.121 18.344C293.665 18.92 290.785 19.064 286.681 19.064H284.953V12.512H292.729V9.368H284.881V7.784H294.673V14H286.873V17.456C290.833 17.456 293.593 17.312 296.929 16.736L297.121 18.344ZM302.065 27.296H287.425V20.888H289.393V25.688H302.065V27.296ZM322.439 27.824H320.471V15.68H314.303V14.048H320.471V6.248H322.439V27.824ZM307.751 20.84C311.567 20.84 314.111 20.72 316.991 20.144L317.231 21.776C314.087 22.352 311.543 22.496 307.439 22.496H305.783V8.288H315.575V9.92H307.751V20.84ZM330.973 16.04C334.885 15.536 338.485 13.16 338.485 10.496H331.645V8.912H338.509V6.272H340.477V8.912H347.341V10.496H340.477C340.477 13.136 344.101 15.536 347.965 16.04L347.269 17.624C343.957 17.12 340.861 15.464 339.493 13.136C338.125 15.464 335.029 17.12 331.693 17.624L330.973 16.04ZM340.477 20.864V27.8H338.509V20.864H329.773V19.256H349.237V20.864H340.477ZM367.187 16.616V27.776H365.219V6.248H367.187V14.984H370.643V16.616H367.187ZM361.619 8.552C361.619 14.672 358.811 20.24 351.851 23.696L350.771 22.16C356.363 19.352 359.219 15.368 359.675 10.184H351.779V8.552H361.619ZM382.209 18.512V27.8H380.217V18.512H371.529V16.904H385.809C386.481 13.808 386.481 11.528 386.481 9.512V9.224H373.953V7.64H388.401V9.512C388.401 11.528 388.401 13.808 387.801 16.904H390.993V18.512H382.209ZM410.671 27.752H408.799V16.376H405.895V26.696H404.047V6.728H405.895V14.768H408.799V6.248H410.671V27.752ZM401.335 8.744V21.992H393.151V8.744H401.335ZM399.511 20.432V10.304H394.999V20.432H399.511ZM435.716 27.776H433.844V6.248H435.716V27.776ZM431.732 6.728V26.72H429.86V20.048H426.812C426.164 21.872 424.604 22.952 422.684 22.952C420.068 22.952 418.172 20.936 418.172 17.984C418.172 15.008 420.068 12.992 422.684 12.992C425.276 12.992 427.172 15.008 427.172 17.984V18.224C427.172 18.344 427.172 18.44 427.148 18.464H429.86V15.128H426.884V13.544H429.86V6.728H431.732ZM417.404 11.528V9.944H421.7V6.8H423.644V9.944H428.012V11.528H417.404ZM422.684 21.272C424.292 21.272 425.444 19.904 425.444 17.984C425.444 16.04 424.316 14.672 422.684 14.672C421.052 14.672 419.9 16.04 419.9 17.984C419.9 19.904 421.052 21.272 422.684 21.272ZM456.474 19.304H454.578V13.472H451.698V19.16H449.826V6.656H451.698V11.864H454.578V6.272H456.474V19.304ZM448.578 17.576C446.082 18.08 444.066 18.176 440.61 18.176H439.242V7.832H447.546V9.416H441.138V12.128H447.306V13.64H441.138V16.568C444.21 16.568 446.154 16.448 448.386 15.992L448.578 17.576ZM456.474 20.432V27.776H454.506V22.016H442.002V20.432H456.474ZM478.721 25.064H459.161V23.432H467.921V17.912H461.657V7.976H476.249V9.584H463.625V16.328H476.465V17.912H469.913V23.432H478.721V25.064ZM504.126 13.064H500.934V18.848H498.966V6.272H500.934V11.432H504.126V13.064ZM485.118 17.48V7.448H487.062V10.736H493.158V7.448H495.078V17.48H485.118ZM487.062 12.296V15.896H493.158V12.296H487.062ZM501.51 25.88V27.464H487.494V20.024H501.126V21.608H489.462V25.88H501.51ZM514.828 14.072C510.1 14.072 507.268 12.776 507.268 10.352C507.268 7.928 510.1 6.608 514.828 6.608C519.556 6.608 522.388 7.928 522.388 10.352C522.388 12.776 519.556 14.072 514.828 14.072ZM514.828 8.096C511.252 8.096 509.284 8.912 509.284 10.352C509.284 11.792 511.252 12.608 514.828 12.608C518.404 12.608 520.372 11.792 520.372 10.352C520.372 8.912 518.404 8.096 514.828 8.096ZM524.572 17.12H505.084V15.536H524.572V17.12ZM522.724 26V27.536H507.508V22.376H520.132V20.456H507.436V18.968H522.076V23.816H509.428V26H522.724ZM547.865 16.04C544.505 15.464 541.313 13.616 539.897 11C538.553 13.616 535.289 15.464 531.953 16.04L531.161 14.456C535.097 13.88 538.865 11.312 538.865 8.216V7.016H540.929V8.216C540.929 11.216 544.769 13.88 548.681 14.456L547.865 16.04ZM540.833 20V27.8H538.865V20H530.177V18.368H549.617L549.641 20H540.833ZM28.968 54.56V42.272H30.936V54.56H28.968ZM19.368 53.552C16.128 53.552 13.776 51.512 13.776 48.536C13.776 45.56 16.128 43.52 19.368 43.52C22.632 43.52 25.008 45.56 25.008 48.536C25.008 51.512 22.632 53.552 19.368 53.552ZM19.368 45.152C17.232 45.152 15.696 46.544 15.696 48.536C15.696 50.528 17.232 51.92 19.368 51.92C21.504 51.92 23.088 50.528 23.088 48.536C23.088 46.544 21.504 45.152 19.368 45.152ZM28.536 56.648C28.536 58.88 30.096 61.112 32.856 62L31.872 63.488C29.76 62.72 28.296 61.256 27.552 59.432C26.88 61.184 25.584 62.816 23.568 63.68C21.456 62.84 20.208 61.328 19.56 59.504C18.792 61.232 17.328 62.72 15.312 63.488L14.328 62C17.04 61.04 18.648 58.736 18.648 56.648V55.496H20.544V56.648C20.544 58.568 21.504 60.584 23.52 61.76C25.584 60.464 26.616 58.328 26.616 56.648V55.496H28.536V56.648ZM51.7901 50.552C48.4541 50.048 45.2621 48.344 43.8941 45.944C42.5261 48.344 39.3581 50.048 35.9741 50.552L35.2541 48.968C39.1181 48.512 42.8861 46.184 42.8861 43.448V42.488H44.9021V43.448C44.9021 46.064 48.6701 48.512 52.5101 48.968L51.7901 50.552ZM53.6141 53.648H34.1261V52.064H53.6141V53.648ZM51.0701 55.136V63.488H36.5981V55.136H38.5421V57.656H49.1261V55.136H51.0701ZM38.5421 59.168V61.904H49.1261V59.168H38.5421ZM72.6682 63.752H70.7002V42.248H72.6682V63.752ZM58.3402 56.528C61.6282 56.528 64.9162 56.264 68.4922 55.52L68.7082 57.2C64.9402 57.968 61.6042 58.208 58.1482 58.208H56.3722V44.336H58.3402V56.528ZM92.4664 52.376V63.824H90.4984V42.248H92.4664V50.744H96.0184V52.376H92.4664ZM78.7864 56.768C82.6264 56.768 85.3864 56.624 88.4824 56.048L88.6984 57.68C85.4344 58.328 82.5544 58.448 78.5224 58.448H76.8184V44.312H86.8264V45.944H78.7864V56.768ZM98.7045 60.08V62.336H96.5205V60.08H98.7045Z" fill="white"/>
<circle cx="2" cy="14" r="2" fill="white"/>
</svg>
