<svg width="570" height="120" viewBox="0 0 570 120" fill="none" xmlns="http://www.w3.org/2000/svg">
<path d="M14.832 26.08L21.576 10.624H12.864V8.92H23.808V10.216L17.088 26.08H14.832ZM44.4356 19.312H24.2756V17.68H33.3716V14.296H35.3156V17.68H44.4356V19.312ZM34.3556 22.672C30.7556 22.672 28.5236 23.488 28.5236 24.928C28.5236 26.416 30.7556 27.208 34.3556 27.208C37.9796 27.208 40.2116 26.416 40.2116 24.928C40.2116 23.488 37.9796 22.672 34.3556 22.672ZM43.4276 13.96L42.5396 15.592C38.8196 14.992 35.4596 13.024 34.3556 10.984C33.4676 13.048 30.1556 15.04 26.2196 15.616L25.3316 13.984C28.7876 13.672 32.5796 11.896 33.2516 9.28H26.1236V7.672H42.5876V9.28H35.4836C36.2036 11.92 40.3316 13.672 43.4276 13.96ZM42.1796 24.928C42.1796 27.376 39.3476 28.768 34.3556 28.768C29.3636 28.768 26.5556 27.352 26.5556 24.928C26.5556 22.552 29.3636 21.112 34.3556 21.112C39.3476 21.112 42.1796 22.456 42.1796 24.928ZM53.2963 7.96H68.1763C68.1763 10.816 68.0803 15.016 67.3603 18.544H70.8403V20.176H61.7203V28.84H59.7763V20.176H50.6803V18.544H65.4163C65.7043 17.464 65.8723 15.904 65.9923 14.344L53.0083 14.896L52.6963 13.192L66.0643 12.784C66.1363 11.512 66.1603 10.336 66.1603 9.568H53.2963V7.96ZM89.7504 9.256H73.4064V7.648H89.7504V9.256ZM89.3904 28.144H74.0784V22.144H76.0224V26.512H89.3904V28.144ZM91.7184 20.56H71.5584V18.928H80.6304V16.264H73.4304V14.68H77.1024L76.4304 10.408L78.4464 10.144L78.9504 14.68H84.2064L84.7824 10.096L86.7984 10.36L86.0784 14.68H89.7504V16.264H82.5744V18.928H91.7184V20.56ZM102.541 8.776C99.0126 8.776 96.7086 9.712 96.7086 11.56C96.7086 13.384 98.9886 14.32 102.517 14.32C106.045 14.32 108.373 13.384 108.373 11.56C108.373 9.712 106.069 8.776 102.541 8.776ZM110.293 11.536C110.293 14.392 107.389 15.952 102.517 15.952C97.6446 15.952 94.7646 14.392 94.7646 11.536C94.7646 8.728 97.6686 7.168 102.541 7.168C107.389 7.168 110.293 8.728 110.293 11.536ZM110.317 28.192H95.1006V21.688H97.0446V26.56H110.317V28.192ZM112.597 19.6H92.4366V17.968H112.597V19.6ZM121.529 16.72H122.633C125.729 16.72 129.497 16.408 131.657 15.976L131.873 17.56C129.401 17.992 125.249 18.328 121.409 18.328H119.585V8.296H129.641V9.928H121.529V16.72ZM134.249 24.496C134.249 22.888 132.233 21.856 128.849 21.856C125.489 21.856 123.497 22.912 123.497 24.496C123.497 26.08 125.489 27.112 128.849 27.112C132.233 27.112 134.249 26.104 134.249 24.496ZM136.265 24.496C136.265 26.992 133.697 28.72 128.849 28.72C124.001 28.72 121.481 27.016 121.481 24.496C121.481 21.928 124.001 20.224 128.849 20.224C133.697 20.224 136.265 21.976 136.265 24.496ZM139.385 14.008H135.977V19.864H134.033V6.52H135.977V12.376H139.385V14.008ZM146.127 8.896C143.943 8.896 142.215 10.24 142.215 12.232C142.215 14.224 143.919 15.544 146.127 15.544C148.455 15.544 150.015 14.224 150.015 12.256C150.015 10.264 148.455 8.896 146.127 8.896ZM146.127 7.192C149.319 7.192 151.911 9.232 151.911 12.256C151.911 15.28 149.319 17.248 146.127 17.248C142.959 17.248 140.319 15.304 140.319 12.256C140.319 9.256 142.911 7.192 146.127 7.192ZM158.775 28.528H143.511V22.888H156.015V20.56H143.439V18.976H157.959V24.376H145.455V26.944H158.775V28.528ZM157.959 17.8H156.015V6.52H157.959V17.8ZM175.964 21.472V10.432H169.316V21.472H175.964ZM177.908 23.08H167.372V8.824H177.908V23.08ZM184.316 28.84H182.372V6.52H184.316V28.84ZM200.106 21.904L198.882 23.392C196.578 21.808 194.082 19.144 193.194 16.456C192.402 19.24 190.242 22.072 187.602 23.896L186.354 22.408C189.594 20.416 192.21 16.408 192.21 12.448V8.488H194.202V12.376C194.202 16.456 197.01 20.104 200.106 21.904ZM207.762 17.152H204.162V28.84H202.218V6.52H204.162V15.52H207.762V17.152ZM217.96 15.376C216.856 15.376 215.848 15.304 214.96 15.136V17.8H220.888V15.16C220 15.304 219.04 15.376 217.96 15.376ZM217.984 22.504C214.432 22.504 212.056 23.296 212.056 24.76C212.056 26.224 214.432 27.016 217.984 27.016C221.608 27.016 223.96 26.224 223.96 24.76C223.96 23.296 221.584 22.504 217.984 22.504ZM223.864 11.2C223.864 9.544 221.536 8.56 217.96 8.56C214.384 8.56 212.08 9.544 212.08 11.2C212.08 12.832 214.384 13.816 217.96 13.816C221.512 13.816 223.864 12.832 223.864 11.2ZM225.904 24.76C225.904 27.328 222.904 28.696 218.008 28.696C213.088 28.696 210.112 27.328 210.112 24.76C210.112 22.216 213.088 20.824 217.984 20.824C222.904 20.824 225.904 22.216 225.904 24.76ZM225.76 11.2C225.76 12.712 224.704 13.912 222.832 14.632V17.8H228.04V19.408H207.88V17.8H213.016V14.608C211.192 13.888 210.184 12.688 210.184 11.2C210.184 8.656 213.064 7 217.96 7C222.856 7 225.76 8.656 225.76 11.2ZM247.869 21.976L246.645 23.464C244.629 22.096 242.013 19.336 241.149 16.648C240.333 19.432 238.029 22.168 235.437 24.016L234.165 22.552C237.429 20.512 240.117 16.456 240.117 12.496V8.464H242.085V12.424C242.085 16.504 244.797 20.152 247.869 21.976ZM252.669 28.84H250.725V6.52H252.669V28.84ZM280.85 25.984H260.69V24.352H269.762V18.64H271.706V24.352H280.85V25.984ZM280.058 17.536L278.978 19.096C275.066 18.016 271.706 15.232 270.746 12.712C269.882 15.28 266.45 18.04 262.538 19.096L261.53 17.536C265.418 16.792 269.762 13.624 269.762 9.784V8.176H271.778V9.784C271.778 13.624 276.386 16.84 280.058 17.536ZM290.736 15.4V9.328H284.52V15.4H290.736ZM292.68 16.984H282.576V7.72H292.68V16.984ZM293.76 11.056V9.472H297.864V6.52H299.808V18.064H297.864V15.184H293.76V13.624H297.864V11.056H293.76ZM300.648 28.672H285.528V23.032H297.888V20.752H285.36V19.144H299.832V24.544H287.472V27.064H300.648V28.672ZM320.734 28.528H306.214V20.536H308.158V22.84H318.79V20.488H320.734V28.528ZM317.062 16.768L317.23 18.328C315.478 18.544 312.766 18.784 310.054 18.928C307.534 19.048 304.246 19.12 302.758 19.12L302.47 17.416C304.198 17.416 306.526 17.416 308.95 17.344V14.632H304.39V7.744H315.214V9.352H306.334V13.024H315.43V14.632H310.894V17.272C313.27 17.152 315.67 16.984 317.062 16.768ZM318.79 26.944V24.424H308.158V26.944H318.79ZM320.734 19.288H318.79V6.52H320.734V19.288ZM337.22 20.632L337.412 22.312C334.82 22.912 329.012 23.344 325.58 23.344H324.596V8.848H326.54V21.64C329.42 21.64 334.556 21.232 337.22 20.632ZM341.42 6.52V28.84H339.5V6.52H341.42ZM347.034 21.712H348.33C351.21 21.712 355.626 21.448 357.762 20.992L357.978 22.6C355.578 23.056 351.162 23.368 347.274 23.368H345.09V8.848H355.674V10.48H347.034V21.712ZM361.41 6.52V15.376H365.034V17.008H361.41V28.84H359.49V6.52H361.41ZM365.2 26.608V24.328H367.408V26.608H365.2Z" fill="#392200"/>
<circle cx="2" cy="14" r="2" fill="#392200"/>
<path d="M15.792 69.712H17.088C19.968 69.712 24.384 69.448 26.52 68.992L26.736 70.6C24.336 71.056 19.92 71.368 16.032 71.368H13.848V56.848H24.432V58.48H15.792V69.712ZM30.168 54.52V63.376H33.792V65.008H30.168V76.84H28.248V54.52H30.168ZM51.7181 76.192H36.5021V69.688H38.4461V74.56H51.7181V76.192ZM44.9741 72.016H43.0301V67.48H33.8381V65.872H53.9981V67.48H44.9741V72.016ZM43.9421 56.8C40.4141 56.8 38.1101 57.736 38.1101 59.584C38.1101 61.408 40.3901 62.344 43.9181 62.344C47.4461 62.344 49.7741 61.408 49.7741 59.584C49.7741 57.736 47.4701 56.8 43.9421 56.8ZM51.6941 59.56C51.6941 62.416 48.7901 63.976 43.9181 63.976C39.0461 63.976 36.1661 62.416 36.1661 59.56C36.1661 56.752 39.0701 55.192 43.9421 55.192C48.7901 55.192 51.6941 56.752 51.6941 59.56ZM74.8762 73.984H54.7162V72.352H63.7882V68.56H57.2122V61.576H70.4362V58H57.1882V56.368H72.3802V63.184H59.1562V66.928H73.0042V68.56H65.7322V72.352H74.8762V73.984ZM95.7544 73.768H75.5944V72.136H95.7544V73.768ZM93.3304 67.24H78.1384V56.728H93.1144V58.336H80.0824V65.632H93.3304V67.24ZM111.335 64.48V60.832H104.783V64.48H111.335ZM113.279 66.088H102.839V55.792H104.783V59.224H111.335V55.792H113.279V66.088ZM119.423 76.408H105.167V68.872H119.207V70.48H107.135V74.8H119.423V76.408ZM122.567 62.08H119.159V67.504H117.215V54.52H119.159V60.448H122.567V62.08ZM132.981 56.776C129.453 56.776 127.149 57.712 127.149 59.56C127.149 61.384 129.429 62.32 132.957 62.32C136.485 62.32 138.813 61.384 138.813 59.56C138.813 57.712 136.509 56.776 132.981 56.776ZM140.733 59.536C140.733 62.392 137.829 63.952 132.957 63.952C128.085 63.952 125.205 62.392 125.205 59.536C125.205 56.728 128.109 55.168 132.981 55.168C137.829 55.168 140.733 56.728 140.733 59.536ZM140.757 76.192H125.541V69.688H127.485V74.56H140.757V76.192ZM143.037 67.6H122.877V65.968H143.037V67.6ZM151.898 55.96H166.778C166.778 58.816 166.682 63.016 165.962 66.544H169.442V68.176H160.322V76.84H158.378V68.176H149.282V66.544H164.018C164.306 65.464 164.474 63.904 164.594 62.344L151.61 62.896L151.298 61.192L164.666 60.784C164.738 59.512 164.762 58.336 164.762 57.568H151.898V55.96ZM188.352 57.256H172.008V55.648H188.352V57.256ZM187.992 76.144H172.68V70.144H174.624V74.512H187.992V76.144ZM190.32 68.56H170.16V66.928H179.232V64.264H172.032V62.68H175.704L175.032 58.408L177.048 58.144L177.552 62.68H182.808L183.384 58.096L185.4 58.36L184.68 62.68H188.352V64.264H181.176V66.928H190.32V68.56ZM201.142 56.776C197.614 56.776 195.31 57.712 195.31 59.56C195.31 61.384 197.59 62.32 201.118 62.32C204.646 62.32 206.974 61.384 206.974 59.56C206.974 57.712 204.67 56.776 201.142 56.776ZM208.894 59.536C208.894 62.392 205.99 63.952 201.118 63.952C196.246 63.952 193.366 62.392 193.366 59.536C193.366 56.728 196.27 55.168 201.142 55.168C205.99 55.168 208.894 56.728 208.894 59.536ZM208.918 76.192H193.702V69.688H195.646V74.56H208.918V76.192ZM211.198 67.6H191.038V65.968H211.198V67.6ZM233.211 63.616V60.256H221.835V63.616H233.211ZM224.619 76.864H222.675V69.448H217.443V67.816H237.603V69.448H232.299V76.864H230.355V69.448H224.619V76.864ZM235.155 65.224H219.891V55.384H221.835V58.672H233.211V55.384H235.155V65.224ZM256.633 76.84H254.689V54.52H256.633V76.84ZM252.193 69.04L252.409 70.648C249.985 71.104 245.065 71.44 241.513 71.44H239.593V56.632H249.985V58.24H241.537V62.92H249.553V64.504H241.537V69.76C245.041 69.856 249.985 69.496 252.193 69.04ZM272.999 68.968L273.143 70.552C271.511 70.768 268.991 70.984 266.351 71.128C263.831 71.248 261.215 71.344 259.199 71.368L258.911 69.664C259.967 69.664 261.095 69.664 262.223 69.64L261.431 60.256L263.399 60.088L263.999 69.592C264.863 69.568 265.703 69.52 266.519 69.472C266.807 69.472 267.071 69.448 267.359 69.448L268.007 60.064L269.951 60.232L269.111 69.328C270.671 69.232 272.015 69.112 272.999 68.968ZM276.335 54.52V63.424H279.983V65.056H276.335V76.84H274.391V54.52H276.335ZM271.679 58.504H259.535V56.872H271.679V58.504ZM291.117 76.864H289.173V69.088H280.173V67.456H300.333V69.088H291.117V76.864ZM290.157 57.136C286.389 57.136 284.085 58.384 284.085 60.448C284.085 62.512 286.389 63.76 290.157 63.76C293.949 63.76 296.253 62.512 296.253 60.448C296.253 58.384 293.949 57.136 290.157 57.136ZM298.149 60.448C298.149 63.4 295.149 65.44 290.157 65.44C285.165 65.44 282.165 63.424 282.165 60.448C282.165 57.472 285.165 55.456 290.157 55.456C295.149 55.456 298.149 57.472 298.149 60.448ZM311.371 57.616H304.627V55.84H311.371V57.616ZM319.339 76.84H317.395V54.52H319.339V76.84ZM315.163 70.864L314.131 72.4C311.707 71.296 308.827 68.512 308.035 66.184C307.387 68.56 304.651 71.608 302.227 72.88L301.075 71.44C304.003 70.048 307.003 66.592 307.003 62.44V61.744H301.747V60.136H314.179V61.744H308.995V62.416C308.995 66.568 312.307 69.856 315.163 70.864ZM322.193 66.568V64.864H330.617V66.568H322.193ZM334.288 55.96H349.168C349.168 58.816 349.072 63.016 348.352 66.544H351.832V68.176H342.712V76.84H340.768V68.176H331.672V66.544H346.408C346.696 65.464 346.864 63.904 346.984 62.344L334 62.896L333.688 61.192L347.056 60.784C347.128 59.512 347.152 58.336 347.152 57.568H334.288V55.96ZM370.743 57.256H354.399V55.648H370.743V57.256ZM370.383 76.144H355.071V70.144H357.015V74.512H370.383V76.144ZM372.711 68.56H352.551V66.928H361.623V64.264H354.423V62.68H358.095L357.423 58.408L359.439 58.144L359.943 62.68H365.199L365.775 58.096L367.791 58.36L367.071 62.68H370.743V64.264H363.567V66.928H372.711V68.56ZM383.101 64.48C383.101 63.088 381.565 62.296 379.813 62.296C378.085 62.296 376.501 63.088 376.501 64.48C376.501 65.824 378.109 66.64 379.813 66.64C381.565 66.64 383.101 65.824 383.101 64.48ZM384.997 64.48C384.997 66.688 382.765 68.152 379.813 68.152C376.861 68.152 374.629 66.712 374.629 64.48C374.629 62.176 376.837 60.784 379.813 60.784C382.765 60.784 384.997 62.176 384.997 64.48ZM386.341 59.824H373.333V58.216H386.341V59.824ZM382.957 56.632H376.717V55H382.957V56.632ZM388.645 74.92V71.128H378.421V74.92H388.645ZM390.589 76.528H376.477V69.544H390.589V76.528ZM393.997 62.704H390.589V68.392H388.669V54.52H390.589V61.072H393.997V62.704ZM413.147 76.84H411.227V54.52H413.147V76.84ZM402.563 64.096C402.563 60.496 401.387 58.168 399.587 58.168C397.787 58.168 396.635 60.496 396.635 64.096C396.635 67.72 397.787 70.024 399.587 70.024C401.387 70.024 402.563 67.72 402.563 64.096ZM399.587 56.464C402.659 56.464 404.315 59.296 404.483 63.352H406.883V54.952H408.779V75.76H406.883V64.96H404.483C404.267 68.992 402.635 71.728 399.587 71.728C396.323 71.728 394.667 68.584 394.667 64.096C394.667 59.632 396.323 56.464 399.587 56.464ZM428.553 70.024L427.353 71.488C425.313 70.12 422.721 67.288 421.833 64.6C421.041 67.384 418.857 70.144 416.265 71.992L414.993 70.552C418.233 68.512 420.825 64.552 420.825 60.592V56.464H422.817V60.52C422.817 64.6 425.481 68.224 428.553 70.024ZM433.497 76.84H431.553V64.12H426.345V62.488H431.553V54.52H433.497V76.84ZM455.414 66.808L455.582 68.296C453.974 68.488 451.31 68.752 448.67 68.896C446.15 69.04 443.078 69.16 441.518 69.16L441.206 67.552C442.838 67.552 445.094 67.504 447.374 67.408V65.896C445.022 65.68 443.222 64.768 443.222 62.968C443.222 60.904 445.55 59.944 448.382 59.944C451.238 59.944 453.59 60.88 453.59 62.944C453.59 64.744 451.742 65.704 449.342 65.896V67.312C451.694 67.192 454.118 67 455.414 66.808ZM462.182 63.544H458.798V69.352H456.854V54.52H458.798V61.912H462.182V63.544ZM444.182 70.528H458.798V76.984H456.854V72.136H444.182V70.528ZM454.838 59.2H441.998V57.64H454.838V59.2ZM451.742 62.944C451.742 61.912 450.254 61.408 448.382 61.408C446.486 61.408 445.07 61.912 445.07 62.944C445.07 64 446.51 64.504 448.382 64.504C450.254 64.504 451.742 63.976 451.742 62.944ZM451.478 56.416H445.358V54.808H451.478V56.416ZM468.972 57.688C466.62 57.688 464.82 59.296 464.82 61.552C464.82 63.808 466.644 65.392 468.996 65.392C471.444 65.392 473.148 63.808 473.148 61.576C473.148 59.296 471.444 57.688 468.972 57.688ZM468.972 55.984C472.356 55.984 474.996 58.24 474.996 61.552C474.996 64.888 472.38 67.096 468.996 67.096C465.588 67.096 462.972 64.912 462.972 61.576C462.972 58.264 465.588 55.984 468.972 55.984ZM481.26 76.096H466.164V69.208H468.108V74.488H481.26V76.096ZM480.708 70.816H478.764V54.52H480.708V70.816ZM493.186 63.784C493.186 62.536 491.554 61.912 489.778 61.912C488.026 61.912 486.418 62.536 486.418 63.784C486.418 65.032 488.05 65.68 489.778 65.68C491.554 65.68 493.186 65.032 493.186 63.784ZM495.058 63.784C495.058 65.968 492.85 67.168 489.778 67.168C486.874 67.168 484.546 65.968 484.546 63.784C484.546 61.6 486.826 60.424 489.778 60.424C492.778 60.424 495.058 61.6 495.058 63.784ZM496.354 59.536H483.25V57.952H496.354V59.536ZM493.018 56.536H486.586V54.904H493.018V56.536ZM501.346 76.696H486.466V71.728H498.562V69.832H486.37V68.344H500.506V73.144H488.41V75.208H501.346V76.696ZM503.914 62.056H500.506V67.192H498.586V54.52H500.506V60.424H503.914V62.056ZM529.095 63.088L528.159 64.744C524.823 64.072 521.175 61.96 519.831 59.368C518.751 61.96 514.935 64.144 511.551 64.816L510.615 63.136C514.887 62.584 518.823 59.752 518.823 56.704V55.288H520.863V56.704C520.863 59.752 525.159 62.608 529.095 63.088ZM520.767 76.864H518.823V68.752H509.751V67.12H529.911V68.752H520.767V76.864ZM19.296 93.352C17.064 93.352 15.408 94.936 15.408 97.12C15.408 99.352 17.064 100.864 19.296 100.864C21.624 100.864 23.208 99.352 23.208 97.144C23.208 94.936 21.648 93.352 19.296 93.352ZM19.296 91.768C22.464 91.768 25.08 93.904 25.08 97.12C25.08 100.408 22.464 102.448 19.296 102.448C16.128 102.448 13.512 100.408 13.512 97.144C13.512 93.904 16.128 91.768 19.296 91.768ZM23.88 109.816L22.536 111.136C21.432 110.56 20.232 109.408 19.704 108.184C19.176 109.864 17.208 112.024 15.288 112.936L14.112 111.544C16.392 110.56 18.648 108.112 18.648 105.4V104.296H20.568V105.232C20.568 107.584 22.152 109.144 23.88 109.816ZM32.16 112.888H32.136C30.624 112.144 28.608 110.2 28.056 108.592C27.504 110.272 25.632 112.288 23.832 113.176L22.608 111.88C25.008 110.704 27.072 108.28 27.072 105.568V104.224H28.992V105.496C28.992 108.256 31.224 110.704 33.336 111.496L32.16 112.888ZM31.2 103.48H29.256V90.52H31.2V103.48ZM49.4861 110.92V108.256H38.3741V110.92H49.4861ZM51.4301 112.528H36.4301V104.08H38.3741V106.672H49.4861V104.056H51.4301V112.528ZM53.9981 102.496H33.8381V100.864H53.9981V102.496ZM52.9421 97.408L52.0301 99.088C48.6461 98.464 45.0221 96.328 43.9421 94.024C42.9581 96.328 39.2621 98.44 35.8781 99.088L34.9661 97.408C38.4701 97.024 42.9341 94.648 42.9341 91.504V90.784H44.9501V91.504C44.9501 94.648 49.5101 97.024 52.9421 97.408ZM68.6122 104.632L68.8042 106.312C66.2122 106.912 60.4042 107.344 56.9722 107.344H55.9882V92.848H57.9322V105.64C60.8122 105.64 65.9482 105.232 68.6122 104.632ZM72.8122 90.52V112.84H70.8922V90.52H72.8122ZM78.4264 105.712H79.7224C82.6024 105.712 87.0184 105.448 89.1544 104.992L89.3704 106.6C86.9704 107.056 82.5544 107.368 78.6664 107.368H76.4824V92.848H87.0664V94.48H78.4264V105.712ZM92.8024 90.52V99.376H96.4264V101.008H92.8024V112.84H90.8824V90.52H92.8024ZM96.5925 110.608V108.328H98.8005V110.608H96.5925Z" fill="#392200"/>
<circle cx="2" cy="62" r="2" fill="#392200"/>
</svg>
