<svg width="590" height="286" viewBox="0 0 590 286" fill="none" xmlns="http://www.w3.org/2000/svg">
<path d="M554.351 117.74V109.57C554.351 105.01 557.271 102.17 561.061 102.17C564.851 102.17 567.771 105.01 567.771 109.57V153.52C567.771 157.82 565.191 160.49 561.321 160.49C558.651 160.49 556.851 159.29 554.871 156.62L542.141 139.94C539.131 135.9 536.291 131.86 533.281 126.87C533.801 132.98 533.971 139.17 533.971 144.93V153.1C533.971 157.66 531.051 160.5 527.261 160.5C523.471 160.5 520.551 157.66 520.551 153.1V109.14C520.551 104.84 523.131 102.17 527.001 102.17C529.671 102.17 531.471 103.37 533.451 106.04L546.181 122.72C549.191 126.76 552.031 130.8 555.041 135.79C554.521 129.68 554.351 123.49 554.351 117.73V117.74Z" fill="#557EFF"/>
<path d="M311.141 131.33C311.141 115.42 321.031 102 337.801 102C354.571 102 364.461 115.42 364.461 131.33C364.461 147.24 354.571 160.66 337.801 160.66C321.031 160.66 311.141 147.24 311.141 131.33ZM350.871 131.33C350.871 122.39 345.971 115.08 337.801 115.08C329.631 115.08 324.731 122.39 324.731 131.33C324.731 140.27 329.631 147.58 337.801 147.58C345.971 147.58 350.871 140.27 350.871 131.33Z" fill="#557EFF"/>
<path d="M433.78 153.079C433.78 157.639 430.86 160.479 427.07 160.479C423.28 160.479 420.36 157.639 420.36 153.079V109.739C420.36 105.699 423.03 103.029 427.07 103.029H441.52C454.42 103.029 462.68 110.509 462.68 122.119C462.68 133.729 454.42 141.209 441.52 141.209H433.78V153.079ZM441.43 128.659C446.07 128.659 449.08 126.599 449.08 122.379C449.08 118.159 446.07 116.099 441.43 116.099H433.78V128.659H441.43Z" fill="#557EFF"/>
<path d="M368.33 135.63V109.57C368.33 105.01 371.25 102.17 375.04 102.17C378.83 102.17 381.75 105.01 381.75 109.57V135.2C381.75 142.6 384.59 147.58 391.38 147.58C398.17 147.58 401.01 142.59 401.01 135.2V109.57C401.01 105.01 403.93 102.17 407.72 102.17C411.51 102.17 414.43 105.01 414.43 109.57V135.63C414.43 150.59 405.57 160.66 391.38 160.66C377.19 160.66 368.33 150.6 368.33 135.63Z" fill="#557EFF"/>
<path d="M262.811 131.33C262.811 115.42 272.701 102 289.471 102C296.351 102 302.111 104.24 306.581 108.11C308.471 109.74 309.851 111.89 309.851 114.65C309.851 118.26 307.361 121.01 303.571 121.01C301.331 121.01 299.531 120.06 297.891 118.52C296.001 116.63 293.251 115.08 289.461 115.08C281.291 115.08 276.391 122.39 276.391 131.33C276.391 140.27 281.291 147.58 289.461 147.58C293.241 147.58 296.001 146.03 297.891 144.14C299.521 142.59 301.331 141.65 303.571 141.65C307.351 141.65 309.851 144.4 309.851 148.01C309.851 150.76 308.471 152.91 306.581 154.55C302.111 158.42 296.351 160.66 289.471 160.66C272.701 160.66 262.811 147.24 262.811 131.33Z" fill="#557EFF"/>
<path d="M464.951 131.33C464.951 115.42 474.841 102 491.611 102C508.381 102 518.271 115.42 518.271 131.33C518.271 147.24 508.381 160.66 491.611 160.66C474.841 160.66 464.951 147.24 464.951 131.33ZM504.681 131.33C504.681 122.39 499.781 115.08 491.611 115.08C483.441 115.08 478.541 122.39 478.541 131.33C478.541 140.27 483.441 147.58 491.611 147.58C499.781 147.58 504.681 140.27 504.681 131.33Z" fill="#557EFF"/>
<path d="M10.75 145.34L6.19 157.64C5.59 159.19 4.56 160.22 2.92 160.22C1.2 160.22 0 159.1 0 157.21C0 156.44 0.17 155.58 0.43 154.89L18.92 105.18C19.61 103.37 20.73 102.43 22.19 102.43C23.65 102.43 24.77 103.38 25.46 105.18L43.95 154.89C44.21 155.58 44.38 156.44 44.38 157.21C44.38 159.1 43.18 160.22 41.46 160.22C39.74 160.22 38.79 159.19 38.19 157.64L33.63 145.34H10.75ZM22.19 114.38L12.99 139.15H31.31L22.19 114.38Z" fill="black"/>
<path d="M103.031 104.92C103.891 103.2 105.011 102.43 106.301 102.43C108.021 102.43 109.401 103.72 109.401 105.78V156.61C109.401 158.85 108.021 160.22 106.221 160.22C104.421 160.22 103.041 158.84 103.041 156.61V118.86L88.1605 147.93C87.3005 149.56 86.2705 150.34 84.9805 150.34C83.6905 150.34 82.6605 149.57 81.8005 147.93L66.9205 118.86V156.61C66.9205 158.85 65.5405 160.22 63.7405 160.22C61.9405 160.22 60.5605 158.84 60.5605 156.61V105.78C60.5605 103.72 61.9405 102.43 63.6605 102.43C64.9505 102.43 66.0705 103.2 66.9305 104.92L84.9905 140.27L103.031 104.92Z" fill="black"/>
<path d="M115.58 131.33C115.58 115.42 124.7 102 140.26 102C155.82 102 164.94 115.42 164.94 131.33C164.94 147.24 155.82 160.66 140.26 160.66C124.7 160.66 115.58 147.24 115.58 131.33ZM158.58 131.33C158.58 118.52 151.79 108.2 140.26 108.2C128.73 108.2 121.94 118.52 121.94 131.33C121.94 144.14 128.73 154.46 140.26 154.46C151.79 154.46 158.58 144.14 158.58 131.33Z" fill="black"/>
<path d="M177.501 156.609C177.501 158.849 176.121 160.219 174.321 160.219C172.521 160.219 171.141 158.839 171.141 156.609V106.209C171.141 104.319 172.431 103.029 174.321 103.029H190.831C202.011 103.029 209.231 109.649 209.231 119.539C209.231 126.249 205.701 132.699 197.361 135.109L208.631 154.289C209.151 155.149 209.661 156.099 209.661 157.299C209.661 159.109 208.461 160.219 206.741 160.219C204.931 160.219 204.071 159.099 203.211 157.639L190.651 136.049H177.491V156.599L177.501 156.609ZM190.831 129.859C198.571 129.859 202.871 125.989 202.871 119.539C202.871 113.089 198.571 109.219 190.831 109.219H177.501V129.859H190.831Z" fill="black"/>
<path d="M246.9 153.429C249.05 153.429 250.43 154.809 250.43 156.529C250.43 158.249 249.05 159.629 246.9 159.629H218.18C216.29 159.629 215 158.339 215 156.449V106.209C215 104.319 216.29 103.029 218.18 103.029H246.39C248.54 103.029 249.92 104.409 249.92 106.129C249.92 107.849 248.54 109.229 246.39 109.229H221.36V127.119H237.27C239.42 127.119 240.8 128.499 240.8 130.219C240.8 131.939 239.42 133.319 237.27 133.319H221.36V153.439H246.9V153.429Z" fill="black"/>
<path d="M574.39 152.74C574.39 148.53 577.92 145 582.13 145C586.34 145 589.87 148.53 589.87 152.74C589.87 156.95 586.34 160.48 582.13 160.48C577.92 160.48 574.39 156.95 574.39 152.74ZM575.68 134.34V109.31C575.68 104.92 578.52 102.17 582.13 102.17C585.74 102.17 588.58 104.92 588.58 109.31V134.34C588.58 138.73 585.74 141.48 582.13 141.48C578.52 141.48 575.68 138.73 575.68 134.34Z" fill="#001E6C"/>
<path d="M375.04 135.63C371.34 135.63 368.33 132.63 368.33 128.92V109.57C368.33 105.01 371.25 102.17 375.04 102.17C378.83 102.17 381.75 105.01 381.75 109.57V128.92C381.75 132.62 378.75 135.63 375.04 135.63Z" fill="#001E6C"/>
<path d="M554.35 117.74V109.57C554.35 105.01 557.27 102.17 561.06 102.17C564.85 102.17 567.77 105.01 567.77 109.57V153.52C567.77 157.82 565.19 160.49 561.32 160.49C559.99 160.49 558.87 160.19 557.84 159.55C555.94 158.38 554.87 156.22 554.84 153.98L554.36 117.74H554.35Z" fill="#E74723"/>
<path d="M350.28 136.521C349.11 141.431 346.23 145.311 342.02 146.851C339.46 147.791 337.8 150.281 337.8 153.011C337.8 157.481 342.16 160.711 346.42 159.321C355.44 156.371 361.42 148.781 363.57 139.381C364.52 135.251 361.35 131.311 357.11 131.311H356.74C353.63 131.311 351 133.491 350.28 136.511V136.521Z" fill="#E74723"/>
<path d="M427.07 103.029C423.02 103.029 420.36 105.699 420.36 109.739V153.079C420.36 157.639 423.28 160.479 427.07 160.479C430.86 160.479 433.77 157.639 433.77 153.079V109.739C433.77 105.699 431.11 103.029 427.07 103.029Z" fill="#E74723"/>
<path d="M270.36 131.33C266.02 131.33 262.75 127.29 263.74 123.07C266.57 111.04 275.7 102.01 289.46 102.01C296.34 102.01 302.1 104.25 306.57 108.12C308.46 109.75 309.84 111.9 309.84 114.66C309.84 118.27 307.35 121.02 303.56 121.02C301.32 121.02 299.52 120.07 297.88 118.53C295.99 116.64 293.24 115.09 289.45 115.09C282.98 115.09 278.56 119.67 277 126.02C276.24 129.11 273.57 131.35 270.38 131.35H270.34L270.36 131.33Z" fill="#001E6C"/>
<path d="M303.41 154.591C307.033 154.591 309.97 151.654 309.97 148.031C309.97 144.408 307.033 141.471 303.41 141.471C299.787 141.471 296.85 144.408 296.85 148.031C296.85 151.654 299.787 154.591 303.41 154.591Z" fill="#FFBC00"/>
<path d="M407.72 115.42C411.426 115.42 414.43 112.416 414.43 108.71C414.43 105.004 411.426 102 407.72 102C404.014 102 401.01 105.004 401.01 108.71C401.01 112.416 404.014 115.42 407.72 115.42Z" fill="#FFBC00"/>
<path d="M561.06 115.59C564.765 115.59 567.77 112.586 567.77 108.88C567.77 105.174 564.765 102.17 561.06 102.17C557.354 102.17 554.35 105.174 554.35 108.88C554.35 112.586 557.354 115.59 561.06 115.59Z" fill="#EECD2A"/>
<path d="M504.09 136.521C502.92 141.431 500.04 145.311 495.83 146.851C493.27 147.791 491.61 150.281 491.61 153.011C491.61 157.481 495.97 160.711 500.23 159.321C509.25 156.371 515.23 148.781 517.38 139.381C518.33 135.251 515.16 131.311 510.92 131.311H510.55C507.44 131.311 504.81 133.491 504.09 136.511V136.521Z" fill="#FFBC00"/>
<path d="M174.304 203.68V200.544H183.36V203.68H174.304ZM188.256 219.904L188.544 222.944C183.04 223.68 174.848 224 169.152 224L168.576 220.768C171.36 220.768 174.144 220.768 176.832 220.704V215.712H180.832V220.544C183.552 220.416 186.08 220.192 188.256 219.904ZM193.824 199.072V229.408H189.824V199.072H193.824ZM170.4 208.48V205.344H186.944V208.48H180.96C181.6 211.072 184.896 213.248 187.84 213.6L186.016 216.768C183.456 216.224 180.192 214.016 178.912 211.84C177.76 214.4 174.496 216.832 171.392 217.6L169.44 214.528C173.056 213.728 176.192 211.328 176.736 208.48H170.4ZM222.141 229.408H218.333V214.208H215.645V228H211.901V199.616H215.645V211.04H218.333V199.072H222.141V229.408ZM201.213 205.824V218.976C204.317 219.072 207.965 218.784 209.981 218.272L210.365 221.408C208.093 222.016 203.645 222.24 200.125 222.24H197.245V202.688H208.701V205.856C206.205 205.856 203.741 205.824 201.213 205.824ZM238.563 225.664C235.779 225.664 233.059 224.896 231.715 224.032L232.419 220.992C233.603 221.76 236.099 222.336 237.859 222.336C240.995 222.336 242.819 221.024 242.819 218.432C242.819 215.936 240.963 214.912 237.987 214.88L235.555 214.816V211.776L237.731 211.744C240.419 211.68 242.211 210.464 242.211 208.256C242.211 205.92 240.611 205.056 238.051 205.056C236.323 205.056 234.467 205.664 233.091 206.304L232.611 203.2C234.051 202.368 236.867 201.728 239.139 201.728C243.459 201.728 246.403 203.776 246.403 207.52C246.403 210.304 244.771 212.096 242.211 212.96C245.123 213.536 247.171 215.2 247.171 218.688C247.171 222.976 243.875 225.664 238.563 225.664ZM258.061 222.528C261.197 222.528 262.765 220.288 262.765 214.72V212.96C262.765 207.424 261.165 204.96 258.093 204.96C254.957 204.96 253.389 207.296 253.389 212.736V214.528C253.389 219.936 254.925 222.528 258.061 222.528ZM258.061 225.728C252.973 225.728 249.005 222.464 249.005 214.528V213.088C249.005 204.736 253.325 201.728 258.125 201.728C262.957 201.728 267.085 204.768 267.085 212.96V214.432C267.085 222.624 262.957 225.728 258.061 225.728ZM290.494 223.328C292.094 223.328 292.862 222.304 292.862 219.616V218.848C292.862 216.224 292.03 215.104 290.494 215.104C288.926 215.104 288.158 216.192 288.158 218.816V219.584C288.158 222.272 288.894 223.328 290.494 223.328ZM290.494 225.76C287.006 225.76 284.67 223.488 284.67 219.552V219.072C284.67 215.168 287.038 212.704 290.494 212.704C293.918 212.704 296.318 214.976 296.318 218.848V219.36C296.318 223.264 293.982 225.76 290.494 225.76ZM274.494 212.448C276.126 212.448 276.894 211.36 276.894 208.672V207.936C276.894 205.344 276.062 204.16 274.494 204.16C272.958 204.16 272.158 205.312 272.158 207.904V208.64C272.158 211.36 272.926 212.448 274.494 212.448ZM274.494 214.88C271.006 214.88 268.734 212.576 268.734 208.64V208.192C268.734 204.256 271.038 201.76 274.494 201.76C277.918 201.76 280.286 204.032 280.286 207.936V208.448C280.286 212.352 277.982 214.88 274.494 214.88ZM272.798 226.784L288.734 201.504H291.838L275.902 226.784H272.798ZM309.722 212.032C309.722 213.184 311.258 213.888 313.05 213.888C314.81 213.888 316.346 213.184 316.346 212.032C316.346 210.912 314.81 210.176 313.05 210.176C311.226 210.176 309.722 210.912 309.722 212.032ZM320.25 212.032C320.25 214.848 317.178 216.736 313.05 216.736C308.89 216.736 305.786 214.848 305.786 212.032C305.786 209.216 308.858 207.296 313.05 207.296C317.178 207.296 320.25 209.216 320.25 212.032ZM328.698 229.344H307.962V222.176H323.93V220.736H307.93V217.76H327.93V224.864H311.93V226.336H328.698V229.344ZM332.186 210.272H327.93V216.32H323.962V199.072H327.93V207.008H332.186V210.272ZM308.57 202.208V199.232H317.562V202.208H308.57ZM321.594 206.528H303.994V203.488H321.594V206.528ZM337.079 208.832C337.079 211.232 338.647 212.992 341.207 212.992C343.831 212.992 345.367 211.232 345.367 208.832C345.367 206.496 343.831 204.736 341.207 204.736C338.647 204.736 337.079 206.496 337.079 208.832ZM333.015 208.832C333.015 204.512 336.247 201.344 341.207 201.344C346.199 201.344 349.431 204.512 349.431 208.832C349.431 213.184 346.199 216.288 341.207 216.288C336.247 216.288 333.015 213.184 333.015 208.832ZM357.783 228.608H336.759V218.88H340.759V225.472H357.783V228.608ZM357.111 221.088H353.143V199.072H357.111V221.088ZM392.062 204.512H369.726V201.376H392.062V204.512ZM394.654 225.6H367.262V222.464H378.91V216.608H369.79V213.44H374.238L373.374 206.464L377.374 205.952L377.982 213.44H384.03L385.118 206.016L388.99 206.656L387.71 213.44H391.998V216.608H382.878V222.464H394.654V225.6ZM400.571 212.992C400.571 214.272 402.075 215.168 403.835 215.168C405.627 215.168 407.131 214.272 407.131 212.992C407.131 211.68 405.627 210.816 403.835 210.816C402.043 210.816 400.571 211.68 400.571 212.992ZM411.067 212.992C411.067 216.096 407.963 218.176 403.835 218.176C399.707 218.176 396.571 216.096 396.571 212.992C396.571 209.856 399.675 207.776 403.835 207.776C407.963 207.776 411.067 209.856 411.067 212.992ZM399.387 202.688V199.584H408.379V202.688H399.387ZM412.603 207.104H394.843V204H412.603V207.104ZM414.811 225.952V222.24H403.131V225.952H414.811ZM418.811 229.024H399.131V219.168H418.811V229.024ZM422.971 210.944H418.811V217.664H414.843V199.072H418.811V207.712H422.971V210.944ZM146.99 266.464V253.792H142.19V266.464H146.99ZM163.31 277.408H159.502V262.208H157.07V276H153.326V247.616H157.07V259.008H159.502V247.072H163.31V277.408ZM150.734 250.72V269.504H138.446V250.72H150.734ZM170.187 255.104C170.187 257.152 171.947 258.624 174.315 258.624C176.779 258.624 178.347 256.992 178.347 255.104C178.347 253.024 176.843 251.36 174.315 251.36C172.075 251.36 170.187 253.056 170.187 255.104ZM166.251 255.136C166.251 251.104 169.643 248.096 174.315 248.096C178.923 248.096 182.315 251.04 182.315 255.136C182.315 259.2 178.923 261.92 174.315 261.92C169.803 261.92 166.251 259.296 166.251 255.136ZM190.411 262.272H186.443V247.072H190.411V262.272ZM191.371 277.184H170.507V269.024H186.443V266.944H170.315V263.808H190.411V271.904H174.475V273.984H191.371V277.184ZM213.937 254.656L211.665 257.504C210.449 256.896 208.849 255.36 208.177 254.144C207.409 255.744 205.201 257.824 203.217 258.624L200.945 255.68C204.401 254.432 206.289 251.808 206.289 248.928V247.584H210.097V248.928C210.097 251.68 211.409 253.632 213.937 254.656ZM227.697 255.136L225.585 258.048C223.953 257.568 221.521 255.584 220.721 254.016C219.953 255.648 217.745 257.536 216.177 258.112L213.841 255.2C217.137 254.144 218.769 251.808 218.769 248.768V247.392H222.577V248.768C222.577 251.68 224.433 254.144 227.697 255.136ZM227.953 264.704H200.561V261.504H212.209V258.4H216.177V261.504H227.953V264.704ZM224.785 277.024H204.049V266.944H224.497V270.112H208.017V273.856H224.785V277.024ZM240.559 260C240.559 255.232 238.831 252.352 236.495 252.352C234.223 252.352 232.527 255.232 232.527 260C232.527 264.768 234.223 267.616 236.495 267.616C238.831 267.616 240.559 264.768 240.559 260ZM228.623 260C228.623 253.632 231.567 249.152 236.495 249.152C241.455 249.152 244.367 253.632 244.367 260.032C244.367 266.336 241.455 270.816 236.495 270.816C231.567 270.816 228.623 266.368 228.623 260ZM252.111 247.072V258.72H256.623V262.016H252.111V277.408H248.079V247.072H252.111ZM281.324 277.408H277.324V247.072H281.324V277.408ZM275.212 267.104L272.972 270.208C270.284 268.832 266.572 264.992 265.676 262.048C264.94 265.12 261.9 269.184 258.348 270.912L255.948 267.936C261.068 265.216 263.564 260.544 263.564 254.176V253.344H257.484V250.176H273.612V253.344H267.724V254.144C267.724 260.544 270.636 264.736 275.212 267.104ZM308.298 276.608H287.562V267.648H291.53V273.44H308.298V276.608ZM308.106 258.624H287.754V248.064H291.722V255.456H308.106V258.624ZM311.466 265.216H284.074V262.016H311.466V265.216ZM321.616 273.344L330.128 253.44H319.536V250.144H334.672V252.64L326.256 273.344H321.616ZM355.404 271.808C355.404 270.272 352.844 269.312 348.908 269.312C344.972 269.312 342.444 270.272 342.444 271.808C342.444 273.344 344.972 274.272 348.908 274.272C352.844 274.272 355.404 273.344 355.404 271.808ZM362.604 264.832H335.212V261.632H346.86V257.792H350.828V261.632H362.604V264.832ZM361.324 256.544L359.628 259.68C355.372 259.296 350.635 256.96 348.94 253.92C347.436 257.024 343.02 259.328 338.22 259.712L336.588 256.608C341.164 256.384 345.324 254.336 346.508 251.36H337.964V248.224H359.916V251.36H351.404C352.748 254.368 357.42 256.416 361.324 256.544ZM359.468 271.776C359.468 275.264 355.628 277.408 348.94 277.408C342.22 277.408 338.348 275.264 338.348 271.776C338.348 268.32 342.22 266.176 348.908 266.176C355.628 266.176 359.468 268.32 359.468 271.776ZM373.458 248.704H394.514C394.514 253.088 394.194 258.752 393.49 262.592H397.81V265.792H386.034V277.408H382.066V265.792H370.418V262.592H389.682C389.938 261.44 390.13 259.744 390.29 257.952L373.042 258.816L372.562 255.648L390.482 254.944C390.514 253.792 390.546 252.736 390.546 251.84H373.458V248.704ZM422.895 251.36H400.879V248.224H422.895V251.36ZM422.479 276.608H401.711V268.096H405.679V273.472H422.479V276.608ZM422.831 260.704H413.871V263.328H425.647V266.496H398.255V263.328H409.903V260.704H400.975V257.536H405.135L404.367 252.832L408.207 252.256L408.879 257.536H414.927L415.727 252.256L419.599 252.832L418.671 257.536H422.831V260.704ZM440.461 252.704H426.477V249.536H440.461V252.704ZM430.829 266.912H451.885V277.44H447.917V270.048H430.829V266.912ZM440.941 260.928L441.229 263.936C437.869 264.448 430.957 264.864 426.221 264.96L425.709 261.696C426.829 261.696 427.917 261.696 428.973 261.664C428.717 259.296 428.525 256.64 428.301 254.368L432.109 253.92C432.205 256.288 432.365 259.072 432.461 261.568L434.605 261.472C434.797 259.008 435.021 256.288 435.181 253.952L438.797 254.304C438.541 256.448 438.285 258.944 438.029 261.248C439.213 261.152 440.205 261.024 440.941 260.928ZM451.885 265.536H448.109V257.664H445.805V265.216H442.093V247.616H445.805V254.432H448.109V247.072H451.885V265.536Z" fill="#202F57"/>
<path d="M352.127 52C349.657 52 347.157 51.53 344.727 50.52C329.047 44.05 312.327 40.78 295.007 40.78C277.687 40.78 260.967 44.06 245.287 50.52C235.107 54.72 223.537 49.65 219.437 39.2C215.347 28.75 220.287 16.88 230.467 12.68C250.887 4.27 272.597 0 295.007 0C317.417 0 339.127 4.27 359.537 12.69C369.717 16.89 374.657 28.76 370.567 39.21C367.447 47.17 359.997 52 352.127 52Z" fill="#001E6C"/>
<path d="M254.837 34.1288C255.547 33.8888 256.157 34.1988 256.347 34.7588C256.537 35.3288 256.237 35.9388 255.527 36.1688L246.027 39.3488C245.397 39.5588 244.827 39.2688 244.627 38.6488L239.067 22.0388C238.857 21.4088 239.147 20.8388 239.767 20.6388L249.097 17.5188C249.807 17.2788 250.417 17.5788 250.607 18.1488C250.797 18.7188 250.497 19.3288 249.787 19.5588L241.507 22.3288L243.487 28.2488L248.747 26.4888C249.457 26.2488 250.067 26.5488 250.257 27.1188C250.447 27.6888 250.147 28.2988 249.437 28.5288L244.177 30.2888L246.407 36.9488L254.857 34.1188L254.837 34.1288Z" fill="#FFBC00"/>
<path d="M265.407 14.2796C265.497 13.7096 265.767 13.2796 266.327 13.1496C266.917 13.0196 267.407 13.3096 267.547 13.9496C267.607 14.2096 267.617 14.5196 267.577 14.7696L265.057 33.0996C264.957 33.7696 264.647 34.1696 264.157 34.2896C263.657 34.3996 263.207 34.1596 262.837 33.5996L252.767 18.0796C252.627 17.8696 252.507 17.5896 252.447 17.3196C252.307 16.6796 252.627 16.1996 253.217 16.0696C253.777 15.9496 254.207 16.2196 254.527 16.6996L263.257 30.2196L265.417 14.2696L265.407 14.2796Z" fill="#FFBC00"/>
<path d="M283.716 28.8699C284.456 28.7799 284.996 29.1999 285.066 29.7999C285.136 30.3999 284.716 30.9299 283.966 31.0199L274.016 32.1899C273.356 32.2699 272.866 31.8699 272.786 31.2199L270.746 13.8199C270.666 13.1599 271.066 12.6699 271.716 12.5899L281.486 11.4399C282.226 11.3499 282.766 11.7699 282.836 12.3699C282.906 12.9699 282.486 13.4999 281.736 13.5899L273.066 14.6099L273.796 20.8099L279.306 20.1599C280.046 20.0699 280.586 20.4899 280.656 21.0899C280.726 21.6899 280.306 22.2199 279.556 22.3099L274.046 22.9599L274.866 29.9299L283.716 28.8899V28.8699Z" fill="#FFBC00"/>
<path d="M299.107 11.9692C299.107 11.1892 299.577 10.7092 300.207 10.6992C300.837 10.6992 301.317 11.1692 301.327 11.9492L301.457 29.6492C301.457 30.3692 301.017 30.8492 300.387 30.8592C299.937 30.8592 299.607 30.6292 299.367 30.2692L288.757 15.4092L288.867 29.6892C288.867 30.4692 288.397 30.9492 287.767 30.9592C287.137 30.9592 286.657 30.4892 286.647 29.7092L286.517 12.0092C286.517 11.2892 286.957 10.8092 287.587 10.7992C288.037 10.7992 288.367 11.0292 288.607 11.3892L299.217 26.2492L299.107 11.9692Z" fill="#FFBC00"/>
<path d="M311.186 30.5392C311.106 31.3192 310.576 31.7392 309.946 31.6792C309.316 31.6092 308.896 31.0892 308.976 30.3092L310.706 13.8692L305.666 13.3392C304.916 13.2592 304.496 12.7292 304.556 12.1392C304.616 11.5392 305.146 11.1192 305.896 11.1992L318.186 12.4892C318.936 12.5692 319.356 13.0992 319.296 13.6892C319.236 14.2792 318.706 14.7092 317.956 14.6392L312.916 14.1092L311.186 30.5492V30.5392Z" fill="#FFBC00"/>
<path d="M324.196 23.4302C325.556 18.0502 329.576 14.2402 334.466 15.4702C339.356 16.7002 341.086 21.9702 339.726 27.3502C338.366 32.7302 334.346 36.5402 329.456 35.3102C324.566 34.0802 322.836 28.8102 324.196 23.4302ZM336.176 26.4502C337.086 22.8402 336.246 19.5702 333.596 18.9002C330.976 18.2402 328.656 20.7202 327.746 24.3202C326.836 27.9302 327.706 31.2102 330.326 31.8702C332.976 32.5402 335.266 30.0602 336.176 26.4502Z" fill="#FFBC00"/>
<path d="M345.426 25.3897C344.766 25.6297 344.096 25.8097 343.416 25.5697C342.516 25.2497 341.976 24.3297 342.326 23.3697C342.576 22.6597 343.156 22.2997 343.906 22.0497L348.816 20.5197C349.316 20.3797 349.856 20.2797 350.416 20.4897C351.346 20.8197 351.746 21.6697 351.356 22.7697L345.846 38.2597C345.436 39.4197 344.406 39.8797 343.476 39.5497C342.546 39.2197 342.046 38.2097 342.456 37.0497L345.386 28.8297C345.866 27.4697 346.386 26.0997 346.886 24.8797L345.426 25.4097V25.3897Z" fill="#FFBC00"/>
</svg>
