<svg width="159" height="22" viewBox="0 0 159 22" fill="none" xmlns="http://www.w3.org/2000/svg">
<path d="M7.72927 0.839999L9.35327 1.4L5.79727 11.284H9.35327V12.964H5.20927L2.21327 21.28L0.617266 20.664L7.72927 0.839999ZM11.2853 5.236L16.7453 20.692L15.1493 21.336L9.68927 5.88L11.2853 5.236ZM21.7697 1.148H23.6177L29.9737 14.896L28.4617 15.68L23.0017 3.864L19.6977 21.224L18.0177 20.888L21.7697 1.148ZM39.8297 20.916L38.1497 21.252L34.3977 3.976L31.8217 10.248L30.2537 9.604L33.7257 1.148H35.5457L39.8297 20.916ZM51.11 21.336C45.79 21.336 41.786 17.052 41.786 11.34C41.786 8.512 42.654 6.02 44.11 4.172L45.286 5.46C44.166 6.888 43.522 8.848 43.522 11.06C43.522 15.96 46.77 19.656 51.11 19.656C55.45 19.656 58.698 15.96 58.698 11.06C58.698 6.16 55.45 2.492 51.11 2.492C50.074 2.492 49.066 2.688 48.17 3.108L47.33 1.624C48.562 1.036 49.906 0.812 51.11 0.812C56.43 0.812 60.434 5.096 60.434 10.78C60.434 16.8 56.43 21.336 51.11 21.336ZM74.0726 6.832C74.0726 10.276 71.6366 12.516 67.8566 12.516H65.5886V21H63.8526V1.148H65.5886V10.864H67.8846C70.6006 10.864 72.3366 9.268 72.3366 6.832C72.3366 4.396 70.6006 2.828 67.8846 2.828H67.8286V1.148H67.8846C71.6366 1.148 74.0726 3.388 74.0726 6.832ZM69.6766 14.56L74.5766 19.964L73.3726 21.14L68.3886 15.652L69.6766 14.56ZM79.5066 19.32H87.5986V21H77.7706V1.148H79.5066V9.828H86.8706V11.508H79.5066V19.32ZM87.4586 1.148V2.828H81.9706V1.148H87.4586ZM100.082 1.148H101.93L108.286 14.896L106.774 15.68L101.314 3.864L98.0102 21.224L96.3302 20.888L100.082 1.148ZM118.142 20.916L116.462 21.252L112.71 3.976L110.134 10.248L108.566 9.604L112.038 1.148H113.858L118.142 20.916ZM126.511 0.839999L128.135 1.4L124.579 11.284H128.135V12.964H123.991L120.995 21.28L119.399 20.664L126.511 0.839999ZM130.067 5.236L135.527 20.692L133.931 21.336L128.471 5.88L130.067 5.236ZM138.255 21V1.148H139.991V21H138.255ZM142.623 21V19.32H147.047V21H142.623ZM150.177 21V1.148H151.913V21H150.177ZM154.545 21V19.32H158.969V21H154.545Z" fill="#001E6C"/>
</svg>
