<svg width="402" height="446" viewBox="0 0 402 446" fill="none" xmlns="http://www.w3.org/2000/svg">
<path d="M43.1719 432V427.957L53.1328 418.641C54.3568 417.508 55.2812 416.564 55.9062 415.809C56.5312 415.053 56.9544 414.376 57.1758 413.777C57.4102 413.178 57.5273 412.553 57.5273 411.902V411.863C57.5273 411.095 57.3451 410.418 56.9805 409.832C56.6159 409.233 56.1081 408.764 55.457 408.426C54.819 408.087 54.0833 407.918 53.25 407.918C52.2865 407.918 51.4401 408.113 50.7109 408.504C49.9818 408.882 49.4089 409.409 48.9922 410.086C48.5755 410.75 48.3542 411.505 48.3281 412.352L48.3086 412.527H42.8398V412.371C42.8398 410.6 43.2891 409.038 44.1875 407.684C45.0859 406.316 46.3164 405.249 47.8789 404.48C49.4544 403.712 51.2318 403.328 53.2109 403.328C55.2031 403.328 56.9544 403.68 58.4648 404.383C59.9753 405.073 61.1536 406.036 62 407.273C62.8464 408.51 63.2695 409.93 63.2695 411.531V411.57C63.2695 412.703 63.0612 413.758 62.6445 414.734C62.2409 415.698 61.5703 416.727 60.6328 417.82C59.6953 418.901 58.4128 420.19 56.7852 421.688L48.6211 429.129L50.8867 425.164V429.129L48.6406 427.312H63.6602V432H43.1719ZM75.8008 432.488C73.6654 432.488 71.8034 432.143 70.2148 431.453C68.6263 430.75 67.3633 429.78 66.4258 428.543C65.5013 427.306 64.974 425.88 64.8438 424.266L64.8242 424.012H70.4492L70.4883 424.227C70.5794 424.904 70.8464 425.509 71.2891 426.043C71.7448 426.564 72.3503 426.98 73.1055 427.293C73.8737 427.592 74.7656 427.742 75.7812 427.742C76.7969 427.742 77.6758 427.579 78.418 427.254C79.1602 426.915 79.7331 426.453 80.1367 425.867C80.5534 425.268 80.7617 424.585 80.7617 423.816V423.777C80.7617 422.423 80.2865 421.388 79.3359 420.672C78.3854 419.956 77.0573 419.598 75.3516 419.598H72.1289V415.398H75.2734C76.263 415.398 77.1224 415.236 77.8516 414.91C78.5807 414.585 79.1406 414.135 79.5312 413.562C79.9349 412.977 80.1367 412.306 80.1367 411.551V411.512C80.1367 410.743 79.9609 410.092 79.6094 409.559C79.2708 409.012 78.7695 408.595 78.1055 408.309C77.4544 408.009 76.6667 407.859 75.7422 407.859C74.8307 407.859 74.0234 408.009 73.3203 408.309C72.6172 408.608 72.0573 409.031 71.6406 409.578C71.224 410.112 70.9701 410.743 70.8789 411.473L70.8594 411.648H65.4492L65.4688 411.414C65.599 409.773 66.1003 408.354 66.9727 407.156C67.8581 405.945 69.0495 405.008 70.5469 404.344C72.0443 403.667 73.776 403.328 75.7422 403.328C77.7734 403.328 79.5312 403.641 81.0156 404.266C82.513 404.878 83.6719 405.737 84.4922 406.844C85.3125 407.951 85.7227 409.246 85.7227 410.73V410.77C85.7227 411.941 85.4622 412.97 84.9414 413.855C84.4206 414.741 83.7109 415.47 82.8125 416.043C81.9271 416.616 80.9375 417.02 79.8438 417.254V417.371C81.9401 417.566 83.6133 418.243 84.8633 419.402C86.1263 420.561 86.7578 422.098 86.7578 424.012V424.051C86.7578 425.73 86.3021 427.202 85.3906 428.465C84.4792 429.728 83.2031 430.717 81.5625 431.434C79.9219 432.137 78.0013 432.488 75.8008 432.488ZM91.0664 432.332C90.181 432.332 89.4323 432.026 88.8203 431.414C88.2083 430.802 87.9023 430.053 87.9023 429.168C87.9023 428.283 88.2083 427.534 88.8203 426.922C89.4323 426.31 90.181 426.004 91.0664 426.004C91.9518 426.004 92.7005 426.31 93.3125 426.922C93.9245 427.534 94.2305 428.283 94.2305 429.168C94.2305 430.053 93.9245 430.802 93.3125 431.414C92.7005 432.026 91.9518 432.332 91.0664 432.332ZM101.371 432V409.227H101.254L94.0664 414.109V408.875L101.352 403.816H107.211V432H101.371ZM111.539 432V427.957L121.5 418.641C122.724 417.508 123.648 416.564 124.273 415.809C124.898 415.053 125.322 414.376 125.543 413.777C125.777 413.178 125.895 412.553 125.895 411.902V411.863C125.895 411.095 125.712 410.418 125.348 409.832C124.983 409.233 124.475 408.764 123.824 408.426C123.186 408.087 122.451 407.918 121.617 407.918C120.654 407.918 119.807 408.113 119.078 408.504C118.349 408.882 117.776 409.409 117.359 410.086C116.943 410.75 116.721 411.505 116.695 412.352L116.676 412.527H111.207V412.371C111.207 410.6 111.656 409.038 112.555 407.684C113.453 406.316 114.684 405.249 116.246 404.48C117.822 403.712 119.599 403.328 121.578 403.328C123.57 403.328 125.322 403.68 126.832 404.383C128.342 405.073 129.521 406.036 130.367 407.273C131.214 408.51 131.637 409.93 131.637 411.531V411.57C131.637 412.703 131.428 413.758 131.012 414.734C130.608 415.698 129.938 416.727 129 417.82C128.062 418.901 126.78 420.19 125.152 421.688L116.988 429.129L119.254 425.164V429.129L117.008 427.312H132.027V432H111.539ZM136.512 432.332C135.626 432.332 134.878 432.026 134.266 431.414C133.654 430.802 133.348 430.053 133.348 429.168C133.348 428.283 133.654 427.534 134.266 426.922C134.878 426.31 135.626 426.004 136.512 426.004C137.397 426.004 138.146 426.31 138.758 426.922C139.37 427.534 139.676 428.283 139.676 429.168C139.676 430.053 139.37 430.802 138.758 431.414C138.146 432.026 137.397 432.332 136.512 432.332ZM146.816 432V409.227H146.699L139.512 414.109V408.875L146.797 403.816H152.656V432H146.816ZM167.98 432.488C165.741 432.488 163.768 432.143 162.062 431.453C160.357 430.763 159.022 429.806 158.059 428.582C157.095 427.345 156.613 425.919 156.613 424.305V424.266C156.613 423.042 156.893 421.941 157.453 420.965C158.013 419.988 158.781 419.174 159.758 418.523C160.734 417.872 161.854 417.423 163.117 417.176V417.059C161.49 416.655 160.168 415.906 159.152 414.812C158.15 413.706 157.648 412.397 157.648 410.887V410.848C157.648 409.389 158.085 408.1 158.957 406.98C159.829 405.848 161.04 404.956 162.59 404.305C164.152 403.654 165.949 403.328 167.98 403.328C170.012 403.328 171.802 403.654 173.352 404.305C174.901 404.956 176.112 405.848 176.984 406.98C177.87 408.1 178.312 409.389 178.312 410.848V410.887C178.312 412.397 177.805 413.706 176.789 414.812C175.786 415.906 174.471 416.655 172.844 417.059V417.176C174.107 417.423 175.227 417.872 176.203 418.523C177.18 419.174 177.941 419.988 178.488 420.965C179.048 421.941 179.328 423.042 179.328 424.266V424.305C179.328 425.919 178.846 427.345 177.883 428.582C176.932 429.806 175.604 430.763 173.898 431.453C172.193 432.143 170.22 432.488 167.98 432.488ZM167.98 428.191C169.009 428.191 169.914 428.009 170.695 427.645C171.477 427.28 172.089 426.772 172.531 426.121C172.987 425.47 173.215 424.734 173.215 423.914V423.875C173.215 423.042 172.993 422.299 172.551 421.648C172.108 420.997 171.49 420.49 170.695 420.125C169.914 419.747 169.009 419.559 167.98 419.559C166.939 419.559 166.021 419.747 165.227 420.125C164.445 420.49 163.833 420.997 163.391 421.648C162.948 422.299 162.727 423.042 162.727 423.875V423.914C162.727 424.734 162.948 425.47 163.391 426.121C163.846 426.772 164.465 427.28 165.246 427.645C166.04 428.009 166.952 428.191 167.98 428.191ZM167.98 415.281C168.866 415.281 169.647 415.118 170.324 414.793C171.001 414.467 171.529 414.018 171.906 413.445C172.284 412.859 172.473 412.189 172.473 411.434V411.395C172.473 410.639 172.277 409.975 171.887 409.402C171.509 408.829 170.982 408.387 170.305 408.074C169.628 407.749 168.853 407.586 167.98 407.586C167.095 407.586 166.314 407.749 165.637 408.074C164.96 408.387 164.426 408.829 164.035 409.402C163.658 409.975 163.469 410.639 163.469 411.395V411.434C163.469 412.189 163.658 412.859 164.035 413.445C164.426 414.018 164.96 414.467 165.637 414.793C166.314 415.118 167.095 415.281 167.98 415.281ZM203.004 424.168C202.092 424.168 201.188 424.057 200.289 423.836C199.391 423.615 198.505 423.361 197.633 423.074C196.773 422.788 195.921 422.534 195.074 422.312C194.241 422.091 193.421 421.98 192.613 421.98C191.48 421.98 190.484 422.143 189.625 422.469C188.766 422.781 188.056 423.23 187.496 423.816V418.875C188.069 418.341 188.779 417.885 189.625 417.508C190.484 417.117 191.507 416.922 192.691 416.922C193.603 416.922 194.508 417.033 195.406 417.254C196.305 417.475 197.184 417.729 198.043 418.016C198.915 418.302 199.768 418.556 200.602 418.777C201.448 418.999 202.275 419.109 203.082 419.109C204.215 419.109 205.211 418.953 206.07 418.641C206.93 418.315 207.639 417.859 208.199 417.273V422.215C207.626 422.749 206.91 423.211 206.051 423.602C205.204 423.979 204.189 424.168 203.004 424.168ZM216.719 432V427.957L226.68 418.641C227.904 417.508 228.828 416.564 229.453 415.809C230.078 415.053 230.501 414.376 230.723 413.777C230.957 413.178 231.074 412.553 231.074 411.902V411.863C231.074 411.095 230.892 410.418 230.527 409.832C230.163 409.233 229.655 408.764 229.004 408.426C228.366 408.087 227.63 407.918 226.797 407.918C225.833 407.918 224.987 408.113 224.258 408.504C223.529 408.882 222.956 409.409 222.539 410.086C222.122 410.75 221.901 411.505 221.875 412.352L221.855 412.527H216.387V412.371C216.387 410.6 216.836 409.038 217.734 407.684C218.633 406.316 219.863 405.249 221.426 404.48C223.001 403.712 224.779 403.328 226.758 403.328C228.75 403.328 230.501 403.68 232.012 404.383C233.522 405.073 234.701 406.036 235.547 407.273C236.393 408.51 236.816 409.93 236.816 411.531V411.57C236.816 412.703 236.608 413.758 236.191 414.734C235.788 415.698 235.117 416.727 234.18 417.82C233.242 418.901 231.96 420.19 230.332 421.688L222.168 429.129L224.434 425.164V429.129L222.188 427.312H237.207V432H216.719ZM249.348 432.488C247.212 432.488 245.35 432.143 243.762 431.453C242.173 430.75 240.91 429.78 239.973 428.543C239.048 427.306 238.521 425.88 238.391 424.266L238.371 424.012H243.996L244.035 424.227C244.126 424.904 244.393 425.509 244.836 426.043C245.292 426.564 245.897 426.98 246.652 427.293C247.421 427.592 248.312 427.742 249.328 427.742C250.344 427.742 251.223 427.579 251.965 427.254C252.707 426.915 253.28 426.453 253.684 425.867C254.1 425.268 254.309 424.585 254.309 423.816V423.777C254.309 422.423 253.833 421.388 252.883 420.672C251.932 419.956 250.604 419.598 248.898 419.598H245.676V415.398H248.82C249.81 415.398 250.669 415.236 251.398 414.91C252.128 414.585 252.688 414.135 253.078 413.562C253.482 412.977 253.684 412.306 253.684 411.551V411.512C253.684 410.743 253.508 410.092 253.156 409.559C252.818 409.012 252.316 408.595 251.652 408.309C251.001 408.009 250.214 407.859 249.289 407.859C248.378 407.859 247.57 408.009 246.867 408.309C246.164 408.608 245.604 409.031 245.188 409.578C244.771 410.112 244.517 410.743 244.426 411.473L244.406 411.648H238.996L239.016 411.414C239.146 409.773 239.647 408.354 240.52 407.156C241.405 405.945 242.596 405.008 244.094 404.344C245.591 403.667 247.323 403.328 249.289 403.328C251.32 403.328 253.078 403.641 254.562 404.266C256.06 404.878 257.219 405.737 258.039 406.844C258.859 407.951 259.27 409.246 259.27 410.73V410.77C259.27 411.941 259.009 412.97 258.488 413.855C257.967 414.741 257.258 415.47 256.359 416.043C255.474 416.616 254.484 417.02 253.391 417.254V417.371C255.487 417.566 257.16 418.243 258.41 419.402C259.673 420.561 260.305 422.098 260.305 424.012V424.051C260.305 425.73 259.849 427.202 258.938 428.465C258.026 429.728 256.75 430.717 255.109 431.434C253.469 432.137 251.548 432.488 249.348 432.488ZM264.613 432.332C263.728 432.332 262.979 432.026 262.367 431.414C261.755 430.802 261.449 430.053 261.449 429.168C261.449 428.283 261.755 427.534 262.367 426.922C262.979 426.31 263.728 426.004 264.613 426.004C265.499 426.004 266.247 426.31 266.859 426.922C267.471 427.534 267.777 428.283 267.777 429.168C267.777 430.053 267.471 430.802 266.859 431.414C266.247 432.026 265.499 432.332 264.613 432.332ZM274.918 432V409.227H274.801L267.613 414.109V408.875L274.898 403.816H280.758V432H274.918ZM285.086 432V427.957L295.047 418.641C296.271 417.508 297.195 416.564 297.82 415.809C298.445 415.053 298.868 414.376 299.09 413.777C299.324 413.178 299.441 412.553 299.441 411.902V411.863C299.441 411.095 299.259 410.418 298.895 409.832C298.53 409.233 298.022 408.764 297.371 408.426C296.733 408.087 295.997 407.918 295.164 407.918C294.201 407.918 293.354 408.113 292.625 408.504C291.896 408.882 291.323 409.409 290.906 410.086C290.49 410.75 290.268 411.505 290.242 412.352L290.223 412.527H284.754V412.371C284.754 410.6 285.203 409.038 286.102 407.684C287 406.316 288.23 405.249 289.793 404.48C291.368 403.712 293.146 403.328 295.125 403.328C297.117 403.328 298.868 403.68 300.379 404.383C301.889 405.073 303.068 406.036 303.914 407.273C304.76 408.51 305.184 409.93 305.184 411.531V411.57C305.184 412.703 304.975 413.758 304.559 414.734C304.155 415.698 303.484 416.727 302.547 417.82C301.609 418.901 300.327 420.19 298.699 421.688L290.535 429.129L292.801 425.164V429.129L290.555 427.312H305.574V432H285.086ZM310.059 432.332C309.173 432.332 308.424 432.026 307.812 431.414C307.201 430.802 306.895 430.053 306.895 429.168C306.895 428.283 307.201 427.534 307.812 426.922C308.424 426.31 309.173 426.004 310.059 426.004C310.944 426.004 311.693 426.31 312.305 426.922C312.917 427.534 313.223 428.283 313.223 429.168C313.223 430.053 312.917 430.802 312.305 431.414C311.693 432.026 310.944 432.332 310.059 432.332ZM324.973 432.488C322.837 432.488 320.975 432.143 319.387 431.453C317.798 430.75 316.535 429.78 315.598 428.543C314.673 427.306 314.146 425.88 314.016 424.266L313.996 424.012H319.621L319.66 424.227C319.751 424.904 320.018 425.509 320.461 426.043C320.917 426.564 321.522 426.98 322.277 427.293C323.046 427.592 323.938 427.742 324.953 427.742C325.969 427.742 326.848 427.579 327.59 427.254C328.332 426.915 328.905 426.453 329.309 425.867C329.725 425.268 329.934 424.585 329.934 423.816V423.777C329.934 422.423 329.458 421.388 328.508 420.672C327.557 419.956 326.229 419.598 324.523 419.598H321.301V415.398H324.445C325.435 415.398 326.294 415.236 327.023 414.91C327.753 414.585 328.312 414.135 328.703 413.562C329.107 412.977 329.309 412.306 329.309 411.551V411.512C329.309 410.743 329.133 410.092 328.781 409.559C328.443 409.012 327.941 408.595 327.277 408.309C326.626 408.009 325.839 407.859 324.914 407.859C324.003 407.859 323.195 408.009 322.492 408.309C321.789 408.608 321.229 409.031 320.812 409.578C320.396 410.112 320.142 410.743 320.051 411.473L320.031 411.648H314.621L314.641 411.414C314.771 409.773 315.272 408.354 316.145 407.156C317.03 405.945 318.221 405.008 319.719 404.344C321.216 403.667 322.948 403.328 324.914 403.328C326.945 403.328 328.703 403.641 330.188 404.266C331.685 404.878 332.844 405.737 333.664 406.844C334.484 407.951 334.895 409.246 334.895 410.73V410.77C334.895 411.941 334.634 412.97 334.113 413.855C333.592 414.741 332.883 415.47 331.984 416.043C331.099 416.616 330.109 417.02 329.016 417.254V417.371C331.112 417.566 332.785 418.243 334.035 419.402C335.298 420.561 335.93 422.098 335.93 424.012V424.051C335.93 425.73 335.474 427.202 334.562 428.465C333.651 429.728 332.375 430.717 330.734 431.434C329.094 432.137 327.173 432.488 324.973 432.488ZM348.695 432.488C346.312 432.488 344.262 431.896 342.543 430.711C340.824 429.526 339.503 427.846 338.578 425.672C337.667 423.484 337.211 420.9 337.211 417.918V417.879C337.211 414.884 337.667 412.299 338.578 410.125C339.503 407.951 340.824 406.277 342.543 405.105C344.262 403.921 346.312 403.328 348.695 403.328C351.078 403.328 353.122 403.921 354.828 405.105C356.547 406.277 357.868 407.951 358.793 410.125C359.717 412.299 360.18 414.884 360.18 417.879V417.918C360.18 420.9 359.717 423.484 358.793 425.672C357.868 427.846 356.547 429.526 354.828 430.711C353.122 431.896 351.078 432.488 348.695 432.488ZM348.695 427.762C349.867 427.762 350.863 427.371 351.684 426.59C352.504 425.809 353.129 424.682 353.559 423.211C354.001 421.74 354.223 419.975 354.223 417.918V417.879C354.223 415.809 354.001 414.044 353.559 412.586C353.129 411.115 352.504 409.995 351.684 409.227C350.863 408.445 349.867 408.055 348.695 408.055C347.523 408.055 346.521 408.445 345.688 409.227C344.867 409.995 344.242 411.115 343.812 412.586C343.383 414.044 343.168 415.809 343.168 417.879V417.918C343.168 419.975 343.383 421.74 343.812 423.211C344.242 424.682 344.867 425.809 345.688 426.59C346.521 427.371 347.523 427.762 348.695 427.762Z" fill="#001E6C"/>
<g clip-path="url(#clip0_94_3)">
<path d="M320.13 144.068C315.332 144.068 311.45 140.214 311.45 135.45C311.45 124.021 309.081 115.795 304.796 112.283C301.821 109.855 298.503 110.264 298.461 110.272C293.747 111.19 289.193 108.153 288.26 103.481C287.336 98.8095 290.395 94.2795 295.1 93.3618C296.242 93.1365 306.535 91.3929 315.819 98.9764C324.448 106.018 328.818 118.289 328.818 135.459C328.818 140.222 324.936 144.076 320.138 144.076L320.13 144.068Z" fill="#209F2E"/>
<path d="M213.893 295.451C205.482 293.449 199.365 291.489 195.635 289.612C189.837 285.941 194.072 281.528 194.072 281.528C196.315 279.392 199.97 278.374 204.65 278.574C215.17 279.025 218.052 284.197 218.169 284.422C218.077 284.239 218.035 284.139 218.035 284.139H218.06C219.295 287.384 222.454 289.712 226.168 289.712C230.949 289.712 234.831 285.857 234.831 281.11C234.831 279.767 234.512 278.499 233.957 277.365L233.999 277.348C233.554 276.305 231.739 272.634 227.302 268.98C223.387 265.76 216.413 261.822 205.407 261.347C193.383 260.821 186.073 265.259 182.065 269.072C177.343 273.56 174.638 279.65 174.638 285.774C174.638 300.999 187.14 306.847 210.204 312.303L210.876 312.429C211.296 312.495 221.278 314.189 220.959 320.538C220.833 322.999 220.547 328.755 206.852 328.755C200.172 328.755 190.543 324.534 189.392 321.113C187.871 316.592 182.956 314.147 178.41 315.657C173.857 317.167 171.395 322.048 172.916 326.561C177.369 339.817 195.795 345.991 206.852 345.999C225.773 345.999 237.528 336.797 238.301 321.397C239.166 304.119 222.95 296.928 213.901 295.443L213.893 295.451Z" fill="#E74723"/>
<path d="M262.373 243.22H223.833C219.035 243.22 215.153 239.365 215.153 234.602C215.153 229.838 219.035 225.984 223.833 225.984H262.373C267.171 225.984 271.053 229.838 271.053 234.602C271.053 239.365 267.171 243.22 262.373 243.22Z" fill="#E74723"/>
<path d="M142.542 242.968C141.399 242.968 140.232 242.735 139.114 242.268C134.703 240.382 132.678 235.31 134.577 230.938L161.96 167.827C163.858 163.455 168.967 161.436 173.37 163.322C177.781 165.207 179.806 170.279 177.907 174.651L150.524 237.763C149.104 241.025 145.911 242.968 142.542 242.968Z" fill="#557EFF"/>
<path d="M198.03 242.968C194.669 242.968 191.468 241.016 190.048 237.763L162.666 174.651C160.767 170.271 162.8 165.199 167.203 163.322C171.605 161.436 176.714 163.455 178.613 167.827L205.995 230.938C207.894 235.31 205.861 240.382 201.458 242.268C200.332 242.752 199.173 242.968 198.03 242.968Z" fill="#0943D3"/>
<path d="M305.351 344.274C304.208 344.274 303.04 344.04 301.922 343.573C297.52 341.687 295.486 336.615 297.385 332.244L324.768 269.132C326.667 264.76 331.775 262.741 336.178 264.627C340.581 266.512 342.614 271.585 340.715 275.956L313.333 339.068C311.913 342.33 308.711 344.274 305.351 344.274Z" fill="#E74723"/>
<path d="M360.838 344.274C357.469 344.274 354.276 342.322 352.856 339.068L325.473 275.956C323.574 271.576 325.608 266.504 330.01 264.627C334.421 262.741 339.53 264.76 341.42 269.132L368.803 332.244C370.702 336.615 368.669 341.696 364.266 343.573C363.148 344.057 361.98 344.274 360.838 344.274Z" fill="#557EFF"/>
<path d="M8.67964 143.099C7.53695 143.099 6.36905 142.865 5.25157 142.398C0.848854 140.513 -1.18446 135.44 0.714419 131.069L28.0886 67.9571C29.9874 63.5855 35.0959 61.5666 39.4987 63.4521C43.9014 65.3375 45.9347 70.4098 44.0358 74.7813L16.6533 137.885C15.2333 141.147 12.0405 143.091 8.67124 143.091L8.67964 143.099Z" fill="#0943D3"/>
<path d="M64.1669 143.099C60.806 143.099 57.6048 141.147 56.1849 137.893L28.8023 74.7813C26.9034 70.4098 28.9367 65.3375 33.3395 63.4521C37.7422 61.5666 42.8507 63.5855 44.7496 67.9571L72.1321 131.069C74.031 135.44 71.9977 140.513 67.5949 142.398C66.4775 142.882 65.3096 143.099 64.1669 143.099Z" fill="#209F2E"/>
<path d="M272.456 143.351C267.658 143.351 263.776 139.496 263.776 134.733V71.7795C263.776 67.0159 267.658 63.1616 272.456 63.1616C277.253 63.1616 281.135 67.0159 281.135 71.7795V134.733C281.135 139.496 277.253 143.351 272.456 143.351Z" fill="#557EFF"/>
<path d="M223.967 243.22C219.17 243.22 215.288 239.366 215.288 234.602V171.649C215.288 166.885 219.17 163.031 223.967 163.031C228.765 163.031 232.647 166.885 232.647 171.649V234.602C232.647 239.366 228.765 243.22 223.967 243.22Z" fill="#FFBC00"/>
<path d="M158.119 142.632C153.322 142.632 149.432 138.778 149.432 134.014V71.0608C149.432 66.2972 153.313 62.4429 158.119 62.4429C162.925 62.4429 166.799 66.2972 166.799 71.0608V134.014C166.799 138.778 162.917 142.632 158.119 142.632Z" fill="#0943D3"/>
<path d="M87.2058 142.632C82.4082 142.632 78.5264 138.778 78.5264 134.014V71.0608C78.5264 66.2972 82.4082 62.4429 87.2058 62.4429C92.0034 62.4429 95.8852 66.2972 95.8852 71.0608V134.014C95.8852 138.778 92.0034 142.632 87.2058 142.632Z" fill="#FFBC00"/>
<path d="M51.0261 343.806C46.2285 343.806 42.3467 339.952 42.3467 335.188V272.235C42.3467 267.471 46.2285 263.608 51.0261 263.608C55.8237 263.608 59.7055 267.463 59.7055 272.235V335.188C59.7055 339.952 55.8237 343.806 51.0261 343.806Z" fill="#0943D3"/>
<path d="M115.428 343.806C110.631 343.806 106.749 339.952 106.749 335.188V272.235C106.749 267.471 110.639 263.608 115.428 263.608C120.218 263.608 124.108 267.463 124.108 272.235V335.188C124.108 339.952 120.226 343.806 115.428 343.806Z" fill="#557EFF"/>
<path d="M297.797 280.962H248.804C244.007 280.962 240.125 277.108 240.125 272.344C240.125 267.58 244.007 263.718 248.804 263.718H297.797C302.595 263.718 306.477 267.572 306.477 272.344C306.477 277.116 302.595 280.962 297.797 280.962Z" fill="#FFBC00"/>
<path d="M157.422 280.962H115.663C110.866 280.962 106.976 277.108 106.976 272.344C106.976 267.58 110.857 263.718 115.663 263.718H157.422C162.22 263.718 166.101 267.572 166.101 272.344C166.101 277.116 162.22 280.962 157.422 280.962Z" fill="#0943D3"/>
<path d="M89.3987 280.962H51.2614C46.4638 280.962 42.582 277.108 42.582 272.344C42.582 267.58 46.4638 263.718 51.2614 263.718H89.3987C94.1963 263.718 98.0781 267.572 98.0781 272.344C98.0781 277.116 94.1963 280.962 89.3987 280.962Z" fill="#557EFF"/>
<path d="M157.422 343.806H115.663C110.866 343.806 106.976 339.951 106.976 335.188C106.976 330.424 110.857 326.562 115.663 326.562H157.422C162.22 326.562 166.101 330.416 166.101 335.188C166.101 339.96 162.22 343.806 157.422 343.806Z" fill="#209F2E"/>
<path d="M287.647 243.22C282.849 243.22 278.959 239.366 278.959 234.602V171.649C278.959 166.885 282.841 163.031 287.647 163.031C292.453 163.031 296.326 166.885 296.326 171.649V234.602C296.326 239.366 292.444 243.22 287.647 243.22Z" fill="#557EFF"/>
<path d="M329.641 180.374H287.883C283.085 180.374 279.203 176.519 279.203 171.747C279.203 166.975 283.085 163.129 287.883 163.129H329.641C334.439 163.129 338.321 166.984 338.321 171.747C338.321 176.511 334.439 180.374 329.641 180.374Z" fill="#E74723"/>
<path d="M329.641 243.22H287.883C283.085 243.22 279.203 239.365 279.203 234.602C279.203 229.838 283.085 225.984 287.883 225.984H329.641C334.439 225.984 338.321 229.838 338.321 234.602C338.321 239.365 334.439 243.22 329.641 243.22Z" fill="#0943D3"/>
<path d="M351.327 142.632C346.529 142.632 342.647 138.778 342.647 134.014V71.0608C342.647 66.2972 346.529 62.4429 351.327 62.4429C356.124 62.4429 360.006 66.2972 360.006 71.0608V134.014C360.006 138.778 356.124 142.632 351.327 142.632Z" fill="#557EFF"/>
<path d="M393.312 79.6787H351.553C346.756 79.6787 342.874 75.8244 342.874 71.0608C342.874 66.2972 346.756 62.4429 351.553 62.4429H393.312C398.11 62.4429 401.991 66.2972 401.991 71.0608C401.991 75.8244 398.11 79.6787 393.312 79.6787Z" fill="#0943D3"/>
<path d="M393.312 142.632H351.553C346.756 142.632 342.874 138.778 342.874 134.014C342.874 129.25 346.756 125.396 351.553 125.396H393.312C398.11 125.396 401.991 129.25 401.991 134.014C401.991 138.778 398.11 142.632 393.312 142.632Z" fill="#0943D3"/>
<path d="M123.865 142.54C122.932 142.524 121.983 142.365 121.058 142.031C116.546 140.421 114.194 135.482 115.824 131.003C116.118 130.177 116.202 129.943 150.483 66.9647C152.768 62.7767 158.036 61.2166 162.254 63.4775C166.472 65.7467 168.043 70.9691 165.766 75.1655C152.785 99.0253 133.191 135.049 131.805 137.685C130.309 140.747 127.167 142.599 123.856 142.549L123.865 142.54Z" fill="#557EFF"/>
<path d="M121.478 142.54C118.168 142.59 115.025 140.738 113.53 137.676C112.143 135.04 92.5581 99.0165 79.5684 75.1567C77.2914 70.9687 78.8626 65.7379 83.0805 63.4687C87.2899 61.2079 92.5665 62.7679 94.8519 66.9559C129.141 129.943 129.217 130.168 129.511 130.994C131.132 135.474 128.788 140.413 124.276 142.023C123.343 142.356 122.402 142.515 121.47 142.532L121.478 142.54Z" fill="#557EFF"/>
<path d="M305.493 110.572H272.456C267.658 110.572 263.776 106.718 263.776 101.954C263.776 97.1906 267.658 93.3363 272.456 93.3363H305.493C309.215 93.3363 312.248 90.3246 312.248 86.6288C312.248 82.933 309.215 79.9214 305.493 79.9214H272.456C267.658 79.9214 263.776 76.0671 263.776 71.3035C263.776 66.5398 267.658 62.6855 272.456 62.6855H305.493C318.794 62.6855 329.615 73.4308 329.615 86.6372C329.615 99.8435 318.794 110.589 305.493 110.589V110.572Z" fill="#0943D3"/>
<path d="M214.784 144.343C193.442 144.343 176.075 125.647 176.075 102.671C176.075 79.6958 193.442 61 214.784 61C236.125 61 253.492 79.6958 253.492 102.671C253.492 125.647 236.125 144.343 214.784 144.343ZM214.784 78.2442C203.012 78.2442 193.442 89.198 193.442 102.671C193.442 116.145 203.012 127.098 214.784 127.098C226.555 127.098 236.134 116.145 236.134 102.671C236.134 89.198 226.564 78.2442 214.784 78.2442Z" fill="#FFBC00"/>
<path d="M170.832 225.542C163.547 225.542 156.288 223.957 149.482 220.812C145.13 218.801 143.248 213.67 145.281 209.357C147.306 205.044 152.473 203.175 156.817 205.186C164.875 208.907 173.907 209.299 182.267 206.27C186.779 204.635 191.753 206.946 193.4 211.418C195.047 215.889 192.72 220.845 188.216 222.463C182.553 224.516 176.68 225.534 170.832 225.534V225.542Z" fill="#FFBC00"/>
<path d="M36.969 125.672C29.6844 125.672 22.425 124.095 15.6192 120.942C11.2669 118.931 9.39325 113.8 11.4182 109.487C13.4431 105.166 18.6104 103.297 22.9543 105.316C31.0119 109.037 40.0526 109.429 48.4043 106.4C52.9163 104.774 57.8904 107.076 59.5372 111.548C61.1756 116.028 58.8566 120.975 54.3531 122.602C48.69 124.646 42.8169 125.672 36.969 125.672Z" fill="#FFBC00"/>
<path d="M333.649 326.845C326.364 326.845 319.105 325.26 312.299 322.115C307.947 320.104 306.073 314.974 308.098 310.661C310.123 306.348 315.29 304.47 319.634 306.489C327.692 310.21 336.724 310.602 345.084 307.574C349.596 305.947 354.578 308.25 356.217 312.721C357.855 317.201 355.536 322.148 351.033 323.775C345.37 325.819 339.497 326.845 333.64 326.845H333.649Z" fill="#FFBC00"/>
<path d="M369.483 112.757C361.98 112.757 354.511 111.08 347.554 107.751C343.235 105.682 341.42 100.527 343.495 96.2386C345.571 91.9505 350.763 90.1485 355.09 92.2091C363.098 96.0384 372.13 96.5389 380.524 93.6273C385.044 92.0506 390.001 94.4282 391.589 98.9166C393.177 103.405 390.783 108.327 386.262 109.904C380.784 111.806 375.129 112.757 369.492 112.757H369.483Z" fill="#FFBC00"/>
<path d="M65.2589 313.814C59.5287 313.814 53.7816 312.838 48.2194 310.869C43.7075 309.267 41.3465 304.337 42.9597 299.857C44.5729 295.377 49.5386 293.033 54.0505 294.634C62.419 297.596 71.4597 297.145 79.4922 293.366C83.8277 291.322 89.0034 293.158 91.0535 297.462C93.112 301.767 91.2635 306.915 86.928 308.95C80.0299 312.196 72.6612 313.831 65.2505 313.831L65.2589 313.814Z" fill="#FFBC00"/>
<path d="M133.712 313.931C126.209 313.931 118.739 312.254 111.782 308.926C107.464 306.857 105.649 301.709 107.724 297.413C109.808 293.125 114.992 291.323 119.319 293.383C127.326 297.213 136.358 297.713 144.752 294.802C149.273 293.225 154.23 295.603 155.818 300.091C157.406 304.579 155.011 309.501 150.491 311.078C145.013 312.98 139.35 313.931 133.72 313.931H133.712Z" fill="#FFBC00"/>
<path d="M301.544 191.946C309.047 191.946 316.517 193.623 323.474 196.952C327.792 199.021 329.607 204.168 327.532 208.465C325.456 212.753 320.264 214.555 315.937 212.494C307.93 208.665 298.897 208.164 290.504 211.076C285.983 212.653 281.026 210.275 279.438 205.787C277.85 201.298 280.245 196.376 284.765 194.799C290.243 192.897 295.898 191.946 301.536 191.946H301.544Z" fill="#FFBC00"/>
<path d="M99.7431 246.257V246.247L99.7334 246.257H99.7431Z" fill="#E74723"/>
<path d="M106.791 195.7C98.3806 193.698 92.2639 191.737 88.5333 189.86C82.7358 186.189 86.9705 181.776 86.9705 181.776C89.2139 179.64 92.8688 178.623 97.5488 178.823C108.068 179.273 110.95 184.446 111.068 184.671C110.975 184.487 110.933 184.387 110.933 184.387H110.959C112.194 187.633 115.353 189.96 119.067 189.96C123.847 189.96 127.729 186.106 127.729 181.359C127.729 180.016 127.41 178.748 126.855 177.613L126.897 177.596C126.452 176.554 124.637 172.883 120.201 169.229C116.286 166.009 109.312 162.071 98.305 161.595C86.2815 161.07 78.9717 165.508 74.9639 169.321C70.2419 173.809 67.5364 179.899 67.5364 186.022C67.5364 201.248 80.0387 207.096 103.103 212.552L103.775 212.677C104.195 212.744 114.177 214.437 113.857 220.786C113.731 223.247 113.446 229.004 99.7502 229.004C93.0705 229.004 83.4416 224.782 82.2905 221.362C80.7697 216.84 75.8545 214.396 71.3089 215.906C66.755 217.416 64.2932 222.296 65.8139 226.809C70.2671 240.066 88.6929 246.239 99.7502 246.248C118.672 246.248 130.426 237.046 131.199 221.645C132.065 204.368 115.849 197.177 106.8 195.692L106.791 195.7Z" fill="#E74723"/>
<path d="M273.759 343.806C268.961 343.806 265.079 339.952 265.079 335.188V272.235C265.079 267.471 268.961 263.608 273.759 263.608C278.556 263.608 282.438 267.463 282.438 272.235V335.188C282.438 339.952 278.556 343.806 273.759 343.806Z" fill="#209F2E"/>
<path d="M223.917 180.166C228.683 180.166 232.546 176.331 232.546 171.599C232.546 166.867 228.683 163.031 223.917 163.031C219.151 163.031 215.288 166.867 215.288 171.599C215.288 176.331 219.151 180.166 223.917 180.166Z" fill="#E74723"/>
<path d="M215.288 144.343C220.054 144.343 223.917 140.507 223.917 135.775C223.917 131.043 220.054 127.207 215.288 127.207C210.523 127.207 206.659 131.043 206.659 135.775C206.659 140.507 210.523 144.343 215.288 144.343Z" fill="#209F2E"/>
<path d="M244.872 111.24C249.638 111.24 253.501 107.404 253.501 102.672C253.501 97.9405 249.638 94.1045 244.872 94.1045C240.106 94.1045 236.243 97.9405 236.243 102.672C236.243 107.404 240.106 111.24 244.872 111.24Z" fill="#557EFF"/>
<path d="M272.506 143.349C277.272 143.349 281.135 139.513 281.135 134.781C281.135 130.049 277.272 126.213 272.506 126.213C267.74 126.213 263.877 130.049 263.877 134.781C263.877 139.513 267.74 143.349 272.506 143.349Z" fill="#E74723"/>
<path d="M393.362 142.582C398.128 142.582 401.991 138.747 401.991 134.015C401.991 129.283 398.128 125.447 393.362 125.447C388.597 125.447 384.733 129.283 384.733 134.015C384.733 138.747 388.597 142.582 393.362 142.582Z" fill="#209F2E"/>
<path d="M272.506 79.8037C277.272 79.8037 281.135 75.9677 281.135 71.2358C281.135 66.5039 277.272 62.668 272.506 62.668C267.74 62.668 263.877 66.5039 263.877 71.2358C263.877 75.9677 267.74 79.8037 272.506 79.8037Z" fill="#E74723"/>
<path d="M329.692 243.169C334.457 243.169 338.32 239.333 338.32 234.601C338.32 229.869 334.457 226.033 329.692 226.033C324.926 226.033 321.062 229.869 321.062 234.601C321.062 239.333 324.926 243.169 329.692 243.169Z" fill="#FFBC00"/>
<path d="M273.758 343.807C278.524 343.807 282.387 339.971 282.387 335.239C282.387 330.507 278.524 326.671 273.758 326.671C268.992 326.671 265.129 330.507 265.129 335.239C265.129 339.971 268.992 343.807 273.758 343.807Z" fill="#0943D3"/>
</g>
<path d="M171.678 26.4252C173.715 26.3118 175.039 27.4614 175.142 29.0076C175.245 30.5538 174.076 31.8409 172.03 31.9623L156.402 32.8447C154.562 32.9499 153.29 31.8895 153.187 30.1571L153.083 28.4733C152.688 22.2885 157.287 19.2528 161.362 16.5733C164.577 14.4604 167.405 12.6552 167.216 9.74899C167.096 7.83041 165.703 6.35708 162.419 6.54327C159.385 6.71327 158.379 8.13803 157.545 9.2147C156.857 10.1457 156.256 10.8904 154.957 10.9633C153.316 11.0523 152.103 9.99184 152 8.49422C151.957 7.88708 152.112 7.12613 152.413 6.40565C153.694 3.64518 157.588 1.26518 162.514 0.981843C169.236 0.601366 173.079 4.47899 173.397 9.44137C173.724 14.598 169.933 17.7309 166.193 20.2404C162.548 22.6609 158.92 24.5066 159.092 27.1295L171.686 26.4171L171.678 26.4252Z" fill="#001E6C"/>
<path d="M176.32 16.2412C176.148 7.55502 180.945 0.147877 189.318 0.00216269C197.691 -0.143552 202.771 7.09359 202.935 15.7798C203.098 24.466 198.31 31.8731 189.937 32.0107C181.564 32.1484 176.483 24.9193 176.32 16.2331V16.2412ZM196.857 15.8931C196.745 10.0726 193.96 5.47454 189.43 5.5474C184.942 5.62026 182.294 10.3155 182.406 16.136C182.518 21.9565 185.346 26.5545 189.834 26.4817C194.373 26.4007 196.969 21.7136 196.857 15.8931Z" fill="#001E6C"/>
<path d="M223.617 26.1429C225.663 26.1833 226.876 27.43 226.841 28.9843C226.807 30.5305 225.526 31.7286 223.48 31.68L207.826 31.34C205.977 31.2995 204.817 30.15 204.851 28.4095L204.894 26.7176C205.04 20.5248 209.897 17.8533 214.196 15.5057C217.583 13.6519 220.566 12.0733 220.634 9.16713C220.677 7.24047 219.422 5.66189 216.13 5.59713C213.087 5.53237 211.961 6.86808 211.041 7.87999C210.267 8.75428 209.605 9.44237 208.307 9.41809C206.665 9.3857 205.548 8.22809 205.582 6.73047C205.599 6.12332 205.814 5.37047 206.184 4.67428C207.697 2.02713 211.789 -0.0452484 216.723 0.0599897C223.454 0.205704 226.944 4.36666 226.824 9.34523C226.695 14.51 222.637 17.3352 218.692 19.5452C214.849 21.6662 211.075 23.2286 211.006 25.8595L223.617 26.1348V26.1429Z" fill="#001E6C"/>
<path d="M249.975 24.1658C249.64 29.3711 245.29 33.3539 237.974 32.933C233.048 32.6496 229.584 30.5287 228.346 28.0596C228.037 27.3877 227.839 26.6187 227.882 25.963C227.985 24.4168 229.352 23.3158 230.891 23.4049C232.386 23.4939 233.16 24.5706 233.719 25.2101C234.742 26.4001 236.031 27.2744 238.275 27.3958C241.662 27.5901 243.717 25.8739 243.871 23.4858C244.026 21.0977 242.204 19.1549 238.817 18.9687L237.476 18.8958C235.481 18.7825 234.321 17.5358 234.415 15.9896C234.51 14.492 235.834 13.3425 237.828 13.4558L239.169 13.5287C241.954 13.6906 243.648 12.282 243.777 10.2663C243.906 8.2506 242.41 6.66394 239.625 6.50203C237.381 6.37251 236.427 7.26298 235.438 7.95917C234.759 8.48536 234.028 8.91441 232.98 8.85775C231.286 8.7606 230.168 7.47346 230.263 6.02441C230.323 5.13394 230.822 4.26775 231.518 3.55536C233.229 1.86346 236.341 0.770603 240.072 0.989174C246.545 1.36156 250.233 5.37679 249.915 10.2501C249.743 12.9701 248.333 15.3825 245.754 16.6454C248.754 18.1349 250.173 20.9439 249.966 24.1739L249.975 24.1658Z" fill="#001E6C"/>
<defs>
<clipPath id="clip0_94_3">
<rect width="402" height="285" fill="white" transform="translate(0 61)"/>
</clipPath>
</defs>
</svg>
