<svg width="750" height="1758" viewBox="0 0 750 1758" fill="none" xmlns="http://www.w3.org/2000/svg">
<g clip-path="url(#clip0_371_2783)">
<rect width="750" height="1758" fill="white"/>
<g clip-path="url(#clip1_371_2783)">
<rect width="750" height="4076" transform="translate(0 -2318)" fill="black"/>
<path d="M247.094 -74.9912L131.296 -141.844C129.383 -142.948 126.937 -142.293 125.832 -140.38L86.4205 -72.1202C85.3159 -70.207 85.9714 -67.7607 87.8846 -66.6562L203.682 0.196404C205.595 1.30093 208.042 0.645427 209.146 -1.26772L248.558 -69.5272C249.662 -71.4404 249.007 -73.8867 247.094 -74.9912Z" fill="#FFA2D1"/>
</g>
<path d="M99.5765 1748.35C87.7194 1748.35 76.0505 1738.7 71.6982 1733.87L46.29 1770.08C51.3481 1773.13 64.5698 1780.72 76.9915 1786.77C92.5187 1794.33 100.988 1790.55 109.81 1789.6C118.633 1788.66 126.396 1791.18 130.984 1793.07C134.654 1794.58 146.864 1802.09 152.51 1805.66L177.212 1768.51C169.096 1763.89 150.252 1753.71 139.806 1749.93C126.749 1745.21 114.398 1748.35 99.5765 1748.35Z" fill="#8B62F6"/>
<path d="M87.979 1753.09L38.9272 1721.91L61.5122 1689.8L107.035 1721.91L87.979 1753.09Z" fill="#F1959E"/>
<path d="M79.8153 1777.01L-28.5464 1717.2L-25.0175 1708.7L85.4615 1769.77L79.8153 1777.01Z" fill="#EB4A7A"/>
<path d="M36.107 1682.23L-38 1643.5L-34.4711 1635L41.7533 1674.99L36.107 1682.23Z" fill="#EB4A7A"/>
</g>
<defs>
<clipPath id="clip0_371_2783">
<rect width="750" height="1758" fill="white"/>
</clipPath>
<clipPath id="clip1_371_2783">
<rect width="750" height="4076" fill="white" transform="translate(0 -2318)"/>
</clipPath>
</defs>
</svg>
