<svg width="750" height="3772" viewBox="0 0 750 3772" fill="none" xmlns="http://www.w3.org/2000/svg">
<g clip-path="url(#clip0_371_2766)">
<rect width="750" height="3772" fill="white"/>
<g clip-path="url(#clip1_371_2766)">
<rect width="750" height="6393" fill="url(#paint0_linear_371_2766)"/>
<circle cx="316.5" cy="1655.5" r="1.5" fill="#FFA2D1"/>
<circle cx="264" cy="1744" r="2" fill="#FFA2D1"/>
<circle cx="340.5" cy="1824.5" r="1.5" fill="#FFA2D1"/>
<circle cx="500" cy="1780" r="2" fill="#FFA2D1"/>
<circle cx="613" cy="1994" r="2" fill="#FFA2D1"/>
<circle cx="518" cy="2619" r="2" fill="#FFA2D1"/>
<circle cx="351" cy="2907" r="2" fill="#FFA2D1"/>
<circle cx="550" cy="2920" r="2" fill="#FFA2D1"/>
<circle cx="647" cy="1906" r="2" fill="#FFA2D1"/>
<circle cx="290" cy="1861" r="2" fill="#FFA2D1"/>
<circle cx="111" cy="1760" r="2" fill="#FFA2D1"/>
<circle cx="462.5" cy="1701.5" r="1.5" fill="#FFA2D1"/>
<circle cx="240" cy="2183" r="2" fill="#FFA2D1"/>
<circle cx="552.5" cy="2049.5" r="1.5" fill="#FFA2D1"/>
<circle cx="686.5" cy="1988.5" r="1.5" fill="#FFA2D1"/>
<circle cx="195.5" cy="3015.5" r="1.5" fill="#FFA2D1"/>
<circle cx="209" cy="2246" r="2" fill="#FFA2D1"/>
<circle cx="195.5" cy="2397.5" r="1.5" fill="#FFA2D1"/>
<circle cx="140.5" cy="2561.5" r="1.5" fill="#FFA2D1"/>
<circle cx="281.5" cy="2647.5" r="1.5" fill="#FFA2D1"/>
<circle cx="646.5" cy="2500.5" r="1.5" fill="#FFA2D1"/>
<circle cx="159.5" cy="2876.5" r="1.5" fill="#FFA2D1"/>
<circle cx="19.5" cy="2691.5" r="1.5" fill="#FFA2D1"/>
<circle cx="259" cy="3016" r="2" fill="#FFA2D1"/>
<circle cx="606.5" cy="3032.5" r="1.5" fill="#FFA2D1"/>
<circle cx="314.5" cy="2984.5" r="1.5" fill="#FFA2D1"/>
<circle cx="28" cy="2390" r="2" fill="#FFA2D1"/>
<circle cx="306.5" cy="2216.5" r="1.5" fill="#FFA2D1"/>
<circle cx="604.5" cy="1705.5" r="1.5" fill="#FFA2D1"/>
<circle cx="730.5" cy="1771.5" r="1.5" fill="#FFA2D1"/>
<circle cx="198.5" cy="1687.5" r="1.5" fill="#FFA2D1"/>
<circle cx="316.5" cy="3146.5" r="1.5" fill="#FFA2D1"/>
<circle cx="264" cy="3235" r="2" fill="#FFA2D1"/>
<circle cx="340.5" cy="3315.5" r="1.5" fill="#FFA2D1"/>
<circle cx="500" cy="3271" r="2" fill="#FFA2D1"/>
<circle cx="613" cy="3485" r="2" fill="#FFA2D1"/>
<circle cx="647" cy="3397" r="2" fill="#FFA2D1"/>
<circle cx="290" cy="3352" r="2" fill="#FFA2D1"/>
<circle cx="111" cy="3251" r="2" fill="#FFA2D1"/>
<circle cx="462.5" cy="3192.5" r="1.5" fill="#FFA2D1"/>
<circle cx="240" cy="3674" r="2" fill="#FFA2D1"/>
<circle cx="552.5" cy="3540.5" r="1.5" fill="#FFA2D1"/>
<circle cx="686.5" cy="3479.5" r="1.5" fill="#FFA2D1"/>
<circle cx="209" cy="3737" r="2" fill="#FFA2D1"/>
<circle cx="306.5" cy="3707.5" r="1.5" fill="#FFA2D1"/>
<circle cx="604.5" cy="3196.5" r="1.5" fill="#FFA2D1"/>
<circle cx="730.5" cy="3262.5" r="1.5" fill="#FFA2D1"/>
<circle cx="198.5" cy="3178.5" r="1.5" fill="#FFA2D1"/>
<circle cx="316.5" cy="62.5" r="1.5" fill="#FFA2D1"/>
<circle cx="264" cy="151" r="2" fill="#FFA2D1"/>
<circle cx="340.5" cy="231.5" r="1.5" fill="#FFA2D1"/>
<circle cx="500" cy="187" r="2" fill="#FFA2D1"/>
<circle cx="613" cy="401" r="2" fill="#FFA2D1"/>
<circle cx="518" cy="1026" r="2" fill="#FFA2D1"/>
<circle cx="351" cy="1314" r="2" fill="#FFA2D1"/>
<circle cx="550" cy="1327" r="2" fill="#FFA2D1"/>
<circle cx="647" cy="313" r="2" fill="#FFA2D1"/>
<circle cx="290" cy="268" r="2" fill="#FFA2D1"/>
<circle cx="111" cy="167" r="2" fill="#FFA2D1"/>
<circle cx="462.5" cy="108.5" r="1.5" fill="#FFA2D1"/>
<circle cx="240" cy="590" r="2" fill="#FFA2D1"/>
<circle cx="552.5" cy="456.5" r="1.5" fill="#FFA2D1"/>
<circle cx="686.5" cy="395.5" r="1.5" fill="#FFA2D1"/>
<circle cx="195.5" cy="1422.5" r="1.5" fill="#FFA2D1"/>
<circle cx="209" cy="653" r="2" fill="#FFA2D1"/>
<circle cx="195.5" cy="804.5" r="1.5" fill="#FFA2D1"/>
<circle cx="140.5" cy="968.5" r="1.5" fill="#FFA2D1"/>
<circle cx="281.5" cy="1054.5" r="1.5" fill="#FFA2D1"/>
<circle cx="646.5" cy="907.5" r="1.5" fill="#FFA2D1"/>
<circle cx="159.5" cy="1283.5" r="1.5" fill="#FFA2D1"/>
<circle cx="19.5" cy="1098.5" r="1.5" fill="#FFA2D1"/>
<circle cx="259" cy="1423" r="2" fill="#FFA2D1"/>
<circle cx="606.5" cy="1439.5" r="1.5" fill="#FFA2D1"/>
<circle cx="314.5" cy="1391.5" r="1.5" fill="#FFA2D1"/>
<circle cx="28" cy="797" r="2" fill="#FFA2D1"/>
<circle cx="306.5" cy="623.5" r="1.5" fill="#FFA2D1"/>
<circle cx="604.5" cy="112.5" r="1.5" fill="#FFA2D1"/>
<circle cx="730.5" cy="178.5" r="1.5" fill="#FFA2D1"/>
<circle cx="198.5" cy="94.5" r="1.5" fill="#FFA2D1"/>
<path d="M95.6277 3385.6L93.4395 3357.03C93.3634 3355.98 94.2767 3355.08 95.4755 3355C96.6743 3354.93 97.7208 3355.73 97.8064 3356.77C97.8064 3356.85 97.8064 3356.94 97.8064 3357.02L95.6182 3385.59L95.6277 3385.6Z" fill="#FF377A"/>
<path d="M84.6942 3387.35L76.8994 3359.22C76.6104 3358.19 77.1967 3357.12 78.2123 3356.82C79.2279 3356.53 80.2683 3357.14 80.5573 3358.16C80.5821 3358.24 80.5986 3358.33 80.6069 3358.42L84.6942 3387.35Z" fill="#FF377A"/>
<path d="M74.201 3390.85L61.2979 3364.85C60.8274 3363.91 61.1703 3362.72 62.0635 3362.22C62.9566 3361.72 64.0731 3362.08 64.5436 3363.03C64.5835 3363.11 64.6154 3363.19 64.6393 3363.27L74.1931 3390.84L74.201 3390.85Z" fill="#FF377A"/>
<path d="M65.4528 3396.08L46.6678 3373.88C45.9827 3373.06 46.0927 3371.85 46.9215 3371.18C47.7504 3370.5 48.9768 3370.61 49.6619 3371.43C49.7126 3371.49 49.7718 3371.57 49.8141 3371.64L65.4528 3396.09V3396.08Z" fill="#FF377A"/>
<path d="M56.7146 3403.09L34.6917 3385.48C33.8841 3384.83 33.7468 3383.65 34.3848 3382.82C35.0228 3382 36.1857 3381.86 36.9933 3382.5C37.0579 3382.55 37.1225 3382.62 37.179 3382.67L56.7146 3403.08V3403.09Z" fill="#FF377A"/>
<path d="M50.5859 3411.83L24.5587 3399.58C23.6056 3399.13 23.2126 3398.03 23.6808 3397.12C24.149 3396.21 25.3028 3395.83 26.256 3396.28C26.3312 3396.31 26.4065 3396.36 26.4734 3396.4L50.5859 3411.83Z" fill="#FF377A"/>
<path d="M46.2234 3422.32L17.9599 3414.9C16.9265 3414.63 16.2963 3413.55 16.5568 3412.47C16.8173 3411.4 17.8675 3410.74 18.9093 3411.01C18.9933 3411.03 19.0773 3411.07 19.1529 3411.09L46.2234 3422.3V3422.32Z" fill="#FF377A"/>
<path d="M43.5996 3432.81L14.8351 3431.63C13.7814 3431.58 12.96 3430.64 13.0015 3429.52C13.043 3428.4 13.9307 3427.52 14.9844 3427.57C15.0674 3427.57 15.1586 3427.59 15.2333 3427.59L43.5996 3432.8V3432.81Z" fill="#FF377A"/>
<path d="M43.5996 3443.31L15.2358 3448.52C14.1988 3448.71 13.2115 3447.97 13.029 3446.86C12.8465 3445.75 13.5434 3444.7 14.5887 3444.51C14.6716 3444.49 14.7629 3444.48 14.8376 3444.48L43.5996 3443.3V3443.31Z" fill="#FF377A"/>
<path d="M46.2234 3454.67L19.1489 3465.03C18.1573 3465.41 17.0313 3464.95 16.6364 3464C16.2415 3463.05 16.7204 3461.97 17.712 3461.59C17.7876 3461.56 17.88 3461.54 17.9557 3461.52L46.2234 3454.67Z" fill="#FF377A"/>
<path d="M50.5859 3464.28L26.4726 3480.57C25.5863 3481.16 24.3907 3480.92 23.8054 3480.03C23.2202 3479.15 23.4543 3477.93 24.3322 3477.34C24.3991 3477.3 24.4827 3477.25 24.5496 3477.22L50.5776 3464.29L50.5859 3464.28Z" fill="#FF377A"/>
<path d="M56.7065 3473.03L37.1706 3493.44C36.4518 3494.18 35.2808 3494.2 34.5459 3493.48C33.811 3492.75 33.7948 3491.56 34.5055 3490.81C34.5621 3490.75 34.6267 3490.7 34.6913 3490.65L56.7146 3473.03L56.7065 3473.03Z" fill="#FF377A"/>
<path d="M65.4443 3480.9L49.8098 3504.51C49.2348 3505.38 48.0341 3505.64 47.1293 3505.09C46.2161 3504.54 45.9455 3503.4 46.5205 3502.54C46.5628 3502.48 46.622 3502.4 46.6727 3502.34L65.4528 3480.9H65.4443Z" fill="#FF377A"/>
<path d="M74.1931 3486.15L64.6384 3512.88C64.2875 3513.86 63.2347 3514.36 62.2856 3514C61.3365 3513.64 60.85 3512.56 61.2009 3511.58C61.2248 3511.51 61.2647 3511.42 61.2966 3511.35L74.201 3486.14L74.1931 3486.15Z" fill="#FF377A"/>
<path d="M84.6942 3489.65L80.6087 3517.75C80.4602 3518.78 79.4945 3519.49 78.4546 3519.34C77.4146 3519.2 76.6966 3518.24 76.8451 3517.21C76.8534 3517.13 76.8782 3517.04 76.8947 3516.96L84.6859 3489.64L84.6942 3489.65Z" fill="#FF377A"/>
<path d="M95.6138 3490.51L97.802 3519.09C97.8781 3520.14 96.9648 3521.03 95.766 3521.11C94.5577 3521.17 93.5207 3520.38 93.4351 3519.34C93.4351 3519.26 93.4351 3519.17 93.4351 3519.1L95.6233 3490.52L95.6138 3490.51Z" fill="#FF377A"/>
<path d="M106.541 3489.64L114.336 3516.97C114.625 3517.96 114.031 3519 113.023 3519.29C112.016 3519.58 110.967 3518.99 110.678 3517.99C110.653 3517.91 110.637 3517.82 110.629 3517.74L106.541 3489.64Z" fill="#FF377A"/>
<path d="M117.036 3486.14L130.799 3511.35C131.301 3512.27 130.935 3513.42 129.982 3513.9C129.03 3514.39 127.839 3514.03 127.337 3513.11C127.294 3513.04 127.26 3512.96 127.235 3512.88L117.044 3486.15L117.036 3486.14Z" fill="#FF377A"/>
<path d="M126.654 3480.91L144.585 3502.34C145.239 3503.13 145.134 3504.3 144.343 3504.95C143.552 3505.6 142.381 3505.5 141.727 3504.71C141.679 3504.64 141.622 3504.57 141.582 3504.51L126.654 3480.9V3480.91Z" fill="#FF377A"/>
<path d="M134.526 3473.03L157.396 3490.64C158.234 3491.29 158.377 3492.47 157.714 3493.29C157.052 3494.11 155.844 3494.25 155.006 3493.6C154.939 3493.55 154.871 3493.48 154.813 3493.44L134.526 3473.03Z" fill="#FF377A"/>
<path d="M140.646 3464.28L166.674 3477.21C167.627 3477.68 168.02 3478.85 167.552 3479.81C167.083 3480.77 165.93 3481.17 164.976 3480.69C164.901 3480.66 164.826 3480.61 164.759 3480.57L140.646 3464.28Z" fill="#FF377A"/>
<path d="M145.021 3454.67L173.284 3461.51C174.317 3461.76 174.948 3462.77 174.687 3463.76C174.427 3464.76 173.376 3465.35 172.335 3465.1C172.251 3465.09 172.167 3465.06 172.091 3465.03L145.021 3454.69V3454.67Z" fill="#FF377A"/>
<path d="M147.637 3443.3L176.402 3444.48C177.455 3444.53 178.277 3445.47 178.235 3446.59C178.194 3447.72 177.306 3448.59 176.252 3448.55C176.169 3448.55 176.078 3448.53 176.004 3448.52L147.637 3443.31V3443.3Z" fill="#FF377A"/>
<path d="M147.637 3432.8L176.001 3427.6C177.038 3427.4 178.025 3428.14 178.208 3429.26C178.39 3430.36 177.693 3431.41 176.648 3431.6C176.565 3431.62 176.474 3431.63 176.399 3431.63L147.637 3432.81V3432.8Z" fill="#FF377A"/>
<path d="M145.021 3422.32L172.095 3411.1C173.087 3410.69 174.213 3411.18 174.608 3412.21C175.002 3413.24 174.523 3414.41 173.532 3414.82C173.456 3414.85 173.364 3414.88 173.288 3414.9L145.021 3422.32Z" fill="#FF377A"/>
<path d="M140.646 3411.83L164.757 3396.4C165.643 3395.83 166.838 3396.07 167.423 3396.91C168.017 3397.75 167.774 3398.9 166.897 3399.46C166.83 3399.5 166.746 3399.54 166.679 3399.58L140.655 3411.82L140.646 3411.83Z" fill="#FF377A"/>
<path d="M134.534 3403.09L154.822 3382.68C155.568 3381.93 156.784 3381.91 157.547 3382.63C158.31 3383.36 158.327 3384.55 157.589 3385.3C157.53 3385.36 157.463 3385.42 157.396 3385.47L134.526 3403.08L134.534 3403.09Z" fill="#FF377A"/>
<path d="M126.662 3396.09L141.586 3371.63C142.135 3370.73 143.281 3370.47 144.144 3371.03C145.016 3371.6 145.274 3372.78 144.726 3373.67C144.685 3373.74 144.629 3373.82 144.58 3373.88L126.654 3396.09H126.662Z" fill="#FF377A"/>
<path d="M117.044 3390.84L127.236 3363.27C127.61 3362.26 128.733 3361.74 129.745 3362.12C130.758 3362.49 131.277 3363.61 130.902 3364.62C130.877 3364.69 130.834 3364.78 130.8 3364.85L117.036 3390.85L117.044 3390.84Z" fill="#FF377A"/>
<path d="M106.541 3387.34L110.626 3358.41C110.775 3357.35 111.741 3356.62 112.781 3356.77C113.821 3356.92 114.539 3357.91 114.39 3358.97C114.382 3359.05 114.357 3359.14 114.341 3359.22L106.549 3387.35L106.541 3387.34Z" fill="#FF377A"/>
<path d="M230.676 3730.96C230.676 3730.96 234.358 3689.15 226.994 3673.68C226.994 3673.68 226.38 3633.82 232.67 3617.71C232.67 3617.71 253.998 3603.44 250.163 3594.23C246.329 3585.02 238.959 3598.37 236.2 3598.84C233.44 3599.3 221.008 3598.37 221.927 3612.65C221.927 3612.65 189.703 3657.99 186.939 3662.72C186.939 3662.72 178.96 3663.18 170.059 3665.54C170.059 3665.54 168.508 3659.61 159.999 3651.78C159.999 3651.78 160.682 3618.17 159.999 3614.03C159.316 3609.88 147.807 3593.31 141.365 3597.45C134.923 3601.59 144.129 3617.24 144.129 3617.24C144.129 3617.24 125.846 3662.45 122.325 3675.53C118.804 3688.6 107.295 3738.82 165.301 3799.8L232.67 3785.28L230.676 3730.96Z" fill="#FF377A"/>
<path d="M306.168 3723.28C306.168 3723.28 309.085 3714.69 310.617 3711.62C312.149 3708.55 322.587 3695.66 314.452 3712.69C314.452 3712.69 323.506 3702.55 324.733 3704.06C325.96 3705.57 318.286 3715.77 318.286 3715.77C318.286 3715.77 329.491 3704 331.332 3705.82C333.173 3707.64 322.587 3719.3 322.587 3719.3C322.587 3719.3 334.405 3713.01 335.633 3715.46C336.86 3717.92 322.435 3726.97 322.435 3726.97C322.435 3726.97 330.109 3730.19 330.261 3731.88C330.414 3733.57 308.933 3731.88 308.933 3731.88L306.168 3723.29V3723.28Z" fill="white"/>
<path d="M265.825 3739.23C265.825 3739.23 293.651 3722.81 307.463 3719.55C307.463 3719.55 314.445 3720.09 311.685 3732.19C311.685 3732.19 279 3755.12 275.779 3758.46L265.83 3739.23H265.825Z" fill="#FF8F9C"/>
<path d="M232.643 3742.56C232.643 3742.56 248.143 3734.15 271.161 3737.38C271.161 3737.38 279.905 3745.68 280.367 3755.8C280.367 3755.8 261.032 3794.52 244.917 3799.79L232.643 3742.56Z" fill="#FF377A"/>
<path d="M170.033 3755.96C170.033 3755.96 178.625 3746.93 182.921 3746.69C187.217 3746.45 192.437 3751.05 197.346 3743.37C202.256 3735.7 204.407 3737.24 206.862 3738.15C209.317 3739.07 207.785 3742.45 226.197 3740.3C244.609 3738.16 240.927 3746.69 240.927 3746.69C240.927 3746.69 245.837 3747.36 248.601 3751.36C251.365 3755.35 254.434 3759.18 253.82 3761.87C253.206 3764.55 249.215 3768.55 255.97 3771.92C262.726 3775.29 260.88 3782.97 258.425 3785.42C255.97 3787.88 255.209 3792.17 260.654 3794.63C266.099 3797.08 267.941 3805.06 262.722 3808.13C257.502 3811.2 258.116 3814.27 259.344 3816.72C260.571 3819.18 261.185 3824.4 255.047 3825.01C248.91 3825.62 249.524 3830.84 248.601 3834.53C247.678 3838.21 242.463 3839.44 236.631 3836.98C230.798 3834.53 230.184 3849.26 226.501 3849.26C222.819 3849.26 217.295 3838.51 208.703 3847.72C200.111 3856.92 198.574 3852.01 196.428 3846.18C194.282 3840.35 189.982 3839.12 185.685 3841.58C181.389 3844.03 176.479 3847.71 176.479 3835.13C176.479 3822.55 170.342 3826.54 167.887 3828.07C165.432 3829.6 160.522 3827.46 162.363 3823.16C164.204 3818.86 162.977 3813.64 156.839 3813.34C150.702 3813.04 145.178 3805.97 153.157 3800.45C161.136 3794.93 160.217 3794.93 155.921 3792.01C151.625 3789.09 146.715 3774.06 163.9 3774.98L170.037 3755.95L170.033 3755.96Z" fill="#FF8F9C"/>
<path d="M210.116 3831.16C232.235 3831.16 250.166 3813.64 250.166 3792.03C250.166 3770.42 232.235 3752.9 210.116 3752.9C187.997 3752.9 170.066 3770.42 170.066 3792.03C170.066 3813.64 187.997 3831.16 210.116 3831.16Z" fill="white"/>
<path d="M230.822 3769.77C230.822 3769.77 253.839 3731.72 259.059 3714.53C264.278 3697.35 275.63 3662.05 248.011 3693.05C220.393 3724.04 220.084 3749.21 219.774 3763.94L230.822 3769.77Z" fill="white"/>
<path d="M174.045 3787.58C174.045 3787.58 157.474 3777.76 143.353 3757.81C129.233 3737.86 119.413 3708.4 123.095 3705.94C126.778 3703.49 181.715 3736.64 181.101 3775.92L174.04 3787.58H174.045Z" fill="white"/>
<path d="M186.953 3706.98C194.196 3706.98 200.067 3701.1 200.067 3693.86C200.067 3686.62 194.196 3680.75 186.953 3680.75C179.71 3680.75 173.838 3686.62 173.838 3693.86C173.838 3701.1 179.71 3706.98 186.953 3706.98Z" fill="white"/>
<path d="M226.454 3771C226.454 3771 234.128 3711.15 261.746 3692.12C261.746 3692.12 247.63 3745.22 226.454 3771Z" fill="#05038B"/>
<path d="M128.792 3719.55C128.792 3719.55 163.47 3744.91 181.578 3786.04C181.578 3786.04 140.143 3760.18 128.792 3719.55Z" fill="#05038B"/>
<path d="M159.966 3669.96C159.966 3669.96 181.553 3658.91 196.601 3665.05" stroke="white" stroke-width="2" stroke-linecap="round" stroke-linejoin="round"/>
<path d="M144.468 3649.77C144.468 3649.77 151.219 3654.38 157.357 3651.92" stroke="white" stroke-width="2" stroke-linecap="round" stroke-linejoin="round"/>
<path d="M141.474 3598.22C141.474 3598.22 139.324 3601.98 143.468 3607.35C147.612 3612.72 152.905 3616.94 158.428 3613.57" stroke="white" stroke-width="2" stroke-linecap="round" stroke-linejoin="round"/>
<path d="M224.159 3606.49C224.159 3606.49 237.048 3607.83 240.527 3604.56C244.007 3601.28 248.958 3595.2 247.892 3593.1" stroke="white" stroke-width="2" stroke-linecap="round" stroke-linejoin="round"/>
<path d="M109.132 215.982C110.314 215.982 111.272 215.025 111.272 213.843C111.272 212.662 110.314 211.704 109.132 211.704C107.951 211.704 106.993 212.662 106.993 213.843C106.993 215.025 107.951 215.982 109.132 215.982Z" fill="#FF8F9C"/>
<path d="M107.74 222.52C108.922 222.52 109.879 221.562 109.879 220.38C109.879 219.199 108.922 218.241 107.74 218.241C106.559 218.241 105.601 219.199 105.601 220.38C105.601 221.562 106.559 222.52 107.74 222.52Z" fill="#FF8F9C"/>
<path d="M106.997 229.986C108.179 229.986 109.136 229.028 109.136 227.847C109.136 226.665 108.179 225.708 106.997 225.708C105.816 225.708 104.858 226.665 104.858 227.847C104.858 229.028 105.816 229.986 106.997 229.986Z" fill="#FF8F9C"/>
<path d="M109.132 237.459C110.314 237.459 111.272 236.501 111.272 235.32C111.272 234.138 110.314 233.181 109.132 233.181C107.951 233.181 106.993 234.138 106.993 235.32C106.993 236.501 107.951 237.459 109.132 237.459Z" fill="#FF8F9C"/>
<path d="M113.409 243.811C114.591 243.811 115.548 242.853 115.548 241.671C115.548 240.49 114.591 239.532 113.409 239.532C112.228 239.532 111.27 240.49 111.27 241.671C111.27 242.853 112.228 243.811 113.409 243.811Z" fill="#FF8F9C"/>
<path d="M118.91 247.263C120.091 247.263 121.049 246.305 121.049 245.124C121.049 243.943 120.091 242.985 118.91 242.985C117.728 242.985 116.771 243.943 116.771 245.124C116.771 246.305 117.728 247.263 118.91 247.263Z" fill="#FF8F9C"/>
<path d="M124.984 249.392C126.165 249.392 127.123 248.434 127.123 247.252C127.123 246.071 126.165 245.113 124.984 245.113C123.802 245.113 122.845 246.071 122.845 247.252C122.845 248.434 123.802 249.392 124.984 249.392Z" fill="#FF8F9C"/>
<path d="M131.133 252.753C132.314 252.753 133.272 251.795 133.272 250.614C133.272 249.433 132.314 248.475 131.133 248.475C129.951 248.475 128.994 249.433 128.994 250.614C128.994 251.795 129.951 252.753 131.133 252.753Z" fill="#FF8F9C"/>
<path d="M135.802 254.159C136.983 254.159 137.941 253.201 137.941 252.02C137.941 250.838 136.983 249.88 135.802 249.88C134.62 249.88 133.663 250.838 133.663 252.02C133.663 253.201 134.62 254.159 135.802 254.159Z" fill="#FF8F9C"/>
<path d="M141.126 255.834C142.307 255.834 143.265 254.877 143.265 253.695C143.265 252.514 142.307 251.556 141.126 251.556C139.945 251.556 138.987 252.514 138.987 253.695C138.987 254.877 139.945 255.834 141.126 255.834Z" fill="#FF8F9C"/>
<path d="M146.815 257.973C147.997 257.973 148.955 257.015 148.955 255.834C148.955 254.652 147.997 253.695 146.815 253.695C145.634 253.695 144.676 254.652 144.676 255.834C144.676 257.015 145.634 257.973 146.815 257.973Z" fill="#FF8F9C"/>
<path d="M151.673 260.679C152.855 260.679 153.813 259.721 153.813 258.54C153.813 257.358 152.855 256.401 151.673 256.401C150.492 256.401 149.534 257.358 149.534 258.54C149.534 259.721 150.492 260.679 151.673 260.679Z" fill="#FF8F9C"/>
<path d="M155.126 264.037C156.308 264.037 157.266 263.079 157.266 261.898C157.266 260.717 156.308 259.759 155.126 259.759C153.945 259.759 152.987 260.717 152.987 261.898C152.987 263.079 153.945 264.037 155.126 264.037Z" fill="#FF8F9C"/>
<path d="M158.484 268.308C159.666 268.308 160.624 267.35 160.624 266.168C160.624 264.987 159.666 264.029 158.484 264.029C157.303 264.029 156.345 264.987 156.345 266.168C156.345 267.35 157.303 268.308 158.484 268.308Z" fill="#FF8F9C"/>
<path d="M159.403 273.237C160.585 273.237 161.543 272.279 161.543 271.097C161.543 269.916 160.585 268.958 159.403 268.958C158.222 268.958 157.264 269.916 157.264 271.097C157.264 272.279 158.222 273.237 159.403 273.237Z" fill="#FF8F9C"/>
<path d="M162.174 278.159C163.355 278.159 164.313 277.201 164.313 276.02C164.313 274.838 163.355 273.881 162.174 273.881C160.992 273.881 160.035 274.838 160.035 276.02C160.035 277.201 160.992 278.159 162.174 278.159Z" fill="#FF8F9C"/>
<path d="M167.863 278.159C169.044 278.159 170.002 277.201 170.002 276.02C170.002 274.838 169.044 273.881 167.863 273.881C166.681 273.881 165.724 274.838 165.724 276.02C165.724 277.201 166.681 278.159 167.863 278.159Z" fill="#FF8F9C"/>
<path d="M166.451 271.612C167.632 271.612 168.59 270.654 168.59 269.472C168.59 268.291 167.632 267.333 166.451 267.333C165.269 267.333 164.312 268.291 164.312 269.472C164.312 270.654 165.269 271.612 166.451 271.612Z" fill="#FF8F9C"/>
<path d="M163.667 266.848C164.848 266.848 165.806 265.89 165.806 264.709C165.806 263.527 164.848 262.57 163.667 262.57C162.486 262.57 161.528 263.527 161.528 264.709C161.528 265.89 162.486 266.848 163.667 266.848Z" fill="#FF8F9C"/>
<path d="M160.626 262.095C161.808 262.095 162.766 261.137 162.766 259.955C162.766 258.774 161.808 257.816 160.626 257.816C159.445 257.816 158.487 258.774 158.487 259.955C158.487 261.137 159.445 262.095 160.626 262.095Z" fill="#FF8F9C"/>
<path d="M156.349 257.973C157.531 257.973 158.488 257.015 158.488 255.834C158.488 254.652 157.531 253.695 156.349 253.695C155.168 253.695 154.21 254.652 154.21 255.834C154.21 257.015 155.168 257.973 156.349 257.973Z" fill="#FF8F9C"/>
<path d="M152.085 254.159C153.267 254.159 154.225 253.201 154.225 252.02C154.225 250.838 153.267 249.88 152.085 249.88C150.904 249.88 149.946 250.838 149.946 252.02C149.946 253.201 150.904 254.159 152.085 254.159Z" fill="#FF8F9C"/>
<path d="M147.403 250.621C148.585 250.621 149.543 249.664 149.543 248.482C149.543 247.301 148.585 246.343 147.403 246.343C146.222 246.343 145.264 247.301 145.264 248.482C145.264 249.664 146.222 250.621 147.403 250.621Z" fill="#FF8F9C"/>
<path d="M143.261 246.351C144.443 246.351 145.4 245.393 145.4 244.212C145.4 243.03 144.443 242.073 143.261 242.073C142.08 242.073 141.122 243.03 141.122 244.212C141.122 245.393 142.08 246.351 143.261 246.351Z" fill="#FF8F9C"/>
<path d="M140.072 241.668C141.253 241.668 142.211 240.711 142.211 239.529C142.211 238.348 141.253 237.39 140.072 237.39C138.89 237.39 137.933 238.348 137.933 239.529C137.933 240.711 138.89 241.668 140.072 241.668Z" fill="#FF8F9C"/>
<path d="M137.065 236.99C138.246 236.99 139.204 236.032 139.204 234.85C139.204 233.669 138.246 232.711 137.065 232.711C135.884 232.711 134.926 233.669 134.926 234.85C134.926 236.032 135.884 236.99 137.065 236.99Z" fill="#FF8F9C"/>
<path d="M131.538 236.303C132.72 236.303 133.677 235.346 133.677 234.164C133.677 232.983 132.72 232.025 131.538 232.025C130.357 232.025 129.399 232.983 129.399 234.164C129.399 235.346 130.357 236.303 131.538 236.303Z" fill="#FF8F9C"/>
<path d="M125.781 234.854C126.963 234.854 127.92 233.897 127.92 232.715C127.92 231.534 126.963 230.576 125.781 230.576C124.6 230.576 123.642 231.534 123.642 232.715C123.642 233.897 124.6 234.854 125.781 234.854Z" fill="#FF8F9C"/>
<path d="M122.849 229.053C124.03 229.053 124.988 228.096 124.988 226.914C124.988 225.733 124.03 224.775 122.849 224.775C121.667 224.775 120.709 225.733 120.709 226.914C120.709 228.096 121.667 229.053 122.849 229.053Z" fill="#FF8F9C"/>
<path d="M125.781 223.216C126.963 223.216 127.92 222.258 127.92 221.076C127.92 219.895 126.963 218.937 125.781 218.937C124.6 218.937 123.642 219.895 123.642 221.076C123.642 222.258 124.6 223.216 125.781 223.216Z" fill="#FF8F9C"/>
<path d="M129.396 218.121C130.577 218.121 131.535 217.163 131.535 215.982C131.535 214.8 130.577 213.843 129.396 213.843C128.215 213.843 127.257 214.8 127.257 215.982C127.257 217.163 128.215 218.121 129.396 218.121Z" fill="#FF8F9C"/>
<path d="M130.7 211.712C131.882 211.712 132.839 210.754 132.839 209.573C132.839 208.391 131.882 207.434 130.7 207.434C129.519 207.434 128.561 208.391 128.561 209.573C128.561 210.754 129.519 211.712 130.7 211.712Z" fill="#FF8F9C"/>
<path d="M129.004 206.584C130.186 206.584 131.144 205.626 131.144 204.444C131.144 203.263 130.186 202.305 129.004 202.305C127.823 202.305 126.865 203.263 126.865 204.444C126.865 205.626 127.823 206.584 129.004 206.584Z" fill="#FF8F9C"/>
<path d="M125.332 203.921C130.983 198.43 134.495 190.749 134.495 182.243C134.495 165.542 120.952 152 104.243 152C87.5341 152 74 165.542 74 182.243C74 198.944 87.5425 212.486 104.243 212.486C105.987 212.486 107.696 212.326 109.355 212.049L112.429 217.599C112.918 218.483 113.878 219.005 114.889 218.929C118.148 218.693 125.138 217.287 127.37 209.825C127.564 209.193 127.521 208.511 127.235 207.913L125.323 203.921H125.332Z" fill="#FF377A"/>
<path d="M103.163 210.853C117.433 210.853 129.001 199.285 129.001 185.014C129.001 170.744 117.433 159.176 103.163 159.176C88.8925 159.176 77.3242 170.744 77.3242 185.014C77.3242 199.285 88.8925 210.853 103.163 210.853Z" fill="#FEF8F1"/>
<path d="M98.0884 166.561L101.87 187.397L114.048 197.234" stroke="#FF377A" stroke-width="2" stroke-miterlimit="10" stroke-linecap="round"/>
<path d="M101.87 189.781C103.187 189.781 104.254 188.714 104.254 187.398C104.254 186.081 103.187 185.014 101.87 185.014C100.554 185.014 99.4868 186.081 99.4868 187.398C99.4868 188.714 100.554 189.781 101.87 189.781Z" fill="#05038B"/>
<path d="M112.129 211.329L115.026 217.308" stroke="#B72858" stroke-width="2" stroke-linecap="round" stroke-linejoin="round"/>
<path d="M115.332 210.863L118.22 216.834" stroke="#B72858" stroke-width="2" stroke-linecap="round" stroke-linejoin="round"/>
<path d="M118.528 209.917L121.425 215.896" stroke="#B72858" stroke-width="2" stroke-linecap="round" stroke-linejoin="round"/>
<path d="M121.048 207.44L123.937 213.411" stroke="#B72858" stroke-width="2" stroke-linecap="round" stroke-linejoin="round"/>
<path d="M122.879 204.45L125.777 210.421" stroke="#B72858" stroke-width="2" stroke-linecap="round" stroke-linejoin="round"/>
<path d="M701.324 3468.07C701.324 3468.07 715.186 3472.93 718.143 3476.98L727.017 3471.2C727.017 3471.2 716.409 3462.43 710.055 3461.3L701.333 3468.07L701.324 3468.07Z" fill="#FF377A"/>
<path d="M730.748 3479.86C730.748 3479.86 722.919 3485.19 722.037 3487.44C722.037 3487.44 728.189 3493.34 737.038 3496.67C737.038 3496.67 742.195 3496.47 744.542 3494.96C744.542 3494.96 741.408 3487.36 730.739 3479.86L730.748 3479.86Z" fill="#FF377A"/>
<path d="M747.965 3526.29C747.965 3526.29 740.775 3541.5 732.879 3546.33L745.017 3551.85C745.017 3551.85 752.051 3545.58 753.228 3538.1L747.967 3526.28L747.965 3526.29Z" fill="white"/>
<path d="M725.007 3555.35C725.007 3555.35 740.398 3545.28 744.602 3538.74L750.942 3550.83C750.942 3550.83 738.075 3563.76 731.696 3567.26L725.016 3555.35L725.007 3555.35Z" fill="white"/>
<path d="M679.917 3570.38C679.917 3570.38 676.219 3579.48 655.87 3587.71L672.552 3597.4C672.552 3597.4 693.207 3589.23 696.674 3573.36L679.917 3570.38Z" fill="#FF377A"/>
<path d="M639.962 3607.92C639.962 3607.92 625.134 3627.38 625.571 3630.33C625.571 3630.33 639.062 3628.25 653.247 3632.21L657.606 3607.7C657.606 3607.7 646.642 3605.43 639.962 3607.92Z" fill="white"/>
<path d="M609.31 3600.23C609.31 3600.23 607.827 3614.85 610.327 3618.82C610.327 3618.82 586.25 3627.34 565.969 3621.65C565.969 3621.65 562.046 3608.64 565.892 3595.07C565.892 3595.07 598.088 3603.04 609.31 3600.23Z" fill="#FF377A"/>
<path d="M498.515 3626.61C498.515 3626.61 478.819 3634.8 446.964 3628.49L439 3662.45C439 3662.45 480.135 3660.64 491.117 3655.55L498.506 3626.61L498.515 3626.61Z" fill="white"/>
<path d="M736.439 3546.96C738.683 3545.25 743.533 3541.21 744.981 3538.7L747.365 3544.55" stroke="#3645FF" stroke-linecap="round" stroke-linejoin="round"/>
<path d="M642.664 3611.69L642.355 3611.44C641.258 3610.55 640.534 3609.96 640.571 3609.29C640.602 3608.75 641.163 3608.35 641.847 3608.39C642.233 3608.41 642.596 3608.58 642.826 3608.81C643.08 3608.6 643.694 3608.35 644.081 3608.37C644.765 3608.41 645.278 3608.87 645.247 3609.41C645.21 3610.08 644.424 3610.58 643.234 3611.34L642.664 3611.69Z" fill="#FF377A"/>
<path d="M646.926 3625.23L646.398 3624.73C644.521 3622.97 643.282 3621.81 643.437 3620.6C643.564 3619.61 644.636 3618.97 645.873 3619.13C646.572 3619.22 647.21 3619.56 647.596 3620.02C648.086 3619.67 649.235 3619.3 649.934 3619.39C651.172 3619.55 652.045 3620.44 651.918 3621.43C651.762 3622.64 650.269 3623.45 648.007 3624.68L646.926 3625.23Z" fill="#FF377A"/>
<path d="M478.768 3642.28C474.21 3639.7 471.92 3637.18 467.195 3636.82C465.305 3636.68 463.303 3638.03 463.191 3639.51C463.136 3640.25 463.08 3641 463.969 3641.81C463.969 3641.81 462.061 3641.91 459.355 3639.97L459.021 3644.43C461.967 3643.15 463.858 3643.3 463.858 3643.3C462.857 3643.97 462.801 3644.71 462.745 3645.45C462.634 3646.94 464.412 3648.57 466.302 3648.71C471.027 3649.06 473.875 3644.16 478.768 3642.28Z" fill="#3645FF"/>
<path d="M742.971 3551.83C741.329 3552.19 740.279 3552.1 739.004 3552.99C738.494 3553.34 738.229 3554.05 738.473 3554.4C738.595 3554.58 738.718 3554.75 739.095 3554.75C739.095 3554.75 738.624 3555.16 737.575 3555.29L738.309 3556.34C738.83 3555.46 739.34 3555.1 739.34 3555.1C739.207 3555.46 739.329 3555.63 739.452 3555.81C739.696 3556.16 740.451 3556.16 740.961 3555.8C742.236 3554.92 742.063 3553.25 742.971 3551.83Z" fill="#3645FF"/>
<path d="M752.137 3538.51C751.221 3538.96 750.588 3539.07 749.967 3539.78C749.719 3540.07 749.668 3540.52 749.865 3540.69C749.964 3540.78 750.062 3540.87 750.285 3540.81C750.285 3540.81 750.068 3541.12 749.467 3541.35L750.058 3541.86C750.234 3541.27 750.482 3540.98 750.482 3540.98C750.456 3541.21 750.555 3541.29 750.653 3541.38C750.85 3541.55 751.296 3541.44 751.544 3541.15C752.164 3540.44 751.812 3539.48 752.137 3538.51Z" fill="#3645FF"/>
<path d="M748.987 3532.95C747.814 3533.53 747.002 3533.67 746.207 3534.58C745.889 3534.95 745.823 3535.53 746.076 3535.75C746.202 3535.86 746.328 3535.97 746.614 3535.9C746.614 3535.9 746.336 3536.3 745.566 3536.59L746.323 3537.25C746.548 3536.48 746.866 3536.12 746.866 3536.12C746.833 3536.41 746.959 3536.52 747.086 3536.63C747.338 3536.85 747.909 3536.7 748.227 3536.34C749.022 3535.42 748.571 3534.19 748.987 3532.95Z" fill="#3645FF"/>
</g>
<path d="M651.385 -26.5031C663.241 -26.5031 674.909 -35.4903 679.261 -39.9839L704.667 -6.2819C699.609 -3.44898 686.389 3.62355 673.968 9.25032C658.442 16.2838 649.973 12.767 641.152 11.8879C632.33 11.0087 624.567 13.3532 619.98 15.1115C616.31 16.5182 604.101 23.5126 598.456 26.834L573.755 -7.7472C581.871 -12.0454 600.714 -21.5211 611.159 -25.0378C624.215 -29.4337 636.565 -26.5031 651.385 -26.5031Z" fill="#8B62F6"/>
<path d="M776.301 57.3212L723.019 90.4371L701.847 61.7171L751.954 30.3596L776.301 57.3212Z" fill="#F1959E"/>
<path d="M584.338 49.7018L580.104 42.9614L529.998 62.3034L534.232 69.3369L584.338 49.7018Z" fill="#EB4A7A"/>
<path d="M671.15 0.172668L779.503 -55.4961L775.974 -63.4087L665.504 -6.56773L671.15 0.172668Z" fill="#EB4A7A"/>
</g>
<defs>
<linearGradient id="paint0_linear_371_2766" x1="375" y1="0" x2="375" y2="6393" gradientUnits="userSpaceOnUse">
<stop stop-color="#05038B"/>
<stop offset="1" stop-color="#5939A3"/>
</linearGradient>
<clipPath id="clip0_371_2766">
<rect width="750" height="3772" fill="white"/>
</clipPath>
<clipPath id="clip1_371_2766">
<rect width="750" height="6393" fill="white"/>
</clipPath>
</defs>
</svg>
