<svg width="750" height="2446" viewBox="0 0 750 2446" fill="none" xmlns="http://www.w3.org/2000/svg">
<g clip-path="url(#clip0_371_750)">
<rect width="750" height="2446" fill="white"/>
<rect width="750" height="2446" fill="black"/>
<path d="M651.854 116.263C652.105 116.435 652.3 116.678 652.41 116.961L653.76 120.381C653.836 120.575 653.951 120.751 654.098 120.899C654.246 121.046 654.422 121.162 654.616 121.238L658.039 122.589C658.323 122.701 658.566 122.896 658.737 123.147C658.908 123.399 659 123.696 659 124C659 124.304 658.908 124.601 658.737 124.853C658.566 125.104 658.323 125.299 658.039 125.412L654.616 126.762C654.422 126.838 654.246 126.953 654.099 127.1C653.951 127.247 653.836 127.422 653.76 127.616L652.41 131.039C651.908 132.32 650.095 132.32 649.586 131.039L648.237 127.619C648.162 127.425 648.047 127.25 647.9 127.103C647.753 126.956 647.578 126.841 647.384 126.765L643.961 125.415C643.677 125.302 643.434 125.107 643.263 124.856C643.092 124.604 643 124.307 643 124.003C643 123.699 643.092 123.402 643.263 123.15C643.434 122.899 643.677 122.704 643.961 122.592L647.384 121.241C647.577 121.164 647.753 121.049 647.9 120.901C648.047 120.754 648.162 120.578 648.237 120.385L649.586 116.961C649.697 116.678 649.891 116.435 650.143 116.263C650.395 116.092 650.693 116 650.998 116C651.304 116 651.602 116.092 651.854 116.263Z" fill="white"/>
<path d="M177.174 20.3621C177.52 20.5979 177.787 20.9325 177.939 21.3219L179.794 26.0245C179.899 26.291 180.057 26.5331 180.26 26.7357C180.463 26.9384 180.705 27.0972 180.972 27.2023L185.679 29.0593C186.069 29.214 186.403 29.4816 186.639 29.8276C186.874 30.1736 187 30.582 187 31.0001C187 31.4181 186.874 31.8265 186.639 32.1725C186.403 32.5185 186.069 32.7862 185.679 32.9409L180.972 34.7978C180.706 34.9024 180.463 35.0606 180.261 35.2625C180.058 35.4644 179.899 35.7057 179.794 35.9713L177.939 40.6782C177.249 42.4406 174.755 42.4406 174.056 40.6782L172.201 35.9756C172.098 35.7098 171.94 35.4684 171.738 35.2664C171.536 35.0644 171.294 34.9063 171.028 34.8021L166.321 32.9452C165.931 32.7905 165.597 32.5228 165.361 32.1768C165.126 31.8308 165 31.4224 165 31.0044C165 30.5863 165.126 30.1779 165.361 29.8319C165.597 29.4859 165.931 29.2183 166.321 29.0636L171.028 27.2066C171.294 27.101 171.536 26.942 171.737 26.7393C171.939 26.5367 172.097 26.2949 172.201 26.0288L174.056 21.3219C174.209 20.9325 174.476 20.5979 174.822 20.3621C175.168 20.1262 175.578 20 175.998 20C176.417 20 176.827 20.1262 177.174 20.3621Z" fill="white"/>
<path d="M620.027 150.625C620.625 151.033 621.086 151.611 621.35 152.283L624.554 160.406C624.735 160.866 625.008 161.284 625.358 161.634C625.708 161.984 626.127 162.259 626.588 162.44L634.719 165.648C635.392 165.915 635.969 166.377 636.376 166.975C636.783 167.573 637 168.278 637 169C637 169.722 636.783 170.428 636.376 171.025C635.969 171.623 635.392 172.085 634.719 172.352L626.588 175.56C626.128 175.741 625.71 176.014 625.36 176.362C625.01 176.711 624.735 177.128 624.554 177.587L621.35 185.717C620.157 188.761 615.85 188.761 614.643 185.717L611.439 177.594C611.26 177.135 610.987 176.718 610.638 176.369C610.289 176.02 609.872 175.747 609.412 175.567L601.281 172.36C600.608 172.093 600.031 171.63 599.624 171.033C599.217 170.435 599 169.73 599 169.008C599 168.285 599.217 167.58 599.624 166.982C600.031 166.385 600.608 165.922 601.281 165.655L609.412 162.448C609.871 162.265 610.289 161.991 610.637 161.641C610.986 161.291 611.259 160.873 611.439 160.413L614.643 152.283C614.906 151.611 615.367 151.033 615.965 150.625C616.564 150.218 617.272 150 617.996 150C618.721 150 619.429 150.218 620.027 150.625Z" fill="white"/>
<path d="M108.854 4.26331C109.105 4.43485 109.3 4.67816 109.41 4.96141L110.76 8.38147C110.836 8.57525 110.951 8.75134 111.098 8.89872C111.246 9.0461 111.422 9.16162 111.616 9.23805L115.039 10.5886C115.323 10.7011 115.566 10.8957 115.737 11.1474C115.908 11.399 116 11.696 116 12.0001C116 12.3041 115.908 12.6011 115.737 12.8527C115.566 13.1044 115.323 13.299 115.039 13.4115L111.616 14.762C111.422 14.8381 111.246 14.9532 111.099 15.1C110.951 15.2468 110.836 15.4223 110.76 15.6155L109.41 19.0387C108.908 20.3204 107.095 20.3204 106.586 19.0387L105.237 15.6186C105.162 15.4253 105.047 15.2497 104.9 15.1028C104.753 14.9559 104.578 14.841 104.384 14.7652L100.961 13.4147C100.677 13.3022 100.434 13.1075 100.263 12.8559C100.092 12.6042 100 12.3072 100 12.0032C100 11.6992 100.092 11.4021 100.263 11.1505C100.434 10.8989 100.677 10.7042 100.961 10.5917L104.384 9.24118C104.577 9.16439 104.753 9.04871 104.9 8.90135C105.047 8.75398 105.162 8.57808 105.237 8.3846L106.586 4.96141C106.697 4.67816 106.891 4.43485 107.143 4.26331C107.395 4.09177 107.693 4 107.998 4C108.304 4 108.602 4.09177 108.854 4.26331Z" fill="white"/>
<path d="M122.024 124.937C122.024 124.937 101.358 153.617 110.678 160.476C119.999 167.336 161.825 132.49 172.177 121.074C182.53 109.658 207.255 81.557 198.321 71.8444C189.387 62.1318 153.298 88.8199 153.298 88.8199L122.016 124.968L122.024 124.937Z" fill="white"/>
<path d="M170.416 77.8283C162.503 101.707 137.137 118.606 119.421 127.844C112.697 119.574 99.5831 105.258 86.521 101.218C86.521 101.218 99.5169 61.0232 147.427 41.0533C147.427 41.0533 160.244 67.7267 170.416 77.8283Z" fill="white"/>
<path d="M161.588 101.7C161.588 101.7 142.905 91.0565 136.974 89.3189L146.143 69.1673C146.143 69.1673 162.023 75.5169 169.645 86.2227L161.569 101.711L161.588 101.7Z" fill="#FF377A"/>
<path d="M176.755 81.2224C176.755 81.2224 163.784 115.899 123.82 133.179C123.82 133.179 122.148 130.801 119.283 127.334C137.05 118.032 162.536 101.111 170.735 77.5743C172.911 79.7036 174.958 81.0473 176.755 81.2224Z" fill="#05038B"/>
<path d="M93.4917 99.2852C107.751 92.4745 138.224 72.4948 146.039 47.0614" stroke="#05038B" stroke-width="2" stroke-linecap="round"/>
<path d="M651.385 2421.5C663.241 2421.5 674.909 2412.51 679.261 2408.02L704.667 2441.72C699.609 2444.55 686.389 2451.62 673.968 2457.25C658.442 2464.28 649.973 2460.77 641.152 2459.89C632.33 2459.01 624.567 2461.35 619.98 2463.11C616.31 2464.52 604.101 2471.51 598.456 2474.83L573.755 2440.25C581.871 2435.95 600.714 2426.48 611.159 2422.96C624.215 2418.57 636.565 2421.5 651.385 2421.5Z" fill="#8B62F6"/>
<path d="M663.03 2425.9L712.078 2396.89L689.495 2367L643.976 2396.89L663.03 2425.9Z" fill="#F1959E"/>
<path d="M671.15 2448.17L779.503 2392.5L775.974 2384.59L665.504 2441.43L671.15 2448.17Z" fill="#EB4A7A"/>
<path d="M714.899 2359.96L789 2323.91L785.471 2316L709.253 2353.22L714.899 2359.96Z" fill="#EB4A7A"/>
</g>
<defs>
<clipPath id="clip0_371_750">
<rect width="750" height="2446" fill="white"/>
</clipPath>
</defs>
</svg>
