<svg width="750" height="2230" viewBox="0 0 750 2230" fill="none" xmlns="http://www.w3.org/2000/svg">
<g clip-path="url(#clip0_36_3340)">
<rect width="750" height="2230" fill="white"/>
<g clip-path="url(#clip1_36_3340)">
<rect width="750" height="3934" transform="translate(0.000854492)" fill="black"/>
<path d="M695.078 1901.29C695.078 1901.29 709.689 1902.82 713.502 1906.07L720.797 1898.39C720.797 1898.39 708.449 1892.31 702.006 1892.68L695.087 1901.29L695.078 1901.29Z" fill="#FF377A"/>
<path d="M726.432 1905.96C726.432 1905.96 720.047 1912.95 719.71 1915.35C719.71 1915.35 727.058 1919.66 736.439 1920.86C736.439 1920.86 741.41 1919.47 743.345 1917.46C743.345 1917.46 738.537 1910.79 726.423 1905.96L726.432 1905.96Z" fill="#FF377A"/>
<path d="M753.92 1947.14C753.92 1947.14 750.443 1963.61 743.879 1970.13L756.964 1972.69C756.964 1972.69 762.358 1964.97 761.772 1957.42L753.919 1947.14L753.92 1947.14Z" fill="white"/>
<path d="M738.306 1980.73C738.306 1980.73 750.951 1967.37 753.53 1960.04L762.494 1970.34C762.494 1970.34 752.965 1985.88 747.569 1990.77L738.315 1980.73L738.306 1980.73Z" fill="white"/>
<path d="M697.915 2005.78C697.915 2005.78 696.423 2015.49 678.529 2028.21L696.999 2033.77C696.999 2033.77 715.206 2021.05 714.908 2004.8L697.915 2005.78Z" fill="#FF377A"/>
<path d="M667.727 2051.55C667.727 2051.55 657.802 2073.9 658.91 2076.68C658.91 2076.68 671.553 2071.53 686.271 2072.1L684.842 2047.25C684.842 2047.25 673.65 2047.58 667.727 2051.55Z" fill="white"/>
<path d="M636.129 2051.16C636.129 2051.16 638.067 2065.72 641.417 2069C641.417 2069 619.963 2082.86 598.917 2082.02C598.917 2082.02 592.09 2070.26 592.695 2056.18C592.695 2056.18 625.86 2056.48 636.129 2051.16Z" fill="#FF377A"/>
<path d="M534.44 2102.45C534.44 2102.45 517.171 2114.96 484.72 2116.19L484.826 2151.07C484.826 2151.07 524.427 2139.8 533.935 2132.31L534.43 2102.45L534.44 2102.45Z" fill="white"/>
<path d="M747.487 1969.92C749.276 1967.74 753.061 1962.69 753.887 1959.91L757.56 1965.05" stroke="#3645FF" stroke-linecap="round" stroke-linejoin="round"/>
<path d="M671.227 2054.58L670.869 2054.41C669.596 2053.8 668.755 2053.39 668.637 2052.74C668.541 2052.2 668.995 2051.69 669.67 2051.56C670.051 2051.5 670.441 2051.57 670.72 2051.75C670.919 2051.49 671.458 2051.1 671.839 2051.03C672.513 2050.91 673.118 2051.24 673.215 2051.77C673.332 2052.43 672.684 2053.1 671.703 2054.12L671.227 2054.58Z" fill="#FF377A"/>
<path d="M678.505 2066.77L677.876 2066.41C675.643 2065.13 674.168 2064.28 674.041 2063.08C673.936 2062.09 674.829 2061.21 676.07 2061.08C676.771 2061 677.472 2061.19 677.954 2061.55C678.35 2061.1 679.38 2060.47 680.081 2060.4C681.322 2060.26 682.379 2060.93 682.484 2061.92C682.612 2063.13 681.346 2064.27 679.43 2065.98L678.505 2066.77Z" fill="#FF377A"/>
<path d="M518.852 2122.26C513.82 2120.8 511.009 2118.88 506.33 2119.62C504.459 2119.92 502.822 2121.69 503.057 2123.17C503.175 2123.9 503.292 2124.64 504.346 2125.22C504.346 2125.22 502.512 2125.76 499.431 2124.5L500.137 2128.91C502.709 2126.99 504.581 2126.69 504.581 2126.69C503.763 2127.58 503.88 2128.31 503.998 2129.05C504.233 2130.52 506.34 2131.69 508.211 2131.39C512.89 2130.65 514.526 2125.21 518.852 2122.26Z" fill="#3645FF"/>
<path d="M754.97 1973.15C753.456 1973.88 752.413 1974.04 751.378 1975.19C750.964 1975.66 750.869 1976.4 751.188 1976.69C751.348 1976.83 751.507 1976.98 751.874 1976.89C751.874 1976.89 751.511 1977.4 750.519 1977.76L751.477 1978.62C751.779 1977.64 752.194 1977.17 752.194 1977.17C752.146 1977.55 752.306 1977.69 752.466 1977.83C752.785 1978.12 753.519 1977.94 753.933 1977.48C754.968 1976.32 754.414 1974.74 754.97 1973.15Z" fill="#3645FF"/>
<path d="M160.158 2159.74C160.234 2163.34 159.923 2167.08 159.365 2170.84C157.199 2185.15 151.291 2199.56 148.096 2206.46C147.732 2207.26 147.399 2207.95 147.11 2208.53H115.491C115.491 2208.53 113.325 2203.7 110.88 2196.46C108.039 2188.08 104.822 2176.45 104.136 2165.39C103.729 2158.9 104.2 2152.6 106.12 2147.25C108.607 2140.36 113.507 2135.07 122.085 2132.98C124.69 2132.34 127.628 2132 130.941 2132C142.038 2132 149.286 2135.18 153.8 2140.28C158.25 2145.32 160.019 2152.21 160.158 2159.74Z" fill="#2362AF"/>
<path d="M122.387 2135.68C122.387 2142.44 116.908 2147.92 110.154 2147.92C108.749 2147.92 107.387 2147.69 106.122 2147.25C108.61 2140.36 113.51 2135.07 122.087 2132.98C122.28 2133.84 122.387 2134.75 122.387 2135.68Z" fill="#3EBBC3"/>
<path d="M160.163 2159.74C154.963 2158.33 151.125 2153.57 151.125 2147.92C151.125 2145.03 152.122 2142.38 153.805 2140.28C158.255 2145.32 160.024 2152.21 160.163 2159.74Z" fill="#3EBBC3"/>
<path d="M111.607 2196.3C111.371 2196.37 111.125 2196.42 110.889 2196.46C108.047 2188.08 104.831 2176.46 104.145 2165.39C110.331 2164.45 116.85 2169.68 119.091 2177.66C121.471 2186.12 118.115 2194.47 111.607 2196.3Z" fill="#3EBBC3"/>
<path d="M146.555 2159.68C148.75 2151.47 145.062 2143.35 138.318 2141.55C131.573 2139.74 124.326 2144.94 122.131 2153.15C119.936 2161.36 123.624 2169.47 130.369 2171.28C137.113 2173.08 144.36 2167.89 146.555 2159.68Z" fill="#3EBBC3"/>
<path d="M159.362 2170.84C157.196 2185.15 151.288 2199.56 148.093 2206.47C147.975 2206.45 147.846 2206.41 147.728 2206.38C139.119 2204.08 134.294 2194.09 136.974 2184.1C139.644 2174.1 148.801 2167.86 157.421 2170.16C158.097 2170.34 158.74 2170.57 159.362 2170.84Z" fill="#3EBBC3"/>
<path d="M119.593 2229.69H144.554L141.938 2245.86H123.164L119.593 2229.69Z" fill="#60B860"/>
<path d="M210.028 2094.63C210.626 2095.03 211.087 2095.61 211.351 2096.28L214.555 2104.41C214.735 2104.87 215.009 2105.28 215.359 2105.63C215.709 2105.98 216.128 2106.26 216.589 2106.44L224.719 2109.65C225.393 2109.92 225.97 2110.38 226.377 2110.97C226.783 2111.57 227.001 2112.28 227.001 2113C227.001 2113.72 226.783 2114.43 226.377 2115.03C225.97 2115.62 225.393 2116.09 224.719 2116.35L216.589 2119.56C216.129 2119.74 215.71 2120.01 215.36 2120.36C215.01 2120.71 214.736 2121.13 214.555 2121.59L211.351 2129.72C210.158 2132.76 205.851 2132.76 204.644 2129.72L201.439 2121.59C201.26 2121.14 200.988 2120.72 200.639 2120.37C200.29 2120.02 199.873 2119.75 199.412 2119.57L191.282 2116.36C190.609 2116.09 190.032 2115.63 189.625 2115.03C189.218 2114.44 189.001 2113.73 189.001 2113.01C189.001 2112.29 189.218 2111.58 189.625 2110.98C190.032 2110.38 190.609 2109.92 191.282 2109.66L199.412 2106.45C199.872 2106.27 200.29 2105.99 200.638 2105.64C200.987 2105.29 201.26 2104.87 201.439 2104.41L204.644 2096.28C204.907 2095.61 205.368 2095.03 205.966 2094.63C206.565 2094.22 207.272 2094 207.997 2094C208.722 2094 209.43 2094.22 210.028 2094.63Z" fill="white"/>
<path d="M156.854 2064.26C157.106 2064.43 157.3 2064.68 157.411 2064.96L158.76 2068.38C158.836 2068.58 158.952 2068.75 159.099 2068.9C159.247 2069.05 159.423 2069.16 159.617 2069.24L163.04 2070.59C163.324 2070.7 163.567 2070.9 163.738 2071.15C163.909 2071.4 164.001 2071.7 164.001 2072C164.001 2072.3 163.909 2072.6 163.738 2072.85C163.567 2073.1 163.324 2073.3 163.04 2073.41L159.617 2074.76C159.423 2074.84 159.247 2074.95 159.1 2075.1C158.952 2075.25 158.837 2075.42 158.76 2075.62L157.411 2079.04C156.909 2080.32 155.096 2080.32 154.587 2079.04L153.238 2075.62C153.163 2075.43 153.048 2075.25 152.901 2075.1C152.754 2074.96 152.578 2074.84 152.385 2074.77L148.961 2073.41C148.678 2073.3 148.435 2073.11 148.264 2072.86C148.092 2072.6 148.001 2072.31 148.001 2072C148.001 2071.7 148.092 2071.4 148.264 2071.15C148.435 2070.9 148.678 2070.7 148.961 2070.59L152.385 2069.24C152.578 2069.16 152.754 2069.05 152.901 2068.9C153.048 2068.75 153.162 2068.58 153.238 2068.38L154.587 2064.96C154.698 2064.68 154.892 2064.43 155.144 2064.26C155.396 2064.09 155.694 2064 155.999 2064C156.304 2064 156.602 2064.09 156.854 2064.26Z" fill="white"/>
<path d="M491.681 -110.96C491.681 -110.96 407.419 -127.474 406.99 -27.6598C406.561 72.1546 472.23 98.0763 503.777 83.3808C535.325 68.6854 491.681 -110.96 491.681 -110.96Z" fill="#3EBBC3"/>
<path d="M492.269 65.0988C492.269 65.0988 539.798 82.6657 593.369 82.6657C642.731 82.6657 674.474 77.5333 679.177 76.7148H679.19C679.593 76.6498 679.788 76.6108 679.788 76.6108C679.788 76.6108 699.797 77.3254 722.835 72.388C748.418 66.8918 777.731 54.4053 787.515 26.2098C804.432 -22.515 850.39 6.97976 852.001 8.03222C850.702 6.69391 811.449 -32.7277 778.875 -25.9323C745.755 -19.0198 745.17 5.47253 705.995 -0.0106355L705.683 -0.0496138C694.6 -1.60881 683.244 -3.72671 672.745 -7.01401C646.239 -15.3427 625.216 -31.1945 627.789 -64.5353C631.388 -111.194 566.863 -106.296 566.863 -106.296C566.863 -106.296 516.748 -123.577 500.039 -116.664C483.329 -109.752 492.269 65.0988 492.269 65.0988Z" fill="#3EBBC3"/>
<path d="M682.38 69.3097C682.38 69.3097 680.068 63.7486 664.787 69.3097" stroke="#05038B" stroke-width="2" stroke-miterlimit="10" stroke-linecap="round"/>
<path d="M617.991 23.4529C617.991 23.4529 566.122 1.22133 527.688 19.282" stroke="#05038B" stroke-width="2" stroke-miterlimit="10" stroke-linecap="round"/>
<path d="M679.193 76.7131C679.596 76.6482 679.791 76.6092 679.791 76.6092C679.791 76.6092 699.8 77.3238 722.837 72.3864C726.878 69.8397 730.945 66.4614 733.778 62.1347C741.652 50.0899 748.369 16.2814 704.842 1.68989L705.686 -0.0512298C694.603 -1.61042 683.247 -3.72832 672.748 -7.01562L691.874 10.0316C691.874 10.0316 712.014 21.6086 710.169 39.9031C708.454 56.7814 702.022 68.1506 679.193 76.7131Z" fill="#FF377A"/>
<path d="M449.058 36.5813C449.642 58.475 467.495 75.1844 467.495 75.1844V84.6825C467.495 84.6825 519.351 96.4934 532.306 54.1483C539.738 29.8898 525.887 5.24152 512.712 -11.3899C500.069 20.8075 471.133 9.51632 456.633 1.23959C454.333 13.6872 448.681 22.1198 449.058 36.5813Z" fill="#3EBBC3"/>
<path d="M457.639 0.146729C457.639 0.146729 447.765 29.5765 447.141 37.3985C446.517 45.2205 447.141 57.5771 462.577 69.31" stroke="#05038B" stroke-width="2" stroke-miterlimit="10" stroke-linecap="round"/>
<path d="M456.622 1.23906C471.122 9.51578 500.058 20.807 512.701 -11.3904C503.8 -22.6166 495.199 -30.1917 493.653 -31.53C488.234 -24.7865 476.722 -15.7822 456.336 -21.954C458.09 -12.3389 457.791 -5.0367 456.622 1.23906Z" fill="#FF377A"/>
<path d="M521.998 70.4994C521.998 70.4994 550.737 37.6699 512.445 -13.1988L494.593 -31.5324C494.593 -31.5324 489.356 -44.0059 480.066 -43.6941" stroke="#05038B" stroke-width="2" stroke-miterlimit="10" stroke-linecap="round"/>
<path d="M661.185 -15.4197C661.302 -14.6531 661.419 -13.8865 661.536 -13.1199C664.005 3.23864 679.753 14.9716 702.296 9.41045C724.827 3.84932 727.607 -10.3523 728.53 -19.9154C729.465 -29.4915 720.513 -37.2095 713.406 -37.2095C706.974 -37.2095 704.336 -32.8957 703.894 -32.0901L703.855 -32.0122C703.855 -32.0122 703.842 -31.9732 703.829 -31.9602C683.768 1.08175 661.185 -15.4197 661.185 -15.4197Z" fill="#3EBBC3"/>
<path d="M655.97 -46.7851C655.97 -46.7851 658.776 -31.0762 661.18 -15.4193C661.18 -15.4193 683.763 1.08215 703.824 -31.9598C703.824 -31.9728 703.824 -31.9988 703.85 -32.0118L703.889 -32.0897C708.801 -42.9261 712.218 -52.788 714.362 -61.7534C714.362 -61.7534 682.84 -28.5685 655.97 -46.7851Z" fill="#FF377A"/>
<path d="M715.865 4.47277C715.865 4.47277 673.494 24.1576 661.683 -7.57202" stroke="#05038B" stroke-width="2" stroke-miterlimit="10" stroke-linecap="round"/>
<path d="M118.688 -24.9277C118.688 -24.9277 89.5391 -38.5515 74.2523 -36.3317C74.2523 -36.3317 85.5656 6.86282 76.103 33.4634L114.371 45.4656C114.371 45.4656 141.023 25.5431 118.681 -24.9264L118.688 -24.9277Z" fill="white"/>
<path d="M167.219 34.5879C167.219 34.5879 131.297 29.5887 104.709 35.8054L132.574 132.985C132.574 132.985 181.24 128.29 206.821 132.985C206.821 132.985 187.187 63.3824 167.213 34.5964L167.219 34.5879Z" fill="#FF377A"/>
<path d="M106.134 5.53447L106.965 4.68966C109.912 1.70161 111.859 -0.275779 112.043 -2.84519C112.194 -4.95116 111.033 -6.68519 109.406 -6.80166C108.488 -6.86746 107.566 -6.37856 106.928 -5.55422C106.415 -6.461 105.071 -7.66088 104.152 -7.72668C102.525 -7.84315 101.13 -6.29215 100.979 -4.18619C100.795 -1.61677 102.44 0.617764 104.932 3.99532L106.134 5.53447Z" fill="#FF377A"/>
</g>
</g>
<defs>
<clipPath id="clip0_36_3340">
<rect width="750" height="2230" fill="white"/>
</clipPath>
<clipPath id="clip1_36_3340">
<rect width="750" height="3934" fill="white" transform="translate(0.000854492)"/>
</clipPath>
</defs>
</svg>
