<svg width="750" height="2337" viewBox="0 0 750 2337" fill="none" xmlns="http://www.w3.org/2000/svg">
<g clip-path="url(#clip0_371_2782)">
<rect width="750" height="2337" fill="white"/>
<g clip-path="url(#clip1_371_2782)">
<rect width="750" height="4076" transform="translate(0 -1)" fill="black"/>
<path d="M629.625 628V647" stroke="#3EBBC3" stroke-width="2.98" stroke-linecap="round"/>
<path d="M613.411 629.704L617.362 648.294" stroke="#3EBBC3" stroke-width="2.98" stroke-linecap="round"/>
<path d="M597.87 634.744L605.604 652.103" stroke="#3EBBC3" stroke-width="2.98" stroke-linecap="round"/>
<path d="M583.746 642.904L594.92 658.28" stroke="#3EBBC3" stroke-width="2.98" stroke-linecap="round"/>
<path d="M571.622 653.827L585.75 666.549" stroke="#3EBBC3" stroke-width="2.98" stroke-linecap="round"/>
<path d="M562.017 667.036L578.481 676.536" stroke="#3EBBC3" stroke-width="2.98" stroke-linecap="round"/>
<path d="M555.39 681.941L573.469 687.808" stroke="#3EBBC3" stroke-width="2.98" stroke-linecap="round"/>
<path d="M552 697.899L570.9 699.883" stroke="#3EBBC3" stroke-width="2.98" stroke-linecap="round"/>
<path d="M552 714.217L570.9 712.234" stroke="#3EBBC3" stroke-width="2.98" stroke-linecap="round"/>
<path d="M555.39 730.181L573.469 724.313" stroke="#3EBBC3" stroke-width="2.98" stroke-linecap="round"/>
<path d="M562.017 745.086L578.481 735.586" stroke="#3EBBC3" stroke-width="2.98" stroke-linecap="round"/>
<path d="M571.622 758.289L585.75 745.567" stroke="#3EBBC3" stroke-width="2.98" stroke-linecap="round"/>
<path d="M583.746 769.206L594.92 753.831" stroke="#3EBBC3" stroke-width="2.98" stroke-linecap="round"/>
<path d="M597.87 777.369L605.604 760.009" stroke="#3EBBC3" stroke-width="2.98" stroke-linecap="round"/>
<path d="M613.411 782.406L617.362 763.816" stroke="#3EBBC3" stroke-width="2.98" stroke-linecap="round"/>
<path d="M629.625 784.108V765.107" stroke="#3EBBC3" stroke-width="2.98" stroke-linecap="round"/>
<path d="M645.852 782.406L641.901 763.816" stroke="#3EBBC3" stroke-width="2.98" stroke-linecap="round"/>
<path d="M661.383 777.369L653.649 760.009" stroke="#3EBBC3" stroke-width="2.98" stroke-linecap="round"/>
<path d="M675.522 769.206L664.348 753.831" stroke="#3EBBC3" stroke-width="2.98" stroke-linecap="round"/>
<path d="M687.641 758.289L673.513 745.567" stroke="#3EBBC3" stroke-width="2.98" stroke-linecap="round"/>
<path d="M697.232 745.086L680.768 735.586" stroke="#3EBBC3" stroke-width="2.98" stroke-linecap="round"/>
<path d="M703.869 730.181L685.79 724.313" stroke="#3EBBC3" stroke-width="2.98" stroke-linecap="round"/>
<path d="M707.254 714.217L688.354 712.234" stroke="#3EBBC3" stroke-width="2.98" stroke-linecap="round"/>
<path d="M707.254 697.899L688.354 699.883" stroke="#3EBBC3" stroke-width="2.98" stroke-linecap="round"/>
<path d="M703.869 681.941L685.79 687.808" stroke="#3EBBC3" stroke-width="2.98" stroke-linecap="round"/>
<path d="M697.232 667.036L680.768 676.536" stroke="#3EBBC3" stroke-width="2.98" stroke-linecap="round"/>
<path d="M687.641 653.827L673.513 666.549" stroke="#3EBBC3" stroke-width="2.98" stroke-linecap="round"/>
<path d="M675.522 642.904L664.348 658.28" stroke="#3EBBC3" stroke-width="2.98" stroke-linecap="round"/>
<path d="M661.383 634.744L653.649 652.103" stroke="#3EBBC3" stroke-width="2.98" stroke-linecap="round"/>
<path d="M645.852 629.704L641.901 648.294" stroke="#3EBBC3" stroke-width="2.98" stroke-linecap="round"/>
<path d="M30.5111 171.111L28.6439 146.729C28.579 145.835 29.3583 145.067 30.3812 145.004C31.4042 144.941 32.2972 145.624 32.3702 146.511C32.3702 146.582 32.3702 146.659 32.3702 146.722L30.503 171.104L30.5111 171.111Z" fill="#FF377A"/>
<path d="M21.1785 172.604L14.5273 148.598C14.2806 147.721 14.7809 146.808 15.6475 146.557C16.5142 146.305 17.402 146.823 17.6486 147.7C17.6697 147.764 17.6838 147.843 17.6909 147.915L21.1785 172.604Z" fill="#FF377A"/>
<path d="M12.2211 175.587L1.21079 153.407C0.809303 152.598 1.10191 151.586 1.86406 151.16C2.6262 150.734 3.57889 151.044 3.98038 151.853C4.0144 151.919 4.04162 151.991 4.06204 152.056L12.2143 175.58L12.2211 175.587Z" fill="#FF377A"/>
<path d="M4.75769 180.052L-11.2716 161.105C-11.8562 160.408 -11.7624 159.378 -11.0551 158.802C-10.3478 158.226 -9.30133 158.319 -8.71674 159.015C-8.67344 159.072 -8.62292 159.136 -8.58683 159.193L4.75769 180.059V180.052Z" fill="#FF377A"/>
<path d="M4.75048 252.43L-8.59056 272.58C-9.0812 273.321 -10.1058 273.541 -10.8778 273.074C-11.657 272.607 -11.8879 271.633 -11.3973 270.898C-11.3612 270.843 -11.3107 270.782 -11.2674 270.727L4.75769 252.43H4.75048Z" fill="#FF377A"/>
<path d="M12.2143 256.91L4.06124 279.723C3.76179 280.557 2.86346 280.984 2.0536 280.676C1.24374 280.368 0.828599 279.443 1.12804 278.609C1.14846 278.546 1.18249 278.476 1.20971 278.413L12.2211 256.903L12.2143 256.91Z" fill="#FF377A"/>
<path d="M21.1785 259.893L17.6924 283.873C17.5657 284.753 16.7417 285.36 15.8543 285.235C14.9669 285.109 14.3542 284.292 14.481 283.412C14.488 283.342 14.5091 283.265 14.5232 283.202L21.1715 259.886L21.1785 259.893Z" fill="#FF377A"/>
<path d="M30.4992 260.631L32.3665 285.013C32.4314 285.908 31.652 286.675 30.6291 286.739C29.5981 286.795 28.7132 286.119 28.6401 285.232C28.6401 285.161 28.6401 285.084 28.6401 285.02L30.5074 260.638L30.4992 260.631Z" fill="#FF377A"/>
<path d="M39.8184 259.886L46.4702 283.205C46.7168 284.057 46.2095 284.944 45.3498 285.189C44.4901 285.433 43.5952 284.937 43.3486 284.078C43.3275 284.015 43.3134 283.939 43.3063 283.869L39.8184 259.886Z" fill="#FF377A"/>
<path d="M48.7759 256.903L60.5202 278.412C60.9484 279.196 60.6363 280.177 59.8234 280.591C59.0104 281.004 57.9942 280.703 57.566 279.918C57.5297 279.855 57.5006 279.785 57.4789 279.722L48.7831 256.91L48.7759 256.903Z" fill="#FF377A"/>
<path d="M56.9854 252.437L72.2861 270.731C72.8441 271.404 72.7545 272.399 72.0794 272.954C71.4042 273.51 70.4053 273.421 69.8473 272.749C69.806 272.694 69.7577 272.632 69.7233 272.577L56.9854 252.43V252.437Z" fill="#FF377A"/>
<path d="M63.6934 245.711L83.2083 260.739C83.9239 261.292 84.0456 262.301 83.4803 263.001C82.9149 263.701 81.8844 263.82 81.1688 263.267C81.1116 263.225 81.0543 263.169 81.0042 263.127L63.6934 245.711Z" fill="#FF377A"/>
<path d="M68.9233 238.249L91.1324 249.279C91.9457 249.683 92.2811 250.676 91.8815 251.497C91.482 252.318 90.4975 252.656 89.6842 252.253C89.62 252.224 89.5557 252.181 89.4987 252.145L68.9233 238.249Z" fill="#FF377A"/>
<path d="M72.6567 230.048L96.7741 235.888C97.6559 236.1 98.1936 236.957 97.9713 237.807C97.7491 238.657 96.8529 239.164 95.9639 238.952C95.8923 238.938 95.8206 238.911 95.756 238.89L72.6567 230.062V230.048Z" fill="#FF377A"/>
<path d="M74.8892 220.348L99.434 221.358C100.333 221.395 101.034 222.201 100.999 223.158C100.963 224.115 100.206 224.861 99.3066 224.823C99.2358 224.823 99.1579 224.808 99.0942 224.8L74.8892 220.356V220.348Z" fill="#FF377A"/>
<path d="M74.8892 211.389L99.0921 206.947C99.977 206.781 100.819 207.414 100.975 208.362C101.131 209.303 100.536 210.199 99.6443 210.365C99.5735 210.38 99.4956 210.388 99.4319 210.388L74.8892 211.397V211.389Z" fill="#FF377A"/>
<path d="M72.6567 202.443L95.7595 192.867C96.6056 192.518 97.5664 192.942 97.9034 193.819C98.2404 194.696 97.8317 195.692 96.9856 196.042C96.9211 196.072 96.8422 196.094 96.7777 196.109L72.6567 202.443Z" fill="#FF377A"/>
<path d="M68.9233 193.491L89.4965 180.328C90.2527 179.844 91.2728 180.041 91.7721 180.758C92.2786 181.481 92.0717 182.456 91.3227 182.933C91.2656 182.967 91.1943 183.008 91.1372 183.036L68.9305 193.484L68.9233 193.491Z" fill="#FF377A"/>
<path d="M63.7005 186.035L81.0117 168.618C81.6486 167.981 82.6863 167.967 83.3375 168.583C83.9887 169.199 84.003 170.222 83.3733 170.859C83.3232 170.908 83.2659 170.957 83.2087 170.999L63.6934 186.028L63.7005 186.035Z" fill="#FF377A"/>
<path d="M56.9922 180.059L69.7269 159.19C70.1952 158.423 71.1732 158.195 71.9101 158.678C72.654 159.162 72.8744 160.171 72.406 160.932C72.3716 160.989 72.3234 161.053 72.282 161.109L56.9854 180.059H56.9922Z" fill="#FF377A"/>
<path d="M48.7831 175.58L57.4797 152.055C57.7991 151.195 58.7573 150.754 59.6212 151.072C60.4851 151.39 60.9279 152.344 60.6085 153.203C60.5867 153.269 60.5504 153.341 60.5214 153.406L48.7759 175.587L48.7831 175.58Z" fill="#FF377A"/>
<path d="M39.8184 172.596L43.3045 147.912C43.4313 147.006 44.2553 146.38 45.1426 146.51C46.03 146.639 46.6427 147.48 46.5159 148.386C46.5089 148.458 46.4878 148.537 46.4737 148.602L39.8254 172.604L39.8184 172.596Z" fill="#FF377A"/>
<path d="M699.143 1966.48L807.242 2028.89C809.156 2030 809.811 2032.44 808.707 2034.36L744.716 2145.19C743.612 2147.1 741.166 2147.76 739.252 2146.65L631.152 2084.24C629.239 2083.14 628.584 2080.69 629.688 2078.78L693.678 1967.94C694.783 1966.03 697.229 1965.38 699.143 1966.48Z" fill="#3EBBC3"/>
<rect width="132.926" height="6.28704" transform="matrix(-0.866025 -0.5 -0.5 0.866025 787.196 2070.91)" fill="#2362AF"/>
<rect width="137.417" height="6.28704" transform="matrix(-0.5 0.866025 0.866025 0.5 727.329 1982.42)" fill="#2362AF"/>
<path d="M706.683 2025.7C707.339 2023.88 724.01 2014.22 728.392 2013.55C732.768 2012.86 736.926 2030.09 735.69 2032.59C734.454 2035.1 709.876 2029.47 708.372 2028.94C706.859 2028.43 706.691 2025.69 706.691 2025.69L706.683 2025.7Z" fill="#2362AF"/>
<path d="M705.504 2025.02C706.76 2023.54 706.786 2004.27 705.173 2000.15C703.568 1996 686.57 2001.02 685.035 2003.35C683.485 2005.67 700.646 2024.14 701.854 2025.18C703.053 2026.23 705.512 2025.01 705.512 2025.01L705.504 2025.02Z" fill="#2362AF"/>
<path d="M703.983 2029.89C700.885 2028.1 699.48 2024.73 700.846 2022.37C702.211 2020 705.83 2019.53 708.928 2021.32C712.026 2023.11 713.431 2026.48 712.066 2028.84C710.7 2031.21 707.082 2031.68 703.983 2029.89Z" fill="#2362AF"/>
<path d="M677.232 2138.31C677.531 2138.52 677.762 2138.81 677.894 2139.14L679.496 2143.2C679.586 2143.43 679.723 2143.64 679.898 2143.82C680.073 2143.99 680.282 2144.13 680.513 2144.22L684.578 2145.82C684.915 2145.96 685.203 2146.19 685.407 2146.49C685.61 2146.79 685.719 2147.14 685.719 2147.5C685.719 2147.86 685.61 2148.21 685.407 2148.51C685.203 2148.81 684.915 2149.04 684.578 2149.18L680.513 2150.78C680.283 2150.87 680.074 2151.01 679.899 2151.18C679.724 2151.36 679.586 2151.56 679.496 2151.79L677.894 2155.86C677.297 2157.38 675.144 2157.38 674.54 2155.86L672.938 2151.8C672.849 2151.57 672.712 2151.36 672.538 2151.18C672.363 2151.01 672.155 2150.87 671.925 2150.78L667.859 2149.18C667.523 2149.05 667.234 2148.82 667.031 2148.52C666.827 2148.22 666.719 2147.86 666.719 2147.5C666.719 2147.14 666.827 2146.79 667.031 2146.49C667.234 2146.19 667.523 2145.96 667.859 2145.83L671.925 2144.22C672.154 2144.13 672.363 2144 672.537 2143.82C672.712 2143.65 672.848 2143.44 672.938 2143.21L674.54 2139.14C674.672 2138.81 674.902 2138.52 675.201 2138.31C675.501 2138.11 675.855 2138 676.217 2138C676.579 2138 676.933 2138.11 677.232 2138.31Z" fill="white"/>
<path d="M596.232 2043.31C596.531 2043.52 596.762 2043.81 596.894 2044.14L598.496 2048.2C598.586 2048.43 598.723 2048.64 598.898 2048.82C599.073 2048.99 599.282 2049.13 599.513 2049.22L603.578 2050.82C603.915 2050.96 604.203 2051.19 604.407 2051.49C604.61 2051.79 604.719 2052.14 604.719 2052.5C604.719 2052.86 604.61 2053.21 604.407 2053.51C604.203 2053.81 603.915 2054.04 603.578 2054.18L599.513 2055.78C599.283 2055.87 599.074 2056.01 598.899 2056.18C598.724 2056.36 598.586 2056.56 598.496 2056.79L596.894 2060.86C596.297 2062.38 594.144 2062.38 593.54 2060.86L591.938 2056.8C591.849 2056.57 591.712 2056.36 591.538 2056.18C591.363 2056.01 591.155 2055.87 590.925 2055.78L586.859 2054.18C586.523 2054.05 586.234 2053.82 586.031 2053.52C585.827 2053.22 585.719 2052.86 585.719 2052.5C585.719 2052.14 585.827 2051.79 586.031 2051.49C586.234 2051.19 586.523 2050.96 586.859 2050.83L590.925 2049.22C591.154 2049.13 591.363 2049 591.537 2048.82C591.712 2048.65 591.848 2048.44 591.938 2048.21L593.54 2044.14C593.672 2043.81 593.902 2043.52 594.201 2043.31C594.501 2043.11 594.855 2043 595.217 2043C595.579 2043 595.933 2043.11 596.232 2043.31Z" fill="white"/>
<path d="M263.443 2169.32L206.751 2184.51C204.617 2185.08 203.351 2187.28 203.923 2189.41L217.264 2239.2C217.836 2241.33 220.029 2242.6 222.163 2242.03L278.855 2226.84C280.989 2226.27 282.255 2224.07 281.684 2221.94L268.342 2172.15C267.771 2170.02 265.577 2168.75 263.443 2169.32Z" fill="#935AFF"/>
<rect x="244.288" y="2175.17" width="59.5468" height="2.38187" transform="rotate(75 244.288 2175.17)" fill="#FDBD1F"/>
<rect x="209.84" y="2212.16" width="66.4881" height="2.9041" transform="rotate(-15 209.84 2212.16)" fill="#FDBD1F"/>
<path d="M240.247 2190.93C234.82 2190.04 231.659 2195.98 233.452 2199.11C237.298 2205.81 250.842 2203.11 250.842 2203.11C250.428 2201.91 248.466 2192.28 240.247 2190.93ZM248.277 2201.54C248.277 2201.54 238.819 2202.84 236.507 2198.8C235.422 2196.91 237.329 2193.34 240.599 2193.87C245.548 2194.69 248.022 2200.81 248.275 2201.53L248.277 2201.54Z" fill="#FDBD1F"/>
<path d="M249.256 2202.73L241.685 2215L244.41 2216.35L251.393 2202.15L249.256 2202.73Z" fill="#FDBD1F"/>
<path d="M250.845 2203.11C250.845 2203.11 263.92 2198.67 263.902 2190.94C263.89 2187.34 258.184 2183.78 253.93 2187.26C247.484 2192.54 250.602 2201.86 250.845 2203.11ZM255.099 2190C257.662 2187.89 261.1 2190.04 261.105 2192.22C261.124 2196.87 252.278 2200.46 252.278 2200.46C252.128 2199.71 251.219 2193.17 255.099 2190Z" fill="#FDBD1F"/>
<path d="M252.479 2201.86L264.711 2208.83L263.119 2211.34L250.683 2202.49L252.479 2201.86Z" fill="#FDBD1F"/>
<path d="M247.094 2242.01L131.296 2175.16C129.383 2174.05 126.937 2174.71 125.832 2176.62L86.4205 2244.88C85.3159 2246.79 85.9714 2249.24 87.8846 2250.34L203.682 2317.2C205.595 2318.3 208.042 2317.65 209.146 2315.73L248.558 2247.47C249.662 2245.56 249.007 2243.11 247.094 2242.01Z" fill="#FFA2D1"/>
<rect x="127.409" y="2214.65" width="121.685" height="0.545673" transform="rotate(30 127.409 2214.65)" fill="#FF377A"/>
<rect x="110.874" y="2203.27" width="141.698" height="3.99187" transform="rotate(30 110.874 2203.27)" fill="#FF377A"/>
<rect x="199.352" y="2215.26" width="86.9559" height="3.31893" transform="rotate(120 199.352 2215.26)" fill="#FF377A"/>
<path d="M180.041 2244.17C180.731 2242.92 181.534 2231.83 179.661 2229.86C177.801 2227.89 168.265 2231.04 168.249 2233.28C168.22 2235.52 179.725 2246.75 179.725 2246.75L180.053 2244.88C180.053 2244.88 172.173 2236.49 172.824 2235.33C173.476 2234.17 177.343 2233.46 177.691 2234.47C178.04 2235.49 178.266 2244.59 178.266 2244.59L180.042 2244.16L180.041 2244.17Z" fill="#FF377A"/>
<path d="M180.492 2244.43C181.182 2243.18 190.234 2236.7 192.873 2237.25C195.524 2237.82 197.824 2247.58 195.935 2248.76C194.045 2249.95 178.452 2246.04 178.452 2246.04L179.867 2244.79C179.867 2244.79 191.133 2247.1 191.786 2245.93C192.438 2244.77 191.005 2241.1 189.967 2241.34C188.915 2241.57 181.042 2246.15 181.042 2246.15L180.481 2244.41L180.492 2244.43Z" fill="#FF377A"/>
<path d="M179.545 2245.56C178.841 2246.81 178.051 2257.91 179.924 2259.87C181.784 2261.84 191.322 2258.68 191.336 2256.45C191.351 2254.22 179.862 2242.97 179.862 2242.97L179.534 2244.84C179.534 2244.84 187.414 2253.23 186.763 2254.39C186.111 2255.55 182.244 2256.26 181.895 2255.25C181.547 2254.24 181.321 2245.13 181.321 2245.13L179.545 2245.56Z" fill="#FF377A"/>
<path d="M179.111 2245.32C178.421 2246.57 169.369 2253.05 166.73 2252.5C164.08 2251.93 161.779 2242.17 163.669 2240.99C165.559 2239.8 181.151 2243.71 181.151 2243.71L179.736 2244.96C179.736 2244.96 168.47 2242.65 167.817 2243.82C167.166 2244.98 168.598 2248.65 169.637 2248.41C170.688 2248.18 178.562 2243.6 178.562 2243.6L179.123 2245.34L179.111 2245.32Z" fill="#FF377A"/>
<path d="M183.193 2246.35C182.511 2247.59 180.522 2247.77 178.755 2246.8C176.991 2245.8 176.109 2244.01 176.807 2242.78C177.489 2241.54 179.478 2241.36 181.245 2242.33C183.009 2243.33 183.891 2245.12 183.193 2246.35Z" fill="#FF377A"/>
<path d="M172.147 2163.25C172.471 2163.47 172.721 2163.78 172.864 2164.15L174.603 2168.56C174.701 2168.81 174.849 2169.03 175.039 2169.22C175.229 2169.41 175.456 2169.56 175.706 2169.66L180.117 2171.4C180.483 2171.55 180.796 2171.8 181.016 2172.12C181.237 2172.44 181.355 2172.83 181.355 2173.22C181.355 2173.61 181.237 2173.99 181.016 2174.32C180.796 2174.64 180.483 2174.89 180.117 2175.04L175.706 2176.78C175.457 2176.88 175.23 2177.02 175.04 2177.21C174.85 2177.4 174.701 2177.63 174.603 2177.88L172.864 2182.29C172.217 2183.94 169.881 2183.94 169.226 2182.29L167.487 2177.88C167.39 2177.63 167.242 2177.41 167.053 2177.22C166.864 2177.03 166.637 2176.88 166.387 2176.78L161.977 2175.04C161.611 2174.9 161.298 2174.65 161.077 2174.32C160.857 2174 160.739 2173.62 160.739 2173.22C160.739 2172.83 160.857 2172.45 161.077 2172.12C161.298 2171.8 161.611 2171.55 161.977 2171.4L166.387 2169.66C166.637 2169.57 166.863 2169.42 167.052 2169.23C167.242 2169.04 167.39 2168.81 167.487 2168.56L169.226 2164.15C169.368 2163.78 169.618 2163.47 169.943 2163.25C170.268 2163.03 170.652 2162.91 171.045 2162.91C171.438 2162.91 171.822 2163.03 172.147 2163.25Z" fill="white"/>
<path d="M264.937 2262.78C265.14 2262.93 265.296 2263.14 265.386 2263.38L266.472 2266.32C266.533 2266.49 266.626 2266.64 266.745 2266.76C266.864 2266.89 267.005 2266.99 267.162 2267.06L269.919 2268.22C270.147 2268.31 270.343 2268.48 270.481 2268.7C270.619 2268.91 270.692 2269.17 270.692 2269.43C270.692 2269.69 270.619 2269.95 270.481 2270.16C270.343 2270.38 270.147 2270.54 269.919 2270.64L267.162 2271.8C267.006 2271.87 266.864 2271.97 266.745 2272.09C266.627 2272.22 266.534 2272.37 266.472 2272.53L265.386 2275.48C264.981 2276.58 263.521 2276.58 263.111 2275.48L262.025 2272.54C261.964 2272.37 261.872 2272.22 261.753 2272.09C261.635 2271.97 261.494 2271.87 261.338 2271.8L258.581 2270.64C258.352 2270.55 258.157 2270.38 258.019 2270.16C257.881 2269.95 257.807 2269.69 257.807 2269.43C257.807 2269.17 257.881 2268.92 258.019 2268.7C258.157 2268.48 258.352 2268.32 258.581 2268.22L261.338 2267.06C261.493 2266.99 261.635 2266.89 261.753 2266.77C261.871 2266.64 261.964 2266.49 262.025 2266.32L263.111 2263.38C263.201 2263.14 263.357 2262.93 263.56 2262.78C263.763 2262.64 264.003 2262.56 264.248 2262.56C264.494 2262.56 264.734 2262.64 264.937 2262.78Z" fill="white"/>
<path d="M203.947 2138.21C204.15 2138.35 204.307 2138.55 204.396 2138.77L205.482 2141.53C205.544 2141.68 205.636 2141.83 205.755 2141.95C205.874 2142.06 206.016 2142.16 206.172 2142.22L208.929 2143.31C209.157 2143.4 209.353 2143.55 209.491 2143.76C209.629 2143.96 209.703 2144.2 209.703 2144.44C209.703 2144.69 209.629 2144.93 209.491 2145.13C209.353 2145.33 209.157 2145.49 208.929 2145.58L206.172 2146.67C206.016 2146.73 205.874 2146.82 205.755 2146.94C205.637 2147.06 205.544 2147.2 205.482 2147.35L204.396 2150.11C203.991 2151.14 202.531 2151.14 202.122 2150.11L201.035 2147.36C200.974 2147.2 200.882 2147.06 200.764 2146.94C200.645 2146.82 200.504 2146.73 200.348 2146.67L197.591 2145.58C197.363 2145.49 197.167 2145.33 197.029 2145.13C196.891 2144.93 196.817 2144.69 196.817 2144.45C196.817 2144.2 196.891 2143.96 197.029 2143.76C197.167 2143.56 197.363 2143.4 197.591 2143.31L200.348 2142.22C200.504 2142.16 200.645 2142.07 200.763 2141.95C200.882 2141.83 200.974 2141.69 201.035 2141.53L202.122 2138.77C202.211 2138.55 202.367 2138.35 202.57 2138.21C202.773 2138.07 203.013 2138 203.259 2138C203.504 2138 203.744 2138.07 203.947 2138.21Z" fill="white"/>
</g>
</g>
<defs>
<clipPath id="clip0_371_2782">
<rect width="750" height="2337" fill="white"/>
</clipPath>
<clipPath id="clip1_371_2782">
<rect width="750" height="4076" fill="white" transform="translate(0 -1)"/>
</clipPath>
</defs>
</svg>
