<svg width="750" height="2004" viewBox="0 0 750 2004" fill="none" xmlns="http://www.w3.org/2000/svg">
<g clip-path="url(#clip0_36_1725)">
<rect width="750" height="5685" transform="translate(0.000854492 -3681)" fill="url(#paint0_linear_36_1725)"/>
<circle cx="518.001" cy="429" r="2" fill="#FFA2D1"/>
<circle cx="351.001" cy="717" r="2" fill="#FFA2D1"/>
<circle cx="550.001" cy="730" r="2" fill="#FFA2D1"/>
<circle cx="195.501" cy="825.5" r="1.5" fill="#FFA2D1"/>
<circle cx="209.001" cy="56" r="2" fill="#FFA2D1"/>
<circle cx="195.501" cy="207.5" r="1.5" fill="#FFA2D1"/>
<circle cx="140.501" cy="371.5" r="1.5" fill="#FFA2D1"/>
<circle cx="281.501" cy="457.5" r="1.5" fill="#FFA2D1"/>
<circle cx="646.501" cy="310.5" r="1.5" fill="#FFA2D1"/>
<circle cx="159.501" cy="686.5" r="1.5" fill="#FFA2D1"/>
<circle cx="19.5009" cy="501.5" r="1.5" fill="#FFA2D1"/>
<circle cx="259.001" cy="826" r="2" fill="#FFA2D1"/>
<circle cx="606.501" cy="842.5" r="1.5" fill="#FFA2D1"/>
<circle cx="314.501" cy="794.5" r="1.5" fill="#FFA2D1"/>
<circle cx="28.0009" cy="200" r="2" fill="#FFA2D1"/>
<circle cx="306.501" cy="26.5" r="1.5" fill="#FFA2D1"/>
<circle cx="316.501" cy="972.5" r="1.5" fill="#FFA2D1"/>
<circle cx="264.001" cy="1061" r="2" fill="#FFA2D1"/>
<circle cx="340.501" cy="1141.5" r="1.5" fill="#FFA2D1"/>
<circle cx="500.001" cy="1097" r="2" fill="#FFA2D1"/>
<circle cx="613.001" cy="1311" r="2" fill="#FFA2D1"/>
<circle cx="518.001" cy="1936" r="2" fill="#FFA2D1"/>
<circle cx="647.001" cy="1223" r="2" fill="#FFA2D1"/>
<circle cx="290.001" cy="1178" r="2" fill="#FFA2D1"/>
<circle cx="111.001" cy="1077" r="2" fill="#FFA2D1"/>
<circle cx="462.501" cy="1018.5" r="1.5" fill="#FFA2D1"/>
<circle cx="240.001" cy="1500" r="2" fill="#FFA2D1"/>
<circle cx="552.501" cy="1366.5" r="1.5" fill="#FFA2D1"/>
<circle cx="686.501" cy="1305.5" r="1.5" fill="#FFA2D1"/>
<circle cx="209.001" cy="1563" r="2" fill="#FFA2D1"/>
<circle cx="195.501" cy="1714.5" r="1.5" fill="#FFA2D1"/>
<circle cx="140.501" cy="1878.5" r="1.5" fill="#FFA2D1"/>
<circle cx="281.501" cy="1964.5" r="1.5" fill="#FFA2D1"/>
<circle cx="646.501" cy="1817.5" r="1.5" fill="#FFA2D1"/>
<circle cx="28.0009" cy="1707" r="2" fill="#FFA2D1"/>
<circle cx="306.501" cy="1533.5" r="1.5" fill="#FFA2D1"/>
<circle cx="604.501" cy="1022.5" r="1.5" fill="#FFA2D1"/>
<circle cx="730.501" cy="1088.5" r="1.5" fill="#FFA2D1"/>
<circle cx="198.501" cy="1004.5" r="1.5" fill="#FFA2D1"/>
<path d="M210.546 1956.21C211.569 1956.21 212.399 1946.82 212.399 1935.25C212.399 1923.68 211.569 1914.29 210.546 1914.29C209.523 1914.29 208.694 1923.68 208.694 1935.25C208.694 1946.82 209.523 1956.21 210.546 1956.21Z" fill="#FF377A"/>
<path d="M242.989 1949.31C243.923 1948.89 240.865 1939.99 236.157 1929.41C231.449 1918.84 226.875 1910.6 225.941 1911.02C225.006 1911.44 228.065 1920.34 232.773 1930.92C237.48 1941.49 242.054 1949.73 242.989 1949.31Z" fill="#FF377A"/>
<path d="M269.827 1929.81C270.512 1929.05 264.094 1922.15 255.493 1914.41C246.891 1906.67 239.364 1901 238.679 1901.76C237.995 1902.52 244.413 1909.42 253.014 1917.16C261.615 1924.91 269.143 1930.57 269.827 1929.81Z" fill="#FF377A"/>
<path d="M286.418 1901.07C286.734 1900.1 278.067 1896.41 267.059 1892.84C256.052 1889.26 246.872 1887.15 246.556 1888.12C246.24 1889.1 254.907 1892.78 265.915 1896.36C276.922 1899.94 286.102 1902.05 286.418 1901.07Z" fill="#FF377A"/>
<path d="M269.246 1872.12C280.757 1870.91 290.001 1869.1 289.895 1868.08C289.788 1867.07 280.37 1867.22 268.859 1868.43C257.348 1869.64 248.103 1871.45 248.21 1872.47C248.317 1873.48 257.735 1873.33 269.246 1872.12Z" fill="#FF377A"/>
<path d="M262.409 1848.61C272.433 1842.83 280.144 1837.42 279.632 1836.53C279.121 1835.65 270.58 1839.62 260.557 1845.41C250.533 1851.19 242.822 1856.6 243.334 1857.49C243.845 1858.37 252.386 1854.4 262.409 1848.61Z" fill="#FF377A"/>
<path d="M246.625 1829.92C253.428 1820.56 258.272 1812.48 257.445 1811.88C256.617 1811.28 250.431 1818.38 243.628 1827.75C236.825 1837.11 231.981 1845.19 232.809 1845.79C233.636 1846.39 239.822 1839.29 246.625 1829.92Z" fill="#FF377A"/>
<path d="M224.577 1819.27C226.984 1807.95 228.123 1798.6 227.123 1798.39C226.122 1798.17 223.36 1807.18 220.954 1818.5C218.548 1829.82 217.408 1839.17 218.408 1839.38C219.409 1839.6 222.171 1830.59 224.577 1819.27Z" fill="#FF377A"/>
<path d="M202.664 1839.39C203.665 1839.17 202.525 1829.82 200.119 1818.5C197.712 1807.18 194.95 1798.18 193.95 1798.39C192.949 1798.6 194.089 1807.95 196.495 1819.27C198.902 1830.59 201.663 1839.6 202.664 1839.39Z" fill="#FF377A"/>
<path d="M188.285 1845.79C189.113 1845.19 184.268 1837.11 177.465 1827.74C170.662 1818.38 164.476 1811.28 163.649 1811.88C162.821 1812.48 167.665 1820.56 174.468 1829.92C181.272 1839.28 187.457 1846.39 188.285 1845.79Z" fill="#FF377A"/>
<path d="M177.74 1857.49C178.252 1856.6 170.541 1851.19 160.517 1845.41C150.494 1839.62 141.954 1835.65 141.442 1836.53C140.931 1837.42 148.642 1842.83 158.665 1848.61C168.689 1854.4 177.229 1858.38 177.74 1857.49Z" fill="#FF377A"/>
<path d="M172.879 1872.47C172.986 1871.45 163.741 1869.64 152.23 1868.43C140.719 1867.22 131.301 1867.07 131.194 1868.08C131.088 1869.1 140.332 1870.91 151.843 1872.12C163.354 1873.33 172.772 1873.48 172.879 1872.47Z" fill="#FF377A"/>
<path d="M155.172 1896.37C166.179 1892.79 174.847 1889.11 174.531 1888.13C174.214 1887.16 165.035 1889.27 154.027 1892.85C143.019 1896.42 134.352 1900.11 134.668 1901.09C134.984 1902.06 144.164 1899.95 155.172 1896.37Z" fill="#FF377A"/>
<path d="M168.054 1917.17C176.655 1909.43 183.073 1902.53 182.388 1901.77C181.704 1901.01 174.176 1906.67 165.575 1914.42C156.974 1922.16 150.556 1929.06 151.24 1929.82C151.925 1930.58 159.452 1924.91 168.054 1917.17Z" fill="#FF377A"/>
<path d="M188.301 1930.92C193.009 1920.35 196.067 1911.44 195.133 1911.03C194.198 1910.61 189.625 1918.84 184.917 1929.42C180.209 1939.99 177.15 1948.9 178.085 1949.32C179.019 1949.73 183.593 1941.5 188.301 1930.92Z" fill="#FF377A"/>
<path d="M11.0549 1899.84C11.0549 1899.84 2.73762 1901.07 -1.03868 1900.01C-1.03868 1900.01 -7.47008 1911.18 -12.4373 1913.17C-12.4373 1913.17 18.0287 1922.35 44.1371 1900.75L22.3881 1886.31C22.3881 1886.31 17.6938 1894.69 11.0537 1899.83L11.0549 1899.84Z" fill="#FF377A"/>
<path d="M93.9092 1919.46C93.9092 1919.46 120.314 1928.79 133.799 1937.78L141.503 1973.69C141.503 1973.69 110.078 1947.27 104.871 1944.9C104.871 1944.9 100.392 1930.85 93.9092 1919.46Z" fill="white"/>
<path d="M118.688 1979.07C118.688 1979.07 89.5391 1965.45 74.2523 1967.67C74.2523 1967.67 85.5656 2010.86 76.103 2037.46L114.371 2049.47C114.371 2049.47 141.023 2029.54 118.681 1979.07L118.688 1979.07Z" fill="white"/>
<path d="M-8.30522 1912.06C-8.30522 1912.06 3.88858 1905.46 7.9978 1902.12Z" fill="#606060"/>
<path d="M-8.30522 1912.06C-8.30522 1912.06 3.88858 1905.46 7.9978 1902.12" stroke="#3645FF" stroke-width="2" stroke-miterlimit="10" stroke-linecap="round"/>
<path d="M106.134 2009.53L106.965 2008.69C109.912 2005.7 111.859 2003.72 112.043 2001.15C112.194 1999.05 111.033 1997.31 109.406 1997.2C108.488 1997.13 107.566 1997.62 106.928 1998.45C106.415 1997.54 105.071 1996.34 104.152 1996.27C102.525 1996.16 101.13 1997.71 100.979 1999.81C100.795 2002.38 102.44 2004.62 104.932 2008L106.134 2009.53Z" fill="#FF377A"/>
<path d="M115.407 1934.62L121.74 1940.94L124.73 1938.92L118.397 1932.6" fill="#3645FF"/>
<path d="M119.617 1945.78L125.95 1952.09L128.94 1950.07L122.607 1943.76" fill="#3645FF"/>
<path d="M495.719 1973.99C495.719 1973.99 480.166 1951.21 460.572 1954.42C440.978 1957.63 420.526 1962.02 420.526 1962.02V1975.86C420.526 1975.86 425.711 1983.9 455.673 1980.42C485.636 1976.94 480.01 1986.85 480.01 1986.85L495.706 1973.99H495.719Z" fill="#3EBBC3"/>
<path d="M491.681 1893.04C491.681 1893.04 407.419 1876.53 406.99 1976.34C406.561 2076.15 472.23 2102.08 503.777 2087.38C535.325 2072.69 491.681 1893.04 491.681 1893.04Z" fill="#3EBBC3"/>
<path d="M492.269 2069.1C492.269 2069.1 539.798 2086.67 593.369 2086.67C642.731 2086.67 674.474 2081.53 679.177 2080.71H679.19C679.593 2080.65 679.788 2080.61 679.788 2080.61C679.788 2080.61 699.797 2081.33 722.835 2076.39C748.418 2070.89 777.731 2058.41 787.515 2030.21C804.432 1981.48 850.39 2010.98 852.001 2012.03C850.702 2010.69 811.449 1971.27 778.875 1978.07C745.755 1984.98 745.17 2009.47 705.995 2003.99L705.683 2003.95C694.6 2002.39 683.244 2000.27 672.745 1996.99C646.239 1988.66 625.216 1972.81 627.789 1939.46C631.388 1892.81 566.863 1897.7 566.863 1897.7C566.863 1897.7 516.748 1880.42 500.039 1887.34C483.329 1894.25 492.269 2069.1 492.269 2069.1Z" fill="#3EBBC3"/>
<path d="M523.883 1884.74C523.883 1884.74 525.715 1873.83 511.358 1867.03C499.04 1861.2 482.409 1858.39 454.317 1911.96C454.317 1911.96 429.253 1914.56 431.852 1937.88C434.45 1961.21 489.321 1975.9 505.303 1945.22C521.285 1914.55 523.883 1884.73 523.883 1884.73V1884.74Z" fill="#3EBBC3"/>
<path d="M478.933 1882.58C478.933 1882.58 485.845 1856.22 489.302 1851.48C492.758 1846.73 481.09 1851.91 472.021 1887.34L478.933 1882.58Z" fill="#3EBBC3"/>
<path d="M517.138 1914.82C517.774 1915.7 518.619 1916.39 519.736 1916.73C520.113 1916.85 520.516 1916.91 520.958 1916.94C521.802 1916.98 522.478 1916.64 523.037 1915.96C523.518 1915.42 523.92 1914.64 524.297 1913.68C526.805 1907.33 528.416 1892.78 542.241 1879.45C560.717 1861.62 542.566 1871.56 535.978 1875.24C529.39 1878.91 519.126 1888.84 519.126 1888.84L515.124 1906.88C515.124 1906.88 514.955 1911.87 517.138 1914.82Z" fill="#3EBBC3"/>
<path d="M481.974 1919.12C480.886 1918.49 480.778 1916.65 481.733 1914.99C482.687 1913.34 484.343 1912.51 485.43 1913.14C486.518 1913.76 486.626 1915.61 485.671 1917.27C484.717 1918.92 483.061 1919.75 481.974 1919.12Z" fill="#05038B"/>
<path d="M467.974 1911.12C466.886 1910.49 466.778 1908.65 467.733 1906.99C468.687 1905.34 470.343 1904.51 471.43 1905.14C472.518 1905.76 472.626 1907.61 471.671 1909.27C470.717 1910.92 469.061 1911.75 467.974 1911.12Z" fill="#05038B"/>
<path d="M450.064 1915.27C450.064 1915.27 448.816 1918.25 449.271 1922.09" stroke="#05038B" stroke-width="2" stroke-miterlimit="10" stroke-linecap="round"/>
<path d="M496.429 1919.9C496.429 1919.9 494.948 1945.83 466.349 1936.88C462.763 1935.76 459.814 1934.79 457.514 1933.48" stroke="#05038B" stroke-width="2" stroke-miterlimit="10" stroke-linecap="round"/>
<path d="M493.416 1910.66C493.416 1910.66 492.545 1898.42 484.632 1900.86" stroke="#05038B" stroke-width="2" stroke-miterlimit="10" stroke-linecap="round"/>
<path d="M473.397 1896.83C473.397 1896.83 471.24 1890.21 463.457 1897.7" stroke="#05038B" stroke-width="2" stroke-miterlimit="10" stroke-linecap="round"/>
<path d="M493.659 1972.47C493.503 1972.33 493.412 1972.26 493.412 1972.26L464.606 1966.26L456.251 1981.52C456.29 1981.71 456.316 1981.88 456.342 1982.04C476.728 1988.22 488.24 1979.21 493.659 1972.47Z" fill="#3EBBC3"/>
<path d="M679.193 2080.71C679.596 2080.65 679.791 2080.61 679.791 2080.61C679.791 2080.61 699.8 2081.32 722.837 2076.39C726.878 2073.84 730.945 2070.46 733.778 2066.13C741.652 2054.09 748.369 2020.28 704.842 2005.69L705.686 2003.95C694.603 2002.39 683.247 2000.27 672.748 1996.98L691.874 2014.03C691.874 2014.03 712.014 2025.61 710.169 2043.9C708.454 2060.78 702.022 2072.15 679.193 2080.71Z" fill="#FF377A"/>
<path d="M449.058 2040.58C449.642 2062.48 467.495 2079.18 467.495 2079.18V2088.68C467.495 2088.68 519.351 2100.49 532.306 2058.15C539.738 2033.89 525.887 2009.24 512.712 1992.61C500.069 2024.81 471.133 2013.52 456.633 2005.24C454.333 2017.69 448.681 2026.12 449.058 2040.58Z" fill="#3EBBC3"/>
<path d="M457.639 2004.15C457.639 2004.15 447.765 2033.58 447.141 2041.4C446.517 2049.22 447.141 2061.58 462.577 2073.31" stroke="#05038B" stroke-width="2" stroke-miterlimit="10" stroke-linecap="round"/>
<path d="M456.622 2005.24C471.122 2013.52 500.058 2024.81 512.701 1992.61C503.8 1981.38 495.199 1973.81 493.653 1972.47C488.234 1979.21 476.722 1988.22 456.336 1982.05C458.09 1991.66 457.791 1998.96 456.622 2005.24Z" fill="#FF377A"/>
<path d="M521.998 2074.5C521.998 2074.5 550.737 2041.67 512.445 1990.8L494.593 1972.47C494.593 1972.47 489.356 1959.99 480.066 1960.31" stroke="#05038B" stroke-width="2" stroke-miterlimit="10" stroke-linecap="round"/>
<path d="M661.185 1988.58C661.302 1989.35 661.419 1990.11 661.536 1990.88C664.005 2007.24 679.753 2018.97 702.296 2013.41C724.827 2007.85 727.607 1993.65 728.53 1984.08C729.465 1974.51 720.513 1966.79 713.406 1966.79C706.974 1966.79 704.336 1971.1 703.894 1971.91L703.855 1971.99C703.855 1971.99 703.842 1972.03 703.829 1972.04C683.768 2005.08 661.185 1988.58 661.185 1988.58Z" fill="#3EBBC3"/>
<path d="M514.091 1861.35C514.091 1861.35 504.983 1840.51 519.185 1836.81C533.386 1833.1 542.702 1843.24 545.743 1845.45C551.915 1849.97 553.773 1847.6 553.773 1842.06C553.773 1842.06 560.256 1858.78 542.663 1848.72C525.071 1838.66 521.056 1851.01 522.901 1858.43C524.746 1865.85 522.095 1868.07 517.34 1865.7L514.091 1861.35Z" fill="#05038B"/>
<path d="M515.952 1870.15L519.2 1865.82C519.2 1865.82 519.044 1860.41 514.107 1861.34L510.092 1866.59L515.952 1870.13V1870.15Z" fill="#FF377A"/>
<path d="M534.649 1892.69C534.649 1892.69 526.931 1906.28 525.697 1910.59C525.411 1911.59 525.112 1912.71 524.696 1913.79C524.384 1914.59 524.021 1915.36 523.54 1916.06C522.539 1917.56 521.071 1918.67 518.784 1918.79" stroke="#05038B" stroke-width="2" stroke-miterlimit="10" stroke-linecap="round"/>
<path d="M516.137 1915.65C516.449 1915.34 516.774 1915.06 517.138 1914.83C518.788 1914.21 519.736 1915.65 519.736 1916.73C519.71 1916.74 519.697 1916.75 519.671 1916.78C519.152 1917.3 518.853 1918 518.788 1918.79C518.606 1920.78 519.736 1923.41 521.919 1925.59C524.96 1928.64 528.91 1929.64 530.716 1927.84C532.535 1926.02 531.521 1922.08 528.481 1919.03C527.35 1917.9 526.103 1917.05 524.882 1916.52C525.349 1915.73 525.7 1914.88 525.934 1914.21C527.506 1914.82 529.04 1915.81 530.365 1917.13C534.705 1921.47 535.367 1927.85 531.859 1931.36C528.338 1934.88 521.971 1934.22 517.631 1929.88C513.292 1925.54 512.629 1919.16 516.137 1915.65Z" fill="#FF377A"/>
<path d="M556.561 1966.18L609.664 1973.9C613.056 1943.64 640.848 1940.54 640.848 1940.54L655.973 1957.22C682.843 1975.43 714.364 1942.25 714.364 1942.25C732.204 1867.44 660.715 1854.44 617.993 1854.67C570.139 1854.95 533.095 1880.65 530.925 1916.94C528.768 1953.23 556.561 1966.18 556.561 1966.18Z" fill="#3EBBC3"/>
<path d="M451.964 1960.48C451.964 1960.48 473.468 1967.31 486.461 1959.84C497.883 1953.28 500.754 1947.34 503.366 1937.32C505.977 1927.3 506.9 1919.43 506.9 1919.43C506.9 1919.43 504.574 1917.74 502.573 1920.09C502.573 1920.09 500.364 1941.47 494.491 1948.87C492.088 1951.9 476.898 1970.79 436.45 1947.33L444.168 1958.63" fill="#05038B"/>
<path d="M442 1967.7C442 1967.7 448.483 1963.59 445.885 1956.46C443.286 1949.32 439.401 1949.32 439.401 1949.32C439.401 1949.32 439.401 1938.96 429.032 1939.38C429.032 1939.38 420.171 1929.42 410.023 1939.37C399.875 1949.32 402.89 1979.78 439.843 1982.38C476.796 1984.98 465.556 1980.22 465.556 1980.22L457.566 1968.35L442.013 1967.7H442Z" fill="#3EBBC3"/>
<path d="M419.012 1961.07C419.012 1961.07 421.948 1946.87 435.227 1947.79C448.506 1948.72 451.443 1969.25 438.32 1969.25C425.196 1969.25 431.992 1953.34 440.321 1959.98" stroke="#05038B" stroke-width="2" stroke-miterlimit="10" stroke-linecap="round"/>
<path d="M454.276 1960.07C454.276 1960.07 449.872 1962.15 450.339 1965.4C450.807 1968.65 455.589 1972.51 460.682 1972.12C465.775 1971.73 466.399 1970.18 465.853 1968.41C465.308 1966.65 461.605 1966.63 461.605 1966.63C461.605 1966.63 468.764 1965.09 468.244 1970.1C467.724 1975.12 442.154 1983.23 446.402 1954.98L454.276 1960.07Z" fill="#05038B"/>
<path d="M541.338 1876.49C541.338 1876.49 525.356 1888.06 518.872 1899.88" stroke="#05038B" stroke-width="2" stroke-miterlimit="10" stroke-linecap="round"/>
<path d="M527.977 1888.18C527.977 1888.18 531.395 1897.33 522.364 1903.81" stroke="#05038B" stroke-width="2" stroke-miterlimit="10" stroke-linecap="round"/>
<path d="M507.539 1919.55C507.539 1919.55 496.196 1916.77 485.308 1923.72" stroke="#05038B" stroke-width="2" stroke-miterlimit="10" stroke-linecap="round"/>
<path d="M460.993 1904.96C460.993 1904.96 464.787 1913.85 462.202 1916.93" stroke="#05038B" stroke-width="2" stroke-miterlimit="10" stroke-linecap="round"/>
<path d="M472.999 1903.5C472.999 1903.5 473.824 1914.45 463.507 1915.3C443.718 1916.92 436.936 1937.66 450.981 1934.74C465.027 1931.81 474.421 1925.67 474.421 1925.67" fill="#3EBBC3"/>
<path d="M472.999 1903.5C472.999 1903.5 473.824 1914.45 463.507 1915.3C443.718 1916.92 436.936 1937.66 450.981 1934.74C465.027 1931.81 474.421 1925.67 474.421 1925.67" stroke="#05038B" stroke-width="2" stroke-miterlimit="10" stroke-linecap="round"/>
<path d="M668.624 1945.48C668.624 1945.48 620.458 1924.62 608.725 1975.19" stroke="#05038B" stroke-width="2" stroke-miterlimit="10" stroke-linecap="round"/>
<path d="M710.313 1978.68C710.313 1978.68 718.304 1977.09 718.031 1985.32C717.693 1995.39 694.89 1994.7 699.58 1975.2" stroke="#05038B" stroke-width="2" stroke-miterlimit="10" stroke-linecap="round"/>
<path d="M655.97 1957.21C655.97 1957.21 658.776 1972.92 661.18 1988.58C661.18 1988.58 683.763 2005.08 703.824 1972.04C703.824 1972.03 703.824 1972 703.85 1971.99L703.889 1971.91C708.801 1961.07 712.218 1951.21 714.362 1942.25C714.362 1942.25 682.84 1975.43 655.97 1957.21Z" fill="#FF377A"/>
<path d="M480.98 1874.15C480.98 1874.15 478.199 1876.69 477.134 1878.42" stroke="#05038B" stroke-width="2" stroke-miterlimit="10" stroke-linecap="round"/>
<path d="M439.942 1950.34C439.942 1950.34 437.395 1939.71 425.584 1939.71C411.681 1939.71 411.681 1958.2 411.681 1958.2" stroke="#05038B" stroke-width="2" stroke-miterlimit="10" stroke-linecap="round"/>
<path d="M430.915 1941.22C430.915 1941.22 426.432 1932.21 413.621 1936.53" stroke="#05038B" stroke-width="2" stroke-miterlimit="10" stroke-linecap="round"/>
<path d="M715.865 2008.47C715.865 2008.47 673.494 2028.16 661.683 1996.43" stroke="#05038B" stroke-width="2" stroke-miterlimit="10" stroke-linecap="round"/>
<path d="M470.84 1980.68C470.84 1980.68 453.468 1983.46 440.28 1982.31C427.092 1981.15 414.345 1977.68 410.642 1968.18" stroke="#05038B" stroke-width="2" stroke-miterlimit="10" stroke-linecap="round"/>
<path d="M557.533 1964.63C557.533 1964.63 511.835 1939.62 539.94 1893.31" stroke="#05038B" stroke-width="2" stroke-miterlimit="10" stroke-linecap="round"/>
<path d="M463.459 1894.13C463.459 1894.13 456.572 1904.99 454.312 1911.96C454.312 1911.96 427.415 1908.9 432.236 1941.09" stroke="#05038B" stroke-width="2" stroke-miterlimit="10" stroke-linecap="round"/>
</g>
<defs>
<linearGradient id="paint0_linear_36_1725" x1="375" y1="0" x2="375" y2="5685" gradientUnits="userSpaceOnUse">
<stop stop-color="#05038B"/>
<stop offset="1" stop-color="#5939A3"/>
</linearGradient>
<clipPath id="clip0_36_1725">
<rect width="750" height="5685" fill="white" transform="translate(0.000854492 -3681)"/>
</clipPath>
</defs>
</svg>
