<svg width="750" height="1704" viewBox="0 0 750 1704" fill="none" xmlns="http://www.w3.org/2000/svg">
<g clip-path="url(#clip0_36_3358)">
<rect width="750" height="1704" fill="white"/>
<g clip-path="url(#clip1_36_3358)">
<rect width="750" height="3934" transform="translate(0.000854492 -2230)" fill="black"/>
<path d="M119.593 -0.312988H144.554L141.938 15.8558H123.164L119.593 -0.312988Z" fill="#60B860"/>
<path d="M65.1264 1621.7C65.1264 1621.7 56.9353 1625.97 52.6343 1626.22C52.6343 1626.22 49.9649 1640.12 45.5235 1643.97C45.5235 1643.97 80.4425 1642.57 99.7962 1610.79L72.0373 1603.59C72.0373 1603.59 70.1711 1613.98 65.1225 1621.69L65.1264 1621.7Z" fill="#FF377A"/>
<path d="M158.173 1612.35C158.173 1612.35 188.928 1612.56 206.15 1617.05L227.031 1651.57C227.031 1651.57 184.933 1635.42 178.678 1634.82C178.678 1634.82 168.988 1621.84 158.173 1612.35Z" fill="white"/>
<path d="M205.28 1665.34C205.28 1665.34 170.136 1661.65 155.064 1669.44C155.064 1669.44 182.302 1710.22 182.022 1741.23L226.05 1739.96C226.05 1739.96 246.569 1709.72 205.273 1665.34L205.28 1665.34Z" fill="white"/>
<path d="M277.001 1709.71C277.001 1709.71 237.921 1717.4 212.552 1733.4L276.336 1824.27C276.336 1824.27 325.168 1801.94 353.407 1797.64C353.407 1797.64 308.058 1732.43 276.998 1709.72L277.001 1709.71Z" fill="#FF377A"/>
<path d="M49.4199 1641.33C49.4199 1641.33 59.7109 1630.11 62.7771 1625.16Z" fill="#606060"/>
<path d="M49.4199 1641.33C49.4199 1641.33 59.7109 1630.11 62.7771 1625.16" stroke="#3645FF" stroke-width="2" stroke-miterlimit="10" stroke-linecap="round"/>
<path d="M203.176 1701.46L203.735 1700.29C205.723 1696.13 207.034 1693.38 206.303 1690.64C205.704 1688.4 203.878 1687.02 202.148 1687.48C201.17 1687.74 200.389 1688.58 200.023 1689.67C199.164 1688.91 197.339 1688.15 196.361 1688.41C194.631 1688.87 193.739 1690.98 194.338 1693.22C195.069 1695.95 197.577 1697.68 201.376 1700.3L203.176 1701.46Z" fill="#FF377A"/>
<path d="M185.926 1620.38L194.766 1624.66L197.144 1621.49L188.305 1617.21" fill="#3645FF"/>
<path d="M194.298 1630.44L203.137 1634.73L205.516 1631.56L196.676 1627.27" fill="#3645FF"/>
</g>
</g>
<defs>
<clipPath id="clip0_36_3358">
<rect width="750" height="1704" fill="white"/>
</clipPath>
<clipPath id="clip1_36_3358">
<rect width="750" height="3934" fill="white" transform="translate(0.000854492 -2230)"/>
</clipPath>
</defs>
</svg>
