<svg width="750" height="2035" viewBox="0 0 750 2035" fill="none" xmlns="http://www.w3.org/2000/svg">
<g clip-path="url(#clip0_371_746)">
<rect width="750" height="2035" fill="white"/>
<g clip-path="url(#clip1_371_746)">
<rect width="750" height="5682" fill="url(#paint0_linear_371_746)"/>
<circle cx="316.5" cy="254.5" r="1.5" fill="#FFA2D1"/>
<circle cx="264" cy="343" r="2" fill="#FFA2D1"/>
<circle cx="340.5" cy="423.5" r="1.5" fill="#FFA2D1"/>
<circle cx="500" cy="379" r="2" fill="#FFA2D1"/>
<circle cx="613" cy="593" r="2" fill="#FFA2D1"/>
<circle cx="518" cy="1218" r="2" fill="#FFA2D1"/>
<circle cx="351" cy="1506" r="2" fill="#FFA2D1"/>
<circle cx="550" cy="1519" r="2" fill="#FFA2D1"/>
<circle cx="647" cy="505" r="2" fill="#FFA2D1"/>
<circle cx="290" cy="460" r="2" fill="#FFA2D1"/>
<circle cx="111" cy="359" r="2" fill="#FFA2D1"/>
<circle cx="462.5" cy="300.5" r="1.5" fill="#FFA2D1"/>
<circle cx="240" cy="782" r="2" fill="#FFA2D1"/>
<circle cx="552.5" cy="648.5" r="1.5" fill="#FFA2D1"/>
<circle cx="686.5" cy="587.5" r="1.5" fill="#FFA2D1"/>
<circle cx="195.5" cy="1614.5" r="1.5" fill="#FFA2D1"/>
<circle cx="209" cy="845" r="2" fill="#FFA2D1"/>
<circle cx="195.5" cy="996.5" r="1.5" fill="#FFA2D1"/>
<circle cx="140.5" cy="1160.5" r="1.5" fill="#FFA2D1"/>
<circle cx="281.5" cy="1246.5" r="1.5" fill="#FFA2D1"/>
<circle cx="646.5" cy="1099.5" r="1.5" fill="#FFA2D1"/>
<circle cx="159.5" cy="1475.5" r="1.5" fill="#FFA2D1"/>
<circle cx="19.5" cy="1290.5" r="1.5" fill="#FFA2D1"/>
<circle cx="259" cy="1615" r="2" fill="#FFA2D1"/>
<circle cx="606.5" cy="1631.5" r="1.5" fill="#FFA2D1"/>
<circle cx="314.5" cy="1583.5" r="1.5" fill="#FFA2D1"/>
<circle cx="28" cy="989" r="2" fill="#FFA2D1"/>
<circle cx="306.5" cy="815.5" r="1.5" fill="#FFA2D1"/>
<circle cx="604.5" cy="304.5" r="1.5" fill="#FFA2D1"/>
<circle cx="730.5" cy="370.5" r="1.5" fill="#FFA2D1"/>
<circle cx="198.5" cy="286.5" r="1.5" fill="#FFA2D1"/>
<circle cx="-51" cy="1941" r="88" fill="#3A2096"/>
<circle cx="90" cy="2001" r="88" fill="#3A2096"/>
<circle cx="223" cy="2036" r="88" fill="#3A2096"/>
<circle cx="350" cy="2002" r="88" fill="#3A2096"/>
<ellipse cx="489" cy="1970.5" rx="88" ry="88.5" fill="#3A2096"/>
<circle cx="623" cy="1917" r="88" fill="#3A2096"/>
<circle cx="736" cy="1833" r="88" fill="#3A2096"/>
<circle cx="801" cy="1921" r="88" fill="#4C319F"/>
<path fill-rule="evenodd" clip-rule="evenodd" d="M431.64 1657.78C430.75 1658.46 429.77 1658.92 428.73 1659.2C423.25 1660.68 416.23 1656.92 411.21 1654.64L410.58 1653.75C412.42 1652.54 412.28 1653.29 414.13 1652.1C414.42 1650.59 415.48 1649.24 416.4 1648.64C418.02 1652.84 416.82 1654.95 420.57 1656.43C433.26 1661.94 434.14 1640.38 418.97 1643.69C409.82 1645.05 409.86 1657.47 394.67 1660.79L391.12 1662.44C389.54 1670.69 396.65 1667.38 400.47 1672.78L363.78 1665.76C367.33 1664.11 372.95 1664.4 377.01 1664.4C379.49 1664.09 378.5 1660.8 378.01 1659.15C367.5 1654.81 361.37 1640.44 355.34 1633.85C353.7 1631.91 352.17 1630.25 350.74 1628.82C348.76 1626.87 346.94 1625.33 345.17 1624.12C338.3 1619.38 332.32 1619.34 322.07 1617.38C332.56 1613.17 332.42 1613.92 344.64 1617.81C345.29 1618 345.93 1618.19 346.56 1618.38C349.28 1619.23 351.86 1620.16 354.32 1621.22C358.09 1622.84 361.56 1624.76 364.7 1627.09C374.12 1632.77 386.17 1645.96 403.56 1643.84C395 1642.2 390.16 1642.06 382.92 1637.56C379.33 1635.32 371.45 1629.92 369.54 1627.23L389.19 1630.21C384.64 1628.57 379.82 1628.42 377.91 1625.72C381.39 1620.19 385.29 1620.92 390.53 1618.83L390.56 1618.81C390.56 1618.81 390.56 1618.82 390.53 1618.81C389.53 1615.52 386.58 1614.17 392.6 1612.21C397.63 1615.52 395.15 1615.81 392.88 1619.27C395.57 1622.12 398.06 1621.81 400.46 1626.16C402.23 1629.6 401.65 1632.6 404.49 1634.71C409.54 1638.01 419.75 1635.28 427.76 1639.93C429.3 1640.83 430.71 1642.1 431.84 1643.58C435.02 1647.68 436.05 1653.44 431.64 1657.76V1657.78Z" fill="#FF377A"/>
<path d="M293.783 1774.82C297.923 1775.28 303.173 1769.95 307.773 1764.91L277.053 1738.81L280.613 1728.59C268.413 1721.02 251.873 1711.39 249.333 1715.06C245.643 1720.35 285.733 1773.92 293.793 1774.81L293.783 1774.82Z" fill="#FF377A"/>
<path d="M277.055 1738.79L307.775 1764.89C308.195 1764.42 308.625 1763.97 309.025 1763.51C311.955 1760.28 314.535 1757.4 316.275 1756.61C320.925 1754.47 378.835 1724.38 378.835 1724.38L351.115 1702.12C351.115 1702.12 310.025 1735.4 306.675 1737.68C303.345 1739.94 299.385 1739.94 292.775 1736.14C291.915 1735.66 290.655 1734.85 289.055 1733.84C286.785 1732.42 283.855 1730.56 280.635 1728.58L277.075 1738.81V1738.78L277.055 1738.79Z" fill="white"/>
<path d="M625.836 1680.56V1692.2L652.246 1687.45V1670.55L625.836 1680.56Z" fill="white"/>
<path d="M623.061 1607.69C623.061 1607.69 591.331 1610.03 588.941 1630C587.001 1646.18 597.981 1650.01 597.981 1650.01C597.981 1650.01 587.431 1633.17 604.791 1621.47C604.791 1621.47 589.811 1639.51 603.811 1656.25L619.451 1623.76L623.061 1607.68V1607.69Z" fill="#FF377A"/>
<path d="M477.275 1659.07C477.275 1659.07 463.555 1650.55 458.345 1646.76C453.135 1642.98 449.035 1639.82 444.625 1644.24C440.205 1648.66 434.685 1654.04 433.625 1654.63C432.565 1655.22 438.475 1657.49 443.675 1653.31C443.675 1653.31 447.455 1651.73 448.525 1653.63C448.525 1653.63 448.165 1659.78 457.985 1659.66" fill="white"/>
<path d="M431.731 1647C431.731 1647 429.951 1647.83 429.951 1651.38C429.951 1654.93 431.731 1657.06 431.731 1657.06C431.731 1657.06 429.371 1659.07 429.951 1662.62C430.531 1666.17 432.441 1666.29 432.441 1666.29C432.441 1666.29 427.701 1670.2 433.501 1671.5C439.301 1672.8 448.291 1671.5 448.291 1669.6C448.291 1667.7 444.151 1666.52 444.151 1666.52C444.151 1666.52 448.761 1665.69 448.761 1662.03C448.761 1658.37 442.141 1657.77 442.141 1657.77L441.841 1647H431.731Z" fill="white"/>
<path d="M477.273 1672.79C477.273 1672.79 464.963 1672.07 460.243 1672.01C455.503 1671.96 438.473 1672.79 432.203 1669.71L433.493 1646.05L467.213 1667.93L477.273 1672.78V1672.79Z" fill="white"/>
<path d="M479.116 1659.51L439.876 1650.2L438.016 1665.63L482.796 1676.38L479.116 1659.51Z" fill="white"/>
<path d="M450.604 1658.73C450.604 1658.73 450.894 1663.2 446.274 1663.98C441.654 1664.76 434.594 1664.33 434.594 1664.33" stroke="#05038B" stroke-width="2" stroke-miterlimit="10" stroke-linecap="round"/>
<path d="M450.799 1665.12C450.799 1665.12 451.089 1669.6 446.469 1670.38C441.849 1671.15 434.789 1670.72 434.789 1670.72" stroke="#05038B" stroke-width="2" stroke-miterlimit="10" stroke-linecap="round"/>
<path d="M433.695 1648.11L437.545 1649.07" stroke="#05038B" stroke-width="2" stroke-miterlimit="10" stroke-linecap="round"/>
<path d="M635.714 1692.06L476.974 1658.89L471.734 1673.72L599.934 1712.3L635.714 1692.07V1692.06Z" fill="white"/>
<path d="M344.445 1706.5L357.325 1722.48C363.615 1716.03 372.165 1707.5 383.375 1696.65C413.565 1667.44 448.345 1696.65 448.345 1696.65C448.345 1696.65 499.575 1745.14 528.375 1770.23C503.945 1742.01 455.095 1679.55 455.095 1679.55C455.095 1679.55 424.595 1645.92 390.735 1670.76C356.885 1695.61 344.455 1706.49 344.455 1706.49L344.445 1706.5Z" fill="#05038B"/>
<path d="M298.899 1816.67C303.059 1816.67 307.689 1810.8 311.719 1805.28L278.309 1782.73L280.729 1772.18C267.769 1765.99 250.269 1758.27 248.149 1762.18C245.069 1767.85 290.829 1816.67 298.919 1816.67H298.899Z" fill="#FF377A"/>
<path d="M278.289 1782.72L311.699 1805.28C312.069 1804.76 312.439 1804.27 312.789 1803.77C315.349 1800.24 317.589 1797.09 319.239 1796.11C323.619 1793.47 377.849 1757.18 377.849 1757.18L347.849 1738.13C347.849 1738.13 310.679 1775.74 307.609 1778.37C304.549 1780.99 300.609 1781.43 293.619 1778.37C292.719 1777.99 291.379 1777.32 289.669 1776.49C287.249 1775.33 284.149 1773.81 280.719 1772.18L278.299 1782.73L278.289 1782.72Z" fill="white"/>
<path d="M342.379 1738.3L377.159 1771.1L415.209 1739.61C415.209 1739.61 451.049 1788.19 477.119 1818.03L477.139 1818.05C484.539 1826.52 491.129 1833.48 495.909 1837.38C509.289 1848.31 521.169 1857.26 532.229 1862.5C539.079 1865.74 545.619 1867.56 552.019 1867.56C568.749 1867.56 591.709 1862.96 623.209 1811.11L564.809 1772.4C564.809 1772.4 564.459 1772.84 563.839 1773.55C560.969 1776.77 552.479 1785.68 547.089 1784.9C546.649 1784.82 545.839 1784.38 544.689 1783.59C541.469 1781.4 535.639 1776.56 528.379 1770.24C528.359 1770.24 528.359 1770.22 528.359 1770.22C499.569 1745.12 448.329 1696.64 448.329 1696.64C448.329 1696.64 413.549 1667.43 383.359 1696.64C372.149 1707.48 363.599 1716.03 357.309 1722.47C346.629 1733.39 342.359 1738.3 342.359 1738.3H342.379Z" fill="#05038B"/>
<path d="M586.965 1795.21C586.965 1795.21 572.585 1851.8 548.855 1831.91C533.825 1819.31 449.025 1718.33 442.985 1712.29C438.005 1707.31 422.275 1689.21 405.545 1703.98C388.815 1718.75 354.445 1754.4 354.445 1754.4" stroke="white" stroke-width="2" stroke-miterlimit="10" stroke-linecap="round"/>
<path d="M656.679 1679.68C656.679 1679.68 636.779 1690.4 624.309 1687.77C624.309 1687.77 623.659 1694.55 621.469 1695.86C619.289 1697.17 597.209 1707.71 592.599 1709.42C584.839 1712.29 588.189 1723.65 588.629 1737.87C588.629 1737.87 572.259 1764.53 559.359 1772.41C559.359 1772.41 556.079 1802.15 627.379 1817.68C627.379 1817.68 648.599 1771.75 661.279 1754.69C673.959 1737.63 671.559 1722.54 666.309 1714.66C661.059 1706.79 656.239 1689.29 656.689 1679.66H656.679V1679.68Z" fill="#FF8F9C"/>
<path d="M462.766 1935.9H624.966L670.656 1732.52H711.176" stroke="#FF377A" stroke-width="4" stroke-miterlimit="10" stroke-linecap="round"/>
<path d="M665.596 1752.18H414.336L459.256 1861.01H641.436" stroke="#FF377A" stroke-width="4" stroke-linecap="round" stroke-linejoin="round"/>
<path d="M644.946 1845.63H452.766" stroke="#FF377A" stroke-width="4" stroke-miterlimit="10" stroke-linecap="round"/>
<path d="M650.22 1821.8H443" stroke="#FF377A" stroke-width="4" stroke-miterlimit="10" stroke-linecap="round"/>
<path d="M655.053 1799.62H433.883" stroke="#FF377A" stroke-width="4" stroke-miterlimit="10" stroke-linecap="round"/>
<path d="M659.983 1776.68H425.203" stroke="#FF377A" stroke-width="4" stroke-miterlimit="10" stroke-linecap="round"/>
<path d="M634.513 1752.18L620.023 1861.01" stroke="#FF377A" stroke-width="4" stroke-miterlimit="10" stroke-linecap="round"/>
<path d="M596.732 1752.18L588.492 1861.01" stroke="#FF377A" stroke-width="4" stroke-miterlimit="10" stroke-linecap="round"/>
<path d="M558.31 1752.18L556 1861.01" stroke="#FF377A" stroke-width="4" stroke-miterlimit="10" stroke-linecap="round"/>
<path d="M527.226 1861.01L524.586 1752.18" stroke="#FF377A" stroke-width="4" stroke-miterlimit="10" stroke-linecap="round"/>
<path d="M474.84 1861.01L450.68 1752.18" stroke="#FF377A" stroke-width="4" stroke-miterlimit="10" stroke-linecap="round"/>
<path d="M497.016 1861.01L488.336 1752.18" stroke="#FF377A" stroke-width="4" stroke-miterlimit="10" stroke-linecap="round"/>
<path d="M613.543 1975.32C602.673 1975.32 593.883 1966.53 593.883 1955.66C593.883 1944.79 602.673 1936 613.543 1936C624.413 1936 633.203 1944.79 633.203 1955.66C633.203 1966.53 624.413 1975.32 613.543 1975.32Z" fill="#FF377A" stroke="#FF377A" stroke-width="4" stroke-miterlimit="10" stroke-linecap="round"/>
<path d="M613.653 1965.44C608.163 1965.44 603.773 1961.05 603.773 1955.56C603.773 1950.07 608.163 1945.68 613.653 1945.68C619.143 1945.68 623.533 1950.07 623.533 1955.56C623.533 1961.05 619.143 1965.44 613.653 1965.44Z" fill="white"/>
<path d="M464.926 1975.32C454.056 1975.32 445.266 1966.53 445.266 1955.66C445.266 1944.79 454.056 1936 464.926 1936C475.796 1936 484.586 1944.79 484.586 1955.66C484.586 1966.53 475.796 1975.32 464.926 1975.32Z" fill="#FF377A" stroke="#FF377A" stroke-width="4" stroke-miterlimit="10" stroke-linecap="round"/>
<path d="M464.306 1964.35C459.476 1964.35 455.516 1960.4 455.516 1955.56C455.516 1950.72 459.476 1946.77 464.306 1946.77C469.136 1946.77 473.086 1950.72 473.086 1955.56C473.086 1960.4 469.246 1964.35 464.306 1964.35Z" fill="white"/>
<path d="M665.582 1716.58C655.632 1711.64 645.092 1725.9 642.082 1730.79C639.132 1735.54 615.722 1779.23 615.722 1779.23L563.072 1740.55L563.022 1740.49L561.112 1739.15C561.282 1739.27 561.092 1739.13 561.072 1739.13C560.462 1738.78 559.762 1738.38 558.782 1737.99C558.202 1737.75 557.552 1737.52 556.812 1737.3C555.242 1736.82 553.332 1736.41 550.992 1736.09C550.662 1736.06 550.322 1736.01 549.962 1735.97C548.542 1735.82 547.022 1735.74 545.352 1735.71C544.562 1735.7 543.732 1735.71 542.872 1735.71C542.542 1735.71 542.212 1735.72 541.862 1735.75C541.752 1735.75 541.662 1735.75 541.542 1735.75C540.582 1735.79 539.682 1735.86 538.802 1735.99C538.602 1735.99 538.422 1736.04 538.222 1736.06C537.862 1736.12 537.522 1736.16 537.162 1736.22C532.232 1737 527.642 1738.86 524.922 1742.62C524.472 1743.23 524.032 1743.9 523.622 1744.56C521.552 1747.36 520.372 1750.28 519.532 1752.37C519.372 1752.73 519.242 1753.06 519.112 1753.37C514.712 1763.86 512.712 1775.1 514.332 1775.07C515.952 1775.02 520.562 1763.65 523.172 1759.33C523.412 1758.88 524.222 1759.13 524.212 1759.71C523.742 1763.07 523.482 1766.8 523.832 1770.06C524.262 1774.14 525.012 1779.3 526.992 1778.9C528.162 1778.71 527.592 1771.82 528.082 1767.99C528.452 1764.5 529.142 1761.14 530.082 1761.06C531.592 1761.12 530.372 1765.84 531.322 1772.05C531.602 1773.81 534.062 1782.87 535.592 1782.11C537.152 1781.22 536.852 1776.21 536.242 1773.75C535.442 1770.33 535.622 1762.41 537.132 1762.47C538.752 1762.53 537.642 1773.67 539.932 1775.28C541.852 1776.62 542.652 1764.2 542.762 1761.05C542.782 1760.46 543.142 1760.01 543.612 1759.79C545.522 1759.01 549.892 1757.16 553.382 1754.5C566.312 1767.99 594.402 1790.21 602.512 1798.28C612.912 1808.64 621.052 1806.39 625.252 1804.71C631.492 1802.26 635.382 1794.77 637.672 1790.66C639.962 1786.53 667.382 1743.42 668.932 1740.9C671.622 1736.52 674.422 1720.94 665.552 1716.54V1716.56L665.582 1716.58Z" fill="white"/>
<path d="M618.755 1614.09C618.755 1614.09 606.075 1621.75 606.405 1633.23C606.735 1644.71 606.505 1648.98 603.125 1651.49C599.735 1654 595.805 1655.2 598.425 1659.15C601.045 1663.1 603.895 1667.46 604.765 1671.07C605.645 1674.68 606.545 1679.16 607.275 1681.57C608.155 1684.41 610.885 1684.3 625.215 1681.57H642.495L661.955 1671.41L648.075 1642.75L618.775 1614.09H618.755Z" fill="white"/>
<path d="M606.766 1669.28C606.766 1669.28 612.676 1669.28 615.956 1666.65" stroke="#05038B" stroke-width="2" stroke-miterlimit="10" stroke-linecap="round"/>
<path d="M613.125 1611.3C613.125 1611.3 615.295 1664.75 650.205 1646.07L644.975 1607.7L613.125 1611.31V1611.3Z" fill="#FF377A"/>
<path d="M906.995 1665.8C906.995 1665.8 892.095 1662.52 881.885 1675.64C871.665 1688.76 848.675 1697.63 835.905 1698.28C835.905 1698.28 843.145 1699.26 845.275 1705.17C845.275 1705.17 833.355 1700.91 824.415 1705.17C815.475 1709.43 805.265 1714.69 787.385 1708.78C769.505 1702.87 753.335 1691.07 729.075 1692.37C704.815 1693.68 671.185 1676.29 671.185 1676.29L659.695 1619.21L605.875 1614.68C605.875 1614.68 637.965 1586.99 661.245 1607.68H661.255C663.475 1609.5 665.725 1609.11 674.755 1608.75C684.685 1607.87 699.695 1608.06 712.055 1614.61C732.485 1625.44 752.915 1615.93 761.855 1614.61C770.795 1613.3 793.775 1605.43 809.945 1626.75C826.125 1648.07 833.355 1651.68 846.985 1650.05C860.605 1648.4 864.005 1633.64 850.815 1630.36C850.815 1630.36 871.245 1627.77 870.385 1650.39C870.385 1650.39 878.045 1644.79 876.355 1637.25C876.355 1637.25 886.635 1645.12 876.595 1660.87C876.595 1660.87 896.785 1653.33 906.995 1665.79V1665.8Z" fill="#FF377A"/>
<path d="M650.209 1653C650.209 1653 635.889 1690.48 665.629 1682.52C695.369 1674.55 699.319 1667.31 699.319 1667.31L667.479 1613.11L641.789 1608.14L650.209 1653.01V1653Z" fill="#FF377A"/>
<path d="M646.914 1664.72C652.264 1664.72 656.594 1660.39 656.594 1655.04C656.594 1649.69 652.264 1645.36 646.914 1645.36C641.564 1645.36 637.234 1649.69 637.234 1655.04C637.234 1660.39 641.564 1664.72 646.914 1664.72Z" fill="white"/>
<path d="M650.785 1650.33C650.785 1650.33 641.595 1650.33 643.245 1658.53" stroke="#05038B" stroke-width="2" stroke-miterlimit="10" stroke-linecap="round"/>
<path d="M644.422 1652.93C644.422 1652.93 649.312 1652.85 649.232 1658.7" stroke="#05038B" stroke-width="2" stroke-miterlimit="10" stroke-linecap="round"/>
<path d="M361.109 1718.62C361.109 1718.62 381.869 1697.16 389.079 1691.82C396.299 1686.48 421.909 1672.07 455.379 1703.27C488.849 1734.48 502.629 1746.85 502.629 1746.85" stroke="white" stroke-width="2" stroke-miterlimit="10" stroke-linecap="round"/>
<path d="M628.609 1624.54C628.609 1624.54 628.399 1643.87 646.909 1641.64" stroke="#B72858" stroke-width="2" stroke-miterlimit="10" stroke-linecap="round"/>
<path d="M667.213 1640.36C667.213 1640.36 663.253 1658.48 693.953 1657.29C724.653 1656.1 743.723 1647.24 751.003 1660.31" stroke="#B72858" stroke-width="2" stroke-miterlimit="10" stroke-linecap="round"/>
<path d="M787.855 1674.48C787.855 1674.48 772.775 1682.25 759.965 1679.05C747.155 1675.85 729.085 1654.92 701.195 1656.92" stroke="#B72858" stroke-width="2" stroke-miterlimit="10" stroke-linecap="round"/>
<path d="M614.021 1649.24C614.021 1647.56 613.071 1646.2 611.901 1646.2C610.731 1646.2 609.781 1647.56 609.781 1649.24C609.781 1650.92 610.731 1652.28 611.901 1652.28C613.071 1652.28 614.021 1650.92 614.021 1649.24Z" fill="#05038B"/>
<path d="M619.406 1642.34C619.406 1642.34 615.076 1636.57 608.336 1639.94" stroke="#05038B" stroke-width="2" stroke-miterlimit="10" stroke-linecap="round"/>
<path d="M423.812 1649.15C417.902 1648.33 419.532 1639.74 425.042 1640.27C434.802 1641.2 446.012 1643.58 444.122 1647.45C442.502 1650.77 427.412 1649.65 423.812 1649.15Z" fill="white"/>
<path d="M428.749 1658.55C422.789 1658.78 422.889 1650.03 428.409 1649.59C438.179 1648.8 449.639 1649.18 448.459 1653.33C447.449 1656.88 432.389 1658.41 428.759 1658.55H428.749Z" fill="white"/>
<path d="M450.246 1642.21C450.246 1642.21 432.406 1637.58 428.516 1635.66C424.626 1633.74 425.776 1645.77 444.276 1649.35C462.776 1652.93 450.246 1642.21 450.246 1642.21Z" fill="white"/>
<path d="M444.742 1649.25C444.742 1649.25 445.922 1659.72 458.462 1661.29" stroke="#05038B" stroke-width="2" stroke-miterlimit="10" stroke-linecap="round"/>
<path d="M430.164 1649.46C430.164 1649.46 444.404 1650.4 444.334 1647C444.264 1643.6 434.904 1641.88 434.904 1641.88" stroke="#05038B" stroke-width="2" stroke-miterlimit="10" stroke-linecap="round"/>
<path d="M445.344 1652.48C445.344 1652.48 445.814 1656.14 442.064 1657.03C438.304 1657.91 432.484 1657.93 432.484 1657.93" stroke="#05038B" stroke-width="2" stroke-miterlimit="10" stroke-linecap="round"/>
<path d="M54.8779 1696.33H-6.17529C-8.38443 1696.33 -10.1753 1698.12 -10.1753 1700.33V1753.98C-10.1753 1756.19 -8.38443 1757.98 -6.17529 1757.98H54.8779C57.087 1757.98 58.8779 1756.19 58.8779 1753.98V1700.33C58.8779 1698.12 57.087 1696.33 54.8779 1696.33Z" fill="#935AFF"/>
<rect x="34.2139" y="1696.33" width="61.6546" height="2.46618" transform="rotate(90 34.2139 1696.33)" fill="#FDBD1F"/>
<rect x="-6.72754" y="1724.09" width="65.4" height="3.0069" fill="#FDBD1F"/>
<path d="M25.7484 1711.72C20.5595 1709.37 15.8072 1714.46 16.7617 1718.07C18.8129 1725.8 33.0799 1726.74 33.0799 1726.74C32.9885 1725.43 33.6079 1715.27 25.7484 1711.72ZM30.9373 1724.48C30.9373 1724.48 21.1281 1723.25 19.8994 1718.59C19.3206 1716.41 22.1842 1713.35 25.3117 1714.76C30.0437 1716.9 30.8764 1723.69 30.9373 1724.47V1724.48Z" fill="#FDBD1F"/>
<path d="M31.6011 1725.93L20.7393 1736.18L23.1033 1738.26L33.8922 1725.93H31.6011Z" fill="#FDBD1F"/>
<path d="M33.083 1726.74C33.083 1726.74 47.35 1725.8 49.4012 1718.07C50.3557 1714.46 45.6035 1709.37 40.4145 1711.72C32.555 1715.27 33.1744 1725.43 33.083 1726.74ZM40.8512 1714.77C43.9787 1713.35 46.8423 1716.42 46.2635 1718.6C45.0348 1723.26 35.2256 1724.48 35.2256 1724.48C35.2764 1723.69 36.1192 1716.91 40.8512 1714.77Z" fill="#FDBD1F"/>
<path d="M35.0488 1725.93L45.4139 1736.18L43.1503 1738.26L33.083 1726.08L35.0488 1725.93Z" fill="#FDBD1F"/>
<path d="M107.105 1757.43H-6.46533C-8.67447 1757.43 -10.4653 1759.22 -10.4653 1761.43V1877.89C-10.4653 1880.1 -8.67447 1881.89 -6.46533 1881.89H107.105C109.315 1881.89 111.105 1880.1 111.105 1877.89V1761.43C111.105 1759.22 109.315 1757.43 107.105 1757.43Z" fill="#3EBBC3"/>
<rect x="-10.1431" y="1799.91" width="121.665" height="5.75443" fill="#2362AF"/>
<rect x="77.8091" y="1757.16" width="125.775" height="5.75442" transform="rotate(90 77.8091 1757.16)" fill="#2362AF"/>
<path d="M74.359 1800.93C74.6758 1799.18 65.8803 1783.9 62.7121 1781.37C59.559 1778.82 48.3798 1790.57 48.2138 1793.12C48.0479 1795.67 70.1045 1802.46 71.5378 1802.73C72.971 1803.01 74.359 1800.92 74.359 1800.92V1800.93Z" fill="#2362AF"/>
<path d="M75.6036 1800.93C75.2867 1799.18 84.0823 1783.9 87.2504 1781.37C90.4186 1778.82 101.598 1790.57 101.749 1793.12C101.915 1795.67 79.858 1802.46 78.4248 1802.73C76.9915 1803.01 75.6036 1800.92 75.6036 1800.92V1800.93Z" fill="#2362AF"/>
<path d="M74.5814 1805.49C77.8559 1805.49 80.5104 1803.46 80.5104 1800.96C80.5104 1798.46 77.8559 1796.43 74.5814 1796.43C71.3069 1796.43 68.6523 1798.46 68.6523 1800.96C68.6523 1803.46 71.3069 1805.49 74.5814 1805.49Z" fill="#2362AF"/>
<path d="M192.996 1881.2H-12.4941C-14.7033 1881.2 -16.4941 1882.99 -16.4941 1885.2V2008C-16.4941 2010.21 -14.7033 2012 -12.4941 2012H192.995C195.205 2012 196.995 2010.21 196.995 2008V1885.2C196.995 1882.99 195.205 1881.2 192.996 1881.2Z" fill="#FFA2D1"/>
<rect x="13.6831" y="1934.73" width="183.32" height="0.822061" fill="#FF377A"/>
<rect x="-21" y="1932.32" width="218" height="6.01379" fill="#FF377A"/>
<rect x="107.91" y="1881.29" width="117.555" height="4.93236" transform="rotate(90 107.91 1881.29)" fill="#FF377A"/>
<path d="M105.134 1934.52C105.092 1932.37 97.7852 1917.29 93.8589 1916.13C89.9511 1914.97 79.882 1926.26 81.5488 1929.2C83.1969 1932.14 106.662 1938.12 106.662 1938.12L105.687 1935.44C105.687 1935.44 89.0842 1930.43 89.0587 1928.42C89.0331 1926.41 93.5455 1922.58 94.7636 1923.63C95.9816 1924.69 103.136 1936.41 103.136 1936.41L105.126 1934.5L105.134 1934.52Z" fill="#FF377A"/>
<path d="M105.903 1934.51C105.861 1932.36 112.793 1917.09 116.651 1915.82C120.537 1914.56 130.889 1925.56 129.317 1928.53C127.744 1931.5 104.453 1938.14 104.453 1938.14L105.359 1935.45C105.359 1935.45 121.803 1929.99 121.77 1927.96C121.744 1925.95 117.112 1922.25 115.936 1923.34C114.742 1924.44 107.919 1936.34 107.919 1936.34L105.877 1934.5L105.903 1934.51Z" fill="#FF377A"/>
<path d="M105.535 1936.71C105.558 1938.87 112.883 1953.94 116.81 1955.1C120.718 1956.26 130.779 1944.95 129.12 1942.03C127.461 1939.12 103.999 1933.09 103.999 1933.09L104.974 1935.77C104.974 1935.77 121.577 1940.79 121.602 1942.79C121.628 1944.8 117.116 1948.64 115.897 1947.58C114.679 1946.52 107.525 1934.81 107.525 1934.81L105.535 1936.71Z" fill="#FF377A"/>
<path d="M104.774 1936.73C104.816 1938.88 97.8847 1954.15 94.0257 1955.42C90.1405 1956.67 79.7877 1945.67 81.3603 1942.7C82.9329 1939.73 106.224 1933.09 106.224 1933.09L105.318 1935.79C105.318 1935.79 88.8741 1941.25 88.9073 1943.28C88.9329 1945.28 93.5647 1948.99 94.7407 1947.9C95.9352 1946.8 102.758 1934.89 102.758 1934.89L104.8 1936.74L104.774 1936.73Z" fill="#FF377A"/>
<path d="M110.882 1934.99C110.925 1937.12 108.467 1938.86 105.427 1938.92C102.378 1938.95 99.8787 1937.28 99.8602 1935.14C99.8179 1933.02 102.275 1931.28 105.315 1931.22C108.365 1931.19 110.864 1932.86 110.882 1934.99Z" fill="#FF377A"/>
<circle cx="-12" cy="2014" r="88" fill="#0F0982"/>
<circle cx="99" cy="2080" r="88" fill="#0F0982"/>
<circle cx="216" cy="2061" r="88" fill="#0F0982"/>
<circle cx="364" cy="2039" r="88" fill="#0F0982"/>
<circle cx="502" cy="2009" r="88" fill="#0F0982"/>
<circle cx="623" cy="1971" r="88" fill="#0F0982"/>
<circle cx="751" cy="1894" r="88" fill="#0F0982"/>
<circle cx="505" cy="2049" r="88" fill="black"/>
<circle cx="-26" cy="2056" r="88" fill="black"/>
<circle cx="90" cy="2107" r="88" fill="black"/>
<circle cx="359" cy="2080" r="88" fill="black"/>
<circle cx="213" cy="2090" r="91" fill="black"/>
<circle cx="782.5" cy="1977.5" r="106.5" fill="black"/>
<circle cx="644.5" cy="2030.5" r="96.5" fill="black"/>
<path d="M96.6084 96.4982C84.7525 96.4982 73.0847 87.5111 68.7328 83.0176L43.3271 116.719C48.3848 119.552 61.6051 126.624 74.0256 132.251C89.5513 139.284 98.0199 135.768 106.841 134.889C115.663 134.009 123.425 136.354 128.013 138.112C131.682 139.519 143.891 146.513 149.537 149.834L174.237 115.254C166.121 110.956 147.279 101.48 136.834 97.9634C123.778 93.5676 111.428 96.4982 96.6084 96.4982Z" fill="#8B62F6"/>
<path d="M84.9669 100.901L35.9199 71.8888L58.5027 41.9971L104.021 71.8888L84.9669 100.901Z" fill="#F1959E"/>
<path d="M-28.3042 180.315L24.9771 213.43L46.1485 184.711L-3.95712 153.354L-28.3042 180.315Z" fill="#F1959E"/>
<path d="M163.656 172.697L167.891 165.957L217.996 185.299L213.762 192.332L163.656 172.697Z" fill="#EB4A7A"/>
<path d="M76.8487 123.169L-31.5024 67.5014L-27.9739 59.5889L82.4944 116.429L76.8487 123.169Z" fill="#EB4A7A"/>
<path d="M33.0998 34.9585L-41 -1.08748L-37.4714 -9L38.7455 28.2182L33.0998 34.9585Z" fill="#EB4A7A"/>
<path d="M704.94 241.411L702.899 214.76C702.828 213.782 703.68 212.943 704.798 212.874C705.916 212.804 706.893 213.551 706.972 214.521C706.972 214.598 706.972 214.683 706.972 214.752L704.931 241.403L704.94 241.411Z" fill="#FF377A"/>
<path d="M694.739 243.043L687.469 216.802C687.199 215.844 687.746 214.846 688.693 214.571C689.641 214.296 690.611 214.861 690.881 215.82C690.904 215.891 690.919 215.977 690.927 216.056L694.739 243.043Z" fill="#FF377A"/>
<path d="M684.959 246.302L672.924 222.057C672.485 221.172 672.805 220.066 673.638 219.601C674.471 219.135 675.512 219.474 675.951 220.359C675.988 220.43 676.018 220.509 676.041 220.58L684.952 246.294L684.959 246.302Z" fill="#FF377A"/>
<path d="M676.8 251.191L659.279 230.479C658.64 229.718 658.742 228.592 659.515 227.962C660.289 227.333 661.432 227.434 662.071 228.195C662.119 228.257 662.174 228.327 662.213 228.39L676.8 251.199V251.191Z" fill="#FF377A"/>
<path d="M668.653 257.722L648.111 241.296C647.358 240.691 647.23 239.589 647.825 238.823C648.42 238.058 649.504 237.928 650.258 238.525C650.318 238.571 650.378 238.632 650.431 238.678L668.653 257.714V257.722Z" fill="#FF377A"/>
<path d="M662.924 265.874L638.648 254.451C637.759 254.033 637.392 253.004 637.829 252.154C638.265 251.304 639.342 250.954 640.231 251.371C640.301 251.401 640.371 251.446 640.433 251.483L662.924 265.874Z" fill="#FF377A"/>
<path d="M658.86 275.66L632.497 268.744C631.533 268.492 630.945 267.478 631.188 266.471C631.431 265.473 632.411 264.864 633.382 265.115C633.461 265.132 633.539 265.164 633.61 265.188L658.86 275.644V275.66Z" fill="#FF377A"/>
<path d="M656.412 285.447L629.582 284.343C628.599 284.302 627.833 283.421 627.872 282.375C627.91 281.329 628.738 280.514 629.721 280.555C629.798 280.555 629.884 280.572 629.953 280.58L656.412 285.438V285.447Z" fill="#FF377A"/>
<path d="M656.412 295.239L629.956 300.095C628.988 300.276 628.067 299.584 627.897 298.547C627.727 297.518 628.377 296.539 629.352 296.358C629.429 296.342 629.514 296.333 629.584 296.333L656.412 295.23V295.239Z" fill="#FF377A"/>
<path d="M658.86 305.834L633.606 315.496C632.681 315.849 631.631 315.421 631.262 314.536C630.894 313.651 631.341 312.646 632.266 312.293C632.336 312.263 632.422 312.24 632.493 312.225L658.86 305.834Z" fill="#FF377A"/>
<path d="M662.924 314.803L640.433 329.99C639.606 330.549 638.491 330.321 637.945 329.495C637.399 328.668 637.617 327.535 638.436 326.984C638.499 326.945 638.577 326.898 638.639 326.866L662.917 314.811L662.924 314.803Z" fill="#FF377A"/>
<path d="M668.645 322.949L650.423 341.988C649.753 342.684 648.66 342.699 647.975 342.026C647.289 341.344 647.274 340.234 647.937 339.538C647.99 339.484 648.05 339.431 648.11 339.385L668.653 322.957L668.645 322.949Z" fill="#FF377A"/>
<path d="M676.792 330.298L662.209 352.323C661.673 353.134 660.553 353.374 659.709 352.864C658.857 352.353 658.605 351.288 659.141 350.485C659.181 350.425 659.236 350.358 659.283 350.298L676.8 330.298H676.792Z" fill="#FF377A"/>
<path d="M684.952 335.196L676.04 360.133C675.712 361.044 674.73 361.511 673.845 361.174C672.96 360.837 672.506 359.826 672.833 358.915C672.856 358.846 672.893 358.769 672.923 358.701L684.959 335.188L684.952 335.196Z" fill="#FF377A"/>
<path d="M694.739 338.46L690.929 364.672C690.79 365.634 689.889 366.298 688.919 366.16C687.949 366.023 687.279 365.13 687.418 364.168C687.426 364.092 687.449 364.008 687.464 363.939L694.732 338.452L694.739 338.46Z" fill="#FF377A"/>
<path d="M704.927 339.27L706.968 365.922C707.039 366.899 706.187 367.738 705.069 367.808C703.942 367.869 702.975 367.13 702.895 366.16C702.895 366.083 702.895 365.999 702.895 365.929L704.936 339.277L704.927 339.27Z" fill="#FF377A"/>
<path d="M715.134 338.452L722.405 363.942C722.675 364.874 722.12 365.843 721.181 366.11C720.241 366.377 719.263 365.835 718.993 364.896C718.97 364.828 718.955 364.744 718.947 364.667L715.134 338.452Z" fill="#FF377A"/>
<path d="M724.909 335.188L737.746 358.699C738.215 359.557 737.873 360.629 736.985 361.081C736.096 361.533 734.985 361.204 734.517 360.346C734.477 360.277 734.446 360.2 734.422 360.132L724.917 335.196L724.909 335.188Z" fill="#FF377A"/>
<path d="M733.877 330.305L750.602 350.303C751.212 351.038 751.114 352.125 750.376 352.733C749.638 353.341 748.546 353.243 747.936 352.508C747.891 352.448 747.838 352.38 747.801 352.32L733.877 330.298V330.305Z" fill="#FF377A"/>
<path d="M741.225 322.949L762.557 339.377C763.339 339.982 763.472 341.084 762.854 341.849C762.236 342.615 761.11 342.745 760.328 342.14C760.265 342.094 760.202 342.033 760.148 341.987L741.225 322.949Z" fill="#FF377A"/>
<path d="M746.938 314.803L771.215 326.86C772.104 327.301 772.47 328.387 772.034 329.285C771.597 330.182 770.521 330.552 769.632 330.111C769.562 330.079 769.491 330.032 769.429 329.993L746.938 314.803Z" fill="#FF377A"/>
<path d="M746.938 265.874L769.427 251.486C770.253 250.956 771.368 251.173 771.914 251.955C772.468 252.746 772.242 253.812 771.423 254.334C771.36 254.371 771.282 254.416 771.22 254.445L746.946 265.866L746.938 265.874Z" fill="#FF377A"/>
<path d="M741.233 257.722L760.156 238.684C760.852 237.987 761.986 237.972 762.698 238.645C763.41 239.319 763.426 240.437 762.737 241.133C762.683 241.187 762.62 241.24 762.557 241.286L741.225 257.714L741.233 257.722Z" fill="#FF377A"/>
<path d="M733.884 251.199L747.805 228.387C748.317 227.547 749.386 227.299 750.191 227.827C751.004 228.355 751.245 229.459 750.733 230.29C750.696 230.352 750.643 230.422 750.598 230.484L733.877 251.199H733.884Z" fill="#FF377A"/>
<path d="M724.917 246.294L734.423 220.579C734.772 219.639 735.819 219.157 736.764 219.504C737.708 219.852 738.192 220.895 737.843 221.834C737.819 221.905 737.779 221.984 737.748 222.056L724.909 246.302L724.917 246.294Z" fill="#FF377A"/>
<path d="M715.134 243.035L718.945 216.052C719.084 215.062 719.984 214.378 720.954 214.52C721.924 214.661 722.594 215.58 722.455 216.57C722.448 216.649 722.425 216.735 722.409 216.806L715.142 243.043L715.134 243.035Z" fill="#FF377A"/>
<path d="M316.683 1614.57C311.481 1613.62 305.737 1612.44 300.61 1614.39C295.837 1616.22 293.35 1620.56 290.426 1624.44C287.222 1628.7 283.039 1631.51 277.535 1631.31C271.803 1631.11 266.23 1628.09 262.865 1623.46C256.947 1615.32 257.022 1601.22 265.695 1594.97C269.857 1591.96 275.357 1590.99 280.347 1592.03C285.489 1593.11 290.957 1596.66 292.143 1602.09C293.443 1608.04 288.027 1613.25 282.298 1613.51C280.249 1613.61 277.983 1612.9 277.495 1610.67C276.967 1608.25 278.362 1605.56 279.273 1603.4C277.295 1603.9 275.489 1604.6 274.631 1606.6C273.762 1608.62 273.869 1611.17 274.485 1613.26C275.615 1617.1 279.769 1619.03 283.527 1619.33C287.455 1619.66 290.52 1616.06 293.344 1613.66C295.983 1611.4 299.824 1610.44 303.693 1610.32C308.367 1610.17 313.214 1613.1 317.514 1614.64L316.684 1614.56L316.683 1614.57Z" fill="#3EBBC3"/>
<path d="M550.543 2013.74C550.897 2013.22 551.399 2012.82 551.983 2012.59L559.037 2009.81C559.436 2009.65 559.8 2009.41 560.104 2009.11C560.408 2008.81 560.646 2008.44 560.803 2008.04L563.589 2000.98C563.821 2000.4 564.222 1999.9 564.741 1999.54C565.26 1999.19 565.873 1999 566.5 1999C567.127 1999 567.74 1999.19 568.259 1999.54C568.778 1999.9 569.179 2000.4 569.411 2000.98L572.197 2008.04C572.354 2008.44 572.591 2008.8 572.894 2009.11C573.197 2009.41 573.558 2009.65 573.957 2009.81L581.017 2012.59C583.661 2013.63 583.661 2017.37 581.017 2018.42L573.963 2021.2C573.565 2021.35 573.203 2021.59 572.9 2021.89C572.597 2022.2 572.359 2022.56 572.203 2022.96L569.418 2030.02C569.186 2030.6 568.784 2031.1 568.265 2031.46C567.746 2031.81 567.134 2032 566.507 2032C565.88 2032 565.267 2031.81 564.748 2031.46C564.229 2031.1 563.827 2030.6 563.595 2030.02L560.81 2022.96C560.652 2022.56 560.413 2022.2 560.109 2021.89C559.805 2021.59 559.442 2021.35 559.043 2021.2L551.983 2018.42C551.399 2018.19 550.897 2017.79 550.543 2017.27C550.189 2016.75 550 2016.13 550 2015.5C550 2014.87 550.189 2014.26 550.543 2013.74Z" fill="white"/>
</g>
<path d="M270.624 1649.9C270.699 1649.76 270.817 1649.63 270.962 1649.56L272.711 1648.6C272.811 1648.55 272.898 1648.47 272.967 1648.38C273.036 1648.29 273.087 1648.19 273.115 1648.08L273.611 1646.15C273.652 1645.99 273.741 1645.84 273.865 1645.74C273.988 1645.63 274.142 1645.56 274.306 1645.54C274.469 1645.52 274.635 1645.55 274.782 1645.62C274.929 1645.7 275.05 1645.81 275.13 1645.96L276.087 1647.71C276.141 1647.81 276.214 1647.9 276.303 1647.97C276.392 1648.03 276.494 1648.08 276.604 1648.11L278.536 1648.61C279.26 1648.79 279.382 1649.77 278.726 1650.13L276.977 1651.08C276.878 1651.14 276.791 1651.21 276.722 1651.3C276.653 1651.39 276.603 1651.49 276.575 1651.6L276.079 1653.53C276.037 1653.69 275.949 1653.84 275.825 1653.95C275.701 1654.06 275.548 1654.12 275.384 1654.15C275.221 1654.17 275.055 1654.14 274.908 1654.06C274.761 1653.99 274.64 1653.87 274.56 1653.72L273.603 1651.97C273.549 1651.87 273.475 1651.79 273.385 1651.72C273.296 1651.65 273.194 1651.6 273.085 1651.57L271.152 1651.08C270.992 1651.03 270.848 1650.95 270.739 1650.82C270.63 1650.7 270.56 1650.54 270.54 1650.38C270.519 1650.22 270.549 1650.05 270.624 1649.9Z" fill="white"/>
<path d="M652.624 1879.9C652.699 1879.76 652.817 1879.63 652.962 1879.56L654.711 1878.6C654.811 1878.55 654.898 1878.47 654.967 1878.38C655.036 1878.29 655.087 1878.19 655.115 1878.08L655.611 1876.15C655.652 1875.99 655.741 1875.84 655.865 1875.74C655.988 1875.63 656.142 1875.56 656.306 1875.54C656.469 1875.52 656.635 1875.55 656.782 1875.62C656.929 1875.7 657.05 1875.81 657.13 1875.96L658.087 1877.71C658.141 1877.81 658.214 1877.9 658.303 1877.97C658.392 1878.03 658.494 1878.08 658.604 1878.11L660.536 1878.61C661.26 1878.79 661.382 1879.77 660.726 1880.13L658.977 1881.08C658.878 1881.14 658.791 1881.21 658.722 1881.3C658.653 1881.39 658.603 1881.49 658.575 1881.6L658.079 1883.53C658.037 1883.69 657.949 1883.84 657.825 1883.95C657.701 1884.06 657.548 1884.12 657.384 1884.15C657.221 1884.17 657.055 1884.14 656.908 1884.06C656.761 1883.99 656.64 1883.87 656.56 1883.72L655.603 1881.97C655.549 1881.87 655.475 1881.79 655.385 1881.72C655.296 1881.65 655.194 1881.6 655.085 1881.57L653.152 1881.08C652.992 1881.03 652.848 1880.95 652.739 1880.82C652.63 1880.7 652.56 1880.54 652.54 1880.38C652.519 1880.22 652.549 1880.05 652.624 1879.9Z" fill="white"/>
<path d="M289.026 1582.07C289.15 1581.83 289.344 1581.63 289.583 1581.5L292.46 1579.93C292.623 1579.84 292.767 1579.71 292.881 1579.57C292.995 1579.42 293.078 1579.25 293.124 1579.07L293.94 1575.89C294.008 1575.63 294.154 1575.39 294.357 1575.21C294.561 1575.03 294.814 1574.92 295.083 1574.89C295.352 1574.85 295.625 1574.9 295.867 1575.02C296.108 1575.15 296.308 1575.34 296.439 1575.58L298.013 1578.46C298.102 1578.62 298.223 1578.77 298.369 1578.88C298.516 1579 298.684 1579.08 298.863 1579.12L302.042 1579.94C303.233 1580.24 303.433 1581.85 302.355 1582.44L299.477 1584.01C299.315 1584.1 299.172 1584.22 299.058 1584.37C298.944 1584.51 298.862 1584.68 298.816 1584.86L298 1588.04C297.932 1588.3 297.786 1588.54 297.583 1588.72C297.379 1588.9 297.126 1589.01 296.857 1589.05C296.588 1589.08 296.315 1589.03 296.073 1588.91C295.832 1588.79 295.632 1588.59 295.501 1588.35L293.927 1585.47C293.838 1585.31 293.716 1585.17 293.569 1585.05C293.422 1584.94 293.254 1584.86 293.074 1584.81L289.895 1584C289.632 1583.93 289.395 1583.79 289.216 1583.58C289.036 1583.38 288.922 1583.12 288.888 1582.85C288.854 1582.58 288.902 1582.31 289.026 1582.07Z" fill="white"/>
<path d="M313.002 1637.99C313.121 1637.76 313.307 1637.57 313.536 1637.44L316.297 1635.93C316.453 1635.85 316.59 1635.73 316.7 1635.59C316.809 1635.45 316.889 1635.29 316.933 1635.11L317.716 1632.06C317.782 1631.81 317.921 1631.58 318.117 1631.41C318.312 1631.24 318.555 1631.13 318.813 1631.1C319.071 1631.07 319.333 1631.11 319.565 1631.23C319.797 1631.35 319.988 1631.54 320.114 1631.76L321.624 1634.53C321.709 1634.68 321.826 1634.82 321.966 1634.93C322.106 1635.04 322.268 1635.12 322.44 1635.16L325.49 1635.95C326.632 1636.24 326.824 1637.78 325.79 1638.34L323.029 1639.85C322.873 1639.94 322.736 1640.05 322.627 1640.19C322.518 1640.33 322.439 1640.5 322.395 1640.67L321.612 1643.72C321.546 1643.97 321.407 1644.2 321.211 1644.37C321.016 1644.54 320.773 1644.65 320.515 1644.69C320.257 1644.72 319.995 1644.67 319.763 1644.55C319.531 1644.43 319.34 1644.25 319.214 1644.02L317.704 1641.26C317.618 1641.1 317.501 1640.96 317.36 1640.85C317.22 1640.74 317.058 1640.67 316.886 1640.62L313.836 1639.84C313.583 1639.78 313.356 1639.64 313.184 1639.44C313.011 1639.25 312.902 1639 312.869 1638.74C312.837 1638.48 312.883 1638.22 313.002 1637.99Z" fill="white"/>
<path d="M595.296 1926.04C595.489 1925.76 595.763 1925.54 596.082 1925.41L599.929 1923.9C600.147 1923.81 600.345 1923.68 600.511 1923.51C600.677 1923.35 600.807 1923.15 600.893 1922.93L602.412 1919.08C602.539 1918.76 602.758 1918.49 603.041 1918.3C603.324 1918.1 603.658 1918 604 1918C604.342 1918 604.676 1918.1 604.959 1918.3C605.242 1918.49 605.461 1918.76 605.588 1919.08L607.107 1922.93C607.193 1923.15 607.322 1923.35 607.487 1923.51C607.653 1923.68 607.85 1923.81 608.067 1923.9L611.919 1925.41C613.36 1925.98 613.36 1928.02 611.919 1928.59L608.071 1930.11C607.854 1930.19 607.656 1930.32 607.491 1930.49C607.325 1930.65 607.196 1930.85 607.111 1931.07L605.591 1934.92C605.465 1935.24 605.246 1935.51 604.963 1935.7C604.68 1935.9 604.346 1936 604.004 1936C603.662 1936 603.327 1935.9 603.044 1935.7C602.761 1935.51 602.542 1935.24 602.416 1934.92L600.896 1931.07C600.81 1930.85 600.68 1930.65 600.514 1930.49C600.348 1930.32 600.15 1930.19 599.933 1930.11L596.082 1928.59C595.763 1928.47 595.489 1928.25 595.296 1927.96C595.103 1927.68 595 1927.35 595 1927C595 1926.66 595.103 1926.32 595.296 1926.04Z" fill="white"/>
<path d="M623.395 1957.72C623.652 1957.34 624.017 1957.05 624.442 1956.88L629.572 1954.86C629.863 1954.75 630.127 1954.57 630.348 1954.35C630.569 1954.13 630.742 1953.87 630.857 1953.58L632.883 1948.44C633.052 1948.02 633.344 1947.65 633.721 1947.39C634.098 1947.14 634.544 1947 635 1947C635.456 1947 635.902 1947.14 636.279 1947.39C636.657 1947.65 636.949 1948.02 637.117 1948.44L639.143 1953.58C639.257 1953.87 639.43 1954.13 639.65 1954.35C639.87 1954.57 640.133 1954.75 640.423 1954.86L645.558 1956.88C647.481 1957.64 647.481 1960.36 645.558 1961.12L640.428 1963.14C640.138 1963.26 639.875 1963.43 639.654 1963.65C639.434 1963.87 639.261 1964.13 639.148 1964.42L637.122 1969.56C636.953 1969.98 636.661 1970.35 636.284 1970.61C635.906 1970.86 635.461 1971 635.005 1971C634.549 1971 634.103 1970.86 633.726 1970.61C633.348 1970.35 633.056 1969.98 632.888 1969.56L630.862 1964.42C630.747 1964.13 630.573 1963.87 630.352 1963.65C630.131 1963.43 629.867 1963.26 629.577 1963.14L624.442 1961.12C624.017 1960.95 623.652 1960.66 623.395 1960.28C623.138 1959.91 623 1959.46 623 1959C623 1958.54 623.138 1958.1 623.395 1957.72Z" fill="white"/>
<path d="M359.624 1611.15C359.699 1611.01 359.817 1610.88 359.962 1610.81L361.711 1609.85C361.811 1609.8 361.898 1609.72 361.967 1609.63C362.036 1609.54 362.087 1609.44 362.115 1609.33L362.611 1607.4C362.652 1607.24 362.741 1607.09 362.865 1606.99C362.988 1606.88 363.142 1606.81 363.306 1606.79C363.469 1606.77 363.635 1606.8 363.782 1606.87C363.929 1606.95 364.05 1607.06 364.13 1607.21L365.087 1608.96C365.141 1609.06 365.214 1609.15 365.303 1609.22C365.392 1609.28 365.494 1609.33 365.604 1609.36L367.536 1609.86C368.26 1610.04 368.382 1611.02 367.726 1611.38L365.977 1612.33C365.878 1612.39 365.791 1612.46 365.722 1612.55C365.653 1612.64 365.603 1612.74 365.575 1612.85L365.079 1614.78C365.037 1614.94 364.949 1615.09 364.825 1615.2C364.701 1615.31 364.548 1615.37 364.384 1615.4C364.221 1615.42 364.055 1615.39 363.908 1615.31C363.761 1615.24 363.64 1615.12 363.56 1614.97L362.603 1613.22C362.549 1613.12 362.475 1613.04 362.385 1612.97C362.296 1612.9 362.194 1612.85 362.085 1612.82L360.152 1612.33C359.992 1612.28 359.848 1612.2 359.739 1612.07C359.63 1611.95 359.56 1611.79 359.54 1611.63C359.519 1611.47 359.549 1611.3 359.624 1611.15Z" fill="white"/>
<path d="M345.624 1594.9C345.699 1594.76 345.817 1594.63 345.962 1594.56L347.711 1593.6C347.811 1593.55 347.898 1593.47 347.967 1593.38C348.036 1593.29 348.087 1593.19 348.115 1593.08L348.611 1591.15C348.652 1590.99 348.741 1590.84 348.865 1590.74C348.988 1590.63 349.142 1590.56 349.306 1590.54C349.469 1590.52 349.635 1590.55 349.782 1590.62C349.929 1590.7 350.05 1590.81 350.13 1590.96L351.087 1592.71C351.141 1592.81 351.214 1592.9 351.303 1592.97C351.392 1593.03 351.494 1593.08 351.604 1593.11L353.536 1593.61C354.26 1593.79 354.382 1594.77 353.726 1595.13L351.977 1596.08C351.878 1596.14 351.791 1596.21 351.722 1596.3C351.653 1596.39 351.603 1596.49 351.575 1596.6L351.079 1598.53C351.037 1598.69 350.949 1598.84 350.825 1598.95C350.701 1599.06 350.548 1599.12 350.384 1599.15C350.221 1599.17 350.055 1599.14 349.908 1599.06C349.761 1598.99 349.64 1598.87 349.56 1598.72L348.603 1596.97C348.549 1596.87 348.475 1596.79 348.385 1596.72C348.296 1596.65 348.194 1596.6 348.085 1596.57L346.152 1596.08C345.992 1596.03 345.848 1595.95 345.739 1595.82C345.63 1595.7 345.56 1595.54 345.54 1595.38C345.519 1595.22 345.549 1595.05 345.624 1594.9Z" fill="white"/>
<path d="M241.624 1620.9C241.699 1620.76 241.817 1620.63 241.962 1620.56L243.711 1619.6C243.811 1619.55 243.898 1619.47 243.967 1619.38C244.036 1619.29 244.087 1619.19 244.115 1619.08L244.611 1617.15C244.652 1616.99 244.741 1616.84 244.865 1616.74C244.988 1616.63 245.142 1616.56 245.306 1616.54C245.469 1616.52 245.635 1616.55 245.782 1616.62C245.929 1616.7 246.05 1616.81 246.13 1616.96L247.087 1618.71C247.141 1618.81 247.214 1618.9 247.303 1618.97C247.392 1619.03 247.494 1619.08 247.604 1619.11L249.536 1619.61C250.26 1619.79 250.382 1620.77 249.726 1621.13L247.977 1622.08C247.878 1622.14 247.791 1622.21 247.722 1622.3C247.653 1622.39 247.603 1622.49 247.575 1622.6L247.079 1624.53C247.037 1624.69 246.949 1624.84 246.825 1624.95C246.701 1625.06 246.548 1625.12 246.384 1625.15C246.221 1625.17 246.055 1625.14 245.908 1625.06C245.761 1624.99 245.64 1624.87 245.56 1624.72L244.603 1622.97C244.549 1622.87 244.475 1622.79 244.385 1622.72C244.296 1622.65 244.194 1622.6 244.085 1622.57L242.152 1622.08C241.992 1622.03 241.848 1621.95 241.739 1621.82C241.63 1621.7 241.56 1621.54 241.54 1621.38C241.519 1621.22 241.549 1621.05 241.624 1620.9Z" fill="white"/>
</g>
<defs>
<linearGradient id="paint0_linear_371_746" x1="375" y1="0" x2="375" y2="5682" gradientUnits="userSpaceOnUse">
<stop stop-color="#05038B"/>
<stop offset="1" stop-color="#FFA2D1"/>
</linearGradient>
<clipPath id="clip0_371_746">
<rect width="750" height="2035" fill="white"/>
</clipPath>
<clipPath id="clip1_371_746">
<rect width="750" height="5682" fill="white"/>
</clipPath>
</defs>
</svg>
