<svg width="750" height="2191" viewBox="0 0 750 2191" fill="none" xmlns="http://www.w3.org/2000/svg">
<g clip-path="url(#clip0_36_2985)">
<rect width="750" height="4415" transform="translate(0 -2224)" fill="url(#paint0_linear_36_2985)"/>
<circle cx="316.5" cy="335.5" r="1.5" fill="#FFA2D1"/>
<circle cx="264" cy="424" r="2" fill="#FFA2D1"/>
<circle cx="340.5" cy="504.5" r="1.5" fill="#FFA2D1"/>
<circle cx="500" cy="460" r="2" fill="#FFA2D1"/>
<circle cx="613" cy="674" r="2" fill="#FFA2D1"/>
<circle cx="518" cy="1299" r="2" fill="#FFA2D1"/>
<circle cx="351" cy="1587" r="2" fill="#FFA2D1"/>
<circle cx="550" cy="1600" r="2" fill="#FFA2D1"/>
<circle cx="647" cy="586" r="2" fill="#FFA2D1"/>
<circle cx="290" cy="541" r="2" fill="#FFA2D1"/>
<circle cx="111" cy="440" r="2" fill="#FFA2D1"/>
<circle cx="462.5" cy="381.5" r="1.5" fill="#FFA2D1"/>
<circle cx="240" cy="863" r="2" fill="#FFA2D1"/>
<circle cx="552.5" cy="729.5" r="1.5" fill="#FFA2D1"/>
<circle cx="686.5" cy="668.5" r="1.5" fill="#FFA2D1"/>
<circle cx="195.5" cy="1695.5" r="1.5" fill="#FFA2D1"/>
<circle cx="209" cy="926" r="2" fill="#FFA2D1"/>
<circle cx="195.5" cy="1077.5" r="1.5" fill="#FFA2D1"/>
<circle cx="140.5" cy="1241.5" r="1.5" fill="#FFA2D1"/>
<circle cx="281.5" cy="1327.5" r="1.5" fill="#FFA2D1"/>
<circle cx="646.5" cy="1180.5" r="1.5" fill="#FFA2D1"/>
<circle cx="159.5" cy="1556.5" r="1.5" fill="#FFA2D1"/>
<circle cx="19.5" cy="1371.5" r="1.5" fill="#FFA2D1"/>
<circle cx="259" cy="1696" r="2" fill="#FFA2D1"/>
<circle cx="606.5" cy="1712.5" r="1.5" fill="#FFA2D1"/>
<circle cx="314.5" cy="1664.5" r="1.5" fill="#FFA2D1"/>
<circle cx="28" cy="1070" r="2" fill="#FFA2D1"/>
<circle cx="306.5" cy="896.5" r="1.5" fill="#FFA2D1"/>
<circle cx="604.5" cy="385.5" r="1.5" fill="#FFA2D1"/>
<circle cx="730.5" cy="451.5" r="1.5" fill="#FFA2D1"/>
<circle cx="198.5" cy="367.5" r="1.5" fill="#FFA2D1"/>
<circle cx="518" cy="237" r="2" fill="#FFA2D1"/>
<circle cx="351" cy="525" r="2" fill="#FFA2D1"/>
<circle cx="550" cy="538" r="2" fill="#FFA2D1"/>
<circle cx="195.5" cy="633.5" r="1.5" fill="#FFA2D1"/>
<circle cx="195.5" cy="15.5" r="1.5" fill="#FFA2D1"/>
<circle cx="140.5" cy="179.5" r="1.5" fill="#FFA2D1"/>
<circle cx="281.5" cy="265.5" r="1.5" fill="#FFA2D1"/>
<circle cx="646.5" cy="118.5" r="1.5" fill="#FFA2D1"/>
<circle cx="159.5" cy="494.5" r="1.5" fill="#FFA2D1"/>
<circle cx="19.5" cy="309.5" r="1.5" fill="#FFA2D1"/>
<circle cx="259" cy="634" r="2" fill="#FFA2D1"/>
<circle cx="606.5" cy="650.5" r="1.5" fill="#FFA2D1"/>
<circle cx="314.5" cy="602.5" r="1.5" fill="#FFA2D1"/>
<circle cx="28" cy="8" r="2" fill="#FFA2D1"/>
</g>
<defs>
<linearGradient id="paint0_linear_36_2985" x1="375" y1="0" x2="375" y2="14930.2" gradientUnits="userSpaceOnUse">
<stop stop-color="#5939A3"/>
<stop offset="1" stop-color="#FFA2D1"/>
</linearGradient>
<clipPath id="clip0_36_2985">
<rect width="750" height="4415" fill="white" transform="translate(0 -2224)"/>
</clipPath>
</defs>
</svg>
