<svg width="750" height="2604" viewBox="0 0 750 2604" fill="none" xmlns="http://www.w3.org/2000/svg">
<g clip-path="url(#clip0_371_2772)">
<rect width="750" height="2604" fill="white"/>
<g clip-path="url(#clip1_371_2772)">
<rect width="750" height="6393" transform="translate(0 -3770)" fill="url(#paint0_linear_371_2772)"/>
<circle cx="518" cy="340" r="2" fill="#FFA2D1"/>
<circle cx="351" cy="628" r="2" fill="#FFA2D1"/>
<circle cx="550" cy="641" r="2" fill="#FFA2D1"/>
<circle cx="195.5" cy="736.5" r="1.5" fill="#FFA2D1"/>
<circle cx="195.5" cy="118.5" r="1.5" fill="#FFA2D1"/>
<circle cx="140.5" cy="282.5" r="1.5" fill="#FFA2D1"/>
<circle cx="281.5" cy="368.5" r="1.5" fill="#FFA2D1"/>
<circle cx="646.5" cy="221.5" r="1.5" fill="#FFA2D1"/>
<circle cx="159.5" cy="597.5" r="1.5" fill="#FFA2D1"/>
<circle cx="19.5" cy="412.5" r="1.5" fill="#FFA2D1"/>
<circle cx="259" cy="737" r="2" fill="#FFA2D1"/>
<circle cx="606.5" cy="753.5" r="1.5" fill="#FFA2D1"/>
<circle cx="314.5" cy="705.5" r="1.5" fill="#FFA2D1"/>
<circle cx="28" cy="111" r="2" fill="#FFA2D1"/>
<circle cx="316.5" cy="1157.5" r="1.5" fill="#FFA2D1"/>
<circle cx="264" cy="1246" r="2" fill="#FFA2D1"/>
<circle cx="340.5" cy="1326.5" r="1.5" fill="#FFA2D1"/>
<circle cx="500" cy="1282" r="2" fill="#FFA2D1"/>
<circle cx="613" cy="1496" r="2" fill="#FFA2D1"/>
<circle cx="518" cy="2121" r="2" fill="#FFA2D1"/>
<circle cx="351" cy="2409" r="2" fill="#FFA2D1"/>
<circle cx="550" cy="2422" r="2" fill="#FFA2D1"/>
<circle cx="647" cy="1408" r="2" fill="#FFA2D1"/>
<circle cx="290" cy="1363" r="2" fill="#FFA2D1"/>
<circle cx="111" cy="1262" r="2" fill="#FFA2D1"/>
<circle cx="462.5" cy="1203.5" r="1.5" fill="#FFA2D1"/>
<circle cx="240" cy="1685" r="2" fill="#FFA2D1"/>
<circle cx="552.5" cy="1551.5" r="1.5" fill="#FFA2D1"/>
<circle cx="686.5" cy="1490.5" r="1.5" fill="#FFA2D1"/>
<circle cx="195.5" cy="2517.5" r="1.5" fill="#FFA2D1"/>
<circle cx="209" cy="1748" r="2" fill="#FFA2D1"/>
<circle cx="195.5" cy="1899.5" r="1.5" fill="#FFA2D1"/>
<circle cx="140.5" cy="2063.5" r="1.5" fill="#FFA2D1"/>
<circle cx="281.5" cy="2149.5" r="1.5" fill="#FFA2D1"/>
<circle cx="646.5" cy="2002.5" r="1.5" fill="#FFA2D1"/>
<circle cx="159.5" cy="2378.5" r="1.5" fill="#FFA2D1"/>
<circle cx="19.5" cy="2193.5" r="1.5" fill="#FFA2D1"/>
<circle cx="259" cy="2518" r="2" fill="#FFA2D1"/>
<circle cx="606.5" cy="2534.5" r="1.5" fill="#FFA2D1"/>
<circle cx="314.5" cy="2486.5" r="1.5" fill="#FFA2D1"/>
<circle cx="28" cy="1892" r="2" fill="#FFA2D1"/>
<circle cx="306.5" cy="1718.5" r="1.5" fill="#FFA2D1"/>
<circle cx="604.5" cy="1207.5" r="1.5" fill="#FFA2D1"/>
<circle cx="730.5" cy="1273.5" r="1.5" fill="#FFA2D1"/>
<circle cx="198.5" cy="1189.5" r="1.5" fill="#FFA2D1"/>
<path d="M116.125 100.754C116.125 100.754 110.052 117.168 111.128 120.541C112.203 123.915 124.325 131.898 127.546 127.906C130.767 123.915 127.546 118.7 127.546 118.7C127.546 118.7 131.916 123.61 133.647 122.23C135.377 120.851 128.622 109.342 128.622 109.342L116.125 100.754Z" fill="white"/>
<path d="M230.676 -39.0437C230.676 -39.0437 234.358 -80.852 226.994 -96.3155C226.994 -96.3155 226.38 -136.181 232.67 -152.291C232.67 -152.291 253.998 -166.564 250.164 -175.77C246.329 -184.976 238.959 -171.626 236.2 -171.164C233.44 -170.703 221.008 -171.626 221.927 -157.353C221.927 -157.353 189.703 -112.005 186.939 -107.284C186.939 -107.284 178.96 -106.823 170.059 -104.465C170.059 -104.465 168.508 -110.395 159.999 -118.221C159.999 -118.221 160.682 -151.829 159.999 -155.973C159.316 -160.117 147.807 -176.693 141.365 -172.553C134.923 -168.414 144.129 -152.757 144.129 -152.757C144.129 -152.757 125.846 -107.552 122.325 -94.4743C118.804 -81.3965 107.295 -31.1758 165.301 29.8016L232.67 15.2794L230.676 -39.0437Z" fill="#FF377A"/>
<path d="M130.066 51.3923C130.066 51.3923 118.165 82.4625 114.944 104.114C114.944 104.114 121.538 113.736 130.066 111.235C130.066 111.235 146.877 73.7455 151.713 68.2218L130.066 51.3923Z" fill="#FF8F9C"/>
<path d="M158.397 13.376C158.397 13.376 135.38 19.9149 129.395 54.8844C129.395 54.8844 128.006 75.5855 151.72 76.0423C151.72 76.0423 171.291 69.5957 190.626 49.3422L158.402 13.376H158.397Z" fill="#FF377A"/>
<path d="M232.643 -27.4398C232.643 -27.4398 248.143 -35.8522 271.161 -32.622C271.161 -32.622 279.905 -24.325 280.367 -14.1959C280.367 -14.1959 261.032 24.516 244.917 29.7905L232.643 -27.4398Z" fill="#FF377A"/>
<path d="M170.033 -14.0428C170.033 -14.0428 178.625 -23.0736 182.921 -23.3136C187.217 -23.5535 192.437 -18.9528 197.346 -26.6269C202.256 -34.301 204.407 -32.7643 206.862 -31.846C209.317 -30.9277 207.785 -27.5498 226.197 -29.6956C244.609 -31.8414 240.927 -23.3136 240.927 -23.3136C240.927 -23.3136 245.837 -22.6352 248.601 -18.6436C251.365 -14.652 254.434 -10.8172 253.82 -8.13155C253.206 -5.44585 249.215 -1.45421 255.97 1.91906C262.726 5.29234 260.88 12.9664 258.425 15.4214C255.97 17.8764 255.209 22.1725 260.654 24.6275C266.099 27.0825 267.941 35.0611 262.722 38.1298C257.502 41.1986 258.116 44.2673 259.344 46.7222C260.571 49.1772 261.185 54.3963 255.047 55.0101C248.91 55.6238 249.524 60.8429 248.601 64.5254C247.678 68.2078 242.463 69.4353 236.631 66.9803C230.798 64.5254 230.184 79.2552 226.501 79.2552C222.819 79.2552 217.295 68.5124 208.703 77.7185C200.111 86.9246 198.574 82.0147 196.428 76.1819C194.282 70.349 189.982 69.1215 185.685 71.5765C181.389 74.0314 176.479 77.7139 176.479 65.1299C176.479 52.5459 170.342 56.5375 167.887 58.0696C165.432 59.6016 160.522 57.4558 162.363 53.1596C164.204 48.8634 162.977 43.6443 156.839 43.3397C150.702 43.0352 145.178 35.9748 153.157 30.4512C161.136 24.9275 160.217 24.9275 155.921 22.011C151.625 19.0946 146.715 4.05562 163.9 4.97854L170.037 -14.0521L170.033 -14.0428Z" fill="#FF8F9C"/>
<path d="M210.116 61.1637C232.235 61.1637 250.166 43.6438 250.166 22.0319C250.166 0.419996 232.235 -17.0999 210.116 -17.0999C187.997 -17.0999 170.066 0.419996 170.066 22.0319C170.066 43.6438 187.997 61.1637 210.116 61.1637Z" fill="white"/>
<path d="M174.045 17.5816C174.045 17.5816 157.474 7.76176 143.353 -12.1872C129.233 -32.1361 119.413 -61.6003 123.095 -64.0553C126.778 -66.5103 181.715 -33.3636 181.101 5.92055L174.04 17.5816H174.045Z" fill="white"/>
<path d="M203.653 52.1896C205.39 51.5298 206.06 49.054 205.151 46.6596C204.241 44.2652 202.096 42.859 200.359 43.5188C198.622 44.1785 197.952 46.6544 198.861 49.0488C199.771 51.4432 201.916 52.8494 203.653 52.1896Z" fill="#05038B"/>
<path d="M239.792 38.4642C241.528 37.8045 242.199 35.3286 241.289 32.9342C240.38 30.5398 238.235 29.1336 236.498 29.7934C234.761 30.4531 234.09 32.929 235 35.3234C235.909 37.7178 238.055 39.124 239.792 38.4642Z" fill="#05038B"/>
<path d="M229.743 58.1944C232.526 56.9124 234.33 54.8936 233.773 53.6854C233.216 52.4771 230.509 52.537 227.727 53.819C224.945 55.101 223.141 57.1198 223.698 58.328C224.254 59.5363 226.961 59.4765 229.743 58.1944Z" fill="#05038B"/>
<path d="M226.454 1.00117C226.454 1.00117 234.128 -58.8456 261.746 -77.8762C261.746 -77.8762 247.63 -24.7806 226.454 1.00117Z" fill="#05038B"/>
<path d="M128.792 -50.4499C128.792 -50.4499 163.47 -25.0927 181.578 16.0373C181.578 16.0373 140.143 -9.82297 128.792 -50.4499Z" fill="#05038B"/>
<path d="M143.628 2092.6L141.439 2064.03C141.363 2062.98 142.277 2062.08 143.475 2062C144.674 2061.93 145.721 2062.73 145.806 2063.77C145.806 2063.85 145.806 2063.94 145.806 2064.02L143.618 2092.59L143.628 2092.6Z" fill="#FF377A"/>
<path d="M132.694 2094.35L124.899 2066.22C124.61 2065.19 125.197 2064.12 126.212 2063.82C127.228 2063.53 128.268 2064.14 128.557 2065.16C128.582 2065.24 128.599 2065.33 128.607 2065.42L132.694 2094.35Z" fill="#FF377A"/>
<path d="M122.201 2097.85L109.298 2071.85C108.827 2070.91 109.17 2069.72 110.063 2069.22C110.957 2068.72 112.073 2069.08 112.544 2070.03C112.583 2070.11 112.615 2070.19 112.639 2070.27L122.193 2097.84L122.201 2097.85Z" fill="#FF377A"/>
<path d="M113.453 2103.08L94.6678 2080.88C93.9827 2080.06 94.0927 2078.85 94.9215 2078.18C95.7504 2077.5 96.9768 2077.61 97.6619 2078.43C97.7126 2078.49 97.7718 2078.57 97.8141 2078.64L113.453 2103.09V2103.08Z" fill="#FF377A"/>
<path d="M104.715 2110.09L82.6917 2092.48C81.8841 2091.83 81.7468 2090.65 82.3848 2089.83C83.0228 2089 84.1857 2088.86 84.9933 2089.51C85.0579 2089.55 85.1225 2089.62 85.179 2089.67L104.715 2110.08V2110.09Z" fill="#FF377A"/>
<path d="M98.5859 2118.83L72.5587 2106.58C71.6056 2106.13 71.2126 2105.03 71.6808 2104.12C72.149 2103.21 73.3028 2102.83 74.256 2103.28C74.3312 2103.31 74.4065 2103.36 74.4734 2103.4L98.5859 2118.83Z" fill="#FF377A"/>
<path d="M94.2234 2129.32L65.9599 2121.9C64.9265 2121.64 64.2963 2120.55 64.5568 2119.47C64.8173 2118.4 65.8675 2117.74 66.9093 2118.01C66.9933 2118.03 67.0773 2118.07 67.1529 2118.09L94.2234 2129.3V2129.32Z" fill="#FF377A"/>
<path d="M91.5996 2139.81L62.8351 2138.63C61.7814 2138.58 60.96 2137.64 61.0015 2136.52C61.043 2135.4 61.9307 2134.52 62.9844 2134.57C63.0674 2134.57 63.1586 2134.59 63.2333 2134.59L91.5996 2139.8V2139.81Z" fill="#FF377A"/>
<path d="M91.5996 2150.31L63.2358 2155.52C62.1988 2155.71 61.2115 2154.97 61.029 2153.86C60.8465 2152.75 61.5434 2151.7 62.5887 2151.51C62.6716 2151.49 62.7629 2151.48 62.8376 2151.48L91.5996 2150.3V2150.31Z" fill="#FF377A"/>
<path d="M94.2234 2161.67L67.1489 2172.03C66.1573 2172.41 65.0313 2171.95 64.6364 2171C64.2415 2170.05 64.7204 2168.97 65.712 2168.59C65.7876 2168.56 65.88 2168.54 65.9557 2168.52L94.2234 2161.67Z" fill="#FF377A"/>
<path d="M98.5859 2171.28L74.4726 2187.57C73.5863 2188.16 72.3907 2187.92 71.8054 2187.03C71.2202 2186.15 71.4543 2184.93 72.3322 2184.34C72.3991 2184.3 72.4827 2184.25 72.5496 2184.22L98.5776 2171.29L98.5859 2171.28Z" fill="#FF377A"/>
<path d="M104.706 2180.03L85.1706 2200.44C84.4518 2201.18 83.2808 2201.2 82.5459 2200.48C81.811 2199.75 81.7948 2198.56 82.5055 2197.81C82.5621 2197.75 82.6267 2197.69 82.6913 2197.65L104.715 2180.03L104.706 2180.03Z" fill="#FF377A"/>
<path d="M113.444 2187.9L97.8098 2211.51C97.2348 2212.38 96.0341 2212.64 95.1293 2212.09C94.2161 2211.54 93.9455 2210.4 94.5205 2209.54C94.5628 2209.48 94.622 2209.4 94.6727 2209.34L113.453 2187.9H113.444Z" fill="#FF377A"/>
<path d="M122.193 2193.15L112.638 2219.88C112.287 2220.86 111.235 2221.36 110.286 2221C109.337 2220.64 108.85 2219.56 109.201 2218.58C109.225 2218.51 109.265 2218.42 109.297 2218.35L122.201 2193.14L122.193 2193.15Z" fill="#FF377A"/>
<path d="M132.694 2196.65L128.609 2224.75C128.46 2225.78 127.494 2226.49 126.455 2226.34C125.415 2226.2 124.697 2225.24 124.845 2224.21C124.853 2224.13 124.878 2224.04 124.895 2223.96L132.686 2196.64L132.694 2196.65Z" fill="#FF377A"/>
<path d="M143.614 2197.51L145.802 2226.09C145.878 2227.14 144.965 2228.03 143.766 2228.11C142.558 2228.17 141.521 2227.38 141.435 2226.34C141.435 2226.26 141.435 2226.17 141.435 2226.1L143.623 2197.52L143.614 2197.51Z" fill="#FF377A"/>
<path d="M154.541 2196.64L162.336 2223.97C162.625 2224.96 162.031 2226 161.023 2226.29C160.016 2226.58 158.967 2225.99 158.678 2224.99C158.653 2224.91 158.637 2224.82 158.629 2224.74L154.541 2196.64Z" fill="#FF377A"/>
<path d="M165.036 2193.14L178.799 2218.35C179.301 2219.27 178.935 2220.42 177.982 2220.9C177.03 2221.39 175.839 2221.03 175.337 2220.11C175.294 2220.04 175.26 2219.96 175.235 2219.88L165.044 2193.15L165.036 2193.14Z" fill="#FF377A"/>
<path d="M174.654 2187.91L192.585 2209.34C193.239 2210.13 193.134 2211.3 192.343 2211.95C191.552 2212.6 190.381 2212.5 189.727 2211.71C189.679 2211.64 189.622 2211.57 189.582 2211.51L174.654 2187.9V2187.91Z" fill="#FF377A"/>
<path d="M182.526 2180.03L205.396 2197.64C206.234 2198.29 206.377 2199.47 205.714 2200.29C205.052 2201.11 203.844 2201.25 203.006 2200.6C202.939 2200.55 202.871 2200.48 202.813 2200.44L182.526 2180.03Z" fill="#FF377A"/>
<path d="M188.646 2171.28L214.674 2184.21C215.627 2184.68 216.02 2185.85 215.552 2186.81C215.083 2187.77 213.93 2188.17 212.976 2187.69C212.901 2187.66 212.826 2187.61 212.759 2187.57L188.646 2171.28Z" fill="#FF377A"/>
<path d="M193.021 2161.67L221.284 2168.51C222.317 2168.76 222.948 2169.77 222.687 2170.76C222.427 2171.76 221.376 2172.35 220.335 2172.1C220.251 2172.09 220.167 2172.06 220.091 2172.03L193.021 2161.69V2161.67Z" fill="#FF377A"/>
<path d="M195.637 2150.3L224.402 2151.49C225.455 2151.53 226.277 2152.47 226.235 2153.59C226.194 2154.72 225.306 2155.59 224.252 2155.55C224.169 2155.55 224.078 2155.53 224.004 2155.52L195.637 2150.31V2150.3Z" fill="#FF377A"/>
<path d="M195.637 2139.8L224.001 2134.6C225.038 2134.4 226.025 2135.14 226.208 2136.26C226.39 2137.36 225.693 2138.41 224.648 2138.6C224.565 2138.62 224.474 2138.63 224.399 2138.63L195.637 2139.81V2139.8Z" fill="#FF377A"/>
<path d="M193.021 2129.32L220.095 2118.1C221.087 2117.69 222.213 2118.18 222.608 2119.21C223.002 2120.24 222.523 2121.41 221.532 2121.82C221.456 2121.85 221.364 2121.88 221.288 2121.9L193.021 2129.32Z" fill="#FF377A"/>
<path d="M188.646 2118.83L212.757 2103.4C213.643 2102.83 214.838 2103.07 215.423 2103.91C216.017 2104.75 215.774 2105.9 214.897 2106.46C214.83 2106.5 214.746 2106.54 214.679 2106.58L188.655 2118.82L188.646 2118.83Z" fill="#FF377A"/>
<path d="M182.534 2110.09L202.822 2089.68C203.568 2088.93 204.784 2088.91 205.547 2089.63C206.31 2090.36 206.327 2091.55 205.589 2092.3C205.53 2092.36 205.463 2092.42 205.396 2092.47L182.526 2110.08L182.534 2110.09Z" fill="#FF377A"/>
<path d="M174.662 2103.09L189.586 2078.63C190.135 2077.73 191.281 2077.47 192.144 2078.03C193.016 2078.6 193.274 2079.78 192.726 2080.67C192.685 2080.74 192.629 2080.82 192.58 2080.88L174.654 2103.09H174.662Z" fill="#FF377A"/>
<path d="M165.044 2097.84L175.236 2070.27C175.61 2069.26 176.733 2068.74 177.745 2069.12C178.758 2069.49 179.277 2070.61 178.902 2071.62C178.877 2071.69 178.834 2071.78 178.8 2071.85L165.036 2097.85L165.044 2097.84Z" fill="#FF377A"/>
<path d="M154.541 2094.34L158.626 2065.41C158.775 2064.35 159.741 2063.62 160.781 2063.77C161.821 2063.92 162.539 2064.91 162.39 2065.97C162.382 2066.05 162.357 2066.14 162.341 2066.22L154.549 2094.35L154.541 2094.34Z" fill="#FF377A"/>
<circle cx="88" cy="88" r="88" transform="matrix(-1 0 0 1 895 2447.01)" fill="#3A2096"/>
<circle cx="88" cy="88" r="88" transform="matrix(-1 0 0 1 754.002 2447.01)" fill="#3A2096"/>
<circle cx="88" cy="88" r="88" transform="matrix(-1 0 0 1 621.004 2424.01)" fill="#3A2096"/>
<circle cx="88" cy="88" r="88" transform="matrix(-1 0 0 1 484.002 2438.01)" fill="#3A2096"/>
<ellipse cx="88" cy="88.5" rx="88" ry="88.5" transform="matrix(-1 0 0 1 348.998 2429.01)" fill="#3A2096"/>
<circle cx="88" cy="88" r="88" transform="matrix(-1 0 0 1 221.003 2373.01)" fill="#3A2096"/>
<circle cx="88" cy="88" r="88" transform="matrix(-1 0 0 1 104.997 2278.01)" fill="#3A2096"/>
<circle cx="88" cy="88" r="88" transform="matrix(-1 0 0 1 43.0015 2377.01)" fill="#4C319F"/>
<circle cx="88" cy="88" r="88" transform="matrix(-1 0 0 1 895 2517)" fill="#0F0982"/>
<circle cx="88" cy="88" r="88" transform="matrix(-1 0 0 1 754.002 2517)" fill="#0F0982"/>
<circle cx="88" cy="88" r="88" transform="matrix(-1 0 0 1 610.998 2474)" fill="#0F0982"/>
<circle cx="88" cy="88" r="88" transform="matrix(-1 0 0 1 467.002 2468)" fill="#0F0982"/>
<circle cx="88" cy="88" r="88" transform="matrix(-1 0 0 1 346.001 2474)" fill="#0F0982"/>
<circle cx="88" cy="88" r="88" transform="matrix(-1 0 0 1 221.003 2427)" fill="#0F0982"/>
<circle cx="88" cy="88" r="88" transform="matrix(-1 0 0 1 77 2353)" fill="#0F0982"/>
<path fill-rule="evenodd" clip-rule="evenodd" d="M174.304 2514.72C175.265 2515.79 176.381 2516.6 177.622 2517.2C184.165 2520.37 193.917 2517.34 200.785 2515.69L201.793 2514.72C199.762 2512.76 199.762 2513.74 197.716 2511.8C197.716 2509.84 196.708 2507.9 195.684 2506.92C192.63 2511.8 193.638 2514.72 188.552 2515.69C171.249 2519.56 175.327 2492.31 193.638 2500.1C204.832 2504 201.793 2519.56 220.12 2527.36L224.197 2530.28C224.197 2541 216.042 2535.14 209.933 2541H257.827C253.749 2538.08 246.601 2537.1 241.5 2536.12C238.446 2535.14 240.493 2531.26 241.5 2529.3C255.78 2526.38 266.959 2509.84 276.138 2503.02C278.665 2500.99 280.99 2499.27 283.146 2497.82C286.107 2495.85 288.774 2494.36 291.286 2493.26C301.084 2488.96 308.62 2490.36 322 2490.36C309.798 2482.57 309.798 2483.53 293.472 2485.49C292.603 2485.57 291.751 2485.66 290.913 2485.75C287.285 2486.17 283.812 2486.72 280.463 2487.45C275.331 2488.58 270.494 2490.16 265.982 2492.31C252.757 2497.18 234.399 2510.82 213.019 2504C224.197 2504 230.322 2504.98 240.524 2501.08C245.578 2499.14 256.803 2494.26 259.858 2491.34L234.399 2490.36C240.524 2489.39 246.632 2490.36 249.687 2487.43C246.632 2479.66 241.547 2479.65 235.454 2475.78L235.423 2475.75C235.423 2475.75 235.423 2475.76 235.454 2475.76C237.5 2471.88 241.547 2470.9 234.43 2467C227.298 2469.94 230.353 2470.9 232.384 2475.78C228.306 2478.7 225.252 2477.72 221.174 2482.6C218.12 2486.49 218.12 2490.39 214.042 2492.34C206.894 2495.27 194.692 2489.41 183.482 2493.31C181.327 2494.07 179.25 2495.33 177.467 2496.9C172.474 2501.28 169.792 2508.25 174.304 2514.72Z" fill="#FF377A"/>
<path d="M539.228 2442.54C539.228 2442.54 521.359 2416.37 498.848 2420.06C476.336 2423.74 452.839 2428.79 452.839 2428.79V2444.69C452.839 2444.69 458.795 2453.93 493.22 2449.93C527.644 2445.93 521.18 2457.32 521.18 2457.32L539.213 2442.54H539.228Z" fill="#3EBBC3"/>
<path d="M534.587 2349.53C534.587 2349.53 437.778 2330.56 437.285 2445.24C436.793 2559.92 512.239 2589.7 548.485 2572.81C584.73 2555.93 534.587 2349.53 534.587 2349.53Z" fill="#3EBBC3"/>
<path d="M535.263 2551.81C535.263 2551.81 589.87 2571.99 651.419 2571.99C708.13 2571.99 744.6 2566.09 750.004 2565.15H750.019C750.482 2565.08 750.705 2565.03 750.705 2565.03C750.705 2565.03 773.695 2565.86 800.162 2560.18C829.556 2553.87 863.233 2539.52 874.474 2507.13C893.911 2451.15 946.711 2485.04 948.562 2486.24C947.07 2484.71 901.972 2439.41 864.547 2447.22C826.495 2455.16 825.824 2483.3 780.815 2477L780.457 2476.96C767.723 2475.17 754.676 2472.73 742.614 2468.96C712.161 2459.39 688.007 2441.18 690.963 2402.87C695.098 2349.26 620.965 2354.89 620.965 2354.89C620.965 2354.89 563.388 2335.04 544.19 2342.98C524.993 2350.92 535.263 2551.81 535.263 2551.81Z" fill="#3EBBC3"/>
<path d="M571.589 2340C571.589 2340 573.694 2327.46 557.198 2319.65C543.046 2312.95 523.938 2309.72 491.664 2371.27C491.664 2371.27 462.867 2374.26 465.853 2401.05C468.839 2427.85 531.88 2444.73 550.242 2409.49C568.603 2374.24 571.589 2339.98 571.589 2339.98V2340Z" fill="#3EBBC3"/>
<path d="M519.941 2337.52C519.941 2337.52 527.883 2307.23 531.853 2301.78C535.824 2296.33 522.419 2302.27 511.999 2342.98L519.941 2337.52Z" fill="#3EBBC3"/>
<path d="M563.836 2374.56C564.567 2375.57 565.538 2376.36 566.822 2376.75C567.255 2376.89 567.717 2376.96 568.225 2376.99C569.195 2377.03 569.971 2376.65 570.613 2375.87C571.166 2375.24 571.628 2374.35 572.061 2373.24C574.942 2365.96 576.794 2349.24 592.677 2333.92C613.905 2313.44 593.05 2324.86 585.482 2329.09C577.913 2333.3 566.12 2344.72 566.12 2344.72L561.522 2365.44C561.522 2365.44 561.328 2371.17 563.836 2374.56Z" fill="#3EBBC3"/>
<path d="M523.436 2379.5C522.186 2378.78 522.062 2376.65 523.159 2374.76C524.255 2372.86 526.157 2371.9 527.407 2372.62C528.656 2373.34 528.78 2375.47 527.684 2377.37C526.587 2379.27 524.685 2380.22 523.436 2379.5Z" fill="#05038B"/>
<path d="M753.688 2556.65C753.688 2556.65 751.031 2550.26 733.475 2556.65" stroke="#05038B" stroke-width="2" stroke-miterlimit="10" stroke-linecap="round"/>
<path d="M679.709 2503.96C679.709 2503.96 620.116 2478.42 575.959 2499.17" stroke="#05038B" stroke-width="2" stroke-miterlimit="10" stroke-linecap="round"/>
<path d="M507.351 2370.31C506.101 2369.59 505.977 2367.46 507.074 2365.56C508.17 2363.67 510.072 2362.71 511.322 2363.43C512.571 2364.15 512.695 2366.28 511.599 2368.18C510.502 2370.08 508.6 2371.03 507.351 2370.31Z" fill="#05038B"/>
<path d="M486.773 2375.08C486.773 2375.08 485.34 2378.5 485.862 2382.92" stroke="#05038B" stroke-width="2" stroke-miterlimit="10" stroke-linecap="round"/>
<path d="M540.045 2380.39C540.045 2380.39 538.343 2410.19 505.486 2399.9C501.366 2398.62 497.978 2397.5 495.335 2395.99" stroke="#05038B" stroke-width="2" stroke-miterlimit="10" stroke-linecap="round"/>
<path d="M536.58 2369.78C536.58 2369.78 535.58 2355.71 526.489 2358.52" stroke="#05038B" stroke-width="2" stroke-miterlimit="10" stroke-linecap="round"/>
<path d="M513.584 2353.89C513.584 2353.89 511.106 2346.28 502.164 2354.89" stroke="#05038B" stroke-width="2" stroke-miterlimit="10" stroke-linecap="round"/>
<path d="M536.858 2440.79C536.679 2440.63 536.575 2440.55 536.575 2440.55L503.479 2433.65L493.88 2451.19C493.925 2451.4 493.955 2451.6 493.985 2451.79C517.407 2458.88 530.633 2448.54 536.858 2440.79Z" fill="#3EBBC3"/>
<path d="M750.026 2565.15C750.489 2565.08 750.713 2565.03 750.713 2565.03C750.713 2565.03 773.702 2565.85 800.17 2560.18C804.812 2557.26 809.485 2553.37 812.739 2548.4C821.786 2534.57 829.504 2495.72 779.494 2478.96L780.465 2476.96C767.731 2475.17 754.684 2472.73 742.622 2468.96L764.596 2488.54C764.596 2488.54 787.735 2501.84 785.615 2522.86C783.644 2542.25 776.255 2555.32 750.026 2565.15Z" fill="#FF377A"/>
<path d="M485.621 2519.04C486.293 2544.2 506.804 2563.4 506.804 2563.4V2574.31C506.804 2574.31 566.382 2587.88 581.265 2539.23C589.804 2511.36 573.891 2483.04 558.754 2463.93C544.229 2500.92 510.984 2487.95 494.324 2478.44C491.682 2492.74 485.188 2502.43 485.621 2519.04Z" fill="#3EBBC3"/>
<path d="M495.48 2477.19C495.48 2477.19 484.134 2511 483.418 2519.99C482.701 2528.97 483.418 2543.17 501.152 2556.65" stroke="#05038B" stroke-width="2" stroke-miterlimit="10" stroke-linecap="round"/>
<path d="M494.312 2478.44C510.972 2487.95 544.217 2500.92 558.742 2463.93C548.516 2451.03 538.634 2442.33 536.857 2440.79C530.632 2448.54 517.406 2458.88 493.984 2451.79C495.999 2462.84 495.656 2471.23 494.312 2478.44Z" fill="#FF377A"/>
<path d="M569.423 2558.01C569.423 2558.01 602.441 2520.3 558.448 2461.85L537.936 2440.79C537.936 2440.79 531.92 2426.46 521.247 2426.82" stroke="#05038B" stroke-width="2" stroke-miterlimit="10" stroke-linecap="round"/>
<path d="M729.33 2459.3C729.465 2460.18 729.599 2461.06 729.733 2461.94C732.57 2480.74 750.662 2494.22 776.563 2487.83C802.448 2481.44 805.643 2465.12 806.703 2454.13C807.777 2443.13 797.492 2434.26 789.326 2434.26C781.937 2434.26 778.906 2439.22 778.399 2440.15L778.354 2440.24C778.354 2440.24 778.339 2440.28 778.324 2440.3C755.275 2478.26 729.33 2459.3 729.33 2459.3Z" fill="#3EBBC3"/>
<path d="M560.334 2313.13C560.334 2313.13 549.869 2289.18 566.185 2284.93C582.502 2280.67 593.205 2292.32 596.698 2294.85C603.789 2300.05 605.924 2297.33 605.924 2290.96C605.924 2290.96 613.373 2310.17 593.16 2298.61C572.948 2287.06 568.335 2301.24 570.455 2309.77C572.575 2318.29 569.529 2320.84 564.066 2318.13L560.334 2313.13Z" fill="#05038B"/>
<path d="M562.468 2323.23L566.2 2318.26C566.2 2318.26 566.021 2312.05 560.348 2313.11L555.736 2319.14L562.468 2323.22V2323.23Z" fill="#FF377A"/>
<path d="M583.955 2349.13C583.955 2349.13 575.087 2364.74 573.669 2369.7C573.341 2370.85 572.997 2372.13 572.52 2373.37C572.161 2374.3 571.743 2375.18 571.191 2375.98C570.042 2377.7 568.355 2378.98 565.727 2379.12" stroke="#05038B" stroke-width="2" stroke-miterlimit="10" stroke-linecap="round"/>
<path d="M562.686 2375.51C563.044 2375.15 563.417 2374.84 563.835 2374.57C565.731 2373.85 566.821 2375.51 566.821 2376.75C566.791 2376.76 566.776 2376.78 566.746 2376.81C566.149 2377.41 565.806 2378.21 565.731 2379.12C565.522 2381.41 566.821 2384.42 569.329 2386.93C572.822 2390.44 577.36 2391.59 579.435 2389.51C581.525 2387.42 580.361 2382.9 576.868 2379.39C575.569 2378.09 574.136 2377.12 572.733 2376.51C573.27 2375.6 573.673 2374.63 573.942 2373.85C575.748 2374.55 577.51 2375.69 579.032 2377.21C584.018 2382.2 584.78 2389.53 580.749 2393.56C576.703 2397.6 569.389 2396.84 564.403 2391.86C559.417 2386.87 558.655 2379.54 562.686 2375.51Z" fill="#FF377A"/>
<path d="M609.126 2433.56L670.137 2442.43C674.034 2407.66 705.965 2404.11 705.965 2404.11L723.341 2423.26C754.212 2444.19 790.428 2406.07 790.428 2406.07C810.924 2320.13 728.79 2305.18 679.706 2305.45C624.726 2305.76 582.166 2335.29 579.673 2376.99C577.195 2418.68 609.126 2433.56 609.126 2433.56Z" fill="#3EBBC3"/>
<path d="M488.956 2427.01C488.956 2427.01 513.662 2434.86 528.59 2426.28C541.712 2418.74 545.011 2411.92 548.012 2400.41C551.012 2388.9 552.072 2379.85 552.072 2379.85C552.072 2379.85 549.4 2377.91 547.101 2380.62C547.101 2380.62 544.563 2405.17 537.816 2413.68C535.054 2417.16 517.603 2438.87 471.132 2411.91L479.999 2424.89" fill="#05038B"/>
<path d="M477.51 2435.31C477.51 2435.31 484.959 2430.59 481.973 2422.4C478.987 2414.2 474.524 2414.2 474.524 2414.2C474.524 2414.2 474.524 2402.29 462.611 2402.78C462.611 2402.78 452.43 2391.33 440.771 2402.77C429.113 2414.2 432.576 2449.19 475.031 2452.18C517.487 2455.16 504.574 2449.7 504.574 2449.7L495.393 2436.06L477.524 2435.31H477.51Z" fill="#3EBBC3"/>
<path d="M451.101 2427.7C451.101 2427.7 454.475 2411.38 469.732 2412.44C484.988 2413.5 488.362 2437.09 473.284 2437.09C458.207 2437.09 466.014 2418.81 475.583 2426.44" stroke="#05038B" stroke-width="2" stroke-miterlimit="10" stroke-linecap="round"/>
<path d="M491.617 2426.55C491.617 2426.55 486.556 2428.94 487.094 2432.67C487.631 2436.4 493.125 2440.84 498.977 2440.39C504.828 2439.94 505.545 2438.16 504.918 2436.13C504.291 2434.1 500.037 2434.09 500.037 2434.09C500.037 2434.09 508.262 2432.31 507.665 2438.07C507.068 2443.84 477.689 2453.15 482.571 2420.7L491.617 2426.55Z" fill="#05038B"/>
<path d="M591.638 2330.52C591.638 2330.52 573.277 2343.82 565.827 2357.39" stroke="#05038B" stroke-width="2" stroke-miterlimit="10" stroke-linecap="round"/>
<path d="M576.287 2343.95C576.287 2343.95 580.214 2354.46 569.839 2361.91" stroke="#05038B" stroke-width="2" stroke-miterlimit="10" stroke-linecap="round"/>
<path d="M552.809 2379.99C552.809 2379.99 539.776 2376.8 527.267 2384.78" stroke="#05038B" stroke-width="2" stroke-miterlimit="10" stroke-linecap="round"/>
<path d="M499.329 2363.23C499.329 2363.23 503.688 2373.45 500.717 2376.98" stroke="#05038B" stroke-width="2" stroke-miterlimit="10" stroke-linecap="round"/>
<path d="M513.126 2361.55C513.126 2361.55 514.073 2374.14 502.22 2375.11C479.485 2376.97 471.692 2400.8 487.829 2397.44C503.967 2394.08 514.76 2387.02 514.76 2387.02" fill="#3EBBC3"/>
<path d="M513.126 2361.55C513.126 2361.55 514.073 2374.14 502.22 2375.11C479.485 2376.97 471.692 2400.8 487.829 2397.44C503.967 2394.08 514.76 2387.02 514.76 2387.02" stroke="#05038B" stroke-width="2" stroke-miterlimit="10" stroke-linecap="round"/>
<path d="M737.881 2409.78C737.881 2409.78 682.543 2385.81 669.063 2443.91" stroke="#05038B" stroke-width="2" stroke-miterlimit="10" stroke-linecap="round"/>
<path d="M723.339 2423.26C723.339 2423.26 726.564 2441.31 729.326 2459.3C729.326 2459.3 755.271 2478.26 778.32 2440.3C778.32 2440.28 778.32 2440.25 778.349 2440.24L778.394 2440.15C784.037 2427.7 787.963 2416.37 790.426 2406.07C790.426 2406.07 754.211 2444.19 723.339 2423.26Z" fill="#FF377A"/>
<path d="M522.291 2327.82C522.291 2327.82 519.096 2330.75 517.872 2332.74" stroke="#05038B" stroke-width="2" stroke-miterlimit="10" stroke-linecap="round"/>
<path d="M475 2413.5C475 2413.5 472.215 2403.16 458.645 2403.16C442.672 2403.16 442.672 2424.4 442.672 2424.4" stroke="#05038B" stroke-width="2" stroke-miterlimit="10" stroke-linecap="round"/>
<path d="M465 2404C465 2404 459.623 2394.54 444.904 2399.49" stroke="#05038B" stroke-width="2" stroke-miterlimit="10" stroke-linecap="round"/>
<path d="M792.158 2482.16C792.158 2482.16 743.478 2504.77 729.908 2468.32" stroke="#05038B" stroke-width="2" stroke-miterlimit="10" stroke-linecap="round"/>
<path d="M510.64 2450.22C510.64 2450.22 490.681 2453.42 475.529 2452.09C460.377 2450.76 445.733 2446.77 441.478 2435.86" stroke="#05038B" stroke-width="2" stroke-miterlimit="10" stroke-linecap="round"/>
<path d="M610.245 2431.79C610.245 2431.79 557.743 2403.05 590.032 2349.85" stroke="#05038B" stroke-width="2" stroke-miterlimit="10" stroke-linecap="round"/>
<path d="M502.167 2350.78C502.167 2350.78 494.255 2363.26 491.658 2371.27C491.658 2371.27 460.465 2367.02 466.003 2404" stroke="#05038B" stroke-width="2" stroke-miterlimit="10" stroke-linecap="round"/>
<circle cx="88" cy="88" r="88" transform="matrix(-1 0 0 1 875 2487)" fill="black"/>
<circle cx="88" cy="88" r="88" transform="matrix(-1 0 0 1 754 2527)" fill="black"/>
<circle cx="88" cy="88" r="88" transform="matrix(-1 0 0 1 610.998 2530)" fill="black"/>
<circle cx="88" cy="88" r="88" transform="matrix(-1 0 0 1 467.002 2535)" fill="black"/>
<circle cx="88" cy="88" r="88" transform="matrix(-1 0 0 1 327.003 2535)" fill="black"/>
<circle cx="96.5" cy="96.5" r="96.5" transform="matrix(-1 0 0 1 183 2513)" fill="black"/>
<circle cx="106.5" cy="106.5" r="106.5" transform="matrix(-1 0 0 1 60.9995 2431)" fill="black"/>
<path d="M283.741 2347.3C283.571 2347.34 283.461 2346.43 283.281 2346.47C285.241 2353.41 288.031 2360.46 296.181 2361.32C305.521 2362.31 315.301 2356.17 320.391 2348.68C332.361 2331.07 317.701 2308.6 301.081 2300.44C283.781 2291.95 261.261 2297.31 249.491 2312.49C243.371 2320.38 240.051 2330.32 238.641 2340.12C237.381 2348.86 237.711 2358.12 242.071 2366C246.481 2373.98 254.341 2380.02 262.771 2383.24C271.551 2386.6 280.321 2385.94 289.051 2382.87C297.441 2379.92 306.111 2375.51 315.251 2377.41C323.811 2379.19 330.641 2386.74 331.111 2395.55C331.551 2403.72 325.761 2409.96 317.581 2410.04C308.731 2410.13 300.831 2404.75 293.161 2401.04C285.201 2397.19 276.591 2395.07 267.901 2397.71C258.821 2400.47 251.621 2407.81 249.521 2417.14C247.591 2425.76 249.851 2436.26 256.791 2442.16C263.571 2447.92 272.411 2446 280.351 2444.41C289.901 2442.49 300.381 2440.9 309.521 2445.33C317.651 2449.26 320.841 2457.18 317.281 2465.52C315.431 2469.85 312.521 2473.67 309.731 2477.43C315.191 2474.1 320.471 2470.47 323.211 2464.45C326.011 2458.28 326.111 2450.7 323.811 2444.36C318.261 2429 301.111 2433.21 289.291 2426.92C284.951 2424.61 281.791 2419.56 286.281 2415.61C291.451 2411.06 299.861 2412.79 305.531 2415.26C312.511 2418.29 317.991 2423.61 324.571 2427.31C330.461 2430.62 336.851 2431.03 343.431 2430C350.501 2428.88 357.961 2426.67 363.821 2422.41C370.001 2417.91 373.321 2411.01 374.801 2403.66C378.021 2387.67 373.981 2370 359.551 2360.89C346.891 2352.9 332.771 2353.95 319.121 2358.54C307.221 2362.54 293.971 2370.34 281.001 2368.41C274.041 2367.37 268.531 2362.52 268.181 2355.23C267.781 2347.06 273.341 2338.41 280.981 2335.47C287.921 2332.8 295.161 2336.39 297.231 2343.55C298.511 2348 297.201 2354.82 291.191 2352.86C288.461 2351.97 286.611 2349.99 284.341 2348.29L283.741 2347.34V2347.3Z" fill="#3EBBC3"/>
<path d="M327.039 2349.9C327.259 2349.71 330.059 2348.6 332.029 2347.15C333.989 2345.7 337.529 2341.88 339.409 2338.56C341.349 2335.16 342.069 2331.36 341.799 2327.47C341.509 2323.3 340.259 2319.21 340.459 2315C340.709 2309.91 343.369 2305.51 347.229 2302.29C351.979 2298.33 358.339 2295.94 364.549 2296.15C370.559 2296.35 375.939 2299.33 379.359 2304.27C384.379 2311.53 386.939 2326.28 377.119 2330.99C373.429 2332.76 368.339 2332.62 365.179 2329.81C362.059 2327.04 362.449 2322.73 362.849 2318.98C362.769 2320.69 362.539 2324.08 365.179 2323.71C367.779 2323.35 369.899 2320.3 370.019 2317.83C370.159 2315.05 367.899 2313.14 365.279 2312.9C362.909 2312.68 360.559 2313.69 358.949 2315.42C355.169 2319.49 356.509 2324.86 356.319 2329.84C356.099 2335.79 351.359 2340.38 346.289 2342.88C341.499 2345.24 336.259 2347.14 333.509 2347.87C330.759 2348.6 327.039 2349.89 327.039 2349.89V2349.9Z" fill="#3EBBC3"/>
<path d="M330.262 2321.1C329.462 2315.57 328.432 2309.46 330.692 2304.12C332.802 2299.15 337.482 2296.69 341.692 2293.75C346.312 2290.53 349.442 2286.22 349.442 2280.4C349.442 2274.34 346.472 2268.34 341.712 2264.61C333.342 2258.05 318.442 2257.59 311.512 2266.51C308.182 2270.79 306.942 2276.56 307.852 2281.87C308.792 2287.34 312.332 2293.25 318.022 2294.71C324.252 2296.31 329.962 2290.79 330.462 2284.75C330.642 2282.59 329.982 2280.17 327.642 2279.57C325.112 2278.92 322.212 2280.29 319.902 2281.17C320.502 2279.1 321.312 2277.22 323.452 2276.39C325.622 2275.55 328.312 2275.76 330.492 2276.49C334.502 2277.83 336.382 2282.29 336.562 2286.27C336.752 2290.43 332.842 2293.53 330.192 2296.42C327.712 2299.12 326.552 2303.14 326.272 2307.22C325.932 2312.15 328.842 2317.38 330.302 2321.98L330.252 2321.1H330.262Z" fill="#3EBBC3"/>
<path d="M238.427 2405.13C238.553 2405.22 238.65 2405.34 238.705 2405.48L239.38 2407.19C239.418 2407.29 239.475 2407.38 239.549 2407.45C239.623 2407.52 239.711 2407.58 239.808 2407.62L241.52 2408.29C241.661 2408.35 241.783 2408.45 241.869 2408.57C241.954 2408.7 242 2408.85 242 2409C242 2409.15 241.954 2409.3 241.869 2409.43C241.783 2409.55 241.661 2409.65 241.52 2409.71L239.808 2410.38C239.711 2410.42 239.623 2410.48 239.549 2410.55C239.476 2410.62 239.418 2410.71 239.38 2410.81L238.705 2412.52C238.454 2413.16 237.547 2413.16 237.293 2412.52L236.619 2410.81C236.581 2410.71 236.524 2410.62 236.45 2410.55C236.377 2410.48 236.289 2410.42 236.192 2410.38L234.48 2409.71C234.339 2409.65 234.217 2409.55 234.131 2409.43C234.046 2409.3 234 2409.15 234 2409C234 2408.85 234.046 2408.7 234.131 2408.58C234.217 2408.45 234.339 2408.35 234.48 2408.3L236.192 2407.62C236.289 2407.58 236.377 2407.52 236.45 2407.45C236.523 2407.38 236.581 2407.29 236.619 2407.19L237.293 2405.48C237.349 2405.34 237.446 2405.22 237.572 2405.13C237.698 2405.05 237.847 2405 237.999 2405C238.152 2405 238.301 2405.05 238.427 2405.13Z" fill="white"/>
<path d="M227.427 2428.13C227.553 2428.22 227.65 2428.34 227.705 2428.48L228.38 2430.19C228.418 2430.29 228.475 2430.38 228.549 2430.45C228.623 2430.52 228.711 2430.58 228.808 2430.62L230.52 2431.29C230.661 2431.35 230.783 2431.45 230.869 2431.57C230.954 2431.7 231 2431.85 231 2432C231 2432.15 230.954 2432.3 230.869 2432.43C230.783 2432.55 230.661 2432.65 230.52 2432.71L228.808 2433.38C228.711 2433.42 228.623 2433.48 228.549 2433.55C228.476 2433.62 228.418 2433.71 228.38 2433.81L227.705 2435.52C227.454 2436.16 226.547 2436.16 226.293 2435.52L225.619 2433.81C225.581 2433.71 225.524 2433.62 225.45 2433.55C225.377 2433.48 225.289 2433.42 225.192 2433.38L223.48 2432.71C223.339 2432.65 223.217 2432.55 223.131 2432.43C223.046 2432.3 223 2432.15 223 2432C223 2431.85 223.046 2431.7 223.131 2431.58C223.217 2431.45 223.339 2431.35 223.48 2431.3L225.192 2430.62C225.289 2430.58 225.377 2430.52 225.45 2430.45C225.523 2430.38 225.581 2430.29 225.619 2430.19L226.293 2428.48C226.349 2428.34 226.446 2428.22 226.572 2428.13C226.698 2428.05 226.847 2428 226.999 2428C227.152 2428 227.301 2428.05 227.427 2428.13Z" fill="white"/>
<path d="M217.427 2316.13C217.553 2316.22 217.65 2316.34 217.705 2316.48L218.38 2318.19C218.418 2318.29 218.475 2318.38 218.549 2318.45C218.623 2318.52 218.711 2318.58 218.808 2318.62L220.52 2319.29C220.661 2319.35 220.783 2319.45 220.869 2319.57C220.954 2319.7 221 2319.85 221 2320C221 2320.15 220.954 2320.3 220.869 2320.43C220.783 2320.55 220.661 2320.65 220.52 2320.71L218.808 2321.38C218.711 2321.42 218.623 2321.48 218.549 2321.55C218.476 2321.62 218.418 2321.71 218.38 2321.81L217.705 2323.52C217.454 2324.16 216.547 2324.16 216.293 2323.52L215.619 2321.81C215.581 2321.71 215.524 2321.62 215.45 2321.55C215.377 2321.48 215.289 2321.42 215.192 2321.38L213.48 2320.71C213.339 2320.65 213.217 2320.55 213.131 2320.43C213.046 2320.3 213 2320.15 213 2320C213 2319.85 213.046 2319.7 213.131 2319.58C213.217 2319.45 213.339 2319.35 213.48 2319.3L215.192 2318.62C215.289 2318.58 215.377 2318.52 215.45 2318.45C215.523 2318.38 215.581 2318.29 215.619 2318.19L216.293 2316.48C216.349 2316.34 216.446 2316.22 216.572 2316.13C216.698 2316.05 216.847 2316 216.999 2316C217.152 2316 217.301 2316.05 217.427 2316.13Z" fill="white"/>
<path d="M225.427 2335.13C225.553 2335.22 225.65 2335.34 225.705 2335.48L226.38 2337.19C226.418 2337.29 226.475 2337.38 226.549 2337.45C226.623 2337.52 226.711 2337.58 226.808 2337.62L228.52 2338.29C228.661 2338.35 228.783 2338.45 228.869 2338.57C228.954 2338.7 229 2338.85 229 2339C229 2339.15 228.954 2339.3 228.869 2339.43C228.783 2339.55 228.661 2339.65 228.52 2339.71L226.808 2340.38C226.711 2340.42 226.623 2340.48 226.549 2340.55C226.476 2340.62 226.418 2340.71 226.38 2340.81L225.705 2342.52C225.454 2343.16 224.547 2343.16 224.293 2342.52L223.619 2340.81C223.581 2340.71 223.524 2340.62 223.45 2340.55C223.377 2340.48 223.289 2340.42 223.192 2340.38L221.48 2339.71C221.339 2339.65 221.217 2339.55 221.131 2339.43C221.046 2339.3 221 2339.15 221 2339C221 2338.85 221.046 2338.7 221.131 2338.58C221.217 2338.45 221.339 2338.35 221.48 2338.3L223.192 2337.62C223.289 2337.58 223.377 2337.52 223.45 2337.45C223.523 2337.38 223.581 2337.29 223.619 2337.19L224.293 2335.48C224.349 2335.34 224.446 2335.22 224.572 2335.13C224.698 2335.05 224.847 2335 224.999 2335C225.152 2335 225.301 2335.05 225.427 2335.13Z" fill="white"/>
<path d="M266.427 2268.13C266.553 2268.22 266.65 2268.34 266.705 2268.48L267.38 2270.19C267.418 2270.29 267.475 2270.38 267.549 2270.45C267.623 2270.52 267.711 2270.58 267.808 2270.62L269.52 2271.29C269.661 2271.35 269.783 2271.45 269.869 2271.57C269.954 2271.7 270 2271.85 270 2272C270 2272.15 269.954 2272.3 269.869 2272.43C269.783 2272.55 269.661 2272.65 269.52 2272.71L267.808 2273.38C267.711 2273.42 267.623 2273.48 267.549 2273.55C267.476 2273.62 267.418 2273.71 267.38 2273.81L266.705 2275.52C266.454 2276.16 265.547 2276.16 265.293 2275.52L264.619 2273.81C264.581 2273.71 264.524 2273.62 264.45 2273.55C264.377 2273.48 264.289 2273.42 264.192 2273.38L262.48 2272.71C262.339 2272.65 262.217 2272.55 262.131 2272.43C262.046 2272.3 262 2272.15 262 2272C262 2271.85 262.046 2271.7 262.131 2271.58C262.217 2271.45 262.339 2271.35 262.48 2271.3L264.192 2270.62C264.289 2270.58 264.377 2270.52 264.45 2270.45C264.523 2270.38 264.581 2270.29 264.619 2270.19L265.293 2268.48C265.349 2268.34 265.446 2268.22 265.572 2268.13C265.698 2268.05 265.847 2268 265.999 2268C266.152 2268 266.301 2268.05 266.427 2268.13Z" fill="white"/>
<path d="M364.427 2270.13C364.553 2270.22 364.65 2270.34 364.705 2270.48L365.38 2272.19C365.418 2272.29 365.475 2272.38 365.549 2272.45C365.623 2272.52 365.711 2272.58 365.808 2272.62L367.52 2273.29C367.661 2273.35 367.783 2273.45 367.869 2273.57C367.954 2273.7 368 2273.85 368 2274C368 2274.15 367.954 2274.3 367.869 2274.43C367.783 2274.55 367.661 2274.65 367.52 2274.71L365.808 2275.38C365.711 2275.42 365.623 2275.48 365.549 2275.55C365.476 2275.62 365.418 2275.71 365.38 2275.81L364.705 2277.52C364.454 2278.16 363.547 2278.16 363.293 2277.52L362.619 2275.81C362.581 2275.71 362.524 2275.62 362.45 2275.55C362.377 2275.48 362.289 2275.42 362.192 2275.38L360.48 2274.71C360.339 2274.65 360.217 2274.55 360.131 2274.43C360.046 2274.3 360 2274.15 360 2274C360 2273.85 360.046 2273.7 360.131 2273.58C360.217 2273.45 360.339 2273.35 360.48 2273.3L362.192 2272.62C362.289 2272.58 362.377 2272.52 362.45 2272.45C362.523 2272.38 362.581 2272.29 362.619 2272.19L363.293 2270.48C363.349 2270.34 363.446 2270.22 363.572 2270.13C363.698 2270.05 363.847 2270 363.999 2270C364.152 2270 364.301 2270.05 364.427 2270.13Z" fill="white"/>
<path d="M374.427 2344.13C374.553 2344.22 374.65 2344.34 374.705 2344.48L375.38 2346.19C375.418 2346.29 375.475 2346.38 375.549 2346.45C375.623 2346.52 375.711 2346.58 375.808 2346.62L377.52 2347.29C377.661 2347.35 377.783 2347.45 377.869 2347.57C377.954 2347.7 378 2347.85 378 2348C378 2348.15 377.954 2348.3 377.869 2348.43C377.783 2348.55 377.661 2348.65 377.52 2348.71L375.808 2349.38C375.711 2349.42 375.623 2349.48 375.549 2349.55C375.476 2349.62 375.418 2349.71 375.38 2349.81L374.705 2351.52C374.454 2352.16 373.547 2352.16 373.293 2351.52L372.619 2349.81C372.581 2349.71 372.524 2349.62 372.45 2349.55C372.377 2349.48 372.289 2349.42 372.192 2349.38L370.48 2348.71C370.339 2348.65 370.217 2348.55 370.131 2348.43C370.046 2348.3 370 2348.15 370 2348C370 2347.85 370.046 2347.7 370.131 2347.58C370.217 2347.45 370.339 2347.35 370.48 2347.3L372.192 2346.62C372.289 2346.58 372.377 2346.52 372.45 2346.45C372.523 2346.38 372.581 2346.29 372.619 2346.19L373.293 2344.48C373.349 2344.34 373.446 2344.22 373.572 2344.13C373.698 2344.05 373.847 2344 373.999 2344C374.152 2344 374.301 2344.05 374.427 2344.13Z" fill="white"/>
<path d="M388.427 2336.13C388.553 2336.22 388.65 2336.34 388.705 2336.48L389.38 2338.19C389.418 2338.29 389.475 2338.38 389.549 2338.45C389.623 2338.52 389.711 2338.58 389.808 2338.62L391.52 2339.29C391.661 2339.35 391.783 2339.45 391.869 2339.57C391.954 2339.7 392 2339.85 392 2340C392 2340.15 391.954 2340.3 391.869 2340.43C391.783 2340.55 391.661 2340.65 391.52 2340.71L389.808 2341.38C389.711 2341.42 389.623 2341.48 389.549 2341.55C389.476 2341.62 389.418 2341.71 389.38 2341.81L388.705 2343.52C388.454 2344.16 387.547 2344.16 387.293 2343.52L386.619 2341.81C386.581 2341.71 386.524 2341.62 386.45 2341.55C386.377 2341.48 386.289 2341.42 386.192 2341.38L384.48 2340.71C384.339 2340.65 384.217 2340.55 384.131 2340.43C384.046 2340.3 384 2340.15 384 2340C384 2339.85 384.046 2339.7 384.131 2339.58C384.217 2339.45 384.339 2339.35 384.48 2339.3L386.192 2338.62C386.289 2338.58 386.377 2338.52 386.45 2338.45C386.523 2338.38 386.581 2338.29 386.619 2338.19L387.293 2336.48C387.349 2336.34 387.446 2336.22 387.572 2336.13C387.698 2336.05 387.847 2336 387.999 2336C388.152 2336 388.301 2336.05 388.427 2336.13Z" fill="white"/>
<path d="M291.427 2260.13C291.553 2260.22 291.65 2260.34 291.705 2260.48L292.38 2262.19C292.418 2262.29 292.475 2262.38 292.549 2262.45C292.623 2262.52 292.711 2262.58 292.808 2262.62L294.52 2263.29C294.661 2263.35 294.783 2263.45 294.869 2263.57C294.954 2263.7 295 2263.85 295 2264C295 2264.15 294.954 2264.3 294.869 2264.43C294.783 2264.55 294.661 2264.65 294.52 2264.71L292.808 2265.38C292.711 2265.42 292.623 2265.48 292.549 2265.55C292.476 2265.62 292.418 2265.71 292.38 2265.81L291.705 2267.52C291.454 2268.16 290.547 2268.16 290.293 2267.52L289.619 2265.81C289.581 2265.71 289.524 2265.62 289.45 2265.55C289.377 2265.48 289.289 2265.42 289.192 2265.38L287.48 2264.71C287.339 2264.65 287.217 2264.55 287.131 2264.43C287.046 2264.3 287 2264.15 287 2264C287 2263.85 287.046 2263.7 287.131 2263.58C287.217 2263.45 287.339 2263.35 287.48 2263.3L289.192 2262.62C289.289 2262.58 289.377 2262.52 289.45 2262.45C289.523 2262.38 289.581 2262.29 289.619 2262.19L290.293 2260.48C290.349 2260.34 290.446 2260.22 290.572 2260.13C290.698 2260.05 290.847 2260 290.999 2260C291.152 2260 291.301 2260.05 291.427 2260.13Z" fill="white"/>
<path d="M380.427 2437.13C380.553 2437.22 380.65 2437.34 380.705 2437.48L381.38 2439.19C381.418 2439.29 381.475 2439.38 381.549 2439.45C381.623 2439.52 381.711 2439.58 381.808 2439.62L383.52 2440.29C383.661 2440.35 383.783 2440.45 383.869 2440.57C383.954 2440.7 384 2440.85 384 2441C384 2441.15 383.954 2441.3 383.869 2441.43C383.783 2441.55 383.661 2441.65 383.52 2441.71L381.808 2442.38C381.711 2442.42 381.623 2442.48 381.549 2442.55C381.476 2442.62 381.418 2442.71 381.38 2442.81L380.705 2444.52C380.454 2445.16 379.547 2445.16 379.293 2444.52L378.619 2442.81C378.581 2442.71 378.524 2442.62 378.45 2442.55C378.377 2442.48 378.289 2442.42 378.192 2442.38L376.48 2441.71C376.339 2441.65 376.217 2441.55 376.131 2441.43C376.046 2441.3 376 2441.15 376 2441C376 2440.85 376.046 2440.7 376.131 2440.58C376.217 2440.45 376.339 2440.35 376.48 2440.3L378.192 2439.62C378.289 2439.58 378.377 2439.52 378.45 2439.45C378.523 2439.38 378.581 2439.29 378.619 2439.19L379.293 2437.48C379.349 2437.34 379.446 2437.22 379.572 2437.13C379.698 2437.05 379.847 2437 379.999 2437C380.152 2437 380.301 2437.05 380.427 2437.13Z" fill="white"/>
<path d="M364.427 2431.13C364.553 2431.22 364.65 2431.34 364.705 2431.48L365.38 2433.19C365.418 2433.29 365.475 2433.38 365.549 2433.45C365.623 2433.52 365.711 2433.58 365.808 2433.62L367.52 2434.29C367.661 2434.35 367.783 2434.45 367.869 2434.57C367.954 2434.7 368 2434.85 368 2435C368 2435.15 367.954 2435.3 367.869 2435.43C367.783 2435.55 367.661 2435.65 367.52 2435.71L365.808 2436.38C365.711 2436.42 365.623 2436.48 365.549 2436.55C365.476 2436.62 365.418 2436.71 365.38 2436.81L364.705 2438.52C364.454 2439.16 363.547 2439.16 363.293 2438.52L362.619 2436.81C362.581 2436.71 362.524 2436.62 362.45 2436.55C362.377 2436.48 362.289 2436.42 362.192 2436.38L360.48 2435.71C360.339 2435.65 360.217 2435.55 360.131 2435.43C360.046 2435.3 360 2435.15 360 2435C360 2434.85 360.046 2434.7 360.131 2434.58C360.217 2434.45 360.339 2434.35 360.48 2434.3L362.192 2433.62C362.289 2433.58 362.377 2433.52 362.45 2433.45C362.523 2433.38 362.581 2433.29 362.619 2433.19L363.293 2431.48C363.349 2431.34 363.446 2431.22 363.572 2431.13C363.698 2431.05 363.847 2431 363.999 2431C364.152 2431 364.301 2431.05 364.427 2431.13Z" fill="white"/>
<path d="M341.427 2452.13C341.553 2452.22 341.65 2452.34 341.705 2452.48L342.38 2454.19C342.418 2454.29 342.475 2454.38 342.549 2454.45C342.623 2454.52 342.711 2454.58 342.808 2454.62L344.52 2455.29C344.661 2455.35 344.783 2455.45 344.869 2455.57C344.954 2455.7 345 2455.85 345 2456C345 2456.15 344.954 2456.3 344.869 2456.43C344.783 2456.55 344.661 2456.65 344.52 2456.71L342.808 2457.38C342.711 2457.42 342.623 2457.48 342.549 2457.55C342.476 2457.62 342.418 2457.71 342.38 2457.81L341.705 2459.52C341.454 2460.16 340.547 2460.16 340.293 2459.52L339.619 2457.81C339.581 2457.71 339.524 2457.62 339.45 2457.55C339.377 2457.48 339.289 2457.42 339.192 2457.38L337.48 2456.71C337.339 2456.65 337.217 2456.55 337.131 2456.43C337.046 2456.3 337 2456.15 337 2456C337 2455.85 337.046 2455.7 337.131 2455.58C337.217 2455.45 337.339 2455.35 337.48 2455.3L339.192 2454.62C339.289 2454.58 339.377 2454.52 339.45 2454.45C339.523 2454.38 339.581 2454.29 339.619 2454.19L340.293 2452.48C340.349 2452.34 340.446 2452.22 340.572 2452.13C340.698 2452.05 340.847 2452 340.999 2452C341.152 2452 341.301 2452.05 341.427 2452.13Z" fill="white"/>
<path d="M723.395 2145V2171.29" stroke="#3EBBC3" stroke-width="2.98" stroke-linecap="round"/>
<path d="M700.97 2147.36L706.436 2173.08" stroke="#3EBBC3" stroke-width="2.98" stroke-linecap="round"/>
<path d="M679.475 2154.33L690.176 2178.35" stroke="#3EBBC3" stroke-width="2.98" stroke-linecap="round"/>
<path d="M659.929 2165.63L675.39 2186.9" stroke="#3EBBC3" stroke-width="2.98" stroke-linecap="round"/>
<path d="M643.151 2180.73L662.7 2198.34" stroke="#3EBBC3" stroke-width="2.98" stroke-linecap="round"/>
<path d="M629.86 2199.01L652.64 2212.16" stroke="#3EBBC3" stroke-width="2.98" stroke-linecap="round"/>
<path d="M620.687 2219.63L645.702 2227.75" stroke="#3EBBC3" stroke-width="2.98" stroke-linecap="round"/>
<path d="M616 2241.72L642.15 2244.46" stroke="#3EBBC3" stroke-width="2.98" stroke-linecap="round"/>
<path d="M616 2264.29L642.15 2261.55" stroke="#3EBBC3" stroke-width="2.98" stroke-linecap="round"/>
<path d="M620.687 2286.37L645.702 2278.26" stroke="#3EBBC3" stroke-width="2.98" stroke-linecap="round"/>
<path d="M629.86 2307L652.64 2293.86" stroke="#3EBBC3" stroke-width="2.98" stroke-linecap="round"/>
<path d="M643.151 2325.27L662.7 2307.67" stroke="#3EBBC3" stroke-width="2.98" stroke-linecap="round"/>
<path d="M659.929 2340.38L675.39 2319.1" stroke="#3EBBC3" stroke-width="2.98" stroke-linecap="round"/>
<path d="M679.475 2351.67L690.176 2327.65" stroke="#3EBBC3" stroke-width="2.98" stroke-linecap="round"/>
<path d="M700.97 2358.64L706.436 2332.92" stroke="#3EBBC3" stroke-width="2.98" stroke-linecap="round"/>
<path d="M723.395 2361V2334.71" stroke="#3EBBC3" stroke-width="2.98" stroke-linecap="round"/>
<path d="M745.859 2358.64L740.393 2332.92" stroke="#3EBBC3" stroke-width="2.98" stroke-linecap="round"/>
<path d="M745.859 2147.36L740.393 2173.08" stroke="#3EBBC3" stroke-width="2.98" stroke-linecap="round"/>
<path d="M230.96 2369.3C231.244 2369.49 231.462 2369.76 231.587 2370.08L233.105 2373.93C233.19 2374.15 233.32 2374.35 233.486 2374.51C233.651 2374.68 233.85 2374.81 234.068 2374.89L237.919 2376.41C238.238 2376.54 238.512 2376.76 238.704 2377.04C238.897 2377.32 239 2377.66 239 2378C239 2378.34 238.897 2378.68 238.704 2378.96C238.512 2379.24 238.238 2379.46 237.919 2379.59L234.068 2381.11C233.85 2381.19 233.652 2381.32 233.486 2381.49C233.32 2381.65 233.19 2381.85 233.105 2382.07L231.587 2385.92C231.022 2387.36 228.982 2387.36 228.41 2385.92L226.892 2382.07C226.807 2381.85 226.678 2381.66 226.513 2381.49C226.348 2381.33 226.15 2381.2 225.932 2381.11L222.081 2379.59C221.762 2379.46 221.488 2379.25 221.296 2378.96C221.103 2378.68 221 2378.35 221 2378C221 2377.66 221.103 2377.33 221.296 2377.04C221.488 2376.76 221.762 2376.54 222.081 2376.42L225.932 2374.9C226.15 2374.81 226.347 2374.68 226.512 2374.51C226.678 2374.35 226.807 2374.15 226.892 2373.93L228.41 2370.08C228.534 2369.76 228.753 2369.49 229.036 2369.3C229.32 2369.1 229.655 2369 229.998 2369C230.342 2369 230.677 2369.1 230.96 2369.3Z" fill="white"/>
<path d="M400.96 2288.3C401.244 2288.49 401.462 2288.76 401.587 2289.08L403.105 2292.93C403.19 2293.15 403.32 2293.35 403.486 2293.51C403.651 2293.68 403.85 2293.81 404.068 2293.89L407.919 2295.41C408.238 2295.54 408.512 2295.76 408.704 2296.04C408.897 2296.32 409 2296.66 409 2297C409 2297.34 408.897 2297.68 408.704 2297.96C408.512 2298.24 408.238 2298.46 407.919 2298.59L404.068 2300.11C403.85 2300.19 403.652 2300.32 403.486 2300.49C403.32 2300.65 403.19 2300.85 403.105 2301.07L401.587 2304.92C401.022 2306.36 398.982 2306.36 398.41 2304.92L396.892 2301.07C396.807 2300.85 396.678 2300.66 396.513 2300.49C396.348 2300.33 396.15 2300.2 395.932 2300.11L392.081 2298.59C391.762 2298.46 391.488 2298.25 391.296 2297.96C391.103 2297.68 391 2297.35 391 2297C391 2296.66 391.103 2296.33 391.296 2296.04C391.488 2295.76 391.762 2295.54 392.081 2295.42L395.932 2293.9C396.15 2293.81 396.347 2293.68 396.512 2293.51C396.678 2293.35 396.807 2293.15 396.892 2292.93L398.41 2289.08C398.534 2288.76 398.753 2288.49 399.036 2288.3C399.32 2288.1 399.655 2288 399.998 2288C400.342 2288 400.677 2288.1 400.96 2288.3Z" fill="white"/>
<path d="M702.28 2270.39C702.658 2270.65 702.949 2271.02 703.116 2271.44L705.139 2276.57C705.253 2276.86 705.426 2277.13 705.647 2277.35C705.868 2277.57 706.133 2277.74 706.424 2277.86L711.559 2279.88C711.984 2280.05 712.349 2280.34 712.606 2280.72C712.863 2281.1 713 2281.54 713 2282C713 2282.46 712.863 2282.9 712.606 2283.28C712.349 2283.66 711.984 2283.95 711.559 2284.12L706.424 2286.14C706.133 2286.26 705.869 2286.43 705.648 2286.65C705.427 2286.87 705.254 2287.13 705.139 2287.42L703.116 2292.56C702.363 2294.48 699.642 2294.48 698.88 2292.56L696.856 2287.43C696.743 2287.14 696.571 2286.87 696.35 2286.65C696.13 2286.43 695.866 2286.26 695.576 2286.15L690.441 2284.12C690.016 2283.95 689.651 2283.66 689.394 2283.28C689.137 2282.91 689 2282.46 689 2282C689 2281.55 689.137 2281.1 689.394 2280.73C689.651 2280.35 690.016 2280.06 690.441 2279.89L695.576 2277.86C695.866 2277.75 696.13 2277.57 696.35 2277.35C696.57 2277.13 696.742 2276.87 696.856 2276.58L698.88 2271.44C699.046 2271.02 699.337 2270.65 699.715 2270.39C700.093 2270.14 700.54 2270 700.998 2270C701.455 2270 701.902 2270.14 702.28 2270.39Z" fill="white"/>
<path d="M597.367 2545.58C597.918 2545.95 598.343 2546.48 598.585 2547.1L601.537 2554.58C601.703 2555.01 601.955 2555.39 602.277 2555.72C602.6 2556.04 602.986 2556.29 603.41 2556.46L610.899 2559.41C611.519 2559.66 612.051 2560.08 612.425 2560.63C612.8 2561.19 613 2561.84 613 2562.5C613 2563.17 612.8 2563.81 612.425 2564.37C612.051 2564.92 611.519 2565.34 610.899 2565.59L603.41 2568.54C602.986 2568.71 602.601 2568.96 602.279 2569.28C601.956 2569.6 601.704 2569.99 601.537 2570.41L598.585 2577.9C597.487 2580.7 593.52 2580.7 592.408 2577.9L589.457 2570.42C589.292 2569.99 589.041 2569.61 588.719 2569.29C588.398 2568.97 588.013 2568.71 587.59 2568.55L580.101 2565.59C579.481 2565.35 578.949 2564.92 578.575 2564.37C578.2 2563.82 578 2563.17 578 2562.51C578 2561.84 578.2 2561.19 578.575 2560.64C578.949 2560.09 579.481 2559.67 580.101 2559.42L587.59 2556.47C588.013 2556.3 588.398 2556.04 588.719 2555.72C589.04 2555.4 589.291 2555.01 589.457 2554.59L592.408 2547.1C592.65 2546.48 593.075 2545.95 593.626 2545.58C594.177 2545.2 594.829 2545 595.497 2545C596.164 2545 596.816 2545.2 597.367 2545.58Z" fill="white"/>
<path d="M426.747 2510.23C426.967 2510.38 427.137 2510.59 427.234 2510.84L428.415 2513.83C428.481 2514 428.582 2514.16 428.711 2514.29C428.84 2514.42 428.994 2514.52 429.164 2514.58L432.159 2515.76C432.408 2515.86 432.62 2516.03 432.77 2516.25C432.92 2516.47 433 2516.73 433 2517C433 2517.27 432.92 2517.53 432.77 2517.75C432.62 2517.97 432.408 2518.14 432.159 2518.24L429.164 2519.42C428.994 2519.48 428.84 2519.58 428.711 2519.71C428.582 2519.84 428.481 2519.99 428.415 2520.16L427.234 2523.16C426.795 2524.28 425.208 2524.28 424.763 2523.16L423.583 2520.17C423.517 2520 423.416 2519.84 423.288 2519.71C423.159 2519.59 423.005 2519.49 422.836 2519.42L419.841 2518.24C419.592 2518.14 419.38 2517.97 419.23 2517.75C419.08 2517.53 419 2517.27 419 2517C419 2516.74 419.08 2516.48 419.23 2516.26C419.38 2516.04 419.592 2515.87 419.841 2515.77L422.836 2514.59C423.005 2514.52 423.159 2514.42 423.287 2514.29C423.416 2514.16 423.516 2514.01 423.583 2513.84L424.763 2510.84C424.86 2510.59 425.03 2510.38 425.25 2510.23C425.471 2510.08 425.732 2510 425.999 2510C426.266 2510 426.526 2510.08 426.747 2510.23Z" fill="white"/>
<path d="M489.747 2320.23C489.967 2320.38 490.137 2320.59 490.234 2320.84L491.415 2323.83C491.481 2324 491.582 2324.16 491.711 2324.29C491.84 2324.42 491.994 2324.52 492.164 2324.58L495.159 2325.76C495.408 2325.86 495.62 2326.03 495.77 2326.25C495.92 2326.47 496 2326.73 496 2327C496 2327.27 495.92 2327.53 495.77 2327.75C495.62 2327.97 495.408 2328.14 495.159 2328.24L492.164 2329.42C491.994 2329.48 491.84 2329.58 491.711 2329.71C491.582 2329.84 491.481 2329.99 491.415 2330.16L490.234 2333.16C489.795 2334.28 488.208 2334.28 487.763 2333.16L486.583 2330.17C486.517 2330 486.416 2329.84 486.288 2329.71C486.159 2329.59 486.005 2329.49 485.836 2329.42L482.841 2328.24C482.592 2328.14 482.38 2327.97 482.23 2327.75C482.08 2327.53 482 2327.27 482 2327C482 2326.74 482.08 2326.48 482.23 2326.26C482.38 2326.04 482.592 2325.87 482.841 2325.77L485.836 2324.59C486.005 2324.52 486.159 2324.42 486.287 2324.29C486.416 2324.16 486.516 2324.01 486.583 2323.84L487.763 2320.84C487.86 2320.59 488.03 2320.38 488.25 2320.23C488.471 2320.08 488.732 2320 488.999 2320C489.266 2320 489.526 2320.08 489.747 2320.23Z" fill="white"/>
<path d="M564.747 2584.23C564.967 2584.38 565.137 2584.59 565.234 2584.84L566.415 2587.83C566.481 2588 566.582 2588.16 566.711 2588.29C566.84 2588.42 566.994 2588.52 567.164 2588.58L570.159 2589.76C570.408 2589.86 570.62 2590.03 570.77 2590.25C570.92 2590.47 571 2590.73 571 2591C571 2591.27 570.92 2591.53 570.77 2591.75C570.62 2591.97 570.408 2592.14 570.159 2592.24L567.164 2593.42C566.994 2593.48 566.84 2593.58 566.711 2593.71C566.582 2593.84 566.481 2593.99 566.415 2594.16L565.234 2597.16C564.795 2598.28 563.208 2598.28 562.763 2597.16L561.583 2594.17C561.517 2594 561.416 2593.84 561.288 2593.71C561.159 2593.59 561.005 2593.49 560.836 2593.42L557.841 2592.24C557.592 2592.14 557.38 2591.97 557.23 2591.75C557.08 2591.53 557 2591.27 557 2591C557 2590.74 557.08 2590.48 557.23 2590.26C557.38 2590.04 557.592 2589.87 557.841 2589.77L560.836 2588.59C561.005 2588.52 561.159 2588.42 561.287 2588.29C561.416 2588.16 561.516 2588.01 561.583 2587.84L562.763 2584.84C562.86 2584.59 563.03 2584.38 563.25 2584.23C563.471 2584.08 563.732 2584 563.999 2584C564.266 2584 564.526 2584.08 564.747 2584.23Z" fill="white"/>
</g>
</g>
<defs>
<linearGradient id="paint0_linear_371_2772" x1="375" y1="0" x2="375" y2="6393" gradientUnits="userSpaceOnUse">
<stop stop-color="#05038B"/>
<stop offset="1" stop-color="#5939A3"/>
</linearGradient>
<clipPath id="clip0_371_2772">
<rect width="750" height="2604" fill="white"/>
</clipPath>
<clipPath id="clip1_371_2772">
<rect width="750" height="6393" fill="white" transform="translate(0 -3770)"/>
</clipPath>
</defs>
</svg>
