<svg width="670" height="116" viewBox="0 0 670 116" fill="none" xmlns="http://www.w3.org/2000/svg">
<rect x="1.5" y="1.5" width="667" height="113" rx="56.5" stroke="#FFA2D1" stroke-width="3"/>
<path d="M166.781 49.625C166.797 52.5781 168.828 55.5781 173.438 56.8125L171.625 59.875C168.406 59.0156 166.172 57.2188 164.875 54.9219C163.641 57.5312 161.391 59.6094 158.062 60.625L156.125 57.4688C160.75 56.125 162.812 52.8906 162.812 49.625V49.5312H157.094V46.375H162.812V43.3438H166.844V46.375H172.531V49.5312H166.781V49.625ZM159.594 68.625C165.484 67.7656 168.656 64.4375 168.688 61.5938V61.125H172.781V61.5938C172.75 64.625 175.797 67.8281 181.906 68.625L180.344 71.75C175.703 71.0938 172.391 69.0156 170.688 66.2656C168.938 68.9844 165.609 71.0938 161 71.75L159.594 68.625ZM171.719 54.25V51H176.281V43.4375H180.25V62.8438H176.281V54.25H171.719ZM214.25 45.0938V47.6562C214.234 50.3125 214.234 53.2031 213.516 57.1875H217.281V60.4062H206.188V71.9062H202.188V60.4062H191.344V57.1875H209.469C210.203 53.5312 210.266 50.7344 210.281 48.2812H194.312V45.0938H214.25ZM243.656 43.4375V71.875H239.844V57.5312H237.281V70.5625H233.5V43.8438H237.281V54.2812H239.844V43.4375H243.656ZM219.812 64.7188V46.375H231.125V64.7188H219.812ZM223.531 61.5938H227.406V49.5312H223.531V61.5938ZM278.688 43.4375V71.875H274.875V43.4375H278.688ZM254 50.9062V47.75H258.812V44.125H262.781V47.75H267.531V50.9062H254ZM254.625 59.0625C254.609 55.0312 257.203 52.2188 260.688 52.2188C264.25 52.2188 266.812 55.0312 266.812 59.0625V59.2812H269.344V55.875H266.219V52.625H269.344V43.9062H273.062V70.625H269.344V62.4062H266.125C265.125 64.5625 263.141 65.9062 260.688 65.9062C257.203 65.9062 254.609 63.0938 254.625 59.0625ZM258.094 59.0625C258.078 61.25 259.125 62.5156 260.688 62.5312C262.281 62.5156 263.359 61.25 263.375 59.0625C263.359 56.8281 262.281 55.5938 260.688 55.5938C259.125 55.5938 258.078 56.8281 258.094 59.0625ZM293.938 45.3438V48.5312H286.5V50.875H293.656V53.9062H286.5V56.4219C289.656 56.3906 291.984 56.2656 294.625 55.8125L295.031 59C291.703 59.5938 288.922 59.7031 284.625 59.6875H282.688V45.3438H293.938ZM286.469 65.1875V62H306.125V71.875H302.156V65.1875H286.469ZM296.156 60.5938V43.9688H299.875V50.4062H302.344V43.4688H306.125V60.8125H302.344V53.5938H299.875V60.5938H296.156ZM331.031 45.9375V49.1875H322.094V61.8125C326.234 61.7656 329.219 61.5781 332.562 60.9688L332.969 64.1875C329.062 64.9375 325.625 65.0938 320.375 65.0625H318.062V45.9375H331.031ZM329.625 56.5312V53.2812H336.781V43.4375H340.75V71.9375H336.781V56.5312H329.625ZM377.781 65.3125V68.5625H351.75V65.3125H362.719V60.0625H354.5V45.25H358.5V49.6562H370.906V45.25H374.875V60.0625H366.688V65.3125H377.781ZM358.5 56.875H370.906V52.8438H358.5V56.875ZM403.375 43.4375V71.9375H399.406V56.9375H394.812V53.6875H399.406V43.4375H403.375ZM380.344 49.0312V45.8125H393.219V56.4688H384.375V62.0312C388.297 62 391.609 61.8594 395.281 61.2188L395.594 64.4688C391.375 65.1719 387.516 65.3281 382.75 65.3125H380.406V53.3125H389.344V49.0312H380.344ZM429.5 43.4375V54.3438H433.531V57.625H429.5V71.8125H425.5V43.4375H429.5ZM406.75 63.8438C413.484 60.4688 417.109 55.9375 417.859 49.5938H408.375V46.3438H421.906C421.875 54.8438 418.562 62.2031 409 66.9062L406.75 63.8438ZM458.625 43.4375V71.875H454.594V43.4375H458.625ZM434.812 63.8125C442.156 60.3438 445.391 55.8438 446.031 49.5312H436.344V46.4062H450.094C450.078 55.0312 447.062 62.2031 436.906 67L434.812 63.8125Z" fill="white"/>
<path d="M474 58L509 58" stroke="white" stroke-width="2" stroke-linecap="square" stroke-linejoin="round"/>
<path d="M514 58L504 64L504 52L514 58Z" fill="white"/>
</svg>
