<svg width="588" height="432" viewBox="0 0 588 432" fill="none" xmlns="http://www.w3.org/2000/svg">
<path d="M136.629 101.824H134.004V116.289H136.629V110.164H140.156V108.031H136.629V101.824ZM118.391 114.512H120.332C125.637 114.512 128.562 114.389 131.844 113.719L131.598 111.613C128.508 112.242 125.787 112.379 120.961 112.406V105.734H129.328V103.629H118.391V114.512ZM120.469 121.512C120.469 124.533 123.641 126.283 128.699 126.27C133.703 126.283 136.82 124.533 136.82 121.512C136.82 118.518 133.703 116.768 128.699 116.754C123.641 116.768 120.469 118.518 120.469 121.512ZM123.039 121.512C123.025 119.816 125.158 118.846 128.699 118.859C132.172 118.846 134.318 119.816 134.332 121.512C134.318 123.207 132.172 124.205 128.699 124.191C125.158 124.205 123.025 123.207 123.039 121.512ZM175.867 101.852H173.27V119.789H175.867V101.852ZM155.688 114.266L157.082 116.316C159.953 115.209 162.072 112.939 163.152 110.096C164.246 112.748 166.338 114.826 169.168 115.879L170.508 113.801C166.721 112.488 164.451 109.207 164.465 105.625V103.191H161.812V105.625C161.799 109.316 159.529 112.844 155.688 114.266ZM159.844 125.805H176.605V123.699H162.469V118.094H159.844V125.805ZM201.734 103.574C197.879 103.561 195.049 105.953 195.062 109.398C195.049 112.844 197.879 115.236 201.734 115.25C205.604 115.236 208.393 112.844 208.406 109.398C208.393 105.953 205.604 103.561 201.734 103.574ZM193.887 118.941L194.215 121.102C198.59 121.102 204.537 121.074 210.074 120.008L209.883 118.121C204.523 118.9 198.344 118.941 193.887 118.941ZM197.633 109.398C197.605 107.252 199.355 105.816 201.734 105.816C204.113 105.816 205.863 107.252 205.863 109.398C205.863 111.572 204.113 112.98 201.734 112.98C199.355 112.98 197.605 111.572 197.633 109.398ZM211.414 126.379H214.012V101.824H211.414V126.379ZM261.371 107.102V106.691H266.703V104.613H261.398V101.742H258.801V104.613H253.469V106.691H258.801V107.102C258.801 110.273 256.531 113.213 252.785 114.402L254.07 116.48C256.969 115.496 259.074 113.5 260.141 110.957C261.234 113.213 263.312 114.977 266.102 115.824L267.332 113.801C263.586 112.707 261.371 109.959 261.371 107.102ZM255.711 124.164L256.641 126.215C260.482 125.586 263.682 123.658 265.172 121.006C266.635 123.686 269.82 125.586 273.648 126.215L274.688 124.164C270.012 123.453 266.498 120.773 266.512 117.602V117.109H263.859V117.602C263.846 120.678 260.264 123.426 255.711 124.164ZM265.965 110.793H270.613V118.723H273.211V101.824H270.613V108.633H265.965V110.793ZM332.246 101.852H329.648V108.605H324.289V103.465H321.719V107.621H315.594V103.465H312.996V115.879H324.289V110.711H329.648V119.953H332.246V101.852ZM315.594 113.773V109.617H321.719V113.773H315.594ZM316.25 125.805H332.793V123.699H318.875V118.176H316.25V125.805ZM371.457 101.824H368.969V111.668H366.617V102.289H364.211V125.121H366.617V113.801H368.969V126.324H371.457V101.824ZM349.473 118.777L350.977 120.582C352.453 119.365 353.342 117.492 353.861 115.441C354.34 117.547 355.201 119.529 356.746 120.828C358.291 119.557 359.139 117.602 359.617 115.51C360.137 117.547 361.053 119.379 362.543 120.582L364.02 118.777C361.176 116.549 360.684 112.256 360.711 109.016V106.801H362.926V104.723H357.102V106.801H358.441V109.016C358.428 111.449 358.346 114.895 356.76 117.451C355.133 114.785 355.023 111.189 355.051 109.016V106.801H356.391V104.723H350.348V106.801H352.781V109.016C352.768 112.174 352.316 116.535 349.473 118.777ZM431.477 121.074H421.441V115.25H418.871V121.074H409.055V123.207H431.477V121.074ZM409.82 113.555L410.969 115.688C414.92 114.908 418.529 112.434 420.143 109.098C421.756 112.447 425.393 114.908 429.371 115.688L430.492 113.555C425.762 112.762 421.496 109.125 421.496 105.242V103.383H418.762V105.242C418.748 109.125 414.537 112.762 409.82 113.555ZM467.625 101.852H465.027V116.234H460.105V118.066H465.027V120.418H467.625V101.852ZM447.145 113.035L447.473 115.113C449.455 115.113 451.738 115.113 454.117 115.018V119.652H456.715V114.881C458.875 114.73 461.076 114.512 463.168 114.156L463.004 112.297C457.781 112.953 451.67 112.994 447.145 113.035ZM449.059 107.102C449.045 109.713 451.533 111.367 455.156 111.367C458.738 111.367 461.227 109.713 461.227 107.102C461.227 104.504 458.738 102.781 455.156 102.781C451.52 102.781 449.045 104.504 449.059 107.102ZM450.535 125.805H468.227V123.699H453.105V118.613H450.535V125.805ZM451.52 107.102C451.506 105.639 452.982 104.695 455.156 104.723C457.248 104.695 458.752 105.639 458.766 107.102C458.752 108.551 457.248 109.453 455.156 109.453C452.982 109.453 451.506 108.551 451.52 107.102Z" fill="white"/>
<g opacity="0.8">
<path d="M25.2656 391.75V419.531H22.8906V404.812H19.0156V418.125H16.6719V392.344H19.0156V402.781H22.8906V391.75H25.2656ZM2.48438 412.062V395H13.1094V412.062H2.48438ZM4.79688 410.094H10.7969V396.969H4.79688V410.094ZM36.9844 392.781C41.1406 392.797 44.1562 395.328 44.1719 398.938C44.1562 402.562 41.1406 405.062 36.9844 405.062C32.7812 405.062 29.75 402.562 29.7656 398.938C29.75 395.328 32.7812 392.797 36.9844 392.781ZM32.1719 398.938C32.1406 401.375 34.1875 403.062 36.9844 403.062C39.7344 403.062 41.7969 401.375 41.7969 398.938C41.7969 396.531 39.7344 394.828 36.9844 394.844C34.1875 394.828 32.1406 396.531 32.1719 398.938ZM33.9844 409.344V407.375H52.0469V414.062H36.4531V417.188H53.0469V419.156H34.0469V412.219H49.6094V409.344H33.9844ZM49.6094 406.031V391.75H52.0469V406.031H49.6094ZM75.9219 406.812V411.094C78.2656 410.953 80.6094 410.734 82.8281 410.406L83.1406 413.312C76.8281 414.516 70.0781 414.578 65.1094 414.594L64.6406 411.375C66.7812 411.375 69.2969 411.359 71.9531 411.281V406.812H75.9219ZM65.2031 404.688C69.5 403.547 71.5938 400.891 71.8594 398H66.1094V394.781H71.9531V391.688H75.9219V394.781H81.7969V398H75.9844C76.25 400.75 78.375 403.328 82.6719 404.375L80.8594 407.469C77.5312 406.625 75.2344 404.781 73.9375 402.422C72.7031 404.906 70.4375 406.828 67.0781 407.688L65.2031 404.688ZM84.4531 419.938V391.438H88.4219V419.938H84.4531ZM116.766 391.438V419.875H112.984V405.594H110.234V418.5H106.578V391.906H110.234V402.406H112.984V391.438H116.766ZM92.9844 413.438V394.719H103.578V397.938H96.9844V410.094C99.7344 410.047 102.172 409.891 104.922 409.406L105.203 412.656C101.734 413.312 98.7031 413.422 94.9531 413.438H92.9844ZM136.516 417.312C131.547 417.312 127.984 414.578 127.891 410.625H132.641C132.719 412.312 134.359 413.422 136.547 413.438C138.797 413.422 140.406 412.172 140.391 410.344C140.406 408.5 138.766 407.203 136.109 407.188H134.016V403.719H136.109C138.344 403.719 139.906 402.5 139.891 400.719C139.906 398.984 138.578 397.797 136.578 397.812C134.578 397.797 132.938 398.922 132.859 400.656H128.359C128.438 396.766 131.938 394.062 136.578 394.062C141.297 394.062 144.438 396.859 144.422 400.438C144.438 402.969 142.672 404.766 140.141 405.219V405.406C143.469 405.812 145.297 407.828 145.266 410.656C145.297 414.531 141.625 417.312 136.516 417.312ZM157.359 417.312C151.688 417.312 148.266 413.094 148.266 405.688C148.266 398.297 151.719 394.062 157.359 394.062C163 394.062 166.453 398.297 166.453 405.688C166.453 413.125 163.016 417.312 157.359 417.312ZM153.078 405.688C153.047 410.906 154.734 413.438 157.359 413.438C159.984 413.438 161.656 410.906 161.641 405.688C161.656 400.516 159.969 397.922 157.359 397.906C154.75 397.922 153.078 400.516 153.078 405.688ZM175.641 405.688C172.25 405.688 170.422 403.219 170.422 399.656C170.422 396.078 172.344 393.594 175.641 393.594C179.031 393.594 180.844 396.078 180.859 399.656C180.844 403.25 178.984 405.688 175.641 405.688ZM173.609 399.656C173.625 401.609 174.328 402.891 175.641 402.906C176.984 402.891 177.656 401.609 177.672 399.656C177.656 397.703 177.047 396.375 175.641 396.375C174.312 396.391 173.625 397.734 173.609 399.656ZM173.672 417L189.234 394.375H192.734L177.172 417H173.672ZM185.703 411.719C185.703 408.141 187.625 405.672 190.891 405.656C194.312 405.672 196.125 408.141 196.141 411.719C196.125 415.312 194.266 417.75 190.891 417.75C187.531 417.75 185.703 415.281 185.703 411.719ZM188.891 411.719C188.906 413.672 189.609 414.969 190.891 414.969C192.266 414.969 192.938 413.672 192.953 411.719C192.938 409.766 192.312 408.438 190.891 408.469C189.578 408.453 188.906 409.797 188.891 411.719ZM231.516 391.438V419.875H227.703V391.438H231.516ZM206.828 398.906V395.75H211.641V392.125H215.609V395.75H220.359V398.906H206.828ZM207.453 407.062C207.438 403.031 210.031 400.219 213.516 400.219C217.078 400.219 219.641 403.031 219.641 407.062V407.281H222.172V403.875H219.047V400.625H222.172V391.906H225.891V418.625H222.172V410.406H218.953C217.953 412.562 215.969 413.906 213.516 413.906C210.031 413.906 207.438 411.094 207.453 407.062ZM210.922 407.062C210.906 409.25 211.953 410.516 213.516 410.531C215.109 410.516 216.188 409.25 216.203 407.062C216.188 404.828 215.109 403.594 213.516 403.594C211.953 403.594 210.906 404.828 210.922 407.062ZM246.766 393.344V396.531H239.328V398.875H246.484V401.906H239.328V404.422C242.484 404.391 244.812 404.266 247.453 403.812L247.859 407C244.531 407.594 241.75 407.703 237.453 407.688H235.516V393.344H246.766ZM239.297 413.188V410H258.953V419.875H254.984V413.188H239.297ZM248.984 408.594V391.969H252.703V398.406H255.172V391.469H258.953V408.812H255.172V401.594H252.703V408.594H248.984ZM271.547 393.781C275.906 393.797 279 396.453 279.016 400.312C279 404.188 275.906 406.828 271.547 406.844C267.156 406.828 264.031 404.188 264.047 400.312C264.031 396.453 267.156 393.797 271.547 393.781ZM262.609 411.375C267.734 411.391 274.812 411.344 280.953 410.438L281.141 412.25C274.781 413.438 267.953 413.469 262.953 413.469L262.609 411.375ZM266.453 400.312C266.438 402.906 268.578 404.688 271.547 404.688C274.484 404.688 276.625 402.906 276.609 400.312C276.625 397.734 274.484 395.938 271.547 395.938C268.578 395.938 266.438 397.734 266.453 400.312ZM282.797 419.594V391.75H285.234V419.594H282.797ZM299.859 417L310.234 397.031V396.875H298.266V394.375H313.141V397L302.797 417H299.859ZM329.641 401.625V405.594H341.109V407.625H315.797V405.594H327.234V401.625H329.641ZM317.203 401.062C322.047 400.547 326.688 398.172 326.859 395.062H318.109V393.062H338.859V395.062H330.047C330.219 398.156 334.859 400.547 339.703 401.062L338.797 403C334.25 402.438 329.984 400.453 328.453 397.375C326.922 400.453 322.688 402.438 318.109 403L317.203 401.062ZM318.859 414.688C318.844 411.609 322.422 409.906 328.453 409.906C334.422 409.906 337.984 411.609 338.016 414.688C337.984 417.781 334.422 419.469 328.453 419.469C322.422 419.469 318.844 417.781 318.859 414.688ZM321.359 414.688C321.328 416.516 323.953 417.578 328.453 417.562C332.906 417.578 335.531 416.516 335.547 414.688C335.531 412.875 332.906 411.828 328.453 411.844C323.953 411.828 321.328 412.875 321.359 414.688ZM373.547 393.5V396.062C373.547 398.938 373.547 402.141 372.562 406.688H376.797V408.75H365.422V419.531H362.953V408.75H351.484V406.688H370.109C370.594 404.719 370.859 402.969 371.016 401.391L354.234 402.25L353.922 400.094L371.156 399.5C371.219 398.281 371.219 397.141 371.234 396.062V395.531H354.703V393.5H373.547ZM402.047 393.031V395.062H397.766V401.438H401.953V403.406H393.016V406.812H404.453V408.812H379.141V406.812H390.578V403.406H381.609V401.438H385.797V395.062H381.516V393.031H402.047ZM382.422 418.938V411.25H384.891V416.875H401.641V418.938H382.422ZM388.234 401.438H395.328V395.062H388.234V401.438ZM430.391 391.781V408.625H428.047V401.125H424.484V408.438H422.172V392.219H424.484V399.062H428.047V391.781H430.391ZM406.672 404.969C407.531 404.969 408.516 404.953 409.578 404.953V396.281H407.172V394.188H420.234V396.281H417.828V404.641C418.875 404.562 419.891 404.469 420.828 404.344L420.953 406.188C416.484 406.938 410.625 407.031 406.953 407.031L406.672 404.969ZM411.391 412V409.969H430.391V419.531H427.984V412H411.391ZM411.891 404.906C413.078 404.875 414.328 404.844 415.547 404.781V396.281H411.891V404.906ZM447.109 392.25C453.281 392.25 456.906 393.953 456.922 397.031C456.906 400.188 453.281 401.891 447.109 401.906C440.906 401.891 437.266 400.188 437.266 397.031C437.266 393.953 440.906 392.25 447.109 392.25ZM434.453 405.781V403.781H459.766V405.781H434.453ZM437.516 410.062V408.188H456.516V414.406H440.016V417.281H457.359V419.219H437.578V412.594H454.109V410.062H437.516ZM439.828 397.031C439.797 398.969 442.5 400.031 447.109 400.031C451.719 400.031 454.406 398.969 454.422 397.031C454.406 395.203 451.719 394.109 447.109 394.094C442.5 394.109 439.797 395.203 439.828 397.031ZM484.297 394.406V396.469H474.016V410.625C479.031 410.641 482.328 410.469 486.172 409.719L486.484 411.75C482.391 412.531 479 412.719 473.672 412.719H471.547V394.406H484.297ZM482.641 403.906V401.875H490.734V391.75H493.203V419.594H490.734V403.906H482.641ZM528.266 405.125V407.156H509.078V394.344H527.984V396.375H511.516V405.125H528.266ZM505.828 415.75V413.688H531.266V415.75H505.828ZM556.484 391.75V419.594H554.047V407.75H548.266V405.688H554.047V400.156H548.484V398.094H554.047V391.75H556.484ZM534.453 396.312V394.281H546.672V404.156H536.984V411C541.156 411 544.609 410.844 548.828 410.188L549.047 412.25C544.609 412.938 541.047 413.094 536.609 413.094H534.547V402.156H544.266V396.312H534.453ZM586.578 413.906V415.969H561.141V413.906H567.453V406.422C565.078 405.188 563.641 403.188 563.641 400.656C563.641 396.359 567.859 393.531 573.797 393.5C579.734 393.531 583.953 396.359 583.953 400.656C583.953 403.141 582.562 405.109 580.266 406.344V413.906H586.578ZM566.016 400.656C566 403.766 569.234 405.844 573.797 405.844C578.312 405.844 581.578 403.766 581.578 400.656C581.578 397.547 578.312 395.5 573.797 395.531C569.234 395.5 566 397.547 566.016 400.656ZM569.859 413.906H577.797V407.297C576.594 407.609 575.25 407.781 573.797 407.781C572.375 407.781 571.047 407.625 569.859 407.312V413.906Z" fill="white"/>
</g>
<path d="M297.706 24.3817C270.286 71.8728 246.111 30 300.952 30C246.116 30 270.291 -11.8728 297.706 35.6183C270.286 -11.8728 318.635 -11.8728 291.22 35.6183C318.64 -11.8728 342.814 30 287.974 30C342.81 30 318.635 71.8728 291.22 24.3817C318.64 71.8728 270.291 71.8728 297.706 24.3817Z" fill="white"/>
<path d="M147.46 183.68H170.74V186.16H166.58V200.48H177.14V204.16H166.58V227.92H151.86V186.16H147.46V183.68ZM97.7803 185.6H115.94V200.56H128.58V185.6H142.82V222.8H101.46V187.92H97.7803V185.6ZM128.58 219.68V203.92H115.94V219.68H128.58ZM100.9 228H125.22V230.32H120.66V244.08C120.66 244.4 120.74 244.747 120.9 245.12C121.06 245.493 121.487 245.68 122.18 245.68H156.34C157.727 245.68 158.66 245.173 159.14 244.16C159.674 243.2 159.834 242.107 159.62 240.88C159.567 240.4 159.567 239.813 159.62 239.12C159.727 238.373 159.94 237.68 160.26 237.04C160.634 236.4 161.14 235.867 161.78 235.44C162.474 234.96 163.354 234.72 164.42 234.72C166.554 234.72 168.02 235.333 168.82 236.56C169.62 237.733 170.047 239.2 170.1 240.96C170.1 241.813 169.914 242.693 169.54 243.6C169.22 244.56 168.58 245.44 167.62 246.24C166.714 247.04 165.46 247.68 163.86 248.16C162.26 248.693 160.234 248.96 157.78 248.96H109.14C106.047 248.96 104.5 247.467 104.5 244.48V230.32H100.9V228ZM231.06 183.68H252.98V186.16H248.82V198.32H257.78V202H248.82V220.72H235.06V186.16H231.06V183.68ZM205.06 220.72C204.047 220.347 202.98 219.787 201.86 219.04C200.794 218.24 199.727 217.173 198.66 215.84C197.647 214.507 196.687 212.88 195.78 210.96C194.927 209.04 194.18 206.747 193.54 204.08C192.847 207.387 191.94 210.133 190.82 212.32C189.7 214.453 188.474 216.16 187.14 217.44C185.807 218.667 184.367 219.52 182.82 220C181.327 220.48 179.807 220.693 178.26 220.64V217.68C180.287 217.68 181.834 217.2 182.9 216.24C184.02 215.28 184.847 213.973 185.38 212.32C185.967 210.667 186.314 208.72 186.42 206.48C186.527 204.187 186.58 201.68 186.58 198.96V188.64H179.7V185.76H229.14V188.64H222.98V198.88C222.98 202.56 223.14 205.547 223.46 207.84C223.78 210.133 224.287 211.947 224.98 213.28C225.674 214.56 226.58 215.467 227.7 216C228.82 216.533 230.18 216.88 231.78 217.04V220C230.18 220 228.634 219.787 227.14 219.36C225.7 218.88 224.34 218.053 223.06 216.88C221.78 215.653 220.607 214.027 219.54 212C218.474 209.92 217.54 207.28 216.74 204.08C216.26 206.213 215.594 208.24 214.74 210.16C213.887 212.027 212.9 213.707 211.78 215.2C210.714 216.64 209.594 217.84 208.42 218.8C207.247 219.76 206.127 220.4 205.06 220.72ZM199.78 198.72C199.78 204.16 200.207 208.347 201.06 211.28C201.914 214.16 203.274 216.107 205.14 217.12C205.94 216.373 206.634 215.52 207.22 214.56C207.807 213.6 208.287 212.427 208.66 211.04C209.034 209.6 209.3 207.893 209.46 205.92C209.674 203.947 209.78 201.627 209.78 198.96V188.64H199.78V198.72ZM232.66 249.04V228.24H184.9V225.28H248.82V249.04H232.66ZM326.991 246.88H280.271V244C282.564 242.667 284.911 241.093 287.311 239.28C289.764 237.413 292.138 235.36 294.431 233.12C296.778 230.88 298.991 228.507 301.071 226C303.151 223.44 304.964 220.8 306.511 218.08C308.111 215.36 309.364 212.613 310.271 209.84C311.231 207.067 311.711 204.32 311.711 201.6C311.711 199.307 311.524 197.253 311.151 195.44C310.831 193.627 310.271 192.107 309.471 190.88C308.671 189.6 307.604 188.64 306.271 188C304.938 187.307 303.258 186.96 301.231 186.96C298.458 186.96 296.298 187.387 294.751 188.24C293.204 189.04 291.924 190.107 290.911 191.44C292.458 191.813 293.738 192.64 294.751 193.92C295.764 195.147 296.271 196.56 296.271 198.16C296.271 199.12 296.084 200.027 295.711 200.88C295.338 201.68 294.831 202.4 294.191 203.04C293.604 203.627 292.884 204.107 292.031 204.48C291.231 204.8 290.351 204.96 289.391 204.96C287.524 204.96 285.924 204.293 284.591 202.96C283.258 201.627 282.591 200.027 282.591 198.16C282.591 195.973 283.151 194.027 284.271 192.32C285.391 190.613 286.831 189.173 288.591 188C290.351 186.827 292.351 185.947 294.591 185.36C296.884 184.773 299.204 184.48 301.551 184.48C310.244 184.48 316.618 185.973 320.671 188.96C324.724 191.893 326.751 196.347 326.751 202.32C326.751 206.053 325.844 209.627 324.031 213.04C322.218 216.4 319.284 219.947 315.231 223.68C311.764 226.88 308.564 229.44 305.631 231.36C302.751 233.227 300.378 234.693 298.511 235.76H323.951V227.2H326.991V246.88ZM337.5 212.08C337.5 210 338.193 208.24 339.58 206.8C341.02 205.36 342.806 204.64 344.94 204.64C347.02 204.64 348.78 205.36 350.22 206.8C351.66 208.24 352.38 210 352.38 212.08C352.38 213.467 352.033 214.773 351.34 216C354.006 215.36 356.246 214.4 358.06 213.12C359.873 211.787 361.34 210.133 362.46 208.16C363.58 206.187 364.38 203.867 364.86 201.2C365.393 198.533 365.66 195.52 365.66 192.16V188.64H345.26V185.68H401.58V188.64H381.1V191.28C381.1 195.813 381.713 199.627 382.94 202.72C384.166 205.76 385.9 208.213 388.14 210.08C390.38 211.893 393.02 213.227 396.06 214.08C399.153 214.88 402.54 215.307 406.22 215.36V218.96C402.7 218.96 399.153 218.533 395.58 217.68C392.006 216.827 388.726 215.6 385.74 214C382.753 212.4 380.166 210.48 377.98 208.24C375.846 205.947 374.433 203.36 373.74 200.48C372.726 204.107 371.1 207.147 368.86 209.6C366.62 212.053 364.113 214.027 361.34 215.52C358.62 216.96 355.793 218 352.86 218.64C349.926 219.28 347.286 219.573 344.94 219.52C342.806 219.52 341.02 218.827 339.58 217.44C338.193 216 337.5 214.213 337.5 212.08ZM365.82 248.88V226.8H336.3V223.84H410.06V226.8H380.54V248.88H365.82ZM465.82 183.68H489.1V186.16H484.94V200.48H495.5V204.16H484.94V226.8H470.22V186.16H465.82V183.68ZM419.26 185.68H460.3V192.32C460.3 196.373 459.66 200.16 458.38 203.68C457.153 207.2 455.26 210.187 452.7 212.64C450.726 214.56 448.326 216.187 445.5 217.52C442.673 218.8 439.66 219.84 436.46 220.64C433.26 221.44 429.98 222 426.62 222.32C423.313 222.587 420.166 222.693 417.18 222.64V219.76C419.846 219.707 422.38 219.493 424.78 219.12C427.233 218.693 429.5 218.053 431.58 217.2C433.66 216.347 435.526 215.227 437.18 213.84C438.886 212.453 440.326 210.72 441.5 208.64C441.98 207.84 442.406 206.907 442.78 205.84C443.153 204.773 443.473 203.467 443.74 201.92C444.06 200.373 444.273 198.533 444.38 196.4C444.54 194.267 444.62 191.68 444.62 188.64H419.26V185.68ZM419.26 226.8H443.58V229.12H439.02V244.4C439.02 244.72 439.1 245.067 439.26 245.44C439.42 245.813 439.846 246 440.54 246H474.7C476.246 246 477.233 245.44 477.66 244.32C478.086 243.253 478.193 242.107 477.98 240.88C477.926 240.4 477.926 239.813 477.98 239.12C478.086 238.373 478.3 237.68 478.62 237.04C478.993 236.4 479.5 235.867 480.14 235.44C480.833 234.96 481.713 234.72 482.78 234.72C484.913 234.72 486.38 235.333 487.18 236.56C487.98 237.733 488.406 239.2 488.46 240.96C488.46 241.813 488.273 242.693 487.9 243.6C487.58 244.56 486.94 245.44 485.98 246.24C485.073 247.04 483.82 247.68 482.22 248.16C480.62 248.693 478.593 248.96 476.14 248.96H427.5C424.406 248.96 422.86 247.467 422.86 244.48V229.12H419.26V226.8Z" fill="white"/>
<path d="M137.604 273.68H159.524V276.16H155.364V290.48H165.124V294.16H155.364V310.72H141.604V276.16H137.604V273.68ZM85.8441 275.68H108.884V288.08C108.884 291.44 108.431 294.4 107.524 296.96C106.671 299.52 105.257 301.707 103.284 303.52C101.311 305.28 98.7241 306.667 95.5241 307.68C92.3241 308.693 88.4041 309.333 83.7641 309.6V306.72C86.7507 306.453 89.0174 305.973 90.5641 305.28C92.1641 304.533 93.3374 303.52 94.0841 302.24C94.8307 300.907 95.2574 299.227 95.3641 297.2C95.5241 295.173 95.6041 292.747 95.6041 289.92V278.64H85.8441V275.68ZM111.844 275.68H133.124V286.48C133.124 289.68 132.777 292.64 132.084 295.36C131.444 298.027 130.244 300.373 128.484 302.4C126.724 304.427 124.351 306.08 121.364 307.36C118.377 308.587 114.564 309.333 109.924 309.6V306.72C112.111 306.507 113.844 305.947 115.124 305.04C116.457 304.133 117.471 302.907 118.164 301.36C118.911 299.813 119.391 297.973 119.604 295.84C119.817 293.707 119.897 291.28 119.844 288.56V278.64H111.844V275.68ZM89.6041 314.8H155.364V338.96H141.364V336.72C137.897 337.2 134.297 337.573 130.564 337.84C126.831 338.16 123.097 338.4 119.364 338.56C115.684 338.72 112.004 338.827 108.324 338.88C104.697 338.933 101.231 338.96 97.9241 338.96C94.8307 338.96 93.2841 337.467 93.2841 334.48V317.12H89.6041V314.8ZM110.084 335.68C112.164 335.733 114.511 335.707 117.124 335.6C119.737 335.547 122.431 335.413 125.204 335.2C127.977 335.04 130.751 334.827 133.524 334.56C136.297 334.293 138.911 334 141.364 333.68V317.92H108.324V334.08C108.324 334.773 108.484 335.2 108.804 335.36C109.177 335.573 109.604 335.68 110.084 335.68ZM219.185 273.68H241.105V276.16H236.945V288.32H245.905V292H236.945V310.72H223.185V276.16H219.185V273.68ZM193.185 310.72C192.172 310.347 191.105 309.787 189.985 309.04C188.919 308.24 187.852 307.173 186.785 305.84C185.772 304.507 184.812 302.88 183.905 300.96C183.052 299.04 182.305 296.747 181.665 294.08C180.972 297.387 180.065 300.133 178.945 302.32C177.825 304.453 176.599 306.16 175.265 307.44C173.932 308.667 172.492 309.52 170.945 310C169.452 310.48 167.932 310.693 166.385 310.64V307.68C168.412 307.68 169.959 307.2 171.025 306.24C172.145 305.28 172.972 303.973 173.505 302.32C174.092 300.667 174.439 298.72 174.545 296.48C174.652 294.187 174.705 291.68 174.705 288.96V278.64H167.825V275.76H217.265V278.64H211.105V288.88C211.105 292.56 211.265 295.547 211.585 297.84C211.905 300.133 212.412 301.947 213.105 303.28C213.799 304.56 214.705 305.467 215.825 306C216.945 306.533 218.305 306.88 219.905 307.04V310C218.305 310 216.759 309.787 215.265 309.36C213.825 308.88 212.465 308.053 211.185 306.88C209.905 305.653 208.732 304.027 207.665 302C206.599 299.92 205.665 297.28 204.865 294.08C204.385 296.213 203.719 298.24 202.865 300.16C202.012 302.027 201.025 303.707 199.905 305.2C198.839 306.64 197.719 307.84 196.545 308.8C195.372 309.76 194.252 310.4 193.185 310.72ZM187.905 288.72C187.905 294.16 188.332 298.347 189.185 301.28C190.039 304.16 191.399 306.107 193.265 307.12C194.065 306.373 194.759 305.52 195.345 304.56C195.932 303.6 196.412 302.427 196.785 301.04C197.159 299.6 197.425 297.893 197.585 295.92C197.799 293.947 197.905 291.627 197.905 288.96V278.64H187.905V288.72ZM220.785 339.04V318.24H173.025V315.28H236.945V339.04H220.785ZM318.876 305.76V295.28H276.956V292.32H318.876V278.64H286.156C285.143 278.64 284.289 278.853 283.596 279.28C282.903 279.707 282.663 280.56 282.876 281.84C283.089 283.067 282.769 284.133 281.916 285.04C281.063 285.947 279.783 286.4 278.076 286.4C276.369 286.4 275.169 285.92 274.476 284.96C273.783 283.947 273.436 282.747 273.436 281.36C273.436 279.973 274.049 278.693 275.276 277.52C276.556 276.293 278.503 275.68 281.116 275.68H335.356V305.76H318.876ZM298.476 338.88V313.28H268.956V310.32H342.716V313.28H313.196V338.88H298.476ZM353.916 274.4H417.676V277.36H410.476V300.4H417.676V303.36H393.196V313.44H422.716V316.4H348.956V313.44H378.476V303.36H353.916V300.4H361.116V277.36H353.916V274.4ZM377.676 300.4H393.916V277.36H377.676V300.4ZM352.956 322.32H373.356V334.4C373.356 334.72 373.436 335.067 373.596 335.44C373.756 335.813 374.183 336 374.876 336H406.076C407.463 336 408.396 335.493 408.876 334.48C409.409 333.52 409.569 332.427 409.356 331.2C409.303 330.72 409.303 330.107 409.356 329.36C409.463 328.613 409.676 327.893 409.996 327.2C410.369 326.507 410.876 325.92 411.516 325.44C412.209 324.96 413.089 324.72 414.156 324.72C416.289 324.72 417.756 325.333 418.556 326.56C419.356 327.733 419.783 329.2 419.836 330.96C419.836 331.813 419.649 332.693 419.276 333.6C418.956 334.56 418.316 335.44 417.356 336.24C416.449 337.04 415.196 337.68 413.596 338.16C411.996 338.693 409.969 338.96 407.516 338.96H361.356C358.263 338.96 356.716 337.467 356.716 334.48V324.64H352.956V322.32ZM484.316 273.68H503.036V276H499.916V311.52H487.276V292.64H481.756V311.52H469.116V276H466.156V273.68H481.756V288.96H487.276V276H484.316V273.68ZM461.516 306.72H464.796V309.68H426.876V306.72H431.516V278.96H426.876V276H464.876V278.96H461.516V306.72ZM444.236 306.72H449.116V278.96H444.236V306.72ZM483.756 339.2V319.04H434.156V316.08H499.916V339.2H483.756Z" fill="#FFA2D1"/>
</svg>
