<svg width="517" height="220" viewBox="0 0 517 220" fill="none" xmlns="http://www.w3.org/2000/svg">
<g opacity="0.8">
<path d="M11.9688 194.406V199.531C14.6562 199.391 17.375 199.172 19.9375 198.781L20.125 200.594C13.7656 201.75 6.9375 201.797 1.9375 201.781L1.59375 199.75C3.92188 199.734 6.67188 199.719 9.5625 199.625V194.406H11.9688ZM2.4375 193.438C6.54688 192.219 9.4375 189.172 9.5 185.438H3.125V183.406H9.5625V179.969H11.9688V183.406H18.5V185.438H11.9688C12.0469 189.016 15.0156 191.953 19.125 193.125L17.9688 195.062C14.6406 194.062 12.0156 191.922 10.7656 189.109C9.5625 192.078 6.96875 194.297 3.625 195.312L2.4375 193.438ZM21.7812 207.594V179.75H24.2188V207.594H21.7812ZM52.8438 179.75V207.531H50.5V192.969H46.4062V206.094H44.1562V180.375H46.4062V190.938H50.5V179.75H52.8438ZM30.125 200.656V183.156H40.5312V185.188H32.5625V198.562C36.3906 198.547 39.0312 198.406 42.125 197.781L42.3438 199.844C39 200.531 36.1719 200.641 31.9062 200.656H30.125ZM88.5938 179.75V207.531H86.2188V179.75H88.5938ZM64.7188 186.562V184.562H70.4062V180.5H72.875V184.562H78.5625V186.562H64.7188ZM65.75 194.875C65.7344 191.078 68.2031 188.469 71.5938 188.469C75.0156 188.469 77.4688 191.078 77.4688 194.875C77.4688 195.094 77.4531 195.312 77.4375 195.531H81.0625V191.219H77.1562V189.188H81.0625V180.375H83.375V206.156H81.0625V197.5H77.0156C76.1719 199.812 74.1562 201.281 71.5938 201.281C68.2031 201.281 65.7344 198.656 65.75 194.875ZM67.9062 194.875C67.9062 197.375 69.4531 199.172 71.5938 199.156C73.75 199.172 75.2969 197.375 75.3125 194.875C75.2969 192.344 73.75 190.594 71.5938 190.562C69.4531 190.594 67.9062 192.344 67.9062 194.875ZM104.469 181.781V183.844H96.0312V187.312H104.156V189.25H96.0312V193.094C100.078 193.078 102.609 192.922 105.594 192.344L105.844 194.375C102.578 195.016 99.9531 195.141 95.4375 195.156H93.6875V181.781H104.469ZM97.3125 200.062V198.062H116.031V207.531H113.625V200.062H97.3125ZM107.5 196.438V180.312H109.781V187.031H113.688V179.781H116.031V196.625H113.688V189.031H109.781V196.438H107.5ZM143.906 179.75V207.531H141.531V179.75H143.906ZM120.438 191.75C120.453 185.844 122.797 182.109 126.406 182.094C129.781 182.109 132.062 185.359 132.375 190.594H135.969V180.344H138.312V206.125H135.969V192.625H132.391C132.156 198.031 129.828 201.422 126.406 201.406C122.797 201.422 120.453 197.656 120.438 191.75ZM122.75 191.75C122.719 196.25 124.156 199.094 126.406 199.062C128.672 199.094 130.109 196.25 130.094 191.75C130.109 187.234 128.672 184.406 126.406 184.406C124.156 184.406 122.719 187.234 122.75 191.75ZM180.156 179.438V207.875H176.344V179.438H180.156ZM155.469 186.906V183.75H160.281V180.125H164.25V183.75H169V186.906H155.469ZM156.094 195.062C156.078 191.031 158.672 188.219 162.156 188.219C165.719 188.219 168.281 191.031 168.281 195.062V195.281H170.812V191.875H167.688V188.625H170.812V179.906H174.531V206.625H170.812V198.406H167.594C166.594 200.562 164.609 201.906 162.156 201.906C158.672 201.906 156.078 199.094 156.094 195.062ZM159.562 195.062C159.547 197.25 160.594 198.516 162.156 198.531C163.75 198.516 164.828 197.25 164.844 195.062C164.828 192.828 163.75 191.594 162.156 191.594C160.594 191.594 159.547 192.828 159.562 195.062ZM195.406 181.344V184.531H187.969V186.875H195.125V189.906H187.969V192.422C191.125 192.391 193.453 192.266 196.094 191.812L196.5 195C193.172 195.594 190.391 195.703 186.094 195.688H184.156V181.344H195.406ZM187.938 201.188V198H207.594V207.875H203.625V201.188H187.938ZM197.625 196.594V179.969H201.344V186.406H203.812V179.469H207.594V196.812H203.812V189.594H201.344V196.594H197.625ZM223.781 179.844C230.328 179.844 234.109 181.562 234.125 184.688C234.109 187.859 230.328 189.562 223.781 189.562C217.219 189.562 213.406 187.859 213.406 184.688C213.406 181.562 217.219 179.844 223.781 179.844ZM210.812 194.062V190.906H236.75V194.062H210.812ZM213.812 198.625V195.719H233.594V202.969H217.75V204.688H234.344V207.688H213.844V200.188H229.656V198.625H213.812ZM217.594 184.688C217.578 186.078 219.609 186.625 223.781 186.625C227.984 186.625 230 186.078 230 184.688C230 183.422 227.984 182.75 223.781 182.75C219.609 182.75 217.578 183.422 217.594 184.688ZM268.406 179.469V188.188H272.25V191.438H268.406V200.688H264.406V179.469H268.406ZM245.844 185.594V182.438H252.312V179.406H256.281V182.438H262.719V185.594H245.844ZM247.219 192.094C247.219 188.797 250.141 186.594 254.281 186.594C258.406 186.594 261.281 188.797 261.281 192.094C261.281 195.375 258.406 197.531 254.281 197.531C250.141 197.531 247.219 195.375 247.219 192.094ZM249.969 207.375V199.062H253.938V204.188H269.438V207.375H249.969ZM251.125 192.094C251.109 193.656 252.375 194.5 254.281 194.5C256.203 194.5 257.5 193.656 257.5 192.094C257.5 190.516 256.203 189.641 254.281 189.625C252.375 189.641 251.109 190.516 251.125 192.094ZM297.469 179.469V200.438H293.5V190.188H288.25V195.938H274.719V181.312H278.719V185.688H284.312V181.312H288.25V187H293.5V179.469H297.469ZM278.531 207.375V198.344H282.562V204.188H298.062V207.375H278.531ZM278.719 192.812H284.312V188.719H278.719V192.812ZM322.844 181.938V185.188H313.906V197.812C318.047 197.766 321.031 197.578 324.375 196.969L324.781 200.188C320.875 200.938 317.438 201.094 312.188 201.062H309.875V181.938H322.844ZM321.438 192.531V189.281H328.594V179.438H332.562V207.938H328.594V192.531H321.438ZM366.75 179.75V207.594H364.281V179.75H366.75ZM344.875 191.594C344.891 185.688 347.828 181.922 351.969 181.906C356.094 181.922 359.078 185.688 359.062 191.594C359.078 197.516 356.094 201.266 351.969 201.25C347.828 201.266 344.891 197.516 344.875 191.594ZM347.25 191.594C347.25 196.109 349.188 199.078 351.969 199.062C354.766 199.078 356.688 196.109 356.688 191.594C356.688 187.078 354.766 184.109 351.969 184.094C349.188 184.109 347.25 187.078 347.25 191.594ZM393.812 180.875V188.094H377.062V191.688H394.406V193.719H374.594V186.156H391.312V182.875H374.531V180.875H393.812ZM371.469 198.625V196.656H396.906V198.625H385.344V207.594H382.906V198.625H371.469ZM406.625 181.906C410.406 181.922 413.141 185.172 413.516 190.375H419.75V179.75H422.188V207.594H419.75V192.406H413.547C413.281 197.859 410.5 201.266 406.625 201.25C402.516 201.266 399.641 197.516 399.656 191.594C399.641 185.688 402.516 181.922 406.625 181.906ZM402 191.594C402.016 196.109 403.891 199.078 406.625 199.062C409.344 199.078 411.25 196.109 411.25 191.594C411.25 187.078 409.344 184.109 406.625 184.094C403.891 184.109 402.016 187.078 402 191.594ZM457.281 193.125V195.156H438.094V182.344H457V184.375H440.531V193.125H457.281ZM434.844 203.75V201.688H460.281V203.75H434.844ZM485.5 179.75V207.594H483.062V195.75H477.281V193.688H483.062V188.156H477.5V186.094H483.062V179.75H485.5ZM463.469 184.312V182.281H475.688V192.156H466V199C470.172 199 473.625 198.844 477.844 198.188L478.062 200.25C473.625 200.938 470.062 201.094 465.625 201.094H463.562V190.156H473.281V184.312H463.469ZM515.594 201.906V203.969H490.156V201.906H496.469V194.422C494.094 193.188 492.656 191.188 492.656 188.656C492.656 184.359 496.875 181.531 502.812 181.5C508.75 181.531 512.969 184.359 512.969 188.656C512.969 191.141 511.578 193.109 509.281 194.344V201.906H515.594ZM495.031 188.656C495.016 191.766 498.25 193.844 502.812 193.844C507.328 193.844 510.594 191.766 510.594 188.656C510.594 185.547 507.328 183.5 502.812 183.531C498.25 183.5 495.016 185.547 495.031 188.656ZM498.875 201.906H506.812V195.297C505.609 195.609 504.266 195.781 502.812 195.781C501.391 195.781 500.062 195.625 498.875 195.312V201.906Z" fill="white"/>
</g>
<path d="M177.78 32.32V24.46H146.34V22.24H177.78V11.98H153.24C152.48 11.98 151.84 12.14 151.32 12.46C150.8 12.78 150.62 13.42 150.78 14.38C150.94 15.3 150.7 16.1 150.06 16.78C149.42 17.46 148.46 17.8 147.18 17.8C145.9 17.8 145 17.44 144.48 16.72C143.96 15.96 143.7 15.06 143.7 14.02C143.7 12.98 144.16 12.02 145.08 11.14C146.04 10.22 147.5 9.76 149.46 9.76H190.14V32.32H177.78ZM162.48 57.16V37.96H140.34V35.74H195.66V37.96H173.52V57.16H162.48ZM204.06 8.8H251.88V11.02H246.48V28.3H251.88V30.52H233.52V38.08H255.66V40.3H200.34V38.08H222.48V30.52H204.06V28.3H209.46V11.02H204.06V8.8ZM221.88 28.3H234.06V11.02H221.88V28.3ZM203.34 44.74H218.64V53.8C218.64 54.04 218.7 54.3 218.82 54.58C218.94 54.86 219.26 55 219.78 55H243.18C244.22 55 244.92 54.62 245.28 53.86C245.68 53.14 245.8 52.32 245.64 51.4C245.6 51.04 245.6 50.58 245.64 50.02C245.72 49.46 245.88 48.92 246.12 48.4C246.4 47.88 246.78 47.44 247.26 47.08C247.78 46.72 248.44 46.54 249.24 46.54C250.84 46.54 251.94 47 252.54 47.92C253.14 48.8 253.46 49.9 253.5 51.22C253.5 51.86 253.36 52.52 253.08 53.2C252.84 53.92 252.36 54.58 251.64 55.18C250.96 55.78 250.02 56.26 248.82 56.62C247.62 57.02 246.1 57.22 244.26 57.22H209.64C207.32 57.22 206.16 56.1 206.16 53.86V46.48H203.34V44.74ZM301.86 8.26H315.9V10H313.56V36.64H304.08V22.48H299.94V36.64H290.46V10H288.24V8.26H299.94V19.72H304.08V10H301.86V8.26ZM284.76 33.04H287.22V35.26H258.78V33.04H262.26V12.22H258.78V10H287.28V12.22H284.76V33.04ZM271.8 33.04H275.46V12.22H271.8V33.04ZM301.44 57.4V42.28H264.24V40.06H313.56V57.4H301.44ZM360.54 52.48C360.54 52.96 360.66 53.28 360.9 53.44C361.14 53.64 361.44 53.76 361.8 53.8H362.82C363.3 53.8 363.62 53.68 363.78 53.44C363.94 53.2 364.04 52.94 364.08 52.66V10H361.8V8.26H376.14V10H373.56V52.48C373.56 53.04 373.72 53.4 374.04 53.56C374.36 53.72 374.74 53.8 375.18 53.8H376.5V55.66H348.36V53.8H349.8C350.36 53.8 350.7 53.64 350.82 53.32C350.98 53 351.06 52.7 351.06 52.42V27.28H346.62C346.62 27.92 346.62 28.56 346.62 29.2C346.66 29.84 346.68 30.5 346.68 31.18C346.68 36.3 346.46 40.36 346.02 43.36C345.58 46.36 344.86 48.64 343.86 50.2C342.86 51.72 341.52 52.7 339.84 53.14C338.2 53.58 336.14 53.8 333.66 53.8C331.22 53.8 329.14 53.58 327.42 53.14C325.74 52.7 324.36 51.72 323.28 50.2C322.24 48.68 321.48 46.44 321 43.48C320.56 40.48 320.34 36.44 320.34 31.36C320.34 26.12 320.56 22 321 19C321.48 16 322.24 13.76 323.28 12.28C324.36 10.76 325.74 9.82 327.42 9.46C329.14 9.06 331.22 8.86 333.66 8.86C335.86 8.86 337.72 9 339.24 9.28C340.8 9.56 342.08 10.22 343.08 11.26C344.12 12.3 344.9 13.88 345.42 16C345.98 18.08 346.34 20.92 346.5 24.52H351.06V10H348.72V8.26H360.54V52.48ZM333.84 51.88C334.72 51.88 335.42 51.74 335.94 51.46C336.46 51.18 336.86 50.8 337.14 50.32C337.42 49.84 337.6 49.32 337.68 48.76C337.76 48.16 337.8 47.56 337.8 46.96V15.7C337.8 15.1 337.76 14.52 337.68 13.96C337.6 13.36 337.42 12.82 337.14 12.34C336.86 11.86 336.46 11.48 335.94 11.2C335.42 10.92 334.72 10.78 333.84 10.78H332.94C332.06 10.78 331.36 10.92 330.84 11.2C330.32 11.48 329.92 11.86 329.64 12.34C329.36 12.82 329.18 13.36 329.1 13.96C329.02 14.52 328.98 15.1 328.98 15.7V46.96C328.98 47.56 329.02 48.16 329.1 48.76C329.18 49.32 329.36 49.84 329.64 50.32C329.92 50.8 330.32 51.18 330.84 51.46C331.36 51.74 332.06 51.88 332.94 51.88H333.84Z" fill="white"/>
<path d="M49.587 98.32H56.187V82H53.847V80.26H65.667V124.72C65.707 125.16 65.887 125.44 66.207 125.56C66.527 125.72 66.887 125.8 67.287 125.8H67.947C68.507 125.8 68.847 125.64 68.967 125.32C69.127 125 69.207 124.7 69.207 124.42V82H66.927V80.26H81.267V82H78.687V124.48C78.687 125.04 78.847 125.4 79.167 125.56C79.487 125.72 79.867 125.8 80.307 125.8H81.627V127.66H53.487V125.8H54.927C55.487 125.8 55.827 125.64 55.947 125.32C56.107 125 56.187 124.7 56.187 124.42V101.08H49.587V125.56H52.347V127.66H23.907V125.56H27.387V84.04H23.907V81.88H52.407V84.04H49.587V98.32ZM36.927 125.56H40.287V84.04H36.927V125.56ZM123.207 80.26H140.667V82.12H137.547V124.48C137.547 125.04 137.707 125.4 138.027 125.56C138.347 125.72 138.727 125.8 139.167 125.8H141.087V127.66H123.207V125.8H125.247C125.807 125.8 126.147 125.64 126.267 125.32C126.427 125 126.507 124.7 126.507 124.42V82.12H123.207V80.26ZM85.347 104.26C85.347 99.18 85.687 95.1 86.367 92.02C87.047 88.94 88.087 86.58 89.487 84.94C90.927 83.26 92.727 82.16 94.887 81.64C97.047 81.08 99.607 80.8 102.567 80.8C105.527 80.8 108.067 81.08 110.187 81.64C112.307 82.16 114.027 83.26 115.347 84.94C116.707 86.58 117.707 88.94 118.347 92.02C118.987 95.1 119.307 99.18 119.307 104.26C119.307 109.34 118.987 113.42 118.347 116.5C117.747 119.58 116.767 121.94 115.407 123.58C114.047 125.22 112.307 126.3 110.187 126.82C108.067 127.38 105.527 127.66 102.567 127.66C99.647 127.66 97.087 127.38 94.887 126.82C92.727 126.3 90.947 125.22 89.547 123.58C88.147 121.94 87.087 119.58 86.367 116.5C85.687 113.42 85.347 109.34 85.347 104.26ZM104.187 125.5C105.067 125.5 105.787 125.36 106.347 125.08C106.947 124.8 107.427 124.42 107.787 123.94C108.147 123.46 108.407 122.94 108.567 122.38C108.727 121.78 108.807 121.18 108.807 120.58V87.88C108.807 87.28 108.727 86.7 108.567 86.14C108.407 85.54 108.147 85 107.787 84.52C107.427 84.04 106.947 83.66 106.347 83.38C105.787 83.1 105.067 82.96 104.187 82.96H100.887C100.007 82.96 99.267 83.1 98.667 83.38C98.107 83.66 97.647 84.04 97.287 84.52C96.927 85 96.667 85.54 96.507 86.14C96.347 86.7 96.267 87.28 96.267 87.88V120.58C96.267 121.18 96.347 121.78 96.507 122.38C96.667 122.94 96.927 123.46 97.287 123.94C97.647 124.42 98.107 124.8 98.667 125.08C99.267 125.36 100.007 125.5 100.887 125.5H104.187ZM186.987 80.26H201.027V82H198.687V109.24H189.207V94.48H185.067V109.24H175.587V82H173.367V80.26H185.067V91.72H189.207V82H186.987V80.26ZM144.627 82H156.747V91.48H161.787V82H171.267V107.5H146.907V83.74H144.627V82ZM161.787 105.16V94H156.747V105.16H161.787ZM186.567 129.4V114.88H149.367V112.66H198.687V129.4H186.567ZM233.427 98.44C229.227 98.44 225.607 98.32 222.567 98.08C219.527 97.84 217.007 97.38 215.007 96.7C213.047 96.02 211.587 95.1 210.627 93.94C209.707 92.78 209.247 91.28 209.247 89.44C209.247 87.36 209.847 85.72 211.047 84.52C212.287 83.32 213.967 82.42 216.087 81.82C218.247 81.18 220.787 80.78 223.707 80.62C226.627 80.42 229.787 80.32 233.187 80.32C236.627 80.32 239.787 80.42 242.667 80.62C245.587 80.78 248.107 81.18 250.227 81.82C252.347 82.42 254.007 83.32 255.207 84.52C256.407 85.72 257.007 87.36 257.007 89.44C257.007 91.28 256.547 92.78 255.627 93.94C254.707 95.1 253.287 96.02 251.367 96.7C249.447 97.34 246.987 97.8 243.987 98.08C241.027 98.32 237.507 98.44 233.427 98.44ZM236.067 96.22C238.707 96.22 240.767 95.78 242.247 94.9C243.727 94.02 244.467 92.46 244.467 90.22V88.6C244.467 86.56 243.727 85.06 242.247 84.1C240.767 83.1 238.707 82.6 236.067 82.6H230.247C227.607 82.6 225.527 83.04 224.007 83.92C222.487 84.8 221.727 86.36 221.727 88.6V90.22C221.727 92.46 222.487 94.02 224.007 94.9C225.527 95.78 227.607 96.22 230.247 96.22H236.067ZM260.787 104.86H205.467V102.64H260.787V104.86ZM253.587 119.38C255.187 119.38 256.287 119.84 256.887 120.76C257.487 121.64 257.807 122.74 257.847 124.06C257.847 124.7 257.707 125.32 257.427 125.92C257.187 126.56 256.707 127.12 255.987 127.6C255.307 128.08 254.367 128.46 253.167 128.74C251.967 129.06 250.447 129.22 248.607 129.22H214.047C211.727 129.22 210.567 128.1 210.567 125.86V117.64H243.987V111.88H210.387V109.66H255.627V117.58C254.907 117.34 254.167 117.22 253.407 117.22C252.487 117.22 251.627 117.44 250.827 117.88C250.067 118.28 249.487 118.94 249.087 119.86H222.207V125.8C222.207 126.04 222.267 126.3 222.387 126.58C222.507 126.86 222.827 127 223.347 127H247.527C248.687 127 249.427 126.72 249.747 126.16C250.067 125.64 250.147 124.92 249.987 124C249.947 123.64 249.947 123.2 249.987 122.68C250.067 122.12 250.227 121.6 250.467 121.12C250.747 120.64 251.127 120.24 251.607 119.92C252.127 119.56 252.787 119.38 253.587 119.38ZM319.189 80.26H336.649V82.12H333.529V95.44H341.449V98.2H333.529V114.82H322.489V82.12H319.189V80.26ZM310.129 82.72H289.069V80.56H310.129V82.72ZM316.549 87.58H282.709V85.42H316.549V87.58ZM283.789 101.92C283.789 99.36 284.109 97.34 284.749 95.86C285.429 94.34 286.429 93.18 287.749 92.38C289.109 91.58 290.809 91.06 292.849 90.82C294.889 90.58 297.269 90.46 299.989 90.46C302.709 90.46 305.049 90.58 307.009 90.82C309.009 91.06 310.649 91.58 311.929 92.38C313.209 93.18 314.149 94.34 314.749 95.86C315.389 97.34 315.709 99.36 315.709 101.92C315.709 104.48 315.409 106.52 314.809 108.04C314.209 109.56 313.269 110.72 311.989 111.52C310.709 112.28 309.069 112.78 307.069 113.02C305.109 113.26 302.749 113.38 299.989 113.38C297.269 113.38 294.889 113.26 292.849 113.02C290.849 112.78 289.169 112.28 287.809 111.52C286.449 110.72 285.429 109.56 284.749 108.04C284.109 106.52 283.789 104.48 283.789 101.92ZM301.069 111.04C301.949 111.04 302.649 110.9 303.169 110.62C303.729 110.34 304.149 109.98 304.429 109.54C304.749 109.06 304.969 108.52 305.089 107.92C305.209 107.32 305.269 106.72 305.269 106.12V97.42C305.269 96.82 305.209 96.24 305.089 95.68C304.969 95.08 304.749 94.54 304.429 94.06C304.149 93.58 303.729 93.2 303.169 92.92C302.649 92.64 301.949 92.5 301.069 92.5H298.849C297.969 92.5 297.249 92.64 296.689 92.92C296.169 93.2 295.749 93.58 295.429 94.06C295.109 94.54 294.889 95.08 294.769 95.68C294.649 96.24 294.589 96.82 294.589 97.42V106.12C294.589 106.72 294.649 107.32 294.769 107.92C294.889 108.52 295.109 109.06 295.429 109.54C295.749 109.98 296.169 110.34 296.689 110.62C297.249 110.9 297.969 111.04 298.849 111.04H301.069ZM284.269 116.62H302.509V118.36H299.089V125.8C299.089 126.04 299.149 126.3 299.269 126.58C299.389 126.86 299.709 127 300.229 127H325.849C327.009 127 327.749 126.58 328.069 125.74C328.389 124.94 328.469 124.08 328.309 123.16C328.269 122.8 328.269 122.36 328.309 121.84C328.389 121.28 328.549 120.76 328.789 120.28C329.069 119.8 329.449 119.4 329.929 119.08C330.449 118.72 331.109 118.54 331.909 118.54C333.509 118.54 334.609 119 335.209 119.92C335.809 120.8 336.129 121.9 336.169 123.22C336.169 123.86 336.029 124.52 335.749 125.2C335.509 125.92 335.029 126.58 334.309 127.18C333.629 127.78 332.689 128.26 331.489 128.62C330.289 129.02 328.769 129.22 326.929 129.22H290.449C288.129 129.22 286.969 128.1 286.969 125.86V118.36H284.269V116.62ZM396.671 80.26H414.131V82.12H411.011V113.44H399.971V95.32H392.291V109.6H361.271V83.44H358.511V81.7H372.131V92.74H381.611V81.7H392.291V92.86H399.971V82.12H396.671V80.26ZM381.611 107.26V95.26H372.131V107.26H381.611ZM361.751 113.5H379.991V115.24H376.571V125.56C376.571 125.8 376.631 126.06 376.751 126.34C376.871 126.62 377.191 126.76 377.711 126.76H402.731C403.771 126.76 404.471 126.38 404.831 125.62C405.231 124.9 405.351 124.08 405.191 123.16C405.151 122.8 405.151 122.36 405.191 121.84C405.271 121.28 405.431 120.76 405.671 120.28C405.951 119.8 406.331 119.4 406.811 119.08C407.331 118.72 407.991 118.54 408.791 118.54C410.391 118.54 411.491 119 412.091 119.92C412.691 120.8 413.011 121.9 413.051 123.22C413.051 123.86 412.911 124.52 412.631 125.2C412.391 125.92 411.911 126.58 411.191 127.18C410.511 127.78 409.571 128.26 408.371 128.62C407.171 129.02 405.651 129.22 403.811 129.22H367.931C365.611 129.22 364.451 128.1 364.451 125.86V115.24H361.751V113.5ZM435.813 81.76H467.733V83.98H450.933V121.42C450.933 121.82 451.053 122.18 451.293 122.5C451.533 122.78 451.913 122.92 452.433 122.92C453.793 122.92 455.473 122.76 457.473 122.44C459.473 122.08 461.573 121.66 463.773 121.18C465.973 120.66 468.153 120.12 470.313 119.56C472.473 119 474.393 118.5 476.073 118.06V102.34H461.793V99.88H476.073V82.12H472.773V80.26H490.233V82.12H487.113V124.48C487.113 125.04 487.273 125.4 487.593 125.56C487.913 125.72 488.293 125.8 488.733 125.8H490.653V127.66H472.773V125.8H474.813C475.373 125.8 475.713 125.64 475.833 125.32C475.993 125 476.073 124.7 476.073 124.42V120.58C474.433 121.06 472.353 121.62 469.833 122.26C467.313 122.9 464.573 123.5 461.613 124.06C458.693 124.66 455.673 125.16 452.553 125.56C449.473 125.96 446.553 126.16 443.793 126.16C442.073 126.16 440.873 125.7 440.193 124.78C439.553 123.86 439.233 122.62 439.233 121.06V83.5H435.813V81.76Z" fill="#FFA2D1"/>
</svg>
