<svg width="590" height="116" viewBox="0 0 590 116" fill="none" xmlns="http://www.w3.org/2000/svg">
<rect x="1.5" y="1.5" width="587" height="113" rx="56.5" stroke="#FFA2D1" stroke-width="3"/>
<path d="M154.109 43.4375V57.75H150.141V55.5625H143.641V52.5312H150.141V50.0312H143.953C142.188 54.2969 138.125 57.0312 131.828 58.4062L130.484 55.1562C137 53.875 140 51.1719 140.531 47.75H132.078V44.5312H144.953C144.953 45.3906 144.891 46.2188 144.766 47H150.141V43.4375H154.109ZM135.203 61.9062V58.7812H154.109V66.5625H139.234V68.4375H154.734V71.5938H135.234V63.625H150.109V61.9062H135.203ZM182.391 43.4375V71.875H178.609V43.4375H182.391ZM157.203 63.5625C161.391 60.9844 162.953 55.8906 162.953 51.0625V49.5312H158.297V46.3438H171.109V49.5312H166.797V51.0625C166.781 55.7812 168.266 60.5625 172.422 62.9375L170.078 65.875C167.531 64.375 165.875 61.8438 164.906 58.7812C163.938 62.0938 162.219 64.9062 159.609 66.5L157.203 63.5625ZM169.078 56.4062V53.1875H172.828V43.9062H176.578V70.5625H172.828V56.4062H169.078ZM217.484 43.4375V71.875H213.672V43.4375H217.484ZM192.797 50.9062V47.75H197.609V44.125H201.578V47.75H206.328V50.9062H192.797ZM193.422 59.0625C193.406 55.0312 196 52.2188 199.484 52.2188C203.047 52.2188 205.609 55.0312 205.609 59.0625V59.2812H208.141V55.875H205.016V52.625H208.141V43.9062H211.859V70.625H208.141V62.4062H204.922C203.922 64.5625 201.938 65.9062 199.484 65.9062C196 65.9062 193.406 63.0938 193.422 59.0625ZM196.891 59.0625C196.875 61.25 197.922 62.5156 199.484 62.5312C201.078 62.5156 202.156 61.25 202.172 59.0625C202.156 56.8281 201.078 55.5938 199.484 55.5938C197.922 55.5938 196.875 56.8281 196.891 59.0625ZM232.734 45.3438V48.5312H225.297V50.875H232.453V53.9062H225.297V56.4219C228.453 56.3906 230.781 56.2656 233.422 55.8125L233.828 59C230.5 59.5938 227.719 59.7031 223.422 59.6875H221.484V45.3438H232.734ZM225.266 65.1875V62H244.922V71.875H240.953V65.1875H225.266ZM234.953 60.5938V43.9688H238.672V50.4062H241.141V43.4688H244.922V60.8125H241.141V53.5938H238.672V60.5938H234.953ZM269.828 45.9375V49.1875H260.891V61.8125C265.031 61.7656 268.016 61.5781 271.359 60.9688L271.766 64.1875C267.859 64.9375 264.422 65.0938 259.172 65.0625H256.859V45.9375H269.828ZM268.422 56.5312V53.2812H275.578V43.4375H279.547V71.9375H275.578V56.5312H268.422ZM316.578 65.3125V68.5625H290.547V65.3125H301.516V60.0625H293.297V45.25H297.297V49.6562H309.703V45.25H313.672V60.0625H305.484V65.3125H316.578ZM297.297 56.875H309.703V52.8438H297.297V56.875ZM342.172 43.4375V71.9375H338.203V56.9375H333.609V53.6875H338.203V43.4375H342.172ZM319.141 49.0312V45.8125H332.016V56.4688H323.172V62.0312C327.094 62 330.406 61.8594 334.078 61.2188L334.391 64.4688C330.172 65.1719 326.312 65.3281 321.547 65.3125H319.203V53.3125H328.141V49.0312H319.141ZM375.672 43.4375V54.3438H379.703V57.625H375.672V71.8125H371.672V43.4375H375.672ZM352.922 63.8438C359.656 60.4688 363.281 55.9375 364.031 49.5938H354.547V46.3438H368.078C368.047 54.8438 364.734 62.2031 355.172 66.9062L352.922 63.8438ZM404.797 43.4375V71.875H400.766V43.4375H404.797ZM380.984 63.8125C388.328 60.3438 391.562 55.8438 392.203 49.5312H382.516V46.4062H396.266C396.25 55.0312 393.234 62.2031 383.078 67L380.984 63.8125Z" fill="white"/>
<path d="M420 58L455 58" stroke="white" stroke-width="2" stroke-linecap="square" stroke-linejoin="round"/>
<path d="M460 58L450 64L450 52L460 58Z" fill="white"/>
</svg>
