<svg width="474" height="484" viewBox="0 0 474 484" fill="none" xmlns="http://www.w3.org/2000/svg">
<path d="M79.6289 101.824V108.031H83.1562V110.164H79.6289V116.289H77.0039V101.824H79.6289ZM61.3906 114.512V103.629H72.3281V105.734H63.9609V112.406C68.7871 112.379 71.5078 112.242 74.5977 111.613L74.8438 113.719C71.5625 114.389 68.6367 114.512 63.332 114.512H61.3906ZM63.4688 121.512C63.4688 118.518 66.6406 116.768 71.6992 116.754C76.7031 116.768 79.8203 118.518 79.8203 121.512C79.8203 124.533 76.7031 126.283 71.6992 126.27C66.6406 126.283 63.4688 124.533 63.4688 121.512ZM66.0391 121.512C66.0254 123.207 68.1582 124.205 71.6992 124.191C75.1719 124.205 77.3184 123.207 77.332 121.512C77.3184 119.816 75.1719 118.846 71.6992 118.859C68.1582 118.846 66.0254 119.816 66.0391 121.512ZM118.867 101.852V119.789H116.27V101.852H118.867ZM98.6875 114.266C102.529 112.844 104.799 109.316 104.812 105.625V103.191H107.465V105.625C107.451 109.207 109.721 112.488 113.508 113.801L112.168 115.879C109.338 114.826 107.246 112.748 106.152 110.096C105.072 112.939 102.953 115.209 100.082 116.316L98.6875 114.266ZM102.844 125.805V118.094H105.469V123.699H119.605V125.805H102.844ZM144.734 103.574C148.604 103.561 151.393 105.953 151.406 109.398C151.393 112.844 148.604 115.236 144.734 115.25C140.879 115.236 138.049 112.844 138.062 109.398C138.049 105.953 140.879 103.561 144.734 103.574ZM136.887 118.941C141.344 118.941 147.523 118.9 152.883 118.121L153.074 120.008C147.537 121.074 141.59 121.102 137.215 121.102L136.887 118.941ZM140.633 109.398C140.605 111.572 142.355 112.98 144.734 112.98C147.113 112.98 148.863 111.572 148.863 109.398C148.863 107.252 147.113 105.816 144.734 105.816C142.355 105.816 140.605 107.252 140.633 109.398ZM154.414 126.379V101.824H157.012V126.379H154.414ZM199.504 104.367V117.984C202.02 117.943 204.385 117.793 207.105 117.219L207.461 119.434C204.275 120.104 201.555 120.227 198.52 120.227H196.906V104.367H199.504ZM203.77 112.023V109.891H209.129V102.371H211.59V125.121H209.129V112.023H203.77ZM214.379 126.324V101.824H216.84V126.324H214.379ZM275.246 101.852V119.953H272.648V110.711H267.289V115.879H255.996V103.465H258.594V107.621H264.719V103.465H267.289V108.605H272.648V101.852H275.246ZM258.594 113.773H264.719V109.617H258.594V113.773ZM259.25 125.805V118.176H261.875V123.699H275.793V125.805H259.25ZM314.457 101.824V126.324H311.969V113.801H309.617V125.121H307.211V102.289H309.617V111.668H311.969V101.824H314.457ZM292.473 118.777C295.316 116.535 295.768 112.174 295.781 109.016V106.801H293.348V104.723H299.391V106.801H298.051V109.016C298.023 111.189 298.133 114.785 299.76 117.451C301.346 114.895 301.428 111.449 301.441 109.016V106.801H300.102V104.723H305.926V106.801H303.711V109.016C303.684 112.256 304.176 116.549 307.02 118.777L305.543 120.582C304.053 119.379 303.137 117.547 302.617 115.51C302.139 117.602 301.291 119.557 299.746 120.828C298.201 119.529 297.34 117.547 296.861 115.441C296.342 117.492 295.453 119.365 293.977 120.582L292.473 118.777ZM374.477 121.074V123.207H352.055V121.074H361.871V115.25H364.441V121.074H374.477ZM352.82 113.555C357.537 112.762 361.748 109.125 361.762 105.242V103.383H364.496V105.242C364.496 109.125 368.762 112.762 373.492 113.555L372.371 115.688C368.393 114.908 364.756 112.447 363.143 109.098C361.529 112.434 357.92 114.908 353.969 115.688L352.82 113.555ZM410.625 101.852V120.418H408.027V118.066H403.105V116.234H408.027V101.852H410.625ZM390.145 113.035C394.67 112.994 400.781 112.953 406.004 112.297L406.168 114.156C404.076 114.512 401.875 114.73 399.715 114.881V119.652H397.117V115.018C394.738 115.113 392.455 115.113 390.473 115.113L390.145 113.035ZM392.059 107.102C392.045 104.504 394.52 102.781 398.156 102.781C401.738 102.781 404.227 104.504 404.227 107.102C404.227 109.713 401.738 111.367 398.156 111.367C394.533 111.367 392.045 109.713 392.059 107.102ZM393.535 125.805V118.613H396.105V123.699H411.227V125.805H393.535ZM394.52 107.102C394.506 108.551 395.982 109.453 398.156 109.453C400.248 109.453 401.752 108.551 401.766 107.102C401.752 105.639 400.248 104.695 398.156 104.723C395.982 104.695 394.506 105.639 394.52 107.102Z" fill="white"/>
<path opacity="0.8" d="M24.4062 391.781V412.312H21.9688V391.781H24.4062ZM2.03125 407C6.20312 405.641 9.125 402.156 9.125 398.25V397.5H2.71875V395.531H9.125V391.906H11.5938V395.531H17.9375V397.5H11.5625V398.25C11.5469 401.922 14.5312 405.203 18.6875 406.469L17.4688 408.438C14.2031 407.375 11.625 405.172 10.375 402.297C9.15625 405.391 6.57812 407.797 3.28125 408.938L2.03125 407ZM6.46875 418.938V410.406H8.90625V416.875H25.2812V418.938H6.46875ZM51.0938 393.562V396C51.0938 398.625 51.0938 401.516 50.2969 405.5H54.4375V407.531H42.9688V419.594H40.5V407.531H29.125V405.5H47.8125C48.6562 401.5 48.6562 398.594 48.6562 396V395.594H32.3125V393.562H51.0938ZM80.5938 391.75V419.531H78.2188V391.75H80.5938ZM57.125 403.75C57.1406 397.844 59.4844 394.109 63.0938 394.094C66.4688 394.109 68.75 397.359 69.0625 402.594H72.6562V392.344H75V418.125H72.6562V404.625H69.0781C68.8438 410.031 66.5156 413.422 63.0938 413.406C59.4844 413.422 57.1406 409.656 57.125 403.75ZM59.4375 403.75C59.4062 408.25 60.8438 411.094 63.0938 411.062C65.3594 411.094 66.7969 408.25 66.7812 403.75C66.7969 399.234 65.3594 396.406 63.0938 396.406C60.8438 396.406 59.4062 399.234 59.4375 403.75ZM108.219 391.75V419.531H105.875V391.75H108.219ZM84.4688 411.75C90.5 408.172 93.5312 403.156 94 397.344H85.6562V395.312H96.4375C96.4375 398.047 96 400.688 95.0469 403.156H100.031V392.5H102.375V418.125H100.031V405.156H94.1406C92.4688 408.391 89.7812 411.25 85.9062 413.531L84.4688 411.75ZM145.562 413.875V415.906H120.125V413.875H131.5V407.062H133.906V413.875H145.562ZM121.125 405.344C125.984 404.516 131.391 400.453 131.406 395.781V393.656H133.969V395.781C133.984 400.422 139.469 404.516 144.312 405.344L143.219 407.375C138.984 406.5 134.516 403.641 132.719 399.641C130.891 403.625 126.469 406.5 122.219 407.375L121.125 405.344ZM173.188 405.969V408H161.875V413.688H159.438V408H147.75V405.969H173.188ZM151 418.938V410.938H153.469V416.875H170.344V418.938H151ZM151.062 402.781V393.125H169.875V402.781H151.062ZM153.469 400.812H167.438V395.062H153.469V400.812ZM199.156 391.75V419.531H196.75V405.156H192.75V418.094H190.438V392.375H192.75V403.062H196.75V391.75H199.156ZM176.844 412.344V395.156H179.281V410.156C182.031 410.141 185 409.938 188.375 409.25L188.688 411.438C184.812 412.141 181.625 412.344 178.562 412.344H176.844ZM225.375 394.562V397.344C225.344 400.75 225.344 404.562 224.344 410.156L221.844 409.875C222.891 404.562 222.891 400.672 222.906 397.344V396.594H205.781V394.562H225.375ZM203.094 415.594V413.562H213.031V403.625H215.438V413.562H228.406V415.594H203.094ZM249.906 406.812V411.094C252.25 410.953 254.594 410.734 256.812 410.406L257.125 413.312C250.812 414.516 244.062 414.578 239.094 414.594L238.625 411.375C240.766 411.375 243.281 411.359 245.938 411.281V406.812H249.906ZM239.188 404.688C243.484 403.547 245.578 400.891 245.844 398H240.094V394.781H245.938V391.688H249.906V394.781H255.781V398H249.969C250.234 400.75 252.359 403.328 256.656 404.375L254.844 407.469C251.516 406.625 249.219 404.781 247.922 402.422C246.688 404.906 244.422 406.828 241.062 407.688L239.188 404.688ZM258.438 419.938V391.438H262.406V419.938H258.438ZM290.75 391.438V419.875H286.969V405.594H284.219V418.5H280.562V391.906H284.219V402.406H286.969V391.438H290.75ZM266.969 413.438V394.719H277.562V397.938H270.969V410.094C273.719 410.047 276.156 409.891 278.906 409.406L279.188 412.656C275.719 413.312 272.688 413.422 268.938 413.438H266.969ZM325.156 391.438V408.094H321.188V404.469H315.875V406.531H302.375V393.531H315.875V395.594H321.188V391.438H325.156ZM305.656 414.375C305.656 410.875 309.375 408.828 315.438 408.844C321.516 408.828 325.234 410.875 325.25 414.375C325.234 417.891 321.516 419.891 315.438 419.875C309.375 419.891 305.656 417.891 305.656 414.375ZM306.344 403.375H311.969V396.688H306.344V403.375ZM309.625 414.375C309.625 416 311.672 416.844 315.438 416.844C319.219 416.844 321.266 416 321.281 414.375C321.266 412.688 319.219 411.875 315.438 411.875C311.672 411.875 309.625 412.688 309.625 414.375ZM315.875 401.25H321.188V398.75H315.875V401.25ZM354.781 404.75V407.906H343.781V410.344H351.688V419.562H331.844V410.344H339.812V407.906H328.844V404.75H354.781ZM331.125 395.406V392.219H352.469V395.406H348.75V399.75H352.281V402.938H331.312V399.75H334.812V395.406H331.125ZM335.781 416.375H347.781V413.438H335.781V416.375ZM338.812 399.75H344.75V395.406H338.812V399.75ZM378.719 394.156C378.688 402.938 376.562 410.234 365.938 415.562L363.75 412.562C368.5 410.203 371.328 407.562 372.938 404.406L364.531 405.188L364.031 401.781L374.141 401.172C374.438 399.969 374.641 398.688 374.734 397.344H365.531V394.156H378.719ZM382.312 419.812V391.438H386.312V402.344H390.344V405.625H386.312V419.812H382.312ZM414.719 404.594V407.781H394.594V393.812H414.5V397.031H398.531V404.594H414.719ZM391.531 416.406V413.125H417.562V416.406H391.531ZM430.219 399.188C430.203 403.781 432.578 408.703 437.344 410.688L435.188 413.812C431.844 412.391 429.531 409.562 428.25 406.125C426.969 409.859 424.609 412.984 421.25 414.531L418.969 411.375C423.688 409.266 426.125 404 426.125 399.188V397.438H420.094V394.188H436.156V397.438H430.219V399.188ZM438.969 419.875V391.438H443V419.875H438.969ZM469.406 391.438V397.594H473.25V400.875H469.406V406.875H465.375V391.438H469.406ZM446.719 404C453.359 402.594 456.594 399.594 457.094 396.094H448.156V392.969H461.5C461.516 400.5 456.828 405.266 448.156 407.219L446.719 404ZM450.719 419.562V407.969H454.75V410.75H465.406V407.969H469.406V419.562H450.719ZM454.75 416.344H465.406V413.812H454.75V416.344ZM95.7188 443.75V451H99.875V453.062H95.7188V460.344H93.25V443.75H95.7188ZM75.25 458.062V445.875H87.5938V447.906H77.6562V456.062C83.2812 456.031 86.5156 455.859 90.25 455.094L90.5 457.125C86.6094 457.906 83.2812 458.062 77.4062 458.062H75.25ZM77.5625 466.156C77.5781 462.828 81.1094 460.891 86.7812 460.875C92.4531 460.891 95.9375 462.828 95.9375 466.156C95.9375 469.531 92.4531 471.469 86.7812 471.469C81.1094 471.469 77.5781 469.531 77.5625 466.156ZM79.9688 466.156C79.9844 468.219 82.5938 469.484 86.7812 469.5C90.9375 469.484 93.5781 468.219 93.5625 466.156C93.5781 464.109 90.9375 462.875 86.7812 462.906C82.5938 462.875 79.9844 464.109 79.9688 466.156ZM111.094 449.656C111.109 453.125 114.094 456.094 118.188 457.281L117.062 459.219C113.781 458.25 111.188 456.188 109.938 453.484C108.719 456.406 106.156 458.672 102.844 459.75L101.625 457.844C105.766 456.578 108.672 453.359 108.688 449.656V449.031H102.406V447.062H108.688V443.625H111.156V447.062H117.375V449.031H111.094V449.656ZM106.5 471.156V461.656H124.656V471.156H106.5ZM108.938 469.156H122.25V463.656H108.938V469.156ZM116.562 453.594V451.562H122.188V443.75H124.656V460.219H122.188V453.594H116.562ZM160.906 443.75V461.344H158.562V453.375H154.844V460.344H152.531V444.312H154.844V451.344H158.562V443.75H160.906ZM137.156 449.062V447.094H143.094V443.969H145.531V447.094H151.406V449.062H137.156ZM138.375 455.312C138.359 452.406 140.812 450.547 144.312 450.562C147.828 450.547 150.266 452.406 150.281 455.312C150.266 458.172 147.828 460.031 144.312 460.031C140.812 460.031 138.359 458.172 138.375 455.312ZM140.562 455.312C140.562 457.016 142.094 458.188 144.312 458.188C146.531 458.188 148.062 457.016 148.062 455.312C148.062 453.547 146.531 452.375 144.312 452.375C142.094 452.375 140.562 453.547 140.562 455.312ZM142.406 466.688C142.375 463.562 145.859 461.812 151.719 461.812C157.562 461.812 161.047 463.562 161.062 466.688C161.047 469.734 157.562 471.469 151.719 471.469C145.859 471.469 142.375 469.734 142.406 466.688ZM144.844 466.688C144.812 468.484 147.391 469.578 151.719 469.562C156.031 469.578 158.594 468.484 158.625 466.688C158.594 464.781 156.031 463.719 151.719 463.75C147.391 463.719 144.812 464.781 144.844 466.688ZM190.375 457.875V459.906H179.094V465.594H176.625V459.906H164.938V457.875H190.375ZM167.812 450.062C167.797 446.609 171.688 444.484 177.625 444.469C183.562 444.484 187.406 446.609 187.406 450.062C187.406 453.484 183.562 455.609 177.625 455.594C171.688 455.609 167.797 453.484 167.812 450.062ZM168.219 470.938V462.812H170.688V468.844H187.531V470.938H168.219ZM170.438 450.062C170.406 452.219 173.297 453.594 177.625 453.594C181.938 453.594 184.812 452.219 184.812 450.062C184.812 447.844 181.938 446.484 177.625 446.469C173.297 446.484 170.406 447.844 170.438 450.062ZM205.281 444.25C211.453 444.25 215.078 445.953 215.094 449.031C215.078 452.188 211.453 453.891 205.281 453.906C199.078 453.891 195.438 452.188 195.438 449.031C195.438 445.953 199.078 444.25 205.281 444.25ZM192.625 457.781V455.781H217.938V457.781H192.625ZM195.688 462.062V460.188H214.688V466.406H198.188V469.281H215.531V471.219H195.75V464.594H212.281V462.062H195.688ZM198 449.031C197.969 450.969 200.672 452.031 205.281 452.031C209.891 452.031 212.578 450.969 212.594 449.031C212.578 447.203 209.891 446.109 205.281 446.094C200.672 446.109 197.969 447.203 198 449.031ZM251.219 443.75V471.594H248.75V443.75H251.219ZM229.344 455.594C229.359 449.688 232.297 445.922 236.438 445.906C240.562 445.922 243.547 449.688 243.531 455.594C243.547 461.516 240.562 465.266 236.438 465.25C232.297 465.266 229.359 461.516 229.344 455.594ZM231.719 455.594C231.719 460.109 233.656 463.078 236.438 463.062C239.234 463.078 241.156 460.109 241.156 455.594C241.156 451.078 239.234 448.109 236.438 448.094C233.656 448.109 231.719 451.078 231.719 455.594ZM278.281 444.875V452.094H261.531V455.688H278.875V457.719H259.062V450.156H275.781V446.875H259V444.875H278.281ZM255.938 462.625V460.656H281.375V462.625H269.812V471.594H267.375V462.625H255.938ZM291.094 445.906C294.875 445.922 297.609 449.172 297.984 454.375H304.219V443.75H306.656V471.594H304.219V456.406H298.016C297.75 461.859 294.969 465.266 291.094 465.25C286.984 465.266 284.109 461.516 284.125 455.594C284.109 449.688 286.984 445.922 291.094 445.906ZM286.469 455.594C286.484 460.109 288.359 463.078 291.094 463.062C293.812 463.078 295.719 460.109 295.719 455.594C295.719 451.078 293.812 448.109 291.094 448.094C288.359 448.109 286.484 451.078 286.469 455.594ZM341.75 457.125V459.156H322.562V446.344H341.469V448.375H325V457.125H341.75ZM319.312 467.75V465.688H344.75V467.75H319.312ZM369.969 443.75V471.594H367.531V459.75H361.75V457.688H367.531V452.156H361.969V450.094H367.531V443.75H369.969ZM347.938 448.312V446.281H360.156V456.156H350.469V463C354.641 463 358.094 462.844 362.312 462.188L362.531 464.25C358.094 464.938 354.531 465.094 350.094 465.094H348.031V454.156H357.75V448.312H347.938ZM400.062 465.906V467.969H374.625V465.906H380.938V458.422C378.562 457.188 377.125 455.188 377.125 452.656C377.125 448.359 381.344 445.531 387.281 445.5C393.219 445.531 397.438 448.359 397.438 452.656C397.438 455.141 396.047 457.109 393.75 458.344V465.906H400.062ZM379.5 452.656C379.484 455.766 382.719 457.844 387.281 457.844C391.797 457.844 395.062 455.766 395.062 452.656C395.062 449.547 391.797 447.5 387.281 447.531C382.719 447.5 379.484 449.547 379.5 452.656ZM383.344 465.906H391.281V459.297C390.078 459.609 388.734 459.781 387.281 459.781C385.859 459.781 384.531 459.625 383.344 459.312V465.906Z" fill="white"/>
<path d="M81.54 221.2C81.54 219.12 82.2333 217.36 83.62 215.92C85.06 214.48 86.8467 213.76 88.98 213.76C91.06 213.76 92.82 214.48 94.26 215.92C95.7 217.36 96.42 219.12 96.42 221.2C96.42 222.373 96.18 223.44 95.7 224.4C98.2067 223.387 100.287 221.893 101.94 219.92C103.593 217.893 104.9 215.52 105.86 212.8C106.873 210.027 107.567 206.933 107.94 203.52C108.313 200.053 108.5 196.347 108.5 192.4V187.6H104.18V185.28H123.94V191.52C123.94 197.44 124.527 202.48 125.7 206.64C126.927 210.747 128.633 214.107 130.82 216.72C133.007 219.28 135.62 221.173 138.66 222.4C141.7 223.573 145.06 224.187 148.74 224.24V227.84C145.22 227.84 141.673 227.307 138.1 226.24C134.58 225.12 131.327 223.627 128.34 221.76C125.407 219.893 122.873 217.707 120.74 215.2C118.66 212.693 117.273 210 116.58 207.12C115.567 210.747 113.993 213.92 111.86 216.64C109.78 219.307 107.433 221.547 104.82 223.36C102.207 225.173 99.4867 226.533 96.66 227.44C93.8867 228.293 91.3267 228.693 88.98 228.64C86.8467 228.64 85.06 227.947 83.62 226.56C82.2333 225.12 81.54 223.333 81.54 221.2ZM153.38 247.04H79.62V244.08H109.54V225.68H124.26V244.08H153.38V247.04ZM162.66 184.4H226.58V210.72H165.7V186.72H162.66V184.4ZM182.26 207.76H210.02V187.36H182.26V207.76ZM191.54 236V221.84H159.62V218.88H233.38V221.84H206.26V236H191.54ZM162.82 229.2H183.22V244.4C183.22 244.72 183.3 245.067 183.46 245.44C183.62 245.813 184.047 246 184.74 246H215.86C217.247 246 218.18 245.493 218.66 244.48C219.193 243.52 219.353 242.427 219.14 241.2C219.087 240.72 219.087 240.107 219.14 239.36C219.247 238.613 219.46 237.893 219.78 237.2C220.153 236.507 220.66 235.92 221.3 235.44C221.993 234.96 222.873 234.72 223.94 234.72C226.073 234.72 227.54 235.333 228.34 236.56C229.14 237.733 229.567 239.2 229.62 240.96C229.62 241.813 229.433 242.693 229.06 243.6C228.74 244.56 228.1 245.44 227.14 246.24C226.233 247.04 224.98 247.68 223.38 248.16C221.78 248.693 219.753 248.96 217.3 248.96H171.22C168.127 248.96 166.58 247.467 166.58 244.48V231.52H162.82V229.2ZM240.42 185.6H259.78V238.56C259.78 239.093 259.833 239.573 259.94 240C260.1 240.373 260.527 240.56 261.22 240.56C261.86 240.56 262.793 240.427 264.02 240.16C265.247 239.84 266.633 239.44 268.18 238.96C269.727 238.427 271.353 237.84 273.06 237.2C274.82 236.56 276.5 235.92 278.1 235.28V186H274.98V183.68H290.74V206.16H297.14V186H294.1V183.68H313.22V186H309.78V242.64C309.78 243.387 309.993 243.867 310.42 244.08C310.847 244.293 311.353 244.4 311.94 244.4H313.7V246.88H274.5V244.4H276.42C277.167 244.4 277.62 244.187 277.78 243.76C277.993 243.333 278.1 242.933 278.1 242.56V238.16C276.34 238.853 274.447 239.6 272.42 240.4C270.393 241.147 268.26 241.84 266.02 242.48C263.78 243.173 261.407 243.733 258.9 244.16C256.393 244.64 253.78 244.88 251.06 244.88C248.767 244.88 247.167 244.267 246.26 243.04C245.407 241.813 244.98 240.16 244.98 238.08V187.92H240.42V185.6ZM295.54 244.4C296.287 244.347 296.74 244.107 296.9 243.68C297.06 243.307 297.14 242.933 297.14 242.56V209.84H290.74V242.96C290.793 243.547 291.007 243.92 291.38 244.08C291.753 244.24 292.18 244.347 292.66 244.4H295.54ZM370.34 183.68H393.62V186.16H389.46V226.8H374.74V210.24H364.5V220.64H323.14V188.32H319.46V186H364.5V193.12H374.74V186.16H370.34V183.68ZM337.62 217.68H350.02V188.96H337.62V217.68ZM364.5 206.96H374.74V196.4H364.5V206.96ZM323.78 226.8H348.1V229.12H343.54V244.4C343.54 244.72 343.62 245.067 343.78 245.44C343.94 245.813 344.367 246 345.06 246H379.22C380.767 246 381.753 245.44 382.18 244.32C382.607 243.253 382.713 242.107 382.5 240.88C382.447 240.4 382.447 239.813 382.5 239.12C382.607 238.373 382.82 237.68 383.14 237.04C383.513 236.4 384.02 235.867 384.66 235.44C385.353 234.96 386.233 234.72 387.3 234.72C389.433 234.72 390.9 235.333 391.7 236.56C392.5 237.733 392.927 239.2 392.98 240.96C392.98 241.813 392.793 242.693 392.42 243.6C392.1 244.56 391.46 245.44 390.5 246.24C389.593 247.04 388.34 247.68 386.74 248.16C385.14 248.693 383.113 248.96 380.66 248.96H332.02C328.927 248.96 327.38 247.467 327.38 244.48V229.12H323.78V226.8Z" fill="white"/>
<path d="M79.2853 273.68H102.565V276.16H98.4053V316.8H83.6853V292H69.8453V288.72H83.6853V276.16H79.2853V273.68ZM45.3653 277.92H40.2453V275.6H60.8053V288.48C60.8053 292.533 61.2586 295.813 62.1653 298.32C63.072 300.827 64.2986 302.8 65.8453 304.24C67.392 305.68 69.2053 306.667 71.2853 307.2C73.4186 307.733 75.6853 308.08 78.0853 308.24V311.2C75.0987 311.2 72.272 310.933 69.6053 310.4C66.992 309.867 64.6186 308.96 62.4853 307.68C60.352 306.347 58.512 304.613 56.9653 302.48C55.4186 300.347 54.2453 297.68 53.4453 294.48C52.752 297.787 51.4986 300.56 49.6853 302.8C47.872 305.04 45.792 306.853 43.4453 308.24C41.0986 309.573 38.6186 310.533 36.0053 311.12C33.392 311.653 30.912 311.893 28.5653 311.84V308.88C31.8186 308.88 34.512 308.32 36.6453 307.2C38.832 306.08 40.5653 304.587 41.8453 302.72C43.1253 300.853 44.032 298.72 44.5653 296.32C45.0986 293.867 45.3653 291.28 45.3653 288.56V277.92ZM32.7253 316.8H57.0453V319.12H52.4853V334.4C52.4853 334.72 52.5653 335.067 52.7253 335.44C52.8853 335.813 53.312 336 54.0053 336H88.1653C89.712 336 90.6986 335.44 91.1253 334.32C91.552 333.253 91.6587 332.107 91.4453 330.88C91.392 330.4 91.392 329.813 91.4453 329.12C91.552 328.373 91.7653 327.68 92.0853 327.04C92.4586 326.4 92.9653 325.867 93.6053 325.44C94.2987 324.96 95.1787 324.72 96.2453 324.72C98.3787 324.72 99.8453 325.333 100.645 326.56C101.445 327.733 101.872 329.2 101.925 330.96C101.925 331.813 101.739 332.693 101.365 333.6C101.045 334.56 100.405 335.44 99.4453 336.24C98.5387 337.04 97.2853 337.68 95.6853 338.16C94.0853 338.693 92.0586 338.96 89.6053 338.96H40.9653C37.872 338.96 36.3253 337.467 36.3253 334.48V319.12H32.7253V316.8ZM111.605 274.4H175.525V295.2H114.645V276.72H111.605V274.4ZM131.205 292.24H158.965V277.36H131.205V292.24ZM172.405 325.44C174.539 325.44 176.005 326.053 176.805 327.28C177.605 328.453 178.032 329.92 178.085 331.68C178.085 332.533 177.899 333.387 177.525 334.24C177.205 335.093 176.565 335.867 175.605 336.56C174.699 337.253 173.445 337.813 171.845 338.24C170.245 338.72 168.219 338.96 165.765 338.96H120.005C116.912 338.96 115.365 337.467 115.365 334.48V323.12H159.605V315.04H115.125V312.08H138.085V304.24H108.565V301.28H182.325V304.24H152.805V312.08H175.125V323.04C174.165 322.72 173.179 322.56 172.165 322.56C170.939 322.56 169.792 322.853 168.725 323.44C167.712 323.973 166.939 324.853 166.405 326.08H130.885V334.4C130.885 334.72 130.965 335.067 131.125 335.44C131.285 335.813 131.712 336 132.405 336H164.325C165.872 336 166.859 335.573 167.285 334.72C167.712 333.867 167.819 332.827 167.605 331.6C167.552 331.12 167.552 330.533 167.605 329.84C167.712 329.093 167.925 328.4 168.245 327.76C168.619 327.12 169.125 326.587 169.765 326.16C170.459 325.68 171.339 325.44 172.405 325.44ZM238.885 273.68H262.165V276.16H258.005V332.64C258.005 333.387 258.219 333.867 258.645 334.08C259.072 334.293 259.579 334.4 260.165 334.4H262.725V336.88H238.885V334.4H241.605C242.352 334.4 242.805 334.187 242.965 333.76C243.179 333.333 243.285 332.933 243.285 332.56V276.16H238.885V273.68ZM188.405 305.68C188.405 298.907 188.859 293.467 189.765 289.36C190.672 285.253 192.059 282.107 193.925 279.92C195.845 277.68 198.245 276.213 201.125 275.52C204.005 274.773 207.419 274.4 211.365 274.4C215.312 274.4 218.699 274.773 221.525 275.52C224.352 276.213 226.645 277.68 228.405 279.92C230.219 282.107 231.552 285.253 232.405 289.36C233.259 293.467 233.685 298.907 233.685 305.68C233.685 312.453 233.259 317.893 232.405 322C231.605 326.107 230.299 329.253 228.485 331.44C226.672 333.627 224.352 335.067 221.525 335.76C218.699 336.507 215.312 336.88 211.365 336.88C207.472 336.88 204.059 336.507 201.125 335.76C198.245 335.067 195.872 333.627 194.005 331.44C192.139 329.253 190.725 326.107 189.765 322C188.859 317.893 188.405 312.453 188.405 305.68ZM213.525 334C214.699 334 215.659 333.813 216.405 333.44C217.205 333.067 217.845 332.56 218.325 331.92C218.805 331.28 219.152 330.587 219.365 329.84C219.579 329.04 219.685 328.24 219.685 327.44V283.84C219.685 283.04 219.579 282.267 219.365 281.52C219.152 280.72 218.805 280 218.325 279.36C217.845 278.72 217.205 278.213 216.405 277.84C215.659 277.467 214.699 277.28 213.525 277.28H209.125C207.952 277.28 206.965 277.467 206.165 277.84C205.419 278.213 204.805 278.72 204.325 279.36C203.845 280 203.499 280.72 203.285 281.52C203.072 282.267 202.965 283.04 202.965 283.84V327.44C202.965 328.24 203.072 329.04 203.285 329.84C203.499 330.587 203.845 331.28 204.325 331.92C204.805 332.56 205.419 333.067 206.165 333.44C206.965 333.813 207.952 334 209.125 334H213.525ZM341.395 273.68H364.675V276.16H360.515V308.96H345.795V292.32H335.235V289.04H345.795V276.16H341.395V273.68ZM331.555 302.96H337.235V305.92H290.195V302.96H296.355V278.96H290.195V276H337.315V278.96H331.555V302.96ZM310.835 302.96H317.555V278.96H310.835V302.96ZM329.475 339.68C323.875 339.68 319.048 339.547 314.995 339.28C310.995 339.067 307.715 338.48 305.155 337.52C302.595 336.613 300.701 335.28 299.475 333.52C298.248 331.76 297.635 329.36 297.635 326.32C297.635 322.907 298.408 320.293 299.955 318.48C301.555 316.613 303.741 315.253 306.515 314.4C309.341 313.547 312.675 313.067 316.515 312.96C320.408 312.8 324.621 312.72 329.155 312.72C333.741 312.72 337.928 312.8 341.715 312.96C345.555 313.067 348.861 313.547 351.635 314.4C354.461 315.253 356.648 316.613 358.195 318.48C359.741 320.293 360.515 322.907 360.515 326.32C360.515 329.36 359.928 331.76 358.755 333.52C357.581 335.28 355.715 336.613 353.155 337.52C350.648 338.427 347.421 339.013 343.475 339.28C339.581 339.547 334.915 339.68 329.475 339.68ZM332.995 336.72C334.755 336.72 336.381 336.64 337.875 336.48C339.421 336.373 340.728 336.053 341.795 335.52C342.915 335.04 343.795 334.293 344.435 333.28C345.075 332.32 345.395 330.987 345.395 329.28V323.6C345.395 322.053 345.075 320.773 344.435 319.76C343.795 318.693 342.915 317.867 341.795 317.28C340.728 316.693 339.421 316.293 337.875 316.08C336.381 315.813 334.755 315.68 332.995 315.68H325.235C323.475 315.68 321.821 315.787 320.275 316C318.781 316.16 317.448 316.533 316.275 317.12C315.155 317.653 314.275 318.453 313.635 319.52C312.995 320.533 312.675 321.893 312.675 323.6V329.28C312.675 330.987 312.995 332.32 313.635 333.28C314.275 334.293 315.155 335.04 316.275 335.52C317.448 336.053 318.781 336.373 320.275 336.48C321.821 336.64 323.475 336.72 325.235 336.72H332.995ZM421.395 273.68H444.675V276.16H440.515V308.96H425.795V292.32H415.235V289.04H425.795V276.16H421.395V273.68ZM411.555 302.96H417.235V305.92H370.195V302.96H376.355V278.96H370.195V276H417.315V278.96H411.555V302.96ZM390.835 302.96H397.555V278.96H390.835V302.96ZM409.475 339.68C403.875 339.68 399.048 339.547 394.995 339.28C390.995 339.067 387.715 338.48 385.155 337.52C382.595 336.613 380.701 335.28 379.475 333.52C378.248 331.76 377.635 329.36 377.635 326.32C377.635 322.907 378.408 320.293 379.955 318.48C381.555 316.613 383.741 315.253 386.515 314.4C389.341 313.547 392.675 313.067 396.515 312.96C400.408 312.8 404.621 312.72 409.155 312.72C413.741 312.72 417.928 312.8 421.715 312.96C425.555 313.067 428.861 313.547 431.635 314.4C434.461 315.253 436.648 316.613 438.195 318.48C439.741 320.293 440.515 322.907 440.515 326.32C440.515 329.36 439.928 331.76 438.755 333.52C437.581 335.28 435.715 336.613 433.155 337.52C430.648 338.427 427.421 339.013 423.475 339.28C419.581 339.547 414.915 339.68 409.475 339.68ZM412.995 336.72C414.755 336.72 416.381 336.64 417.875 336.48C419.421 336.373 420.728 336.053 421.795 335.52C422.915 335.04 423.795 334.293 424.435 333.28C425.075 332.32 425.395 330.987 425.395 329.28V323.6C425.395 322.053 425.075 320.773 424.435 319.76C423.795 318.693 422.915 317.867 421.795 317.28C420.728 316.693 419.421 316.293 417.875 316.08C416.381 315.813 414.755 315.68 412.995 315.68H405.235C403.475 315.68 401.821 315.787 400.275 316C398.781 316.16 397.448 316.533 396.275 317.12C395.155 317.653 394.275 318.453 393.635 319.52C392.995 320.533 392.675 321.893 392.675 323.6V329.28C392.675 330.987 392.995 332.32 393.635 333.28C394.275 334.293 395.155 335.04 396.275 335.52C397.448 336.053 398.781 336.373 400.275 336.48C401.821 336.64 403.475 336.72 405.235 336.72H412.995Z" fill="#FFA2D1"/>
<path d="M240.706 24.3817C213.286 71.8728 189.111 30 243.952 30C189.116 30 213.291 -11.8728 240.706 35.6183C213.286 -11.8728 261.635 -11.8728 234.22 35.6183C261.64 -11.8728 285.814 30 230.974 30C285.81 30 261.635 71.8728 234.22 24.3817C261.64 71.8728 213.291 71.8728 240.706 24.3817Z" fill="white"/>
</svg>
