<svg width="580" height="292" viewBox="0 0 580 292" fill="none" xmlns="http://www.w3.org/2000/svg">
<path d="M17.9062 25.6406C16.5938 25.6406 15.5156 24.5625 15.5156 23.2266C15.5156 21.9141 16.5938 20.8359 17.9062 20.8359C19.2422 20.8359 20.3203 21.9141 20.3203 23.2266C20.3203 24.5625 19.2422 25.6406 17.9062 25.6406ZM47.2266 14.1328C47.2383 17.707 51.3164 20.8828 54.9375 21.5625L54.0938 23.1094C50.9414 22.3828 47.6367 20.1445 46.2891 17.0859C44.9297 20.1445 41.6367 22.3711 38.4844 23.1094L37.6406 21.5625C41.25 20.8711 45.293 17.7188 45.3047 14.1328V12.5391H47.2266V14.1328ZM36.8438 29.0625V27.5391H55.9219V29.0625H36.8438ZM75.5156 11.0625V31.8984H73.7344V11.0625H75.5156ZM57.3516 25.1719C57.9961 25.1719 58.7461 25.1719 59.5547 25.1602V15.2578H57.7969V13.7344H67.3828V15.2578H65.625V24.9141C66.4102 24.8438 67.1602 24.7734 67.8516 24.6797L67.9688 26.0391C64.6758 26.6484 60.3047 26.7539 57.5859 26.7422L57.3516 25.1719ZM61.2422 25.125C62.1094 25.1016 63.0234 25.0664 63.9141 25.0195V15.2578H61.2422V25.125ZM66.7734 20.6484V18.9844H69.6797V11.5781H71.4375V30.7969H69.6797V20.6484H66.7734ZM95.6016 11.0625V22.0078H93.75V18.4922H89.5781V17.0156H93.75V14.7188H89.5781V13.2656H93.75V11.0625H95.6016ZM78.3281 20.625C81.4336 19.5469 83.6016 16.7695 83.625 13.8281V11.6016H85.4297V13.8281C85.4062 16.6055 87.5625 19.1953 90.5859 20.2266L89.625 21.6562C87.293 20.8008 85.4297 19.0547 84.5273 16.8633C83.6367 19.2422 81.7266 21.1523 79.3125 22.0547L78.3281 20.625ZM82.1016 24.4922V23.0156H95.6016V27.9141H83.9531V30.1406H96.375V31.6172H82.1484V26.5078H93.7734V24.4922H82.1016ZM121.641 12.375V14.2969C121.641 16.4531 121.641 18.8555 120.902 22.2656H124.078V23.8125H115.547V31.8984H113.695V23.8125H105.094V22.2656H119.062C119.426 20.7891 119.625 19.4766 119.742 18.293L107.156 18.9375L106.922 17.3203L119.848 16.875C119.895 15.9609 119.895 15.1055 119.906 14.2969V13.8984H107.508V12.375H121.641ZM143.016 12.0234V13.5469H139.805V18.3281H142.945V19.8047H136.242V22.3594H144.82V23.8594H125.836V22.3594H134.414V19.8047H127.688V18.3281H130.828V13.5469H127.617V12.0234H143.016ZM128.297 31.4531V25.6875H130.148V29.9062H142.711V31.4531H128.297ZM132.656 18.3281H137.977V13.5469H132.656V18.3281ZM165.562 22.0547V23.5547H146.578V22.0547H165.562ZM148.688 15.9375C148.688 13.3242 151.547 11.7891 156.07 11.8125C160.547 11.7891 163.418 13.3242 163.43 15.9375C163.418 18.5273 160.547 20.0859 156.07 20.0859C151.547 20.0859 148.688 18.5273 148.688 15.9375ZM149.039 31.4531V25.3828H150.891V29.9062H163.453V31.4531H149.039ZM150.586 15.9375C150.574 17.5898 152.707 18.5859 156.07 18.5859C159.41 18.5859 161.543 17.5898 161.555 15.9375C161.543 14.3086 159.41 13.2891 156.07 13.2891C152.707 13.2891 150.574 14.3086 150.586 15.9375ZM189.633 11.0859V17.9531H192.773V19.5H189.633V26.6953H187.805V11.0859H189.633ZM173.391 15.1406V13.6406H178.688V11.0859H180.516V13.6406H185.812V15.1406H173.391ZM174.586 20.1797C174.574 17.8125 176.59 16.2891 179.602 16.2891C182.578 16.2891 184.594 17.8125 184.617 20.1797C184.594 22.5234 182.578 24.0352 179.602 24.0234C176.59 24.0352 174.574 22.5234 174.586 20.1797ZM176.344 20.1797C176.332 21.6445 177.633 22.5938 179.602 22.5703C181.547 22.5938 182.859 21.6445 182.883 20.1797C182.859 18.6914 181.547 17.7305 179.602 17.7422C177.633 17.7305 176.332 18.6914 176.344 20.1797ZM176.602 31.4531V25.4531H178.406V29.9062H190.594V31.4531H176.602ZM211.359 11.0625V23.4844H209.508V18.0234H205.312V16.5H209.508V11.0625H211.359ZM194.18 21.8203C197.273 20.707 199.477 17.8828 199.477 14.9062V14.1328H194.766V12.5859H205.992V14.1328H201.328V14.8828C201.328 17.6016 203.414 20.1914 206.461 21.2344L205.5 22.7109C203.168 21.8672 201.352 20.1094 200.449 17.9648C199.559 20.4023 197.625 22.3477 195.141 23.2969L194.18 21.8203ZM197.461 28.0078C197.449 25.5586 200.109 24.1289 204.445 24.1406C208.77 24.1289 211.43 25.5586 211.43 28.0078C211.43 30.4688 208.77 31.875 204.445 31.8984C200.109 31.875 197.449 30.4688 197.461 28.0078ZM199.289 28.0078C199.277 29.5195 201.246 30.4336 204.445 30.4219C207.633 30.4336 209.602 29.5195 209.602 28.0078C209.602 26.4844 207.633 25.5703 204.445 25.5703C201.246 25.5703 199.277 26.4844 199.289 28.0078ZM225.281 13.0078C225.293 15.9492 229.113 18.4805 232.875 19.0078L232.125 20.5078C228.891 19.9688 225.68 18.1758 224.344 15.6211C223.008 18.1992 219.809 19.9688 216.562 20.5078L215.812 19.0078C219.574 18.4805 223.383 15.9961 223.383 13.0078V11.8125H225.281V13.0078ZM214.828 24.3516V22.8047H233.812V24.3516H225.188V31.8984H223.383V24.3516H214.828ZM255.023 14.3438V15.8906H251.859V18.7266H255.023V20.2969H251.859V23.6953H250.031V11.0859H251.859V14.3438H255.023ZM236.461 13.8984V12.375H245.906V18H238.312V20.9062C242.016 20.918 244.699 20.7773 247.945 20.2266L248.133 21.7734C244.793 22.3242 242.004 22.4531 238.125 22.4531H236.508V16.5469H244.102V13.8984H236.461ZM238.266 28.1016C238.254 25.7109 240.879 24.293 245.18 24.3047C249.434 24.293 252.047 25.7109 252.047 28.1016C252.047 30.4805 249.434 31.8516 245.18 31.8516C240.879 31.8516 238.254 30.4805 238.266 28.1016ZM240.07 28.1016C240.047 29.5547 241.98 30.4336 245.18 30.4219C248.332 30.4336 250.254 29.5547 250.266 28.1016C250.254 26.6367 248.332 25.7578 245.18 25.7578C241.98 25.7578 240.047 26.6367 240.07 28.1016ZM265.805 12.4219C270.152 12.4336 273.422 14.707 273.422 18.1406C273.422 21.6094 270.152 23.8828 265.805 23.8594C261.457 23.8828 258.188 21.6094 258.188 18.1406C258.188 14.707 261.457 12.4336 265.805 12.4219ZM256.312 29.1328V27.5859H275.391V29.1328H256.312ZM259.945 18.1406C259.922 20.6719 262.441 22.3594 265.805 22.3594C269.145 22.3594 271.641 20.6719 271.641 18.1406C271.641 15.6445 269.145 13.9102 265.805 13.9219C262.441 13.9102 259.922 15.6445 259.945 18.1406ZM296.133 27.7734V29.3203H277.055V27.7734H285.633V23.8359H279.445V17.4141H291.914V14.1328H279.398V12.6094H293.719V18.9141H281.273V22.3125H294.211V23.8359H287.438V27.7734H296.133ZM306.516 11.9531V14.9531H312.586V11.9531H314.414V21.0234H304.711V11.9531H306.516ZM306.516 19.5234H312.586V16.3828H306.516V19.5234ZM306.82 24.3047V22.8281H320.109V27.8672H308.672V30.1641H320.883V31.6641H306.867V26.4609H318.281V24.3047H306.82ZM318.281 21.8438V11.0625H320.109V15.5859H323.25V17.1328H320.109V21.8438H318.281ZM328.875 22.9922V25.7578H339.305V22.9922H341.133V31.6172H327.047V22.9922H328.875ZM324.562 21.1172V19.5938H338.754C339.316 17.0039 339.316 15.1406 339.305 13.5469H326.977V12.0234H341.133V13.5469C341.133 15.1406 341.133 16.9922 340.559 19.5938H343.641V21.1172H324.562ZM328.875 30.1172H339.305V27.2109H328.875V30.1172ZM357.727 20.0625V21.5859H353.156V25.6875C355.195 25.6055 357.246 25.4648 359.18 25.2422L359.32 26.625C354.703 27.293 349.664 27.3867 345.68 27.375L345.422 25.8281C347.238 25.8281 349.254 25.8164 351.328 25.7578V21.5859H347.016V13.0547H357.633V14.5547H348.82V20.0625H357.727ZM360.562 31.9453V11.0625H362.391V31.9453H360.562ZM376.383 13.1484V16.0781H381.492V11.0625H383.32V31.9453H381.492V23.3438H376.383V26.625H366.891V13.1484H376.383ZM368.719 25.1484H374.602V14.6016H368.719V25.1484ZM376.383 21.8203H381.492V17.6016H376.383V21.8203ZM390.211 28.4297L388.383 34.8047H386.648L387.938 28.4297H390.211ZM418.031 27.6797V29.2266H398.953V27.6797H407.555V22.6172H409.406V27.6797H418.031ZM399.891 21.8672C403.418 21.2695 407.508 18.3516 407.508 15.0234V14.5078H400.523V12.9609H416.391V14.5078H409.406V15.0234C409.418 18.3516 413.52 21.2109 417.117 21.7969L416.367 23.25C413.18 22.6172 409.816 20.5898 408.48 17.707C407.145 20.625 403.793 22.6992 400.664 23.3438L399.891 21.8672ZM436.922 11.0625V31.8984H435.07V11.0625H436.922ZM419.953 26.4844C425.59 23.8125 428.473 19.8164 428.883 14.8359H420.914V13.3359H430.758C430.734 19.3242 427.945 24.6328 420.961 27.9844L419.953 26.4844ZM459.516 27.6562V29.1797H440.438V27.6562H448.969V22.5469H450.773V27.6562H459.516ZM441.188 21.2578C444.832 20.6367 448.887 17.5898 448.898 14.0859V12.4922H450.82V14.0859C450.832 17.5664 454.945 20.6367 458.578 21.2578L457.758 22.7812C454.582 22.125 451.23 19.9805 449.883 16.9805C448.512 19.9688 445.195 22.125 442.008 22.7812L441.188 21.2578ZM468.68 15.5391C468.691 18.3516 470.906 20.8828 474.023 21.8672L473.086 23.3438C470.66 22.5117 468.738 20.8008 467.789 18.6094C466.887 20.9766 464.93 22.8516 462.445 23.7656L461.484 22.2891C464.613 21.1992 466.816 18.4922 466.828 15.5391V14.3203H461.953V12.8203H473.484V14.3203H468.68V15.5391ZM464.93 31.4531V24.9141H466.758V29.9062H479.039V31.4531H464.93ZM476.555 26.3672V11.0859H478.383V26.3672H476.555ZM495.352 16.6641C495.34 20.4727 497.93 24.293 501 25.6875L499.875 27.1406C497.496 25.9922 495.445 23.5195 494.449 20.5547C493.488 23.6953 491.438 26.332 489 27.5625L487.828 26.0156C490.934 24.5977 493.5 20.6133 493.523 16.6641V12.8672H495.352V16.6641ZM503.273 31.9453V11.0625H505.125V31.9453H503.273ZM517.406 11.9531V14.9531H523.477V11.9531H525.305V21.0234H515.602V11.9531H517.406ZM517.406 19.5234H523.477V16.3828H517.406V19.5234ZM517.711 24.3047V22.8281H531V27.8672H519.562V30.1641H531.773V31.6641H517.758V26.4609H529.172V24.3047H517.711ZM529.172 21.8438V11.0625H531V15.5859H534.141V17.1328H531V21.8438H529.172ZM539.766 22.9922V25.7578H550.195V22.9922H552.023V31.6172H537.938V22.9922H539.766ZM535.453 21.1172V19.5938H549.645C550.207 17.0039 550.207 15.1406 550.195 13.5469H537.867V12.0234H552.023V13.5469C552.023 15.1406 552.023 16.9922 551.449 19.5938H554.531V21.1172H535.453ZM539.766 30.1172H550.195V27.2109H539.766V30.1172ZM47.2266 60.4688V63.4453H55.8281V64.9688H36.8438V63.4453H45.4219V60.4688H47.2266ZM37.8984 60.0469C41.5312 59.6602 45.0117 57.8789 45.1406 55.5469H38.5781V54.0469H54.1406V55.5469H47.5312C47.6602 57.8672 51.1406 59.6602 54.7734 60.0469L54.0938 61.5C50.6836 61.0781 47.4844 59.5898 46.3359 57.2812C45.1875 59.5898 42.0117 61.0781 38.5781 61.5L37.8984 60.0469ZM39.1406 70.2656C39.1289 67.957 41.8125 66.6797 46.3359 66.6797C50.8125 66.6797 53.4844 67.957 53.5078 70.2656C53.4844 72.5859 50.8125 73.8516 46.3359 73.8516C41.8125 73.8516 39.1289 72.5859 39.1406 70.2656ZM41.0156 70.2656C40.9922 71.6367 42.9609 72.4336 46.3359 72.4219C49.6758 72.4336 51.6445 71.6367 51.6562 70.2656C51.6445 68.9062 49.6758 68.1211 46.3359 68.1328C42.9609 68.1211 40.9922 68.9062 41.0156 70.2656ZM76.6641 69.7734V71.3203H57.5859V69.7734H62.9531V65.8125H59.9766V59.3906H72.4453V56.1328H59.9297V54.6094H74.25V60.9141H61.8047V64.2891H74.7422V65.8125H71.4844V69.7734H76.6641ZM64.7578 69.7734H69.6797V65.8125H64.7578V69.7734ZM90.4453 58.5703V60.0234H86.25V62.1445C88.2188 62.0508 90.1992 61.9102 92.0391 61.6875L92.1328 62.9766C87.6797 63.668 82.6523 63.7969 78.7031 63.7969L78.4453 62.3203C80.2734 62.3203 82.3125 62.2969 84.3984 62.2148V60.0234H80.3672V53.9766H90.2109V55.4062H82.2656V58.5703H90.4453ZM81.7031 66.7266V65.25H95.5312V70.0781H83.5781V72.1641H96.2812V73.6641H81.75V68.6719H93.7266V66.7266H81.7031ZM93.7031 64.3125V53.0859H95.5312V64.3125H93.7031ZM115.547 55.0078C115.559 57.9492 119.379 60.4805 123.141 61.0078L122.391 62.5078C119.156 61.9688 115.945 60.1758 114.609 57.6211C113.273 60.1992 110.074 61.9688 106.828 62.5078L106.078 61.0078C109.84 60.4805 113.648 57.9961 113.648 55.0078V53.8125H115.547V55.0078ZM105.094 66.3516V64.8047H124.078V66.3516H115.453V73.8984H113.648V66.3516H105.094ZM138.914 67.0547C138.902 68.8945 139.898 70.8516 141.879 71.9766C143.871 70.7461 144.926 68.6602 144.914 67.0547V65.9062H146.719V67.0547C146.707 69.1992 148.289 71.332 150.961 72.2578L150.047 73.6172C147.961 72.8789 146.508 71.4258 145.781 69.6797C145.137 71.3672 143.859 72.9727 141.938 73.7812C139.91 73.0078 138.621 71.4844 138 69.7383C137.25 71.4141 135.82 72.8672 133.828 73.6172L132.891 72.2578C135.527 71.2734 137.109 69.0469 137.133 67.0547V65.9062H138.914V67.0547ZM132.352 59.1797C132.34 56.2734 134.648 54.293 137.812 54.3047C140.977 54.293 143.262 56.2734 143.273 59.1797C143.262 62.0391 140.977 64.0078 137.812 64.0078C134.648 64.0078 132.34 62.0391 132.352 59.1797ZM134.156 59.1797C134.133 61.1133 135.668 62.4727 137.812 62.4844C139.934 62.4727 141.469 61.1133 141.469 59.1797C141.469 57.2344 139.934 55.8516 137.812 55.875C135.668 55.8516 134.133 57.2344 134.156 59.1797ZM147.234 64.9922V53.0859H149.062V64.9922H147.234ZM156.844 65.5781V68.0156H167.25V65.5781H169.102V73.6172H155.016V65.5781H156.844ZM152.602 64.1016V62.5781H171.586V64.1016H152.602ZM153.68 59.625C157.395 59.1211 161.156 56.9297 161.156 54.2812V53.2969H163.055V54.2812C163.043 56.8477 166.84 59.1562 170.508 59.625L169.828 61.1016C166.605 60.6211 163.43 58.9805 162.105 56.6484C160.781 58.9922 157.594 60.6211 154.383 61.1016L153.68 59.625ZM156.844 72.1406H167.25V69.4688H156.844V72.1406ZM190.523 53.0625V73.8984H188.695V53.0625H190.523ZM174.703 68.5312V55.125H176.508V66.9375C179.695 66.9141 182.977 66.668 186.469 65.9297L186.727 67.5C183.023 68.2734 179.73 68.5312 176.391 68.5312H174.703ZM210.211 53.0625V61.3125H213.703V62.8594H210.211V73.9453H208.383V53.0625H210.211ZM195 68.7188V55.1016H204.727V56.625H196.828V67.1719C200.602 67.1602 203.262 66.9961 206.367 66.4219L206.602 68.0156C203.332 68.6016 200.602 68.7188 196.641 68.7188H195ZM217.031 72.1406C216.211 72.1289 215.508 71.4492 215.531 70.6172C215.508 69.7969 216.211 69.1172 217.031 69.1172C217.863 69.1172 218.543 69.7969 218.531 70.6172C218.543 71.4492 217.863 72.1289 217.031 72.1406Z" fill="white"/>
<path d="M17.9062 129.641C16.5938 129.641 15.5156 128.562 15.5156 127.227C15.5156 125.914 16.5938 124.836 17.9062 124.836C19.2422 124.836 20.3203 125.914 20.3203 127.227C20.3203 128.562 19.2422 129.641 17.9062 129.641ZM52.9688 115.062V123.312H56.4609V124.859H52.9688V135.945H51.1406V115.062H52.9688ZM37.7578 130.719V117.102H47.4844V118.625H39.5859V129.172C43.3594 129.16 46.0195 128.996 49.125 128.422L49.3594 130.016C46.0898 130.602 43.3594 130.719 39.3984 130.719H37.7578ZM76.6406 125.656V127.18H68.1797V131.445H66.3281V127.18H57.5625V125.656H76.6406ZM59.7188 119.797C59.707 117.207 62.625 115.613 67.0781 115.602C71.5312 115.613 74.4141 117.207 74.4141 119.797C74.4141 122.363 71.5312 123.957 67.0781 123.945C62.625 123.957 59.707 122.363 59.7188 119.797ZM60.0234 135.453V129.359H61.875V133.883H74.5078V135.453H60.0234ZM61.6875 119.797C61.6641 121.414 63.832 122.445 67.0781 122.445C70.3125 122.445 72.4688 121.414 72.4688 119.797C72.4688 118.133 70.3125 117.113 67.0781 117.102C63.832 117.113 61.6641 118.133 61.6875 119.797ZM97.4062 131.773V133.32H78.3281V131.773H86.9062V127.836H80.7188V121.414H93.1875V118.133H80.6719V116.609H94.9922V122.914H82.5469V126.312H95.4844V127.836H88.7109V131.773H97.4062ZM115.898 125.094V126.617H101.508V117.008H115.688V118.531H103.336V125.094H115.898ZM99.0703 133.062V131.516H118.148V133.062H99.0703ZM142.125 115.062V120.102H145.266V121.648H142.125V127.25H140.297V115.062H142.125ZM126.727 125.938V116.258H128.531V119.445H134.602V116.258H136.43V125.938H126.727ZM128.531 124.461H134.602V120.922H128.531V124.461ZM129.047 135.617V128.422H142.289V129.898H130.875V134.117H142.688V135.617H129.047ZM165.562 126.055V127.555H146.578V126.055H165.562ZM148.688 119.938C148.688 117.324 151.547 115.789 156.07 115.812C160.547 115.789 163.418 117.324 163.43 119.938C163.418 122.527 160.547 124.086 156.07 124.086C151.547 124.086 148.688 122.527 148.688 119.938ZM149.039 135.453V129.383H150.891V133.906H163.453V135.453H149.039ZM150.586 119.938C150.574 121.59 152.707 122.586 156.07 122.586C159.41 122.586 161.543 121.59 161.555 119.938C161.543 118.309 159.41 117.289 156.07 117.289C152.707 117.289 150.574 118.309 150.586 119.938ZM189.891 116.375V118.297C189.891 120.453 189.891 122.855 189.152 126.266H192.328V127.812H183.797V135.898H181.945V127.812H173.344V126.266H187.312C187.676 124.789 187.875 123.477 187.992 122.293L175.406 122.938L175.172 121.32L188.098 120.875C188.145 119.961 188.145 119.105 188.156 118.297V117.898H175.758V116.375H189.891ZM211.266 116.023V117.547H208.055V122.328H211.195V123.805H204.492V126.359H213.07V127.859H194.086V126.359H202.664V123.805H195.938V122.328H199.078V117.547H195.867V116.023H211.266ZM196.547 135.453V129.688H198.398V133.906H210.961V135.453H196.547ZM200.906 122.328H206.227V117.547H200.906V122.328ZM233.812 126.055V127.555H214.828V126.055H233.812ZM216.938 119.938C216.938 117.324 219.797 115.789 224.32 115.812C228.797 115.789 231.668 117.324 231.68 119.938C231.668 122.527 228.797 124.086 224.32 124.086C219.797 124.086 216.938 122.527 216.938 119.938ZM217.289 135.453V129.383H219.141V133.906H231.703V135.453H217.289ZM218.836 119.938C218.824 121.59 220.957 122.586 224.32 122.586C227.66 122.586 229.793 121.59 229.805 119.938C229.793 118.309 227.66 117.289 224.32 117.289C220.957 117.289 218.824 118.309 218.836 119.938ZM260.648 127.227V128.773H255.773V135.898H253.945V128.773H248.273V135.898H246.398V128.773H241.57V127.227H260.648ZM244.008 124.766V115.906H245.836V118.742H256.336V115.906H258.188V124.766H244.008ZM245.836 123.266H256.336V120.219H245.836V123.266ZM273.82 116.961V118.508H265.5V122.82H273.07V124.32H265.5V129.359C269.391 129.359 272.062 129.219 275.25 128.68L275.438 130.203C272.145 130.754 269.344 130.871 265.336 130.883H263.672V116.961H273.82ZM277.711 135.898V115.062H279.562V135.898H277.711ZM295.055 117.336V118.859H292.734V128.891C293.859 128.82 294.973 128.715 296.039 128.586L296.133 129.945C291.727 130.648 286.746 130.719 283.055 130.742L282.82 129.172C283.699 129.172 284.637 129.16 285.633 129.148V118.859H283.336V117.336H295.055ZM287.414 129.125C288.574 129.102 289.781 129.055 290.977 128.996V118.859H287.414V129.125ZM297.375 135.898V115.062H299.203V123.43H302.695V124.977H299.203V135.898H297.375ZM322.875 127.016V128.562H314.18V135.898H312.375V128.562H303.797V127.016H322.875ZM305.953 120.5C305.965 117.676 308.906 115.918 313.289 115.906C317.66 115.918 320.625 117.676 320.625 120.5C320.625 123.277 317.66 125.035 313.289 125.023C308.906 125.035 305.965 123.277 305.953 120.5ZM307.852 120.5C307.828 122.352 310.043 123.547 313.289 123.547C316.535 123.547 318.738 122.352 318.75 120.5C318.738 118.613 316.535 117.406 313.289 117.406C310.043 117.406 307.828 118.613 307.852 120.5ZM341.742 115.062V135.898H339.891V115.062H341.742ZM324.984 130.438C328.078 129.031 330.445 125.516 330.445 121.859V120.195H325.547V118.695H330.422V115.461H332.25V118.695H337.102V120.195H332.25V121.859C332.25 125.352 334.688 128.727 337.828 130.062L336.797 131.492C334.383 130.426 332.355 128.176 331.383 125.422C330.445 128.328 328.43 130.73 326.016 131.867L324.984 130.438ZM353.367 125.82V127.672H345.938V125.82H353.367ZM372.234 116.375V118.297C372.234 120.453 372.234 122.855 371.496 126.266H374.672V127.812H366.141V135.898H364.289V127.812H355.688V126.266H369.656C370.02 124.789 370.219 123.477 370.336 122.293L357.75 122.938L357.516 121.32L370.441 120.875C370.488 119.961 370.488 119.105 370.5 118.297V117.898H358.102V116.375H372.234ZM393.609 116.023V117.547H390.398V122.328H393.539V123.805H386.836V126.359H395.414V127.859H376.43V126.359H385.008V123.805H378.281V122.328H381.422V117.547H378.211V116.023H393.609ZM378.891 135.453V129.688H380.742V133.906H393.305V135.453H378.891ZM383.25 122.328H388.57V117.547H383.25V122.328ZM413.461 115.062V120.617H416.602V122.188H413.461V127.625H411.633V115.062H413.461ZM397.219 118.812V117.289H402.516V114.898H404.344V117.289H409.641V118.812H397.219ZM398.414 123.547C398.402 121.32 400.406 119.844 403.43 119.844C406.418 119.844 408.422 121.32 408.445 123.547C408.422 125.809 406.418 127.273 403.43 127.273C400.406 127.273 398.402 125.809 398.414 123.547ZM400.172 123.547C400.16 124.965 401.461 125.844 403.43 125.867C405.375 125.844 406.688 124.965 406.711 123.547C406.688 122.188 405.375 121.273 403.43 121.273C401.461 121.273 400.16 122.188 400.172 123.547ZM400.312 135.617V128.82H413.461V135.617H400.312ZM402.117 134.117H411.633V130.297H402.117V134.117ZM435.773 115.062V135.898H433.992V115.062H435.773ZM418.172 124.062C418.184 119.633 419.941 116.832 422.648 116.82C425.18 116.832 426.891 119.27 427.125 123.195H429.82V115.508H431.578V134.844H429.82V124.719H427.137C426.961 128.773 425.215 131.316 422.648 131.305C419.941 131.316 418.184 128.492 418.172 124.062ZM419.906 124.062C419.883 127.438 420.961 129.57 422.648 129.547C424.348 129.57 425.426 127.438 425.414 124.062C425.426 120.676 424.348 118.555 422.648 118.555C420.961 118.555 419.883 120.676 419.906 124.062ZM445.992 120.664C445.98 124.438 448.406 128.234 451.43 129.617L450.328 131.117C447.961 129.898 446.004 127.414 445.078 124.449C444.152 127.566 442.195 130.238 439.828 131.492L438.633 130.016C441.691 128.516 444.105 124.508 444.117 120.664V116.867H445.992V120.664ZM449.156 123.688V122.188H454.102V115.062H455.93V135.945H454.102V123.688H449.156ZM481.688 115.086V121.391H484.805V122.938H481.688V129.055H479.836V115.086H481.688ZM465.328 126.922C466.992 126.922 468.938 126.922 470.977 126.863V125.328C468.551 125.105 466.98 123.992 466.992 122.258C466.98 120.359 468.938 119.188 471.867 119.188C474.82 119.188 476.742 120.359 476.766 122.258C476.742 123.98 475.219 125.094 472.805 125.328V126.793C474.75 126.699 476.719 126.535 478.547 126.266L478.711 127.602C474.188 128.398 469.207 128.434 465.539 128.422L465.328 126.922ZM465.844 118.391V116.984H470.977V114.898H472.805V116.984H477.914V118.391H465.844ZM467.883 131.562V130.086H481.688V135.898H479.836V131.562H467.883ZM468.75 122.258C468.738 123.348 469.945 124.086 471.867 124.062C473.789 124.086 475.008 123.348 475.008 122.258C475.008 121.156 473.789 120.477 471.867 120.5C469.945 120.477 468.738 121.156 468.75 122.258ZM503.367 115.086V130.32H501.539V115.086H503.367ZM486.656 121.648C486.645 118.648 489 116.551 492.117 116.539C495.234 116.551 497.566 118.648 497.578 121.648C497.566 124.684 495.234 126.793 492.117 126.781C489 126.793 486.645 124.684 486.656 121.648ZM488.461 121.648C488.438 123.723 490.008 125.164 492.117 125.164C494.191 125.164 495.773 123.723 495.773 121.648C495.773 119.609 494.191 118.156 492.117 118.156C490.008 118.156 488.438 119.609 488.461 121.648ZM489.914 135.453V128.773H491.742V133.906H504.023V135.453H489.914ZM52.9688 157.062V165.547H56.3438V167.094H52.9688V177.898H51.1406V157.062H52.9688ZM36.9844 172.484C42.3633 169.812 45.293 165.793 45.7148 160.859H37.9453V159.312H47.5781C47.5664 165.207 44.8008 170.586 38.0156 173.938L36.9844 172.484ZM74.4141 162.898V164.422H60.1875V157.484H62.0156V162.898H74.4141ZM57.5859 168.383V166.859H76.5938V168.383H57.5859ZM59.8828 174.031C59.8711 171.605 62.5781 170.246 67.0781 170.258C71.543 170.246 74.2266 171.605 74.25 174.031C74.2266 176.445 71.543 177.805 67.0781 177.805C62.5781 177.805 59.8711 176.445 59.8828 174.031ZM61.7578 174.031C61.7344 175.484 63.7383 176.363 67.0781 176.375C70.3828 176.363 72.3867 175.484 72.3984 174.031C72.3867 172.555 70.3828 171.723 67.0781 171.711C63.7383 171.723 61.7344 172.555 61.7578 174.031ZM94.6172 157.062V162.406H97.7578V163.977H94.6172V169.18H92.7891V157.062H94.6172ZM78.375 160.742V159.219H83.6719V156.875H85.5V159.219H90.7969V160.742H78.375ZM79.5703 165.359C79.5586 163.133 81.5625 161.715 84.5859 161.703C87.5742 161.715 89.5781 163.133 89.6016 165.359C89.5781 167.586 87.5742 169.027 84.5859 169.016C81.5625 169.027 79.5586 167.586 79.5703 165.359ZM81.3281 165.359C81.3164 166.719 82.6172 167.609 84.5859 167.609C86.5312 167.609 87.8438 166.719 87.8672 165.359C87.8438 164.012 86.5312 163.109 84.5859 163.133C82.6172 163.109 81.3164 164.012 81.3281 165.359ZM81.4453 177.617V170.094H83.2734V172.32H92.7891V170.094H94.6172V177.617H81.4453ZM83.2734 176.141H92.7891V173.773H83.2734V176.141ZM116.25 157.062V177.898H114.422V157.062H116.25ZM100.43 172.531V159.125H102.234V170.938C105.422 170.914 108.703 170.668 112.195 169.93L112.453 171.5C108.75 172.273 105.457 172.531 102.117 172.531H100.43ZM135.938 157.062V165.312H139.43V166.859H135.938V177.945H134.109V157.062H135.938ZM120.727 172.719V159.102H130.453V160.625H122.555V171.172C126.328 171.16 128.988 170.996 132.094 170.422L132.328 172.016C129.059 172.602 126.328 172.719 122.367 172.719H120.727ZM142.758 176.141C141.938 176.129 141.234 175.449 141.258 174.617C141.234 173.797 141.938 173.117 142.758 173.117C143.59 173.117 144.27 173.797 144.258 174.617C144.27 175.449 143.59 176.129 142.758 176.141Z" fill="white"/>
<path d="M17.9062 233.641C16.5938 233.641 15.5156 232.562 15.5156 231.227C15.5156 229.914 16.5938 228.836 17.9062 228.836C19.2422 228.836 20.3203 229.914 20.3203 231.227C20.3203 232.562 19.2422 233.641 17.9062 233.641ZM53.3906 220.375V222.297C53.3906 224.453 53.3906 226.855 52.6523 230.266H55.8281V231.812H47.2969V239.898H45.4453V231.812H36.8438V230.266H50.8125C51.1758 228.789 51.375 227.477 51.4922 226.293L38.9062 226.938L38.6719 225.32L51.5977 224.875C51.6445 223.961 51.6445 223.105 51.6562 222.297V221.898H39.2578V220.375H53.3906ZM74.7656 220.023V221.547H71.5547V226.328H74.6953V227.805H67.9922V230.359H76.5703V231.859H57.5859V230.359H66.1641V227.805H59.4375V226.328H62.5781V221.547H59.3672V220.023H74.7656ZM60.0469 239.453V233.688H61.8984V237.906H74.4609V239.453H60.0469ZM64.4062 226.328H69.7266V221.547H64.4062V226.328ZM95.5781 219.062V229.961H93.75V227.289H88.8281V229.117H79.3828V220.047H81.2109V223.047H87.0234V220.047H88.8281V222.062H93.75V219.062H95.5781ZM81.2109 227.617H87.0234V224.5H81.2109V227.617ZM82.0781 232.445V230.969H95.5781V235.867H83.9531V238.141H96.375V239.617H82.125V234.461H93.75V232.445H82.0781ZM88.8281 225.836H93.75V223.492H88.8281V225.836ZM112.078 224.664C112.078 228.332 114.504 232.117 117.469 233.57L116.344 235.047C114.047 233.852 112.125 231.379 111.199 228.484C110.273 231.555 108.305 234.191 105.961 235.445L104.789 233.969C107.836 232.469 110.25 228.473 110.273 224.664V220.867H112.078V224.664ZM119.391 239.898V219.062H121.219V227.523H124.711V229.117H121.219V239.898H119.391ZM144.82 229.375V230.898H125.836V229.375H130.547V226.434C128.883 225.789 127.945 224.734 127.945 223.328C127.945 220.879 130.758 219.473 135.328 219.461C139.863 219.473 142.676 220.879 142.688 223.328C142.676 224.723 141.75 225.777 140.109 226.434V229.375H144.82ZM128.133 236.172C128.121 233.793 130.805 232.48 135.328 232.492C139.793 232.48 142.477 233.793 142.5 236.172C142.477 238.551 139.793 239.852 135.328 239.852C130.805 239.852 128.121 238.551 128.133 236.172ZM129.844 223.328C129.832 224.852 131.918 225.73 135.328 225.742C138.703 225.73 140.801 224.852 140.812 223.328C140.801 221.828 138.703 220.914 135.328 220.914C131.918 220.914 129.832 221.828 129.844 223.328ZM130.008 236.172C129.984 237.59 131.988 238.434 135.328 238.422C138.633 238.434 140.637 237.59 140.648 236.172C140.637 234.754 138.633 233.922 135.328 233.898C131.988 233.922 129.984 234.754 130.008 236.172ZM132.375 229.375H138.281V226.926C137.402 227.09 136.418 227.172 135.328 227.172C134.238 227.172 133.254 227.09 132.375 226.938V229.375ZM165.656 235.68V237.227H146.578V235.68H155.18V230.617H157.031V235.68H165.656ZM147.516 229.867C151.043 229.27 155.133 226.352 155.133 223.023V222.508H148.148V220.961H164.016V222.508H157.031V223.023C157.043 226.352 161.145 229.211 164.742 229.797L163.992 231.25C160.805 230.617 157.441 228.59 156.105 225.707C154.77 228.625 151.418 230.699 148.289 231.344L147.516 229.867ZM184.594 219.086V234.484H182.742V227.055H178.125V225.508H182.742V219.086H184.594ZM167.648 230.57C172.441 228.988 175.781 225.988 176.203 222.227H168.703V220.68H178.219C178.195 226.035 174.363 230.113 168.445 232.047L167.648 230.57ZM171.328 239.453V232.914H173.203V237.906H185.133V239.453H171.328ZM205.242 219.062V239.945H203.391V219.062H205.242ZM188.836 227.945C188.848 223.516 191.051 220.691 194.156 220.68C197.25 220.691 199.488 223.516 199.477 227.945C199.488 232.387 197.25 235.199 194.156 235.188C191.051 235.199 188.848 232.387 188.836 227.945ZM190.617 227.945C190.617 231.332 192.07 233.559 194.156 233.547C196.254 233.559 197.695 231.332 197.695 227.945C197.695 224.559 196.254 222.332 194.156 222.32C192.07 222.332 190.617 224.559 190.617 227.945ZM221.789 222.438C221.789 225.273 223.945 227.875 226.969 228.906L225.961 230.359C223.664 229.516 221.848 227.793 220.934 225.613C220.043 228.086 218.18 229.996 215.742 230.945L214.758 229.469C217.875 228.309 219.973 225.52 219.984 222.297V220.141H221.789V222.438ZM217.523 236.055C217.535 233.676 220.148 232.281 224.438 232.281C228.715 232.281 231.305 233.676 231.305 236.055C231.305 238.48 228.715 239.852 224.438 239.852C220.148 239.852 217.535 238.48 217.523 236.055ZM219.375 236.055C219.352 237.531 221.297 238.387 224.438 238.398C227.59 238.387 229.512 237.531 229.523 236.055C229.512 234.637 227.59 233.758 224.438 233.758C221.297 233.758 219.352 234.637 219.375 236.055ZM229.289 231.742V219.062H231.117V224.5H234.258V226.047H231.117V231.742H229.289ZM252.75 219.062V239.945H250.898V219.062H252.75ZM236.344 227.945C236.355 223.516 238.559 220.691 241.664 220.68C244.758 220.691 246.996 223.516 246.984 227.945C246.996 232.387 244.758 235.199 241.664 235.188C238.559 235.199 236.355 232.387 236.344 227.945ZM238.125 227.945C238.125 231.332 239.578 233.559 241.664 233.547C243.762 233.559 245.203 231.332 245.203 227.945C245.203 224.559 243.762 222.332 241.664 222.32C239.578 222.332 238.125 224.559 238.125 227.945ZM272.602 219.062V224.406H275.742V225.977H272.602V231.18H270.773V219.062H272.602ZM256.359 222.742V221.219H261.656V218.875H263.484V221.219H268.781V222.742H256.359ZM257.555 227.359C257.543 225.133 259.547 223.715 262.57 223.703C265.559 223.715 267.562 225.133 267.586 227.359C267.562 229.586 265.559 231.027 262.57 231.016C259.547 231.027 257.543 229.586 257.555 227.359ZM259.312 227.359C259.301 228.719 260.602 229.609 262.57 229.609C264.516 229.609 265.828 228.719 265.852 227.359C265.828 226.012 264.516 225.109 262.57 225.133C260.602 225.109 259.301 226.012 259.312 227.359ZM259.43 239.617V232.094H261.258V234.32H270.773V232.094H272.602V239.617H259.43ZM261.258 238.141H270.773V235.773H261.258V238.141ZM294.234 219.062V239.898H292.406V219.062H294.234ZM278.414 234.531V221.125H280.219V232.938C283.406 232.914 286.688 232.668 290.18 231.93L290.438 233.5C286.734 234.273 283.441 234.531 280.102 234.531H278.414ZM313.922 219.062V227.312H317.414V228.859H313.922V239.945H312.094V219.062H313.922ZM298.711 234.719V221.102H308.438V222.625H300.539V233.172C304.312 233.16 306.973 232.996 310.078 232.422L310.312 234.016C307.043 234.602 304.312 234.719 300.352 234.719H298.711ZM320.742 238.141C319.922 238.129 319.219 237.449 319.242 236.617C319.219 235.797 319.922 235.117 320.742 235.117C321.574 235.117 322.254 235.797 322.242 236.617C322.254 237.449 321.574 238.129 320.742 238.141ZM337.664 225.461C337.641 228.801 340.055 232.48 343.078 233.922L342.023 235.375C339.68 234.227 337.699 231.766 336.762 228.941C335.801 232 333.715 234.695 331.383 235.891L330.258 234.438C333.258 232.973 335.836 229.012 335.859 225.461V222.742H331.008V221.219H342.352V222.742H337.664V225.461ZM344.906 239.898V219.062H346.734V227.5H350.227V229.07H346.734V239.898H344.906ZM357.539 224.992C357.539 228.309 359.156 231.883 361.922 233.523L360.867 234.953C358.852 233.734 357.41 231.508 356.684 228.965C355.922 231.742 354.375 234.133 352.289 235.398L351.117 234.016C354 232.328 355.758 228.637 355.758 225.062V221.031H357.539V224.992ZM359.625 228.109V226.539H363.164V219.508H364.898V238.844H363.164V228.109H359.625ZM367.43 239.898V219.062H369.211V239.898H367.43ZM388.383 219.086V225.953H391.523V227.5H388.383V234.695H386.555V219.086H388.383ZM372.141 223.141V221.641H377.438V219.086H379.266V221.641H384.562V223.141H372.141ZM373.336 228.18C373.324 225.812 375.34 224.289 378.352 224.289C381.328 224.289 383.344 225.812 383.367 228.18C383.344 230.523 381.328 232.035 378.352 232.023C375.34 232.035 373.324 230.523 373.336 228.18ZM375.094 228.18C375.082 229.645 376.383 230.594 378.352 230.57C380.297 230.594 381.609 229.645 381.633 228.18C381.609 226.691 380.297 225.73 378.352 225.742C376.383 225.73 375.082 226.691 375.094 228.18ZM375.352 239.453V233.453H377.156V237.906H389.344V239.453H375.352ZM405.844 224.664C405.844 228.332 408.27 232.117 411.234 233.57L410.109 235.047C407.812 233.852 405.891 231.379 404.965 228.484C404.039 231.555 402.07 234.191 399.727 235.445L398.555 233.969C401.602 232.469 404.016 228.473 404.039 224.664V220.867H405.844V224.664ZM413.156 239.898V219.062H414.984V227.523H418.477V229.117H414.984V239.898H413.156ZM438.586 229.375V230.898H419.602V229.375H424.312V226.434C422.648 225.789 421.711 224.734 421.711 223.328C421.711 220.879 424.523 219.473 429.094 219.461C433.629 219.473 436.441 220.879 436.453 223.328C436.441 224.723 435.516 225.777 433.875 226.434V229.375H438.586ZM421.898 236.172C421.887 233.793 424.57 232.48 429.094 232.492C433.559 232.48 436.242 233.793 436.266 236.172C436.242 238.551 433.559 239.852 429.094 239.852C424.57 239.852 421.887 238.551 421.898 236.172ZM423.609 223.328C423.598 224.852 425.684 225.73 429.094 225.742C432.469 225.73 434.566 224.852 434.578 223.328C434.566 221.828 432.469 220.914 429.094 220.914C425.684 220.914 423.598 221.828 423.609 223.328ZM423.773 236.172C423.75 237.59 425.754 238.434 429.094 238.422C432.398 238.434 434.402 237.59 434.414 236.172C434.402 234.754 432.398 233.922 429.094 233.898C425.754 233.922 423.75 234.754 423.773 236.172ZM426.141 229.375H432.047V226.926C431.168 227.09 430.184 227.172 429.094 227.172C428.004 227.172 427.02 227.09 426.141 226.938V229.375ZM459.422 235.68V237.227H440.344V235.68H448.945V230.617H450.797V235.68H459.422ZM441.281 229.867C444.809 229.27 448.898 226.352 448.898 223.023V222.508H441.914V220.961H457.781V222.508H450.797V223.023C450.809 226.352 454.91 229.211 458.508 229.797L457.758 231.25C454.57 230.617 451.207 228.59 449.871 225.707C448.535 228.625 445.184 230.699 442.055 231.344L441.281 229.867ZM478.359 219.086V234.484H476.508V227.055H471.891V225.508H476.508V219.086H478.359ZM461.414 230.57C466.207 228.988 469.547 225.988 469.969 222.227H462.469V220.68H471.984C471.961 226.035 468.129 230.113 462.211 232.047L461.414 230.57ZM465.094 239.453V232.914H466.969V237.906H478.898V239.453H465.094ZM500.812 230.055V231.555H481.828V230.055H500.812ZM483.938 223.938C483.938 221.324 486.797 219.789 491.32 219.812C495.797 219.789 498.668 221.324 498.68 223.938C498.668 226.527 495.797 228.086 491.32 228.086C486.797 228.086 483.938 226.527 483.938 223.938ZM484.289 239.453V233.383H486.141V237.906H498.703V239.453H484.289ZM485.836 223.938C485.824 225.59 487.957 226.586 491.32 226.586C494.66 226.586 496.793 225.59 496.805 223.938C496.793 222.309 494.66 221.289 491.32 221.289C487.957 221.289 485.824 222.309 485.836 223.938ZM525.141 220.375V222.297C525.141 224.453 525.141 226.855 524.402 230.266H527.578V231.812H519.047V239.898H517.195V231.812H508.594V230.266H522.562C522.926 228.789 523.125 227.477 523.242 226.293L510.656 226.938L510.422 225.32L523.348 224.875C523.395 223.961 523.395 223.105 523.406 222.297V221.898H511.008V220.375H525.141ZM546.516 220.023V221.547H543.305V226.328H546.445V227.805H539.742V230.359H548.32V231.859H529.336V230.359H537.914V227.805H531.188V226.328H534.328V221.547H531.117V220.023H546.516ZM531.797 239.453V233.688H533.648V237.906H546.211V239.453H531.797ZM536.156 226.328H541.477V221.547H536.156V226.328ZM53.1328 261.062V267.414H56.2734V268.961H53.1328V276.438H51.3047V261.062H53.1328ZM37.2422 267.672C37.2305 264.648 39.5977 262.551 42.7031 262.539C45.832 262.551 48.1641 264.648 48.1875 267.672C48.1641 270.684 45.832 272.805 42.7031 272.805C39.5977 272.805 37.2305 270.684 37.2422 267.672ZM39.0469 267.672C39.0352 269.723 40.6406 271.188 42.7031 271.188C44.8008 271.188 46.3711 269.723 46.3828 267.672C46.3711 265.609 44.8008 264.156 42.7031 264.156C40.6406 264.156 39.0352 265.609 39.0469 267.672ZM40.1016 281.453V274.844H41.9062V279.906H54.0938V281.453H40.1016ZM75.375 261.062V281.898H73.5703V271.117H70.5703V280.82H68.8359V261.531H70.5703V269.547H73.5703V261.062H75.375ZM58.6406 276.508V263.617H60.4688V274.867C62.5312 274.855 64.7578 274.703 67.2891 274.188L67.5234 275.828C64.6172 276.355 62.2266 276.508 59.9297 276.508H58.6406ZM97.3828 270.742V272.195H78.3047V270.742H97.3828ZM80.6016 275.242V273.859H94.9922V278.289H82.4766V280.281H95.6719V281.617H80.625V277.023H93.1641V275.242H80.6016ZM80.7188 263.031V261.695H94.9219V266.008H82.6172V267.836H95.2969V269.172H80.7891V264.742H93.0703V263.031H80.7188ZM121.359 261.086V267.391H124.477V268.938H121.359V275.055H119.508V261.086H121.359ZM105 272.922C106.664 272.922 108.609 272.922 110.648 272.863V271.328C108.223 271.105 106.652 269.992 106.664 268.258C106.652 266.359 108.609 265.188 111.539 265.188C114.492 265.188 116.414 266.359 116.438 268.258C116.414 269.98 114.891 271.094 112.477 271.328V272.793C114.422 272.699 116.391 272.535 118.219 272.266L118.383 273.602C113.859 274.398 108.879 274.434 105.211 274.422L105 272.922ZM105.516 264.391V262.984H110.648V260.898H112.477V262.984H117.586V264.391H105.516ZM107.555 277.562V276.086H121.359V281.898H119.508V277.562H107.555ZM108.422 268.258C108.41 269.348 109.617 270.086 111.539 270.062C113.461 270.086 114.68 269.348 114.68 268.258C114.68 267.156 113.461 266.477 111.539 266.5C109.617 266.477 108.41 267.156 108.422 268.258ZM143.039 261.086V276.32H141.211V261.086H143.039ZM126.328 267.648C126.316 264.648 128.672 262.551 131.789 262.539C134.906 262.551 137.238 264.648 137.25 267.648C137.238 270.684 134.906 272.793 131.789 272.781C128.672 272.793 126.316 270.684 126.328 267.648ZM128.133 267.648C128.109 269.723 129.68 271.164 131.789 271.164C133.863 271.164 135.445 269.723 135.445 267.648C135.445 265.609 133.863 264.156 131.789 264.156C129.68 264.156 128.109 265.609 128.133 267.648ZM129.586 281.453V274.773H131.414V279.906H143.695V281.453H129.586ZM156.984 264.672V266.172H146.531V264.672H150.867V261.695H152.695V264.672H156.984ZM147.281 272.312C147.281 269.547 149.168 267.59 151.758 267.578C154.383 267.59 156.258 269.547 156.281 272.312C156.258 275.113 154.383 277.082 151.758 277.094C149.168 277.082 147.281 275.113 147.281 272.312ZM148.922 272.312C148.922 274.164 150.105 275.488 151.758 275.477C153.422 275.488 154.641 274.164 154.641 272.312C154.641 270.484 153.422 269.148 151.758 269.125C150.105 269.148 148.922 270.484 148.922 272.312ZM158.062 280.867V261.578H159.797V269.852H162.562V261.062H164.32V281.898H162.562V271.375H159.797V280.867H158.062ZM177.844 264.016C177.832 266.805 181.547 269.172 185.18 269.711L184.5 271.164C181.254 270.613 178.078 268.879 176.812 266.371C175.547 268.879 172.371 270.613 169.172 271.164L168.445 269.711C172.066 269.172 175.77 266.805 175.781 264.016V263.875H169.102V262.375H184.5V263.875H177.844V264.016ZM167.32 274.469V272.945H186.305V274.469H177.68V281.898H175.875V274.469H167.32ZM194.25 266.992C194.25 270.309 195.867 273.883 198.633 275.523L197.578 276.953C195.562 275.734 194.121 273.508 193.395 270.965C192.633 273.742 191.086 276.133 189 277.398L187.828 276.016C190.711 274.328 192.469 270.637 192.469 267.062V263.031H194.25V266.992ZM196.336 270.109V268.539H199.875V261.508H201.609V280.844H199.875V270.109H196.336ZM204.141 281.898V261.062H205.922V281.898H204.141ZM227.883 277.68V279.227H208.805V277.68H213.539V272.066C211.758 271.141 210.68 269.641 210.68 267.742C210.68 264.52 213.844 262.398 218.297 262.375C222.75 262.398 225.914 264.52 225.914 267.742C225.914 269.605 224.871 271.082 223.148 272.008V277.68H227.883ZM212.461 267.742C212.449 270.074 214.875 271.633 218.297 271.633C221.684 271.633 224.133 270.074 224.133 267.742C224.133 265.41 221.684 263.875 218.297 263.898C214.875 263.875 212.449 265.41 212.461 267.742ZM215.344 277.68H221.297V272.723C220.395 272.957 219.387 273.086 218.297 273.086C217.23 273.086 216.234 272.969 215.344 272.734V277.68ZM231.75 280.141C230.93 280.129 230.227 279.449 230.25 278.617C230.227 277.797 230.93 277.117 231.75 277.117C232.582 277.117 233.262 277.797 233.25 278.617C233.262 279.449 232.582 280.129 231.75 280.141Z" fill="white"/>
</svg>
