<svg width="590" height="116" viewBox="0 0 590 116" fill="none" xmlns="http://www.w3.org/2000/svg">
<rect x="1.5" y="1.5" width="587" height="113" stroke="#FFA2D1" stroke-width="3"/>
<path d="M193.734 43.4688V52.1875H197.578V55.4375H193.734V64.6875H189.734V43.4688H193.734ZM171.172 49.5938V46.4375H177.641V43.4062H181.609V46.4375H188.047V49.5938H171.172ZM172.547 56.0938C172.547 52.7969 175.469 50.5938 179.609 50.5938C183.734 50.5938 186.609 52.7969 186.609 56.0938C186.609 59.375 183.734 61.5312 179.609 61.5312C175.469 61.5312 172.547 59.375 172.547 56.0938ZM175.297 71.375V63.0625H179.266V68.1875H194.766V71.375H175.297ZM176.453 56.0938C176.438 57.6562 177.703 58.5 179.609 58.5C181.531 58.5 182.828 57.6562 182.828 56.0938C182.828 54.5156 181.531 53.6406 179.609 53.625C177.703 53.6406 176.438 54.5156 176.453 56.0938ZM230.172 43.4688V64.4375H226.203V54.1875H220.953V59.9375H207.422V45.3125H211.422V49.6875H217.016V45.3125H220.953V51H226.203V43.4688H230.172ZM211.234 71.375V62.3438H215.266V68.1875H230.766V71.375H211.234ZM211.422 56.8125H217.016V52.7188H211.422V56.8125ZM258.516 43.4375V71.875H254.703V43.4375H258.516ZM234.109 55.75C234.109 49.3906 236.531 45.4531 240.297 45.4688C243.719 45.4531 246.062 48.6562 246.5 53.9688H248.828V43.8438H252.578V70.5625H248.828V57.125H246.531C246.188 62.7031 243.797 66.0938 240.297 66.0938C236.531 66.0938 234.109 62.1406 234.109 55.75ZM237.797 55.75C237.766 60.125 238.703 62.2812 240.297 62.25C241.938 62.2812 242.906 60.125 242.891 55.75C242.906 51.3906 241.938 49.2188 240.297 49.2188C238.703 49.2188 237.766 51.3906 237.797 55.75ZM291.328 43.4375V54H295.516V57.25H291.328V71.9375H287.328V43.4375H291.328ZM270.016 65.0312V46.0625H283.359V49.2812H273.984V61.75C278.109 61.7188 281.516 61.5 285.297 60.8438L285.734 64.1875C281.312 64.9375 277.438 65.0469 272.422 65.0312H270.016ZM322.547 57.2812V60.4688H311.766V65.4062H307.734V60.4688H296.516V57.2812H322.547ZM299.203 49.875C299.203 46.2656 303.328 44 309.516 43.9688C315.672 44 319.781 46.2656 319.797 49.875C319.781 53.5 315.672 55.75 309.516 55.75C303.328 55.75 299.203 53.5 299.203 49.875ZM299.609 71.375V62.875H303.641V68.1562H319.672V71.375H299.609ZM303.516 49.875C303.5 51.6094 305.844 52.5469 309.516 52.5625C313.188 52.5469 315.516 51.6094 315.516 49.875C315.516 48.0625 313.188 47.125 309.516 47.125C305.844 47.125 303.5 48.0625 303.516 49.875ZM350.234 65.4375V68.7188H324.203V65.4375H335.172V61.1562H327.203V51.5938H343.297V48.4688H327.172V45.2812H347.234V54.7188H331.203V57.9062H347.891V61.1562H339.141V65.4375H350.234ZM375.047 56.5938V59.7812H354.922V45.8125H374.828V49.0312H358.859V56.5938H375.047ZM351.859 68.4062V65.125H377.891V68.4062H351.859Z" fill="white"/>
<path d="M405 45L405 64" stroke="white" stroke-width="2" stroke-linecap="round" stroke-linejoin="round"/>
<path d="M391 64V71H419V64" stroke="white" stroke-width="2" stroke-linecap="round" stroke-linejoin="round"/>
<path d="M397 56L405 64L413 56" stroke="white" stroke-width="2" stroke-linecap="round" stroke-linejoin="round"/>
</svg>
