<svg width="670" height="116" viewBox="0 0 670 116" fill="none" xmlns="http://www.w3.org/2000/svg">
<rect x="1.5" y="1.5" width="667" height="113" rx="56.5" stroke="#FFA2D1" stroke-width="3"/>
<path d="M177.156 44.9062C183.266 44.9062 187.859 48 187.875 52.6875C187.859 56.9844 184.234 59.8594 179.125 60.4219V65.2812H190.219V68.5625H164.188V65.2812H175.156V60.4219C170.078 59.8438 166.469 56.9688 166.469 52.6875C166.469 48 171.047 44.9062 177.156 44.9062ZM170.406 52.6875C170.406 55.6875 173.172 57.3594 177.156 57.375C181.156 57.3594 183.922 55.6875 183.938 52.6875C183.922 49.8438 181.156 48.0781 177.156 48.0938C173.172 48.0781 170.406 49.8438 170.406 52.6875ZM214.844 49.1875V52.3438H195.062V43.7812H199.031V49.1875H214.844ZM191.812 57.4062V54.25H217.844V57.4062H191.812ZM194.781 62.1875V59.125H214.719V66.6875H198.844V68.5H215.594V71.5625H194.844V63.8125H210.75V62.1875H194.781ZM228.719 45.3438C233.234 45.3281 236.578 48.2344 236.594 52.3125C236.578 56.4062 233.234 59.2969 228.719 59.3125C224.234 59.2969 220.797 56.4062 220.812 52.3125C220.797 48.2344 224.234 45.3281 228.719 45.3438ZM219.625 62.875C224.703 62.8906 231.734 62.8281 237.812 61.9688L238.125 64.8438C231.812 66.0781 225.062 66.125 220.094 66.125L219.625 62.875ZM224.781 52.3125C224.766 54.5625 226.469 55.8594 228.719 55.8438C230.984 55.8594 232.703 54.5625 232.719 52.3125C232.703 50.0938 230.984 48.7812 228.719 48.7812C226.469 48.7812 224.766 50.0938 224.781 52.3125ZM239.438 71.9375V43.4375H243.406V71.9375H239.438ZM276.969 43.4375V54.1875H281.156V57.4688H276.969V71.9375H273.031V43.4375H276.969ZM255.688 49.0312V45.8125H268.844V56.8438H259.688V62C263.828 61.9844 267.25 61.7969 271.031 61.1562L271.375 64.3438C267.031 65.1406 263.125 65.3125 258.125 65.3125H255.719V53.6875H264.875V49.0312H255.688ZM306 43.4375V71.9375H301.969V43.4375H306ZM283.031 55.5625C283.016 49.3594 286.188 45.4375 290.562 45.4375C294.844 45.4375 298.031 49.3594 298.031 55.5625C298.031 61.8125 294.844 65.7188 290.562 65.7188C286.188 65.7188 283.016 61.8125 283.031 55.5625ZM286.875 55.5625C286.859 59.7969 288.344 62.1094 290.562 62.0938C292.719 62.1094 294.172 59.7969 294.188 55.5625C294.172 51.3438 292.719 49.0312 290.562 49.0312C288.344 49.0312 286.859 51.3438 286.875 55.5625ZM335.875 65.1875V68.4375H309.844V65.1875H335.875ZM312.594 60.4375V45.25H316.594V49.9688H329V45.25H332.969V60.4375H312.594ZM316.594 57.3125H329V53.0625H316.594V57.3125ZM370.906 65.3125V68.5625H344.875V65.3125H355.844V60.0625H347.625V45.25H351.625V49.6562H364.031V45.25H368V60.0625H359.812V65.3125H370.906ZM351.625 56.875H364.031V52.8438H351.625V56.875ZM396.5 43.4375V71.9375H392.531V56.9375H387.938V53.6875H392.531V43.4375H396.5ZM373.469 49.0312V45.8125H386.344V56.4688H377.5V62.0312C381.422 62 384.734 61.8594 388.406 61.2188L388.719 64.4688C384.5 65.1719 380.641 65.3281 375.875 65.3125H373.531V53.3125H382.469V49.0312H373.469ZM422.625 43.4375V54.3438H426.656V57.625H422.625V71.8125H418.625V43.4375H422.625ZM399.875 63.8438C406.609 60.4688 410.234 55.9375 410.984 49.5938H401.5V46.3438H415.031C415 54.8438 411.688 62.2031 402.125 66.9062L399.875 63.8438ZM451.75 43.4375V71.875H447.719V43.4375H451.75ZM427.938 63.8125C435.281 60.3438 438.516 55.8438 439.156 49.5312H429.469V46.4062H443.219C443.203 55.0312 440.188 62.2031 430.031 67L427.938 63.8125Z" fill="white"/>
<path d="M467 58L502 58" stroke="white" stroke-width="2" stroke-linecap="square" stroke-linejoin="round"/>
<path d="M507 58L497 64L497 52L507 58Z" fill="white"/>
</svg>
