<svg width="750" height="678" viewBox="0 0 750 678" fill="none" xmlns="http://www.w3.org/2000/svg">
<path d="M477.407 390.662L476.657 390.862L-3.21344 519.452C-6.56344 520.352 -9.50344 519.782 -11.5834 518.262C-13.6534 516.742 -14.9934 514.192 -14.9934 510.872V280.742C-14.9934 274.012 -9.47344 266.992 -2.69344 265.172L477.177 136.592C480.527 135.692 483.467 136.262 485.547 137.782C487.617 139.302 488.957 141.852 488.957 145.172V375.302C488.957 381.782 483.847 388.532 477.407 390.652V390.662Z" fill="#05038B" stroke="#8281C5" stroke-width="2"/>
<path d="M204.673 252.072C202.653 252.622 201.313 254.532 201.313 257.272C201.313 260.012 202.673 261.202 204.653 260.672C206.123 260.262 207.253 259.152 207.503 257.682L210.243 256.972C209.943 259.462 207.923 262.192 204.603 263.092C201.133 264.012 198.553 262.262 198.553 258.032C198.553 253.802 201.173 250.652 204.603 249.732C207.593 248.922 209.873 250.032 210.243 252.932L207.503 253.672C207.293 252.292 206.193 251.712 204.673 252.112V252.092V252.072Z" fill="white"/>
<path d="M217.966 259.502C214.496 260.422 211.866 258.672 211.866 254.442C211.866 250.212 214.486 247.052 217.966 246.112C221.416 245.192 224.036 246.912 224.036 251.172C224.036 255.432 221.416 258.552 217.966 259.472V259.492V259.502ZM217.966 257.112C219.966 256.562 221.306 254.692 221.276 251.932C221.276 249.152 219.966 248.002 217.966 248.532C215.946 249.082 214.636 250.952 214.636 253.732C214.636 256.512 215.946 257.662 217.966 257.132V257.112Z" fill="white"/>
<path d="M236.778 241.262V249.702C236.778 252.552 234.618 255.042 231.398 255.892C228.158 256.762 226.038 255.432 226.038 252.582V244.142L228.728 243.432V251.672C228.728 253.172 229.808 253.972 231.398 253.532C233.028 253.092 234.088 251.712 234.068 250.222V241.982L236.778 241.242V241.262Z" fill="white"/>
<path d="M238.96 240.692L244.07 239.332C247.04 238.552 248.72 239.902 248.72 242.482C248.72 245.062 246.99 247.332 244 248.142L241.65 248.762V252.992L238.96 253.702V240.682V240.692ZM243.56 246.052C245.17 245.612 245.95 244.512 245.93 243.202C245.93 241.912 245.15 241.242 243.56 241.662L241.65 242.172V246.562L243.56 246.052Z" fill="white"/>
<path d="M256.247 249.252C252.777 250.172 250.147 248.422 250.147 244.192C250.147 239.962 252.767 236.812 256.247 235.862C259.697 234.942 262.317 236.672 262.317 240.922C262.317 245.172 259.667 248.302 256.247 249.232V249.252ZM256.247 246.862C258.247 246.312 259.577 244.452 259.577 241.682C259.577 238.912 258.267 237.752 256.247 238.282C254.227 238.832 252.907 240.702 252.907 243.482C252.907 246.262 254.217 247.412 256.247 246.882V246.862Z" fill="white"/>
<path d="M275.124 244.002L272.774 244.622L267.064 237.882H266.954V246.182L264.264 246.892V233.872L266.634 233.232L272.314 239.972H272.434V231.672L275.104 230.962V243.982L275.124 244.002Z" fill="white"/>
<path d="M178.227 394.012V396.242C169.417 397.852 165.067 395.922 162.697 394.702C160.207 393.252 158.857 389.642 159.587 385.842C160.827 380.412 166.047 375.792 171.277 375.632C176.357 375.382 179.607 379.732 178.367 385.292C177.857 388.032 176.137 390.492 174.387 391.942C173.147 393.142 173.397 394.702 178.227 394.012ZM213.517 358.472C213.517 375.982 201.347 388.702 185.937 394.172V391.942C199.717 386.512 203.217 374.762 200.727 367.122C199.227 362.312 190.907 348.622 159.737 361.212L162.587 345.662C206.437 326.592 213.517 347.912 213.517 358.472ZM206.567 316.492L165.827 327.422L168.937 310.312L211.937 298.792L206.597 316.502H206.577L206.567 316.492Z" fill="white"/>
<path d="M259.348 311.792C259.348 324.102 255.738 334.612 242.208 338.242C228.548 341.902 224.928 333.292 224.928 321.012C224.928 308.732 228.538 297.432 242.208 293.772C255.758 290.132 259.348 299.612 259.348 311.782V311.792ZM248.418 314.712C248.418 297.832 247.548 294.442 242.208 295.872C236.618 297.362 235.878 301.162 235.878 318.072C235.878 334.982 236.748 337.602 242.208 336.132C247.798 334.642 248.418 331.602 248.418 314.712ZM295.118 276.482L303.198 274.322L246.558 376.962L238.478 379.122L295.118 276.482ZM316.608 333.212C316.608 345.522 312.998 356.032 299.468 359.662C285.808 363.322 282.188 354.712 282.188 342.432C282.188 330.152 285.798 318.852 299.468 315.192C313.018 311.562 316.608 321.032 316.608 333.202V333.212ZM305.678 336.132C305.678 319.252 304.808 315.862 299.468 317.292C293.878 318.782 293.138 322.582 293.138 339.492C293.138 356.402 294.008 359.022 299.468 357.552C305.058 356.062 305.678 353.022 305.678 336.132Z" fill="white"/>
<path d="M203.905 464.982V439.082L206.225 438.462V464.362L203.905 464.982ZM207.375 464.042V438.162L208.545 437.842V463.722L207.375 464.042ZM210.875 463.102V437.222L212.025 436.922V462.802L210.875 463.102ZM216.675 461.532V435.652L217.825 435.352V461.232L216.675 461.532ZM221.325 460.292V434.412L223.625 433.792V459.672L221.325 460.292ZM227.125 458.732V432.852L228.275 432.552V458.432L227.125 458.732ZM229.445 458.112V432.232L230.595 431.932V457.812L229.445 458.112ZM231.765 457.492V431.612L232.915 431.312V457.192L231.765 457.492ZM236.385 456.252V430.372L238.705 429.752V455.632L236.385 456.252ZM242.185 454.692V428.812L244.505 428.192V454.072L242.185 454.692ZM246.835 453.452V427.572L249.155 426.952V452.832L246.835 453.452ZM251.485 452.212V426.332L253.805 425.712V451.592L251.485 452.212ZM254.955 451.292V425.412L257.275 424.792V450.672L254.955 451.292ZM260.795 449.722V423.842L264.265 422.922V448.802L260.795 449.722ZM265.415 448.482V422.602L266.585 422.282V448.162L265.415 448.482ZM267.735 447.882V421.982L270.055 421.362V447.262L267.735 447.882Z" fill="white"/>
<path d="M523.414 413.662L522.664 413.862L42.7944 542.462C39.4444 543.362 36.5044 542.792 34.4244 541.272C32.3544 539.752 31.0144 537.202 31.0144 533.882V303.752C31.0144 297.022 36.5344 290.002 43.3144 288.182L523.174 159.612C526.524 158.712 529.464 159.282 531.544 160.802C533.624 162.322 534.954 164.872 534.954 168.192V398.322C534.954 404.802 529.834 411.552 523.404 413.672L523.414 413.662Z" fill="#05038B" stroke="#8281C5" stroke-width="2"/>
<path d="M250.689 275.082C248.659 275.632 247.329 277.542 247.329 280.282C247.329 283.022 248.689 284.212 250.669 283.682C252.139 283.272 253.269 282.162 253.519 280.692L256.259 279.982C255.959 282.462 253.939 285.202 250.619 286.102C247.149 287.022 244.569 285.272 244.569 281.042C244.569 276.812 247.189 273.662 250.619 272.742C253.609 271.942 255.889 273.042 256.259 275.942L253.519 276.682C253.309 275.302 252.209 274.722 250.689 275.122V275.102V275.082Z" fill="white"/>
<path d="M263.974 282.512C260.504 283.432 257.874 281.682 257.874 277.452C257.874 273.222 260.494 270.072 263.974 269.122C267.424 268.202 270.044 269.922 270.044 274.182C270.044 278.442 267.424 281.562 263.974 282.482V282.502V282.512ZM263.974 280.122C265.974 279.572 267.314 277.702 267.284 274.942C267.284 272.162 265.974 271.012 263.974 271.532C261.954 272.082 260.634 273.952 260.634 276.732C260.634 279.512 261.944 280.662 263.974 280.132V280.112V280.122Z" fill="white"/>
<path d="M282.778 264.272V272.712C282.778 275.562 280.618 278.052 277.398 278.902C274.158 279.772 272.038 278.442 272.038 275.592V267.152L274.728 266.442V274.682C274.728 276.172 275.808 276.982 277.398 276.542C279.028 276.102 280.088 274.722 280.068 273.232V264.992L282.778 264.252V264.272Z" fill="white"/>
<path d="M284.967 263.692L290.078 262.332C293.048 261.552 294.728 262.902 294.728 265.482C294.728 268.062 292.998 270.332 290.008 271.142L287.658 271.762V275.992L284.967 276.702V263.682V263.692ZM289.568 269.052C291.178 268.612 291.957 267.512 291.938 266.202C291.938 264.912 291.158 264.242 289.568 264.662L287.658 265.172V269.562L289.568 269.052Z" fill="white"/>
<path d="M302.255 272.252C298.785 273.172 296.155 271.422 296.155 267.192C296.155 262.962 298.775 259.812 302.255 258.862C305.705 257.942 308.325 259.662 308.325 263.922C308.325 268.182 305.675 271.302 302.255 272.232V272.252ZM302.255 269.862C304.255 269.312 305.595 267.452 305.595 264.682C305.595 261.912 304.285 260.752 302.255 261.282C300.235 261.832 298.915 263.692 298.915 266.482C298.915 269.272 300.225 270.412 302.255 269.882V269.862Z" fill="white"/>
<path d="M321.124 267.002L318.774 267.622L313.064 260.882H312.954V269.182L310.264 269.892V256.872L312.634 256.232L318.314 262.972H318.434V254.662L321.104 253.952V266.972L321.124 266.992V267.002Z" fill="white"/>
<path d="M224.235 417.012V419.242C215.425 420.852 211.075 418.922 208.705 417.702C206.215 416.252 204.865 412.642 205.595 408.842C206.835 403.412 212.055 398.792 217.285 398.632C222.365 398.382 225.615 402.732 224.375 408.292C223.865 411.032 222.145 413.492 220.395 414.942C219.155 416.142 219.405 417.702 224.235 417.012ZM259.525 381.472C259.525 398.982 247.355 411.702 231.945 417.172V414.942C245.725 409.512 249.225 397.762 246.735 390.122C245.235 385.312 236.915 371.622 205.745 384.212L208.595 368.662C252.445 349.592 259.525 370.912 259.525 381.472ZM252.575 339.492L211.835 350.422L214.945 333.312L257.935 321.782L252.595 339.492H252.575Z" fill="white"/>
<path d="M305.348 334.802C305.348 347.112 301.738 357.622 288.208 361.252C274.538 364.912 270.928 356.302 270.928 344.022C270.928 331.742 274.538 320.442 288.208 316.782C301.758 313.142 305.348 322.622 305.348 334.792V334.802ZM294.418 337.722C294.418 320.842 293.548 317.452 288.208 318.882C282.618 320.372 281.878 324.172 281.878 341.082C281.878 357.992 282.748 360.612 288.208 359.142C293.798 357.642 294.418 354.612 294.418 337.722ZM341.118 299.492L349.198 297.332L292.558 399.972L284.488 402.132L341.128 299.492H341.118ZM362.608 356.222C362.608 368.532 358.998 379.042 345.468 382.672C331.798 386.332 328.188 377.722 328.188 365.442C328.188 353.162 331.798 341.862 345.468 338.202C359.018 334.572 362.608 344.042 362.608 356.212V356.222ZM351.678 359.142C351.678 342.252 350.808 338.872 345.468 340.302C339.878 341.802 339.138 345.592 339.138 362.502C339.138 379.412 340.008 382.032 345.468 380.562C351.058 379.072 351.678 376.032 351.678 359.142Z" fill="white"/>
<path d="M249.913 487.982V462.082L252.233 461.462V487.362L249.913 487.982ZM253.383 487.042V461.162L254.553 460.842V486.722L253.383 487.042ZM256.883 486.102V460.222L258.033 459.922V485.802L256.883 486.102ZM262.683 484.532V458.652L263.833 458.352V484.232L262.683 484.532ZM267.333 483.292V457.412L269.633 456.792V482.672L267.333 483.292ZM273.133 481.732V455.852L274.283 455.552V481.432L273.133 481.732ZM275.453 481.112V455.232L276.603 454.932V480.812L275.453 481.112ZM277.773 480.492V454.612L278.923 454.312V480.192L277.773 480.492ZM282.393 479.252V453.372L284.713 452.752V478.632L282.393 479.252ZM288.193 477.692V451.812L290.513 451.192V477.072L288.193 477.692ZM292.843 476.452V450.572L295.163 449.952V475.832L292.843 476.452ZM297.493 475.212V449.332L299.813 448.712V474.592L297.493 475.212ZM300.963 474.292V448.412L303.283 447.792V473.672L300.963 474.292ZM306.803 472.722V446.842L310.273 445.922V471.802L306.803 472.722ZM311.423 471.482V445.602L312.593 445.282V471.162L311.423 471.482ZM313.743 470.882V444.982L316.063 444.362V470.262L313.743 470.882Z" fill="white"/>
<path d="M88.81 565.442C85.46 566.342 82.52 565.772 80.44 564.252C78.36 562.732 77.03 560.182 77.03 556.862V326.732C77.03 320.012 82.55 312.982 89.33 311.162L569.19 182.592C572.54 181.692 575.48 182.262 577.56 183.782C579.64 185.302 580.97 187.852 580.97 191.172V421.302C580.97 428.032 575.45 435.052 568.67 436.872L88.81 565.442Z" fill="#05038B" stroke="#8281C5" stroke-width="2"/>
<path d="M296.705 298.082C294.685 298.632 293.345 300.542 293.345 303.282C293.345 306.022 294.705 307.212 296.685 306.682C298.155 306.272 299.285 305.162 299.535 303.692L302.275 302.982C301.975 305.462 299.955 308.202 296.635 309.102C293.165 310.022 290.585 308.272 290.585 304.042C290.585 299.812 293.205 296.662 296.635 295.742C299.625 294.942 301.905 296.042 302.275 298.942L299.535 299.682C299.325 298.302 298.225 297.722 296.705 298.112V298.092V298.082Z" fill="white"/>
<path d="M309.997 305.512C306.527 306.432 303.897 304.682 303.897 300.452C303.897 296.222 306.517 293.062 309.997 292.122C313.447 291.202 316.067 292.922 316.067 297.182C316.067 301.442 313.447 304.572 309.997 305.482V305.502V305.512ZM309.997 303.122C311.997 302.572 313.327 300.702 313.307 297.942C313.307 295.162 311.997 294.012 309.997 294.542C307.977 295.092 306.657 296.952 306.657 299.742C306.657 302.532 307.967 303.672 309.997 303.142V303.122Z" fill="white"/>
<path d="M328.793 287.272V295.712C328.793 298.562 326.633 301.052 323.413 301.902C320.173 302.772 318.053 301.442 318.053 298.592V290.152L320.743 289.442V297.682C320.743 299.182 321.823 299.982 323.413 299.542C325.043 299.102 326.103 297.722 326.083 296.232V288.002L328.793 287.262V287.282V287.272Z" fill="white"/>
<path d="M330.983 286.702L336.093 285.342C339.063 284.562 340.743 285.922 340.743 288.492C340.743 291.062 339.013 293.342 336.023 294.152L333.673 294.772V299.002L330.983 299.712V286.692V286.702ZM335.583 292.062C337.193 291.622 337.973 290.522 337.953 289.212C337.953 287.922 337.173 287.252 335.583 287.672L333.673 288.182V292.572L335.583 292.062Z" fill="white"/>
<path d="M348.278 295.252C344.808 296.172 342.178 294.422 342.178 290.192C342.178 285.962 344.798 282.812 348.278 281.862C351.728 280.942 354.348 282.662 354.348 286.922C354.348 291.182 351.708 294.312 348.278 295.222V295.242V295.252ZM348.278 292.862C350.278 292.312 351.618 290.442 351.618 287.682C351.618 284.922 350.308 283.752 348.278 284.282C346.258 284.832 344.938 286.702 344.938 289.482C344.938 292.262 346.248 293.412 348.278 292.882V292.862Z" fill="white"/>
<path d="M367.148 290.012L364.798 290.632L359.098 283.892H358.978V292.192L356.288 292.902V279.882L358.658 279.242L364.338 285.982H364.448V277.682L367.118 276.972V289.992L367.138 290.012H367.148Z" fill="white"/>
<path d="M270.25 440.022V442.252C261.44 443.862 257.09 441.932 254.72 440.712C252.23 439.262 250.88 435.652 251.61 431.852C252.85 426.422 258.07 421.802 263.3 421.642C268.38 421.392 271.63 425.742 270.39 431.302C269.88 434.042 268.16 436.502 266.41 437.952C265.17 439.152 265.42 440.712 270.25 440.022ZM305.54 404.482C305.54 421.992 293.37 434.712 277.96 440.182V437.952C291.74 432.522 295.24 420.772 292.75 413.132C291.26 408.322 282.93 394.632 251.76 407.222L254.61 391.672C298.45 372.602 305.54 393.922 305.54 404.482ZM298.59 362.502L257.85 373.432L260.96 356.322L303.95 344.802L298.61 362.512H298.59V362.502Z" fill="white"/>
<path d="M351.356 357.802C351.356 370.112 347.746 380.622 334.216 384.252C320.556 387.912 316.936 379.302 316.936 367.022C316.936 354.742 320.546 343.442 334.216 339.782C347.766 336.142 351.356 345.622 351.356 357.792V357.802ZM340.426 360.722C340.426 343.842 339.556 340.452 334.216 341.882C328.626 343.372 327.886 347.172 327.886 364.082C327.886 380.992 328.766 383.612 334.216 382.142C339.806 380.642 340.426 377.612 340.426 360.722ZM387.126 322.492L395.196 320.332L338.556 422.972L330.486 425.132L387.126 322.492ZM408.616 379.222C408.616 391.532 405.006 402.042 391.476 405.672C377.806 409.332 374.196 400.722 374.196 388.442C374.196 376.162 377.806 364.862 391.476 361.202C405.026 357.562 408.616 367.042 408.616 379.212V379.222ZM397.686 382.142C397.686 365.252 396.816 361.872 391.476 363.302C385.886 364.802 385.146 368.592 385.146 385.502C385.146 402.412 386.016 405.032 391.476 403.562C397.066 402.072 397.686 399.032 397.686 382.142Z" fill="white"/>
<path d="M295.913 510.982V485.082L298.233 484.462V510.362L295.913 510.982ZM299.383 510.042V484.162L300.553 483.842V509.722L299.383 510.042ZM302.883 509.102V483.222L304.033 482.922V508.802L302.883 509.102ZM308.683 507.532V481.652L309.833 481.352V507.232L308.683 507.532ZM313.333 506.292V480.412L315.633 479.792V505.672L313.333 506.292ZM319.133 504.732V478.852L320.283 478.552V504.432L319.133 504.732ZM321.453 504.112V478.232L322.603 477.932V503.812L321.453 504.112ZM323.773 503.492V477.612L324.923 477.312V503.192L323.773 503.492ZM328.393 502.252V476.372L330.713 475.752V501.632L328.393 502.252ZM334.193 500.682V474.802L336.513 474.182V500.062L334.193 500.682ZM338.843 499.442V473.562L341.163 472.942V498.822L338.843 499.442ZM343.493 498.202V472.322L345.813 471.702V497.582L343.493 498.202ZM346.963 497.282V471.402L349.283 470.782V496.662L346.963 497.282ZM352.803 495.712V469.832L356.273 468.912V494.792L352.803 495.712ZM357.423 494.472V468.592L358.593 468.272V494.152L357.423 494.472ZM359.743 493.872V467.972L362.063 467.352V493.252L359.743 493.872Z" fill="white"/>
<path d="M614.94 276.802L135.07 405.372C127.87 407.302 122.03 403.022 122.03 395.822V165.692C122.03 158.492 127.87 151.082 135.07 149.152L614.94 20.5822C622.14 18.6522 627.98 22.9322 627.98 30.1322V260.262C627.98 267.462 622.14 274.872 614.94 276.802Z" fill="#FFA2D1"/>
<path d="M350.705 145.052C348.685 145.602 347.345 147.512 347.345 150.252C347.345 152.992 348.705 154.182 350.685 153.652C352.155 153.242 353.285 152.132 353.535 150.662L356.275 149.952C355.975 152.432 353.955 155.172 350.635 156.072C347.165 156.992 344.585 155.242 344.585 151.012C344.585 146.782 347.205 143.632 350.635 142.702C353.625 141.892 355.905 143.002 356.275 145.902L353.535 146.642C353.325 145.262 352.225 144.682 350.705 145.082V145.062V145.052Z" fill="#05038B"/>
<path d="M363.997 152.482C360.527 153.402 357.897 151.652 357.897 147.422C357.897 143.192 360.517 140.042 363.997 139.092C367.447 138.172 370.067 139.902 370.067 144.152C370.067 148.402 367.447 151.542 363.997 152.462V152.482ZM363.997 150.092C365.997 149.542 367.327 147.682 367.307 144.922C367.307 142.142 365.997 140.992 363.997 141.522C361.977 142.072 360.657 143.942 360.657 146.722C360.657 149.502 361.967 150.652 363.997 150.122V150.102V150.092Z" fill="#05038B"/>
<path d="M382.793 134.242V142.682C382.793 145.532 380.633 148.022 377.413 148.872C374.173 149.742 372.053 148.412 372.053 145.562V137.122L374.743 136.412V144.652C374.743 146.152 375.823 146.952 377.413 146.512C379.043 146.072 380.103 144.692 380.083 143.202V134.962L382.793 134.222V134.242Z" fill="#05038B"/>
<path d="M384.983 133.672L390.093 132.312C393.063 131.532 394.743 132.882 394.743 135.462C394.743 138.042 393.013 140.312 390.023 141.122L387.673 141.742V145.972L384.983 146.682V133.662V133.672ZM389.583 139.032C391.193 138.592 391.973 137.492 391.953 136.182C391.953 134.892 391.173 134.222 389.583 134.642L387.673 135.152V139.542L389.583 139.032Z" fill="#05038B"/>
<path d="M402.278 142.222C398.808 143.142 396.178 141.392 396.178 137.162C396.178 132.932 398.798 129.782 402.278 128.832C405.728 127.912 408.348 129.642 408.348 133.892C408.348 138.142 405.708 141.272 402.278 142.192V142.212V142.222ZM402.278 139.832C404.278 139.282 405.618 137.412 405.618 134.652C405.618 131.892 404.308 130.722 402.278 131.242C400.258 131.792 398.938 133.662 398.938 136.442C398.938 139.222 400.248 140.372 402.278 139.842V139.822V139.832Z" fill="#05038B"/>
<path d="M421.148 136.982L418.798 137.602L413.098 130.862H412.978V139.172L410.288 139.882V126.862L412.658 126.222L418.338 132.962H418.448V124.652L421.118 123.942V136.962L421.138 136.982H421.148Z" fill="#05038B"/>
<path d="M307.298 290.771V292.891C299.588 294.451 293.748 294.161 288.778 291.761C286.178 290.591 284.798 286.861 285.678 283.021C286.808 277.501 292.008 272.881 297.108 272.761C302.328 272.601 305.548 276.831 304.308 282.371C303.688 285.151 302.188 287.291 300.328 288.901C299.198 289.711 300.578 291.821 307.278 290.761H307.298V290.771ZM340.218 254.241C341.458 273.911 327.178 285.941 315.008 290.681V288.311C324.208 283.731 326.188 273.381 325.318 264.551C324.808 260.201 320.968 247.711 301.718 250.261V248.141C322.468 236.131 319.848 220.561 312.788 216.741C307.198 213.631 294.778 217.591 290.058 228.541H288.078C290.818 207.721 310.188 202.521 310.188 202.521C327.698 197.831 343.478 212.231 322.498 238.111C333.428 240.641 339.748 246.781 340.258 254.211L340.238 254.231L340.218 254.241Z" fill="#05038B"/>
<path d="M374.119 185.522V188.002C365.929 192.442 362.939 204.172 362.939 233.992C362.939 263.812 366.049 272.542 374.119 272.482V274.852C349.899 279.472 343.319 262.612 343.319 239.262C343.319 215.912 349.899 194.012 374.119 185.552V185.532V185.522ZM412.739 220.622C412.739 243.972 406.019 264.542 381.939 272.722V270.352C390.269 266.252 393.119 255.672 393.119 225.862C393.119 196.052 389.759 186.022 381.939 185.882V183.392C406.049 178.792 412.739 197.012 412.739 220.592V220.612V220.622Z" fill="#05038B"/>
<path d="M461.817 188.722C461.817 201.032 458.207 211.562 444.677 215.172C431.017 218.832 427.397 210.222 427.397 197.942C427.397 185.662 431.007 174.362 444.677 170.702C458.227 167.072 461.817 176.542 461.817 188.712V188.722ZM450.887 191.642C450.887 174.762 450.007 171.372 444.677 172.802C439.087 174.292 438.347 178.092 438.347 195.002C438.347 211.912 439.227 214.532 444.677 213.062C450.267 211.562 450.887 208.552 450.887 191.642ZM497.587 153.412L505.657 151.252L449.017 253.892L440.947 256.052L497.587 153.402V153.412ZM519.077 210.142C519.077 222.452 515.467 232.962 501.937 236.592C488.267 240.252 484.657 231.642 484.657 219.362C484.657 207.082 488.267 195.782 501.937 192.122C515.487 188.492 519.077 197.962 519.077 210.132V210.142ZM508.147 213.062C508.147 196.172 507.277 192.792 501.937 194.222C496.347 195.712 495.607 199.512 495.607 216.422C495.607 233.332 496.477 235.952 501.937 234.482C507.527 232.982 508.147 229.952 508.147 213.062Z" fill="#05038B"/>
<path d="M341.928 349.962V324.062L344.248 323.442V349.342L341.928 349.962ZM345.398 349.022V323.142L346.568 322.822V348.702L345.398 349.022ZM348.898 348.082V322.202L350.048 321.902V347.782L348.898 348.082ZM354.698 346.522V320.642L355.848 320.342V346.222L354.698 346.522ZM359.348 345.282V319.402L361.648 318.782V344.662L359.348 345.282ZM365.148 343.712V317.832L366.298 317.532V343.412L365.148 343.712ZM367.468 343.092V317.212L368.618 316.912V342.792L367.468 343.092ZM369.788 342.472V316.592L370.938 316.292V342.172L369.788 342.472ZM374.408 341.232V315.352L376.728 314.732V340.612L374.408 341.232ZM380.208 339.672V313.792L382.528 313.172V339.052L380.208 339.672ZM384.858 338.432V312.552L387.178 311.932V337.812L384.858 338.432ZM389.508 337.192V311.312L391.828 310.692V336.572L389.508 337.192ZM392.978 336.272V310.392L395.298 309.772V335.652L392.978 336.272ZM398.818 334.712V308.832L402.288 307.912V333.792L398.818 334.712ZM403.438 333.472V307.592L404.608 307.272V333.152L403.438 333.472ZM405.758 332.872V306.972L408.078 306.352V332.252L405.758 332.872Z" fill="white"/>
<path d="M180.826 611.442C177.476 612.342 174.536 611.772 172.456 610.252C170.386 608.732 169.046 606.182 169.046 602.862V372.732C169.046 366.012 174.566 358.982 181.346 357.162L661.206 228.592C664.556 227.692 667.496 228.262 669.576 229.782C671.656 231.302 672.986 233.852 672.986 237.172V467.302C672.986 474.032 667.466 481.052 660.686 482.872L180.816 611.442H180.826Z" fill="#05038B" stroke="#8281C5" stroke-width="2"/>
<path d="M388.72 344.092C386.69 344.642 385.36 346.552 385.36 349.292C385.36 352.032 386.72 353.222 388.7 352.692C390.17 352.282 391.3 351.172 391.55 349.702L394.29 348.992C393.99 351.482 391.97 354.212 388.65 355.112C385.18 356.032 382.6 354.282 382.6 350.052C382.6 345.822 385.22 342.672 388.65 341.752C391.64 340.952 393.92 342.052 394.29 344.952L391.55 345.692C391.34 344.312 390.24 343.732 388.72 344.132V344.112V344.092Z" fill="white"/>
<path d="M402.005 351.522C398.535 352.442 395.905 350.692 395.905 346.462C395.905 342.232 398.525 339.082 402.005 338.132C405.455 337.212 408.075 338.932 408.075 343.192C408.075 347.452 405.455 350.582 402.005 351.492V351.512V351.522ZM402.005 349.132C404.005 348.582 405.345 346.712 405.315 343.962C405.315 341.182 404.005 340.032 402.005 340.562C399.985 341.112 398.665 342.972 398.665 345.762C398.665 348.552 399.975 349.692 402.005 349.162V349.142V349.132Z" fill="white"/>
<path d="M420.809 333.282V341.722C420.809 344.572 418.649 347.062 415.429 347.912C412.189 348.782 410.069 347.452 410.069 344.602V336.162L412.759 335.452V343.682C412.759 345.182 413.839 345.982 415.429 345.542C417.059 345.102 418.119 343.722 418.099 342.232V334.002L420.809 333.262V333.282Z" fill="white"/>
<path d="M422.999 332.702L428.109 331.342C431.079 330.562 432.759 331.912 432.759 334.492C432.759 337.072 431.029 339.342 428.039 340.152L425.689 340.772V345.002L422.999 345.712V332.692V332.702ZM427.599 338.062C429.209 337.622 429.989 336.522 429.969 335.212C429.969 333.922 429.189 333.252 427.599 333.672L425.689 334.182V338.572L427.599 338.062Z" fill="white"/>
<path d="M440.286 341.262C436.816 342.182 434.186 340.432 434.186 336.202C434.186 331.972 436.806 328.822 440.286 327.872C443.736 326.952 446.356 328.682 446.356 332.932C446.356 337.182 443.706 340.312 440.286 341.232V341.252V341.262ZM440.286 338.872C442.286 338.322 443.616 336.452 443.616 333.692C443.616 330.932 442.306 329.762 440.286 330.292C438.266 330.842 436.946 332.712 436.946 335.492C436.946 338.272 438.256 339.422 440.286 338.892V338.872Z" fill="white"/>
<path d="M459.156 336.022L456.806 336.642L451.096 329.902H450.986V338.202L448.296 338.912V325.892L450.666 325.252L456.346 331.992H456.466V323.692L459.136 322.982V336.002L459.156 336.022Z" fill="white"/>
<path d="M362.268 486.033V488.263C353.458 489.873 349.108 487.943 346.738 486.723C344.258 485.273 342.898 481.662 343.638 477.862C344.878 472.432 350.098 467.812 355.328 467.652C360.408 467.402 363.658 471.753 362.408 477.312C361.898 480.052 360.178 482.512 358.428 483.962C357.188 485.162 357.438 486.723 362.268 486.033ZM397.558 450.492C397.558 468.002 385.388 480.723 369.978 486.193V483.962C383.758 478.532 387.258 466.782 384.768 459.142C383.278 454.332 374.948 440.652 343.778 453.232L346.628 437.682C390.478 418.612 397.558 439.932 397.558 450.492ZM390.608 408.513L349.868 419.443L352.978 402.332L395.968 390.812L390.628 408.522H390.608V408.513Z" fill="white"/>
<path d="M443.38 403.812C443.38 416.122 439.77 426.632 426.24 430.272C412.58 433.932 408.96 425.322 408.96 413.042C408.96 400.762 412.57 389.462 426.24 385.802C439.79 382.162 443.38 391.642 443.38 403.812ZM432.45 406.732C432.45 389.852 431.58 386.462 426.24 387.892C420.65 389.392 419.91 393.182 419.91 410.092C419.91 427.002 420.78 429.622 426.24 428.152C431.83 426.662 432.45 423.622 432.45 406.732ZM479.15 368.502L487.22 366.342L430.58 468.982L422.51 471.142L479.15 368.502ZM500.63 425.232C500.63 437.542 497.02 448.052 483.49 451.692C469.83 455.352 466.21 446.742 466.21 434.462C466.21 422.182 469.82 410.882 483.49 407.222C497.04 403.592 500.63 413.062 500.63 425.232ZM489.7 428.152C489.7 411.262 488.83 407.882 483.49 409.312C477.9 410.802 477.16 414.602 477.16 431.512C477.16 448.422 478.03 451.042 483.49 449.572C489.08 448.082 489.7 445.042 489.7 428.152Z" fill="white"/>
<path d="M387.936 556.992V531.092L390.256 530.472V556.372L387.936 556.992ZM391.406 556.052V530.172L392.576 529.852V555.732L391.406 556.052ZM394.906 555.112V529.232L396.056 528.932V554.812L394.906 555.112ZM400.706 553.552V527.672L401.856 527.372V553.252L400.706 553.552ZM405.356 552.312V526.432L407.656 525.812V551.692L405.356 552.312ZM411.156 550.752V524.872L412.306 524.572V550.452L411.156 550.752ZM413.476 550.132V524.252L414.626 523.952V549.832L413.476 550.132ZM415.796 549.512V523.632L416.946 523.332V549.212L415.796 549.512ZM420.416 548.272V522.392L422.736 521.772V547.652L420.416 548.272ZM426.216 546.702V520.822L428.536 520.202V546.082L426.216 546.702ZM430.866 545.462V519.582L433.186 518.962V544.842L430.866 545.462ZM435.516 544.222V518.342L437.836 517.722V543.602L435.516 544.222ZM438.986 543.302V517.422L441.306 516.802V542.682L438.986 543.302ZM444.826 541.742V515.862L448.296 514.942V540.822L444.826 541.742ZM449.446 540.502V514.622L450.616 514.302V540.182L449.446 540.502ZM451.766 539.902V514.002L454.086 513.382V539.282L451.766 539.902Z" fill="white"/>
<path d="M226.826 634.452C223.476 635.352 220.536 634.782 218.456 633.262C216.386 631.742 215.046 629.192 215.046 625.872V395.742C215.046 389.012 220.566 381.992 227.346 380.172L707.206 251.602C710.556 250.702 713.496 251.272 715.576 252.792C717.656 254.312 718.986 256.862 718.986 260.182V490.312C718.986 497.042 713.466 504.062 706.686 505.882L226.826 634.452Z" fill="#05038B" stroke="#8281C5" stroke-width="2"/>
<path d="M434.728 367.102C432.708 367.652 431.368 369.562 431.368 372.302C431.368 375.042 432.728 376.232 434.708 375.702C436.178 375.292 437.308 374.182 437.558 372.712L440.298 372.002C439.998 374.492 437.978 377.222 434.658 378.122C431.188 379.042 428.608 377.292 428.608 373.062C428.608 368.832 431.228 365.672 434.658 364.752C437.648 363.952 439.928 365.052 440.298 367.952L437.558 368.692C437.348 367.312 436.248 366.732 434.728 367.132V367.112V367.102Z" fill="white"/>
<path d="M448.013 374.532C444.543 375.452 441.913 373.702 441.913 369.472C441.913 365.242 444.533 362.092 448.013 361.142C451.463 360.222 454.083 361.942 454.083 366.202C454.083 370.462 451.463 373.592 448.013 374.502V374.522V374.532ZM448.013 372.142C450.013 371.592 451.353 369.722 451.323 366.972C451.323 364.192 450.013 363.042 448.013 363.572C445.993 364.122 444.673 365.982 444.673 368.772C444.673 371.562 445.983 372.702 448.013 372.172V372.152V372.142Z" fill="white"/>
<path d="M466.817 356.282V364.722C466.817 367.572 464.657 370.062 461.437 370.912C458.197 371.782 456.077 370.452 456.077 367.602V359.162L458.767 358.452V366.682C458.767 368.182 459.847 368.982 461.437 368.542C463.067 368.102 464.127 366.722 464.107 365.232V357.002L466.817 356.262V356.282Z" fill="white"/>
<path d="M469.007 355.712L474.117 354.352C477.087 353.572 478.767 354.932 478.767 357.502C478.767 360.072 477.037 362.352 474.047 363.162L471.697 363.782V368.012L469.007 368.722V355.702V355.712ZM473.607 361.072C475.217 360.632 475.997 359.532 475.977 358.222C475.977 356.932 475.197 356.272 473.607 356.682L471.697 357.192V361.582L473.607 361.072Z" fill="white"/>
<path d="M486.294 364.262C482.824 365.182 480.194 363.432 480.194 359.202C480.194 354.972 482.814 351.822 486.294 350.872C489.744 349.952 492.364 351.682 492.364 355.932C492.364 360.182 489.714 363.312 486.294 364.232V364.252V364.262ZM486.294 361.872C488.294 361.322 489.634 359.452 489.634 356.692C489.634 353.932 488.324 352.762 486.294 353.292C484.274 353.842 482.964 355.712 482.964 358.492C482.964 361.272 484.274 362.422 486.294 361.892V361.872Z" fill="white"/>
<path d="M505.163 359.022L502.813 359.642L497.103 352.902H496.993V361.202L494.303 361.912V348.892L496.673 348.252L502.353 354.992H502.473V346.692L505.143 345.982V359.002L505.163 359.022Z" fill="white"/>
<path d="M408.265 509.033V511.263C399.455 512.873 395.105 510.943 392.735 509.723C390.255 508.273 388.895 504.662 389.625 500.862C390.865 495.432 396.085 490.812 401.315 490.652C406.395 490.402 409.645 494.753 408.395 500.312C407.885 503.052 406.165 505.512 404.415 506.962C403.175 508.162 403.425 509.723 408.255 509.033H408.265ZM443.555 473.492C443.555 491.002 431.385 503.723 415.975 509.193V506.962C429.755 501.532 433.255 489.782 430.765 482.142C429.265 477.332 420.945 463.652 389.775 476.232L392.625 460.682C436.475 441.612 443.555 462.942 443.555 473.492ZM436.605 431.513L395.865 442.443L398.965 425.332L441.955 413.812L436.615 431.522H436.595L436.605 431.513Z" fill="white"/>
<path d="M489.388 426.812C489.388 439.122 485.777 449.632 472.247 453.272C458.587 456.932 454.967 448.322 454.967 436.042C454.967 423.762 458.577 412.462 472.247 408.802C485.797 405.162 489.388 414.642 489.388 426.812ZM478.458 429.732C478.458 412.852 477.587 409.462 472.247 410.892C466.657 412.392 465.918 416.182 465.918 433.092C465.918 450.002 466.787 452.622 472.247 451.152C477.837 449.662 478.458 446.622 478.458 429.732ZM525.158 391.502L533.237 389.342L476.598 491.992L468.527 494.152L525.167 391.512L525.158 391.502ZM546.648 448.232C546.648 460.542 543.038 471.052 529.508 474.692C515.848 478.352 512.227 469.742 512.227 457.462C512.227 445.182 515.838 433.882 529.508 430.222C543.058 426.592 546.648 436.062 546.648 448.232ZM535.718 451.152C535.718 434.262 534.848 430.882 529.508 432.312C523.918 433.802 523.177 437.602 523.177 454.512C523.177 471.422 524.048 474.042 529.508 472.572C535.098 471.082 535.718 468.042 535.718 451.152Z" fill="white"/>
<path d="M433.944 580.002V554.102L436.264 553.482V579.382L433.944 580.002ZM437.414 579.062V553.182L438.584 552.862V578.742L437.414 579.062ZM440.914 578.122V552.242L442.064 551.942V577.822L440.914 578.122ZM446.714 576.562V550.682L447.864 550.382V576.262L446.714 576.562ZM451.364 575.322V549.442L453.664 548.822V574.702L451.364 575.322ZM457.164 573.762V547.882L458.314 547.582V573.462L457.164 573.762ZM459.484 573.142V547.262L460.634 546.962V572.842L459.484 573.142ZM461.804 572.522V546.642L462.954 546.342V572.222L461.804 572.522ZM466.424 571.282V545.402L468.744 544.782V570.662L466.424 571.282ZM472.224 569.712V543.832L474.544 543.212V569.092L472.224 569.712ZM476.874 568.472V542.592L479.194 541.972V567.852L476.874 568.472ZM481.524 567.232V541.352L483.844 540.732V566.612L481.524 567.232ZM484.994 566.312V540.432L487.314 539.812V565.692L484.994 566.312ZM490.834 564.752V538.872L494.304 537.952V563.832L490.834 564.752ZM495.454 563.512V537.632L496.624 537.312V563.192L495.454 563.512ZM497.774 562.912V537.012L500.094 536.392V562.292L497.774 562.912Z" fill="white"/>
<path d="M272.833 657.452C269.483 658.352 266.543 657.782 264.463 656.262C262.383 654.742 261.053 652.192 261.053 648.872V418.742C261.053 412.022 266.573 404.992 273.353 403.172L753.213 274.602C756.563 273.702 759.503 274.272 761.583 275.792C763.663 277.312 764.993 279.862 764.993 283.182V513.312C764.993 520.042 759.473 527.062 752.693 528.882L272.833 657.452Z" fill="#05038B" stroke="#8281C5" stroke-width="2"/>
<path d="M493.738 396.102C491.718 396.652 490.378 398.562 490.378 401.302C490.378 404.042 491.738 405.232 493.708 404.702C495.178 404.292 496.308 403.182 496.558 401.712L499.298 401.002C498.998 403.492 496.978 406.222 493.658 407.122C490.188 408.042 487.608 406.292 487.608 402.062C487.608 397.832 490.228 394.672 493.658 393.752C496.648 392.952 498.928 394.052 499.298 396.952L496.558 397.692C496.348 396.312 495.248 395.732 493.728 396.132V396.112L493.738 396.102Z" fill="#8281C5"/>
<path d="M507.028 403.531C503.558 404.451 500.928 402.701 500.928 398.471C500.928 394.241 503.548 391.091 507.028 390.141C510.478 389.221 513.098 390.941 513.098 395.201C513.098 399.461 510.478 402.591 507.028 403.501V403.521V403.531ZM507.028 401.141C509.028 400.591 510.368 398.721 510.338 395.961C510.338 393.181 509.028 392.031 507.028 392.561C505.008 393.111 503.688 394.981 503.688 397.761C503.688 400.541 504.998 401.691 507.028 401.161V401.141Z" fill="#8281C5"/>
<path d="M525.825 385.293V393.733C525.825 396.583 523.665 399.073 520.445 399.923C517.205 400.793 515.085 399.463 515.085 396.613V388.173L517.775 387.463V395.703C517.775 397.193 518.855 398.003 520.445 397.563C522.075 397.123 523.135 395.743 523.115 394.253V386.023L525.825 385.283V385.303V385.293Z" fill="#8281C5"/>
<path d="M528.014 384.711L533.124 383.351C536.094 382.571 537.774 383.921 537.774 386.501C537.774 389.081 536.044 391.351 533.054 392.161L530.704 392.781V397.011L528.014 397.721V384.701V384.711ZM532.614 390.071C534.224 389.631 535.004 388.531 534.984 387.221C534.984 385.931 534.204 385.271 532.614 385.681L530.704 386.191V390.581L532.614 390.071Z" fill="#8281C5"/>
<path d="M545.31 393.273C541.84 394.193 539.21 392.443 539.21 388.213C539.21 383.983 541.83 380.833 545.31 379.883C548.76 378.963 551.38 380.693 551.38 384.943C551.38 389.193 548.73 392.323 545.31 393.243V393.263V393.273ZM545.31 390.883C547.31 390.333 548.65 388.463 548.65 385.703C548.65 382.943 547.34 381.773 545.31 382.303C543.29 382.853 541.97 384.723 541.97 387.503C541.97 390.283 543.28 391.433 545.31 390.903V390.883Z" fill="#8281C5"/>
<path d="M564.177 388.022L561.827 388.642L556.127 381.902H556.017V390.202L553.327 390.912V377.892L555.697 377.252L561.377 383.992H561.487V375.692L564.157 374.982V388.002L564.177 388.022Z" fill="#8281C5"/>
<path d="M590.387 441.824C590.387 454.134 586.777 464.644 573.247 468.284C559.587 471.944 555.967 463.333 555.967 451.053C555.967 438.773 559.577 427.474 573.247 423.814C586.797 420.174 590.387 429.654 590.387 441.824ZM579.457 444.743C579.457 427.864 578.587 424.474 573.247 425.904C567.657 427.404 566.917 431.194 566.917 448.104C566.917 465.014 567.787 467.634 573.247 466.164C578.837 464.664 579.457 461.633 579.457 444.743ZM626.158 406.514L634.237 404.354L577.598 506.993L569.517 509.154L626.158 406.514ZM647.647 463.243C647.647 475.553 644.037 486.064 630.507 489.694C616.847 493.354 613.227 484.743 613.227 472.464C613.227 460.184 616.837 448.884 630.507 445.224C644.057 441.594 647.647 451.063 647.647 463.233V463.243ZM636.717 466.164C636.717 449.274 635.847 445.894 630.507 447.324C624.917 448.824 624.177 452.613 624.177 469.523C624.177 486.434 625.047 489.053 630.507 487.583C636.097 486.093 636.717 483.054 636.717 466.164Z" fill="#8281C5"/>
<path d="M499.96 596.003V570.103L502.28 569.483V595.383L499.96 596.003ZM503.43 595.063V569.183L504.6 568.863V594.743L503.43 595.063ZM506.93 594.123V568.243L508.08 567.943V593.823L506.93 594.123ZM512.73 592.563V566.683L513.88 566.383V592.263L512.73 592.563ZM517.38 591.323V565.443L519.68 564.823V590.703L517.38 591.323ZM523.18 589.753V563.873L524.33 563.573V589.453L523.18 589.753ZM525.5 589.133V563.253L526.65 562.953V588.833L525.5 589.133ZM527.82 588.513V562.633L528.97 562.333V588.213L527.82 588.513ZM532.44 587.273V561.393L534.76 560.773V586.653L532.44 587.273ZM538.24 585.713V559.833L540.56 559.213V585.093L538.24 585.713ZM542.89 584.473V558.593L545.21 557.973V583.853L542.89 584.473ZM547.54 583.233V557.353L549.86 556.733V582.613L547.54 583.233ZM551.01 582.313V556.433L553.33 555.813V581.693L551.01 582.313ZM556.85 580.753V554.873L560.32 553.953V579.833L556.85 580.753ZM561.47 579.513V553.633L562.64 553.313V579.193L561.47 579.513ZM563.79 578.913V553.013L566.11 552.393V578.293L563.79 578.913Z" fill="#8281C5"/>
<path d="M466.67 535.401V537.531L428.96 546.931V544.801C434.1 543.521 440.86 541.331 440.86 532.061V477.821C440.86 466.541 429.21 477.721 429.21 477.721L427.96 476.021L452.39 451.761L456.4 450.761V528.181C456.4 537.831 462.29 536.481 466.67 535.391V535.401Z" fill="#8281C5"/>
<path d="M505.29 436.711V439.211C497.03 443.521 494.02 455.301 494.02 485.371C494.02 515.441 497.15 524.301 505.29 524.401V526.781C480.86 530.991 474.23 513.861 474.23 490.311C474.23 466.761 480.86 444.811 505.29 436.711ZM544.26 472.851C544.26 496.401 537.5 517.001 513.19 524.821V522.441C521.58 518.461 524.46 507.851 524.46 477.791C524.46 447.731 521.08 437.531 513.19 437.251V434.751C537.5 430.571 544.26 449.051 544.26 472.851Z" fill="#8281C5"/>
<path d="M112.23 146.534C112.23 146.534 47.5813 99.8743 52.0727 93.7787C56.564 87.6831 96.4444 119.407 113.871 138.611C113.871 138.611 100.3 75.6748 115.863 76.9818C131.423 78.2957 122.549 135.472 122.549 135.472C122.549 135.472 134.555 81.657 150.121 92.0079C165.687 102.359 134.399 138.634 134.399 138.634C134.399 138.634 162.589 117.741 173.573 117.812C184.559 117.875 192.565 121.75 181.851 131.544C171.138 141.338 141.143 148.698 141.143 148.698C141.143 148.698 193.178 145.833 197.674 150.296C202.166 154.749 183.403 159.304 174.795 159.227C166.186 159.15 135.207 154.689 135.207 154.689C135.207 154.689 162.124 201.161 164.807 206.429C167.491 211.697 171.53 217.297 160.216 220.334C148.901 223.37 137.183 197.755 131.768 159.638C131.768 159.638 121.503 228.642 113.811 226.267C106.118 223.891 110.344 189.791 121.048 162.665C121.048 162.665 84.6865 208.03 77.2447 205.767C69.8029 203.504 87.3828 184.613 90.8 180.468C94.2171 176.323 110.597 161.223 114.561 159.481C114.561 159.481 71.5998 171.023 63.5006 171.175C55.4013 171.327 44.2362 167.927 56.3739 162.827C68.5117 157.727 110.948 153.526 110.948 153.526C110.948 153.526 74.0094 152.076 61.4185 147.775C48.8275 143.474 43.5024 138.093 45.2393 136.709C46.9762 135.325 85.5979 137.841 112.218 146.52L112.23 146.534Z" fill="#FF3778"/>
</svg>
