<svg width="750" height="1372" viewBox="0 0 750 1372" fill="none" xmlns="http://www.w3.org/2000/svg">
<rect width="750" height="1326" fill="#2E2F3E"/>
<path d="M80.6889 971.68C80.6889 973.144 79.4889 974.32 78.0249 974.32C76.5609 974.32 75.3609 973.144 75.3609 971.68C75.3609 970.216 76.5609 969.016 78.0249 969.016C79.4889 969.016 80.6889 970.216 80.6889 971.68ZM117.12 979.768H96.96V978.136H117.12V979.768ZM116.376 972.016L115.296 973.648C111.552 972.52 107.928 969.352 107.016 967.072C106.224 969.352 102.672 972.52 98.784 973.624L97.752 971.944C101.4 971.248 106.032 967.792 106.032 964.144V962.368H108.048V964.144C108.048 967.792 112.944 971.248 116.376 972.016ZM128.926 976.624C127.726 976.792 125.758 976.984 123.79 977.08C121.726 977.224 119.758 977.296 117.862 977.296L117.574 975.592H120.046L119.374 966.4L121.318 966.136C121.486 969.28 121.702 972.4 121.894 975.544L123.67 975.472C123.814 975.472 123.982 975.472 124.15 975.448C124.342 972.352 124.534 969.232 124.75 966.136L126.694 966.328C126.43 969.328 126.166 972.328 125.878 975.352C126.958 975.256 127.966 975.16 128.758 975.04C128.806 975.568 128.854 976.096 128.926 976.624ZM132.502 981.688H130.606V970.696H127.558V969.088H130.606V961.048H132.502V981.688ZM136.654 982.84H134.758V960.52H136.654V982.84ZM128.206 964.912H118.126V963.304H128.206V964.912ZM151.028 968.632V967.048H155.012V964.624H151.028V963.04H155.012V960.52H156.956V972.208H155.012V968.632H151.028ZM157.796 982.672H142.556V977.176H155.036V974.992H142.436V973.36H156.98V978.688H144.5V981.064H157.796V982.672ZM151.628 970.192L150.524 971.704C148.388 970.864 146.204 968.968 145.148 966.664C144.476 968.944 142.364 971.056 139.7 972.328L138.5 970.864C141.428 969.712 144.14 967.096 144.14 963.52V961.312H146.108V963.448C146.108 967.072 149.252 969.4 151.628 970.192ZM167.737 961.96H182.617C182.617 964.816 182.521 969.016 181.801 972.544H185.281V974.176H176.161V982.84H174.217V974.176H165.121V972.544H179.857C180.145 971.464 180.313 969.904 180.433 968.344L167.449 968.896L167.137 967.192L180.505 966.784C180.577 965.512 180.601 964.336 180.601 963.568H167.737V961.96ZM204.191 963.256H187.847V961.648H204.191V963.256ZM203.831 982.144H188.519V976.144H190.463V980.512H203.831V982.144ZM206.159 974.56H185.999V972.928H195.071V970.264H187.871V968.68H191.543L190.871 964.408L192.887 964.144L193.391 968.68H198.647L199.223 964.096L201.239 964.36L200.519 968.68H204.191V970.264H197.015V972.928H206.159V974.56ZM216.981 962.776C213.453 962.776 211.149 963.712 211.149 965.56C211.149 967.384 213.429 968.32 216.957 968.32C220.485 968.32 222.813 967.384 222.813 965.56C222.813 963.712 220.509 962.776 216.981 962.776ZM224.733 965.536C224.733 968.392 221.829 969.952 216.957 969.952C212.085 969.952 209.205 968.392 209.205 965.536C209.205 962.728 212.109 961.168 216.981 961.168C221.829 961.168 224.733 962.728 224.733 965.536ZM224.757 982.192H209.541V975.688H211.485V980.56H224.757V982.192ZM227.037 973.6H206.877V971.968H227.037V973.6ZM243.146 971.416C243.146 969.928 241.538 969.04 239.738 969.04C237.938 969.04 236.33 969.928 236.33 971.416C236.33 972.88 237.938 973.768 239.738 973.768C241.538 973.768 243.146 972.88 243.146 971.416ZM244.994 971.416C244.994 973.768 242.738 975.328 239.738 975.328C236.762 975.328 234.482 973.768 234.482 971.416C234.482 969.016 236.738 967.504 239.738 967.504C242.738 967.504 244.994 969.016 244.994 971.416ZM246.266 966.304H233.186V964.696H246.266V966.304ZM242.81 963.016H236.378V961.312H242.81V963.016ZM251.306 982.12H236.45V976.384H238.394V980.488H251.306V982.12ZM253.85 969.712H250.442V976.984H248.498V960.52H250.442V968.08H253.85V969.712ZM270.456 967.936H265.968V966.304H270.456V960.52H272.4V974.368H270.456V967.936ZM265.08 975.952C261.648 975.952 259.584 976.912 259.584 978.592C259.584 980.248 261.648 981.208 265.08 981.208C268.56 981.208 270.6 980.248 270.6 978.592C270.6 976.912 268.56 975.952 265.08 975.952ZM254.76 964V962.368H266.832V964H261.816C261.816 964.456 261.816 964.96 261.84 965.224C262.008 968.248 264.864 970.672 267.6 971.488L266.448 973.048C264.12 972.136 261.72 970.048 260.808 968.032C260.208 970.12 257.52 972.808 255.12 973.84L254.064 972.28C256.872 971.2 259.704 968.368 259.824 965.2C259.848 964.96 259.848 964.432 259.848 964H254.76ZM272.568 978.592C272.568 981.208 269.88 982.84 265.08 982.84C260.304 982.84 257.616 981.208 257.616 978.592C257.616 975.952 260.304 974.32 265.08 974.32C269.88 974.32 272.568 975.952 272.568 978.592ZM294.382 969.088L293.446 970.744C290.11 970.072 286.462 967.96 285.118 965.368C284.038 967.96 280.222 970.144 276.838 970.816L275.902 969.136C280.174 968.584 284.11 965.752 284.11 962.704V961.288H286.15V962.704C286.15 965.752 290.446 968.608 294.382 969.088ZM286.054 982.864H284.11V974.752H275.038V973.12H295.198V974.752H286.054V982.864ZM316.46 968.776V970.408H313.052V974.104H311.108V960.52H313.052V963.976H316.46V965.584H313.052V968.776H316.46ZM305.924 976.216C302.54 976.216 300.548 977.128 300.548 978.688C300.548 980.2 302.54 981.112 305.924 981.112C309.308 981.112 311.324 980.248 311.324 978.688C311.324 977.104 309.308 976.216 305.924 976.216ZM308.732 970.576L308.996 972.16C306.692 972.568 302.036 972.904 298.916 972.904H296.804V966.448H304.604V963.544H296.756V961.936H306.548V968.032H298.748V971.272H299.036C301.628 971.272 306.116 971.104 308.732 970.576ZM313.316 978.688C313.316 981.16 310.772 982.72 305.924 982.72C301.076 982.72 298.556 981.184 298.556 978.688C298.556 976.144 301.076 974.608 305.924 974.608C310.772 974.608 313.316 976.192 313.316 978.688ZM327.21 970.096C327.21 966.424 325.674 963.88 323.298 963.88C320.946 963.88 319.386 966.424 319.386 970.096C319.386 973.744 320.946 976.288 323.298 976.288C325.674 976.288 327.21 973.744 327.21 970.096ZM317.538 970.072C317.538 965.368 319.626 962.2 323.298 962.2C326.994 962.2 329.058 965.368 329.058 970.096C329.058 974.824 326.994 977.968 323.298 977.968C319.626 977.968 317.538 974.824 317.538 970.072ZM335.154 982.84H333.21V960.52H335.154V982.84ZM346.672 975.568V964.36H340.432V975.568H346.672ZM348.616 977.176H338.488V962.752H348.616V977.176ZM349.864 967.336V965.728H354.088V960.52H356.032V982.84H354.088V973.576H349.864V971.968H354.088V967.336H349.864ZM384.237 979.984H364.077V978.352H373.149V972.808H375.093V978.352H384.237V979.984ZM382.557 964.336H375.189V964.816C375.189 968.32 380.109 971.608 383.469 972.256L382.461 973.888C378.885 972.88 375.213 970.096 374.157 967.648C373.221 970.168 369.525 972.904 365.829 973.84L364.893 972.208C368.421 971.584 373.149 968.368 373.149 964.816V964.336H365.805V962.776H382.557V964.336ZM386.011 962.896H396.643C396.523 970.144 392.083 975.688 386.323 978.424L385.195 976.888C390.835 974.416 394.147 969.544 394.555 964.528H386.011V962.896ZM403.195 982.84H401.251V960.52H403.195V982.84ZM425.993 979.984H405.833V978.352H414.905V972.64H416.849V978.352H425.993V979.984ZM425.201 971.536L424.121 973.096C420.209 972.016 416.849 969.232 415.889 966.712C415.025 969.28 411.593 972.04 407.681 973.096L406.673 971.536C410.561 970.792 414.905 967.624 414.905 963.784V962.176H416.921V963.784C416.921 967.624 421.529 970.84 425.201 971.536ZM444.952 976.72H443.008V960.52H444.952V976.72ZM445.432 982.24H430.552V975.304H432.496V980.632H445.432V982.24ZM427.672 964.216V962.584H439.816V964.216H434.704C434.704 965.152 434.704 965.608 434.728 965.92C434.896 968.776 437.704 971.296 440.248 972.136L439.168 973.696C437.032 972.832 434.608 970.72 433.696 968.704C433.096 970.792 430.504 973.24 428.104 974.272L426.976 972.76C429.784 971.68 432.544 968.848 432.712 965.896C432.736 965.608 432.736 965.152 432.736 964.216H427.672ZM466.7 975.976L465.476 977.464C463.46 976.096 460.844 973.336 459.98 970.648C459.164 973.432 456.86 976.168 454.268 978.016L452.996 976.552C456.26 974.512 458.948 970.456 458.948 966.496V962.464H460.916V966.424C460.916 970.504 463.628 974.152 466.7 975.976ZM471.5 982.84H469.556V960.52H471.5V982.84ZM488.785 969.688V966.256H482.257V969.688H488.785ZM490.729 971.296H480.313V961.384H482.257V964.648H488.785V961.384H490.729V971.296ZM497.497 982.672H482.449V977.104H494.737V974.92H482.425V973.336H496.681V978.616H484.393V981.064H497.497V982.672ZM500.089 967.144H496.681V972.064H494.737V960.52H496.681V965.512H500.089V967.144ZM518.111 982.504H502.799V973.216H504.743V976.168H516.167V973.168H518.111V982.504ZM502.775 961.648H517.943C517.943 964.624 517.703 967.552 517.175 969.808H520.535V971.416H500.375V969.808H515.231C515.687 968.128 515.951 965.128 515.951 963.256H502.775V961.648ZM516.167 980.896V977.776H504.743V980.896H516.167ZM531.693 970.096C531.693 966.424 530.157 963.88 527.781 963.88C525.429 963.88 523.869 966.424 523.869 970.096C523.869 973.744 525.429 976.288 527.781 976.288C530.157 976.288 531.693 973.744 531.693 970.096ZM522.021 970.072C522.021 965.368 524.109 962.2 527.781 962.2C531.477 962.2 533.541 965.368 533.541 970.096C533.541 974.824 531.477 977.968 527.781 977.968C524.109 977.968 522.021 974.824 522.021 970.072ZM539.637 982.84H537.693V960.52H539.637V982.84ZM567.842 973.312H547.682V971.68H556.778V968.296H558.722V971.68H567.842V973.312ZM557.762 976.672C554.162 976.672 551.93 977.488 551.93 978.928C551.93 980.416 554.162 981.208 557.762 981.208C561.386 981.208 563.618 980.416 563.618 978.928C563.618 977.488 561.386 976.672 557.762 976.672ZM566.834 967.96L565.946 969.592C562.226 968.992 558.866 967.024 557.762 964.984C556.874 967.048 553.562 969.04 549.626 969.616L548.738 967.984C552.194 967.672 555.986 965.896 556.658 963.28H549.53V961.672H565.994V963.28H558.89C559.61 965.92 563.738 967.672 566.834 967.96ZM565.586 978.928C565.586 981.376 562.754 982.768 557.762 982.768C552.77 982.768 549.962 981.352 549.962 978.928C549.962 976.552 552.77 975.112 557.762 975.112C562.754 975.112 565.586 976.456 565.586 978.928ZM576.12 974.032V978.352H581.304V974.032H576.12ZM586.824 974.032H583.224V978.352H588.72V979.984H568.56V978.352H574.2V974.032H571.032V967.24H584.256V963.808H571.104V962.176H586.2V968.848H572.976V972.4H586.824V974.032ZM614.117 982.6H598.517V977.32H611.309V975.232H598.493V973.672H613.253V978.76H600.461V981.04H614.117V982.6ZM609.581 969.712L609.749 971.272C607.997 971.488 605.285 971.728 602.573 971.872C600.053 971.992 596.741 972.088 595.253 972.088L594.965 970.36C596.669 970.36 598.949 970.36 601.349 970.288V968.128H596.885V961.6H607.853V963.208H598.829V966.52H608.069V968.128H603.293V970.216C605.717 970.12 608.165 969.928 609.581 969.712ZM613.253 972.544H611.309V960.52H613.253V972.544ZM640.713 969.088L639.777 970.744C636.441 970.072 632.793 967.96 631.449 965.368C630.369 967.96 626.553 970.144 623.169 970.816L622.233 969.136C626.505 968.584 630.441 965.752 630.441 962.704V961.288H632.481V962.704C632.481 965.752 636.777 968.608 640.713 969.088ZM632.385 982.864H630.441V974.752H621.369V973.12H641.529V974.752H632.385V982.864ZM100.455 999.352C98.2234 999.352 96.5674 1000.94 96.5674 1003.12C96.5674 1005.35 98.2234 1006.86 100.455 1006.86C102.783 1006.86 104.367 1005.35 104.367 1003.14C104.367 1000.94 102.807 999.352 100.455 999.352ZM100.455 997.768C103.623 997.768 106.239 999.904 106.239 1003.12C106.239 1006.41 103.623 1008.45 100.455 1008.45C97.2874 1008.45 94.6714 1006.41 94.6714 1003.14C94.6714 999.904 97.2874 997.768 100.455 997.768ZM105.039 1015.82L103.695 1017.14C102.591 1016.56 101.391 1015.41 100.863 1014.18C100.335 1015.86 98.3674 1018.02 96.4474 1018.94L95.2714 1017.54C97.5514 1016.56 99.8074 1014.11 99.8074 1011.4V1010.3H101.727V1011.23C101.727 1013.58 103.311 1015.14 105.039 1015.82ZM113.319 1018.89H113.295C111.783 1018.14 109.767 1016.2 109.215 1014.59C108.663 1016.27 106.791 1018.29 104.991 1019.18L103.767 1017.88C106.167 1016.7 108.231 1014.28 108.231 1011.57V1010.22H110.151V1011.5C110.151 1014.26 112.383 1016.7 114.495 1017.5L113.319 1018.89ZM112.359 1009.48H110.415V996.52H112.359V1009.48ZM130.645 1016.92V1014.26H119.533V1016.92H130.645ZM132.589 1018.53H117.589V1010.08H119.533V1012.67H130.645V1010.06H132.589V1018.53ZM135.157 1008.5H114.997V1006.86H135.157V1008.5ZM134.101 1003.41L133.189 1005.09C129.805 1004.46 126.181 1002.33 125.101 1000.02C124.117 1002.33 120.421 1004.44 117.037 1005.09L116.125 1003.41C119.629 1003.02 124.093 1000.65 124.093 997.504V996.784H126.109V997.504C126.109 1000.65 130.669 1003.02 134.101 1003.41ZM149.772 1010.63L149.964 1012.31C147.372 1012.91 141.564 1013.34 138.132 1013.34H137.148V998.848H139.092V1011.64C141.972 1011.64 147.108 1011.23 149.772 1010.63ZM153.972 996.52V1018.84H152.052V996.52H153.972ZM159.586 1011.71H160.882C163.762 1011.71 168.178 1011.45 170.314 1010.99L170.53 1012.6C168.13 1013.06 163.714 1013.37 159.826 1013.37H157.642V998.848H168.226V1000.48H159.586V1011.71ZM173.962 996.52V1005.38H177.586V1007.01H173.962V1018.84H172.042V996.52H173.962ZM177.752 1016.61V1014.33H179.96V1016.61H177.752Z" fill="#AEB5C9"/>
<path d="M80.6889 1059.68C80.6889 1061.14 79.4889 1062.32 78.0249 1062.32C76.5609 1062.32 75.3609 1061.14 75.3609 1059.68C75.3609 1058.22 76.5609 1057.02 78.0249 1057.02C79.4889 1057.02 80.6889 1058.22 80.6889 1059.68ZM99.792 1063.71H101.088C103.968 1063.71 108.384 1063.45 110.52 1062.99L110.736 1064.6C108.336 1065.06 103.92 1065.37 100.032 1065.37H97.848V1050.85H108.432V1052.48H99.792V1063.71ZM114.168 1048.52V1057.38H117.792V1059.01H114.168V1070.84H112.248V1048.52H114.168ZM135.478 1070.19H120.262V1063.69H122.206V1068.56H135.478V1070.19ZM128.734 1066.02H126.79V1061.48H117.598V1059.87H137.758V1061.48H128.734V1066.02ZM127.702 1050.8C124.174 1050.8 121.87 1051.74 121.87 1053.58C121.87 1055.41 124.15 1056.34 127.678 1056.34C131.206 1056.34 133.534 1055.41 133.534 1053.58C133.534 1051.74 131.23 1050.8 127.702 1050.8ZM135.454 1053.56C135.454 1056.42 132.55 1057.98 127.678 1057.98C122.806 1057.98 119.926 1056.42 119.926 1053.56C119.926 1050.75 122.83 1049.19 127.702 1049.19C132.55 1049.19 135.454 1050.75 135.454 1053.56ZM158.396 1067.98H138.236V1066.35H147.308V1062.56H140.732V1055.58H153.956V1052H140.708V1050.37H155.9V1057.18H142.676V1060.93H156.524V1062.56H149.252V1066.35H158.396V1067.98ZM179.034 1067.77H158.874V1066.14H179.034V1067.77ZM176.61 1061.24H161.418V1050.73H176.394V1052.34H163.362V1059.63H176.61V1061.24ZM194.135 1058.48V1054.83H187.583V1058.48H194.135ZM196.079 1060.09H185.639V1049.79H187.583V1053.22H194.135V1049.79H196.079V1060.09ZM202.223 1070.41H187.967V1062.87H202.007V1064.48H189.935V1068.8H202.223V1070.41ZM205.367 1056.08H201.959V1061.5H200.015V1048.52H201.959V1054.45H205.367V1056.08ZM215.541 1050.78C212.013 1050.78 209.709 1051.71 209.709 1053.56C209.709 1055.38 211.989 1056.32 215.517 1056.32C219.045 1056.32 221.373 1055.38 221.373 1053.56C221.373 1051.71 219.069 1050.78 215.541 1050.78ZM223.293 1053.54C223.293 1056.39 220.389 1057.95 215.517 1057.95C210.645 1057.95 207.765 1056.39 207.765 1053.54C207.765 1050.73 210.669 1049.17 215.541 1049.17C220.389 1049.17 223.293 1050.73 223.293 1053.54ZM223.317 1070.19H208.101V1063.69H210.045V1068.56H223.317V1070.19ZM225.597 1061.6H205.437V1059.97H225.597V1061.6ZM233.978 1049.96H248.858C248.858 1052.82 248.762 1057.02 248.042 1060.54H251.522V1062.18H242.402V1070.84H240.458V1062.18H231.362V1060.54H246.098C246.386 1059.46 246.554 1057.9 246.674 1056.34L233.69 1056.9L233.378 1055.19L246.746 1054.78C246.818 1053.51 246.842 1052.34 246.842 1051.57H233.978V1049.96ZM270.192 1051.26H253.848V1049.65H270.192V1051.26ZM269.832 1070.14H254.52V1064.14H256.464V1068.51H269.832V1070.14ZM272.16 1062.56H252V1060.93H261.072V1058.26H253.872V1056.68H257.544L256.872 1052.41L258.888 1052.14L259.392 1056.68H264.648L265.224 1052.1L267.24 1052.36L266.52 1056.68H270.192V1058.26H263.016V1060.93H272.16V1062.56ZM282.742 1050.78C279.214 1050.78 276.91 1051.71 276.91 1053.56C276.91 1055.38 279.19 1056.32 282.718 1056.32C286.246 1056.32 288.574 1055.38 288.574 1053.56C288.574 1051.71 286.27 1050.78 282.742 1050.78ZM290.494 1053.54C290.494 1056.39 287.59 1057.95 282.718 1057.95C277.846 1057.95 274.966 1056.39 274.966 1053.54C274.966 1050.73 277.87 1049.17 282.742 1049.17C287.59 1049.17 290.494 1050.73 290.494 1053.54ZM290.518 1070.19H275.302V1063.69H277.246V1068.56H290.518V1070.19ZM292.798 1061.6H272.638V1059.97H292.798V1061.6ZM314.331 1057.62V1054.26H302.955V1057.62H314.331ZM305.739 1070.86H303.795V1063.45H298.563V1061.82H318.723V1063.45H313.419V1070.86H311.475V1063.45H305.739V1070.86ZM316.275 1059.22H301.011V1049.38H302.955V1052.67H314.331V1049.38H316.275V1059.22ZM337.513 1070.84H335.569V1048.52H337.513V1070.84ZM333.073 1063.04L333.289 1064.65C330.865 1065.1 325.945 1065.44 322.393 1065.44H320.473V1050.63H330.865V1052.24H322.417V1056.92H330.433V1058.5H322.417V1063.76C325.921 1063.86 330.865 1063.5 333.073 1063.04ZM353.639 1062.97L353.783 1064.55C352.151 1064.77 349.631 1064.98 346.991 1065.13C344.471 1065.25 341.855 1065.34 339.839 1065.37L339.551 1063.66C340.607 1063.66 341.735 1063.66 342.863 1063.64L342.071 1054.26L344.039 1054.09L344.639 1063.59C345.503 1063.57 346.343 1063.52 347.159 1063.47C347.447 1063.47 347.711 1063.45 347.999 1063.45L348.647 1054.06L350.591 1054.23L349.751 1063.33C351.311 1063.23 352.655 1063.11 353.639 1062.97ZM356.975 1048.52V1057.42H360.623V1059.06H356.975V1070.84H355.031V1048.52H356.975ZM352.319 1052.5H340.175V1050.87H352.319V1052.5ZM371.517 1070.86H369.573V1063.09H360.573V1061.46H380.733V1063.09H371.517V1070.86ZM370.557 1051.14C366.789 1051.14 364.485 1052.38 364.485 1054.45C364.485 1056.51 366.789 1057.76 370.557 1057.76C374.349 1057.76 376.653 1056.51 376.653 1054.45C376.653 1052.38 374.349 1051.14 370.557 1051.14ZM378.549 1054.45C378.549 1057.4 375.549 1059.44 370.557 1059.44C365.565 1059.44 362.565 1057.42 362.565 1054.45C362.565 1051.47 365.565 1049.46 370.557 1049.46C375.549 1049.46 378.549 1051.47 378.549 1054.45ZM391.531 1051.62H384.787V1049.84H391.531V1051.62ZM399.499 1070.84H397.555V1048.52H399.499V1070.84ZM395.323 1064.86L394.291 1066.4C391.867 1065.3 388.987 1062.51 388.195 1060.18C387.547 1062.56 384.811 1065.61 382.387 1066.88L381.235 1065.44C384.163 1064.05 387.163 1060.59 387.163 1056.44V1055.74H381.907V1054.14H394.339V1055.74H389.155V1056.42C389.155 1060.57 392.467 1063.86 395.323 1064.86ZM402.113 1060.57V1058.86H410.537V1060.57H402.113ZM413.968 1049.96H428.848C428.848 1052.82 428.752 1057.02 428.032 1060.54H431.512V1062.18H422.392V1070.84H420.448V1062.18H411.352V1060.54H426.088C426.376 1059.46 426.544 1057.9 426.664 1056.34L413.68 1056.9L413.368 1055.19L426.736 1054.78C426.808 1053.51 426.832 1052.34 426.832 1051.57H413.968V1049.96ZM450.183 1051.26H433.839V1049.65H450.183V1051.26ZM449.823 1070.14H434.511V1064.14H436.455V1068.51H449.823V1070.14ZM452.151 1062.56H431.991V1060.93H441.063V1058.26H433.863V1056.68H437.535L436.863 1052.41L438.879 1052.14L439.383 1056.68H444.639L445.215 1052.1L447.231 1052.36L446.511 1056.68H450.183V1058.26H443.007V1060.93H452.151V1062.56ZM462.301 1058.48C462.301 1057.09 460.765 1056.3 459.013 1056.3C457.285 1056.3 455.701 1057.09 455.701 1058.48C455.701 1059.82 457.309 1060.64 459.013 1060.64C460.765 1060.64 462.301 1059.82 462.301 1058.48ZM464.197 1058.48C464.197 1060.69 461.965 1062.15 459.013 1062.15C456.061 1062.15 453.829 1060.71 453.829 1058.48C453.829 1056.18 456.037 1054.78 459.013 1054.78C461.965 1054.78 464.197 1056.18 464.197 1058.48ZM465.541 1053.82H452.533V1052.22H465.541V1053.82ZM462.157 1050.63H455.917V1049H462.157V1050.63ZM467.845 1068.92V1065.13H457.621V1068.92H467.845ZM469.789 1070.53H455.677V1063.54H469.789V1070.53ZM473.197 1056.7H469.789V1062.39H467.869V1048.52H469.789V1055.07H473.197V1056.7ZM492.107 1070.84H490.187V1048.52H492.107V1070.84ZM481.523 1058.1C481.523 1054.5 480.347 1052.17 478.547 1052.17C476.747 1052.17 475.595 1054.5 475.595 1058.1C475.595 1061.72 476.747 1064.02 478.547 1064.02C480.347 1064.02 481.523 1061.72 481.523 1058.1ZM478.547 1050.46C481.619 1050.46 483.275 1053.3 483.443 1057.35H485.843V1048.95H487.739V1069.76H485.843V1058.96H483.443C483.227 1062.99 481.595 1065.73 478.547 1065.73C475.283 1065.73 473.627 1062.58 473.627 1058.1C473.627 1053.63 475.283 1050.46 478.547 1050.46ZM507.273 1064.02L506.073 1065.49C504.033 1064.12 501.441 1061.29 500.553 1058.6C499.761 1061.38 497.577 1064.14 494.985 1065.99L493.713 1064.55C496.953 1062.51 499.545 1058.55 499.545 1054.59V1050.46H501.537V1054.52C501.537 1058.6 504.201 1062.22 507.273 1064.02ZM512.217 1070.84H510.273V1058.12H505.065V1056.49H510.273V1048.52H512.217V1070.84ZM533.654 1060.81L533.822 1062.3C532.214 1062.49 529.55 1062.75 526.91 1062.9C524.39 1063.04 521.318 1063.16 519.758 1063.16L519.446 1061.55C521.078 1061.55 523.334 1061.5 525.614 1061.41V1059.9C523.262 1059.68 521.462 1058.77 521.462 1056.97C521.462 1054.9 523.79 1053.94 526.622 1053.94C529.478 1053.94 531.83 1054.88 531.83 1056.94C531.83 1058.74 529.982 1059.7 527.582 1059.9V1061.31C529.934 1061.19 532.358 1061 533.654 1060.81ZM540.422 1057.54H537.038V1063.35H535.094V1048.52H537.038V1055.91H540.422V1057.54ZM522.422 1064.53H537.038V1070.98H535.094V1066.14H522.422V1064.53ZM533.078 1053.2H520.238V1051.64H533.078V1053.2ZM529.982 1056.94C529.982 1055.91 528.494 1055.41 526.622 1055.41C524.726 1055.41 523.31 1055.91 523.31 1056.94C523.31 1058 524.75 1058.5 526.622 1058.5C528.494 1058.5 529.982 1057.98 529.982 1056.94ZM529.718 1050.42H523.598V1048.81H529.718V1050.42ZM546.972 1051.69C544.62 1051.69 542.82 1053.3 542.82 1055.55C542.82 1057.81 544.644 1059.39 546.996 1059.39C549.444 1059.39 551.148 1057.81 551.148 1055.58C551.148 1053.3 549.444 1051.69 546.972 1051.69ZM546.972 1049.98C550.356 1049.98 552.996 1052.24 552.996 1055.55C552.996 1058.89 550.38 1061.1 546.996 1061.1C543.588 1061.1 540.972 1058.91 540.972 1055.58C540.972 1052.26 543.588 1049.98 546.972 1049.98ZM559.26 1070.1H544.164V1063.21H546.108V1068.49H559.26V1070.1ZM558.708 1064.82H556.764V1048.52H558.708V1064.82ZM583.552 1048.52V1057.81H587.2V1059.46H583.552V1070.84H581.608V1048.52H583.552ZM567.28 1050.92H577.768C577.648 1058.17 573.448 1063.4 567.712 1066.38L566.512 1064.86C572.08 1062.27 575.272 1057.57 575.68 1052.55H567.28V1050.92ZM597.135 1064C593.631 1064 591.303 1064.82 591.303 1066.54C591.303 1068.27 593.631 1069.09 597.135 1069.09C600.687 1069.09 603.015 1068.27 603.015 1066.54C603.015 1064.82 600.687 1064 597.135 1064ZM604.983 1066.54C604.983 1069.23 602.007 1070.7 597.159 1070.7C592.287 1070.7 589.335 1069.23 589.335 1066.54C589.335 1063.88 592.287 1062.39 597.135 1062.39C602.007 1062.39 604.983 1063.88 604.983 1066.54ZM604.863 1056.51H589.839V1049.1H591.783V1054.9H604.863V1056.51ZM607.191 1060.54H587.031V1058.94H607.191V1060.54ZM617.317 1058.12C617.317 1056.8 615.829 1056.06 614.077 1056.06C612.349 1056.06 610.813 1056.8 610.813 1058.12C610.813 1059.39 612.373 1060.18 614.077 1060.18C615.829 1060.18 617.317 1059.39 617.317 1058.12ZM619.261 1058.12C619.261 1060.3 617.101 1061.72 614.077 1061.72C611.053 1061.72 608.893 1060.3 608.893 1058.12C608.893 1055.86 611.005 1054.5 614.077 1054.5C617.101 1054.5 619.261 1055.86 619.261 1058.12ZM620.581 1053.58H607.573V1052H620.581V1053.58ZM617.293 1050.46H610.861V1048.83H617.293V1050.46ZM622.885 1069.04V1066.54H612.733V1069.04H622.885ZM624.829 1070.67H610.789V1062.56H612.733V1064.94H622.885V1062.54H624.829V1070.67ZM628.237 1056.46H624.829V1061.46H622.885V1048.52H624.829V1054.83H628.237V1056.46ZM642.203 1062.63L642.395 1064.31C639.803 1064.91 633.995 1065.34 630.563 1065.34H629.579V1050.85H631.523V1063.64C634.403 1063.64 639.539 1063.23 642.203 1062.63ZM646.403 1048.52V1070.84H644.483V1048.52H646.403ZM651.777 1063.71H653.073C655.953 1063.71 660.369 1063.45 662.505 1062.99L662.721 1064.6C660.321 1065.06 655.905 1065.37 652.017 1065.37H649.833V1050.85H660.417V1052.48H651.777V1063.71ZM666.153 1048.52V1057.38H669.777V1059.01H666.153V1070.84H664.233V1048.52H666.153ZM669.703 1068.61V1066.33H671.911V1068.61H669.703Z" fill="#AEB5C9"/>
<path d="M80.6889 1111.68C80.6889 1113.14 79.4889 1114.32 78.0249 1114.32C76.5609 1114.32 75.3609 1113.14 75.3609 1111.68C75.3609 1110.22 76.5609 1109.02 78.0249 1109.02C79.4889 1109.02 80.6889 1110.22 80.6889 1111.68ZM99.576 1101.96H114.456C114.456 1104.82 114.36 1109.02 113.64 1112.54H117.12V1114.18H108V1122.84H106.056V1114.18H96.96V1112.54H111.696C111.984 1111.46 112.152 1109.9 112.272 1108.34L99.288 1108.9L98.976 1107.19L112.344 1106.78C112.416 1105.51 112.44 1104.34 112.44 1103.57H99.576V1101.96ZM136.03 1103.26H119.686V1101.65H136.03V1103.26ZM135.67 1122.14H120.358V1116.14H122.302V1120.51H135.67V1122.14ZM137.998 1114.56H117.838V1112.93H126.91V1110.26H119.71V1108.68H123.382L122.71 1104.41L124.726 1104.14L125.23 1108.68H130.486L131.062 1104.1L133.078 1104.36L132.358 1108.68H136.03V1110.26H128.854V1112.93H137.998V1114.56ZM147.812 1110.07V1106.54H141.548V1110.07H147.812ZM149.756 1111.68H139.604V1101.53H141.548V1104.94H147.812V1101.53H149.756V1111.68ZM156.956 1100.52V1112.26H155.012V1109.45H150.884V1107.84H155.012V1105.2H150.884V1103.62H155.012V1100.52H156.956ZM157.772 1122.67H142.46V1117.13H155.012V1114.99H142.436V1113.41H156.956V1118.64H144.404V1121.09H157.772V1122.67ZM178.225 1115.9L177.001 1117.39C174.697 1115.81 172.201 1113.14 171.313 1110.46C170.521 1113.24 168.361 1116.07 165.721 1117.9L164.473 1116.41C167.713 1114.42 170.329 1110.41 170.329 1106.45V1102.49H172.321V1106.38C172.321 1110.46 175.129 1114.1 178.225 1115.9ZM185.881 1111.15H182.281V1122.84H180.337V1100.52H182.281V1109.52H185.881V1111.15ZM196.079 1109.38C194.975 1109.38 193.967 1109.3 193.079 1109.14V1111.8H199.007V1109.16C198.119 1109.3 197.159 1109.38 196.079 1109.38ZM196.103 1116.5C192.551 1116.5 190.175 1117.3 190.175 1118.76C190.175 1120.22 192.551 1121.02 196.103 1121.02C199.727 1121.02 202.079 1120.22 202.079 1118.76C202.079 1117.3 199.703 1116.5 196.103 1116.5ZM201.983 1105.2C201.983 1103.54 199.655 1102.56 196.079 1102.56C192.503 1102.56 190.199 1103.54 190.199 1105.2C190.199 1106.83 192.503 1107.82 196.079 1107.82C199.631 1107.82 201.983 1106.83 201.983 1105.2ZM204.023 1118.76C204.023 1121.33 201.023 1122.7 196.127 1122.7C191.207 1122.7 188.231 1121.33 188.231 1118.76C188.231 1116.22 191.207 1114.82 196.103 1114.82C201.023 1114.82 204.023 1116.22 204.023 1118.76ZM203.879 1105.2C203.879 1106.71 202.823 1107.91 200.951 1108.63V1111.8H206.159V1113.41H185.999V1111.8H191.135V1108.61C189.311 1107.89 188.303 1106.69 188.303 1105.2C188.303 1102.66 191.183 1101 196.079 1101C200.975 1101 203.879 1102.66 203.879 1105.2ZM227.037 1119.98H206.877V1118.35H215.949V1112.81H217.893V1118.35H227.037V1119.98ZM225.357 1104.34H217.989V1104.82C217.989 1108.32 222.909 1111.61 226.269 1112.26L225.261 1113.89C221.685 1112.88 218.013 1110.1 216.957 1107.65C216.021 1110.17 212.325 1112.9 208.629 1113.84L207.693 1112.21C211.221 1111.58 215.949 1108.37 215.949 1104.82V1104.34H208.605V1102.78H225.357V1104.34ZM228.859 1102.2H239.083C238.747 1108.15 234.787 1112.33 229.027 1114.25L228.043 1112.62C232.771 1111.37 236.371 1107.74 236.947 1103.83H228.859V1102.2ZM244.051 1108.68H239.155V1107.05H244.051V1100.52H245.995V1116.72H244.051V1108.68ZM246.523 1122.29H231.379V1115.26H233.323V1120.66H246.523V1122.29ZM259.049 1110.1C259.049 1106.42 257.513 1103.88 255.137 1103.88C252.785 1103.88 251.225 1106.42 251.225 1110.1C251.225 1113.74 252.785 1116.29 255.137 1116.29C257.513 1116.29 259.049 1113.74 259.049 1110.1ZM249.377 1110.07C249.377 1105.37 251.465 1102.2 255.137 1102.2C258.833 1102.2 260.897 1105.37 260.897 1110.1C260.897 1114.82 258.833 1117.97 255.137 1117.97C251.465 1117.97 249.377 1114.82 249.377 1110.07ZM266.993 1122.84H265.049V1100.52H266.993V1122.84ZM277.87 1115.71H279.166C282.046 1115.71 286.462 1115.45 288.598 1114.99L288.814 1116.6C286.414 1117.06 281.998 1117.37 278.11 1117.37H275.926V1102.85H286.51V1104.48H277.87V1115.71ZM292.246 1100.52V1109.38H295.87V1111.01H292.246V1122.84H290.326V1100.52H292.246ZM316.076 1119.79H295.916V1118.16H316.076V1119.79ZM314.132 1114.39H298.46V1107.41H311.612V1103.9H298.388V1102.27H313.556V1109.02H300.404V1112.76H314.132V1114.39ZM336.954 1119.77H316.794V1118.14H336.954V1119.77ZM332.394 1111.42V1104.31H321.378V1111.42H332.394ZM334.338 1113.02H319.434V1102.7H334.338V1113.02ZM357.832 1119.98H337.672V1118.35H346.744V1114.56H340.168V1107.58H353.392V1104H340.144V1102.37H355.336V1109.18H342.112V1112.93H355.96V1114.56H348.688V1118.35H357.832V1119.98ZM384.861 1111.2H381.237V1122.84H379.293V1100.52H381.237V1109.57H384.861V1111.2ZM377.325 1116.14L376.149 1117.61C374.037 1116.26 371.325 1113.46 370.509 1110.79C369.765 1113.5 367.581 1116.26 364.917 1118.14L363.621 1116.67C366.909 1114.73 369.501 1110.82 369.501 1106.78V1104.5H364.341V1102.87H376.677V1104.5H371.517V1106.74C371.517 1110.91 374.253 1114.42 377.325 1116.14ZM396.187 1115.78L395.011 1117.22C393.283 1115.98 390.931 1113.34 390.235 1110.79C389.731 1113.36 387.907 1116.26 385.675 1117.87L384.475 1116.43C387.019 1114.82 389.251 1111.01 389.251 1106.64V1102.58H391.171V1106.59C391.171 1110.94 393.763 1114.18 396.187 1115.78ZM399.451 1121.71H397.555V1110.19H393.595V1108.56H397.555V1101.05H399.451V1121.71ZM403.867 1122.84H401.947V1100.52H403.867V1122.84ZM415.697 1111.42C415.697 1109.93 414.089 1109.04 412.289 1109.04C410.489 1109.04 408.881 1109.93 408.881 1111.42C408.881 1112.88 410.489 1113.77 412.289 1113.77C414.089 1113.77 415.697 1112.88 415.697 1111.42ZM417.545 1111.42C417.545 1113.77 415.289 1115.33 412.289 1115.33C409.313 1115.33 407.033 1113.77 407.033 1111.42C407.033 1109.02 409.289 1107.5 412.289 1107.5C415.289 1107.5 417.545 1109.02 417.545 1111.42ZM418.817 1106.3H405.737V1104.7H418.817V1106.3ZM415.361 1103.02H408.929V1101.31H415.361V1103.02ZM423.857 1122.12H409.001V1116.38H410.945V1120.49H423.857V1122.12ZM426.401 1109.71H422.993V1116.98H421.049V1100.52H422.993V1108.08H426.401V1109.71ZM445.342 1115.9L444.118 1117.39C441.814 1115.81 439.318 1113.14 438.43 1110.46C437.638 1113.24 435.478 1116.07 432.838 1117.9L431.59 1116.41C434.83 1114.42 437.446 1110.41 437.446 1106.45V1102.49H439.438V1106.38C439.438 1110.46 442.246 1114.1 445.342 1115.9ZM452.998 1111.15H449.398V1122.84H447.454V1100.52H449.398V1109.52H452.998V1111.15ZM463.196 1109.38C462.092 1109.38 461.084 1109.3 460.196 1109.14V1111.8H466.124V1109.16C465.236 1109.3 464.276 1109.38 463.196 1109.38ZM463.22 1116.5C459.668 1116.5 457.292 1117.3 457.292 1118.76C457.292 1120.22 459.668 1121.02 463.22 1121.02C466.844 1121.02 469.196 1120.22 469.196 1118.76C469.196 1117.3 466.82 1116.5 463.22 1116.5ZM469.1 1105.2C469.1 1103.54 466.772 1102.56 463.196 1102.56C459.62 1102.56 457.316 1103.54 457.316 1105.2C457.316 1106.83 459.62 1107.82 463.196 1107.82C466.748 1107.82 469.1 1106.83 469.1 1105.2ZM471.14 1118.76C471.14 1121.33 468.14 1122.7 463.244 1122.7C458.324 1122.7 455.348 1121.33 455.348 1118.76C455.348 1116.22 458.324 1114.82 463.22 1114.82C468.14 1114.82 471.14 1116.22 471.14 1118.76ZM470.996 1105.2C470.996 1106.71 469.94 1107.91 468.068 1108.63V1111.8H473.276V1113.41H453.116V1111.8H458.252V1108.61C456.428 1107.89 455.42 1106.69 455.42 1105.2C455.42 1102.66 458.3 1101 463.196 1101C468.092 1101 470.996 1102.66 470.996 1105.2ZM494.154 1119.98H473.994V1118.35H483.066V1112.81H485.01V1118.35H494.154V1119.98ZM492.474 1104.34H485.106V1104.82C485.106 1108.32 490.026 1111.61 493.386 1112.26L492.378 1113.89C488.802 1112.88 485.13 1110.1 484.074 1107.65C483.138 1110.17 479.442 1112.9 475.746 1113.84L474.81 1112.21C478.338 1111.58 483.066 1108.37 483.066 1104.82V1104.34H475.722V1102.78H492.474V1104.34ZM495.977 1102.2H506.201C505.865 1108.15 501.905 1112.33 496.145 1114.25L495.161 1112.62C499.889 1111.37 503.489 1107.74 504.065 1103.83H495.977V1102.2ZM511.169 1108.68H506.273V1107.05H511.169V1100.52H513.113V1116.72H511.169V1108.68ZM513.641 1122.29H498.497V1115.26H500.441V1120.66H513.641V1122.29ZM525.855 1102.78C522.327 1102.78 520.023 1103.71 520.023 1105.56C520.023 1107.38 522.303 1108.32 525.831 1108.32C529.359 1108.32 531.687 1107.38 531.687 1105.56C531.687 1103.71 529.383 1102.78 525.855 1102.78ZM533.607 1105.54C533.607 1108.39 530.703 1109.95 525.831 1109.95C520.959 1109.95 518.079 1108.39 518.079 1105.54C518.079 1102.73 520.983 1101.17 525.855 1101.17C530.703 1101.17 533.607 1102.73 533.607 1105.54ZM533.631 1122.19H518.415V1115.69H520.359V1120.56H533.631V1122.19ZM535.911 1113.6H515.751V1111.97H535.911V1113.6ZM544.771 1101.96H559.651C559.651 1104.82 559.555 1109.02 558.835 1112.54H562.315V1114.18H553.195V1122.84H551.251V1114.18H542.155V1112.54H556.891C557.179 1111.46 557.347 1109.9 557.467 1108.34L544.483 1108.9L544.171 1107.19L557.539 1106.78C557.611 1105.51 557.635 1104.34 557.635 1103.57H544.771V1101.96ZM581.225 1103.26H564.881V1101.65H581.225V1103.26ZM580.865 1122.14H565.553V1116.14H567.497V1120.51H580.865V1122.14ZM583.193 1114.56H563.033V1112.93H572.105V1110.26H564.905V1108.68H568.577L567.905 1104.41L569.921 1104.14L570.425 1108.68H575.681L576.257 1104.1L578.273 1104.36L577.553 1108.68H581.225V1110.26H574.049V1112.93H583.193V1114.56ZM595.654 1103.81C593.398 1103.81 591.694 1105.46 591.694 1107.77C591.694 1110.07 593.422 1111.7 595.678 1111.7C598.03 1111.7 599.638 1110.07 599.638 1107.79C599.638 1105.46 598.03 1103.81 595.654 1103.81ZM595.654 1102.15C598.99 1102.15 601.582 1104.43 601.582 1107.77C601.582 1111.13 599.014 1113.36 595.678 1113.36C592.318 1113.36 589.75 1111.15 589.75 1107.79C589.75 1104.46 592.318 1102.15 595.654 1102.15ZM607.414 1122.07H592.606V1115.14H594.55V1120.46H607.414V1122.07ZM610.006 1108.68H606.598V1116.72H604.654V1100.52H606.598V1107.05H610.006V1108.68ZM620.9 1114.56L621.116 1116.19C619.268 1116.62 615.836 1116.94 613.004 1116.94H611.3V1102.97H613.244V1115.26C615.548 1115.3 619.268 1114.99 620.9 1114.56ZM629.132 1122.84H627.236V1111.03H624.284V1121.69H622.412V1101.05H624.284V1109.4H627.236V1100.52H629.132V1122.84ZM649.29 1109.14H633.762V1104.53H646.914V1102.78H633.738V1101.26H648.858V1105.92H635.706V1107.7H649.29V1109.14ZM649.674 1122.43H633.522V1117.46H647.034V1115.62H633.546V1114.18H648.978V1118.86H635.466V1120.9H649.674V1122.43ZM651.354 1112.42H631.194V1110.91H651.354V1112.42ZM113.47 1148.81L113.638 1150.3C112.03 1150.49 109.366 1150.75 106.726 1150.9C104.206 1151.04 101.134 1151.16 99.5739 1151.16L99.2619 1149.55C100.894 1149.55 103.15 1149.5 105.43 1149.41V1147.9C103.078 1147.68 101.278 1146.77 101.278 1144.97C101.278 1142.9 103.606 1141.94 106.438 1141.94C109.294 1141.94 111.646 1142.88 111.646 1144.94C111.646 1146.74 109.798 1147.7 107.398 1147.9V1149.31C109.75 1149.19 112.174 1149 113.47 1148.81ZM120.238 1145.54H116.854V1151.35H114.91V1136.52H116.854V1143.91H120.238V1145.54ZM102.238 1152.53H116.854V1158.98H114.91V1154.14H102.238V1152.53ZM112.894 1141.2H100.054V1139.64H112.894V1141.2ZM109.798 1144.94C109.798 1143.91 108.31 1143.41 106.438 1143.41C104.542 1143.41 103.126 1143.91 103.126 1144.94C103.126 1146 104.566 1146.5 106.438 1146.5C108.31 1146.5 109.798 1145.98 109.798 1144.94ZM109.534 1138.42H103.414V1136.81H109.534V1138.42ZM127.028 1139.69C124.676 1139.69 122.876 1141.3 122.876 1143.55C122.876 1145.81 124.7 1147.39 127.052 1147.39C129.5 1147.39 131.204 1145.81 131.204 1143.58C131.204 1141.3 129.5 1139.69 127.028 1139.69ZM127.028 1137.98C130.412 1137.98 133.052 1140.24 133.052 1143.55C133.052 1146.89 130.436 1149.1 127.052 1149.1C123.644 1149.1 121.028 1146.91 121.028 1143.58C121.028 1140.26 123.644 1137.98 127.028 1137.98ZM139.316 1158.1H124.22V1151.21H126.164V1156.49H139.316V1158.1ZM138.764 1152.82H136.82V1136.52H138.764V1152.82ZM150.066 1139.9H143.97V1138.22H150.066V1139.9ZM152.466 1143.55H141.354V1141.94H152.466V1143.55ZM150.186 1149.31C150.186 1147.58 148.938 1146.48 147.186 1146.48C145.41 1146.48 144.186 1147.61 144.186 1149.31C144.186 1151.04 145.41 1152.14 147.186 1152.14C148.938 1152.14 150.186 1150.99 150.186 1149.31ZM152.058 1149.31C152.058 1152 150.066 1153.75 147.186 1153.75C144.33 1153.75 142.314 1151.86 142.314 1149.31C142.314 1146.6 144.33 1144.85 147.186 1144.85C150.066 1144.85 152.058 1146.62 152.058 1149.31ZM160.242 1158.84H158.322V1147.27H155.634V1157.71H153.738V1137.05H155.634V1145.64H158.322V1136.52H160.242V1158.84ZM178.823 1158.84H176.879V1150.85H167.807V1149.22H187.967V1150.85H178.823V1158.84ZM187.007 1145.5L186.095 1147.13C182.447 1146.5 178.895 1144.25 177.887 1142.16C176.975 1144.25 173.519 1146.55 169.703 1147.18L168.815 1145.54C172.463 1145.16 176.783 1142.83 176.879 1139.71H169.655V1138.1H186.095V1139.71H178.919C179.015 1142.86 183.599 1145.11 187.007 1145.5ZM199.917 1151.78L198.741 1153.22C197.013 1151.98 194.661 1149.34 193.965 1146.79C193.461 1149.36 191.637 1152.26 189.405 1153.87L188.205 1152.43C190.749 1150.82 192.981 1147.01 192.981 1142.64V1138.58H194.901V1142.59C194.901 1146.94 197.493 1150.18 199.917 1151.78ZM203.181 1157.71H201.285V1146.19H197.325V1144.56H201.285V1137.05H203.181V1157.71ZM207.597 1158.84H205.677V1136.52H207.597V1158.84ZM229.723 1155.98H209.563V1154.35H214.555V1149.91L216.499 1149.86V1154.35H222.715V1149.86L224.659 1149.91V1154.35H229.723V1155.98ZM225.811 1143.65C225.811 1141.22 223.363 1139.59 219.619 1139.59C215.899 1139.59 213.451 1141.22 213.451 1143.65C213.451 1146.07 215.899 1147.7 219.619 1147.7C223.339 1147.7 225.811 1146.07 225.811 1143.65ZM227.683 1143.65C227.683 1147.01 224.467 1149.22 219.619 1149.22C214.795 1149.22 211.579 1147.01 211.579 1143.65C211.579 1140.29 214.795 1138.03 219.619 1138.03C224.491 1138.03 227.683 1140.29 227.683 1143.65ZM230.561 1156.61V1154.33H232.769V1156.61H230.561Z" fill="#AEB5C9"/>
<path d="M234.226 323.564V303.164L230.044 303.98V301.396L236.368 298.574H238.714V323.564H234.226ZM247.956 300.818V297.452H257.646V300.818H247.956ZM268.526 295.514V308.094H273.184V311.562H268.526V327.746H264.31V295.514H268.526ZM262.984 318.566L260.774 321.694C257.646 320.3 253.974 316.594 252.954 313.5C252.138 316.764 248.976 320.572 245.202 322.408L242.584 319.314C247.65 316.56 250.438 312.718 250.676 306.53H244.25V303.164H261.42V306.53H255.096C255.368 312.718 258.36 316.22 262.984 318.566ZM310.693 306.666L308.857 310.134C304.097 309.42 298.929 306.36 297.365 302.756C295.937 306.326 290.803 309.386 285.907 310.134C285.329 309.012 284.717 307.822 284.105 306.7C289.681 306.088 295.121 302.518 295.121 297.69V296.228H299.609V297.69C299.609 302.518 305.525 306.224 310.693 306.666ZM293.795 327.78H289.545V316.356H282.779V312.956H311.883V316.356H304.947V327.78H300.697V316.356H293.795V327.78ZM332.042 316.05L332.348 319.314C328.54 320.096 320.652 320.538 313.648 320.538L313.104 317.002H317.354L316.3 304.252L320.448 303.708L321.128 316.9C322.148 316.866 323.168 316.832 324.086 316.764L324.8 303.64L328.88 304.082C328.472 308.23 328.098 312.412 327.724 316.56C329.424 316.424 330.852 316.254 332.042 316.05ZM340.032 327.746H335.782V311.222H331.022V307.652H335.782V295.514H340.032V327.746ZM331.736 301.634H313.818V298.302H331.736V301.634ZM347.203 297.248H369.575C369.575 301.906 369.235 307.924 368.487 312.004H373.077V315.404H360.565V327.746H356.349V315.404H343.973V312.004H364.441C364.713 310.78 364.917 308.978 365.087 307.074L346.761 307.992L346.251 304.626L365.291 303.878C365.325 302.654 365.359 301.532 365.359 300.58H347.203V297.248ZM400.751 300.07H377.359V296.738H400.751V300.07ZM400.309 326.896H378.243V317.852H382.459V323.564H400.309V326.896ZM400.683 309.998H391.163V312.786H403.675V316.152H374.571V312.786H386.947V309.998H377.461V306.632H381.881L381.065 301.634L385.145 301.022L385.859 306.632H392.285L393.135 301.022L397.249 301.634L396.263 306.632H400.683V309.998ZM425.883 320.368C430.235 320.368 432.343 316.934 432.343 311.868V310.644C432.343 305.068 430.541 301.702 425.747 301.668C421.429 301.668 419.321 305.068 419.321 310.1V311.358C419.321 316.968 421.123 320.368 425.883 320.368ZM425.747 323.802C419.049 323.802 414.595 319.62 414.595 311.392V310.61C414.595 302.62 419.185 298.2 425.951 298.2C432.581 298.2 437.103 302.314 437.103 310.61V311.392C437.103 319.416 432.445 323.802 425.747 323.802ZM445.459 310.78H449.165C452.497 310.78 453.789 309.386 453.789 306.496C453.789 303.232 452.497 302.042 449.233 302.042H445.459V310.78ZM441.005 323.394V298.608H449.675C455.523 298.608 458.447 301.294 458.447 306.224C458.447 311.392 455.149 314.112 449.981 314.112H445.459V323.394H441.005ZM461.874 323.394V298.608H477.378V302.11H466.328V308.91H474.896V312.378H466.328V319.892H477.582V323.394H461.874ZM481.979 323.394V298.608H486.977L497.279 316.118H497.381V298.608H501.325V323.394H496.905L486.025 304.694H485.923V323.394H481.979ZM506.433 323.904V319.688H510.785V323.904H506.433ZM506.807 316.22L506.229 297.656H510.921L510.411 316.22H506.807Z" fill="#0FB87E"/>
<path d="M220.851 357.386C220.851 352.49 219.185 348.954 215.955 348.954C212.725 348.954 211.059 352.49 211.059 357.386C211.059 362.248 212.725 365.784 215.955 365.784C219.185 365.784 220.851 362.248 220.851 357.386ZM207.795 357.352C207.795 351.096 210.345 346.2 215.955 346.2C221.565 346.2 224.047 351.096 224.047 357.386C224.047 363.642 221.565 368.538 215.955 368.538C210.345 368.538 207.795 363.642 207.795 357.352ZM232.751 375.44H229.555V343.82H232.751V375.44ZM263.961 374.454H242.711V364.73H245.907V371.87H263.961V374.454ZM260.017 355.278H255.087V352.626H260.017V343.82H263.213V366.838H260.017V355.278ZM250.089 359.392V354.19H241.759V359.392H250.089ZM253.285 362.01H238.563V345.894H241.759V351.606H250.089V345.86H253.285V362.01ZM283.678 375.44H280.482V364.356H267.868V361.738H296.428V364.356H283.678V375.44ZM295.17 356.23L293.708 358.78C288.914 358.032 283.678 355.006 282.148 352.116C280.754 355.108 275.722 358.1 270.69 358.882L269.194 356.366C274.192 355.822 280.006 352.694 280.482 348.682H270.52V346.064H293.844V348.682H283.882C284.358 352.728 290.41 355.72 295.17 356.23ZM334.549 355.482L333.019 358.134C328.361 357.25 323.227 354.088 321.595 350.586C320.167 354.088 315.033 357.25 310.239 358.168L308.743 355.516C314.455 354.802 319.929 350.96 319.929 346.54V345.044H323.295V346.54C323.295 350.96 329.415 355.006 334.549 355.482ZM317.685 375.474H314.489V363.948H307.315V361.33H335.875V363.948H328.599V375.474H325.403V363.948H317.685V375.474ZM355.796 349.396H338.422V346.812H355.796V349.396ZM363.82 375.44H360.624V358.474H355.082V355.754H360.624V343.82H363.82V375.44ZM356.884 364.118L357.156 366.668C355.082 367.008 351.716 367.314 348.078 367.518C344.746 367.688 341.108 367.79 337.946 367.79L337.504 365.036H341.958L340.802 352.048L343.998 351.64L344.814 364.968C345.868 364.934 346.922 364.9 347.908 364.832C348.282 364.832 348.656 364.832 349.03 364.798L349.88 351.606L353.008 351.946L351.852 364.628C353.858 364.492 355.592 364.322 356.884 364.118ZM381.837 357.012C381.837 355.414 379.831 354.564 377.553 354.564C375.241 354.564 373.269 355.414 373.269 357.012C373.269 358.576 375.275 359.46 377.553 359.46C379.831 359.46 381.837 358.576 381.837 357.012ZM385.033 357.012C385.033 360.106 381.871 361.874 377.553 361.874C373.337 361.874 370.039 360.106 370.039 357.012C370.039 353.952 373.269 352.15 377.553 352.15C381.803 352.15 385.033 353.952 385.033 357.012ZM386.937 351.062H368.339V348.546H386.937V351.062ZM382.313 346.846H373.133V344.296H382.313V346.846ZM394.043 375.304H372.725V368.028H389.759V365.852H372.657V363.37H392.955V370.374H375.921V372.788H394.043V375.304ZM397.647 354.904H392.955V361.738H389.759V343.82H392.955V352.252H397.647V354.904ZM408.287 348.682C405.295 348.682 403.221 350.858 403.221 353.782C403.221 356.706 405.295 358.848 408.287 358.848C411.381 358.848 413.353 356.74 413.353 353.816C413.353 350.824 411.381 348.682 408.287 348.682ZM408.287 345.962C413.149 345.962 416.719 349.294 416.719 353.816C416.719 358.372 413.149 361.534 408.287 361.534C403.425 361.534 399.855 358.372 399.855 353.85C399.855 349.294 403.425 345.962 408.287 345.962ZM425.797 374.454H404.275V364.594H407.471V371.87H425.797V374.454ZM425.049 366.77H421.853V343.82H425.049V366.77ZM465.277 375.44H462.183V343.82H465.277V375.44ZM459.021 373.876H455.961V357.794H451.269V355.176H455.961V344.534H459.021V373.876ZM454.703 365.886L452.765 368.164C450.589 366.702 447.257 363.098 446.373 359.936C445.693 363.268 442.905 366.838 440.015 368.81L437.975 366.6C441.919 364.05 444.843 359.29 444.843 353.102V350.144H438.689V347.56H453.785V350.144H447.971V353C447.971 359.46 451.269 363.778 454.703 365.886ZM494.787 347.832H471.939V345.248H494.787V347.832ZM491.183 372.448V367.518H475.679V372.448H491.183ZM494.753 356.74H471.973V354.122H476.767L475.883 349.43L479.079 348.954L479.793 354.122H487.001L487.715 348.92L490.945 349.396L489.959 354.122H494.753V356.74ZM494.379 374.998H472.483V364.968H481.765V361.806H469.151V359.188H497.711V361.806H484.961V364.968H494.379V374.998ZM514.028 347.39C509.404 347.39 506.446 348.784 506.446 351.028C506.446 353.238 509.404 354.632 514.028 354.632C518.686 354.632 521.712 353.238 521.712 351.028C521.712 348.784 518.686 347.39 514.028 347.39ZM525.078 350.994C525.078 354.904 520.93 357.284 514.028 357.284C507.092 357.284 503.012 354.904 503.012 350.994C503.012 347.118 507.126 344.772 514.028 344.772C520.964 344.772 525.078 347.118 525.078 350.994ZM524.908 374.488H503.454V365.308H506.65V371.904H524.908V374.488ZM528.308 362.52H499.748V359.902H528.308V362.52ZM534.051 372.244V368.708H537.553V372.244H534.051ZM534.323 366.328V363.268C534.323 360.786 535.615 359.8 537.961 357.862C539.491 356.604 540.375 354.564 540.375 352.49C540.375 349.974 538.505 348.92 535.819 348.92C533.677 348.92 532.589 349.26 531.025 349.804L530.685 347.356C532.317 346.642 534.323 346.268 536.567 346.268C540.341 346.268 543.707 348.138 543.707 352.422C543.707 355.414 542.483 357.522 539.831 359.698C538.199 361.058 537.213 361.772 537.213 363.472V366.328H534.323Z" fill="white"/>
<path d="M287.133 193.008C288.836 193.008 290.219 192.82 291.281 192.445C293.297 191.727 294.305 190.391 294.305 188.438C294.305 187.297 293.805 186.414 292.805 185.789C291.805 185.18 290.234 184.641 288.094 184.172L284.438 183.352C280.844 182.539 278.359 181.656 276.984 180.703C274.656 179.109 273.492 176.617 273.492 173.227C273.492 170.133 274.617 167.562 276.867 165.516C279.117 163.469 282.422 162.445 286.781 162.445C290.422 162.445 293.523 163.414 296.086 165.352C298.664 167.273 300.016 170.07 300.141 173.742H293.203C293.078 171.664 292.172 170.188 290.484 169.312C289.359 168.734 287.961 168.445 286.289 168.445C284.43 168.445 282.945 168.82 281.836 169.57C280.727 170.32 280.172 171.367 280.172 172.711C280.172 173.945 280.719 174.867 281.812 175.477C282.516 175.883 284.016 176.359 286.312 176.906L292.266 178.336C294.875 178.961 296.844 179.797 298.172 180.844C300.234 182.469 301.266 184.82 301.266 187.898C301.266 191.055 300.055 193.68 297.633 195.773C295.227 197.852 291.82 198.891 287.414 198.891C282.914 198.891 279.375 197.867 276.797 195.82C274.219 193.758 272.93 190.93 272.93 187.336H279.82C280.039 188.914 280.469 190.094 281.109 190.875C282.281 192.297 284.289 193.008 287.133 193.008ZM321.281 185.578H313.945V198H306.773V163.453H321.82C325.289 163.453 328.055 164.344 330.117 166.125C332.18 167.906 333.211 170.664 333.211 174.398C333.211 178.477 332.18 181.359 330.117 183.047C328.055 184.734 325.109 185.578 321.281 185.578ZM324.656 178.383C325.594 177.555 326.062 176.242 326.062 174.445C326.062 172.648 325.586 171.367 324.633 170.602C323.695 169.836 322.375 169.453 320.672 169.453H313.945V179.625H320.672C322.375 179.625 323.703 179.211 324.656 178.383ZM362.672 182.906H345.891V191.789H365.016V198H338.836V163.453H364.172V169.57H345.891V176.906H362.672V182.906ZM395.016 195.422C392.438 197.781 389.141 198.961 385.125 198.961C380.156 198.961 376.25 197.367 373.406 194.18C370.562 190.977 369.141 186.586 369.141 181.008C369.141 174.977 370.758 170.328 373.992 167.062C376.805 164.219 380.383 162.797 384.727 162.797C390.539 162.797 394.789 164.703 397.477 168.516C398.961 170.656 399.758 172.805 399.867 174.961H392.648C392.18 173.305 391.578 172.055 390.844 171.211C389.531 169.711 387.586 168.961 385.008 168.961C382.383 168.961 380.312 170.023 378.797 172.148C377.281 174.258 376.523 177.25 376.523 181.125C376.523 185 377.32 187.906 378.914 189.844C380.523 191.766 382.562 192.727 385.031 192.727C387.562 192.727 389.492 191.898 390.82 190.242C391.555 189.352 392.164 188.016 392.648 186.234H399.797C399.172 190 397.578 193.062 395.016 195.422ZM404.766 163.453H411.938V198H404.766V163.453ZM438.914 190.898H426.188L423.797 198H416.25L428.578 163.453H436.734L448.969 198H441.141L438.914 190.898ZM436.898 184.945L432.586 171.352L428.133 184.945H436.898ZM453.375 163.453H460.594V191.789H477.703V198H453.375V163.453ZM224.25 250.422C221.672 252.781 218.375 253.961 214.359 253.961C209.391 253.961 205.484 252.367 202.641 249.18C199.797 245.977 198.375 241.586 198.375 236.008C198.375 229.977 199.992 225.328 203.227 222.062C206.039 219.219 209.617 217.797 213.961 217.797C219.773 217.797 224.023 219.703 226.711 223.516C228.195 225.656 228.992 227.805 229.102 229.961H221.883C221.414 228.305 220.812 227.055 220.078 226.211C218.766 224.711 216.82 223.961 214.242 223.961C211.617 223.961 209.547 225.023 208.031 227.148C206.516 229.258 205.758 232.25 205.758 236.125C205.758 240 206.555 242.906 208.148 244.844C209.758 246.766 211.797 247.727 214.266 247.727C216.797 247.727 218.727 246.898 220.055 245.242C220.789 244.352 221.398 243.016 221.883 241.234H229.031C228.406 245 226.812 248.062 224.25 250.422ZM249.844 253.961C244.906 253.961 241.133 252.617 238.523 249.93C235.023 246.633 233.273 241.883 233.273 235.68C233.273 229.352 235.023 224.602 238.523 221.43C241.133 218.742 244.906 217.398 249.844 217.398C254.781 217.398 258.555 218.742 261.164 221.43C264.648 224.602 266.391 229.352 266.391 235.68C266.391 241.883 264.648 246.633 261.164 249.93C258.555 252.617 254.781 253.961 249.844 253.961ZM256.664 244.68C258.336 242.57 259.172 239.57 259.172 235.68C259.172 231.805 258.328 228.812 256.641 226.703C254.969 224.578 252.703 223.516 249.844 223.516C246.984 223.516 244.703 224.57 243 226.68C241.297 228.789 240.445 231.789 240.445 235.68C240.445 239.57 241.297 242.57 243 244.68C244.703 246.789 246.984 247.844 249.844 247.844C252.703 247.844 254.977 246.789 256.664 244.68ZM292.359 239.688V218.453H299.695V239.688C299.695 243.359 299.125 246.219 297.984 248.266C295.859 252.016 291.805 253.891 285.82 253.891C279.836 253.891 275.773 252.016 273.633 248.266C272.492 246.219 271.922 243.359 271.922 239.688V218.453H279.258V239.688C279.258 242.062 279.539 243.797 280.102 244.891C280.977 246.828 282.883 247.797 285.82 247.797C288.742 247.797 290.641 246.828 291.516 244.891C292.078 243.797 292.359 242.062 292.359 239.688ZM321.281 240.578H313.945V253H306.773V218.453H321.82C325.289 218.453 328.055 219.344 330.117 221.125C332.18 222.906 333.211 225.664 333.211 229.398C333.211 233.477 332.18 236.359 330.117 238.047C328.055 239.734 325.109 240.578 321.281 240.578ZM324.656 233.383C325.594 232.555 326.062 231.242 326.062 229.445C326.062 227.648 325.586 226.367 324.633 225.602C323.695 224.836 322.375 224.453 320.672 224.453H313.945V234.625H320.672C322.375 234.625 323.703 234.211 324.656 233.383ZM353.906 253.961C348.969 253.961 345.195 252.617 342.586 249.93C339.086 246.633 337.336 241.883 337.336 235.68C337.336 229.352 339.086 224.602 342.586 221.43C345.195 218.742 348.969 217.398 353.906 217.398C358.844 217.398 362.617 218.742 365.227 221.43C368.711 224.602 370.453 229.352 370.453 235.68C370.453 241.883 368.711 246.633 365.227 249.93C362.617 252.617 358.844 253.961 353.906 253.961ZM360.727 244.68C362.398 242.57 363.234 239.57 363.234 235.68C363.234 231.805 362.391 228.812 360.703 226.703C359.031 224.578 356.766 223.516 353.906 223.516C351.047 223.516 348.766 224.57 347.062 226.68C345.359 228.789 344.508 231.789 344.508 235.68C344.508 239.57 345.359 242.57 347.062 244.68C348.766 246.789 351.047 247.844 353.906 247.844C356.766 247.844 359.039 246.789 360.727 244.68ZM403.922 253H396.703L382.594 228.461V253H375.867V218.453H383.438L397.195 242.57V218.453H403.922V253ZM448.477 253H421.594V246.906L439.43 224.57H422.039V218.453H448.43V224.242L430.359 246.906H448.477V253ZM468.656 253.961C463.719 253.961 459.945 252.617 457.336 249.93C453.836 246.633 452.086 241.883 452.086 235.68C452.086 229.352 453.836 224.602 457.336 221.43C459.945 218.742 463.719 217.398 468.656 217.398C473.594 217.398 477.367 218.742 479.977 221.43C483.461 224.602 485.203 229.352 485.203 235.68C485.203 241.883 483.461 246.633 479.977 249.93C477.367 252.617 473.594 253.961 468.656 253.961ZM475.477 244.68C477.148 242.57 477.984 239.57 477.984 235.68C477.984 231.805 477.141 228.812 475.453 226.703C473.781 224.578 471.516 223.516 468.656 223.516C465.797 223.516 463.516 224.57 461.812 226.68C460.109 228.789 459.258 231.789 459.258 235.68C459.258 239.57 460.109 242.57 461.812 244.68C463.516 246.789 465.797 247.844 468.656 247.844C471.516 247.844 473.789 246.789 475.477 244.68ZM518.672 253H511.453L497.344 228.461V253H490.617V218.453H498.188L511.945 242.57V218.453H518.672V253ZM549.469 237.906H532.688V246.789H551.812V253H525.633V218.453H550.969V224.57H532.688V231.906H549.469V237.906Z" fill="white"/>
<path d="M750 1357.7C731.171 1376.77 700.647 1376.77 681.818 1357.7C662.989 1338.63 632.465 1338.63 613.636 1357.7C594.808 1376.77 564.283 1376.77 545.455 1357.7C526.626 1338.63 496.102 1338.63 477.273 1357.7C458.444 1376.77 427.92 1376.77 409.091 1357.7C390.262 1338.63 359.738 1338.63 340.909 1357.7C322.08 1376.77 291.556 1376.77 272.727 1357.7C253.898 1338.63 223.374 1338.63 204.546 1357.7C185.717 1376.77 155.193 1376.77 136.364 1357.7C117.535 1338.63 87.0107 1338.63 68.1819 1357.7C49.353 1376.77 18.8288 1376.77 1.25044e-06 1357.7L4.02145e-06 1326L750 1326L750 1357.7Z" fill="#2E2F3E"/>
</svg>
