<svg width="750" height="1398" viewBox="0 0 750 1398" fill="none" xmlns="http://www.w3.org/2000/svg">
<rect width="750" height="1352" fill="#C7DBF3"/>
<path d="M750 1383.7C731.171 1402.77 700.647 1402.77 681.818 1383.7C662.989 1364.63 632.465 1364.63 613.636 1383.7C594.808 1402.77 564.283 1402.77 545.455 1383.7C526.626 1364.63 496.102 1364.63 477.273 1383.7C458.444 1402.77 427.92 1402.77 409.091 1383.7C390.262 1364.63 359.738 1364.63 340.909 1383.7C322.08 1402.77 291.556 1402.77 272.727 1383.7C253.898 1364.63 223.374 1364.63 204.546 1383.7C185.717 1402.77 155.193 1402.77 136.364 1383.7C117.535 1364.63 87.0107 1364.63 68.1819 1383.7C49.353 1402.77 18.8288 1402.77 1.25044e-06 1383.7L4.02145e-06 1352L750 1352L750 1383.7Z" fill="#C7DBF3"/>
</svg>
