<svg width="455" height="358" viewBox="0 0 455 358" fill="none" xmlns="http://www.w3.org/2000/svg">
<path d="M61.0086 160.402H23.4812V177.617H56.3367V190.617H23.4812V222H7.94218V147.25H61.0086V160.402ZM98.1094 192.648H81.9609V222H66.6758V147.148H103.391C108.638 147.25 112.667 147.893 115.477 149.078C118.32 150.263 120.724 152.007 122.687 154.309C124.312 156.204 125.599 158.303 126.547 160.605C127.495 162.908 127.969 165.531 127.969 168.477C127.969 172.031 127.072 175.535 125.277 178.988C123.483 182.408 120.521 184.828 116.391 186.25C119.844 187.638 122.281 189.618 123.703 192.191C125.159 194.73 125.887 198.624 125.887 203.871V208.898C125.887 212.318 126.022 214.637 126.293 215.855C126.699 217.785 127.647 219.207 129.137 220.121V222H111.922C111.448 220.341 111.109 219.004 110.906 217.988C110.5 215.889 110.28 213.74 110.246 211.539L110.145 204.582C110.077 199.809 109.197 196.626 107.504 195.035C105.845 193.444 102.714 192.648 98.1094 192.648ZM107.605 179.039C110.72 177.617 112.277 174.807 112.277 170.609C112.277 166.073 110.771 163.026 107.758 161.469C106.065 160.589 103.526 160.148 100.141 160.148H81.9609V180.258H99.6836C103.204 180.258 105.845 179.852 107.605 179.039ZM135.058 147.148H150.597V222H135.058V147.148ZM212.123 189.297H175.764V208.543H217.202V222H160.479V147.148H215.373V160.402H175.764V176.297H212.123V189.297ZM284.72 222H269.08L238.509 168.832V222H223.935V147.148H240.337L270.146 199.402V147.148H284.72V222ZM326.391 222H294.145V147.148H326.391C331.029 147.216 334.889 147.758 337.97 148.773C343.217 150.5 347.466 153.665 350.716 158.27C353.322 161.993 355.1 166.022 356.048 170.355C356.996 174.689 357.47 178.819 357.47 182.746C357.47 192.699 355.472 201.129 351.477 208.035C346.061 217.345 337.699 222 326.391 222ZM338.02 166.242C335.617 162.18 330.86 160.148 323.751 160.148H309.329V209H323.751C331.131 209 336.277 205.361 339.188 198.082C340.779 194.087 341.575 189.331 341.575 183.812C341.575 176.195 340.39 170.339 338.02 166.242ZM391.27 211.184C394.96 211.184 397.956 210.777 400.258 209.965C404.625 208.408 406.809 205.513 406.809 201.281C406.809 198.81 405.725 196.897 403.559 195.543C401.392 194.223 397.99 193.055 393.352 192.039L385.43 190.262C377.643 188.501 372.26 186.589 369.281 184.523C364.237 181.07 361.715 175.671 361.715 168.324C361.715 161.621 364.152 156.052 369.027 151.617C373.902 147.182 381.062 144.965 390.508 144.965C398.396 144.965 405.116 147.064 410.668 151.262C416.254 155.426 419.182 161.486 419.453 169.441H404.422C404.151 164.939 402.188 161.74 398.531 159.844C396.094 158.591 393.064 157.965 389.441 157.965C385.413 157.965 382.197 158.777 379.793 160.402C377.389 162.027 376.188 164.296 376.188 167.207C376.188 169.882 377.372 171.879 379.742 173.199C381.266 174.079 384.516 175.112 389.492 176.297L402.391 179.395C408.044 180.749 412.31 182.56 415.188 184.828C419.656 188.349 421.891 193.444 421.891 200.113C421.891 206.952 419.267 212.639 414.02 217.176C408.806 221.678 401.426 223.93 391.879 223.93C382.129 223.93 374.461 221.712 368.875 217.277C363.289 212.809 360.496 206.681 360.496 198.895H375.426C375.9 202.314 376.831 204.87 378.219 206.562C380.758 209.643 385.108 211.184 391.27 211.184ZM447.667 166.395L443.554 201.332H435.987L431.773 166.395V147.402H447.667V166.395ZM447.261 207.324V222H432.128V207.324H447.261Z" fill="#2E2F3E"/>
<path d="M157.757 119.92C147.437 129.16 137.597 139.36 133.397 144.28C129.677 148.72 127.277 151.84 129.077 152.68C130.877 153.64 137.237 149.32 140.597 146.68C144.437 143.68 148.637 140.08 152.117 136.96C152.477 136.6 153.437 136.24 153.557 136.84C153.917 137.56 153.437 138.04 152.957 138.4C149.597 141.4 144.677 145.48 141.677 147.88C138.077 150.76 131.837 155.08 127.037 155.08C122.597 155.08 119.837 150.88 123.557 144.4C116.477 150.64 109.997 155.44 106.037 155.08C97.8773 154.36 100.397 141.16 108.917 132.64C119.957 121.36 136.877 116.32 142.037 119.32C143.717 120.16 144.077 123.04 139.397 127.48C144.197 123.52 146.957 121.6 148.997 121C151.637 120.16 156.197 119.8 157.757 119.92ZM141.077 120.88C138.797 119.08 129.437 125.08 116.717 137.2C109.037 144.4 103.757 152.08 106.517 153.28C108.797 154.36 119.237 146.92 129.437 136.48C134.117 131.8 143.597 122.8 141.077 120.88ZM205.605 119.2C201.285 122.2 194.205 128.56 188.805 134.8C195.765 129.16 210.765 118.12 217.845 118.84C223.365 119.32 222.765 124.12 219.285 129.4C224.205 125.92 235.245 118 241.245 118.84C249.405 119.92 246.765 127.12 236.445 136.48C232.605 139.96 229.365 143.2 226.845 145.84C222.525 150.28 221.805 152.08 223.005 153.04C224.205 153.88 229.125 151.72 233.805 148.36C238.125 145.36 243.525 140.68 246.885 137.68C247.245 137.32 247.845 136.84 248.325 137.44C248.805 138.04 248.205 138.64 247.605 139.24C244.005 142.48 238.605 146.8 234.165 150.04C229.365 153.52 222.405 156.76 217.845 154.96C214.365 153.64 213.645 149.32 217.365 144.16C220.485 139.96 222.765 137.8 227.685 133.24C231.645 129.4 242.205 122.08 239.565 120.64C238.005 119.8 228.645 124.96 220.245 130.72C213.405 135.28 208.605 140.2 205.005 143.56C200.565 147.88 197.565 151.36 194.325 155.56C192.165 155.56 190.125 150.88 191.685 148.24C194.205 143.56 198.765 138.16 204.285 133.24C208.485 129.4 218.925 122.2 216.165 120.64C214.005 119.44 195.165 130.84 187.005 138.52C179.325 145.84 176.085 149.8 171.765 155.56C169.605 155.56 167.685 151 169.125 148.24C171.645 143.56 175.725 137.92 182.565 130.84C186.405 126.64 189.405 124.24 192.285 122.44C196.125 119.92 201.645 119.2 205.605 119.2ZM282.749 119.44C286.589 121.36 284.429 130.48 274.349 140.68C262.949 152.32 253.589 156.4 248.789 155.2C241.589 153.4 240.989 142.12 251.429 131.56C263.669 119.2 277.709 116.8 282.749 119.44ZM282.029 120.88C279.509 118.84 269.549 125.92 258.509 137.32C251.549 144.64 245.909 151.6 249.149 153.52C252.029 155.2 261.149 147.64 272.069 136.6C276.869 131.8 284.189 122.68 282.029 120.88ZM327.8 123.64C327.56 125.32 325.76 126.88 325.16 126.76C324.68 126.64 324.08 126.04 323.36 125.56C322.16 124.84 321.56 124.48 319.64 124.36C313.76 124.12 303.68 130.84 295.52 138.52C287.84 145.84 284.48 149.92 280.28 155.56C278.12 155.56 276.2 151 277.64 148.24C280.16 143.56 284.72 137.44 291.08 130.84C294.92 126.64 297.92 124.24 300.8 122.44C304.64 119.92 310.16 119.2 314.12 119.2C309.08 122.56 302.24 128.56 297.08 134.56L297.44 134.92C304.04 129.16 317.36 118 324.44 119.32C326.96 119.8 327.92 121.48 327.8 123.64ZM353.61 118.96C357.57 121.24 356.01 126.16 351.33 129.52C345.33 133.72 336.33 134.92 333.81 133.72C325.53 140.92 318.69 150.88 322.89 153.04C325.65 154.36 332.13 152.2 336.69 149.2C341.49 146.08 348.69 140.08 352.05 137.08C353.01 136.24 353.25 136.12 353.73 136.6C354.21 137.08 353.73 137.8 353.13 138.28C349.05 141.88 344.49 145.84 339.21 149.44C332.25 154.24 326.85 155.56 322.17 155.2C317.73 154.84 315.93 151.96 315.57 148.48C315.21 145.48 316.77 139 322.41 132.88C331.77 122.68 349.41 116.56 353.61 118.96ZM352.89 120.04C351.45 118.84 340.41 127.24 334.53 133C336.33 133.6 342.33 131.68 347.61 127.48C351.57 124.36 354.21 121 352.89 120.04Z" fill="#FF3046"/>
<path d="M171.922 54.664V37.024H182.578V40.24H175.498V43.912H181.738V46.96H175.498V51.472H182.746V54.664H171.922ZM190.409 54.688L184.289 37.024H188.225L192.617 50.56L197.057 37.024H200.897L194.729 54.688H190.409ZM202.508 54.664V37.024H213.164V40.24H206.084V43.912H212.324V46.96H206.084V51.472H213.332V54.664H202.508ZM216.242 54.664V37.024H220.538L226.346 48.736V37.024H229.85V54.664H225.722L219.746 42.688V54.664H216.242ZM240.825 40.336V54.664H237.177V40.336H232.329V37.024H245.697V40.336H240.825ZM261.274 51.808C263.146 51.808 264.25 50.056 264.25 46.24V45.496C264.25 41.536 263.098 39.856 261.298 39.856C259.402 39.856 258.346 41.56 258.346 45.4V46.168C258.346 50.008 259.33 51.808 261.274 51.808ZM261.25 54.928C257.578 54.928 254.506 52.504 254.506 46.36V45.64C254.506 39.136 257.866 36.712 261.322 36.712C264.802 36.712 268.066 39.232 268.066 45.544V46.192C268.066 52.696 264.682 54.928 261.25 54.928ZM274.433 48.592H277.121V44.2L274.433 48.592ZM277.073 54.712V51.76H270.089V49.456L277.913 36.88H280.649V48.592H282.881V51.76H280.649V54.712H277.073Z" fill="#11A875"/>
<mask id="mask0_92_1411" style="mask-type:alpha" maskUnits="userSpaceOnUse" x="214" y="0" width="28" height="28">
<circle cx="228" cy="14" r="14" fill="#D9D9D9"/>
</mask>
<g mask="url(#mask0_92_1411)">
<rect x="242" y="11.668" width="4.66667" height="28" transform="rotate(90 242 11.668)" fill="#11A875"/>
<rect x="239.549" y="22.25" width="4.66667" height="28" transform="rotate(135 239.549 22.25)" fill="#11A875"/>
<rect x="236.25" y="2.44922" width="4.66667" height="28" transform="rotate(45 236.25 2.44922)" fill="#11A875"/>
<rect x="230.334" y="28" width="4.66667" height="28" transform="rotate(-180 230.334 28)" fill="#11A875"/>
</g>
<path d="M111.959 273.628H103.187V271.044H111.959V273.628ZM123.723 293.042H120.527V269.82H123.723V293.042ZM124.471 300.59H103.119V291.206H106.315V298.006H124.471V300.59ZM116.923 287.262L115.291 289.846C112.639 288.996 108.899 286.344 107.573 283.522C106.587 286.344 103.187 289.54 99.7193 290.73L97.9513 288.214C102.201 286.888 105.805 283.182 105.907 279H99.0053V276.416H116.209V279H109.205C109.307 283.182 113.285 286.344 116.923 287.262ZM131.677 272.132H153.301C153.301 276.756 153.063 281.516 152.145 285.97H156.939V288.554H144.223V301.44H141.027V288.554H128.379V285.97H149.017C149.799 282.774 150.071 278.218 150.071 274.75H131.677V272.132ZM185.7 301.44H182.64V269.82H185.7V301.44ZM170.366 283.386C170.366 278.456 169.074 275.022 166.524 275.022C164.008 275.022 162.716 278.456 162.716 283.386C162.716 288.316 164.008 291.75 166.524 291.75C169.074 291.75 170.366 288.316 170.366 283.386ZM166.524 272.302C170.944 272.302 173.188 276.484 173.46 282.162H176.52V270.432H179.58V299.944H176.52V284.78H173.46C173.154 290.39 170.876 294.47 166.524 294.47C161.798 294.47 159.554 289.676 159.554 283.352C159.554 277.062 161.798 272.302 166.524 272.302ZM210.041 299.876H206.981V285.222H202.357V282.604H206.981V270.534H210.041V299.876ZM190.423 273.628H202.867C202.765 282.978 198.991 289.744 191.205 294.912L189.029 292.566C195.557 288.758 199.127 282.706 199.671 276.246H190.423V273.628ZM216.297 301.44H213.203V269.82H216.297V301.44ZM257.58 297.428H229.02V294.81H241.634V286.956H244.83V294.81H257.58V297.428ZM256.56 285.188L254.826 287.704C249.862 286.31 244.762 282.366 243.3 278.796C242.008 282.4 236.874 286.344 231.74 287.67L230.108 285.086C235.276 284.168 241.668 279.646 241.668 274.342V272.166H244.966V274.342C244.966 279.612 251.732 284.236 256.56 285.188ZM285.015 300.488H263.187V291.716H266.383V297.87H285.015V300.488ZM281.411 280.02V274.138H266.451V280.02H281.411ZM275.631 294.776H272.435V288.588H259.617V286.004H288.177V288.588H275.631V294.776ZM284.607 282.638H263.255V271.52H284.607V282.638ZM305.209 291.954C302.931 292.498 298.375 292.906 294.499 292.974H291.473V273.322H294.669V290.254C297.763 290.254 302.557 289.914 304.733 289.302C304.903 290.186 305.073 291.07 305.209 291.954ZM316.939 301.44H313.845V284.78H309.969V299.876H306.943V270.5H309.969V282.162H313.845V269.82H316.939V301.44ZM333.732 284.95V275.158H325.436V284.95H333.732ZM347.434 300.454H326.252V290.73H329.448V297.836H347.434V300.454ZM343.558 277.674H338.424V275.09H343.558V269.82H346.754V292.77H343.558V284.644H338.424V282.06H343.558V277.674ZM336.894 287.5H322.274V272.608H336.894V287.5Z" fill="#2E2F3E"/>
<path d="M12.9218 345.564V325.164L8.73984 325.98V323.396L15.0638 320.574H17.4098V345.564H12.9218ZM32.5 342.436C35.832 342.436 37.498 340.056 37.498 334.14V332.27C37.498 326.388 35.798 323.77 32.534 323.77C29.202 323.77 27.536 326.252 27.536 332.032V333.936C27.536 339.682 29.168 342.436 32.5 342.436ZM32.5 345.836C27.094 345.836 22.878 342.368 22.878 333.936V332.406C22.878 323.532 27.468 320.336 32.568 320.336C37.702 320.336 42.088 323.566 42.088 332.27V333.834C42.088 342.538 37.702 345.836 32.5 345.836ZM55.1618 342.436C58.4938 342.436 60.1598 340.056 60.1598 334.14V332.27C60.1598 326.388 58.4598 323.77 55.1958 323.77C51.8638 323.77 50.1978 326.252 50.1978 332.032V333.936C50.1978 339.682 51.8298 342.436 55.1618 342.436ZM55.1618 345.836C49.7558 345.836 45.5398 342.368 45.5398 333.936V332.406C45.5398 323.532 50.1298 320.336 55.2298 320.336C60.3638 320.336 64.7498 323.566 64.7498 332.27V333.834C64.7498 342.538 60.3638 345.836 55.1618 345.836ZM90.6416 343.286C92.3416 343.286 93.1576 342.198 93.1576 339.342V338.526C93.1576 335.738 92.2736 334.548 90.6416 334.548C88.9756 334.548 88.1596 335.704 88.1596 338.492V339.308C88.1596 342.164 88.9416 343.286 90.6416 343.286ZM90.6416 345.87C86.9356 345.87 84.4536 343.456 84.4536 339.274V338.764C84.4536 334.616 86.9696 331.998 90.6416 331.998C94.2796 331.998 96.8296 334.412 96.8296 338.526V339.07C96.8296 343.218 94.3476 345.87 90.6416 345.87ZM73.6416 331.726C75.3756 331.726 76.1916 330.57 76.1916 327.714V326.932C76.1916 324.178 75.3076 322.92 73.6416 322.92C72.0096 322.92 71.1596 324.144 71.1596 326.898V327.68C71.1596 330.57 71.9756 331.726 73.6416 331.726ZM73.6416 334.31C69.9356 334.31 67.5216 331.862 67.5216 327.68V327.204C67.5216 323.022 69.9696 320.37 73.6416 320.37C77.2796 320.37 79.7956 322.784 79.7956 326.932V327.476C79.7956 331.624 77.3476 334.31 73.6416 334.31ZM71.8396 346.958L88.7716 320.098H92.0696L75.1376 346.958H71.8396ZM126.439 333.12L124.025 336.418C121.577 335.5 118.211 332.61 116.817 329.618C115.831 332.882 112.363 336.248 109.337 337.268L106.821 333.902C111.513 332.168 114.573 327.986 114.573 323.158V319.35H118.993V322.954C118.993 327.85 122.665 331.896 126.439 333.12ZM134.599 348.896H112.669V338.764H116.885V345.53H134.599V348.896ZM133.919 340.906H129.669V328.326H124.161V324.926H129.669V317.514H133.919V340.906ZM158.804 325.096V321.39H145.952V325.096H158.804ZM163.088 328.394H141.736V318.126H163.088V328.394ZM164.278 349.61H141.566V341.348H158.906V339.478H141.362V336.146H150.236V333.732H137.86V330.536H166.964V333.732H154.452V336.146H163.156V344.34H145.782V346.176H164.278V349.61ZM178.828 331.488C178.828 327.17 177.944 323.634 175.768 323.634C173.66 323.634 172.776 327.17 172.776 331.488C172.776 335.806 173.66 339.308 175.768 339.308C177.944 339.308 178.828 335.806 178.828 331.488ZM195.862 349.746H191.884V317.514H195.862V349.746ZM189.436 348.25H185.458V333.256H182.704C182.33 338.458 180.256 343.048 175.734 343.048C170.77 343.048 168.764 337.37 168.764 331.454C168.764 325.572 170.77 319.962 175.734 319.962C180.29 319.962 182.33 324.552 182.704 329.788H185.458V318.126H189.436V348.25ZM218.274 331.488C218.274 327.17 217.39 323.634 215.214 323.634C213.106 323.634 212.222 327.17 212.222 331.488C212.222 335.806 213.106 339.308 215.214 339.308C217.39 339.308 218.274 335.806 218.274 331.488ZM235.308 349.746H231.33V317.514H235.308V349.746ZM228.882 348.25H224.904V333.256H222.15C221.776 338.458 219.702 343.048 215.18 343.048C210.216 343.048 208.21 337.37 208.21 331.454C208.21 325.572 210.216 319.962 215.18 319.962C219.736 319.962 221.776 324.552 222.15 329.788H224.904V318.126H228.882V348.25ZM251.32 331.25C251.32 326.184 249.518 323.124 247.036 323.124C244.622 323.124 242.854 326.184 242.854 331.25C242.854 336.316 244.622 339.342 247.036 339.342C249.518 339.342 251.32 336.316 251.32 331.25ZM238.706 331.25C238.706 324.484 241.8 319.724 247.036 319.724C252.306 319.724 255.366 324.484 255.366 331.284C255.366 337.982 252.306 342.742 247.036 342.742C241.8 342.742 238.706 338.016 238.706 331.25ZM265.158 349.746H260.908V332.916H256.182V329.346H260.908V317.514H265.158V349.746ZM292.219 345.972V343.32H278.823V345.972H292.219ZM296.503 335.33H292.457V328.088H289.873V335.126H285.895V318.092H289.873V324.722H292.457V317.514H296.503V335.33ZM284.059 330.978L284.535 334.14C281.781 334.82 276.375 335.126 272.669 335.126C271.955 335.126 271.173 335.092 270.459 335.092V325.334H278.415V322.648H270.323V319.282H282.699V328.632H274.675V331.76C277.327 331.76 281.951 331.488 284.059 330.978ZM296.503 349.338H274.607V336.962H278.823V340.022H292.219V336.928H296.503V349.338ZM319.562 332.882C319.562 331.828 318.474 330.944 316.57 330.944C314.666 330.944 313.578 331.828 313.578 332.882C313.578 333.97 314.666 334.854 316.57 334.854C318.474 334.854 319.562 333.97 319.562 332.882ZM312.252 322.036V318.772H320.82V322.036H312.252ZM308.614 326.728V323.464H324.016V326.728H308.614ZM331.802 344.17C331.802 342.674 329.082 341.722 324.798 341.722C320.48 341.722 317.862 342.674 317.862 344.17C317.862 345.7 320.48 346.584 324.798 346.584C329.082 346.584 331.802 345.7 331.802 344.17ZM323.438 332.882C323.438 335.942 320.786 338.084 316.57 338.084C312.388 338.084 309.736 335.942 309.736 332.882C309.736 329.822 312.388 327.714 316.57 327.714C320.786 327.714 323.438 329.822 323.438 332.882ZM335.95 338.356H331.938V330.06H329.32V337.302H325.41V318.092H329.32V326.626H331.938V317.514H335.95V338.356ZM336.12 344.136C336.12 347.74 331.802 349.814 324.832 349.814C317.794 349.814 313.476 347.74 313.476 344.136C313.476 340.6 317.794 338.492 324.832 338.492C331.802 338.492 336.12 340.6 336.12 344.136ZM360.597 324.96C360.597 322.988 357.945 321.696 353.695 321.696C349.513 321.696 346.827 322.988 346.827 324.96C346.827 326.864 349.513 328.122 353.695 328.122C357.945 328.122 360.597 326.864 360.597 324.96ZM364.881 348.896H342.849V339.682H347.065V345.564H364.881V348.896ZM356.109 342.674H351.893V336.826H339.143V333.46H368.247V336.826H356.109V342.674ZM364.949 324.892C364.949 328.666 360.767 331.42 353.729 331.42C346.623 331.42 342.509 328.666 342.509 324.892C342.509 321.22 346.623 318.466 353.695 318.466C360.767 318.466 364.949 321.22 364.949 324.892ZM391.194 325.232C391.194 323.26 388.542 321.968 384.292 321.968C380.11 321.968 377.424 323.26 377.424 325.232C377.424 327.102 380.11 328.36 384.292 328.36C388.542 328.36 391.194 327.102 391.194 325.232ZM395.546 325.164C395.546 328.904 391.364 331.658 384.326 331.658C377.22 331.658 373.106 328.904 373.106 325.164C373.106 321.458 377.22 318.704 384.292 318.704C391.364 318.704 395.546 321.458 395.546 325.164ZM395.478 348.896H373.31V339.478H377.56V345.564H395.478V348.896ZM398.844 337.132H369.74V333.732H398.844V337.132ZM431.593 346.04V340.532H418.469V346.04H431.593ZM435.809 335.568H431.593V328.428H423.603V325.028H431.593V317.514H435.809V335.568ZM427.547 334.072C424.419 334.82 419.727 335.228 413.913 335.228H410.785V319.452H425.099V322.818H415.001V331.828C419.523 331.828 423.739 331.556 427.003 330.91C427.173 331.964 427.343 333.018 427.547 334.072ZM435.809 349.338H414.253V337.268H435.809V349.338ZM441.586 345.904V341.688H445.938V345.904H441.586ZM441.96 338.22L441.382 319.656H446.074L445.564 338.22H441.96Z" fill="#0F9A6B"/>
<path d="M274.584 68.5192C274.127 68.5192 273.744 68.8398 273.682 69.2673C273.292 71.9574 270.831 74.0373 267.862 74.0373C266.063 74.0373 264.388 73.2778 263.265 71.9539L263.165 71.8362L262.483 71.1814L262.382 71.0889C260.126 69.1038 257.184 68.0115 254.099 68.0115C251.378 68.0115 248.805 68.842 246.657 70.4126L246.54 70.498L244.974 71.8836L244.845 72.0306C243.725 73.3129 242.076 74.0488 240.319 74.0488C240.295 74.0488 240.272 74.0488 240.249 74.0481V74.0373C239.931 74.0373 239.616 74.0129 239.308 73.9663C237.91 73.7375 236.644 73.0368 235.738 71.9675L235.62 71.8284L234.915 71.1743L234.871 71.1341C232.605 69.1131 229.64 68 226.522 68C225.159 68 223.834 68.208 222.581 68.6132C221.318 69.017 220.127 69.6201 219.044 70.4119L218.928 70.4973L217.362 71.8829L217.233 72.0299C216.534 72.8295 215.629 73.4162 214.622 73.7454C214.023 73.9362 213.39 74.0366 212.742 74.0366V74.0473C212.73 74.0473 212.718 74.0473 212.706 74.0473C210.916 74.0473 209.247 73.2885 208.125 71.9661L208.007 71.8269L207.302 71.1728L207.258 71.1334C204.992 69.1131 202.026 68 198.909 68C196.188 68 193.614 68.8305 191.467 70.4004L191.35 70.4858L189.784 71.8714L189.655 72.0184C188.535 73.3007 186.886 74.0359 185.129 74.0359C182.164 74.0359 179.705 71.946 179.317 69.2436C179.256 68.8154 178.872 68.4949 178.415 68.4949H173.912C173.383 68.4963 172.96 68.9202 173.003 69.4179C173.502 75.3261 178.75 79.99 185.129 79.99C188.701 79.99 192.058 78.5255 194.376 75.9651L195.43 75.032C196.442 74.3249 197.642 73.9519 198.91 73.9519C200.404 73.9519 201.825 74.482 202.915 75.4451L203.337 75.836C205.658 78.4846 209.062 80 212.707 80C214.052 80 215.366 79.792 216.606 79.3968C218.674 78.7442 220.536 77.5702 221.989 75.9644L223.044 75.0313C223.544 74.682 224.09 74.4145 224.667 74.2331C225.247 74.0545 225.859 73.9627 226.487 73.9627C227.953 73.9627 229.352 74.4748 230.434 75.4057L230.844 75.8001C232.743 77.9775 235.374 79.3933 238.273 79.8379C238.943 79.9448 239.627 80 240.32 80C243.891 80 247.249 78.5355 249.566 75.9751L250.62 75.0421C251.632 74.3349 252.832 73.962 254.1 73.962C255.566 73.962 256.965 74.4741 258.047 75.405L258.457 75.7994C260.781 78.4638 264.199 79.9878 267.863 79.9878C274.246 79.9878 279.498 75.3347 279.997 69.4387C280.04 68.941 279.617 68.5164 279.088 68.5164H274.585L274.584 68.5192Z" fill="#11A875"/>
</svg>
