<svg width="670" height="846" viewBox="0 0 670 846" fill="none" xmlns="http://www.w3.org/2000/svg">
<rect y="28" width="670" height="818" rx="16" fill="#A1D9C6"/>
<path d="M40.6889 719.68C40.6889 721.144 39.4889 722.32 38.0249 722.32C36.5609 722.32 35.3609 721.144 35.3609 719.68C35.3609 718.216 36.5609 717.016 38.0249 717.016C39.4889 717.016 40.6889 718.216 40.6889 719.68ZM64.8626 710.176H80.0066C80.0066 713.2 79.9346 716.608 79.1906 720.064H82.6466V721.696H73.5266V730.84H71.5826V721.696H62.4866V720.064H77.2466C77.8706 717.664 77.9906 713.968 77.9906 711.784H64.8626V710.176ZM91.0687 723.256V712.576H86.0047V723.256H91.0687ZM102.205 730.84H100.285V719.056H97.5487V729.712H95.6527V709.048H97.5487V717.424H100.285V708.52H102.205V730.84ZM92.9647 724.864H84.1087V710.968H92.9647V724.864ZM124.403 727.984H104.243V726.352H113.315V720.808H115.259V726.352H124.403V727.984ZM122.723 712.336H115.355V712.816C115.355 716.32 120.275 719.608 123.635 720.256L122.627 721.888C119.051 720.88 115.379 718.096 114.323 715.648C113.387 718.168 109.691 720.904 105.995 721.84L105.059 720.208C108.587 719.584 113.315 716.368 113.315 712.816V712.336H105.971V710.776H122.723V712.336ZM126.225 710.2H136.449C136.113 716.152 132.153 720.328 126.393 722.248L125.409 720.616C130.137 719.368 133.737 715.744 134.313 711.832H126.225V710.2ZM141.417 716.68H136.521V715.048H141.417V708.52H143.361V724.72H141.417V716.68ZM143.889 730.288H128.745V723.256H130.689V728.656H143.889V730.288ZM165.134 710.152H158.102V708.544H165.134V710.152ZM161.606 724.888C158.006 724.888 155.774 725.704 155.774 727.096C155.774 728.512 158.006 729.28 161.606 729.28C165.23 729.28 167.462 728.512 167.462 727.096C167.462 725.704 165.23 724.888 161.606 724.888ZM170.606 716.752L169.742 718.384C166.502 717.952 162.854 716.848 161.606 714.616C160.478 716.872 156.95 718 153.494 718.408L152.654 716.8C155.87 716.632 159.566 715.576 160.454 713.464H153.662V711.856H169.526V713.464H162.782C163.718 715.552 167.606 716.56 170.606 716.752ZM169.43 727.096C169.43 729.52 166.694 730.936 161.606 730.936C156.518 730.936 153.806 729.472 153.806 727.096C153.806 724.888 156.158 723.472 160.622 723.28V721.288H151.526V719.68H171.686V721.288H162.566V723.28C167.03 723.448 169.43 724.792 169.43 727.096ZM174.708 723.52H189.972V730.984H188.028V725.128H174.708V723.52ZM192.564 721.192H172.404V719.56H181.452V716.056H183.396V719.56H192.564V721.192ZM191.556 715.84L190.668 717.472C186.948 716.872 183.588 714.904 182.484 712.864C181.596 714.928 178.284 716.92 174.348 717.496L173.46 715.864C176.988 715.528 180.852 713.728 181.428 711.016H174.252V709.408H190.716V711.016H183.588C184.188 713.752 188.412 715.552 191.556 715.84ZM212.392 723.976L211.168 725.464C209.152 724.096 206.536 721.336 205.672 718.648C204.856 721.432 202.552 724.168 199.96 726.016L198.688 724.552C201.952 722.512 204.64 718.456 204.64 714.496V710.464H206.608V714.424C206.608 718.504 209.32 722.152 212.392 723.976ZM217.192 730.84H215.248V708.52H217.192V730.84ZM219.207 731.296L220.167 726.304H222.471L220.599 731.296H219.207ZM239.403 717.976C239.403 714.304 237.915 711.76 235.707 711.76C233.499 711.76 232.011 714.304 232.011 717.976C232.011 721.624 233.499 724.168 235.707 724.168C237.915 724.168 239.403 721.624 239.403 717.976ZM230.067 717.952C230.067 713.248 232.107 710.08 235.707 710.08C239.091 710.08 241.059 712.864 241.299 717.088H246.075V708.52H248.019V730.84H246.075V718.744H241.299C241.107 723.04 239.115 725.848 235.707 725.848C232.107 725.848 230.067 722.704 230.067 717.952ZM270.817 727.768H250.657V726.136H270.817V727.768ZM268.393 721.24H253.201V710.728H268.177V712.336H255.145V719.632H268.393V721.24ZM279.407 719.2V715.408H274.463V719.2H279.407ZM290.351 725.152H288.431V708.52H290.351V725.152ZM290.951 730.12H275.711V723.208H277.655V728.488H290.951V730.12ZM281.303 720.808H272.567V710.176H274.463V713.8H279.407V710.176H281.303V714.616H284.255V708.976H286.127V724.552H284.255V716.224H281.303V720.808ZM312.573 727.984H292.413V726.352H312.573V727.984ZM309.501 717.16H296.829V720.64H310.173V722.272H294.885V710.656H309.933V712.288H296.829V715.528H309.501V717.16ZM338.45 730.648H322.97V725.2H335.69V723.016H322.898V721.408H337.634V726.688H324.914V729.016H338.45V730.648ZM337.634 720.256H335.714V715.336H332.882V720.064H331.01V708.928H332.882V713.704H335.714V708.52H337.634V720.256ZM320.138 709.768H328.562C328.49 715.288 325.994 718.816 320.402 721.264L319.154 719.8C322.178 718.696 324.194 717.064 325.346 715.12L319.442 715.792L319.034 714.088L326.066 713.56C326.306 712.864 326.45 712.12 326.522 711.376H320.138V709.768ZM353.04 719.704L353.208 721.288C350.904 721.672 347.256 721.912 343.296 721.936H340.824V714.952H349.2V711.616H340.728V710.008H351.144V716.512H342.768V720.304C346.272 720.304 350.736 720.184 353.04 719.704ZM358.56 730.312H343.248V723.976H345.192V728.704H358.56V730.312ZM357.936 724.72H355.992V708.52H357.936V724.72ZM373.486 722.92L373.702 724.6C371.23 725.056 367.03 725.368 363.046 725.296L361.51 725.272V710.728H372.022V712.36H363.454V723.616C366.766 723.736 371.014 723.4 373.486 722.92ZM378.79 730.84H376.846V718.312H370.27V716.656H376.846V708.52H378.79V730.84ZM400.707 710.488H393.411V708.784H400.707V710.488ZM397.995 730.864H396.051V723.76H386.979V722.128H407.139V723.76H397.995V730.864ZM406.083 718.744L405.195 720.376C401.571 719.872 398.187 718.048 397.059 715.984C396.027 718.072 392.811 719.944 388.947 720.448L388.083 718.816C391.659 718.456 395.451 716.704 396.027 714.064H388.875V712.432H405.219V714.064H398.139C398.715 716.704 402.699 718.432 406.083 718.744ZM425.017 708.52V717.808H428.665V719.464H425.017V730.84H423.073V708.52H425.017ZM408.745 710.92H419.233C419.113 718.168 414.913 723.4 409.177 726.376L407.977 724.864C413.545 722.272 416.737 717.568 417.145 712.552H408.745V710.92ZM431.111 710.176H446.255C446.255 713.2 446.183 716.608 445.439 720.064H448.895V721.696H439.775V730.84H437.831V721.696H428.735V720.064H443.495C444.119 717.664 444.239 713.968 444.239 711.784H431.111V710.176ZM457.317 723.256V712.576H452.253V723.256H457.317ZM468.453 730.84H466.533V719.056H463.797V729.712H461.901V709.048H463.797V717.424H466.533V708.52H468.453V730.84ZM459.213 724.864H450.357V710.968H459.213V724.864ZM484.226 721.288C484.226 719.656 483.05 718.552 481.418 718.552C479.762 718.552 478.586 719.68 478.586 721.288C478.586 722.944 479.762 724.024 481.418 724.024C483.05 724.024 484.226 722.896 484.226 721.288ZM486.05 721.288C486.05 723.928 484.202 725.632 481.418 725.632C478.658 725.632 476.786 723.784 476.786 721.288C476.786 718.648 478.658 716.944 481.418 716.944C484.202 716.944 486.05 718.672 486.05 721.288ZM486.674 715.528H475.994V713.92H486.674V715.528ZM484.418 712.096H478.514V710.44H484.418V712.096ZM490.802 729.712H488.906V723.448H486.386V721.864H488.906V718.048H486.218V716.464H488.906V709.048H490.802V729.712ZM494.858 730.84H492.938V708.52H494.858V730.84ZM500.664 723.04H515.712V730.84H513.768V724.672H500.664V723.04ZM499.872 718.936H500.496C503.064 718.936 505.632 718.744 507.384 718.36L507.648 719.968C505.464 720.4 502.44 720.592 499.392 720.592H497.952V710.176H506.592V711.784H499.872V714.448H506.232V716.008H499.872V718.936ZM515.712 721.864H513.792V716.008H510.96V721.744H509.088V708.928H510.96V714.376H513.792V708.52H515.712V721.864ZM537.934 727.984H517.774V726.352H526.846V720.904H520.222V710.392H535.534V712H522.166V719.296H535.654V720.904H528.79V726.352H537.934V727.984ZM553.515 718.48V714.832H546.963V718.48H553.515ZM555.459 720.088H545.019V709.792H546.963V713.224H553.515V709.792H555.459V720.088ZM561.603 730.408H547.347V722.872H561.387V724.48H549.315V728.8H561.603V730.408ZM564.747 716.08H561.339V721.504H559.395V708.52H561.339V714.448H564.747V716.08ZM583.417 730.624H567.409V725.32H580.753V723.352H567.361V721.792H582.697V726.784H569.353V729.04H583.417V730.624ZM575.161 710.416C571.657 710.416 569.377 711.304 569.377 712.696C569.377 714.088 571.657 714.952 575.161 714.952C578.689 714.952 580.993 714.088 580.993 712.696C580.993 711.304 578.689 710.416 575.161 710.416ZM582.961 712.696C582.961 715.144 580.009 716.56 575.161 716.56C570.361 716.56 567.385 715.144 567.385 712.696C567.385 710.248 570.361 708.832 575.161 708.832C580.009 708.832 582.961 710.248 582.961 712.696ZM585.217 719.8H565.057V718.168H585.217V719.8ZM610.806 717.088L609.87 718.744C606.534 718.072 602.886 715.96 601.542 713.368C600.462 715.96 596.646 718.144 593.262 718.816L592.326 717.136C596.598 716.584 600.534 713.752 600.534 710.704V709.288H602.574V710.704C602.574 713.752 606.87 716.608 610.806 717.088ZM602.478 730.864H600.534V722.752H591.462V721.12H611.622V722.752H602.478V730.864ZM71.5085 747.352C69.2765 747.352 67.6205 748.936 67.6205 751.12C67.6205 753.352 69.2765 754.864 71.5085 754.864C73.8365 754.864 75.4205 753.352 75.4205 751.144C75.4205 748.936 73.8605 747.352 71.5085 747.352ZM71.5085 745.768C74.6765 745.768 77.2925 747.904 77.2925 751.12C77.2925 754.408 74.6765 756.448 71.5085 756.448C68.3405 756.448 65.7245 754.408 65.7245 751.144C65.7245 747.904 68.3405 745.768 71.5085 745.768ZM76.0925 763.816L74.7485 765.136C73.6445 764.56 72.4445 763.408 71.9165 762.184C71.3885 763.864 69.4205 766.024 67.5005 766.936L66.3245 765.544C68.6045 764.56 70.8605 762.112 70.8605 759.4V758.296H72.7805V759.232C72.7805 761.584 74.3645 763.144 76.0925 763.816ZM84.3725 766.888H84.3485C82.8365 766.144 80.8205 764.2 80.2685 762.592C79.7165 764.272 77.8445 766.288 76.0445 767.176L74.8205 765.88C77.2205 764.704 79.2845 762.28 79.2845 759.568V758.224H81.2045V759.496C81.2045 762.256 83.4365 764.704 85.5485 765.496L84.3725 766.888ZM83.4125 757.48H81.4685V744.52H83.4125V757.48ZM101.699 764.92V762.256H90.5866V764.92H101.699ZM103.643 766.528H88.6426V758.08H90.5866V760.672H101.699V758.056H103.643V766.528ZM106.211 756.496H86.0506V754.864H106.211V756.496ZM105.155 751.408L104.243 753.088C100.859 752.464 97.2346 750.328 96.1546 748.024C95.1706 750.328 91.4746 752.44 88.0906 753.088L87.1786 751.408C90.6826 751.024 95.1466 748.648 95.1466 745.504V744.784H97.1626V745.504C97.1626 748.648 101.723 751.024 105.155 751.408ZM120.825 758.632L121.017 760.312C118.425 760.912 112.617 761.344 109.185 761.344H108.201V746.848H110.145V759.64C113.025 759.64 118.161 759.232 120.825 758.632ZM125.025 744.52V766.84H123.105V744.52H125.025ZM130.639 759.712H131.935C134.815 759.712 139.231 759.448 141.367 758.992L141.583 760.6C139.183 761.056 134.767 761.368 130.879 761.368H128.695V746.848H139.279V748.48H130.639V759.712ZM145.015 744.52V753.376H148.639V755.008H145.015V766.84H143.095V744.52H145.015ZM148.805 764.608V762.328H151.013V764.608H148.805Z" fill="#2E2F3E"/>
<path d="M221.742 132.44V112.792L217.678 113.688V111.608L223.406 109.016H225.294V132.44H221.742ZM235.656 132.696C232.968 132.696 230.568 131.96 229.096 131.032L229.736 128.28C231.016 129.048 233 129.784 234.824 129.784C238.216 129.784 240.264 127.992 240.264 125.016C240.264 121.816 238.344 120.536 234.952 120.536C233.448 120.536 231.304 121.208 230.216 121.72L231.08 109.24H242.952V112.088H233.8L233.384 118.328C234.216 118.104 235.528 117.88 236.424 117.88C241.096 117.88 243.912 120.184 243.912 125.048C243.912 129.272 240.84 132.696 235.656 132.696ZM256.298 119.896V111.256H249.194V119.896H256.298ZM259.786 122.648H245.706V108.504H259.786V122.648ZM269.194 135.48H248.906V125.848H252.394V132.664H269.194V135.48ZM268.298 106.072V114.872H272.746V117.784H268.298V128.056H264.778V106.072H268.298ZM286.055 112.408C286.055 110.808 284.487 109.464 281.991 109.464C279.463 109.464 277.863 110.808 277.863 112.408C277.863 113.976 279.463 115.288 281.991 115.288C284.487 115.288 286.055 113.976 286.055 112.408ZM284.679 127.928H281.159V122.424C278.343 122.552 275.527 122.616 272.711 122.648L272.231 119.768C275.687 119.768 278.983 119.736 282.311 119.608C286.407 119.448 289.607 119.224 292.295 118.904L292.519 121.496C289.927 121.816 287.303 122.04 284.679 122.232V127.928ZM298.503 135.64H276.519V126.712H280.007V132.824H298.503V135.64ZM288.551 126.232V123.672H294.471V106.072H297.959V129.464H294.471V126.232H288.551ZM289.511 112.408C289.511 115.704 286.375 117.944 281.991 117.944C277.607 117.944 274.375 115.736 274.375 112.344C274.375 109.112 277.607 106.776 281.991 106.776C286.375 106.776 289.511 109.112 289.511 112.408ZM320.814 119.064C320.814 114.2 319.022 111.288 316.43 111.288C313.87 111.288 312.11 114.2 312.11 119.064C312.11 123.928 313.87 126.84 316.43 126.84C319.022 126.84 320.814 123.928 320.814 119.064ZM308.686 119.064C308.686 112.664 311.566 108.44 316.43 108.44C321.294 108.44 324.142 112.664 324.142 119.096C324.142 125.464 321.294 129.656 316.43 129.656C311.566 129.656 308.686 125.464 308.686 119.064ZM332.75 136.408H329.262V106.072H332.75V136.408ZM353.195 119.576L351.179 122.296C348.683 121.24 345.579 118.712 344.267 115.832C343.339 119 340.171 121.816 337.131 123.096L334.987 120.344C339.339 118.584 342.443 114.968 342.443 110.296V107.416H346.027V110.136C346.027 114.872 349.739 118.424 353.195 119.576ZM356.011 130.392C356.011 128.344 353.515 127.16 349.259 127.16C345.067 127.16 342.603 128.344 342.603 130.392C342.603 132.408 345.067 133.592 349.259 133.592C353.515 133.592 356.011 132.408 356.011 130.392ZM359.595 130.392C359.595 134.008 355.787 136.408 349.259 136.408C342.795 136.408 339.019 134.008 339.019 130.392C339.019 126.712 342.795 124.312 349.259 124.312C355.787 124.312 359.595 126.712 359.595 130.392ZM363.627 116.344H359.179V124.024H355.691V106.072H359.179V113.432H363.627V116.344ZM374.289 107.832H394.609C394.609 112.888 394.321 117.144 393.585 120.76H398.225V123.576H386.225V136.408H382.737V123.576H370.833V120.76H390.225C390.801 118.072 391.057 114.2 391.089 110.68H374.289V107.832ZM408.495 125.656V112.504H402.959V125.656H408.495ZM424.239 136.408H420.879V121.048H417.999V134.968H414.703V106.68H417.999V118.136H420.879V106.072H424.239V136.408ZM411.791 109.752V128.376H399.663V109.752H411.791ZM445.004 126.776L442.924 129.4C440.332 127.736 437.1 123.992 435.98 120.664C434.956 124.248 431.916 128.056 428.588 130.072L426.444 127.512C431.148 124.472 434.124 119.448 434.124 113.656V108.696H437.74V113.464C437.74 119.288 440.556 123.992 445.004 126.776ZM451.5 136.408H448.012V106.072H451.5V136.408ZM248.876 170.888L246.86 173.64C244.3 172.584 241.196 169.8 239.852 166.888C238.924 170.056 235.66 173.288 232.684 174.472L230.54 171.72C234.828 170.056 238.028 165.992 238.028 161.288V157.768H241.612V161.128C241.612 165.928 245.356 169.704 248.876 170.888ZM256.556 185.544H236.108V176.104H239.596V182.728H256.556V185.544ZM252.396 166.024H246.892V163.112H252.396V156.072H255.916V178.088H252.396V166.024ZM285.706 183.976L284.01 186.728C279.882 185.928 275.434 182.856 274.026 180.104C272.874 182.92 268.426 185.992 264.042 186.696L262.378 183.944C267.274 183.4 272.298 179.88 272.298 175.56V174.6H275.914V175.56C275.914 179.88 281.066 183.208 285.706 183.976ZM273.994 170.504L272.234 173.032C270.154 172.04 267.338 169.544 266.57 167.464C265.738 169.832 263.338 172.744 260.586 174.152L258.602 171.72C262.25 169.736 264.746 166.152 264.746 161.8V158.312H268.138V161.736C268.138 166.056 270.986 169.064 273.994 170.504ZM278.538 173.224H275.242V165.736H271.53V162.824H275.242V156.616H278.538V173.224ZM284.298 175.976H280.97V156.072H284.298V175.976ZM314.352 166.504V160.168H300.976V166.504H314.352ZM309.36 186.44H305.872V176.232H293.968V173.416H321.36V176.232H309.36V186.44ZM317.84 157.352V169.32H297.488V157.352H317.84ZM345.997 172.712H325.325V158.792H345.709V161.576H328.813V169.928H345.997V172.712ZM349.197 179.592V182.376H321.805V179.592H349.197ZM370.283 180.904C370.283 179.176 367.627 178.12 363.339 178.12C359.083 178.12 356.427 179.176 356.427 180.904C356.427 182.632 359.083 183.592 363.339 183.592C367.627 183.592 370.283 182.632 370.283 180.904ZM373.867 180.872C373.867 184.264 370.027 186.408 363.371 186.408C356.651 186.408 352.843 184.264 352.843 180.872C352.843 177.512 356.651 175.304 363.339 175.304C370.027 175.304 373.867 177.48 373.867 180.872ZM373.771 167.272H353.259V156.904H373.547V159.72H356.747V164.488H373.771V167.272ZM377.035 170.12V172.904H349.643V170.12H377.035ZM405.489 180.776C405.489 179.048 402.833 178.024 398.545 178.024C394.289 178.024 391.633 179.048 391.633 180.776C391.633 182.536 394.289 183.496 398.545 183.496C402.833 183.496 405.489 182.536 405.489 180.776ZM412.241 170.536V173.352H384.849V170.536H412.241ZM410.897 165.864L409.361 168.616C404.817 168.072 400.209 165.512 398.577 162.632C397.169 165.608 392.817 168.104 387.793 168.648L386.289 165.896C391.057 165.608 395.601 163.464 396.593 160.104H387.601V157.288H409.553V160.104H400.625C401.745 163.464 406.801 165.608 410.897 165.864ZM409.073 180.776C409.073 184.104 405.233 186.312 398.577 186.312C391.857 186.312 388.049 184.104 388.049 180.776C388.049 177.448 391.857 175.208 398.545 175.208C405.233 175.208 409.073 177.448 409.073 180.776ZM427.567 177.288C423.375 177.288 420.879 178.44 420.879 180.456C420.879 182.44 423.375 183.592 427.567 183.592C431.855 183.592 434.319 182.44 434.319 180.456C434.319 178.44 431.855 177.288 427.567 177.288ZM429.231 166.344V163.432H434.159V156.072H437.679V174.312H434.159V166.344H429.231ZM413.743 160.904V158.024H429.711V160.904H423.631V161.032C423.631 165.544 427.023 168.872 430.543 169.96L428.623 172.744C426.127 171.752 423.151 169.352 421.839 166.536C420.943 169.48 417.679 172.456 414.671 173.608L412.559 170.888C416.815 169.32 420.047 165.672 420.047 161.192V160.904H413.743ZM437.903 180.456C437.903 184.04 434.127 186.408 427.567 186.408C421.039 186.408 417.295 184.04 417.295 180.456C417.295 176.808 421.039 174.44 427.567 174.44C434.127 174.44 437.903 176.808 437.903 180.456Z" fill="#2E2F3E"/>
<rect x="255" width="160" height="56" rx="28" fill="#FCEE21"/>
<path d="M300.423 37.024C295.119 37.288 292.047 34.408 292.047 27.4C292.047 20.392 295.191 17.176 300.495 16.912C303.039 16.768 304.959 17.272 306.711 19.072C306.207 20.056 305.367 21.064 304.599 21.688C303.639 20.752 302.247 20.272 300.495 20.368C297.567 20.512 295.743 22.36 295.743 27.208C295.743 32.032 297.495 33.688 300.423 33.544C302.031 33.448 303.327 32.896 303.927 32.32C303.927 31.192 303.927 30.04 303.951 28.816C303.015 28.912 301.815 28.984 300.831 28.984C300.735 28.216 300.735 26.44 300.831 25.672C303.063 25.48 305.367 25.36 307.455 25.336C307.479 27.448 307.503 31.024 307.455 33.424C305.967 35.584 303.543 36.856 300.423 37.024ZM310.111 37.072C310.015 33.28 310.015 21.976 310.111 17.608C310.975 17.44 312.775 17.344 313.735 17.416C313.783 21.64 313.783 32.92 313.735 36.88C312.511 37.072 311.215 37.144 310.111 37.072ZM329.078 20.392C328.142 20.488 321.518 20.824 320.534 20.824C320.558 21.832 320.582 23.584 320.582 25.6C323.126 25.408 327.23 25.216 328.022 25.24C328.118 26.416 328.118 27.544 328.022 28.672C327.23 28.768 323.15 28.984 320.582 29.104C320.582 32.32 320.558 35.488 320.534 36.856C319.502 37.072 317.822 37.144 316.742 37.072C316.694 33.064 316.694 21.64 316.742 17.608C318.902 17.416 327.182 16.984 329.078 16.96C329.198 17.824 329.174 19.504 329.078 20.392ZM343.755 16.936C343.851 18.16 343.851 18.928 343.755 20.32C342.579 20.416 340.779 20.536 338.811 20.632C338.859 24.808 338.859 35.488 338.787 36.664C337.563 36.88 336.195 36.952 335.091 36.856C335.019 35.896 335.019 25.096 335.067 20.824C333.171 20.92 331.395 20.992 330.099 21.04C330.027 19.912 330.027 18.64 330.099 17.656C333.483 17.392 340.587 17.008 343.755 16.936ZM356.943 37.096C352.431 37.336 350.103 34.768 350.103 27.4C350.103 20.032 352.359 17.224 356.943 16.984C361.167 16.768 363.783 18.928 363.783 26.68C363.783 34.36 361.287 36.88 356.943 37.096ZM356.943 33.664C359.079 33.544 360.063 32.152 360.063 26.872C360.063 21.352 358.911 20.32 356.943 20.416C354.759 20.536 353.823 22.072 353.823 27.208C353.823 32.416 354.831 33.784 356.943 33.664ZM365.455 37.096C365.383 35.944 365.383 34.912 365.455 33.76C367.975 31.24 370.495 28.504 372.055 26.632C373.567 24.808 373.855 23.992 373.855 22.768C373.855 21.328 372.967 20.392 371.383 20.464C369.919 20.536 369.079 21.352 368.455 22.624C367.495 22.36 366.151 21.616 365.335 20.992C366.583 18.52 368.551 17.176 371.383 17.032C375.439 16.816 377.551 19.048 377.551 22.264C377.551 24.376 377.047 26.128 375.007 28.576C374.119 29.656 372.511 31.432 370.567 33.424C372.343 33.28 376.423 33.064 377.887 33.04C377.959 34.072 377.959 35.584 377.887 36.448C376.399 36.616 367.375 37.096 365.455 37.096Z" fill="#2E2F3E"/>
</svg>
