<svg width="590" height="98" viewBox="0 0 590 98" fill="none" xmlns="http://www.w3.org/2000/svg">
<rect width="590" height="98" rx="16" fill="#2E2F3E"/>
<path d="M193.157 45.5C193.157 40.136 191.213 36.896 188.585 36.896C186.029 36.896 184.121 40.136 184.121 45.5C184.121 50.864 186.029 54.068 188.585 54.068C191.213 54.068 193.157 50.864 193.157 45.5ZM179.729 45.5C179.729 38.336 183.041 33.296 188.585 33.296C194.165 33.296 197.441 38.336 197.441 45.536C197.441 52.628 194.165 57.668 188.585 57.668C183.041 57.668 179.729 52.664 179.729 45.5ZM206.153 30.956V44.06H211.229V47.768H206.153V65.084H201.617V30.956H206.153ZM228.758 53.6L226.202 56.768C223.97 55.4 220.91 51.98 220.01 48.632C219.074 52.196 216.482 55.724 213.314 57.632L210.686 54.572C215.006 51.764 217.814 46.616 217.814 39.344V34.268H222.134V39.308C222.134 45.932 224.618 51.116 228.758 53.6ZM233.726 63.5H229.55V46.364H224.942V42.728H229.55V31.604H233.726V63.5ZM240.53 65.084H236.282V30.956H240.53V65.084ZM259.391 52.772L259.715 56.264C254.531 57.128 249.635 57.38 243.551 57.38C243.335 56.156 243.191 54.716 242.975 53.492H246.251L245.459 40.964C246.899 40.82 248.339 40.604 249.779 40.424L250.247 53.42L252.659 53.348C252.839 49.064 253.019 44.816 253.235 40.496L257.411 40.964C257.087 45.068 256.799 49.064 256.439 53.096C257.555 53.024 258.527 52.916 259.391 52.772ZM266.303 63.5H262.055V47.804H258.419V44.168H262.055V31.604H266.303V63.5ZM272.567 65.084H268.319V30.956H272.567V65.084ZM259.427 38.588H243.695V35.06H259.427V38.588ZM315.414 60.836H284.598V57.308H297.666V49.208H302.166V57.308H315.414V60.836ZM314.55 46.112L312.426 49.604C307.782 48.56 301.95 44.996 300.006 40.496C298.242 45.104 292.266 48.596 287.586 49.604L285.534 45.968C291.114 45.176 297.702 40.892 297.702 34.808V32.72H302.382V34.808C302.382 40.82 309.366 45.248 314.55 46.112ZM338.884 41.036V35.816H325.204V41.036H338.884ZM343.888 64.184H320.596V54.392H325.06V60.656H343.888V64.184ZM334.6 57.632H330.1V51.332H316.636V47.768H347.452V51.332H334.6V57.632ZM343.384 32.252V44.6H320.704V32.252H343.384ZM363.973 51.44L364.549 55.04C362.749 55.58 357.277 56.048 353.209 56.048H350.149V34.952H354.577V52.34C357.889 52.34 361.885 52.052 363.973 51.44ZM377.653 65.084H373.405V48.02H370.129V63.5H365.953V31.568H370.129V44.42H373.405V30.956H377.653V65.084ZM382.51 34.52H398.422C398.17 44.816 393.598 53.24 383.194 58.928L380.422 55.544C387.91 52.16 392.986 45.032 393.598 38.228H382.51V34.52ZM408.934 65.084H404.434V30.956H408.934V65.084Z" fill="white"/>
</svg>
