<svg width="421" height="333" viewBox="0 0 421 333" fill="none" xmlns="http://www.w3.org/2000/svg">
<g filter="url(#filter0_b_96_19)">
<path d="M233.446 149.806L92.7031 166.783L136.09 302.6L231.33 332.311L364.666 300.478L409.111 156.172L233.446 149.806Z" fill="#ABADCE"/>
</g>
<g opacity="0.7" filter="url(#filter1_b_96_19)">
<path d="M233.403 149.784L92.6602 166.761L136.047 302.579L231.287 332.289L364.623 300.456L409.068 156.15L233.403 149.784Z" stroke="white" stroke-linejoin="round"/>
</g>
<path d="M231.183 332.212L135.939 302.9L253.162 285.103L364.105 300.806L231.183 332.212Z" fill="white" fill-opacity="0.4"/>
<path d="M234.787 227.413C237.674 231.669 236.986 237.31 233.408 240.792C232.635 241.544 232.518 242.745 233.121 243.634L251.651 270.957C253.031 272.992 255.803 273.515 257.844 272.124L386.464 184.474C388.505 183.083 389.04 180.308 387.659 178.272L369.13 150.949C368.527 150.06 367.372 149.726 366.387 150.171C361.842 152.225 356.355 150.792 353.469 146.536C350.583 142.28 351.271 136.639 354.847 133.155C355.62 132.402 355.737 131.201 355.134 130.312L336.604 102.99C335.224 100.954 332.452 100.432 330.411 101.823L201.791 189.472C199.75 190.863 199.215 193.639 200.596 195.674L219.125 222.997C219.728 223.886 220.883 224.22 221.868 223.775C226.413 221.721 231.9 223.155 234.787 227.413Z" fill="#CB0016"/>
<path d="M292.943 163.134L317.383 146.479L322.783 154.441L314.719 159.937L326.951 177.974L335.424 172.2L335.935 183.494L323.268 192.126L305.636 166.127L298.345 171.095L292.945 163.133L292.943 163.134Z" fill="white"/>
<path d="M281.673 193.029C284.28 191.252 285.684 189.285 285.709 186.772L295.117 180.361L309.47 201.525L280.959 220.954L275.56 212.992L294.662 199.974L291.66 195.547C290.476 197.839 288.784 199.825 285.567 202.017C277.299 207.651 269.029 206.872 263.877 199.276C258.726 191.68 260.598 183.989 270.821 177.022C281.044 170.055 289.005 171.342 292.917 177.112L283.509 183.523C282.242 181.655 279.927 182.458 276.221 184.984C272.798 187.317 271.247 189.859 273.285 192.865C275.324 195.87 278.253 195.359 281.675 193.027L281.673 193.029Z" fill="white"/>
<path d="M262.512 208.127C260.591 209.436 258.811 208.753 257.202 206.381C255.593 204.009 255.613 202.096 257.534 200.787C259.456 199.477 261.236 200.16 262.846 202.535C264.456 204.909 264.433 206.817 262.512 208.127ZM254.542 194.592L256.78 211.817L253.632 213.962L251.395 196.737L254.542 194.592ZM261.052 205.973C261.481 205.681 261.473 205.255 260.644 204.032C259.814 202.809 259.423 202.645 258.993 202.938C258.564 203.23 258.572 203.656 259.401 204.879C260.231 206.102 260.622 206.266 261.052 205.973ZM250.643 207.766C248.721 209.076 246.941 208.393 245.331 206.018C243.721 203.644 243.743 201.736 245.665 200.426C247.586 199.117 249.366 199.8 250.975 202.172C252.583 204.544 252.564 206.457 250.643 207.766ZM249.184 205.615C249.613 205.322 249.605 204.897 248.776 203.674C247.946 202.451 247.555 202.287 247.125 202.58C246.696 202.872 246.704 203.298 247.533 204.521C248.363 205.744 248.754 205.908 249.184 205.615Z" fill="white"/>
<path d="M240.742 224.38C246.058 225.51 249.659 230.318 249.476 235.597C249.437 236.737 250.226 237.739 251.336 237.975L285.461 245.231C288.004 245.772 290.501 244.138 291.041 241.58L325.071 80.4163C325.614 77.8593 323.992 75.3498 321.45 74.8092L287.325 67.5537C286.214 67.3176 285.089 67.9096 284.663 68.971C282.697 73.8706 277.462 76.7996 272.146 75.6694C266.831 74.5393 263.23 69.7316 263.41 64.4521C263.447 63.3082 262.657 62.3089 261.547 62.0729L227.422 54.8173C224.879 54.2767 222.382 55.9104 221.842 58.468L187.812 219.632C187.272 222.19 188.894 224.699 191.436 225.24L225.561 232.495C226.671 232.731 227.797 232.139 228.223 231.078C230.189 226.178 235.424 223.249 240.742 224.38Z" fill="#0FB87E"/>
<path d="M269.018 130.678C271.96 131.304 273.668 129.748 274.815 124.555C275.986 119.262 275.105 117.156 272.163 116.53L270.742 116.227L273.228 104.444L274.548 104.725C284.44 106.83 287.58 113.309 284.609 127.389C281.875 140.346 275.968 144.472 266.433 142.443C256.898 140.414 254.079 134.163 256.741 120.553C257.787 115.339 257.047 113.317 253.65 112.594L252.788 112.41L247.524 137.356L237.581 135.24L245.331 98.5116L256.137 100.811C266.132 102.937 269.051 108.941 266.317 121.898C265.08 127.764 265.928 130.023 269.023 130.682L269.018 130.678Z" fill="white"/>
<path d="M231.429 159.273C234.281 145.754 244.002 140.893 257.9 143.85C271.798 146.807 278.72 155.209 275.867 168.728C273.015 182.246 263.294 187.108 249.396 184.151C235.498 181.194 228.576 172.791 231.429 159.273ZM265.927 166.613C267.132 160.901 264.126 157.06 255.502 155.226C246.879 153.391 242.581 155.674 241.375 161.389C240.169 167.104 243.176 170.942 251.799 172.776C260.422 174.611 264.721 172.328 265.927 166.613Z" fill="white"/>
<path d="M247.785 189.367C247.278 191.773 245.42 192.557 242.457 191.926C239.495 191.296 238.11 189.823 238.618 187.416C239.126 185.01 240.983 184.226 243.949 184.857C246.915 185.488 248.293 186.96 247.785 189.367ZM231.804 184.884L246.113 196.382L245.281 200.325L230.972 188.827L231.804 184.884ZM245.096 188.794C245.209 188.256 244.892 187.938 243.365 187.613C241.837 187.288 241.418 187.45 241.305 187.988C241.191 188.526 241.509 188.844 243.036 189.169C244.564 189.494 244.982 189.332 245.096 188.794ZM238.467 197.79C237.959 200.196 236.102 200.98 233.136 200.349C230.171 199.718 228.792 198.246 229.3 195.839C229.808 193.433 231.665 192.649 234.628 193.28C237.591 193.91 238.975 195.383 238.467 197.79ZM235.78 197.218C235.894 196.68 235.576 196.362 234.049 196.037C232.522 195.712 232.103 195.874 231.989 196.412C231.876 196.95 232.193 197.268 233.721 197.593C235.248 197.918 235.667 197.756 235.78 197.218Z" fill="white"/>
<path d="M240.014 196.027C244.044 191.494 250.68 190.66 255.682 193.761C256.762 194.431 258.167 194.22 259.009 193.273L284.881 164.163C286.808 161.994 286.609 158.666 284.435 156.725L147.466 34.4331C145.292 32.4923 141.97 32.6771 140.042 34.8459L114.173 63.9537C113.331 64.9007 113.281 66.3214 114.072 67.3223C117.721 71.9446 117.659 78.6484 113.63 83.1824C109.6 87.7163 102.963 88.5495 97.96 85.4508C96.8771 84.7787 95.4726 84.9944 94.6309 85.9415L68.7612 115.049C66.8336 117.218 67.0329 120.547 69.2066 122.487L206.176 244.779C208.35 246.72 211.672 246.535 213.599 244.366L239.469 215.259C240.311 214.312 240.361 212.891 239.57 211.89C235.921 207.268 235.982 200.564 240.014 196.027Z" fill="#FF3046"/>
<path d="M130.031 110.71L131.455 109.108L141.473 118.052L139.973 119.74C138.01 121.949 138.934 124.323 143.921 128.775C148.561 132.918 150.937 133.486 153.052 131.106C155.167 128.726 154.206 126.393 149.261 121.978L144.274 117.526L151.429 109.476L156.415 113.928C161.402 118.381 163.744 119.076 165.898 116.652C168.052 114.228 167.177 111.972 162.537 107.829C157.55 103.377 155.089 102.732 153.128 104.938L151.628 106.626L141.61 97.6817L143.034 96.0795C149.303 89.0256 157.979 88.5431 169.645 98.9586C181.31 109.374 182.345 118.368 175.997 125.51C173.383 128.452 169.597 131.049 165.203 128.991C167.751 133.127 165.574 137.238 162.996 140.138C156.727 147.192 148.009 147.637 136.385 137.259C124.762 126.881 123.685 117.85 130.033 110.708L130.031 110.71Z" fill="white"/>
<path d="M171.942 169.009C160.448 158.747 161.118 146.615 171.655 134.759C182.192 122.904 194.139 120.84 205.632 131.102C217.125 141.364 216.455 153.496 205.919 165.351C195.382 177.207 183.435 179.271 171.942 169.009ZM198.096 139.581C193.239 135.245 187.866 136.036 181.328 143.392C174.791 150.747 174.623 156.186 179.482 160.525C184.341 164.863 189.712 164.07 196.25 156.714C202.787 149.358 202.955 143.919 198.096 139.581Z" fill="white"/>
<path d="M210.052 169.78C212.098 171.606 211.829 173.844 209.583 176.371C207.337 178.898 205.148 179.426 203.102 177.599C201.056 175.772 201.325 173.535 203.573 171.005C205.821 168.476 208.006 167.953 210.052 169.78ZM196.89 182.812L215.91 175.291L219.261 178.284L200.242 185.804L196.89 182.812ZM208.013 172.074C207.556 171.665 207.072 171.797 205.914 173.1C204.757 174.403 204.682 174.899 205.139 175.307C205.596 175.716 206.08 175.584 207.237 174.281C208.395 172.978 208.47 172.482 208.013 172.074ZM213.047 183.494C215.093 185.321 214.824 187.559 212.576 190.088C210.328 192.618 208.143 193.14 206.098 191.314C204.052 189.487 204.32 187.25 206.566 184.723C208.812 182.195 211.001 181.668 213.047 183.494ZM211.01 185.786C210.553 185.378 210.07 185.51 208.912 186.812C207.754 188.115 207.679 188.611 208.136 189.02C208.594 189.428 209.077 189.296 210.235 187.994C211.393 186.691 211.468 186.194 211.01 185.786Z" fill="white"/>
<g filter="url(#filter2_b_96_19)">
<path d="M92.7031 166.684L221.376 194.288L230.868 332.309L135.946 302.582L92.7031 166.684Z" fill="#DEDEDE" fill-opacity="0.7"/>
</g>
<g filter="url(#filter3_b_96_19)">
<path d="M231.356 332.164L221.811 194.196L409.546 155.989L364.998 300.326L231.356 332.164Z" fill="white" fill-opacity="0.7"/>
</g>
<g filter="url(#filter4_b_96_19)">
<path d="M92.6602 166.664L221.333 194.268L230.825 332.289L135.903 302.562L92.6602 166.664Z" stroke="white" stroke-linejoin="round"/>
</g>
<g filter="url(#filter5_b_96_19)">
<path d="M231.017 332.028L221.471 194.06L409.206 155.853L364.659 300.189L231.017 332.028Z" stroke="white" stroke-linejoin="round"/>
</g>
<path d="M394.328 30.9385C396.231 29.4612 398.697 27.2403 401.463 25.4811C406.138 22.5065 410.653 23.3399 413.569 27.3766C416.251 31.091 415.533 35.4403 411.237 38.8835C406.542 42.6494 401.51 45.9988 396.78 49.7251C385.892 58.3057 376.97 68.6168 370.12 80.6918C369.492 81.7992 368.811 82.8989 367.988 83.8639C367.209 84.7777 366.065 84.9299 364.983 84.4214C364.076 83.9976 363.701 83.1304 363.817 82.1494C363.944 81.064 364.055 79.9537 364.385 78.9234C370.201 60.6982 378.879 44.2318 394.331 30.9393L394.328 30.9385Z" fill="#FF3046"/>
<path d="M55.9206 155.671C43.1618 150.105 29.6971 147.511 15.9776 145.957C14.2922 145.766 12.6032 145.603 10.9361 145.303C4.70353 144.167 1.29511 139.597 2.58216 134.18C3.76673 129.213 9.0263 126.239 14.7375 128.183C22.2165 130.733 29.6354 133.623 36.7281 137.082C46.8641 142.029 57.0109 147.076 65.9499 154.12C67.2758 155.167 68.5229 156.329 69.7082 157.535C70.6493 158.493 71.5259 159.671 70.3015 160.96C69.3651 161.943 68.2264 161.427 67.1769 160.935C63.4279 159.177 59.6701 157.426 55.9206 155.671Z" fill="#FF3046"/>
<path d="M417.971 85.9055C416.529 87.9514 414.303 88.9475 411.656 89.0414C399.627 89.4679 387.896 91.644 376.363 95.002C374.802 95.4554 373.052 96.1528 372.042 94.229C371.004 92.2636 372.595 91.2816 373.944 90.3463C385.053 82.6347 397.724 78.663 410.605 75.2688C413.354 74.5444 415.856 75.6463 417.537 78.1276C419.019 80.3153 419.261 83.6905 417.974 85.9062L417.971 85.9055Z" fill="#FF3046"/>
<path d="M203.089 40.6004C202.925 43.0152 202.729 44.1645 201.417 44.5248C200.058 44.8987 199.285 43.9597 198.807 42.9247C195.423 35.6231 190.864 29.1123 185.833 22.852C183.751 20.2617 184.262 17.3524 187.172 15.366C189.904 13.5031 193.041 13.3851 194.877 16.1745C199.974 23.9136 202.71 32.5325 203.085 40.5999L203.089 40.6004Z" fill="#FF3046"/>
<path d="M186.576 6.95843C185.709 10.5525 183.675 12.5573 180.094 12.1681C176.476 11.7767 174.714 9.28554 175.054 5.85178C175.402 2.31345 177.929 0.44723 181.385 0.824616C184.865 1.20551 186.518 3.6395 186.576 6.95843Z" fill="#FF3046"/>
<defs>
<filter id="filter0_b_96_19" x="42.7031" y="99.8057" width="416.408" height="282.505" filterUnits="userSpaceOnUse" color-interpolation-filters="sRGB">
<feFlood flood-opacity="0" result="BackgroundImageFix"/>
<feGaussianBlur in="BackgroundImageFix" stdDeviation="25"/>
<feComposite in2="SourceAlpha" operator="in" result="effect1_backgroundBlur_96_19"/>
<feBlend mode="normal" in="SourceGraphic" in2="effect1_backgroundBlur_96_19" result="shape"/>
</filter>
<filter id="filter1_b_96_19" x="42.1602" y="99.2837" width="417.408" height="283.505" filterUnits="userSpaceOnUse" color-interpolation-filters="sRGB">
<feFlood flood-opacity="0" result="BackgroundImageFix"/>
<feGaussianBlur in="BackgroundImageFix" stdDeviation="25"/>
<feComposite in2="SourceAlpha" operator="in" result="effect1_backgroundBlur_96_19"/>
<feBlend mode="normal" in="SourceGraphic" in2="effect1_backgroundBlur_96_19" result="shape"/>
</filter>
<filter id="filter2_b_96_19" x="84.7031" y="158.684" width="154.164" height="181.626" filterUnits="userSpaceOnUse" color-interpolation-filters="sRGB">
<feFlood flood-opacity="0" result="BackgroundImageFix"/>
<feGaussianBlur in="BackgroundImageFix" stdDeviation="4"/>
<feComposite in2="SourceAlpha" operator="in" result="effect1_backgroundBlur_96_19"/>
<feBlend mode="normal" in="SourceGraphic" in2="effect1_backgroundBlur_96_19" result="shape"/>
</filter>
<filter id="filter3_b_96_19" x="213.811" y="147.989" width="203.734" height="192.175" filterUnits="userSpaceOnUse" color-interpolation-filters="sRGB">
<feFlood flood-opacity="0" result="BackgroundImageFix"/>
<feGaussianBlur in="BackgroundImageFix" stdDeviation="4"/>
<feComposite in2="SourceAlpha" operator="in" result="effect1_backgroundBlur_96_19"/>
<feBlend mode="normal" in="SourceGraphic" in2="effect1_backgroundBlur_96_19" result="shape"/>
</filter>
<filter id="filter4_b_96_19" x="84.1602" y="158.164" width="155.164" height="182.626" filterUnits="userSpaceOnUse" color-interpolation-filters="sRGB">
<feFlood flood-opacity="0" result="BackgroundImageFix"/>
<feGaussianBlur in="BackgroundImageFix" stdDeviation="4"/>
<feComposite in2="SourceAlpha" operator="in" result="effect1_backgroundBlur_96_19"/>
<feBlend mode="normal" in="SourceGraphic" in2="effect1_backgroundBlur_96_19" result="shape"/>
</filter>
<filter id="filter5_b_96_19" x="212.971" y="147.353" width="204.734" height="193.175" filterUnits="userSpaceOnUse" color-interpolation-filters="sRGB">
<feFlood flood-opacity="0" result="BackgroundImageFix"/>
<feGaussianBlur in="BackgroundImageFix" stdDeviation="4"/>
<feComposite in2="SourceAlpha" operator="in" result="effect1_backgroundBlur_96_19"/>
<feBlend mode="normal" in="SourceGraphic" in2="effect1_backgroundBlur_96_19" result="shape"/>
</filter>
</defs>
</svg>
