<svg width="750" height="1408" viewBox="0 0 750 1408" fill="none" xmlns="http://www.w3.org/2000/svg">
<rect width="750" height="1362" fill="#C7DBF3"/>
<path d="M750 1393.7C731.171 1412.77 700.647 1412.77 681.818 1393.7C662.989 1374.63 632.465 1374.63 613.636 1393.7C594.808 1412.77 564.283 1412.77 545.455 1393.7C526.626 1374.63 496.102 1374.63 477.273 1393.7C458.444 1412.77 427.92 1412.77 409.091 1393.7C390.262 1374.63 359.738 1374.63 340.909 1393.7C322.08 1412.77 291.556 1412.77 272.727 1393.7C253.898 1374.63 223.374 1374.63 204.546 1393.7C185.717 1412.77 155.193 1412.77 136.364 1393.7C117.535 1374.63 87.0107 1374.63 68.1819 1393.7C49.353 1412.77 18.8288 1412.77 1.25044e-06 1393.7L4.02145e-06 1362L750 1362L750 1393.7Z" fill="#C7DBF3"/>
</svg>
