<svg width="750" height="535" viewBox="0 0 750 535" fill="none" xmlns="http://www.w3.org/2000/svg">
<rect y="17" width="750" height="518" fill="#2E2F3E"/>
<path d="M750 31.6966C731.171 50.7678 700.647 50.7678 681.818 31.6966C662.989 12.6254 632.465 12.6254 613.636 31.6966C594.808 50.7678 564.283 50.7678 545.455 31.6966C526.626 12.6254 496.102 12.6254 477.273 31.6966C458.444 50.7678 427.92 50.7678 409.091 31.6966C390.262 12.6254 359.738 12.6254 340.909 31.6966C322.08 50.7678 291.556 50.7678 272.727 31.6966C253.898 12.6254 223.374 12.6254 204.546 31.6966C185.717 50.7678 155.193 50.7677 136.364 31.6965C117.535 12.6253 87.0107 12.6253 68.1819 31.6965C49.353 50.7677 18.8288 50.7677 -1.50812e-05 31.6965L-1.23102e-05 -6.55671e-05L750 0L750 31.6966Z" fill="#CB0016"/>
</svg>
