<svg width="378" height="382" viewBox="0 0 378 382" fill="none" xmlns="http://www.w3.org/2000/svg">
<path d="M12.6562 143.844H36.7188V238.297H93.75V259H12.6562V143.844ZM100.594 143.844H124.5V259H100.594V143.844ZM130.484 143.844H156.188L181.188 231.266L206.422 143.844H231.422L192.125 259H169.391L130.484 143.844ZM317.875 208.688H261.938V238.297H325.688V259H238.422V143.844H322.875V164.234H261.938V188.688H317.875V208.688ZM366.281 173.453L359.953 227.203H348.312L341.828 173.453V144.234H366.281V173.453ZM365.656 236.422V259H342.375V236.422H365.656Z" fill="#2E2F3E"/>
<path d="M119.761 119.92C109.441 129.16 99.6013 139.36 95.4013 144.28C91.6813 148.72 89.2813 151.84 91.0813 152.68C92.8813 153.64 99.2413 149.32 102.601 146.68C106.441 143.68 110.641 140.08 114.121 136.96C114.481 136.6 115.441 136.24 115.561 136.84C115.921 137.56 115.441 138.04 114.961 138.4C111.601 141.4 106.681 145.48 103.681 147.88C100.081 150.76 93.8413 155.08 89.0413 155.08C84.6013 155.08 81.8413 150.88 85.5613 144.4C78.4813 150.64 72.0013 155.44 68.0413 155.08C59.8812 154.36 62.4012 141.16 70.9213 132.64C81.9613 121.36 98.8813 116.32 104.041 119.32C105.721 120.16 106.081 123.04 101.401 127.48C106.201 123.52 108.961 121.6 111.001 121C113.641 120.16 118.201 119.8 119.761 119.92ZM103.081 120.88C100.801 119.08 91.4413 125.08 78.7213 137.2C71.0413 144.4 65.7613 152.08 68.5213 153.28C70.8013 154.36 81.2413 146.92 91.4413 136.48C96.1212 131.8 105.601 122.8 103.081 120.88ZM167.608 119.2C163.288 122.2 156.208 128.56 150.808 134.8C157.768 129.16 172.768 118.12 179.848 118.84C185.368 119.32 184.768 124.12 181.288 129.4C186.208 125.92 197.248 118 203.248 118.84C211.408 119.92 208.768 127.12 198.448 136.48C194.608 139.96 191.368 143.2 188.848 145.84C184.528 150.28 183.808 152.08 185.008 153.04C186.208 153.88 191.128 151.72 195.808 148.36C200.128 145.36 205.528 140.68 208.888 137.68C209.248 137.32 209.848 136.84 210.328 137.44C210.808 138.04 210.208 138.64 209.608 139.24C206.008 142.48 200.608 146.8 196.168 150.04C191.368 153.52 184.408 156.76 179.848 154.96C176.368 153.64 175.648 149.32 179.368 144.16C182.488 139.96 184.768 137.8 189.688 133.24C193.648 129.4 204.208 122.08 201.568 120.64C200.008 119.8 190.648 124.96 182.248 130.72C175.408 135.28 170.608 140.2 167.008 143.56C162.568 147.88 159.568 151.36 156.328 155.56C154.168 155.56 152.128 150.88 153.688 148.24C156.208 143.56 160.768 138.16 166.288 133.24C170.488 129.4 180.928 122.2 178.168 120.64C176.008 119.44 157.168 130.84 149.008 138.52C141.328 145.84 138.088 149.8 133.768 155.56C131.608 155.56 129.688 151 131.128 148.24C133.648 143.56 137.728 137.92 144.568 130.84C148.408 126.64 151.408 124.24 154.288 122.44C158.128 119.92 163.648 119.2 167.608 119.2ZM244.753 119.44C248.593 121.36 246.433 130.48 236.353 140.68C224.952 152.32 215.593 156.4 210.793 155.2C203.592 153.4 202.992 142.12 213.433 131.56C225.673 119.2 239.713 116.8 244.753 119.44ZM244.033 120.88C241.513 118.84 231.553 125.92 220.513 137.32C213.553 144.64 207.913 151.6 211.153 153.52C214.033 155.2 223.152 147.64 234.073 136.6C238.873 131.8 246.193 122.68 244.033 120.88ZM289.804 123.64C289.564 125.32 287.764 126.88 287.164 126.76C286.684 126.64 286.084 126.04 285.364 125.56C284.164 124.84 283.564 124.48 281.644 124.36C275.764 124.12 265.684 130.84 257.524 138.52C249.844 145.84 246.484 149.92 242.284 155.56C240.124 155.56 238.204 151 239.644 148.24C242.164 143.56 246.724 137.44 253.084 130.84C256.924 126.64 259.924 124.24 262.804 122.44C266.644 119.92 272.164 119.2 276.124 119.2C271.084 122.56 264.244 128.56 259.084 134.56L259.444 134.92C266.044 129.16 279.364 118 286.444 119.32C288.964 119.8 289.924 121.48 289.804 123.64ZM315.614 118.96C319.574 121.24 318.014 126.16 313.334 129.52C307.334 133.72 298.334 134.92 295.814 133.72C287.534 140.92 280.694 150.88 284.894 153.04C287.654 154.36 294.134 152.2 298.694 149.2C303.494 146.08 310.694 140.08 314.054 137.08C315.014 136.24 315.254 136.12 315.734 136.6C316.214 137.08 315.734 137.8 315.134 138.28C311.054 141.88 306.494 145.84 301.214 149.44C294.254 154.24 288.854 155.56 284.174 155.2C279.734 154.84 277.934 151.96 277.574 148.48C277.214 145.48 278.774 139 284.414 132.88C293.774 122.68 311.414 116.56 315.614 118.96ZM314.894 120.04C313.454 118.84 302.414 127.24 296.534 133C298.334 133.6 304.334 131.68 309.614 127.48C313.574 124.36 316.214 121 314.894 120.04Z" fill="white"/>
<path d="M134.84 54.664V37.024H145.496V40.24H138.416V43.912H144.656V46.96H138.416V51.472H145.664V54.664H134.84ZM153.327 54.688L147.207 37.024H151.143L155.535 50.56L159.975 37.024H163.815L157.647 54.688H153.327ZM165.426 54.664V37.024H176.082V40.24H169.002V43.912H175.242V46.96H169.002V51.472H176.25V54.664H165.426ZM179.16 54.664V37.024H183.456L189.264 48.736V37.024H192.768V54.664H188.64L182.664 42.688V54.664H179.16ZM203.743 40.336V54.664H200.095V40.336H195.247V37.024H208.615V40.336H203.743ZM224.192 51.808C226.064 51.808 227.168 50.056 227.168 46.24V45.496C227.168 41.536 226.016 39.856 224.216 39.856C222.32 39.856 221.264 41.56 221.264 45.4V46.168C221.264 50.008 222.248 51.808 224.192 51.808ZM224.168 54.928C220.496 54.928 217.424 52.504 217.424 46.36V45.64C217.424 39.136 220.784 36.712 224.24 36.712C227.72 36.712 230.984 39.232 230.984 45.544V46.192C230.984 52.696 227.6 54.928 224.168 54.928ZM233.772 54.664L239.244 40.288H232.14V37H243.444V39.472L237.9 54.664H233.772Z" fill="white"/>
<mask id="mask0_92_1486" style="mask-type:alpha" maskUnits="userSpaceOnUse" x="175" y="0" width="28" height="28">
<circle cx="189" cy="14" r="14" fill="#0F9A6B"/>
</mask>
<g mask="url(#mask0_92_1486)">
<rect x="203" y="11.668" width="4.66667" height="28" transform="rotate(90 203 11.668)" fill="white"/>
<rect x="200.549" y="22.25" width="4.66667" height="28" transform="rotate(135 200.549 22.25)" fill="white"/>
<rect x="197.25" y="2.44922" width="4.66667" height="28" transform="rotate(45 197.25 2.44922)" fill="white"/>
<rect x="191.334" y="28" width="4.66667" height="28" transform="rotate(-180 191.334 28)" fill="white"/>
</g>
<path d="M90.236 325.066H68.51V317.008H86.122V314.254H68.442V311.636H89.318V319.422H71.706V322.448H90.236V325.066ZM82.28 307.08L80.478 309.528C77.656 308.406 74.324 305.754 72.862 302.558C71.91 305.822 68.51 308.984 65.008 310.548L63.07 308.134C67.354 306.468 71.196 302.558 71.196 297.56V294.874H74.46V297.424C74.46 302.49 78.812 305.958 82.28 307.08ZM89.318 309.936H86.122V293.82H89.318V309.936ZM113.013 315.444L111.109 317.824C108.287 315.886 104.649 312.112 103.459 308.44C102.371 312.282 99.2433 316.294 95.6733 318.674L93.6673 316.294C98.4273 313.302 101.793 307.794 101.793 301.98V296.608H105.091V301.844C105.091 307.76 108.661 312.928 113.013 315.444ZM119.983 325.44H116.787V293.82H119.983V325.44ZM125.659 296.37H139.973C139.701 304.972 133.921 311.228 125.659 313.642L124.027 311.024C130.555 309.426 135.587 304.564 136.471 299.022H125.659V296.37ZM149.765 324.59H128.855V314.696H132.051V321.972H149.765V324.59ZM153.573 306.128H148.813V317.11H145.617V293.82H148.813V303.442H153.573V306.128ZM177.438 304.7C177.438 301.504 174.208 299.294 169.278 299.294C164.382 299.294 161.152 301.504 161.152 304.7C161.152 307.93 164.382 310.106 169.278 310.106C174.174 310.106 177.438 307.93 177.438 304.7ZM180.702 304.7C180.702 309.596 176.146 312.894 169.278 312.894C162.41 312.894 157.888 309.596 157.888 304.7C157.888 299.838 162.41 296.506 169.278 296.506C176.18 296.506 180.702 299.838 180.702 304.7ZM183.558 321.156H154.998V318.538H183.558V321.156ZM214.155 321.428H185.595V318.81H198.209V313.812H189.029V303.646H207.423V299.022H188.961V296.404H210.619V306.264H192.225V311.194H211.469V313.812H201.405V318.81H214.155V321.428ZM250.338 307.352H228.646V295.384H231.842V304.734H250.338V307.352ZM240.852 325.474H237.656V314.186H225.042V311.568H253.602V314.186H240.852V325.474ZM275.767 314.288L276.107 316.94C272.809 317.484 267.641 317.892 261.215 317.96H257.271V305.516H269.103V299.26H257.135V296.676H272.299V308.1H260.467V315.274H261.419C265.805 315.274 271.925 315.002 275.767 314.288ZM278.521 293.82H281.717V325.44H278.521V293.82ZM311.635 306.196H290.147V295.112H293.343V303.578H311.635V306.196ZM311.771 324.726H290.045V315.376H293.241V322.108H311.771V324.726ZM314.797 312.52H286.237V309.902H314.797V312.52ZM63.2693 351.408C63.2693 353.89 64.9013 355.25 67.0433 355.25C69.1853 355.25 70.8513 353.89 70.8513 351.408C70.8513 348.96 69.1513 347.532 67.0433 347.532C64.9013 347.532 63.2693 348.926 63.2693 351.408ZM58.7813 351.408C58.7813 346.716 62.3513 343.554 67.0433 343.554C71.7353 343.554 75.3393 346.716 75.3393 351.408C75.3393 356.1 71.7353 359.364 67.0433 359.364C62.3173 359.364 58.7813 356.1 58.7813 351.408ZM76.3253 356.678L76.4613 352.598H80.4393V349.504H76.4613L76.3253 345.458H80.4393V341.514H85.3013V360.35H80.4393V356.678H76.3253ZM62.4873 361.642H85.3013V373.78H80.4393V365.382H62.4873V361.642ZM116.579 373.746H112.023V357.834H109.643V372.284H105.155V342.058H109.643V353.992H112.023V341.514H116.579V373.746ZM94.7167 349.028V362.594C94.8867 362.594 95.1247 362.628 95.4307 362.628C97.3007 362.628 101.551 362.424 103.625 361.948L104.067 365.586C101.415 366.164 96.2807 366.436 93.4247 366.436H89.9227V345.288H102.163V349.028H94.7167ZM145.034 373.372H123.308V359.942H128.102V363.342H140.24V359.874H145.034V373.372ZM123.614 342.704H145.272C145.34 346.41 144.898 350.66 144.184 353.788H148.706V357.562H119.602V353.788H139.73C140.172 352.054 140.546 348.586 140.512 346.512H123.614V342.704ZM140.24 369.666V366.912H128.102V369.666H140.24ZM168.977 360.452C168.977 358.718 167.753 357.358 166.189 357.358C164.625 357.358 163.435 358.684 163.435 360.452C163.435 362.254 164.625 363.546 166.189 363.546C167.753 363.546 168.977 362.186 168.977 360.452ZM170.677 347.6H162.517V343.826H170.677V347.6ZM172.989 360.452C172.989 364.226 170.235 367.082 166.189 367.082C162.075 367.082 159.389 364.192 159.389 360.452C159.389 356.576 162.245 353.822 166.189 353.822C170.235 353.822 172.989 356.644 172.989 360.452ZM186.623 373.746H182.067V341.514H186.623V373.746ZM180.333 372.318H175.947V363.036H173.635V358.786H175.947V355.658H173.567V353.04H158.879V349.3H173.805V351.442H175.947V342.092H180.333V372.318ZM217.22 361.098H212.698V353.72H210.556V361.098H206.068V342.092H210.556V349.946H212.698V341.514H217.22V361.098ZM195.392 354.026V356.678C195.732 356.678 196.072 356.712 196.412 356.712C199.302 356.712 202.634 356.338 204.3 355.998C204.436 357.222 204.504 358.378 204.64 359.602C202.634 360.044 196.922 360.418 190.836 360.418V344.064H203.416V347.804H195.392V350.286H203.042V354.026H195.392ZM194.61 362.492H217.22V373.78H212.46V366.266H194.61V362.492ZM254.491 341.514V353.686H258.911V357.63H254.491V373.746H249.731V341.514H254.491ZM248.065 365.382C245.141 365.926 239.939 366.402 235.145 366.402C233.581 366.402 232.085 366.334 230.487 366.334V352.598H240.551V347.94H230.453V344.2H245.345V356.338H235.349V362.424H236.199C239.293 362.424 243.815 362.254 247.555 361.54C247.725 362.832 247.861 364.09 248.065 365.382ZM273.086 355.216C273.086 350.32 271.386 347.804 269.074 347.804C266.898 347.804 265.198 350.32 265.198 355.216C265.198 360.078 266.898 362.594 269.074 362.594C271.386 362.594 273.086 360.078 273.086 355.216ZM260.642 355.216C260.642 348.484 263.804 343.588 269.074 343.588C274.446 343.588 277.574 348.45 277.574 355.216C277.574 361.846 274.446 366.776 269.074 366.776C263.804 366.776 260.642 361.88 260.642 355.216ZM286.55 373.746H281.79V341.514H286.55V373.746ZM311.299 356.712V352.496H298.515V356.712H311.299ZM316.093 360.452H293.755V343.996H298.515V348.756H311.299V344.03H316.093V360.452ZM319.493 369.462H290.389V365.654H319.493V369.462Z" fill="white"/>
<path d="M236.584 68.5192C236.127 68.5192 235.744 68.8398 235.682 69.2673C235.292 71.9574 232.831 74.0373 229.862 74.0373C228.063 74.0373 226.388 73.2778 225.265 71.9539L225.165 71.8362L224.483 71.1814L224.382 71.0889C222.126 69.1038 219.184 68.0115 216.099 68.0115C213.378 68.0115 210.805 68.842 208.657 70.4126L208.54 70.498L206.974 71.8836L206.845 72.0306C205.725 73.3129 204.076 74.0488 202.319 74.0488C202.295 74.0488 202.272 74.0488 202.249 74.0481V74.0373C201.931 74.0373 201.616 74.0129 201.308 73.9663C199.91 73.7375 198.644 73.0368 197.738 71.9675L197.62 71.8284L196.915 71.1743L196.871 71.1341C194.605 69.1131 191.64 68 188.522 68C187.159 68 185.834 68.208 184.581 68.6132C183.318 69.017 182.127 69.6201 181.044 70.4119L180.928 70.4973L179.362 71.8829L179.233 72.0299C178.534 72.8295 177.63 73.4162 176.622 73.7454C176.023 73.9362 175.39 74.0366 174.742 74.0366V74.0473C174.73 74.0473 174.718 74.0473 174.706 74.0473C172.916 74.0473 171.247 73.2885 170.125 71.9661L170.007 71.8269L169.302 71.1728L169.258 71.1334C166.992 69.1131 164.026 68 160.909 68C158.188 68 155.615 68.8305 153.467 70.4004L153.35 70.4858L151.784 71.8714L151.655 72.0184C150.535 73.3007 148.886 74.0359 147.129 74.0359C144.164 74.0359 141.705 71.946 141.317 69.2436C141.256 68.8154 140.872 68.4949 140.415 68.4949H135.912C135.383 68.4963 134.96 68.9202 135.003 69.4179C135.502 75.3261 140.75 79.99 147.129 79.99C150.701 79.99 154.058 78.5255 156.376 75.9651L157.43 75.032C158.442 74.3249 159.642 73.9519 160.91 73.9519C162.404 73.9519 163.825 74.4819 164.915 75.4451L165.337 75.836C167.658 78.4846 171.062 80 174.707 80C176.052 80 177.366 79.792 178.606 79.3968C180.674 78.7442 182.536 77.5702 183.989 75.9644L185.044 75.0313C185.544 74.682 186.09 74.4145 186.667 74.2331C187.247 74.0545 187.859 73.9627 188.487 73.9627C189.953 73.9627 191.352 74.4748 192.434 75.4057L192.844 75.8001C194.743 77.9775 197.374 79.3933 200.273 79.8379C200.943 79.9448 201.627 80 202.32 80C205.891 80 209.249 78.5355 211.566 75.9751L212.62 75.0421C213.632 74.3349 214.832 73.962 216.1 73.962C217.566 73.962 218.965 74.4741 220.047 75.405L220.457 75.7994C222.781 78.4638 226.199 79.9878 229.863 79.9878C236.246 79.9878 241.498 75.3347 241.997 69.4387C242.04 68.941 241.617 68.5164 241.089 68.5164H236.585L236.584 68.5192Z" fill="white"/>
</svg>
