<svg width="436" height="440" viewBox="0 0 436 440" fill="none" xmlns="http://www.w3.org/2000/svg">
<g filter="url(#filter0_d_62_6204)">
<path fill-rule="evenodd" clip-rule="evenodd" d="M30 14C21.1634 14 14 21.1634 14 30V300.69C20.1977 300.69 25.2218 305.412 25.2218 311.238C25.2218 317.064 20.1977 321.787 14 321.787V406C14 414.837 21.1634 422 30 422H402C410.837 422 418 414.837 418 406V321.787H418C411.802 321.787 406.777 317.064 406.777 311.238C406.777 305.412 411.802 300.69 418 300.69H418V30C418 21.1634 410.837 14 402 14H30ZM28.9695 312.238H36.8536V310.238H28.9695V312.238ZM44.7377 312.238H52.6218V310.238H44.7377V312.238ZM60.506 312.238H68.3901V310.238H60.506V312.238ZM76.2742 312.238H84.1584V310.238H76.2742V312.238ZM92.0425 312.238H99.9266V310.238H92.0425V312.238ZM107.811 312.238H115.695V310.238H107.811V312.238ZM123.579 312.238H131.463V310.238H123.579V312.238ZM139.347 312.238H147.231V310.238H139.347V312.238ZM155.116 312.238H163V310.238H155.116V312.238ZM170.884 312.238H178.768V310.238H170.884V312.238ZM186.652 312.238H194.536V310.238H186.652V312.238ZM202.42 312.238H210.304V310.238H202.42V312.238ZM218.189 312.238H226.073V310.238H218.189V312.238ZM233.957 312.238H241.841V310.238H233.957V312.238ZM249.725 312.238H257.609V310.238H249.725V312.238ZM265.493 312.238H273.377V310.238H265.493V312.238ZM281.262 312.238H289.146V310.238H281.262V312.238ZM297.03 312.238H304.914V310.238H297.03V312.238ZM312.798 312.238H320.682V310.238H312.798V312.238ZM328.566 312.238H336.45V310.238H328.566V312.238ZM344.335 312.238H352.219V310.238H344.335V312.238ZM360.103 312.238H367.987V310.238H360.103V312.238ZM375.871 312.238H383.755V310.238H375.871V312.238ZM391.639 312.238H399.523V310.238H391.639V312.238Z" fill="#8C9F58"/>
</g>
<path d="M202.072 202.989C202.11 202.989 202.157 202.989 202.195 202.973C202.342 202.942 202.473 202.85 202.55 202.719L209.011 192.565L215.441 201.812C215.526 201.935 215.665 202.019 215.811 202.05C215.966 202.081 216.112 202.042 216.243 201.958L218.757 200.196C218.88 200.104 218.965 199.981 218.996 199.827C219.019 199.681 218.996 199.527 218.903 199.404L209.342 185.704C209.235 185.55 209.049 185.457 208.864 185.457C208.679 185.457 208.494 185.557 208.394 185.719L199.018 200.465C198.849 200.727 198.926 201.081 199.196 201.25L201.771 202.896C201.864 202.95 201.971 202.989 202.072 202.989ZM220.561 195.288H229.135V201.404C229.135 201.558 229.196 201.704 229.297 201.804C229.405 201.912 229.551 201.973 229.705 201.973H232.789C232.944 201.973 233.09 201.912 233.19 201.804C233.298 201.704 233.352 201.55 233.352 201.404V186.365C233.352 186.219 233.29 186.073 233.19 185.965C233.082 185.857 232.936 185.796 232.789 185.796H229.705C229.559 185.796 229.405 185.857 229.297 185.965C229.196 186.073 229.135 186.219 229.135 186.365V191.081H220.561C220.407 191.081 220.26 191.142 220.16 191.242C220.052 191.35 219.99 191.496 219.99 191.65V194.719C219.99 194.865 220.052 195.012 220.16 195.119C220.268 195.227 220.414 195.288 220.561 195.288ZM234.94 217.097H206.127V215.181H232.643C232.789 215.181 232.944 215.12 233.051 215.012C233.152 214.904 233.213 214.758 233.213 214.612V205.127C233.213 204.973 233.152 204.827 233.051 204.727C232.944 204.619 232.797 204.558 232.643 204.558H202.804C202.658 204.558 202.511 204.619 202.403 204.727C202.295 204.835 202.234 204.981 202.234 205.127V208.196C202.234 208.35 202.295 208.496 202.403 208.604C202.511 208.712 202.658 208.766 202.804 208.766H228.988V210.966H202.473C202.318 210.966 202.172 211.027 202.072 211.135C201.964 211.235 201.902 211.389 201.902 211.535V220.735C201.902 220.881 201.964 221.035 202.072 221.135C202.18 221.243 202.326 221.304 202.473 221.304H234.933C235.087 221.304 235.226 221.243 235.341 221.135C235.449 221.028 235.511 220.889 235.511 220.735V217.666C235.511 217.52 235.449 217.366 235.341 217.266C235.233 217.158 235.087 217.104 234.933 217.104L234.94 217.097ZM171.894 201.058C173.552 202.619 175.834 203.566 178.316 203.566C180.799 203.566 183.081 202.619 184.739 201.058C186.397 199.496 187.461 197.281 187.461 194.842C187.461 192.396 186.397 190.181 184.739 188.619C183.081 187.05 180.799 186.104 178.324 186.104C175.849 186.104 173.567 187.05 171.902 188.619C170.244 190.173 169.18 192.381 169.18 194.827V194.85C169.18 197.288 170.244 199.496 171.902 201.05L171.894 201.058ZM174.824 191.735C175.703 190.911 176.929 190.388 178.316 190.388C179.704 190.388 180.93 190.919 181.809 191.735C182.688 192.565 183.182 193.642 183.189 194.842C183.189 196.035 182.688 197.112 181.809 197.95C180.93 198.773 179.712 199.296 178.324 199.296C176.936 199.296 175.71 198.773 174.831 197.942C173.96 197.112 173.459 196.035 173.451 194.835C173.451 193.635 173.952 192.565 174.831 191.727L174.824 191.735ZM197.16 214.92H180.252V206.612C180.252 206.466 180.19 206.312 180.082 206.212C179.982 206.104 179.828 206.043 179.681 206.043H176.751C176.597 206.043 176.451 206.104 176.35 206.212C176.242 206.312 176.181 206.466 176.181 206.612V214.92H157.391C157.237 214.92 157.09 214.981 156.99 215.089C156.882 215.197 156.82 215.343 156.82 215.497V218.566C156.82 218.72 156.882 218.866 156.99 218.966C157.098 219.074 157.244 219.135 157.391 219.135H197.16C197.315 219.135 197.453 219.074 197.561 218.966C197.669 218.858 197.731 218.72 197.731 218.566V215.497C197.731 215.343 197.669 215.197 197.561 215.089C197.453 214.981 197.307 214.92 197.16 214.92ZM275.08 206.366H258.765V202.981H270.423C270.577 202.981 270.716 202.927 270.824 202.819C270.932 202.712 270.994 202.566 270.994 202.419V199.342C270.994 199.189 270.932 199.05 270.824 198.942C270.716 198.835 270.57 198.773 270.423 198.773H249.652V196.35H265.026C265.18 196.35 265.327 196.288 265.427 196.188C265.535 196.081 265.596 195.935 265.596 195.781V185.919C265.596 185.773 265.535 185.627 265.427 185.519C265.327 185.419 265.18 185.357 265.026 185.357H247.878C247.732 185.357 247.578 185.427 247.477 185.519C247.369 185.627 247.308 185.773 247.308 185.919V188.988C247.308 189.142 247.369 189.281 247.477 189.388C247.585 189.496 247.732 189.558 247.878 189.558H261.379V192.135H246.005C245.689 192.135 245.426 192.388 245.426 192.704V202.412C245.426 202.558 245.488 202.704 245.596 202.812C245.704 202.919 245.85 202.973 246.005 202.973H254.548V206.358H238.826C238.68 206.358 238.533 206.419 238.426 206.519C238.318 206.627 238.256 206.773 238.256 206.92V209.989C238.256 210.143 238.318 210.289 238.426 210.397C238.533 210.504 238.68 210.558 238.826 210.558H275.08C275.227 210.558 275.373 210.497 275.481 210.397C275.589 210.289 275.651 210.143 275.651 209.989V206.92C275.651 206.766 275.589 206.619 275.481 206.519C275.373 206.412 275.227 206.35 275.08 206.35V206.366ZM274.579 213.297H238.641C238.487 213.297 238.341 213.358 238.24 213.466C238.133 213.566 238.071 213.72 238.071 213.866V216.943C238.071 217.097 238.133 217.243 238.24 217.351C238.341 217.451 238.495 217.512 238.641 217.512H270.924V224.151C270.924 224.305 270.986 224.451 271.094 224.551C271.194 224.658 271.341 224.72 271.495 224.72H274.571C274.725 224.72 274.872 224.658 274.972 224.551C275.08 224.451 275.134 224.297 275.134 224.151V213.866C275.134 213.72 275.08 213.574 274.972 213.466C274.864 213.358 274.718 213.297 274.571 213.297H274.579Z" fill="white"/>
<path d="M256.625 117.424C256.625 117.424 256.617 117.394 256.609 117.378H255.545C255.9 117.401 256.262 117.417 256.625 117.424Z" fill="white"/>
<path d="M216.579 166.856C212.138 166.856 207.851 166.149 203.842 164.841C207.851 166.141 212.138 166.856 216.579 166.856Z" fill="white"/>
<path d="M213.963 94.1244C218.319 93.4398 223.416 92.7013 226.939 92.3398C229.823 92.0398 233.902 92.2936 240.054 92.4398C238.721 91.5013 237.333 90.6397 235.891 89.8628C230.478 89.9551 224.927 90.2243 221.28 90.2013C213.94 90.1474 198.99 90.1243 197.27 90.109C197.093 90.109 196.869 90.109 196.623 90.109C194.695 91.1782 192.868 92.3936 191.148 93.7475C193.438 93.8398 196.021 94.0167 199.167 94.2937C207.787 95.0552 209.607 94.8014 213.963 94.1244Z" fill="white"/>
<path d="M218.944 99.8375C225.567 100.068 240.857 99.9914 247.472 100.099C247.688 100.099 247.973 100.099 248.305 100.099C246.801 98.2606 245.136 96.5528 243.34 94.9989C241.296 94.8374 239.762 94.6835 238.883 94.622C231.327 94.0681 228.251 94.3758 222.059 95.1836C215.868 95.9836 211.643 97.3298 209.083 97.3605C206.515 97.399 198.134 96.6144 193.454 96.1144C191.943 95.9605 190.154 96.0374 188.296 96.1836C186.731 97.6605 185.289 99.2529 183.971 100.953C189.275 100.745 194.626 100.538 197.934 100.399C204.156 100.122 212.321 99.5914 218.944 99.8298V99.8375Z" fill="white"/>
<path d="M183.232 107.508L186.979 107.608C191.891 107.816 197.519 107.847 203.248 107.47C208.977 107.093 213.379 107.47 221.992 108.239C230.612 109.001 232.339 109.801 236.795 108.27C239.27 107.416 243.11 106.855 244.837 106.693C246.541 106.539 250.011 105.924 252.27 105.916C251.529 104.608 250.72 103.339 249.849 102.124C248.661 102.185 247.32 102.247 246.148 102.408C236.618 102.301 227.936 102.177 224.713 102.131C213.078 101.97 207.304 102.662 199.478 102.908C194.273 103.078 189.292 103.393 185.029 103.616C184.204 103.601 183.078 103.685 181.991 103.754C181.281 104.854 180.618 105.993 180.009 107.162C179.948 107.339 179.886 107.501 179.824 107.624C181.012 107.585 182.315 107.547 183.232 107.501V107.508Z" fill="white"/>
<path d="M231.744 111.731C229.176 111.761 220.803 110.169 216.123 109.684C211.443 109.192 204.604 109.508 199.993 110.069C195.382 110.646 188.242 110.038 180.887 109.869C180.501 109.861 179.661 109.854 178.782 109.854C178.25 111.085 177.186 114.554 176.777 115.854C176.777 115.854 187.217 115.769 192.845 115.969C198.474 116.177 208.736 115.723 219.315 114.638C227.727 113.761 236.802 112.915 243.116 113.338C249.184 113.746 250.857 114.7 255.977 114.885C255.329 112.585 254.504 110.369 253.487 108.254C250.665 108.4 248.151 108.7 244.712 109.146C238.521 109.946 234.311 111.7 231.736 111.738L231.744 111.731Z" fill="white"/>
<path d="M186.54 150.8C190.01 150.6 199.123 148.939 206.271 149.431C213.426 149.946 226.518 150.877 228.653 150.754C230.789 150.63 238.769 149.408 243.812 148.7C245.739 148.439 247.32 148.17 249.109 147.939C241.252 147.716 229.27 147.239 221.12 146.947C211.583 146.609 210.38 146.878 204.798 147.085C200.326 147.254 188.599 147.824 182.045 148.208C182.639 149.123 183.263 150.008 183.926 150.869C184.674 150.884 185.453 150.869 186.548 150.8H186.54Z" fill="white"/>
<path d="M228.212 157.601C222.746 158.039 205.999 159.739 199.345 159.839C197.88 159.862 195.567 159.839 193.4 159.816C194.249 160.393 195.12 160.924 196.006 161.439C201.442 161.832 208.15 162.147 210.232 162.024C213.424 161.839 228.621 160.816 238.181 160.693C239.523 159.862 240.803 158.955 242.029 157.978C237.333 157.87 231.705 157.332 228.204 157.609L228.212 157.601Z" fill="white"/>
<path d="M215.576 87.7223C217.789 87.7608 223.579 87.3609 229.169 87.0071C225.175 85.7152 220.912 85 216.478 85C210.942 85 205.669 86.0997 200.857 88.0761C200.719 88.1376 200.572 88.1837 200.433 88.2453C200.379 88.2683 200.318 88.2991 200.264 88.3222C203.718 88.2837 212.685 87.6608 215.576 87.7146V87.7223Z" fill="white"/>
<path d="M180.78 146.142C187.218 145.796 195.661 145.288 198.722 144.996C206.617 144.25 218.097 144.481 225.931 144.665C231.59 144.788 244.312 145.088 252.709 145.196C253.572 143.588 254.328 141.911 254.968 140.18L179.199 143.057C179.685 144.104 180.209 145.134 180.78 146.127V146.142Z" fill="white"/>
<path d="M219.539 152.956C207.658 151.941 202.569 151.402 196.701 151.887C194.681 152.049 189.13 152.656 185.529 152.825C186.755 154.233 188.081 155.556 189.492 156.787C189.986 157.21 190.487 157.633 190.996 158.033C198.752 157.833 208.768 156.833 212.238 156.549C216.671 156.187 235.6 153.872 245.954 154.433C246.803 153.556 247.612 152.656 248.375 151.71C244.536 151.933 239.216 152.095 237.203 152.402C232.963 153.056 231.428 153.979 219.547 152.956H219.539Z" fill="white"/>
<path d="M203.84 164.848C207.857 166.148 212.136 166.863 216.577 166.863C220.178 166.863 223.67 166.386 226.994 165.517C227.017 165.517 227.048 165.502 227.071 165.494C227.664 165.34 228.25 165.164 228.829 164.987C229.052 164.917 229.268 164.841 229.484 164.771C229.985 164.61 230.479 164.441 230.964 164.256C231.597 164.018 232.221 163.756 232.846 163.487C227.31 163.687 221.535 164.218 219.831 164.31C216.415 164.502 209.491 164.771 203.832 164.848H203.84Z" fill="white"/>
<path d="M232.875 163.487H232.852C232.235 163.757 231.611 164.011 230.971 164.257C231.611 164.018 232.251 163.757 232.875 163.487Z" fill="white"/>
<path d="M203.325 135.625C195.276 135.463 185.445 136.017 176.74 136.217C177.056 137.425 177.426 138.609 177.843 139.771C183.07 139.786 189.624 140.479 191.652 140.348C195.993 140.079 210.943 139.071 214.937 139.225C218.923 139.379 240.103 138.525 245.354 138.325C246.549 138.286 250.018 138.209 255.616 138.271C255.809 137.648 255.994 137.017 256.163 136.386C249.294 136.386 244.714 136.163 243.079 136.163C236.641 136.163 216.109 135.878 203.317 135.617L203.325 135.625Z" fill="white"/>
<path d="M256.971 119.317C256.863 118.679 256.748 118.048 256.617 117.425C256.254 117.409 255.9 117.402 255.537 117.379C250.564 117.063 245.922 115.64 243.563 115.602C231.736 115.425 225.953 116.325 216.947 117.048C208.296 117.748 201.704 118.579 197.78 118.432C194.827 118.325 187.718 118.363 176.137 118.386C176.083 118.694 176.021 119.009 175.967 119.317C175.613 121.479 175.428 123.686 175.428 125.948C175.428 126.525 175.451 127.102 175.474 127.679H175.852C175.944 127.687 176.091 127.702 176.384 127.717C195.983 128.579 198.612 124.102 204.526 123.702C207.394 123.51 213.447 120.017 216.585 119.325C217.063 119.217 217.479 119.171 217.796 119.217C217.981 119.248 218.158 119.286 218.343 119.325C224.997 120.548 230.317 126.363 239.538 126.571C244.427 126.679 245.707 127.587 251.852 127.594C252.785 127.594 254.088 127.679 255.537 127.763C255.83 127.779 256.123 127.794 256.424 127.817H256.524C256.825 127.833 257.149 127.84 257.457 127.856C257.488 127.225 257.503 126.594 257.503 125.956C257.503 123.694 257.31 121.486 256.964 119.325L256.971 119.317Z" fill="white"/>
<path d="M256.973 130.295C251.53 130.326 242.894 129.726 239.085 129.611C236.526 129.541 232.987 129.68 229.27 129.818C224.791 129.988 220.033 130.157 216.41 129.957C209.771 129.588 195.577 130.48 190.696 130.657C187.026 130.803 181.536 130.687 175.8 130.672H175.723C175.831 131.641 175.977 132.594 176.162 133.548C177.804 133.502 179.493 133.456 180.858 133.394C187.342 133.11 202.485 133.556 207.204 133.656C211.93 133.771 232.794 133.64 240.674 133.279C241.977 133.217 248.299 132.894 256.958 132.756C257.097 131.949 257.212 131.133 257.297 130.303H256.981L256.973 130.295Z" fill="white"/>
<path d="M195.159 235.734C193.239 235.25 192.768 235.011 192.768 234.281V234.25C192.768 233.711 193.254 233.288 194.195 233.288C195.39 233.288 196.87 234.234 196.87 234.234L198.351 232.542C197.225 231.642 195.845 231.134 194.233 231.134C191.967 231.134 190.355 232.465 190.355 234.473V234.511C190.355 236.704 191.797 237.327 194.033 237.888C195.883 238.365 196.261 238.681 196.261 239.296V239.334C196.261 239.981 195.66 240.381 194.657 240.381C193.439 240.381 192.421 239.896 191.458 239.127C191.018 239.658 189.954 240.804 189.985 240.819C191.303 241.965 192.969 242.527 194.611 242.527C197.001 242.527 198.682 241.296 198.682 239.088V239.058C198.682 237.127 197.41 236.327 195.166 235.742L195.159 235.734Z" fill="white"/>
<path d="M182.299 231.104C178.875 231.104 176.385 233.681 176.385 236.827V236.858C176.385 240.004 178.837 242.55 182.26 242.55C185.683 242.55 188.174 239.973 188.174 236.827V236.796C188.174 233.65 185.714 231.104 182.299 231.104ZM185.622 236.858C185.622 238.75 184.257 240.304 182.299 240.304C180.34 240.304 178.937 238.719 178.937 236.827V236.796C178.937 234.896 180.302 233.35 182.26 233.35C184.218 233.35 185.622 234.935 185.622 236.827V236.858Z" fill="white"/>
<path d="M208.349 237.634C208.349 239.387 207.447 240.295 205.952 240.295C204.456 240.295 203.561 239.357 203.561 237.557V231.295H201.117V237.618C201.117 240.872 202.937 242.541 205.921 242.541C208.905 242.541 210.786 240.895 210.786 237.541V231.295H208.349V237.634Z" fill="white"/>
<path d="M254.674 239.01C253.803 239.795 253.024 240.303 251.759 240.303C249.863 240.303 248.544 238.718 248.544 236.826V236.795C248.544 234.895 249.886 233.349 251.759 233.349C252.87 233.349 253.741 233.826 254.597 234.602L256.146 232.818C255.121 231.802 253.864 231.11 251.775 231.11C248.367 231.11 245.984 233.687 245.984 236.833V236.864C245.984 240.041 248.405 242.557 251.675 242.557C253.818 242.557 255.082 241.803 256.224 240.58L254.674 239.018V239.01Z" fill="white"/>
<path d="M216.362 231.289H213.918V242.358H219.971L221.89 240.143H216.362V231.289Z" fill="white"/>
<path d="M238.336 231.104C234.905 231.104 232.422 233.681 232.422 236.827V236.858C232.422 240.004 234.881 242.55 238.305 242.55C241.728 242.55 244.219 239.973 244.219 236.827V236.796C244.219 233.65 241.759 231.104 238.343 231.104H238.336ZM241.666 236.858C241.666 238.75 240.302 240.304 238.336 240.304C236.37 240.304 234.974 238.719 234.974 236.827V236.796C234.974 234.896 236.339 233.35 238.305 233.35C240.271 233.35 241.666 234.935 241.666 236.827V236.858Z" fill="white"/>
<path d="M226.138 231.289H223.693V242.358H229.723L231.666 240.143H226.138V231.289Z" fill="white"/>
<path d="M145.556 355.616H163.98C163.98 359.452 163.7 364.408 163.084 367.768H166.864V370.568H156.56V380.732H153.088V370.568H142.896V367.768H159.752C159.976 366.76 160.144 365.276 160.284 363.708L145.192 364.464L144.772 361.692L160.452 361.076C160.48 360.068 160.508 359.144 160.508 358.36H145.556V355.616ZM190.214 357.94H170.95V355.196H190.214V357.94ZM189.85 380.032H171.678V372.584H175.15V377.288H189.85V380.032ZM190.158 366.116H182.318V368.412H192.622V371.184H168.654V368.412H178.846V366.116H171.034V363.344H174.674L174.002 359.228L177.362 358.724L177.95 363.344H183.242L183.942 358.724L187.33 359.228L186.518 363.344H190.158V366.116ZM211.975 365.192V361.916H206.375V365.192H211.975ZM215.475 367.936H202.903V355.476H206.375V359.2H211.975V355.42H215.475V367.936ZM223.371 380.396H205.927V370.288H223.119V373.088H209.399V377.624H223.371V380.396ZM226.759 363.232H223.007V368.888H219.479V354.188H223.007V360.404H226.759V363.232ZM229.417 356.96H241.793C241.597 364.968 238.041 371.52 229.949 375.944L227.793 373.312C233.617 370.68 237.565 365.136 238.041 359.844H229.417V356.96ZM249.969 380.732H246.469V354.188H249.969V380.732Z" fill="white"/>
<path d="M266.5 377.471C266.146 377.471 265.849 377.359 265.609 377.135C265.369 376.911 265.249 376.634 265.25 376.304C265.25 375.974 265.37 375.696 265.61 375.472C265.85 375.248 266.147 375.137 266.5 375.138H281.5C281.854 375.138 282.151 375.25 282.391 375.474C282.631 375.698 282.751 375.974 282.75 376.304C282.75 376.635 282.63 376.912 282.39 377.136C282.15 377.36 281.853 377.472 281.5 377.471H266.5ZM270.938 372.308C270.771 372.308 270.615 372.284 270.469 372.235C270.323 372.186 270.188 372.103 270.063 371.988L264.75 367.029C264.521 366.815 264.406 366.533 264.406 366.183C264.406 365.833 264.521 365.551 264.75 365.338C264.979 365.124 265.271 365.017 265.625 365.017C265.979 365.017 266.271 365.124 266.5 365.338L270.938 369.479L281.5 359.621C281.729 359.407 282.026 359.3 282.391 359.3C282.756 359.3 283.053 359.407 283.281 359.621C283.51 359.835 283.625 360.112 283.625 360.453C283.625 360.793 283.51 361.07 283.281 361.283L271.813 371.988C271.688 372.104 271.552 372.187 271.406 372.236C271.26 372.285 271.104 372.309 270.938 372.308Z" fill="white"/>
<defs>
<filter id="filter0_d_62_6204" x="0" y="0" width="436" height="440" filterUnits="userSpaceOnUse" color-interpolation-filters="sRGB">
<feFlood flood-opacity="0" result="BackgroundImageFix"/>
<feColorMatrix in="SourceAlpha" type="matrix" values="0 0 0 0 0 0 0 0 0 0 0 0 0 0 0 0 0 0 127 0" result="hardAlpha"/>
<feOffset dx="2" dy="2"/>
<feGaussianBlur stdDeviation="8"/>
<feComposite in2="hardAlpha" operator="out"/>
<feColorMatrix type="matrix" values="0 0 0 0 0.180392 0 0 0 0 0.184314 0 0 0 0 0.243137 0 0 0 0.12 0"/>
<feBlend mode="normal" in2="BackgroundImageFix" result="effect1_dropShadow_62_6204"/>
<feBlend mode="normal" in="SourceGraphic" in2="effect1_dropShadow_62_6204" result="shape"/>
</filter>
</defs>
</svg>
