<svg width="590" height="98" viewBox="0 0 590 98" fill="none" xmlns="http://www.w3.org/2000/svg">
<rect width="590" height="98" rx="16" fill="#18C68B"/>
<path d="M169.027 32.792H192.715C192.715 37.724 192.355 44.096 191.563 48.416H196.423V52.016H183.175V65.084H178.711V52.016H165.607V48.416H187.279C187.567 47.12 187.783 45.212 187.963 43.196L168.559 44.168L168.019 40.604L188.179 39.812C188.215 38.516 188.251 37.328 188.251 36.32H169.027V32.792ZM226.444 35.78H201.676V32.252H226.444V35.78ZM225.976 64.184H202.612V54.608H207.076V60.656H225.976V64.184ZM226.372 46.292H216.292V49.244H229.54V52.808H198.724V49.244H211.828V46.292H201.784V42.728H206.464L205.6 37.436L209.92 36.788L210.676 42.728H217.48L218.38 36.788L222.736 37.436L221.692 42.728H226.372V46.292ZM248.087 47.804C248.087 49.352 249.779 50.432 251.759 50.432C253.739 50.432 255.431 49.352 255.431 47.804C255.431 46.22 253.739 45.104 251.759 45.104C249.779 45.104 248.087 46.22 248.087 47.804ZM269.435 64.292H246.107V55.292H250.607V60.728H269.435V64.292ZM268.607 30.956V42.008H273.359V45.716H268.607V56.3H264.143V30.956H268.607ZM246.719 35.492V32.072H256.871V35.492H246.719ZM259.823 47.804C259.823 51.44 256.367 54.032 251.759 54.032C247.115 54.032 243.659 51.44 243.659 47.804C243.659 44.204 247.079 41.54 251.759 41.54C256.367 41.54 259.823 44.204 259.823 47.804ZM261.443 40.568H241.643V37.112H261.443V40.568ZM297.846 46.508V41.792H290.718V46.508H297.846ZM302.31 50.072H286.218V33.044H290.718V38.3H297.846V32.972H302.31V50.072ZM314.082 64.184H290.862V53.42H295.362V60.656H314.082V64.184ZM308.862 43.736H304.002V40.064H308.862V30.956H313.326V55.724H308.862V43.736ZM329.236 45.752C329.236 41.18 328.3 37.436 325.996 37.436C323.764 37.436 322.828 41.18 322.828 45.752C322.828 50.324 323.764 54.032 325.996 54.032C328.3 54.032 329.236 50.324 329.236 45.752ZM347.272 65.084H343.06V30.956H347.272V65.084ZM340.468 63.5H336.256V47.624H333.34C332.944 53.132 330.748 57.992 325.96 57.992C320.704 57.992 318.58 51.98 318.58 45.716C318.58 39.488 320.704 33.548 325.96 33.548C330.784 33.548 332.944 38.408 333.34 43.952H336.256V31.604H340.468V63.5ZM373.955 45.104V40.892H366.755V45.104H373.955ZM378.455 48.632H362.291V32.612H366.755V37.4H373.955V32.54H378.455V48.632ZM388.607 64.652H366.179V51.656H388.283V55.256H370.643V61.088H388.607V64.652ZM392.963 42.584H388.139V49.856H383.603V30.956H388.139V38.948H392.963V42.584ZM396.38 34.52H412.292C412.04 44.816 407.468 53.24 397.064 58.928L394.292 55.544C401.78 52.16 406.856 45.032 407.468 38.228H396.38V34.52ZM422.804 65.084H418.304V30.956H422.804V65.084Z" fill="#2E2F3E"/>
</svg>
