<svg width="426" height="297" viewBox="0 0 426 297" fill="none" xmlns="http://www.w3.org/2000/svg">
<path d="M141.888 220.172C137.758 222.711 132.68 223.98 126.654 223.98C116.735 223.98 108.61 220.544 102.279 213.672C95.6773 206.766 92.3766 197.32 92.3766 185.336C92.3766 173.216 95.7112 163.5 102.38 156.188C109.05 148.875 117.869 145.219 128.838 145.219C138.351 145.219 145.985 147.639 151.74 152.48C157.529 157.288 160.847 163.297 161.693 170.508H146.306C145.121 165.396 142.227 161.824 137.623 159.793C135.05 158.676 132.189 158.117 129.041 158.117C123.015 158.117 118.055 160.402 114.162 164.973C110.302 169.509 108.373 176.348 108.373 185.488C108.373 194.697 110.472 201.214 114.67 205.039C118.867 208.865 123.641 210.777 128.99 210.777C134.237 210.777 138.537 209.271 141.888 206.258C145.24 203.211 147.305 199.233 148.084 194.324H130.767V181.832H161.947V222H151.588L150.013 212.656C147 216.211 144.292 218.716 141.888 220.172ZM170.509 147.148H186.048V222H170.509V147.148ZM248.539 160.402H211.012V177.617H243.867V190.617H211.012V222H195.473V147.25H248.539V160.402ZM308.237 147.148V160.402H285.843V222H270.101V160.402H247.605V147.148H308.237ZM331.627 166.395L327.514 201.332H319.948L315.733 166.395V147.402H331.627V166.395ZM331.221 207.324V222H316.088V207.324H331.221Z" fill="white"/>
<path d="M143.757 119.92C133.437 129.16 123.597 139.36 119.397 144.28C115.677 148.72 113.277 151.84 115.077 152.68C116.877 153.64 123.237 149.32 126.597 146.68C130.437 143.68 134.637 140.08 138.117 136.96C138.477 136.6 139.437 136.24 139.557 136.84C139.917 137.56 139.437 138.04 138.957 138.4C135.597 141.4 130.677 145.48 127.677 147.88C124.077 150.76 117.837 155.08 113.037 155.08C108.597 155.08 105.837 150.88 109.557 144.4C102.477 150.64 95.9973 155.44 92.0373 155.08C83.8773 154.36 86.3973 141.16 94.9173 132.64C105.957 121.36 122.877 116.32 128.037 119.32C129.717 120.16 130.077 123.04 125.397 127.48C130.197 123.52 132.957 121.6 134.997 121C137.637 120.16 142.197 119.8 143.757 119.92ZM127.077 120.88C124.797 119.08 115.437 125.08 102.717 137.2C95.0373 144.4 89.7573 152.08 92.5173 153.28C94.7973 154.36 105.237 146.92 115.437 136.48C120.117 131.8 129.597 122.8 127.077 120.88ZM191.605 119.2C187.285 122.2 180.205 128.56 174.805 134.8C181.765 129.16 196.765 118.12 203.845 118.84C209.365 119.32 208.765 124.12 205.285 129.4C210.205 125.92 221.245 118 227.245 118.84C235.405 119.92 232.765 127.12 222.445 136.48C218.605 139.96 215.365 143.2 212.845 145.84C208.525 150.28 207.805 152.08 209.005 153.04C210.205 153.88 215.125 151.72 219.805 148.36C224.125 145.36 229.525 140.68 232.885 137.68C233.245 137.32 233.845 136.84 234.325 137.44C234.805 138.04 234.205 138.64 233.605 139.24C230.005 142.48 224.605 146.8 220.165 150.04C215.365 153.52 208.405 156.76 203.845 154.96C200.365 153.64 199.645 149.32 203.365 144.16C206.485 139.96 208.765 137.8 213.685 133.24C217.645 129.4 228.205 122.08 225.565 120.64C224.005 119.8 214.645 124.96 206.245 130.72C199.405 135.28 194.605 140.2 191.005 143.56C186.565 147.88 183.565 151.36 180.325 155.56C178.165 155.56 176.125 150.88 177.685 148.24C180.205 143.56 184.765 138.16 190.285 133.24C194.485 129.4 204.925 122.2 202.165 120.64C200.005 119.44 181.165 130.84 173.005 138.52C165.325 145.84 162.085 149.8 157.765 155.56C155.605 155.56 153.685 151 155.125 148.24C157.645 143.56 161.725 137.92 168.565 130.84C172.405 126.64 175.405 124.24 178.285 122.44C182.125 119.92 187.645 119.2 191.605 119.2ZM268.749 119.44C272.589 121.36 270.429 130.48 260.349 140.68C248.949 152.32 239.589 156.4 234.789 155.2C227.589 153.4 226.989 142.12 237.429 131.56C249.669 119.2 263.709 116.8 268.749 119.44ZM268.029 120.88C265.509 118.84 255.549 125.92 244.509 137.32C237.549 144.64 231.909 151.6 235.149 153.52C238.029 155.2 247.149 147.64 258.069 136.6C262.869 131.8 270.189 122.68 268.029 120.88ZM313.8 123.64C313.56 125.32 311.76 126.88 311.16 126.76C310.68 126.64 310.08 126.04 309.36 125.56C308.16 124.84 307.56 124.48 305.64 124.36C299.76 124.12 289.68 130.84 281.52 138.52C273.84 145.84 270.48 149.92 266.28 155.56C264.12 155.56 262.2 151 263.64 148.24C266.16 143.56 270.72 137.44 277.08 130.84C280.92 126.64 283.92 124.24 286.8 122.44C290.64 119.92 296.16 119.2 300.12 119.2C295.08 122.56 288.24 128.56 283.08 134.56L283.44 134.92C290.04 129.16 303.36 118 310.44 119.32C312.96 119.8 313.92 121.48 313.8 123.64ZM339.61 118.96C343.57 121.24 342.01 126.16 337.33 129.52C331.33 133.72 322.33 134.92 319.81 133.72C311.53 140.92 304.69 150.88 308.89 153.04C311.65 154.36 318.13 152.2 322.69 149.2C327.49 146.08 334.69 140.08 338.05 137.08C339.01 136.24 339.25 136.12 339.73 136.6C340.21 137.08 339.73 137.8 339.13 138.28C335.05 141.88 330.49 145.84 325.21 149.44C318.25 154.24 312.85 155.56 308.17 155.2C303.73 154.84 301.93 151.96 301.57 148.48C301.21 145.48 302.77 139 308.41 132.88C317.77 122.68 335.41 116.56 339.61 118.96ZM338.89 120.04C337.45 118.84 326.41 127.24 320.53 133C322.33 133.6 328.33 131.68 333.61 127.48C337.57 124.36 340.21 121 338.89 120.04Z" fill="#2E2F3E"/>
<path d="M158.754 54.664V37.024H169.41V40.24H162.33V43.912H168.57V46.96H162.33V51.472H169.578V54.664H158.754ZM177.241 54.688L171.121 37.024H175.057L179.449 50.56L183.889 37.024H187.729L181.561 54.688H177.241ZM189.34 54.664V37.024H199.996V40.24H192.916V43.912H199.156V46.96H192.916V51.472H200.164V54.664H189.34ZM203.075 54.664V37.024H207.371L213.179 48.736V37.024H216.683V54.664H212.555L206.579 42.688V54.664H203.075ZM227.657 40.336V54.664H224.009V40.336H219.161V37.024H232.529V40.336H227.657ZM248.106 51.808C249.978 51.808 251.082 50.056 251.082 46.24V45.496C251.082 41.536 249.93 39.856 248.13 39.856C246.234 39.856 245.178 41.56 245.178 45.4V46.168C245.178 50.008 246.162 51.808 248.106 51.808ZM248.082 54.928C244.41 54.928 241.338 52.504 241.338 46.36V45.64C241.338 39.136 244.698 36.712 248.154 36.712C251.634 36.712 254.898 39.232 254.898 45.544V46.192C254.898 52.696 251.514 54.928 248.082 54.928ZM256.741 54.64V52.216L259.981 48.64C261.973 46.432 263.533 44.464 263.533 42.424C263.533 40.552 262.525 39.976 261.037 39.976C260.197 39.976 258.469 40.552 257.485 41.104L256.693 38.008C257.893 37.312 259.669 36.688 261.637 36.688C265.429 36.688 267.541 38.416 267.541 41.8C267.541 45.088 265.045 48.16 263.245 50.056L261.973 51.4H267.445V54.64H256.741Z" fill="#FCEE21"/>
<mask id="mask0_92_1724" style="mask-type:alpha" maskUnits="userSpaceOnUse" x="200" y="0" width="28" height="28">
<circle cx="214" cy="14" r="14" fill="#FCEE21"/>
</mask>
<g mask="url(#mask0_92_1724)">
<rect x="228" y="11.666" width="4.66667" height="28" transform="rotate(90 228 11.666)" fill="#FCEE21"/>
<rect x="225.549" y="22.25" width="4.66667" height="28" transform="rotate(135 225.549 22.25)" fill="#FCEE21"/>
<rect x="222.25" y="2.45117" width="4.66667" height="28" transform="rotate(45 222.25 2.45117)" fill="#FCEE21"/>
<rect x="216.334" y="28" width="4.66667" height="28" transform="rotate(-180 216.334 28)" fill="#FCEE21"/>
</g>
<path d="M20.792 284.9C19.942 285.954 19.16 287.008 18.31 288.062C15.658 286.362 11.952 282.554 10.864 279.052C9.81002 282.69 6.54602 286.736 3.21402 288.708C2.36402 287.654 1.51402 286.634 0.63002 285.614C5.86602 282.248 8.62002 277.08 8.62002 270.654V266.234H12.972V270.416C12.972 276.808 15.93 281.806 20.792 284.9ZM26.572 263.514V275.924H31.23V279.392H26.572V295.746H22.39V263.514H26.572ZM42.9914 278.032V269.498H36.4634V278.032H42.9914ZM58.2574 294.896H36.3954V284.9H40.6114V291.53H58.2574V294.896ZM53.3954 271.912H48.9414V268.58H53.3954V263.514H57.6114V286.906H53.3954V279.018H48.9414V275.686H53.3954V271.912ZM47.1734 281.33H32.2474V266.234H47.1734V281.33ZM87.266 276.366L84.92 279.494C82.438 278.576 79.106 276.094 77.678 273.102C76.726 276.4 73.224 279.324 70.232 280.344L67.75 277.148C72.408 275.448 75.468 271.742 75.468 266.88V264.5H79.82V266.676C79.82 271.64 83.492 275.176 87.266 276.366ZM94.576 295.508H72.544V286.94H89.34V284.798H72.34V281.432H93.59V290H76.794V292.108H94.576V295.508ZM98.18 273.612H93.59V279.8H89.34V263.514H93.59V270.144H98.18V273.612ZM125.887 274.87L124.051 278.304C119.291 277.59 114.123 274.53 112.559 270.96C111.131 274.53 105.997 277.556 101.101 278.338L99.2993 274.87C104.875 274.258 110.315 270.688 110.315 265.86V264.228H114.803V265.86C114.803 270.688 120.719 274.394 125.887 274.87ZM114.565 295.78H110.315V284.322H97.9733V280.99H127.077V284.322H114.565V295.78ZM130.985 285.75H152.915V295.78H148.699V289.116H130.985V285.75ZM153.663 278.032H144.143V280.48H156.655V283.88H127.551V280.48H139.927V278.032H131.393V269.736H148.529V267.764H131.257V264.568H152.745V272.762H135.609V274.836H153.663V278.032ZM182.875 283.54L183.487 286.906C180.393 287.654 175.735 287.96 169.513 287.96H166.385V266.472H180.869V269.872H170.601V284.526C175.191 284.526 179.237 284.39 182.875 283.54ZM191.579 295.746H187.363V278.066H179.679V274.496H187.363V263.514H191.579V295.746ZM204.064 266.812H218.752C218.718 277.624 213.856 285.546 204.268 290.544L201.854 287.314C206.376 285.274 210.082 281.942 212.224 277.726L203.078 278.712L202.5 275.074C206.172 274.802 209.912 274.564 213.584 274.258C213.958 273 214.162 271.674 214.264 270.314H204.064V266.812ZM229.02 295.746H224.804V279.596H218.684V276.026H224.804V263.514H229.02V295.746ZM258.597 295.746H254.347V263.514H258.597V295.746ZM252.103 284.798L249.723 288.096C246.867 286.634 242.923 282.554 241.971 279.426C241.189 282.69 237.959 287.008 234.185 288.844L231.635 285.682C237.075 282.792 239.727 277.828 239.727 271.062V270.178H233.267V266.812H250.403V270.178H244.147V271.028C244.147 277.828 247.241 282.282 252.103 284.798ZM287.257 294.896H265.225V285.376H269.441V291.53H287.257V294.896ZM287.053 275.788H265.429V264.568H269.645V272.422H287.053V275.788ZM290.623 282.792H261.519V279.392H290.623V282.792ZM302.495 265.248H324.323C324.323 270.484 323.983 275.312 323.269 279.018H328.029V282.35H315.517V295.746H311.301V282.35H298.925V279.018H319.257C319.835 276.23 320.107 272.592 320.107 268.648H302.495V265.248ZM338.567 284.118V270.654H333.467V284.118H338.567ZM355.907 295.746H351.861V279.596H349.277V294.25H345.299V264.092H349.277V276.196H351.861V263.514H355.907V295.746ZM342.545 267.39V287.348H329.489V267.39H342.545ZM376.075 282.384C376.075 280.48 374.919 279.12 373.049 279.12C371.179 279.12 370.057 280.446 370.057 282.384C370.057 284.288 371.179 285.614 373.049 285.614C374.919 285.614 376.075 284.22 376.075 282.384ZM379.849 282.384C379.849 286.26 377.231 288.946 373.049 288.946C368.935 288.946 366.249 286.09 366.249 282.384C366.249 278.406 368.969 275.788 373.049 275.788C377.231 275.788 379.849 278.474 379.849 282.384ZM380.631 274.564H365.501V271.232H380.631V274.564ZM377.367 269.362H369.275V266.03H377.367V269.362ZM387.091 294.25H383.147V285.07H380.189V281.772H383.147V278.236H380.087V274.938H383.147V264.126H387.091V294.25ZM393.313 295.746H389.301V263.514H393.313V295.746ZM422.891 282.792H418.845V274.734H416.091V282.486H412.113V264.092H416.091V271.334H418.845V263.514H422.891V282.792ZM400.757 275.278V278.338C403.137 278.44 408.101 278.1 410.175 277.59L410.481 280.82C408.169 281.398 403.511 281.67 399.465 281.67H396.575V265.826H409.155V269.192H400.757V271.98H408.849V275.278H400.757ZM400.315 284.322H422.891V295.78H418.675V287.688H400.315V284.322Z" fill="white"/>
<path d="M260.584 68.5192C260.127 68.5192 259.744 68.8398 259.682 69.2673C259.292 71.9574 256.831 74.0373 253.862 74.0373C252.063 74.0373 250.388 73.2778 249.265 71.9539L249.165 71.8362L248.483 71.1814L248.382 71.0889C246.126 69.1038 243.184 68.0115 240.099 68.0115C237.378 68.0115 234.805 68.842 232.657 70.4126L232.54 70.498L230.974 71.8836L230.845 72.0306C229.725 73.3129 228.076 74.0488 226.319 74.0488C226.295 74.0488 226.272 74.0488 226.249 74.0481V74.0373C225.931 74.0373 225.616 74.0129 225.308 73.9663C223.91 73.7375 222.644 73.0368 221.738 71.9675L221.62 71.8284L220.915 71.1743L220.871 71.1341C218.605 69.1131 215.64 68 212.522 68C211.159 68 209.834 68.208 208.581 68.6132C207.318 69.017 206.127 69.6201 205.044 70.4119L204.928 70.4973L203.362 71.8829L203.233 72.0299C202.534 72.8295 201.629 73.4162 200.622 73.7454C200.023 73.9362 199.39 74.0366 198.742 74.0366V74.0473C198.73 74.0473 198.718 74.0473 198.706 74.0473C196.916 74.0473 195.247 73.2885 194.125 71.9661L194.007 71.8269L193.302 71.1728L193.258 71.1334C190.992 69.1131 188.026 68 184.909 68C182.188 68 179.614 68.8305 177.467 70.4004L177.35 70.4858L175.784 71.8714L175.655 72.0184C174.535 73.3007 172.886 74.0359 171.129 74.0359C168.164 74.0359 165.705 71.946 165.317 69.2436C165.256 68.8154 164.872 68.4949 164.415 68.4949H159.912C159.383 68.4963 158.96 68.9202 159.003 69.4179C159.502 75.3261 164.75 79.99 171.129 79.99C174.701 79.99 178.058 78.5255 180.376 75.9651L181.43 75.032C182.442 74.3249 183.642 73.9519 184.91 73.9519C186.404 73.9519 187.825 74.482 188.915 75.4451L189.337 75.836C191.658 78.4846 195.062 80 198.707 80C200.052 80 201.366 79.792 202.606 79.3968C204.674 78.7442 206.536 77.5702 207.989 75.9644L209.044 75.0313C209.544 74.682 210.09 74.4145 210.667 74.2331C211.247 74.0545 211.859 73.9627 212.487 73.9627C213.953 73.9627 215.352 74.4748 216.434 75.4057L216.844 75.8001C218.743 77.9775 221.374 79.3933 224.273 79.8379C224.943 79.9448 225.627 80 226.32 80C229.891 80 233.249 78.5355 235.566 75.9751L236.62 75.0421C237.632 74.3349 238.832 73.962 240.1 73.962C241.566 73.962 242.965 74.4741 244.047 75.405L244.457 75.7994C246.781 78.4638 250.199 79.9878 253.863 79.9878C260.246 79.9878 265.498 75.3347 265.997 69.4387C266.04 68.941 265.617 68.5164 265.088 68.5164H260.585L260.584 68.5192Z" fill="#FCEE21"/>
</svg>
