<svg width="670" height="957" viewBox="0 0 670 957" fill="none" xmlns="http://www.w3.org/2000/svg">
<rect y="28" width="670" height="929" rx="16" fill="#A1D9C6"/>
<rect x="40" y="820" width="590" height="98" rx="12" fill="#2E2F3E"/>
<path d="M283.158 864.204H277.866V880.476H273.474V850.776H277.866V860.46H283.158V864.204ZM270.918 869.568L268.434 872.916C265.518 871.476 262.314 868.488 261.162 865.356C260.154 868.632 257.382 871.692 253.998 873.6L251.334 870.216C256.194 867.66 258.786 863.88 258.786 857.328V856.608H252.414V852.936H269.658V856.608H263.358V857.256C263.358 863.916 266.274 867.264 270.918 869.568ZM300.255 869.1L297.519 872.34C295.431 871.116 292.695 867.804 291.903 865.14C291.147 868.02 288.555 871.476 285.927 873.132L283.263 869.892C287.115 867.12 289.635 863.304 289.635 856.068V852.108H294.099V856.068C294.099 863.268 296.835 867.084 300.255 869.1ZM308.247 880.512V850.776H312.567V880.512H308.247ZM305.727 879.288H301.515V863.16H297.267V859.452H301.515V851.208H305.727V879.288ZM330.312 868.344C330.312 866.472 328.656 865.248 326.676 865.248C324.804 865.248 323.148 866.472 323.148 868.344C323.148 870.18 324.804 871.512 326.676 871.512C328.656 871.512 330.312 870.18 330.312 868.344ZM334.596 868.344C334.596 872.592 330.816 875.04 326.676 875.04C322.572 875.04 318.828 872.592 318.828 868.344C318.828 864.204 322.572 861.72 326.676 861.72C330.816 861.72 334.596 864.204 334.596 868.344ZM336.432 860.46H316.668V856.86H336.432V860.46ZM331.248 855.168H322.14V851.496H331.248V855.168ZM339.456 880.476V850.776H343.812V880.476H339.456ZM377.876 864.924V860.28H366.176V864.924H377.876ZM382.34 868.632H374.312V873.744H387.056V877.416H357.032V873.744H369.884V868.632H361.712V851.892H366.176V856.572H377.876V851.892H382.34V868.632ZM391.589 852.828H407.465C407.501 862.512 402.317 869.64 392.489 873.708L390.041 870.108C397.817 867.264 402.245 861.792 402.641 856.572H391.589V852.828ZM412.433 880.476V850.776H416.825V880.476H412.433Z" fill="white"/>
<path d="M238.159 132.696C235.471 132.696 233.071 131.96 231.599 131.032L232.239 128.28C233.519 129.048 235.503 129.784 237.327 129.784C240.719 129.784 242.767 127.992 242.767 125.016C242.767 121.816 240.847 120.536 237.455 120.536C235.951 120.536 233.807 121.208 232.719 121.72L233.583 109.24H245.455V112.088H236.303L235.887 118.328C236.719 118.104 238.031 117.88 238.927 117.88C243.599 117.88 246.415 120.184 246.415 125.048C246.415 129.272 243.343 132.696 238.159 132.696ZM258.801 119.896V111.256H251.697V119.896H258.801ZM262.289 122.648H248.209V108.504H262.289V122.648ZM271.697 135.48H251.409V125.848H254.897V132.664H271.697V135.48ZM270.801 106.072V114.872H275.249V117.784H270.801V128.056H267.281V106.072H270.801ZM288.559 112.408C288.559 110.808 286.991 109.464 284.495 109.464C281.967 109.464 280.367 110.808 280.367 112.408C280.367 113.976 281.967 115.288 284.495 115.288C286.991 115.288 288.559 113.976 288.559 112.408ZM287.183 127.928H283.663V122.424C280.847 122.552 278.031 122.616 275.215 122.648L274.735 119.768C278.191 119.768 281.487 119.736 284.815 119.608C288.911 119.448 292.111 119.224 294.799 118.904L295.023 121.496C292.431 121.816 289.807 122.04 287.183 122.232V127.928ZM301.007 135.64H279.023V126.712H282.51V132.824H301.007V135.64ZM291.055 126.232V123.672H296.975V106.072H300.463V129.464H296.975V126.232H291.055ZM292.015 112.408C292.015 115.704 288.879 117.944 284.495 117.944C280.111 117.944 276.879 115.736 276.879 112.344C276.879 109.112 280.111 106.776 284.495 106.776C288.879 106.776 292.015 109.112 292.015 112.408ZM323.317 119.064C323.317 114.2 321.525 111.288 318.933 111.288C316.373 111.288 314.613 114.2 314.613 119.064C314.613 123.928 316.373 126.84 318.933 126.84C321.525 126.84 323.317 123.928 323.317 119.064ZM311.189 119.064C311.189 112.664 314.069 108.44 318.933 108.44C323.797 108.44 326.645 112.664 326.645 119.096C326.645 125.464 323.797 129.656 318.933 129.656C314.069 129.656 311.189 125.464 311.189 119.064ZM335.253 136.408H331.765V106.072H335.253V136.408ZM355.698 119.576L353.682 122.296C351.186 121.24 348.082 118.712 346.77 115.832C345.842 119 342.674 121.816 339.634 123.096L337.49 120.344C341.842 118.584 344.946 114.968 344.946 110.296V107.416H348.53V110.136C348.53 114.872 352.242 118.424 355.698 119.576ZM358.514 130.392C358.514 128.344 356.018 127.16 351.762 127.16C347.57 127.16 345.106 128.344 345.106 130.392C345.106 132.408 347.57 133.592 351.762 133.592C356.018 133.592 358.514 132.408 358.514 130.392ZM362.098 130.392C362.098 134.008 358.29 136.408 351.762 136.408C345.298 136.408 341.522 134.008 341.522 130.392C341.522 126.712 345.298 124.312 351.762 124.312C358.29 124.312 362.098 126.712 362.098 130.392ZM366.13 116.344H361.682V124.024H358.194V106.072H361.682V113.432H366.13V116.344ZM376.793 107.832H397.113C397.113 112.888 396.825 117.144 396.089 120.76H400.729V123.576H388.729V136.408H385.241V123.576H373.337V120.76H392.729C393.305 118.072 393.561 114.2 393.593 110.68H376.793V107.832ZM410.998 125.656V112.504H405.462V125.656H410.998ZM426.742 136.408H423.382V121.048H420.502V134.968H417.206V106.68H420.502V118.136H423.382V106.072H426.742V136.408ZM414.294 109.752V128.376H402.166V109.752H414.294ZM447.508 126.776L445.428 129.4C442.836 127.736 439.604 123.992 438.484 120.664C437.46 124.248 434.42 128.056 431.092 130.072L428.948 127.512C433.652 124.472 436.628 119.448 436.628 113.656V108.696H440.244V113.464C440.244 119.288 443.06 123.992 447.508 126.776ZM454.004 136.408H450.516V106.072H454.004V136.408ZM197.513 169C197.513 164.136 195.721 161 193.129 161C190.633 161 188.841 164.136 188.841 169C188.841 173.832 190.633 176.968 193.129 176.968C195.721 176.968 197.513 173.832 197.513 169ZM185.417 168.968C185.417 162.6 188.265 158.184 193.129 158.184C198.057 158.184 200.873 162.6 200.873 169C200.873 175.368 198.057 179.752 193.129 179.752C188.265 179.752 185.417 175.368 185.417 168.968ZM210.153 186.408H206.633V170.28H201.993V167.4H206.633V156.072H210.153V186.408ZM237.191 172.712H216.519V158.792H236.903V161.576H220.007V169.928H237.191V172.712ZM240.391 179.592V182.376H212.999V179.592H240.391ZM250.628 169.992V165.704H245.508V169.992H250.628ZM266.372 178.6H263.044V156.072H266.372V178.6ZM267.172 185.608H246.276V175.976H249.764V182.792H267.172V185.608ZM254.116 172.808H242.02V158.344H245.508V162.952H250.628V158.28H254.116V164.008H257.284V156.648H260.58V177.768H257.284V166.92H254.116V172.808ZM296.066 179.784V182.568H268.674V179.784H296.066ZM291.522 167.624H275.682V171.496H292.834V174.248H272.194V158.408H292.546V161.192H275.682V164.872H291.522V167.624ZM330.44 186.056H309.352V178.216H325.928V175.976H309.224V173.16H329.416V180.808H312.84V183.24H330.44V186.056ZM329.416 171.752H326.088V165.576H322.984V171.56H319.688V156.616H322.984V162.664H326.088V156.072H329.416V171.752ZM305.448 157.8H317.096C316.936 165.16 313.416 169.896 306.184 173.224L304.168 170.6C307.272 169.512 309.704 167.784 311.272 165.672L304.744 166.504L304.168 163.656L312.84 162.888C313.096 162.152 313.288 161.416 313.416 160.648H305.448V157.8ZM349.51 170.536L349.958 173.256C346.79 173.992 341.478 174.248 337.062 174.28H333.254V164.648H343.334V160.968H333.094V158.152H346.822V167.336H336.742V171.464C340.454 171.464 346.726 171.176 349.51 170.536ZM357.478 185.736H336.582V176.776H340.07V182.92H357.478V185.736ZM356.678 178.088H353.19V156.072H356.678V178.088ZM376.675 175.176L377.187 177.992C374.051 178.76 369.955 178.984 364.323 179.016H360.931V158.92H374.595V161.768H364.387V176.136C369.059 176.136 373.123 175.912 376.675 175.176ZM381.027 169.544H373.379V166.632H381.027V156.072H384.515V186.408H381.027V169.544ZM398.666 175.016H405.546V164.936L398.666 175.016ZM405.514 182.472V177.736H395.018V175.496L406.314 159.048H408.874V175.016H412.49V177.736H408.874V182.472H405.514ZM412.935 186.664L413.447 179.048H417.255L415.751 186.664H412.935ZM425.596 161.64C422.908 161.64 421.34 163.656 421.34 166.632C421.34 169.96 423.26 171.432 425.788 171.432C427.708 171.432 429.532 170.088 430.396 168.904V168.296C430.396 164.264 428.956 161.64 425.596 161.64ZM425.532 158.888C430.94 158.888 433.948 162.504 433.948 169.032V170.568C433.948 179.112 430.172 182.696 424.572 182.696C422.236 182.696 420.028 181.96 418.972 181.256L419.676 178.664C420.668 179.24 422.652 179.816 424.412 179.816C427.932 179.816 430.172 177.992 430.396 171.88C429.18 173.096 427.324 174.12 424.86 174.12C420.924 174.12 417.916 171.368 417.916 166.952C417.916 162.504 420.572 158.888 425.532 158.888ZM444.941 179.912C448.237 179.912 449.965 177.64 449.965 171.944V169.832C449.965 164.232 448.237 161.672 444.973 161.672C441.677 161.672 439.949 164.104 439.949 169.64V171.752C439.949 177.288 441.645 179.912 444.941 179.912ZM444.941 182.696C440.045 182.696 436.205 179.496 436.205 171.624V169.992C436.205 161.768 440.333 158.888 445.005 158.888C449.677 158.888 453.613 161.8 453.613 169.864V171.592C453.613 179.592 449.741 182.696 444.941 182.696ZM465.091 179.912C468.387 179.912 470.115 177.64 470.115 171.944V169.832C470.115 164.232 468.387 161.672 465.123 161.672C461.827 161.672 460.099 164.104 460.099 169.64V171.752C460.099 177.288 461.795 179.912 465.091 179.912ZM465.091 182.696C460.195 182.696 456.355 179.496 456.355 171.624V169.992C456.355 161.768 460.483 158.888 465.155 158.888C469.827 158.888 473.763 161.8 473.763 169.864V171.592C473.763 179.592 469.891 182.696 465.091 182.696ZM488.921 162.408C488.921 160.808 487.353 159.464 484.857 159.464C482.329 159.464 480.729 160.808 480.729 162.408C480.729 163.976 482.329 165.288 484.857 165.288C487.353 165.288 488.921 163.976 488.921 162.408ZM487.545 177.928H484.025V172.424C481.209 172.552 478.393 172.616 475.577 172.648L475.097 169.768C478.553 169.768 481.849 169.736 485.177 169.608C489.273 169.448 492.473 169.224 495.161 168.904L495.385 171.496C492.793 171.816 490.169 172.04 487.545 172.232V177.928ZM501.369 185.64H479.385V176.712H482.873V182.824H501.369V185.64ZM491.417 176.232V173.672H497.337V156.072H500.825V179.464H497.337V176.232H491.417ZM492.377 162.408C492.377 165.704 489.241 167.944 484.857 167.944C480.473 167.944 477.241 165.736 477.241 162.344C477.241 159.112 480.473 156.776 484.857 156.776C489.241 156.776 492.377 159.112 492.377 162.408Z" fill="#2E2F3E"/>
<path d="M279.735 771.984H275.559V770.136H279.735V764.52H281.991V778.344H279.735V771.984ZM274.599 780.048C271.335 780.048 269.391 780.96 269.391 782.52C269.391 784.08 271.335 784.992 274.599 784.992C277.911 784.992 279.831 784.08 279.831 782.52C279.831 780.96 277.911 780.048 274.599 780.048ZM264.207 768.168V766.32H276.399V768.168H271.527V768.912C271.527 772.08 274.335 774.6 276.855 775.368L275.607 777.168C273.615 776.376 271.335 774.432 270.399 772.392C269.679 774.528 267.087 776.88 264.783 777.816L263.511 776.04C266.415 774.984 269.223 772.08 269.223 768.96V768.168H264.207ZM282.135 782.52C282.135 785.184 279.423 786.84 274.599 786.84C269.823 786.84 267.087 785.184 267.087 782.52C267.087 779.856 269.823 778.176 274.599 778.176C279.423 778.176 282.135 779.856 282.135 782.52ZM302.989 764.52V773.664H306.565V775.536H302.989V786.84H300.757V764.52H302.989ZM286.765 766.896H297.133C296.989 773.976 293.269 779.208 287.173 782.52L285.781 780.792C291.061 778.272 294.301 773.616 294.709 768.792H286.765V766.896ZM315.138 783.96V782.64L319.074 778.56C321.498 776.04 323.178 774.096 323.178 771.696C323.178 769.464 322.098 768.384 319.698 768.384C318.282 768.384 316.89 769.08 315.906 769.752L315.354 768C316.434 767.304 318.186 766.488 320.13 766.488C323.658 766.488 325.554 768.384 325.554 771.456C325.554 774.48 323.586 776.664 320.778 779.496L318.234 782.088H325.89V783.96H315.138ZM334.035 768.312C331.875 768.312 330.603 769.968 330.603 772.296C330.603 774.912 332.115 776.04 334.131 776.04C335.691 776.04 337.131 774.936 337.827 773.976V773.496C337.827 770.376 336.699 768.312 334.035 768.312ZM334.011 766.512C337.899 766.512 340.083 769.152 340.083 774.048V775.152C340.083 781.296 337.539 784.272 333.363 784.272C331.611 784.272 329.979 783.744 329.187 783.216L329.739 781.56C330.483 781.992 331.899 782.4 333.243 782.4C336.003 782.4 337.635 780.768 337.827 776.04C336.891 777.048 335.499 777.864 333.627 777.864C330.723 777.864 328.395 775.776 328.395 772.488C328.395 769.224 330.435 766.512 334.011 766.512ZM340.827 787.416L341.715 782.256H344.283L342.699 787.416H340.827ZM353.565 782.448C356.133 782.448 357.501 780.696 357.501 776.328V774.576C357.501 770.28 356.157 768.336 353.589 768.336C350.997 768.336 349.581 770.184 349.581 774.408V776.208C349.581 780.432 350.949 782.448 353.565 782.448ZM353.565 784.272C349.965 784.272 347.181 781.872 347.181 776.04V774.672C347.181 768.6 350.181 766.512 353.589 766.512C356.997 766.512 359.829 768.6 359.829 774.576V776.064C359.829 781.92 357.069 784.272 353.565 784.272ZM369.713 782.448C372.281 782.448 373.649 780.696 373.649 776.328V774.576C373.649 770.28 372.305 768.336 369.737 768.336C367.145 768.336 365.729 770.184 365.729 774.408V776.208C365.729 780.432 367.097 782.448 369.713 782.448ZM369.713 784.272C366.113 784.272 363.329 781.872 363.329 776.04V774.672C363.329 768.6 366.329 766.512 369.737 766.512C373.145 766.512 375.977 768.6 375.977 774.576V776.064C375.977 781.92 373.217 784.272 369.713 784.272ZM385.861 782.448C388.429 782.448 389.797 780.696 389.797 776.328V774.576C389.797 770.28 388.453 768.336 385.885 768.336C383.293 768.336 381.877 770.184 381.877 774.408V776.208C381.877 780.432 383.245 782.448 385.861 782.448ZM385.861 784.272C382.261 784.272 379.477 781.872 379.477 776.04V774.672C379.477 768.6 382.477 766.512 385.885 766.512C389.293 766.512 392.125 768.6 392.125 774.576V776.064C392.125 781.92 389.365 784.272 385.861 784.272ZM405.49 769.728C405.49 768.408 404.122 767.376 401.986 767.376C399.874 767.376 398.482 768.384 398.482 769.728C398.482 771.048 399.874 772.032 401.986 772.032C404.122 772.032 405.49 771.048 405.49 769.728ZM403.306 780.696H401.05V776.736C398.866 776.832 396.922 776.856 394.978 776.904L394.618 775.032C397.186 775.032 399.586 775.008 402.034 774.912C404.89 774.768 407.098 774.624 409.186 774.384L409.354 776.088C407.866 776.304 405.538 776.496 403.306 776.616V780.696ZM413.794 786.264H397.594V779.76H399.85V784.44H413.794V786.264ZM413.362 781.68H411.13V779.304H406.738V777.624H411.13V764.52H413.362V781.68ZM407.914 769.728C407.914 772.248 405.442 773.832 401.986 773.832C398.578 773.832 396.058 772.272 396.058 769.704C396.058 767.184 398.578 765.552 401.986 765.552C405.442 765.552 407.914 767.184 407.914 769.728Z" fill="#2E2F3E"/>
<path d="M205.874 725.44C208.114 724.56 210.314 722.84 210.314 720.4C210.314 717.96 208.474 716.44 205.394 716.44C202.554 716.44 200.554 717.84 200.554 720.36C200.554 722.96 202.554 724.56 205.874 725.44ZM205.354 739.32C208.554 739.32 210.994 737.52 210.994 734.92C210.994 731.76 208.674 730.2 204.714 729C202.234 729.96 199.594 731.8 199.594 734.72C199.594 737.56 201.994 739.32 205.354 739.32ZM205.394 742.84C199.274 742.84 195.434 739.72 195.434 735.08C195.434 731.24 198.194 728.72 201.114 727.44C198.354 726.2 196.154 724.12 196.154 720.52C196.154 716.08 200.034 713 205.354 713C210.674 713 214.394 715.68 214.394 720.24C214.394 723.48 212.114 725.8 209.314 727.04C212.434 728.24 215.434 730.56 215.434 734.56C215.434 739.36 211.474 742.84 205.394 742.84ZM227.542 742.76C224.422 742.76 221.022 741.8 219.542 740.72L220.542 737.12C221.902 738.04 225.022 738.92 226.942 738.92C230.622 738.92 232.902 737.16 232.902 733.8C232.902 730.6 230.182 729.16 226.982 729.04H223.782V725.4H226.622C229.702 725.44 232.182 723.68 232.182 720.8C232.182 717.68 229.942 716.72 227.142 716.72C225.142 716.72 222.942 717.52 221.302 718.56L220.142 715.12C221.982 713.88 225.382 712.92 228.142 712.92C232.942 712.92 236.582 715.4 236.582 720.04C236.582 723.6 234.702 725.84 231.662 726.92C234.982 727.68 237.502 729.88 237.502 734.04C237.502 739.32 233.382 742.76 227.542 742.76ZM255.776 740.888C256.952 740.888 257.6 740 257.6 738.08V737.456C257.6 735.584 256.904 734.696 255.776 734.696C254.648 734.696 253.976 735.56 253.976 737.432V738.032C253.976 739.976 254.624 740.888 255.776 740.888ZM255.776 742.76C253.424 742.76 251.84 741.032 251.84 738.008V737.624C251.84 734.72 253.448 732.728 255.776 732.728C258.104 732.728 259.712 734.576 259.712 737.48V737.864C259.712 740.816 258.128 742.76 255.776 742.76ZM243.536 742.688L254.576 725.144H256.736L245.624 742.688H243.536ZM244.736 733.208C245.936 733.208 246.608 732.248 246.608 730.376V729.728C246.608 727.904 245.864 726.992 244.736 726.992C243.632 726.992 242.936 727.88 242.936 729.752V730.352C242.936 732.248 243.608 733.208 244.736 733.208ZM244.736 735.104C242.408 735.104 240.848 733.352 240.848 730.352V729.944C240.848 727.016 242.408 725.024 244.736 725.024C247.088 725.024 248.672 726.896 248.672 729.752V730.184C248.672 733.136 247.136 735.104 244.736 735.104ZM276.486 740.768C279.582 740.768 281.622 738.272 281.622 734.24V733.52C281.622 729.56 279.366 727.232 276.438 727.232C273.606 727.232 271.302 729.584 271.302 733.496V734.192C271.302 738.32 273.342 740.768 276.486 740.768ZM276.438 742.976C272.19 742.976 268.758 739.856 268.758 734.096V733.808C268.758 728.12 272.262 725 276.486 725C280.638 725 284.19 728 284.19 733.784V734.096C284.19 739.808 280.734 742.976 276.438 742.976ZM286.817 742.616V725.24H297.473V727.424H289.265V732.416H296.657V734.576H289.265V742.616H286.817ZM300.177 742.616V725.24H310.833V727.424H302.625V732.416H310.017V734.576H302.625V742.616H300.177Z" fill="#2E2F3E"/>
<path d="M479.962 720.04C478.666 720.04 477.802 720.784 477.802 721.768C477.802 722.68 478.666 723.448 479.962 723.448C481.33 723.448 482.122 722.68 482.122 721.768C482.122 720.784 481.33 720.04 479.962 720.04ZM481.714 732.28H478.234V729.664C476.506 729.76 474.562 729.832 473.098 729.808L472.666 726.616C474.298 726.712 477.658 726.712 479.722 726.64C482.266 726.568 485.386 726.4 486.706 726.208L486.922 728.92C485.794 729.088 483.658 729.28 481.714 729.424V732.28ZM492.298 739.336H478.522V733.216H481.906V736.432H492.298V739.336ZM488.506 734.32V732.496H484.33V729.784H488.506V717.064H491.938V734.32H488.506ZM485.434 721.768C485.434 724.408 483.394 726.28 479.962 726.28C476.77 726.28 474.514 724.408 474.514 721.72C474.514 719.08 476.77 717.16 479.962 717.16C483.394 717.16 485.434 719.104 485.434 721.768Z" fill="#2E2F3E"/>
<path d="M343.265 728.184H348.641V719.4L343.265 728.184ZM348.545 740.424V734.52H334.577V729.912L350.225 704.76H355.697V728.184H360.161V734.52H355.697V740.424H348.545ZM363.241 742.584V735.096H371.353V740.616C371.353 745.512 368.329 749.64 363.433 750.6L362.521 747.192C365.257 746.712 366.841 744.456 366.889 742.584H363.241ZM386.475 710.712C383.835 710.712 381.723 712.632 381.723 716.568C381.723 720.648 383.787 722.424 386.715 722.424C388.299 722.424 390.651 720.888 391.419 719.448V718.584C391.419 713.16 389.595 710.712 386.475 710.712ZM386.091 704.568C394.491 704.568 398.763 710.424 398.763 720.216V722.52C398.763 735.864 391.803 740.904 383.787 740.904C381.147 740.904 377.115 739.8 375.819 738.984L377.643 732.888C378.699 733.608 381.819 734.52 383.691 734.52C387.771 734.52 391.083 732.456 391.467 726.072C389.931 727.368 387.243 728.424 384.171 728.424C378.363 728.424 374.331 723.96 374.331 717.336C374.331 710.376 378.267 704.568 386.091 704.568ZM416.932 734.616C420.676 734.616 422.884 731.112 422.884 723.48V721.992C422.884 714.072 420.58 710.712 416.98 710.712C413.188 710.712 411.076 714.12 411.076 721.8V723.336C411.076 731.016 413.044 734.616 416.932 734.616ZM416.884 740.856C409.54 740.856 403.396 736.008 403.396 723.72V722.28C403.396 709.272 410.116 704.424 417.028 704.424C423.988 704.424 430.516 709.464 430.516 722.088V723.384C430.516 736.392 423.748 740.856 416.884 740.856ZM448.338 734.616C452.082 734.616 454.29 731.112 454.29 723.48V721.992C454.29 714.072 451.986 710.712 448.386 710.712C444.594 710.712 442.482 714.12 442.482 721.8V723.336C442.482 731.016 444.45 734.616 448.338 734.616ZM448.29 740.856C440.946 740.856 434.802 736.008 434.802 723.72V722.28C434.802 709.272 441.522 704.424 448.434 704.424C455.394 704.424 461.922 709.464 461.922 722.088V723.384C461.922 736.392 455.154 740.856 448.29 740.856Z" fill="#2E2F3E"/>
<rect x="255" width="160" height="56" rx="28" fill="#FCEE21"/>
<path d="M302.646 37.024C297.342 37.288 294.27 34.408 294.27 27.4C294.27 20.392 297.414 17.176 302.718 16.912C305.262 16.768 307.182 17.272 308.934 19.072C308.43 20.056 307.59 21.064 306.822 21.688C305.862 20.752 304.47 20.272 302.718 20.368C299.79 20.512 297.966 22.36 297.966 27.208C297.966 32.032 299.718 33.688 302.646 33.544C304.254 33.448 305.55 32.896 306.15 32.32C306.15 31.192 306.15 30.04 306.174 28.816C305.238 28.912 304.038 28.984 303.054 28.984C302.958 28.216 302.958 26.44 303.054 25.672C305.286 25.48 307.59 25.36 309.678 25.336C309.702 27.448 309.726 31.024 309.678 33.424C308.19 35.584 305.766 36.856 302.646 37.024ZM312.333 37.072C312.237 33.28 312.237 21.976 312.333 17.608C313.197 17.44 314.997 17.344 315.957 17.416C316.005 21.64 316.005 32.92 315.957 36.88C314.733 37.072 313.437 37.144 312.333 37.072ZM331.301 20.392C330.365 20.488 323.741 20.824 322.757 20.824C322.781 21.832 322.805 23.584 322.805 25.6C325.349 25.408 329.453 25.216 330.245 25.24C330.341 26.416 330.341 27.544 330.245 28.672C329.453 28.768 325.373 28.984 322.805 29.104C322.805 32.32 322.781 35.488 322.757 36.856C321.725 37.072 320.045 37.144 318.965 37.072C318.917 33.064 318.917 21.64 318.965 17.608C321.125 17.416 329.405 16.984 331.301 16.96C331.421 17.824 331.397 19.504 331.301 20.392ZM345.978 16.936C346.074 18.16 346.074 18.928 345.978 20.32C344.802 20.416 343.002 20.536 341.034 20.632C341.082 24.808 341.082 35.488 341.01 36.664C339.786 36.88 338.418 36.952 337.314 36.856C337.242 35.896 337.242 25.096 337.29 20.824C335.394 20.92 333.618 20.992 332.322 21.04C332.25 19.912 332.25 18.64 332.322 17.656C335.706 17.392 342.81 17.008 345.978 16.936ZM359.166 37.096C354.654 37.336 352.326 34.768 352.326 27.4C352.326 20.032 354.582 17.224 359.166 16.984C363.39 16.768 366.006 18.928 366.006 26.68C366.006 34.36 363.51 36.88 359.166 37.096ZM359.166 33.664C361.302 33.544 362.286 32.152 362.286 26.872C362.286 21.352 361.134 20.32 359.166 20.416C356.982 20.536 356.046 22.072 356.046 27.208C356.046 32.416 357.054 33.784 359.166 33.664ZM371.634 36.904C371.61 34.864 371.61 26.776 371.61 21.52C370.842 22.096 369.906 22.72 368.802 23.392C368.178 22.72 367.338 21.328 367.026 20.44C368.778 19.264 370.938 17.848 371.634 17.44C372.258 17.32 374.634 17.2 375.378 17.248C375.45 20.224 375.474 32.704 375.378 36.712C374.562 36.88 372.498 37 371.634 36.904Z" fill="#2E2F3E"/>
</svg>
