<svg width="750" height="1372" viewBox="0 0 750 1372" fill="none" xmlns="http://www.w3.org/2000/svg">
<rect width="750" height="1326" fill="#2E2F3E"/>
<path d="M750 1357.7C731.171 1376.77 700.647 1376.77 681.818 1357.7C662.989 1338.63 632.465 1338.63 613.636 1357.7C594.808 1376.77 564.283 1376.77 545.455 1357.7C526.626 1338.63 496.102 1338.63 477.273 1357.7C458.444 1376.77 427.92 1376.77 409.091 1357.7C390.262 1338.63 359.738 1338.63 340.909 1357.7C322.08 1376.77 291.556 1376.77 272.727 1357.7C253.898 1338.63 223.374 1338.63 204.546 1357.7C185.717 1376.77 155.193 1376.77 136.364 1357.7C117.535 1338.63 87.0107 1338.63 68.1819 1357.7C49.353 1376.77 18.8288 1376.77 -1.50812e-05 1357.7L-1.23102e-05 1326L750 1326L750 1357.7Z" fill="#2E2F3E"/>
</svg>
