<svg width="630" height="140" viewBox="0 0 630 140" fill="none" xmlns="http://www.w3.org/2000/svg">
<path d="M20.6889 17.68C20.6889 19.144 19.4889 20.32 18.0249 20.32C16.5609 20.32 15.3609 19.144 15.3609 17.68C15.3609 16.216 16.5609 15.016 18.0249 15.016C19.4889 15.016 20.6889 16.216 20.6889 17.68ZM39.336 8.176H54.48C54.48 11.2 54.408 14.608 53.664 18.064H57.12V19.696H48V28.84H46.056V19.696H36.96V18.064H51.72C52.344 15.664 52.464 11.968 52.464 9.784H39.336V8.176ZM65.5421 21.256V10.576H60.4781V21.256H65.5421ZM76.6781 28.84H74.7581V17.056H72.0221V27.712H70.1261V7.048H72.0221V15.424H74.7581V6.52H76.6781V28.84ZM67.4381 22.864H58.5821V8.968H67.4381V22.864ZM102.963 28.096H87.9388V21.232H89.8828V26.464H102.963V28.096ZM102.483 22.864H100.539V14.344H96.0988V12.712H100.539V6.52H102.483V22.864ZM84.8908 10.12V8.488H96.8908V10.12H91.8988C91.8988 11.128 91.8988 11.608 91.9228 11.92C92.0908 14.776 94.8508 17.344 97.3948 18.184L96.3148 19.744C94.1788 18.88 91.8028 16.744 90.8908 14.728C90.2908 16.816 87.6988 19.24 85.2988 20.272L84.1708 18.76C86.9788 17.68 89.7868 14.848 89.9068 11.896C89.9308 11.608 89.9308 11.104 89.9308 10.12H84.8908ZM121.736 22.624C120.536 22.792 118.568 22.984 116.6 23.08C114.536 23.224 112.568 23.296 110.672 23.296L110.384 21.592H112.855L112.184 12.4L114.128 12.136C114.296 15.28 114.512 18.4 114.704 21.544L116.48 21.472C116.624 21.472 116.792 21.472 116.96 21.448C117.152 18.352 117.344 15.232 117.56 12.136L119.504 12.328C119.24 15.328 118.976 18.328 118.688 21.352C119.768 21.256 120.776 21.16 121.568 21.04C121.616 21.568 121.664 22.096 121.736 22.624ZM125.312 27.688H123.416V16.696H120.368V15.088H123.416V7.048H125.312V27.688ZM129.464 28.84H127.568V6.52H129.464V28.84ZM121.016 10.912H110.936V9.304H121.016V10.912ZM141.942 16.096C141.942 12.424 140.406 9.88 138.03 9.88C135.678 9.88 134.118 12.424 134.118 16.096C134.118 19.744 135.678 22.288 138.03 22.288C140.406 22.288 141.942 19.744 141.942 16.096ZM132.27 16.072C132.27 11.368 134.358 8.2 138.03 8.2C141.726 8.2 143.79 11.368 143.79 16.096C143.79 20.824 141.726 23.968 138.03 23.968C134.358 23.968 132.27 20.824 132.27 16.072ZM149.886 28.84H147.942V6.52H149.886V28.84ZM160.3 16.84V13.048H155.116V16.84H160.3ZM171.22 28.84H169.252V22.576H156.148V20.968H171.22V28.84ZM171.22 19.768H169.3V13.816H166.54V19.624H164.668V6.928H166.54V12.208H169.3V6.52H171.22V19.768ZM162.196 18.448H153.22V7.984H155.116V11.44H160.3V7.984H162.196V18.448ZM181.448 21.4H182.12C184.352 21.4 187.712 21.256 189.584 20.848L189.776 22.432C187.664 22.84 183.896 23.08 180.992 23.08H179.504V9.256H188.168V10.888H181.448V21.4ZM197.624 28.84H195.728V16.936H192.728V27.688H190.856V7.048H192.728V15.304H195.728V6.52H197.624V28.84ZM220.255 14.2H216.847V20.272H214.903V6.52H216.847V12.568H220.255V14.2ZM209.647 21.856C206.287 21.856 204.199 22.84 204.199 24.544C204.199 26.248 206.287 27.208 209.647 27.208C213.055 27.208 215.167 26.248 215.167 24.544C215.167 22.84 213.055 21.856 209.647 21.856ZM217.159 24.544C217.159 27.184 214.351 28.816 209.647 28.816C204.991 28.816 202.207 27.184 202.207 24.544C202.207 21.88 204.991 20.248 209.647 20.248C214.351 20.248 217.159 21.88 217.159 24.544ZM212.311 16.816L211.159 18.352C209.023 17.32 206.815 15.4 205.927 13.144C205.231 15.52 202.975 17.752 200.359 19.096L199.279 17.584C202.471 16.096 204.871 13.288 204.871 9.736V7.576H206.839V9.664C206.839 13.216 209.791 15.928 212.311 16.816ZM246.659 14.2H243.251V20.272H241.307V6.52H243.251V12.568H246.659V14.2ZM236.051 21.856C232.691 21.856 230.603 22.84 230.603 24.544C230.603 26.248 232.691 27.208 236.051 27.208C239.459 27.208 241.571 26.248 241.571 24.544C241.571 22.84 239.459 21.856 236.051 21.856ZM243.563 24.544C243.563 27.184 240.755 28.816 236.051 28.816C231.395 28.816 228.611 27.184 228.611 24.544C228.611 21.88 231.395 20.248 236.051 20.248C240.755 20.248 243.563 21.88 243.563 24.544ZM238.715 16.816L237.563 18.352C235.427 17.32 233.219 15.4 232.331 13.144C231.635 15.52 229.379 17.752 226.763 19.096L225.683 17.584C228.875 16.096 231.275 13.288 231.275 9.736V7.576H233.243V9.664C233.243 13.216 236.195 15.928 238.715 16.816ZM265.041 9.16H248.937V7.552H265.041V9.16ZM264.873 15.424H249.105V13.816H252.489L251.913 10.24L253.929 10L254.337 13.816H259.641L260.145 9.976L262.161 10.192L261.513 13.816H264.873V15.424ZM262.737 26.92V23.104H251.361V26.92H262.737ZM264.657 28.528H249.417V21.496H256.041V18.976H246.969V17.368H267.129V18.976H257.985V21.496H264.657V28.528ZM286.208 28.624H270.2V23.32H283.544V21.352H270.152V19.792H285.488V24.784H272.144V27.04H286.208V28.624ZM277.952 8.416C274.448 8.416 272.168 9.304 272.168 10.696C272.168 12.088 274.448 12.952 277.952 12.952C281.48 12.952 283.784 12.088 283.784 10.696C283.784 9.304 281.48 8.416 277.952 8.416ZM285.752 10.696C285.752 13.144 282.8 14.56 277.952 14.56C273.152 14.56 270.176 13.144 270.176 10.696C270.176 8.248 273.152 6.832 277.952 6.832C282.8 6.832 285.752 8.248 285.752 10.696ZM288.008 17.8H267.848V16.168H288.008V17.8ZM314.412 18.544H294.252V16.912H303.588V12.52H305.532V16.912H314.412V18.544ZM296.556 21.256H311.724V28.984H309.78V22.864H296.556V21.256ZM304.74 7.408H311.988C311.988 10.672 311.796 13.048 311.292 15.112L309.372 14.824C309.828 13.096 309.996 10.912 309.996 9.016H304.74V7.408ZM296.052 7.408H302.868C302.868 10.456 302.436 13.096 301.764 15.112L299.844 14.752C300.42 13.288 300.852 11.008 300.876 9.016H296.052V7.408ZM334.481 18.808L334.649 20.296C333.041 20.488 330.377 20.752 327.737 20.896C325.217 21.04 322.145 21.16 320.585 21.16L320.273 19.552C321.905 19.552 324.161 19.504 326.441 19.408V17.896C324.089 17.68 322.289 16.768 322.289 14.968C322.289 12.904 324.617 11.944 327.449 11.944C330.305 11.944 332.657 12.88 332.657 14.944C332.657 16.744 330.809 17.704 328.409 17.896V19.312C330.761 19.192 333.185 19 334.481 18.808ZM341.249 15.544H337.865V21.352H335.921V6.52H337.865V13.912H341.249V15.544ZM323.249 22.528H337.865V28.984H335.921V24.136H323.249V22.528ZM333.905 11.2H321.065V9.64H333.905V11.2ZM330.809 14.944C330.809 13.912 329.321 13.408 327.449 13.408C325.553 13.408 324.137 13.912 324.137 14.944C324.137 16 325.577 16.504 327.449 16.504C329.321 16.504 330.809 15.976 330.809 14.944ZM330.545 8.416H324.425V6.808H330.545V8.416ZM348.039 9.688C345.687 9.688 343.887 11.296 343.887 13.552C343.887 15.808 345.711 17.392 348.063 17.392C350.511 17.392 352.215 15.808 352.215 13.576C352.215 11.296 350.511 9.688 348.039 9.688ZM348.039 7.984C351.423 7.984 354.063 10.24 354.063 13.552C354.063 16.888 351.447 19.096 348.063 19.096C344.655 19.096 342.039 16.912 342.039 13.576C342.039 10.264 344.655 7.984 348.039 7.984ZM360.327 28.096H345.231V21.208H347.175V26.488H360.327V28.096ZM359.775 22.816H357.831V6.52H359.775V22.816ZM371.077 9.904H364.981V8.224H371.077V9.904ZM373.477 13.552H362.365V11.944H373.477V13.552ZM371.197 19.312C371.197 17.584 369.949 16.48 368.197 16.48C366.421 16.48 365.197 17.608 365.197 19.312C365.197 21.04 366.421 22.144 368.197 22.144C369.949 22.144 371.197 20.992 371.197 19.312ZM373.069 19.312C373.069 22 371.077 23.752 368.197 23.752C365.341 23.752 363.325 21.856 363.325 19.312C363.325 16.6 365.341 14.848 368.197 14.848C371.077 14.848 373.069 16.624 373.069 19.312ZM381.253 28.84H379.333V17.272H376.645V27.712H374.749V7.048H376.645V15.64H379.333V6.52H381.253V28.84ZM399.834 28.84H397.89V20.848H388.818V19.216H408.978V20.848H399.834V28.84ZM408.018 15.496L407.106 17.128C403.458 16.504 399.906 14.248 398.898 12.16C397.986 14.248 394.53 16.552 390.714 17.176L389.826 15.544C393.474 15.16 397.794 12.832 397.89 9.712H390.666V8.104H407.106V9.712H399.93C400.026 12.856 404.61 15.112 408.018 15.496ZM420.928 21.784L419.752 23.224C418.024 21.976 415.672 19.336 414.976 16.792C414.472 19.36 412.648 22.264 410.416 23.872L409.216 22.432C411.76 20.824 413.992 17.008 413.992 12.64V8.584H415.912V12.592C415.912 16.936 418.504 20.176 420.928 21.784ZM424.192 27.712H422.296V16.192H418.336V14.56H422.296V7.048H424.192V27.712ZM428.608 28.84H426.688V6.52H428.608V28.84ZM450.734 25.984H430.574V24.352H435.566V19.912L437.51 19.864V24.352H443.726V19.864L445.67 19.912V24.352H450.734V25.984ZM446.822 13.648C446.822 11.224 444.374 9.592 440.63 9.592C436.91 9.592 434.462 11.224 434.462 13.648C434.462 16.072 436.91 17.704 440.63 17.704C444.35 17.704 446.822 16.072 446.822 13.648ZM448.694 13.648C448.694 17.008 445.478 19.216 440.63 19.216C435.806 19.216 432.59 17.008 432.59 13.648C432.59 10.288 435.806 8.032 440.63 8.032C445.502 8.032 448.694 10.288 448.694 13.648ZM451.572 26.608V24.328H453.78V26.608H451.572Z" fill="#AEB5C9"/>
<path d="M20.6889 69.68C20.6889 71.144 19.4889 72.32 18.0249 72.32C16.5609 72.32 15.3609 71.144 15.3609 69.68C15.3609 68.216 16.5609 67.016 18.0249 67.016C19.4889 67.016 20.6889 68.216 20.6889 69.68ZM48.048 74.624C46.848 74.792 44.88 74.984 42.912 75.08C40.848 75.224 38.88 75.296 36.984 75.296L36.696 73.592H39.168L38.496 64.4L40.44 64.136C40.608 67.28 40.824 70.4 41.016 73.544L42.792 73.472C42.936 73.472 43.104 73.472 43.272 73.448C43.464 70.352 43.656 67.232 43.872 64.136L45.816 64.328C45.552 67.328 45.288 70.328 45 73.352C46.08 73.256 47.088 73.16 47.88 73.04C47.928 73.568 47.976 74.096 48.048 74.624ZM51.624 79.688H49.728V68.696H46.68V67.088H49.728V59.048H51.624V79.688ZM55.776 80.84H53.88V58.52H55.776V80.84ZM47.328 62.912H37.248V61.304H47.328V62.912ZM68.2541 68.096C68.2541 64.424 66.7181 61.88 64.3421 61.88C61.9901 61.88 60.4301 64.424 60.4301 68.096C60.4301 71.744 61.9901 74.288 64.3421 74.288C66.7181 74.288 68.2541 71.744 68.2541 68.096ZM58.5821 68.072C58.5821 63.368 60.6701 60.2 64.3421 60.2C68.0381 60.2 70.1021 63.368 70.1021 68.096C70.1021 72.824 68.0381 75.968 64.3421 75.968C60.6701 75.968 58.5821 72.824 58.5821 68.072ZM76.1981 80.84H74.2541V58.52H76.1981V80.84ZM86.6122 68.84V65.048H81.4282V68.84H86.6122ZM97.5322 80.84H95.5642V74.576H82.4602V72.968H97.5322V80.84ZM97.5322 71.768H95.6122V65.816H92.8522V71.624H90.9802V58.928H92.8522V64.208H95.6122V58.52H97.5322V71.768ZM88.5082 70.448H79.5322V59.984H81.4282V63.44H86.6122V59.984H88.5082V70.448ZM123.361 71.816H121.417V66.08H116.953V64.472H121.417V58.52H123.361V71.816ZM108.505 72.992H123.385V80.84H121.417V74.6H108.505V72.992ZM105.721 61.88V60.248H117.745V61.88H112.777C112.777 62.336 112.777 62.936 112.801 63.224C112.969 66.248 115.681 68.72 118.225 69.56L117.145 71.12C115.009 70.256 112.681 68.048 111.769 66.032C111.169 68.12 108.481 70.808 106.081 71.84L105.025 70.28C107.833 69.2 110.665 66.368 110.785 63.2C110.809 62.936 110.809 62.312 110.809 61.88H105.721ZM136.079 67.376C134.975 67.376 133.967 67.304 133.079 67.136V69.8H139.007V67.16C138.119 67.304 137.159 67.376 136.079 67.376ZM136.103 74.504C132.551 74.504 130.175 75.296 130.175 76.76C130.175 78.224 132.551 79.016 136.103 79.016C139.727 79.016 142.079 78.224 142.079 76.76C142.079 75.296 139.703 74.504 136.103 74.504ZM141.983 63.2C141.983 61.544 139.655 60.56 136.079 60.56C132.503 60.56 130.199 61.544 130.199 63.2C130.199 64.832 132.503 65.816 136.079 65.816C139.631 65.816 141.983 64.832 141.983 63.2ZM144.023 76.76C144.023 79.328 141.023 80.696 136.127 80.696C131.207 80.696 128.231 79.328 128.231 76.76C128.231 74.216 131.207 72.824 136.103 72.824C141.023 72.824 144.023 74.216 144.023 76.76ZM143.879 63.2C143.879 64.712 142.823 65.912 140.951 66.632V69.8H146.159V71.408H125.999V69.8H131.135V66.608C129.311 65.888 128.303 64.688 128.303 63.2C128.303 60.656 131.183 59 136.079 59C140.975 59 143.879 60.656 143.879 63.2ZM162.484 61.256C158.764 61.256 156.484 62.48 156.484 64.376C156.484 66.272 158.764 67.496 162.484 67.496C166.228 67.496 168.508 66.272 168.508 64.376C168.508 62.48 166.228 61.256 162.484 61.256ZM159.556 80.84H157.612V72.92H152.404V71.288H172.564V72.92H167.284V80.84H165.34V72.92H159.556V80.84ZM170.404 64.376C170.404 67.256 167.428 69.224 162.484 69.224C157.54 69.224 154.564 67.28 154.564 64.376C154.564 61.472 157.54 59.528 162.484 59.528C167.428 59.528 170.404 61.472 170.404 64.376ZM184.298 80.864H182.354V73.256H173.282V71.624H193.442V73.256H184.298V80.864ZM188.978 67.16V61.376H177.746V67.16H188.978ZM190.922 68.768H175.778V59.768H190.922V68.768ZM212.064 67.256H196.872V59.456H198.816V65.648H212.064V67.256ZM212.16 80.336H196.8V73.76H198.744V78.728H212.16V80.336ZM214.32 71.672H194.16V70.04H214.32V71.672ZM239.645 80.696H224.381V75.08H236.861V72.632H224.309V71.096H238.805V76.496H226.325V79.16H239.645V80.696ZM221.813 59.744H231.989C231.533 65.624 227.381 69.176 221.837 70.784L220.853 69.224C225.749 67.976 229.037 65.024 229.757 61.376H221.813V59.744ZM232.229 63.344V61.808H236.861V58.52H238.805V69.872H236.861V67.472H231.941V65.912H236.861V63.344H232.229ZM260.283 80.84H258.363V58.52H260.283V80.84ZM255.843 79.712H253.947V68.312H250.371V66.704H253.947V59.048H255.843V79.712ZM252.843 74.144L251.619 75.56C250.035 74.456 247.683 71.84 247.035 69.488C246.579 71.96 244.563 74.624 242.403 76.16L241.107 74.792C243.723 73.112 246.075 69.584 246.075 65.264V62.744H241.635V61.136H252.267V62.744H247.995V65.192C247.995 69.608 250.083 72.344 252.843 74.144ZM286.568 80.096H271.544V73.232H273.488V78.464H286.568V80.096ZM286.088 74.864H284.144V66.344H279.704V64.712H284.144V58.52H286.088V74.864ZM268.496 62.12V60.488H280.496V62.12H275.504C275.504 63.128 275.504 63.608 275.528 63.92C275.696 66.776 278.456 69.344 281 70.184L279.92 71.744C277.784 70.88 275.408 68.744 274.496 66.728C273.896 68.816 271.304 71.24 268.904 72.272L267.776 70.76C270.584 69.68 273.392 66.848 273.512 63.896C273.536 63.608 273.536 63.104 273.536 62.12H268.496ZM305.268 80.84H303.324V72.848H294.252V71.216H314.412V72.848H305.268V80.84ZM313.452 67.496L312.54 69.128C308.892 68.504 305.34 66.248 304.332 64.16C303.42 66.248 299.964 68.552 296.148 69.176L295.26 67.544C298.908 67.16 303.228 64.832 303.324 61.712H296.1V60.104H312.54V61.712H305.364C305.46 64.856 310.044 67.112 313.452 67.496ZM333.01 80.12H317.65V73.808H319.594V78.512H333.01V80.12ZM326.218 76.112H324.274V71.72H315.13V70.112H335.29V71.72H326.218V76.112ZM330.826 66.008V61.352H319.618V66.008H330.826ZM332.77 67.616H317.674V59.744H332.77V67.616ZM347.096 74.624C345.896 74.792 343.928 74.984 341.96 75.08C339.896 75.224 337.928 75.296 336.032 75.296L335.744 73.592H338.216L337.544 64.4L339.488 64.136C339.656 67.28 339.872 70.4 340.064 73.544L341.84 73.472C341.984 73.472 342.152 73.472 342.32 73.448C342.512 70.352 342.704 67.232 342.92 64.136L344.864 64.328C344.6 67.328 344.336 70.328 344.048 73.352C345.128 73.256 346.136 73.16 346.928 73.04C346.976 73.568 347.024 74.096 347.096 74.624ZM350.672 79.688H348.776V68.696H345.728V67.088H348.776V59.048H350.672V79.688ZM354.824 80.84H352.928V58.52H354.824V80.84ZM346.376 62.912H336.296V61.304H346.376V62.912ZM367.303 68.096C367.303 64.424 365.767 61.88 363.391 61.88C361.039 61.88 359.479 64.424 359.479 68.096C359.479 71.744 361.039 74.288 363.391 74.288C365.767 74.288 367.303 71.744 367.303 68.096ZM357.631 68.072C357.631 63.368 359.719 60.2 363.391 60.2C367.087 60.2 369.151 63.368 369.151 68.096C369.151 72.824 367.087 75.968 363.391 75.968C359.719 75.968 357.631 72.824 357.631 68.072ZM375.247 80.84H373.303V58.52H375.247V80.84ZM394.133 58.52H396.077V80.84H394.133V58.52ZM391.565 74.072L390.365 75.512C388.277 74.168 385.445 71.36 384.677 68.72C383.933 71.504 381.485 74.36 378.893 76.04L377.693 74.6C380.957 72.68 383.645 68.888 383.645 64.664V62.36H378.437V60.752H390.869V62.36H385.661V64.64C385.661 68.792 388.493 72.416 391.565 74.072ZM417.483 80.84H415.563V58.52H417.483V80.84ZM406.899 68.096C406.899 64.496 405.723 62.168 403.923 62.168C402.123 62.168 400.971 64.496 400.971 68.096C400.971 71.72 402.123 74.024 403.923 74.024C405.723 74.024 406.899 71.72 406.899 68.096ZM403.923 60.464C406.995 60.464 408.651 63.296 408.819 67.352H411.219V58.952H413.115V79.76H411.219V68.96H408.819C408.603 72.992 406.971 75.728 403.923 75.728C400.659 75.728 399.003 72.584 399.003 68.096C399.003 63.632 400.659 60.464 403.923 60.464ZM432.889 74.024L431.689 75.488C429.649 74.12 427.057 71.288 426.169 68.6C425.377 71.384 423.193 74.144 420.601 75.992L419.329 74.552C422.569 72.512 425.161 68.552 425.161 64.592V60.464H427.153V64.52C427.153 68.6 429.817 72.224 432.889 74.024ZM437.833 80.84H435.889V68.12H430.681V66.488H435.889V58.52H437.833V80.84ZM459.75 70.808L459.918 72.296C458.31 72.488 455.646 72.752 453.006 72.896C450.486 73.04 447.414 73.16 445.854 73.16L445.542 71.552C447.174 71.552 449.43 71.504 451.71 71.408V69.896C449.358 69.68 447.558 68.768 447.558 66.968C447.558 64.904 449.886 63.944 452.718 63.944C455.574 63.944 457.926 64.88 457.926 66.944C457.926 68.744 456.078 69.704 453.678 69.896V71.312C456.03 71.192 458.454 71 459.75 70.808ZM466.518 67.544H463.134V73.352H461.19V58.52H463.134V65.912H466.518V67.544ZM448.518 74.528H463.134V80.984H461.19V76.136H448.518V74.528ZM459.174 63.2H446.334V61.64H459.174V63.2ZM456.078 66.944C456.078 65.912 454.59 65.408 452.718 65.408C450.822 65.408 449.406 65.912 449.406 66.944C449.406 68 450.846 68.504 452.718 68.504C454.59 68.504 456.078 67.976 456.078 66.944ZM455.814 60.416H449.694V58.808H455.814V60.416ZM473.308 61.688C470.956 61.688 469.156 63.296 469.156 65.552C469.156 67.808 470.98 69.392 473.332 69.392C475.78 69.392 477.484 67.808 477.484 65.576C477.484 63.296 475.78 61.688 473.308 61.688ZM473.308 59.984C476.692 59.984 479.332 62.24 479.332 65.552C479.332 68.888 476.716 71.096 473.332 71.096C469.924 71.096 467.308 68.912 467.308 65.576C467.308 62.264 469.924 59.984 473.308 59.984ZM485.596 80.096H470.5V73.208H472.444V78.488H485.596V80.096ZM485.044 74.816H483.1V58.52H485.044V74.816ZM510.368 58.52V67.808H514.016V69.464H510.368V80.84H508.424V58.52H510.368ZM494.096 60.92H504.584C504.464 68.168 500.264 73.4 494.528 76.376L493.328 74.864C498.896 72.272 502.088 67.568 502.496 62.552H494.096V60.92ZM524.191 74C520.687 74 518.359 74.816 518.359 76.544C518.359 78.272 520.687 79.088 524.191 79.088C527.743 79.088 530.071 78.272 530.071 76.544C530.071 74.816 527.743 74 524.191 74ZM532.039 76.544C532.039 79.232 529.063 80.696 524.215 80.696C519.343 80.696 516.391 79.232 516.391 76.544C516.391 73.88 519.343 72.392 524.191 72.392C529.063 72.392 532.039 73.88 532.039 76.544ZM531.919 66.512H516.895V59.096H518.839V64.904H531.919V66.512ZM534.247 70.544H514.087V68.936H534.247V70.544ZM544.613 68.12C544.613 66.8 543.125 66.056 541.373 66.056C539.645 66.056 538.109 66.8 538.109 68.12C538.109 69.392 539.669 70.184 541.373 70.184C543.125 70.184 544.613 69.392 544.613 68.12ZM546.557 68.12C546.557 70.304 544.397 71.72 541.373 71.72C538.349 71.72 536.189 70.304 536.189 68.12C536.189 65.864 538.301 64.496 541.373 64.496C544.397 64.496 546.557 65.864 546.557 68.12ZM547.877 63.584H534.869V62H547.877V63.584ZM544.589 60.464H538.157V58.832H544.589V60.464ZM550.181 79.04V76.544H540.029V79.04H550.181ZM552.125 80.672H538.085V72.56H540.029V74.936H550.181V72.536H552.125V80.672ZM555.533 66.464H552.125V71.456H550.181V58.52H552.125V64.832H555.533V66.464ZM569.739 72.632L569.931 74.312C567.339 74.912 561.531 75.344 558.099 75.344H557.115V60.848H559.059V73.64C561.939 73.64 567.075 73.232 569.739 72.632ZM573.939 58.52V80.84H572.019V58.52H573.939ZM579.553 73.712H580.849C583.729 73.712 588.145 73.448 590.281 72.992L590.497 74.6C588.097 75.056 583.681 75.368 579.793 75.368H577.609V60.848H588.193V62.48H579.553V73.712ZM593.929 58.52V67.376H597.553V69.008H593.929V80.84H592.009V58.52H593.929ZM597.719 78.608V76.328H599.927V78.608H597.719Z" fill="#AEB5C9"/>
<path d="M20.6889 121.68C20.6889 123.144 19.4889 124.32 18.0249 124.32C16.5609 124.32 15.3609 123.144 15.3609 121.68C15.3609 120.216 16.5609 119.016 18.0249 119.016C19.4889 119.016 20.6889 120.216 20.6889 121.68ZM48.048 126.624C46.848 126.792 44.88 126.984 42.912 127.08C40.848 127.224 38.88 127.296 36.984 127.296L36.696 125.592H39.168L38.496 116.4L40.44 116.136C40.608 119.28 40.824 122.4 41.016 125.544L42.792 125.472C42.936 125.472 43.104 125.472 43.272 125.448C43.464 122.352 43.656 119.232 43.872 116.136L45.816 116.328C45.552 119.328 45.288 122.328 45 125.352C46.08 125.256 47.088 125.16 47.88 125.04C47.928 125.568 47.976 126.096 48.048 126.624ZM51.624 131.688H49.728V120.696H46.68V119.088H49.728V111.048H51.624V131.688ZM55.776 132.84H53.88V110.52H55.776V132.84ZM47.328 114.912H37.248V113.304H47.328V114.912ZM68.2541 120.096C68.2541 116.424 66.7181 113.88 64.3421 113.88C61.9901 113.88 60.4301 116.424 60.4301 120.096C60.4301 123.744 61.9901 126.288 64.3421 126.288C66.7181 126.288 68.2541 123.744 68.2541 120.096ZM58.5821 120.072C58.5821 115.368 60.6701 112.2 64.3421 112.2C68.0381 112.2 70.1021 115.368 70.1021 120.096C70.1021 124.824 68.0381 127.968 64.3421 127.968C60.6701 127.968 58.5821 124.824 58.5821 120.072ZM76.1981 132.84H74.2541V110.52H76.1981V132.84ZM86.6122 120.84V117.048H81.4282V120.84H86.6122ZM97.5322 132.84H95.5642V126.576H82.4602V124.968H97.5322V132.84ZM97.5322 123.768H95.6122V117.816H92.8522V123.624H90.9802V110.928H92.8522V116.208H95.6122V110.52H97.5322V123.768ZM88.5082 122.448H79.5322V111.984H81.4282V115.44H86.6122V111.984H88.5082V122.448ZM109.698 112.776C106.17 112.776 103.866 113.712 103.866 115.56C103.866 117.384 106.146 118.32 109.674 118.32C113.202 118.32 115.53 117.384 115.53 115.56C115.53 113.712 113.226 112.776 109.698 112.776ZM117.45 115.536C117.45 118.392 114.546 119.952 109.674 119.952C104.802 119.952 101.922 118.392 101.922 115.536C101.922 112.728 104.826 111.168 109.698 111.168C114.546 111.168 117.45 112.728 117.45 115.536ZM117.474 132.192H102.258V125.688H104.202V130.56H117.474V132.192ZM119.754 123.6H99.5944V121.968H119.754V123.6ZM128.375 112.176H143.519C143.519 115.2 143.447 118.608 142.703 122.064H146.159V123.696H137.039V132.84H135.095V123.696H125.999V122.064H140.759C141.383 119.664 141.503 115.968 141.503 113.784H128.375V112.176ZM154.581 125.256V114.576H149.517V125.256H154.581ZM165.717 132.84H163.797V121.056H161.061V131.712H159.165V111.048H161.061V119.424H163.797V110.52H165.717V132.84ZM156.477 126.864H147.621V112.968H156.477V126.864ZM181.579 122.808L181.747 124.296C180.139 124.488 177.475 124.752 174.835 124.896C172.315 125.04 169.243 125.16 167.683 125.16L167.371 123.552C169.003 123.552 171.259 123.504 173.539 123.408V121.896C171.187 121.68 169.387 120.768 169.387 118.968C169.387 116.904 171.715 115.944 174.547 115.944C177.403 115.944 179.755 116.88 179.755 118.944C179.755 120.744 177.907 121.704 175.507 121.896V123.312C177.859 123.192 180.283 123 181.579 122.808ZM188.347 119.544H184.963V125.352H183.019V110.52H184.963V117.912H188.347V119.544ZM170.347 126.528H184.963V132.984H183.019V128.136H170.347V126.528ZM181.003 115.2H168.163V113.64H181.003V115.2ZM177.907 118.944C177.907 117.912 176.419 117.408 174.547 117.408C172.651 117.408 171.235 117.912 171.235 118.944C171.235 120 172.675 120.504 174.547 120.504C176.419 120.504 177.907 119.976 177.907 118.944ZM177.643 112.416H171.523V110.808H177.643V112.416ZM204.929 117.936H200.441V116.304H204.929V110.52H206.873V124.368H204.929V117.936ZM199.553 125.952C196.121 125.952 194.057 126.912 194.057 128.592C194.057 130.248 196.121 131.208 199.553 131.208C203.033 131.208 205.073 130.248 205.073 128.592C205.073 126.912 203.033 125.952 199.553 125.952ZM189.233 114V112.368H201.305V114H196.289C196.289 114.456 196.289 114.96 196.313 115.224C196.481 118.248 199.337 120.672 202.073 121.488L200.921 123.048C198.593 122.136 196.193 120.048 195.281 118.032C194.681 120.12 191.993 122.808 189.593 123.84L188.537 122.28C191.345 121.2 194.177 118.368 194.297 115.2C194.321 114.96 194.321 114.432 194.321 114H189.233ZM207.041 128.592C207.041 131.208 204.353 132.84 199.553 132.84C194.777 132.84 192.089 131.208 192.089 128.592C192.089 125.952 194.777 124.32 199.553 124.32C204.353 124.32 207.041 125.952 207.041 128.592ZM228.862 112.512H221.398V110.856H228.862V112.512ZM229.99 120.216C229.99 118.848 227.374 118.392 225.142 118.392C222.934 118.392 220.294 118.848 220.294 120.216C220.294 121.512 222.934 121.992 225.142 121.992C227.374 121.992 229.99 121.512 229.99 120.216ZM234.118 115.824H216.19V114.192H234.118V115.824ZM226.078 132.864H224.134V126.48H215.038V124.848H235.198V126.48H226.078V132.864ZM232.006 120.216C232.006 122.52 229.102 123.624 225.142 123.624C221.206 123.624 218.278 122.52 218.278 120.216C218.278 117.864 221.206 116.784 225.142 116.784C229.102 116.784 232.006 117.864 232.006 120.216ZM262.227 121.2H258.603V132.84H256.659V110.52H258.603V119.568H262.227V121.2ZM254.691 126.144L253.515 127.608C251.403 126.264 248.691 123.456 247.875 120.792C247.131 123.504 244.947 126.264 242.283 128.136L240.987 126.672C244.275 124.728 246.867 120.816 246.867 116.784V114.504H241.707V112.872H254.043V114.504H248.883V116.736C248.883 120.912 251.619 124.416 254.691 126.144ZM272.401 126.624C268.897 126.624 266.737 127.488 266.737 128.928C266.737 130.416 268.897 131.232 272.401 131.232C275.929 131.232 278.089 130.416 278.089 128.928C278.089 127.488 275.929 126.624 272.401 126.624ZM280.057 118.968H273.361V121.8H282.481V123.408H262.321V121.8H271.417V118.968H264.793V111.576H279.937V113.208H266.737V117.36H280.057V118.968ZM280.081 128.928C280.081 131.424 277.297 132.84 272.401 132.84C267.505 132.84 264.745 131.4 264.745 128.928C264.745 126.504 267.505 125.04 272.401 125.04C277.297 125.04 280.081 126.408 280.081 128.928ZM297.99 119.688V116.256H291.462V119.688H297.99ZM299.934 121.296H289.518V111.384H291.462V114.648H297.99V111.384H299.934V121.296ZM306.702 132.672H291.654V127.104H303.942V124.92H291.63V123.336H305.886V128.616H293.598V131.064H306.702V132.672ZM309.294 117.144H305.886V122.064H303.942V110.52H305.886V115.512H309.294V117.144ZM327.316 132.504H312.004V123.216H313.948V126.168H325.372V123.168H327.316V132.504ZM311.98 111.648H327.148C327.148 114.624 326.908 117.552 326.38 119.808H329.74V121.416H309.58V119.808H324.436C324.892 118.128 325.156 115.128 325.156 113.256H311.98V111.648ZM325.372 130.896V127.776H313.948V130.896H325.372ZM348.77 132.528H334.25V124.536H336.194V126.84H346.826V124.488H348.77V132.528ZM345.098 120.768L345.266 122.328C343.514 122.544 340.802 122.784 338.09 122.928C335.57 123.048 332.282 123.12 330.794 123.12L330.506 121.416C332.234 121.416 334.562 121.416 336.986 121.344V118.632H332.426V111.744H343.25V113.352H334.37V117.024H343.466V118.632H338.93V121.272C341.306 121.152 343.706 120.984 345.098 120.768ZM346.826 130.944V128.424H336.194V130.944H346.826ZM348.77 123.288H346.826V110.52H348.77V123.288ZM365.256 124.632L365.448 126.312C362.856 126.912 357.048 127.344 353.616 127.344H352.632V112.848H354.576V125.64C357.456 125.64 362.592 125.232 365.256 124.632ZM369.456 110.52V132.84H367.536V110.52H369.456ZM375.07 125.712H376.366C379.246 125.712 383.662 125.448 385.798 124.992L386.014 126.6C383.614 127.056 379.198 127.368 375.31 127.368H373.126V112.848H383.71V114.48H375.07V125.712ZM389.446 110.52V119.376H393.07V121.008H389.446V132.84H387.526V110.52H389.446ZM393.236 130.608V128.328H395.444V130.608H393.236Z" fill="#AEB5C9"/>
</svg>
