<svg width="590" height="98" viewBox="0 0 590 98" fill="none" xmlns="http://www.w3.org/2000/svg">
<rect width="590" height="98" rx="16" fill="#11A875"/>
<path d="M122.59 35.636V32.108H132.454V35.636H122.59ZM145.594 53.564H141.13V45.392H135.946V41.792H141.13V30.956H145.594V53.564ZM147.322 61.952C146.638 63.14 145.918 64.256 145.234 65.444C140.734 64.652 135.802 61.7 134.146 58.604C132.67 61.736 127.846 64.616 123.022 65.444C122.338 64.22 121.618 63.068 120.934 61.844C126.874 61.16 131.914 57.884 131.914 53.204V52.376H136.522V53.204C136.522 57.884 141.598 60.98 147.322 61.952ZM118.522 41.036V37.472H136.45V41.036H129.934C130.618 45.032 133.894 47.156 137.35 48.128L135.118 51.62C132.49 50.756 128.926 48.452 127.522 45.536C126.37 48.596 122.914 51.512 119.53 52.556C118.738 51.44 117.91 50.252 117.082 49.136C121.366 47.696 124.462 45.104 125.038 41.036H118.522ZM162.233 32.792H185.345C185.345 38.336 184.985 43.448 184.229 47.372H189.269V50.9H176.021V65.084H171.557V50.9H158.453V47.372H179.981C180.593 44.42 180.881 40.568 180.881 36.392H162.233V32.792ZM201.147 52.772V38.516H195.747V52.772H201.147ZM219.507 65.084H215.223V47.984H212.487V63.5H208.275V31.568H212.487V44.384H215.223V30.956H219.507V65.084ZM205.359 35.06V56.192H191.535V35.06H205.359ZM242.302 50.936C242.302 48.92 241.078 47.48 239.098 47.48C237.118 47.48 235.93 48.884 235.93 50.936C235.93 52.952 237.118 54.356 239.098 54.356C241.078 54.356 242.302 52.88 242.302 50.936ZM246.298 50.936C246.298 55.04 243.526 57.884 239.098 57.884C234.742 57.884 231.898 54.86 231.898 50.936C231.898 46.724 234.778 43.952 239.098 43.952C243.526 43.952 246.298 46.796 246.298 50.936ZM247.126 42.656H231.106V39.128H247.126V42.656ZM243.67 37.148H235.102V33.62H243.67V37.148ZM253.966 63.5H249.79V53.78H246.658V50.288H249.79V46.544H246.55V43.052H249.79V31.604H253.966V63.5ZM260.554 65.084H256.306V30.956H260.554V65.084ZM292.591 51.368H288.307V42.836H285.391V51.044H281.179V31.568H285.391V39.236H288.307V30.956H292.591V51.368ZM269.155 43.412V46.652C271.675 46.76 276.931 46.4 279.127 45.86L279.451 49.28C277.003 49.892 272.071 50.18 267.787 50.18H264.727V33.404H278.047V36.968H269.155V39.92H277.723V43.412H269.155ZM268.687 52.988H292.591V65.12H288.127V56.552H268.687V52.988ZM323.594 52.16L324.242 55.724C320.966 56.516 316.034 56.84 309.446 56.84H306.134V34.088H321.47V37.688H310.598V53.204C315.458 53.204 319.742 53.06 323.594 52.16ZM332.81 65.084H328.346V46.364H320.21V42.584H328.346V30.956H332.81V65.084ZM368.349 47.084V42.044H353.841V47.084H368.349ZM376.485 60.836H345.669V57.272H358.773V50.648H349.377V33.296H353.841V38.588H368.349V33.224H372.813V50.648H363.237V57.272H376.485V60.836ZM396.39 52.772L396.858 56.372C393.258 57.056 388.326 57.416 382.53 57.416H378.93V43.124H389.478V37.436H378.894V33.872H394.014V46.652H383.394V53.744C386.598 53.744 391.962 53.6 396.39 52.772ZM405.894 65.084H401.43V47.372H396.282V43.592H401.43V30.956H405.894V65.084ZM441.351 47.768H436.383V65.084H431.955V30.956H436.383V44.06H441.351V47.768ZM411.507 34.448H427.419C427.131 44.744 422.595 53.24 412.155 58.928L409.419 55.544C416.871 52.16 421.947 44.996 422.559 38.156H411.507V34.448ZM443.58 34.52H459.492C459.24 44.816 454.668 53.24 444.264 58.928L441.492 55.544C448.98 52.16 454.056 45.032 454.668 38.228H443.58V34.52ZM470.004 65.084H465.504V30.956H470.004V65.084Z" fill="white"/>
</svg>
