<svg width="444" height="297" viewBox="0 0 444 297" fill="none" xmlns="http://www.w3.org/2000/svg">
<path d="M64.0887 267.934V264.602H73.4047V267.934H64.0887ZM85.8147 284.866H81.5987V277.148H76.7027V273.748H81.5987V263.514H85.8147V284.866ZM87.4467 292.788C86.8007 293.91 86.1207 294.964 85.4747 296.086C81.2247 295.338 76.5667 292.55 75.0027 289.626C73.6087 292.584 69.0527 295.304 64.4967 296.086C63.8507 294.93 63.1707 293.842 62.5247 292.686C68.1347 292.04 72.8947 288.946 72.8947 284.526V283.744H77.2467V284.526C77.2467 288.946 82.0407 291.87 87.4467 292.788ZM60.2467 273.034V269.668H77.1787V273.034H71.0247C71.6707 276.808 74.7647 278.814 78.0287 279.732L75.9207 283.03C73.4387 282.214 70.0727 280.038 68.7467 277.284C67.6587 280.174 64.3947 282.928 61.1987 283.914C60.4507 282.86 59.6687 281.738 58.8867 280.684C62.9327 279.324 65.8567 276.876 66.4007 273.034H60.2467ZM100.169 265.248H121.997C121.997 270.484 121.657 275.312 120.943 279.018H125.703V282.35H113.191V295.746H108.975V282.35H96.5993V279.018H116.931C117.509 276.23 117.781 272.592 117.781 268.648H100.169V265.248ZM136.241 284.118V270.654H131.141V284.118H136.241ZM153.581 295.746H149.535V279.596H146.951V294.25H142.973V264.092H146.951V276.196H149.535V263.514H153.581V295.746ZM140.219 267.39V287.348H127.163V267.39H140.219ZM192.687 291.224H163.583V287.858H174.021V277.012H178.271V287.858H192.687V291.224ZM166.677 266.336H189.355C189.525 274.462 189.117 280.344 187.995 284.628L183.949 284.118C184.969 280.378 185.207 274.19 185.105 269.736H166.677V266.336ZM220.565 282.452H216.553V274.632H213.765V282.078H209.821V264.092H213.765V271.232H216.553V263.514H220.565V282.452ZM220.565 295.78H216.383V287.314H198.261V283.948H220.565V295.78ZM194.589 265.792H207.169C207.169 274.02 202.477 279.562 195.201 282.758L192.719 279.494C197.751 277.828 202.239 273.612 202.715 269.192H194.589V265.792ZM236.381 279.426C236.381 280.888 237.979 281.908 239.849 281.908C241.719 281.908 243.317 280.888 243.317 279.426C243.317 277.93 241.719 276.876 239.849 276.876C237.979 276.876 236.381 277.93 236.381 279.426ZM256.543 294.998H234.511V286.498H238.761V291.632H256.543V294.998ZM255.761 263.514V273.952H260.249V277.454H255.761V287.45H251.545V263.514H255.761ZM235.089 267.798V264.568H244.677V267.798H235.089ZM247.465 279.426C247.465 282.86 244.201 285.308 239.849 285.308C235.463 285.308 232.199 282.86 232.199 279.426C232.199 276.026 235.429 273.51 239.849 273.51C244.201 273.51 247.465 276.026 247.465 279.426ZM248.995 272.592H230.295V269.328H248.995V272.592ZM275.717 286.226C271.365 286.226 268.781 287.348 268.781 289.32C268.781 291.19 271.365 292.312 275.717 292.312C280.171 292.312 282.721 291.19 282.721 289.32C282.721 287.348 280.171 286.226 275.717 286.226ZM277.723 274.632V271.232H282.551V263.514H286.801V282.69H282.551V274.632H277.723ZM261.267 269.26V265.792H278.233V269.26H272.113C272.453 273.748 275.683 276.774 279.219 277.93C278.471 279.052 277.689 280.14 276.907 281.262C274.459 280.31 271.331 277.896 269.937 274.938C268.951 278.066 265.551 281.092 262.457 282.18L259.941 278.882C264.429 277.25 267.421 273.85 267.659 269.26H261.267ZM287.005 289.32C287.005 293.23 282.857 295.678 275.717 295.678C268.611 295.678 264.463 293.23 264.463 289.32C264.463 285.308 268.611 282.826 275.717 282.826C282.857 282.826 287.005 285.308 287.005 289.32ZM316.931 284.9C316.081 285.954 315.299 287.008 314.449 288.062C311.797 286.362 308.091 282.554 307.003 279.052C305.949 282.69 302.685 286.736 299.353 288.708C298.503 287.654 297.653 286.634 296.769 285.614C302.005 282.248 304.759 277.08 304.759 270.654V266.234H309.111V270.416C309.111 276.808 312.069 281.806 316.931 284.9ZM322.711 263.514V275.924H327.369V279.392H322.711V295.746H318.529V263.514H322.711ZM348.583 271.232C348.583 269.26 345.931 267.968 341.681 267.968C337.499 267.968 334.813 269.26 334.813 271.232C334.813 273.102 337.499 274.36 341.681 274.36C345.931 274.36 348.583 273.102 348.583 271.232ZM352.935 271.164C352.935 274.904 348.753 277.658 341.715 277.658C334.609 277.658 330.495 274.904 330.495 271.164C330.495 267.458 334.609 264.704 341.681 264.704C348.753 264.704 352.935 267.458 352.935 271.164ZM352.867 294.896H330.699V285.478H334.949V291.564H352.867V294.896ZM356.233 283.132H327.129V279.732H356.233V283.132ZM377.922 292.04V287.926H364.594V292.04H377.922ZM382.886 267.798H359.494V264.466H382.886V267.798ZM382.784 276.876H359.562V273.544H364.016C363.744 272.15 363.438 270.79 363.2 269.362L367.28 268.818C367.484 270.416 367.756 271.98 367.96 273.544H374.42L375.236 268.852L379.35 269.362C379.01 270.79 378.738 272.15 378.398 273.544H382.784V276.876ZM382.104 295.304H360.378V284.696H369.048V282.316H356.706V278.916H385.81V282.316H373.298V284.696H382.104V295.304Z" fill="white"/>
<path d="M42.407 222H8.48515V147.148H44.8445C54.019 147.284 60.519 149.941 64.3445 155.121C66.6466 158.303 67.7977 162.112 67.7977 166.547C67.7977 171.117 66.6466 174.79 64.3445 177.566C63.0581 179.124 61.1622 180.546 58.657 181.832C62.4825 183.22 65.3602 185.421 67.2898 188.434C69.2534 191.447 70.2352 195.103 70.2352 199.402C70.2352 203.837 69.118 207.815 66.8836 211.336C65.4617 213.672 63.6844 215.635 61.5516 217.227C59.1479 219.055 56.3042 220.307 53.0203 220.984C49.7703 221.661 46.2325 222 42.407 222ZM42.0516 189.043H23.4148V209H41.7977C45.0815 209 47.6375 208.56 49.4656 207.68C52.7833 206.055 54.4422 202.94 54.4422 198.336C54.4422 194.443 52.8341 191.768 49.618 190.312C47.8237 189.5 45.3016 189.077 42.0516 189.043ZM49.8211 174.773C51.8523 173.555 52.868 171.371 52.868 168.223C52.868 164.736 51.5138 162.434 48.8055 161.316C46.4695 160.538 43.4904 160.148 39.868 160.148H23.4148V176.652H41.7977C45.0815 176.652 47.756 176.026 49.8211 174.773ZM130.289 189.297H93.9297V208.543H135.367V222H78.6445V147.148H133.539V160.402H93.9297V176.297H130.289V189.297ZM202.886 222H187.245L156.675 168.832V222H142.101V147.148H158.503L188.312 199.402V147.148H202.886V222ZM264.412 189.297H228.053V208.543H269.491V222H212.768V147.148H267.662V160.402H228.053V176.297H264.412V189.297ZM329.545 160.402H292.017V177.617H324.873V190.617H292.017V222H276.478V147.25H329.545V160.402ZM333.638 147.148H349.177V222H333.638V147.148ZM412.988 147.148V160.402H390.594V222H374.852V160.402H352.355V147.148H412.988ZM436.378 166.395L432.265 201.332H424.698L420.484 166.395V147.402H436.378V166.395ZM435.972 207.324V222H420.839V207.324H435.972Z" fill="#2E2F3E"/>
<path d="M152.757 119.92C142.437 129.16 132.597 139.36 128.397 144.28C124.677 148.72 122.277 151.84 124.077 152.68C125.877 153.64 132.237 149.32 135.597 146.68C139.437 143.68 143.637 140.08 147.117 136.96C147.477 136.6 148.437 136.24 148.557 136.84C148.917 137.56 148.437 138.04 147.957 138.4C144.597 141.4 139.677 145.48 136.677 147.88C133.077 150.76 126.837 155.08 122.037 155.08C117.597 155.08 114.837 150.88 118.557 144.4C111.477 150.64 104.997 155.44 101.037 155.08C92.8773 154.36 95.3973 141.16 103.917 132.64C114.957 121.36 131.877 116.32 137.037 119.32C138.717 120.16 139.077 123.04 134.397 127.48C139.197 123.52 141.957 121.6 143.997 121C146.637 120.16 151.197 119.8 152.757 119.92ZM136.077 120.88C133.797 119.08 124.437 125.08 111.717 137.2C104.037 144.4 98.7573 152.08 101.517 153.28C103.797 154.36 114.237 146.92 124.437 136.48C129.117 131.8 138.597 122.8 136.077 120.88ZM200.605 119.2C196.285 122.2 189.205 128.56 183.805 134.8C190.765 129.16 205.765 118.12 212.845 118.84C218.365 119.32 217.765 124.12 214.285 129.4C219.205 125.92 230.245 118 236.245 118.84C244.405 119.92 241.765 127.12 231.445 136.48C227.605 139.96 224.365 143.2 221.845 145.84C217.525 150.28 216.805 152.08 218.005 153.04C219.205 153.88 224.125 151.72 228.805 148.36C233.125 145.36 238.525 140.68 241.885 137.68C242.245 137.32 242.845 136.84 243.325 137.44C243.805 138.04 243.205 138.64 242.605 139.24C239.005 142.48 233.605 146.8 229.165 150.04C224.365 153.52 217.405 156.76 212.845 154.96C209.365 153.64 208.645 149.32 212.365 144.16C215.485 139.96 217.765 137.8 222.685 133.24C226.645 129.4 237.205 122.08 234.565 120.64C233.005 119.8 223.645 124.96 215.245 130.72C208.405 135.28 203.605 140.2 200.005 143.56C195.565 147.88 192.565 151.36 189.325 155.56C187.165 155.56 185.125 150.88 186.685 148.24C189.205 143.56 193.765 138.16 199.285 133.24C203.485 129.4 213.925 122.2 211.165 120.64C209.005 119.44 190.165 130.84 182.005 138.52C174.325 145.84 171.085 149.8 166.765 155.56C164.605 155.56 162.685 151 164.125 148.24C166.645 143.56 170.725 137.92 177.565 130.84C181.405 126.64 184.405 124.24 187.285 122.44C191.125 119.92 196.645 119.2 200.605 119.2ZM277.749 119.44C281.589 121.36 279.429 130.48 269.349 140.68C257.949 152.32 248.589 156.4 243.789 155.2C236.589 153.4 235.989 142.12 246.429 131.56C258.669 119.2 272.709 116.8 277.749 119.44ZM277.029 120.88C274.509 118.84 264.549 125.92 253.509 137.32C246.549 144.64 240.909 151.6 244.149 153.52C247.029 155.2 256.149 147.64 267.069 136.6C271.869 131.8 279.189 122.68 277.029 120.88ZM322.8 123.64C322.56 125.32 320.76 126.88 320.16 126.76C319.68 126.64 319.08 126.04 318.36 125.56C317.16 124.84 316.56 124.48 314.64 124.36C308.76 124.12 298.68 130.84 290.52 138.52C282.84 145.84 279.48 149.92 275.28 155.56C273.12 155.56 271.2 151 272.64 148.24C275.16 143.56 279.72 137.44 286.08 130.84C289.92 126.64 292.92 124.24 295.8 122.44C299.64 119.92 305.16 119.2 309.12 119.2C304.08 122.56 297.24 128.56 292.08 134.56L292.44 134.92C299.04 129.16 312.36 118 319.44 119.32C321.96 119.8 322.92 121.48 322.8 123.64ZM348.61 118.96C352.57 121.24 351.01 126.16 346.33 129.52C340.33 133.72 331.33 134.92 328.81 133.72C320.53 140.92 313.69 150.88 317.89 153.04C320.65 154.36 327.13 152.2 331.69 149.2C336.49 146.08 343.69 140.08 347.05 137.08C348.01 136.24 348.25 136.12 348.73 136.6C349.21 137.08 348.73 137.8 348.13 138.28C344.05 141.88 339.49 145.84 334.21 149.44C327.25 154.24 321.85 155.56 317.17 155.2C312.73 154.84 310.93 151.96 310.57 148.48C310.21 145.48 311.77 139 317.41 132.88C326.77 122.68 344.41 116.56 348.61 118.96ZM347.89 120.04C346.45 118.84 335.41 127.24 329.53 133C331.33 133.6 337.33 131.68 342.61 127.48C346.57 124.36 349.21 121 347.89 120.04Z" fill="white"/>
<path d="M167.52 54.664V37.024H178.176V40.24H171.096V43.912H177.336V46.96H171.096V51.472H178.344V54.664H167.52ZM186.006 54.688L179.886 37.024H183.822L188.214 50.56L192.654 37.024H196.494L190.326 54.688H186.006ZM198.106 54.664V37.024H208.762V40.24H201.682V43.912H207.922V46.96H201.682V51.472H208.93V54.664H198.106ZM211.84 54.664V37.024H216.136L221.944 48.736V37.024H225.448V54.664H221.32L215.344 42.688V54.664H211.84ZM236.423 40.336V54.664H232.775V40.336H227.927V37.024H241.295V40.336H236.423ZM256.872 51.808C258.744 51.808 259.848 50.056 259.848 46.24V45.496C259.848 41.536 258.696 39.856 256.896 39.856C255 39.856 253.944 41.56 253.944 45.4V46.168C253.944 50.008 254.928 51.808 256.872 51.808ZM256.848 54.928C253.176 54.928 250.104 52.504 250.104 46.36V45.64C250.104 39.136 253.464 36.712 256.92 36.712C260.4 36.712 263.664 39.232 263.664 45.544V46.192C263.664 52.696 260.28 54.928 256.848 54.928ZM270.642 54.976C268.698 54.976 266.154 54.4 265.266 53.776L266.034 50.632C266.754 51.112 268.818 51.664 269.994 51.664C271.578 51.664 272.634 51.04 272.634 49.264C272.634 47.728 271.458 47.2 269.946 47.056H267.834V44.08H269.658C271.218 44.08 272.442 43.312 272.442 41.968C272.442 40.528 271.362 40.024 269.946 40.024C268.962 40.024 267.474 40.48 266.514 40.888L265.818 37.816C266.946 37.168 269.298 36.76 271.026 36.76C274.026 36.76 276.282 38.272 276.282 41.224C276.282 43.288 275.418 44.608 273.69 45.28C275.61 45.76 276.786 47.32 276.786 49.624C276.786 53.08 274.29 54.976 270.642 54.976Z" fill="white"/>
<mask id="mask0_62_5576" style="mask-type:alpha" maskUnits="userSpaceOnUse" x="209" y="0" width="28" height="28">
<circle cx="223" cy="14" r="14" fill="#D9D9D9"/>
</mask>
<g mask="url(#mask0_62_5576)">
<rect x="237" y="11.668" width="4.66667" height="28" transform="rotate(90 237 11.668)" fill="white"/>
<rect x="234.549" y="22.25" width="4.66667" height="28" transform="rotate(135 234.549 22.25)" fill="white"/>
<rect x="231.25" y="2.44922" width="4.66667" height="28" transform="rotate(45 231.25 2.44922)" fill="white"/>
<rect x="225.334" y="28" width="4.66667" height="28" transform="rotate(-180 225.334 28)" fill="white"/>
</g>
<path d="M269.584 68.5192C269.127 68.5192 268.744 68.8398 268.682 69.2673C268.292 71.9574 265.831 74.0373 262.862 74.0373C261.063 74.0373 259.388 73.2778 258.265 71.9539L258.165 71.8362L257.483 71.1814L257.382 71.0889C255.126 69.1038 252.184 68.0115 249.099 68.0115C246.378 68.0115 243.805 68.842 241.657 70.4126L241.54 70.498L239.974 71.8836L239.845 72.0306C238.725 73.3129 237.076 74.0488 235.319 74.0488C235.295 74.0488 235.272 74.0488 235.249 74.0481V74.0373C234.931 74.0373 234.616 74.0129 234.308 73.9663C232.91 73.7375 231.644 73.0368 230.738 71.9675L230.62 71.8284L229.915 71.1743L229.871 71.1341C227.605 69.1131 224.64 68 221.522 68C220.159 68 218.834 68.208 217.581 68.6132C216.318 69.017 215.127 69.6201 214.044 70.4119L213.928 70.4973L212.362 71.8829L212.233 72.0299C211.534 72.8295 210.63 73.4162 209.622 73.7454C209.023 73.9362 208.39 74.0366 207.742 74.0366V74.0473C207.73 74.0473 207.718 74.0473 207.706 74.0473C205.916 74.0473 204.247 73.2885 203.125 71.9661L203.007 71.8269L202.302 71.1728L202.258 71.1334C199.992 69.1131 197.026 68 193.909 68C191.188 68 188.615 68.8305 186.467 70.4004L186.35 70.4858L184.784 71.8714L184.655 72.0184C183.535 73.3007 181.886 74.0359 180.129 74.0359C177.164 74.0359 174.705 71.946 174.317 69.2436C174.256 68.8154 173.872 68.4949 173.415 68.4949H168.912C168.383 68.4963 167.96 68.9202 168.003 69.4179C168.502 75.3261 173.75 79.99 180.129 79.99C183.701 79.99 187.058 78.5255 189.376 75.9651L190.43 75.032C191.442 74.3249 192.642 73.9519 193.91 73.9519C195.404 73.9519 196.825 74.4819 197.915 75.4451L198.337 75.836C200.658 78.4846 204.062 80 207.707 80C209.052 80 210.366 79.792 211.606 79.3968C213.674 78.7442 215.536 77.5702 216.989 75.9644L218.044 75.0313C218.544 74.682 219.09 74.4145 219.667 74.2331C220.247 74.0545 220.859 73.9627 221.487 73.9627C222.953 73.9627 224.352 74.4748 225.434 75.4057L225.844 75.8001C227.743 77.9775 230.374 79.3933 233.273 79.8379C233.943 79.9448 234.627 80 235.32 80C238.891 80 242.249 78.5355 244.566 75.9751L245.62 75.0421C246.632 74.3349 247.832 73.962 249.1 73.962C250.566 73.962 251.965 74.4741 253.047 75.405L253.457 75.7994C255.781 78.4638 259.199 79.9878 262.863 79.9878C269.246 79.9878 274.498 75.3347 274.997 69.4387C275.04 68.941 274.617 68.5164 274.089 68.5164H269.585L269.584 68.5192Z" fill="white"/>
</svg>
