<svg width="436" height="440" viewBox="0 0 436 440" fill="none" xmlns="http://www.w3.org/2000/svg">
<g filter="url(#filter0_d_62_6187)">
<path fill-rule="evenodd" clip-rule="evenodd" d="M30 14C21.1634 14 14 21.1634 14 30V300.69C20.1977 300.69 25.2218 305.412 25.2218 311.238C25.2218 317.064 20.1977 321.787 14 321.787V406C14 414.837 21.1634 422 30 422H402C410.837 422 418 414.837 418 406V321.787H418C411.802 321.787 406.777 317.064 406.777 311.238C406.777 305.412 411.802 300.69 418 300.69H418V30C418 21.1634 410.837 14 402 14H30ZM28.9695 312.238H36.8536V310.238H28.9695V312.238ZM44.7377 312.238H52.6218V310.238H44.7377V312.238ZM60.506 312.238H68.3901V310.238H60.506V312.238ZM76.2742 312.238H84.1584V310.238H76.2742V312.238ZM92.0425 312.238H99.9266V310.238H92.0425V312.238ZM107.811 312.238H115.695V310.238H107.811V312.238ZM123.579 312.238H131.463V310.238H123.579V312.238ZM139.347 312.238H147.231V310.238H139.347V312.238ZM155.116 312.238H163V310.238H155.116V312.238ZM170.884 312.238H178.768V310.238H170.884V312.238ZM186.652 312.238H194.536V310.238H186.652V312.238ZM202.42 312.238H210.304V310.238H202.42V312.238ZM218.189 312.238H226.073V310.238H218.189V312.238ZM233.957 312.238H241.841V310.238H233.957V312.238ZM249.725 312.238H257.609V310.238H249.725V312.238ZM265.493 312.238H273.377V310.238H265.493V312.238ZM281.262 312.238H289.146V310.238H281.262V312.238ZM297.03 312.238H304.914V310.238H297.03V312.238ZM312.798 312.238H320.682V310.238H312.798V312.238ZM328.566 312.238H336.45V310.238H328.566V312.238ZM344.335 312.238H352.219V310.238H344.335V312.238ZM360.103 312.238H367.987V310.238H360.103V312.238ZM375.871 312.238H383.755V310.238H375.871V312.238ZM391.639 312.238H399.523V310.238H391.639V312.238Z" fill="white"/>
</g>
<path d="M304.554 181.99H312L297.301 147L290.137 147.009C290.559 148.212 289.823 150.545 289.033 152.582L277.225 181.99H281.372L286.583 169.22H299.356L304.558 181.99H304.554ZM287.768 166.294L292.965 153.551L298.158 166.294H287.768Z" fill="#2E2F3E"/>
<path d="M184.526 165.491H199.548V162.983H184.526V149.508H201.523V147L176.451 147.009C176.451 147.009 177.205 148.333 177.205 151.99V181.999H201.994V179.495H184.521V165.491H184.526Z" fill="#2E2F3E"/>
<path d="M142.537 162.984H127.074V147.01H119C119 147.01 119.754 148.333 119.754 151.99V182H127.074V165.793H142.537V182H149.857V147.01H142.537V162.984Z" fill="#2E2F3E"/>
<path d="M244.723 164.728C246.276 164.235 247.873 163.499 249.382 162.373C254.79 158.334 253.439 151.451 249.857 149.172C247.55 147.704 245.275 147 240.751 147H226.424C226.424 147 227.178 148.324 227.178 151.981V181.99H234.516V165.639H236.451C236.558 165.639 236.684 165.639 236.823 165.644C239 165.787 240.189 166.429 242.043 168.825L251.15 181.99H258.605C258.605 181.99 248.874 168.471 248.066 167.425C247.375 166.523 246.276 165.195 244.727 164.728M236.195 163.167H234.516V149.445H236.096C238.681 149.445 242.461 149.477 244.4 152.367C246.244 155.117 245.629 158.33 244.269 160.165C242.586 162.445 240.706 163.162 236.195 163.162" fill="#2E2F3E"/>
<path d="M145.556 355.616H163.98C163.98 359.452 163.7 364.408 163.084 367.768H166.864V370.568H156.56V380.732H153.088V370.568H142.896V367.768H159.752C159.976 366.76 160.144 365.276 160.284 363.708L145.192 364.464L144.772 361.692L160.452 361.076C160.48 360.068 160.508 359.144 160.508 358.36H145.556V355.616ZM190.214 357.94H170.95V355.196H190.214V357.94ZM189.85 380.032H171.678V372.584H175.15V377.288H189.85V380.032ZM190.158 366.116H182.318V368.412H192.622V371.184H168.654V368.412H178.846V366.116H171.034V363.344H174.674L174.002 359.228L177.362 358.724L177.95 363.344H183.242L183.942 358.724L187.33 359.228L186.518 363.344H190.158V366.116ZM211.975 365.192V361.916H206.375V365.192H211.975ZM215.475 367.936H202.903V355.476H206.375V359.2H211.975V355.42H215.475V367.936ZM223.371 380.396H205.927V370.288H223.119V373.088H209.399V377.624H223.371V380.396ZM226.759 363.232H223.007V368.888H219.479V354.188H223.007V360.404H226.759V363.232ZM229.417 356.96H241.793C241.597 364.968 238.041 371.52 229.949 375.944L227.793 373.312C233.617 370.68 237.565 365.136 238.041 359.844H229.417V356.96ZM249.969 380.732H246.469V354.188H249.969V380.732Z" fill="#2E2F3E"/>
<path d="M266.5 377.471C266.146 377.471 265.849 377.359 265.609 377.135C265.369 376.911 265.249 376.634 265.25 376.304C265.25 375.974 265.37 375.696 265.61 375.472C265.85 375.248 266.147 375.137 266.5 375.138H281.5C281.854 375.138 282.151 375.25 282.391 375.474C282.631 375.698 282.751 375.974 282.75 376.304C282.75 376.635 282.63 376.912 282.39 377.136C282.15 377.36 281.853 377.472 281.5 377.471H266.5ZM270.938 372.308C270.771 372.308 270.615 372.284 270.469 372.235C270.323 372.186 270.188 372.103 270.063 371.988L264.75 367.029C264.521 366.815 264.406 366.533 264.406 366.183C264.406 365.833 264.521 365.551 264.75 365.338C264.979 365.124 265.271 365.017 265.625 365.017C265.979 365.017 266.271 365.124 266.5 365.338L270.938 369.479L281.5 359.621C281.729 359.407 282.026 359.3 282.391 359.3C282.756 359.3 283.053 359.407 283.281 359.621C283.51 359.835 283.625 360.112 283.625 360.453C283.625 360.793 283.51 361.07 283.281 361.283L271.813 371.988C271.688 372.104 271.552 372.187 271.406 372.236C271.26 372.285 271.104 372.309 270.938 372.308Z" fill="#2E2F3E"/>
<defs>
<filter id="filter0_d_62_6187" x="0" y="0" width="436" height="440" filterUnits="userSpaceOnUse" color-interpolation-filters="sRGB">
<feFlood flood-opacity="0" result="BackgroundImageFix"/>
<feColorMatrix in="SourceAlpha" type="matrix" values="0 0 0 0 0 0 0 0 0 0 0 0 0 0 0 0 0 0 127 0" result="hardAlpha"/>
<feOffset dx="2" dy="2"/>
<feGaussianBlur stdDeviation="8"/>
<feComposite in2="hardAlpha" operator="out"/>
<feColorMatrix type="matrix" values="0 0 0 0 0.180392 0 0 0 0 0.184314 0 0 0 0 0.243137 0 0 0 0.12 0"/>
<feBlend mode="normal" in2="BackgroundImageFix" result="effect1_dropShadow_62_6187"/>
<feBlend mode="normal" in="SourceGraphic" in2="effect1_dropShadow_62_6187" result="shape"/>
</filter>
</defs>
</svg>
