<svg width="590" height="98" viewBox="0 0 590 98" fill="none" xmlns="http://www.w3.org/2000/svg">
<rect width="590" height="98" rx="16" fill="#18C68B"/>
<path d="M198.735 64.868H175.263V55.652H193.191V53.312H175.047V49.748H197.655V58.928H179.763V61.268H198.735V64.868ZM171.123 32.432H186.999C186.963 42.08 179.259 47.264 171.663 48.884L169.467 45.248C175.551 44.42 180.843 41.036 182.031 36.14H171.123V32.432ZM197.655 48.056H193.191V45.14H186.819V41.756H193.191V38.912H187.431V35.528H193.191V30.956H197.655V48.056ZM230.556 65.084H226.308V30.956H230.556V65.084ZM223.716 63.5H219.54V46.4H215.112V42.728H219.54V31.604H223.716V63.5ZM218.316 53.996L215.796 57.2C213.564 55.796 210.684 52.304 209.856 49.28C209.028 52.448 206.148 56.408 203.376 57.956L200.676 54.932C205.536 51.728 207.696 46.868 207.696 40.136V38.48H201.972V34.916H217.344V38.48H212.016V40.028C212.016 46.724 214.248 51.584 218.316 53.996ZM253.315 50.936C253.315 48.92 252.091 47.48 250.111 47.48C248.131 47.48 246.943 48.884 246.943 50.936C246.943 52.952 248.131 54.356 250.111 54.356C252.091 54.356 253.315 52.88 253.315 50.936ZM257.311 50.936C257.311 55.04 254.539 57.884 250.111 57.884C245.755 57.884 242.911 54.86 242.911 50.936C242.911 46.724 245.791 43.952 250.111 43.952C254.539 43.952 257.311 46.796 257.311 50.936ZM258.139 42.656H242.119V39.128H258.139V42.656ZM254.683 37.148H246.115V33.62H254.683V37.148ZM264.979 63.5H260.803V53.78H257.671V50.288H260.803V46.544H257.563V43.052H260.803V31.604H264.979V63.5ZM271.567 65.084H267.319V30.956H271.567V65.084ZM303.604 51.368H299.32V42.836H296.404V51.044H292.192V31.568H296.404V39.236H299.32V30.956H303.604V51.368ZM280.168 43.412V46.652C282.688 46.76 287.944 46.4 290.14 45.86L290.464 49.28C288.016 49.892 283.084 50.18 278.8 50.18H275.74V33.404H289.06V36.968H280.168V39.92H288.736V43.412H280.168ZM279.7 52.988H303.604V65.12H299.14V56.552H279.7V52.988ZM334.608 52.16L335.256 55.724C331.98 56.516 327.048 56.84 320.46 56.84H317.148V34.088H332.484V37.688H321.612V53.204C326.472 53.204 330.756 53.06 334.608 52.16ZM343.824 65.084H339.36V46.364H331.224V42.584H339.36V30.956H343.824V65.084ZM379.363 47.084V42.044H364.855V47.084H379.363ZM387.499 60.836H356.683V57.272H369.787V50.648H360.391V33.296H364.855V38.588H379.363V33.224H383.827V50.648H374.251V57.272H387.499V60.836ZM390.52 34.52H406.432C406.18 44.816 401.608 53.24 391.204 58.928L388.432 55.544C395.92 52.16 400.996 45.032 401.608 38.228H390.52V34.52ZM416.944 65.084H412.444V30.956H416.944V65.084Z" fill="#2E2F3E"/>
</svg>
