<svg width="436" height="440" viewBox="0 0 436 440" fill="none" xmlns="http://www.w3.org/2000/svg">
<g filter="url(#filter0_d_62_6165)">
<path fill-rule="evenodd" clip-rule="evenodd" d="M30 14C21.1634 14 14 21.1634 14 30V300.69C20.1977 300.69 25.2218 305.412 25.2218 311.238C25.2218 317.064 20.1977 321.787 14 321.787V406C14 414.837 21.1634 422 30 422H402C410.837 422 418 414.837 418 406V321.787H418C411.802 321.787 406.777 317.064 406.777 311.238C406.777 305.412 411.802 300.69 418 300.69H418V30C418 21.1634 410.837 14 402 14H30ZM28.9695 312.238H36.8536V310.238H28.9695V312.238ZM44.7377 312.238H52.6218V310.238H44.7377V312.238ZM60.506 312.238H68.3901V310.238H60.506V312.238ZM76.2742 312.238H84.1584V310.238H76.2742V312.238ZM92.0425 312.238H99.9266V310.238H92.0425V312.238ZM107.811 312.238H115.695V310.238H107.811V312.238ZM123.579 312.238H131.463V310.238H123.579V312.238ZM139.347 312.238H147.231V310.238H139.347V312.238ZM155.116 312.238H163V310.238H155.116V312.238ZM170.884 312.238H178.768V310.238H170.884V312.238ZM186.652 312.238H194.536V310.238H186.652V312.238ZM202.42 312.238H210.304V310.238H202.42V312.238ZM218.189 312.238H226.073V310.238H218.189V312.238ZM233.957 312.238H241.841V310.238H233.957V312.238ZM249.725 312.238H257.609V310.238H249.725V312.238ZM265.493 312.238H273.377V310.238H265.493V312.238ZM281.262 312.238H289.146V310.238H281.262V312.238ZM297.03 312.238H304.914V310.238H297.03V312.238ZM312.798 312.238H320.682V310.238H312.798V312.238ZM328.566 312.238H336.45V310.238H328.566V312.238ZM344.335 312.238H352.219V310.238H344.335V312.238ZM360.103 312.238H367.987V310.238H360.103V312.238ZM375.871 312.238H383.755V310.238H375.871V312.238ZM391.639 312.238H399.523V310.238H391.639V312.238Z" fill="#F45716"/>
</g>
<path d="M102.405 155.264C102.405 147.906 108.963 145.268 116.24 145.268C117.444 145.268 119.762 145.403 120.966 145.537C120.93 146.041 120.427 147.335 118.684 147.284C115.037 147.133 106.664 146.579 106.664 153.551C106.664 156.86 109.592 159.196 111.838 160.54L116.707 163.412C120.553 165.63 124.326 168.94 124.326 174.333C124.326 180.599 119.259 184.883 111.353 184.883C106.232 184.883 102.351 182.716 100.968 180.616C98.7759 177.357 100.77 174.467 102.387 173.257C103.358 177.928 106.61 183.119 112.162 183.119C117.282 183.119 119.78 179.977 119.78 176.567C119.78 174.047 119.241 171.275 114.785 168.604L108.999 165.076C105.945 163.194 102.423 159.952 102.423 155.281" fill="white"/>
<path d="M162.184 143C160.01 143.571 157.297 146.041 157.297 150.258V184.06H161.789V155.651C161.789 149.552 161.807 146.158 162.166 143" fill="white"/>
<path d="M146.013 176.551C146.013 180.987 142.114 181.944 139.796 181.944C135.645 181.944 134.19 180.197 134.19 176.266V160.39C131.98 160.944 129.644 163.582 129.68 166.354V177.643C129.68 181.457 132.411 184.699 137.173 184.699C140.101 184.699 143.443 183.557 145.761 181.793C146.372 181.323 150.504 178.265 150.504 171.612V161.011V160.406C148.294 160.961 145.959 163.598 145.995 166.37V176.568L146.013 176.551Z" fill="white"/>
<path d="M213.497 166.403C213.497 166.05 213.551 165.798 213.659 165.613C213.659 165.613 213.964 165.277 214.396 164.975C215.6 164.252 217.432 163.328 219.499 163.328C223.397 163.328 225.284 165.781 225.284 169.427V184.11H229.704L229.776 168.049C229.776 164.067 227.71 160.724 221.924 160.724C218.798 160.724 215.761 162.438 213.569 163.916C213.479 163.967 213.461 163.748 213.461 163.597V152.223C213.461 148.174 213.551 145.503 213.839 143C212.707 143.286 211.395 144.126 210.425 145.453C209.544 146.545 208.934 147.906 208.934 149.3V184.093H213.461V166.403H213.497Z" fill="white"/>
<path d="M278.449 173.021C278.449 180.145 283.929 184.765 290.937 184.765C298.555 184.765 303.801 179.641 303.801 172.517C303.801 165.394 298.267 160.74 291.44 160.74C284.253 160.74 278.467 165.865 278.467 173.021M283.714 172.282C283.714 166.016 286.696 161.967 290.703 161.967C296.507 161.967 298.573 168.586 298.573 173.425C298.573 177.809 296.92 183.505 291.566 183.505C286.211 183.505 283.714 177.457 283.714 172.282Z" fill="white"/>
<path d="M307.684 173.021C307.684 180.145 313.164 184.765 320.171 184.765C327.772 184.765 333 179.641 333 172.517C333 165.394 327.466 160.74 320.639 160.74C313.452 160.74 307.666 165.865 307.666 173.021M312.913 172.282C312.913 166.016 315.895 161.967 319.902 161.967C325.687 161.967 327.772 168.586 327.772 173.425C327.772 177.809 326.119 183.505 320.764 183.505C315.41 183.505 312.913 177.457 312.913 172.282Z" fill="white"/>
<path d="M260.303 167.208C260.303 161.681 265.423 160.673 269.897 160.673C270.526 160.673 272.467 160.807 273.06 160.841C273.06 161.479 272.395 162.487 271.173 162.487C269.161 162.487 264.166 161.563 264.166 165.847C264.166 168.182 266.735 169.425 268.855 170.568C272.089 172.281 275.09 174.214 275.09 178.262C275.09 182.58 270.814 184.747 266.322 184.747C263.447 184.747 261.021 184.025 259.925 182.513C258.686 180.766 259.692 179.186 260.554 178.229C261.399 181.253 263.483 183.101 266.915 183.101C269.125 183.101 271.011 181.908 271.011 179.472C271.011 176.834 268.568 175.423 266.322 174.23C262.782 172.349 260.285 170.349 260.285 167.225" fill="white"/>
<path d="M237.63 165.815H241.888C241.888 165.815 242.319 163.093 244.691 162.471C248.464 161.682 249.434 165.311 249.434 168.2V170.569C248.159 171.409 246.883 171.745 243.253 172.3C237.845 173.089 235.527 175.105 235.527 179.07C235.527 182.749 238.079 185 242.229 185C244.906 185 247.296 183.892 249.434 181.708V184.295H253.872V167.596C253.872 161.799 248.931 160.959 246.631 160.959C243.9 160.959 239.157 161.967 237.63 165.832M239.516 178.633C239.516 176.567 240.307 175.256 241.978 174.416C242.714 174.08 243.397 173.896 247.26 173.005C248.985 172.636 249.237 172.585 249.434 172.535V176.718C249.434 179.876 247.44 182.968 243.9 182.968C241.331 182.968 239.498 181.136 239.498 178.633" fill="white"/>
<path d="M203.886 161.513C202.772 161.311 200.598 161.748 199.143 165.242L193.878 177.826L187.823 161.429H184.697L178.947 177.876L172.012 161.53H167.143L176.953 184.428H178.247L185.29 166.368L192.135 184.428H193.573L200.58 168.115C201.82 165.226 203.078 162.487 203.886 161.513Z" fill="white"/>
<path d="M145.556 355.616H163.98C163.98 359.452 163.7 364.408 163.084 367.768H166.864V370.568H156.56V380.732H153.088V370.568H142.896V367.768H159.752C159.976 366.76 160.144 365.276 160.284 363.708L145.192 364.464L144.772 361.692L160.452 361.076C160.48 360.068 160.508 359.144 160.508 358.36H145.556V355.616ZM190.214 357.94H170.95V355.196H190.214V357.94ZM189.85 380.032H171.678V372.584H175.15V377.288H189.85V380.032ZM190.158 366.116H182.318V368.412H192.622V371.184H168.654V368.412H178.846V366.116H171.034V363.344H174.674L174.002 359.228L177.362 358.724L177.95 363.344H183.242L183.942 358.724L187.33 359.228L186.518 363.344H190.158V366.116ZM211.975 365.192V361.916H206.375V365.192H211.975ZM215.475 367.936H202.903V355.476H206.375V359.2H211.975V355.42H215.475V367.936ZM223.371 380.396H205.927V370.288H223.119V373.088H209.399V377.624H223.371V380.396ZM226.759 363.232H223.007V368.888H219.479V354.188H223.007V360.404H226.759V363.232ZM229.417 356.96H241.793C241.597 364.968 238.041 371.52 229.949 375.944L227.793 373.312C233.617 370.68 237.565 365.136 238.041 359.844H229.417V356.96ZM249.969 380.732H246.469V354.188H249.969V380.732Z" fill="white"/>
<path d="M266.5 377.471C266.146 377.471 265.849 377.359 265.609 377.135C265.369 376.911 265.249 376.634 265.25 376.304C265.25 375.974 265.37 375.696 265.61 375.472C265.85 375.248 266.147 375.137 266.5 375.138H281.5C281.854 375.138 282.151 375.25 282.391 375.474C282.631 375.698 282.751 375.974 282.75 376.304C282.75 376.635 282.63 376.912 282.39 377.136C282.15 377.36 281.853 377.472 281.5 377.471H266.5ZM270.938 372.308C270.771 372.308 270.615 372.284 270.469 372.235C270.323 372.186 270.188 372.103 270.063 371.988L264.75 367.029C264.521 366.815 264.406 366.533 264.406 366.183C264.406 365.833 264.521 365.551 264.75 365.338C264.979 365.124 265.271 365.017 265.625 365.017C265.979 365.017 266.271 365.124 266.5 365.338L270.938 369.479L281.5 359.621C281.729 359.407 282.026 359.3 282.391 359.3C282.756 359.3 283.053 359.407 283.281 359.621C283.51 359.835 283.625 360.112 283.625 360.453C283.625 360.793 283.51 361.07 283.281 361.283L271.813 371.988C271.688 372.104 271.552 372.187 271.406 372.236C271.26 372.285 271.104 372.309 270.938 372.308Z" fill="white"/>
<defs>
<filter id="filter0_d_62_6165" x="0" y="0" width="436" height="440" filterUnits="userSpaceOnUse" color-interpolation-filters="sRGB">
<feFlood flood-opacity="0" result="BackgroundImageFix"/>
<feColorMatrix in="SourceAlpha" type="matrix" values="0 0 0 0 0 0 0 0 0 0 0 0 0 0 0 0 0 0 127 0" result="hardAlpha"/>
<feOffset dx="2" dy="2"/>
<feGaussianBlur stdDeviation="8"/>
<feComposite in2="hardAlpha" operator="out"/>
<feColorMatrix type="matrix" values="0 0 0 0 0.180392 0 0 0 0 0.184314 0 0 0 0 0.243137 0 0 0 0.12 0"/>
<feBlend mode="normal" in2="BackgroundImageFix" result="effect1_dropShadow_62_6165"/>
<feBlend mode="normal" in="SourceGraphic" in2="effect1_dropShadow_62_6165" result="shape"/>
</filter>
</defs>
</svg>
