<svg width="630" height="88" viewBox="0 0 630 88" fill="none" xmlns="http://www.w3.org/2000/svg">
<path d="M20.6889 17.68C20.6889 19.144 19.4889 20.32 18.0249 20.32C16.5609 20.32 15.3609 19.144 15.3609 17.68C15.3609 16.216 16.5609 15.016 18.0249 15.016C19.4889 15.016 20.6889 16.216 20.6889 17.68ZM38.832 26.08L45.576 10.624H36.864V8.92H47.808V10.216L41.088 26.08H38.832ZM68.4356 19.312H48.2756V17.68H57.3716V14.296H59.3156V17.68H68.4356V19.312ZM58.3556 22.672C54.7556 22.672 52.5236 23.488 52.5236 24.928C52.5236 26.416 54.7556 27.208 58.3556 27.208C61.9796 27.208 64.2116 26.416 64.2116 24.928C64.2116 23.488 61.9796 22.672 58.3556 22.672ZM67.4276 13.96L66.5396 15.592C62.8196 14.992 59.4596 13.024 58.3556 10.984C57.4676 13.048 54.1556 15.04 50.2196 15.616L49.3316 13.984C52.7876 13.672 56.5796 11.896 57.2516 9.28H50.1236V7.672H66.5876V9.28H59.4836C60.2036 11.92 64.3316 13.672 67.4276 13.96ZM66.1796 24.928C66.1796 27.376 63.3476 28.768 58.3556 28.768C53.3636 28.768 50.5556 27.352 50.5556 24.928C50.5556 22.552 53.3636 21.112 58.3556 21.112C63.3476 21.112 66.1796 22.456 66.1796 24.928ZM77.2963 7.96H92.1763C92.1763 10.816 92.0803 15.016 91.3603 18.544H94.8403V20.176H85.7203V28.84H83.7763V20.176H74.6803V18.544H89.4163C89.7043 17.464 89.8723 15.904 89.9923 14.344L77.0083 14.896L76.6963 13.192L90.0643 12.784C90.1363 11.512 90.1603 10.336 90.1603 9.568H77.2963V7.96ZM113.75 9.256H97.4064V7.648H113.75V9.256ZM113.39 28.144H98.0784V22.144H100.022V26.512H113.39V28.144ZM115.718 20.56H95.5584V18.928H104.63V16.264H97.4304V14.68H101.102L100.43 10.408L102.446 10.144L102.95 14.68H108.206L108.782 10.096L110.798 10.36L110.078 14.68H113.75V16.264H106.574V18.928H115.718V20.56ZM126.541 8.776C123.013 8.776 120.709 9.712 120.709 11.56C120.709 13.384 122.989 14.32 126.517 14.32C130.045 14.32 132.373 13.384 132.373 11.56C132.373 9.712 130.069 8.776 126.541 8.776ZM134.293 11.536C134.293 14.392 131.389 15.952 126.517 15.952C121.645 15.952 118.765 14.392 118.765 11.536C118.765 8.728 121.669 7.168 126.541 7.168C131.389 7.168 134.293 8.728 134.293 11.536ZM134.317 28.192H119.101V21.688H121.045V26.56H134.317V28.192ZM136.597 19.6H116.437V17.968H136.597V19.6ZM145.529 16.72H146.633C149.729 16.72 153.497 16.408 155.657 15.976L155.873 17.56C153.401 17.992 149.249 18.328 145.409 18.328H143.585V8.296H153.641V9.928H145.529V16.72ZM158.249 24.496C158.249 22.888 156.233 21.856 152.849 21.856C149.489 21.856 147.497 22.912 147.497 24.496C147.497 26.08 149.489 27.112 152.849 27.112C156.233 27.112 158.249 26.104 158.249 24.496ZM160.265 24.496C160.265 26.992 157.697 28.72 152.849 28.72C148.001 28.72 145.481 27.016 145.481 24.496C145.481 21.928 148.001 20.224 152.849 20.224C157.697 20.224 160.265 21.976 160.265 24.496ZM163.385 14.008H159.977V19.864H158.033V6.52H159.977V12.376H163.385V14.008ZM170.127 8.896C167.943 8.896 166.215 10.24 166.215 12.232C166.215 14.224 167.919 15.544 170.127 15.544C172.455 15.544 174.015 14.224 174.015 12.256C174.015 10.264 172.455 8.896 170.127 8.896ZM170.127 7.192C173.319 7.192 175.911 9.232 175.911 12.256C175.911 15.28 173.319 17.248 170.127 17.248C166.959 17.248 164.319 15.304 164.319 12.256C164.319 9.256 166.911 7.192 170.127 7.192ZM182.775 28.528H167.511V22.888H180.015V20.56H167.439V18.976H181.959V24.376H169.455V26.944H182.775V28.528ZM181.959 17.8H180.015V6.52H181.959V17.8ZM199.964 21.472V10.432H193.316V21.472H199.964ZM201.908 23.08H191.372V8.824H201.908V23.08ZM208.316 28.84H206.372V6.52H208.316V28.84ZM224.106 21.904L222.882 23.392C220.578 21.808 218.082 19.144 217.194 16.456C216.402 19.24 214.242 22.072 211.602 23.896L210.354 22.408C213.594 20.416 216.21 16.408 216.21 12.448V8.488H218.202V12.376C218.202 16.456 221.01 20.104 224.106 21.904ZM231.762 17.152H228.162V28.84H226.218V6.52H228.162V15.52H231.762V17.152ZM241.96 15.376C240.856 15.376 239.848 15.304 238.96 15.136V17.8H244.888V15.16C244 15.304 243.04 15.376 241.96 15.376ZM241.984 22.504C238.432 22.504 236.056 23.296 236.056 24.76C236.056 26.224 238.432 27.016 241.984 27.016C245.608 27.016 247.96 26.224 247.96 24.76C247.96 23.296 245.584 22.504 241.984 22.504ZM247.864 11.2C247.864 9.544 245.536 8.56 241.96 8.56C238.384 8.56 236.08 9.544 236.08 11.2C236.08 12.832 238.384 13.816 241.96 13.816C245.512 13.816 247.864 12.832 247.864 11.2ZM249.904 24.76C249.904 27.328 246.904 28.696 242.008 28.696C237.088 28.696 234.112 27.328 234.112 24.76C234.112 22.216 237.088 20.824 241.984 20.824C246.904 20.824 249.904 22.216 249.904 24.76ZM249.76 11.2C249.76 12.712 248.704 13.912 246.832 14.632V17.8H252.04V19.408H231.88V17.8H237.016V14.608C235.192 13.888 234.184 12.688 234.184 11.2C234.184 8.656 237.064 7 241.96 7C246.856 7 249.76 8.656 249.76 11.2ZM266.342 21.976L265.118 23.464C263.102 22.096 260.486 19.336 259.622 16.648C258.806 19.432 256.502 22.168 253.91 24.016L252.638 22.552C255.902 20.512 258.59 16.456 258.59 12.496V8.464H260.558V12.424C260.558 16.504 263.27 20.152 266.342 21.976ZM271.142 28.84H269.198V6.52H271.142V28.84ZM299.323 25.984H279.163V24.352H288.235V18.64H290.179V24.352H299.323V25.984ZM298.531 17.536L297.451 19.096C293.539 18.016 290.179 15.232 289.219 12.712C288.355 15.28 284.923 18.04 281.011 19.096L280.003 17.536C283.891 16.792 288.235 13.624 288.235 9.784V8.176H290.251V9.784C290.251 13.624 294.859 16.84 298.531 17.536ZM309.209 15.4V9.328H302.993V15.4H309.209ZM311.153 16.984H301.049V7.72H311.153V16.984ZM312.233 11.056V9.472H316.337V6.52H318.281V18.064H316.337V15.184H312.233V13.624H316.337V11.056H312.233ZM319.121 28.672H304.001V23.032H316.361V20.752H303.833V19.144H318.305V24.544H305.945V27.064H319.121V28.672ZM339.207 28.528H324.687V20.536H326.631V22.84H337.263V20.488H339.207V28.528ZM335.535 16.768L335.703 18.328C333.951 18.544 331.239 18.784 328.527 18.928C326.007 19.048 322.719 19.12 321.231 19.12L320.943 17.416C322.671 17.416 324.999 17.416 327.423 17.344V14.632H322.863V7.744H333.687V9.352H324.807V13.024H333.903V14.632H329.367V17.272C331.743 17.152 334.143 16.984 335.535 16.768ZM337.263 26.944V24.424H326.631V26.944H337.263ZM339.207 19.288H337.263V6.52H339.207V19.288ZM355.693 20.632L355.885 22.312C353.293 22.912 347.485 23.344 344.053 23.344H343.069V8.848H345.013V21.64C347.893 21.64 353.029 21.232 355.693 20.632ZM359.893 6.52V28.84H357.973V6.52H359.893ZM365.508 21.712H366.804C369.684 21.712 374.1 21.448 376.236 20.992L376.452 22.6C374.052 23.056 369.636 23.368 365.748 23.368H363.564V8.848H374.148V10.48H365.508V21.712ZM379.884 6.52V15.376H383.508V17.008H379.884V28.84H377.964V6.52H379.884ZM383.674 26.608V24.328H385.882V26.608H383.674Z" fill="#AEB5C9"/>
<path d="M20.6889 69.68C20.6889 71.144 19.4889 72.32 18.0249 72.32C16.5609 72.32 15.3609 71.144 15.3609 69.68C15.3609 68.216 16.5609 67.016 18.0249 67.016C19.4889 67.016 20.6889 68.216 20.6889 69.68ZM46.296 68.48V64.832H39.744V68.48H46.296ZM48.24 70.088H37.8V59.792H39.744V63.224H46.296V59.792H48.24V70.088ZM54.384 80.408H40.128V72.872H54.168V74.48H42.096V78.8H54.384V80.408ZM57.528 66.08H54.12V71.504H52.176V58.52H54.12V64.448H57.528V66.08ZM67.9421 60.776C64.4141 60.776 62.1101 61.712 62.1101 63.56C62.1101 65.384 64.3901 66.32 67.9181 66.32C71.4461 66.32 73.7741 65.384 73.7741 63.56C73.7741 61.712 71.4701 60.776 67.9421 60.776ZM75.6941 63.536C75.6941 66.392 72.7901 67.952 67.9181 67.952C63.0461 67.952 60.1661 66.392 60.1661 63.536C60.1661 60.728 63.0701 59.168 67.9421 59.168C72.7901 59.168 75.6941 60.728 75.6941 63.536ZM75.7181 80.192H60.5021V73.688H62.4461V78.56H75.7181V80.192ZM77.9981 71.6H57.8381V69.968H77.9981V71.6ZM86.8588 59.96H101.739C101.739 62.816 101.643 67.016 100.923 70.544H104.403V72.176H95.2828V80.84H93.3388V72.176H84.2428V70.544H98.9788C99.2668 69.464 99.4348 67.904 99.5548 66.344L86.5708 66.896L86.2588 65.192L99.6268 64.784C99.6988 63.512 99.7228 62.336 99.7228 61.568H86.8588V59.96ZM123.313 61.256H106.969V59.648H123.313V61.256ZM122.953 80.144H107.641V74.144H109.585V78.512H122.953V80.144ZM125.281 72.56H105.121V70.928H114.193V68.264H106.993V66.68H110.665L109.993 62.408L112.009 62.144L112.513 66.68H117.769L118.345 62.096L120.361 62.36L119.641 66.68H123.313V68.264H116.137V70.928H125.281V72.56ZM136.103 60.776C132.575 60.776 130.271 61.712 130.271 63.56C130.271 65.384 132.551 66.32 136.079 66.32C139.607 66.32 141.935 65.384 141.935 63.56C141.935 61.712 139.631 60.776 136.103 60.776ZM143.855 63.536C143.855 66.392 140.951 67.952 136.079 67.952C131.207 67.952 128.327 66.392 128.327 63.536C128.327 60.728 131.231 59.168 136.103 59.168C140.951 59.168 143.855 60.728 143.855 63.536ZM143.879 80.192H128.663V73.688H130.607V78.56H143.879V80.192ZM146.159 71.6H125.999V69.968H146.159V71.6ZM168.172 67.616V64.256H156.796V67.616H168.172ZM159.58 80.864H157.636V73.448H152.404V71.816H172.564V73.448H167.26V80.864H165.316V73.448H159.58V80.864ZM170.116 69.224H154.852V59.384H156.796V62.672H168.172V59.384H170.116V69.224ZM191.594 80.84H189.65V58.52H191.594V80.84ZM187.154 73.04L187.37 74.648C184.946 75.104 180.026 75.44 176.474 75.44H174.554V60.632H184.946V62.24H176.498V66.92H184.514V68.504H176.498V73.76C180.002 73.856 184.946 73.496 187.154 73.04ZM207.96 72.968L208.104 74.552C206.472 74.768 203.952 74.984 201.312 75.128C198.792 75.248 196.176 75.344 194.16 75.368L193.872 73.664C194.928 73.664 196.056 73.664 197.184 73.64L196.392 64.256L198.36 64.088L198.96 73.592C199.824 73.568 200.664 73.52 201.48 73.472C201.768 73.472 202.032 73.448 202.32 73.448L202.968 64.064L204.912 64.232L204.072 73.328C205.632 73.232 206.976 73.112 207.96 72.968ZM211.296 58.52V67.424H214.944V69.056H211.296V80.84H209.352V58.52H211.296ZM206.64 62.504H194.496V60.872H206.64V62.504ZM226.078 80.864H224.134V73.088H215.134V71.456H235.294V73.088H226.078V80.864ZM225.118 61.136C221.35 61.136 219.046 62.384 219.046 64.448C219.046 66.512 221.35 67.76 225.118 67.76C228.91 67.76 231.214 66.512 231.214 64.448C231.214 62.384 228.91 61.136 225.118 61.136ZM233.11 64.448C233.11 67.4 230.11 69.44 225.118 69.44C220.126 69.44 217.126 67.424 217.126 64.448C217.126 61.472 220.126 59.456 225.118 59.456C230.11 59.456 233.11 61.472 233.11 64.448ZM246.332 61.616H239.588V59.84H246.332V61.616ZM254.3 80.84H252.356V58.52H254.3V80.84ZM250.124 74.864L249.092 76.4C246.668 75.296 243.788 72.512 242.996 70.184C242.348 72.56 239.612 75.608 237.188 76.88L236.036 75.44C238.964 74.048 241.964 70.592 241.964 66.44V65.744H236.708V64.136H249.14V65.744H243.956V66.416C243.956 70.568 247.268 73.856 250.124 74.864ZM257.154 70.568V68.864H265.578V70.568H257.154ZM269.249 59.96H284.129C284.129 62.816 284.033 67.016 283.313 70.544H286.793V72.176H277.673V80.84H275.729V72.176H266.633V70.544H281.369C281.657 69.464 281.825 67.904 281.945 66.344L268.961 66.896L268.649 65.192L282.017 64.784C282.089 63.512 282.113 62.336 282.113 61.568H269.249V59.96ZM305.704 61.256H289.36V59.648H305.704V61.256ZM305.344 80.144H290.032V74.144H291.976V78.512H305.344V80.144ZM307.672 72.56H287.512V70.928H296.584V68.264H289.384V66.68H293.056L292.384 62.408L294.4 62.144L294.904 66.68H300.16L300.736 62.096L302.752 62.36L302.032 66.68H305.704V68.264H298.528V70.928H307.672V72.56ZM318.062 68.48C318.062 67.088 316.526 66.296 314.774 66.296C313.046 66.296 311.462 67.088 311.462 68.48C311.462 69.824 313.07 70.64 314.774 70.64C316.526 70.64 318.062 69.824 318.062 68.48ZM319.958 68.48C319.958 70.688 317.726 72.152 314.774 72.152C311.822 72.152 309.59 70.712 309.59 68.48C309.59 66.176 311.798 64.784 314.774 64.784C317.726 64.784 319.958 66.176 319.958 68.48ZM321.302 63.824H308.294V62.216H321.302V63.824ZM317.918 60.632H311.678V59H317.918V60.632ZM323.606 78.92V75.128H313.382V78.92H323.606ZM325.55 80.528H311.438V73.544H325.55V80.528ZM328.958 66.704H325.55V72.392H323.63V58.52H325.55V65.072H328.958V66.704ZM348.108 80.84H346.188V58.52H348.108V80.84ZM337.524 68.096C337.524 64.496 336.348 62.168 334.548 62.168C332.748 62.168 331.596 64.496 331.596 68.096C331.596 71.72 332.748 74.024 334.548 74.024C336.348 74.024 337.524 71.72 337.524 68.096ZM334.548 60.464C337.62 60.464 339.276 63.296 339.444 67.352H341.844V58.952H343.74V79.76H341.844V68.96H339.444C339.228 72.992 337.596 75.728 334.548 75.728C331.284 75.728 329.628 72.584 329.628 68.096C329.628 63.632 331.284 60.464 334.548 60.464ZM363.514 74.024L362.314 75.488C360.274 74.12 357.682 71.288 356.794 68.6C356.002 71.384 353.818 74.144 351.226 75.992L349.954 74.552C353.194 72.512 355.786 68.552 355.786 64.592V60.464H357.778V64.52C357.778 68.6 360.442 72.224 363.514 74.024ZM368.458 80.84H366.514V68.12H361.306V66.488H366.514V58.52H368.458V80.84ZM390.375 70.808L390.543 72.296C388.935 72.488 386.271 72.752 383.631 72.896C381.111 73.04 378.039 73.16 376.479 73.16L376.167 71.552C377.799 71.552 380.055 71.504 382.335 71.408V69.896C379.983 69.68 378.183 68.768 378.183 66.968C378.183 64.904 380.511 63.944 383.343 63.944C386.199 63.944 388.551 64.88 388.551 66.944C388.551 68.744 386.703 69.704 384.303 69.896V71.312C386.655 71.192 389.079 71 390.375 70.808ZM397.143 67.544H393.759V73.352H391.815V58.52H393.759V65.912H397.143V67.544ZM379.143 74.528H393.759V80.984H391.815V76.136H379.143V74.528ZM389.799 63.2H376.959V61.64H389.799V63.2ZM386.703 66.944C386.703 65.912 385.215 65.408 383.343 65.408C381.447 65.408 380.031 65.912 380.031 66.944C380.031 68 381.471 68.504 383.343 68.504C385.215 68.504 386.703 67.976 386.703 66.944ZM386.439 60.416H380.319V58.808H386.439V60.416ZM403.933 61.688C401.581 61.688 399.781 63.296 399.781 65.552C399.781 67.808 401.605 69.392 403.957 69.392C406.405 69.392 408.109 67.808 408.109 65.576C408.109 63.296 406.405 61.688 403.933 61.688ZM403.933 59.984C407.317 59.984 409.957 62.24 409.957 65.552C409.957 68.888 407.341 71.096 403.957 71.096C400.549 71.096 397.933 68.912 397.933 65.576C397.933 62.264 400.549 59.984 403.933 59.984ZM416.221 80.096H401.125V73.208H403.069V78.488H416.221V80.096ZM415.669 74.816H413.725V58.52H415.669V74.816ZM440.993 58.52V67.808H444.641V69.464H440.993V80.84H439.049V58.52H440.993ZM424.721 60.92H435.209C435.089 68.168 430.889 73.4 425.153 76.376L423.953 74.864C429.521 72.272 432.713 67.568 433.121 62.552H424.721V60.92ZM454.816 74C451.312 74 448.984 74.816 448.984 76.544C448.984 78.272 451.312 79.088 454.816 79.088C458.368 79.088 460.696 78.272 460.696 76.544C460.696 74.816 458.368 74 454.816 74ZM462.664 76.544C462.664 79.232 459.688 80.696 454.84 80.696C449.968 80.696 447.016 79.232 447.016 76.544C447.016 73.88 449.968 72.392 454.816 72.392C459.688 72.392 462.664 73.88 462.664 76.544ZM462.544 66.512H447.52V59.096H449.464V64.904H462.544V66.512ZM464.872 70.544H444.712V68.936H464.872V70.544ZM475.238 68.12C475.238 66.8 473.75 66.056 471.998 66.056C470.27 66.056 468.734 66.8 468.734 68.12C468.734 69.392 470.294 70.184 471.998 70.184C473.75 70.184 475.238 69.392 475.238 68.12ZM477.182 68.12C477.182 70.304 475.022 71.72 471.998 71.72C468.974 71.72 466.814 70.304 466.814 68.12C466.814 65.864 468.926 64.496 471.998 64.496C475.022 64.496 477.182 65.864 477.182 68.12ZM478.502 63.584H465.494V62H478.502V63.584ZM475.214 60.464H468.782V58.832H475.214V60.464ZM480.806 79.04V76.544H470.654V79.04H480.806ZM482.75 80.672H468.71V72.56H470.654V74.936H480.806V72.536H482.75V80.672ZM486.158 66.464H482.75V71.456H480.806V58.52H482.75V64.832H486.158V66.464ZM500.364 72.632L500.556 74.312C497.964 74.912 492.156 75.344 488.724 75.344H487.74V60.848H489.684V73.64C492.564 73.64 497.7 73.232 500.364 72.632ZM504.564 58.52V80.84H502.644V58.52H504.564ZM510.178 73.712H511.474C514.354 73.712 518.77 73.448 520.906 72.992L521.122 74.6C518.722 75.056 514.306 75.368 510.418 75.368H508.234V60.848H518.818V62.48H510.178V73.712ZM524.554 58.52V67.376H528.178V69.008H524.554V80.84H522.634V58.52H524.554ZM528.344 78.608V76.328H530.552V78.608H528.344Z" fill="#AEB5C9"/>
</svg>
