<svg width="750" height="2662" viewBox="0 0 750 2662" fill="none" xmlns="http://www.w3.org/2000/svg">
<rect width="750" height="2616" fill="#11A875"/>
<path d="M750 2647.7C731.171 2666.77 700.647 2666.77 681.818 2647.7C662.989 2628.63 632.465 2628.63 613.636 2647.7C594.808 2666.77 564.283 2666.77 545.455 2647.7C526.626 2628.63 496.102 2628.63 477.273 2647.7C458.444 2666.77 427.92 2666.77 409.091 2647.7C390.262 2628.63 359.738 2628.63 340.909 2647.7C322.08 2666.77 291.556 2666.77 272.727 2647.7C253.898 2628.63 223.374 2628.63 204.546 2647.7C185.717 2666.77 155.193 2666.77 136.364 2647.7C117.535 2628.63 87.0107 2628.63 68.1819 2647.7C49.353 2666.77 18.8288 2666.77 -1.50812e-05 2647.7L-1.23102e-05 2616L750 2616L750 2647.7Z" fill="#11A875"/>
</svg>
