<svg width="450" height="112" viewBox="0 0 450 112" fill="none" xmlns="http://www.w3.org/2000/svg">
<path d="M29.0991 84.68V81.544H38.1551V84.68H29.0991ZM43.0511 100.904L43.3391 103.944C37.8351 104.68 29.6431 105 23.9471 105L23.3711 101.768C26.1551 101.768 28.9391 101.768 31.6271 101.704V96.712H35.6271V101.544C38.3471 101.416 40.8751 101.192 43.0511 100.904ZM48.6191 80.072V110.408H44.6191V80.072H48.6191ZM25.1951 89.48V86.344H41.7391V89.48H35.7551C36.3951 92.072 39.6911 94.248 42.6351 94.6L40.8111 97.768C38.2511 97.224 34.9871 95.016 33.7071 92.84C32.5551 95.4 29.2911 97.832 26.1871 98.6L24.2351 95.528C27.8511 94.728 30.9871 92.328 31.5311 89.48H25.1951ZM77.8966 110.408H74.0886V95.208H71.4006V109H67.6566V80.616H71.4006V92.04H74.0886V80.072H77.8966V110.408ZM56.9686 86.824V99.976C60.0726 100.072 63.7206 99.784 65.7366 99.272L66.1206 102.408C63.8486 103.016 59.4006 103.24 55.8806 103.24H53.0006V83.688H64.4566V86.856C61.9606 86.856 59.4966 86.824 56.9686 86.824ZM93.5829 106.472V87.272L89.6469 88.04V85.608L95.5989 82.952H97.8069V106.472H93.5829ZM108.809 106.664C106.153 106.664 103.689 105.992 102.185 105.064L102.921 101.864C104.201 102.6 105.961 103.272 107.753 103.272C111.017 103.272 112.969 101.704 112.969 98.888C112.969 95.912 111.145 94.696 107.945 94.696C106.473 94.696 104.297 95.4 103.209 95.944L104.073 83.112H116.233V86.376H107.241L106.825 92.072C107.593 91.848 108.873 91.656 109.737 91.656C114.409 91.656 117.289 94.024 117.289 98.984C117.289 103.304 114.121 106.664 108.809 106.664ZM140.433 104.328C142.033 104.328 142.801 103.304 142.801 100.616V99.848C142.801 97.224 141.969 96.104 140.433 96.104C138.865 96.104 138.097 97.192 138.097 99.816V100.584C138.097 103.272 138.833 104.328 140.433 104.328ZM140.433 106.76C136.945 106.76 134.609 104.488 134.609 100.552V100.072C134.609 96.168 136.977 93.704 140.433 93.704C143.857 93.704 146.257 95.976 146.257 99.848V100.36C146.257 104.264 143.921 106.76 140.433 106.76ZM124.433 93.448C126.065 93.448 126.833 92.36 126.833 89.672V88.936C126.833 86.344 126.001 85.16 124.433 85.16C122.897 85.16 122.097 86.312 122.097 88.904V89.64C122.097 92.36 122.865 93.448 124.433 93.448ZM124.433 95.88C120.945 95.88 118.673 93.576 118.673 89.64V89.192C118.673 85.256 120.977 82.76 124.433 82.76C127.857 82.76 130.225 85.032 130.225 88.936V89.448C130.225 93.352 127.921 95.88 124.433 95.88ZM122.737 107.784L138.673 82.504H141.777L125.841 107.784H122.737Z" fill="#0FB87E"/>
<path d="M168.973 94.92C168.973 93.032 167.117 92.008 164.941 92.008C162.765 92.008 160.909 93.032 160.909 94.92C160.909 96.712 162.797 97.8 164.941 97.8C167.117 97.8 168.973 96.712 168.973 94.92ZM171.981 94.92C171.981 98.184 168.973 100.232 164.941 100.232C160.941 100.232 157.901 98.216 157.901 94.92C157.901 91.56 160.909 89.576 164.941 89.576C168.973 89.576 171.981 91.56 171.981 94.92ZM173.645 88.2H156.173V85.768H173.645V88.2ZM169.069 83.72H160.429V81.288H169.069V83.72ZM180.333 109.224H160.493V101.416H163.501V106.792H180.333V109.224ZM183.789 92.872H179.309V102.28H176.333V80.36H179.309V90.344H183.789V92.872ZM218.579 109.192H198.579V100.04H201.587V106.76H218.579V109.192ZM214.867 91.144H210.227V88.648H214.867V80.36H217.875V102.024H214.867V91.144ZM205.523 95.016V90.12H197.683V95.016H205.523ZM208.531 97.48H194.675V82.312H197.683V87.688H205.523V82.28H208.531V97.48ZM247.642 99.304L248.058 101.704C244.89 102.376 240.378 102.792 234.874 102.792H231.834V83.24H245.754V85.704H234.842V100.296C239.61 100.296 244.314 100.008 247.642 99.304ZM254.97 110.12H251.962V93.48H243.514V90.92H251.962V80.36H254.97V110.12ZM281.152 102.344C276.736 102.344 273.984 103.368 273.984 105.096C273.984 106.824 276.736 107.848 281.152 107.848C285.6 107.848 288.352 106.824 288.352 105.096C288.352 103.368 285.6 102.344 281.152 102.344ZM291.424 105.096C291.424 108.296 287.968 110.312 281.152 110.312C274.336 110.312 270.88 108.264 270.88 105.096C270.88 101.96 274.336 99.88 281.152 99.88C287.968 99.88 291.424 101.864 291.424 105.096ZM291.264 93.352H282.624V96.04H294.592V98.504H267.712V96.04H279.616V93.352H270.976V81.64H291.04V84.072H273.984V86.28H290.656V88.584H273.984V90.92H291.264V93.352ZM308.198 82.056H328.166C328.166 86.632 327.846 91.848 327.046 95.24H331.718V97.672H304.838V95.24H324.198C324.454 93.96 324.678 92.232 324.838 90.472L307.846 91.24L307.398 88.872L324.998 88.136C325.062 86.792 325.094 85.512 325.094 84.488H308.198V82.056ZM328.678 109.16H308.198V100.136H311.206V106.696H328.678V109.16ZM355.82 86.408H342.252V83.976H355.82V86.408ZM367.116 110.12H364.204V80.36H367.116V110.12ZM361.612 108.648H358.732V94.312H354.924V91.848H358.732V81.032H361.612V108.648ZM353.868 88.36L352.844 100.008C354.252 99.912 355.532 99.784 356.46 99.624L356.716 102.024C355.148 102.248 352.332 102.536 349.772 102.664C346.924 102.856 344.492 102.952 341.996 102.952L341.548 100.392C342.572 100.392 343.66 100.392 344.812 100.36L343.884 88.456L346.86 88.04L347.5 100.296L349.612 100.2C349.804 100.2 350.028 100.2 350.252 100.168L350.956 88.072L353.868 88.36ZM384.106 93.128C384.106 88.52 382.538 85.192 379.498 85.192C376.458 85.192 374.89 88.52 374.89 93.128C374.89 97.704 376.458 101.032 379.498 101.032C382.538 101.032 384.106 97.704 384.106 93.128ZM371.818 93.096C371.818 87.208 374.218 82.6 379.498 82.6C384.778 82.6 387.114 87.208 387.114 93.128C387.114 99.016 384.778 103.624 379.498 103.624C374.218 103.624 371.818 99.016 371.818 93.096ZM395.306 110.12H392.298V80.36H395.306V110.12ZM409.799 93.96V89H403.527V93.96H409.799ZM424.711 110.152H421.703V102.056H404.455V99.624H424.711V110.152ZM424.711 98.152H421.799V90.248H418.631V97.832H415.751V80.904H418.631V87.784H421.799V80.36H424.711V98.152ZM412.807 96.424H400.519V82.28H403.527V86.6H409.799V82.248H412.807V96.424Z" fill="white"/>
<path d="M24.3047 36.8984H11.5781L9.1875 44H1.64062L13.9688 9.45312H22.125L34.3594 44H26.5312L24.3047 36.8984ZM22.2891 30.9453L17.9766 17.3516L13.5234 30.9453H22.2891ZM56.9531 44H50.2266V9.45312H60.7266L67.0078 36.6172L73.2422 9.45312H83.625V44H76.8984V20.6328C76.8984 19.9609 76.9062 19.0234 76.9219 17.8203C76.9375 16.6016 76.9453 15.6641 76.9453 15.0078L70.4062 44H63.3984L56.9062 15.0078C56.9062 15.6641 56.9141 16.6016 56.9297 17.8203C56.9453 19.0234 56.9531 19.9609 56.9531 20.6328V44ZM105.609 44.9609C100.672 44.9609 96.8984 43.6172 94.2891 40.9297C90.7891 37.6328 89.0391 32.8828 89.0391 26.6797C89.0391 20.3516 90.7891 15.6016 94.2891 12.4297C96.8984 9.74219 100.672 8.39844 105.609 8.39844C110.547 8.39844 114.32 9.74219 116.93 12.4297C120.414 15.6016 122.156 20.3516 122.156 26.6797C122.156 32.8828 120.414 37.6328 116.93 40.9297C114.32 43.6172 110.547 44.9609 105.609 44.9609ZM112.43 35.6797C114.102 33.5703 114.938 30.5703 114.938 26.6797C114.938 22.8047 114.094 19.8125 112.406 17.7031C110.734 15.5781 108.469 14.5156 105.609 14.5156C102.75 14.5156 100.469 15.5703 98.7656 17.6797C97.0625 19.7891 96.2109 22.7891 96.2109 26.6797C96.2109 30.5703 97.0625 33.5703 98.7656 35.6797C100.469 37.7891 102.75 38.8438 105.609 38.8438C108.469 38.8438 110.742 37.7891 112.43 35.6797ZM142.359 30.4531H134.906V44H127.852V9.45312H144.797C147.219 9.5 149.078 9.79688 150.375 10.3438C151.688 10.8906 152.797 11.6953 153.703 12.7578C154.453 13.6328 155.047 14.6016 155.484 15.6641C155.922 16.7266 156.141 17.9375 156.141 19.2969C156.141 20.9375 155.727 22.5547 154.898 24.1484C154.07 25.7266 152.703 26.8438 150.797 27.5C152.391 28.1406 153.516 29.0547 154.172 30.2422C154.844 31.4141 155.18 33.2109 155.18 35.6328V37.9531C155.18 39.5312 155.242 40.6016 155.367 41.1641C155.555 42.0547 155.992 42.7109 156.68 43.1328V44H148.734C148.516 43.2344 148.359 42.6172 148.266 42.1484C148.078 41.1797 147.977 40.1875 147.961 39.1719L147.914 35.9609C147.883 33.7578 147.477 32.2891 146.695 31.5547C145.93 30.8203 144.484 30.4531 142.359 30.4531ZM146.742 24.1719C148.18 23.5156 148.898 22.2188 148.898 20.2812C148.898 18.1875 148.203 16.7812 146.812 16.0625C146.031 15.6563 144.859 15.4531 143.297 15.4531H134.906V24.7344H143.086C144.711 24.7344 145.93 24.5469 146.742 24.1719ZM186.422 28.9062H169.641V37.7891H188.766V44H162.586V9.45312H187.922V15.5703H169.641V22.9062H186.422V28.9062ZM222.422 31.5781H215.086V44H207.914V9.45312H222.961C226.43 9.45312 229.195 10.3438 231.258 12.125C233.32 13.9062 234.352 16.6641 234.352 20.3984C234.352 24.4766 233.32 27.3594 231.258 29.0469C229.195 30.7344 226.25 31.5781 222.422 31.5781ZM225.797 24.3828C226.734 23.5547 227.203 22.2422 227.203 20.4453C227.203 18.6484 226.727 17.3672 225.773 16.6016C224.836 15.8359 223.516 15.4531 221.812 15.4531H215.086V25.625H221.812C223.516 25.625 224.844 25.2109 225.797 24.3828ZM256.43 36.8984H243.703L241.312 44H233.766L246.094 9.45312H254.25L266.484 44H258.656L256.43 36.8984ZM254.414 30.9453L250.102 17.3516L245.648 30.9453H254.414ZM294.375 9.45312L282.82 31.0156V44H275.602V31.0156L263.648 9.45312H272.156L279.328 24.5L286.195 9.45312H294.375ZM314.273 44H298.617V9.45312H315.398C319.633 9.51563 322.633 10.7422 324.398 13.1328C325.461 14.6016 325.992 16.3594 325.992 18.4062C325.992 20.5156 325.461 22.2109 324.398 23.4922C323.805 24.2109 322.93 24.8672 321.773 25.4609C323.539 26.1016 324.867 27.1172 325.758 28.5078C326.664 29.8984 327.117 31.5859 327.117 33.5703C327.117 35.6172 326.602 37.4531 325.57 39.0781C324.914 40.1562 324.094 41.0625 323.109 41.7969C322 42.6406 320.688 43.2188 319.172 43.5312C317.672 43.8438 316.039 44 314.273 44ZM314.109 28.7891H305.508V38H313.992C315.508 38 316.688 37.7969 317.531 37.3906C319.062 36.6406 319.828 35.2031 319.828 33.0781C319.828 31.2812 319.086 30.0469 317.602 29.375C316.773 29 315.609 28.8047 314.109 28.7891ZM317.695 22.2031C318.633 21.6406 319.102 20.6328 319.102 19.1797C319.102 17.5703 318.477 16.5078 317.227 15.9922C316.148 15.6328 314.773 15.4531 313.102 15.4531H305.508V23.0703H313.992C315.508 23.0703 316.742 22.7812 317.695 22.2031ZM353.414 36.8984H340.688L338.297 44H330.75L343.078 9.45312H351.234L363.469 44H355.641L353.414 36.8984ZM351.398 30.9453L347.086 17.3516L342.633 30.9453H351.398ZM392.25 41.4219C389.672 43.7812 386.375 44.9609 382.359 44.9609C377.391 44.9609 373.484 43.3672 370.641 40.1797C367.797 36.9766 366.375 32.5859 366.375 27.0078C366.375 20.9766 367.992 16.3281 371.227 13.0625C374.039 10.2188 377.617 8.79688 381.961 8.79688C387.773 8.79688 392.023 10.7031 394.711 14.5156C396.195 16.6562 396.992 18.8047 397.102 20.9609H389.883C389.414 19.3047 388.812 18.0547 388.078 17.2109C386.766 15.7109 384.82 14.9609 382.242 14.9609C379.617 14.9609 377.547 16.0234 376.031 18.1484C374.516 20.2578 373.758 23.25 373.758 27.125C373.758 31 374.555 33.9062 376.148 35.8438C377.758 37.7656 379.797 38.7266 382.266 38.7266C384.797 38.7266 386.727 37.8984 388.055 36.2422C388.789 35.3516 389.398 34.0156 389.883 32.2344H397.031C396.406 36 394.812 39.0625 392.25 41.4219ZM433.172 44H423.891L413.227 28.9062L409.781 32.4453V44H402.68V9.45312H409.781V23.6797L423.117 9.45312H432.445L418.289 23.6797L433.172 44ZM446.203 18.3359L444.305 34.4609H440.812L438.867 18.3359V9.57031H446.203V18.3359ZM446.016 37.2266V44H439.031V37.2266H446.016Z" fill="white"/>
</svg>
