<svg width="346" height="204" viewBox="0 0 346 204" fill="none" xmlns="http://www.w3.org/2000/svg">
<rect width="346" height="204" rx="30" fill="#FFBC00"/>
<path d="M121.375 129.367V85.6172H121.062L107 95.0312V82.7656L121.336 73H135.633V129.367H121.375Z" fill="black"/>
<path d="M168.681 130.383C164.332 130.383 160.543 129.641 157.314 128.156C154.085 126.646 151.546 124.615 149.697 122.062C147.848 119.51 146.819 116.633 146.611 113.43L146.572 112.805H159.619L159.697 113.078C160.009 114.25 160.569 115.305 161.377 116.242C162.21 117.18 163.239 117.935 164.463 118.508C165.713 119.055 167.119 119.328 168.681 119.328C170.478 119.328 172.067 118.964 173.447 118.234C174.827 117.479 175.908 116.438 176.689 115.109C177.47 113.781 177.861 112.258 177.861 110.539V110.461C177.861 108.742 177.47 107.232 176.689 105.93C175.908 104.602 174.827 103.573 173.447 102.844C172.067 102.115 170.478 101.75 168.681 101.75C167.509 101.75 166.416 101.919 165.4 102.258C164.384 102.57 163.473 103.013 162.666 103.586C162.067 104.003 161.533 104.471 161.064 104.992C160.621 105.513 160.244 106.06 159.931 106.633H147.509L149.931 73H187.861V84.0547H161.22L160.127 98.2734H160.4C161.494 96.3724 163.134 94.862 165.322 93.7422C167.535 92.5964 170.114 92.0234 173.056 92.0234C176.624 92.0234 179.775 92.8047 182.509 94.3672C185.27 95.9297 187.431 98.0781 188.994 100.812C190.582 103.547 191.377 106.672 191.377 110.188V110.266C191.377 114.276 190.426 117.792 188.525 120.812C186.624 123.833 183.968 126.19 180.556 127.883C177.145 129.549 173.186 130.383 168.681 130.383Z" fill="black"/>
<path d="M207.63 113.359C205.052 113.359 203.012 112.547 201.512 110.922C200.012 109.281 199.262 107.07 199.262 104.289V104.266C199.262 101.469 200.012 99.2656 201.512 97.6562C203.012 96.0312 205.052 95.2188 207.63 95.2188C210.239 95.2188 212.286 96.0312 213.77 97.6562C215.255 99.2656 215.997 101.469 215.997 104.266V104.289C215.997 107.07 215.255 109.281 213.77 110.922C212.286 112.547 210.239 113.359 207.63 113.359ZM207.63 108.883C208.458 108.883 209.091 108.5 209.528 107.734C209.981 106.953 210.208 105.812 210.208 104.312V104.289C210.208 102.773 209.981 101.633 209.528 100.867C209.091 100.102 208.458 99.7188 207.63 99.7188C206.802 99.7188 206.161 100.102 205.708 100.867C205.27 101.633 205.052 102.773 205.052 104.289V104.312C205.052 105.812 205.27 106.953 205.708 107.734C206.161 108.5 206.802 108.883 207.63 108.883ZM212.177 129.367H206.223L227.434 95.5469H233.387L212.177 129.367ZM232.005 129.695C229.411 129.695 227.364 128.883 225.864 127.258C224.364 125.633 223.614 123.422 223.614 120.625V120.602C223.614 117.82 224.364 115.617 225.864 113.992C227.364 112.367 229.411 111.555 232.005 111.555C234.598 111.555 236.637 112.367 238.122 113.992C239.606 115.617 240.348 117.82 240.348 120.602V120.625C240.348 123.422 239.606 125.633 238.122 127.258C236.637 128.883 234.598 129.695 232.005 129.695ZM232.005 125.219C232.833 125.219 233.466 124.836 233.903 124.07C234.341 123.289 234.559 122.148 234.559 120.648V120.625C234.559 119.109 234.341 117.969 233.903 117.203C233.466 116.438 232.833 116.055 232.005 116.055C231.161 116.055 230.512 116.438 230.059 117.203C229.622 117.969 229.403 119.109 229.403 120.625V120.648C229.403 122.148 229.622 123.289 230.059 124.07C230.512 124.836 231.161 125.219 232.005 125.219Z" fill="black"/>
<g clip-path="url(#clip0_62_5951)">
<path d="M291.18 123H269.54C267.33 123 265.54 124.79 265.54 127C265.54 129.21 267.33 131 269.54 131H282.6C219.51 193.21 117.58 192.94 54.83 130.19C53.27 128.63 50.74 128.63 49.17 130.19C47.61 131.75 47.61 134.28 49.17 135.85C81.21 167.89 123.81 185.54 169.12 185.54C214.43 185.54 255.35 168.57 287.17 137.71V148.64C287.17 150.85 288.96 152.64 291.17 152.64C293.38 152.64 295.17 150.85 295.17 148.64V127C295.17 124.79 293.38 123 291.17 123H291.18Z" fill="black"/>
</g>
<defs>
<clipPath id="clip0_62_5951">
<rect width="247.18" height="62.54" fill="white" transform="translate(48 123)"/>
</clipPath>
</defs>
</svg>
