<svg width="505" height="310" viewBox="0 0 505 310" fill="none" xmlns="http://www.w3.org/2000/svg">
<path d="M134.289 189.297H97.9297V208.543H139.367V222H82.6445V147.148H137.539V160.402H97.9297V176.297H134.289V189.297ZM140.82 147.148H157.527L173.777 203.973L190.179 147.148H206.429L180.886 222H166.109L140.82 147.148ZM262.623 189.297H226.264V208.543H267.702V222H210.979V147.148H265.873V160.402H226.264V176.297H262.623V189.297ZM335.22 222H319.58L289.009 168.832V222H274.435V147.148H290.837L320.646 199.402V147.148H335.22V222ZM399.032 147.148V160.402H376.638V222H360.895V160.402H338.399V147.148H399.032ZM422.422 166.395L418.309 201.332H410.742L406.527 166.395V147.402H422.422V166.395ZM422.016 207.324V222H406.883V207.324H422.016Z" fill="#2E2F3E"/>
<path d="M182.757 119.92C172.437 129.16 162.597 139.36 158.397 144.28C154.677 148.72 152.277 151.84 154.077 152.68C155.877 153.64 162.237 149.32 165.597 146.68C169.437 143.68 173.637 140.08 177.117 136.96C177.477 136.6 178.437 136.24 178.557 136.84C178.917 137.56 178.437 138.04 177.957 138.4C174.597 141.4 169.677 145.48 166.677 147.88C163.077 150.76 156.837 155.08 152.037 155.08C147.597 155.08 144.837 150.88 148.557 144.4C141.477 150.64 134.997 155.44 131.037 155.08C122.877 154.36 125.397 141.16 133.917 132.64C144.957 121.36 161.877 116.32 167.037 119.32C168.717 120.16 169.077 123.04 164.397 127.48C169.197 123.52 171.957 121.6 173.997 121C176.637 120.16 181.197 119.8 182.757 119.92ZM166.077 120.88C163.797 119.08 154.437 125.08 141.717 137.2C134.037 144.4 128.757 152.08 131.517 153.28C133.797 154.36 144.237 146.92 154.437 136.48C159.117 131.8 168.597 122.8 166.077 120.88ZM230.605 119.2C226.285 122.2 219.205 128.56 213.805 134.8C220.765 129.16 235.765 118.12 242.845 118.84C248.365 119.32 247.765 124.12 244.285 129.4C249.205 125.92 260.245 118 266.245 118.84C274.405 119.92 271.765 127.12 261.445 136.48C257.605 139.96 254.365 143.2 251.845 145.84C247.525 150.28 246.805 152.08 248.005 153.04C249.205 153.88 254.125 151.72 258.805 148.36C263.125 145.36 268.525 140.68 271.885 137.68C272.245 137.32 272.845 136.84 273.325 137.44C273.805 138.04 273.205 138.64 272.605 139.24C269.005 142.48 263.605 146.8 259.165 150.04C254.365 153.52 247.405 156.76 242.845 154.96C239.365 153.64 238.645 149.32 242.365 144.16C245.485 139.96 247.765 137.8 252.685 133.24C256.645 129.4 267.205 122.08 264.565 120.64C263.005 119.8 253.645 124.96 245.245 130.72C238.405 135.28 233.605 140.2 230.005 143.56C225.565 147.88 222.565 151.36 219.325 155.56C217.165 155.56 215.125 150.88 216.685 148.24C219.205 143.56 223.765 138.16 229.285 133.24C233.485 129.4 243.925 122.2 241.165 120.64C239.005 119.44 220.165 130.84 212.005 138.52C204.325 145.84 201.085 149.8 196.765 155.56C194.605 155.56 192.685 151 194.125 148.24C196.645 143.56 200.725 137.92 207.565 130.84C211.405 126.64 214.405 124.24 217.285 122.44C221.125 119.92 226.645 119.2 230.605 119.2ZM307.749 119.44C311.589 121.36 309.429 130.48 299.349 140.68C287.949 152.32 278.589 156.4 273.789 155.2C266.589 153.4 265.989 142.12 276.429 131.56C288.669 119.2 302.709 116.8 307.749 119.44ZM307.029 120.88C304.509 118.84 294.549 125.92 283.509 137.32C276.549 144.64 270.909 151.6 274.149 153.52C277.029 155.2 286.149 147.64 297.069 136.6C301.869 131.8 309.189 122.68 307.029 120.88ZM352.8 123.64C352.56 125.32 350.76 126.88 350.16 126.76C349.68 126.64 349.08 126.04 348.36 125.56C347.16 124.84 346.56 124.48 344.64 124.36C338.76 124.12 328.68 130.84 320.52 138.52C312.84 145.84 309.48 149.92 305.28 155.56C303.12 155.56 301.2 151 302.64 148.24C305.16 143.56 309.72 137.44 316.08 130.84C319.92 126.64 322.92 124.24 325.8 122.44C329.64 119.92 335.16 119.2 339.12 119.2C334.08 122.56 327.24 128.56 322.08 134.56L322.44 134.92C329.04 129.16 342.36 118 349.44 119.32C351.96 119.8 352.92 121.48 352.8 123.64ZM378.61 118.96C382.57 121.24 381.01 126.16 376.33 129.52C370.33 133.72 361.33 134.92 358.81 133.72C350.53 140.92 343.69 150.88 347.89 153.04C350.65 154.36 357.13 152.2 361.69 149.2C366.49 146.08 373.69 140.08 377.05 137.08C378.01 136.24 378.25 136.12 378.73 136.6C379.21 137.08 378.73 137.8 378.13 138.28C374.05 141.88 369.49 145.84 364.21 149.44C357.25 154.24 351.85 155.56 347.17 155.2C342.73 154.84 340.93 151.96 340.57 148.48C340.21 145.48 341.77 139 347.41 132.88C356.77 122.68 374.41 116.56 378.61 118.96ZM377.89 120.04C376.45 118.84 365.41 127.24 359.53 133C361.33 133.6 367.33 131.68 372.61 127.48C376.57 124.36 379.21 121 377.89 120.04Z" fill="#FF3046"/>
<path d="M196.922 54.664V37.024H207.578V40.24H200.498V43.912H206.738V46.96H200.498V51.472H207.746V54.664H196.922ZM215.409 54.688L209.289 37.024H213.225L217.617 50.56L222.057 37.024H225.897L219.729 54.688H215.409ZM227.508 54.664V37.024H238.164V40.24H231.084V43.912H237.324V46.96H231.084V51.472H238.332V54.664H227.508ZM241.242 54.664V37.024H245.538L251.346 48.736V37.024H254.85V54.664H250.722L244.746 42.688V54.664H241.242ZM265.825 40.336V54.664H262.177V40.336H257.329V37.024H270.697V40.336H265.825ZM286.274 51.808C288.146 51.808 289.25 50.056 289.25 46.24V45.496C289.25 41.536 288.098 39.856 286.298 39.856C284.402 39.856 283.346 41.56 283.346 45.4V46.168C283.346 50.008 284.33 51.808 286.274 51.808ZM286.25 54.928C282.578 54.928 279.506 52.504 279.506 46.36V45.64C279.506 39.136 282.866 36.712 286.322 36.712C289.802 36.712 293.066 39.232 293.066 45.544V46.192C293.066 52.696 289.682 54.928 286.25 54.928ZM301.401 51.832C302.721 51.832 303.777 51.016 303.777 49.048C303.777 47.008 302.745 46.288 301.281 46.288C300.489 46.288 299.337 47.056 298.953 47.776V47.872C298.953 50.608 299.841 51.832 301.401 51.832ZM301.617 54.952C297.393 54.952 295.233 51.976 295.233 47.056V45.976C295.233 39.304 298.617 36.784 302.721 36.784C304.065 36.784 305.985 37.384 306.633 37.792L305.721 40.696C305.169 40.336 303.705 39.928 302.769 39.928C300.729 39.928 299.121 41.368 298.905 44.512C299.649 43.864 301.041 43.336 302.553 43.336C305.457 43.336 307.473 45.4 307.473 48.712C307.473 52.192 305.505 54.952 301.617 54.952Z" fill="#11A875"/>
<mask id="mask0_92_1424" style="mask-type:alpha" maskUnits="userSpaceOnUse" x="239" y="0" width="28" height="28">
<circle cx="253" cy="14" r="14" fill="#D9D9D9"/>
</mask>
<g mask="url(#mask0_92_1424)">
<rect x="267" y="11.668" width="4.66667" height="28" transform="rotate(90 267 11.668)" fill="#11A875"/>
<rect x="264.549" y="22.25" width="4.66667" height="28" transform="rotate(135 264.549 22.25)" fill="#11A875"/>
<rect x="261.25" y="2.44922" width="4.66667" height="28" transform="rotate(45 261.25 2.44922)" fill="#11A875"/>
<rect x="255.334" y="28" width="4.66667" height="28" transform="rotate(-180 255.334 28)" fill="#11A875"/>
</g>
<path d="M11.5285 288.384C11.5285 286.48 10.3725 285.12 8.50246 285.12C6.63246 285.12 5.51046 286.446 5.51046 288.384C5.51046 290.288 6.63246 291.614 8.50246 291.614C10.3725 291.614 11.5285 290.22 11.5285 288.384ZM15.3025 288.384C15.3025 292.26 12.6845 294.946 8.50246 294.946C4.38846 294.946 1.70246 292.09 1.70246 288.384C1.70246 284.406 4.42246 281.788 8.50246 281.788C12.6845 281.788 15.3025 284.474 15.3025 288.384ZM16.0845 280.564H0.95446V277.232H16.0845V280.564ZM12.8205 275.362H4.72846V272.03H12.8205V275.362ZM22.5445 300.25H18.6005V291.07H15.6425V287.772H18.6005V284.236H15.5405V280.938H18.6005V270.126H22.5445V300.25ZM28.7665 301.746H24.7545V269.514H28.7665V301.746ZM59.3638 288.792H55.3178V280.734H52.5638V288.486H48.5858V270.092H52.5638V277.334H55.3178V269.514H59.3638V288.792ZM37.2298 281.278V284.338C39.6098 284.44 44.5738 284.1 46.6478 283.59L46.9538 286.82C44.6418 287.398 39.9838 287.67 35.9378 287.67H33.0478V271.826H45.6278V275.192H37.2298V277.98H45.3218V281.278H37.2298ZM36.7878 290.322H59.3638V301.78H55.1478V293.688H36.7878V290.322ZM101.258 285.392H96.5664V301.746H92.3844V269.514H96.5664V281.89H101.258V285.392ZM73.0724 272.812H88.1004C87.8284 282.536 83.5444 290.56 73.6844 295.932L71.1004 292.736C78.1384 289.54 82.9324 282.774 83.5104 276.314H73.0724V272.812ZM127.708 281.822H105.88V270.602H127.47V274.002H110.13V278.49H127.708V281.822ZM105.438 290.764H127.368V301.78H123.152V294.13H105.438V290.764ZM131.108 287.942H102.004V284.576H131.108V287.942ZM138.415 285.426C138.415 286.888 140.013 287.908 141.883 287.908C143.753 287.908 145.351 286.888 145.351 285.426C145.351 283.93 143.753 282.876 141.883 282.876C140.013 282.876 138.415 283.93 138.415 285.426ZM158.577 300.998H136.545V292.498H140.795V297.632H158.577V300.998ZM157.795 269.514V279.952H162.283V283.454H157.795V293.45H153.579V269.514H157.795ZM137.123 273.798V270.568H146.711V273.798H137.123ZM149.499 285.426C149.499 288.86 146.235 291.308 141.883 291.308C137.497 291.308 134.233 288.86 134.233 285.426C134.233 282.026 137.463 279.51 141.883 279.51C146.235 279.51 149.499 282.026 149.499 285.426ZM151.029 278.592H132.329V275.328H151.029V278.592ZM184.968 283.25C184.968 278.184 183.132 275.124 180.65 275.124C178.236 275.124 176.434 278.184 176.434 283.25C176.434 288.316 178.236 291.342 180.65 291.342C183.132 291.342 184.968 288.316 184.968 283.25ZM172.286 283.25C172.286 276.484 175.414 271.724 180.65 271.724C185.92 271.724 189.014 276.484 189.014 283.284C189.014 289.982 185.92 294.742 180.65 294.742C175.414 294.742 172.286 290.016 172.286 283.25ZM197.242 269.514V281.89H202.036V285.392H197.242V301.746H192.958V269.514H197.242ZM218.931 290.9L216.517 293.892C214.409 292.6 211.519 289.37 210.669 286.208C209.785 289.574 207.337 292.906 204.345 294.708L201.863 291.818C205.943 289.166 208.595 284.304 208.595 277.436V272.642H212.675V277.402C212.675 283.658 215.021 288.554 218.931 290.9ZM223.623 300.25H219.679V284.066H215.327V280.632H219.679V270.126H223.623V300.25ZM230.049 301.746H226.037V269.514H230.049V301.746ZM248.202 290.118L248.508 293.416C243.612 294.232 238.988 294.47 233.242 294.47C233.038 293.314 232.902 291.954 232.698 290.798H235.792L235.044 278.966C236.404 278.83 237.764 278.626 239.124 278.456L239.566 290.73L241.844 290.662C242.014 286.616 242.184 282.604 242.388 278.524L246.332 278.966C246.026 282.842 245.754 286.616 245.414 290.424C246.468 290.356 247.386 290.254 248.202 290.118ZM254.73 300.25H250.718V285.426H247.284V281.992H250.718V270.126H254.73V300.25ZM260.646 301.746H256.634V269.514H260.646V301.746ZM248.236 276.722H233.378V273.39H248.236V276.722ZM286.221 283.25C286.221 278.184 284.419 275.124 281.903 275.124C279.489 275.124 277.721 278.184 277.721 283.25C277.721 288.316 279.489 291.342 281.903 291.342C284.419 291.342 286.221 288.316 286.221 283.25ZM273.607 283.25C273.607 276.484 276.667 271.724 281.903 271.724C287.207 271.724 290.267 276.484 290.267 283.284C290.267 289.982 287.207 294.742 281.903 294.742C276.667 294.742 273.607 290.016 273.607 283.25ZM299.311 301.746H295.095V269.514H299.311V301.746ZM313.214 284.372V279.986H308.658V284.372H313.214ZM330.656 293.382H326.644V269.514H330.656V293.382ZM331.472 300.964H308.692V290.628H312.908V297.598H331.472V300.964ZM317.464 287.704H304.408V271.996H308.658V276.722H313.214V271.928H317.464V277.878H320.354V270.092H324.366V292.532H320.354V281.312H317.464V287.704ZM362.988 294.368V297.7H333.884V294.368H362.988ZM358.568 282.332H341.806V285.834H359.656V289.166H337.59V272.064H359.35V275.396H341.806V279H358.568V282.332ZM390.389 282.536H368.323V275.226H385.425V273.526H368.255V270.534H389.675V277.878H372.539V279.544H390.389V282.536ZM390.627 301.406H368.153V293.892H385.663V292.192H368.017V289.166H389.879V296.68H372.403V298.346H390.627V301.406ZM393.585 287.364H364.481V284.236H393.585V287.364ZM409.742 285.426C409.742 286.888 411.34 287.908 413.21 287.908C415.08 287.908 416.678 286.888 416.678 285.426C416.678 283.93 415.08 282.876 413.21 282.876C411.34 282.876 409.742 283.93 409.742 285.426ZM429.904 300.998H407.872V292.498H412.122V297.632H429.904V300.998ZM429.122 269.514V279.952H433.61V283.454H429.122V293.45H424.906V269.514H429.122ZM408.45 273.798V270.568H418.038V273.798H408.45ZM420.826 285.426C420.826 288.86 417.562 291.308 413.21 291.308C408.824 291.308 405.56 288.86 405.56 285.426C405.56 282.026 408.79 279.51 413.21 279.51C417.562 279.51 420.826 282.026 420.826 285.426ZM422.356 278.592H403.656V275.328H422.356V278.592ZM460.263 300.896H438.265V291.376H442.481V297.564H460.263V300.896ZM460.059 281.584H438.435V270.67H442.685V278.218H460.059V281.584ZM451.491 294.368H447.275V288.384H434.525V285.052H463.629V288.384H451.491V294.368ZM475.492 283.488C475.492 279.17 474.608 275.634 472.432 275.634C470.324 275.634 469.44 279.17 469.44 283.488C469.44 287.806 470.324 291.308 472.432 291.308C474.608 291.308 475.492 287.806 475.492 283.488ZM492.526 301.746H488.548V269.514H492.526V301.746ZM486.1 300.25H482.122V285.256H479.368C478.994 290.458 476.92 295.048 472.398 295.048C467.434 295.048 465.428 289.37 465.428 283.454C465.428 277.572 467.434 271.962 472.398 271.962C476.954 271.962 478.994 276.552 479.368 281.788H482.122V270.126H486.1V300.25ZM497.522 297.904V293.688H501.874V297.904H497.522ZM497.896 290.22L497.318 271.656H502.01L501.5 290.22H497.896Z" fill="#2E2F3E"/>
<path d="M299.584 68.5192C299.127 68.5192 298.744 68.8398 298.682 69.2673C298.292 71.9574 295.831 74.0373 292.862 74.0373C291.063 74.0373 289.388 73.2778 288.265 71.9539L288.165 71.8362L287.483 71.1814L287.382 71.0889C285.126 69.1038 282.184 68.0115 279.099 68.0115C276.378 68.0115 273.805 68.842 271.657 70.4126L271.54 70.498L269.974 71.8836L269.845 72.0306C268.725 73.3129 267.076 74.0488 265.319 74.0488C265.295 74.0488 265.272 74.0488 265.249 74.0481V74.0373C264.931 74.0373 264.616 74.0129 264.308 73.9663C262.91 73.7375 261.644 73.0368 260.738 71.9675L260.62 71.8284L259.915 71.1743L259.871 71.1341C257.605 69.1131 254.64 68 251.522 68C250.159 68 248.834 68.208 247.581 68.6132C246.318 69.017 245.127 69.6201 244.044 70.4119L243.928 70.4973L242.362 71.8829L242.233 72.0299C241.534 72.8295 240.629 73.4162 239.622 73.7454C239.023 73.9362 238.39 74.0366 237.742 74.0366V74.0473C237.73 74.0473 237.718 74.0473 237.706 74.0473C235.916 74.0473 234.247 73.2885 233.125 71.9661L233.007 71.8269L232.302 71.1728L232.258 71.1334C229.992 69.1131 227.026 68 223.909 68C221.188 68 218.614 68.8305 216.467 70.4004L216.35 70.4858L214.784 71.8714L214.655 72.0184C213.535 73.3007 211.886 74.0359 210.129 74.0359C207.164 74.0359 204.705 71.946 204.317 69.2436C204.256 68.8154 203.872 68.4949 203.415 68.4949H198.912C198.383 68.4963 197.96 68.9202 198.003 69.4179C198.502 75.3261 203.75 79.99 210.129 79.99C213.701 79.99 217.058 78.5255 219.376 75.9651L220.43 75.032C221.442 74.3249 222.642 73.9519 223.91 73.9519C225.404 73.9519 226.825 74.482 227.915 75.4451L228.337 75.836C230.658 78.4846 234.062 80 237.707 80C239.052 80 240.366 79.792 241.606 79.3968C243.674 78.7442 245.536 77.5702 246.989 75.9644L248.044 75.0313C248.544 74.682 249.09 74.4145 249.667 74.2331C250.247 74.0545 250.859 73.9627 251.487 73.9627C252.953 73.9627 254.352 74.4748 255.434 75.4057L255.844 75.8001C257.743 77.9775 260.374 79.3933 263.273 79.8379C263.943 79.9448 264.627 80 265.32 80C268.891 80 272.249 78.5355 274.566 75.9751L275.62 75.0421C276.632 74.3349 277.832 73.962 279.1 73.962C280.566 73.962 281.965 74.4741 283.047 75.405L283.457 75.7994C285.781 78.4638 289.199 79.9878 292.863 79.9878C299.246 79.9878 304.498 75.3347 304.997 69.4387C305.04 68.941 304.617 68.5164 304.088 68.5164H299.585L299.584 68.5192Z" fill="#11A875"/>
</svg>
