<svg width="479" height="358" viewBox="0 0 479 358" fill="none" xmlns="http://www.w3.org/2000/svg">
<path d="M100.694 274.41V271.078H110.316V274.41H100.694ZM115.518 291.648L115.824 294.878C109.976 295.66 101.272 296 95.2201 296L94.6081 292.566C97.5661 292.566 100.524 292.566 103.38 292.498V287.194H107.63V292.328C110.52 292.192 113.206 291.954 115.518 291.648ZM121.434 269.514V301.746H117.184V269.514H121.434ZM96.5461 279.51V276.178H114.124V279.51H107.766C108.446 282.264 111.948 284.576 115.076 284.95L113.138 288.316C110.418 287.738 106.95 285.392 105.59 283.08C104.366 285.8 100.898 288.384 97.6001 289.2L95.5261 285.936C99.3681 285.086 102.7 282.536 103.278 279.51H96.5461ZM152.541 301.746H148.495V285.596H145.639V300.25H141.661V270.092H145.639V282.23H148.495V269.514H152.541V301.746ZM130.305 276.688V290.662C133.603 290.764 137.479 290.458 139.621 289.914L140.029 293.246C137.615 293.892 132.889 294.13 129.149 294.13H126.089V273.356H138.261V276.722C135.609 276.722 132.991 276.688 130.305 276.688ZM172.03 297.768C169.072 297.768 166.182 296.952 164.754 296.034L165.502 292.804C166.76 293.62 169.412 294.232 171.282 294.232C174.614 294.232 176.552 292.838 176.552 290.084C176.552 287.432 174.58 286.344 171.418 286.31L168.834 286.242V283.012L171.146 282.978C174.002 282.91 175.906 281.618 175.906 279.272C175.906 276.79 174.206 275.872 171.486 275.872C169.65 275.872 167.678 276.518 166.216 277.198L165.706 273.9C167.236 273.016 170.228 272.336 172.642 272.336C177.232 272.336 180.36 274.512 180.36 278.49C180.36 281.448 178.626 283.352 175.906 284.27C179 284.882 181.176 286.65 181.176 290.356C181.176 294.912 177.674 297.768 172.03 297.768ZM193.767 294.436C197.099 294.436 198.765 292.056 198.765 286.14V284.27C198.765 278.388 197.065 275.77 193.801 275.77C190.469 275.77 188.803 278.252 188.803 284.032V285.936C188.803 291.682 190.435 294.436 193.767 294.436ZM193.767 297.836C188.361 297.836 184.145 294.368 184.145 285.936V284.406C184.145 275.532 188.735 272.336 193.835 272.336C198.969 272.336 203.355 275.566 203.355 284.27V285.834C203.355 294.538 198.969 297.836 193.767 297.836ZM229.246 295.286C230.946 295.286 231.762 294.198 231.762 291.342V290.526C231.762 287.738 230.878 286.548 229.246 286.548C227.58 286.548 226.764 287.704 226.764 290.492V291.308C226.764 294.164 227.546 295.286 229.246 295.286ZM229.246 297.87C225.54 297.87 223.058 295.456 223.058 291.274V290.764C223.058 286.616 225.574 283.998 229.246 283.998C232.884 283.998 235.434 286.412 235.434 290.526V291.07C235.434 295.218 232.952 297.87 229.246 297.87ZM212.246 283.726C213.98 283.726 214.796 282.57 214.796 279.714V278.932C214.796 276.178 213.912 274.92 212.246 274.92C210.614 274.92 209.764 276.144 209.764 278.898V279.68C209.764 282.57 210.58 283.726 212.246 283.726ZM212.246 286.31C208.54 286.31 206.126 283.862 206.126 279.68V279.204C206.126 275.022 208.574 272.37 212.246 272.37C215.884 272.37 218.4 274.784 218.4 278.932V279.476C218.4 283.624 215.952 286.31 212.246 286.31ZM210.444 298.958L227.376 272.098H230.674L213.742 298.958H210.444ZM251.716 283.284C251.716 284.508 253.348 285.256 255.252 285.256C257.122 285.256 258.754 284.508 258.754 283.284C258.754 282.094 257.122 281.312 255.252 281.312C253.314 281.312 251.716 282.094 251.716 283.284ZM262.902 283.284C262.902 286.276 259.638 288.282 255.252 288.282C250.832 288.282 247.534 286.276 247.534 283.284C247.534 280.292 250.798 278.252 255.252 278.252C259.638 278.252 262.902 280.292 262.902 283.284ZM271.878 301.678H249.846V294.062H266.812V292.532H249.812V289.37H271.062V296.918H254.062V298.482H271.878V301.678ZM275.584 281.414H271.062V287.84H266.846V269.514H271.062V277.946H275.584V281.414ZM250.492 272.846V269.684H260.046V272.846H250.492ZM264.33 277.436H245.63V274.206H264.33V277.436ZM281.803 279.884C281.803 282.434 283.469 284.304 286.189 284.304C288.977 284.304 290.609 282.434 290.609 279.884C290.609 277.402 288.977 275.532 286.189 275.532C283.469 275.532 281.803 277.402 281.803 279.884ZM277.485 279.884C277.485 275.294 280.919 271.928 286.189 271.928C291.493 271.928 294.927 275.294 294.927 279.884C294.927 284.508 291.493 287.806 286.189 287.806C280.919 287.806 277.485 284.508 277.485 279.884ZM303.801 300.896H281.463V290.56H285.713V297.564H303.801V300.896ZM303.087 292.906H298.871V269.514H303.087V292.906ZM342.262 275.294H318.53V271.962H342.262V275.294ZM345.016 297.7H315.912V294.368H328.288V288.146H318.598V284.78H323.324L322.406 277.368L326.656 276.824L327.302 284.78H333.728L334.884 276.892L338.998 277.572L337.638 284.78H342.194V288.146H332.504V294.368H345.016V297.7ZM352.323 284.304C352.323 285.664 353.921 286.616 355.791 286.616C357.695 286.616 359.293 285.664 359.293 284.304C359.293 282.91 357.695 281.992 355.791 281.992C353.887 281.992 352.323 282.91 352.323 284.304ZM363.475 284.304C363.475 287.602 360.177 289.812 355.791 289.812C351.405 289.812 348.073 287.602 348.073 284.304C348.073 280.972 351.371 278.762 355.791 278.762C360.177 278.762 363.475 280.972 363.475 284.304ZM351.065 273.356V270.058H360.619V273.356H351.065ZM365.107 278.048H346.237V274.75H365.107V278.048ZM367.453 298.074V294.13H355.043V298.074H367.453ZM371.703 301.338H350.793V290.866H371.703V301.338ZM376.123 282.128H371.703V289.268H367.487V269.514H371.703V278.694H376.123V282.128Z" fill="#0FB87E"/>
<path d="M76.1571 338.526V323.77H69.8331V338.526H76.1571ZM92.3751 349.44H89.2811V332.916H85.8131V347.876H82.7531V318.5H85.8131V330.298H89.2811V317.82H92.3751V349.44ZM79.2171 341.076H66.7731V321.22H79.2171V341.076ZM105.224 321.594C102.47 321.594 100.294 323.464 100.294 326.048C100.294 328.632 102.402 330.4 105.224 330.4C108.216 330.4 110.154 328.53 110.154 326.048C110.154 323.464 108.25 321.594 105.224 321.594ZM105.224 318.874C109.746 318.874 113.316 321.798 113.316 326.048C113.316 330.298 109.746 333.086 105.224 333.086C100.77 333.086 97.1324 330.4 97.1324 326.082C97.1324 321.866 100.668 318.874 105.224 318.874ZM123.312 349.202H101.654V341.076H118.994V338.152H101.552V335.534H122.19V343.456H104.85V346.584H123.312V349.202ZM122.19 333.902H118.994V317.82H122.19V333.902ZM149.601 326.32L147.765 328.632C146.099 327.85 144.297 325.98 143.685 324.552C142.903 326.32 140.693 328.666 138.211 329.686L136.341 327.374C139.979 326.116 142.223 323.09 142.223 319.928V318.534H145.283V319.962C145.283 322.988 146.711 325.198 149.601 326.32ZM163.609 326.728L161.875 329.074C160.005 328.36 157.421 326.218 156.639 324.382C155.959 326.218 153.817 328.36 151.709 329.278L149.839 326.932C153.103 325.776 155.075 323.158 155.075 319.826V318.262H158.135V319.826C158.135 323.056 160.413 325.708 163.609 326.728ZM164.255 335.738H135.695V333.12H148.309V329.584H151.505V333.12H164.255V335.738ZM160.923 349.032H139.333V338.56H160.583V341.178H142.529V346.414H160.923V349.032ZM179.654 331.25C179.654 326.354 177.988 322.818 174.792 322.818C171.63 322.818 169.998 326.354 169.998 331.25C169.998 336.112 171.63 339.648 174.792 339.648C177.988 339.648 179.654 336.112 179.654 331.25ZM166.768 331.216C166.768 324.96 169.25 320.064 174.792 320.064C180.368 320.064 182.816 324.96 182.816 331.25C182.816 337.506 180.368 342.402 174.792 342.402C169.25 342.402 166.768 337.506 166.768 331.216ZM195.77 333.018H190.704V349.44H187.508V317.82H190.704V330.366H195.77V333.018ZM219.772 317.82H222.968V349.44H219.772V317.82ZM216.372 339.512L214.468 341.892C211.442 340.124 207.702 336.146 206.716 332.644C205.798 336.35 202.534 340.43 198.794 342.64L196.754 340.294C201.582 337.506 205.05 332.304 205.05 326.15V323.6H197.876V320.982H215.42V323.6H208.348V326.116C208.348 332.236 211.884 337.098 216.372 339.512ZM252.885 330.196H231.397V319.112H234.593V327.578H252.885V330.196ZM253.021 348.726H231.295V339.376H234.491V346.108H253.021V348.726ZM256.047 336.52H227.487V333.902H256.047V336.52ZM269.484 345.496L278.936 323.77H266.832V321.118H282.438V323.124L273.054 345.496H269.484ZM298.43 340.838C293.738 340.838 290.814 341.96 290.814 343.83C290.814 345.734 293.738 346.788 298.43 346.788C303.156 346.788 306.08 345.734 306.08 343.83C306.08 341.96 303.156 340.838 298.43 340.838ZM312.71 336.316H284.15V333.698H296.798V328.904H299.994V333.698H312.71V336.316ZM311.418 328.428L309.99 330.978C304.992 330.264 300.062 327.544 298.43 324.62C297.07 327.612 292.378 330.298 286.972 330.978L285.578 328.462C290.542 328.054 295.71 325.742 296.628 322.07H286.904V319.452H309.922V322.07H300.266C301.286 325.776 307.032 328.088 311.418 328.428ZM309.344 343.796C309.344 347.298 305.366 349.304 298.43 349.304C291.494 349.304 287.516 347.264 287.516 343.796C287.516 340.43 291.494 338.356 298.43 338.356C305.366 338.356 309.344 340.328 309.344 343.796ZM327.099 319.758H348.281C348.281 324.042 348.111 330.026 347.159 334.65H352.157V337.268H339.441V349.44H336.245V337.268H323.597V334.65H344.031C344.371 333.256 344.609 331.148 344.779 329.006L326.725 329.754L326.249 327.136L344.915 326.524C345.017 324.926 345.051 323.396 345.051 322.342H327.099V319.758ZM380 321.798H356.812V319.214H380V321.798ZM379.456 348.488H357.9V340.09H361.096V345.904H379.456V348.488ZM382.754 337.846H354.194V335.228H366.808V331.76H356.846V329.142H361.844L360.926 323.396L364.122 322.92L364.836 329.142H371.976L372.758 322.886L375.988 323.362L374.9 329.142H379.966V331.76H370.004V335.228H382.754V337.846ZM399.922 323.022H385.336V320.404H399.922V323.022ZM389.994 338.152H411.516V349.44H408.32V340.77H389.994V338.152ZM400.67 331.658L400.942 334.14C399.14 334.446 396.454 334.684 393.292 334.888C390.164 335.092 387.75 335.16 385.03 335.228L384.588 332.508C385.88 332.508 387.07 332.508 388.226 332.474L387.376 324.824L390.504 324.382L391.082 332.338L393.088 332.236C393.462 332.236 393.802 332.236 394.142 332.202L394.856 324.382L397.882 324.722L396.964 332.066C398.392 331.964 399.514 331.828 400.67 331.658ZM411.516 336.588H408.422V328.428H405.056V336.248H401.996V318.398H405.056V325.81H408.422V317.82H411.516V336.588Z" fill="white"/>
<path d="M60.7947 216.414C55.2088 221.526 48.0655 224.082 39.365 224.082C28.5994 224.082 20.1358 220.629 13.9744 213.723C7.81292 206.783 4.73219 197.27 4.73219 185.184C4.73219 172.116 8.2361 162.044 15.2439 154.969C21.3377 148.807 29.0903 145.727 38.5017 145.727C51.0955 145.727 60.3038 149.857 66.1267 158.117C69.3429 162.755 71.0694 167.41 71.3064 172.082H55.6658C54.6502 168.493 53.3468 165.785 51.7556 163.957C48.9119 160.707 44.697 159.082 39.1111 159.082C33.4236 159.082 28.9379 161.384 25.6541 165.988C22.3702 170.559 20.7283 177.042 20.7283 185.438C20.7283 193.833 22.4548 200.13 25.908 204.328C29.395 208.492 33.8129 210.574 39.1619 210.574C44.6463 210.574 48.8272 208.78 51.7048 205.191C53.296 203.262 54.6163 200.367 55.6658 196.508H71.1541C69.7999 204.667 66.3468 211.302 60.7947 216.414ZM114.168 224.082C103.47 224.082 95.2941 221.171 89.6405 215.348C82.0571 208.204 78.2655 197.913 78.2655 184.473C78.2655 170.762 82.0571 160.47 89.6405 153.598C95.2941 147.775 103.47 144.863 114.168 144.863C124.866 144.863 133.042 147.775 138.695 153.598C146.245 160.47 150.019 170.762 150.019 184.473C150.019 197.913 146.245 208.204 138.695 215.348C133.042 221.171 124.866 224.082 114.168 224.082ZM128.945 203.973C132.568 199.402 134.379 192.902 134.379 184.473C134.379 176.077 132.551 169.594 128.894 165.023C125.272 160.419 120.363 158.117 114.168 158.117C107.973 158.117 103.03 160.402 99.3397 164.973C95.6496 169.543 93.8045 176.043 93.8045 184.473C93.8045 192.902 95.6496 199.402 99.3397 203.973C103.03 208.543 107.973 210.828 114.168 210.828C120.363 210.828 125.289 208.543 128.945 203.973ZM204.205 193.156V147.148H220.1V193.156C220.1 201.112 218.864 207.307 216.393 211.742C211.788 219.867 203.003 223.93 190.037 223.93C177.071 223.93 168.269 219.867 163.631 211.742C161.159 207.307 159.924 201.112 159.924 193.156V147.148H175.818V193.156C175.818 198.302 176.428 202.06 177.646 204.43C179.542 208.628 183.672 210.727 190.037 210.727C196.368 210.727 200.481 208.628 202.377 204.43C203.596 202.06 204.205 198.302 204.205 193.156ZM264.789 195.086H248.895V222H233.355V147.148H265.957C273.473 147.148 279.465 149.078 283.934 152.938C288.402 156.797 290.637 162.772 290.637 170.863C290.637 179.699 288.402 185.945 283.934 189.602C279.465 193.258 273.083 195.086 264.789 195.086ZM272.102 179.496C274.133 177.702 275.148 174.858 275.148 170.965C275.148 167.072 274.116 164.296 272.051 162.637C270.02 160.978 267.159 160.148 263.469 160.148H248.895V182.188H263.469C267.159 182.188 270.036 181.29 272.102 179.496ZM333.397 224.082C322.699 224.082 314.523 221.171 308.869 215.348C301.286 208.204 297.494 197.913 297.494 184.473C297.494 170.762 301.286 160.47 308.869 153.598C314.523 147.775 322.699 144.863 333.397 144.863C344.094 144.863 352.27 147.775 357.924 153.598C365.473 160.47 369.248 170.762 369.248 184.473C369.248 197.913 365.473 208.204 357.924 215.348C352.27 221.171 344.094 224.082 333.397 224.082ZM348.174 203.973C351.796 199.402 353.607 192.902 353.607 184.473C353.607 176.077 351.779 169.594 348.123 165.023C344.501 160.419 339.592 158.117 333.397 158.117C327.201 158.117 322.259 160.402 318.568 164.973C314.878 169.543 313.033 176.043 313.033 184.473C313.033 192.902 314.878 199.402 318.568 203.973C322.259 208.543 327.201 210.828 333.397 210.828C339.592 210.828 344.518 208.543 348.174 203.973ZM439.684 222H424.043L393.473 168.832V222H378.899V147.148H395.301L425.11 199.402V147.148H439.684V222ZM471.627 166.395L467.514 201.332H459.948L455.733 166.395V147.402H471.627V166.395ZM471.221 207.324V222H456.088V207.324H471.221Z" fill="white"/>
<path d="M169.757 119.92C159.437 129.16 149.597 139.36 145.397 144.28C141.677 148.72 139.277 151.84 141.077 152.68C142.877 153.64 149.237 149.32 152.597 146.68C156.437 143.68 160.637 140.08 164.117 136.96C164.477 136.6 165.437 136.24 165.557 136.84C165.917 137.56 165.437 138.04 164.957 138.4C161.597 141.4 156.677 145.48 153.677 147.88C150.077 150.76 143.837 155.08 139.037 155.08C134.597 155.08 131.837 150.88 135.557 144.4C128.477 150.64 121.997 155.44 118.037 155.08C109.877 154.36 112.397 141.16 120.917 132.64C131.957 121.36 148.877 116.32 154.037 119.32C155.717 120.16 156.077 123.04 151.397 127.48C156.197 123.52 158.957 121.6 160.997 121C163.637 120.16 168.197 119.8 169.757 119.92ZM153.077 120.88C150.797 119.08 141.437 125.08 128.717 137.2C121.037 144.4 115.757 152.08 118.517 153.28C120.797 154.36 131.237 146.92 141.437 136.48C146.117 131.8 155.597 122.8 153.077 120.88ZM217.605 119.2C213.285 122.2 206.205 128.56 200.805 134.8C207.765 129.16 222.765 118.12 229.845 118.84C235.365 119.32 234.765 124.12 231.285 129.4C236.205 125.92 247.245 118 253.245 118.84C261.405 119.92 258.765 127.12 248.445 136.48C244.605 139.96 241.365 143.2 238.845 145.84C234.525 150.28 233.805 152.08 235.005 153.04C236.205 153.88 241.125 151.72 245.805 148.36C250.125 145.36 255.525 140.68 258.885 137.68C259.245 137.32 259.845 136.84 260.325 137.44C260.805 138.04 260.205 138.64 259.605 139.24C256.005 142.48 250.605 146.8 246.165 150.04C241.365 153.52 234.405 156.76 229.845 154.96C226.365 153.64 225.645 149.32 229.365 144.16C232.485 139.96 234.765 137.8 239.685 133.24C243.645 129.4 254.205 122.08 251.565 120.64C250.005 119.8 240.645 124.96 232.245 130.72C225.405 135.28 220.605 140.2 217.005 143.56C212.565 147.88 209.565 151.36 206.325 155.56C204.165 155.56 202.125 150.88 203.685 148.24C206.205 143.56 210.765 138.16 216.285 133.24C220.485 129.4 230.925 122.2 228.165 120.64C226.005 119.44 207.165 130.84 199.005 138.52C191.325 145.84 188.085 149.8 183.765 155.56C181.605 155.56 179.685 151 181.125 148.24C183.645 143.56 187.725 137.92 194.565 130.84C198.405 126.64 201.405 124.24 204.285 122.44C208.125 119.92 213.645 119.2 217.605 119.2ZM294.749 119.44C298.589 121.36 296.429 130.48 286.349 140.68C274.949 152.32 265.589 156.4 260.789 155.2C253.589 153.4 252.989 142.12 263.429 131.56C275.669 119.2 289.709 116.8 294.749 119.44ZM294.029 120.88C291.509 118.84 281.549 125.92 270.509 137.32C263.549 144.64 257.909 151.6 261.149 153.52C264.029 155.2 273.149 147.64 284.069 136.6C288.869 131.8 296.189 122.68 294.029 120.88ZM339.8 123.64C339.56 125.32 337.76 126.88 337.16 126.76C336.68 126.64 336.08 126.04 335.36 125.56C334.16 124.84 333.56 124.48 331.64 124.36C325.76 124.12 315.68 130.84 307.52 138.52C299.84 145.84 296.48 149.92 292.28 155.56C290.12 155.56 288.2 151 289.64 148.24C292.16 143.56 296.72 137.44 303.08 130.84C306.92 126.64 309.92 124.24 312.8 122.44C316.64 119.92 322.16 119.2 326.12 119.2C321.08 122.56 314.24 128.56 309.08 134.56L309.44 134.92C316.04 129.16 329.36 118 336.44 119.32C338.96 119.8 339.92 121.48 339.8 123.64ZM365.61 118.96C369.57 121.24 368.01 126.16 363.33 129.52C357.33 133.72 348.33 134.92 345.81 133.72C337.53 140.92 330.69 150.88 334.89 153.04C337.65 154.36 344.13 152.2 348.69 149.2C353.49 146.08 360.69 140.08 364.05 137.08C365.01 136.24 365.25 136.12 365.73 136.6C366.21 137.08 365.73 137.8 365.13 138.28C361.05 141.88 356.49 145.84 351.21 149.44C344.25 154.24 338.85 155.56 334.17 155.2C329.73 154.84 327.93 151.96 327.57 148.48C327.21 145.48 328.77 139 334.41 132.88C343.77 122.68 361.41 116.56 365.61 118.96ZM364.89 120.04C363.45 118.84 352.41 127.24 346.53 133C348.33 133.6 354.33 131.68 359.61 127.48C363.57 124.36 366.21 121 364.89 120.04Z" fill="#FF3046"/>
<path d="M185.899 54.664V37.024H196.555V40.24H189.475V43.912H195.715V46.96H189.475V51.472H196.723V54.664H185.899ZM204.385 54.688L198.265 37.024H202.201L206.593 50.56L211.033 37.024H214.873L208.705 54.688H204.385ZM216.485 54.664V37.024H227.141V40.24H220.061V43.912H226.301V46.96H220.061V51.472H227.309V54.664H216.485ZM230.219 54.664V37.024H234.515L240.323 48.736V37.024H243.827V54.664H239.699L233.723 42.688V54.664H230.219ZM254.801 40.336V54.664H251.153V40.336H246.305V37.024H259.673V40.336H254.801ZM275.251 51.808C277.123 51.808 278.227 50.056 278.227 46.24V45.496C278.227 41.536 277.075 39.856 275.275 39.856C273.379 39.856 272.323 41.56 272.323 45.4V46.168C272.323 50.008 273.307 51.808 275.251 51.808ZM275.227 54.928C271.555 54.928 268.483 52.504 268.483 46.36V45.64C268.483 39.136 271.843 36.712 275.299 36.712C278.779 36.712 282.043 39.232 282.043 45.544V46.192C282.043 52.696 278.659 54.928 275.227 54.928ZM287.701 54.76V41.008L285.109 41.488V38.92L289.573 36.784H291.445V54.76H287.701Z" fill="#0FB87E"/>
<mask id="mask0_96_18" style="mask-type:alpha" maskUnits="userSpaceOnUse" x="226" y="0" width="28" height="28">
<circle cx="240" cy="14" r="14" fill="#D9D9D9"/>
</mask>
<g mask="url(#mask0_96_18)">
<rect x="254" y="11.666" width="4.66667" height="28" transform="rotate(90 254 11.666)" fill="#0FB87E"/>
<rect x="251.549" y="22.25" width="4.66667" height="28" transform="rotate(135 251.549 22.25)" fill="#0FB87E"/>
<rect x="248.25" y="2.45117" width="4.66667" height="28" transform="rotate(45 248.25 2.45117)" fill="#0FB87E"/>
<rect x="242.334" y="28" width="4.66667" height="28" transform="rotate(-180 242.334 28)" fill="#0FB87E"/>
</g>
<path d="M286.584 68.5192C286.127 68.5192 285.744 68.8398 285.682 69.2673C285.292 71.9574 282.831 74.0373 279.862 74.0373C278.063 74.0373 276.388 73.2778 275.265 71.9539L275.165 71.8362L274.483 71.1814L274.382 71.0889C272.126 69.1038 269.184 68.0115 266.099 68.0115C263.378 68.0115 260.805 68.842 258.657 70.4126L258.54 70.498L256.974 71.8836L256.845 72.0306C255.725 73.3129 254.076 74.0488 252.319 74.0488C252.295 74.0488 252.272 74.0488 252.249 74.0481V74.0373C251.931 74.0373 251.616 74.0129 251.308 73.9663C249.91 73.7375 248.644 73.0368 247.738 71.9675L247.62 71.8284L246.915 71.1743L246.871 71.1341C244.605 69.1131 241.64 68 238.522 68C237.159 68 235.834 68.208 234.581 68.6132C233.318 69.017 232.127 69.6201 231.044 70.4119L230.928 70.4973L229.362 71.8829L229.233 72.0299C228.534 72.8295 227.629 73.4162 226.622 73.7454C226.023 73.9362 225.39 74.0366 224.742 74.0366V74.0473C224.73 74.0473 224.718 74.0473 224.706 74.0473C222.916 74.0473 221.247 73.2885 220.125 71.9661L220.007 71.8269L219.302 71.1728L219.258 71.1334C216.992 69.1131 214.026 68 210.909 68C208.188 68 205.614 68.8305 203.467 70.4004L203.35 70.4858L201.784 71.8714L201.655 72.0184C200.535 73.3007 198.886 74.0359 197.129 74.0359C194.164 74.0359 191.705 71.946 191.317 69.2436C191.256 68.8154 190.872 68.4949 190.415 68.4949H185.912C185.383 68.4963 184.96 68.9202 185.003 69.4179C185.502 75.3261 190.75 79.99 197.129 79.99C200.701 79.99 204.058 78.5255 206.376 75.9651L207.43 75.032C208.442 74.3249 209.642 73.9519 210.91 73.9519C212.404 73.9519 213.825 74.482 214.915 75.4451L215.337 75.836C217.658 78.4846 221.062 80 224.707 80C226.052 80 227.366 79.792 228.606 79.3968C230.674 78.7442 232.536 77.5702 233.989 75.9644L235.044 75.0313C235.544 74.682 236.09 74.4145 236.667 74.2331C237.247 74.0545 237.859 73.9627 238.487 73.9627C239.953 73.9627 241.352 74.4748 242.434 75.4057L242.844 75.8001C244.743 77.9775 247.374 79.3933 250.273 79.8379C250.943 79.9448 251.627 80 252.32 80C255.891 80 259.249 78.5355 261.566 75.9751L262.62 75.0421C263.632 74.3349 264.832 73.962 266.1 73.962C267.566 73.962 268.965 74.4741 270.047 75.405L270.457 75.7994C272.781 78.4638 276.199 79.9878 279.863 79.9878C286.246 79.9878 291.498 75.3347 291.997 69.4387C292.04 68.941 291.617 68.5164 291.088 68.5164H286.585L286.584 68.5192Z" fill="white"/>
</svg>
