<svg width="508" height="462" viewBox="0 0 508 462" fill="none" xmlns="http://www.w3.org/2000/svg">
<path d="M151.334 383V380.348H169.184V383H161.874C162.044 386.434 166.226 389.358 170.068 390.072L168.47 392.656C165.07 391.602 161.738 389.494 160.344 386.808C159.29 389.562 155.618 392.316 151.878 393.404L150.246 390.82C154.632 389.732 158.542 386.502 158.678 383H151.334ZM176.052 405.44H172.856V373.82H176.052V405.44ZM171.02 396.056L171.292 398.606C168.606 398.912 164.254 399.252 160.378 399.422C156.91 399.626 153.068 399.762 150.416 399.728L149.906 397.042C152.49 397.042 155.584 397.008 158.712 396.872V390.956H161.908V396.736C165.308 396.566 168.878 396.362 171.02 396.056ZM155.958 377.526V374.874H164.696V377.526H155.958ZM184.617 394.798H185.195C188.867 394.798 192.811 394.492 195.293 393.948L195.701 396.6C192.947 397.178 188.391 397.484 184.447 397.484H181.421V377.73H193.763V380.314H184.617V394.798ZM207.159 405.44H204.065V388.576H200.291V403.876H197.231V374.5H200.291V385.958H204.065V373.82H207.159V405.44ZM246.912 405.236H225.39V397.11H242.628V394.118H225.152V391.534H245.824V399.49H228.586V402.652H246.912V405.236ZM221.684 375.452H236.066C235.522 383.714 229.368 388.61 221.82 390.718L220.086 388.168C226.58 386.74 231.272 382.966 232.462 378.104H221.684V375.452ZM236.44 380.824V378.342H242.628V373.82H245.824V389.834H242.628V386.604H236.032V384.122H242.628V380.824H236.44ZM277.203 405.44H274.109V373.82H277.203V405.44ZM270.947 403.876H267.887V387.794H263.195V385.176H267.887V374.534H270.947V403.876ZM266.629 395.886L264.691 398.164C262.515 396.702 259.183 393.098 258.299 389.936C257.619 393.268 254.831 396.838 251.941 398.81L249.901 396.6C253.845 394.05 256.769 389.29 256.769 383.102V380.144H250.615V377.56H265.711V380.144H259.897V383C259.897 389.46 263.195 393.778 266.629 395.886ZM310.802 403.876H307.776V395.138H304.376V392.622H307.776V387.828H304.206V385.278H307.776V374.534H310.802V403.876ZM301.112 391.976C301.112 389.766 299.616 388.236 297.44 388.236C295.23 388.236 293.734 389.8 293.734 391.976C293.734 394.186 295.23 395.716 297.44 395.716C299.616 395.716 301.112 394.118 301.112 391.976ZM304.07 391.976C304.07 395.784 301.452 398.368 297.44 398.368C293.462 398.368 290.776 395.58 290.776 391.976C290.776 388.134 293.462 385.584 297.44 385.584C301.452 385.584 304.07 388.168 304.07 391.976ZM304.852 383.952H289.892V381.368H304.852V383.952ZM301.588 379.192H293.496V376.54H301.588V379.192ZM316.65 405.44H313.556V373.82H316.65V405.44ZM325.045 388.338H325.725C329.533 388.338 333.205 388.134 335.585 387.59L335.993 390.174C333.477 390.718 329.227 390.99 325.555 390.99H321.883V376.064H334.259V378.682H325.045V382.116H333.783V384.666H325.045V388.338ZM325.725 394.22H347.247V405.44H344.051V396.838H325.725V394.22ZM347.247 392.724H344.153V384.496H340.549V392.486H337.489V374.398H340.549V381.878H344.153V373.82H347.247V392.724ZM352.922 402.006V398.47H356.424V402.006H352.922ZM353.262 395.614L352.888 375.894H356.39L355.982 395.614H353.262Z" fill="white"/>
<path d="M73.902 449.564V429.164L69.72 429.98V427.396L76.044 424.574H78.39V449.564H73.902ZM94.8402 435.862V427.26H88.1422V435.862H94.8402ZM99.0222 439.16H83.9602V423.996H99.0222V439.16ZM108.984 452.794H87.3262V442.492H91.5422V449.462H108.984V452.794ZM108.202 421.514V430.728H112.792V434.23H108.202V444.872H103.918V421.514H108.202ZM127.75 428.552C127.75 427.124 126.254 425.696 123.874 425.696C121.426 425.696 119.964 427.124 119.964 428.552C119.964 429.946 121.426 431.306 123.874 431.306C126.254 431.306 127.75 429.946 127.75 428.552ZM127.172 444.872H122.956V439.126C119.624 439.262 116.462 439.296 114.048 439.296L113.47 435.964C121.392 435.964 129.484 435.556 134.006 434.978L134.244 438.106C132.068 438.446 129.654 438.684 127.172 438.854V444.872ZM141.316 452.896H117.652V443.376H121.902V449.53H141.316V452.896ZM130.436 443.172V440.146H136.556V421.514H140.806V446.436H136.556V443.172H130.436ZM131.932 428.552C131.932 432.02 128.566 434.468 123.874 434.468C119.182 434.468 115.714 432.02 115.714 428.484C115.714 425.084 119.182 422.534 123.874 422.534C128.566 422.534 131.932 425.084 131.932 428.552ZM158.9 435.284C158.9 436.508 160.532 437.256 162.436 437.256C164.306 437.256 165.938 436.508 165.938 435.284C165.938 434.094 164.306 433.312 162.436 433.312C160.498 433.312 158.9 434.094 158.9 435.284ZM170.086 435.284C170.086 438.276 166.822 440.282 162.436 440.282C158.016 440.282 154.718 438.276 154.718 435.284C154.718 432.292 157.982 430.252 162.436 430.252C166.822 430.252 170.086 432.292 170.086 435.284ZM179.062 453.678H157.03V446.062H173.996V444.532H156.996V441.37H178.246V448.918H161.246V450.482H179.062V453.678ZM182.768 433.414H178.246V439.84H174.03V421.514H178.246V429.946H182.768V433.414ZM157.676 424.846V421.684H167.23V424.846H157.676ZM171.514 429.436H152.814V426.206H171.514V429.436ZM188.987 431.884C188.987 434.434 190.653 436.304 193.373 436.304C196.161 436.304 197.793 434.434 197.793 431.884C197.793 429.402 196.161 427.532 193.373 427.532C190.653 427.532 188.987 429.402 188.987 431.884ZM184.669 431.884C184.669 427.294 188.103 423.928 193.373 423.928C198.677 423.928 202.111 427.294 202.111 431.884C202.111 436.508 198.677 439.806 193.373 439.806C188.103 439.806 184.669 436.508 184.669 431.884ZM210.985 452.896H188.647V442.56H192.897V449.564H210.985V452.896ZM210.271 444.906H206.055V421.514H210.271V444.906ZM232.31 446.606C235.098 446.606 236.73 444.668 236.73 440.656V439.738C236.73 434.91 234.724 433.618 232.208 433.618C229.352 433.618 227.686 435.59 227.686 439.602V440.486C227.686 445.28 229.726 446.606 232.31 446.606ZM232.242 449.734C226.564 449.734 223.436 446.3 223.436 440.486V439.908C223.436 433.924 227.04 430.456 232.276 430.456C237.852 430.456 241.082 433.856 241.082 439.772V440.282C241.082 446.3 237.444 449.734 232.242 449.734ZM244.196 449.394V430.796H248.208V432.938H248.378C249.398 431.612 251.302 430.626 253.24 430.626C253.75 430.626 254.226 430.66 254.396 430.762V434.434C253.954 434.366 253.308 434.332 252.9 434.332C251.234 434.332 249.568 434.808 248.378 435.556V449.394H244.196ZM269.276 449.564V429.164L265.094 429.98V427.396L271.418 424.574H273.764V449.564H269.276ZM290.214 435.862V427.26H283.516V435.862H290.214ZM294.396 439.16H279.334V423.996H294.396V439.16ZM304.358 452.794H282.7V442.492H286.916V449.462H304.358V452.794ZM303.576 421.514V430.728H308.166V434.23H303.576V444.872H299.292V421.514H303.576ZM323.123 428.552C323.123 427.124 321.627 425.696 319.247 425.696C316.799 425.696 315.337 427.124 315.337 428.552C315.337 429.946 316.799 431.306 319.247 431.306C321.627 431.306 323.123 429.946 323.123 428.552ZM322.545 444.872H318.329V439.126C314.997 439.262 311.835 439.296 309.421 439.296L308.843 435.964C316.765 435.964 324.857 435.556 329.379 434.978L329.617 438.106C327.441 438.446 325.027 438.684 322.545 438.854V444.872ZM336.689 452.896H313.025V443.376H317.275V449.53H336.689V452.896ZM325.809 443.172V440.146H331.929V421.514H336.179V446.436H331.929V443.172H325.809ZM327.305 428.552C327.305 432.02 323.939 434.468 319.247 434.468C314.555 434.468 311.087 432.02 311.087 428.484C311.087 425.084 314.555 422.534 319.247 422.534C323.939 422.534 327.305 425.084 327.305 428.552ZM375.83 453.746H371.818V437.528H368.996V452.25H365.052V422.092H368.996V434.128H371.818V421.514H375.83V453.746ZM349.922 425.322H362.57C362.604 434.298 358.592 442.424 350.772 447.864L348.154 445.008C351.724 442.628 354.58 439.602 356.348 436.1L349.208 437.052L348.596 433.516L357.708 432.7C358.048 431.408 358.286 430.082 358.388 428.722H349.922V425.322ZM399.015 443.274L396.567 446.436C393.915 444.804 390.549 440.894 389.461 437.562C388.407 441.234 385.109 445.314 381.777 447.116L379.193 444.022C384.395 440.656 387.183 435.556 387.183 429.164V424.234H391.569V428.926C391.569 435.318 394.153 440.112 399.015 443.274ZM405.679 453.746H401.429V421.514H405.679V453.746ZM419.583 434.978V431.17H415.027V434.978H419.583ZM414.687 441.914H437.025V453.78H432.809V445.28H414.687V441.914ZM437.025 440.282H432.979V432.53H430.565V439.942H426.621V422.092H430.565V429.13H432.979V421.514H437.025V440.282ZM423.833 438.344H410.777V423.554H415.027V427.872H419.583V423.52H423.833V438.344Z" fill="#0FB87E"/>
<path d="M63.6313 195.086H47.7367V222H32.1977V147.148H64.7992C72.3148 147.148 78.307 149.078 82.7758 152.938C87.2445 156.797 89.4789 162.772 89.4789 170.863C89.4789 179.699 87.2445 185.945 82.7758 189.602C78.307 193.258 71.9255 195.086 63.6313 195.086ZM70.9438 179.496C72.975 177.702 73.9906 174.858 73.9906 170.965C73.9906 167.072 72.9581 164.296 70.893 162.637C68.8617 160.978 66.001 160.148 62.3109 160.148H47.7367V182.188H62.3109C66.001 182.188 68.8787 181.29 70.9438 179.496ZM132.115 206.613H104.541L99.3609 222H83.0094L109.72 147.148H127.392L153.9 222H136.939L132.115 206.613ZM127.748 193.715L118.404 164.262L108.755 193.715H127.748ZM209.13 147.148L184.095 193.867V222H168.454V193.867L142.555 147.148H160.989L176.528 179.75L191.407 147.148H209.13ZM227.188 222H212.613V147.148H235.363L248.973 206.004L262.48 147.148H284.977V222H270.402V171.371C270.402 169.915 270.419 167.884 270.453 165.277C270.487 162.637 270.504 160.605 270.504 159.184L256.336 222H241.152L227.086 159.184C227.086 160.605 227.103 162.637 227.137 165.277C227.171 167.884 227.188 169.915 227.188 171.371V222ZM346.402 189.297H310.042V208.543H351.48V222H294.757V147.148H349.652V160.402H310.042V176.297H346.402V189.297ZM418.998 222H403.358L372.788 168.832V222H358.213V147.148H374.616L404.424 199.402V147.148H418.998V222ZM482.81 147.148V160.402H460.416V222H444.673V160.402H422.177V147.148H482.81ZM42.3234 326H8.40157V251.148H44.7609C53.9354 251.284 60.4354 253.941 64.2609 259.121C66.563 262.303 67.7141 266.112 67.7141 270.547C67.7141 275.117 66.563 278.79 64.2609 281.566C62.9745 283.124 61.0786 284.546 58.5734 285.832C62.399 287.22 65.2766 289.421 67.2063 292.434C69.1698 295.447 70.1516 299.103 70.1516 303.402C70.1516 307.837 69.0344 311.815 66.8 315.336C65.3781 317.672 63.6008 319.635 61.468 321.227C59.0643 323.055 56.2206 324.307 52.9367 324.984C49.6867 325.661 46.149 326 42.3234 326ZM41.968 293.043H23.3313V313H41.7141C44.9979 313 47.5539 312.56 49.382 311.68C52.6997 310.055 54.3586 306.94 54.3586 302.336C54.3586 298.443 52.7505 295.768 49.5344 294.312C47.7401 293.5 45.218 293.077 41.968 293.043ZM49.7375 278.773C51.7688 277.555 52.7844 275.371 52.7844 272.223C52.7844 268.736 51.4302 266.434 48.7219 265.316C46.3859 264.538 43.4068 264.148 39.7844 264.148H23.3313V280.652H41.7141C44.9979 280.652 47.6724 280.026 49.7375 278.773ZM130.205 293.297H93.8461V312.543H135.284V326H78.5609V251.148H133.455V264.402H93.8461V280.297H130.205V293.297ZM202.802 326H187.162L156.591 272.832V326H142.017V251.148H158.42L188.228 303.402V251.148H202.802V326ZM264.329 293.297H227.97V312.543H269.407V326H212.684V251.148H267.579V264.402H227.97V280.297H264.329V293.297ZM329.461 264.402H291.934V281.617H324.789V294.617H291.934V326H276.395V251.25H329.461V264.402ZM333.554 251.148H349.093V326H333.554V251.148ZM412.905 251.148V264.402H390.51V326H374.768V264.402H352.272V251.148H412.905ZM444.064 315.184C447.754 315.184 450.75 314.777 453.052 313.965C457.42 312.408 459.603 309.513 459.603 305.281C459.603 302.81 458.52 300.897 456.353 299.543C454.186 298.223 450.784 297.055 446.146 296.039L438.224 294.262C430.438 292.501 425.055 290.589 422.076 288.523C417.032 285.07 414.509 279.671 414.509 272.324C414.509 265.621 416.947 260.052 421.822 255.617C426.697 251.182 433.857 248.965 443.302 248.965C451.19 248.965 457.91 251.064 463.463 255.262C469.048 259.426 471.977 265.486 472.248 273.441H457.216C456.946 268.939 454.982 265.74 451.326 263.844C448.888 262.591 445.858 261.965 442.236 261.965C438.207 261.965 434.991 262.777 432.588 264.402C430.184 266.027 428.982 268.296 428.982 271.207C428.982 273.882 430.167 275.879 432.537 277.199C434.06 278.079 437.31 279.112 442.287 280.297L455.185 283.395C460.839 284.749 465.104 286.56 467.982 288.828C472.451 292.349 474.685 297.444 474.685 304.113C474.685 310.952 472.061 316.639 466.814 321.176C461.601 325.678 454.22 327.93 444.673 327.93C434.923 327.93 427.255 325.712 421.67 321.277C416.084 316.809 413.291 310.681 413.291 302.895H428.22C428.694 306.314 429.625 308.87 431.013 310.562C433.552 313.643 437.903 315.184 444.064 315.184ZM500.462 270.395L496.348 305.332H488.782L484.567 270.395V251.402H500.462V270.395ZM500.055 311.324V326H484.923V311.324H500.055Z" fill="white"/>
<path d="M184.757 119.92C174.437 129.16 164.597 139.36 160.397 144.28C156.677 148.72 154.277 151.84 156.077 152.68C157.877 153.64 164.237 149.32 167.597 146.68C171.437 143.68 175.637 140.08 179.117 136.96C179.477 136.6 180.437 136.24 180.557 136.84C180.917 137.56 180.437 138.04 179.957 138.4C176.597 141.4 171.677 145.48 168.677 147.88C165.077 150.76 158.837 155.08 154.037 155.08C149.597 155.08 146.837 150.88 150.557 144.4C143.477 150.64 136.997 155.44 133.037 155.08C124.877 154.36 127.397 141.16 135.917 132.64C146.957 121.36 163.877 116.32 169.037 119.32C170.717 120.16 171.077 123.04 166.397 127.48C171.197 123.52 173.957 121.6 175.997 121C178.637 120.16 183.197 119.8 184.757 119.92ZM168.077 120.88C165.797 119.08 156.437 125.08 143.717 137.2C136.037 144.4 130.757 152.08 133.517 153.28C135.797 154.36 146.237 146.92 156.437 136.48C161.117 131.8 170.597 122.8 168.077 120.88ZM232.605 119.2C228.285 122.2 221.205 128.56 215.805 134.8C222.765 129.16 237.765 118.12 244.845 118.84C250.365 119.32 249.765 124.12 246.285 129.4C251.205 125.92 262.245 118 268.245 118.84C276.405 119.92 273.765 127.12 263.445 136.48C259.605 139.96 256.365 143.2 253.845 145.84C249.525 150.28 248.805 152.08 250.005 153.04C251.205 153.88 256.125 151.72 260.805 148.36C265.125 145.36 270.525 140.68 273.885 137.68C274.245 137.32 274.845 136.84 275.325 137.44C275.805 138.04 275.205 138.64 274.605 139.24C271.005 142.48 265.605 146.8 261.165 150.04C256.365 153.52 249.405 156.76 244.845 154.96C241.365 153.64 240.645 149.32 244.365 144.16C247.485 139.96 249.765 137.8 254.685 133.24C258.645 129.4 269.205 122.08 266.565 120.64C265.005 119.8 255.645 124.96 247.245 130.72C240.405 135.28 235.605 140.2 232.005 143.56C227.565 147.88 224.565 151.36 221.325 155.56C219.165 155.56 217.125 150.88 218.685 148.24C221.205 143.56 225.765 138.16 231.285 133.24C235.485 129.4 245.925 122.2 243.165 120.64C241.005 119.44 222.165 130.84 214.005 138.52C206.325 145.84 203.085 149.8 198.765 155.56C196.605 155.56 194.685 151 196.125 148.24C198.645 143.56 202.725 137.92 209.565 130.84C213.405 126.64 216.405 124.24 219.285 122.44C223.125 119.92 228.645 119.2 232.605 119.2ZM309.749 119.44C313.589 121.36 311.429 130.48 301.349 140.68C289.949 152.32 280.589 156.4 275.789 155.2C268.589 153.4 267.989 142.12 278.429 131.56C290.669 119.2 304.709 116.8 309.749 119.44ZM309.029 120.88C306.509 118.84 296.549 125.92 285.509 137.32C278.549 144.64 272.909 151.6 276.149 153.52C279.029 155.2 288.149 147.64 299.069 136.6C303.869 131.8 311.189 122.68 309.029 120.88ZM354.8 123.64C354.56 125.32 352.76 126.88 352.16 126.76C351.68 126.64 351.08 126.04 350.36 125.56C349.16 124.84 348.56 124.48 346.64 124.36C340.76 124.12 330.68 130.84 322.52 138.52C314.84 145.84 311.48 149.92 307.28 155.56C305.12 155.56 303.2 151 304.64 148.24C307.16 143.56 311.72 137.44 318.08 130.84C321.92 126.64 324.92 124.24 327.8 122.44C331.64 119.92 337.16 119.2 341.12 119.2C336.08 122.56 329.24 128.56 324.08 134.56L324.44 134.92C331.04 129.16 344.36 118 351.44 119.32C353.96 119.8 354.92 121.48 354.8 123.64ZM380.61 118.96C384.57 121.24 383.01 126.16 378.33 129.52C372.33 133.72 363.33 134.92 360.81 133.72C352.53 140.92 345.69 150.88 349.89 153.04C352.65 154.36 359.13 152.2 363.69 149.2C368.49 146.08 375.69 140.08 379.05 137.08C380.01 136.24 380.25 136.12 380.73 136.6C381.21 137.08 380.73 137.8 380.13 138.28C376.05 141.88 371.49 145.84 366.21 149.44C359.25 154.24 353.85 155.56 349.17 155.2C344.73 154.84 342.93 151.96 342.57 148.48C342.21 145.48 343.77 139 349.41 132.88C358.77 122.68 376.41 116.56 380.61 118.96ZM379.89 120.04C378.45 118.84 367.41 127.24 361.53 133C363.33 133.6 369.33 131.68 374.61 127.48C378.57 124.36 381.21 121 379.89 120.04Z" fill="#FF3046"/>
<path d="M198.555 54.664V37.024H209.211V40.24H202.131V43.912H208.371V46.96H202.131V51.472H209.379V54.664H198.555ZM217.041 54.688L210.921 37.024H214.857L219.249 50.56L223.689 37.024H227.529L221.361 54.688H217.041ZM229.141 54.664V37.024H239.797V40.24H232.717V43.912H238.957V46.96H232.717V51.472H239.965V54.664H229.141ZM242.875 54.664V37.024H247.171L252.979 48.736V37.024H256.483V54.664H252.355L246.379 42.688V54.664H242.875ZM267.458 40.336V54.664H263.81V40.336H258.962V37.024H272.33V40.336H267.458ZM287.907 51.808C289.779 51.808 290.883 50.056 290.883 46.24V45.496C290.883 41.536 289.731 39.856 287.931 39.856C286.035 39.856 284.979 41.56 284.979 45.4V46.168C284.979 50.008 285.963 51.808 287.907 51.808ZM287.883 54.928C284.211 54.928 281.139 52.504 281.139 46.36V45.64C281.139 39.136 284.499 36.712 287.955 36.712C291.435 36.712 294.699 39.232 294.699 45.544V46.192C294.699 52.696 291.315 54.928 287.883 54.928ZM301.714 54.952C299.866 54.952 297.922 54.352 296.842 53.68L297.754 50.536C298.57 51.016 299.962 51.52 300.97 51.52C302.89 51.52 304.018 50.752 304.018 48.976C304.018 47.08 302.698 46.456 300.778 46.456C299.866 46.456 297.994 46.936 297.346 47.32L297.922 37.024H307.09V40.24H300.994L300.85 43.552C301.186 43.432 302.122 43.312 302.602 43.312C305.722 43.312 307.834 45.232 307.834 49.024C307.834 52.48 305.338 54.952 301.714 54.952Z" fill="#0FB87E"/>
<mask id="mask0_92_1226" style="mask-type:alpha" maskUnits="userSpaceOnUse" x="239" y="0" width="29" height="28">
<circle cx="253.002" cy="14" r="14" fill="#D9D9D9"/>
</mask>
<g mask="url(#mask0_92_1226)">
<rect x="267.002" y="11.668" width="4.66667" height="28" transform="rotate(90 267.002 11.668)" fill="#0FB87E"/>
<rect x="264.551" y="22.25" width="4.66667" height="28" transform="rotate(135 264.551 22.25)" fill="#0FB87E"/>
<rect x="261.252" y="2.44922" width="4.66667" height="28" transform="rotate(45 261.252 2.44922)" fill="#0FB87E"/>
<rect x="255.336" y="28" width="4.66667" height="28" transform="rotate(-180 255.336 28)" fill="#0FB87E"/>
</g>
<path d="M300.584 68.5192C300.127 68.5192 299.744 68.8398 299.682 69.2673C299.292 71.9574 296.831 74.0373 293.862 74.0373C292.063 74.0373 290.388 73.2778 289.265 71.9539L289.165 71.8362L288.483 71.1814L288.382 71.0889C286.126 69.1038 283.184 68.0115 280.099 68.0115C277.378 68.0115 274.805 68.842 272.657 70.4126L272.54 70.498L270.974 71.8836L270.845 72.0306C269.725 73.3129 268.076 74.0488 266.319 74.0488C266.295 74.0488 266.272 74.0488 266.249 74.0481V74.0373C265.931 74.0373 265.616 74.0129 265.308 73.9663C263.91 73.7375 262.644 73.0368 261.738 71.9675L261.62 71.8284L260.915 71.1743L260.871 71.1341C258.605 69.1131 255.64 68 252.522 68C251.159 68 249.834 68.208 248.581 68.6132C247.318 69.017 246.127 69.6201 245.044 70.4119L244.928 70.4973L243.362 71.8829L243.233 72.0299C242.534 72.8295 241.629 73.4162 240.622 73.7454C240.023 73.9362 239.39 74.0366 238.742 74.0366V74.0473C238.73 74.0473 238.718 74.0473 238.706 74.0473C236.916 74.0473 235.247 73.2885 234.125 71.9661L234.007 71.8269L233.302 71.1728L233.258 71.1334C230.992 69.1131 228.026 68 224.909 68C222.188 68 219.614 68.8305 217.467 70.4004L217.35 70.4858L215.784 71.8714L215.655 72.0184C214.535 73.3007 212.886 74.0359 211.129 74.0359C208.164 74.0359 205.705 71.946 205.317 69.2436C205.256 68.8154 204.872 68.4949 204.415 68.4949H199.912C199.383 68.4963 198.96 68.9202 199.003 69.4179C199.502 75.3261 204.75 79.99 211.129 79.99C214.701 79.99 218.058 78.5255 220.376 75.9651L221.43 75.032C222.442 74.3249 223.642 73.9519 224.91 73.9519C226.404 73.9519 227.825 74.482 228.915 75.4451L229.337 75.836C231.658 78.4846 235.062 80 238.707 80C240.052 80 241.366 79.792 242.606 79.3968C244.674 78.7442 246.536 77.5702 247.989 75.9644L249.044 75.0313C249.544 74.682 250.09 74.4145 250.667 74.2331C251.247 74.0545 251.859 73.9627 252.487 73.9627C253.953 73.9627 255.352 74.4748 256.434 75.4057L256.844 75.8001C258.743 77.9775 261.374 79.3933 264.273 79.8379C264.943 79.9448 265.627 80 266.32 80C269.891 80 273.249 78.5355 275.566 75.9751L276.62 75.0421C277.632 74.3349 278.832 73.962 280.1 73.962C281.566 73.962 282.965 74.4741 284.047 75.405L284.457 75.7994C286.781 78.4638 290.199 79.9878 293.863 79.9878C300.246 79.9878 305.498 75.3347 305.997 69.4387C306.04 68.941 305.617 68.5164 305.088 68.5164H300.585L300.584 68.5192Z" fill="white"/>
</svg>
