<svg width="750" height="1826" viewBox="0 0 750 1826" fill="none" xmlns="http://www.w3.org/2000/svg">
<rect width="751" height="1780" fill="#2E2F3E"/>
<path d="M750 1811.7C731.171 1830.77 700.647 1830.77 681.818 1811.7C662.989 1792.63 632.465 1792.63 613.636 1811.7C594.808 1830.77 564.283 1830.77 545.455 1811.7C526.626 1792.63 496.102 1792.63 477.273 1811.7C458.444 1830.77 427.92 1830.77 409.091 1811.7C390.262 1792.63 359.738 1792.63 340.909 1811.7C322.08 1830.77 291.556 1830.77 272.727 1811.7C253.898 1792.63 223.374 1792.63 204.546 1811.7C185.717 1830.77 155.193 1830.77 136.364 1811.7C117.535 1792.63 87.0107 1792.63 68.1819 1811.7C49.353 1830.77 18.8288 1830.77 1.25044e-06 1811.7L4.02145e-06 1780L750 1780L750 1811.7Z" fill="#2E2F3E"/>
</svg>
