<svg xmlns="http://www.w3.org/2000/svg" xmlns:xlink="http://www.w3.org/1999/xlink" width="81.589" height="80.95" viewBox="0 0 81.589 80.95">
  <defs>
    <style>
      .cls-1 {
        fill: none;
      }

      .cls-2 {
        clip-path: url(#clip-path);
      }

      .cls-3 {
        clip-path: url(#clip-path-2);
      }

      .cls-4 {
        fill: #fdffcc;
        fill-rule: evenodd;
      }
    </style>
    <clipPath id="clip-path">
      <rect id="사각형_337" data-name="사각형 337" class="cls-1" width="81.589" height="80.95" transform="translate(103.386 151.8)"/>
    </clipPath>
    <clipPath id="clip-path-2">
      <rect id="사각형_336" data-name="사각형 336" class="cls-1" width="84.711" height="80.95" transform="translate(100.264 151.8)"/>
    </clipPath>
  </defs>
  <g id="그룹_534" data-name="그룹 534" transform="translate(-103.386 -151.8)">
    <g id="그룹_533" data-name="그룹 533" class="cls-2" transform="translate(0 0.001)">
      <g id="그룹_532" data-name="그룹 532">
        <g id="그룹_531" data-name="그룹 531" class="cls-3">
          <path id="패스_1032" data-name="패스 1032" class="cls-4" d="M499.179,748.2c.705-1.3,1.843-2.545,2.038-3.921.779-5.506,1.421-11.041,1.807-16.588a59.9,59.9,0,0,0-.46-11.847c-1.688,10.68-1.475,21.517-4.589,31.98l1.2.376" transform="translate(-358.572 -515.45)"/>
          <path id="패스_1033" data-name="패스 1033" class="cls-4" d="M557.566,598.462c-1.008.081-2.171-.137-3,.294-4.094,2.139-8.39,4.059-12.054,6.8-3.978,2.98-7.34,6.782-10.76,10.47,8.731-5.506,15.457-13.986,26.063-16.557q-.126-.506-.253-1.013" transform="translate(-382.896 -430.928)"/>
          <path id="패스_1034" data-name="패스 1034" class="cls-4" d="M537.087,707.354c4.441,9.252,11.493,16.929,13.118,27.441l.951-.167c0-1.183.36-2.517-.062-3.524a114.919,114.919,0,0,0-6.253-13.614c-2.126-3.646-5.136-6.777-7.754-10.136" transform="translate(-386.735 -509.337)"/>
          <path id="패스_1035" data-name="패스 1035" class="cls-4" d="M410.333,574.11c4.634.6,7.693,3.474,10.435,6.792,4.038,4.885,8.035,9.8,12.052,14.707.228.278.478.537.831.93-1.576-8.816-16.958-23.844-23.318-22.429" transform="translate(-295.465 -413.327)"/>
          <path id="패스_1036" data-name="패스 1036" class="cls-4" d="M378.872,705.909c8.457-6.347,18.05-8.608,27.056-12.149-7.517.207-24.8,6.177-27.056,12.149" transform="translate(-272.811 -499.549)"/>
          <path id="패스_1037" data-name="패스 1037" class="cls-4" d="M571.014,673.353c4.195,0,8.406-.227,12.581.065,3.984.279,7.931,1.1,12.545,1.774-3.325-4.1-13.92-4.671-25.126-1.839" transform="translate(-411.165 -483.588)"/>
          <path id="패스_1038" data-name="패스 1038" class="cls-4" d="M403.329,661.784q12.126,1.046,24.25,2.094c-7.964-2.507-15.951-4.733-24.25-2.094" transform="translate(-290.421 -475.668)"/>
          <path id="패스_1039" data-name="패스 1039" class="cls-4" d="M559.32,699.673l23.471,9.87c-1.58-3.08-15.691-9.11-23.471-9.87" transform="translate(-402.744 -503.806)"/>
          <path id="패스_1040" data-name="패스 1040" class="cls-4" d="M436.681,621.571c-4.008-4.171-7.729-8.834-13.931-9.508l-.511.79,14.443,8.718" transform="translate(-304.037 -440.722)"/>
          <path id="패스_1041" data-name="패스 1041" class="cls-4" d="M446.015,698.208c-6.353,2.22-12.488,4.787-16.714,10.4l16.714-10.4" transform="translate(-309.123 -502.751)"/>
          <path id="패스_1042" data-name="패스 1042" class="cls-4" d="M530.755,549.4c-4.342,6.032-5.825,13.061-7.2,20.732l7.2-20.732" transform="translate(-376.993 -395.597)"/>
          <path id="패스_1043" data-name="패스 1043" class="cls-4" d="M593.287,641.586c-5.712-.4-10.87,1.6-16.407,4.152l16.607-3.173q-.1-.49-.2-.979" transform="translate(-415.388 -461.943)"/>
          <path id="패스_1044" data-name="패스 1044" class="cls-4" d="M567.524,625.4c-5.544,1.434-9.8,4.966-14.239,9.148l14.74-8.283-.5-.865" transform="translate(-398.399 -450.322)"/>
          <path id="패스_1045" data-name="패스 1045" class="cls-4" d="M533.893,729.047c.894,5.628,1.671,10.515,2.5,15.76,1.674-3.664.675-9.948-2.5-15.76" transform="translate(-384.435 -524.957)"/>
          <path id="패스_1046" data-name="패스 1046" class="cls-4" d="M468.135,589.671c5.46,3.247,7.6,8.756,10.022,14.124.056-5.688-5.754-14.212-10.022-14.124" transform="translate(-337.086 -424.598)"/>
          <path id="패스_1047" data-name="패스 1047" class="cls-4" d="M568.437,717.646l9.317,10.032.62-.65c-2.068-4.407-6.043-6.924-9.936-9.382" transform="translate(-409.309 -516.748)"/>
          <path id="패스_1048" data-name="패스 1048" class="cls-4" d="M503.181,580.005c.779-5.942-1.232-13.317-3.838-14.325,1.3,4.837,2.663,9.938,3.838,14.325" transform="translate(-359.557 -407.323)"/>
          <path id="패스_1049" data-name="패스 1049" class="cls-4" d="M409.383,681.9c-5.832.157-11,.159-15.387,3.676l15.387-3.676" transform="translate(-283.701 -491.008)"/>
          <path id="패스_1050" data-name="패스 1050" class="cls-4" d="M443.591,727.891c-4.285,2.6-7.743,7.713-7.3,11.055l7.3-11.055" transform="translate(-314.127 -524.125)"/>
          <path id="패스_1051" data-name="패스 1051" class="cls-4" d="M538.8,598.877l9.118-10.57-.714-.53c-4.284,2.539-6.217,6.932-8.4,11.1" transform="translate(-387.966 -423.234)"/>
          <path id="패스_1052" data-name="패스 1052" class="cls-4" d="M490.535,772.7c3.419-4.175,2.569-9.258,2.716-14.131q-1.358,7.066-2.716,14.131" transform="translate(-353.215 -546.216)"/>
          <path id="패스_1053" data-name="패스 1053" class="cls-4" d="M569.172,686.05l14.214,2.961c.044-.238.088-.476.132-.714-4.555-2.189-9.465-2.568-14.346-2.247" transform="translate(-409.838 -493.925)"/>
          <path id="패스_1054" data-name="패스 1054" class="cls-4" d="M391.833,637.911l13.263,1.444c-4.5-1.422-8.706-3.459-13.263-1.444" transform="translate(-282.143 -458.725)"/>
          <path id="패스_1055" data-name="패스 1055" class="cls-4" d="M546.015,744.545c.736-4.907-1.4-9.044-3.927-13.08l3.927,13.08" transform="translate(-390.336 -526.698)"/>
          <path id="패스_1056" data-name="패스 1056" class="cls-4" d="M482.984,716.69c-2.621,2.858-5,5.8-4.254,10.107l4.254-10.107" transform="translate(-344.616 -516.059)"/>
          <path id="패스_1057" data-name="패스 1057" class="cls-4" d="M481.357,765.4c.691-2.7,1.316-5.134,1.916-7.478a5.845,5.845,0,0,0-1.916,7.478" transform="translate(-346.142 -545.752)"/>
          <path id="패스_1058" data-name="패스 1058" class="cls-4" d="M423.637,689.307l8.689-1.508c-.028-.2-.055-.394-.082-.591l-8.721,1.218.114.881" transform="translate(-304.962 -494.83)"/>
          <path id="패스_1059" data-name="패스 1059" class="cls-4" d="M589.544,663.916l9.74-.583c0-.069-.006-.139-.01-.208H589.59q-.023.4-.046.791" transform="translate(-424.507 -477.49)"/>
        </g>
      </g>
    </g>
  </g>
</svg>
