<svg id="그룹_518" data-name="그룹 518" xmlns="http://www.w3.org/2000/svg" xmlns:xlink="http://www.w3.org/1999/xlink" width="153.213" height="291.919" viewBox="0 0 153.213 291.919">
  <defs>
    <style>
      .cls-1 {
        fill: none;
      }

      .cls-2 {
        clip-path: url(#clip-path);
      }

      .cls-3 {
        fill: #fff;
      }

      .cls-4 {
        fill: #9e7836;
      }

      .cls-5 {
        fill: #faa;
      }

      .cls-6 {
        fill: #cc7a68;
      }

      .cls-7 {
        fill: #d64245;
      }

      .cls-8 {
        fill: #255648;
      }

      .cls-9 {
        clip-path: url(#clip-path-2);
      }

      .cls-10 {
        fill: #d9a655;
      }

      .cls-11 {
        fill: #d41c1f;
      }

      .cls-12 {
        fill: #14120f;
      }
    </style>
    <clipPath id="clip-path">
      <rect id="사각형_331" data-name="사각형 331" class="cls-1" width="153.213" height="291.919"/>
    </clipPath>
    <clipPath id="clip-path-2">
      <path id="패스_856" data-name="패스 856" class="cls-1" d="M151.677,237.007c-.227,7.891-8.6,23.868-8.6,23.868-6.227-8.042-10.5-22.88-10.5-22.88l-13.221,1.391c-5.213,7.581-7.011,20.668-7.818,27.855-1.237,11-1.19,41.452-1.19,41.452,33.327,4.612,64.226-7.148,64.226-7.148s-1.212-27.762-2.414-38.779c-1.145-10.49-7.646-27.1-7.646-27.1Z" transform="translate(-110.346 -235.662)"/>
    </clipPath>
  </defs>
  <g id="그룹_513" data-name="그룹 513">
    <g id="그룹_512" data-name="그룹 512" class="cls-2">
      <path id="패스_814" data-name="패스 814" class="cls-3" d="M43.395,515.28,29.052,499.833,5.123,519.557l-2.515,1.76c-4.49,2.41-2.061,6.035-.922,7.938,10.217,17.09,15.5,22.25,17.2,21.374,2.495-1.28.043-14.554.043-14.554Z" transform="translate(0 -266.178)"/>
      <path id="패스_815" data-name="패스 815" class="cls-3" d="M242.747,524.39l-20.035-6.551L211.355,546.7l-1.346,2.759c-2.757,4.286,1.126,6.277,3.045,7.389,17.225,9.989,24.344,11.94,25.412,10.346,1.561-2.33-7.022-12.748-7.022-12.748Z" transform="translate(-111.326 -275.766)"/>
      <path id="패스_816" data-name="패스 816" class="cls-4" d="M150.682,399.14c-2.938-8.729-18.237-27.84-27.465-40.378l-2.488-17.681-47.312,1.872a250.957,250.957,0,0,0-10.935,29.611c-4.987,16.256-9.663,30.672-9.663,30.672L19.589,429.584l15.686,22.144s36.3-25.461,44.218-37.856c5.435-8.5,11.694-20.952,16.387-30.8L122.931,411,111.439,448.2l26.321,7.328s16.6-45.448,12.922-56.387" transform="translate(-10.432 -181.637)"/>
      <path id="패스_817" data-name="패스 817" class="cls-5" d="M56.588,87.556A98.857,98.857,0,0,0,53.38,101.5c-.18.992-1.332,2.527-.943,3.5.343.857,1.558,1.1,2.442,1.355.074.022.146.043.215.066,1.83.593,4.079.927,5.773,1.844a14.132,14.132,0,0,0,4.155,1.936c1.241-3,2.04-5.99,3.8-8.808,1.3-2.09,3.574-4.282,5.173-6.155.594-.7,2.984-3.932-.248-2.9a14.75,14.75,0,0,0-3.585,1.7c.543-2.156,4.035-11.8,2.824-13.448-1.024-1.392-1.925,1.041-2.427,1.881a40.539,40.539,0,0,0-3.6,6.934c.325-1.7,2.076-9.52,1.573-10.183-.685-.9-1.35.067-1.742.741a27.192,27.192,0,0,0-3.072,8.587c.176-1.766,3.164-10.436.553-10.458-1.311-.011-2.812,3.889-3.938,7.657.169-.566,1.436-5.842.764-6.477-1.618-1.531-3.637,5.5-4.5,8.277" transform="translate(-27.882 -41.59)"/>
      <path id="패스_818" data-name="패스 818" class="cls-5" d="M257.622,46.533c-.586.715,0,3.039.082,3.824.023.238.762,4.152.892,4.727-.574-2.407-2-8.607-3.2-9.442-2.142-1.494-1.485,3.955-1.386,4.984a41.2,41.2,0,0,0,.963,5.245c-.538-2.341-1.425-5.992-2.912-7.934-.475-.62-1.257-1.5-1.822-.516-.416.721.344,3.882.452,4.637a29.937,29.937,0,0,0,1.174,5.069,32.608,32.608,0,0,0-3.227-6.228c-.6-.77-1.8-3.07-2.644-1.56-.994,1.786,2.468,10.716,3.279,12.787a14.752,14.752,0,0,0-3.772-1.235c-3.336-.616-.557,2.294.12,2.91,1.822,1.656,4.352,3.544,5.908,5.453,2.1,2.574,3.268,5.44,4.878,8.259a14.118,14.118,0,0,0,3.877-2.444c1.565-1.124,3.754-1.739,5.495-2.558.065-.03.134-.061.2-.092.845-.368,2.452.9,2.684.007.264-1.017-4.827-14.452-6.733-19.4-.358-.927-2.9-8.218-4.311-6.5" transform="translate(-129.881 -24.169)"/>
      <path id="패스_819" data-name="패스 819" class="cls-5" d="M165.495,207.6a2.4,2.4,0,0,0-.246-1.249c-5.025-10.6,7.6-17.064,12-6.785.957,2.237.066,7.211-2.8,9.091.153,2.819.7,10.134,2.1,14.3l-14.187-1.664c3.067-5.072,2.994-10.275,3.135-13.69" transform="translate(-86.462 -103.519)"/>
      <path id="패스_820" data-name="패스 820" class="cls-6" d="M177.334,197.859a2.361,2.361,0,0,0-.811-.453,6.306,6.306,0,0,0-3.461-.085c-1.227.272-2.449.868-3.681.618a11.131,11.131,0,0,1-1.468-.521c-1.362-.482-3.776-.744-5.086-.04a7.272,7.272,0,0,0-2.089,1.461,2.563,2.563,0,0,0-.151,3.333,4.018,4.018,0,0,0,3.38.948,8.107,8.107,0,0,0,2.011-1.107.656.656,0,0,1,.384-.108.806.806,0,0,1,.277.115,3.122,3.122,0,0,0,2.562.192c.76-.282,1.473-.875,2.273-.75a7.1,7.1,0,0,1,1.128.425,2.18,2.18,0,0,0,1.417-.013,7.611,7.611,0,0,1,1.355-.546,6.244,6.244,0,0,1,1.1.076c1.067.014,1.466-.958,1.439-1.883a2.153,2.153,0,0,0-.575-1.662" transform="translate(-85.227 -104.88)"/>
      <path id="패스_821" data-name="패스 821" class="cls-3" d="M177.906,194.847c-2.564,2.38-7.221,1.491-12.593,2.011-2.136.486-4-.977-3.183-3.2.932-2.63,4.016-.661,5.309-2.772,1.451-.946,2.087.617,4.494-.313,1.061-.118,1.943.684,2.884,1.064,1.645-.1,3.646,1.4,3.089,3.205" transform="translate(-86.236 -101.483)"/>
      <path id="패스_822" data-name="패스 822" class="cls-7" d="M165.424,171.172a36.5,36.5,0,0,0-1.933,10.033,4.8,4.8,0,0,0,.517,2.957c.489.968,5.323-.066,9.61-.465,1.516-.141,4.52.118,4.151-1.742,0,0-1.888-2.737-3.026-4.024-5.736-6.487-9.318-6.759-9.318-6.759" transform="translate(-87.048 -91.155)"/>
      <path id="패스_823" data-name="패스 823" class="cls-3" d="M164.16,168.709c3.061,2.021,2.682-2.934.236-3.1-1.4.21-1.633,1.62-.236,3.1" transform="translate(-86.921 -88.194)"/>
      <path id="패스_824" data-name="패스 824" class="cls-5" d="M160.189,209.751a2.3,2.3,0,1,0,2.679-1.838,2.3,2.3,0,0,0-2.679,1.838" transform="translate(-85.285 -110.7)"/>
      <path id="패스_825" data-name="패스 825" class="cls-8" d="M53.973,115.234c-5.753,13.136-6.93,36.189,4.8,45.524,8.9,7.084,19.244,6.136,26.269,3.988,3.845-1.176,4.194-6.423,4.194-6.423a21.549,21.549,0,0,1,6.239-.7,16.539,16.539,0,0,1,6.322,1.049c.142,1.819.021,3.656,1.451,4.772.941.734,8.96,1.264,14.878-1.526C154.511,144.769,129.8,99.647,129.8,99.647l25.757-1.534s33.96,73.616-30.936,91.4L118.5,222.576s-12.364,10.409-51.98,4.31L64,193.992c-24.339-7.357-33.579-20.432-36.239-25.338-11.087-20.445-6.674-41.091,1-60.879,8.607,2.75,16.727,4.674,25.213,7.458" transform="translate(-11.229 -52.248)"/>
      <path id="패스_826" data-name="패스 826" class="cls-7" d="M111.536,267.241c.808-7.188,2.605-20.275,7.818-27.855l13.221-1.391s4.275,14.837,10.5,22.88c0,0,8.372-15.977,8.6-23.868l12.835-1.345s6.5,16.615,7.646,27.105c1.2,11.017,2.415,38.779,2.415,38.779s-30.9,11.76-64.227,7.148c0,0-.047-30.453,1.19-41.452" transform="translate(-58.763 -125.497)"/>
    </g>
  </g>
  <g id="그룹_515" data-name="그룹 515" transform="translate(51.583 110.164)">
    <g id="그룹_514" data-name="그룹 514" class="cls-9">
      <path id="패스_827" data-name="패스 827" class="cls-3" d="M101.381,303.839l-6.627,11.387,7.918,10.529,6.627-11.386Z" transform="translate(-102.043 -271.968)"/>
      <path id="패스_828" data-name="패스 828" class="cls-3" d="M145.569,301.235l-6.627,11.387,7.918,10.529,6.627-11.386Z" transform="translate(-125.574 -270.582)"/>
      <path id="패스_829" data-name="패스 829" class="cls-3" d="M189.756,298.632l-6.627,11.387,7.918,10.529,6.627-11.386Z" transform="translate(-149.106 -269.196)"/>
      <path id="패스_830" data-name="패스 830" class="cls-3" d="M117.582,305.614a.329.329,0,0,1-.269-.139l-.574-.807a.33.33,0,0,1,.538-.383l.574.807a.33.33,0,0,1-.269.521" transform="translate(-113.718 -272.133)"/>
      <path id="패스_831" data-name="패스 831" class="cls-3" d="M131.076,324.595a.331.331,0,0,1-.269-.139l-1.152-1.622a.33.33,0,0,1,.538-.382l1.153,1.622a.33.33,0,0,1-.269.521m-2.306-3.243a.329.329,0,0,1-.269-.138l-1.153-1.622a.33.33,0,1,1,.538-.383l1.153,1.622a.33.33,0,0,1-.269.521m-2.305-3.243a.331.331,0,0,1-.269-.139l-1.153-1.622a.33.33,0,0,1,.538-.382l1.153,1.622a.33.33,0,0,1-.269.521m-2.306-3.243a.33.33,0,0,1-.269-.138l-1.153-1.622a.33.33,0,0,1,.538-.383l1.152,1.622a.33.33,0,0,1-.268.521m-2.306-3.243a.331.331,0,0,1-.269-.139l-1.152-1.622a.33.33,0,0,1,.538-.382l1.153,1.622a.33.33,0,0,1-.269.521" transform="translate(-115.685 -274.899)"/>
      <path id="패스_832" data-name="패스 832" class="cls-3" d="M145.934,345.495a.331.331,0,0,1-.269-.139l-.574-.806a.33.33,0,1,1,.538-.383l.574.807a.33.33,0,0,1-.269.521" transform="translate(-128.817 -293.371)"/>
      <path id="패스_833" data-name="패스 833" class="cls-3" d="M119.593,347.688a.325.325,0,0,1-.158-.041.329.329,0,0,1-.13-.448l.477-.868a.33.33,0,0,1,.578.317l-.477.868a.33.33,0,0,1-.289.171" transform="translate(-115.095 -294.506)"/>
      <path id="패스_834" data-name="패스 834" class="cls-3" d="M122.7,324.818a.33.33,0,0,1-.289-.489l.975-1.776a.33.33,0,0,1,.579.318l-.976,1.776a.33.33,0,0,1-.289.171m1.951-3.551a.324.324,0,0,1-.158-.041.329.329,0,0,1-.13-.448l.976-1.776a.33.33,0,0,1,.578.318l-.976,1.776a.33.33,0,0,1-.289.171m1.951-3.551a.325.325,0,0,1-.158-.041.329.329,0,0,1-.13-.447l.976-1.776a.33.33,0,1,1,.578.317l-.976,1.776a.329.329,0,0,1-.289.171m1.952-3.551a.33.33,0,0,1-.289-.489l.975-1.776a.33.33,0,0,1,.579.318l-.976,1.775a.33.33,0,0,1-.289.172m1.951-3.551a.323.323,0,0,1-.158-.041.329.329,0,0,1-.13-.448l.976-1.776a.33.33,0,0,1,.578.318l-.976,1.776a.33.33,0,0,1-.289.171" transform="translate(-116.75 -274.279)"/>
      <path id="패스_835" data-name="패스 835" class="cls-3" d="M143.571,304.049a.323.323,0,0,1-.158-.041.329.329,0,0,1-.13-.448l.477-.867a.33.33,0,0,1,.578.317l-.477.868a.329.329,0,0,1-.289.171" transform="translate(-127.864 -271.267)"/>
      <path id="패스_836" data-name="패스 836" class="cls-3" d="M279.349,293.149l-6.627,11.387,7.918,10.529,6.627-11.386Z" transform="translate(-196.817 -266.276)"/>
      <path id="패스_837" data-name="패스 837" class="cls-3" d="M251.363,297.528a.331.331,0,0,1-.269-.139l-.574-.806a.33.33,0,0,1,.538-.383l.574.807a.33.33,0,0,1-.269.521" transform="translate(-184.961 -267.827)"/>
      <path id="패스_838" data-name="패스 838" class="cls-3" d="M264.857,316.508a.329.329,0,0,1-.269-.139l-1.153-1.622a.33.33,0,0,1,.538-.382l1.153,1.622a.33.33,0,0,1-.269.521m-2.306-3.242a.331.331,0,0,1-.269-.139l-1.153-1.622a.33.33,0,0,1,.538-.382l1.153,1.621a.33.33,0,0,1-.269.522m-2.306-3.243a.331.331,0,0,1-.269-.139l-1.153-1.622a.33.33,0,0,1,.538-.382l1.153,1.622a.33.33,0,0,1-.269.521m-2.306-3.243a.331.331,0,0,1-.269-.139l-1.152-1.621a.33.33,0,0,1,.538-.383l1.153,1.621a.33.33,0,0,1-.269.522m-2.306-3.243a.331.331,0,0,1-.269-.139l-1.153-1.622a.33.33,0,0,1,.538-.382l1.153,1.622a.33.33,0,0,1-.269.521" transform="translate(-186.927 -270.593)"/>
      <path id="패스_839" data-name="패스 839" class="cls-3" d="M279.715,337.408a.329.329,0,0,1-.269-.139l-.574-.806a.33.33,0,1,1,.538-.383l.574.807a.33.33,0,0,1-.269.521" transform="translate(-200.06 -289.064)"/>
      <path id="패스_840" data-name="패스 840" class="cls-3" d="M253.374,339.6a.323.323,0,0,1-.158-.041.329.329,0,0,1-.13-.448l.476-.867a.33.33,0,0,1,.579.317l-.477.868a.329.329,0,0,1-.289.171" transform="translate(-186.338 -290.2)"/>
      <path id="패스_841" data-name="패스 841" class="cls-3" d="M256.48,316.731a.331.331,0,0,1-.289-.489l.976-1.775a.33.33,0,0,1,.579.318l-.976,1.775a.329.329,0,0,1-.289.172m1.952-3.551a.325.325,0,0,1-.159-.041.33.33,0,0,1-.13-.448l.976-1.775a.33.33,0,0,1,.578.318l-.976,1.775a.33.33,0,0,1-.289.171m1.951-3.551a.325.325,0,0,1-.158-.041.33.33,0,0,1-.13-.448l.976-1.775a.33.33,0,1,1,.578.317l-.975,1.775a.331.331,0,0,1-.29.171m1.952-3.551a.331.331,0,0,1-.289-.489l.976-1.775a.33.33,0,0,1,.578.318l-.976,1.775a.329.329,0,0,1-.289.172m1.951-3.551a.323.323,0,0,1-.158-.041.329.329,0,0,1-.13-.448l.976-1.775a.33.33,0,0,1,.579.318l-.976,1.775a.329.329,0,0,1-.289.171" transform="translate(-187.992 -269.972)"/>
      <path id="패스_842" data-name="패스 842" class="cls-3" d="M277.352,295.963a.324.324,0,0,1-.158-.041.329.329,0,0,1-.13-.448l.476-.867a.33.33,0,0,1,.579.317l-.477.868a.329.329,0,0,1-.289.171" transform="translate(-199.107 -266.961)"/>
      <path id="패스_843" data-name="패스 843" class="cls-3" d="M234.551,295.857l-6.627,11.387,7.918,10.529,6.627-11.387Z" transform="translate(-172.96 -267.718)"/>
      <path id="패스_844" data-name="패스 844" class="cls-3" d="M206.564,300.235a.329.329,0,0,1-.269-.139l-.574-.807a.33.33,0,0,1,.538-.383l.574.807a.33.33,0,0,1-.269.521" transform="translate(-161.104 -269.268)"/>
      <path id="패스_845" data-name="패스 845" class="cls-3" d="M220.059,319.216a.329.329,0,0,1-.269-.139l-1.153-1.621a.33.33,0,0,1,.538-.383l1.153,1.622a.33.33,0,0,1-.269.521m-2.306-3.242a.331.331,0,0,1-.269-.139l-1.153-1.622a.33.33,0,0,1,.538-.382l1.153,1.621a.33.33,0,0,1-.269.522m-2.306-3.243a.329.329,0,0,1-.269-.139l-1.153-1.622a.33.33,0,0,1,.538-.382l1.153,1.622a.33.33,0,0,1-.269.521m-2.306-3.243a.331.331,0,0,1-.269-.139l-1.152-1.621a.33.33,0,0,1,.538-.382l1.153,1.621a.33.33,0,0,1-.269.522m-2.306-3.243a.329.329,0,0,1-.269-.139l-1.153-1.622a.33.33,0,0,1,.538-.382l1.153,1.622a.33.33,0,0,1-.269.521" transform="translate(-163.071 -272.035)"/>
      <path id="패스_846" data-name="패스 846" class="cls-3" d="M234.917,340.116a.331.331,0,0,1-.269-.139l-.574-.806a.33.33,0,1,1,.538-.383l.574.807a.33.33,0,0,1-.269.521" transform="translate(-176.203 -290.506)"/>
      <path id="패스_847" data-name="패스 847" class="cls-3" d="M208.575,342.309a.325.325,0,0,1-.158-.041.329.329,0,0,1-.13-.448l.477-.867a.33.33,0,1,1,.578.317l-.477.868a.329.329,0,0,1-.289.171" transform="translate(-162.481 -291.642)"/>
      <path id="패스_848" data-name="패스 848" class="cls-3" d="M211.683,319.438a.331.331,0,0,1-.289-.489l.976-1.776a.33.33,0,0,1,.579.318l-.976,1.776a.329.329,0,0,1-.289.171m1.952-3.551a.325.325,0,0,1-.159-.041.33.33,0,0,1-.13-.448l.976-1.776a.33.33,0,0,1,.578.318l-.976,1.776a.33.33,0,0,1-.289.171m1.951-3.551a.326.326,0,0,1-.159-.041.33.33,0,0,1-.13-.448l.976-1.775a.33.33,0,1,1,.578.317l-.976,1.776a.329.329,0,0,1-.289.171m1.951-3.551a.331.331,0,0,1-.289-.489l.976-1.776a.33.33,0,0,1,.579.318l-.976,1.775a.329.329,0,0,1-.289.172m1.952-3.551a.325.325,0,0,1-.158-.041.329.329,0,0,1-.13-.448l.976-1.776a.33.33,0,0,1,.578.318l-.976,1.776a.33.33,0,0,1-.289.171" transform="translate(-164.136 -271.414)"/>
      <path id="패스_849" data-name="패스 849" class="cls-3" d="M232.554,298.671a.33.33,0,0,1-.289-.489l.476-.868a.33.33,0,1,1,.579.317l-.477.868a.33.33,0,0,1-.289.171" transform="translate(-175.251 -268.403)"/>
      <path id="패스_850" data-name="패스 850" class="cls-3" d="M161.77,303.011a.331.331,0,0,1-.269-.139l-.574-.807a.33.33,0,0,1,.538-.383l.574.807a.33.33,0,0,1-.269.521" transform="translate(-137.25 -270.746)"/>
      <path id="패스_851" data-name="패스 851" class="cls-3" d="M175.264,321.991a.329.329,0,0,1-.269-.139l-1.152-1.622a.33.33,0,1,1,.538-.382l1.153,1.622a.33.33,0,0,1-.269.521m-2.306-3.243a.329.329,0,0,1-.269-.138l-1.153-1.622a.33.33,0,1,1,.538-.382l1.153,1.621a.33.33,0,0,1-.269.521m-2.305-3.243a.329.329,0,0,1-.269-.139l-1.153-1.622a.33.33,0,0,1,.538-.382l1.152,1.622a.33.33,0,0,1-.268.521m-2.306-3.243a.33.33,0,0,1-.269-.138l-1.153-1.622a.33.33,0,1,1,.538-.382l1.153,1.621a.33.33,0,0,1-.268.521m-2.306-3.243a.331.331,0,0,1-.269-.139l-1.153-1.622a.33.33,0,0,1,.538-.382l1.153,1.622a.33.33,0,0,1-.269.521" transform="translate(-139.217 -273.512)"/>
      <path id="패스_852" data-name="패스 852" class="cls-3" d="M190.122,342.892a.329.329,0,0,1-.269-.139l-.574-.806a.33.33,0,1,1,.538-.383l.574.807a.33.33,0,0,1-.269.521" transform="translate(-152.348 -291.984)"/>
      <path id="패스_853" data-name="패스 853" class="cls-3" d="M163.781,345.084a.33.33,0,0,1-.289-.489l.476-.868a.33.33,0,1,1,.579.317l-.477.868a.33.33,0,0,1-.289.171" transform="translate(-138.627 -293.12)"/>
      <path id="패스_854" data-name="패스 854" class="cls-3" d="M166.888,322.213a.33.33,0,0,1-.289-.489l.976-1.776a.33.33,0,0,1,.578.318l-.976,1.776a.331.331,0,0,1-.289.171m1.951-3.551a.324.324,0,0,1-.158-.041.329.329,0,0,1-.13-.448l.976-1.776a.33.33,0,0,1,.578.318l-.976,1.776a.33.33,0,0,1-.289.171m1.951-3.551a.324.324,0,0,1-.158-.041.33.33,0,0,1-.13-.448l.976-1.775a.33.33,0,1,1,.578.317l-.975,1.776a.332.332,0,0,1-.29.171m1.952-3.551a.33.33,0,0,1-.289-.489l.975-1.776a.33.33,0,0,1,.579.318l-.976,1.775a.33.33,0,0,1-.289.172m1.951-3.551a.325.325,0,0,1-.158-.041.329.329,0,0,1-.13-.448l.976-1.776a.33.33,0,0,1,.578.318l-.976,1.776a.33.33,0,0,1-.289.171" transform="translate(-140.281 -272.892)"/>
      <path id="패스_855" data-name="패스 855" class="cls-3" d="M187.759,301.446a.325.325,0,0,1-.158-.041.329.329,0,0,1-.13-.448l.477-.867a.33.33,0,0,1,.578.317l-.477.868a.329.329,0,0,1-.289.171" transform="translate(-151.396 -269.881)"/>
    </g>
  </g>
  <g id="그룹_517" data-name="그룹 517">
    <g id="그룹_516" data-name="그룹 516" class="cls-2">
      <path id="패스_857" data-name="패스 857" class="cls-10" d="M62.522,13.863l8.316,40.8L160.2,40.884,155.82,0Z" transform="translate(-33.295 0)"/>
      <path id="패스_858" data-name="패스 858" class="cls-3" d="M239.612,14.765a1.127,1.127,0,0,1-.138-.028.9.9,0,0,0,1.01-1.274.927.927,0,0,0-.539-.816.8.8,0,0,0-.769-.107c-.009,0-.015.009-.023.013a.789.789,0,0,0-.161-.036.939.939,0,0,0-1.016.69.9.9,0,0,0,.048.6c0,.017,0,.033,0,.05a1.1,1.1,0,0,0,.314.559.9.9,0,0,0,.4.294,1.379,1.379,0,0,0,.432.067c.115,0,.23,0,.345-.008l.1-.006m-1.051-.437.04.02c-.127-.029-.117-.06-.04-.02" transform="translate(-126.713 -6.649)"/>
      <path id="패스_859" data-name="패스 859" class="cls-3" d="M253.69,29.393c.114.187.24.371.372.55a.809.809,0,0,0,.382.444,1.269,1.269,0,0,0,.141.106.922.922,0,0,0,1.345-.545.866.866,0,0,0,.012-.091.793.793,0,0,0,.265-.7.881.881,0,0,0-.67-.744l-.044-.018c-.1-.042-.193-.086-.289-.129-.126-.057-.248-.106-.372-.149a.845.845,0,0,0-.81-.029.921.921,0,0,0-.479.949.846.846,0,0,0,.146.356m1.548-.885-.045-.031c-.007-.054.017-.1.045.031m.288,1.62.065-.041.018-.008c-.087.063-.1.066-.083.049" transform="translate(-135.018 -14.91)"/>
      <path id="패스_860" data-name="패스 860" class="cls-3" d="M209.288,17.637a1.726,1.726,0,0,0,.274.742.871.871,0,0,0,.172.181.946.946,0,0,0,.3.273,1.049,1.049,0,0,0,.533.108,1.439,1.439,0,0,0,.406-.061.967.967,0,0,0,.629-1.216,1.13,1.13,0,0,0-.266-.415l.023.024c-.02-.022-.039-.046-.058-.069a.994.994,0,0,0-.5-.338.906.906,0,0,0-.941-.231.891.891,0,0,0-.576,1" transform="translate(-111.448 -8.835)"/>
      <path id="패스_861" data-name="패스 861" class="cls-3" d="M186.7,25.667a1.813,1.813,0,0,0-.464-.835.84.84,0,0,0-.521-.191h.016a.37.37,0,0,1-.04-.006l-.014,0a1.866,1.866,0,0,1-.187-.064.878.878,0,0,0-1.127.492.893.893,0,0,0,.492,1.127c.058.029.12.051.181.074a1.31,1.31,0,0,0,.6.339.82.82,0,0,0,.8-.158.8.8,0,0,0,.259-.775" transform="translate(-98.149 -13.051)"/>
      <path id="패스_862" data-name="패스 862" class="cls-3" d="M174.224,45.392a1.81,1.81,0,0,0-.465-.835.84.84,0,0,0-.521-.191h.016a.391.391,0,0,1-.04-.006l-.014,0a1.865,1.865,0,0,1-.187-.064.877.877,0,0,0-1.127.492.893.893,0,0,0,.492,1.127,1.9,1.9,0,0,0,.181.073,1.306,1.306,0,0,0,.6.34.819.819,0,0,0,.8-.158.8.8,0,0,0,.259-.775" transform="translate(-91.507 -23.555)"/>
      <path id="패스_863" data-name="패스 863" class="cls-3" d="M211.618,64.308a2.133,2.133,0,0,0-.926-1.458.851.851,0,0,0-.423.074c-.021-.011-.039-.025-.06-.035a.935.935,0,0,0-1.127,1.432.984.984,0,0,0,.533.354c.023.015.047.029.071.042a3.1,3.1,0,0,0,1.112.295.813.813,0,0,0,.586-.233.847.847,0,0,0,.234-.47" transform="translate(-111.231 -33.443)"/>
      <path id="패스_864" data-name="패스 864" class="cls-3" d="M249.329,46.937a.8.8,0,0,0-.232-.7.8.8,0,0,0-.694-.762.851.851,0,0,0-.423.074c-.021-.011-.039-.025-.06-.035a.935.935,0,0,0-1.127,1.432.984.984,0,0,0,.533.354c.023.014.047.029.07.042a3.107,3.107,0,0,0,1.113.295.813.813,0,0,0,.586-.233.848.848,0,0,0,.234-.47" transform="translate(-131.313 -24.192)"/>
      <path id="패스_865" data-name="패스 865" class="cls-3" d="M205.723,84.62a2.133,2.133,0,0,0-.926-1.458.851.851,0,0,0-.423.074c-.021-.011-.039-.025-.06-.035a.935.935,0,0,0-1.127,1.432.984.984,0,0,0,.533.354c.023.014.047.029.07.042a3.117,3.117,0,0,0,1.113.295.813.813,0,0,0,.586-.233.848.848,0,0,0,.234-.47" transform="translate(-108.092 -44.26)"/>
      <path id="패스_866" data-name="패스 866" class="cls-3" d="M252.277,68.309a2.133,2.133,0,0,0-.926-1.458.851.851,0,0,0-.423.074c-.021-.011-.039-.025-.06-.035a.935.935,0,0,0-1.127,1.432.984.984,0,0,0,.533.354c.023.014.047.029.07.042a3.107,3.107,0,0,0,1.113.295.813.813,0,0,0,.586-.233.844.844,0,0,0,.234-.47" transform="translate(-132.883 -35.574)"/>
      <path id="패스_867" data-name="패스 867" class="cls-3" d="M264.341,80.484a2.133,2.133,0,0,0-.926-1.458.851.851,0,0,0-.423.074c-.021-.011-.039-.025-.06-.035a.935.935,0,0,0-1.127,1.432.984.984,0,0,0,.533.354c.023.014.047.029.07.042a3.107,3.107,0,0,0,1.113.295.813.813,0,0,0,.586-.233.847.847,0,0,0,.234-.47" transform="translate(-139.308 -42.057)"/>
      <path id="패스_868" data-name="패스 868" class="cls-3" d="M157.538,25.93a.8.8,0,0,0-.232-.7.8.8,0,0,0-.693-.762.852.852,0,0,0-.423.074c-.021-.011-.039-.025-.06-.035A.935.935,0,0,0,155,25.943a.984.984,0,0,0,.533.354c.023.014.047.029.071.042a3.1,3.1,0,0,0,1.112.295.815.815,0,0,0,.587-.233.847.847,0,0,0,.233-.47" transform="translate(-82.432 -13.005)"/>
      <path id="패스_869" data-name="패스 869" class="cls-3" d="M231.868,56.176a.948.948,0,0,0-.577-1.095c-.224-.095-.437-.218-.658-.322-.668-.316-1.616.018-1.461,1.265l.31.247a.919.919,0,0,0,.755.563v.008c.21,0,.416.045.626.055a.95.95,0,0,0,1.005-.722" transform="translate(-122.033 -29.102)"/>
      <path id="패스_870" data-name="패스 870" class="cls-3" d="M234.8,78.872a.948.948,0,0,0-.577-1.095c-.224-.095-.437-.217-.658-.322-.668-.316-1.616.018-1.462,1.265l.31.247a.918.918,0,0,0,.755.563v.008c.21,0,.416.045.626.055a.95.95,0,0,0,1.005-.722" transform="translate(-123.592 -41.188)"/>
      <path id="패스_871" data-name="패스 871" class="cls-3" d="M199.38,44.361a.863.863,0,0,0-.028-.21.754.754,0,0,0-.126-.541,1.757,1.757,0,0,0-1.014-.561,1.42,1.42,0,0,0-.684-.058.968.968,0,0,0-.754.235.979.979,0,0,0-.007,1.383.791.791,0,0,0,.508.265,1.3,1.3,0,0,0,.194.158,1.962,1.962,0,0,0,1.171.187.856.856,0,0,0,.74-.857m-1.038.532h0m.106.009.031,0-.032,0h0m-.1-.006h.007c.014.006.014.007-.007,0" transform="translate(-104.634 -22.882)"/>
      <path id="패스_872" data-name="패스 872" class="cls-3" d="M225.578,33.784a.863.863,0,0,0-.028-.21.754.754,0,0,0-.126-.541,1.757,1.757,0,0,0-1.014-.561,1.42,1.42,0,0,0-.684-.058.968.968,0,0,0-.754.235.979.979,0,0,0-.007,1.383.79.79,0,0,0,.508.265,1.3,1.3,0,0,0,.194.158,1.955,1.955,0,0,0,1.171.187.857.857,0,0,0,.74-.857m-1.038.532h0m.106.009.031,0-.032,0Zm-.1-.006h.007c.014.006.014.007-.007,0" transform="translate(-118.586 -17.25)"/>
      <path id="패스_873" data-name="패스 873" class="cls-3" d="M188.711,64.409a.788.788,0,0,0,.024-.567A.865.865,0,0,0,188.1,62.3c-.221,0-.434.054-.654.045a.991.991,0,0,0-.952.6.823.823,0,0,0-.049.383.922.922,0,0,0,.114,1.053,1.55,1.55,0,0,0,.587.383,3,3,0,0,0,.492.189.95.95,0,0,0,1.069-.548" transform="translate(-99.228 -33.179)"/>
      <path id="패스_874" data-name="패스 874" class="cls-3" d="M116.472,101.665a.788.788,0,0,0,.024-.568.865.865,0,0,0-.632-1.537c-.221,0-.434.053-.654.045a.99.99,0,0,0-.951.6.821.821,0,0,0-.049.383.922.922,0,0,0,.114,1.053,1.555,1.555,0,0,0,.587.383,3.04,3.04,0,0,0,.492.189.95.95,0,0,0,1.069-.549" transform="translate(-60.759 -53.019)"/>
      <path id="패스_875" data-name="패스 875" class="cls-3" d="M148.859,97.353a.788.788,0,0,0,.024-.567.865.865,0,0,0-.632-1.538c-.22,0-.433.053-.654.045a.991.991,0,0,0-.952.6.817.817,0,0,0-.049.383.922.922,0,0,0,.114,1.053,1.549,1.549,0,0,0,.587.383,2.993,2.993,0,0,0,.492.189.951.951,0,0,0,1.07-.548" transform="translate(-78.006 -50.723)"/>
      <path id="패스_876" data-name="패스 876" class="cls-3" d="M165.826,77.111h.006a1,1,0,0,0,.893-1.316,1.689,1.689,0,0,0-1.206-1.263,1.24,1.24,0,0,0-1.088.335c-.019,0-.036,0-.056,0a.966.966,0,0,0-.659.387.79.79,0,0,0-.1.8,1.725,1.725,0,0,0,.28.453.719.719,0,0,0,.183.234,1.976,1.976,0,0,0,1.565.412.763.763,0,0,0,.184-.037" transform="translate(-87.096 -39.679)"/>
      <path id="패스_877" data-name="패스 877" class="cls-3" d="M179.294,89.812l.113-.006a.923.923,0,0,0,.822-1.2,1.753,1.753,0,0,0-1.242-1.378,1.24,1.24,0,0,0-1.088.335c-.018,0-.036,0-.056,0a.966.966,0,0,0-.659.387.789.789,0,0,0-.1.8,11.044,11.044,0,0,0,.987,1c.044.087-.6-.376-.525-.31a1.976,1.976,0,0,0,1.565.412.758.758,0,0,0,.184-.037" transform="translate(-94.269 -46.442)"/>
      <path id="패스_878" data-name="패스 878" class="cls-3" d="M123.437,52.5a1.116,1.116,0,0,1-.139-.028.9.9,0,0,0,1.01-1.275.927.927,0,0,0-.539-.815.8.8,0,0,0-.769-.107.229.229,0,0,0-.023.013.789.789,0,0,0-.161-.036.939.939,0,0,0-1.016.69.9.9,0,0,0,.048.6c0,.017,0,.033,0,.05a1.1,1.1,0,0,0,.314.559.905.905,0,0,0,.4.294,1.393,1.393,0,0,0,.432.067c.115,0,.23,0,.345-.008l.1-.006m-1.052-.437.04.02c-.127-.029-.117-.06-.04-.02" transform="translate(-64.845 -26.745)"/>
      <path id="패스_879" data-name="패스 879" class="cls-3" d="M103.118,38.99a1.434,1.434,0,0,0,.36-.608.92.92,0,0,0,.025-.983.9.9,0,0,0-.069-.5.853.853,0,0,0-.86-.476h-.011a.765.765,0,0,0-.144.036c.04-.015.071-.025.1-.032H102.5c-.048,0-.1-.005-.143-.007a2.34,2.34,0,0,0-.458.013.807.807,0,0,0-.5.316c-.014.005-.027.007-.04.014a1.044,1.044,0,0,0-.583,1.241,2.452,2.452,0,0,0,.39.666,1.364,1.364,0,0,0,1.236.74.976.976,0,0,0,.718-.424m-1.832-1.024c0-.008,0-.017,0-.025l.008-.006c0,.01-.007.02-.011.03m-.037.644,0,0c.008.037.015.074.026.113l-.03-.116" transform="translate(-53.643 -19.394)"/>
      <path id="패스_880" data-name="패스 880" class="cls-3" d="M127.379,20.158c.05-.01.044-.024-.058.006l.047,0,.011,0" transform="translate(-67.803 -10.728)"/>
      <path id="패스_881" data-name="패스 881" class="cls-3" d="M143.586,40.108c.114.187.24.371.372.55a.809.809,0,0,0,.382.444,1.271,1.271,0,0,0,.141.106.922.922,0,0,0,1.346-.545c.007-.03.007-.061.011-.091a.794.794,0,0,0,.265-.7.881.881,0,0,0-.67-.744l-.044-.018c-.1-.042-.193-.086-.289-.129-.126-.057-.248-.106-.372-.149a.845.845,0,0,0-.81-.029.92.92,0,0,0-.479.949.847.847,0,0,0,.146.356m1.548-.885-.045-.031c-.007-.054.018-.1.045.031m.288,1.62.065-.041.018-.008c-.087.063-.1.066-.083.049" transform="translate(-76.384 -20.616)"/>
      <path id="패스_882" data-name="패스 882" class="cls-3" d="M127.115,27.046a1.712,1.712,0,0,0,.274.742.859.859,0,0,0,.172.181.94.94,0,0,0,.3.273,1.044,1.044,0,0,0,.533.108,1.455,1.455,0,0,0,.406-.06.967.967,0,0,0,.629-1.216,1.13,1.13,0,0,0-.265-.415l.022.024c-.02-.022-.039-.045-.058-.069a.99.99,0,0,0-.5-.338.9.9,0,0,0-.94-.231.89.89,0,0,0-.576,1" transform="translate(-67.688 -13.845)"/>
      <path id="패스_883" data-name="패스 883" class="cls-3" d="M71.942,35.966a1.818,1.818,0,0,0-.464-.835.836.836,0,0,0-.521-.19h.016a.389.389,0,0,1-.04-.006l-.014,0c-.063-.02-.126-.038-.187-.064a.878.878,0,0,0-1.127.492.893.893,0,0,0,.492,1.127,1.907,1.907,0,0,0,.181.074,1.314,1.314,0,0,0,.6.34.821.821,0,0,0,.8-.158.8.8,0,0,0,.259-.775" transform="translate(-37.038 -18.536)"/>
      <path id="패스_884" data-name="패스 884" class="cls-3" d="M106.58,68.309a2.134,2.134,0,0,0-.926-1.458.85.85,0,0,0-.423.074c-.021-.011-.039-.025-.06-.035a.933.933,0,0,0-1.325.712.948.948,0,0,0,.2.72.984.984,0,0,0,.532.354c.024.014.047.029.071.042a3.1,3.1,0,0,0,1.112.295.816.816,0,0,0,.587-.233.856.856,0,0,0,.233-.47" transform="translate(-55.295 -35.574)"/>
      <path id="패스_885" data-name="패스 885" class="cls-3" d="M147.662,70.037a2.133,2.133,0,0,0-.926-1.458.851.851,0,0,0-.423.074c-.021-.011-.039-.025-.06-.035a.935.935,0,0,0-1.127,1.432.984.984,0,0,0,.533.354c.023.014.047.029.07.042a3.116,3.116,0,0,0,1.113.295.813.813,0,0,0,.586-.233.848.848,0,0,0,.234-.47" transform="translate(-77.172 -36.494)"/>
      <path id="패스_886" data-name="패스 886" class="cls-3" d="M100.53,89.184a2.132,2.132,0,0,0-.926-1.458.852.852,0,0,0-.423.073c-.021-.011-.039-.025-.06-.035A.935.935,0,0,0,97.995,89.2a.987.987,0,0,0,.533.354c.023.014.047.029.071.042a3.092,3.092,0,0,0,1.112.295.811.811,0,0,0,.586-.233.849.849,0,0,0,.234-.471" transform="translate(-52.073 -46.69)"/>
      <path id="패스_887" data-name="패스 887" class="cls-3" d="M127.294,82.232a.948.948,0,0,0-.577-1.095c-.225-.095-.438-.218-.658-.322-.668-.316-1.616.018-1.462,1.265l.31.247a.919.919,0,0,0,.755.563V82.9c.21,0,.416.045.625.055a.951.951,0,0,0,1.006-.722" transform="translate(-66.343 -42.978)"/>
      <path id="패스_888" data-name="패스 888" class="cls-3" d="M84.278,54.067a.864.864,0,0,0-.028-.211.754.754,0,0,0-.126-.541,1.757,1.757,0,0,0-1.014-.561,1.42,1.42,0,0,0-.684-.058.938.938,0,0,0-.761,1.618.791.791,0,0,0,.508.265,1.3,1.3,0,0,0,.194.158,1.955,1.955,0,0,0,1.171.187.856.856,0,0,0,.74-.856M83.24,54.6h0m.106.009.031,0-.032,0Zm-.1-.006h.007c.014.006.014.007-.007,0" transform="translate(-43.339 -28.051)"/>
      <path id="패스_889" data-name="패스 889" class="cls-3" d="M82.126,81.857a.788.788,0,0,0,.024-.567.865.865,0,0,0-.632-1.538c-.221,0-.434.053-.654.045a.99.99,0,0,0-.951.6.818.818,0,0,0-.049.383.922.922,0,0,0,.114,1.053,1.55,1.55,0,0,0,.587.383,3,3,0,0,0,.492.189.95.95,0,0,0,1.069-.548" transform="translate(-42.468 -42.471)"/>
      <path id="패스_890" data-name="패스 890" class="cls-3" d="M87.615,106.6c.038,0,.074,0,.113-.006a.923.923,0,0,0,.822-1.2,1.753,1.753,0,0,0-1.242-1.378,1.238,1.238,0,0,0-1.088.335c-.019,0-.036,0-.057,0a.966.966,0,0,0-.659.387.79.79,0,0,0-.1.8,1.726,1.726,0,0,0,.28.452.719.719,0,0,0,.183.234,1.978,1.978,0,0,0,1.565.412.742.742,0,0,0,.184-.038" transform="translate(-45.447 -55.383)"/>
      <path id="패스_891" data-name="패스 891" class="cls-11" d="M147.61,58.821a.562.562,0,0,1-.558-.5L142.365,17.3a.562.562,0,0,1,1.117-.128L148.169,58.2a.562.562,0,0,1-.495.622.6.6,0,0,1-.065,0" transform="translate(-75.812 -8.88)"/>
      <path id="패스_892" data-name="패스 892" class="cls-11" d="M70.951,55.362a.562.562,0,0,1-.1-1.115l91.014-16.424a.562.562,0,1,1,.2,1.106L71.051,55.353a.566.566,0,0,1-.1.009" transform="translate(-37.485 -20.137)"/>
      <path id="패스_893" data-name="패스 893" class="cls-11" d="M137.461,49.036a.565.565,0,0,1-.08-.006c-4.006-.46-7.4-2.175-9.3-4.706a4.322,4.322,0,0,1-.725-4.035,3.006,3.006,0,0,1,3.5-1.266,6.345,6.345,0,0,1,2.884,1.963,19.051,19.051,0,0,1,2.611,3.5,16.485,16.485,0,0,1,.237-2.286c.382-2.22,1.456-3.052,2.289-3.358a3.5,3.5,0,0,1,3.639.957,3.91,3.91,0,0,1,.906,3.334,7.173,7.173,0,0,1-1.371,2.962c-.778,1.09-3.6,2.543-4.332,2.881-.024.011-.05.021-.076.03a.612.612,0,0,1-.181.029m-7.541-8.949a1.627,1.627,0,0,0-1.489.7,3.15,3.15,0,0,0,.6,2.82,11.828,11.828,0,0,0,7.546,4.106,17.817,17.817,0,0,0-3.7-5.916,5.285,5.285,0,0,0-2.329-1.63,2.362,2.362,0,0,0-.623-.082m10-.236a1.827,1.827,0,0,0-.629.107c-.785.288-1.3,1.111-1.529,2.444a12.68,12.68,0,0,0,.084,5.192,12.292,12.292,0,0,0,3.242-2.188,6.072,6.072,0,0,0,1.166-2.471,2.734,2.734,0,0,0-.611-2.332,2.409,2.409,0,0,0-1.724-.752" transform="translate(-67.693 -20.591)"/>
      <path id="패스_894" data-name="패스 894" class="cls-11" d="M132.372,65.979a.594.594,0,0,1-.223-1.144,13.858,13.858,0,0,0,5.268-4.114,4.161,4.161,0,0,0,1.307-2.632.594.594,0,0,1,.567-.62.606.606,0,0,1,.62.567,5.216,5.216,0,0,1-1.591,3.457,14.976,14.976,0,0,1-5.726,4.442.583.583,0,0,1-.222.043" transform="translate(-70.176 -30.604)"/>
      <path id="패스_895" data-name="패스 895" class="cls-11" d="M158.721,63.167a18.439,18.439,0,0,1-5.8-.94,10.114,10.114,0,0,1-3-1.5,5.016,5.016,0,0,1-1.907-2.765.594.594,0,0,1,1.158-.265,3.838,3.838,0,0,0,1.474,2.088A9,9,0,0,0,153.3,61.1a17.216,17.216,0,0,0,5.834.873.585.585,0,0,1,.609.578.594.594,0,0,1-.579.609q-.221.006-.443.006" transform="translate(-78.817 -30.479)"/>
      <path id="패스_896" data-name="패스 896" class="cls-12" d="M244.681,476.149a.168.168,0,0,1-.05-.008.175.175,0,0,1-.117-.218l11.249-37.349a19.138,19.138,0,0,0-3.207-17.232l-21.176-27.251a.175.175,0,0,1,.277-.216l21.176,27.251a19.488,19.488,0,0,1,3.266,17.549l-11.249,37.348a.176.176,0,0,1-.168.125" transform="translate(-123.197 -209.716)"/>
      <path id="패스_897" data-name="패스 897" class="cls-12" d="M56.508,475.3a.176.176,0,0,1-.109-.313L81.852,454.78a30.907,30.907,0,0,0,9.823-13.619l13.024-35.7a.175.175,0,1,1,.329.121L92,441.281a31.253,31.253,0,0,1-9.934,13.773L56.616,475.26a.171.171,0,0,1-.108.038" transform="translate(-29.999 -215.862)"/>
      <path id="패스_898" data-name="패스 898" class="cls-12" d="M170.323,235.521a.175.175,0,0,1-.14-.28,7.991,7.991,0,0,0,1.537-4.016.163.163,0,0,1,.191-.159.174.174,0,0,1,.158.19,8.237,8.237,0,0,1-1.605,4.2.176.176,0,0,1-.141.07" transform="translate(-90.609 -123.048)"/>
      <path id="패스_899" data-name="패스 899" class="cls-12" d="M180.186,236.715a.175.175,0,0,1-.175-.167c-.09-1.919-.131-3.866-.121-5.785a.175.175,0,0,1,.175-.174h0a.175.175,0,0,1,.174.176c-.01,1.913.031,3.853.121,5.766a.175.175,0,0,1-.167.184Z" transform="translate(-95.797 -122.796)"/>
      <path id="패스_900" data-name="패스 900" class="cls-12" d="M187.725,234.965a.175.175,0,0,1-.166-.121,10.4,10.4,0,0,1-.522-3.006.176.176,0,0,1,.171-.18.182.182,0,0,1,.18.171,10.072,10.072,0,0,0,.5,2.906.176.176,0,0,1-.111.222.189.189,0,0,1-.055.008" transform="translate(-99.603 -123.366)"/>
      <path id="패스_901" data-name="패스 901" class="cls-12" d="M40.846,130.149a.181.181,0,0,1-.077-.017.176.176,0,0,1-.081-.234c.878-1.817,1.7-3.687,2.456-5.56a.176.176,0,0,1,.326.131c-.755,1.879-1.584,3.758-2.466,5.581a.174.174,0,0,1-.158.1" transform="translate(-21.658 -66.156)"/>
      <path id="패스_902" data-name="패스 902" class="cls-12" d="M49.731,135.166a.18.18,0,0,1-.072-.015.175.175,0,0,1-.087-.232,67.413,67.413,0,0,0,2.66-6.825.175.175,0,0,1,.333.11,67.74,67.74,0,0,1-2.674,6.861.174.174,0,0,1-.159.1" transform="translate(-26.39 -68.15)"/>
      <path id="패스_903" data-name="패스 903" class="cls-12" d="M62.447,137.194a.166.166,0,0,1-.05-.007.174.174,0,0,1-.118-.217l1.755-5.917a.175.175,0,1,1,.336.1l-1.755,5.916a.175.175,0,0,1-.168.126" transform="translate(-33.162 -69.723)"/>
      <path id="패스_904" data-name="패스 904" class="cls-12" d="M73.232,140.078a.175.175,0,0,1-.175-.175,12.394,12.394,0,0,1,1.374-5.686.175.175,0,1,1,.311.161,12.045,12.045,0,0,0-1.335,5.525.175.175,0,0,1-.175.176Z" transform="translate(-38.905 -71.424)"/>
      <path id="패스_905" data-name="패스 905" class="cls-12" d="M271.661,113.055a.175.175,0,0,1-.175-.173,27.833,27.833,0,0,0-.964-6.965.175.175,0,1,1,.338-.091,28.173,28.173,0,0,1,.977,7.053.175.175,0,0,1-.173.177Z" transform="translate(-144.058 -56.286)"/>
      <path id="패스_906" data-name="패스 906" class="cls-12" d="M284.491,111.946a.175.175,0,0,1-.167-.124,29.612,29.612,0,0,1-1.3-7.706.175.175,0,1,1,.351-.012,29.272,29.272,0,0,0,1.285,7.615.175.175,0,0,1-.115.219.166.166,0,0,1-.052.008" transform="translate(-150.719 -55.349)"/>
      <path id="패스_907" data-name="패스 907" class="cls-12" d="M293.134,111.863a.175.175,0,0,1-.17-.132,55.865,55.865,0,0,1-1.32-7.237.175.175,0,0,1,.348-.04,55.485,55.485,0,0,0,1.312,7.192.175.175,0,0,1-.127.213.169.169,0,0,1-.043.006" transform="translate(-155.31 -55.542)"/>
      <path id="패스_908" data-name="패스 908" class="cls-12" d="M303.013,107.006a.175.175,0,0,1-.169-.127l-1.1-3.891a.175.175,0,0,1,.337-.1l1.1,3.891a.175.175,0,0,1-.121.216.168.168,0,0,1-.048.007" transform="translate(-160.684 -54.726)"/>
      <path id="패스_909" data-name="패스 909" class="cls-12" d="M91.673,265.5l7.055,11.364a3.236,3.236,0,0,0,1.251,1c.149.078.81.36.552-.055l-7.055-11.364a3.241,3.241,0,0,0-1.251-1c-.149-.077-.81-.36-.552.055" transform="translate(-48.787 -141.271)"/>
      <path id="패스_910" data-name="패스 910" class="cls-12" d="M247.841,252.8a52.193,52.193,0,0,1-2.923,16.624c-.076.218.422.691.5.462a52.546,52.546,0,0,0,2.94-16.73c0-.214-.515-.659-.518-.356" transform="translate(-130.423 -134.57)"/>
      <path id="패스_911" data-name="패스 911" class="cls-12" d="M180.266,302.6q-7.543,11.2-15.974,21.774-2.417,3.028-4.905,6c-.085.1.5.455.638.293q8.668-10.359,16.479-21.395,2.238-3.164,4.4-6.379c.085-.126-.525-.46-.638-.292" transform="translate(-84.874 -161.118)"/>
      <path id="패스_912" data-name="패스 912" class="cls-12" d="M270.566,77.267a2.9,2.9,0,0,1,.713.34,3.207,3.207,0,0,1,.645.558,3.462,3.462,0,0,1,.781,1.533c.051.223.7.431.624.105a4.161,4.161,0,0,0-2.773-2.934c-.1-.031-.314-.063-.319.092s.215.27.329.307" transform="translate(-143.91 -40.921)"/>
      <path id="패스_913" data-name="패스 913" class="cls-12" d="M69.525,118.207a7.006,7.006,0,0,1,6.624-1.593,1.149,1.149,0,0,0,.432.006c.038,0,.278-.067.24-.079a8.618,8.618,0,0,0-7.973,1.686c-.051.045.231.045.249.045.1,0,.341.012.428-.065" transform="translate(-36.661 -61.881)"/>
    </g>
  </g>
</svg>
