<svg id="그룹_511" data-name="그룹 511" xmlns="http://www.w3.org/2000/svg" xmlns:xlink="http://www.w3.org/1999/xlink" width="230.798" height="265.6" viewBox="0 0 230.798 265.6">
  <defs>
    <style>
      .cls-1 {
        fill: none;
      }

      .cls-2 {
        clip-path: url(#clip-path);
      }

      .cls-3 {
        fill: #cc7a68;
      }

      .cls-4 {
        fill: #faa;
      }

      .cls-5 {
        fill: #9e7836;
      }

      .cls-6 {
        fill: #fff;
      }

      .cls-7 {
        fill: #d64245;
      }

      .cls-8 {
        fill: #255648;
      }

      .cls-9 {
        fill: #111a12;
      }

      .cls-10 {
        fill: #d52828;
      }
    </style>
    <clipPath id="clip-path">
      <rect id="사각형_330" data-name="사각형 330" class="cls-1" width="230.798" height="265.6"/>
    </clipPath>
  </defs>
  <g id="그룹_510" data-name="그룹 510" class="cls-2">
    <path id="패스_740" data-name="패스 740" class="cls-3" d="M214.252,128.035a5.831,5.831,0,0,1,.655,2.343c.072,1.238-.126,2.477.676,3.546.986,1.314,2.776,1.3,4.24,1.6a10.364,10.364,0,0,1,5.492,3.354,17.572,17.572,0,0,1,3.22,5.655,13.008,13.008,0,0,1,.874,6.677,12.748,12.748,0,0,1-3.28,5.958,11.521,11.521,0,0,1-4.44,3.435,15.426,15.426,0,0,1-4.906.641,61.2,61.2,0,0,1-14.159-1.136,43.144,43.144,0,0,1-14.835-6.188,22.863,22.863,0,0,1-4.114-3.359,13.766,13.766,0,0,1-3.814-8.038c-.165-2.636.958-4.8,2.958-5.7a7.459,7.459,0,0,0,3.338-2.325c1.072-1.6-.144-1.664.779-4.763.323-1.085,1.184-1.387,1.773-2.2,1.126-1.546,1.546-3.7,2.3-5.449a18.192,18.192,0,0,1,1.54-2.931,8.371,8.371,0,0,1,4.015-3.357,7.178,7.178,0,0,1,5.54.455,9.871,9.871,0,0,1,4.019,3.944,12.6,12.6,0,0,0,2.35,3.606c1.059.9,2.494,1.206,3.674,1.937a5.9,5.9,0,0,1,2.1,2.29" transform="translate(-95.278 -61.159)"/>
    <path id="패스_741" data-name="패스 741" class="cls-4" d="M191.073,319.678l9.953,65.361,24.781-5.51-11.4-72.37Z" transform="translate(-101.226 -162.725)"/>
    <path id="패스_742" data-name="패스 742" class="cls-5" d="M209.516,528.083s-33.189,30.093,19.056-.276a9.144,9.144,0,0,1,1.1,1.43c.877,1.641,7.283,1.037,5.619-5.557l-.789-3.127Z" transform="translate(-105.491 -275.776)"/>
    <path id="패스_743" data-name="패스 743" class="cls-6" d="M211.074,457.508l4.773,33.886s-8.443,8.873,2.552,4.318a166.732,166.732,0,0,0,22.435-11.85L235.678,451.3Z" transform="translate(-111.822 -239.087)"/>
    <path id="패스_744" data-name="패스 744" class="cls-4" d="M37.5,81.553c.865,5.732,2.074,11.33,3.436,16.97.259,1.07-.241,3.108.514,3.934.664.726,1.9.466,2.833.362.079-.009.155-.016.228-.023,1.954-.157,4.2-.75,6.155-.522,1.654.192,2.958.591,4.673.24-.032-3.548-.477-6.905.047-10.483.388-2.653,1.645-5.812,2.4-8.368.279-.95,1.23-5.213-1.392-2.833a15.467,15.467,0,0,0-2.686,3.2c-.351-2.407-1.9-12.768-3.692-13.933-1.517-.985-1.391,1.849-1.526,2.907a38.246,38.246,0,0,0,.362,7.662,34.837,34.837,0,0,0-1.574-5.456c-.294-.776-1.251-4.193-1.988-4.656-1-.629-1.24.626-1.339,1.471-.311,2.649.786,6.6,1.517,9.117a47.838,47.838,0,0,0-1.85-5.509c-.442-1.033-2.668-6.571-3.785-4-.626,1.44.606,5.474,1.34,8.073-.182-.618-.844-2.105-.946-2.345-.336-.789-1.011-3.318-1.9-3.683-2.131-.88-.99,6.791-.828,7.866" transform="translate(-19.629 -37.03)"/>
    <path id="패스_745" data-name="패스 745" class="cls-4" d="M209.07,130.585a2.744,2.744,0,0,1,.471-1.375c7.321-11.221-5.969-20.481-12.533-9.529-1.429,2.384-1.423,9.333,1.531,11.9-.608,3.166-2.12,10.175-4.343,14.669l16.309.306c-2.688-6.212-1.8-12.088-1.435-15.973" transform="translate(-102.88 -60.806)"/>
    <path id="패스_746" data-name="패스 746" class="cls-3" d="M214.86,121.749c-.838-5.9-6.436-7.212-10.221-5.772-3.129-.118-6.375-.86-7.216,2.7a5.842,5.842,0,0,0,.519,3.92,14.944,14.944,0,0,0,6.421-2.213c.6-.382.967.823,1.4,1.333,3.924,4.572,5.831,3.857,7.9,4.123a7.447,7.447,0,0,0,1.2-4.09" transform="translate(-104.516 -61.158)"/>
    <path id="패스_747" data-name="패스 747" class="cls-6" d="M198.9,113.97c2.534,3.088,7.941,2.8,13.939,4.218,2.342.88,4.674-.489,4.095-3.126-.649-3.119-4.442-1.368-5.58-3.955-1.5-1.294-2.457.376-5.037-1.047-1.183-.3-2.3.474-3.427.759-1.847-.369-4.341,1.02-3.99,3.15" transform="translate(-105.353 -58.272)"/>
    <path id="패스_748" data-name="패스 748" class="cls-7" d="M217.59,90.693a41.665,41.665,0,0,1,.64,11.651,5.478,5.478,0,0,1-1.041,3.266c-.7,1.019-6.012-.9-10.8-2.008-1.694-.394-5.133-.564-4.428-2.612,0,0,2.558-2.805,4.045-4.087,7.491-6.455,11.585-6.21,11.585-6.21" transform="translate(-106.944 -48.046)"/>
    <path id="패스_749" data-name="패스 749" class="cls-6" d="M234.768,89.573c-3.067,1.244-2.439-3.614.012-2.923,1.378.674,1.605,2.267-.012,2.923" transform="translate(-123.278 -45.869)"/>
    <path id="패스_750" data-name="패스 750" class="cls-4" d="M229.8,134.566a2.624,2.624,0,1,1-2.748-2.493,2.624,2.624,0,0,1,2.748,2.493" transform="translate(-118.965 -69.967)"/>
    <path id="패스_751" data-name="패스 751" class="cls-7" d="M187.152,161.493s2.482-4.708,2.4-6.77l14.456.147s1.935,6.18,4.141,7.444L198.967,181.9l-11.942-4.971-3.332-11.618Z" transform="translate(-97.316 -81.969)"/>
    <path id="패스_752" data-name="패스 752" class="cls-7" d="M192.659,131.051s-7.364,30.131-37.924,18.219a79.351,79.351,0,0,0-28.993-5.014c-8.315.076-8.982,0-16.335.273-6.207-1.208-21.278,3.36-26.175,4.388-24.422,5.124-27.809-5.945-28.641-26.173-7.415,2.266-15.13,4.6-22.6,7.093,1.479,40.137,25.326,54.531,59.084,44.839.968,7.581,1.666,12.61,2.773,20.172,14.389,2.4,26.864,0,41.224,2.575,2.013-9.1,5.671-13.382,7.791-22.456,47.865,16.785,62.138-13.41,70.635-36.436,0,0-14.276-4.424-20.838-7.48" transform="translate(-16.948 -65.027)"/>
    <path id="패스_753" data-name="패스 753" class="cls-8" d="M205.317,204.047c-4.127-17.491-.26-35.4-.26-35.4a110.667,110.667,0,0,0-15.552-1.934s-9.322,16.256-15.788,25.983a55.56,55.56,0,0,1-3.469-14.759c-.34-4.053.819-10.681.819-10.681s-3.247.336-5.719.65c-1.039.132-4.533.718-4.533.718-6.8,12.16-7.564,23.049-8.022,31.273-.274,4.93,2.037,19.549,2.037,19.549l43.546,6.65s7.159-21.133,6.942-22.052" transform="translate(-80.933 -88.322)"/>
    <path id="패스_754" data-name="패스 754" class="cls-9" d="M154.828,265.826l-.387,5.465c20.906,6.5,45.612,5.171,45.612,5.171l1.335-4.211s-30.571-4.447-46.56-6.425" transform="translate(-81.819 -140.828)"/>
    <path id="패스_755" data-name="패스 755" class="cls-8" d="M180.546,287.674c-3.387-9.963-6.348-12.872-6.348-12.872s-43.558-8.8-65.154-12.11c0,0-5.132,27.09-2.8,34.165,6.877,20.829,29.964,31.523,45.411,33.41,19.472,2.378,42.024-3.915,42.024-3.915s-10.353-30.487-13.139-38.678" transform="translate(-55.965 -139.168)"/>
    <path id="패스_756" data-name="패스 756" class="cls-4" d="M72.111,262.85l-14.186,33.6,24.084,8.023,13.3-32.176a12.523,12.523,0,0,0-23.2-9.446" transform="translate(-30.687 -135.135)"/>
    <path id="패스_757" data-name="패스 757" class="cls-5" d="M15.43,402.379s-43.942,8.731,16.483,9.567a9.172,9.172,0,0,1,.209,1.793c-.093,1.858,5.712,4.636,7.677-1.875l.932-3.087Z" transform="translate(0 -213.171)"/>
    <path id="패스_758" data-name="패스 758" class="cls-6" d="M40.211,335.347l-13.319,31.52s-11.8,3.265-.033,5.016a166.765,166.765,0,0,0,25.335,1.381L64.538,342.7Z" transform="translate(-11.462 -177.659)"/>
    <path id="패스_759" data-name="패스 759" class="cls-6" d="M176.775,174.354a.889.889,0,0,0-.719-.409,1.308,1.308,0,0,0-1.156.563,1.5,1.5,0,0,0-.163,1.128.884.884,0,0,0,.814.682,1.659,1.659,0,0,0,.908-.2,1.462,1.462,0,0,0,.551-.684.89.89,0,0,0-.055-.881,1.992,1.992,0,0,0-.18-.2" transform="translate(-92.549 -92.152)"/>
    <path id="패스_760" data-name="패스 760" class="cls-6" d="M167.286,194.444a.9.9,0,0,0-.988-.03,1.233,1.233,0,0,0-.682.465,1.659,1.659,0,0,0-.129,1.624.982.982,0,0,0,1.021.6,1.613,1.613,0,0,0,1.264-.931,1.587,1.587,0,0,0,.091-.792c0-.04,0-.08,0-.12a.956.956,0,0,0-.579-.815" transform="translate(-87.591 -102.925)"/>
    <path id="패스_761" data-name="패스 761" class="cls-6" d="M242.992,357.271a.9.9,0,0,0-.988-.03,1.234,1.234,0,0,0-.682.465,1.659,1.659,0,0,0-.129,1.624.981.981,0,0,0,1.021.6,1.613,1.613,0,0,0,1.263-.931,1.587,1.587,0,0,0,.091-.792c0-.04,0-.08,0-.12a.956.956,0,0,0-.579-.815" transform="translate(-127.698 -189.187)"/>
    <path id="패스_762" data-name="패스 762" class="cls-6" d="M183.243,194.687a.972.972,0,0,0-1.35-.214l-.038.032a1.287,1.287,0,0,0-.427.412,1.4,1.4,0,0,0-.176.932.992.992,0,0,0,.31.648,1.039,1.039,0,0,0,.7.246,1.282,1.282,0,0,0,1.178-.685,1.391,1.391,0,0,0-.2-1.372" transform="translate(-96.016 -102.929)"/>
    <path id="패스_763" data-name="패스 763" class="cls-6" d="M178.574,216.623a1.373,1.373,0,0,0-.708.6,1.738,1.738,0,0,0-.025,1.165.783.783,0,0,0,.521.524.8.8,0,0,0,.725-.082,1.415,1.415,0,0,0,.584-.72.949.949,0,0,0,.012-.489c.012-.071.022-.142.032-.214a.794.794,0,0,0-.347-.727.822.822,0,0,0-.792-.06" transform="translate(-94.168 -114.723)"/>
    <path id="패스_764" data-name="패스 764" class="cls-6" d="M161.753,221.211a.657.657,0,0,0-.306-.156c-.013,0-.026,0-.04-.005a1.151,1.151,0,0,0-.411-.061.88.88,0,0,0-.744.508,1.4,1.4,0,0,0-.144.354.973.973,0,0,0,.2.786l.15.184a.668.668,0,0,0,.3.178.445.445,0,0,0,.221.05.674.674,0,0,0,.337-.026,1.076,1.076,0,0,0,.446-.268.712.712,0,0,0,.17-.172.962.962,0,0,0,.126-.388c-.012.064-.023.127-.035.19a2.052,2.052,0,0,0,.08-.481.879.879,0,0,0-.116-.434.673.673,0,0,0-.238-.258" transform="translate(-84.812 -117.075)"/>
    <path id="패스_765" data-name="패스 765" class="cls-6" d="M198.089,228.339a1.264,1.264,0,0,0-.326,1.433.949.949,0,0,0,.147.237.608.608,0,0,0,.676.534l-.07.014c.026-.005.073-.014.1-.016a.861.861,0,0,0,.593-.317c.009-.011.012-.024.02-.036a.848.848,0,0,0,.426-.607c.008-.022.015-.045.022-.067a.834.834,0,0,0-.084-1.047,1.1,1.1,0,0,0-1.505-.129" transform="translate(-104.719 -120.841)"/>
    <path id="패스_766" data-name="패스 766" class="cls-6" d="M192.323,393.123a1.264,1.264,0,0,0-.326,1.433.957.957,0,0,0,.147.237.608.608,0,0,0,.676.534l-.07.014c.026-.005.073-.014.1-.016a.861.861,0,0,0,.593-.317c.009-.011.012-.025.02-.036a.848.848,0,0,0,.426-.607c.008-.022.015-.045.022-.068a.833.833,0,0,0-.084-1.046,1.1,1.1,0,0,0-1.505-.129" transform="translate(-101.664 -208.14)"/>
    <path id="패스_767" data-name="패스 767" class="cls-6" d="M249.149,390.508a1.264,1.264,0,0,0-.326,1.433.958.958,0,0,0,.147.237.608.608,0,0,0,.676.534l-.07.014c.026-.005.073-.014.1-.016a.859.859,0,0,0,.593-.317c.009-.011.012-.024.02-.036a.847.847,0,0,0,.426-.607c.008-.022.015-.045.022-.068a.833.833,0,0,0-.084-1.046,1.1,1.1,0,0,0-1.505-.129" transform="translate(-131.769 -206.755)"/>
    <path id="패스_768" data-name="패스 768" class="cls-6" d="M199.453,233.328h0" transform="translate(-105.657 -123.612)"/>
    <path id="패스_769" data-name="패스 769" class="cls-6" d="M212.545,209.385a.845.845,0,0,0-.659-.4.783.783,0,0,0-.647.3l-.107.036a.794.794,0,0,0-.385.3.934.934,0,0,0-.139.5l-.01.157-.007.1c0,.008,0,.013,0,.026a.788.788,0,0,0,.381.851.8.8,0,0,0,.611.033.877.877,0,0,0,.554-.012,1.147,1.147,0,0,0,.671-1.581.854.854,0,0,0-.26-.295m.062,1.111v0h0m0,.012h0c0,.009,0,.01,0,0" transform="translate(-111.559 -110.713)"/>
    <path id="패스_770" data-name="패스 770" class="cls-6" d="M237.575,209.344a.838.838,0,0,0-.566-.029.89.89,0,0,0-.971.375,1.68,1.68,0,0,0-.244,1.491c0,.05.009.1.014.151a.86.86,0,0,0,.7.666.938.938,0,0,0,.719-.184,1.668,1.668,0,0,0,.777-.411,1.206,1.206,0,0,0,.366-1.016,1.258,1.258,0,0,0-.324-.692,1.454,1.454,0,0,0-.472-.351" transform="translate(-124.872 -110.871)"/>
    <path id="패스_771" data-name="패스 771" class="cls-6" d="M226.424,378.774a.838.838,0,0,0-.566-.029.89.89,0,0,0-.971.374,1.681,1.681,0,0,0-.244,1.491l.014.151a.861.861,0,0,0,.7.665.935.935,0,0,0,.719-.184,1.671,1.671,0,0,0,.777-.41,1.2,1.2,0,0,0,.366-1.016,1.259,1.259,0,0,0-.324-.692,1.445,1.445,0,0,0-.472-.351" transform="translate(-118.965 -200.631)"/>
    <path id="패스_772" data-name="패스 772" class="cls-6" d="M198.986,369.965a.839.839,0,0,0-.566-.029.89.89,0,0,0-.971.374,1.681,1.681,0,0,0-.244,1.491c0,.051.009.1.014.151a.861.861,0,0,0,.7.665.935.935,0,0,0,.719-.184,1.672,1.672,0,0,0,.777-.41,1.2,1.2,0,0,0,.366-1.016,1.258,1.258,0,0,0-.324-.692,1.445,1.445,0,0,0-.472-.351" transform="translate(-104.429 -195.965)"/>
    <path id="패스_773" data-name="패스 773" class="cls-6" d="M252.468,194.368a.74.74,0,0,0-.483-.115.8.8,0,0,0-.7.566,3.53,3.53,0,0,0-.085.819.689.689,0,0,0,.171.442.861.861,0,0,0,.057.238.769.769,0,0,0,1.192.245,1.232,1.232,0,0,0,.407-1.244c.008-.062.019-.12.022-.186a.8.8,0,0,0-.581-.766m.349,1.66c0-.016,0-.034,0-.05.014.126-.012.135,0,.05" transform="translate(-133.08 -102.909)"/>
    <path id="패스_774" data-name="패스 774" class="cls-6" d="M225.368,189.033a1.131,1.131,0,0,0-.432.282.539.539,0,0,0-.063.025.6.6,0,0,0-.289.72,1.352,1.352,0,0,1,.016.254,3.631,3.631,0,0,0,.057.578.688.688,0,0,0,.437.506.705.705,0,0,0,.5.108.86.86,0,0,0,.491-.247,1.075,1.075,0,0,0,.263-.628l.009-.054a.848.848,0,0,0,.1-.44c0-.021-.01-.042-.014-.064.01-.073.023-.146.03-.221a.8.8,0,0,0-1.1-.821" transform="translate(-118.964 -100.117)"/>
    <path id="패스_775" data-name="패스 775" class="cls-6" d="M242.683,175.453a.86.86,0,0,0-.832.242c-.01.009-.018.022-.027.032a.767.767,0,0,0-.392.927.621.621,0,0,0,.067.574.6.6,0,0,0,.392.244,1.085,1.085,0,0,0,.148-.007.809.809,0,0,0,.1.035.818.818,0,0,0,.824-.353,1.607,1.607,0,0,0,.346-.844.856.856,0,0,0-.63-.851m-.774,1.373,0,0,.036.029-.032-.024m.085.065a.88.88,0,0,0,.105.069l-.036-.016-.069-.053m.075.058h0l.007,0-.006,0m-.549-.547c-.015.035-.029.072-.042.11h0l.043-.109" transform="translate(-127.884 -92.936)"/>
    <path id="패스_776" data-name="패스 776" class="cls-6" d="M271.106,167.562l.007.027c-.007-.11-.031-.112-.007-.027" transform="translate(-143.62 -88.739)"/>
    <path id="패스_777" data-name="패스 777" class="cls-6" d="M250.4,263.4a.7.7,0,0,0-.641-.253.79.79,0,0,0-.69.757.871.871,0,0,0-.187.476.952.952,0,0,0,.292.807l.01.007a.8.8,0,0,0,1.479-.041,1.794,1.794,0,0,0,.14-.538c.007-.048.013-.1.019-.143.007-.021.012-.042.018-.063s.006-.02.01-.03h0c.016-.064.03-.13.041-.2a.769.769,0,0,0-.488-.777" transform="translate(-131.847 -139.404)"/>
    <path id="패스_778" data-name="패스 778" class="cls-6" d="M221.7,231.094a.95.95,0,0,0-.748-.378,1.808,1.808,0,0,0-.418.025l-.016,0-.018,0a.909.909,0,0,0-.453.187,1.093,1.093,0,0,0-.194.163,1.562,1.562,0,0,0-.326,1.044.6.6,0,0,0,.038.231v0a.94.94,0,0,0,.892.966,1.159,1.159,0,0,0,.428-.062,1.352,1.352,0,0,0,.328-.192c.047-.033.094-.065.139-.1a1.325,1.325,0,0,0,.309-.341,1.218,1.218,0,0,0,.164-.414c.021-.116.034-.234.048-.35.009-.08.04-.305,0,.013a.985.985,0,0,0-.166-.8" transform="translate(-116.3 -122.227)"/>
    <path id="패스_779" data-name="패스 779" class="cls-6" d="M254.8,332.7a.95.95,0,0,0-.748-.378,1.806,1.806,0,0,0-.419.025l-.016,0-.019,0a.914.914,0,0,0-.453.187,1.093,1.093,0,0,0-.194.163,1.562,1.562,0,0,0-.326,1.044.6.6,0,0,0,.038.231v0a.94.94,0,0,0,.892.966,1.158,1.158,0,0,0,.427-.062,1.353,1.353,0,0,0,.328-.192c.047-.033.094-.065.139-.1a1.325,1.325,0,0,0,.309-.341,1.218,1.218,0,0,0,.164-.414c.021-.115.034-.233.047-.35.009-.08.04-.305,0,.013a.985.985,0,0,0-.166-.8" transform="translate(-133.834 -176.057)"/>
    <path id="패스_780" data-name="패스 780" class="cls-6" d="M231.3,325.582a.95.95,0,0,0-.748-.378,1.808,1.808,0,0,0-.419.025l-.016,0-.018,0a.914.914,0,0,0-.453.187,1.093,1.093,0,0,0-.194.163,1.562,1.562,0,0,0-.326,1.044.6.6,0,0,0,.038.231v0a.94.94,0,0,0,.892.966,1.158,1.158,0,0,0,.428-.062,1.353,1.353,0,0,0,.328-.192c.047-.033.094-.065.139-.1a1.325,1.325,0,0,0,.309-.341,1.219,1.219,0,0,0,.164-.414c.021-.116.034-.234.048-.35.009-.08.04-.3,0,.013a.985.985,0,0,0-.166-.8" transform="translate(-121.384 -172.284)"/>
    <path id="패스_781" data-name="패스 781" class="cls-6" d="M142.368,313.5a.948.948,0,0,0-.748-.378,1.78,1.78,0,0,0-.418.025l-.016,0-.018,0a.909.909,0,0,0-.453.187,1.093,1.093,0,0,0-.194.163,1.562,1.562,0,0,0-.326,1.044.6.6,0,0,0,.038.231v0a.94.94,0,0,0,.892.966,1.158,1.158,0,0,0,.428-.062,1.352,1.352,0,0,0,.328-.192c.047-.033.094-.065.139-.1a1.325,1.325,0,0,0,.309-.341,1.217,1.217,0,0,0,.164-.414c.021-.115.034-.233.048-.35.009-.08.04-.305,0,.013a.985.985,0,0,0-.166-.8" transform="translate(-74.271 -165.881)"/>
    <path id="패스_782" data-name="패스 782" class="cls-6" d="M148.2,354.572a.95.95,0,0,0-.748-.378,1.8,1.8,0,0,0-.418.025l-.016,0-.018,0a.914.914,0,0,0-.453.187,1.09,1.09,0,0,0-.194.163,1.562,1.562,0,0,0-.326,1.044.6.6,0,0,0,.038.231v0a.94.94,0,0,0,.892.966,1.158,1.158,0,0,0,.427-.062,1.351,1.351,0,0,0,.328-.192c.047-.033.094-.065.139-.1a1.331,1.331,0,0,0,.309-.34,1.225,1.225,0,0,0,.164-.414c.021-.116.034-.234.048-.35.009-.08.04-.3,0,.013a.984.984,0,0,0-.166-.8" transform="translate(-77.36 -187.642)"/>
    <path id="패스_783" data-name="패스 783" class="cls-6" d="M164.039,374.932a.95.95,0,0,0-.748-.378,1.781,1.781,0,0,0-.418.025l-.016,0-.018,0a.914.914,0,0,0-.453.187,1.093,1.093,0,0,0-.194.163,1.562,1.562,0,0,0-.326,1.044.6.6,0,0,0,.038.231v0a.94.94,0,0,0,.892.966,1.158,1.158,0,0,0,.428-.062,1.353,1.353,0,0,0,.328-.192c.047-.033.094-.065.139-.1a1.325,1.325,0,0,0,.309-.341,1.218,1.218,0,0,0,.164-.414c.021-.115.034-.233.047-.35.009-.08.04-.305,0,.013a.985.985,0,0,0-.166-.8" transform="translate(-85.751 -198.428)"/>
    <path id="패스_784" data-name="패스 784" class="cls-6" d="M164.628,255.058a1.291,1.291,0,0,0-.6-.209.832.832,0,0,0-.591-.014.844.844,0,0,0-.274.165.808.808,0,0,0-.425.148.761.761,0,0,0-.266.837l0,.009a.633.633,0,0,0,.057.12c-.02-.032-.034-.058-.045-.079l0,.014c.008.042.012.085.019.127a2.055,2.055,0,0,0,.091.4.722.722,0,0,0,.366.386c.007.011.011.022.019.033a.933.933,0,0,0,1.19.293,2.194,2.194,0,0,0,.515-.458,1.218,1.218,0,0,0,.431-1.213.875.875,0,0,0-.5-.555m-.576,1.785h-.022l-.007-.006.028,0m.571-.08v0c.032-.014.063-.026.095-.042l-.1.047" transform="translate(-86.056 -134.981)"/>
    <path id="패스_785" data-name="패스 785" class="cls-6" d="M164.439,261.724c-.017-.041-.029-.034.015.05a.336.336,0,0,0-.012-.04l0-.009" transform="translate(-87.108 -138.642)"/>
    <path id="패스_786" data-name="패스 786" class="cls-6" d="M147.8,274.467c-.028,0-.055,0-.082.006a.708.708,0,0,0-.66-.109.786.786,0,0,0-.534.718c0,.014-.005.028-.008.041-.019.093-.041.184-.062.276-.027.12-.049.236-.065.352a.757.757,0,0,0,.117.715.823.823,0,0,0,.916.253.754.754,0,0,0,.286-.191c.144-.133.283-.276.417-.422a.724.724,0,0,0,.322-.413,1.122,1.122,0,0,0,.068-.142.823.823,0,0,0-.714-1.083m.229.322-.047-.05-.011-.014c.071.066.077.079.058.064m-1.368.537-.019.045c-.046.016-.089,0,.019-.045" transform="translate(-77.533 -145.33)"/>
    <path id="패스_787" data-name="패스 787" class="cls-6" d="M245.2,301.429c-.028,0-.055,0-.082.006a.71.71,0,0,0-.66-.109.786.786,0,0,0-.534.718c0,.014-.005.028-.008.042-.019.092-.041.184-.062.276-.028.12-.05.236-.065.352a.757.757,0,0,0,.117.715.822.822,0,0,0,.916.253.752.752,0,0,0,.286-.191c.144-.133.283-.276.417-.422a.724.724,0,0,0,.322-.413,1.177,1.177,0,0,0,.068-.142.824.824,0,0,0-.714-1.083m.229.322-.047-.05-.011-.014c.071.066.077.079.058.064m-1.368.537-.019.045c-.046.016-.089,0,.019-.045" transform="translate(-129.13 -159.614)"/>
    <path id="패스_788" data-name="패스 788" class="cls-6" d="M175.159,238.231c.144-.132.283-.276.417-.422a.721.721,0,0,0,.322-.413,1.115,1.115,0,0,0,.068-.142.824.824,0,0,0-.714-1.083c-.028,0-.055,0-.082.006a.708.708,0,0,0-.66-.109.786.786,0,0,0-.534.718l-.008.042c-.019.092-.041.184-.063.276-.027.12-.049.236-.065.352a.757.757,0,0,0,.117.715.822.822,0,0,0,.916.253.756.756,0,0,0,.286-.191m-1.047-1.2-.019.045c-.046.015-.089,0,.019-.045m1.368-.537c-.016-.016-.032-.033-.047-.05l-.01-.014c.07.066.076.079.057.064" transform="translate(-92.075 -125.042)"/>
    <path id="패스_789" data-name="패스 789" class="cls-6" d="M184.893,286.72a1.536,1.536,0,0,0,.6-.37.8.8,0,0,0,.129-.182.828.828,0,0,0,.185-.315.929.929,0,0,0,0-.487,1.313,1.313,0,0,0-.124-.345.865.865,0,0,0-1.177-.338,1.009,1.009,0,0,0-.316.306l.017-.024c-.016.022-.033.042-.05.063a.881.881,0,0,0-.208.5.807.807,0,0,0-.038.864.8.8,0,0,0,.978.329" transform="translate(-97.377 -150.76)"/>
    <path id="패스_790" data-name="패스 790" class="cls-6" d="M270.278,369.065a1.537,1.537,0,0,0,.6-.37.779.779,0,0,0,.128-.182.824.824,0,0,0,.185-.315.934.934,0,0,0,0-.487,1.314,1.314,0,0,0-.124-.345.865.865,0,0,0-1.177-.338,1.01,1.01,0,0,0-.316.306l.017-.024c-.016.022-.033.042-.05.063a.881.881,0,0,0-.208.5.808.808,0,0,0-.038.865.8.8,0,0,0,.978.329" transform="translate(-142.612 -194.385)"/>
    <path id="패스_791" data-name="패스 791" class="cls-6" d="M164.781,293.273a.791.791,0,0,0-.506-.292.819.819,0,0,0-.9.573,1.79,1.79,0,0,0-.113.522,4.708,4.708,0,0,0-.173.737.8.8,0,0,0,1.537.356.907.907,0,0,0,.175-.441c.01-.029.019-.059.029-.088a.368.368,0,0,0,.13-.11,1.082,1.082,0,0,0,.235-.541.731.731,0,0,0-.331-.669c-.028-.02-.054-.032-.081-.049" transform="translate(-86.396 -155.209)"/>
    <path id="패스_792" data-name="패스 792" class="cls-6" d="M216.651,347.435a.789.789,0,0,0-.505-.292.82.82,0,0,0-.9.573,1.79,1.79,0,0,0-.113.522,4.707,4.707,0,0,0-.173.737.8.8,0,0,0,1.537.356.909.909,0,0,0,.175-.441c.01-.029.019-.059.029-.088a.368.368,0,0,0,.13-.11,1.082,1.082,0,0,0,.235-.541.732.732,0,0,0-.331-.669c-.028-.02-.054-.032-.081-.049" transform="translate(-113.876 -183.903)"/>
    <path id="패스_793" data-name="패스 793" class="cls-6" d="M181.55,354.506a.7.7,0,0,0-.675-.505.726.726,0,0,0-.667.516,1.242,1.242,0,0,0-.239.514c-.009.038-.017.075-.024.113-.015.078-.025.156-.034.235v.016a.635.635,0,0,0,.1,1.014.8.8,0,0,0,.561.387.82.82,0,0,0,.907-.558c.007-.018.015-.035.022-.053s.049-.109.058-.129l.165-.36a.883.883,0,0,0-.135-.973c-.01-.074-.022-.147-.033-.217" transform="translate(-95.202 -187.541)"/>
    <path id="패스_794" data-name="패스 794" class="cls-6" d="M181.154,313.115a1.62,1.62,0,0,0-.83.2.747.747,0,0,0-.289.4l0-.014c0,.011-.01.022-.015.033l-.007.011a1.622,1.622,0,0,1-.1.145.785.785,0,0,0,.152,1.089.8.8,0,0,0,1.089-.152c.039-.044.072-.091.107-.138a1.173,1.173,0,0,0,.438-.437.732.732,0,0,0,.057-.727.711.711,0,0,0-.6-.409" transform="translate(-95.234 -165.881)"/>
    <path id="패스_795" data-name="패스 795" class="cls-6" d="M129.24,337.191a1.619,1.619,0,0,0-.65.553.75.75,0,0,0-.076.489l0-.015c0,.012,0,.024,0,.036v.014a1.549,1.549,0,0,1-.024.174.785.785,0,0,0,.629.9.8.8,0,0,0,.9-.629c.015-.056.024-.114.033-.171a1.172,1.172,0,0,0,.192-.589.732.732,0,0,0-.279-.674.711.711,0,0,0-.724-.091" transform="translate(-68.063 -178.602)"/>
    <path id="패스_796" data-name="패스 796" class="cls-6" d="M161.957,328.059a1.619,1.619,0,0,0-.65.553.747.747,0,0,0-.075.49l0-.015c0,.012,0,.024,0,.036s0,.009,0,.014a1.557,1.557,0,0,1-.024.174.785.785,0,0,0,.629.9.8.8,0,0,0,.9-.629c.015-.056.023-.114.033-.171a1.17,1.17,0,0,0,.192-.588.731.731,0,0,0-.279-.674.711.711,0,0,0-.724-.091" transform="translate(-85.396 -173.764)"/>
    <path id="패스_797" data-name="패스 797" class="cls-6" d="M193.3,252.11a1.9,1.9,0,0,0-1.115,1.067.761.761,0,0,0,.139.358c-.006.02-.015.039-.02.058a.835.835,0,0,0,1.452.736.878.878,0,0,0,.217-.529c.008-.023.017-.047.024-.069a2.781,2.781,0,0,0,.063-1.026.724.724,0,0,0-.308-.473.756.756,0,0,0-.452-.122" transform="translate(-101.812 -133.561)"/>
    <path id="패스_798" data-name="패스 798" class="cls-6" d="M211.794,263.008a.847.847,0,0,0-.858.7c-.044.214-.114.421-.166.633a.906.906,0,0,0,.472,1.071.842.842,0,0,0,1.053-.324l0,0a.821.821,0,0,0,.361-.761h.008c-.034-.185-.033-.372-.062-.558a.849.849,0,0,0-.809-.754" transform="translate(-111.645 -139.335)"/>
    <path id="패스_799" data-name="패스 799" class="cls-6" d="M198.267,330.1a.847.847,0,0,0-.858.7c-.044.214-.114.421-.166.633a.906.906,0,0,0,.472,1.071.842.842,0,0,0,1.053-.324l0,0a.822.822,0,0,0,.361-.761h.007c-.034-.185-.033-.372-.062-.558a.849.849,0,0,0-.809-.754" transform="translate(-104.478 -174.878)"/>
    <path id="패스_800" data-name="패스 800" class="cls-6" d="M218.414,286.442a.769.769,0,0,0-.18.061.672.672,0,0,0-.452.205,1.571,1.571,0,0,0-.313.987,1.267,1.267,0,0,0,.069.609.866.866,0,0,0,.339.62.875.875,0,0,0,1.213-.237.7.7,0,0,0,.143-.491,1.178,1.178,0,0,0,.1-.2,1.748,1.748,0,0,0-.042-1.058.765.765,0,0,0-.88-.5m.648.816h0v0m-.011-.095c0-.009,0-.018,0-.027,0,.009,0,.015,0,.028h0m.013.09v-.006c0-.014,0-.014,0,.006" transform="translate(-115.206 -151.743)"/>
    <path id="패스_801" data-name="패스 801" class="cls-6" d="M207.536,304.794a.77.77,0,0,0-.18.061.672.672,0,0,0-.452.205,1.571,1.571,0,0,0-.313.987,1.267,1.267,0,0,0,.069.609.866.866,0,0,0,.339.62.875.875,0,0,0,1.213-.237.7.7,0,0,0,.143-.491,1.184,1.184,0,0,0,.1-.2,1.749,1.749,0,0,0-.042-1.058.765.765,0,0,0-.88-.5m.647.816h0v0m-.011-.095c0-.009,0-.018,0-.027,0,.009,0,.015,0,.028h0m.013.09V305.6c0-.014,0-.014,0,.006" transform="translate(-109.443 -161.466)"/>
    <path id="패스_802" data-name="패스 802" class="cls-6" d="M233.4,249.014a.7.7,0,0,0-.5.079.773.773,0,0,0-1.236.823c.038.193.123.371.154.565a.885.885,0,0,0,.693.728.733.733,0,0,0,.344-.024.824.824,0,0,0,.9-.285,1.385,1.385,0,0,0,.233-.581,2.672,2.672,0,0,0,.079-.465.849.849,0,0,0-.668-.84" transform="translate(-122.716 -131.868)"/>
    <path id="패스_803" data-name="패스 803" class="cls-6" d="M250.2,229.425a.705.705,0,0,0-.5.079.773.773,0,0,0-1.236.823c.038.193.123.371.154.565a.885.885,0,0,0,.693.728.732.732,0,0,0,.344-.024.824.824,0,0,0,.9-.285,1.386,1.386,0,0,0,.233-.581,2.673,2.673,0,0,0,.079-.465.85.85,0,0,0-.668-.84" transform="translate(-131.616 -121.49)"/>
    <path id="패스_804" data-name="패스 804" class="cls-10" d="M393.841,149.989c-.267-.008-.534-.027-.8-.055a10.3,10.3,0,0,1-8.757-7.875c-.968-3.905-2.829-10.324-5.186-18.45-6.914-23.842-17.364-59.873-20.49-84.588C356.178,19.793,365.942,6.4,376.124,2.614a37.284,37.284,0,0,1,14.092-2.6c26.2.841,30.154,37.348,30.2,37.662a10.1,10.1,0,0,1-2.027,8.407,6.8,6.8,0,0,1-5.37,2.365h0a8.248,8.248,0,0,1-5.761-2.857c-1.7-1.823-2.73-4.936-3.822-8.234-.341-1.03-.691-2.085-1.07-3.128-1.81-4.981-5.132-15.3-12.168-14.693-3.593.309-7.242,1.346-9.733,3.91a12.244,12.244,0,0,0-3.391,9.586c1.682,27.394,14.429,69.253,21.279,91.741,1.83,6.009,3.275,10.755,3.911,13.284a10.351,10.351,0,0,1-.525,6.673c-1.57,3.555-4.3,5.373-7.9,5.258" transform="translate(-189.784 0)"/>
    <path id="패스_805" data-name="패스 805" class="cls-6" d="M424.82,259.182h0v0a70.118,70.118,0,0,1-14.963,13.583c.5,1.77.932,3.346,1.294,4.716,1.1-.585,2.2-1.182,3.276-1.8a76.987,76.987,0,0,0,12.656-9.057c-.427-1.41-.888-2.925-1.378-4.534l-.882-2.9" transform="translate(-217.131 -137.306)"/>
    <path id="패스_806" data-name="패스 806" class="cls-6" d="M410.916,208.4c-1.153-3.971-2.334-8.129-3.5-12.4-.731,1.162-1.482,2.312-2.274,3.435a67.426,67.426,0,0,1-11.776,12.912c.944,3.318,1.867,6.524,2.751,9.583a59.116,59.116,0,0,0,7.215-5.5,65.937,65.937,0,0,0,7.588-8.035" transform="translate(-208.394 -103.836)"/>
    <path id="패스_807" data-name="패스 807" class="cls-6" d="M395.167,150.633c-.877-3.563-1.716-7.136-2.5-10.682a67.01,67.01,0,0,1-5.876,7.886,70.074,70.074,0,0,1-8.824,8.253q1.032,4.015,2.1,8a75.993,75.993,0,0,0,6.879-5.223,73.371,73.371,0,0,0,8.22-8.236" transform="translate(-200.239 -74.143)"/>
    <path id="패스_808" data-name="패스 808" class="cls-6" d="M383.164,100.269c-.617-3.487-1.148-6.889-1.569-10.164a44.723,44.723,0,0,1-4.8,5.553,47.853,47.853,0,0,1-6.778,5.273,47.125,47.125,0,0,1-4.973,2.605q.693,3.446,1.478,7a49.647,49.647,0,0,0,8.032-3.9,57.814,57.814,0,0,0,8.608-6.368" transform="translate(-193.393 -47.736)"/>
    <path id="패스_809" data-name="패스 809" class="cls-6" d="M377.666,59.929c-.1-1.163-.193-2.306-.261-3.423a13.317,13.317,0,0,1,.514-4.71h0l.006-.02a32.9,32.9,0,0,1-5.839-1.217,42.606,42.606,0,0,1-6.6-2.85,41.169,41.169,0,0,1-5.023-3.4c0,.007,0,.014-.007.02l0,.007a38.021,38.021,0,0,0-1.6,7.365,46.972,46.972,0,0,0,17.3,7.927c.5.112,1,.21,1.507.3" transform="translate(-190.113 -23.473)"/>
    <path id="패스_810" data-name="패스 810" class="cls-6" d="M398.108,26.592a12.149,12.149,0,0,1,1.564-1.991,11.3,11.3,0,0,1,3.4-2.361,64.7,64.7,0,0,1-2.611-13.663,47.545,47.545,0,0,1,.022-6.4,45.881,45.881,0,0,0-5.156,1.59c-.252.093-.5.2-.754.3-.037.606-.066,1.211-.079,1.818a55.726,55.726,0,0,0,2.342,16.372c.409,1.448.837,2.89,1.27,4.332" transform="translate(-208.989 -1.154)"/>
    <path id="패스_811" data-name="패스 811" class="cls-6" d="M435.324,26.662c.087-.331.174-.661.266-.989q.334-1.193.723-2.371l.1-.294c.053-.157.11-.313.166-.468q.233-.647.483-1.288a43.794,43.794,0,0,1,4.187-8.159q.281-.427.573-.847c.1-.15.212-.3.317-.45l.036-.051c-.033.047-.171.241-.171.237-.007-.069.2-.265.234-.316q.634-.85,1.315-1.665c.13-.156.264-.308.4-.461a25.681,25.681,0,0,0-3.91-2.749A42.876,42.876,0,0,0,436.6,11,45.645,45.645,0,0,0,430.5,23.271a8.819,8.819,0,0,1,4.828,3.391" transform="translate(-228.067 -3.598)"/>
    <path id="패스_812" data-name="패스 812" class="cls-6" d="M468.149,54.218l0-.006c-.231-.759-.485-1.54-.76-2.335a25.822,25.822,0,0,0-4.354,1.891,33.229,33.229,0,0,0-10.189,8.956c.245.71.485,1.419.716,2.116.357,1.079.709,2.136,1.078,3.136a48.224,48.224,0,0,1,5.645-7.823,30.978,30.978,0,0,1,2.512-2.482l.162-.142.238-.2q.346-.281.7-.551.71-.54,1.455-1.031.339-.222.683-.434c.041-.025.107-.075.177-.125a.434.434,0,0,0,.108-.046c.544-.294,1.089-.581,1.651-.839l.181-.08,0-.009" transform="translate(-239.906 -27.483)"/>
    <path id="패스_813" data-name="패스 813" class="cls-4" d="M393.36,108.188a1.766,1.766,0,0,0-.9,1.4,1.7,1.7,0,0,0,.439.967c1.368,1.687,3.713,2.088,5.847,2.375a18.986,18.986,0,0,0-2.555.389c-.762.277-1.495.516-1.788,1.282a2.121,2.121,0,0,0,.359,1.89c1.049,1.545,3.024,2.064,4.829,2.471-1.445-.014-4,.076-3.517,2.224.39,1.724,3.225,2.324,4.63,2.667-1.559.088-3.251.435-3.129,1.887.21,2.506,3.066,2.787,4.815,2.437a2.15,2.15,0,0,0,1.731-2.306c-.069-.448-2.013-12.73-2.762-15a5.5,5.5,0,0,0-8-2.678" transform="translate(-207.917 -56.873)"/>
  </g>
</svg>
