<svg xmlns="http://www.w3.org/2000/svg" xmlns:xlink="http://www.w3.org/1999/xlink" width="241" height="235" viewBox="0 0 241 235">
  <defs>
    <style>
      .cls-1, .cls-5 {
        fill: #fff;
      }

      .cls-1 {
        stroke: #707070;
      }

      .cls-2 {
        fill: none;
      }

      .cls-3 {
        clip-path: url(#clip-path);
      }

      .cls-4 {
        clip-path: url(#clip-path-2);
      }

      .cls-6 {
        clip-path: url(#clip-path-3);
      }

      .cls-7 {
        fill: #ce955b;
      }

      .cls-8 {
        fill: #d93d3d;
      }

      .cls-9 {
        fill: #eb4644;
      }

      .cls-10 {
        fill: #d42528;
      }

      .cls-11 {
        fill: #2e86a3;
      }

      .cls-12 {
        fill: #d9a655;
      }

      .cls-13 {
        fill: #f05454;
      }

      .cls-14 {
        fill: #d64040;
      }

      .cls-15 {
        clip-path: url(#clip-path-5);
      }

      .cls-16 {
        fill: #c98336;
      }

      .cls-17 {
        fill: #1c453a;
      }
    </style>
    <clipPath id="clip-path">
      <rect id="사각형_575" data-name="사각형 575" class="cls-1" width="241" height="235" transform="translate(-7720 13690)"/>
    </clipPath>
    <clipPath id="clip-path-2">
      <rect id="사각형_333" data-name="사각형 333" class="cls-2" width="259.604" height="282.251"/>
    </clipPath>
    <clipPath id="clip-path-3">
      <path id="패스_957" data-name="패스 957" class="cls-2" d="M225.639,182.249a49.841,49.841,0,1,0,49.842-49.841,49.841,49.841,0,0,0-49.842,49.841" transform="translate(-225.639 -132.408)"/>
    </clipPath>
    <clipPath id="clip-path-5">
      <path id="패스_980" data-name="패스 980" class="cls-2" d="M57.367,333.668H0L7.452,403H234.418l6.167-69.332Z" transform="translate(0 -333.668)"/>
    </clipPath>
  </defs>
  <g id="마스크_그룹_830" data-name="마스크 그룹 830" class="cls-3" transform="translate(7720 -13690)">
    <g id="그룹_527" data-name="그룹 527" transform="translate(-7720.059 13690)">
      <g id="그룹_520" data-name="그룹 520">
        <g id="그룹_519" data-name="그룹 519" class="cls-4">
          <path id="패스_914" data-name="패스 914" class="cls-5" d="M325.322,182.25a49.841,49.841,0,1,0-49.842,49.842,49.842,49.842,0,0,0,49.842-49.842" transform="translate(-114.54 -67.214)"/>
        </g>
      </g>
      <g id="그룹_522" data-name="그룹 522" transform="translate(111.099 65.194)">
        <g id="그룹_521" data-name="그룹 521" class="cls-6">
          <path id="패스_915" data-name="패스 915" class="cls-7" d="M211.921,282.977c-6.306-.286-7.523.449-10.208,6.162.286-6.305-.449-7.523-6.162-10.208,6.305.286,7.522-.449,10.208-6.162-.286,6.306.449,7.523,6.162,10.208" transform="translate(-210.366 -203.659)"/>
          <path id="패스_916" data-name="패스 916" class="cls-7" d="M221.653,243.6c-6.306-.286-7.523.449-10.208,6.162.286-6.305-.449-7.523-6.162-10.208,6.305.286,7.522-.449,10.208-6.162-.286,6.306.449,7.523,6.162,10.208" transform="translate(-215.306 -183.671)"/>
          <path id="패스_917" data-name="패스 917" class="cls-7" d="M231.387,204.227c-6.306-.285-7.523.45-10.208,6.162.286-6.305-.449-7.522-6.162-10.208,6.305.286,7.523-.449,10.207-6.161-.285,6.305.45,7.522,6.162,10.207" transform="translate(-220.247 -163.684)"/>
          <path id="패스_918" data-name="패스 918" class="cls-7" d="M241.118,164.853c-6.306-.286-7.523.449-10.208,6.161.286-6.305-.449-7.523-6.162-10.207,6.305.286,7.523-.45,10.208-6.162-.286,6.305.449,7.522,6.162,10.208" transform="translate(-225.187 -143.696)"/>
          <path id="패스_919" data-name="패스 919" class="cls-7" d="M250.851,125.477c-6.306-.286-7.523.449-10.208,6.162.286-6.305-.449-7.522-6.162-10.208,6.305.286,7.522-.449,10.208-6.162-.286,6.306.449,7.523,6.162,10.208" transform="translate(-230.128 -123.708)"/>
          <path id="패스_920" data-name="패스 920" class="cls-7" d="M260.584,86.1c-6.306-.286-7.523.449-10.208,6.162.286-6.305-.449-7.522-6.162-10.208,6.305.286,7.522-.449,10.208-6.162-.286,6.306.449,7.523,6.162,10.208" transform="translate(-235.069 -103.72)"/>
          <path id="패스_921" data-name="패스 921" class="cls-7" d="M243.242,290.719c-6.306-.286-7.523.449-10.208,6.162.286-6.305-.449-7.522-6.162-10.208,6.305.286,7.523-.449,10.208-6.162-.286,6.306.449,7.523,6.162,10.208" transform="translate(-226.265 -207.589)"/>
          <path id="패스_922" data-name="패스 922" class="cls-7" d="M252.975,251.344c-6.306-.286-7.523.449-10.208,6.162.286-6.305-.449-7.523-6.162-10.208,6.305.286,7.522-.449,10.208-6.161-.286,6.306.449,7.523,6.162,10.208" transform="translate(-231.206 -187.601)"/>
          <path id="패스_923" data-name="패스 923" class="cls-7" d="M262.708,211.969c-6.306-.285-7.523.45-10.208,6.162.286-6.305-.449-7.522-6.162-10.208,6.305.287,7.522-.449,10.207-6.161-.286,6.305.45,7.523,6.162,10.207" transform="translate(-236.147 -167.614)"/>
          <path id="패스_924" data-name="패스 924" class="cls-7" d="M272.44,172.595c-6.306-.286-7.523.449-10.208,6.161.286-6.305-.449-7.522-6.162-10.207,6.305.285,7.523-.45,10.208-6.162-.286,6.305.449,7.522,6.162,10.208" transform="translate(-241.087 -147.626)"/>
          <path id="패스_925" data-name="패스 925" class="cls-7" d="M282.173,133.219c-6.306-.286-7.523.449-10.208,6.162.286-6.305-.449-7.523-6.162-10.208,6.305.286,7.523-.449,10.208-6.162-.286,6.306.449,7.523,6.162,10.208" transform="translate(-246.028 -127.638)"/>
          <path id="패스_926" data-name="패스 926" class="cls-7" d="M291.905,93.843c-6.306-.286-7.523.449-10.208,6.162.286-6.305-.449-7.522-6.162-10.208,6.305.286,7.522-.449,10.208-6.162-.286,6.306.449,7.523,6.162,10.208" transform="translate(-250.968 -107.65)"/>
          <path id="패스_927" data-name="패스 927" class="cls-7" d="M282.447,300.41c-6.306-.286-7.523.449-10.208,6.162.286-6.305-.449-7.522-6.162-10.208,6.305.286,7.522-.449,10.208-6.162-.286,6.306.449,7.523,6.162,10.208" transform="translate(-246.167 -212.508)"/>
          <path id="패스_928" data-name="패스 928" class="cls-7" d="M292.179,261.034c-6.306-.286-7.523.449-10.208,6.162.286-6.305-.449-7.522-6.162-10.208,6.305.286,7.522-.449,10.208-6.162-.286,6.306.449,7.523,6.162,10.208" transform="translate(-251.107 -192.52)"/>
          <path id="패스_929" data-name="패스 929" class="cls-7" d="M301.912,221.659c-6.306-.285-7.523.45-10.208,6.162.286-6.305-.449-7.522-6.162-10.208,6.305.287,7.523-.449,10.207-6.161-.286,6.305.449,7.523,6.162,10.207" transform="translate(-256.048 -172.533)"/>
          <path id="패스_930" data-name="패스 930" class="cls-7" d="M311.645,182.285c-6.305-.286-7.523.449-10.208,6.161.286-6.305-.449-7.523-6.162-10.207,6.305.285,7.523-.45,10.208-6.162-.286,6.305.449,7.523,6.162,10.208" transform="translate(-260.988 -152.545)"/>
          <path id="패스_931" data-name="패스 931" class="cls-7" d="M321.377,142.909c-6.306-.286-7.523.449-10.208,6.162.286-6.305-.449-7.522-6.162-10.208,6.305.286,7.523-.449,10.208-6.162-.286,6.306.449,7.523,6.161,10.208" transform="translate(-265.929 -132.557)"/>
          <path id="패스_932" data-name="패스 932" class="cls-7" d="M331.11,103.534c-6.306-.286-7.523.449-10.208,6.162.286-6.305-.449-7.522-6.162-10.208,6.305.286,7.523-.449,10.208-6.162-.286,6.306.449,7.523,6.162,10.208" transform="translate(-270.869 -112.569)"/>
          <path id="패스_933" data-name="패스 933" class="cls-7" d="M321.65,310.1c-6.306-.286-7.523.449-10.208,6.162.286-6.305-.449-7.523-6.162-10.208,6.305.286,7.522-.449,10.208-6.162-.286,6.306.449,7.523,6.162,10.208" transform="translate(-266.067 -217.427)"/>
          <path id="패스_934" data-name="패스 934" class="cls-7" d="M331.382,270.724c-6.306-.286-7.523.449-10.208,6.162.286-6.305-.449-7.522-6.162-10.208,6.305.286,7.522-.449,10.208-6.162-.286,6.306.449,7.523,6.162,10.208" transform="translate(-271.007 -197.439)"/>
          <path id="패스_935" data-name="패스 935" class="cls-7" d="M341.116,231.349c-6.306-.285-7.523.45-10.208,6.162.286-6.305-.449-7.522-6.162-10.208,6.305.286,7.522-.449,10.207-6.161-.286,6.305.45,7.522,6.162,10.207" transform="translate(-275.948 -177.452)"/>
          <path id="패스_936" data-name="패스 936" class="cls-7" d="M350.848,191.975c-6.306-.286-7.523.449-10.208,6.161.286-6.305-.449-7.523-6.162-10.207,6.305.285,7.523-.45,10.208-6.162-.286,6.305.449,7.522,6.162,10.208" transform="translate(-280.888 -157.464)"/>
          <path id="패스_937" data-name="패스 937" class="cls-7" d="M360.581,152.6c-6.306-.286-7.523.449-10.208,6.162.286-6.305-.449-7.523-6.162-10.208,6.305.286,7.523-.449,10.208-6.162-.286,6.306.449,7.523,6.162,10.208" transform="translate(-285.829 -137.476)"/>
          <path id="패스_938" data-name="패스 938" class="cls-7" d="M370.314,113.224c-6.306-.286-7.523.449-10.208,6.162.286-6.305-.449-7.522-6.162-10.208,6.305.286,7.523-.449,10.208-6.162-.286,6.306.449,7.523,6.162,10.208" transform="translate(-290.77 -117.488)"/>
          <path id="패스_939" data-name="패스 939" class="cls-7" d="M360.854,319.79c-6.306-.286-7.523.449-10.208,6.162.286-6.305-.449-7.523-6.162-10.208,6.305.286,7.523-.449,10.208-6.162-.286,6.306.449,7.523,6.162,10.208" transform="translate(-285.968 -222.346)"/>
          <path id="패스_940" data-name="패스 940" class="cls-7" d="M370.587,280.415c-6.306-.286-7.523.449-10.208,6.162.286-6.305-.449-7.522-6.162-10.208,6.305.286,7.523-.449,10.208-6.162-.286,6.306.449,7.523,6.162,10.208" transform="translate(-290.909 -202.358)"/>
          <path id="패스_941" data-name="패스 941" class="cls-7" d="M380.32,241.04c-6.306-.285-7.523.45-10.208,6.162.286-6.305-.449-7.522-6.161-10.208,6.305.286,7.522-.449,10.207-6.161-.285,6.305.449,7.523,6.163,10.207" transform="translate(-295.85 -182.371)"/>
          <path id="패스_942" data-name="패스 942" class="cls-7" d="M390.052,201.665c-6.306-.286-7.523.449-10.208,6.161.286-6.305-.449-7.522-6.162-10.207,6.305.285,7.523-.45,10.208-6.162-.286,6.305.449,7.523,6.162,10.208" transform="translate(-300.79 -162.383)"/>
          <path id="패스_943" data-name="패스 943" class="cls-7" d="M399.784,162.29c-6.306-.286-7.523.449-10.208,6.162.286-6.305-.449-7.522-6.162-10.208,6.305.286,7.523-.449,10.208-6.162-.286,6.306.449,7.523,6.162,10.208" transform="translate(-305.73 -142.395)"/>
          <path id="패스_944" data-name="패스 944" class="cls-7" d="M409.517,122.914c-6.306-.286-7.523.449-10.208,6.162.286-6.305-.449-7.522-6.162-10.208,6.305.286,7.522-.449,10.208-6.162-.286,6.306.449,7.523,6.162,10.208" transform="translate(-310.671 -122.407)"/>
          <path id="패스_945" data-name="패스 945" class="cls-7" d="M400.059,329.48c-6.305-.285-7.522.45-10.207,6.162.285-6.306-.45-7.523-6.162-10.208,6.305.286,7.522-.45,10.208-6.162-.286,6.305.449,7.522,6.161,10.207" transform="translate(-305.87 -227.266)"/>
          <path id="패스_946" data-name="패스 946" class="cls-7" d="M409.791,290.1c-6.305-.286-7.523.45-10.207,6.162.286-6.306-.45-7.523-6.162-10.208,6.305.286,7.523-.449,10.208-6.162-.287,6.306.449,7.523,6.161,10.208" transform="translate(-310.81 -207.277)"/>
          <path id="패스_947" data-name="패스 947" class="cls-7" d="M419.524,250.73c-6.305-.285-7.523.45-10.207,6.162.285-6.305-.45-7.522-6.161-10.208,6.3.286,7.522-.449,10.207-6.161-.286,6.3.448,7.522,6.161,10.206" transform="translate(-315.751 -187.29)"/>
          <path id="패스_948" data-name="패스 948" class="cls-7" d="M429.256,211.355c-6.305-.286-7.523.449-10.207,6.161.285-6.305-.45-7.522-6.162-10.207,6.305.285,7.523-.45,10.208-6.162-.286,6.305.449,7.523,6.161,10.208" transform="translate(-320.691 -167.302)"/>
          <path id="패스_949" data-name="패스 949" class="cls-7" d="M438.989,171.979c-6.305-.286-7.523.45-10.207,6.162.285-6.306-.45-7.523-6.162-10.208,6.305.286,7.522-.449,10.208-6.162-.287,6.305.449,7.522,6.161,10.207" transform="translate(-325.632 -147.314)"/>
          <path id="패스_950" data-name="패스 950" class="cls-7" d="M448.721,132.6c-6.305-.286-7.522.45-10.207,6.162.285-6.306-.45-7.523-6.162-10.208,6.305.286,7.523-.45,10.208-6.162-.287,6.306.449,7.523,6.161,10.208" transform="translate(-330.572 -127.326)"/>
          <path id="패스_951" data-name="패스 951" class="cls-7" d="M439.262,339.171c-6.306-.286-7.523.449-10.208,6.162.286-6.305-.449-7.522-6.161-10.208,6.305.286,7.522-.449,10.208-6.162-.286,6.306.449,7.523,6.162,10.208" transform="translate(-325.77 -232.184)"/>
          <path id="패스_952" data-name="패스 952" class="cls-7" d="M448.995,299.795c-6.306-.286-7.523.449-10.208,6.162.286-6.305-.449-7.523-6.162-10.208,6.305.286,7.523-.449,10.208-6.162-.286,6.306.449,7.523,6.162,10.208" transform="translate(-330.71 -212.196)"/>
          <path id="패스_953" data-name="패스 953" class="cls-7" d="M458.728,260.42c-6.306-.285-7.523.45-10.208,6.161.286-6.305-.449-7.522-6.162-10.208,6.305.286,7.522-.449,10.207-6.161-.286,6.305.45,7.522,6.162,10.207" transform="translate(-335.651 -192.209)"/>
          <path id="패스_954" data-name="패스 954" class="cls-7" d="M468.46,221.046c-6.306-.286-7.523.449-10.208,6.161.286-6.305-.449-7.523-6.162-10.207,6.305.286,7.523-.45,10.208-6.162-.286,6.305.449,7.522,6.162,10.208" transform="translate(-340.591 -172.221)"/>
          <path id="패스_955" data-name="패스 955" class="cls-7" d="M478.193,181.67c-6.306-.286-7.523.449-10.208,6.162.286-6.305-.449-7.523-6.162-10.208,6.305.286,7.523-.449,10.208-6.162-.286,6.306.449,7.523,6.162,10.208" transform="translate(-345.532 -152.233)"/>
          <path id="패스_956" data-name="패스 956" class="cls-7" d="M487.925,142.294c-6.306-.286-7.523.449-10.208,6.162.286-6.305-.449-7.522-6.162-10.208,6.305.286,7.523-.449,10.208-6.162-.285,6.306.449,7.523,6.162,10.208" transform="translate(-350.473 -132.245)"/>
        </g>
      </g>
      <g id="그룹_524" data-name="그룹 524">
        <g id="그룹_523" data-name="그룹 523" class="cls-4">
          <path id="패스_958" data-name="패스 958" class="cls-8" d="M229.844,198.352c28.811,15.952,58.467,30.285,88.123,44.583,2.023.975,2.737-.522.7-1.5-29.351-14.15-58.72-28.314-87.236-44.1-.424-.235-1.92-1.025-2.355-.459s.248,1.2.767,1.484" transform="translate(-116.212 -99.834)"/>
          <path id="패스_959" data-name="패스 959" class="cls-8" d="M318.887,140.346q-22.951,44.667-47.914,88.257c-.751,1.311,1.743,1.828,2.352.765q24.956-43.578,47.914-88.257c.693-1.348-1.792-1.855-2.352-.765" transform="translate(-137.482 -70.942)"/>
          <path id="패스_960" data-name="패스 960" class="cls-8" d="M293.987,221.278c-6.108-.452-8.693-9.977-6.213-14.8,1.195-2.323,3.739-2.474,5.457-.516,1.694,1.931,1.714,4.908,1.62,7.329a24.288,24.288,0,0,1-2,8.943l2.02-.312c-5.427-1.549-12.6-2.176-17.969-.064-2.112.831-4.477,2.742-4.99,5.063-.535,2.42,1.054,5.2,3,6.586,6.854,4.888,17.036-3.8,20.241-9.629l-2.944-.666c-.6,2.9-2.282,5.355-3.05,8.188-.8,2.964-.9,7.486,1.108,10.01,3.192,4.017,10.58,3.425,12.616-1.364,2.155-5.068.049-11.6-4.054-14.947-.916-.748-2.347-1.668-2.443-2.974-.118-1.609,1.211-3.612,2.294-4.662,2.9-2.815,9.14-3.649,12.484-1.194,3.3,2.42,1.946,7.491-1.5,8.948-4.093,1.732-9.233-.211-12.736-2.459-.7-.452-3.656-.307-2.293.568,5.037,3.233,13.683,6.062,19.078,2.087a6.1,6.1,0,0,0,1.717-7.572c-1.347-2.538-4.483-3.589-7.133-4.015-3.662-.588-8.007-.392-11.176,1.749-1.924,1.3-4.723,4.829-3.519,7.257s4.283,3.37,5.534,5.9c1.442,2.921,2.05,7.192.906,10.328-.773,2.122-2.832,4.252-5.338,3.4-3.036-1.031-3.148-5.442-2.946-8.1.291-3.842,2.707-6.942,3.475-10.649.18-.866-2.575-1.336-2.944-.666a23.588,23.588,0,0,1-5.058,5.758c-2,1.8-6.114,5.442-9.143,4.612-2.057-.564-3.46-3.781-3.193-5.674.281-1.985,2.26-3.82,4.035-4.6,4.317-1.909,10.52-1.352,14.929-.094.529.151,1.72.351,2.02-.312,1.962-4.329,3.406-11.5.92-15.842-1.963-3.426-7.881-5.466-11.01-2.419-2.676,2.605-2.1,7.763-.989,10.942a10.642,10.642,0,0,0,9.788,7.25c2.077.154.753-1.29-.6-1.39" transform="translate(-137.974 -103.041)"/>
          <path id="패스_961" data-name="패스 961" class="cls-9" d="M242.517,46.543,232.2,47.865a28.715,28.715,0,0,0-13.382-1.556c-.36.036-.717.082-1.072.133l-16.684-5.907c-1.719-7.43-6.951-14.8-21.419-12.651a23.911,23.911,0,0,0-7.526,2.4l-3.979-1.409L155.751,51.3l.3,21.039v0c.311,12.69,4.655,25.86,11.467,40.417,0,0,76.439-10.132,75.46-43.385Z" transform="translate(-79.063 -13.963)"/>
          <path id="패스_962" data-name="패스 962" class="cls-10" d="M242.475,32.2c-.443-15.042-12.312-19.453-24.161-18.28-9.546.944-17.487,7.541-17.487,7.541S202.817-2.643,179.678.239C154.245,3.408,147.9,38.032,166.11,76.953c0,0,77.344-11.5,76.365-44.75" transform="translate(-79.029 0)"/>
          <path id="패스_963" data-name="패스 963" class="cls-11" d="M230.12,64.308,206.6,52.5a23.046,23.046,0,0,0,4.852-.578,18.862,18.862,0,0,0,7.659-3.592,4.877,4.877,0,0,0,2.007-3.256c.024.047.05.092.073.14v-.785c.047-.664.033-1.394.034-2.23A21.654,21.654,0,0,0,221.2,38.9v-.633c-.01.125-.029.248-.051.37a3.66,3.66,0,0,0-1.582-2.255,12.12,12.12,0,0,0-8.761-1.732c-6.387.955-11.541,5.453-17.239,8.2a55.485,55.485,0,0,0,.842-12.678c-.041-2.742.03-6.187-1.253-8.651-1.395-2.68-4.415-4.078-6.734-1.573-1.875,2.026-2.193,4.657-2.219,7.288-.028,2.824-.271,5.84.484,8.594a34.174,34.174,0,0,0,3.143,7.251L159.288,28.75s-.156.384-.447,1.32c-.215.692-.62,2.562-.62,2.562l27.613,14.173a22.231,22.231,0,0,1-13.587,1.207c.46.121-.546,5.972,0,6.116,5.688,1.5,14.489.05,18.615-4.742l.215.11c.038,1.575.17,3.117.306,4.5.578,5.864,3.869,11.611,7.183,16.346-.359-.513.035-2.819.035-3.478,0-.754.413-2.838-.035-3.478a50.126,50.126,0,0,1-4.619-7.991c-.552-1.216-1.067-2.456-1.5-3.719-.2-.574-.366-1.156-.519-1.743l33.765,17.331,2.818,21.608,3.405-2.462Zm-11.9-21.948a24.689,24.689,0,0,1-9.452,3.071,26.872,26.872,0,0,1-7.133-.2,35.78,35.78,0,0,1,5.771-2.749c2.886-1.02,7.57-1.62,10.814-.127M185,29.85c-.037-.1-.066-.208-.1-.311a10.235,10.235,0,0,1,1.027-2.028c2.609-3.576,6.449-1.562,7.668,2a16.873,16.873,0,0,1,.638,4.113c-.124-1.919-.121.226-.262,1.016a27.584,27.584,0,0,1-2.651,7.652q-1.959-3.61-3.869-7.247A39.187,39.187,0,0,1,185,29.85" transform="translate(-80.317 -9.459)"/>
          <path id="패스_964" data-name="패스 964" class="cls-12" d="M65.894,197.354,54.736,264.592h90.14l-7.34-67.238Z" transform="translate(-27.786 -100.182)"/>
          <path id="패스_965" data-name="패스 965" class="cls-5" d="M152.743,264.77a.5.5,0,0,1-.505-.5L151.2,197.224a.506.506,0,0,1,.5-.514h.008a.505.505,0,0,1,.505.5l1.039,67.049a.506.506,0,0,1-.5.514Z" transform="translate(-76.752 -99.855)"/>
          <path id="패스_966" data-name="패스 966" class="cls-5" d="M141.548,185.178a4.275,4.275,0,0,1-1.386-.364c-.118-.044-.223-.085-.306-.111a11.55,11.55,0,0,1-3.561-1.816c-1.289-1.007-5.211-4.072-2.848-7.953a3.971,3.971,0,0,1,2.391-1.749,4.933,4.933,0,0,1,2.138-.031,4.2,4.2,0,0,1,2.361,1.8c1.432,2.08,2.792,5.9,2.49,8.458l-.5-.059.5.084c-.058.493-.178,1.519-1.016,1.715a1.159,1.159,0,0,1-.261.028m-4.476-11.12a5.511,5.511,0,0,0-1.04.118,2.972,2.972,0,0,0-1.721,1.282c-1.7,2.791.674,5.122,2.607,6.632a10.525,10.525,0,0,0,3.25,1.651c.1.031.217.076.352.128a3.68,3.68,0,0,0,1.061.3c.034-.016.156-.126.241-.848l0-.026c.265-2.246-.984-5.828-2.319-7.765a3.29,3.29,0,0,0-1.776-1.393,2.7,2.7,0,0,0-.659-.075m5.757,9.352-.5-.059Z" transform="translate(-67.364 -87.843)"/>
          <path id="패스_967" data-name="패스 967" class="cls-5" d="M152.776,184.385a.5.5,0,0,1-.505-.521c0-.01-.006-.053-.012-.114a22.718,22.718,0,0,1,.835-7.854,6.393,6.393,0,0,1,4.517-4.727,3.861,3.861,0,0,1,3.8.873,3.632,3.632,0,0,1,.458,3.762c-1.528,4.47-8.553,8.356-8.851,8.519a.506.506,0,0,1-.243.062m1.3-8.233a22.808,22.808,0,0,0-.854,6.884c1.792-1.087,6.558-4.231,7.7-7.558a2.656,2.656,0,0,0-.246-2.752,2.86,2.86,0,0,0-2.812-.576,5.334,5.334,0,0,0-3.783,4" transform="translate(-77.253 -86.814)"/>
          <path id="패스_968" data-name="패스 968" class="cls-5" d="M152.82,192.345q-.279,0-.551-.009a.505.505,0,0,1,.016-1.01h.017c4.057.116,9.645-1.381,12.018-4.449a.506.506,0,0,1,.8.619c-2.5,3.23-7.963,4.849-12.3,4.849" transform="translate(-77.047 -94.765)"/>
          <path id="패스_969" data-name="패스 969" class="cls-5" d="M134.8,194.407c-3.563,0-7.183-1.045-8.976-3.489a.506.506,0,1,1,.815-.6c2.184,2.977,7.883,3.662,12.132,2.605a.506.506,0,0,1,.244.981,17.664,17.664,0,0,1-4.216.5" transform="translate(-63.819 -96.506)"/>
          <path id="패스_970" data-name="패스 970" class="cls-5" d="M63.781,275.24a.505.505,0,0,1-.006-1.011L146,273.248a.517.517,0,0,1,.512.5.505.505,0,0,1-.5.512l-82.225.981Z" transform="translate(-32.12 -138.708)"/>
          <path id="패스_971" data-name="패스 971" class="cls-13" d="M240.584,333.669,234.418,403H7.452L0,333.669Z" transform="translate(0 -169.379)"/>
          <path id="패스_972" data-name="패스 972" class="cls-14" d="M299.728,333.669,293.562,403H116.511V333.669Z" transform="translate(-59.144 -169.379)"/>
        </g>
      </g>
      <g id="그룹_526" data-name="그룹 526" transform="translate(0 164.29)">
        <g id="그룹_525" data-name="그룹 525" class="cls-15">
          <path id="패스_973" data-name="패스 973" class="cls-16" d="M9.614,321.182a67.263,67.263,0,0,0,18.725,15.8,52.008,52.008,0,0,0,11.976,4.766,69.815,69.815,0,0,0,13.241,1.977c9.454.579,18.926-.167,28.372-.551,4.75-.193,9.508-.309,14.261-.128,2.3.087,4.606.243,6.9.5a22.6,22.6,0,0,1,6.587,1.528,7.343,7.343,0,0,1,4.176,3.979,10.823,10.823,0,0,1,.425,5.128,25.026,25.026,0,0,1-4.781,11.007,58.5,58.5,0,0,1-19.907,17.142c-7.9,4.22-16.553,6.687-24.925,9.758-8.278,3.036-16.35,6.817-22.749,13.027-5.865,5.692-10.476,13.189-11.7,21.365a18.138,18.138,0,0,0,1.894,12.029,12.941,12.941,0,0,0,8.729,6.174,13.835,13.835,0,0,0,6.154-.233s-.352-.881-.529-.835A13.453,13.453,0,0,1,34.8,441.364c-3.638-2.843-4.563-7.622-4.272-12.014.553-8.348,5.02-16.228,10.7-22.181,6.161-6.452,14.061-10.5,22.312-13.634,8.277-3.14,16.867-5.522,24.82-9.47A59.92,59.92,0,0,0,108.826,367.6a29.037,29.037,0,0,0,5.6-10.655c.813-3.22.71-6.563-1.2-9.378-2.265-3.339-6.267-4.309-10.052-4.784a104.254,104.254,0,0,0-13.887-.66c-9.491.081-18.958.937-28.45.969-9.087.03-18.317-.722-26.849-4.064a59.778,59.778,0,0,1-20.631-14.038c-1.4-1.43-2.749-2.918-4.043-4.448-.129-.153-.1-.082-.075.048a1.708,1.708,0,0,0,.374.59" transform="translate(-4.679 -326.962)"/>
          <path id="패스_974" data-name="패스 974" class="cls-16" d="M177.04,271.23A70.551,70.551,0,0,0,193.533,304.9a72.242,72.242,0,0,0,14.65,12.545c5.838,3.815,12.071,6.963,18.2,10.27a110.472,110.472,0,0,1,17.456,11.112,75.836,75.836,0,0,1,22.478,30.54c2.615,6.525,3.973,13.393,5.7,20.18,1.653,6.486,3.767,13,7.884,18.379,3.505,4.578,8.4,8.5,14.174,9.628a17.806,17.806,0,0,0,4.137.318c.721-.029.351-1.163-.249-1.139-5.968.238-11.346-2.82-15.346-7.065-4.582-4.862-7.082-11.082-8.856-17.429-1.88-6.725-3.085-13.626-5.412-20.224A77.371,77.371,0,0,0,247.8,340.974a88.492,88.492,0,0,0-16-11.407c-11.722-6.722-24.309-12.128-34.116-21.685a69.194,69.194,0,0,1-18.626-32.134q-.575-2.236-.993-4.508c-.12-.643-1.176-.8-1.029-.009" transform="translate(-89.863 -301.701)"/>
          <path id="패스_975" data-name="패스 975" class="cls-16" d="M338.4,359.957a7.992,7.992,0,0,0-5.884,1.251,16.249,16.249,0,0,0-2.481,1.927,5.851,5.851,0,0,0-1.454,1.883,3.236,3.236,0,0,0-.067,2.912,4.583,4.583,0,0,0,2.347,1.9,13.14,13.14,0,0,0,7.082.7,6.253,6.253,0,0,0,3.173-1.374,5.879,5.879,0,0,0,1.968-3.341,5.068,5.068,0,0,0-.794-3.895,5.206,5.206,0,0,0-4.033-1.991c-.641-.037-1.1.928-.295.974a4.275,4.275,0,0,1,3.072,1.372,4.11,4.11,0,0,1,.954,2.781,4.633,4.633,0,0,1-3.478,4.4,12.329,12.329,0,0,1-6.01-.185c-1.457-.416-3.36-1.363-3.093-3.179.227-1.545,1.6-2.627,2.769-3.5a7.121,7.121,0,0,1,5.644-1.711.766.766,0,0,0,.814-.309.4.4,0,0,0-.234-.617" transform="translate(-166.598 -346.939)"/>
          <path id="패스_976" data-name="패스 976" class="cls-16" d="M342.259,297.641c2.882,6.642,8.374,11.208,13.853,15.672a62.9,62.9,0,0,1,7.617,6.974,41.413,41.413,0,0,1,5.845,9.259c3.329,6.738,6,13.948,10.729,19.881a29.166,29.166,0,0,0,8.9,7.533,38.781,38.781,0,0,0,11.871,3.874c9.264,1.6,18.74.736,28.025,2.133q1.816.273,3.61.671c.779.173.8-.971.091-1.129-9.264-2.058-18.807-1.231-28.178-2.311a45.292,45.292,0,0,1-12.209-2.935,27.42,27.42,0,0,1-9.725-6.743c-5.094-5.536-7.906-12.649-11.083-19.352a55.229,55.229,0,0,0-5.361-9.54,45.282,45.282,0,0,0-7.255-7.361c-5.236-4.41-11.04-8.467-14.462-14.566a26.561,26.561,0,0,1-1.2-2.424c-.291-.67-1.39-.367-1.071.365" transform="translate(-173.71 -315.006)"/>
          <path id="패스_977" data-name="패스 977" class="cls-17" d="M289.35,333.209l-5.031,69.5h7.927l5.525-69.61Z" transform="translate(-144.328 -333.381)"/>
          <path id="패스_978" data-name="패스 978" class="cls-17" d="M296.833,400.221l-180.323,1.93v6.024l179.876-3.009Z" transform="translate(-59.144 -367.452)"/>
          <path id="패스_979" data-name="패스 979" class="cls-17" d="M7.621,404.325l53.615-.185v6.024H8.181Z" transform="translate(-3.869 -369.441)"/>
        </g>
      </g>
    </g>
  </g>
</svg>
