<svg xmlns="http://www.w3.org/2000/svg" xmlns:xlink="http://www.w3.org/1999/xlink" width="142.592" height="142.791" viewBox="0 0 142.592 142.791">
  <defs>
    <style>
      .cls-1, .cls-4 {
        fill: #99d9ce;
      }

      .cls-2 {
        clip-path: url(#clip-path);
      }

      .cls-3 {
        clip-path: url(#clip-path-2);
      }

      .cls-4 {
        fill-rule: evenodd;
      }
    </style>
    <clipPath id="clip-path">
      <rect id="사각형_340" data-name="사각형 340" class="cls-1" width="104.931" height="96.897" transform="translate(67)"/>
    </clipPath>
    <clipPath id="clip-path-2">
      <rect id="사각형_339" data-name="사각형 339" class="cls-1" width="181.931" height="315.898"/>
    </clipPath>
  </defs>
  <g id="그룹_541" data-name="그룹 541" transform="matrix(0.695, 0.719, -0.719, 0.695, 23.159, -48.196)">
    <g id="그룹_540" data-name="그룹 540" class="cls-2">
      <g id="그룹_539" data-name="그룹 539" transform="translate(0 -0.001)">
        <g id="그룹_538" data-name="그룹 538" class="cls-3">
          <path id="패스_1111" data-name="패스 1111" class="cls-4" d="M8.412,38.34c-1.02-1.468-2.552-2.8-2.969-4.429-1.672-6.5-3.185-13.047-4.391-19.646A72.265,72.265,0,0,1,.015,0C3.47,12.578,4.668,25.6,9.8,37.727l-1.392.612" transform="translate(122.686 54.557)"/>
          <path id="패스_1112" data-name="패스 1112" class="cls-4" d="M.167.225C1.386.187,2.752-.23,3.8.177,8.993,2.193,14.4,3.919,19.164,6.719c5.169,3.039,9.71,7.147,14.3,11.11C22.262,12.4,13.062,3.133,0,1.474Q.083.849.167.225" transform="translate(81.346 19.047)"/>
          <path id="패스_1113" data-name="패스 1113" class="cls-4" d="M13.727,0C9.644,11.689,2.218,21.838,1.679,34.66L.516,34.587c-.159-1.419-.769-2.97-.4-4.233,1.7-5.784,3.245-11.674,5.672-17.161C7.85,8.536,11.038,4.379,13.727,0" transform="translate(101.029 52.56)"/>
          <path id="패스_1114" data-name="패스 1114" class="cls-4" d="M24.951.026c-5.476,1.336-8.759,5.2-11.6,9.543C9.163,15.967,5.031,22.4.871,28.817c-.236.364-.5.708-.871,1.227C.708,19.262,17.136-.818,24.951.026" transform="translate(127.357 3.135)"/>
          <path id="패스_1115" data-name="패스 1115" class="cls-4" d="M34.067,11.018C23.077,4.541,11.272,3.117,0,.078,9.04-.681,30.557,4.16,34.067,11.018" transform="translate(134.911 45.608)"/>
          <path id="패스_1116" data-name="패스 1116" class="cls-4" d="M29.878.682c-5.03.562-10.109.855-15.075,1.765C10.064,3.315,5.442,4.826,0,6.256,3.437.895,16.062-1.21,29.878.682" transform="translate(72.385 43.257)"/>
          <path id="패스_1117" data-name="패스 1117" class="cls-4" d="M28.794.58Q14.4,3.46,0,6.343C9.212,2.269,18.49-1.471,28.794.58" transform="translate(129.261 32.691)"/>
          <path id="패스_1118" data-name="패스 1118" class="cls-4" d="M26.817,0,0,14.98C1.481,11.076,17.592,1.953,26.817,0" transform="translate(80.189 50.816)"/>
          <path id="패스_1119" data-name="패스 1119" class="cls-4" d="M0,13.268C4.247,7.729,8.083,1.64,15.428,0l.719.879L0,13.268" transform="translate(133.686 16.334)"/>
          <path id="패스_1120" data-name="패스 1120" class="cls-4" d="M0,0C7.914,1.81,15.614,4.065,21.433,10.225L0,0" transform="translate(130.551 47.686)"/>
          <path id="패스_1121" data-name="패스 1121" class="cls-4" d="M0,0C6.014,6.65,8.735,14.879,11.409,23.892L0,0" transform="translate(104.739 0)"/>
          <path id="패스_1122" data-name="패스 1122" class="cls-4" d="M.108.421C6.9-.826,13.355.876,20.336,3.2L0,1.622q.053-.6.108-1.2" transform="translate(79.157 33.803)"/>
          <path id="패스_1123" data-name="패스 1123" class="cls-4" d="M.484,0C7.322.976,12.9,4.64,18.783,9.059L0,1.1.484,0" transform="translate(88.687 27.569)"/>
          <path id="패스_1124" data-name="패스 1124" class="cls-4" d="M2.545,0c-.318,6.867-.593,12.831-.889,19.231C-.843,15.063-.488,7.394,2.545,0" transform="translate(114.098 59.721)"/>
          <path id="패스_1125" data-name="패스 1125" class="cls-4" d="M10.2,0C4.091,4.625,2.262,11.518.08,18.278-.75,11.465,5.074.466,10.2,0" transform="translate(123.281 10.474)"/>
          <path id="패스_1126" data-name="패스 1126" class="cls-4" d="M10.656,0,.831,13.277,0,12.581C1.889,7.019,6.316,3.47,10.656,0" transform="translate(93.965 57.191)"/>
          <path id="패스_1127" data-name="패스 1127" class="cls-4" d="M.749,17.69C-.982,10.67.441,1.559,3.43,0L.749,17.69" transform="translate(118.677 3.592)"/>
          <path id="패스_1128" data-name="패스 1128" class="cls-4" d="M0,.477C7.013-.116,13.213-.808,18.942,2.821L0,.477" transform="translate(143.379 40.232)"/>
          <path id="패스_1129" data-name="패스 1129" class="cls-4" d="M0,0C5.486,2.543,10.319,8.209,10.238,12.276L0,0" transform="translate(140.571 56.653)"/>
          <path id="패스_1130" data-name="패스 1130" class="cls-4" d="M12.35,12.182,0,.731.785,0C6.263,2.47,9.169,7.477,12.35,12.182" transform="translate(98.833 13.616)"/>
          <path id="패스_1131" data-name="패스 1131" class="cls-4" d="M5.151,16.578C.492,12.031.83,5.822,0,0Q2.575,8.289,5.151,16.578" transform="translate(129.047 68.367)"/>
          <path id="패스_1132" data-name="패스 1132" class="cls-4" d="M16.9,0,.254,5.456,0,4.618C5.168,1.382,11,.27,16.9,0" transform="translate(86.299 46.7)"/>
          <path id="패스_1133" data-name="패스 1133" class="cls-4" d="M15.708.552,0,4.061C5.2,1.752,9.974-1.253,15.708.552" transform="translate(145.276 23.979)"/>
          <path id="패스_1134" data-name="패스 1134" class="cls-4" d="M.538,16.208C-1,10.424,1.006,5.178,3.492,0Q2.016,8.1.538,16.208" transform="translate(110.49 60.84)"/>
          <path id="패스_1135" data-name="패스 1135" class="cls-4" d="M0,0C3.526,3.075,6.767,6.281,6.456,11.548L0,0" transform="translate(129.475 54.087)"/>
          <path id="패스_1136" data-name="패스 1136" class="cls-4" d="M3.3,8.709,0,0C3.179,1.985,4.542,5.179,3.3,8.709" transform="translate(132.507 67.761)"/>
          <path id="패스_1137" data-name="패스 1137" class="cls-4" d="M10.62,1.363,0,.72C.006.48.012.241.018,0l10.62.291q-.009.537-.018,1.072" transform="translate(141.642 42.705)"/>
          <path id="패스_1138" data-name="패스 1138" class="cls-4" d="M11.772.942.016,1.549,0,1.3,11.61,0l.162.942" transform="translate(83.824 39.69)"/>
        </g>
      </g>
    </g>
  </g>
</svg>
