<svg xmlns="http://www.w3.org/2000/svg" xmlns:xlink="http://www.w3.org/1999/xlink" width="151.95" height="151.8" viewBox="0 0 151.95 151.8">
  <defs>
    <style>
      .cls-1 {
        fill: none;
      }

      .cls-2 {
        opacity: 0.35;
      }

      .cls-3 {
        clip-path: url(#clip-path);
      }

      .cls-4 {
        fill: #adfffe;
        fill-rule: evenodd;
      }
    </style>
    <clipPath id="clip-path">
      <rect id="사각형_335" data-name="사각형 335" class="cls-1" width="151.95" height="151.8"/>
    </clipPath>
  </defs>
  <g id="그룹_894" data-name="그룹 894" class="cls-2">
    <g id="그룹_529" data-name="그룹 529">
      <g id="그룹_528" data-name="그룹 528" class="cls-3">
        <path id="패스_981" data-name="패스 981" class="cls-4" d="M67.968,268.278c-3.942-.63-7.863-1.439-11.827-1.855a105.1,105.1,0,0,0-36.6,2.465,72.859,72.859,0,0,0-17,6.341,7.333,7.333,0,0,0-1.605,1A6.923,6.923,0,0,0,0,277.666a5.2,5.2,0,0,0,1.669.186,14.468,14.468,0,0,0,2.521-.921c17.118-7.338,35.017-9.9,53.52-8.736,2.895.183,5.782.469,8.674.694.5.038,1.01.005,1.516.005.022-.2.045-.411.068-.616" transform="translate(0 -191.404)"/>
        <path id="패스_982" data-name="패스 982" class="cls-4" d="M292.1,268.065c1.273-.062,2.549-.081,3.818-.192a134.17,134.17,0,0,1,59.241,7.927c1.184.442,2.391.835,3.611,1.159.324.086.739-.173,1.112-.274-.14-.406-.159-1-.443-1.185a21.972,21.972,0,0,0-3.175-1.752,100.846,100.846,0,0,0-30.843-7.783,114.008,114.008,0,0,0-26.366.312c-2.356.308-4.684.831-7.025,1.256.023.176.046.354.069.53" transform="translate(-210.283 -191.069)"/>
        <path id="패스_983" data-name="패스 983" class="cls-4" d="M91.815,214.559a19.345,19.345,0,0,0-1.547-1.4A102.061,102.061,0,0,0,46.48,194.308c-4.863-.823-9.858-.879-14.8-1.216a10.985,10.985,0,0,0-2.98.328c-.368.078-.652.546-.975.836.325.278.625.755.98.8,1.725.223,3.461.387,5.2.471,15.976.774,30.916,5.316,45.119,12.467,3.86,1.943,7.583,4.159,11.373,6.244.394.216.808.395,1.214.59l.2-.269" transform="translate(-19.966 -139.027)"/>
        <path id="패스_984" data-name="패스 984" class="cls-4" d="M274.963,289.108c1.068,3.3,2.186,6.581,3.195,9.9a164.658,164.658,0,0,1,6.737,53.45c-.047,1.476-.077,2.958.009,4.43a4.247,4.247,0,0,0,.687,1.418c.321-.407.86-.782.927-1.228a65.485,65.485,0,0,0,.859-7.218,132.259,132.259,0,0,0-9.886-56.434c-.637-1.534-1.428-3.006-2.147-4.507l-.38.19" transform="translate(-197.99 -208.038)"/>
        <path id="패스_985" data-name="패스 985" class="cls-4" d="M190.393,308.633c-2.365,3.276-4.926,6.43-7.061,9.85-9.636,15.423-15.232,32.157-15.89,50.424a28.465,28.465,0,0,0,.134,3.951c.043.415.514.786.789,1.177.277-.389.747-.754.8-1.173.443-3.4.785-6.811,1.2-10.212a117.97,117.97,0,0,1,18.224-49.968q1.18-1.835,2.367-3.664l-.569-.384" transform="translate(-120.555 -222.234)"/>
        <path id="패스_986" data-name="패스 986" class="cls-4" d="M283.912,278.759a9.822,9.822,0,0,0,1.009.617c15.43,7.115,28.421,17.483,39.882,29.891,2.255,2.441,4.475,4.915,6.773,7.315.361.378,1.054.439,1.594.647-.044-.612.148-1.417-.17-1.805-3.23-3.959-6.318-8.07-9.874-11.719-9.735-9.987-20.81-18.151-33.764-23.563-1.712-.715-3.515-1.218-5.276-1.819-.059.146-.116.292-.174.437" transform="translate(-204.434 -200.408)"/>
        <path id="패스_987" data-name="패스 987" class="cls-4" d="M112.613,281.324c-2.81.64-5.657,1.15-8.423,1.942A106.941,106.941,0,0,0,63.474,304.7a67.9,67.9,0,0,0-5.243,5.261c-.3.322-.243.984-.351,1.49.513-.09,1.156-.014,1.519-.3,3.453-2.692,6.791-5.536,10.292-8.164a127.3,127.3,0,0,1,32.049-17.347c3.158-1.181,6.38-2.191,9.572-3.28l1.441-.491q-.07-.275-.14-.549" transform="translate(-41.677 -202.57)"/>
        <path id="패스_988" data-name="패스 988" class="cls-4" d="M289.265,212.332c.537-.269,1.084-.519,1.611-.809,10.3-5.665,20.966-10.447,32.427-13.3a85.218,85.218,0,0,1,22.286-2.436c.79.015,2.26-.418,2.267-.677.04-1.353-1.3-1.111-2.11-1.241a49.493,49.493,0,0,0-17.629.7,100.435,100.435,0,0,0-37.272,16.023c-.625.427-1.192.941-1.785,1.415l.2.322" transform="translate(-208.141 -139.236)"/>
        <path id="패스_989" data-name="패스 989" class="cls-4" d="M239.084,296.076c-.728,2.294-1.521,4.571-2.173,6.887a187.162,187.162,0,0,0-6.284,30.506c-.7,6.44-1.37,12.925-.129,19.391a25.536,25.536,0,0,0,1.148,3.934c.143.392.7.633,1.061.943a4.069,4.069,0,0,0,.524-1.45c-.222-3.734-.88-7.481-.714-11.193a190.483,190.483,0,0,1,1.735-19.827c1.374-9.122,3.3-18.161,4.988-27.237.113-.609.194-1.225.29-1.837l-.445-.118" transform="translate(-165.474 -213.192)"/>
        <path id="패스_990" data-name="패스 990" class="cls-4" d="M293.027,277.441c.982.42,1.614.728,2.271.967a175.258,175.258,0,0,1,25,11,105.383,105.383,0,0,1,20.827,14.824,12.808,12.808,0,0,0,1.864,1.452c.24.151.846.139.962-.026a1.221,1.221,0,0,0,.135-1.091,16.588,16.588,0,0,0-1.92-2.5c-5.976-6.252-13.11-10.877-20.765-14.789a120.941,120.941,0,0,0-23.509-9.189c-1.321-.357-2.677-.588-4.019-.862-.125-.025-.274.064-.845.213" transform="translate(-210.997 -199.617)"/>
        <path id="패스_991" data-name="패스 991" class="cls-4" d="M272.045,132.531c.32-.975.664-1.942.956-2.926,2.946-9.915,6.26-19.693,10.978-28.934a68.373,68.373,0,0,1,11.188-16.217c.578-.609,1.815-1.253.894-2.25-.244-.265-1.738.275-2.388.788-4.212,3.325-7.224,7.665-9.8,12.29a112.867,112.867,0,0,0-12.067,34.967c-.13.711-.142,1.443-.209,2.165l.443.117" transform="translate(-195.57 -59.142)"/>
        <path id="패스_992" data-name="패스 992" class="cls-4" d="M122.775,326.416c-1.662,1.352-3.363,2.659-4.979,4.063-9.078,7.886-17.472,16.413-24.221,26.428-2.631,3.9-4.964,7.984-6.009,12.654a8.2,8.2,0,0,0-.2,2.035,1,1,0,0,0,.554.774c.25.052.637-.227.858-.46a2.414,2.414,0,0,0,.4-.853c3-8.326,7.867-15.554,13.6-22.148,6.229-7.164,12.835-14,19.276-20.985.352-.382.7-.767,1.051-1.15l-.335-.357" transform="translate(-62.908 -235.039)"/>
        <path id="패스_993" data-name="패스 993" class="cls-4" d="M193.674,123.148a19.508,19.508,0,0,0-.286-1.986,124.894,124.894,0,0,0-12.7-32.614,39.254,39.254,0,0,0-8.479-10.769,22.332,22.332,0,0,0-3.4-2.285c-.35-.2-.948.041-1.433.08.119.454.084,1.089.378,1.336,7.471,6.294,12.076,14.624,16.1,23.245,3.115,6.679,5.594,13.654,8.356,20.5l1.047,2.594Z" transform="translate(-120.523 -54.304)"/>
        <path id="패스_994" data-name="패스 994" class="cls-4" d="M291.313,252.421c3.589-.508,7.172-1.06,10.768-1.518,13.316-1.7,26.624-1.947,39.913.3a24.074,24.074,0,0,0,3.141.366c.385.014.785-.338,1.177-.523-.281-.378-.5-1.009-.852-1.1a80.107,80.107,0,0,0-9.393-2.09,110.519,110.519,0,0,0-42.956,3.507c-.508.139-1,.335-1.495.519a2.082,2.082,0,0,0-.37.231c.022.1.045.205.067.307" transform="translate(-209.715 -177.928)"/>
        <path id="패스_995" data-name="패스 995" class="cls-4" d="M103.259,256.241c-2.124-.532-4.229-1.158-6.374-1.58a110.041,110.041,0,0,0-43.381-.207,24.061,24.061,0,0,0-3.63,1.081c-.34.127-.528.657-.787,1,.388.194.793.585,1.159.55,2.361-.224,4.718-.5,7.066-.833a148.228,148.228,0,0,1,41.634.014c1.4.194,2.805.333,4.208.5l.1-.524" transform="translate(-35.346 -181.739)"/>
        <path id="패스_996" data-name="패스 996" class="cls-4" d="M268.539,121.866c.594-2.381,1.207-4.758,1.78-7.144,2.292-9.547,4.615-19.093,8.337-28.2,1.53-3.745,3.532-7.3,5.327-10.935a5.825,5.825,0,0,0,.6-1.1c.083-.356.047-1-.145-1.1a1.336,1.336,0,0,0-1.221.063,18.654,18.654,0,0,0-2.484,2.849c-3.5,5.242-5.523,11.131-7.281,17.117a148.277,148.277,0,0,0-5.369,26.972c-.045.453-.006.915-.006,1.373l.457.11" transform="translate(-193.023 -52.757)"/>
        <path id="패스_997" data-name="패스 997" class="cls-4" d="M325.115,340.989c1.618,2.253,3.29,4.469,4.845,6.764,7.117,10.505,11.805,22.087,15.124,34.274a32.434,32.434,0,0,0,1.228,3.751c.149.364.737.549,1.123.816.2-.385.613-.8.564-1.15a53.777,53.777,0,0,0-1.09-6.371c-3.5-13.238-9.29-25.307-18.486-35.59-.9-1.009-1.957-1.882-2.941-2.818l-.366.324" transform="translate(-234.102 -245.299)"/>
        <path id="패스_998" data-name="패스 998" class="cls-4" d="M177.883,157.674c-.575-1.441-1.086-2.91-1.734-4.318-4.969-10.806-11.058-20.875-19.752-29.14a65.906,65.906,0,0,0-6.491-5.016,6.307,6.307,0,0,0-2.124-1.016,6.1,6.1,0,0,0-1.845.095c.307.537.483,1.264.941,1.583,11.475,7.961,19.2,19.1,26.243,30.827,1.167,1.942,2.281,3.917,3.434,5.868.272.462.6.889.908,1.332l.418-.215" transform="translate(-105.084 -85.061)"/>
        <path id="패스_999" data-name="패스 999" class="cls-4" d="M268.623,287.03c0,.485-.042.974.006,1.454.859,8.449,1.774,16.891,2.579,25.345.575,6.038,1,12.09,1.5,18.135a26.152,26.152,0,0,0,.345,3.14c.087.419.568.756.87,1.13.337-.394.925-.763.968-1.187a38.518,38.518,0,0,0,.261-5.523,251.547,251.547,0,0,0-4.1-33.582c-.452-2.49-1-4.962-1.523-7.437-.111-.525-.315-1.03-.477-1.544l-.427.069" transform="translate(-193.412 -206.629)"/>
        <path id="패스_1000" data-name="패스 1000" class="cls-4" d="M92.269,137.223c-1.682-1.959-3.233-4.053-5.07-5.853-7.632-7.479-16.827-12.477-26.682-16.32-3.379-1.318-6.913-2.244-10.378-3.342a1.629,1.629,0,0,0-.77-.141c-.546.122-1.072.336-1.606.513.337.406.6.96,1.028,1.187a22.779,22.779,0,0,0,2.926,1.192c9.751,3.5,19.4,7.272,27.972,13.2,3.885,2.685,7.384,5.931,11.025,8.963a4.351,4.351,0,0,1,.741,1.359l.815-.756" transform="translate(-34.392 -80.326)"/>
        <path id="패스_1001" data-name="패스 1001" class="cls-4" d="M323.039,105.4c.639-.875,1.182-1.566,1.669-2.295,4.99-7.458,10.257-14.694,16.822-20.882a48.876,48.876,0,0,1,13.218-9.113,4.709,4.709,0,0,0,1.245-.67,1.342,1.342,0,0,0,.469-1.027,1.165,1.165,0,0,0-.926-.592,6.072,6.072,0,0,0-1.849.337c-5.251,1.686-9.538,4.91-13.429,8.674a81.725,81.725,0,0,0-16.812,23.551,11.568,11.568,0,0,0-.525,1.32c-.041.122.043.287.118.7" transform="translate(-232.515 -50.992)"/>
        <path id="패스_1002" data-name="패스 1002" class="cls-4" d="M325.714,146.234c1.852-1.857,3.683-3.735,5.56-5.566,6.926-6.756,14.477-12.644,23.536-16.287,2.827-1.137,5.825-1.846,8.746-2.75a7.57,7.57,0,0,0,1.5-.478c.305-.172.471-.593.7-.9-.313-.231-.639-.674-.939-.657a30.161,30.161,0,0,0-4.864.473c-7.76,1.7-14.388,5.656-20.477,10.6a69.788,69.788,0,0,0-13.065,13.717c-.362.51-.674,1.055-1.01,1.584l.313.265" transform="translate(-234.308 -86.114)"/>
        <path id="패스_1003" data-name="패스 1003" class="cls-4" d="M309.752,191.97c1.518-.9,3.052-1.774,4.553-2.7a112.136,112.136,0,0,1,20.239-10.37c4.681-1.711,9.619-2.71,14.422-4.1.582-.168,1.043-.757,1.56-1.151-.611-.291-1.218-.824-1.833-.833-5.059-.08-9.8,1.425-14.4,3.3a90.773,90.773,0,0,0-22.637,13.431c-.575.461-1.109.974-1.651,1.473-.185.17-.338.373-.506.561l.252.387" transform="translate(-222.859 -124.438)"/>
        <path id="패스_1004" data-name="패스 1004" class="cls-4" d="M60.52,283.513c-.956.1-1.92.15-2.865.305-11.516,1.9-22.888,4.4-33.742,8.8a43.539,43.539,0,0,0-6.558,3.75c-.382.239-.418,1.029-.614,1.565.517.006,1.128.2,1.538-.007,10.727-5.39,22.3-8.273,33.764-11.5q3.729-1.051,7.451-2.131a11.054,11.054,0,0,0,1.1-.448c-.024-.109-.048-.219-.071-.328" transform="translate(-12.054 -204.146)"/>
        <path id="패스_1005" data-name="패스 1005" class="cls-4" d="M264.863,55.592c.195-1.852.449-3.7.575-5.556a329.147,329.147,0,0,1,4.045-36.279c.1-.582-.337-1.264-.525-1.9-.483.457-1.278.843-1.4,1.382a120.687,120.687,0,0,0-2.576,12.669,152.92,152.92,0,0,0-.829,27.783c.042.636.154,1.267.233,1.9h.476" transform="translate(-189.993 -8.538)"/>
        <path id="패스_1006" data-name="패스 1006" class="cls-4" d="M280.613,284.309a4.009,4.009,0,0,0,.583.433c8.338,4.155,14.966,10.379,20.892,17.409,2.853,3.387,5.462,6.98,8.263,10.413.519.636,1.855,1.5,2.084,1.326,1.11-.862.086-1.807-.388-2.559-6.6-10.469-14.723-19.407-25.794-25.3a52.241,52.241,0,0,0-5.423-2.18c-.073.154-.145.308-.218.462" transform="translate(-202.058 -204.387)"/>
        <path id="패스_1007" data-name="패스 1007" class="cls-4" d="M188.1,307.44c-.571.6-1.185,1.159-1.708,1.8-6.475,7.9-12.3,16.235-16.5,25.6a57.936,57.936,0,0,0-2.3,7.209,3.2,3.2,0,0,0-.043,1.568,4.8,4.8,0,0,0,.709,1.237c.392-.339.978-.6,1.142-1.03.834-2.163,1.436-4.42,2.343-6.548,3.862-9.065,9.216-17.3,14.405-25.627.8-1.281,1.557-2.588,2.334-3.883l-.382-.318" transform="translate(-120.593 -221.375)"/>
        <path id="패스_1008" data-name="패스 1008" class="cls-4" d="M163.8,292.079c-1.282.545-2.588,1.04-3.842,1.644-8.1,3.9-15.87,8.348-22.541,14.458a47.053,47.053,0,0,0-4.648,5.356,6.226,6.226,0,0,0-1.081,2.261c-.119.447.2,1.011.323,1.523.48-.224,1.146-.315,1.412-.69,4.839-6.814,11.578-11.455,18.338-16.054,3.527-2.4,7.173-4.625,10.76-6.937.518-.333,1.009-.71,1.512-1.067l-.232-.495" transform="translate(-94.808 -210.314)"/>
        <path id="패스_1009" data-name="패스 1009" class="cls-4" d="M226.314,51.889c0-2.04.138-4.092-.024-6.12a85.421,85.421,0,0,0-5.62-25.691,60.365,60.365,0,0,0-3.729-7.11c-.255-.443-1.061-.57-1.614-.842a5.153,5.153,0,0,0,.01,1.756c1.606,4.234,3.432,8.391,4.9,12.67,2.684,7.8,4.037,15.923,5.414,24.03.076.447.19.887.286,1.331l.373-.023" transform="translate(-154.99 -8.731)"/>
        <path id="패스_1010" data-name="패스 1010" class="cls-4" d="M291.1,311.944c4.323,6.062,6.277,12.986,8.211,19.893,1.393,4.976,2.545,10.02,3.819,15.03a10.568,10.568,0,0,0,.693,2.1c.177.357.644.57.98.848.266-.394.772-.8.754-1.181a25.761,25.761,0,0,0-.491-3.918c-1.943-9.6-4.4-19.036-9.332-27.6a35,35,0,0,0-3.987-4.847c-.142-.168-.429-.214-.649-.316" transform="translate(-209.61 -224.618)"/>
        <path id="패스_1011" data-name="패스 1011" class="cls-4" d="M111.807,188.107c-1.567-1.212-3.075-2.507-4.707-3.621a71.9,71.9,0,0,0-26.321-11.228,15.888,15.888,0,0,0-3.458-.35c-.555.011-1.1.5-1.649.773.425.384.791.963,1.288,1.117,1.762.544,3.566.953,5.36,1.393A107.724,107.724,0,0,1,110.4,187.975c.273.158.551.309.836.446a.866.866,0,0,0,.3.024l.275-.338" transform="translate(-54.488 -124.502)"/>
        <path id="패스_1012" data-name="패스 1012" class="cls-4" d="M367.665,101.21c1.7-1.407,3.372-2.839,5.09-4.217a58.256,58.256,0,0,1,24.75-12.119,6.371,6.371,0,0,0,1.655-.5c.307-.16.674-.617.641-.9a1.118,1.118,0,0,0-.817-.729,16.565,16.565,0,0,0-3.61.18c-11.218,2.28-20.116,8.325-27.362,17.007a7.676,7.676,0,0,0-.623,1.034l.276.244" transform="translate(-264.542 -59.569)"/>
        <path id="패스_1013" data-name="패스 1013" class="cls-4" d="M157.627,101.762a10.58,10.58,0,0,0-.6-1.426c-5.214-8.351-10.987-16.273-18.176-23.056a29.573,29.573,0,0,0-4.769-3.332c-.35-.218-1.012.068-1.53.122.179.488.212,1.15.557,1.438,8.081,6.745,14.456,15.057,21.224,23.009.855,1,1.742,1.981,2.627,2.959.09.1.267.12.663.286" transform="translate(-95.448 -53.189)"/>
        <path id="패스_1014" data-name="패스 1014" class="cls-4" d="M215.966,90.585c-.266-2.239-.421-4.5-.818-6.713-1.357-7.572-3.386-14.928-7.547-21.516a17.86,17.86,0,0,0-2.375-2.944c-.293-.3-.988-.2-1.5-.279-.028.476-.238,1.044-.053,1.413.779,1.555,1.7,3.035,2.524,4.57a97.833,97.833,0,0,1,7.615,20.423c.478,1.738,1,3.464,1.509,5.195l.645-.15" transform="translate(-146.603 -42.579)"/>
        <path id="패스_1015" data-name="패스 1015" class="cls-4" d="M213.253,382.3c-.279.656-.613,1.294-.83,1.969a95.7,95.7,0,0,0-4.789,24.456,21.907,21.907,0,0,0,.224,4.253c.08.546.683,1.015,1.048,1.52.345-.507.935-.987.995-1.526.433-3.877.643-7.78,1.144-11.646.7-5.435,1.605-10.845,2.4-16.268.129-.873.166-1.76.245-2.641l-.442-.117" transform="translate(-149.492 -275.282)"/>
        <path id="패스_1016" data-name="패스 1016" class="cls-4" d="M431.56,364.21c1.81,1.958,3.714,3.839,5.413,5.891,4.974,6.007,9.866,12.084,14.794,18.131a7.919,7.919,0,0,0,1.155,1.288,5.267,5.267,0,0,0,1.291.553c.074-.523.374-1.156.182-1.549a30.307,30.307,0,0,0-2.348-4.1,87.522,87.522,0,0,0-18.457-19.429c-.532-.41-1.12-.751-1.682-1.125l-.349.341" transform="translate(-310.749 -262.007)"/>
        <path id="패스_1017" data-name="패스 1017" class="cls-4" d="M322.79,237.638c2.171-.336,4.351-.628,6.512-1.018a141.07,141.07,0,0,1,22.169-2.432,2.456,2.456,0,0,0,1.088-.133c.361-.2.833-.583.852-.911a1.238,1.238,0,0,0-.771-.938,24.891,24.891,0,0,0-4.538-.527,71.053,71.053,0,0,0-17.785,2.783c-2.236.608-4.419,1.41-6.619,2.147a7.005,7.005,0,0,0-1.049.555l.14.474" transform="translate(-232.328 -166.823)"/>
        <path id="패스_1018" data-name="패스 1018" class="cls-4" d="M98.3,299.4a10.193,10.193,0,0,0-1.494.01c-7.721,1.156-15.164,3.182-21.872,7.325a16.015,16.015,0,0,0-3.108,2.875c-.255.275-.108.922-.146,1.4.517.006,1.2.231,1.528-.015,6.947-5.18,15.149-7.519,23.151-10.314.682-.239,1.347-.529,2.02-.8-.026-.161-.052-.322-.079-.483" transform="translate(-51.61 -215.565)"/>
        <path id="패스_1019" data-name="패스 1019" class="cls-4" d="M311.786,123.017q1.07-1.441,2.14-2.882c4.5-6.1,9.018-12.2,13.473-18.331a5,5,0,0,0,.4-1.907c-.61.114-1.445.012-1.794.376a44.938,44.938,0,0,0-5.631,6.362c-2.938,4.548-5.511,9.332-8.2,14.037a15.183,15.183,0,0,0-.839,2.144l.456.2" transform="translate(-224.176 -71.931)"/>
        <path id="패스_1020" data-name="패스 1020" class="cls-4" d="M156.188,182.215a6.2,6.2,0,0,0-.614-1.035A46.017,46.017,0,0,0,141,169.76a6.293,6.293,0,0,0-2.108-.593,1.3,1.3,0,0,0-1.065.634c-.117.315.175.828.381,1.2.113.2.422.3.642.444q7.6,4.969,15.206,9.935c.605.395,1.236.751,1.855,1.125l.28-.292" transform="translate(-99.221 -121.809)"/>
        <path id="패스_1021" data-name="패스 1021" class="cls-4" d="M60.057,217.018a49.636,49.636,0,0,0-6.094-1.434c-4.707-.523-9.44-.831-14.166-1.168a5.457,5.457,0,0,0-2.164.364.936.936,0,0,0,.129,1.85,25.256,25.256,0,0,0,3,.2q8.856.416,17.714.826c.5.022.995,0,1.492,0,.031-.213.062-.426.093-.64" transform="translate(-26.563 -154.385)"/>
        <path id="패스_1022" data-name="패스 1022" class="cls-4" d="M260.991,309.54c-.315,1.947-.744,3.884-.923,5.843q-.546,5.972-.839,11.966c-.044.92-.365,2.423,1.153,2.512,1.486.087,1.268-1.4,1.288-2.274.125-5.628.146-11.259.179-16.889a4.94,4.94,0,0,0-.273-1.148l-.585-.01" transform="translate(-186.619 -222.887)"/>
        <path id="패스_1023" data-name="패스 1023" class="cls-4" d="M290.25,17.826c.161-.456.317-.914.483-1.368q2.42-6.58,4.845-13.159a10.341,10.341,0,0,0,.7-1.921,1.351,1.351,0,0,0-.515-1.133,1.431,1.431,0,0,0-1.212.2,3.2,3.2,0,0,0-.862,1.111,29.85,29.85,0,0,0-4.035,14.436,15.294,15.294,0,0,0,.182,1.784l.418.049" transform="translate(-208.565 -0.126)"/>
        <path id="패스_1024" data-name="패스 1024" class="cls-4" d="M391.264,293.029c1.04.319,2.073.665,3.122.951a40.744,40.744,0,0,1,11.462,4.854c.514.33,1.382.106,2.086.139-.23-.665-.265-1.544-.722-1.96-2.874-2.616-6.44-3.748-10.188-4.311-1.873-.281-3.789-.28-5.685-.407q-.038.367-.076.734" transform="translate(-281.734 -210.47)"/>
        <path id="패스_1025" data-name="패스 1025" class="cls-4" d="M479.865,95.2c.909-.1,1.827-.15,2.724-.315q3.577-.657,7.136-1.4c.784-.164,1.611-.405,1.467-1.5-.147-1.116-1.026-1.09-1.814-1.013a21.061,21.061,0,0,0-9.162,3.21,2.524,2.524,0,0,0-.487.565l.135.454" transform="translate(-345.434 -65.478)"/>
        <path id="패스_1026" data-name="패스 1026" class="cls-4" d="M360.232,8.5c1.638-1.188,3.3-2.346,4.9-3.575a36.413,36.413,0,0,0,3.482-2.955,1.635,1.635,0,0,0,.116-1.5,1.358,1.358,0,0,0-1.276-.422c-3.461,1.8-5.776,4.682-7.7,7.916l.471.538" transform="translate(-259.05 -0.001)"/>
        <path id="패스_1027" data-name="패스 1027" class="cls-4" d="M79.092,236.614c-.358-.229-.552-.44-.78-.487a20.327,20.327,0,0,0-10.013.2,1.683,1.683,0,0,0-.975,1.3,1.61,1.61,0,0,0,1.247,1c3.339-.445,6.66-1.023,9.984-1.575.128-.022.234-.184.537-.436" transform="translate(-48.476 -169.645)"/>
        <path id="패스_1028" data-name="패스 1028" class="cls-4" d="M16.52,126.844c-.689-.548-.991-.969-1.374-1.065-2.94-.74-5.883-1.485-8.859-2.05a2.049,2.049,0,0,0-1.708,1.032c-.365,1.137.677,1.371,1.529,1.462,2.877.3,5.758.572,8.641.822a11,11,0,0,0,1.771-.2" transform="translate(-3.243 -89.085)"/>
        <path id="패스_1029" data-name="패스 1029" class="cls-4" d="M506.541,314.433a3.516,3.516,0,0,0,.582.821c2.572,1.834,5.133,3.686,7.773,5.417.4.261,1.186-.073,1.794-.131-.113-.563-.028-1.345-.37-1.655a20.828,20.828,0,0,0-9.05-4.6c-.169-.043-.377.071-.73.146" transform="translate(-364.74 -226.298)"/>
        <path id="패스_1030" data-name="패스 1030" class="cls-4" d="M417.654,478.75a11.7,11.7,0,0,0,.325,2.561c.879,2.459,1.825,4.9,2.9,7.276.191.422,1.137.5,1.735.74.117-.6.515-1.328.305-1.771-1.443-3.054-3.012-6.048-4.541-9.061l-.726.254" transform="translate(-300.736 -344.546)"/>
        <path id="패스_1031" data-name="패스 1031" class="cls-4" d="M92.95,28.109a17.784,17.784,0,0,0-1.943-2.778,68.972,68.972,0,0,0-5.288-4.653,1.818,1.818,0,0,0-1.735-.031c-.763.611-.311,1.269.364,1.784,2.5,1.9,4.975,3.832,7.475,5.732a2.775,2.775,0,0,0,.819.281l.308-.335" transform="translate(-60.186 -14.719)"/>
      </g>
    </g>
  </g>
</svg>
