<svg xmlns="http://www.w3.org/2000/svg" xmlns:xlink="http://www.w3.org/1999/xlink" width="82.311" height="81.902" viewBox="0 0 82.311 81.902">
  <defs>
    <style>
      .cls-1 {
        fill: none;
      }

      .cls-2 {
        clip-path: url(#clip-path);
      }

      .cls-3 {
        fill: #2f8fbf;
      }

      .cls-4 {
        fill: #4fe3db;
      }

      .cls-5 {
        fill: #f2f7fe;
      }
    </style>
    <clipPath id="clip-path">
      <rect id="사각형_525" data-name="사각형 525" class="cls-1" width="82.311" height="81.902"/>
    </clipPath>
  </defs>
  <g id="그룹_796" data-name="그룹 796" class="cls-2">
    <path id="패스_2415" data-name="패스 2415" class="cls-3" d="M74.784,61.941a9.109,9.109,0,1,0-5.835,11.484,9.108,9.108,0,0,0,5.835-11.484" transform="translate(-25.061 -24.463)"/>
    <path id="패스_2416" data-name="패스 2416" class="cls-4" d="M74.109,66.393a5.041,5.041,0,1,0-3.23,6.357,5.042,5.042,0,0,0,3.23-6.357" transform="translate(-28.251 -27.654)"/>
    <path id="패스_2417" data-name="패스 2417" class="cls-5" d="M73.721,68.943a2.711,2.711,0,1,0-1.737,3.419,2.711,2.711,0,0,0,1.737-3.419" transform="translate(-30.079 -29.482)"/>
    <path id="패스_2418" data-name="패스 2418" class="cls-3" d="M84.725,106.44a.678.678,0,0,1-.819-.349,30.968,30.968,0,0,1-3.042-14.877.678.678,0,1,1,1.354.061A29.616,29.616,0,0,0,85.126,105.5a.678.678,0,0,1-.314.906.708.708,0,0,1-.086.035" transform="translate(-35.53 -39.809)"/>
    <path id="패스_2419" data-name="패스 2419" class="cls-4" d="M89.463,122.213a.678.678,0,0,1-.784-.285q-.3-.473-.575-.956a.678.678,0,0,1,1.174-.678q.266.462.55.915a.678.678,0,0,1-.215.934.7.7,0,0,1-.15.07" transform="translate(-38.686 -52.727)"/>
    <path id="패스_2420" data-name="패스 2420" class="cls-3" d="M92.967,127.32a.679.679,0,0,1-.739-.22c-.279-.348-.557-.71-.826-1.076a.678.678,0,1,1,1.092-.8c.258.35.523.7.79,1.03a.678.678,0,0,1-.318,1.069" transform="translate(-40.119 -54.92)"/>
    <path id="패스_2421" data-name="패스 2421" class="cls-4" d="M123.878,119.129a.679.679,0,0,1-.78-.277,54.64,54.64,0,0,0-4-5.436.678.678,0,1,1,1.04-.87,56.11,56.11,0,0,1,4.1,5.572.677.677,0,0,1-.2.937.664.664,0,0,1-.157.075" transform="translate(-52.28 -49.363)"/>
    <path id="패스_2422" data-name="패스 2422" class="cls-4" d="M107.3,101.306a.677.677,0,0,1-.675-.15,56.327,56.327,0,0,0-5.208-4.327.678.678,0,1,1,.8-1.093,57.764,57.764,0,0,1,5.333,4.431.678.678,0,0,1-.253,1.139" transform="translate(-44.458 -42.023)"/>
    <path id="패스_2423" data-name="패스 2423" class="cls-4" d="M116.033,109.348a.678.678,0,0,1-.71-.186q-.4-.434-.806-.859a.678.678,0,0,1,.979-.938q.417.435.826.879a.678.678,0,0,1-.289,1.1" transform="translate(-50.254 -47.101)"/>
    <path id="패스_2424" data-name="패스 2424" class="cls-4" d="M96.879,93.394a.676.676,0,0,1-.582-.077q-.493-.323-.99-.634a.678.678,0,1,1,.718-1.15q.511.319,1.015.65a.678.678,0,0,1-.161,1.211" transform="translate(-41.752 -40.189)"/>
    <path id="패스_2425" data-name="패스 2425" class="cls-4" d="M89.483,89.1a.676.676,0,0,1-.534-.049c-.508-.276-1.033-.551-1.56-.815A.678.678,0,1,1,88,87.021c.54.272,1.078.553,1.6.836a.678.678,0,0,1-.114,1.24" transform="translate(-38.248 -38.219)"/>
    <path id="패스_2426" data-name="패스 2426" class="cls-3" d="M122.688,85.012a.675.675,0,0,1-.529-.047A53.045,53.045,0,0,0,93.65,78.939a.678.678,0,1,1-.1-1.352A54.41,54.41,0,0,1,122.8,83.77a.678.678,0,0,1-.109,1.243" transform="translate(-40.845 -34.043)"/>
    <path id="패스_2427" data-name="패스 2427" class="cls-3" d="M134.022,53.477a.691.691,0,0,1-.237.033,37.252,37.252,0,0,0-5.087.151.678.678,0,1,1-.134-1.349,38.712,38.712,0,0,1,5.272-.157.678.678,0,0,1,.185,1.322" transform="translate(-56.242 -22.912)"/>
    <path id="패스_2428" data-name="패스 2428" class="cls-4" d="M124.42,54.224a.677.677,0,0,1-.108.026q-.541.082-1.079.182a.678.678,0,0,1-.246-1.333q.557-.1,1.12-.189a.678.678,0,0,1,.313,1.314" transform="translate(-53.816 -23.253)"/>
    <path id="패스_2429" data-name="패스 2429" class="cls-4" d="M94.042,62.4a.678.678,0,0,1-.631-1.176,37.862,37.862,0,0,1,14.382-7.089.678.678,0,1,1,.329,1.315,36.527,36.527,0,0,0-13.87,6.839.681.681,0,0,1-.21.112" transform="translate(-40.946 -23.787)"/>
    <path id="패스_2430" data-name="패스 2430" class="cls-3" d="M89.256,40.886a.678.678,0,0,1-.82-.939,54.411,54.411,0,0,1,19.978-22.236.678.678,0,0,1,.716,1.151A53.042,53.042,0,0,0,89.656,40.537a.676.676,0,0,1-.4.35" transform="translate(-38.842 -7.74)"/>
    <path id="패스_2431" data-name="패스 2431" class="cls-4" d="M84.376,14.611a.67.67,0,0,1-.461-.015.678.678,0,0,1-.379-.88,40.078,40.078,0,0,1,2.551-5.245.678.678,0,0,1,1.172.68A38.666,38.666,0,0,0,84.8,14.218a.676.676,0,0,1-.42.393" transform="translate(-36.697 -3.575)"/>
    <path id="패스_2432" data-name="패스 2432" class="cls-4" d="M79.666,33.975a.688.688,0,0,1-.27.031.678.678,0,0,1-.615-.736,40.039,40.039,0,0,1,.934-5.72.677.677,0,1,1,1.318.315,38.934,38.934,0,0,0-.9,5.525.677.677,0,0,1-.465.585" transform="translate(-34.627 -11.881)"/>
    <path id="패스_2433" data-name="패스 2433" class="cls-4" d="M82.465,23.345a.678.678,0,0,1-.857-.843q.147-.483.307-.962a.678.678,0,0,1,1.286.43q-.155.462-.3.929a.678.678,0,0,1-.439.446" transform="translate(-35.858 -9.265)"/>
    <path id="패스_2434" data-name="패스 2434" class="cls-4" d="M79.386,43.8a.677.677,0,0,1-.888-.645q0-.508.013-1.012a.678.678,0,1,1,1.355.035q-.013.489-.013.979a.677.677,0,0,1-.467.643" transform="translate(-34.504 -18.236)"/>
    <path id="패스_2435" data-name="패스 2435" class="cls-4" d="M79.7,51.082a.68.68,0,0,1-.885-.57c-.055-.5-.1-1.014-.137-1.522a.678.678,0,0,1,1.352-.1c.035.49.08.984.133,1.469a.678.678,0,0,1-.463.718" transform="translate(-34.581 -21.215)"/>
    <path id="패스_2436" data-name="패스 2436" class="cls-3" d="M53.09,7.178a.734.734,0,0,1-.127.028.677.677,0,0,1-.756-.588A48.766,48.766,0,0,1,51.826.68a.678.678,0,1,1,1.356,0,47.856,47.856,0,0,0,.37,5.773.678.678,0,0,1-.461.729" transform="translate(-22.78 0)"/>
    <path id="패스_2437" data-name="패스 2437" class="cls-3" d="M54.224,17.058a.6.6,0,0,1-.077.02.677.677,0,0,1-.8-.531q-.128-.631-.238-1.266a.678.678,0,0,1,1.336-.233q.108.618.231,1.232a.678.678,0,0,1-.453.778" transform="translate(-23.341 -6.368)"/>
    <path id="패스_2438" data-name="패스 2438" class="cls-4" d="M63.128,38.917a.678.678,0,0,1-.759-.247A48.767,48.767,0,0,1,54.608,22.2a.678.678,0,0,1,1.313-.34,47.412,47.412,0,0,0,7.546,16.015.678.678,0,0,1-.339,1.043" transform="translate(-23.993 -9.385)"/>
    <path id="패스_2439" data-name="패스 2439" class="cls-5" d="M21.462,26.344a.678.678,0,0,1-.571-.07c-1.246-.781-2.53-1.52-3.817-2.2a.678.678,0,1,1,.631-1.2c1.316.692,2.631,1.448,3.906,2.248a.678.678,0,0,1-.15,1.218" transform="translate(-7.346 -10.022)"/>
    <path id="패스_2440" data-name="패스 2440" class="cls-4" d="M44.8,47.051a.678.678,0,0,1-.773-.267A60.144,60.144,0,0,0,29.1,31.48a.678.678,0,0,1,.787-1.1A61.5,61.5,0,0,1,45.149,46.029a.679.679,0,0,1-.353,1.022" transform="translate(-12.665 -13.296)"/>
    <path id="패스_2441" data-name="패스 2441" class="cls-3" d="M49.035,67.95a.678.678,0,0,1-.509-.036c-1.306-.641-2.659-1.243-4.024-1.788a.678.678,0,1,1,.5-1.259c1.4.558,2.783,1.174,4.119,1.83a.678.678,0,0,1-.089,1.253" transform="translate(-19.373 -28.491)"/>
    <path id="패스_2442" data-name="패스 2442" class="cls-3" d="M22.29,61.548a.676.676,0,0,1-.424,0A60.137,60.137,0,0,0,.7,58.514a.678.678,0,0,1-.054-1.355,61.5,61.5,0,0,1,21.644,3.1.678.678,0,0,1,0,1.288" transform="translate(0 -25.104)"/>
    <path id="패스_2443" data-name="패스 2443" class="cls-4" d="M32.175,79.61a.674.674,0,0,1-.194.033,49.29,49.29,0,0,0-26.673,8.7.678.678,0,0,1-.773-1.114,50.665,50.665,0,0,1,27.414-8.941.678.678,0,0,1,.226,1.322" transform="translate(-1.865 -34.412)"/>
    <path id="패스_2444" data-name="패스 2444" class="cls-3" d="M51.826,92.455a.678.678,0,0,1-.631-1.176,40.84,40.84,0,0,1,4.871-3.311.678.678,0,1,1,.679,1.174,39.5,39.5,0,0,0-4.708,3.2.661.661,0,0,1-.21.113" transform="translate(-22.39 -38.626)"/>
    <path id="패스_2445" data-name="패스 2445" class="cls-3" d="M37.734,106.409a.678.678,0,0,1-.765-1.035,41.048,41.048,0,0,1,3.71-4.531.678.678,0,1,1,.985.931,39.677,39.677,0,0,0-3.586,4.382.675.675,0,0,1-.343.253" transform="translate(-16.195 -44.232)"/>
    <path id="패스_2446" data-name="패스 2446" class="cls-3" d="M47.414,98.272a.678.678,0,0,1-.673-1.14q.373-.348.754-.687a.678.678,0,0,1,.9,1.014q-.369.327-.73.664a.663.663,0,0,1-.252.149" transform="translate(-20.451 -42.318)"/>
    <path id="패스_2447" data-name="패스 2447" class="cls-3" d="M34.346,114.507a.678.678,0,0,1-.8-.985q.257-.443.525-.878a.678.678,0,0,1,1.155.711q-.259.42-.508.849a.674.674,0,0,1-.375.3" transform="translate(-14.706 -49.371)"/>
    <path id="패스_2448" data-name="패스 2448" class="cls-3" d="M30.817,121.017a.678.678,0,0,1-.83-.92c.208-.469.428-.939.652-1.4a.678.678,0,1,1,1.217.6c-.217.443-.429.9-.631,1.351a.675.675,0,0,1-.409.37" transform="translate(-13.155 -52.008)"/>
    <path id="패스_2449" data-name="패스 2449" class="cls-4" d="M59.4,141.547a.678.678,0,0,1-.888-.618c-.059-1.487-.062-3-.007-4.507a.678.678,0,0,1,1.355.05c-.054,1.469-.052,2.95.006,4.4a.678.678,0,0,1-.467.671" transform="translate(-25.699 -59.678)"/>
    <path id="패스_2450" data-name="패스 2450" class="cls-4" d="M59.837,114.514a.678.678,0,0,1-.885-.709,61.513,61.513,0,0,1,5.924-21.048.678.678,0,1,1,1.217.6A60.138,60.138,0,0,0,60.3,113.934a.678.678,0,0,1-.465.58" transform="translate(-25.911 -40.605)"/>
    <path id="패스_2451" data-name="패스 2451" class="cls-5" d="M126.607,96.158a1.114,1.114,0,1,0-.713,1.4,1.114,1.114,0,0,0,.713-1.4" transform="translate(-54.695 -41.929)"/>
    <path id="패스_2452" data-name="패스 2452" class="cls-5" d="M91.361,99.2a1.114,1.114,0,1,0-.713,1.4,1.113,1.113,0,0,0,.713-1.4" transform="translate(-39.203 -43.266)"/>
    <path id="패스_2453" data-name="패스 2453" class="cls-5" d="M29.8,125.958a1.114,1.114,0,1,0-.713,1.4,1.113,1.113,0,0,0,.713-1.4" transform="translate(-12.143 -55.028)"/>
    <path id="패스_2454" data-name="패스 2454" class="cls-5" d="M72.4,42.094a1.114,1.114,0,1,0-.713,1.4,1.113,1.113,0,0,0,.713-1.4" transform="translate(-30.868 -18.165)"/>
    <path id="패스_2455" data-name="패스 2455" class="cls-5" d="M118.436,38.927a1.114,1.114,0,1,0-.713,1.4,1.114,1.114,0,0,0,.713-1.4" transform="translate(-51.104 -16.773)"/>
    <path id="패스_2456" data-name="패스 2456" class="cls-5" d="M19.72,51.231a1.114,1.114,0,1,0-.713,1.4,1.114,1.114,0,0,0,.713-1.4" transform="translate(-7.713 -22.181)"/>
    <path id="패스_2457" data-name="패스 2457" class="cls-5" d="M34.934,93.154l-1.4-.263.977-1.039.263-1.4,1.039.978,1.4.262-.978,1.039-.263,1.4Z" transform="translate(-14.739 -39.758)"/>
    <path id="패스_2458" data-name="패스 2458" class="cls-5" d="M50.135,19.816l-1.4-.263.978-1.039.262-1.4,1.039.978,1.4.262-.978,1.039-.263,1.4Z" transform="translate(-21.421 -7.522)"/>
    <path id="패스_2459" data-name="패스 2459" class="cls-5" d="M72.073,87.084l-1.4-.263.978-1.039.263-1.4,1.039.978,1.4.262-.978,1.039-.263,1.4Z" transform="translate(-31.064 -37.09)"/>
    <path id="패스_2460" data-name="패스 2460" class="cls-5" d="M95.446,38.8l-1.4-.263.977-1.039.263-1.4,1.039.978,1.4.262-.978,1.039-.263,1.4Z" transform="translate(-41.337 -15.866)"/>
  </g>
</svg>
