<svg xmlns="http://www.w3.org/2000/svg" width="516.142" height="220.19" viewBox="0 0 516.142 220.19">
  <g id="하트" transform="translate(-90.455 58.134)">
    <path id="패스_1139" data-name="패스 1139" d="M58.321,11.109c-4.226-14.23-21-14.394-29.158-2.755C19.956-5.227,1.951-.321.014,15.351-.732,32.008,26.383,48.725,29.164,51.506c2.723-2.723,34.327-22.991,29.158-40.4" transform="translate(552.797 3.283) rotate(24)" fill="#9e7836" opacity="0.8"/>
    <path id="패스_1140" data-name="패스 1140" d="M52.486,10c-3.8-12.806-18.9-12.954-26.24-2.479C17.959-4.7,1.755-.289.013,13.815-.659,28.805,23.743,43.85,26.246,46.352,28.7,43.9,57.138,25.661,52.486,10" transform="matrix(0.985, 0.174, -0.174, 0.985, 389.714, 0.613)" fill="#9e7836" opacity="0.401"/>
    <path id="패스_1144" data-name="패스 1144" d="M45.748,8.714C42.433-2.448,29.278-2.577,22.876,6.553,15.654-4.1,1.53-.252.011,12.041-.574,25.108,20.7,38.221,22.876,40.4,25.012,38.266,49.8,22.367,45.748,8.714" transform="translate(253.992 5.269) rotate(-13)" fill="#9e7836" opacity="0.13"/>
    <path id="패스_2234" data-name="패스 2234" d="M37.226,7.091c-2.7-9.083-13.4-9.188-18.611-1.758C12.738-3.337,1.245-.2.009,9.8-.467,20.43,16.84,31.1,18.615,32.876,20.353,31.138,40.526,18.2,37.226,7.091" transform="translate(199.97 92.423) rotate(-13)" fill="#9e7836"/>
    <path id="패스_1187" data-name="패스 1187" d="M63.722,12.138C59.1-3.41,40.781-3.589,31.864,9.128,21.8-5.711,2.131-.351.016,16.772c-.816,18.2,28.81,36.465,31.848,39.5C34.839,53.3,69.37,31.155,63.722,12.138" transform="translate(90.456 76.782) rotate(-16)" fill="#9e7836"/>
    <path id="패스_1192" data-name="패스 1192" d="M37.631,7.168C34.9-2.014,24.083-2.12,18.817,5.39,12.876-3.373,1.258-.207.009,9.9-.473,20.653,17.023,31.439,18.817,33.234,20.574,31.477,40.967,18.4,37.631,7.168" transform="matrix(0.999, -0.035, 0.035, 0.999, 419.136, 33.103)" fill="#9e7836"/>
    <path id="패스_1195" data-name="패스 1195" d="M44.564,8.488c-3.229-10.873-16.044-11-22.28-2.1C15.248-3.994,1.49-.245.011,11.729c-.57,12.728,20.148,25.5,22.273,27.626,2.081-2.081,26.229-17.568,22.28-30.867" transform="translate(477.854 112.983) rotate(14)" fill="#9e7836" opacity="0.162"/>
    <path id="패스_1196" data-name="패스 1196" d="M31.689,6.036c-2.3-7.732-11.409-7.821-15.843-1.5C10.843-2.84,1.06-.174.008,8.341-.4,17.392,14.335,26.475,15.846,27.986c1.48-1.48,18.652-12.493,15.843-21.95" transform="matrix(0.966, -0.259, 0.259, 0.966, 113.02, -49.851)" fill="#9e7836" opacity="0.846"/>
    <path id="패스_1198" data-name="패스 1198" d="M22.777,4.338c-1.651-5.557-8.2-5.621-11.387-1.076C7.793-2.042.761-.125.005,5.995-.286,12.5,10.3,19.029,11.389,20.115,12.453,19.052,24.8,11.136,22.777,4.338" transform="translate(138.107 -43.818) rotate(-9)" fill="#9e7836" opacity="0.354"/>
  </g>
</svg>
