<svg width="66" height="20" viewBox="0 0 66 20" fill="none" xmlns="http://www.w3.org/2000/svg">
<mask id="mask0_826_447995" style="mask-type:luminance" maskUnits="userSpaceOnUse" x="0" y="0" width="66" height="20">
<path d="M65.9999 0H0.133301V20H65.9999V0Z" fill="white"/>
</mask>
<g mask="url(#mask0_826_447995)">
<path d="M14.5047 6.51373L12.5999 8.41848L12.5047 8.51376L11.8999 9.11848L11.4523 9.57088L10.8475 10.1756L10.7523 10.2661L10.4903 10.5328L10.3951 10.6233L9.50465 11.5138L9.40937 11.6042C9.14913 11.8641 8.85433 12.0868 8.53321 12.2661C8.37993 12.3518 8.22081 12.4266 8.05705 12.4899C7.68817 12.6329 7.29947 12.718 6.90464 12.7423C6.66544 12.7637 6.4248 12.7637 6.1856 12.7423C5.66329 12.6855 5.15789 12.5235 4.69988 12.2661C4.49248 12.1587 4.30031 12.0242 4.12845 11.8661L4.01893 11.7566L0.547502 8.25184L0.47607 8.1804C0.414238 8.11352 0.359946 8.04008 0.314166 7.96134C0.195049 7.75942 0.132541 7.52912 0.133213 7.29468C0.130726 7.25822 0.130726 7.22162 0.133213 7.18515C0.133213 7.12801 0.133213 7.07086 0.133213 7.01849V6.95658C0.179759 6.78346 0.260738 6.6215 0.371308 6.48039C0.400526 6.44326 0.432358 6.40825 0.46655 6.37563L0.528454 6.31373L4.26655 2.62325L6.50465 0.389916C6.74278 0.151374 7.06269 0.0122677 7.39957 0.000773425C7.73641 -0.0107209 8.06505 0.106257 8.31889 0.328011L14.5047 6.51373Z" fill="#005BAA"/>
<path d="M7.77787 14.8193C7.4767 14.8183 7.17934 14.7517 6.90647 14.6241L6.19694 13.9193L6.02076 13.7479L5.99218 13.7146L5.66361 13.3861L4.01123 11.7146L4.12076 11.8241C4.2938 11.9843 4.4876 12.1204 4.69694 12.2289C5.15495 12.4863 5.66035 12.6483 6.18266 12.7051C6.42186 12.7265 6.6625 12.7265 6.90171 12.7051C7.29653 12.6808 7.68523 12.5957 8.05411 12.4527C8.21787 12.3894 8.37699 12.3146 8.53027 12.2289C8.85139 12.0496 9.14619 11.8269 9.40643 11.5669L9.50171 11.4765L10.3922 10.5861L10.4874 10.4956L10.7493 10.2289L10.8446 10.1384L11.4493 9.53366L11.8969 9.08126L12.516 8.50982L12.6112 8.41462L16.4446 4.60508L18.016 2.85746L18.1017 2.7765C18.3338 2.54533 18.648 2.41553 18.9756 2.41553C19.3031 2.41553 19.6173 2.54533 19.8493 2.7765L20.716 3.64318H20.7446C20.5501 3.63506 20.3559 3.66678 20.1742 3.73638C19.9924 3.80598 19.8268 3.912 19.6874 4.04794L16.7588 6.90508L16.7303 6.93841L11.6446 12.0051L9.76363 13.8479L9.64931 13.9669C9.39331 14.2155 9.09915 14.4213 8.77787 14.5765C8.59931 14.6632 8.41051 14.7272 8.21603 14.7669C8.10459 14.7903 7.99155 14.8046 7.87787 14.8098L7.77787 14.8193Z" fill="#ED1C24"/>
<path d="M25.4102 10.0808L25.3149 10.176L21.1673 14.3855L16.8006 18.8094C16.6649 18.9463 16.5184 19.0721 16.3625 19.1855L16.3006 19.2284C15.5415 19.7708 14.6171 20.0319 13.6864 19.9667C12.7557 19.9015 11.8767 19.5142 11.2006 18.8713L11.0863 18.8046L10.3387 18.057L8.22919 15.9475L7.52443 15.2379L7.4292 15.1379C7.5425 15.1569 7.65719 15.1665 7.77207 15.1665H7.87207C8.00663 15.1608 8.14055 15.1433 8.27207 15.1142C8.49511 15.0699 8.71127 14.9963 8.91487 14.8951C9.26583 14.7209 9.58719 14.4927 9.86727 14.2189L9.99583 14.0808L11.6149 12.4903L17.1816 7.01415L17.2101 6.97605L19.9435 4.32844C20.121 4.15823 20.3513 4.05367 20.5964 4.03203C20.8413 4.01038 21.0865 4.07295 21.2911 4.20939L21.9292 4.85224L25.4053 8.33323C25.4364 8.36267 25.4651 8.39451 25.4911 8.42843C25.6848 8.66491 25.7838 8.96491 25.7688 9.27019C25.7538 9.57555 25.626 9.86443 25.4102 10.0808Z" fill="#ED1C24"/>
<path d="M11.9721 5.47249C11.9228 5.51801 11.8582 5.54328 11.7911 5.54328C11.7241 5.54328 11.6594 5.51801 11.6102 5.47249C11.219 5.07884 10.7542 4.76608 10.2422 4.55208C9.73016 4.33808 9.18096 4.22702 8.626 4.22525C7.50529 4.22169 6.42901 4.66348 5.634 5.45344C4.83898 6.24341 4.39033 7.31684 4.38677 8.4376C4.38319 9.55832 4.82498 10.6346 5.61495 11.4296L6.90066 12.7249C6.90203 12.7343 6.90203 12.744 6.90066 12.7534C6.66782 12.775 6.4335 12.775 6.20066 12.7534L5.24829 11.801C4.36423 10.9107 3.87008 9.7056 3.87454 8.45088C3.87901 7.19618 4.38173 5.99464 5.27209 5.11058C6.16246 4.22653 7.36756 3.73238 8.62224 3.73685C9.87696 3.74131 11.0785 4.24402 11.9626 5.13439C12.0058 5.17957 12.0306 5.23916 12.0323 5.30161C12.0341 5.36406 12.0126 5.42495 11.9721 5.47249Z" fill="#009EDB"/>
<path d="M13.9422 7.09066L13.585 7.44304L12.9612 6.81447C12.9378 6.79103 12.9191 6.7632 12.9064 6.73256C12.8937 6.70192 12.8872 6.66907 12.8872 6.6359C12.8872 6.60273 12.8937 6.56989 12.9064 6.53925C12.9191 6.50861 12.9378 6.48077 12.9612 6.45733C12.9846 6.43386 13.0125 6.41524 13.0431 6.40254C13.0738 6.38984 13.1066 6.3833 13.1398 6.3833C13.173 6.3833 13.2058 6.38984 13.2364 6.40254C13.267 6.41524 13.2949 6.43386 13.3183 6.45733L13.9422 7.09066Z" fill="#009EDB"/>
<path d="M8.55152 12.2575C8.39848 12.3422 8.23928 12.4154 8.07536 12.4766L6.32295 10.7242C5.7916 10.189 5.46375 9.48505 5.39593 8.73393C5.32812 7.98283 5.52463 7.23159 5.95152 6.60987C5.99001 6.55506 6.04836 6.51743 6.11417 6.50497C6.17998 6.49252 6.24805 6.50624 6.3039 6.54321C6.33117 6.56223 6.35441 6.58645 6.37229 6.61447C6.39016 6.64251 6.40233 6.67379 6.40808 6.70654C6.41384 6.73928 6.41306 6.77283 6.40581 6.80528C6.39856 6.83772 6.38496 6.86841 6.36581 6.89559C6.00595 7.42035 5.84044 8.05417 5.89781 8.68793C5.95519 9.32161 6.23184 9.91545 6.68009 10.367L8.55152 12.2575Z" fill="#009EDB"/>
<path d="M12.8748 8.14268L12.6129 8.4046L12.5271 8.49028L10.5605 6.50459C10.2006 6.14308 9.7467 5.88951 9.25021 5.77253C8.75365 5.65556 8.23438 5.67986 7.75094 5.84268C7.71862 5.85762 7.68358 5.86556 7.64798 5.866C7.61246 5.86642 7.57715 5.85932 7.54451 5.84516C7.51187 5.831 7.48259 5.8101 7.4586 5.78383C7.43461 5.75756 7.41644 5.72651 7.40529 5.69272C7.39414 5.65893 7.39026 5.62317 7.3939 5.58778C7.39755 5.55239 7.40864 5.51816 7.42644 5.48736C7.44424 5.45656 7.46835 5.42986 7.49719 5.40903C7.52604 5.3882 7.55896 5.3737 7.5938 5.36649C8.16381 5.1796 8.7747 5.15548 9.35766 5.2968C9.94062 5.43813 10.4726 5.73932 10.8938 6.16649L12.8748 8.14268Z" fill="#009EDB"/>
<path d="M11.822 9.19968L11.4649 9.55688L9.48862 7.56638C9.25062 7.37125 8.94838 7.27178 8.64094 7.2874C8.33358 7.30302 8.04302 7.43258 7.8259 7.65083C7.60886 7.86908 7.48089 8.16032 7.46696 8.46784C7.45302 8.77536 7.55413 9.07704 7.75054 9.314L9.02198 10.595C9.06934 10.6423 9.09598 10.7066 9.09598 10.7735C9.09598 10.8405 9.06934 10.9047 9.02198 10.9521C8.97462 10.9994 8.91038 11.0261 8.84342 11.0261C8.77646 11.0261 8.71222 10.9994 8.66486 10.9521L7.36961 9.67112C7.06738 9.3376 6.90548 8.9004 6.91763 8.45048C6.92977 8.00056 7.11504 7.57264 7.43483 7.25592C7.75462 6.9392 8.1843 6.75807 8.6343 6.75026C9.0843 6.74246 9.51998 6.90857 9.85054 7.214L11.822 9.19968Z" fill="#009EDB"/>
<path d="M10.7652 10.2514L10.5033 10.5181L10.4176 10.5991L8.43191 8.61813C8.38455 8.57077 8.35791 8.50653 8.35791 8.43949C8.35791 8.37253 8.38455 8.30829 8.43191 8.26093C8.47927 8.21357 8.54351 8.18701 8.61047 8.18701C8.67743 8.18701 8.74167 8.21357 8.78903 8.26093L10.7652 10.2514Z" fill="#009EDB"/>
<path fill-rule="evenodd" clip-rule="evenodd" d="M60.4565 10.1412L57.5136 5.92219L57.2183 5.65076H60.1326L62.0993 8.83651L62.2565 8.70787L63.4421 6.94123C63.5907 6.74823 63.6571 6.50436 63.6268 6.26268C63.5965 6.021 63.4719 5.80107 63.2802 5.65076H66.0183L62.8517 10.1365V13.3936L63.4088 14.0603H59.9897L60.466 13.4031C60.466 12.3222 60.4278 11.2222 60.466 10.1412H60.4565ZM52.4707 5.65076C52.6594 5.8462 52.7769 6.09949 52.8041 6.36981C52.8228 6.53121 52.8015 6.69475 52.7421 6.846L50.5565 13.1888C50.4119 13.5075 50.1989 13.7904 49.9326 14.0175H52.3136C52.1387 13.8741 52.0205 13.6732 51.9802 13.4507C51.9373 13.2949 51.9373 13.1304 51.9802 12.9746L52.4565 11.4698H55.2326L55.666 12.6317C55.7097 12.748 55.7369 12.8698 55.7469 12.9936C55.7752 13.1913 55.7489 13.393 55.6708 13.5767C55.5928 13.7606 55.4659 13.9195 55.3041 14.0365H59.0421C58.6736 13.7399 58.3704 13.3702 58.1517 12.9507L55.4183 5.62695L52.4707 5.65076ZM54.8517 10.4127H52.866L53.8183 7.66981L54.8421 10.4127H54.8517ZM44.8945 5.65552H49.0612C49.6657 5.65678 50.2452 5.8975 50.6727 6.32499C51.1001 6.75247 51.3408 7.33191 51.3421 7.93647V8.21747C51.3347 8.81619 51.0925 9.38811 50.6677 9.81027C50.2429 10.2323 49.6695 10.4709 49.0707 10.4746L48.0278 10.5079C48.4184 10.2948 48.7326 9.96498 48.9264 9.56451C49.1202 9.1641 49.184 8.71306 49.1088 8.27459C49.0278 7.56981 48.666 6.89362 48.0612 6.87933H47.6802V13.1222C47.6785 13.2225 47.7085 13.3208 47.766 13.4031C47.8801 13.5822 48.0075 13.7525 48.1469 13.9127L48.2565 14.046H45.0183L45.1565 13.8603C45.2579 13.7267 45.3426 13.5811 45.4088 13.427C45.4506 13.3375 45.4718 13.2399 45.4707 13.1412V6.42218C45.4565 6.06981 45.1088 5.86981 44.8945 5.65552Z" fill="#005BAA"/>
<path fill-rule="evenodd" clip-rule="evenodd" d="M27.3467 5.61426H29.9609L32.1562 11.9048L34.0181 6.69521C34.052 6.54331 34.0247 6.38416 33.9419 6.25235C33.8419 6.03807 33.7324 5.83331 33.6276 5.62378H35.58C35.4657 6.04759 35.2943 6.51426 35.1467 6.94283L32.6228 14.2857C31.8652 14.1644 31.1561 13.8347 30.5752 13.3333C30.185 12.9135 29.9024 12.4053 29.7514 11.8524L27.6419 6.23807C27.558 6.02355 27.4594 5.81511 27.3467 5.61426ZM37.7848 8.57139V13.0667C37.7848 13.2476 37.8276 13.2809 37.9419 13.4285L38.4562 14.1H35.9943L36.4086 13.4667C36.5101 13.3436 36.5642 13.1881 36.5609 13.0285V6.73807L35.8704 5.61426H38.4228L42.5514 10.9524V6.71426C42.556 6.55386 42.5036 6.39702 42.4038 6.2714C42.2657 6.05711 42.1181 5.85235 41.98 5.64283H44.4181L43.9419 6.29521C43.8276 6.43807 43.7848 6.4714 43.7848 6.65711V14.2857C43.286 14.2598 42.7986 14.127 42.3557 13.896C41.9128 13.6652 41.5248 13.3417 41.2181 12.9476L37.7848 8.57139Z" fill="#ED1C24"/>
<path d="M29.9601 16.9324C29.9601 17.2657 30.103 17.4419 30.4696 17.4419C30.6127 17.4419 30.7547 17.4161 30.8886 17.3657C30.9554 17.3371 30.9744 17.3657 30.9744 17.4276V17.4657C30.9744 17.5229 30.9744 17.5467 30.8886 17.58C30.7569 17.6317 30.6159 17.656 30.4744 17.6514C29.9696 17.6514 29.7315 17.4276 29.7315 16.9324V16.4562C29.7174 16.3558 29.7267 16.2534 29.7587 16.1572C29.7907 16.061 29.8446 15.9734 29.9161 15.9014C29.9876 15.8295 30.0747 15.7751 30.1708 15.7425C30.2668 15.7098 30.3691 15.6998 30.4696 15.7134C30.608 15.7142 30.7451 15.74 30.8744 15.7895C30.941 15.8134 30.9554 15.8419 30.9554 15.8991V15.9371C30.9554 16.0086 30.9267 16.0276 30.8649 16.0038C30.737 15.9491 30.5992 15.9215 30.4601 15.9229C30.1077 15.9229 29.9839 16.0943 29.9839 16.4657L29.9601 16.9324Z" fill="#009EDB"/>
<path d="M30.4753 17.6569C29.9658 17.6569 29.7277 17.4236 29.7277 16.9331V16.4569C29.7134 16.356 29.7227 16.2532 29.7551 16.1565C29.7873 16.0599 29.8416 15.972 29.9137 15.9C29.9857 15.828 30.0735 15.7736 30.1702 15.7414C30.2668 15.7091 30.3697 15.6997 30.4706 15.714C30.609 15.7149 30.7461 15.7408 30.8753 15.7902C30.9467 15.8188 30.9611 15.8474 30.9611 15.9045V15.9426C30.9611 15.9807 30.9611 16.0045 30.9611 16.014C30.9611 16.0236 30.923 16.014 30.8896 16.014C30.7607 15.9632 30.6234 15.9374 30.4848 15.9379C30.142 15.9379 30.0087 16.1045 30.0087 16.476V16.9521C30.0087 17.2997 30.1611 17.4569 30.5135 17.4569C30.6551 17.4588 30.7959 17.4329 30.9277 17.3807C30.9658 17.3807 30.9848 17.3807 30.9991 17.3807C31.0135 17.3807 30.9991 17.414 30.9991 17.4521V17.4902C30.9991 17.5521 30.9991 17.576 30.9135 17.6045C30.7735 17.656 30.6235 17.674 30.4753 17.6569ZM30.4753 15.7188C30.3742 15.7041 30.271 15.7134 30.174 15.746C30.0771 15.7784 29.9891 15.8333 29.9174 15.906C29.8455 15.9788 29.7918 16.0675 29.7605 16.1648C29.7292 16.2621 29.7212 16.3654 29.7372 16.4664V16.9426C29.7372 17.4188 29.9753 17.6569 30.4801 17.6569C30.6203 17.6648 30.7604 17.6404 30.8896 17.5855C30.9611 17.5569 30.9753 17.5331 30.9753 17.476V17.4284C30.9753 17.3902 30.9753 17.3712 30.9753 17.3616C30.9753 17.3521 30.9467 17.3616 30.9135 17.3616C30.7799 17.4139 30.6377 17.4397 30.4943 17.4379C30.142 17.4379 29.9801 17.2807 29.9801 16.9284V16.4521C29.9801 16.076 30.1372 15.9092 30.4848 15.9092C30.6251 15.907 30.7643 15.9329 30.8943 15.9855C30.923 15.9855 30.942 15.9855 30.9563 15.9855C30.961 15.975 30.9635 15.9636 30.9635 15.9521C30.9635 15.9406 30.961 15.9292 30.9563 15.9188V15.8807C30.9563 15.8284 30.9563 15.7997 30.8706 15.7712C30.7419 15.7277 30.6063 15.7084 30.4706 15.714L30.4753 15.7188Z" fill="#009EDB"/>
<path d="M31.2856 15.7139C31.2856 15.633 31.2856 15.6187 31.3761 15.6187H31.4094C31.4856 15.6187 31.4999 15.6187 31.4999 15.7139V16.3854C31.5552 16.3139 31.6282 16.2582 31.7118 16.2239C31.7954 16.1896 31.8866 16.1779 31.9761 16.1901C32.3142 16.1901 32.5142 16.333 32.5142 16.6663V17.5235C32.5142 17.5996 32.5142 17.6139 32.4237 17.6139H32.3856C32.3094 17.6139 32.2952 17.6139 32.2952 17.5235V16.6996C32.2952 16.4711 32.1952 16.3711 31.9237 16.3711C31.6523 16.3711 31.5237 16.4806 31.5237 16.7473V17.533C31.5237 17.6091 31.5237 17.6235 31.4332 17.6235H31.3999C31.3285 17.6235 31.3094 17.6235 31.3094 17.533L31.2856 15.7139Z" fill="#009EDB"/>
<path d="M32.3991 17.619H32.361C32.2848 17.619 32.2705 17.619 32.2705 17.5238V16.6999C32.2705 16.4667 32.161 16.3762 31.8991 16.3762C31.6371 16.3762 31.5039 16.4857 31.5039 16.7475V17.5333C31.5039 17.6095 31.5039 17.6285 31.4086 17.6285H31.3752C31.2991 17.6285 31.28 17.6285 31.28 17.5333V15.7143C31.28 15.6285 31.28 15.6143 31.3752 15.6143H31.4086C31.4848 15.6143 31.5039 15.6143 31.5039 15.7143V16.3762C31.5596 16.3055 31.6329 16.2507 31.7165 16.2173C31.8 16.1839 31.8909 16.173 31.98 16.1857C32.3371 16.1857 32.5181 16.3571 32.5181 16.6999V17.5571C32.5134 17.619 32.48 17.619 32.3991 17.619ZM31.8991 16.3571C32.1657 16.3571 32.2752 16.4571 32.2752 16.6904V17.5238C32.2752 17.5999 32.2752 17.6095 32.361 17.6095H32.3991C32.4752 17.6095 32.4895 17.6095 32.4895 17.5238V16.6667C32.4895 16.3285 32.3086 16.1619 31.9562 16.1619C31.8665 16.1454 31.7739 16.155 31.6895 16.1896C31.6051 16.2243 31.5323 16.2823 31.48 16.3571V15.7143C31.48 15.638 31.48 15.6238 31.3943 15.6238H31.361C31.2895 15.6238 31.2705 15.6238 31.2705 15.7143V17.5571C31.2705 17.6333 31.2705 17.6428 31.361 17.6428H31.3943C31.4705 17.6428 31.48 17.6428 31.48 17.5571V16.7475C31.4943 16.4809 31.6181 16.3667 31.8991 16.3667V16.3571Z" fill="#009EDB"/>
<path d="M32.8003 17.0436V16.777C32.8003 16.3722 33.0146 16.1675 33.4384 16.1675C33.8622 16.1675 34.0717 16.377 34.0717 16.777V17.0436C34.0717 17.4532 33.8622 17.6532 33.4384 17.6532C33.0146 17.6532 32.8003 17.4436 32.8003 17.0436ZM33.8527 16.777C33.8527 16.496 33.7527 16.3722 33.4384 16.3722C33.1241 16.3722 33.0193 16.496 33.0193 16.777V17.0436C33.0193 17.3246 33.1241 17.4484 33.4384 17.4484C33.7527 17.4484 33.8527 17.3246 33.8527 17.0436V16.777Z" fill="#009EDB"/>
<path d="M33.4392 17.6569C33.0011 17.6569 32.8011 17.4617 32.8011 17.0427V16.7759C32.793 16.69 32.8027 16.6034 32.8298 16.5214C32.8568 16.4395 32.9006 16.3639 32.9583 16.2998C33.0922 16.1909 33.2623 16.1364 33.4345 16.1474C33.8679 16.1474 34.0679 16.3427 34.0679 16.7617V17.0283C34.0807 17.1139 34.0734 17.2012 34.0463 17.2834C34.0193 17.3655 33.9734 17.4402 33.9122 17.5013C33.8511 17.5624 33.7764 17.6084 33.6943 17.6355C33.6121 17.6624 33.5247 17.6698 33.4392 17.6569ZM33.4392 16.1712C33.2675 16.1575 33.097 16.2103 32.9631 16.3188C32.9043 16.3823 32.8599 16.4577 32.8328 16.5399C32.8057 16.622 32.7965 16.7091 32.8059 16.795V17.0617C32.8059 17.4759 33.0059 17.6664 33.4392 17.6664C33.6112 17.6817 33.7823 17.6287 33.9155 17.5188C33.9742 17.4553 34.0186 17.3799 34.0457 17.2978C34.0728 17.2156 34.0819 17.1287 34.0726 17.0427V16.7759C34.0679 16.3617 33.8679 16.1903 33.4392 16.1903V16.1712ZM33.4392 17.4522C33.1345 17.4522 33.0155 17.3379 33.0155 17.0427V16.7759C33.0155 16.4807 33.1297 16.3664 33.4392 16.3664C33.7488 16.3664 33.8583 16.4807 33.8583 16.7759V17.0427C33.8583 17.3427 33.744 17.4522 33.4392 17.4522ZM33.4392 16.3759C33.1345 16.3759 33.025 16.4807 33.025 16.7759V17.0427C33.025 17.3331 33.1392 17.4427 33.4392 17.4427C33.7392 17.4427 33.8535 17.3379 33.8535 17.0427V16.7759C33.8535 16.4807 33.7392 16.3759 33.4392 16.3759Z" fill="#009EDB"/>
<path d="M35.1245 16.7659C35.1245 16.3849 35.3292 16.1659 35.7721 16.1659C35.8579 16.1631 35.9434 16.1761 36.0245 16.204C36.096 16.204 36.115 16.2469 36.115 16.3135V16.3421C36.115 16.4135 36.115 16.4373 36.0245 16.4135C35.9454 16.3839 35.8614 16.3693 35.7769 16.3706C35.4531 16.3706 35.3436 16.4993 35.3436 16.7706V17.0516C35.3436 17.3421 35.4721 17.4469 35.8197 17.4469C35.9071 17.45 35.9942 17.4371 36.0769 17.4088C36.1436 17.3849 36.1626 17.4088 36.1626 17.4801V17.5088C36.1626 17.5706 36.1626 17.5945 36.0721 17.6135C35.9844 17.6414 35.8927 17.6543 35.8007 17.6516C35.3579 17.6516 35.1483 17.4611 35.1483 17.0516L35.1245 16.7659Z" fill="#009EDB"/>
<path d="M35.7762 17.6582C35.6048 17.6682 35.4356 17.6157 35.2999 17.5106C35.2401 17.4476 35.1947 17.3724 35.1667 17.2903C35.1387 17.208 35.129 17.1207 35.138 17.0343V16.7487C35.1329 16.6676 35.1446 16.5864 35.1725 16.5102C35.2003 16.4339 35.2438 16.3643 35.2999 16.3058C35.4312 16.1913 35.6023 16.1331 35.7762 16.1439C35.8618 16.1431 35.947 16.1559 36.0285 16.1819C36.1047 16.1819 36.119 16.2296 36.119 16.2963V16.3248C36.119 16.3677 36.119 16.3915 36.119 16.4011C36.108 16.4068 36.0958 16.4099 36.0833 16.4099C36.0708 16.4099 36.0586 16.4068 36.0475 16.4011C35.9675 16.3757 35.8839 16.3628 35.7999 16.3629C35.4904 16.3629 35.3667 16.4772 35.3667 16.7582V17.0391C35.3667 17.3248 35.4904 17.4296 35.8428 17.4296C35.9302 17.4331 36.0174 17.4203 36.0999 17.3915C36.1333 17.3915 36.1523 17.3915 36.1667 17.3915C36.1809 17.3915 36.1904 17.4248 36.1904 17.4677V17.4963C36.1904 17.5629 36.1904 17.5867 36.0952 17.6058C35.9928 17.6422 35.8847 17.6599 35.7762 17.6582ZM35.7762 16.1724C35.3523 16.1724 35.1333 16.3772 35.1333 16.7677V17.0534C35.1333 17.4629 35.338 17.6487 35.7809 17.6487C35.8725 17.6507 35.9639 17.6394 36.0523 17.6153C36.1238 17.6153 36.1428 17.5724 36.1428 17.5106V17.4819C36.1428 17.4439 36.1428 17.4201 36.1428 17.4106C36.1428 17.4011 36.1095 17.4106 36.0809 17.4106C35.9961 17.4366 35.9078 17.4495 35.819 17.4487C35.4904 17.4487 35.3428 17.3343 35.3428 17.0487V16.7677C35.3428 16.4819 35.4714 16.3629 35.7809 16.3629C35.8654 16.362 35.9493 16.3766 36.0285 16.4058C36.0619 16.4058 36.0809 16.4058 36.0952 16.4058C36.1095 16.4058 36.0952 16.3724 36.0952 16.3343V16.3058C36.0952 16.2439 36.0952 16.2201 36.0095 16.1963C35.9307 16.1832 35.8506 16.1816 35.7714 16.1915L35.7762 16.1724Z" fill="#009EDB"/>
<path d="M36.5608 17.1091C36.5608 17.3377 36.6561 17.4472 36.9465 17.4472C37.237 17.4472 37.3323 17.3425 37.3323 17.1091V16.2853C37.3323 16.2139 37.3323 16.1948 37.4275 16.1948H37.4561C37.537 16.1948 37.5513 16.1948 37.5513 16.2853V17.1091C37.5513 17.4615 37.3752 17.652 36.9465 17.652C36.518 17.652 36.3228 17.4711 36.3228 17.1091V16.2853C36.3228 16.2139 36.3228 16.1948 36.418 16.1948H36.4465C36.5275 16.1948 36.5418 16.1948 36.5418 16.2853L36.5608 17.1091Z" fill="#009EDB"/>
<path d="M36.947 17.6571C36.547 17.6571 36.3423 17.4714 36.3423 17.1095V16.2856C36.3423 16.2142 36.3423 16.1904 36.4328 16.1904H36.4661C36.547 16.1904 36.5613 16.1904 36.5613 16.2856V17.1095C36.5613 17.3523 36.6708 17.4428 36.947 17.4428C37.2232 17.4428 37.328 17.3523 37.328 17.1095V16.2856C37.328 16.2142 37.328 16.1904 37.428 16.1904H37.4565C37.5423 16.1904 37.5518 16.1904 37.5518 16.2856V17.1095C37.5585 17.1828 37.5497 17.2568 37.526 17.3266C37.5021 17.3964 37.4639 17.4603 37.4137 17.5142C37.282 17.6195 37.1151 17.6707 36.947 17.6571ZM36.4328 16.1904C36.3661 16.1904 36.347 16.1904 36.347 16.2761V17.0999C36.3406 17.1741 36.3504 17.2487 36.376 17.3187C36.4015 17.3886 36.442 17.4521 36.4947 17.5047C36.63 17.6095 36.8008 17.6573 36.9708 17.638C37.0554 17.6474 37.141 17.64 37.2227 17.6163C37.3044 17.5927 37.3806 17.5531 37.447 17.4999C37.4974 17.4471 37.5357 17.3839 37.5596 17.315C37.5834 17.2459 37.5921 17.1726 37.5852 17.0999V16.2856C37.5852 16.219 37.5852 16.1999 37.4947 16.1999H37.4661C37.3947 16.1999 37.3756 16.1999 37.3756 16.2856V17.1095C37.3756 17.3571 37.266 17.4523 36.9852 17.4523C36.7042 17.4523 36.5947 17.3571 36.5947 17.1095V16.2856C36.5947 16.219 36.5947 16.1999 36.5042 16.1999L36.4328 16.1904Z" fill="#009EDB"/>
<path d="M37.8418 17.0426V16.7759C37.8418 16.3711 38.0513 16.1664 38.4799 16.1664C38.9084 16.1664 39.1084 16.3759 39.1084 16.7759V17.0426C39.1084 17.4521 38.8989 17.6521 38.4799 17.6521C38.0608 17.6521 37.8418 17.4426 37.8418 17.0426ZM38.8942 16.7759C38.8942 16.495 38.7942 16.3712 38.4799 16.3712C38.1656 16.3712 38.056 16.495 38.056 16.7759V17.0426C38.056 17.3235 38.1656 17.4474 38.4799 17.4474C38.7942 17.4474 38.8942 17.3235 38.8942 17.0426V16.7759ZM38.2752 15.7855C38.3418 15.6807 38.3847 15.6426 38.4799 15.6426C38.5752 15.6426 38.6132 15.6712 38.6847 15.7855L38.7942 15.9569C38.8275 16.0093 38.7942 16.0235 38.756 16.0235C38.7316 16.0275 38.7065 16.0231 38.6849 16.0111C38.6632 15.9989 38.6464 15.9799 38.637 15.9569L38.5704 15.8426C38.5275 15.7616 38.4799 15.7616 38.4323 15.8426L38.3704 15.9569C38.3604 15.9793 38.3433 15.9979 38.3219 16.0099C38.3004 16.0219 38.2757 16.0267 38.2513 16.0235H38.2228C38.1656 16.0235 38.156 16.0235 38.1894 15.9569L38.2752 15.7855ZM38.3799 17.9093C38.4 17.8897 38.4255 17.8765 38.4531 17.8713C38.4807 17.8661 38.5092 17.8691 38.5351 17.88C38.5609 17.891 38.583 17.9093 38.5986 17.9327C38.6141 17.9561 38.6224 17.9835 38.6224 18.0116C38.6224 18.0398 38.6141 18.0672 38.5986 18.0906C38.583 18.114 38.5609 18.1323 38.5351 18.1433C38.5092 18.1542 38.4807 18.1572 38.4531 18.152C38.4255 18.1468 38.4 18.1336 38.3799 18.114C38.3662 18.1007 38.3553 18.0848 38.3479 18.0672C38.3405 18.0496 38.3367 18.0307 38.3367 18.0116C38.3367 17.9926 38.3405 17.9737 38.3479 17.9561C38.3553 17.9385 38.3662 17.9226 38.3799 17.9093Z" fill="#009EDB"/>
<path d="M38.4826 18.156C38.4451 18.1548 38.4095 18.1394 38.383 18.1128C38.3564 18.0863 38.341 18.0506 38.3398 18.0131C38.3391 17.9937 38.3426 17.9742 38.35 17.9562C38.3574 17.9381 38.3685 17.9218 38.3826 17.9084C38.3952 17.8944 38.4106 17.8833 38.4279 17.8758C38.4452 17.8685 38.4638 17.865 38.4826 17.8655C38.5218 17.8655 38.5594 17.881 38.587 17.9087C38.6147 17.9365 38.6302 17.974 38.6302 18.0131C38.6309 18.0319 38.6274 18.0506 38.6199 18.0679C38.6126 18.0852 38.6014 18.1006 38.5874 18.1131C38.5736 18.1268 38.5573 18.1377 38.5393 18.145C38.5214 18.1524 38.5021 18.1561 38.4826 18.156ZM38.4826 17.8703C38.4639 17.8703 38.4454 17.8741 38.4282 17.8814C38.411 17.8888 38.3955 17.8996 38.3826 17.9131C38.3574 17.9402 38.3438 17.9762 38.3446 18.0131C38.3447 18.05 38.3586 18.0852 38.383 18.1128C38.4102 18.1379 38.4456 18.1522 38.4826 18.1522C38.5197 18.1522 38.5554 18.1382 38.5826 18.1131C38.5962 18.1002 38.607 18.0847 38.6143 18.0675C38.6217 18.0503 38.6255 18.0318 38.6255 18.0131C38.6243 17.9756 38.6089 17.94 38.5823 17.9134C38.5558 17.8869 38.5202 17.8714 38.4826 17.8703ZM38.4826 17.656C38.0446 17.656 37.8398 17.4608 37.8398 17.0417V16.775C37.8322 16.6888 37.8427 16.6019 37.8706 16.5199C37.8985 16.4379 37.9431 16.3626 38.0017 16.2989C38.1351 16.1891 38.3055 16.1346 38.4779 16.1465C38.9112 16.1465 39.1112 16.3417 39.1112 16.7608V17.0274C39.1241 17.113 39.1167 17.2003 39.0898 17.2824C39.0627 17.3646 39.0167 17.4392 38.9556 17.5004C38.8945 17.5615 38.8198 17.6074 38.7377 17.6345C38.6555 17.6615 38.5682 17.6689 38.4826 17.656ZM38.4826 16.1703C38.3107 16.1555 38.1399 16.2085 38.0065 16.3179C37.9478 16.3814 37.9033 16.4568 37.8762 16.539C37.8491 16.6211 37.8399 16.7081 37.8493 16.7941V17.0608C37.8493 17.475 38.0493 17.6655 38.4826 17.6655C38.6545 17.6798 38.8252 17.6269 38.9588 17.5179C39.0176 17.4544 39.062 17.379 39.0891 17.2969C39.1162 17.2147 39.1254 17.1277 39.116 17.0417V16.775C39.1112 16.3608 38.9112 16.1894 38.4826 16.1894V16.1703ZM38.4826 17.4512C38.1779 17.4512 38.0588 17.337 38.0588 17.0417V16.775C38.0588 16.4798 38.1731 16.3655 38.4826 16.3655C38.7922 16.3655 38.897 16.4798 38.897 16.775V17.0417C38.897 17.3417 38.7874 17.4512 38.4826 17.4512ZM38.4826 16.375C38.1779 16.375 38.0636 16.4798 38.0636 16.775V17.0417C38.0636 17.3322 38.1826 17.4417 38.4826 17.4417C38.7826 17.4417 38.8922 17.337 38.8922 17.0417V16.775C38.8922 16.4798 38.7826 16.375 38.4826 16.375ZM38.7589 16.0274C38.7338 16.0311 38.7082 16.026 38.6866 16.013C38.6649 16 38.6483 15.9798 38.6398 15.956L38.5731 15.8465C38.5731 15.8036 38.5255 15.7846 38.5065 15.7846C38.5065 15.7846 38.4589 15.7846 38.4398 15.8465L38.3731 15.956C38.3646 15.9798 38.3481 16 38.3264 16.013C38.3046 16.026 38.2791 16.0311 38.2541 16.0274H38.2255C38.1922 16.0274 38.1779 16.0274 38.1731 16.0274C38.1684 16.0274 38.1731 15.9989 38.1731 15.975L38.2826 15.8036C38.3541 15.6989 38.3922 15.6608 38.4922 15.6608C38.5922 15.6608 38.6255 15.6894 38.697 15.8036L38.8065 15.975C38.8065 15.9989 38.835 16.0179 38.8065 16.0274C38.7779 16.037 38.7922 16.0274 38.7589 16.0274ZM38.4826 15.7798C38.4826 15.7798 38.5302 15.7798 38.5541 15.8417L38.6207 15.956C38.6292 15.9786 38.6452 15.9975 38.666 16.0097C38.6869 16.0218 38.7112 16.0264 38.735 16.0226C38.7684 16.0226 38.7826 16.0226 38.7874 16.0226C38.7922 16.0226 38.7874 16.0226 38.7874 15.975L38.7065 15.7894C38.6398 15.675 38.597 15.6465 38.5065 15.6465C38.416 15.6465 38.3731 15.6798 38.3017 15.7894L38.1922 15.9608C38.1922 15.9608 38.1922 15.9989 38.1922 16.0084C38.1922 16.0179 38.1922 16.0084 38.2398 16.0084H38.2302C38.2538 16.0105 38.2776 16.0052 38.298 15.9933C38.3185 15.9814 38.3348 15.9633 38.3446 15.9417L38.4112 15.8274C38.435 15.7989 38.4588 15.7798 38.4826 15.7798Z" fill="#009EDB"/>
<path d="M39.3911 16.7659C39.3911 16.3849 39.5959 16.1659 40.0387 16.1659C40.1245 16.1631 40.21 16.1761 40.2911 16.204C40.3626 16.204 40.3816 16.2469 40.3816 16.3135V16.3421C40.3816 16.4135 40.3816 16.4373 40.2911 16.4135C40.2121 16.3834 40.128 16.3689 40.0435 16.3706C39.7197 16.3706 39.6102 16.4993 39.6102 16.7706V17.0516C39.6102 17.3421 39.7387 17.4469 40.0626 17.4469C40.1514 17.4497 40.2401 17.4367 40.3245 17.4088C40.3911 17.3849 40.4102 17.4088 40.4102 17.4801V17.5088C40.4102 17.5706 40.4102 17.5945 40.315 17.6135C40.2289 17.6415 40.1386 17.6544 40.0482 17.6516C39.6006 17.6516 39.3911 17.4611 39.3911 17.0516V16.7659Z" fill="#009EDB"/>
<path d="M40.0472 17.6582C39.8756 17.67 39.7057 17.6173 39.5709 17.5106C39.51 17.4483 39.4638 17.3733 39.4358 17.2909C39.4077 17.2084 39.3986 17.1208 39.409 17.0343V16.7487C39.4033 16.6679 39.4142 16.587 39.4413 16.5107C39.4683 16.4346 39.5109 16.3647 39.5662 16.3058C39.6974 16.1913 39.8685 16.1331 40.0424 16.1439C40.1295 16.1435 40.2162 16.1563 40.2995 16.1819C40.3709 16.1819 40.3853 16.2296 40.3853 16.2963V16.3248C40.3853 16.3677 40.3853 16.3915 40.3853 16.4011C40.3742 16.4068 40.362 16.4099 40.3495 16.4099C40.3371 16.4099 40.3248 16.4068 40.3138 16.4011C40.2337 16.3757 40.1502 16.3628 40.0662 16.3629C39.7614 16.3629 39.6329 16.4772 39.6329 16.7582V17.0391C39.6329 17.3248 39.7567 17.4296 40.0853 17.4296C40.1726 17.4331 40.2598 17.4203 40.3424 17.3915C40.3537 17.3867 40.3658 17.3842 40.3781 17.3842C40.3904 17.3842 40.4025 17.3867 40.4138 17.3915C40.4138 17.3915 40.4138 17.4248 40.4138 17.4677V17.4963C40.4138 17.5629 40.4138 17.5867 40.3233 17.6058C40.2344 17.6368 40.1413 17.6545 40.0472 17.6582ZM40.0472 16.1724C39.6281 16.1724 39.4043 16.3772 39.4043 16.7677V17.0534C39.4043 17.4629 39.609 17.6487 40.0567 17.6487C40.1467 17.6502 40.2365 17.639 40.3233 17.6153C40.3948 17.6153 40.4138 17.5724 40.4138 17.5106V17.4819C40.4138 17.4439 40.4138 17.4201 40.4138 17.4106C40.4138 17.4011 40.3805 17.4106 40.3519 17.4106C40.2671 17.4366 40.1787 17.4495 40.09 17.4487C39.7614 17.4487 39.6138 17.3343 39.6138 17.0487V16.7677C39.6138 16.4819 39.7424 16.3629 40.0519 16.3629C40.1379 16.362 40.2234 16.3765 40.3043 16.4058C40.3376 16.4058 40.3567 16.4058 40.3662 16.4058C40.3757 16.4058 40.3662 16.3724 40.3662 16.3343V16.3058C40.3662 16.2439 40.3662 16.2201 40.2805 16.1963C40.2002 16.1825 40.1184 16.1809 40.0376 16.1915L40.0472 16.1724Z" fill="#009EDB"/>
<path d="M41.3657 17.4666C41.3657 17.3953 41.3657 17.3761 41.4609 17.3905C41.5987 17.4307 41.7413 17.4515 41.8848 17.4524C42.1085 17.4524 42.199 17.4095 42.199 17.2857C42.199 17.1619 42.1514 17.1429 42.0133 17.0761L41.6609 16.9095C41.4752 16.819 41.3895 16.7333 41.3895 16.5333C41.3895 16.3333 41.5609 16.1905 41.9038 16.1905C42.0264 16.1897 42.1484 16.2074 42.2657 16.2429C42.3324 16.2429 42.3514 16.2857 42.3514 16.3524V16.3809C42.3514 16.4524 42.3514 16.4666 42.2609 16.4476C42.1439 16.4109 42.0217 16.3933 41.899 16.3953C41.6848 16.3953 41.6038 16.4381 41.6038 16.5571C41.6038 16.6761 41.6562 16.7 41.7562 16.7476L42.1276 16.9143C42.3228 17.0095 42.4181 17.0953 42.4181 17.3048C42.4181 17.5143 42.2419 17.6761 41.8704 17.6761C41.7322 17.6779 41.5944 17.6602 41.4609 17.6238C41.3848 17.6 41.3657 17.5761 41.3657 17.5143V17.4666Z" fill="#009EDB"/>
<path d="M41.8704 17.6566C41.7304 17.657 41.5909 17.6377 41.4562 17.5995C41.3848 17.5995 41.3657 17.5566 41.3657 17.4899C41.3657 17.4518 41.3657 17.428 41.3657 17.4185C41.3657 17.409 41.4038 17.4185 41.4419 17.4185C41.58 17.4565 41.7225 17.4757 41.8657 17.4756C42.0943 17.4756 42.18 17.4327 42.18 17.3137C42.18 17.1947 42.1372 17.1756 41.9943 17.109L41.6372 16.9375C41.4609 16.8518 41.3657 16.7661 41.3657 16.5614C41.3657 16.3566 41.5324 16.1899 41.8848 16.1899C42.0078 16.1875 42.1303 16.2069 42.2467 16.2471C42.3181 16.2471 42.3372 16.2899 42.3372 16.3566V16.3851C42.346 16.4082 42.346 16.4336 42.3372 16.4566C42.3128 16.4667 42.2853 16.4667 42.2609 16.4566C42.146 16.4172 42.0252 16.3979 41.9038 16.3995C41.6943 16.3995 41.6133 16.4471 41.6133 16.5614C41.6156 16.6038 41.6311 16.6445 41.6575 16.6778C41.684 16.7111 41.7201 16.7352 41.7609 16.7471L42.1324 16.9185C42.3228 17.0042 42.4228 17.0947 42.4228 17.309C42.4228 17.5232 42.2419 17.6566 41.8704 17.6566ZM41.3943 17.3899H41.3657C41.3657 17.3899 41.3657 17.4232 41.3657 17.4566C41.3657 17.5185 41.3657 17.5423 41.4562 17.5614C41.5894 17.5986 41.7274 17.6162 41.8657 17.6137C42.2419 17.6137 42.4085 17.5042 42.4085 17.2471C42.4085 16.9899 42.3085 16.9471 42.1228 16.8614L41.7514 16.6899C41.7084 16.6789 41.67 16.6545 41.6418 16.6203C41.6136 16.586 41.5969 16.5437 41.5943 16.4995C41.5943 16.3804 41.68 16.3327 41.8943 16.3327C42.0172 16.3316 42.1396 16.351 42.2562 16.3899C42.2895 16.3899 42.3085 16.3899 42.3228 16.3899C42.3273 16.3794 42.3296 16.368 42.3296 16.3566C42.3296 16.3451 42.3273 16.3338 42.3228 16.3232V16.2947C42.3228 16.228 42.3228 16.2137 42.2372 16.1899C42.1203 16.1522 41.998 16.1345 41.8752 16.1375C41.5276 16.1375 41.3657 16.2519 41.3657 16.4995C41.3657 16.7471 41.4562 16.7851 41.6324 16.8709L41.9848 17.0423C42.1276 17.109 42.1752 17.1614 42.1752 17.2518C42.1752 17.3423 42.0895 17.4185 41.8562 17.4185C41.7114 17.4183 41.5673 17.3991 41.4276 17.3614L41.3943 17.3899Z" fill="#009EDB"/>
<path d="M42.6938 17.0439V16.7771C42.6938 16.3724 42.9081 16.1676 43.3319 16.1676C43.7558 16.1676 43.9653 16.3771 43.9653 16.7771V17.0439C43.9653 17.4534 43.7558 17.6534 43.3319 17.6534C42.9081 17.6534 42.6938 17.4439 42.6938 17.0439ZM43.7462 16.7771C43.7462 16.4962 43.651 16.3724 43.3319 16.3724C43.0129 16.3724 42.9129 16.4962 42.9129 16.7771V17.0439C42.9129 17.3248 43.0176 17.4486 43.3319 17.4486C43.6462 17.4486 43.7462 17.3248 43.7462 17.0439V16.7771ZM43.1271 15.7867C43.1986 15.6819 43.2367 15.6439 43.3319 15.6439C43.4271 15.6439 43.47 15.6724 43.5367 15.7867L43.651 15.9581C43.6843 16.0105 43.651 16.0248 43.6129 16.0248C43.5884 16.0288 43.5634 16.0243 43.5417 16.0123C43.5201 16.0002 43.5032 15.9811 43.4938 15.9581L43.4271 15.8439C43.3795 15.7629 43.3319 15.7629 43.289 15.8439L43.2224 15.9581C43.1938 16.0153 43.1653 16.0248 43.1034 16.0248C43.0414 16.0248 43.0319 16.0248 43.0653 15.9581L43.1271 15.7867ZM43.8653 15.6153C43.8533 15.6372 43.8353 15.6552 43.8133 15.6671C43.7913 15.6788 43.7663 15.684 43.7414 15.6819H43.7129C43.6462 15.6819 43.6367 15.6819 43.67 15.6105L43.789 15.3771C43.7998 15.3479 43.8204 15.3232 43.8474 15.3076C43.8743 15.2919 43.9059 15.2862 43.9367 15.2915H43.9653C44.0414 15.2915 44.0558 15.2915 44.0129 15.3724L43.8653 15.6153Z" fill="#009EDB"/>
<path d="M43.3328 17.6575C42.8995 17.6575 42.6947 17.4622 42.6947 17.0432V16.7766C42.6865 16.6906 42.6963 16.6039 42.7233 16.5219C42.7504 16.44 42.7941 16.3646 42.8519 16.3003C42.9862 16.1922 43.1559 16.1379 43.3281 16.1479C43.7614 16.1479 43.9661 16.3432 43.9661 16.7622V17.0289C43.9709 17.4527 43.7566 17.6575 43.3328 17.6575ZM43.3328 16.1718C43.161 16.158 42.9905 16.2109 42.8566 16.3194C42.7979 16.3829 42.7535 16.4583 42.7264 16.5404C42.6992 16.6226 42.6901 16.7096 42.6995 16.7956V17.0622C42.6995 17.4766 42.8995 17.667 43.3328 17.667C43.5048 17.6822 43.6758 17.6292 43.809 17.5194C43.8677 17.4558 43.9121 17.3805 43.9393 17.2983C43.9664 17.2162 43.9756 17.1292 43.9661 17.0432V16.7766C43.9424 16.3622 43.7614 16.1908 43.3328 16.1908V16.1718ZM43.3328 17.4527C43.028 17.4527 42.909 17.3384 42.909 17.0432V16.7766C42.909 16.4813 43.0233 16.367 43.3328 16.367C43.6424 16.367 43.7519 16.4813 43.7519 16.7766V17.0432C43.7519 17.3432 43.6376 17.4527 43.3328 17.4527ZM43.3328 16.3766C43.028 16.3766 42.9185 16.4813 42.9185 16.7766V17.0432C42.9185 17.3337 43.0328 17.4432 43.3328 17.4432C43.6328 17.4432 43.7471 17.3384 43.7471 17.0432V16.7766C43.7471 16.4813 43.6328 16.3766 43.3328 16.3766ZM43.6138 16.0289C43.5881 16.0329 43.5618 16.0279 43.5393 16.015C43.5168 16.0019 43.4994 15.9817 43.49 15.9575L43.4233 15.8479C43.3804 15.767 43.3376 15.767 43.29 15.8479L43.2281 15.9575C43.2186 15.9817 43.2012 16.0019 43.1787 16.015C43.1562 16.0279 43.13 16.0329 43.1043 16.0289C43.0709 16.0289 43.0519 16.0289 43.0471 16.0289C43.0424 16.0289 43.0471 16.0003 43.0471 15.9766L43.1566 15.8051C43.2233 15.7003 43.2661 15.6622 43.3614 15.6622C43.4566 15.6622 43.4995 15.6908 43.5709 15.8051L43.6804 15.9766C43.6804 16.0003 43.6804 16.0194 43.6804 16.0289C43.6804 16.0384 43.6471 16.0289 43.6138 16.0289ZM43.3328 15.7813C43.3328 15.7813 43.3804 15.7813 43.4043 15.8432L43.4709 15.9575C43.4809 15.9799 43.498 15.9986 43.5194 16.0106C43.5408 16.0226 43.5656 16.0273 43.59 16.0242C43.6185 16.0242 43.6376 16.0242 43.6424 16.0242C43.6471 16.0242 43.6424 16.0242 43.6424 15.9766L43.5328 15.8051C43.4614 15.6908 43.4233 15.6622 43.3281 15.6622C43.2329 15.6622 43.1947 15.6956 43.1281 15.8051L43.0185 15.9766C43.0185 15.9766 43.0185 16.0146 43.0185 16.0242C43.0185 16.0337 43.0185 16.0242 43.0709 16.0242C43.0952 16.0266 43.1196 16.0215 43.1409 16.0096C43.1622 15.9976 43.1793 15.9794 43.19 15.9575L43.2519 15.8432C43.2852 15.8003 43.309 15.7813 43.3328 15.7813ZM43.7424 15.6861H43.7138C43.6756 15.6861 43.6566 15.6861 43.6519 15.6861C43.6441 15.6662 43.6441 15.6441 43.6519 15.6242L43.7756 15.3908C43.779 15.3726 43.786 15.3553 43.7964 15.3399C43.8068 15.3246 43.8202 15.3115 43.8359 15.3017C43.8516 15.2918 43.8692 15.2854 43.8875 15.2826C43.9058 15.28 43.9245 15.2811 43.9424 15.2861H43.9709C44.0138 15.2861 44.0376 15.2861 44.0424 15.2861C44.0471 15.2861 44.0424 15.3194 44.0424 15.3575L43.8995 15.5956C43.8871 15.626 43.8649 15.6514 43.8364 15.6678C43.808 15.6842 43.7748 15.6906 43.7424 15.6861ZM43.9376 15.2908C43.9076 15.2867 43.8771 15.293 43.8511 15.3086C43.8252 15.3242 43.8052 15.3482 43.7947 15.3766L43.6709 15.6098C43.6709 15.6432 43.6709 15.6575 43.6709 15.667C43.6709 15.6766 43.6709 15.667 43.7281 15.667H43.7566C43.7818 15.6675 43.8067 15.6611 43.8285 15.6486C43.8503 15.636 43.8683 15.6177 43.8804 15.5956L44.0233 15.3575C44.0233 15.3242 44.0519 15.3051 44.0233 15.2956C43.9947 15.2861 43.9947 15.2956 43.9566 15.2956L43.9376 15.2908Z" fill="#009EDB"/>
<path d="M44.491 17.5341C44.491 17.6104 44.491 17.6246 44.4005 17.6246H44.3672C44.2958 17.6246 44.272 17.6246 44.272 17.5341V16.7104C44.272 16.3484 44.4767 16.1675 44.8815 16.1675C45.2863 16.1675 45.4815 16.358 45.4815 16.7104V17.5341C45.4815 17.6104 45.4815 17.6246 45.391 17.6246H45.372C45.291 17.6246 45.2767 17.6246 45.2767 17.5341V16.7104C45.2767 16.477 45.1863 16.3722 44.8958 16.3722C44.6053 16.3722 44.5053 16.4817 44.5053 16.7104L44.491 17.5341Z" fill="#009EDB"/>
<path d="M45.3736 17.6192C45.2926 17.6192 45.2736 17.6192 45.2736 17.524V16.7097C45.2736 16.4669 45.1736 16.3764 44.8974 16.3764C44.6212 16.3764 44.5116 16.4669 44.5116 16.7097V17.5335C44.5116 17.6097 44.5116 17.6287 44.4164 17.6287H44.3831C44.3116 17.6287 44.2879 17.6287 44.2879 17.5335V16.7097C44.2879 16.3478 44.4926 16.1621 44.8974 16.1621C44.9823 16.1534 45.068 16.1615 45.1497 16.186C45.2315 16.2106 45.3076 16.251 45.3736 16.305C45.4244 16.3586 45.4633 16.4225 45.488 16.4922C45.5125 16.5619 45.5223 16.636 45.5164 16.7097V17.5335C45.4879 17.6192 45.4736 17.6192 45.3736 17.6192ZM44.8974 16.3669C45.1784 16.3669 45.2831 16.4621 45.2831 16.7097V17.5335C45.2831 17.6097 45.2831 17.6192 45.3736 17.6192C45.4498 17.6192 45.464 17.6192 45.464 17.5335V16.7097C45.4701 16.6367 45.4604 16.5633 45.4359 16.4942C45.4112 16.4253 45.3721 16.3624 45.3212 16.3097C45.1987 16.2206 45.0484 16.1784 44.8974 16.1906C44.7273 16.1714 44.5565 16.2193 44.4212 16.324C44.3682 16.3766 44.3272 16.4399 44.3008 16.5098C44.2745 16.5796 44.2636 16.6543 44.2688 16.7287V17.5526C44.2688 17.6287 44.2688 17.6383 44.3593 17.6383H44.4212C44.4974 17.6383 44.5116 17.6383 44.5116 17.5526V16.7097C44.4926 16.4621 44.6021 16.3669 44.8974 16.3669Z" fill="#009EDB"/>
<path d="M46.9867 16.7033C46.9867 17.0366 46.7915 17.2081 46.3867 17.2081C46.2855 17.197 46.1833 17.197 46.082 17.2081C46.061 17.2115 46.042 17.2228 46.0288 17.2395C46.0156 17.2562 46.0091 17.2773 46.0106 17.2986C46.0106 17.3366 46.0106 17.3652 46.0867 17.3795C46.1867 17.3872 46.2869 17.3872 46.3867 17.3795C46.5507 17.3681 46.7147 17.3992 46.863 17.4699C46.9124 17.5039 46.9518 17.5506 46.977 17.605C47.0021 17.6595 47.0121 17.7198 47.0059 17.7795C47.0123 17.844 47.0027 17.9091 46.9778 17.969C46.9528 18.0289 46.9134 18.0815 46.863 18.1223C46.7167 18.1994 46.5517 18.2341 46.3867 18.2223C46.2219 18.2326 46.0574 18.1981 45.9106 18.1223C45.8638 18.0873 45.8266 18.041 45.8024 17.9877C45.7783 17.9344 45.768 17.8759 45.7725 17.8176C45.7692 17.7557 45.7831 17.6941 45.8124 17.6394C45.8419 17.5849 45.8857 17.5394 45.9391 17.5081C45.9017 17.493 45.8699 17.4665 45.8486 17.4322C45.8271 17.398 45.8172 17.3578 45.8201 17.3176C45.8201 17.189 45.8963 17.1128 46.0535 17.089C45.9732 17.0547 45.9062 16.9954 45.8624 16.9198C45.8187 16.8443 45.8005 16.7566 45.8106 16.6699V16.6652C45.8106 16.3509 46.0344 16.189 46.4106 16.189C46.5135 16.1868 46.6157 16.2062 46.7106 16.2462L46.8772 16.0986C46.9249 16.0557 46.9487 16.0557 46.9963 16.0986C47.0439 16.1414 47.0439 16.1652 46.9963 16.2128L46.8677 16.3462C46.9095 16.3887 46.9421 16.4394 46.9635 16.4951C46.9847 16.5509 46.9943 16.6104 46.9915 16.6699L46.9867 16.7033ZM46.1059 17.589C46.0623 17.611 46.0259 17.6453 46.0015 17.6876C45.977 17.7298 45.9652 17.7783 45.9677 17.8271C45.9677 18.0176 46.0772 18.0652 46.3867 18.0652C46.6963 18.0652 46.8059 18.0176 46.8059 17.8223C46.8059 17.6271 46.7011 17.6081 46.3867 17.6081C46.2928 17.6086 46.1989 17.6022 46.1059 17.589ZM46.7677 16.6652C46.7677 16.4604 46.6391 16.3604 46.3867 16.3604C46.1344 16.3604 46.0011 16.4604 46.0011 16.6652V16.7033C46.0011 16.9081 46.0963 17.0128 46.3867 17.0128C46.6772 17.0128 46.7677 16.9081 46.7677 16.7033V16.6652Z" fill="#009EDB"/>
<path d="M46.386 18.2582C46.2216 18.2706 46.0569 18.2377 45.9098 18.163C45.8633 18.1266 45.8264 18.0793 45.8023 18.0254C45.7782 17.9714 45.7678 17.9123 45.7718 17.8534C45.768 17.7925 45.7806 17.7317 45.8082 17.6773C45.8358 17.6229 45.8775 17.5768 45.9289 17.5439C45.8927 17.5275 45.8624 17.5005 45.842 17.4665C45.8216 17.4325 45.812 17.393 45.8146 17.3534C45.8146 17.2264 45.8908 17.1502 46.0432 17.1248C45.9643 17.0891 45.8987 17.0294 45.8559 16.9541C45.8132 16.8787 45.7954 16.7918 45.805 16.7058V16.6677C45.8031 16.5977 45.8166 16.5281 45.8446 16.4639C45.8726 16.3997 45.9143 16.3425 45.967 16.2962C46.0949 16.2022 46.2513 16.1551 46.4098 16.163C46.5127 16.1607 46.615 16.1802 46.7098 16.2201L46.8765 16.0772C46.9242 16.0296 46.9479 16.0296 46.9955 16.0772C47.0242 16.101 47.0337 16.1153 47.0337 16.1344C47.0337 16.1534 47.0337 16.1677 46.9955 16.1962L46.867 16.3248C46.9104 16.3664 46.9443 16.4169 46.9665 16.4727C46.9887 16.5286 46.9986 16.5886 46.9955 16.6486V16.6867C46.9955 17.0201 46.7908 17.1915 46.3908 17.1915C46.2895 17.1799 46.1873 17.1799 46.086 17.1915C46.0667 17.1959 46.0495 17.2068 46.0374 17.2225C46.0252 17.2381 46.0189 17.2574 46.0194 17.2772C46.0194 17.3153 46.0432 17.3391 46.0908 17.3534C46.1906 17.362 46.291 17.362 46.3908 17.3534C46.5626 17.3378 46.7354 17.369 46.8908 17.4439C46.9402 17.4777 46.9792 17.5245 47.0036 17.5791C47.0279 17.6338 47.0367 17.6941 47.0289 17.7534C47.0372 17.8187 47.0283 17.8851 47.0033 17.9461C46.9782 18.007 46.9378 18.0604 46.886 18.101C46.7374 18.1991 46.5641 18.2536 46.386 18.2582ZM46.386 16.1725C46.0146 16.1725 45.7908 16.3582 45.7908 16.6486V16.6867C45.781 16.7728 45.7989 16.8597 45.8417 16.935C45.8845 17.0103 45.95 17.0701 46.0289 17.1058C45.8718 17.1296 45.7955 17.201 45.7955 17.3296C45.7946 17.3695 45.8054 17.4088 45.8266 17.4426C45.8478 17.4765 45.8783 17.5034 45.9146 17.5201C45.8624 17.5513 45.8197 17.5962 45.7911 17.6498C45.7626 17.7036 45.7493 17.7641 45.7527 17.8248C45.749 17.8826 45.759 17.9404 45.7822 17.9934C45.8054 18.0465 45.841 18.0932 45.886 18.1296C46.0338 18.202 46.1979 18.2348 46.3622 18.2248C46.5266 18.2371 46.6914 18.2042 46.8384 18.1296C46.8888 18.0888 46.9282 18.0361 46.9532 17.9762C46.9782 17.9164 46.9878 17.8513 46.9813 17.7867C46.9882 17.7282 46.979 17.6689 46.9546 17.6151C46.9303 17.5614 46.8918 17.5154 46.8432 17.482C46.6949 17.4113 46.5309 17.3801 46.367 17.3915C46.2657 17.4024 46.1635 17.4024 46.0622 17.3915C46.0428 17.3882 46.0252 17.3784 46.0122 17.3637C45.9991 17.349 45.9916 17.3302 45.9908 17.3106C45.9894 17.2893 45.9958 17.2682 46.009 17.2515C46.0222 17.2348 46.0412 17.2236 46.0622 17.2201C46.1634 17.2082 46.2658 17.2082 46.367 17.2201C46.5354 17.237 46.7043 17.193 46.8432 17.0962C46.8938 17.0482 46.9334 16.9896 46.9589 16.9246C46.9844 16.8596 46.9953 16.7898 46.9908 16.7201V16.6677C46.9941 16.6083 46.9843 16.549 46.9621 16.4938C46.9398 16.4387 46.9058 16.3891 46.8622 16.3486L46.9908 16.2153C47.0194 16.2153 47.0289 16.1725 47.0289 16.1582C47.0274 16.1476 47.0235 16.1374 47.0178 16.1284C47.0121 16.1194 47.0045 16.1117 46.9955 16.1058H46.9718C46.9289 16.063 46.905 16.063 46.8574 16.1058L46.6908 16.2534C46.5948 16.2112 46.4909 16.1901 46.386 16.1915V16.1725ZM46.386 18.0772C46.0622 18.0772 45.967 18.0201 45.967 17.8344C45.9618 17.7852 45.9724 17.7356 45.9972 17.6928C46.022 17.65 46.0598 17.6162 46.105 17.5962C46.1986 17.6022 46.2925 17.6022 46.386 17.5962C46.7003 17.5962 46.8098 17.6296 46.8098 17.8153C46.8098 18.001 46.705 18.0962 46.386 18.0962V18.0772ZM46.105 17.601C46.0619 17.622 46.0262 17.6554 46.0023 17.6971C45.9786 17.7387 45.9679 17.7866 45.9718 17.8344C45.9718 18.0153 46.067 18.0725 46.386 18.0725C46.705 18.0725 46.8003 18.0153 46.8003 17.8296C46.8003 17.6439 46.7003 17.6153 46.386 17.6153C46.2926 17.6228 46.1987 17.6244 46.105 17.6201V17.601ZM46.386 17.0248C46.1098 17.0248 46.0003 16.9344 46.0003 16.7106V16.6677C46.0003 16.4582 46.1242 16.3582 46.386 16.3582C46.6479 16.3582 46.7718 16.463 46.7718 16.6677V16.7058C46.7718 16.9296 46.6622 17.0201 46.386 17.0201V17.0248ZM46.386 16.3677C46.1289 16.3677 46.005 16.4677 46.005 16.6725V16.7106C46.005 16.9296 46.1146 17.0201 46.386 17.0201C46.6574 17.0201 46.767 16.9296 46.767 16.7106V16.6677C46.767 16.4677 46.6384 16.363 46.386 16.363V16.3677Z" fill="#009EDB"/>
<path d="M49.5464 15.952C49.5464 16.0139 49.5464 16.033 49.4654 16.033H49.294V17.0473C49.294 17.452 49.0797 17.652 48.6559 17.652C48.2321 17.652 48.0226 17.452 48.0226 17.0473V16.7759C48.014 16.6955 48.0236 16.6143 48.051 16.5384C48.0783 16.4624 48.1225 16.3936 48.1803 16.3372C48.238 16.2808 48.3079 16.2383 48.3845 16.2128C48.4611 16.1873 48.5425 16.1795 48.6226 16.1901C48.7137 16.1751 48.8072 16.1869 48.8918 16.2241C48.9764 16.2613 49.0483 16.3223 49.0988 16.3996V16.0568H48.7035C48.6368 16.0568 48.6226 16.0568 48.6226 15.9759C48.6226 15.9139 48.6226 15.8949 48.7035 15.8949H49.0988V15.7139C49.0988 15.633 49.0988 15.6187 49.1892 15.6187H49.1797C49.2512 15.6187 49.2749 15.6187 49.2749 15.7139V15.8711H49.4464C49.5083 15.8711 49.5273 15.8711 49.5273 15.952H49.5464ZM48.2273 17.0425C48.2273 17.3235 48.3226 17.4473 48.6416 17.4473C48.9607 17.4473 49.0607 17.3235 49.0607 17.0425V16.7759C49.0607 16.4949 48.9607 16.3711 48.6416 16.3711C48.3226 16.3711 48.2273 16.4949 48.2273 16.7759V17.0425Z" fill="#009EDB"/>
<path d="M48.6565 17.6571C48.484 17.6695 48.3134 17.6149 48.1802 17.5047C48.1215 17.4412 48.0771 17.3659 48.05 17.2837C48.0229 17.2015 48.0137 17.1145 48.0231 17.0285V16.7571C48.0143 16.6715 48.0233 16.5851 48.0495 16.5031C48.0757 16.4211 48.1186 16.3455 48.1755 16.2809C48.2388 16.2219 48.3141 16.1773 48.3964 16.1502C48.4785 16.1231 48.5657 16.1141 48.6517 16.1238C48.7378 16.1139 48.8251 16.1277 48.904 16.1639C48.9829 16.1999 49.0504 16.2569 49.0993 16.3285V15.9999H48.7041C48.6374 15.9999 48.6183 15.9999 48.6183 15.9143C48.6183 15.8475 48.6183 15.8285 48.7041 15.8285H49.0945V15.7143C49.0945 15.6333 49.0945 15.6143 49.1897 15.6143H49.1802C49.2517 15.6143 49.2755 15.6143 49.2755 15.7143V15.8667H49.4469C49.5088 15.8667 49.5326 15.8667 49.5326 15.9523C49.5326 16.0143 49.5326 16.038 49.4469 16.038H49.2755V17.0475C49.2945 17.4523 49.0802 17.6571 48.6565 17.6571ZM48.6231 16.1904C48.5424 16.1839 48.4612 16.1935 48.3843 16.2188C48.3074 16.2442 48.2364 16.2847 48.1755 16.338C48.1201 16.4035 48.0786 16.4793 48.0533 16.5611C48.0279 16.643 48.0193 16.7291 48.0278 16.8143V17.0857C48.0169 17.1714 48.0249 17.2584 48.0512 17.3407C48.0775 17.423 48.1216 17.4985 48.1802 17.5619C48.3134 17.6717 48.4845 17.7247 48.6565 17.7095C48.8282 17.7232 48.9987 17.6703 49.1326 17.5619C49.1916 17.4985 49.2362 17.4231 49.2633 17.341C49.2905 17.2587 49.2995 17.1717 49.2897 17.0857V16.0285H49.466C49.5231 16.0285 49.5469 16.0285 49.5469 15.9523C49.5469 15.8952 49.5469 15.8762 49.466 15.8762H49.2897V15.7143C49.2897 15.6333 49.2897 15.6238 49.1993 15.6238H49.1802C49.1041 15.6238 49.0945 15.6238 49.0945 15.7143V15.8762H48.7041C48.6374 15.8762 48.6278 15.8762 48.6278 15.9523C48.6278 16.0095 48.6278 16.0285 48.7041 16.0285H49.1041V16.3904C49.052 16.314 48.9788 16.2543 48.8933 16.2188C48.8079 16.1833 48.7141 16.1735 48.6231 16.1904ZM48.6565 17.4714C48.3517 17.4714 48.2373 17.3619 48.2373 17.0619V16.7952C48.2373 16.4999 48.3565 16.3857 48.6565 16.3857C48.9565 16.3857 49.0802 16.4999 49.0802 16.7952V17.0619C49.0802 17.338 48.9612 17.4523 48.6565 17.4523V17.4714ZM48.6565 16.3952C48.3612 16.3952 48.2421 16.5047 48.2421 16.7952V17.0619C48.2421 17.3571 48.3565 17.4619 48.6565 17.4619C48.9565 17.4619 49.0707 17.3571 49.0707 17.0619V16.7952C49.0707 16.4809 48.9612 16.3762 48.6565 16.3762V16.3952Z" fill="#009EDB"/>
<path d="M49.5864 17.0436V16.777C49.5864 16.3722 49.7959 16.1675 50.2245 16.1675C50.5435 16.1675 50.7292 16.277 50.8102 16.4817C50.8531 16.4817 50.8959 16.4056 50.8959 16.2532C50.8959 16.2104 50.8959 16.196 50.9626 16.196H51.0102C51.0626 16.196 51.0721 16.196 51.0721 16.2532C51.0721 16.4865 50.9816 16.6008 50.8435 16.6389C50.8486 16.6848 50.8486 16.7311 50.8435 16.777V17.0436C50.8435 17.4532 50.634 17.6532 50.215 17.6532C49.7959 17.6532 49.5864 17.4436 49.5864 17.0436ZM50.6388 16.777C50.6388 16.496 50.5388 16.3722 50.2245 16.3722C49.9102 16.3722 49.8007 16.496 49.8007 16.777V17.0436C49.8007 17.3246 49.9102 17.4484 50.2245 17.4484C50.5388 17.4484 50.6388 17.3246 50.6388 17.0436V16.777Z" fill="#009EDB"/>
<path d="M50.2253 17.6557C49.7872 17.6557 49.5824 17.4604 49.5824 17.0413V16.7747C49.5749 16.6884 49.5854 16.6015 49.6133 16.5195C49.6412 16.4376 49.6858 16.3623 49.7444 16.2985C49.8778 16.1887 50.0482 16.1342 50.2206 16.1461C50.5348 16.1461 50.6968 16.2461 50.8063 16.4604C50.8634 16.4365 50.8872 16.3604 50.8872 16.2365C50.8872 16.1889 50.8872 16.1747 50.9587 16.1747H51.0063C51.0587 16.1747 51.0729 16.1747 51.0729 16.2365C51.0729 16.4461 50.9968 16.5794 50.8444 16.627C50.8469 16.6715 50.8469 16.716 50.8444 16.7604V17.027C50.8569 17.1117 50.8496 17.1981 50.8231 17.2793C50.7966 17.3606 50.7516 17.4347 50.6915 17.4957C50.6315 17.5566 50.5581 17.6028 50.4772 17.6305C50.3964 17.6583 50.3101 17.6669 50.2253 17.6557ZM50.2253 16.1699C50.0534 16.1552 49.8825 16.2081 49.7492 16.3175C49.6904 16.381 49.646 16.4565 49.6189 16.5385C49.5918 16.6207 49.5826 16.7077 49.592 16.7937V17.0604C49.592 17.4747 49.792 17.6652 50.2253 17.6652C50.3972 17.6793 50.5679 17.6265 50.7015 17.5175C50.7603 17.454 50.8047 17.3786 50.8318 17.2965C50.8588 17.2144 50.868 17.1273 50.8587 17.0413V16.7747C50.8613 16.7287 50.8613 16.6825 50.8587 16.6365C51.011 16.5889 51.0872 16.4604 51.0872 16.2509C51.0872 16.208 51.0872 16.1985 51.0253 16.1985H50.9777C50.9301 16.1985 50.9158 16.1985 50.9158 16.2509C50.9158 16.3794 50.8872 16.4557 50.8253 16.4842C50.7205 16.2699 50.5396 16.1889 50.2253 16.1889V16.1699ZM50.2253 17.4509C49.9206 17.4509 49.8015 17.3365 49.8015 17.0413V16.7747C49.8015 16.4794 49.9158 16.3652 50.2253 16.3652C50.5348 16.3652 50.6396 16.4794 50.6396 16.7747V17.0413C50.6396 17.3413 50.5301 17.4509 50.2253 17.4509ZM50.2253 16.3747C49.9206 16.3747 49.8063 16.4794 49.8063 16.7747V17.0413C49.8063 17.3318 49.9253 17.4413 50.2253 17.4413C50.5253 17.4413 50.6348 17.3365 50.6348 17.0413V16.7747C50.6348 16.4794 50.5253 16.3747 50.2253 16.3747Z" fill="#009EDB"/>
<path d="M51.3811 17.5341C51.3811 17.6104 51.3811 17.6246 51.2859 17.6246H51.2526C51.1811 17.6246 51.1621 17.6246 51.1621 17.5341V16.7104C51.1621 16.3484 51.3668 16.1675 51.7668 16.1675C52.1668 16.1675 52.3716 16.358 52.3716 16.7104V17.5341C52.3716 17.6104 52.3716 17.6246 52.2763 17.6246H52.2431C52.1621 17.6246 52.1478 17.6246 52.1478 17.5341V16.7104C52.1478 16.477 52.0621 16.3722 51.7668 16.3722C51.4716 16.3722 51.3811 16.4817 51.3811 16.7104V17.5341Z" fill="#009EDB"/>
<path d="M52.2766 17.6192H52.2433C52.1624 17.6192 52.1481 17.6192 52.1481 17.524V16.7097C52.1481 16.4669 52.0433 16.3764 51.7671 16.3764C51.4909 16.3764 51.3814 16.4669 51.3814 16.7097V17.5335C51.3814 17.6097 51.3814 17.6287 51.2862 17.6287H51.2529C51.1814 17.6287 51.1576 17.6287 51.1576 17.5335V16.7097C51.1576 16.3478 51.3624 16.1621 51.7671 16.1621C51.852 16.1534 51.9378 16.1615 52.0195 16.186C52.1012 16.2106 52.1773 16.251 52.2433 16.305C52.2949 16.3582 52.3344 16.4218 52.359 16.4917C52.3837 16.5616 52.393 16.6359 52.3862 16.7097V17.5335C52.3719 17.6192 52.3576 17.6192 52.2766 17.6192ZM51.7671 16.3574C52.0481 16.3574 52.1529 16.4526 52.1529 16.7002V17.524C52.1529 17.6002 52.1529 17.6097 52.2433 17.6097H52.2766C52.3529 17.6097 52.3671 17.6097 52.3671 17.524V16.7097C52.3729 16.6371 52.3637 16.5642 52.3399 16.4953C52.3161 16.4265 52.2784 16.3633 52.229 16.3097C52.1626 16.2566 52.0864 16.217 52.0047 16.1933C51.923 16.1696 51.8374 16.1622 51.7529 16.1716C51.5828 16.1524 51.412 16.2002 51.2766 16.305C51.2237 16.3575 51.1826 16.4209 51.1563 16.4907C51.13 16.5606 51.1191 16.6353 51.1243 16.7097V17.5335C51.1243 17.6097 51.1243 17.6192 51.2148 17.6192H51.2481C51.3243 17.6192 51.3386 17.6192 51.3386 17.5335V16.7097C51.3766 16.4621 51.4862 16.3669 51.7671 16.3669V16.3574Z" fill="#009EDB"/>
<path d="M54.6472 16.7033C54.6472 17.0366 54.452 17.2081 54.052 17.2081C53.9491 17.1969 53.8454 17.1969 53.7425 17.2081C53.7214 17.2115 53.7025 17.2228 53.6893 17.2395C53.6761 17.2562 53.6695 17.2773 53.671 17.2986C53.671 17.3366 53.671 17.3652 53.7472 17.3795C53.8486 17.3874 53.9506 17.3874 54.052 17.3795C54.2158 17.3681 54.3799 17.3992 54.5282 17.4699C54.5764 17.5048 54.6146 17.5518 54.6388 17.6062C54.663 17.6605 54.6726 17.7203 54.6662 17.7795C54.6728 17.844 54.6631 17.9091 54.6382 17.969C54.6133 18.0289 54.5738 18.0815 54.5234 18.1223C54.3773 18.2 54.2122 18.2346 54.0472 18.2223C53.8729 18.2375 53.6978 18.2028 53.5425 18.1223C53.4972 18.0862 53.4614 18.0395 53.4382 17.9864C53.4149 17.9334 53.405 17.8754 53.4091 17.8176C53.4054 17.7562 53.4185 17.6948 53.447 17.6403C53.4755 17.5858 53.5184 17.54 53.571 17.5081C53.5335 17.493 53.5018 17.4665 53.4804 17.4322C53.459 17.398 53.449 17.3578 53.452 17.3176C53.452 17.189 53.5282 17.1128 53.6853 17.089C53.605 17.0547 53.5381 16.9954 53.4943 16.9198C53.4506 16.8443 53.4323 16.7566 53.4425 16.6699V16.6652C53.4425 16.3509 53.6662 16.189 54.0472 16.189C54.1486 16.1872 54.2491 16.2066 54.3425 16.2462L54.5091 16.0986C54.5567 16.0557 54.5806 16.0557 54.6282 16.0986C54.6758 16.1414 54.6758 16.1652 54.6282 16.2128L54.4996 16.3462C54.5414 16.3887 54.574 16.4394 54.5953 16.4951C54.6166 16.5509 54.6262 16.6104 54.6234 16.6699L54.6472 16.7033ZM53.7662 17.589C53.7226 17.611 53.6864 17.6453 53.6619 17.6876C53.6374 17.7298 53.6257 17.7783 53.6282 17.8271C53.6282 18.0176 53.7377 18.0652 54.052 18.0652C54.3662 18.0652 54.4662 18.0176 54.4662 17.8223C54.4662 17.6271 54.3615 17.6081 54.052 17.6081C53.9564 17.6089 53.8609 17.6025 53.7662 17.589ZM54.4186 16.6652C54.4186 16.4604 54.2948 16.3604 54.0425 16.3604C53.7901 16.3604 53.6567 16.4604 53.6567 16.6652V16.7033C53.6567 16.9081 53.7472 17.0128 54.0425 17.0128C54.3377 17.0128 54.4186 16.9081 54.4186 16.7033V16.6652Z" fill="#009EDB"/>
<path d="M54.0519 18.2582C53.878 18.275 53.7029 18.242 53.5471 18.163C53.5006 18.1266 53.4637 18.0793 53.4396 18.0254C53.4155 17.9714 53.405 17.9123 53.409 17.8534C53.4053 17.792 53.4184 17.7306 53.447 17.6762C53.4754 17.6216 53.5183 17.5758 53.571 17.5439C53.5334 17.5289 53.5018 17.5023 53.4803 17.4681C53.459 17.4338 53.449 17.3937 53.4519 17.3534C53.4519 17.2264 53.5281 17.1502 53.6805 17.1248C53.6016 17.0891 53.536 17.0294 53.4933 16.9541C53.4505 16.8787 53.4326 16.7918 53.4424 16.7058V16.6677C53.4404 16.5977 53.4538 16.5281 53.4818 16.4639C53.5098 16.3997 53.5516 16.3425 53.6042 16.2962C53.7337 16.2015 53.8918 16.1544 54.0519 16.163C54.1532 16.1611 54.2538 16.1806 54.3471 16.2201L54.5138 16.0772C54.5614 16.0296 54.5852 16.0296 54.6329 16.0772C54.6614 16.101 54.671 16.1153 54.671 16.1344C54.671 16.1534 54.671 16.1677 54.6329 16.1962L54.509 16.3248C54.5509 16.3674 54.5834 16.4181 54.6047 16.4738C54.6261 16.5295 54.6356 16.589 54.6329 16.6486V16.6867C54.6329 17.0201 54.4281 17.1915 54.0329 17.1915C53.93 17.1797 53.8262 17.1797 53.7234 17.1915C53.704 17.1959 53.6869 17.2068 53.6747 17.2225C53.6626 17.2381 53.6562 17.2574 53.6566 17.2772C53.6566 17.3153 53.6566 17.3391 53.7281 17.3534C53.8295 17.3622 53.9314 17.3622 54.0329 17.3534C54.1967 17.342 54.3608 17.3732 54.509 17.4439C54.5589 17.4774 54.5985 17.5241 54.6237 17.5786C54.6489 17.6333 54.6586 17.6937 54.6519 17.7534C54.6591 17.8191 54.6494 17.8857 54.6235 17.9466C54.5977 18.0074 54.5566 18.0606 54.5042 18.101C54.3694 18.1911 54.2136 18.2452 54.0519 18.2582ZM54.0519 16.1725C53.6757 16.1725 53.4519 16.3582 53.4519 16.6486V16.6867C53.4422 16.7728 53.46 16.8597 53.5028 16.935C53.5455 17.0103 53.6111 17.0701 53.69 17.1058C53.5329 17.1296 53.4614 17.201 53.4614 17.3296C53.4595 17.3691 53.4694 17.4082 53.4897 17.4422C53.51 17.4761 53.54 17.5032 53.5757 17.5201C53.5235 17.5513 53.4808 17.5962 53.4522 17.6498C53.4237 17.7036 53.4104 17.7641 53.4138 17.8248C53.4098 17.8831 53.4202 17.9414 53.4444 17.9946C53.4685 18.0478 53.5054 18.0942 53.5519 18.1296C53.8698 18.2568 54.2245 18.2568 54.5424 18.1296C54.5922 18.0886 54.631 18.0357 54.6552 17.9758C54.6793 17.9159 54.688 17.8509 54.6805 17.7867C54.6873 17.7282 54.6782 17.6689 54.6538 17.6151C54.6295 17.5614 54.5909 17.5154 54.5424 17.482C54.3946 17.4095 54.2302 17.3782 54.0662 17.3915C53.9649 17.4028 53.8627 17.4028 53.7614 17.3915C53.709 17.3915 53.6852 17.3486 53.6852 17.3106C53.6838 17.2893 53.6902 17.2682 53.7034 17.2515C53.7166 17.2348 53.7356 17.2236 53.7566 17.2201C53.8595 17.208 53.9634 17.208 54.0662 17.2201C54.2251 17.2306 54.3829 17.187 54.5138 17.0962C54.5645 17.0482 54.604 16.9896 54.6295 16.9246C54.655 16.8596 54.6659 16.7898 54.6614 16.7201V16.6677C54.6647 16.6083 54.6549 16.549 54.6327 16.4938C54.6105 16.4387 54.5764 16.3891 54.5329 16.3486L54.6662 16.2153C54.6841 16.2011 54.696 16.1807 54.6995 16.1582C54.6979 16.1476 54.6942 16.1374 54.6884 16.1284C54.6827 16.1194 54.6751 16.1117 54.6662 16.1058C54.6186 16.0582 54.5995 16.063 54.5471 16.1058L54.3805 16.2534C54.2773 16.2074 54.1647 16.1862 54.0519 16.1915V16.1725ZM54.0519 18.0772C53.7234 18.0772 53.6281 18.0201 53.6281 17.8344C53.6229 17.7852 53.6334 17.7356 53.6583 17.6928C53.6831 17.65 53.7209 17.6162 53.7662 17.5962C53.8614 17.6023 53.9567 17.6023 54.0519 17.5962C54.3614 17.5962 54.471 17.6296 54.471 17.8153C54.471 18.001 54.3281 18.0962 54.0519 18.0962V18.0772ZM53.7662 17.601C53.723 17.622 53.6873 17.6554 53.6634 17.6971C53.6397 17.7387 53.629 17.7866 53.6329 17.8344C53.6329 18.0153 53.7281 18.0725 54.0519 18.0725C54.3757 18.0725 54.4614 18.0153 54.4614 17.8296C54.4614 17.6439 54.3614 17.6153 54.0519 17.6153C53.9569 17.623 53.8614 17.6245 53.7662 17.6201V17.601ZM54.0519 17.0248C53.7757 17.0248 53.6614 16.9344 53.6614 16.7106V16.6677C53.6614 16.4582 53.79 16.3582 54.0519 16.3582C54.3138 16.3582 54.4329 16.463 54.4329 16.6677V16.7058C54.4186 16.9296 54.3234 17.0201 54.0519 17.0201V17.0248ZM54.0519 16.3677C53.79 16.3677 53.6662 16.4677 53.6662 16.6725V16.7106C53.6662 16.9296 53.7757 17.0201 54.0519 17.0201C54.3281 17.0201 54.4281 16.9296 54.4281 16.7106V16.6677C54.4186 16.4677 54.2995 16.363 54.0519 16.363V16.3677Z" fill="#009EDB"/>
<path d="M55.2256 15.7473C55.2263 15.7659 55.2232 15.7843 55.2165 15.8016C55.2099 15.819 55.1998 15.8347 55.1869 15.8481C55.174 15.8614 55.1586 15.872 55.1415 15.8792C55.1244 15.8865 55.1061 15.8902 55.0875 15.8902C55.0684 15.8908 55.0493 15.8876 55.0314 15.8807C55.0135 15.8738 54.9972 15.8634 54.9835 15.8501C54.9697 15.8367 54.9587 15.8207 54.9512 15.8031C54.9438 15.7855 54.9399 15.7665 54.9399 15.7473C54.9411 15.709 54.9573 15.6727 54.9848 15.646C55.0123 15.6194 55.0492 15.6044 55.0875 15.6045C55.1246 15.6057 55.1597 15.6213 55.1855 15.6479C55.2113 15.6746 55.2257 15.7103 55.2256 15.7473ZM54.978 16.2855C54.978 16.214 54.978 16.195 55.0685 16.195H55.1019C55.1733 16.195 55.1923 16.195 55.1923 16.2855V17.5331C55.1923 17.6092 55.1923 17.6235 55.1019 17.6235H55.0685C54.9875 17.6235 54.978 17.6235 54.978 17.5331V16.2855Z" fill="#009EDB"/>
<path d="M55.1054 17.6195H55.072C54.991 17.6195 54.9768 17.6195 54.9768 17.5243V16.2862C54.9768 16.2148 54.9768 16.191 55.072 16.191H55.1054C55.1768 16.191 55.2006 16.191 55.2006 16.2862V17.5339C55.2006 17.6195 55.1768 17.6195 55.1054 17.6195ZM55.072 16.191C54.9958 16.191 54.9815 16.191 54.9815 16.2767V17.5243C54.9815 17.6005 54.9815 17.61 55.072 17.61H55.1054C55.172 17.61 55.191 17.61 55.191 17.5243V16.2862C55.191 16.2195 55.191 16.2005 55.1054 16.2005L55.072 16.191ZM55.072 15.8815C55.0342 15.8815 54.9978 15.8664 54.971 15.8396C54.9442 15.8128 54.9292 15.7765 54.9292 15.7386C54.9292 15.7007 54.9442 15.6643 54.971 15.6375C54.9978 15.6108 55.0342 15.5957 55.072 15.5957C55.1099 15.5957 55.1462 15.6108 55.173 15.6375C55.1998 15.6643 55.2149 15.7007 55.2149 15.7386C55.2149 15.7765 55.1998 15.8128 55.173 15.8396C55.1462 15.8664 55.1099 15.8815 55.072 15.8815ZM55.072 15.6005C55.0539 15.6005 55.0359 15.6041 55.0192 15.611C55.0024 15.6179 54.9872 15.6281 54.9744 15.641C54.9615 15.6538 54.9514 15.669 54.9445 15.6858C54.9375 15.7025 54.9339 15.7204 54.9339 15.7386C54.9339 15.7567 54.9375 15.7747 54.9445 15.7915C54.9514 15.8082 54.9615 15.8234 54.9744 15.8363C54.9872 15.8491 55.0024 15.8592 55.0192 15.8662C55.0359 15.8731 55.0539 15.8767 55.072 15.8767C55.1086 15.8767 55.1438 15.8621 55.1697 15.8363C55.1956 15.8103 55.2102 15.7752 55.2102 15.7386C55.2102 15.7019 55.1956 15.6668 55.1697 15.641C55.1438 15.6151 55.1086 15.6005 55.072 15.6005Z" fill="#009EDB"/>
<path d="M56.6564 17.1955C56.6564 17.5193 56.4707 17.6717 56.0517 17.6717C55.7183 17.6717 55.5088 17.5384 55.5088 17.2384C55.5088 16.9384 55.704 16.8146 56.0993 16.8146H56.4421V16.6193C56.4421 16.4241 56.304 16.3574 56.0612 16.3574C55.9539 16.3568 55.8469 16.368 55.7421 16.3908C55.6707 16.3908 55.6469 16.3908 55.6469 16.3193V16.2955C55.6469 16.2289 55.6469 16.2098 55.7373 16.1955C55.8409 16.1757 55.9462 16.1661 56.0517 16.1669C56.4564 16.1669 56.6564 16.3193 56.6564 16.6193V17.1955ZM56.4421 16.9669H56.0993C55.8421 16.9669 55.7231 17.0384 55.7231 17.2193C55.7231 17.4003 55.8326 17.4669 56.0517 17.4669C56.2707 17.4669 56.4421 17.4051 56.4421 17.186V16.9669ZM56.0993 16.0146C56.0469 16.0146 56.0421 16.0146 56.0326 15.9574C56.0231 15.9003 56.0754 15.8432 56.1612 15.7527C56.1815 15.7358 56.195 15.7121 56.1993 15.686C56.1993 15.6337 56.1993 15.6098 56.1469 15.6098C56.1046 15.5997 56.0606 15.5997 56.0183 15.6098C55.985 15.6098 55.9612 15.6098 55.9421 15.5813V15.5574C55.9421 15.5146 55.9421 15.4955 55.9849 15.4813C56.039 15.4578 56.0975 15.4465 56.1564 15.4479C56.1847 15.4456 56.2132 15.4496 56.2398 15.4597C56.2664 15.4697 56.2904 15.4856 56.31 15.5061C56.3296 15.5267 56.3444 15.5513 56.3533 15.5784C56.3621 15.6053 56.3648 15.634 56.3612 15.6622C56.3612 15.786 56.1897 15.8384 56.1849 15.9337C56.183 15.9481 56.1764 15.9615 56.1661 15.9718C56.1558 15.9821 56.1423 15.9889 56.1278 15.9908L56.0993 16.0146Z" fill="#009EDB"/>
<path d="M56.052 17.6571C55.6949 17.6571 55.5044 17.5047 55.5044 17.219C55.5044 16.9332 55.6854 16.7904 56.0996 16.7904H56.4377V16.619C56.4377 16.438 56.3234 16.3618 56.0615 16.3618C55.9545 16.3604 55.8475 16.3699 55.7425 16.3904C55.7044 16.3904 55.6806 16.3904 55.6663 16.3904C55.652 16.3904 55.6663 16.3571 55.6663 16.3237V16.2999C55.6663 16.2332 55.6663 16.2142 55.7568 16.1952C55.8602 16.1749 55.9656 16.1653 56.071 16.1666C56.4758 16.1666 56.6806 16.3237 56.6806 16.6428V17.219C56.6615 17.5142 56.471 17.6571 56.052 17.6571ZM56.0996 16.7999C55.6901 16.7999 55.5091 16.9285 55.5091 17.219C55.5091 17.5095 55.6949 17.6476 56.052 17.6476C56.2179 17.665 56.385 17.6283 56.5282 17.5428C56.5798 17.5017 56.6204 17.4484 56.6462 17.3877C56.672 17.327 56.6822 17.2608 56.6758 17.1952V16.619C56.6796 16.5545 56.6677 16.49 56.6412 16.4312C56.6146 16.3723 56.5742 16.3208 56.5234 16.2808C56.3873 16.1992 56.2294 16.161 56.071 16.1713C55.9656 16.17 55.8602 16.1796 55.7568 16.2C55.6854 16.2 55.671 16.2285 55.671 16.2952V16.319C55.671 16.3523 55.671 16.3713 55.671 16.3808C55.671 16.3904 55.7044 16.3808 55.7425 16.3808C55.8474 16.3583 55.9543 16.3472 56.0615 16.3476C56.3282 16.3476 56.4425 16.4285 56.4425 16.6142V16.7952L56.0996 16.7999ZM56.052 17.4666C55.8282 17.4666 55.7234 17.3856 55.7234 17.219C55.7234 17.0523 55.8377 16.9618 56.0996 16.9618H56.4425V17.1856C56.4425 17.419 56.2949 17.4666 56.052 17.4666ZM56.0996 16.9904C55.8377 16.9904 55.7282 17.0618 55.7282 17.238C55.7282 17.4142 55.833 17.4808 56.052 17.4808C56.271 17.4808 56.4377 17.4047 56.4377 17.2047V16.9904H56.0996ZM56.0996 16.038C56.0425 16.038 56.0377 16.038 56.0282 15.9808C56.0186 15.9237 56.0568 15.8761 56.1186 15.8095L56.1615 15.7666C56.171 15.759 56.1787 15.7496 56.1845 15.739C56.1902 15.7284 56.1937 15.7167 56.1949 15.7047C56.1949 15.6523 56.1949 15.6332 56.1473 15.6285C56.109 15.6296 56.0716 15.6394 56.0377 15.6571C55.9996 15.6571 55.9758 15.6571 55.952 15.6237V15.5999C55.952 15.5523 55.952 15.538 55.9949 15.5237C56.0489 15.5003 56.1074 15.4889 56.1663 15.4904C56.2218 15.4888 56.2759 15.5074 56.3186 15.5428C56.338 15.5648 56.3526 15.5904 56.3616 15.6183C56.3706 15.6461 56.3738 15.6756 56.371 15.7047C56.3667 15.7367 56.3561 15.7674 56.3398 15.7952C56.3234 15.823 56.3017 15.8472 56.2758 15.8666C56.2362 15.8919 56.2074 15.9308 56.1949 15.9761C56.1938 15.9909 56.1874 16.0048 56.1769 16.0153C56.1664 16.0258 56.1525 16.0321 56.1377 16.0332L56.0996 16.038ZM56.133 15.6237C56.1615 15.6237 56.1901 15.6237 56.1901 15.7047C56.1858 15.7308 56.1723 15.7544 56.152 15.7713L56.1091 15.8142C56.0473 15.8761 56.0139 15.9095 56.0186 15.9761C56.0234 16.0428 56.0186 16.0285 56.0854 16.0285C56.0986 16.0266 56.1108 16.0204 56.1202 16.011C56.1297 16.0016 56.1358 15.9893 56.1377 15.9761C56.1501 15.9295 56.1788 15.8889 56.2186 15.8618C56.2454 15.8459 56.2686 15.8245 56.2866 15.7991C56.3047 15.7736 56.3172 15.7448 56.3234 15.7142C56.3258 15.6858 56.3224 15.6572 56.3134 15.6302C56.3044 15.6032 56.29 15.5783 56.271 15.5571C56.2307 15.5208 56.1776 15.5019 56.1234 15.5047C56.0646 15.5032 56.0061 15.5146 55.952 15.538C55.9186 15.538 55.8996 15.5666 55.9139 15.6095C55.9139 15.6523 55.9568 15.6523 55.9901 15.6428C56.0349 15.6227 56.0845 15.616 56.133 15.6237Z" fill="#009EDB"/>
<path d="M57.1863 17.5341C57.1863 17.6104 57.1863 17.6246 57.091 17.6246H57.0578C56.9863 17.6246 56.9673 17.6246 56.9673 17.5341V16.7104C56.9673 16.3484 57.172 16.1675 57.572 16.1675C57.972 16.1675 58.1768 16.358 58.1768 16.7104V17.5341C58.1768 17.6104 58.1768 17.6246 58.0815 17.6246H58.0482C57.9673 17.6246 57.953 17.6246 57.953 17.5341V16.7104C57.953 16.477 57.8673 16.3722 57.572 16.3722C57.2768 16.3722 57.1863 16.4817 57.1863 16.7104V17.5341Z" fill="#009EDB"/>
<path d="M58.0794 17.6192H58.0461C57.9651 17.6192 57.9508 17.6192 57.9508 17.524V16.7097C57.9508 16.4669 57.8461 16.3764 57.5698 16.3764C57.2937 16.3764 57.1842 16.4669 57.1842 16.7097V17.5335C57.1842 17.6097 57.1842 17.6287 57.0889 17.6287H57.0556C56.9842 17.6287 56.9603 17.6287 56.9603 17.5335V16.7097C56.9603 16.3478 57.1651 16.1621 57.5698 16.1621C57.6547 16.1534 57.7405 16.1615 57.8222 16.186C57.9039 16.2106 57.98 16.251 58.0461 16.305C58.0976 16.3582 58.137 16.4218 58.1618 16.4917C58.1864 16.5616 58.1957 16.6359 58.1889 16.7097V17.5335C58.1746 17.6192 58.1603 17.6192 58.0794 17.6192ZM57.5698 16.3574C57.8508 16.3574 57.9556 16.4526 57.9556 16.7002V17.524C57.9556 17.6002 57.9556 17.6097 58.0461 17.6097H58.0794C58.1556 17.6097 58.1698 17.6097 58.1698 17.524V16.7097C58.1756 16.6371 58.1663 16.5642 58.1426 16.4953C58.1188 16.4265 58.0811 16.3633 58.0318 16.3097C57.9654 16.2566 57.8891 16.217 57.8074 16.1933C57.7257 16.1696 57.6402 16.1622 57.5556 16.1716C57.3855 16.1524 57.2147 16.2002 57.0794 16.305C57.0264 16.3575 56.9854 16.4209 56.959 16.4907C56.9327 16.5606 56.9218 16.6353 56.927 16.7097V17.5335C56.927 17.6097 56.9508 17.6192 57.0175 17.6192H57.0508C57.127 17.6192 57.1413 17.6192 57.1413 17.5335V16.7097C57.1794 16.4621 57.2746 16.3669 57.5698 16.3669V16.3574Z" fill="#009EDB"/>
<path d="M59.3149 15.7139C59.3149 15.633 59.3149 15.6187 59.4101 15.6187H59.4435C59.5197 15.6187 59.534 15.6187 59.534 15.7139V16.3854C59.5889 16.3135 59.6619 16.2575 59.7456 16.2232C59.8293 16.1889 59.9206 16.1775 60.0101 16.1901C60.3625 16.1901 60.5435 16.3568 60.5435 16.6996V17.5568C60.5435 17.633 60.5435 17.6473 60.453 17.6473H60.4149C60.3387 17.6473 60.3245 17.6473 60.3245 17.5568V16.6996C60.3245 16.4711 60.2197 16.3711 59.953 16.3711C59.6864 16.3711 59.553 16.4806 59.553 16.7473V17.533C59.553 17.6091 59.553 17.6235 59.4625 17.6235H59.4292C59.353 17.6235 59.334 17.6235 59.334 17.533L59.3149 15.7139Z" fill="#009EDB"/>
<path d="M60.434 17.619H60.3959C60.3197 17.619 60.3006 17.619 60.3006 17.5238V16.6999C60.3006 16.4667 60.1959 16.3762 59.934 16.3762C59.6721 16.3762 59.5387 16.4857 59.5387 16.7475V17.5333C59.5387 17.6095 59.5387 17.6285 59.4435 17.6285H59.4101C59.3387 17.6285 59.3149 17.6285 59.3149 17.5333V15.7143C59.3149 15.6285 59.3149 15.6143 59.4101 15.6143H59.4435C59.5197 15.6143 59.5387 15.6143 59.5387 15.7143V16.3762C59.5945 16.3055 59.6678 16.2507 59.7514 16.2173C59.8349 16.1839 59.9258 16.173 60.0149 16.1857C60.3721 16.1857 60.553 16.3571 60.553 16.6999V17.5571C60.5292 17.619 60.5101 17.619 60.434 17.619ZM59.9578 16.3571C60.2245 16.3571 60.334 16.4571 60.334 16.6904V17.5238C60.334 17.5999 60.334 17.6095 60.4197 17.6095H60.4578C60.534 17.6095 60.5435 17.6095 60.5435 17.5238V16.6667C60.5435 16.3285 60.3673 16.1619 60.0149 16.1619C59.9253 16.1492 59.8341 16.1607 59.7504 16.1949C59.6667 16.2292 59.5937 16.2852 59.5387 16.3571V15.7143C59.5387 15.638 59.5387 15.6238 59.453 15.6238H59.4197C59.3483 15.6238 59.3292 15.6238 59.3292 15.7143V17.5571C59.3292 17.6333 59.3292 17.6428 59.4197 17.6428H59.453C59.5245 17.6428 59.5387 17.6428 59.5387 17.5571V16.7475C59.5292 16.4809 59.6578 16.3667 59.934 16.3667L59.9578 16.3571Z" fill="#009EDB"/>
<path d="M60.832 17.0433V16.7766C60.832 16.3718 61.0416 16.1671 61.4701 16.1671C61.5886 16.1496 61.7095 16.1707 61.815 16.2273C61.9205 16.2839 62.0049 16.373 62.0558 16.4814C62.0987 16.4814 62.1415 16.4052 62.1415 16.2528C62.1415 16.2099 62.1416 16.1957 62.2082 16.1957H62.2559C62.3082 16.1957 62.3177 16.1957 62.3177 16.2528C62.3177 16.4862 62.2225 16.6004 62.0891 16.6385C62.0943 16.6844 62.0943 16.7307 62.0891 16.7766V17.0433C62.0891 17.4528 61.8796 17.6528 61.4606 17.6528C61.0415 17.6528 60.832 17.4433 60.832 17.0433ZM61.8844 16.7766C61.8844 16.4957 61.7844 16.3718 61.4701 16.3718C61.1558 16.3718 61.0463 16.4957 61.0463 16.7766V17.0433C61.0463 17.3242 61.1511 17.448 61.4701 17.448C61.7892 17.448 61.8844 17.3242 61.8844 17.0433V16.7766Z" fill="#009EDB"/>
<path d="M61.4729 17.6557C61.0348 17.6557 60.83 17.4604 60.83 17.0413V16.7747C60.8225 16.6884 60.833 16.6015 60.8609 16.5195C60.8887 16.4376 60.9334 16.3623 60.9919 16.2985C61.1254 16.1887 61.2958 16.1342 61.4682 16.1461C61.7824 16.1461 61.9682 16.2461 62.0538 16.4604C62.111 16.4365 62.1348 16.3604 62.1348 16.2365C62.1348 16.1889 62.1348 16.1747 62.2062 16.1747H62.2538C62.3062 16.1747 62.3205 16.1747 62.3205 16.2365C62.3205 16.4461 62.2443 16.5794 62.0919 16.627C62.0945 16.6715 62.0945 16.716 62.0919 16.7604V17.027C62.1045 17.1117 62.0972 17.1981 62.0706 17.2793C62.0442 17.3606 61.9991 17.4347 61.9391 17.4957C61.879 17.5566 61.8058 17.6028 61.7248 17.6305C61.6439 17.6583 61.5577 17.6669 61.4729 17.6557ZM61.4729 16.1699C61.301 16.1552 61.1302 16.2081 60.9967 16.3175C60.938 16.381 60.8935 16.4565 60.8665 16.5385C60.8394 16.6207 60.8302 16.7077 60.8395 16.7937V17.0604C60.8395 17.4747 61.0395 17.6652 61.4729 17.6652C61.6447 17.6793 61.8154 17.6265 61.949 17.5175C62.0078 17.454 62.0522 17.3786 62.0794 17.2965C62.1064 17.2144 62.1156 17.1273 62.1062 17.0413V16.7747C62.1087 16.7287 62.1087 16.6825 62.1062 16.6365C62.2586 16.5889 62.33 16.4604 62.33 16.2509C62.33 16.208 62.33 16.1985 62.2729 16.1985H62.2253C62.1777 16.1985 62.1634 16.1985 62.1634 16.2509C62.1634 16.3794 62.1348 16.4557 62.0729 16.4842C61.9682 16.2699 61.7872 16.1889 61.4729 16.1889V16.1699ZM61.4729 17.4509C61.1682 17.4509 61.049 17.3365 61.049 17.0413V16.7747C61.049 16.4794 61.1634 16.3652 61.4729 16.3652C61.7824 16.3652 61.8872 16.4794 61.8872 16.7747V17.0413C61.8872 17.3413 61.7777 17.4509 61.4729 17.4509ZM61.4729 16.3747C61.1682 16.3747 61.0538 16.4794 61.0538 16.7747V17.0413C61.0538 17.3318 61.1729 17.4413 61.4729 17.4413C61.7729 17.4413 61.8824 17.3365 61.8824 17.0413V16.7747C61.8824 16.4794 61.7729 16.3747 61.4729 16.3747Z" fill="#009EDB"/>
<path d="M62.6276 17.5341C62.6276 17.6104 62.6276 17.6246 62.5324 17.6246H62.5133C62.4419 17.6246 62.4229 17.6246 62.4229 17.5341V16.7104C62.4229 16.3484 62.6228 16.1675 63.0276 16.1675C63.4324 16.1675 63.6324 16.358 63.6324 16.7104V17.5341C63.6324 17.6104 63.6324 17.6246 63.5371 17.6246H63.5038C63.4228 17.6246 63.4085 17.6246 63.4085 17.5341V16.7104C63.4085 16.477 63.3228 16.3722 63.0276 16.3722C62.7324 16.3722 62.6419 16.4817 62.6419 16.7104L62.6276 17.5341Z" fill="#009EDB"/>
<path d="M63.5243 17.6192H63.4909C63.4099 17.6192 63.3956 17.6192 63.3956 17.524V16.7097C63.3956 16.4669 63.2909 16.3764 63.0147 16.3764C62.7385 16.3764 62.629 16.4669 62.629 16.7097V17.5335C62.629 17.6097 62.629 17.6287 62.5338 17.6287H62.5147C62.4433 17.6287 62.4195 17.6287 62.4195 17.5335V16.7097C62.4195 16.3478 62.6243 16.1621 63.029 16.1621C63.1139 16.1534 63.1996 16.1615 63.2814 16.186C63.3631 16.2106 63.4391 16.251 63.5052 16.305C63.5567 16.3582 63.5962 16.4218 63.6208 16.4917C63.6455 16.5616 63.6548 16.6359 63.648 16.7097V17.5335C63.6195 17.6192 63.6051 17.6192 63.5243 17.6192ZM63.0147 16.3574C63.2956 16.3574 63.4004 16.4526 63.4004 16.7002V17.524C63.4004 17.6002 63.4004 17.6097 63.4909 17.6097H63.5243C63.6004 17.6097 63.6147 17.6097 63.6147 17.524V16.7097C63.6205 16.6371 63.6112 16.5642 63.5875 16.4953C63.5637 16.4265 63.5259 16.3633 63.4766 16.3097C63.4102 16.2566 63.3339 16.217 63.2523 16.1933C63.1706 16.1696 63.085 16.1622 63.0004 16.1716C62.8304 16.1524 62.6595 16.2002 62.5243 16.305C62.4712 16.3575 62.4302 16.4209 62.4039 16.4907C62.3776 16.5606 62.3667 16.6353 62.3719 16.7097V17.5335C62.3719 17.6097 62.3956 17.6192 62.4623 17.6192H62.5147C62.5909 17.6192 62.6052 17.6192 62.6052 17.5335V16.7097C62.6243 16.4621 62.7338 16.3669 63.0147 16.3669V16.3574Z" fill="#009EDB"/>
</g>
</svg>
