<svg width="35" height="20" viewBox="0 0 35 20" fill="none" xmlns="http://www.w3.org/2000/svg">
<g clip-path="url(#clip0_1071_468433)">
<path d="M23.9522 8.16057C22.6374 8.14722 22.0167 8.90812 22.0167 8.90812C21.6162 9.33522 21.8766 9.90922 22.2637 9.94928C22.8243 10.0093 22.8243 9.53548 23.6853 9.32857C24.4461 9.14167 24.4795 9.84915 24.4795 9.84915C21.2425 9.76909 21.396 12.4855 22.4973 13.0594C23.5518 13.6133 24.5395 12.9126 24.5395 12.9126C24.5395 12.9126 24.5796 13.2863 25.1002 13.2863C25.7009 13.2863 25.7009 12.6923 25.7009 12.6923V10.0494C25.6608 8.10722 23.9522 8.16057 23.9522 8.16057ZM23.6986 11.9849C23.6986 11.9849 22.851 12.1584 22.8577 11.5511C22.8644 10.9437 24.3994 10.9837 24.5596 11.0305C24.5596 11.0305 24.6063 11.7179 23.6986 11.9849Z" fill="#334B66"/>
<path d="M34.4048 12.2185L33.0833 10.2296L34.0511 9.31523C34.0511 9.31523 34.4982 8.90142 34.1311 8.48768C33.724 8.03381 33.2368 8.48097 33.2368 8.48097L32.0155 9.61555V7.34639C32.0155 7.01936 31.7485 6.75903 31.4281 6.75903C31.1011 6.75903 30.8408 7.026 30.8408 7.34639V12.6924C30.8408 13.0194 31.1078 13.2797 31.4281 13.2797C31.7551 13.2797 32.0155 13.0127 32.0155 12.6924V11.2641L32.2357 11.0439L33.4304 12.9126C33.4304 12.9126 33.8175 13.56 34.3915 13.1462C34.832 12.8392 34.4048 12.2185 34.4048 12.2185Z" fill="#334B66"/>
<path d="M30.1923 10.0427C30.1923 8.1139 28.5839 7.84029 27.4893 8.45429C27.4893 8.45429 27.4893 8.45429 27.4893 8.461C27.3825 8.14726 27.0421 7.98042 26.7285 8.08719C26.4815 8.17397 26.3213 8.40087 26.3213 8.66119V12.6857C26.3213 13.0194 26.5883 13.2864 26.922 13.2864C27.2557 13.2864 27.5226 13.0194 27.5226 12.6857L27.516 9.96932C27.6294 9.84255 27.7563 9.72906 27.8964 9.62894C28.4637 9.22848 28.9977 9.36868 28.9977 10.0494L29.011 12.6991C29.0243 13.0261 29.298 13.2864 29.625 13.273C29.9387 13.2597 30.1857 13.0127 30.199 12.6991L30.1923 10.0427Z" fill="#334B66"/>
<path d="M12.8688 13.3597C12.949 13.2396 13.0023 13.1061 13.029 12.966L11.6675 9.40861C11.6675 9.40861 11.4206 8.72119 11.9679 8.51429C12.5418 8.30074 12.7554 8.84803 12.7954 8.96145L13.6564 11.2507L14.4439 8.96816C14.4439 8.96816 14.6709 8.26068 15.2983 8.50765C15.8188 8.71455 15.5519 9.41532 15.5519 9.41532C15.5519 9.41532 14.7443 11.798 14.0702 13.5199C13.6697 14.5544 13.3227 14.6545 12.9289 14.748C12.4017 14.8747 11.4072 14.8147 11.4072 14.1606C11.4072 13.6467 11.9345 13.6134 12.1748 13.62C12.1881 13.6334 12.682 13.6735 12.8688 13.3597Z" fill="#2ABAEA"/>
<path d="M9.70557 7.3796L8.46415 10.8101L7.10931 7.3996C7.10931 7.3996 6.90912 6.75225 6.34183 6.75225C5.68774 6.75225 5.70776 7.27283 5.69441 7.3996C5.68106 7.52644 5.69441 12.7322 5.69441 12.7322C5.69441 12.7322 5.68774 13.2795 6.28841 13.2795C6.90241 13.2795 6.87576 12.7256 6.87576 12.7256V9.97586L7.87686 12.7256C7.87686 12.7256 8.0237 13.2662 8.48422 13.2595C8.94473 13.2528 9.07822 12.7256 9.07822 12.7256L9.91247 9.98251V12.7256C9.91247 12.7256 9.91247 13.2795 10.5198 13.2795C11.1071 13.2795 11.1071 12.7256 11.1071 12.7256V7.3996C11.1071 7.3996 11.1071 6.74554 10.4731 6.75225C9.94583 6.75889 9.74564 7.26612 9.70557 7.3796C9.70557 7.39296 9.70557 7.3996 9.70557 7.3996V7.3796Z" fill="#2ABAEA"/>
<path d="M34.5969 15.3816H24.0984H16.3898L16.3964 15.3883C13.4198 18.8789 8.1739 19.2927 4.68332 16.316C1.19274 13.3393 0.772273 8.1001 3.74894 4.60954C6.72558 1.11896 11.9715 0.698493 15.4621 3.68183C15.8024 3.9755 16.1228 4.28918 16.4098 4.63624H18.0784C15.1217 0.204605 9.12165 -0.990069 4.69 1.97325C0.258362 4.93658 -0.929637 10.9366 2.03369 15.3683C4.99701 19.7999 10.9904 20.9879 15.422 18.0246C16.0494 17.6041 16.6234 17.1169 17.1373 16.5629L33.8026 16.5496L34.5969 15.3816Z" fill="#2ABAEA"/>
<path d="M20.6291 9.78248C20.6626 9.73577 21.063 9.41538 21.0296 8.54777C20.9629 6.79912 19.4478 6.81912 19.1075 6.80577C18.5669 6.79248 18.2398 6.79912 17.2454 6.80577C16.4044 6.81248 16.4111 7.58003 16.4111 7.58003V13.2797H19.2409C20.756 13.2797 21.3166 12.4454 21.3166 11.2775C21.3166 10.1095 20.6291 9.78248 20.6291 9.78248ZM17.6325 8.01383H19.1942C19.5079 8.02048 19.8349 8.18732 19.8349 8.65454C19.8349 9.14177 19.548 9.29525 19.1942 9.29525H17.6325V8.01383ZM19.3077 12.1184H17.6325V10.5166H19.3077C19.7148 10.5367 20.1086 10.7436 20.1086 11.3175C20.1086 11.9049 19.7482 12.1184 19.3077 12.1184Z" fill="#334B66"/>
</g>
<defs>
<clipPath id="clip0_1071_468433">
<rect width="35" height="20" fill="white"/>
</clipPath>
</defs>
</svg>
