<svg width="54" height="20" viewBox="0 0 54 20" fill="none" xmlns="http://www.w3.org/2000/svg">
<g clip-path="url(#clip0_1071_470101)">
<g clip-path="url(#clip1_1071_470101)">
<mask id="mask0_1071_470101" style="mask-type:luminance" maskUnits="userSpaceOnUse" x="-1" y="0" width="55" height="20">
<path d="M54 0H-1V20H54V0Z" fill="white"/>
</mask>
<g mask="url(#mask0_1071_470101)">
<path d="M0.398797 15.9486L0.87575 19.7563H17.5741L17.0277 15.3956H9.24177L9.17373 14.8553L16.3445 9.9451L15.8654 6.13037H-0.831543L-0.285124 10.4904H7.51371L7.58174 11.0356L0.398797 15.9486Z" fill="black"/>
<path d="M17.8057 6.13037L19.5137 19.7563H36.2242L34.5162 6.13037H17.8057Z" fill="#AA8FFF"/>
<path d="M53.7474 11.0357C53.3621 7.97324 50.9071 6.11711 47.5699 6.13044H36.4546L38.1619 19.7571H43.1627L42.8204 17.0315H48.112C52.2764 17.0308 54.1821 14.4883 53.7474 11.0357ZM47.5713 13.2111L42.3435 13.2168L41.9338 9.94658L47.191 9.95079C48.4271 9.96552 49.0595 10.6476 49.1619 11.581C49.2249 12.1817 48.9442 13.2104 47.5713 13.2104V13.2111Z" fill="black"/>
<path d="M22.7977 4.31991C23.6772 3.39474 23.5239 1.85404 22.4553 0.878658C21.3867 -0.0967298 19.8075 -0.137441 18.9281 0.787724C18.0486 1.71289 18.2019 3.25358 19.2704 4.22897C20.339 5.20436 21.9183 5.24507 22.7977 4.31991Z" fill="black"/>
</g>
</g>
</g>
<defs>
<clipPath id="clip0_1071_470101">
<rect width="54" height="20" fill="white"/>
</clipPath>
<clipPath id="clip1_1071_470101">
<rect width="55" height="20" fill="white" transform="translate(-1)"/>
</clipPath>
</defs>
</svg>
