<svg width="45" height="45" viewBox="0 0 45 45" fill="none" xmlns="http://www.w3.org/2000/svg">
<path d="M36.9898 13.4302H8.00977V14.9602V40.8802C8.00977 41.7802 8.72977 42.4102 9.53977 42.4102H35.4598C36.3598 42.4102 36.9898 41.6902 36.9898 40.8802V14.8702V13.4302ZM35.8198 39.8902C35.8198 40.5202 35.2798 41.1502 34.5598 41.1502H10.4398C9.80977 41.1502 9.17977 40.6102 9.17977 39.8902V14.6002H35.8198V39.8902Z" fill="#333333"/>
<path fill-rule="evenodd" clip-rule="evenodd" d="M22.4988 34.4901C22.3188 34.4901 22.1388 34.4001 22.0488 34.3101C21.3288 33.6801 17.8188 30.7101 17.0088 29.0001C16.5588 28.1001 16.5588 27.1101 16.8288 26.2101C17.0988 25.4001 17.6388 24.8601 18.4488 24.5001C18.8988 24.3201 19.4388 24.1401 19.9788 24.1401C20.8788 24.1401 21.7788 24.5001 22.4088 25.1301C23.0388 24.5001 23.9388 24.1401 24.9288 24.1401C25.4688 24.1401 26.0088 24.2301 26.4588 24.5001C27.1788 24.8601 27.8088 25.4901 28.0788 26.2101C28.4388 27.1101 28.3488 28.1001 27.8988 29.0001C27.0888 30.7101 23.3088 33.9501 22.8588 34.3101C22.8588 34.4001 22.7688 34.4901 22.4988 34.4901ZM20.0688 25.4001C19.7088 25.4001 19.3488 25.4901 18.9888 25.6701C18.5388 25.8501 18.1788 26.3001 17.9988 26.7501C17.7288 27.3801 17.8188 28.1001 18.0888 28.6401C18.6288 29.8101 20.9688 31.9701 22.4988 33.2301C23.9388 32.0601 26.2788 29.8101 26.9088 28.6401C27.1788 28.0101 27.2688 27.3801 26.9988 26.7501C26.8188 26.3001 26.4588 25.8501 26.0088 25.6701C25.6488 25.4901 25.2888 25.4001 24.9288 25.4001C24.2088 25.4001 23.4888 25.7601 23.0388 26.3001L22.9488 26.3901C22.8588 26.5701 22.6788 26.6601 22.4988 26.6601C22.3188 26.6601 22.1388 26.5701 22.0488 26.3901H21.9588C21.5088 25.7601 20.7888 25.4001 20.0688 25.4001Z" fill="#333333"/>
<path d="M14.3987 22.43H13.1387V10.37C13.1387 10.37 13.6787 2 22.5887 2C29.6987 2 31.4087 6.77 32.1287 8.93C32.3087 9.47 32.4887 10.37 32.4887 10.37V22.61H31.1387V10.46C31.1387 10.46 30.1487 3.08 22.5887 3.17C22.5887 3.17 15.1187 2.9 14.4887 10.46L14.3987 22.43Z" fill="#333333"/>
</svg>
