<svg width="55" height="34" viewBox="0 0 55 34" fill="none" xmlns="http://www.w3.org/2000/svg">
<g clip-path="url(#clip0_826_447763)">
<path d="M0.758789 6.4333V27.5667C0.758789 31.1197 3.63908 34 7.19209 34H48.4746C52.0276 34 54.9079 31.1197 54.9079 27.5667V6.4333C54.9079 2.88029 52.0276 0 48.4746 0H7.19209C3.63908 0 0.758789 2.88029 0.758789 6.4333Z" fill="#00589F"/>
<path d="M22.9941 21.8767L24.6526 12.147H27.3096L25.6498 21.8767H22.9941Z" fill="white"/>
<path d="M35.2643 12.3878C34.5026 12.1119 33.698 11.9734 32.8879 11.9787C30.2682 11.9787 28.4219 13.2988 28.4064 15.1953C28.3923 16.5939 29.724 17.3736 30.7301 17.8381C31.7595 18.3155 32.1094 18.6191 32.1043 19.045C32.1043 19.6973 31.2795 19.9946 30.5178 19.9946C29.6572 20.0186 28.8027 19.8424 28.0217 19.4799L27.6795 19.3255L27.3076 21.5038C28.2551 21.8518 29.2576 22.0262 30.2669 22.0185C33.0538 22.0185 34.8642 20.7138 34.8848 18.695C34.8951 17.5885 34.1887 16.7457 32.6588 16.0509C31.7324 15.6019 31.1637 15.3008 31.1702 14.8453C31.1702 14.4413 31.6501 14.009 32.6884 14.009C33.369 13.9938 34.0452 14.1209 34.6737 14.3821L34.9105 14.4941L35.2695 12.3852" fill="white"/>
<path d="M42.0642 12.1564H40.0146C39.7265 12.1192 39.4341 12.1781 39.1829 12.324C38.9317 12.4698 38.7356 12.6945 38.625 12.9631L34.6865 21.8797H37.4708C37.4708 21.8797 37.9263 20.6805 38.0293 20.418H41.426C41.5058 20.759 41.749 21.8758 41.749 21.8758H44.2091L42.0642 12.1564ZM38.7948 18.4288C39.0136 17.8678 39.8512 15.7088 39.8512 15.7088C39.8357 15.7358 40.0686 15.1466 40.2024 14.7811L40.3813 15.62C40.3813 15.62 40.8895 17.936 40.995 18.4301L38.7948 18.4288Z" fill="white"/>
<path d="M20.7699 12.1548L18.1734 18.7888L17.8967 17.4404C17.2247 15.6695 15.915 14.2138 14.2246 13.3591L16.5985 21.8678H19.4047L23.5786 12.1574H20.7699" fill="white"/>
<path d="M15.7664 12.1485H11.4895L11.4561 12.3517C12.8635 12.6105 14.1864 13.2096 15.3092 14.0968C16.4321 14.984 17.321 16.1323 17.8984 17.4418L16.963 12.9706C16.8953 12.7118 16.7365 12.4861 16.5157 12.3351C16.2949 12.184 16.027 12.1177 15.7612 12.1485" fill="#F9A51A"/>
</g>
<defs>
<clipPath id="clip0_826_447763">
<rect width="54.1491" height="34" fill="white" transform="translate(0.758789)"/>
</clipPath>
</defs>
</svg>
