<svg width="23" height="20" viewBox="0 0 23 20" fill="none" xmlns="http://www.w3.org/2000/svg">
<mask id="mask0_826_447486" style="mask-type:luminance" maskUnits="userSpaceOnUse" x="0" y="0" width="23" height="20">
<path d="M22.9998 0H0.553711V20H22.9998V0Z" fill="white"/>
</mask>
<g mask="url(#mask0_826_447486)">
<path d="M0.553654 10.1345C0.712219 9.59492 1.09324 9.33612 1.62501 9.19828C2.87469 8.8738 4.1138 8.50884 5.36073 8.171C5.53631 8.12508 5.60432 8.04004 5.6365 7.87184C5.82402 6.9494 6.02073 6.02833 6.21515 5.10728C6.22848 5.04431 6.25008 4.98318 6.27076 4.90918C7.08014 5.08016 7.87939 5.24837 8.67731 5.41751C9.86955 5.6703 11.0613 5.92676 12.2544 6.17357C12.3686 6.19287 12.4856 6.18628 12.5968 6.15427C13.4356 5.93181 14.2694 5.68638 15.1119 5.47818C15.6271 5.3504 16.1382 5.64272 16.3275 6.14002C16.419 6.38616 16.4927 6.63851 16.5481 6.89516C16.5822 7.04545 16.6492 7.11164 16.7991 7.14244C18.4843 7.49357 20.1695 7.84809 21.8548 8.20596C21.9394 8.22388 22.0235 8.24548 22.1283 8.26988C21.9982 8.88436 21.8699 9.48876 21.7418 10.0936C21.5524 10.9862 21.3663 11.8792 21.1732 12.7708C21.0229 13.4791 20.4879 13.8137 19.7727 13.6629C19.3131 13.5651 18.8494 13.4699 18.3479 13.3656C18.4835 13.8564 18.6067 14.3105 18.7345 14.7637C18.8659 15.2293 18.7754 15.6411 18.4008 15.9513C18.2394 16.0756 18.0542 16.1656 17.8567 16.2156C14.3636 17.1909 10.8696 18.1616 7.37475 19.1277C6.40467 19.3971 5.43427 19.6658 4.46357 19.9339C3.69142 20.1476 3.15138 19.8516 2.93904 19.0859C2.15433 16.2516 1.37023 13.4175 0.586746 10.5836C0.578068 10.5642 0.56661 10.5463 0.552734 10.5302L0.553654 10.1345ZM2.45185 13.9631C2.47069 14.0448 2.48311 14.1088 2.50057 14.1712C2.93199 15.7251 3.36403 17.279 3.79668 18.8331C3.87803 19.1254 3.93732 19.159 4.23514 19.0763C8.68691 17.8405 13.1383 16.6041 17.5891 15.3672C17.9164 15.2752 17.9407 15.232 17.8498 14.9039C17.4226 13.3632 16.9955 11.8229 16.5683 10.2829C16.5495 10.2149 16.5256 10.1478 16.499 10.0646L2.45185 13.9631ZM15.9796 8.16188C15.8357 7.64341 15.6974 7.14657 15.5599 6.64927C15.4703 6.32754 15.4221 6.30042 15.0948 6.39188C12.3252 7.15791 9.55563 7.92531 6.78599 8.69404C5.10626 9.15948 3.42653 9.62588 1.7468 10.0932C1.44071 10.1782 1.40808 10.237 1.49356 10.5454C1.5193 10.6373 1.54366 10.7292 1.5694 10.8212C1.68568 11.2348 1.80242 11.6462 1.921 12.0658L15.9796 8.16188ZM17.9559 10.5647C17.9463 10.9232 18.0658 11.0827 18.3392 11.1438C18.8439 11.2575 19.3495 11.3648 19.8559 11.4656C20.1419 11.522 20.3547 11.3943 20.4185 11.1158C20.5399 10.5909 20.6483 10.0628 20.7531 9.5338C20.7991 9.29156 20.6832 9.08564 20.4415 9.0282C19.8899 8.89588 19.3334 8.78092 18.7754 8.67756C18.5594 8.63756 18.371 8.74092 18.3158 8.9602C18.1788 9.52644 18.0621 10.0945 17.9573 10.5647H17.9559Z" fill="#234F76"/>
<path d="M22.7303 5.88955L22.1319 8.27082L6.27295 4.91011L6.85205 2.52979L22.7303 5.88955Z" fill="white"/>
<path d="M6.85205 2.5293C6.95317 1.92261 7.01981 1.3343 7.15539 0.75979C7.28776 0.201362 7.85397 -0.0964657 8.44645 0.0280889C10.5825 0.477589 12.7177 0.928312 14.8525 1.38026C17.2373 1.88492 19.6222 2.38973 22.0073 2.89469C22.7541 3.05187 23.0901 3.51792 22.9793 4.26754C22.9003 4.80116 22.8157 5.33338 22.7303 5.88906L6.85205 2.5293Z" fill="#234F76"/>
<path d="M2.45215 13.9639L16.4993 10.0654C16.5259 10.1486 16.5498 10.2158 16.5686 10.2838C16.9961 11.8241 17.4232 13.3644 17.8501 14.9047C17.942 15.2329 17.9167 15.277 17.5894 15.368C13.138 16.6049 8.68664 17.8414 4.23544 19.077C3.93761 19.1598 3.87832 19.1262 3.79696 18.8339C3.36493 17.2798 2.9329 15.7259 2.50086 14.1721C2.4834 14.1096 2.47145 14.0457 2.45215 13.9639ZM6.74584 17.166C6.74672 17.1264 6.74488 17.0868 6.74032 17.0474C6.58635 16.4931 6.44296 15.9352 6.27198 15.3859C6.19476 15.1373 5.97507 15.0499 5.70298 15.1226C5.20292 15.2553 4.70409 15.3931 4.20648 15.5362C3.90865 15.6226 3.77767 15.8207 3.85166 16.1172C3.98403 16.6471 4.13248 17.1742 4.29105 17.6969C4.36735 17.9478 4.56682 18.0604 4.82282 17.9965C5.35964 17.8618 5.89326 17.7116 6.42456 17.5562C6.63185 17.4941 6.74584 17.3406 6.74584 17.166Z" fill="white"/>
<path d="M15.98 8.1616L1.91995 12.0637C1.80138 11.6441 1.68463 11.2318 1.56835 10.819C1.54261 10.7271 1.51825 10.6352 1.49251 10.5433C1.40703 10.2349 1.43966 10.1756 1.74576 10.091C3.42579 9.62464 5.10552 9.15832 6.78495 8.692C9.55453 7.92411 12.3242 7.15671 15.0938 6.38978C15.4229 6.29785 15.4693 6.32451 15.5589 6.64716C15.6977 7.1463 15.8361 7.64176 15.98 8.1616Z" fill="white"/>
<path d="M17.9576 10.5652C18.0624 10.095 18.1791 9.52461 18.3193 8.95981C18.3736 8.74053 18.562 8.63805 18.7789 8.67709C19.3368 8.78053 19.8935 8.89541 20.445 9.02781C20.6868 9.08573 20.8035 9.29165 20.7566 9.53333C20.6536 10.0624 20.5433 10.5904 20.422 11.1153C20.3581 11.3939 20.1463 11.5216 19.8595 11.4651C19.3524 11.3643 18.8468 11.2571 18.3428 11.1434C18.0674 11.0832 17.948 10.9237 17.9576 10.5652Z" fill="white"/>
<path d="M6.74595 17.1653C6.74595 17.339 6.63381 17.4935 6.42422 17.555C5.89291 17.7104 5.3593 17.8607 4.82248 17.9953C4.56555 18.0592 4.367 17.9466 4.2907 17.6956C4.13214 17.1726 3.98369 16.6459 3.85132 16.116C3.77732 15.8196 3.90831 15.6215 4.20614 15.535C4.70344 15.3916 5.20227 15.2537 5.70263 15.1214C5.97472 15.0488 6.19442 15.1361 6.27163 15.3848C6.44261 15.934 6.58601 16.492 6.73998 17.0462C6.74471 17.0857 6.7467 17.1255 6.74595 17.1653Z" fill="#234F76"/>
<path d="M7.9209 13.3967L8.32402 13.2842L10.6419 16.1723L10.1234 16.3171L9.56818 15.5983L8.00554 16.0335L7.90762 16.9344L7.38916 17.0791L7.9209 13.3967ZM9.29978 15.254L8.26842 13.9211L8.25922 13.9239L8.05834 15.6019L9.29978 15.254Z" fill="#234F76"/>
<path d="M10.5294 13.1179L9.47228 13.4125L9.35596 12.9956L11.9137 12.2842L12.0314 12.6978L10.9743 12.9924L11.7722 15.8549L11.3277 15.979L10.5294 13.1179Z" fill="#234F76"/>
<path d="M12.353 12.1603L13.0153 11.9765L14.7508 14.1693L14.7692 14.1642L15.1107 11.3918L15.773 11.208L16.6872 14.4873L16.2427 14.611L15.4903 11.9171L15.4812 11.9199L15.1254 14.9244L14.8289 15.0066L12.9703 12.6199L12.9611 12.6222L13.713 15.3182L13.2681 15.4419L12.353 12.1603Z" fill="#234F76"/>
</g>
</svg>
