<svg width="60" height="20" viewBox="0 0 60 20" fill="none" xmlns="http://www.w3.org/2000/svg">
<g clip-path="url(#clip0_1071_468236)">
<path d="M25.1115 10.8492C23.5432 10.8492 22.2656 9.5716 22.2656 8.00333C22.2656 6.43486 23.5432 5.15747 25.1115 5.15747C26.6797 5.15747 27.9573 6.43486 27.9573 8.00333C27.9573 9.5716 26.6797 10.8492 25.1115 10.8492ZM25.1115 6.25529C24.1476 6.25529 23.3632 7.03942 23.3632 8.00355C23.3632 8.96747 24.1473 9.7516 25.1115 9.7516C26.0756 9.7516 26.8595 8.96747 26.8595 8.00355C26.8595 7.03942 26.0754 6.25529 25.1115 6.25529ZM59.8393 10.0192C60.0537 9.80507 60.0537 9.45703 59.8393 9.24268C59.6252 9.02855 59.2771 9.02855 59.063 9.24268C58.3821 9.92355 57.273 9.92355 56.588 9.24268C55.9071 8.56181 55.9071 7.44877 56.588 6.7679C56.9169 6.43899 57.3569 6.25529 57.8237 6.25529C58.2904 6.25529 58.73 6.43899 59.0593 6.7679C59.2734 6.98203 59.6215 6.98203 59.8356 6.7679C60.0497 6.55377 60.0497 6.20551 59.8356 5.99138C59.2965 5.45203 58.5847 5.15747 57.8237 5.15747C57.0626 5.15747 56.3471 5.45203 55.8115 5.99138C54.7021 7.10073 54.7021 8.90594 55.8115 10.0153C56.3663 10.5701 57.0967 10.8492 57.8237 10.8492C58.5541 10.8531 59.2845 10.5736 59.8393 10.0192ZM15.851 8.00703C15.851 9.57529 17.098 10.8529 18.6319 10.8529C19.2897 10.8529 19.8676 10.6157 20.315 10.2218V10.3059C20.315 10.6081 20.5597 10.8531 20.8619 10.8531C21.1641 10.8531 21.4089 10.6081 21.4089 10.3059V3.18355C21.4089 2.88138 21.1641 2.6366 20.8619 2.6366C20.5597 2.6366 20.315 2.88138 20.315 3.18355V5.78855C19.8673 5.39464 19.2897 5.15747 18.6319 5.15747C17.098 5.16116 15.851 6.43486 15.851 8.00703ZM16.9489 8.00703C16.9489 7.04312 17.7023 6.25899 18.6319 6.25899C19.5615 6.25899 20.315 7.04312 20.315 8.00703C20.315 8.97094 19.5615 9.75529 18.6319 9.75529C17.7023 9.75529 16.9489 8.97094 16.9489 8.00703ZM36.6134 7.36833C36.6095 6.14812 35.6189 5.15747 34.3987 5.15747C33.733 5.15747 33.1363 5.45203 32.731 5.91855C32.3252 5.45203 31.7287 5.15747 31.063 5.15747C29.8428 5.15747 28.8482 6.15203 28.8482 7.37225V7.37616V10.302C28.8482 10.6044 29.093 10.8494 29.3952 10.8494C29.6973 10.8494 29.9421 10.6044 29.9421 10.302V7.37616C29.9421 6.76029 30.4432 6.25529 31.0628 6.25529C31.6786 6.25529 32.1834 6.75638 32.1834 7.37616V10.302C32.1834 10.6044 32.4284 10.8494 32.7308 10.8494C33.0328 10.8494 33.2778 10.6044 33.2778 10.302V7.37616C33.2778 6.76029 33.7789 6.25529 34.3984 6.25529C35.0141 6.25529 35.5189 6.75638 35.5189 7.37616V10.302C35.5189 10.6044 35.7641 10.8494 36.066 10.8494C36.3682 10.8494 36.6132 10.6044 36.6132 10.302V7.37616C36.6134 7.37203 36.6134 7.37203 36.6134 7.36833ZM54.0671 10.3018V5.70442C54.0671 5.40225 53.8226 5.15747 53.5202 5.15747C53.2178 5.15747 52.9732 5.40225 52.9732 5.70442V10.2983C52.9732 10.6005 53.2178 10.8455 53.5202 10.8455C53.8226 10.8455 54.0671 10.6042 54.0671 10.3018ZM53.5204 2.63681C53.1302 2.63681 52.8167 2.95421 52.8167 3.34051C52.8167 3.72681 53.1343 4.04442 53.5204 4.04442C53.9065 4.04442 54.2241 3.72703 54.2241 3.34051C54.2241 2.95399 53.9106 2.63681 53.5204 2.63681ZM48.341 9.17377C48.341 8.00334 47.1247 7.7242 46.268 7.52116C45.2928 7.29551 44.9484 7.15008 44.9484 6.78681C44.9484 6.48095 45.3347 6.23594 45.9354 6.23594C46.3982 6.23594 46.8534 6.35442 47.2895 6.59551C47.5497 6.73703 47.871 6.64138 48.0126 6.38507C48.1539 6.12507 48.0584 5.80377 47.8021 5.66225C47.2091 5.33703 46.5819 5.17268 45.9354 5.17268C44.8223 5.17268 43.8391 5.89181 43.8391 6.79442C43.8391 8.07203 45.1206 8.35899 46.0269 8.5692C46.88 8.76812 47.2358 8.93638 47.2358 9.21181C47.2358 9.66703 46.6276 9.78551 46.1113 9.78551C45.526 9.78551 45.09 9.64029 44.5008 9.24638C44.256 9.08181 43.9232 9.14681 43.7589 9.3916C43.5943 9.63638 43.6593 9.9692 43.9043 10.1338C44.6693 10.6462 45.3078 10.8564 46.1076 10.8564C47.6221 10.8492 48.341 10.0305 48.341 9.17377ZM51.4739 9.75138C50.8582 9.75138 50.4104 9.25029 50.4104 8.63073V6.25921H51.5504C51.826 6.25921 52.0515 6.03725 52.0515 5.75812C52.0515 5.47899 51.826 5.25703 51.5504 5.25703H50.4104V4.03312C50.4104 3.73094 50.1658 3.48616 49.8634 3.48616C49.561 3.48616 49.3165 3.73094 49.3165 4.03312V8.62703C49.3165 9.85094 50.2537 10.8418 51.4776 10.8418C51.7797 10.8418 52.0245 10.5968 52.0245 10.2949C52.0208 9.99616 51.776 9.75138 51.4739 9.75138ZM42.9786 7.76986C42.9786 6.20529 41.5823 5.15725 40.2778 5.15725C38.7134 5.15725 37.4397 6.43094 37.4397 7.99551C37.4397 9.62507 38.683 10.8529 40.3276 10.8529C41.1997 10.8529 41.8539 10.5392 42.1634 10.3557C42.3091 10.2716 42.4313 10.0955 42.4313 9.8966C42.4313 9.6479 42.2282 9.40703 41.93 9.40703C41.8421 9.40703 41.7352 9.44138 41.6508 9.48355C41.3141 9.67094 40.8591 9.87377 40.3273 9.87377C39.4782 9.87377 38.7323 9.36116 38.5602 8.51203H42.2858C42.6571 8.50812 42.9786 8.16399 42.9786 7.76986ZM38.5643 7.50986C38.7021 6.69138 39.4634 6.11377 40.2778 6.11377C41.1463 6.11377 41.8154 6.85203 41.9382 7.50986H38.5643ZM8.49539 10.3018V5.70442C8.49539 5.40225 8.25061 5.15747 7.94843 5.15747C7.64626 5.15747 7.40148 5.40225 7.40148 5.70442V10.2983C7.40148 10.6005 7.64626 10.8455 7.94843 10.8455C8.25061 10.8492 8.49539 10.6042 8.49539 10.3018ZM15.0208 7.83116C15.0056 6.35464 13.7969 5.15747 12.3167 5.15747C10.825 5.15747 9.61235 6.37007 9.61235 7.86181V10.2983C9.61235 10.6005 9.85713 10.8455 10.1593 10.8455C10.4615 10.8455 10.7063 10.6005 10.7063 10.2983V7.86181C10.7063 6.97442 11.4293 6.25138 12.3167 6.25138C13.2041 6.25138 13.9271 6.97442 13.9271 7.86181C13.9271 7.86573 13.9271 7.87333 13.9271 7.87725V10.2983C13.9271 10.6005 14.1719 10.8455 14.4741 10.8455C14.7763 10.8455 15.021 10.6005 15.021 10.2983V7.86181C15.0247 7.8542 15.0208 7.84268 15.0208 7.83116ZM7.94822 2.63681C7.558 2.63681 7.24452 2.95421 7.24452 3.34051C7.24452 3.72681 7.56191 4.04442 7.94822 4.04442C8.33822 4.04442 8.65213 3.72703 8.65213 3.34051C8.65213 2.95399 8.33843 2.63681 7.94822 2.63681ZM4.6243 11.6868H1.08626C0.810824 11.6868 0.588867 11.9088 0.588867 12.1842C0.588867 12.4596 0.810824 12.6816 1.08626 12.6816H4.62452C4.89995 12.6816 5.12169 12.4596 5.12169 12.1842C5.12169 11.9125 4.89974 11.6868 4.6243 11.6868ZM3.40039 7.56333V10.3018C3.40039 10.6042 3.15561 10.8492 2.85343 10.8492C2.55126 10.8492 2.30648 10.6042 2.30648 10.3018V5.70442C2.30648 5.27986 2.39822 4.85138 2.59713 4.44594C2.93365 3.76507 3.51148 3.25247 4.23039 3.01138C4.94952 2.7666 5.71843 2.81638 6.3993 3.1529C6.67104 3.2866 6.78169 3.61573 6.648 3.88725C6.51409 4.15899 6.18517 4.26964 5.91735 4.13594C5.50039 3.92942 5.02604 3.89877 4.58235 4.0479C4.14256 4.19703 3.78669 4.51073 3.58017 4.92768C3.45778 5.17638 3.40039 5.44029 3.40039 5.70029V6.56094H5.56539C5.84082 6.56094 6.06278 6.7829 6.06278 7.05833C6.06278 7.33377 5.84082 7.55551 5.56539 7.55551H3.40039V7.56333Z" fill="#378E2B"/>
<path d="M60.0001 12.6816H55.3184V17.3634H60.0001V12.6816Z" fill="#008D54"/>
<path d="M58.9712 13.9132C58.6806 14.0854 58.5886 14.0969 58.2788 14.2843C58.4586 14.0854 58.5236 14.001 58.6382 13.8367C58.3517 13.8519 57.9269 13.8825 57.6284 13.9512C57.8884 13.8136 58.4086 13.6567 58.6838 13.6186C58.6188 13.5308 58.1065 13.2514 57.9804 13.2017C58.3856 13.2323 58.883 13.3851 59.1241 13.5308C59.2195 13.4999 59.3189 13.4999 59.491 13.4847C59.4491 13.5612 59.4491 13.6071 59.273 13.7219C59.3228 13.8482 59.208 14.5558 59.1125 14.7432C59.1052 14.4488 59.0782 14.0777 58.9712 13.9132Z" fill="white"/>
<path d="M56.8563 16.4456C56.6878 16.3843 56.5691 16.3119 56.4391 16.1891C56.4774 16.0823 56.5232 15.9943 56.5961 15.8869C56.4624 15.906 56.3628 15.9215 56.2443 15.9445C56.1487 15.7763 56.1065 15.6193 56.0567 15.3973C56.0339 15.6304 56.0224 15.7991 56.053 15.9865C55.9495 16.0132 55.8732 16.0436 55.7854 16.0821C55.9076 16.1584 56.0074 16.2158 56.1448 16.2769C56.2215 16.4376 56.2939 16.5447 56.4204 16.6671C56.3895 16.5641 56.3819 16.4797 56.3934 16.3728C56.55 16.4186 56.6839 16.4417 56.8563 16.4456Z" fill="white"/>
<path d="M57.2883 14.1008C57.2346 14.1658 57.1737 14.2921 57.1582 14.3495C57.5867 14.4106 57.9309 14.6287 57.9309 14.6287C57.5559 14.56 57.3572 14.5676 57.2196 14.5828C57.078 14.5943 57.0513 14.6134 57.0513 14.6134C56.9519 14.8315 56.8906 15.2102 56.8906 15.2102C56.8219 15.0495 56.7226 14.7165 56.7226 14.7165C56.5313 14.816 56.0991 15.2254 56.0991 15.2254C56.3363 14.7474 56.5811 14.5291 56.5811 14.5291C56.5006 14.4452 56.2789 14.4032 56.1182 14.3954C56.2024 14.361 56.4165 14.3226 56.5772 14.3152C56.7378 14.3076 56.8411 14.3191 56.8411 14.3191C56.99 14.2078 57.2115 14.1084 57.2883 14.1008Z" fill="white"/>
<path d="M57.7397 16.1473C57.6631 16.2503 57.5981 16.3308 57.5177 16.4264C57.3723 16.4647 57.2577 16.4797 57.1199 16.4797C57.2044 16.5218 57.2881 16.5484 57.3762 16.5677C57.2884 16.6521 57.2116 16.7092 57.1238 16.7666C57.2734 16.7284 57.464 16.6671 57.6057 16.5829C57.6786 16.5871 57.7514 16.579 57.801 16.5714C57.7892 16.5295 57.7818 16.4949 57.7664 16.4414C57.9001 16.3345 57.9999 16.2425 58.1107 16.1279C57.9923 16.2118 57.8888 16.2729 57.7514 16.3381C57.747 16.2731 57.747 16.2199 57.7397 16.1473Z" fill="white"/>
<path d="M24.8224 14.826C24.8148 14.9943 24.8033 15.3502 24.7996 15.5565C24.6161 15.6521 24.3252 15.7058 24.0461 15.7058C23.4113 15.7058 23.002 15.3082 23.002 14.8145C23.002 14.2943 23.4265 13.9041 24.1226 13.9041C24.2833 13.9041 24.5204 13.9308 24.6887 13.9728L24.5663 14.3093C24.4478 14.2328 24.2526 14.1756 24.1187 14.1756C23.7172 14.1756 23.5756 14.5315 23.5756 14.8182C23.5756 15.2963 23.832 15.4532 24.1226 15.4532C24.157 15.4532 24.268 15.4495 24.3024 15.438C24.3024 15.2315 24.2985 14.9673 24.2833 14.826H24.8224ZM25.1591 13.9463C25.1861 14.1223 25.1861 14.4702 25.1861 14.761C25.1861 15.1015 25.1822 15.4076 25.1517 15.66H25.7217C25.6948 15.4 25.6948 14.9102 25.6948 14.761C25.6948 14.6463 25.6987 14.3939 25.7063 14.1837C25.7446 14.1795 25.8517 14.1795 25.9091 14.1795C26.0354 14.1795 26.2954 14.2445 26.2954 14.4739C26.2954 14.7113 26.0813 14.8258 25.8365 14.7913C26.0391 15.0937 26.2456 15.4532 26.3567 15.6563H26.9687C26.8846 15.5682 26.4676 15.0287 26.4178 14.9369C26.6665 14.8373 26.8233 14.6845 26.8233 14.4739C26.8233 14.0763 26.3756 13.9423 26.0009 13.9423H25.1593L25.1591 13.9463ZM33.823 15.7056C34.3546 15.7056 34.7524 15.3384 34.7524 14.803C34.7524 14.2637 34.3506 13.9004 33.823 13.9004C33.2872 13.9004 32.8896 14.2637 32.8896 14.803C32.8856 15.3384 33.2872 15.7056 33.823 15.7056ZM33.823 14.1221C34.0676 14.1221 34.2206 14.363 34.2206 14.8067C34.2206 15.2465 34.0676 15.4876 33.823 15.4876C33.5743 15.4876 33.4176 15.2502 33.4176 14.8067C33.4176 14.3632 33.5746 14.1221 33.823 14.1221ZM27.1711 13.9463C27.1902 14.0687 27.1939 14.3289 27.1939 14.4895V15.1091C27.1939 15.5947 27.5 15.7023 27.9935 15.7023C28.5404 15.7023 28.8159 15.53 28.8159 15.136V14.6504C28.8159 14.375 28.8159 14.0958 28.835 13.9428H28.3606C28.3722 14.0154 28.3759 14.0345 28.3759 14.2104V15.0404C28.3759 15.3884 28.1885 15.465 27.9972 15.465C27.7791 15.465 27.7065 15.335 27.7065 15.113V14.2984C27.7065 14.176 27.7104 14.061 27.7217 13.9426H27.1709V13.9463H27.1711ZM29.1867 13.9423C29.2098 14.1069 29.2174 14.5123 29.2174 14.7571C29.2174 15.0326 29.2098 15.4228 29.1867 15.6563H29.7489C29.7337 15.4956 29.7374 15.2045 29.7222 14.9673C29.7528 14.9715 29.8561 14.9715 29.8943 14.9715C30.537 14.9715 30.8585 14.7993 30.8585 14.4473C30.8585 14.0495 30.407 13.9463 30.0398 13.9463H29.1867V13.9423ZM29.8754 14.1795C30.0704 14.1795 30.3267 14.2178 30.3267 14.4471C30.3267 14.6804 30.078 14.7304 29.8983 14.7304C29.8409 14.7304 29.753 14.7304 29.7339 14.7263C29.73 14.6654 29.7261 14.6002 29.7261 14.5197C29.7261 14.4089 29.7339 14.2943 29.7339 14.1834L29.8754 14.1795ZM31.0572 13.9423C31.08 14.1069 31.088 14.5123 31.088 14.7571C31.088 15.0326 31.0802 15.4228 31.0572 15.6563H31.6198C31.6043 15.4956 31.6078 15.2045 31.5928 14.9673C31.6235 14.9715 31.7267 14.9715 31.765 14.9715C32.4076 14.9715 32.7289 14.7993 32.7289 14.4473C32.7289 14.0495 32.2776 13.9463 31.9102 13.9463H31.0572V13.9423ZM31.7456 14.1795C31.9409 14.1795 32.1972 14.2178 32.1972 14.4471C32.1972 14.6804 31.9485 14.7304 31.7687 14.7304C31.7113 14.7304 31.6233 14.7304 31.6041 14.7263C31.6002 14.6654 31.5967 14.6002 31.5967 14.5197C31.5967 14.4089 31.6041 14.2943 31.6041 14.1834L31.7456 14.1795ZM35.6589 13.9423C35.6817 14.1643 35.6856 14.5239 35.6856 14.7571C35.6856 15.1128 35.678 15.4339 35.6548 15.6563H36.5883C36.9937 15.6563 37.4261 15.5376 37.4261 15.1815C37.4261 14.9789 37.2733 14.8221 37.0015 14.7226C37.208 14.6539 37.342 14.5084 37.342 14.3517C37.342 14.0571 36.9937 13.9423 36.6763 13.9423H35.6589ZM36.4163 14.1604C36.6611 14.1604 36.8143 14.2293 36.8143 14.3937C36.8143 14.5467 36.6537 14.6117 36.5311 14.6117H36.4276L36.3283 14.8719H36.4735C36.7106 14.8719 36.8904 14.9637 36.8904 15.1623C36.8904 15.3421 36.7526 15.4265 36.4583 15.4265H36.2096C36.1946 15.1815 36.1946 15.0669 36.1946 14.7571C36.1946 14.5047 36.1983 14.3937 36.2096 14.1719C36.2478 14.168 36.3322 14.1604 36.4163 14.1604ZM38.8489 13.9463V14.9408C38.8374 14.9026 38.8261 14.8795 38.7991 14.8373L38.2522 13.946H37.728C37.7398 14.141 37.7472 14.6002 37.7472 14.7608C37.7472 14.91 37.7433 15.3995 37.7165 15.6597H38.1793C38.1602 15.5145 38.1565 15.2202 38.1565 15.0132V14.47C38.1717 14.5543 38.2102 14.6269 38.2637 14.7032L38.9137 15.6595H39.3156C39.2928 15.4263 39.2887 14.9137 39.2887 14.7606C39.2887 14.5923 39.3004 14.1408 39.3156 13.9458H38.8489V13.9463ZM39.7098 13.9423C39.7326 14.1069 39.7402 14.5123 39.7402 14.7571C39.7402 15.0326 39.7328 15.4228 39.7098 15.6563H40.272C40.2567 15.4956 40.2604 15.2045 40.2491 14.9673C40.2759 14.9715 40.3828 14.9715 40.4213 14.9715C41.0678 14.9715 41.3854 14.7993 41.3854 14.4473C41.3854 14.0495 40.9376 13.9463 40.5628 13.9463H39.71V13.9423H39.7098ZM40.4022 14.1795C40.597 14.1795 40.8535 14.2178 40.8535 14.4471C40.8535 14.6804 40.6048 14.7304 40.4213 14.7304C40.3637 14.7304 40.2759 14.7304 40.253 14.7263C40.253 14.6654 40.2491 14.6002 40.2491 14.5197C40.2491 14.4089 40.253 14.2943 40.253 14.1834L40.4022 14.1795ZM42.3033 13.9423C42.3261 14.1069 42.33 14.5123 42.33 14.7571C42.33 15.0326 42.3222 15.4228 42.3033 15.6563H42.8652C42.8502 15.4956 42.8539 15.2045 42.8387 14.9673C42.8693 14.9715 42.9726 14.9715 43.0109 14.9715C43.6574 14.9715 43.9748 14.7993 43.9748 14.4473C43.9748 14.0495 43.5272 13.9463 43.1526 13.9463H42.3035L42.3033 13.9423ZM42.9956 14.1795C43.1904 14.1795 43.447 14.2178 43.447 14.4471C43.447 14.6804 43.1943 14.7304 43.0148 14.7304C42.9572 14.7304 42.8693 14.7304 42.8502 14.7263C42.8463 14.6654 42.8424 14.6002 42.8424 14.5197C42.8424 14.4089 42.8502 14.2943 42.8502 14.1834L42.9956 14.1795ZM44.5752 13.9463C44.4717 14.2178 43.9096 15.4456 43.8139 15.66H44.3037C44.3456 15.5415 44.3878 15.4304 44.4415 15.2891C44.5333 15.2852 44.6174 15.2813 44.732 15.2813C44.8506 15.2813 44.9385 15.2813 45.0263 15.2854C45.1107 15.5032 45.1528 15.595 45.1759 15.6602H45.738C45.608 15.3847 45.042 14.1491 44.977 13.9465H44.5752V13.9463ZM44.927 15.025C44.8504 15.0289 44.8085 15.0289 44.728 15.0289C44.6709 15.0289 44.5867 15.025 44.5215 15.025C44.5713 14.8795 44.6746 14.6578 44.7204 14.5084C44.7704 14.65 44.862 14.8565 44.927 15.025ZM45.9406 13.9463C45.9635 14.1223 45.9674 14.4702 45.9674 14.761C45.9674 15.1015 45.96 15.4076 45.933 15.66H46.503C46.4761 15.4 46.4761 14.9102 46.4761 14.761C46.4761 14.6463 46.4802 14.3939 46.4878 14.1837C46.5261 14.1795 46.6333 14.1795 46.6906 14.1795C46.8167 14.1795 47.0809 14.2445 47.0809 14.4739C47.0809 14.7113 46.8665 14.8258 46.6217 14.7913C46.8246 15.0937 47.0311 15.4532 47.142 15.6563H47.7539C47.6698 15.5682 47.2567 15.0287 47.2033 14.9369C47.4522 14.8373 47.6087 14.6845 47.6087 14.4739C47.6087 14.0763 47.1611 13.9423 46.7865 13.9423H45.9409L45.9406 13.9463ZM47.9872 13.9463C47.9987 14.1413 48.0061 14.6004 48.0061 14.765C48.0061 14.9102 48.0024 15.4 47.9756 15.66H48.5417C48.5187 15.4267 48.5187 14.9141 48.5187 14.765C48.5187 14.6004 48.5265 14.1415 48.5417 13.9463H47.9872ZM48.9128 13.9423C48.9356 14.1643 48.9396 14.5239 48.9396 14.7571C48.9396 15.1128 48.9317 15.4339 48.9087 15.6563H49.8383C50.2437 15.6563 50.6761 15.5376 50.6761 15.1815C50.6761 14.9789 50.523 14.8221 50.2515 14.7226C50.4543 14.6539 50.5917 14.5084 50.5917 14.3517C50.5917 14.0571 50.2437 13.9423 49.9261 13.9423H48.9128ZM49.6702 14.1604C49.9191 14.1604 50.068 14.2293 50.068 14.3937C50.068 14.5467 49.9076 14.6117 49.7848 14.6117H49.6817L49.5822 14.8719H49.7276C49.9648 14.8719 50.1485 14.9637 50.1485 15.1623C50.1485 15.3421 50.007 15.4265 49.7161 15.4265H49.4674C49.4524 15.1815 49.4524 15.0669 49.4524 14.7571C49.4524 14.5047 49.4561 14.3937 49.4674 14.1719C49.5059 14.168 49.5898 14.1604 49.6702 14.1604ZM51.5024 13.9463C51.403 14.2178 50.8367 15.4456 50.745 15.66H51.2346C51.2765 15.5415 51.3224 15.4304 51.3724 15.2891C51.4641 15.2852 51.5485 15.2813 51.6633 15.2813C51.7815 15.2813 51.8696 15.2813 51.9539 15.2854C52.038 15.5032 52.08 15.595 52.103 15.6602H52.6654C52.5352 15.3847 51.9693 14.1491 51.9043 13.9465H51.5024V13.9463ZM51.858 15.025C51.7813 15.0289 51.7396 15.0289 51.6633 15.0289C51.6057 15.0289 51.5178 15.025 51.4567 15.025C51.5063 14.8795 51.6098 14.6578 51.6557 14.5084C51.7013 14.65 51.793 14.8565 51.858 15.025ZM53.5487 13.9004C53.0974 13.9004 52.7915 14.0765 52.7915 14.3823C52.7915 14.9371 53.763 14.9063 53.763 15.2315C53.763 15.346 53.6637 15.4076 53.5298 15.4076C53.3654 15.4076 53.1741 15.3541 52.8146 15.1817V15.5987C52.9676 15.6565 53.1893 15.7023 53.4265 15.7023C53.9504 15.7023 54.2641 15.488 54.2641 15.1515C54.2641 14.635 53.2889 14.631 53.2889 14.3406C53.2889 14.2832 53.3041 14.2069 53.4954 14.2069C53.7402 14.2069 53.9239 14.2987 54.1113 14.4056V13.9695C53.9811 13.9308 53.7667 13.9004 53.5487 13.9004Z" fill="black"/>
</g>
<defs>
<clipPath id="clip0_1071_468236">
<rect width="60" height="20" fill="white"/>
</clipPath>
</defs>
</svg>
