<svg width="45" height="45" viewBox="0 0 45 45" fill="none" xmlns="http://www.w3.org/2000/svg">
<g clip-path="url(#clip0_2371_423300)">
<path d="M17.3684 11.6304C12.5984 11.6304 8.81836 15.5004 8.81836 20.1804C8.81836 24.9504 12.6884 28.7304 17.3684 28.7304C22.0484 28.7304 25.9184 24.8604 25.9184 20.1804C25.9184 15.5004 22.1384 11.6304 17.3684 11.6304ZM17.3684 27.7404C13.3184 27.7404 9.98836 24.4104 9.98836 20.3604C9.98836 16.3104 13.3184 12.9804 17.3684 12.9804C21.4184 12.9804 24.7484 16.3104 24.7484 20.3604C24.9284 24.3204 21.5084 27.7404 17.3684 27.7404Z" fill="#333333"/>
<path d="M17.3676 14.5103C15.3876 14.5103 13.7676 16.1303 13.7676 18.1103C13.7676 20.0903 15.3876 21.7103 17.3676 21.7103C19.3476 21.7103 20.9676 20.0903 20.9676 18.1103C20.7876 16.1303 19.2576 14.5103 17.3676 14.5103ZM17.3676 20.5403C16.0176 20.5403 14.9376 19.4603 14.9376 18.1103C14.9376 16.7603 16.0176 15.6803 17.3676 15.6803C18.7176 15.6803 19.7976 16.7603 19.7976 18.1103C19.7976 19.4603 18.6276 20.5403 17.3676 20.5403Z" fill="#333333"/>
<path d="M29.9675 21.7105L31.4975 23.4205L36.0875 18.5605H37.7075L31.4075 25.1305L28.4375 21.7105H29.9675Z" fill="#333333"/>
<path d="M23.1273 26.1205C22.3173 23.9605 20.6973 21.7104 17.3673 21.7104C14.3073 21.7104 12.2373 23.8705 11.6973 26.1205L12.7773 26.7505C12.7773 24.9505 14.6673 22.7004 17.4573 22.7004C20.5173 22.7004 22.1373 25.1304 22.1373 26.9304L23.1273 26.1205Z" fill="#333333"/>
<path d="M42.1166 33.5903V8.57033C42.1166 7.49033 41.2166 6.59033 40.1366 6.59033H5.03664C3.95664 6.59033 3.05664 7.49033 3.05664 8.57033V33.6803M4.22664 33.5903V9.56033C4.22664 8.66033 4.94664 7.94033 5.84664 7.94033H39.2366C40.2266 7.94033 40.9466 8.66033 40.9466 9.56033V33.8603" fill="#333333"/>
<path d="M42.6571 33.3203H2.24711C1.34711 33.3203 0.537109 34.1303 0.537109 35.7503C0.537109 36.9203 1.34711 37.8203 2.24711 37.8203H42.7471C43.6471 37.8203 44.4571 36.9203 44.4571 35.4803C44.5471 34.1303 43.5571 33.3203 42.6571 33.3203ZM42.2971 36.6503H2.78711C2.24711 36.6503 1.70711 36.2903 1.70711 35.6603C1.70711 34.8503 2.24711 34.5803 2.78711 34.5803H42.2971C42.8371 34.5803 43.2871 35.0303 43.2871 35.6603C43.2871 36.2903 42.8371 36.6503 42.2971 36.6503Z" fill="#333333"/>
<path d="M25.7371 35.6602H18.8071C18.4471 35.6602 17.9971 35.1202 17.9971 34.6702C17.9971 34.1302 18.3571 33.6802 18.8071 33.6802H25.6471C26.0071 33.6802 26.4571 34.2202 26.4571 34.6702C26.5471 35.3002 26.1871 35.6602 25.7371 35.6602Z" fill="#333333"/>
</g>
<defs>
<clipPath id="clip0_2371_423300">
<rect width="44.98" height="44.4102" fill="white" transform="translate(0.00976562)"/>
</clipPath>
</defs>
</svg>
