<svg width="55" height="34" viewBox="0 0 55 34" fill="none" xmlns="http://www.w3.org/2000/svg">
<g clip-path="url(#clip0_826_447774)">
<path d="M0.0917969 6.4333V27.5667C0.0917969 31.1197 2.97208 34 6.5251 34H47.8076C51.3606 34 54.2409 31.1197 54.2409 27.5667V6.4333C54.2409 2.88029 51.3606 0 47.8076 0H6.5251C2.97208 0 0.0917969 2.88029 0.0917969 6.4333Z" fill="#333B44"/>
<path d="M23.5256 16.9992C23.5245 15.5521 23.8516 14.1236 24.4823 12.8212C25.113 11.5187 26.0309 10.3763 27.1669 9.47991C25.7538 8.3615 24.0542 7.66389 22.2629 7.46705C20.4716 7.27021 18.6611 7.5821 17.0389 8.36698C15.4167 9.15185 14.0485 10.3779 13.0911 11.9047C12.1338 13.4314 11.626 15.1971 11.626 16.9992C11.626 18.8012 12.1338 20.5669 13.0911 22.0936C14.0485 23.6204 15.4167 24.8465 17.0389 25.6313C18.6611 26.4162 20.4716 26.7281 22.2629 26.5313C24.0542 26.3344 25.7538 25.6368 27.1669 24.5184C26.0309 23.622 25.113 22.4796 24.4823 21.1772C23.8516 19.8747 23.5245 18.4462 23.5256 16.9992Z" fill="#E20D17"/>
<path d="M27.1657 24.5199C29.1767 24.5199 30.8069 21.1535 30.8069 17.0007C30.8069 12.8479 29.1767 9.48145 27.1657 9.48145C25.1547 9.48145 23.5244 12.8479 23.5244 17.0007C23.5244 21.1535 25.1547 24.5199 27.1657 24.5199Z" fill="#EA610A"/>
<path d="M33.1142 7.4098C30.9542 7.40734 28.8572 8.13763 27.166 9.48133C28.3012 10.3785 29.2184 11.5211 29.849 12.8233C30.4797 14.1256 30.8073 15.5537 30.8073 17.0006C30.8073 18.4475 30.4797 19.8756 29.849 21.1778C29.2184 22.4801 28.3012 23.6226 27.166 24.5198C28.366 25.4676 29.7754 26.1146 31.2763 26.4069C32.7773 26.6991 34.3264 26.6281 35.7944 26.1998C37.2623 25.7715 38.6066 24.9983 39.7149 23.9448C40.8232 22.8912 41.6634 21.5879 42.1655 20.1435C42.6676 18.6991 42.8169 17.1555 42.601 15.6417C42.3851 14.1278 41.8102 12.6876 40.9244 11.4411C40.0386 10.1947 38.8675 9.17816 37.5089 8.47642C36.1502 7.77469 34.6434 7.40809 33.1142 7.40723V7.4098Z" fill="#F59E00"/>
</g>
<defs>
<clipPath id="clip0_826_447774">
<rect width="54.1491" height="34" fill="white" transform="translate(0.0917969)"/>
</clipPath>
</defs>
</svg>
