<svg width="42" height="20" viewBox="0 0 42 20" fill="none" xmlns="http://www.w3.org/2000/svg">
<g clip-path="url(#clip0_1353_440796)">
<path d="M6.85718 9.68261V9.57507H5.33076C4.61246 9.57507 4.07972 9.6468 3.73254 9.79025C3.39733 9.9218 3.22972 10.2146 3.22972 10.6689C3.22972 11.3503 3.7086 11.691 4.66633 11.691C5.46842 11.691 6.03112 11.5236 6.35433 11.1889C6.68956 10.8422 6.85718 10.3402 6.85718 9.68261ZM4.07373 13.6635C2.94839 13.6635 2.11635 13.3885 1.57762 12.8386C1.03889 12.2768 0.769531 11.5535 0.769531 10.6689C0.769531 9.60498 1.11671 8.8399 1.81107 8.37365C2.50543 7.89546 3.56493 7.65639 4.98958 7.65639H6.85718V7.2619C6.85718 6.37723 6.29448 5.93491 5.16913 5.93491C4.16352 5.93491 3.60684 6.31746 3.49909 7.08255H0.985021C1.06882 6.16204 1.45192 5.39101 2.13431 4.76937C2.8167 4.14773 3.84627 3.83691 5.223 3.83691C6.58779 3.83691 7.61739 4.14175 8.31172 4.75143C9.00609 5.36112 9.35327 6.22186 9.35327 7.33361V13.4483H7.09063V12.4083C6.5519 13.2452 5.54627 13.6635 4.07373 13.6635Z" fill="#00425D"/>
<path d="M15.0845 11.2611V13.4309C14.8331 13.4667 14.5698 13.4846 14.2944 13.4846C13.3008 13.4846 12.5944 13.2755 12.1754 12.8571C11.7564 12.4267 11.5469 11.7393 11.5469 10.7949V0H14.0969V10.6156C14.0969 10.8427 14.1388 11.0101 14.2226 11.1177C14.3064 11.2253 14.48 11.2791 14.7433 11.2791C14.8032 11.2791 14.8691 11.2791 14.9409 11.2791C15.0247 11.2671 15.0726 11.2611 15.0845 11.2611Z" fill="#00425D"/>
<path d="M25.1627 8.1047V13.4483H22.6127V7.87157C22.6127 6.64023 22.1099 6.02457 21.1043 6.02457C20.5177 6.02457 20.0627 6.20392 19.7396 6.56253C19.4283 6.92119 19.2727 7.41727 19.2727 8.05088V13.4483H16.7227V4.0521H19.0751V5.19971C19.5659 4.29119 20.4697 3.83691 21.7867 3.83691C23.0317 3.83691 23.9417 4.27923 24.5162 5.16389C25.3184 4.27923 26.3598 3.83691 27.6408 3.83691C28.7423 3.83691 29.5863 4.17762 30.1729 4.85905C30.7595 5.54043 31.0528 6.44899 31.0528 7.58468V13.4483H28.5028V7.87157C28.5028 6.64023 28 6.02457 26.9944 6.02457C26.3958 6.02457 25.9408 6.20987 25.6297 6.58047C25.3184 6.93912 25.1627 7.44715 25.1627 8.1047Z" fill="#00425D"/>
<path d="M38.8962 9.68261V9.57507H37.3698C36.6515 9.57507 36.1188 9.6468 35.7716 9.79025C35.4363 9.9218 35.2688 10.2146 35.2688 10.6689C35.2688 11.3503 35.7477 11.691 36.7054 11.691C37.5075 11.691 38.0701 11.5236 38.3934 11.1889C38.7286 10.8422 38.8962 10.3402 38.8962 9.68261ZM36.1128 13.6635C34.9874 13.6635 34.1554 13.3885 33.6167 12.8386C33.078 12.2768 32.8086 11.5535 32.8086 10.6689C32.8086 9.60498 33.1558 8.8399 33.8501 8.37365C34.5445 7.89546 35.604 7.65639 37.0286 7.65639H38.8962V7.2619C38.8962 6.37723 38.3335 5.93491 37.2082 5.93491C36.2026 5.93491 35.6459 6.31746 35.5381 7.08255H33.024C33.1079 6.16204 33.491 5.39101 34.1733 4.76937C34.8558 4.14773 35.8853 3.83691 37.262 3.83691C38.6269 3.83691 39.6564 4.14175 40.3508 4.75143C41.0451 5.36112 41.3923 6.22186 41.3923 7.33361V13.4483H39.1297V12.4083C38.591 13.2452 37.5853 13.6635 36.1128 13.6635Z" fill="#00425D"/>
<path d="M41.9998 16.8779H0.181641V19.8484H41.9998V16.8779Z" fill="#FF414D"/>
</g>
<defs>
<clipPath id="clip0_1353_440796">
<rect width="41.8182" height="20" fill="white" transform="translate(0.181641)"/>
</clipPath>
</defs>
</svg>
