<svg width="45" height="45" viewBox="0 0 45 45" fill="none" xmlns="http://www.w3.org/2000/svg">
<g clip-path="url(#clip0_2371_423321)">
<path d="M13.5884 23.1052C13.5884 23.1052 13.4084 21.5752 15.0284 20.8552L20.5184 17.8852C20.5184 17.8852 23.0384 16.9852 23.7584 19.5952C23.7584 19.5952 23.5784 20.9452 24.1184 21.0352C24.1184 21.0352 24.2984 20.9452 24.9284 20.6752L29.0684 18.4252C29.0684 18.4252 29.9684 17.6152 29.0684 17.3452L24.6584 14.8252C24.6584 14.8252 23.6684 14.6452 23.7584 15.3652V16.0852C23.7584 16.0852 23.7584 16.5352 23.1284 16.4452L21.7784 15.7252C21.7784 15.7252 21.5984 15.4552 21.5984 14.4652C21.5984 14.4652 21.5984 12.6652 23.8484 12.5752C23.8484 12.5752 24.6584 12.5752 25.6484 13.2052L30.7784 16.1752C30.7784 16.1752 31.7684 16.8952 31.7684 18.0652C31.7684 18.0652 31.6784 19.3252 30.7784 19.8652L25.1084 22.9252C25.1084 22.9252 23.4884 23.7352 22.3184 22.5652C22.3184 22.5652 21.5084 21.8452 21.5984 20.5852C21.5984 20.5852 21.5984 19.6852 20.6084 20.1352C19.7084 20.5852 16.1084 22.6552 16.1084 22.6552C16.1084 22.6552 15.4784 23.1052 16.1984 23.3752L20.7884 26.1652C20.7884 26.1652 21.7784 26.2552 21.5984 25.6252V24.9052C21.5984 24.9052 21.3284 24.2752 22.3184 24.5452L23.2184 25.0852C23.2184 25.0852 23.9384 25.3552 23.6684 26.2552C23.6684 26.2552 23.6684 28.4152 21.3284 28.5052C21.3284 28.5052 20.6084 28.6852 19.3484 27.6952L14.3084 24.9952C14.3984 24.9952 13.4984 24.4552 13.5884 23.1052Z" fill="#333333"/>
<path d="M42.1171 33.6353V8.61525C42.1171 7.53525 41.2171 6.63525 40.1371 6.63525H5.03713C3.95713 6.63525 3.05713 7.53525 3.05713 8.61525V33.7253M4.22713 33.6353V9.60525C4.22713 8.70525 4.94713 7.98525 5.84713 7.98525H39.2371C40.2271 7.98525 40.9471 8.70525 40.9471 9.60525V33.9053" fill="#333333"/>
<path d="M42.6571 33.2754H2.24711C1.34711 33.2754 0.537109 34.0854 0.537109 35.7054C0.537109 36.8754 1.34711 37.7754 2.24711 37.7754H42.7471C43.6471 37.7754 44.4571 36.8754 44.4571 35.4354C44.5471 34.1754 43.5571 33.2754 42.6571 33.2754ZM42.2971 36.6054H2.78711C2.24711 36.6054 1.70711 36.2454 1.70711 35.6154C1.70711 34.8054 2.24711 34.5354 2.78711 34.5354H42.2971C42.8371 34.5354 43.2871 34.9854 43.2871 35.6154C43.2871 36.2454 42.8371 36.6054 42.2971 36.6054Z" fill="#333333"/>
<path d="M25.7371 35.6153H18.8071C18.4471 35.6153 17.9971 35.0753 17.9971 34.6253C17.9971 34.0853 18.3571 33.6353 18.8071 33.6353H25.6471C26.0071 33.6353 26.4571 34.1753 26.4571 34.6253C26.5471 35.2553 26.1871 35.6153 25.7371 35.6153Z" fill="#333333"/>
</g>
<defs>
<clipPath id="clip0_2371_423321">
<rect width="44.98" height="44.4102" fill="white" transform="translate(0.00976562)"/>
</clipPath>
</defs>
</svg>
