<svg width="71" height="16" viewBox="0 0 71 16" fill="none" xmlns="http://www.w3.org/2000/svg">
<path d="M9.53515 4.68595L8.01779 7.70734C7.68641 8.36774 7.36375 8.99412 7.11376 9.67436H7.09341C7.05272 8.99412 7.0033 8.37624 6.93354 7.70734L6.77657 6.12579L6.63413 4.68879H6.46844H5.11095V4.66895L3.1314 4.68879H3.07617V4.91553H3.17791C4.8319 4.97222 5.25339 5.94439 5.36094 6.42339L5.16328 4.91553L5.36966 6.46307C5.36676 6.4489 5.36385 6.4319 5.36094 6.41772L5.39873 6.69832C5.39873 6.69832 5.39873 6.69265 5.39873 6.66714L5.9801 11.0405H7.65734L11.1543 4.69162H9.53515V4.68595Z" fill="#005596"/>
<path d="M13.417 4.6543L12.1292 11.006H10.6816L11.9694 4.6543H13.417Z" fill="#005596"/>
<path d="M13.514 9.53734C13.9151 9.76408 14.4878 9.94264 15.1128 9.94264C15.6767 9.94264 16.1883 9.69889 16.1883 9.19722C16.1883 8.84009 15.8976 8.60484 15.2726 8.30157C14.5488 7.93311 13.8657 7.44277 13.8657 6.61515C13.8657 5.33403 15.0604 4.55176 16.54 4.55176C17.3656 4.55176 17.8452 4.72182 18.1388 4.87204L17.4935 6.00293C17.2725 5.88956 17.101 5.66281 16.4208 5.67415C15.7465 5.68265 15.3947 6.04261 15.3947 6.39123C15.3947 6.7597 15.8075 6.98361 16.3801 7.28688C17.2057 7.69219 17.726 8.21087 17.726 8.9648C17.726 10.3791 16.479 11.1047 14.9732 11.1047C14.0285 11.1047 13.2582 10.7363 12.9355 10.5123L13.514 9.53734Z" fill="#005596"/>
<path d="M19.8175 9.35644L19.0123 11.006H17.4746L20.771 4.6543H22.6313L23.4249 11.006H21.9075L21.768 9.35644H19.8175ZM21.707 8.32191L21.5761 6.95577C21.5471 6.60715 21.5064 6.09697 21.4744 5.7115H21.4541C21.2826 6.09697 21.0936 6.58731 20.9105 6.95577L20.2361 8.32191H21.707Z" fill="#005596"/>
<path d="M25.7527 3.98338H0.753906V1.10938C0.753906 0.772095 1.03296 0.5 1.37888 0.5H25.1277C25.4736 0.5 25.7527 0.772095 25.7527 1.10938V3.98338Z" fill="#005596"/>
<path d="M25.1277 15.501H1.37888C1.03296 15.501 0.753906 15.2289 0.753906 14.8916V12.0176H25.7527V14.8916C25.7527 15.2289 25.4736 15.501 25.1277 15.501Z" fill="#F2A713"/>
<g clip-path="url(#clip0_1353_440806)">
<path d="M47.0583 15.2947V15.3333H47.0943C47.101 15.3334 47.1077 15.3317 47.1135 15.3283C47.1159 15.3267 47.1178 15.3245 47.119 15.3219C47.1203 15.3193 47.1209 15.3165 47.1208 15.3136C47.1209 15.3108 47.1203 15.308 47.119 15.3055C47.1178 15.303 47.1159 15.3008 47.1135 15.2992C47.1077 15.2957 47.101 15.294 47.0943 15.2943H47.0583V15.2947ZM47.0946 15.2674C47.1101 15.2665 47.1253 15.2709 47.1378 15.28C47.1428 15.2841 47.1468 15.2893 47.1495 15.2952C47.1521 15.3011 47.1533 15.3076 47.153 15.3141C47.1532 15.3197 47.1522 15.3252 47.1501 15.3304C47.148 15.3356 47.1449 15.3402 47.1408 15.3441C47.1312 15.3525 47.1191 15.3575 47.1063 15.3584L47.1545 15.4134H47.1174L47.0731 15.3588H47.0587V15.4134H47.0277V15.2675H47.0951L47.0946 15.2674ZM47.085 15.4637C47.1013 15.4638 47.1174 15.4606 47.1323 15.454C47.1467 15.4479 47.1598 15.439 47.1709 15.4279C47.182 15.4169 47.1909 15.4038 47.197 15.3894C47.2097 15.3588 47.2097 15.3245 47.197 15.2939C47.1908 15.2796 47.1819 15.2665 47.1709 15.2554C47.1598 15.2443 47.1467 15.2355 47.1323 15.2293C47.1173 15.2231 47.1012 15.22 47.085 15.2202C47.0685 15.22 47.0521 15.2231 47.0368 15.2293C47.0221 15.2353 47.0087 15.2442 46.9974 15.2554C46.9803 15.2729 46.9688 15.295 46.9642 15.319C46.9597 15.343 46.9622 15.3678 46.9717 15.3903C46.9775 15.4048 46.9863 15.4179 46.9974 15.4289C47.0087 15.4401 47.0221 15.4489 47.0368 15.455C47.052 15.4615 47.0685 15.4648 47.085 15.4646M47.085 15.1851C47.1274 15.1851 47.1681 15.2017 47.1983 15.2314C47.2128 15.2456 47.2244 15.2626 47.2324 15.2814C47.2406 15.3007 47.2449 15.3214 47.2449 15.3424C47.2449 15.3633 47.2406 15.3841 47.2324 15.4033C47.2242 15.422 47.2127 15.439 47.1983 15.4534C47.1835 15.4675 47.1663 15.479 47.1475 15.4871C47.1277 15.4955 47.1065 15.4998 47.085 15.4996C47.0633 15.4998 47.0418 15.4955 47.0218 15.4871C47.0028 15.4792 46.9854 15.4677 46.9706 15.4534C46.9562 15.4384 46.9448 15.4209 46.937 15.4017C46.9287 15.3824 46.9245 15.3617 46.9245 15.3407C46.9245 15.3198 46.9287 15.299 46.937 15.2798C46.9449 15.261 46.9565 15.244 46.9711 15.2297C46.9857 15.2151 47.0031 15.2037 47.0223 15.196C47.0423 15.1876 47.0638 15.1833 47.0855 15.1835M32.3256 14.6219C32.3256 14.3438 32.5078 14.1154 32.8055 14.1154C33.0901 14.1154 33.2821 14.334 33.2821 14.6219C33.2821 14.9098 33.0901 15.1284 32.8055 15.1284C32.5078 15.1284 32.3256 14.9 32.3256 14.6219ZM33.6065 14.6219V13.8305H33.2624V14.0233C33.1533 13.8808 32.9878 13.7915 32.7627 13.7915C32.3193 13.7915 31.9714 14.1393 31.9714 14.6223C31.9714 15.1053 32.3192 15.4531 32.7627 15.4531C32.9877 15.4531 33.1533 15.3636 33.2624 15.2213V15.4134H33.6061V14.6219H33.6065ZM45.2304 14.6219C45.2304 14.3438 45.4126 14.1154 45.7105 14.1154C45.9953 14.1154 46.187 14.334 46.187 14.6219C46.187 14.9098 45.9953 15.1284 45.7105 15.1284C45.4127 15.1284 45.2304 14.9 45.2304 14.6219ZM46.5117 14.6219V13.1953H46.1674V14.0233C46.0583 13.8808 45.8927 13.7915 45.6677 13.7915C45.2243 13.7915 44.8763 14.1393 44.8763 14.6223C44.8763 15.1053 45.2241 15.4531 45.6677 15.4531C45.8927 15.4531 46.0583 15.3636 46.1674 15.2213V15.4134H46.5117V14.6219ZM37.8762 14.0991C38.0979 14.0991 38.2403 14.2381 38.2766 14.4828H37.4557C37.4925 14.2544 37.6312 14.0991 37.8763 14.0991M37.8831 13.7906C37.4195 13.7906 37.0951 14.128 37.0951 14.6214C37.0951 15.1245 37.4325 15.4522 37.9062 15.4522C38.1445 15.4522 38.3627 15.3927 38.5547 15.2305L38.3861 14.9756C38.2535 15.0816 38.0846 15.1411 37.9258 15.1411C37.7041 15.1411 37.5023 15.0384 37.4527 14.7536H38.6274C38.6307 14.7108 38.6342 14.6676 38.6342 14.6213C38.6307 14.1281 38.3258 13.7905 37.8829 13.7905M42.0364 14.6213C42.0364 14.3432 42.2186 14.1148 42.5164 14.1148C42.8009 14.1148 42.9929 14.3334 42.9929 14.6213C42.9929 14.9092 42.8009 15.1279 42.5164 15.1279C42.2186 15.1279 42.0363 14.8994 42.0363 14.6213M43.3172 14.6213V13.8305H42.9734V14.0233C42.8639 13.8808 42.6987 13.7915 42.4737 13.7915C42.0303 13.7915 41.6823 14.1393 41.6823 14.6223C41.6823 15.1053 42.0301 15.4531 42.4737 15.4531C42.6987 15.4531 42.8639 15.3636 42.9734 15.2213V15.4134H43.3173V14.6219L43.3172 14.6213ZM40.0937 14.6213C40.0937 15.1013 40.4278 15.4521 40.9377 15.4521C41.1759 15.4521 41.3347 15.3991 41.5064 15.2635L41.3412 14.9854C41.212 15.0782 41.0764 15.1279 40.9267 15.1279C40.6521 15.1245 40.4501 14.9259 40.4501 14.6213C40.4501 14.3167 40.6521 14.1183 40.9267 14.1148C41.076 14.1148 41.2116 14.1644 41.3412 14.2573L41.5064 13.9792C41.3344 13.8435 41.1757 13.7905 40.9377 13.7905C40.4278 13.7905 40.0937 14.1413 40.0937 14.6213ZM44.5286 13.7905C44.3302 13.7905 44.2009 13.8834 44.1115 14.0223V13.8305H43.7706V15.4125H44.115V14.5257C44.115 14.2639 44.2275 14.1184 44.4524 14.1184C44.526 14.1174 44.5991 14.1309 44.6675 14.1583L44.7736 13.834C44.6974 13.804 44.5981 13.7908 44.5284 13.7908M35.3073 13.9563C35.1418 13.8472 34.9137 13.7908 34.6621 13.7908C34.2613 13.7908 34.0033 13.9829 34.0033 14.2973C34.0033 14.5552 34.1954 14.7143 34.5492 14.764L34.7117 14.7871C34.9003 14.8136 34.9894 14.8633 34.9894 14.9526C34.9894 15.0749 34.8641 15.1447 34.6288 15.1447C34.3905 15.1447 34.2185 15.0686 34.1026 14.9792L33.9409 15.2475C34.1296 15.3865 34.3678 15.4528 34.6259 15.4528C35.0828 15.4528 35.3476 15.2376 35.3476 14.9364C35.3476 14.6583 35.1392 14.5129 34.7949 14.4632L34.6327 14.4397C34.4838 14.4204 34.3645 14.3905 34.3645 14.2844C34.3645 14.1688 34.477 14.0992 34.6657 14.0992C34.8676 14.0992 35.0631 14.1753 35.1589 14.2348L35.3079 13.9567L35.3073 13.9563ZM39.7462 13.7911C39.5477 13.7911 39.4185 13.8839 39.3295 14.0229V13.8305H38.9885V15.4125H39.3326V14.5257C39.3326 14.2639 39.4451 14.1184 39.6699 14.1184C39.7436 14.1174 39.8167 14.1309 39.8851 14.1583L39.9911 13.834C39.915 13.804 39.8157 13.7908 39.746 13.7908M36.8105 13.8305H36.248V13.3506H35.9002V13.8305H35.5793V14.145H35.9002V14.8666C35.9002 15.2337 36.0426 15.4523 36.4496 15.4523C36.5989 15.4523 36.7709 15.406 36.88 15.33L36.7806 15.0354C36.678 15.0949 36.5655 15.1249 36.476 15.1249C36.3041 15.1249 36.248 15.0188 36.248 14.8601V14.1452H36.8105V13.8305ZM31.6672 15.4129V14.4201C31.6672 14.0462 31.4289 13.7946 31.0448 13.7912C30.8428 13.7878 30.6345 13.8507 30.4887 14.0727C30.3796 13.8972 30.2076 13.7912 29.9659 13.7912C29.7969 13.7912 29.6318 13.8408 29.5025 14.0261V13.8305H29.1582V15.4125H29.5052V14.5353C29.5052 14.2607 29.6575 14.1148 29.8927 14.1148C30.1211 14.1148 30.2367 14.2637 30.2367 14.5319V15.4123H30.5845V14.5351C30.5845 14.2605 30.7433 14.1146 30.9716 14.1146C31.2065 14.1146 31.3186 14.2635 31.3186 14.5317V15.4121L31.6672 15.4129Z" fill="#231F20"/>
<path d="M47.2541 10.1513V9.91992H47.1938L47.1241 10.0787L47.0548 9.91992H46.9944V10.1513H47.0372V9.97699L47.1023 10.1274H47.1467L47.2118 9.9766V10.1513H47.2542H47.2541ZM46.8719 10.1513V9.95954H46.949V9.9205H46.752V9.95954H46.8291V10.1513H46.8715H46.8719Z" fill="#F79410"/>
<path d="M40.4068 11.1426H35.1934V1.77344H40.4069L40.4068 11.1426Z" fill="#FF5F00"/>
<path d="M35.5244 6.45861C35.5244 4.55807 36.4143 2.86506 37.8 1.77401C36.7511 0.946921 35.4538 0.498033 34.118 0.500006C30.8275 0.500006 28.1602 3.16772 28.1602 6.45861C28.1602 9.7495 30.8275 12.4172 34.118 12.4172C35.4538 12.4192 36.7512 11.9703 37.8001 11.1432C36.4145 10.0524 35.5244 8.35925 35.5244 6.45861Z" fill="#EB001B"/>
<path d="M47.4393 6.45861C47.4393 9.7495 44.7719 12.4172 41.4814 12.4172C40.1455 12.4192 38.848 11.9703 37.7988 11.1432C39.1849 10.0522 40.0748 8.35925 40.0748 6.45861C40.0748 4.55797 39.1849 2.86506 37.7988 1.77401C38.8479 0.946946 40.1454 0.498067 41.4814 0.500006C44.7719 0.500006 47.4392 3.16772 47.4392 6.45861" fill="#F79E1B"/>
</g>
<g clip-path="url(#clip1_1353_440806)">
<path d="M57.0578 15.3731V14.3855C57.0636 14.3025 57.0516 14.2191 57.0226 14.1411C56.9937 14.063 56.9484 13.992 56.8898 13.9328C56.8313 13.8736 56.7608 13.8276 56.683 13.7978C56.6052 13.768 56.522 13.7552 56.4389 13.7601C56.3301 13.753 56.2214 13.7752 56.1242 13.8244C56.0269 13.8737 55.9446 13.9481 55.8859 14.0399C55.8324 13.9508 55.7558 13.8778 55.6643 13.8285C55.5727 13.7793 55.4696 13.7556 55.3657 13.7601C55.2752 13.7555 55.1851 13.7747 55.1042 13.8157C55.0234 13.8567 54.9547 13.9181 54.9049 13.9938V13.7996H54.5625V15.3731H54.9082V14.5008C54.9007 14.4469 54.9052 14.3921 54.9214 14.3403C54.9377 14.2884 54.9652 14.2408 55.002 14.2008C55.0388 14.1608 55.0841 14.1295 55.1344 14.1091C55.1848 14.0887 55.2391 14.0797 55.2933 14.0827C55.5205 14.0827 55.6357 14.2308 55.6357 14.4975V15.3731H55.9814V14.5008C55.9744 14.447 55.9794 14.3925 55.9958 14.3408C56.0122 14.2892 56.0398 14.2418 56.0765 14.202C56.1132 14.1621 56.1582 14.1308 56.2083 14.1102C56.2584 14.0896 56.3124 14.0802 56.3665 14.0827C56.6002 14.0827 56.7121 14.2308 56.7121 14.4975V15.3731H57.0578ZM58.9869 14.5863V13.7996H58.6445V13.9905C58.5861 13.9152 58.5104 13.855 58.424 13.8149C58.3375 13.7748 58.2427 13.756 58.1474 13.7601C57.9353 13.7705 57.7353 13.8621 57.5888 14.0159C57.4424 14.1697 57.3607 14.374 57.3607 14.5864C57.3607 14.7988 57.4424 15.003 57.5888 15.1568C57.7353 15.3107 57.9353 15.4022 58.1474 15.4127C58.2427 15.4167 58.3375 15.3979 58.424 15.3578C58.5104 15.3177 58.5861 15.2575 58.6445 15.1822V15.3731H58.9869V14.5863ZM57.7129 14.5863C57.7182 14.4935 57.7506 14.4042 57.806 14.3295C57.8615 14.2549 57.9376 14.1981 58.0249 14.1661C58.1122 14.1342 58.207 14.1285 58.2976 14.1497C58.3881 14.171 58.4704 14.2183 58.5344 14.2858C58.5984 14.3533 58.6412 14.4381 58.6576 14.5296C58.674 14.6212 58.6632 14.7155 58.6266 14.801C58.59 14.8865 58.5292 14.9595 58.4516 15.0108C58.3741 15.0622 58.2832 15.0897 58.1902 15.09C58.125 15.0909 58.0604 15.0783 58.0003 15.0529C57.9403 15.0276 57.8861 14.99 57.8412 14.9427C57.7964 14.8954 57.7619 14.8393 57.7398 14.778C57.7177 14.7166 57.7085 14.6514 57.7129 14.5863ZM66.3126 13.7582C66.4282 13.7571 66.5429 13.7786 66.6503 13.8215C66.7504 13.8614 66.8416 13.9206 66.9189 13.9957C66.995 14.0703 67.0553 14.1594 67.0964 14.2577C67.1819 14.4685 67.1819 14.7042 67.0964 14.915C67.0553 15.0133 66.995 15.1024 66.9189 15.1771C66.8416 15.2521 66.7504 15.3113 66.6503 15.3512C66.4331 15.4356 66.1921 15.4356 65.9749 15.3512C65.875 15.3114 65.784 15.2522 65.7071 15.1771C65.6315 15.1022 65.5714 15.0131 65.5305 14.915C65.4451 14.7042 65.4451 14.4685 65.5305 14.2577C65.5715 14.1596 65.6315 14.0705 65.7071 13.9957C65.784 13.9205 65.875 13.8613 65.9749 13.8215C66.0823 13.7786 66.197 13.7571 66.3126 13.7582ZM66.3126 14.0819C66.2457 14.0813 66.1792 14.0939 66.1171 14.1189C66.0586 14.1424 66.0054 14.1776 65.961 14.2224C65.9163 14.2681 65.8811 14.3223 65.8575 14.3818C65.8071 14.5135 65.8071 14.6592 65.8575 14.7909C65.8811 14.8504 65.9163 14.9046 65.961 14.9503C66.0054 14.9951 66.0586 15.0304 66.1171 15.0538C66.2428 15.1031 66.3824 15.1031 66.5081 15.0538C66.5668 15.0302 66.6202 14.995 66.665 14.9503C66.7102 14.9048 66.7457 14.8505 66.7694 14.7909C66.8198 14.6592 66.8198 14.5135 66.7694 14.3818C66.7457 14.3222 66.7102 14.268 66.665 14.2224C66.6202 14.1777 66.5668 14.1425 66.5081 14.1189C66.446 14.0939 66.3796 14.0813 66.3126 14.0819ZM60.8498 14.5863C60.8465 14.0959 60.5437 13.7601 60.1026 13.7601C59.889 13.7713 59.6881 13.8647 59.542 14.0209C59.396 14.177 59.316 14.3836 59.319 14.5974C59.322 14.8112 59.4076 15.0156 59.558 15.1676C59.7084 15.3196 59.9118 15.4074 60.1256 15.4126C60.3605 15.4209 60.5901 15.3424 60.7708 15.1921L60.6029 14.9386C60.4729 15.0428 60.3119 15.1007 60.1454 15.1032C60.0322 15.1127 59.9198 15.0778 59.832 15.0059C59.7441 14.934 59.6877 14.8308 59.6746 14.718H60.8432C60.8465 14.6752 60.8498 14.6325 60.8498 14.5863ZM59.6779 14.4481C59.6839 14.3425 59.731 14.2434 59.8091 14.172C59.8873 14.1006 59.9902 14.0627 60.096 14.0662C60.1994 14.0642 60.2994 14.1033 60.374 14.1749C60.4487 14.2464 60.4919 14.3447 60.4943 14.4481H59.6779ZM62.2916 14.2012C62.1422 14.1153 61.9734 14.0688 61.8011 14.0662C61.6135 14.0662 61.5016 14.1354 61.5016 14.2506C61.5016 14.3559 61.6201 14.3855 61.7682 14.4053L61.9295 14.4283C62.2719 14.4777 62.4793 14.6226 62.4793 14.8991C62.4793 15.1987 62.2159 15.4127 61.7616 15.4127C61.5185 15.4194 61.2796 15.3478 61.0802 15.2085L61.2415 14.9419C61.3926 15.0539 61.5769 15.1119 61.7649 15.1065C61.9986 15.1065 62.1237 15.0374 62.1237 14.9155C62.1237 14.8267 62.0348 14.7773 61.8472 14.751L61.6859 14.7279C61.3337 14.6785 61.1428 14.5205 61.1428 14.2637C61.1428 13.951 61.3995 13.7601 61.7978 13.7601C62.0232 13.7523 62.246 13.8094 62.4398 13.9247L62.2916 14.2012ZM63.9367 14.1123H63.3771V14.8234C63.3771 14.9814 63.433 15.0867 63.6042 15.0867C63.7111 15.0832 63.8153 15.0526 63.9071 14.9979L64.0058 15.2909C63.8775 15.3709 63.7291 15.4131 63.5779 15.4127C63.173 15.4127 63.0314 15.1954 63.0314 14.8299V14.1123H62.7121V13.7996H63.0314L63.0313 13.3223H63.377L63.3771 13.7996H63.9367V14.1123ZM65.1215 13.7601C65.2046 13.7604 65.287 13.7749 65.3652 13.8029L65.2598 14.1255C65.1918 14.0984 65.1191 14.085 65.0458 14.086C64.822 14.086 64.71 14.2308 64.71 14.4909V15.3731H64.3677V13.7996H64.7068V13.9905C64.7488 13.9183 64.8095 13.8588 64.8825 13.8183C64.9555 13.7777 65.0381 13.7576 65.1215 13.7601ZM67.4917 15.1441C67.513 15.1439 67.5341 15.1481 67.5537 15.1564C67.5726 15.1642 67.5898 15.1756 67.6044 15.1899C67.6189 15.2042 67.6305 15.2212 67.6385 15.2399C67.6468 15.259 67.651 15.2797 67.651 15.3006C67.651 15.3215 67.6468 15.3422 67.6385 15.3613C67.6304 15.3799 67.6188 15.3968 67.6044 15.411C67.5898 15.4254 67.5726 15.4368 67.5537 15.4448C67.5341 15.4532 67.513 15.4574 67.4917 15.4573C67.4604 15.4576 67.4296 15.4487 67.4033 15.4316C67.377 15.4146 67.3563 15.3901 67.3438 15.3613C67.3355 15.3421 67.3313 15.3215 67.3313 15.3006C67.3313 15.2797 67.3355 15.2591 67.3438 15.2399C67.3518 15.2212 67.3633 15.2043 67.3778 15.1899C67.3923 15.1755 67.4096 15.1641 67.4286 15.1564C67.4486 15.1481 67.4701 15.1439 67.4917 15.1441ZM67.4917 15.4227C67.508 15.4229 67.5241 15.4196 67.539 15.4131C67.5533 15.4069 67.5663 15.3981 67.5773 15.3871C67.5915 15.373 67.6019 15.3556 67.6078 15.3365C67.6137 15.3174 67.6147 15.2972 67.611 15.2775C67.6072 15.2579 67.5986 15.2395 67.5861 15.224C67.5735 15.2085 67.5573 15.1963 67.539 15.1884C67.524 15.1821 67.508 15.1789 67.4917 15.179C67.4752 15.1789 67.4588 15.1821 67.4436 15.1884C67.429 15.1944 67.4158 15.2032 67.4046 15.2143C67.3818 15.2373 67.3691 15.2683 67.3691 15.3007C67.3691 15.333 67.3818 15.3641 67.4046 15.3871C67.4161 15.3984 67.4297 15.4075 67.4446 15.4136C67.4596 15.4197 67.4756 15.4228 67.4917 15.4227ZM67.5009 15.2273C67.5164 15.2263 67.5316 15.2308 67.5441 15.2399C67.5491 15.244 67.5531 15.2492 67.5557 15.2551C67.5583 15.2609 67.5596 15.2674 67.5593 15.2738C67.5595 15.2793 67.5585 15.2848 67.5564 15.29C67.5543 15.2951 67.5512 15.2997 67.5472 15.3035C67.5377 15.312 67.5256 15.3171 67.5128 15.3179L67.5604 15.3728H67.5232L67.4791 15.3183H67.4649V15.3728H67.4338V15.2273H67.5009ZM67.4649 15.2546V15.2934H67.5006C67.5074 15.2937 67.5142 15.2921 67.5202 15.2886C67.5226 15.287 67.5245 15.2848 67.5258 15.2822C67.5271 15.2796 67.5276 15.2767 67.5274 15.2738C67.5276 15.271 67.527 15.2682 67.5257 15.2656C67.5244 15.2631 67.5225 15.2609 67.5202 15.2594C67.5142 15.2559 67.5074 15.2543 67.5006 15.2546H67.4649Z" fill="black"/>
<path d="M63.4501 1.78906H58.2578V11.1198H63.4501V1.78906Z" fill="#7375CF"/>
<path d="M58.5866 6.4536C58.5858 5.55498 58.7895 4.66796 59.1821 3.85968C59.5748 3.05139 60.1462 2.34304 60.8531 1.78824C59.9777 1.10015 58.9264 0.672247 57.8193 0.553422C56.7122 0.434597 55.594 0.629649 54.5925 1.11629C53.591 1.60292 52.7467 2.3615 52.156 3.30533C51.5652 4.24916 51.252 5.34015 51.252 6.4536C51.252 7.56705 51.5652 8.65804 52.156 9.60187C52.7467 10.5457 53.591 11.3043 54.5925 11.7909C55.594 12.2776 56.7122 12.4726 57.8193 12.3538C58.9264 12.235 59.9777 11.807 60.8531 11.119C60.1462 10.5642 59.5748 9.85581 59.1821 9.04752C58.7895 8.23924 58.5858 7.35221 58.5866 6.4536Z" fill="#EB001B"/>
<path d="M69.8887 10.1317V9.94066H69.9657V9.90174H69.7695V9.94066H69.8466V10.1317H69.8887ZM70.2695 10.1317V9.90137H70.2094L70.1402 10.0598L70.071 9.90137H70.0109V10.1317H70.0533V9.95795L70.1182 10.1077H70.1622L70.2271 9.95758V10.1317H70.2695Z" fill="#00A2E5"/>
<path d="M70.4544 6.4536C70.4544 7.56703 70.1412 8.65802 69.5505 9.60185C68.9598 10.5457 68.1154 11.3043 67.114 11.7909C66.1125 12.2775 64.9944 12.4726 63.8873 12.3538C62.7802 12.235 61.7289 11.807 60.8535 11.119C61.5598 10.5636 62.1308 9.85513 62.5234 9.04697C62.916 8.23882 63.12 7.35207 63.12 6.4536C63.12 5.55512 62.916 4.66838 62.5234 3.86023C62.1308 3.05207 61.5598 2.3436 60.8535 1.78824C61.7289 1.10015 62.7802 0.672245 63.8873 0.553421C64.9944 0.434597 66.1125 0.629653 67.114 1.11629C68.1154 1.60293 68.9598 2.36152 69.5505 3.30535C70.1412 4.24918 70.4544 5.34016 70.4544 6.4536Z" fill="#00A2E5"/>
</g>
<defs>
<clipPath id="clip0_1353_440806">
<rect width="20.6229" height="15" fill="white" transform="translate(27.752 0.5)"/>
</clipPath>
<clipPath id="clip1_1353_440806">
<rect width="20.625" height="15" fill="white" transform="translate(50.375 0.5)"/>
</clipPath>
</defs>
</svg>
