<svg width="79" height="16" viewBox="0 0 79 16" fill="none" xmlns="http://www.w3.org/2000/svg">
<path d="M8.78173 4.68571L7.26437 7.7071C6.93299 8.3675 6.61033 8.99388 6.36034 9.67412H6.34C6.2993 8.99388 6.24988 8.376 6.18012 7.7071L6.02315 6.12554L5.88072 4.68854H5.71503H4.35754V4.6687L2.37798 4.68854H2.32275V4.91529H2.42449C4.07848 4.97197 4.49997 5.94415 4.60752 6.42315L4.40986 4.91529L4.61624 6.46283C4.61334 6.44866 4.61043 6.43165 4.60752 6.41748L4.64531 6.69808C4.64531 6.69808 4.64531 6.69241 4.64531 6.6669L5.22668 11.0403H6.90392L10.4008 4.69138H8.78173V4.68571Z" fill="#005596"/>
<path d="M12.6636 4.65405L11.3758 11.0058H9.92822L11.2159 4.65405H12.6636Z" fill="#005596"/>
<path d="M12.7611 9.53709C13.1622 9.76384 13.7349 9.9424 14.3598 9.9424C14.9238 9.9424 15.4354 9.69865 15.4354 9.19697C15.4354 8.83985 15.1447 8.6046 14.5197 8.30133C13.7959 7.93286 13.1128 7.44253 13.1128 6.6149C13.1128 5.33379 14.3075 4.55151 15.7871 4.55151C16.6126 4.55151 17.0923 4.72157 17.3858 4.87179L16.7405 6.00269C16.5196 5.88932 16.3481 5.66257 15.6679 5.67391C14.9935 5.68241 14.6418 6.04237 14.6418 6.39099C14.6418 6.75945 15.0546 6.98336 15.6272 7.28664C16.4528 7.69195 16.9731 8.21063 16.9731 8.96456C16.9731 10.3789 15.726 11.1045 14.2203 11.1045C13.2756 11.1045 12.5053 10.736 12.1826 10.5121L12.7611 9.53709Z" fill="#005596"/>
<path d="M19.0636 9.3562L18.2584 11.0058H16.7207L20.017 4.65405H21.8774L22.671 11.0058H21.1536L21.0141 9.3562H19.0636ZM20.953 8.32167L20.8222 6.95552C20.7932 6.6069 20.7525 6.09672 20.7205 5.71126H20.7002C20.5287 6.09672 20.3397 6.58706 20.1566 6.95552L19.4822 8.32167H20.953Z" fill="#005596"/>
<path d="M24.9997 3.98302H0.000976562V1.10901C0.000976562 0.771728 0.280032 0.499634 0.625946 0.499634H24.3748C24.7207 0.499634 24.9997 0.771728 24.9997 1.10901V3.98302Z" fill="#005596"/>
<path d="M24.3748 15.5004H0.625946C0.280032 15.5004 0.000976562 15.2283 0.000976562 14.891V12.017H24.9997V14.891C24.9997 15.2283 24.7207 15.5004 24.3748 15.5004Z" fill="#F2A713"/>
<path d="M50.9995 0.5H27.9995C27.4472 0.5 26.9995 0.947715 26.9995 1.5V14.5C26.9995 15.0523 27.4472 15.5 27.9995 15.5H50.9995C51.5518 15.5 51.9995 15.0523 51.9995 14.5V1.5C51.9995 0.947715 51.5518 0.5 50.9995 0.5Z" fill="#10427A"/>
<path d="M40.9859 4.22021H37.9712V9.57202H40.9859V4.22021Z" fill="#FF5F00"/>
<path d="M38.1602 6.89909C38.1602 5.81171 38.6771 4.84725 39.4714 4.22319C38.8876 3.76933 38.1507 3.49512 37.3468 3.49512C35.4422 3.49512 33.9014 5.01745 33.9014 6.89909C33.9014 8.78073 35.4422 10.3031 37.3468 10.3031C38.1507 10.3031 38.8876 10.0289 39.4714 9.57499C38.6771 8.96039 38.1602 7.98647 38.1602 6.89909Z" fill="#EB001B"/>
<path d="M45.0486 6.89909C45.0486 8.78073 43.5077 10.3031 41.6032 10.3031C40.7992 10.3031 40.0623 10.0289 39.4785 9.57499C40.2824 8.95093 40.7897 7.98647 40.7897 6.89909C40.7897 5.81171 40.2729 4.84725 39.4785 4.22319C40.0623 3.76933 40.7992 3.49512 41.6032 3.49512C43.5077 3.49512 45.0486 5.02691 45.0486 6.89909Z" fill="#F79E1B"/>
<path d="M35.5267 12.4758V11.9086C35.5267 11.6911 35.3779 11.5493 35.1228 11.5493C34.9952 11.5493 34.857 11.5871 34.7614 11.71C34.687 11.606 34.5807 11.5493 34.4212 11.5493C34.3149 11.5493 34.2086 11.5777 34.1236 11.6817V11.5682H33.9004V12.4758H34.1236V11.9747C34.1236 11.814 34.2193 11.7384 34.3681 11.7384C34.5169 11.7384 34.5913 11.8235 34.5913 11.9747V12.4758H34.8145V11.9747C34.8145 11.814 34.9208 11.7384 35.059 11.7384C35.2078 11.7384 35.2822 11.8235 35.2822 11.9747V12.4758H35.5267ZM38.8324 11.5682H38.471V11.2941H38.2478V11.5682H38.0458V11.7478H38.2478V12.1638C38.2478 12.3718 38.3434 12.4947 38.5985 12.4947C38.6942 12.4947 38.8005 12.4663 38.8749 12.4285L38.8111 12.2584C38.7473 12.2962 38.6729 12.3056 38.6198 12.3056C38.5135 12.3056 38.471 12.2489 38.471 12.1544V11.7478H38.8324V11.5682ZM40.7244 11.5493C40.5968 11.5493 40.5118 11.606 40.4586 11.6817V11.5682H40.2354V12.4758H40.4586V11.9653C40.4586 11.814 40.533 11.7289 40.6712 11.7289C40.7137 11.7289 40.7669 11.7384 40.8094 11.7478L40.8732 11.5588C40.8307 11.5493 40.7669 11.5493 40.7244 11.5493ZM37.8651 11.6439C37.7588 11.5777 37.61 11.5493 37.4506 11.5493C37.1955 11.5493 37.0254 11.6628 37.0254 11.8424C37.0254 11.9936 37.1529 12.0787 37.3762 12.1071L37.4824 12.1165C37.5994 12.1355 37.6631 12.1638 37.6631 12.2111C37.6631 12.2773 37.5781 12.3245 37.4293 12.3245C37.2805 12.3245 37.1636 12.2773 37.0892 12.23L36.9829 12.3813C37.0998 12.4569 37.2592 12.4947 37.4187 12.4947C37.7163 12.4947 37.8864 12.3718 37.8864 12.2016C37.8864 12.0409 37.7482 11.9558 37.5356 11.9275L37.4293 11.918C37.3336 11.9086 37.2592 11.8897 37.2592 11.8329C37.2592 11.7668 37.3336 11.7289 37.4506 11.7289C37.5781 11.7289 37.7057 11.7762 37.7694 11.8046L37.8651 11.6439ZM43.7962 11.5493C43.6687 11.5493 43.5836 11.606 43.5305 11.6817V11.5682H43.3073V12.4758H43.5305V11.9653C43.5305 11.814 43.6049 11.7289 43.7431 11.7289C43.7856 11.7289 43.8387 11.7384 43.8813 11.7478L43.945 11.5588C43.9025 11.5493 43.8387 11.5493 43.7962 11.5493ZM40.9476 12.022C40.9476 12.2962 41.1602 12.4947 41.4897 12.4947C41.6385 12.4947 41.7448 12.4663 41.8511 12.3907L41.7448 12.23C41.6597 12.2867 41.5747 12.3151 41.479 12.3151C41.2983 12.3151 41.1708 12.2016 41.1708 12.022C41.1708 11.8518 41.2983 11.7384 41.479 11.7289C41.5747 11.7289 41.6597 11.7573 41.7448 11.814L41.8511 11.6533C41.7448 11.5777 41.6385 11.5493 41.4897 11.5493C41.1602 11.5493 40.9476 11.7478 40.9476 12.022ZM43.0097 12.022V11.5682H42.7864V11.6817C42.712 11.5966 42.6057 11.5493 42.4676 11.5493C42.1806 11.5493 41.9574 11.7478 41.9574 12.022C41.9574 12.2962 42.1806 12.4947 42.4676 12.4947C42.6164 12.4947 42.7227 12.4474 42.7864 12.3623V12.4758H43.0097V12.022ZM42.1912 12.022C42.1912 11.8613 42.3081 11.7289 42.4995 11.7289C42.6802 11.7289 42.8077 11.8518 42.8077 12.022C42.8077 12.1827 42.6802 12.3151 42.4995 12.3151C42.3081 12.3056 42.1912 12.1827 42.1912 12.022ZM39.5233 11.5493C39.2256 11.5493 39.0131 11.7384 39.0131 12.022C39.0131 12.3056 39.2256 12.4947 39.5339 12.4947C39.6827 12.4947 39.8315 12.4569 39.9484 12.3718L39.8421 12.23C39.7571 12.2867 39.6508 12.3245 39.5445 12.3245C39.4063 12.3245 39.2682 12.2678 39.2363 12.1071H39.991V12.0315C40.0016 11.7384 39.8103 11.5493 39.5233 11.5493ZM39.5233 11.7195C39.6614 11.7195 39.7571 11.7951 39.7784 11.9369H39.2469C39.2682 11.814 39.3638 11.7195 39.5233 11.7195ZM45.0611 12.022V11.209H44.8379V11.6817C44.7635 11.5966 44.6572 11.5493 44.519 11.5493C44.232 11.5493 44.0088 11.7478 44.0088 12.022C44.0088 12.2962 44.232 12.4947 44.519 12.4947C44.6678 12.4947 44.7741 12.4474 44.8379 12.3623V12.4758H45.0611V12.022ZM44.2427 12.022C44.2427 11.8613 44.3596 11.7289 44.5509 11.7289C44.7316 11.7289 44.8591 11.8518 44.8591 12.022C44.8591 12.1827 44.7316 12.3151 44.5509 12.3151C44.3596 12.3056 44.2427 12.1827 44.2427 12.022ZM36.7809 12.022V11.5682H36.5577V11.6817C36.4833 11.5966 36.377 11.5493 36.2388 11.5493C35.9518 11.5493 35.7286 11.7478 35.7286 12.022C35.7286 12.2962 35.9518 12.4947 36.2388 12.4947C36.3876 12.4947 36.4939 12.4474 36.5577 12.3623V12.4758H36.7809V12.022ZM35.9518 12.022C35.9518 11.8613 36.0688 11.7289 36.2601 11.7289C36.4408 11.7289 36.5683 11.8518 36.5683 12.022C36.5683 12.1827 36.4408 12.3151 36.2601 12.3151C36.0688 12.3056 35.9518 12.1827 35.9518 12.022Z" fill="white"/>
<g clip-path="url(#clip0_1283_461955)">
<path d="M77.9995 0.5H54.9995C54.4472 0.5 53.9995 0.947715 53.9995 1.5V14.5C53.9995 15.0523 54.4472 15.5 54.9995 15.5H77.9995C78.5518 15.5 78.9995 15.0523 78.9995 14.5V1.5C78.9995 0.947715 78.5518 0.5 77.9995 0.5Z" fill="#13A8E0"/>
<path d="M56.2954 5.8847L55.8163 4.67738L55.3399 5.8847H56.2954ZM66.8511 5.40395C66.7549 5.46433 66.6411 5.46634 66.5048 5.46634H65.6544V4.79366H66.5164C66.6384 4.79366 66.7657 4.79933 66.8483 4.84829C66.9392 4.89241 66.9953 4.98631 66.9953 5.11602C66.9953 5.24838 66.9419 5.35489 66.8511 5.40395ZM72.918 5.8847L72.4336 4.67738L71.9518 5.8847H72.918ZM61.6089 7.1915H60.8912L60.8885 4.81961L59.8734 7.1915H59.2588L58.241 4.8175V7.1915H56.8172L56.5482 6.516H55.0906L54.8188 7.1915H54.0585L55.3121 4.16301H56.3522L57.5429 7.03037V4.16301H58.6855L59.6016 6.21748L60.4432 4.16301H61.6088V7.1915H61.6089ZM64.4692 7.1915H62.1306V4.16301H64.4692V4.79366H62.8307V5.33955H64.4299V5.96034H62.8307V6.56514H64.4692V7.1915ZM67.7665 4.97864C67.7665 5.4615 67.4549 5.71096 67.2733 5.78587C67.4264 5.84615 67.5573 5.95266 67.6195 6.0409C67.7184 6.19153 67.7355 6.32609 67.7355 6.59656V7.1915H67.0294L67.0267 6.80958C67.0267 6.62735 67.0436 6.36527 66.9162 6.21958C66.8139 6.11307 66.658 6.08996 66.4059 6.08996H65.6544V7.1915H64.9544V4.16301H66.5646C66.9224 4.16301 67.186 4.17278 67.4123 4.30807C67.6338 4.44335 67.7665 4.64084 67.7665 4.97864ZM68.8869 7.1915H68.1726V4.16301H68.8869V7.1915ZM77.1738 7.1915H76.1817L74.8548 4.91844V7.1915H73.4291L73.1567 6.516H71.7024L71.4381 7.1915H70.6189C70.2786 7.1915 69.8478 7.11367 69.6038 6.85653C69.3578 6.59939 69.2298 6.25109 69.2298 5.70037C69.2298 5.25122 69.3063 4.84062 69.6072 4.51615C69.8335 4.27445 70.1879 4.16301 70.6703 4.16301H71.3481V4.81193H70.6846C70.4291 4.81193 70.2848 4.85121 70.1459 4.99134C70.0265 5.11886 69.9446 5.35992 69.9446 5.67735C69.9446 6.00181 70.007 6.23575 70.1371 6.38857C70.2449 6.50841 70.4408 6.54477 70.625 6.54477H70.9394L71.9261 4.1631H72.975L74.1603 7.02762V4.1631H75.2262L76.4567 6.27228V4.1631H77.1738V7.1915ZM54.0503 7.78635H55.2465L55.5162 7.11367H56.12L56.389 7.78635H58.7424V7.27207L58.9525 7.78854H60.1742L60.3843 7.26439V7.78635H66.2331L66.2303 6.68215H66.3435C66.4227 6.68499 66.4459 6.69257 66.4459 6.82785V7.78635H69.4709V7.5293C69.7149 7.66449 70.0944 7.78635 70.5938 7.78635H71.8664L72.1387 7.11367H72.7425L73.0089 7.78635H75.4612V7.14738L75.8326 7.78635H77.7978V3.5625H75.8529V4.06134L75.5806 3.5625H73.5849V4.06134L73.3348 3.5625H70.6392C70.1879 3.5625 69.7913 3.62763 69.4709 3.80913V3.5625H67.6106V3.80913C67.4067 3.62206 67.1289 3.5625 66.82 3.5625H60.0238L59.5678 4.65345L59.0995 3.5625H56.9589V4.06134L56.7237 3.5625H54.8981L54.0503 5.57075V7.78635Z" fill="white"/>
<path d="M78.9534 9.24724H77.6775C77.5501 9.24724 77.4655 9.25217 77.3942 9.30196C77.3204 9.35101 77.2919 9.42381 77.2919 9.51991C77.2919 9.63418 77.3543 9.71192 77.445 9.74554C77.5189 9.77212 77.5982 9.77988 77.7148 9.77988L78.0942 9.79039C78.4771 9.80016 78.7326 9.86821 78.8885 10.0342C78.9168 10.0573 78.9339 10.0832 78.9534 10.1092V9.24724ZM78.9534 11.2443C78.7833 11.5015 78.452 11.6318 78.0034 11.6318H76.6515V10.9823H77.9979C78.1315 10.9823 78.225 10.9641 78.2812 10.9073C78.33 10.8604 78.364 10.7924 78.364 10.7097C78.364 10.6215 78.33 10.5514 78.2785 10.5094C78.2277 10.4632 78.1538 10.4421 78.0318 10.4421C77.3745 10.419 76.5545 10.4632 76.5545 9.50456C76.5545 9.06519 76.8242 8.6027 77.5589 8.6027H78.9534V8H77.6577C77.2667 8 76.9827 8.09683 76.7816 8.24737V8H74.8652C74.5588 8 74.1991 8.07856 74.0289 8.24737V8H70.6068V8.24737C70.3345 8.04421 69.875 8 69.6629 8H67.4056V8.24737C67.1901 8.03161 66.711 8 66.4189 8H63.8927L63.3146 8.64691L62.7732 8H58.9995V12.2268H62.7022L63.2978 11.5696L63.859 12.2268L66.1413 12.2289V11.2346H66.3657C66.6685 11.2394 67.0257 11.2268 67.3408 11.086V12.2267H69.2233V11.125H69.3141C69.43 11.125 69.4414 11.13 69.4414 11.2497V12.2266H75.1601C75.5232 12.2266 75.9027 12.1305 76.1129 11.9561V12.2266H77.9268C78.3043 12.2266 78.6729 12.1719 78.9534 12.0317V11.2443ZM76.1609 10.0342C76.2972 10.1801 76.3703 10.3642 76.3703 10.676C76.3703 11.3277 75.9765 11.6318 75.2705 11.6318H73.907V10.9823H75.2651C75.3978 10.9823 75.492 10.9641 75.551 10.9073C75.5992 10.8604 75.6337 10.7924 75.6337 10.7097C75.6337 10.6215 75.5963 10.5514 75.5483 10.5094C75.4947 10.4632 75.4209 10.4421 75.299 10.4421C74.6443 10.419 73.8244 10.4632 73.8244 9.50456C73.8244 9.06519 74.0914 8.6027 74.8253 8.6027H76.2288V9.24742H74.9446C74.8173 9.24742 74.7345 9.25236 74.6641 9.30214C74.5874 9.35119 74.559 9.424 74.559 9.52009C74.559 9.63437 74.6241 9.7121 74.7121 9.74572C74.786 9.7723 74.8653 9.78006 74.9846 9.78006L75.3614 9.79057C75.7415 9.80016 76.0023 9.86812 76.1609 10.0342ZM69.8439 9.84711C69.7503 9.90457 69.6345 9.9095 69.4983 9.9095H68.6478V9.22916H69.5098C69.6345 9.22916 69.7592 9.2319 69.8439 9.28387C69.9347 9.33292 69.9889 9.42674 69.9889 9.55636C69.9889 9.68598 69.9347 9.79039 69.8439 9.84711ZM70.2667 10.2241C70.4226 10.2836 70.55 10.3902 70.6097 10.4784C70.7085 10.6263 70.7228 10.7643 70.7257 11.0313V11.6318H70.0228V11.2528C70.0228 11.0706 70.0398 10.8008 69.9097 10.6599C69.8074 10.5514 69.6515 10.5254 69.3961 10.5254H68.6479V11.6318H67.9445V8.60261H69.5607C69.9151 8.60261 70.1733 8.61878 70.403 8.74557C70.624 8.88359 70.7629 9.07268 70.7629 9.41824C70.7629 9.90174 70.451 10.1485 70.2667 10.2241ZM71.1511 8.60261H73.4876V9.22906H71.8483V9.77979H73.4476V10.3978H71.8483V11.0005L73.4876 11.0033V11.6318H71.1511V8.60261ZM66.4279 10.0006H65.5232V9.22916H66.436C66.6887 9.22916 66.8642 9.33566 66.8642 9.60057C66.8642 9.86255 66.6969 10.0006 66.4279 10.0006ZM64.8259 11.3563L63.7511 10.1224L64.8259 8.92771V11.3563ZM62.0502 11.0005H60.329V10.3978H61.8659V9.77979H60.329V9.22906H62.0841L62.8499 10.1118L62.0502 11.0005ZM67.6158 9.60057C67.6158 10.4421 67.0086 10.6158 66.3967 10.6158H65.5232V11.6318H64.1625L63.3005 10.629L62.4046 11.6318H59.6317V8.60261H62.4473L63.3086 9.59554L64.1991 8.60261H66.436C66.9916 8.60261 67.6158 8.76164 67.6158 9.60057Z" fill="white"/>
</g>
<defs>
<clipPath id="clip0_1283_461955">
<rect width="25" height="15" fill="white" transform="translate(53.9995 0.5)"/>
</clipPath>
</defs>
</svg>
