<svg width="43" height="54" viewBox="0 0 43 54" fill="none" xmlns="http://www.w3.org/2000/svg">
<path d="M16.5508 10.325C16.9008 7.8 17.0508 5.45 17.0508 3.3H2.85078V1.825H18.7758C18.7508 3.55 18.6508 7.175 18.2258 10.35L16.5508 10.325ZM0.525781 11.35H20.8008V12.825H0.525781V11.35ZM11.5258 22.05H9.82578V13.825H11.5258V22.05ZM42.7676 0.849999V21.8H41.0926V10.225H36.0926V1.1H37.7676V8.8H41.0926V0.849999H42.7676ZM24.4426 2.575H26.0426V16.975H24.4426V2.575ZM27.0426 2.575H33.2676V14.5L31.6176 14.525V4H27.0426V2.575ZM36.0926 11.225H37.8176V21.45H36.0926V11.225ZM27.0426 15.525H33.2676V16.975H27.0426V15.525ZM19.7427 31.85V52.8H18.0677V31.85H19.7427ZM14.0177 32.1H15.6677V43.875H14.0177V41.5H10.6427V40.1H14.0177V32.1ZM9.39268 34.575C6.91768 34.625 4.01768 34.7 2.21768 33.975L2.49268 32.7C4.74268 33.525 7.16768 33.25 9.39268 33.25V34.575ZM11.2927 38.8H0.342676V37.375H11.2927V38.8ZM6.16768 41C8.96768 41 10.9677 42.6 10.9427 45.25C10.9177 47.825 9.09268 49.45 6.16768 49.45C3.19268 49.45 1.36768 47.7 1.36768 45.25C1.36768 44.1 1.74268 43.125 2.44268 42.4L3.56768 43.45C3.16768 43.925 2.94268 44.575 2.94268 45.25C2.94268 46.9 4.09268 48.05 6.16768 48.05C8.21768 48.05 9.41768 46.9 9.41768 45.25C9.41768 43.675 8.21768 42.4 6.16768 42.4C5.54268 42.4 5.01768 42.5 4.56768 42.7L3.44268 41.625C4.19268 41.225 5.09268 41 6.16768 41ZM15.6677 52.45H14.0177V46.3H11.8427V44.875H15.6677V52.45ZM36.439 32.125H38.039V37.625H41.339V31.85H42.939V45H41.339V39.05H36.439V32.125ZM25.239 32.825H33.664V34.275H25.239V32.825ZM28.089 42.575C31.064 42.575 33.414 42.5 35.439 42.25V43.675C33.414 43.925 31.089 44.025 27.964 44.025H25.239V35.15H26.939V42.575H28.089ZM33.414 37.825V39.2H27.814V37.825H33.414ZM38.039 45H36.439V39.925H38.039V45ZM41.189 48H27.764V46.55H42.864V53.325H41.189V48Z" fill="white"/>
</svg>
