<svg width="87" height="54" viewBox="0 0 87 54" fill="none" xmlns="http://www.w3.org/2000/svg">
<path d="M29.6563 0.849999V21.8H27.9813V0.849999H29.6563ZM17.9813 2.3C21.9063 2.3 23.9313 5.575 23.9313 10C23.9313 14.5 21.9313 17.7 17.9813 17.7C14.2063 17.7 12.0813 14.625 12.0813 10.025C12.0813 7.675 12.6563 5.725 13.6563 4.375L14.7063 5.525C14.0563 6.625 13.6813 8.1 13.7063 10.025C13.7563 13.725 15.0813 16.275 17.9813 16.275C20.9063 16.275 22.3313 13.775 22.3313 10.025C22.3313 6.175 20.8563 3.775 17.9813 3.775C17.0563 3.775 16.3063 4.025 15.6563 4.475L14.7063 3.325C15.6063 2.675 16.6813 2.3 17.9813 2.3ZM33.7063 9.275V10.725H30.5313V9.275H33.7063ZM52.9718 0.849999V21.8H51.2968V0.849999H52.9718ZM43.2968 8.325H47.0218V1.1H48.7218V9.775H43.2968V8.325ZM33.6968 16.7C37.4968 13.075 38.6468 9.625 38.6468 5.3V2.575H40.2718V5.3C40.2718 10.075 38.7968 13.875 34.8968 17.65L33.6968 16.7ZM41.0468 10.75C41.7468 12.6 42.9218 14.325 44.9718 16.1L43.7968 17.15C42.1218 15.55 40.3218 13.225 39.8968 11.575L41.0468 10.75ZM48.7218 21.45H47.0218V10.775H48.7218V21.45ZM75.9444 0.849999V21.8H74.2444V0.849999H75.9444ZM67.0194 8.825H70.0694V1.1H71.7444V10.25H67.0194V8.825ZM57.3694 2.575H67.7944V4H57.3694V2.575ZM61.2944 15.925C62.0194 15.925 62.7194 15.925 63.4444 15.9C63.7444 13.025 63.8694 8.025 63.8694 4.75H65.4944C65.4444 8.3 65.2444 13.025 64.9944 15.825C66.1944 15.75 67.3444 15.65 68.4194 15.45L68.6194 16.85C66.5444 17.2 63.9694 17.35 61.1194 17.35H57.1444V15.925H61.2944ZM59.3944 15.175C59.1944 12.325 59.0444 8.075 58.9944 4.75H60.5944C60.5944 7.775 60.6694 12.25 60.9194 15.175H59.3944ZM71.7444 21.45H70.0694V11.25H71.7444V21.45ZM1.73105 42.425C8.80606 40.325 9.88106 36.9 9.88106 34.25V33.2H11.4311V34.25C11.4311 39.1 8.18105 41.925 2.60605 43.725L1.73105 42.425ZM12.6311 38.025C13.5561 39.475 15.8061 41.075 19.6561 42.075L18.7811 43.375C15.4061 42.475 12.6311 40.875 11.4561 38.95L12.6311 38.025ZM9.85605 44.15H11.5061V48.225H9.85605V44.15ZM0.431055 49.1H20.9311V50.55H0.431055V49.1ZM25.542 41.125V32.825H27.167V41.125H25.542ZM39.342 34.275H28.167V32.825H41.042V38.675H39.342V34.275ZM41.067 41.125H28.167V39.7H41.067V41.125ZM22.892 43.7H43.642V45.125H22.892V43.7ZM34.192 49.65H32.592V45.875H34.192V49.65ZM27.217 51.875H41.767V53.325H25.542V47.325H27.217V51.875ZM65.6221 31.85V52.8H63.9471V41.35H58.5721V32.1H60.2721V39.925H63.9471V31.85H65.6221ZM51.1471 46.525C53.0971 46.525 55.6221 46.375 57.3221 46.1V47.525C55.6721 47.8 53.4221 47.925 51.1221 47.95L47.2971 47.975V33.575H48.9971V46.525H51.1471ZM58.5721 42.35H60.2721V52.45H58.5721V42.35ZM85.1787 31.85H86.8537V52.8H85.1787V31.85ZM75.5287 48.975C77.2287 44.225 77.8537 37.575 77.8537 34.775H68.8037V33.325H79.5037C79.5037 37.475 78.8037 44.475 77.2037 49.325L75.5287 48.975Z" fill="white"/>
</svg>
