<svg width="43" height="54" viewBox="0 0 43 54" fill="none" xmlns="http://www.w3.org/2000/svg">
<path d="M17.3891 10.175H11.6891V8.75H17.3891V6.025H11.6891V4.6H17.3891V0.849999H19.0891V12.025H17.3891V10.175ZM7.31406 11.25C8.46406 8.675 9.01406 5.9 9.06406 3.275H0.289063V1.825H10.8141C10.8141 5.3 10.2391 8.8 8.93906 11.775L7.31406 11.25ZM17.2891 16.325V14.825H4.16406V13.375H19.0891V16.325H17.2891ZM4.16406 17.2H19.0891V18.625H4.16406V17.2ZM19.8141 21.125V22.575H4.16406V19.5H5.96406V21.125H19.8141ZM42.2676 0.849999V21.8H40.5926V0.849999H42.2676ZM36.1926 1.1H37.8926V9.775H32.3926V8.325H36.1926V1.1ZM29.6426 5.5C29.6426 9.825 27.5676 14.475 24.2426 17.65L22.9926 16.675C26.8676 12.95 28.0426 8.825 28.0426 5.475V4H23.6176V2.575H33.8176V4H29.6426V5.5ZM30.4926 10.375C31.1926 12.35 32.3676 14.275 34.3426 16.1L33.1426 17.15C31.5676 15.55 30.2676 13.95 29.2926 11.225L30.4926 10.375ZM36.1926 10.65H37.8926V21.45H36.1926V10.65ZM19.7427 31.85V52.8H18.0677V31.85H19.7427ZM14.0177 32.1H15.6677V43.875H14.0177V41.5H10.6427V40.1H14.0177V32.1ZM9.39268 34.575C6.91768 34.625 4.01768 34.7 2.21768 33.975L2.49268 32.7C4.74268 33.525 7.16768 33.25 9.39268 33.25V34.575ZM11.2927 38.8H0.342676V37.375H11.2927V38.8ZM6.16768 41C8.96768 41 10.9677 42.6 10.9427 45.25C10.9177 47.825 9.09268 49.45 6.16768 49.45C3.19268 49.45 1.36768 47.7 1.36768 45.25C1.36768 44.1 1.74268 43.125 2.44268 42.4L3.56768 43.45C3.16768 43.925 2.94268 44.575 2.94268 45.25C2.94268 46.9 4.09268 48.05 6.16768 48.05C8.21768 48.05 9.41768 46.9 9.41768 45.25C9.41768 43.675 8.21768 42.4 6.16768 42.4C5.54268 42.4 5.01768 42.5 4.56768 42.7L3.44268 41.625C4.19268 41.225 5.09268 41 6.16768 41ZM15.6677 52.45H14.0177V46.3H11.8427V44.875H15.6677V52.45ZM36.439 32.125H38.039V37.625H41.339V31.85H42.939V45H41.339V39.05H36.439V32.125ZM25.239 32.825H33.664V34.275H25.239V32.825ZM28.089 42.575C31.064 42.575 33.414 42.5 35.439 42.25V43.675C33.414 43.925 31.089 44.025 27.964 44.025H25.239V35.15H26.939V42.575H28.089ZM33.414 37.825V39.2H27.814V37.825H33.414ZM38.039 45H36.439V39.925H38.039V45ZM41.189 48H27.764V46.55H42.864V53.325H41.189V48Z" fill="white"/>
</svg>
