<svg width="411" height="1349" viewBox="0 0 411 1349" fill="none" xmlns="http://www.w3.org/2000/svg">
<path d="M69.3438 244.784V272.56H66.9118V244.784H69.3438ZM47.5198 256.56C47.5198 250.672 50.4638 246.928 54.6238 246.896C58.7198 246.928 61.6958 250.672 61.7278 256.56C61.6958 262.512 58.7198 266.256 54.6238 266.288C50.4638 266.256 47.5198 262.512 47.5198 256.56ZM49.8878 256.56C49.8878 261.104 51.8078 264.08 54.6238 264.048C57.3758 264.08 59.2958 261.104 59.2958 256.56C59.2958 252.08 57.3758 249.104 54.6238 249.072C51.8078 249.104 49.8878 252.08 49.8878 256.56ZM97.128 244.784V265.328H94.696V254.64H88.168V260.592H75.496V246.64H77.992V251.568H85.736V246.64H88.168V252.592H94.696V244.784H97.128ZM77.992 258.544H85.736V253.488H77.992V258.544ZM79.208 271.92V263.344H81.64V269.872H97.768V271.92H79.208ZM123.824 248.688C123.792 252.4 128.752 255.568 133.616 256.304L132.656 258.224C128.336 257.488 124.144 255.184 122.448 251.856C120.72 255.184 116.528 257.488 112.24 258.224L111.28 256.304C116.112 255.568 121.04 252.4 121.072 248.688V248.496H112.176V246.512H132.656V248.496H123.824V248.688ZM109.808 262.64V260.592H135.088V262.64H123.568V272.496H121.2V262.64H109.808ZM171.156 260.125V263.344H165.281V272.938H161.281V263.344H155.156V272.938H151.156V263.344H145.125V260.125H171.156ZM146.156 254.656C152.562 253.797 156.047 250.047 156.062 246.656V245.281H160.25V246.656C160.234 250.031 163.734 253.812 170.156 254.656L168.625 257.906C163.672 257.156 160.031 254.812 158.156 251.703C156.297 254.797 152.656 257.156 147.719 257.906L146.156 254.656ZM189.344 246.938V250.156H186.562V262.734C187.75 262.656 188.906 262.547 190.031 262.406L190.281 265.281C184.5 266.297 177.938 266.391 173.062 266.406L172.688 263.125C173.688 263.125 174.781 263.109 175.906 263.109V250.156H173.469V246.938H189.344ZM179.781 263.047C180.75 263.031 181.734 263 182.719 262.953V250.156H179.781V263.047ZM188.5 257.969V254.781H192.875V244.438H196.812V272.875H192.875V257.969H188.5ZM223.031 244.375V250.562H226.875V253.75H223.031V259.781H219.031V244.375H223.031ZM200.469 249.594V246.562H206.938V244.25H210.906V246.562H217.344V249.594H200.469ZM201.844 254.938C201.844 252.094 204.672 250.297 208.906 250.281C213.172 250.297 215.906 252.094 215.906 254.938C215.906 257.844 213.172 259.578 208.906 259.594C204.672 259.578 201.844 257.844 201.844 254.938ZM204.156 263.812V260.938H223.031V268.125H208.125V269.75H223.844V272.688H204.219V265.406H219.062V263.812H204.156ZM205.75 254.938C205.734 256.156 206.938 256.734 208.906 256.75C210.891 256.734 212.125 256.156 212.125 254.938C212.125 253.734 210.891 253.078 208.906 253.094C206.938 253.078 205.734 253.734 205.75 254.938ZM251.938 244.469V264.906H247.938V244.469H251.938ZM228.562 253.438C228.562 249.266 231.969 246.266 236.344 246.281C240.703 246.266 244.109 249.266 244.125 253.438C244.109 257.672 240.703 260.656 236.344 260.656C231.969 260.656 228.562 257.672 228.562 253.438ZM232.469 253.438C232.438 255.812 234.109 257.188 236.344 257.188C238.5 257.188 240.172 255.812 240.188 253.438C240.172 251.125 238.5 249.734 236.344 249.75C234.109 249.734 232.438 251.125 232.469 253.438ZM232.875 272.375V262.844H236.906V269.188H252.688V272.375H232.875ZM287.145 244.784V272.56H284.841V244.784H287.145ZM263.081 265.136C266.985 262.832 269.225 257.744 269.225 252.656V250.096H263.849V248.048H276.649V250.096H271.593V252.656C271.593 257.488 273.769 262.288 277.609 264.496L276.073 266.288C273.353 264.688 271.433 261.712 270.441 258.16C269.449 261.968 267.433 265.232 264.681 266.992L263.081 265.136ZM274.537 256.816V254.768H279.273V245.424H281.577V271.088H279.273V256.816H274.537ZM316.401 258.224V260.208H304.945V263.472H313.329V272.176H294.193V263.472H302.513V260.208H291.121V258.224H316.401ZM293.489 247.664V245.68H313.969V247.664H309.745V253.552H313.905V255.6H293.553V253.552H297.777V247.664H293.489ZM296.625 270.128H310.897V265.456H296.625V270.128ZM300.209 253.552H307.249V247.664H300.209V253.552ZM344.057 259.44V261.424H318.777V259.44H344.057ZM321.529 251.248C321.561 247.76 325.369 245.712 331.385 245.744C337.369 245.712 341.209 247.76 341.177 251.248C341.209 254.704 337.369 256.784 331.385 256.816C325.369 256.784 321.561 254.704 321.529 251.248ZM322.041 271.92V263.856H324.473V269.872H341.241V271.92H322.041ZM324.089 251.248C324.089 253.456 326.937 254.768 331.385 254.768C335.865 254.768 338.713 253.456 338.681 251.248C338.713 249.072 335.865 247.728 331.385 247.728C326.937 247.728 324.089 249.072 324.089 251.248ZM350.849 263.472C350.881 259.28 352.161 258 354.305 256.688C355.617 255.888 356.609 254.672 356.609 252.912C356.609 250.768 354.945 249.424 352.897 249.456C351.105 249.424 349.313 250.48 349.121 253.04H346.305C346.433 249.264 349.313 247.056 352.897 247.088C356.801 247.056 359.329 249.584 359.361 253.04C359.329 255.472 358.177 257.168 356.225 258.352C354.305 259.568 353.601 260.752 353.537 263.472V263.6H350.849V263.472ZM350.273 268.144C350.273 267.056 351.201 266.16 352.321 266.16C353.409 266.16 354.305 267.056 354.305 268.144C354.305 269.264 353.409 270.192 352.321 270.192C351.201 270.192 350.273 269.264 350.273 268.144Z" fill="white"/>
<path d="M94.8636 162.423L96.033 163.754L88.1401 170.928L87 169.566L94.8636 162.423ZM95.7991 168.446V184.185H93.9867V168.446H95.7991Z" fill="url(#paint0_linear_4_566)"/>
<path d="M121.486 161V186.364H119.528V161H121.486ZM113.272 163.633C110.056 163.694 106.256 163.785 103.947 162.937L104.327 161.272C107.221 162.271 110.407 161.969 113.272 161.969V163.633ZM109.735 169.293C109.735 174.62 107.045 179.1 101.959 182.52L100.673 181.098C106.753 177.102 107.893 172.653 107.893 169.293V168.809H100.936V167.114H116.429V168.809H109.735V169.293ZM126.222 171.806V173.531H122.509V171.806H126.222ZM110.816 174.288C111.781 176.406 113.535 178.646 116.634 180.644L115.347 182.066C111.839 179.675 110.115 177.133 109.442 175.377L110.816 174.288Z" fill="url(#paint1_linear_4_566)"/>
<path d="M135.756 170.595C142.743 168.96 144.906 165.934 144.906 162.967V162.029H146.806V162.967C146.806 168.083 142.45 170.776 136.604 172.169L135.756 170.595ZM148.004 166.297C149.232 167.962 151.98 169.475 156.014 170.201L155.166 171.836C151.688 171.109 148.121 169.596 146.66 167.356L148.004 166.297ZM142.45 177.738C142.421 181.219 141.807 184.397 140.901 186.667L138.913 186.092C139.848 183.852 140.462 180.825 140.462 177.738H134.031V175.983H157.739V177.738H142.45ZM152.009 186.818H150.08L149.905 179.251H151.834L152.009 186.818Z" fill="url(#paint2_linear_4_566)"/>
<path d="M181.554 161V186.364H179.596V161H181.554ZM161.15 162.786H175.357V164.541H161.15V162.786ZM166.733 179.373C167.815 179.373 168.926 179.373 170.007 179.342C170.299 175.771 170.387 169.747 170.416 165.752H172.317C172.258 169.959 172.083 175.771 171.82 179.251C173.691 179.13 175.474 178.888 177.169 178.495L177.462 180.22C174.421 180.977 170.738 181.098 166.704 181.098H160.594V179.373H166.733ZM164.307 178.162C164.102 174.863 163.956 169.263 163.927 165.752H165.827C165.856 169.051 165.915 174.772 166.148 178.162H164.307ZM174.655 172.35V170.625H178.572V172.35H174.655Z" fill="url(#paint3_linear_4_566)"/>
<path d="M204.496 173.319C204.934 170.292 205.197 165.086 205.168 163.966H188.71V162.18H207.185C207.156 164.36 206.981 169.293 206.425 173.319H204.496ZM203.736 169.354C199.877 169.868 194.03 169.959 188.418 169.959V168.325C192.832 168.325 199.175 168.385 203.853 167.568L203.736 169.354ZM185.845 174.53H209.553V176.285H185.845V174.53ZM198.678 186.667H196.691V177.496H198.678V186.667Z" fill="url(#paint4_linear_4_566)"/>
<path d="M233.31 163.936H214.63V162.211H233.31V163.936ZM236.087 176.437V178.162H211.824V176.437H222.961V172.502H214.688V170.807H227.2C227.346 169.233 227.492 166.448 227.551 164.844H229.539C229.48 166.539 229.276 169.384 229.159 170.807H233.251V172.502H224.92V176.437H236.087ZM218.46 164.844H220.389C220.447 166.055 220.564 168.506 220.652 169.899H218.693L218.46 164.844ZM216.881 185.244H233.894V187H214.922V180.311H216.881V185.244Z" fill="url(#paint5_linear_4_566)"/>
<path d="M254.817 184.548C249.263 184.548 245.082 179.917 245.082 173.743C245.082 170.686 245.989 167.992 247.509 165.994L248.737 167.386C247.567 168.93 246.895 171.049 246.895 173.44C246.895 178.737 250.286 182.732 254.817 182.732C259.348 182.732 262.739 178.737 262.739 173.44C262.739 168.143 259.348 164.178 254.817 164.178C253.735 164.178 252.683 164.39 251.747 164.844L250.871 163.24C252.157 162.604 253.56 162.362 254.817 162.362C260.371 162.362 264.551 166.993 264.551 173.137C264.551 179.645 260.371 184.548 254.817 184.548Z" fill="url(#paint6_linear_4_566)"/>
<path d="M269.933 162.725V184.185H268.121V162.725H269.933ZM272.301 173.258C275.137 173.258 276.978 171.533 276.978 168.9C276.978 166.267 275.166 164.541 272.33 164.541H272.184V162.725H272.33C276.247 162.725 278.791 165.147 278.791 168.9C278.791 172.653 276.247 175.075 272.301 175.075H272.213V173.258H272.301Z" fill="url(#paint7_linear_4_566)"/>
<path d="M292.341 184.185H282.08V162.725H283.893V172.108H291.581V173.924H283.893V182.369H292.341V184.185ZM286.465 164.541V162.725H292.195V164.541H286.465Z" fill="url(#paint8_linear_4_566)"/>
<path d="M311.469 184.185H309.54L296.297 163.452L297.788 162.423L309.657 181.037V162.725H311.469V184.185ZM298.256 170.837V184.185H296.443V170.837H298.256Z" fill="url(#paint9_linear_4_566)"/>
<path d="M318.532 162.725V178.949H316.72V162.725H318.532ZM317.626 184.548C316.866 184.548 316.252 183.913 316.252 183.126C316.252 182.369 316.895 181.703 317.626 181.703C318.386 181.703 319 182.339 319 183.126C319 183.913 318.386 184.548 317.626 184.548Z" fill="url(#paint10_linear_4_566)"/>
<path d="M137.831 24.327C137.831 20.458 135.234 17.967 131.259 17.967C130.146 17.967 129.033 18.179 128.132 18.603L126.489 15.847C127.761 15.158 129.298 14.787 131.259 14.787C137.195 14.787 141.064 18.55 141.064 24.327H137.831ZM138.785 46.322C139.474 45.103 139.845 43.831 139.845 42.029C139.845 38.478 137.195 35.457 132.478 34.238L128.98 33.337C123.627 31.959 121.242 28.461 121.242 24.327C121.242 22.684 121.56 21.2 122.302 19.822L124.952 21.995C124.687 22.684 124.528 23.585 124.528 24.327C124.528 27.03 126.118 29.203 130.199 30.263L133.485 31.111C139.898 32.754 143.131 36.941 143.131 42.029C143.131 44.467 142.548 46.799 141.276 48.601L138.785 46.322ZM130.941 53.636C123.627 53.636 118.91 49.131 118.91 42.135H122.196C122.196 47.17 125.641 50.456 130.941 50.456C132.531 50.456 133.909 50.244 135.393 49.502L137.142 52.258C135.34 53.212 133.485 53.636 130.941 53.636ZM152.344 15.423V53H149.058V15.423H152.344ZM156.637 33.867C161.778 33.867 165.117 30.846 165.117 26.235C165.117 21.624 161.831 18.603 156.69 18.603H156.425V15.423H156.69C163.792 15.423 168.403 19.663 168.403 26.235C168.403 32.807 163.792 37.047 156.637 37.047H156.478V33.867H156.637ZM192.971 53H174.368V15.423H177.654V31.853H191.593V35.033H177.654V49.82H192.971V53ZM182.318 18.603V15.423H192.706V18.603H182.318ZM227.226 24.91C225.106 20.67 220.76 17.967 215.566 17.967C213.605 17.967 211.697 18.338 210.001 19.133L208.411 16.324C210.743 15.211 213.287 14.787 215.566 14.787C222.456 14.787 228.604 18.762 230.883 24.91H227.226ZM215.566 53.636C205.496 53.636 197.917 45.527 197.917 34.715C197.917 29.362 199.56 24.645 202.316 21.147L204.542 23.585C202.422 26.288 201.203 29.998 201.203 34.185C201.203 43.46 207.351 50.456 215.566 50.456C220.76 50.456 225.106 47.753 227.332 43.513H230.989C228.498 49.449 222.668 53.636 215.566 53.636ZM240.229 15.423V53H236.943V15.423H240.229ZM255.153 34.609H261.884V37.789H254.04L248.369 53.53L245.348 52.364L258.81 14.84L261.884 15.9L255.153 34.609ZM272.855 53.636L262.52 24.38L265.541 23.161L275.876 52.417L272.855 53.636ZM284.327 15.423V53H281.041V15.423H284.327ZM297.683 49.82V53H289.309V49.82H297.683ZM61.679 89.91C59.559 85.67 55.213 82.967 50.019 82.967C48.058 82.967 46.15 83.338 44.454 84.133L42.864 81.324C45.196 80.211 47.74 79.787 50.019 79.787C56.909 79.787 63.057 83.762 65.336 89.91H61.679ZM50.019 118.636C39.949 118.636 32.37 110.527 32.37 99.715C32.37 94.362 34.013 89.645 36.769 86.147L38.995 88.585C36.875 91.288 35.656 94.998 35.656 99.185C35.656 108.46 41.804 115.456 50.019 115.456C55.213 115.456 59.559 112.753 61.785 108.513H65.442C62.951 114.449 57.121 118.636 50.019 118.636ZM86.8188 118.636C76.7488 118.636 69.1698 110.527 69.1698 99.715C69.1698 94.362 70.8128 89.645 73.5688 86.147L75.7948 88.585C73.6748 91.288 72.4558 94.998 72.4558 99.185C72.4558 108.46 78.6038 115.456 86.8188 115.456C95.0338 115.456 101.182 108.46 101.182 99.185C101.182 89.91 95.0338 82.967 86.8188 82.967C84.8578 82.967 82.9498 83.338 81.2538 84.133L79.6638 81.324C81.9958 80.211 84.5398 79.787 86.8188 79.787C96.8888 79.787 104.468 87.896 104.468 98.655C104.468 110.05 96.8888 118.636 86.8188 118.636ZM120.744 118.583C114.543 118.583 110.568 114.396 110.568 107.93V80.423H113.854V107.93C113.854 112.488 116.557 115.403 120.744 115.403C124.136 115.403 126.574 113.495 127.369 110.209H130.708C129.913 115.35 126.203 118.583 120.744 118.583ZM130.867 80.423V102.153H127.581V80.423H130.867ZM142.485 80.423V118H139.199V80.423H142.485ZM146.778 98.867C151.919 98.867 155.258 95.846 155.258 91.235C155.258 86.624 151.972 83.603 146.831 83.603H146.566V80.423H146.831C153.933 80.423 158.544 84.663 158.544 91.235C158.544 97.807 153.933 102.047 146.778 102.047H146.619V98.867H146.778ZM179.931 118.636C169.861 118.636 162.282 110.527 162.282 99.715C162.282 94.362 163.925 89.645 166.681 86.147L168.907 88.585C166.787 91.288 165.568 94.998 165.568 99.185C165.568 108.46 171.716 115.456 179.931 115.456C188.146 115.456 194.294 108.46 194.294 99.185C194.294 89.91 188.146 82.967 179.931 82.967C177.97 82.967 176.062 83.338 174.366 84.133L172.776 81.324C175.108 80.211 177.652 79.787 179.931 79.787C190.001 79.787 197.58 87.896 197.58 98.655C197.58 110.05 190.001 118.636 179.931 118.636ZM231.558 118H228.06L204.051 81.695L206.754 79.893L228.272 112.488V80.423H231.558V118ZM207.602 94.627V118H204.316V94.627H207.602ZM250.433 83.603V80.423H270.785V83.603H250.433ZM271.686 118H250.115V114.82L265.326 88.214L268.082 89.91L253.825 114.82H271.686V118ZM293.022 118.636C282.952 118.636 275.373 110.527 275.373 99.715C275.373 94.362 277.016 89.645 279.772 86.147L281.998 88.585C279.878 91.288 278.659 94.998 278.659 99.185C278.659 108.46 284.807 115.456 293.022 115.456C301.237 115.456 307.385 108.46 307.385 99.185C307.385 89.91 301.237 82.967 293.022 82.967C291.061 82.967 289.153 83.338 287.457 84.133L285.867 81.324C288.199 80.211 290.743 79.787 293.022 79.787C303.092 79.787 310.671 87.896 310.671 98.655C310.671 110.05 303.092 118.636 293.022 118.636ZM344.649 118H341.151L317.142 81.695L319.845 79.893L341.363 112.488V80.423H344.649V118ZM320.693 94.627V118H317.407V94.627H320.693ZM371.924 118H353.321V80.423H356.607V96.853H370.546V100.033H356.607V114.82H371.924V118ZM361.271 83.603V80.423H371.659V83.603H361.271Z" fill="white"/>
<g filter="url(#filter0_di_4_566)">
<path d="M402.223 306.199H318.858C310.574 306.199 303.858 312.915 303.858 321.199V513.249C303.858 521.534 310.574 528.249 318.858 528.249H402.223V306.199Z" fill="url(#paint11_linear_4_566)" fill-opacity="0.5" shape-rendering="crispEdges"/>
</g>
<g filter="url(#filter1_di_4_566)">
<path d="M0 321.199C0 312.915 6.71573 306.199 15 306.199H288.858C297.142 306.199 303.858 312.915 303.858 321.199V515.197C303.858 523.481 297.142 530.197 288.858 530.197H15C6.71571 530.197 0 523.481 0 515.197V321.199Z" fill="#544D74" fill-opacity="0.7" shape-rendering="crispEdges"/>
</g>
<rect x="335.998" y="430.451" width="33.9546" height="3.18325" fill="white"/>
<path fill-rule="evenodd" clip-rule="evenodd" d="M350.441 420.333V395.798H354.323V424.634C354.323 425.397 353.876 426.089 353.18 426.403C352.485 426.717 351.67 426.594 351.098 426.089L338.344 414.836L340.912 411.925L350.441 420.333Z" fill="white"/>
<path fill-rule="evenodd" clip-rule="evenodd" d="M354.324 420.333V395.798H350.443V424.634C350.443 425.397 350.89 426.089 351.585 426.403C352.281 426.717 353.095 426.594 353.668 426.089L366.422 414.836L363.854 411.925L354.324 420.333Z" fill="white"/>
<g opacity="0.9" clip-path="url(#clip0_4_566)">
<path d="M27.9737 347.096C27.9737 340.438 33.3496 338.052 39.3147 338.052C40.3015 338.052 42.2015 338.173 43.1883 338.295C43.1588 338.751 42.7464 339.921 41.3178 339.876C38.3279 339.739 31.4644 339.237 31.4644 345.545C31.4644 348.54 33.8651 350.653 35.7062 351.869L39.6976 354.468C42.8495 356.474 45.9425 359.469 45.9425 364.348C45.9425 370.017 41.7891 373.893 35.3085 373.893C31.1109 373.893 27.9295 371.933 26.7954 370.033C24.9985 367.084 26.6334 364.469 27.959 363.375C28.7543 367.601 31.4202 372.297 35.9713 372.297C40.1689 372.297 42.2162 369.455 42.2162 366.369C42.2162 364.089 41.7744 361.581 38.1217 359.165L33.3791 355.973C30.8752 354.27 27.9884 351.337 27.9884 347.111" fill="white"/>
<path d="M76.9749 336C75.1928 336.517 72.9688 338.751 72.9688 342.566V373.149H76.6509V347.446C76.6509 341.928 76.6656 338.858 76.9602 336" fill="white"/>
<path d="M63.7206 366.354C63.7206 370.367 60.5245 371.234 58.6245 371.234C55.2222 371.234 54.0292 369.653 54.0292 366.096V351.732C52.2176 352.234 50.3029 354.62 50.3324 357.128V367.342C50.3324 370.793 52.5711 373.726 56.4742 373.726C58.8749 373.726 61.6144 372.693 63.5144 371.097C64.0152 370.671 67.4028 367.905 67.4028 361.886V352.294V351.747C65.5912 352.249 63.6764 354.635 63.7059 357.143V366.37L63.7206 366.354Z" fill="white"/>
<path d="M119.04 357.174C119.04 356.854 119.084 356.626 119.172 356.459C119.172 356.459 119.423 356.155 119.776 355.882C120.763 355.228 122.265 354.392 123.959 354.392C127.155 354.392 128.702 356.611 128.702 359.91V373.194H132.325L132.384 358.663C132.384 355.061 130.69 352.036 125.948 352.036C123.385 352.036 120.896 353.586 119.099 354.924C119.025 354.97 119.01 354.772 119.01 354.635V344.345C119.01 340.682 119.084 338.265 119.32 336C118.392 336.258 117.317 337.018 116.521 338.219C115.8 339.207 115.299 340.438 115.299 341.7V373.179H119.01V357.174H119.04Z" fill="white"/>
<path d="M172.285 363.162C172.285 369.607 176.777 373.787 182.522 373.787C188.766 373.787 193.067 369.151 193.067 362.706C193.067 356.262 188.531 352.051 182.934 352.051C177.042 352.051 172.3 356.687 172.3 363.162M176.601 362.494C176.601 356.824 179.046 353.161 182.33 353.161C187.087 353.161 188.781 359.15 188.781 363.527C188.781 367.494 187.426 372.647 183.037 372.647C178.648 372.647 176.601 367.175 176.601 362.494Z" fill="white"/>
<path d="M196.249 363.162C196.249 369.607 200.741 373.787 206.485 373.787C212.716 373.787 217.002 369.151 217.002 362.706C217.002 356.262 212.465 352.051 206.868 352.051C200.977 352.051 196.234 356.687 196.234 363.162M200.535 362.494C200.535 356.824 202.98 353.161 206.265 353.161C211.007 353.161 212.716 359.15 212.716 363.527C212.716 367.494 211.361 372.647 206.971 372.647C202.582 372.647 200.535 367.175 200.535 362.494Z" fill="white"/>
<path d="M157.408 357.903C157.408 352.902 161.605 351.99 165.273 351.99C165.788 351.99 167.379 352.112 167.865 352.142C167.865 352.72 167.32 353.632 166.318 353.632C164.669 353.632 160.574 352.796 160.574 356.672C160.574 358.785 162.68 359.909 164.418 360.943C167.069 362.493 169.529 364.241 169.529 367.905C169.529 371.811 166.024 373.772 162.342 373.772C159.985 373.772 157.997 373.118 157.098 371.75C156.082 370.169 156.907 368.741 157.614 367.874C158.306 370.61 160.014 372.282 162.828 372.282C164.639 372.282 166.186 371.203 166.186 368.999C166.186 366.613 164.183 365.336 162.342 364.257C159.44 362.554 157.393 360.745 157.393 357.918" fill="white"/>
<path d="M138.821 356.641H142.312C142.312 356.641 142.665 354.179 144.609 353.617C147.702 352.902 148.498 356.185 148.498 358.8V360.943C147.452 361.703 146.406 362.007 143.431 362.509C138.998 363.223 137.098 365.047 137.098 368.634C137.098 371.963 139.189 374 142.591 374C144.786 374 146.745 372.997 148.498 371.021V373.361H152.136V358.237C152.136 352.993 148.085 352.233 146.2 352.233C143.961 352.233 140.073 353.145 138.821 356.641ZM140.367 368.224C140.367 366.354 141.015 365.169 142.385 364.409C142.989 364.105 143.549 363.937 146.715 363.132C148.129 362.797 148.336 362.752 148.498 362.706V366.491C148.498 369.349 146.863 372.145 143.961 372.145C141.855 372.145 140.353 370.489 140.353 368.224" fill="white"/>
<path d="M111.161 352.75C110.248 352.568 108.466 352.963 107.273 356.125L102.957 367.51L97.9936 352.674H95.4308L90.7177 367.555L85.0325 352.766H81.041L89.0828 373.483H90.1433L95.9169 357.143L101.528 373.483H102.707L108.451 358.724C109.467 356.11 110.498 353.632 111.161 352.75Z" fill="white"/>
</g>
<path opacity="0.8" d="M39.3625 410.86C37.3132 410.86 35.4765 410.425 33.8525 409.555C32.2479 408.685 30.9912 407.457 30.0825 405.872C29.1739 404.267 28.7195 402.411 28.7195 400.304C28.7195 398.196 29.1739 396.35 30.0825 394.765C30.9912 393.16 32.2479 391.923 33.8525 391.053C35.4765 390.163 37.3132 389.719 39.3625 389.719C42.1659 389.719 44.4859 390.453 46.3225 391.923V394.127C44.5825 392.561 42.3205 391.778 39.5365 391.778C37.8932 391.778 36.4239 392.126 35.1285 392.822C33.8332 393.518 32.8182 394.513 32.0835 395.809C31.3489 397.085 30.9815 398.583 30.9815 400.304C30.9815 402.024 31.3489 403.532 32.0835 404.828C32.8182 406.104 33.8235 407.09 35.0995 407.786C36.3949 408.482 37.8545 408.83 39.4785 408.83C40.4259 408.83 41.3442 408.723 42.2335 408.511C43.1229 408.279 43.8575 407.979 44.4375 407.612V401.377H40.1745V399.463H46.6995V408.569C45.7522 409.361 44.6695 409.941 43.4515 410.309C42.2529 410.676 40.8899 410.86 39.3625 410.86ZM50.2006 390.154H52.4626V410.425H50.2006V390.154ZM56.5437 390.154H69.5937V392.068H58.8057V399.318H66.8967V401.232H58.8057V410.425H56.5437V390.154ZM77.824 392.068H71.328V390.154H86.582V392.068H80.086V410.425H77.824V392.068Z" fill="white"/>
<g opacity="0.7">
<path d="M197.795 492.52L196.445 491.47L208.995 475.57C210.395 473.82 211.245 472.12 211.245 470.07C211.245 465.72 208.095 463.12 204.245 463.12C200.145 463.12 197.295 466.02 197.295 469.87C197.295 472.07 198.245 473.82 199.645 475.22L198.445 476.42C196.645 474.82 195.495 472.47 195.495 469.87C195.495 465.07 199.145 461.47 204.245 461.47C209.045 461.47 213.045 464.52 213.045 470.07C213.045 471.92 212.295 474.12 210.495 476.42L197.795 492.52ZM194.445 497.52V495.87H213.795V497.52H194.445ZM239.649 462.07V463.72H222.449V462.07H239.649ZM231.149 475.32C237.599 475.32 242.449 480.22 242.449 486.72C242.449 493.22 237.449 498.12 230.799 498.12C224.499 498.12 219.799 493.27 219.799 486.82H221.549C221.549 492.32 225.499 496.42 230.799 496.42C236.499 496.42 240.749 492.27 240.749 486.72C240.749 481.17 236.649 477.02 231.149 477.02C230.149 477.02 229.249 477.17 228.349 477.42V475.67L236.199 466.42L237.399 467.62L230.799 475.32H231.149ZM255.264 477.17C250.914 477.17 247.414 473.67 247.414 469.32C247.414 465.02 250.914 461.47 255.264 461.47C259.564 461.47 263.114 465.02 263.114 469.32C263.114 473.67 259.564 477.17 255.264 477.17ZM254.114 498.12L252.564 497.27L273.764 461.47L275.264 462.32L254.114 498.12ZM255.264 475.47C258.664 475.47 261.414 472.82 261.414 469.32C261.414 465.87 258.664 463.17 255.264 463.17C251.814 463.17 249.114 465.87 249.114 469.32C249.114 472.72 251.814 475.47 255.264 475.47ZM272.964 498.12C268.614 498.12 265.114 494.62 265.114 490.27C265.114 485.97 268.614 482.42 272.964 482.42C277.264 482.42 280.814 485.97 280.814 490.27C280.814 494.62 277.264 498.12 272.964 498.12ZM272.964 496.42C276.364 496.42 279.114 493.67 279.114 490.27C279.114 486.82 276.364 484.12 272.964 484.12C269.514 484.12 266.814 486.82 266.814 490.27C266.814 493.67 269.514 496.42 272.964 496.42Z" fill="white"/>
<path d="M197.795 492.52L197.611 492.756L197.846 492.939L198.031 492.705L197.795 492.52ZM196.445 491.47L196.21 491.284L196.023 491.521L196.261 491.706L196.445 491.47ZM208.995 475.57L208.761 475.382L208.76 475.384L208.995 475.57ZM199.645 475.22L199.858 475.432L200.07 475.22L199.858 475.007L199.645 475.22ZM198.445 476.42L198.246 476.644L198.458 476.832L198.658 476.632L198.445 476.42ZM210.495 476.42L210.731 476.605L210.732 476.604L210.495 476.42ZM194.445 497.52H194.145V497.82H194.445V497.52ZM194.445 495.87V495.57H194.145V495.87H194.445ZM213.795 495.87H214.095V495.57H213.795V495.87ZM213.795 497.52V497.82H214.095V497.52H213.795ZM197.98 492.283L196.63 491.233L196.261 491.706L197.611 492.756L197.98 492.283ZM196.681 491.655L209.231 475.755L208.76 475.384L196.21 491.284L196.681 491.655ZM209.23 475.757C210.652 473.979 211.545 472.214 211.545 470.07H210.945C210.945 472.025 210.139 473.66 208.761 475.382L209.23 475.757ZM211.545 470.07C211.545 467.818 210.728 465.999 209.395 464.745C208.064 463.493 206.238 462.82 204.245 462.82V463.42C206.103 463.42 207.777 464.046 208.984 465.182C210.188 466.315 210.945 467.971 210.945 470.07H211.545ZM204.245 462.82C199.984 462.82 196.995 465.849 196.995 469.87H197.595C197.595 466.19 200.307 463.42 204.245 463.42V462.82ZM196.995 469.87C196.995 472.167 197.991 473.989 199.433 475.432L199.858 475.007C198.5 473.65 197.595 471.973 197.595 469.87H196.995ZM199.433 475.007L198.233 476.207L198.658 476.632L199.858 475.432L199.433 475.007ZM198.645 476.195C196.906 474.649 195.795 472.38 195.795 469.87H195.195C195.195 472.559 196.385 474.99 198.246 476.644L198.645 476.195ZM195.795 469.87C195.795 465.244 199.302 461.77 204.245 461.77V461.17C198.989 461.17 195.195 464.895 195.195 469.87H195.795ZM204.245 461.77C206.583 461.77 208.707 462.512 210.244 463.91C211.776 465.305 212.745 467.371 212.745 470.07H213.345C213.345 467.218 212.315 464.984 210.647 463.466C208.984 461.952 206.708 461.17 204.245 461.17V461.77ZM212.745 470.07C212.745 471.838 212.028 473.975 210.259 476.235L210.732 476.604C212.563 474.264 213.345 472.001 213.345 470.07H212.745ZM210.26 476.234L197.56 492.334L198.031 492.705L210.731 476.605L210.26 476.234ZM194.745 497.52V495.87H194.145V497.52H194.745ZM194.445 496.17H213.795V495.57H194.445V496.17ZM213.495 495.87V497.52H214.095V495.87H213.495ZM213.795 497.22H194.445V497.82H213.795V497.22ZM239.649 462.07H239.949V461.77H239.649V462.07ZM239.649 463.72V464.02H239.949V463.72H239.649ZM222.449 463.72H222.149V464.02H222.449V463.72ZM222.449 462.07V461.77H222.149V462.07H222.449ZM219.799 486.82V486.52H219.499V486.82H219.799ZM221.549 486.82H221.849V486.52H221.549V486.82ZM228.349 477.42H228.049V477.814L228.429 477.709L228.349 477.42ZM228.349 475.67L228.12 475.475L228.049 475.559V475.67H228.349ZM236.199 466.42L236.411 466.207L236.181 465.977L235.97 466.225L236.199 466.42ZM237.399 467.62L237.626 467.815L237.807 467.604L237.611 467.407L237.399 467.62ZM230.799 475.32L230.571 475.124L230.146 475.62H230.799V475.32ZM239.349 462.07V463.72H239.949V462.07H239.349ZM239.649 463.42H222.449V464.02H239.649V463.42ZM222.749 463.72V462.07H222.149V463.72H222.749ZM222.449 462.37H239.649V461.77H222.449V462.37ZM231.149 475.62C237.43 475.62 242.149 480.383 242.149 486.72H242.749C242.749 480.056 237.767 475.02 231.149 475.02V475.62ZM242.149 486.72C242.149 493.048 237.289 497.82 230.799 497.82V498.42C237.608 498.42 242.749 493.391 242.749 486.72H242.149ZM230.799 497.82C224.672 497.82 220.099 493.112 220.099 486.82H219.499C219.499 493.427 224.325 498.42 230.799 498.42V497.82ZM219.799 487.12H221.549V486.52H219.799V487.12ZM221.249 486.82C221.249 492.475 225.323 496.72 230.799 496.72V496.12C225.675 496.12 221.849 492.164 221.849 486.82H221.249ZM230.799 496.72C236.657 496.72 241.049 492.442 241.049 486.72H240.449C240.449 492.097 236.34 496.12 230.799 496.12V496.72ZM241.049 486.72C241.049 481.007 236.817 476.72 231.149 476.72V477.32C236.48 477.32 240.449 481.332 240.449 486.72H241.049ZM231.149 476.72C230.117 476.72 229.19 476.875 228.268 477.13L228.429 477.709C229.308 477.464 230.18 477.32 231.149 477.32V476.72ZM228.649 477.42V475.67H228.049V477.42H228.649ZM228.577 475.864L236.427 466.614L235.97 466.225L228.12 475.475L228.577 475.864ZM235.986 466.632L237.186 467.832L237.611 467.407L236.411 466.207L235.986 466.632ZM237.171 467.424L230.571 475.124L231.026 475.515L237.626 467.815L237.171 467.424ZM230.799 475.62H231.149V475.02H230.799V475.62ZM254.114 498.12L253.97 498.383L254.225 498.522L254.373 498.272L254.114 498.12ZM252.564 497.27L252.306 497.117L252.148 497.383L252.42 497.533L252.564 497.27ZM273.764 461.47L273.912 461.209L273.656 461.063L273.506 461.317L273.764 461.47ZM275.264 462.32L275.523 462.472L275.678 462.209L275.412 462.059L275.264 462.32ZM255.264 476.87C251.08 476.87 247.714 473.504 247.714 469.32H247.114C247.114 473.835 250.749 477.47 255.264 477.47V476.87ZM247.714 469.32C247.714 465.184 251.081 461.77 255.264 461.77V461.17C250.747 461.17 247.114 464.855 247.114 469.32H247.714ZM255.264 461.77C259.399 461.77 262.814 465.185 262.814 469.32H263.414C263.414 464.854 259.73 461.17 255.264 461.17V461.77ZM262.814 469.32C262.814 473.503 259.4 476.87 255.264 476.87V477.47C259.729 477.47 263.414 473.836 263.414 469.32H262.814ZM254.258 497.856L252.708 497.006L252.42 497.533L253.97 498.383L254.258 497.856ZM252.822 497.422L274.022 461.622L273.506 461.317L252.306 497.117L252.822 497.422ZM273.616 461.731L275.116 462.581L275.412 462.059L273.912 461.209L273.616 461.731ZM275.006 462.167L253.856 497.967L254.373 498.272L275.523 462.472L275.006 462.167ZM255.264 475.77C258.827 475.77 261.714 472.988 261.714 469.32H261.114C261.114 472.651 258.502 475.17 255.264 475.17V475.77ZM261.714 469.32C261.714 465.702 258.828 462.87 255.264 462.87V463.47C258.5 463.47 261.114 466.037 261.114 469.32H261.714ZM255.264 462.87C251.649 462.87 248.814 465.704 248.814 469.32H249.414C249.414 466.035 251.98 463.47 255.264 463.47V462.87ZM248.814 469.32C248.814 472.884 251.647 475.77 255.264 475.77V475.17C251.981 475.17 249.414 472.555 249.414 469.32H248.814ZM272.964 497.82C268.78 497.82 265.414 494.454 265.414 490.27H264.814C264.814 494.785 268.449 498.42 272.964 498.42V497.82ZM265.414 490.27C265.414 486.134 268.781 482.72 272.964 482.72V482.12C268.447 482.12 264.814 485.805 264.814 490.27H265.414ZM272.964 482.72C277.099 482.72 280.514 486.135 280.514 490.27H281.114C281.114 485.804 277.43 482.12 272.964 482.12V482.72ZM280.514 490.27C280.514 494.453 277.1 497.82 272.964 497.82V498.42C277.429 498.42 281.114 494.786 281.114 490.27H280.514ZM272.964 496.72C276.53 496.72 279.414 493.835 279.414 490.27H278.814C278.814 493.504 276.199 496.12 272.964 496.12V496.72ZM279.414 490.27C279.414 486.652 276.528 483.82 272.964 483.82V484.42C276.2 484.42 278.814 486.987 278.814 490.27H279.414ZM272.964 483.82C269.349 483.82 266.514 486.654 266.514 490.27H267.114C267.114 486.985 269.68 484.42 272.964 484.42V483.82ZM266.514 490.27C266.514 493.834 269.347 496.72 272.964 496.72V496.12C269.682 496.12 267.114 493.505 267.114 490.27H266.514Z" fill="white"/>
</g>
<g filter="url(#filter2_di_4_566)">
<path d="M402.223 562H318.858C310.574 562 303.858 568.716 303.858 577V769.05C303.858 777.334 310.574 784.05 318.858 784.05H402.223V562Z" fill="url(#paint12_linear_4_566)" fill-opacity="0.5" shape-rendering="crispEdges"/>
</g>
<g filter="url(#filter3_di_4_566)">
<path d="M0 577C0 568.716 6.71573 562 15 562H288.858C297.142 562 303.858 568.716 303.858 577V770.998C303.858 779.282 297.142 785.998 288.858 785.998H15C6.71571 785.998 0 779.282 0 770.998V577Z" fill="#544D74" fill-opacity="0.7" shape-rendering="crispEdges"/>
</g>
<rect x="335.998" y="686.251" width="33.9546" height="3.18325" fill="white"/>
<path fill-rule="evenodd" clip-rule="evenodd" d="M350.441 676.134V651.599H354.323V680.434C354.323 681.197 353.876 681.89 353.18 682.204C352.485 682.517 351.67 682.395 351.098 681.89L338.344 670.637L340.912 667.726L350.441 676.134Z" fill="white"/>
<path fill-rule="evenodd" clip-rule="evenodd" d="M354.324 676.134V651.599H350.443V680.434C350.443 681.197 350.89 681.89 351.585 682.204C352.281 682.517 353.095 682.395 353.668 681.89L366.422 670.637L363.854 667.726L354.324 676.134Z" fill="white"/>
<path opacity="0.8" d="M39.3625 667.661C37.3132 667.661 35.4765 667.226 33.8525 666.356C32.2479 665.486 30.9912 664.258 30.0825 662.673C29.1739 661.068 28.7195 659.212 28.7195 657.105C28.7195 654.997 29.1739 653.151 30.0825 651.566C30.9912 649.961 32.2479 648.724 33.8525 647.854C35.4765 646.964 37.3132 646.52 39.3625 646.52C42.1659 646.52 44.4859 647.254 46.3225 648.724V650.928C44.5825 649.362 42.3205 648.579 39.5365 648.579C37.8932 648.579 36.4239 648.927 35.1285 649.623C33.8332 650.319 32.8182 651.314 32.0835 652.61C31.3489 653.886 30.9815 655.384 30.9815 657.105C30.9815 658.825 31.3489 660.333 32.0835 661.629C32.8182 662.905 33.8235 663.891 35.0995 664.587C36.3949 665.283 37.8545 665.631 39.4785 665.631C40.4259 665.631 41.3442 665.524 42.2335 665.312C43.1229 665.08 43.8575 664.78 44.4375 664.413V658.178H40.1745V656.264H46.6995V665.37C45.7522 666.162 44.6695 666.742 43.4515 667.11C42.2529 667.477 40.8899 667.661 39.3625 667.661ZM50.2006 646.955H52.4626V667.226H50.2006V646.955ZM56.5437 646.955H69.5937V648.869H58.8057V656.119H66.8967V658.033H58.8057V667.226H56.5437V646.955ZM77.824 648.869H71.328V646.955H86.582V648.869H80.086V667.226H77.824V648.869Z" fill="white"/>
<g opacity="0.7">
<path d="M201.531 748.32L200.181 747.27L212.731 731.37C214.131 729.62 214.981 727.92 214.981 725.87C214.981 721.52 211.831 718.92 207.981 718.92C203.881 718.92 201.031 721.82 201.031 725.67C201.031 727.87 201.981 729.62 203.381 731.02L202.181 732.22C200.381 730.62 199.231 728.27 199.231 725.67C199.231 720.87 202.881 717.27 207.981 717.27C212.781 717.27 216.781 720.32 216.781 725.87C216.781 727.72 216.031 729.92 214.231 732.22L201.531 748.32ZM198.181 753.32V751.67H217.531V753.32H198.181ZM223.084 730.27L222.034 729.07L235.484 717.27L236.584 718.47L223.084 730.27ZM234.684 753.32V723.47H236.384V753.32H234.684ZM251.529 732.97C247.179 732.97 243.679 729.47 243.679 725.12C243.679 720.82 247.179 717.27 251.529 717.27C255.829 717.27 259.379 720.82 259.379 725.12C259.379 729.47 255.829 732.97 251.529 732.97ZM250.379 753.92L248.829 753.07L270.029 717.27L271.529 718.12L250.379 753.92ZM251.529 731.27C254.929 731.27 257.679 728.62 257.679 725.12C257.679 721.67 254.929 718.97 251.529 718.97C248.079 718.97 245.379 721.67 245.379 725.12C245.379 728.52 248.079 731.27 251.529 731.27ZM269.229 753.92C264.879 753.92 261.379 750.42 261.379 746.07C261.379 741.77 264.879 738.22 269.229 738.22C273.529 738.22 277.079 741.77 277.079 746.07C277.079 750.42 273.529 753.92 269.229 753.92ZM269.229 752.22C272.629 752.22 275.379 749.47 275.379 746.07C275.379 742.62 272.629 739.92 269.229 739.92C265.779 739.92 263.079 742.62 263.079 746.07C263.079 749.47 265.779 752.22 269.229 752.22Z" fill="white"/>
<path d="M201.531 748.32L201.347 748.557L201.582 748.74L201.766 748.506L201.531 748.32ZM200.181 747.27L199.945 747.084L199.758 747.322L199.997 747.507L200.181 747.27ZM212.731 731.37L212.497 731.183L212.495 731.184L212.731 731.37ZM203.381 731.02L203.593 731.232L203.805 731.02L203.593 730.808L203.381 731.02ZM202.181 732.22L201.982 732.445L202.193 732.632L202.393 732.432L202.181 732.22ZM214.231 732.22L214.466 732.406L214.467 732.405L214.231 732.22ZM198.181 753.32H197.881V753.62H198.181V753.32ZM198.181 751.67V751.37H197.881V751.67H198.181ZM217.531 751.67H217.831V751.37H217.531V751.67ZM217.531 753.32V753.62H217.831V753.32H217.531ZM201.715 748.084L200.365 747.034L199.997 747.507L201.347 748.557L201.715 748.084ZM200.416 747.456L212.966 731.556L212.495 731.184L199.945 747.084L200.416 747.456ZM212.965 731.558C214.388 729.78 215.281 728.015 215.281 725.87H214.681C214.681 727.826 213.874 729.461 212.497 731.183L212.965 731.558ZM215.281 725.87C215.281 723.619 214.464 721.8 213.13 720.546C211.799 719.293 209.973 718.62 207.981 718.62V719.22C209.839 719.22 211.512 719.847 212.719 720.983C213.923 722.115 214.681 723.772 214.681 725.87H215.281ZM207.981 718.62C203.72 718.62 200.731 721.65 200.731 725.67H201.331C201.331 721.99 204.042 719.22 207.981 719.22V718.62ZM200.731 725.67C200.731 727.967 201.726 729.79 203.169 731.232L203.593 730.808C202.236 729.451 201.331 727.773 201.331 725.67H200.731ZM203.169 730.808L201.969 732.008L202.393 732.432L203.593 731.232L203.169 730.808ZM202.38 731.996C200.641 730.45 199.531 728.18 199.531 725.67H198.931C198.931 728.36 200.121 730.79 201.982 732.445L202.38 731.996ZM199.531 725.67C199.531 721.045 203.037 717.57 207.981 717.57V716.97C202.724 716.97 198.931 720.695 198.931 725.67H199.531ZM207.981 717.57C210.319 717.57 212.443 718.313 213.979 719.711C215.511 721.105 216.481 723.172 216.481 725.87H217.081C217.081 723.018 216.051 720.785 214.383 719.267C212.719 717.753 210.443 716.97 207.981 716.97V717.57ZM216.481 725.87C216.481 727.639 215.763 729.775 213.995 732.035L214.467 732.405C216.298 730.065 217.081 727.802 217.081 725.87H216.481ZM213.995 732.035L201.295 748.135L201.766 748.506L214.466 732.406L213.995 732.035ZM198.481 753.32V751.67H197.881V753.32H198.481ZM198.181 751.97H217.531V751.37H198.181V751.97ZM217.231 751.67V753.32H217.831V751.67H217.231ZM217.531 753.02H198.181V753.62H217.531V753.02ZM223.084 730.27L222.858 730.468L223.056 730.694L223.281 730.496L223.084 730.27ZM222.034 729.07L221.836 728.845L221.611 729.042L221.808 729.268L222.034 729.07ZM235.484 717.27L235.705 717.068L235.507 716.851L235.286 717.045L235.484 717.27ZM236.584 718.47L236.781 718.696L237.013 718.494L236.805 718.268L236.584 718.47ZM234.684 753.32H234.384V753.62H234.684V753.32ZM234.684 723.47V723.17H234.384V723.47H234.684ZM236.384 723.47H236.684V723.17H236.384V723.47ZM236.384 753.32V753.62H236.684V753.32H236.384ZM223.31 730.073L222.26 728.873L221.808 729.268L222.858 730.468L223.31 730.073ZM222.232 729.296L235.682 717.496L235.286 717.045L221.836 728.845L222.232 729.296ZM235.263 717.473L236.363 718.673L236.805 718.268L235.705 717.068L235.263 717.473ZM236.387 718.244L222.887 730.044L223.281 730.496L236.781 718.696L236.387 718.244ZM234.984 753.32V723.47H234.384V753.32H234.984ZM234.684 723.77H236.384V723.17H234.684V723.77ZM236.084 723.47V753.32H236.684V723.47H236.084ZM236.384 753.02H234.684V753.62H236.384V753.02ZM250.379 753.92L250.235 754.183L250.489 754.323L250.637 754.073L250.379 753.92ZM248.829 753.07L248.571 752.917L248.413 753.184L248.685 753.333L248.829 753.07ZM270.029 717.27L270.177 717.009L269.921 716.864L269.771 717.117L270.029 717.27ZM271.529 718.12L271.787 718.273L271.943 718.01L271.677 717.859L271.529 718.12ZM251.529 732.67C247.345 732.67 243.979 729.305 243.979 725.12H243.379C243.379 729.636 247.013 733.27 251.529 733.27V732.67ZM243.979 725.12C243.979 720.985 247.346 717.57 251.529 717.57V716.97C247.012 716.97 243.379 720.656 243.379 725.12H243.979ZM251.529 717.57C255.663 717.57 259.079 720.986 259.079 725.12H259.679C259.679 720.655 255.995 716.97 251.529 716.97V717.57ZM259.079 725.12C259.079 729.303 255.664 732.67 251.529 732.67V733.27C255.993 733.27 259.679 729.637 259.679 725.12H259.079ZM250.523 753.657L248.973 752.807L248.685 753.333L250.235 754.183L250.523 753.657ZM249.087 753.223L270.287 717.423L269.771 717.117L248.571 752.917L249.087 753.223ZM269.881 717.531L271.381 718.381L271.677 717.859L270.177 717.009L269.881 717.531ZM271.271 717.968L250.121 753.768L250.637 754.073L271.787 718.273L271.271 717.968ZM251.529 731.57C255.091 731.57 257.979 728.789 257.979 725.12H257.379C257.379 728.451 254.766 730.97 251.529 730.97V731.57ZM257.979 725.12C257.979 721.503 255.093 718.67 251.529 718.67V719.27C254.765 719.27 257.379 721.838 257.379 725.12H257.979ZM251.529 718.67C247.913 718.67 245.079 721.505 245.079 725.12H245.679C245.679 721.836 248.245 719.27 251.529 719.27V718.67ZM245.079 725.12C245.079 728.684 247.912 731.57 251.529 731.57V730.97C248.246 730.97 245.679 728.356 245.679 725.12H245.079ZM269.229 753.62C265.045 753.62 261.679 750.255 261.679 746.07H261.079C261.079 750.586 264.713 754.22 269.229 754.22V753.62ZM261.679 746.07C261.679 741.935 265.046 738.52 269.229 738.52V737.92C264.712 737.92 261.079 741.606 261.079 746.07H261.679ZM269.229 738.52C273.363 738.52 276.779 741.936 276.779 746.07H277.379C277.379 741.605 273.695 737.92 269.229 737.92V738.52ZM276.779 746.07C276.779 750.253 273.364 753.62 269.229 753.62V754.22C273.693 754.22 277.379 750.587 277.379 746.07H276.779ZM269.229 752.52C272.795 752.52 275.679 749.636 275.679 746.07H275.079C275.079 749.305 272.463 751.92 269.229 751.92V752.52ZM275.679 746.07C275.679 742.453 272.793 739.62 269.229 739.62V740.22C272.465 740.22 275.079 742.788 275.079 746.07H275.679ZM269.229 739.62C265.613 739.62 262.779 742.455 262.779 746.07H263.379C263.379 742.786 265.945 740.22 269.229 740.22V739.62ZM262.779 746.07C262.779 749.634 265.612 752.52 269.229 752.52V751.92C265.946 751.92 263.379 749.306 263.379 746.07H262.779Z" fill="white"/>
</g>
<g clip-path="url(#clip1_4_566)">
<path d="M200.133 626.992H207.001L193.444 595L186.837 595.008C187.226 596.108 186.547 598.241 185.819 600.104L174.928 626.992H178.753L183.559 615.316H195.34L200.138 626.992H200.133ZM184.652 612.641L189.445 600.99L194.235 612.641H184.652Z" fill="white"/>
<path d="M89.4334 611.907H103.288V609.613H89.4334V597.293H105.11V595L81.9863 595.008C81.9863 595.008 82.6818 596.218 82.6818 599.562V627H105.544V624.711H89.4292V611.907H89.4334Z" fill="white"/>
<path d="M50.7077 609.614H36.447V595.009H29C29 595.009 29.6954 596.219 29.6954 599.563V627.001H36.447V612.182H50.7077V627.001H57.4593V595.009H50.7077V609.614Z" fill="white"/>
<path d="M144.951 611.209C146.383 610.758 147.857 610.085 149.248 609.055C154.236 605.363 152.99 599.07 149.687 596.986C147.559 595.644 145.46 595 141.288 595H128.074C128.074 595 128.77 596.21 128.77 599.554V626.992H135.538V612.042H137.322C137.421 612.042 137.537 612.042 137.666 612.046C139.673 612.177 140.77 612.764 142.48 614.955L150.879 626.992H157.755C157.755 626.992 148.78 614.631 148.035 613.675C147.398 612.85 146.383 611.636 144.955 611.209M137.086 609.782H135.538V597.236H136.995C139.379 597.236 142.865 597.265 144.653 599.907C146.354 602.422 145.787 605.359 144.533 607.037C142.981 609.121 141.246 609.777 137.086 609.777" fill="white"/>
</g>
<g filter="url(#filter4_di_4_566)">
<path d="M402.223 820H318.858C310.574 820 303.858 826.716 303.858 835V1027.05C303.858 1035.33 310.574 1042.05 318.858 1042.05H402.223V820Z" fill="url(#paint13_linear_4_566)" fill-opacity="0.5" shape-rendering="crispEdges"/>
</g>
<g filter="url(#filter5_di_4_566)">
<path d="M0 835C0 826.716 6.71573 820 15 820H288.858C297.142 820 303.858 826.716 303.858 835V1029C303.858 1037.28 297.142 1044 288.858 1044H15C6.71571 1044 0 1037.28 0 1029V835Z" fill="#544D74" fill-opacity="0.7" shape-rendering="crispEdges"/>
</g>
<rect x="335.998" y="944.251" width="33.9546" height="3.18325" fill="white"/>
<path fill-rule="evenodd" clip-rule="evenodd" d="M350.441 934.134V909.599H354.323V938.434C354.323 939.197 353.876 939.89 353.18 940.204C352.485 940.517 351.67 940.395 351.098 939.89L338.344 928.637L340.912 925.726L350.441 934.134Z" fill="white"/>
<path fill-rule="evenodd" clip-rule="evenodd" d="M354.324 934.134V909.599H350.443V938.434C350.443 939.197 350.89 939.89 351.585 940.204C352.281 940.517 353.095 940.395 353.668 939.89L366.422 928.637L363.854 925.726L354.324 934.134Z" fill="white"/>
<path opacity="0.8" d="M39.3625 925.661C37.3132 925.661 35.4765 925.226 33.8525 924.356C32.2479 923.486 30.9912 922.258 30.0825 920.673C29.1739 919.068 28.7195 917.212 28.7195 915.105C28.7195 912.997 29.1739 911.151 30.0825 909.566C30.9912 907.961 32.2479 906.724 33.8525 905.854C35.4765 904.964 37.3132 904.52 39.3625 904.52C42.1659 904.52 44.4859 905.254 46.3225 906.724V908.928C44.5825 907.362 42.3205 906.579 39.5365 906.579C37.8932 906.579 36.4239 906.927 35.1285 907.623C33.8332 908.319 32.8182 909.314 32.0835 910.61C31.3489 911.886 30.9815 913.384 30.9815 915.105C30.9815 916.825 31.3489 918.333 32.0835 919.629C32.8182 920.905 33.8235 921.891 35.0995 922.587C36.3949 923.283 37.8545 923.631 39.4785 923.631C40.4259 923.631 41.3442 923.524 42.2335 923.312C43.1229 923.08 43.8575 922.78 44.4375 922.413V916.178H40.1745V914.264H46.6995V923.37C45.7522 924.162 44.6695 924.742 43.4515 925.11C42.2529 925.477 40.8899 925.661 39.3625 925.661ZM50.2006 904.955H52.4626V925.226H50.2006V904.955ZM56.5437 904.955H69.5937V906.869H58.8057V914.119H66.8967V916.033H58.8057V925.226H56.5437V904.955ZM77.824 906.869H71.328V904.955H86.582V906.869H80.086V925.226H77.824V906.869Z" fill="white"/>
<g opacity="0.7">
<path d="M211.865 975.87V977.52H194.665V975.87H211.865ZM203.365 989.12C209.815 989.12 214.665 994.02 214.665 1000.52C214.665 1007.02 209.665 1011.92 203.015 1011.92C196.715 1011.92 192.015 1007.07 192.015 1000.62H193.765C193.765 1006.12 197.715 1010.22 203.015 1010.22C208.715 1010.22 212.965 1006.07 212.965 1000.52C212.965 994.97 208.865 990.82 203.365 990.82C202.365 990.82 201.465 990.97 200.565 991.22V989.47L208.415 980.22L209.615 981.42L203.015 989.12H203.365ZM238.731 975.87V977.52H226.831V975.87H238.731ZM232.431 989.12C238.631 989.12 243.281 994.02 243.281 1000.52C243.281 1007.02 238.431 1011.92 231.981 1011.92C225.531 1011.92 220.631 1006.92 220.631 1000.67H222.331C222.331 1005.97 226.581 1010.22 231.981 1010.22C237.481 1010.22 241.581 1006.07 241.581 1000.52C241.581 994.97 237.681 990.77 232.431 990.77C230.131 990.77 228.331 991.37 226.831 992.12V980.77H228.481V989.72C229.581 989.32 230.881 989.12 232.431 989.12ZM256.094 990.97C251.744 990.97 248.244 987.47 248.244 983.12C248.244 978.82 251.744 975.27 256.094 975.27C260.394 975.27 263.944 978.82 263.944 983.12C263.944 987.47 260.394 990.97 256.094 990.97ZM254.944 1011.92L253.394 1011.07L274.594 975.27L276.094 976.12L254.944 1011.92ZM256.094 989.27C259.494 989.27 262.244 986.62 262.244 983.12C262.244 979.67 259.494 976.97 256.094 976.97C252.644 976.97 249.944 979.67 249.944 983.12C249.944 986.52 252.644 989.27 256.094 989.27ZM273.794 1011.92C269.444 1011.92 265.944 1008.42 265.944 1004.07C265.944 999.77 269.444 996.22 273.794 996.22C278.094 996.22 281.644 999.77 281.644 1004.07C281.644 1008.42 278.094 1011.92 273.794 1011.92ZM273.794 1010.22C277.194 1010.22 279.944 1007.47 279.944 1004.07C279.944 1000.62 277.194 997.92 273.794 997.92C270.344 997.92 267.644 1000.62 267.644 1004.07C267.644 1007.47 270.344 1010.22 273.794 1010.22Z" fill="white"/>
<path d="M211.865 975.87H212.165V975.57H211.865V975.87ZM211.865 977.52V977.82H212.165V977.52H211.865ZM194.665 977.52H194.365V977.82H194.665V977.52ZM194.665 975.87V975.57H194.365V975.87H194.665ZM192.015 1000.62V1000.32H191.715V1000.62H192.015ZM193.765 1000.62H194.065V1000.32H193.765V1000.62ZM200.565 991.22H200.265V991.615L200.646 991.509L200.565 991.22ZM200.565 989.47L200.337 989.276L200.265 989.36V989.47H200.565ZM208.415 980.22L208.628 980.008L208.397 979.778L208.187 980.026L208.415 980.22ZM209.615 981.42L209.843 981.616L210.024 981.405L209.828 981.208L209.615 981.42ZM203.015 989.12L202.788 988.925L202.363 989.42H203.015V989.12ZM211.565 975.87V977.52H212.165V975.87H211.565ZM211.865 977.22H194.665V977.82H211.865V977.22ZM194.965 977.52V975.87H194.365V977.52H194.965ZM194.665 976.17H211.865V975.57H194.665V976.17ZM203.365 989.42C209.647 989.42 214.365 994.183 214.365 1000.52H214.965C214.965 993.857 209.984 988.82 203.365 988.82V989.42ZM214.365 1000.52C214.365 1006.85 209.506 1011.62 203.015 1011.62V1012.22C209.825 1012.22 214.965 1007.19 214.965 1000.52H214.365ZM203.015 1011.62C196.889 1011.62 192.315 1006.91 192.315 1000.62H191.715C191.715 1007.23 196.542 1012.22 203.015 1012.22V1011.62ZM192.015 1000.92H193.765V1000.32H192.015V1000.92ZM193.465 1000.62C193.465 1006.28 197.539 1010.52 203.015 1010.52V1009.92C197.891 1009.92 194.065 1005.97 194.065 1000.62H193.465ZM203.015 1010.52C208.874 1010.52 213.265 1006.24 213.265 1000.52H212.665C212.665 1005.9 208.557 1009.92 203.015 1009.92V1010.52ZM213.265 1000.52C213.265 994.808 209.034 990.52 203.365 990.52V991.12C208.697 991.12 212.665 995.133 212.665 1000.52H213.265ZM203.365 990.52C202.334 990.52 201.406 990.675 200.485 990.931L200.646 991.509C201.524 991.265 202.397 991.12 203.365 991.12V990.52ZM200.865 991.22V989.47H200.265V991.22H200.865ZM200.794 989.664L208.644 980.414L208.187 980.026L200.337 989.276L200.794 989.664ZM208.203 980.432L209.403 981.632L209.828 981.208L208.628 980.008L208.203 980.432ZM209.388 981.225L202.788 988.925L203.243 989.316L209.843 981.616L209.388 981.225ZM203.015 989.42H203.365V988.82H203.015V989.42ZM238.731 975.87H239.031V975.57H238.731V975.87ZM238.731 977.52V977.82H239.031V977.52H238.731ZM226.831 977.52H226.531V977.82H226.831V977.52ZM226.831 975.87V975.57H226.531V975.87H226.831ZM220.631 1000.67V1000.37H220.331V1000.67H220.631ZM222.331 1000.67H222.631V1000.37H222.331V1000.67ZM226.831 992.12H226.531V992.606L226.965 992.389L226.831 992.12ZM226.831 980.77V980.47H226.531V980.77H226.831ZM228.481 980.77H228.781V980.47H228.481V980.77ZM228.481 989.72H228.181V990.149L228.584 990.002L228.481 989.72ZM238.431 975.87V977.52H239.031V975.87H238.431ZM238.731 977.22H226.831V977.82H238.731V977.22ZM227.131 977.52V975.87H226.531V977.52H227.131ZM226.831 976.17H238.731V975.57H226.831V976.17ZM232.431 989.42C238.451 989.42 242.981 994.172 242.981 1000.52H243.581C243.581 993.869 238.811 988.82 232.431 988.82V989.42ZM242.981 1000.52C242.981 1006.86 238.263 1011.62 231.981 1011.62V1012.22C238.599 1012.22 243.581 1007.18 243.581 1000.52H242.981ZM231.981 1011.62C225.697 1011.62 220.931 1006.75 220.931 1000.67H220.331C220.331 1007.09 225.365 1012.22 231.981 1012.22V1011.62ZM220.631 1000.97H222.331V1000.37H220.631V1000.97ZM222.031 1000.67C222.031 1006.14 226.417 1010.52 231.981 1010.52V1009.92C226.745 1009.92 222.631 1005.8 222.631 1000.67H222.031ZM231.981 1010.52C237.65 1010.52 241.881 1006.23 241.881 1000.52H241.281C241.281 1005.91 237.312 1009.92 231.981 1009.92V1010.52ZM241.881 1000.52C241.881 994.824 237.865 990.47 232.431 990.47V991.07C237.497 991.07 241.281 995.117 241.281 1000.52H241.881ZM232.431 990.47C230.074 990.47 228.229 991.086 226.697 991.852L226.965 992.389C228.434 991.654 230.188 991.07 232.431 991.07V990.47ZM227.131 992.12V980.77H226.531V992.12H227.131ZM226.831 981.07H228.481V980.47H226.831V981.07ZM228.181 980.77V989.72H228.781V980.77H228.181ZM228.584 990.002C229.642 989.617 230.906 989.42 232.431 989.42V988.82C230.856 988.82 229.52 989.023 228.379 989.438L228.584 990.002ZM254.944 1011.92L254.8 1012.18L255.055 1012.32L255.203 1012.07L254.944 1011.92ZM253.394 1011.07L253.136 1010.92L252.978 1011.18L253.25 1011.33L253.394 1011.07ZM274.594 975.27L274.742 975.009L274.486 974.864L274.336 975.117L274.594 975.27ZM276.094 976.12L276.353 976.273L276.508 976.01L276.242 975.859L276.094 976.12ZM256.094 990.67C251.91 990.67 248.544 987.305 248.544 983.12H247.944C247.944 987.636 251.579 991.27 256.094 991.27V990.67ZM248.544 983.12C248.544 978.985 251.911 975.57 256.094 975.57V974.97C251.577 974.97 247.944 978.656 247.944 983.12H248.544ZM256.094 975.57C260.229 975.57 263.644 978.986 263.644 983.12H264.244C264.244 978.655 260.56 974.97 256.094 974.97V975.57ZM263.644 983.12C263.644 987.303 260.23 990.67 256.094 990.67V991.27C260.559 991.27 264.244 987.637 264.244 983.12H263.644ZM255.089 1011.66L253.539 1010.81L253.25 1011.33L254.8 1012.18L255.089 1011.66ZM253.652 1011.22L274.852 975.423L274.336 975.117L253.136 1010.92L253.652 1011.22ZM274.446 975.531L275.946 976.381L276.242 975.859L274.742 975.009L274.446 975.531ZM275.836 975.968L254.686 1011.77L255.203 1012.07L276.353 976.273L275.836 975.968ZM256.094 989.57C259.657 989.57 262.544 986.789 262.544 983.12H261.944C261.944 986.451 259.332 988.97 256.094 988.97V989.57ZM262.544 983.12C262.544 979.503 259.658 976.67 256.094 976.67V977.27C259.33 977.27 261.944 979.838 261.944 983.12H262.544ZM256.094 976.67C252.479 976.67 249.644 979.505 249.644 983.12H250.244C250.244 979.836 252.81 977.27 256.094 977.27V976.67ZM249.644 983.12C249.644 986.684 252.477 989.57 256.094 989.57V988.97C252.812 988.97 250.244 986.356 250.244 983.12H249.644ZM273.794 1011.62C269.61 1011.62 266.244 1008.25 266.244 1004.07H265.644C265.644 1008.59 269.279 1012.22 273.794 1012.22V1011.62ZM266.244 1004.07C266.244 999.935 269.611 996.52 273.794 996.52V995.92C269.277 995.92 265.644 999.606 265.644 1004.07H266.244ZM273.794 996.52C277.929 996.52 281.344 999.936 281.344 1004.07H281.944C281.944 999.605 278.26 995.92 273.794 995.92V996.52ZM281.344 1004.07C281.344 1008.25 277.93 1011.62 273.794 1011.62V1012.22C278.259 1012.22 281.944 1008.59 281.944 1004.07H281.344ZM273.794 1010.52C277.36 1010.52 280.244 1007.64 280.244 1004.07H279.644C279.644 1007.3 277.029 1009.92 273.794 1009.92V1010.52ZM280.244 1004.07C280.244 1000.45 277.358 997.62 273.794 997.62V998.22C277.03 998.22 279.644 1000.79 279.644 1004.07H280.244ZM273.794 997.62C270.179 997.62 267.344 1000.45 267.344 1004.07H267.944C267.944 1000.79 270.51 998.22 273.794 998.22V997.62ZM267.344 1004.07C267.344 1007.63 270.177 1010.52 273.794 1010.52V1009.92C270.512 1009.92 267.944 1007.31 267.944 1004.07H267.344Z" fill="white"/>
</g>
<g clip-path="url(#clip2_4_566)">
<path d="M37.3733 851.65H31V886.85H37.3733V851.65Z" fill="white"/>
<path d="M122.668 851.65V886.85H128.781H146V884.551H129.041V869.801H142.862V867.508H129.041V853.95H146V851.65H122.668Z" fill="white"/>
<path d="M103.424 851.657H103.275L89.1152 851.65V886.85H95.4886V873.504H101.96C110.631 873.672 115.247 869.865 115.247 862.297C115.247 854.935 110.032 851.631 103.431 851.663M101.185 871.211H95.4951V853.937H101.406C106.386 854.182 108.574 858.085 108.769 861.821C108.99 866.059 106.295 870.98 101.185 871.205" fill="white"/>
<path d="M63.2445 851C72.925 851.013 79.8126 859.103 79.7996 869.312C79.7866 879.533 72.8729 887.604 63.1924 887.591C53.5641 887.578 46.6765 879.495 46.6895 869.273C46.709 859.051 53.6162 850.981 63.2445 851ZM63.2055 885.343C71.2454 885.343 73.0552 876.049 73.0552 869.305C73.0682 862.568 71.2779 853.254 63.2445 853.241C55.2111 853.235 53.4469 862.542 53.4339 869.279C53.4274 876.017 55.1656 885.324 63.2055 885.337" fill="white"/>
</g>
<g filter="url(#filter6_di_4_566)">
<path d="M402.223 1083H318.858C310.574 1083 303.858 1089.72 303.858 1098V1290.05C303.858 1298.33 310.574 1305.05 318.858 1305.05H402.223V1083Z" fill="url(#paint14_linear_4_566)" fill-opacity="0.5" shape-rendering="crispEdges"/>
</g>
<g filter="url(#filter7_di_4_566)">
<path d="M0 1098C0 1089.72 6.71573 1083 15 1083H288.858C297.142 1083 303.858 1089.72 303.858 1098V1292C303.858 1300.28 297.142 1307 288.858 1307H15C6.71571 1307 0 1300.28 0 1292V1098Z" fill="#544D74" fill-opacity="0.7" shape-rendering="crispEdges"/>
</g>
<g clip-path="url(#clip3_4_566)">
<path d="M75.7928 1130.03C75.8301 1130.03 75.8749 1130.03 75.9122 1130.01C76.054 1129.98 76.1808 1129.89 76.2555 1129.77L82.5084 1119.96L88.7314 1128.89C88.8135 1129.01 88.9478 1129.09 89.0896 1129.12C89.2388 1129.15 89.3806 1129.11 89.5075 1129.03L91.94 1127.33C92.0594 1127.24 92.1414 1127.12 92.1713 1126.97C92.1937 1126.83 92.1713 1126.68 92.0818 1126.57L82.8218 1113.34C82.7173 1113.19 82.5382 1113.1 82.3591 1113.1C82.1801 1113.1 82.001 1113.2 81.904 1113.36L72.8305 1127.59C72.6664 1127.84 72.741 1128.18 73.0021 1128.35L75.4944 1129.94C75.5839 1129.99 75.6884 1130.03 75.7854 1130.03H75.7928ZM93.686 1122.59H101.983V1128.5C101.983 1128.64 102.043 1128.79 102.14 1128.88C102.245 1128.99 102.386 1129.05 102.536 1129.05H105.52C105.67 1129.05 105.811 1128.99 105.908 1128.88C106.013 1128.79 106.065 1128.64 106.065 1128.5V1113.98C106.065 1113.84 106.005 1113.7 105.908 1113.59C105.804 1113.49 105.662 1113.43 105.52 1113.43H102.536C102.394 1113.43 102.245 1113.49 102.14 1113.59C102.043 1113.7 101.983 1113.84 101.983 1113.98V1118.53H93.686C93.5368 1118.53 93.395 1118.59 93.298 1118.69C93.1936 1118.79 93.1339 1118.93 93.1339 1119.08V1122.04C93.1339 1122.18 93.1936 1122.33 93.298 1122.43C93.4025 1122.53 93.5443 1122.59 93.686 1122.59ZM107.602 1143.64H79.7177V1141.79H105.379C105.52 1141.79 105.67 1141.73 105.774 1141.63C105.871 1141.53 105.931 1141.39 105.931 1141.24V1132.09C105.931 1131.94 105.871 1131.8 105.774 1131.7C105.67 1131.6 105.528 1131.54 105.379 1131.54H76.5092C76.3674 1131.54 76.2256 1131.6 76.1211 1131.7C76.0167 1131.81 75.957 1131.95 75.957 1132.09V1135.05C75.957 1135.2 76.0167 1135.34 76.1211 1135.45C76.2256 1135.55 76.3674 1135.6 76.5092 1135.6H101.849V1137.72H76.1883C76.0391 1137.72 75.8973 1137.78 75.8003 1137.89C75.6958 1137.98 75.6361 1138.13 75.6361 1138.27V1147.15C75.6361 1147.3 75.6958 1147.44 75.8003 1147.54C75.9048 1147.64 76.0465 1147.7 76.1883 1147.7H107.602C107.751 1147.7 107.886 1147.64 107.998 1147.54C108.102 1147.44 108.162 1147.3 108.162 1147.15V1144.19C108.162 1144.05 108.102 1143.9 107.998 1143.81C107.893 1143.7 107.751 1143.65 107.602 1143.65V1143.64ZM46.5877 1128.16C48.1919 1129.67 50.4006 1130.58 52.8033 1130.58C55.2059 1130.58 57.4146 1129.67 59.0189 1128.16C60.6232 1126.65 61.6529 1124.52 61.6529 1122.16C61.6529 1119.8 60.6232 1117.66 59.0189 1116.16C57.4146 1114.64 55.2059 1113.73 52.8107 1113.73C50.4155 1113.73 48.2069 1114.64 46.5951 1116.16C44.9909 1117.66 43.9611 1119.79 43.9611 1122.15V1122.17C43.9611 1124.52 44.9909 1126.65 46.5951 1128.15L46.5877 1128.16ZM49.4231 1119.16C50.2737 1118.37 51.4602 1117.86 52.8033 1117.86C54.1464 1117.86 55.3328 1118.38 56.1834 1119.16C57.0341 1119.96 57.5116 1121 57.5191 1122.16C57.5191 1123.31 57.0341 1124.35 56.1834 1125.16C55.3328 1125.96 54.1538 1126.46 52.8107 1126.46C51.4676 1126.46 50.2812 1125.96 49.4306 1125.15C48.5874 1124.35 48.1024 1123.31 48.0949 1122.16C48.0949 1121 48.5799 1119.96 49.4306 1119.16L49.4231 1119.16ZM71.0397 1141.54H54.6762V1133.52C54.6762 1133.38 54.6165 1133.23 54.512 1133.14C54.415 1133.03 54.2658 1132.97 54.124 1132.97H51.2885C51.1393 1132.97 50.9975 1133.03 50.9005 1133.14C50.7961 1133.23 50.7364 1133.38 50.7364 1133.52V1141.54H32.5522C32.4029 1141.54 32.2612 1141.6 32.1642 1141.7C32.0597 1141.81 32 1141.95 32 1142.1V1145.06C32 1145.21 32.0597 1145.35 32.1642 1145.45C32.2686 1145.55 32.4104 1145.61 32.5522 1145.61H71.0472C71.1964 1145.61 71.3307 1145.55 71.4352 1145.45C71.5396 1145.34 71.5993 1145.21 71.5993 1145.06V1142.1C71.5993 1141.95 71.5396 1141.81 71.4352 1141.7C71.3307 1141.6 71.1889 1141.54 71.0472 1141.54H71.0397ZM146.448 1133.28H130.659V1130.02H141.941C142.09 1130.02 142.225 1129.97 142.329 1129.86C142.433 1129.76 142.493 1129.62 142.493 1129.48V1126.51C142.493 1126.36 142.433 1126.22 142.329 1126.12C142.225 1126.02 142.083 1125.96 141.941 1125.96H121.839V1123.62H136.718C136.867 1123.62 137.009 1123.56 137.106 1123.46C137.21 1123.36 137.27 1123.22 137.27 1123.07V1113.55C137.27 1113.41 137.21 1113.27 137.106 1113.16C137.009 1113.07 136.867 1113.01 136.718 1113.01H120.123C119.981 1113.01 119.832 1113.07 119.735 1113.16C119.63 1113.27 119.571 1113.41 119.571 1113.55V1116.51C119.571 1116.66 119.63 1116.79 119.735 1116.9C119.839 1117 119.981 1117.06 120.123 1117.06H133.188V1119.55H118.31C118.004 1119.55 117.75 1119.79 117.75 1120.1V1129.47C117.75 1129.61 117.81 1129.75 117.914 1129.85C118.019 1129.96 118.16 1130.01 118.31 1130.01H126.577V1133.28H111.363C111.221 1133.28 111.079 1133.34 110.975 1133.43C110.87 1133.54 110.811 1133.68 110.811 1133.82V1136.78C110.811 1136.93 110.87 1137.07 110.975 1137.18C111.079 1137.28 111.221 1137.33 111.363 1137.33H146.448C146.59 1137.33 146.731 1137.27 146.836 1137.18C146.94 1137.07 147 1136.93 147 1136.78V1133.82C147 1133.67 146.94 1133.53 146.836 1133.43C146.731 1133.33 146.59 1133.27 146.448 1133.27V1133.28ZM145.963 1139.97H111.184C111.035 1139.97 110.893 1140.03 110.796 1140.14C110.691 1140.23 110.632 1140.38 110.632 1140.52V1143.49C110.632 1143.64 110.691 1143.78 110.796 1143.89C110.893 1143.98 111.042 1144.04 111.184 1144.04H142.426V1150.45C142.426 1150.6 142.486 1150.74 142.59 1150.84C142.687 1150.94 142.829 1151 142.978 1151H145.955C146.105 1151 146.246 1150.94 146.343 1150.84C146.448 1150.74 146.5 1150.59 146.5 1150.45V1140.52C146.5 1140.38 146.448 1140.24 146.343 1140.14C146.239 1140.03 146.097 1139.97 145.955 1139.97H145.963Z" fill="white"/>
</g>
<rect x="335.998" y="1207.25" width="33.9546" height="3.18325" fill="white"/>
<path fill-rule="evenodd" clip-rule="evenodd" d="M350.441 1197.13V1172.6H354.323V1201.43C354.323 1202.2 353.876 1202.89 353.18 1203.2C352.485 1203.52 351.67 1203.39 351.098 1202.89L338.344 1191.64L340.912 1188.73L350.441 1197.13Z" fill="white"/>
<path fill-rule="evenodd" clip-rule="evenodd" d="M354.324 1197.13V1172.6H350.443V1201.43C350.443 1202.2 350.89 1202.89 351.585 1203.2C352.281 1203.52 353.095 1203.39 353.668 1202.89L366.422 1191.64L363.854 1188.73L354.324 1197.13Z" fill="white"/>
<path opacity="0.8" d="M39.3625 1188.66C37.3132 1188.66 35.4765 1188.23 33.8525 1187.36C32.2479 1186.49 30.9912 1185.26 30.0825 1183.67C29.1739 1182.07 28.7195 1180.21 28.7195 1178.1C28.7195 1176 29.1739 1174.15 30.0825 1172.57C30.9912 1170.96 32.2479 1169.72 33.8525 1168.85C35.4765 1167.96 37.3132 1167.52 39.3625 1167.52C42.1659 1167.52 44.4859 1168.25 46.3225 1169.72V1171.93C44.5825 1170.36 42.3205 1169.58 39.5365 1169.58C37.8932 1169.58 36.4239 1169.93 35.1285 1170.62C33.8332 1171.32 32.8182 1172.31 32.0835 1173.61C31.3489 1174.89 30.9815 1176.38 30.9815 1178.1C30.9815 1179.83 31.3489 1181.33 32.0835 1182.63C32.8182 1183.9 33.8235 1184.89 35.0995 1185.59C36.3949 1186.28 37.8545 1186.63 39.4785 1186.63C40.4259 1186.63 41.3442 1186.52 42.2335 1186.31C43.1229 1186.08 43.8575 1185.78 44.4375 1185.41V1179.18H40.1745V1177.26H46.6995V1186.37C45.7522 1187.16 44.6695 1187.74 43.4515 1188.11C42.2529 1188.48 40.8899 1188.66 39.3625 1188.66ZM50.2006 1167.95H52.4626V1188.23H50.2006V1167.95ZM56.5437 1167.95H69.5937V1169.87H58.8057V1177.12H66.8967V1179.03H58.8057V1188.23H56.5437V1167.95ZM77.824 1169.87H71.328V1167.95H86.582V1169.87H80.086V1188.23H77.824V1169.87Z" fill="white"/>
<g opacity="0.7">
<path d="M201.531 1269.32L200.181 1268.27L212.731 1252.37C214.131 1250.62 214.981 1248.92 214.981 1246.87C214.981 1242.52 211.831 1239.92 207.981 1239.92C203.881 1239.92 201.031 1242.82 201.031 1246.67C201.031 1248.87 201.981 1250.62 203.381 1252.02L202.181 1253.22C200.381 1251.62 199.231 1249.27 199.231 1246.67C199.231 1241.87 202.881 1238.27 207.981 1238.27C212.781 1238.27 216.781 1241.32 216.781 1246.87C216.781 1248.72 216.031 1250.92 214.231 1253.22L201.531 1269.32ZM198.181 1274.32V1272.67H217.531V1274.32H198.181ZM223.084 1251.27L222.034 1250.07L235.484 1238.27L236.584 1239.47L223.084 1251.27ZM234.684 1274.32V1244.47H236.384V1274.32H234.684ZM251.529 1253.97C247.179 1253.97 243.679 1250.47 243.679 1246.12C243.679 1241.82 247.179 1238.27 251.529 1238.27C255.829 1238.27 259.379 1241.82 259.379 1246.12C259.379 1250.47 255.829 1253.97 251.529 1253.97ZM250.379 1274.92L248.829 1274.07L270.029 1238.27L271.529 1239.12L250.379 1274.92ZM251.529 1252.27C254.929 1252.27 257.679 1249.62 257.679 1246.12C257.679 1242.67 254.929 1239.97 251.529 1239.97C248.079 1239.97 245.379 1242.67 245.379 1246.12C245.379 1249.52 248.079 1252.27 251.529 1252.27ZM269.229 1274.92C264.879 1274.92 261.379 1271.42 261.379 1267.07C261.379 1262.77 264.879 1259.22 269.229 1259.22C273.529 1259.22 277.079 1262.77 277.079 1267.07C277.079 1271.42 273.529 1274.92 269.229 1274.92ZM269.229 1273.22C272.629 1273.22 275.379 1270.47 275.379 1267.07C275.379 1263.62 272.629 1260.92 269.229 1260.92C265.779 1260.92 263.079 1263.62 263.079 1267.07C263.079 1270.47 265.779 1273.22 269.229 1273.22Z" fill="white"/>
<path d="M201.531 1269.32L201.347 1269.56L201.582 1269.74L201.766 1269.51L201.531 1269.32ZM200.181 1268.27L199.945 1268.08L199.758 1268.32L199.997 1268.51L200.181 1268.27ZM212.731 1252.37L212.497 1252.18L212.495 1252.18L212.731 1252.37ZM203.381 1252.02L203.593 1252.23L203.805 1252.02L203.593 1251.81L203.381 1252.02ZM202.181 1253.22L201.982 1253.44L202.193 1253.63L202.393 1253.43L202.181 1253.22ZM214.231 1253.22L214.466 1253.41L214.467 1253.41L214.231 1253.22ZM198.181 1274.32H197.881V1274.62H198.181V1274.32ZM198.181 1272.67V1272.37H197.881V1272.67H198.181ZM217.531 1272.67H217.831V1272.37H217.531V1272.67ZM217.531 1274.32V1274.62H217.831V1274.32H217.531ZM201.715 1269.08L200.365 1268.03L199.997 1268.51L201.347 1269.56L201.715 1269.08ZM200.416 1268.46L212.966 1252.56L212.495 1252.18L199.945 1268.08L200.416 1268.46ZM212.965 1252.56C214.388 1250.78 215.281 1249.01 215.281 1246.87H214.681C214.681 1248.83 213.874 1250.46 212.497 1252.18L212.965 1252.56ZM215.281 1246.87C215.281 1244.62 214.464 1242.8 213.13 1241.55C211.799 1240.29 209.973 1239.62 207.981 1239.62V1240.22C209.839 1240.22 211.512 1240.85 212.719 1241.98C213.923 1243.12 214.681 1244.77 214.681 1246.87H215.281ZM207.981 1239.62C203.72 1239.62 200.731 1242.65 200.731 1246.67H201.331C201.331 1242.99 204.042 1240.22 207.981 1240.22V1239.62ZM200.731 1246.67C200.731 1248.97 201.726 1250.79 203.169 1252.23L203.593 1251.81C202.236 1250.45 201.331 1248.77 201.331 1246.67H200.731ZM203.169 1251.81L201.969 1253.01L202.393 1253.43L203.593 1252.23L203.169 1251.81ZM202.38 1253C200.641 1251.45 199.531 1249.18 199.531 1246.67H198.931C198.931 1249.36 200.121 1251.79 201.982 1253.44L202.38 1253ZM199.531 1246.67C199.531 1242.05 203.037 1238.57 207.981 1238.57V1237.97C202.724 1237.97 198.931 1241.7 198.931 1246.67H199.531ZM207.981 1238.57C210.319 1238.57 212.443 1239.31 213.979 1240.71C215.511 1242.11 216.481 1244.17 216.481 1246.87H217.081C217.081 1244.02 216.051 1241.79 214.383 1240.27C212.719 1238.75 210.443 1237.97 207.981 1237.97V1238.57ZM216.481 1246.87C216.481 1248.64 215.763 1250.78 213.995 1253.04L214.467 1253.41C216.298 1251.07 217.081 1248.8 217.081 1246.87H216.481ZM213.995 1253.03L201.295 1269.13L201.766 1269.51L214.466 1253.41L213.995 1253.03ZM198.481 1274.32V1272.67H197.881V1274.32H198.481ZM198.181 1272.97H217.531V1272.37H198.181V1272.97ZM217.231 1272.67V1274.32H217.831V1272.67H217.231ZM217.531 1274.02H198.181V1274.62H217.531V1274.02ZM223.084 1251.27L222.858 1251.47L223.056 1251.69L223.281 1251.5L223.084 1251.27ZM222.034 1250.07L221.836 1249.84L221.611 1250.04L221.808 1250.27L222.034 1250.07ZM235.484 1238.27L235.705 1238.07L235.507 1237.85L235.286 1238.04L235.484 1238.27ZM236.584 1239.47L236.781 1239.7L237.013 1239.49L236.805 1239.27L236.584 1239.47ZM234.684 1274.32H234.384V1274.62H234.684V1274.32ZM234.684 1244.47V1244.17H234.384V1244.47H234.684ZM236.384 1244.47H236.684V1244.17H236.384V1244.47ZM236.384 1274.32V1274.62H236.684V1274.32H236.384ZM223.31 1251.07L222.26 1249.87L221.808 1250.27L222.858 1251.47L223.31 1251.07ZM222.232 1250.3L235.682 1238.5L235.286 1238.04L221.836 1249.84L222.232 1250.3ZM235.263 1238.47L236.363 1239.67L236.805 1239.27L235.705 1238.07L235.263 1238.47ZM236.387 1239.24L222.887 1251.04L223.281 1251.5L236.781 1239.7L236.387 1239.24ZM234.984 1274.32V1244.47H234.384V1274.32H234.984ZM234.684 1244.77H236.384V1244.17H234.684V1244.77ZM236.084 1244.47V1274.32H236.684V1244.47H236.084ZM236.384 1274.02H234.684V1274.62H236.384V1274.02ZM250.379 1274.92L250.235 1275.18L250.489 1275.32L250.637 1275.07L250.379 1274.92ZM248.829 1274.07L248.571 1273.92L248.413 1274.18L248.685 1274.33L248.829 1274.07ZM270.029 1238.27L270.177 1238.01L269.921 1237.86L269.771 1238.12L270.029 1238.27ZM271.529 1239.12L271.787 1239.27L271.943 1239.01L271.677 1238.86L271.529 1239.12ZM251.529 1253.67C247.345 1253.67 243.979 1250.3 243.979 1246.12H243.379C243.379 1250.64 247.013 1254.27 251.529 1254.27V1253.67ZM243.979 1246.12C243.979 1241.98 247.346 1238.57 251.529 1238.57V1237.97C247.012 1237.97 243.379 1241.66 243.379 1246.12H243.979ZM251.529 1238.57C255.663 1238.57 259.079 1241.99 259.079 1246.12H259.679C259.679 1241.65 255.995 1237.97 251.529 1237.97V1238.57ZM259.079 1246.12C259.079 1250.3 255.664 1253.67 251.529 1253.67V1254.27C255.993 1254.27 259.679 1250.64 259.679 1246.12H259.079ZM250.523 1274.66L248.973 1273.81L248.685 1274.33L250.235 1275.18L250.523 1274.66ZM249.087 1274.22L270.287 1238.42L269.771 1238.12L248.571 1273.92L249.087 1274.22ZM269.881 1238.53L271.381 1239.38L271.677 1238.86L270.177 1238.01L269.881 1238.53ZM271.271 1238.97L250.121 1274.77L250.637 1275.07L271.787 1239.27L271.271 1238.97ZM251.529 1252.57C255.091 1252.57 257.979 1249.79 257.979 1246.12H257.379C257.379 1249.45 254.766 1251.97 251.529 1251.97V1252.57ZM257.979 1246.12C257.979 1242.5 255.093 1239.67 251.529 1239.67V1240.27C254.765 1240.27 257.379 1242.84 257.379 1246.12H257.979ZM251.529 1239.67C247.913 1239.67 245.079 1242.5 245.079 1246.12H245.679C245.679 1242.84 248.245 1240.27 251.529 1240.27V1239.67ZM245.079 1246.12C245.079 1249.68 247.912 1252.57 251.529 1252.57V1251.97C248.246 1251.97 245.679 1249.36 245.679 1246.12H245.079ZM269.229 1274.62C265.045 1274.62 261.679 1271.25 261.679 1267.07H261.079C261.079 1271.59 264.713 1275.22 269.229 1275.22V1274.62ZM261.679 1267.07C261.679 1262.93 265.046 1259.52 269.229 1259.52V1258.92C264.712 1258.92 261.079 1262.61 261.079 1267.07H261.679ZM269.229 1259.52C273.363 1259.52 276.779 1262.94 276.779 1267.07H277.379C277.379 1262.6 273.695 1258.92 269.229 1258.92V1259.52ZM276.779 1267.07C276.779 1271.25 273.364 1274.62 269.229 1274.62V1275.22C273.693 1275.22 277.379 1271.59 277.379 1267.07H276.779ZM269.229 1273.52C272.795 1273.52 275.679 1270.64 275.679 1267.07H275.079C275.079 1270.3 272.463 1272.92 269.229 1272.92V1273.52ZM275.679 1267.07C275.679 1263.45 272.793 1260.62 269.229 1260.62V1261.22C272.465 1261.22 275.079 1263.79 275.079 1267.07H275.679ZM269.229 1260.62C265.613 1260.62 262.779 1263.45 262.779 1267.07H263.379C263.379 1263.79 265.945 1261.22 269.229 1261.22V1260.62ZM262.779 1267.07C262.779 1270.63 265.612 1273.52 269.229 1273.52V1272.92C265.946 1272.92 263.379 1270.31 263.379 1267.07H262.779Z" fill="white"/>
</g>
<defs>
<filter id="filter0_di_4_566" x="303.858" y="306.199" width="106.364" height="230.05" filterUnits="userSpaceOnUse" color-interpolation-filters="sRGB">
<feFlood flood-opacity="0" result="BackgroundImageFix"/>
<feColorMatrix in="SourceAlpha" type="matrix" values="0 0 0 0 0 0 0 0 0 0 0 0 0 0 0 0 0 0 127 0" result="hardAlpha"/>
<feOffset dx="4" dy="4"/>
<feGaussianBlur stdDeviation="2"/>
<feComposite in2="hardAlpha" operator="out"/>
<feColorMatrix type="matrix" values="0 0 0 0 0.0958333 0 0 0 0 0.0958333 0 0 0 0 0.0958333 0 0 0 0.1 0"/>
<feBlend mode="normal" in2="BackgroundImageFix" result="effect1_dropShadow_4_566"/>
<feBlend mode="normal" in="SourceGraphic" in2="effect1_dropShadow_4_566" result="shape"/>
<feColorMatrix in="SourceAlpha" type="matrix" values="0 0 0 0 0 0 0 0 0 0 0 0 0 0 0 0 0 0 127 0" result="hardAlpha"/>
<feOffset dx="3" dy="3"/>
<feGaussianBlur stdDeviation="2"/>
<feComposite in2="hardAlpha" operator="arithmetic" k2="-1" k3="1"/>
<feColorMatrix type="matrix" values="0 0 0 0 1 0 0 0 0 1 0 0 0 0 1 0 0 0 0.15 0"/>
<feBlend mode="normal" in2="shape" result="effect2_innerShadow_4_566"/>
</filter>
<filter id="filter1_di_4_566" x="0" y="306.199" width="311.858" height="231.998" filterUnits="userSpaceOnUse" color-interpolation-filters="sRGB">
<feFlood flood-opacity="0" result="BackgroundImageFix"/>
<feColorMatrix in="SourceAlpha" type="matrix" values="0 0 0 0 0 0 0 0 0 0 0 0 0 0 0 0 0 0 127 0" result="hardAlpha"/>
<feOffset dx="4" dy="4"/>
<feGaussianBlur stdDeviation="2"/>
<feComposite in2="hardAlpha" operator="out"/>
<feColorMatrix type="matrix" values="0 0 0 0 0.0958333 0 0 0 0 0.0958333 0 0 0 0 0.0958333 0 0 0 0.1 0"/>
<feBlend mode="normal" in2="BackgroundImageFix" result="effect1_dropShadow_4_566"/>
<feBlend mode="normal" in="SourceGraphic" in2="effect1_dropShadow_4_566" result="shape"/>
<feColorMatrix in="SourceAlpha" type="matrix" values="0 0 0 0 0 0 0 0 0 0 0 0 0 0 0 0 0 0 127 0" result="hardAlpha"/>
<feOffset dx="3" dy="3"/>
<feGaussianBlur stdDeviation="2"/>
<feComposite in2="hardAlpha" operator="arithmetic" k2="-1" k3="1"/>
<feColorMatrix type="matrix" values="0 0 0 0 1 0 0 0 0 1 0 0 0 0 1 0 0 0 0.15 0"/>
<feBlend mode="normal" in2="shape" result="effect2_innerShadow_4_566"/>
</filter>
<filter id="filter2_di_4_566" x="303.858" y="562" width="106.364" height="230.05" filterUnits="userSpaceOnUse" color-interpolation-filters="sRGB">
<feFlood flood-opacity="0" result="BackgroundImageFix"/>
<feColorMatrix in="SourceAlpha" type="matrix" values="0 0 0 0 0 0 0 0 0 0 0 0 0 0 0 0 0 0 127 0" result="hardAlpha"/>
<feOffset dx="4" dy="4"/>
<feGaussianBlur stdDeviation="2"/>
<feComposite in2="hardAlpha" operator="out"/>
<feColorMatrix type="matrix" values="0 0 0 0 0.0958333 0 0 0 0 0.0958333 0 0 0 0 0.0958333 0 0 0 0.1 0"/>
<feBlend mode="normal" in2="BackgroundImageFix" result="effect1_dropShadow_4_566"/>
<feBlend mode="normal" in="SourceGraphic" in2="effect1_dropShadow_4_566" result="shape"/>
<feColorMatrix in="SourceAlpha" type="matrix" values="0 0 0 0 0 0 0 0 0 0 0 0 0 0 0 0 0 0 127 0" result="hardAlpha"/>
<feOffset dx="3" dy="3"/>
<feGaussianBlur stdDeviation="2"/>
<feComposite in2="hardAlpha" operator="arithmetic" k2="-1" k3="1"/>
<feColorMatrix type="matrix" values="0 0 0 0 1 0 0 0 0 1 0 0 0 0 1 0 0 0 0.15 0"/>
<feBlend mode="normal" in2="shape" result="effect2_innerShadow_4_566"/>
</filter>
<filter id="filter3_di_4_566" x="0" y="562" width="311.858" height="231.998" filterUnits="userSpaceOnUse" color-interpolation-filters="sRGB">
<feFlood flood-opacity="0" result="BackgroundImageFix"/>
<feColorMatrix in="SourceAlpha" type="matrix" values="0 0 0 0 0 0 0 0 0 0 0 0 0 0 0 0 0 0 127 0" result="hardAlpha"/>
<feOffset dx="4" dy="4"/>
<feGaussianBlur stdDeviation="2"/>
<feComposite in2="hardAlpha" operator="out"/>
<feColorMatrix type="matrix" values="0 0 0 0 0.0958333 0 0 0 0 0.0958333 0 0 0 0 0.0958333 0 0 0 0.1 0"/>
<feBlend mode="normal" in2="BackgroundImageFix" result="effect1_dropShadow_4_566"/>
<feBlend mode="normal" in="SourceGraphic" in2="effect1_dropShadow_4_566" result="shape"/>
<feColorMatrix in="SourceAlpha" type="matrix" values="0 0 0 0 0 0 0 0 0 0 0 0 0 0 0 0 0 0 127 0" result="hardAlpha"/>
<feOffset dx="3" dy="3"/>
<feGaussianBlur stdDeviation="2"/>
<feComposite in2="hardAlpha" operator="arithmetic" k2="-1" k3="1"/>
<feColorMatrix type="matrix" values="0 0 0 0 1 0 0 0 0 1 0 0 0 0 1 0 0 0 0.15 0"/>
<feBlend mode="normal" in2="shape" result="effect2_innerShadow_4_566"/>
</filter>
<filter id="filter4_di_4_566" x="303.858" y="820" width="106.364" height="230.05" filterUnits="userSpaceOnUse" color-interpolation-filters="sRGB">
<feFlood flood-opacity="0" result="BackgroundImageFix"/>
<feColorMatrix in="SourceAlpha" type="matrix" values="0 0 0 0 0 0 0 0 0 0 0 0 0 0 0 0 0 0 127 0" result="hardAlpha"/>
<feOffset dx="4" dy="4"/>
<feGaussianBlur stdDeviation="2"/>
<feComposite in2="hardAlpha" operator="out"/>
<feColorMatrix type="matrix" values="0 0 0 0 0.0958333 0 0 0 0 0.0958333 0 0 0 0 0.0958333 0 0 0 0.1 0"/>
<feBlend mode="normal" in2="BackgroundImageFix" result="effect1_dropShadow_4_566"/>
<feBlend mode="normal" in="SourceGraphic" in2="effect1_dropShadow_4_566" result="shape"/>
<feColorMatrix in="SourceAlpha" type="matrix" values="0 0 0 0 0 0 0 0 0 0 0 0 0 0 0 0 0 0 127 0" result="hardAlpha"/>
<feOffset dx="3" dy="3"/>
<feGaussianBlur stdDeviation="2"/>
<feComposite in2="hardAlpha" operator="arithmetic" k2="-1" k3="1"/>
<feColorMatrix type="matrix" values="0 0 0 0 1 0 0 0 0 1 0 0 0 0 1 0 0 0 0.15 0"/>
<feBlend mode="normal" in2="shape" result="effect2_innerShadow_4_566"/>
</filter>
<filter id="filter5_di_4_566" x="0" y="820" width="311.858" height="231.998" filterUnits="userSpaceOnUse" color-interpolation-filters="sRGB">
<feFlood flood-opacity="0" result="BackgroundImageFix"/>
<feColorMatrix in="SourceAlpha" type="matrix" values="0 0 0 0 0 0 0 0 0 0 0 0 0 0 0 0 0 0 127 0" result="hardAlpha"/>
<feOffset dx="4" dy="4"/>
<feGaussianBlur stdDeviation="2"/>
<feComposite in2="hardAlpha" operator="out"/>
<feColorMatrix type="matrix" values="0 0 0 0 0.0958333 0 0 0 0 0.0958333 0 0 0 0 0.0958333 0 0 0 0.1 0"/>
<feBlend mode="normal" in2="BackgroundImageFix" result="effect1_dropShadow_4_566"/>
<feBlend mode="normal" in="SourceGraphic" in2="effect1_dropShadow_4_566" result="shape"/>
<feColorMatrix in="SourceAlpha" type="matrix" values="0 0 0 0 0 0 0 0 0 0 0 0 0 0 0 0 0 0 127 0" result="hardAlpha"/>
<feOffset dx="3" dy="3"/>
<feGaussianBlur stdDeviation="2"/>
<feComposite in2="hardAlpha" operator="arithmetic" k2="-1" k3="1"/>
<feColorMatrix type="matrix" values="0 0 0 0 1 0 0 0 0 1 0 0 0 0 1 0 0 0 0.15 0"/>
<feBlend mode="normal" in2="shape" result="effect2_innerShadow_4_566"/>
</filter>
<filter id="filter6_di_4_566" x="303.858" y="1083" width="106.364" height="230.05" filterUnits="userSpaceOnUse" color-interpolation-filters="sRGB">
<feFlood flood-opacity="0" result="BackgroundImageFix"/>
<feColorMatrix in="SourceAlpha" type="matrix" values="0 0 0 0 0 0 0 0 0 0 0 0 0 0 0 0 0 0 127 0" result="hardAlpha"/>
<feOffset dx="4" dy="4"/>
<feGaussianBlur stdDeviation="2"/>
<feComposite in2="hardAlpha" operator="out"/>
<feColorMatrix type="matrix" values="0 0 0 0 0.0958333 0 0 0 0 0.0958333 0 0 0 0 0.0958333 0 0 0 0.1 0"/>
<feBlend mode="normal" in2="BackgroundImageFix" result="effect1_dropShadow_4_566"/>
<feBlend mode="normal" in="SourceGraphic" in2="effect1_dropShadow_4_566" result="shape"/>
<feColorMatrix in="SourceAlpha" type="matrix" values="0 0 0 0 0 0 0 0 0 0 0 0 0 0 0 0 0 0 127 0" result="hardAlpha"/>
<feOffset dx="3" dy="3"/>
<feGaussianBlur stdDeviation="2"/>
<feComposite in2="hardAlpha" operator="arithmetic" k2="-1" k3="1"/>
<feColorMatrix type="matrix" values="0 0 0 0 1 0 0 0 0 1 0 0 0 0 1 0 0 0 0.15 0"/>
<feBlend mode="normal" in2="shape" result="effect2_innerShadow_4_566"/>
</filter>
<filter id="filter7_di_4_566" x="0" y="1083" width="311.858" height="231.998" filterUnits="userSpaceOnUse" color-interpolation-filters="sRGB">
<feFlood flood-opacity="0" result="BackgroundImageFix"/>
<feColorMatrix in="SourceAlpha" type="matrix" values="0 0 0 0 0 0 0 0 0 0 0 0 0 0 0 0 0 0 127 0" result="hardAlpha"/>
<feOffset dx="4" dy="4"/>
<feGaussianBlur stdDeviation="2"/>
<feComposite in2="hardAlpha" operator="out"/>
<feColorMatrix type="matrix" values="0 0 0 0 0.0958333 0 0 0 0 0.0958333 0 0 0 0 0.0958333 0 0 0 0.1 0"/>
<feBlend mode="normal" in2="BackgroundImageFix" result="effect1_dropShadow_4_566"/>
<feBlend mode="normal" in="SourceGraphic" in2="effect1_dropShadow_4_566" result="shape"/>
<feColorMatrix in="SourceAlpha" type="matrix" values="0 0 0 0 0 0 0 0 0 0 0 0 0 0 0 0 0 0 127 0" result="hardAlpha"/>
<feOffset dx="3" dy="3"/>
<feGaussianBlur stdDeviation="2"/>
<feComposite in2="hardAlpha" operator="arithmetic" k2="-1" k3="1"/>
<feColorMatrix type="matrix" values="0 0 0 0 1 0 0 0 0 1 0 0 0 0 1 0 0 0 0.15 0"/>
<feBlend mode="normal" in2="shape" result="effect2_innerShadow_4_566"/>
</filter>
<linearGradient id="paint0_linear_4_566" x1="203" y1="161" x2="95.7419" y2="161" gradientUnits="userSpaceOnUse">
<stop stop-color="#FFB7B7"/>
<stop offset="1" stop-color="#F9FFBA"/>
</linearGradient>
<linearGradient id="paint1_linear_4_566" x1="203" y1="161" x2="95.7419" y2="161" gradientUnits="userSpaceOnUse">
<stop stop-color="#FFB7B7"/>
<stop offset="1" stop-color="#F9FFBA"/>
</linearGradient>
<linearGradient id="paint2_linear_4_566" x1="203" y1="161" x2="95.7419" y2="161" gradientUnits="userSpaceOnUse">
<stop stop-color="#FFB7B7"/>
<stop offset="1" stop-color="#F9FFBA"/>
</linearGradient>
<linearGradient id="paint3_linear_4_566" x1="203" y1="161" x2="95.7419" y2="161" gradientUnits="userSpaceOnUse">
<stop stop-color="#FFB7B7"/>
<stop offset="1" stop-color="#F9FFBA"/>
</linearGradient>
<linearGradient id="paint4_linear_4_566" x1="203" y1="161" x2="95.7419" y2="161" gradientUnits="userSpaceOnUse">
<stop stop-color="#FFB7B7"/>
<stop offset="1" stop-color="#F9FFBA"/>
</linearGradient>
<linearGradient id="paint5_linear_4_566" x1="203" y1="161" x2="95.7419" y2="161" gradientUnits="userSpaceOnUse">
<stop stop-color="#FFB7B7"/>
<stop offset="1" stop-color="#F9FFBA"/>
</linearGradient>
<linearGradient id="paint6_linear_4_566" x1="203" y1="161" x2="95.7419" y2="161" gradientUnits="userSpaceOnUse">
<stop stop-color="#FFB7B7"/>
<stop offset="1" stop-color="#F9FFBA"/>
</linearGradient>
<linearGradient id="paint7_linear_4_566" x1="203" y1="161" x2="95.7419" y2="161" gradientUnits="userSpaceOnUse">
<stop stop-color="#FFB7B7"/>
<stop offset="1" stop-color="#F9FFBA"/>
</linearGradient>
<linearGradient id="paint8_linear_4_566" x1="203" y1="161" x2="95.7419" y2="161" gradientUnits="userSpaceOnUse">
<stop stop-color="#FFB7B7"/>
<stop offset="1" stop-color="#F9FFBA"/>
</linearGradient>
<linearGradient id="paint9_linear_4_566" x1="203" y1="161" x2="95.7419" y2="161" gradientUnits="userSpaceOnUse">
<stop stop-color="#FFB7B7"/>
<stop offset="1" stop-color="#F9FFBA"/>
</linearGradient>
<linearGradient id="paint10_linear_4_566" x1="203" y1="161" x2="95.7419" y2="161" gradientUnits="userSpaceOnUse">
<stop stop-color="#FFB7B7"/>
<stop offset="1" stop-color="#F9FFBA"/>
</linearGradient>
<linearGradient id="paint11_linear_4_566" x1="353.041" y1="306.199" x2="353.041" y2="528.249" gradientUnits="userSpaceOnUse">
<stop offset="0.0001" stop-color="#E8B5F0" stop-opacity="0.5"/>
<stop offset="0.932292" stop-color="#29557D" stop-opacity="0.333854"/>
</linearGradient>
<linearGradient id="paint12_linear_4_566" x1="353.041" y1="562" x2="353.041" y2="784.05" gradientUnits="userSpaceOnUse">
<stop offset="0.0001" stop-color="#E8B5F0" stop-opacity="0.5"/>
<stop offset="0.932292" stop-color="#29557D" stop-opacity="0.333854"/>
</linearGradient>
<linearGradient id="paint13_linear_4_566" x1="353.041" y1="820" x2="353.041" y2="1042.05" gradientUnits="userSpaceOnUse">
<stop offset="0.0001" stop-color="#E8B5F0" stop-opacity="0.5"/>
<stop offset="0.932292" stop-color="#29557D" stop-opacity="0.333854"/>
</linearGradient>
<linearGradient id="paint14_linear_4_566" x1="353.041" y1="1083" x2="353.041" y2="1305.05" gradientUnits="userSpaceOnUse">
<stop offset="0.0001" stop-color="#E8B5F0" stop-opacity="0.5"/>
<stop offset="0.932292" stop-color="#29557D" stop-opacity="0.333854"/>
</linearGradient>
<clipPath id="clip0_4_566">
<rect width="191" height="38" fill="white" transform="translate(26 336)"/>
</clipPath>
<clipPath id="clip1_4_566">
<rect width="178" height="32" fill="white" transform="translate(29 595)"/>
</clipPath>
<clipPath id="clip2_4_566">
<rect width="115" height="36.5909" fill="white" transform="translate(31 851)"/>
</clipPath>
<clipPath id="clip3_4_566">
<rect width="115" height="38" fill="white" transform="translate(32 1113)"/>
</clipPath>
</defs>
</svg>
