<svg width="64" height="53" viewBox="0 0 64 53" fill="none" xmlns="http://www.w3.org/2000/svg">
<path d="M26.7533 1.275V2.775H17.3283V1.275H26.7533ZM24.1283 5.025L25.5283 5.7L18.7533 19.3L17.3533 18.625L24.1283 5.025ZM30.7916 7.175C35.9666 5.975 38.4916 3.825 38.6416 2.025H31.5166V0.599998H47.4916V2.025H40.3666C40.2416 4.975 36.3916 7.525 31.5666 8.475L30.7916 7.175ZM41.4416 4.05C42.7166 5.25 44.9916 6.375 48.1666 6.875L47.4166 8.2C44.6166 7.65 41.8166 6.625 40.2416 4.975L41.4416 4.05ZM49.8666 10.775V12.225H29.1166V10.775H38.6416V7.725H40.3416V10.775H49.8666ZM39.4916 14.4C44.8666 14.4 47.5916 15.8 47.5916 18.125C47.5916 20.625 44.8916 21.925 39.4916 21.925C34.0416 21.925 31.3916 20.625 31.3916 18.125C31.3916 16.825 32.3166 15.725 34.1916 15.1L35.0416 16.325C33.7916 16.7 33.0916 17.375 33.0916 18.125C33.0916 19.85 35.5416 20.575 39.4916 20.575C43.3916 20.575 45.8916 19.85 45.8916 18.125C45.8916 16.575 43.3916 15.75 39.4916 15.75C38.3416 15.75 37.3166 15.825 36.4416 15.975L35.5916 14.7C36.6916 14.5 37.9916 14.4 39.4916 14.4ZM16.2946 41.025C16.6696 38.525 16.8946 34.225 16.8696 33.3H2.79463V31.825H18.5946C18.5696 33.625 18.4196 37.7 17.9446 41.025H16.2946ZM15.6446 37.75C12.3446 38.175 7.34463 38.25 2.54463 38.25V36.9C6.31963 36.9 11.7446 36.95 15.7446 36.275L15.6446 37.75ZM0.344629 42.025H20.6196V43.475H0.344629V42.025ZM11.3196 52.05H9.61963V44.475H11.3196V52.05ZM40.9364 33.275H24.9614V31.85H40.9364V33.275ZM43.3114 43.6V45.025H22.5614V43.6H32.0864V40.35H25.0114V38.95H35.7114C35.8364 37.65 35.9614 35.35 36.0114 34.025H37.7114C37.6614 35.425 37.4864 37.775 37.3864 38.95H40.8864V40.35H33.7614V43.6H43.3114ZM28.2364 34.025H29.8864C29.9364 35.025 30.0364 37.05 30.1114 38.2H28.4364L28.2364 34.025ZM26.8864 50.875H41.4364V52.325H25.2114V46.8H26.8864V50.875ZM57.6665 31.125H59.2915V36.125H62.3415V30.85H63.9415V43.75H62.3415V37.55H57.6665V31.125ZM45.8665 31.825H55.9165V33.275H45.8665V31.825ZM49.7915 41.525C50.6415 41.525 51.4915 41.525 52.3415 41.5C52.6165 39.5 52.6915 36.325 52.7415 34.15H54.2915C54.2415 36.4 54.0915 39.475 53.8665 41.4C54.9165 41.35 55.8665 41.25 56.7915 41.1V42.55C54.7915 42.85 52.3665 42.95 49.7165 42.95H45.6415V41.525H49.7915ZM48.0665 40.65C47.8915 38.725 47.7665 36.175 47.6915 34.15H49.2665C49.2915 36.1 49.3665 38.675 49.5665 40.65H48.0665ZM59.2915 43.75H57.6665V38.425H59.2915V43.75ZM62.1665 47H48.7415V45.55H63.8415V52.325H62.1665V47Z" fill="#FFA0FB"/>
</svg>
