<svg width="146" height="54" viewBox="0 0 146 54" fill="none" xmlns="http://www.w3.org/2000/svg">
<path d="M145 27C145 30.3337 143.177 33.6336 139.605 36.7568C136.035 39.8783 130.812 42.7349 124.272 45.154C111.199 49.9893 93.0715 53 73 53C52.9285 53 34.8013 49.9893 21.7281 45.154C15.1876 42.7349 9.96459 39.8783 6.39497 36.7568C2.8233 33.6336 1 30.3337 1 27C1 23.6663 2.8233 20.3664 6.39497 17.2432C9.96459 14.1217 15.1876 11.2651 21.7281 8.84602C34.8013 4.01073 52.9285 1 73 1C93.0715 1 111.199 4.01073 124.272 8.84602C130.812 11.2651 136.035 14.1217 139.605 17.2432C143.177 20.3664 145 23.6663 145 27Z" stroke="url(#paint0_linear_4_564)" stroke-width="2"/>
<path d="M27.0672 35.44H34.5812V37H25.4552V18.566H27.0672V26.626H33.9052V28.186H27.0672V35.44ZM34.4512 18.566V20.126H29.3552V18.566H34.4512ZM45.5618 30.474L44.1058 29.928L47.9018 18.28L49.4098 18.826L45.5618 30.474ZM41.9998 37.312L36.4878 18.8L37.9958 18.306L43.5078 36.818L41.9998 37.312ZM53.6766 35.44H61.1906V37H52.0646V18.566H53.6766V26.626H60.5146V28.186H53.6766V35.44ZM61.0606 18.566V20.126H55.9646V18.566H61.0606ZM76.5911 18.566H78.2031V37H76.4871L64.7091 19.19L66.0351 18.306L76.5911 34.296V18.566ZM64.8391 37V25.534H66.4511V37H64.8391ZM80.9752 20.126V18.566H91.0892V20.126H80.9752ZM85.2132 37V23.168H86.8252V37H85.2132ZM104.608 37.286C101.28 37.286 99.2524 33.464 99.2524 27.77C99.2524 24.702 99.7984 22.206 100.968 20.438L102.034 21.66C101.228 23.22 100.864 25.586 100.864 27.77C100.864 32.32 102.216 35.726 104.608 35.726C107 35.726 108.352 32.32 108.352 27.77C108.352 23.22 107 19.814 104.608 19.814C104.374 19.814 104.114 19.866 104.036 19.892L103.386 18.462C103.75 18.332 104.114 18.254 104.608 18.254C107.936 18.254 109.964 22.076 109.964 27.77C109.964 33.464 107.936 37.286 104.608 37.286ZM113.064 25.612L112.05 24.442L119.044 18.306L120.084 19.45L113.064 25.612ZM118.264 37V23.48H119.876V37H118.264Z" fill="white"/>
<defs>
<linearGradient id="paint0_linear_4_564" x1="46.569" y1="-6.45669e-07" x2="72.9048" y2="54.0464" gradientUnits="userSpaceOnUse">
<stop stop-color="#FEFEFE"/>
<stop offset="1" stop-color="white" stop-opacity="0"/>
</linearGradient>
</defs>
</svg>
