<svg width="587" height="633" viewBox="0 0 587 633" fill="none" xmlns="http://www.w3.org/2000/svg">
<path d="M85.4227 36.568H92.5347V39.928H84.2467L78.2547 56.56L75.0627 55.328L89.2867 15.68L92.5347 16.8L85.4227 36.568ZM104.127 56.672L93.2067 25.76L96.3987 24.472L107.319 55.384L104.127 56.672ZM146.572 43.792L143.548 45.36L132.628 21.728L126.02 56.448L122.66 55.776L130.164 16.296H133.86L146.572 43.792ZM155.42 21.952L150.268 34.496L147.132 33.208L154.076 16.296H157.716L166.284 55.832L162.924 56.504L155.42 21.952ZM188.845 56.672C178.205 56.672 170.197 48.104 170.197 36.68C170.197 31.024 171.933 26.04 174.845 22.344L177.197 24.92C174.957 27.776 173.669 31.696 173.669 36.12C173.669 45.92 180.165 53.312 188.845 53.312C197.525 53.312 204.021 45.92 204.021 36.12C204.021 26.32 197.525 18.984 188.845 18.984C186.773 18.984 184.757 19.376 182.965 20.216L181.285 17.248C183.749 16.072 186.437 15.624 188.845 15.624C199.485 15.624 207.493 24.192 207.493 35.56C207.493 47.6 199.485 56.672 188.845 56.672ZM234.77 27.664C234.77 34.552 229.898 39.032 222.338 39.032H217.802V56H214.33V16.296H217.802V35.728H222.394C227.826 35.728 231.298 32.536 231.298 27.664C231.298 22.792 227.826 19.656 222.394 19.656H222.282V16.296H222.394C229.898 16.296 234.77 20.776 234.77 27.664ZM233.37 56.28L223.402 45.304L225.978 43.12L235.778 53.928L233.37 56.28ZM261.822 56H242.166V16.296H245.638V33.656H260.366V37.016H245.638V52.64H261.822V56ZM250.566 19.656V16.296H261.542V19.656H250.566ZM285.669 16.296V56H282.197V16.296H285.669ZM290.205 35.784C295.637 35.784 299.165 32.592 299.165 27.72C299.165 22.848 295.693 19.656 290.261 19.656H289.981V16.296H290.261C297.765 16.296 302.637 20.776 302.637 27.72C302.637 34.664 297.765 39.144 290.205 39.144H290.037V35.784H290.205ZM315.548 36.568H322.66V39.928H314.372L308.38 56.56L305.188 55.328L319.412 15.68L322.66 16.8L315.548 36.568ZM334.252 56.672L323.332 25.76L326.524 24.472L337.444 55.384L334.252 56.672ZM339.429 17.584L342.285 15.792L352.253 30.184L362.165 15.624L365.021 17.36L352.309 36.12L339.429 17.584ZM353.933 40.6V56H350.461V40.6H353.933ZM384.793 33.6C390.505 35 393.417 39.088 393.417 44.576C393.417 51.632 388.265 56 380.089 56H379.529V52.64H380.089C386.193 52.64 389.945 49.504 389.945 44.688C389.945 39.256 386.249 36.344 379.809 36.344H374.209V56H370.737V16.296H375.889C383.281 16.296 388.097 20.048 388.097 26.432C388.097 29.68 386.641 32.312 384.793 33.6ZM378.129 32.984C382.217 32.984 384.625 31.08 384.625 26.432C384.625 22.12 381.265 19.656 375.889 19.656H374.209V32.984H378.129ZM406.602 36.568H413.714V39.928H405.426L399.434 56.56L396.242 55.328L410.466 15.68L413.714 16.8L406.602 36.568ZM425.306 56.672L414.386 25.76L417.578 24.472L428.498 55.384L425.306 56.672ZM462.571 26.32C460.331 21.84 455.739 18.984 450.251 18.984C448.179 18.984 446.163 19.376 444.371 20.216L442.691 17.248C445.155 16.072 447.843 15.624 450.251 15.624C457.531 15.624 464.027 19.824 466.435 26.32H462.571ZM450.251 56.672C439.611 56.672 431.603 48.104 431.603 36.68C431.603 31.024 433.339 26.04 436.251 22.344L438.603 24.92C436.363 27.776 435.075 31.696 435.075 36.12C435.075 45.92 441.571 53.312 450.251 53.312C455.739 53.312 460.331 50.456 462.683 45.976H466.547C463.915 52.248 457.755 56.672 450.251 56.672ZM476.31 56H472.838V16.296H476.31V37.632L493.39 16.24L495.966 18.536L476.31 43.12V56ZM493.782 56.224L482.19 43.68L484.654 41.272L496.246 53.816L493.782 56.224ZM506.3 16.296V46.312H502.828V16.296H506.3ZM504.564 56.672C503.108 56.672 501.932 55.496 501.932 54.04C501.932 52.64 503.164 51.408 504.564 51.408C506.02 51.408 507.196 52.584 507.196 54.04C507.196 55.496 506.02 56.672 504.564 56.672Z" fill="white"/>
<path d="M21.8828 102.512C22.3628 99.312 22.6508 93.808 22.6188 92.624H4.60275V90.736H24.8268C24.7948 93.04 24.6028 98.256 23.9948 102.512H21.8828ZM21.0508 98.32C16.8268 98.864 10.4268 98.96 4.28275 98.96V97.232C9.11475 97.232 16.0588 97.296 21.1788 96.432L21.0508 98.32ZM1.46675 103.792H27.4188V105.648H1.46675V103.792ZM15.5148 116.624H13.3388V106.928H15.5148V116.624ZM53.4243 92.592H32.9763V90.768H53.4243V92.592ZM56.4643 105.808V107.632H29.9043V105.808H42.0963V101.648H33.0403V99.856H46.7362C46.8963 98.192 47.0563 95.248 47.1203 93.552H49.2963C49.2323 95.344 49.0083 98.352 48.8803 99.856H53.3603V101.648H44.2403V105.808H56.4643ZM37.1683 93.552H39.2803C39.3443 94.832 39.4723 97.424 39.5683 98.896H37.4243L37.1683 93.552ZM35.4403 115.12H54.0643V116.976H33.2963V109.904H35.4403V115.12ZM74.8388 89.84H76.9188V96.24H80.8228V89.488H82.8708V106H80.8228V98.064H74.8388V89.84ZM59.7348 90.736H72.5988V92.592H59.7348V90.736ZM64.7588 103.152C65.8468 103.152 66.9348 103.152 68.0228 103.12C68.3748 100.56 68.4708 96.496 68.5348 93.712H70.5188C70.4548 96.592 70.2628 100.528 69.9748 102.992C71.3188 102.928 72.5348 102.8 73.7188 102.608V104.464C71.1588 104.848 68.0548 104.976 64.6628 104.976H59.4468V103.152H64.7588ZM62.5508 102.032C62.3268 99.568 62.1668 96.304 62.0708 93.712H64.0868C64.1188 96.208 64.2148 99.504 64.4708 102.032H62.5508ZM76.9188 106H74.8388V99.184H76.9188V106ZM80.5988 110.16H63.4148V108.304H82.7428V116.976H80.5988V110.16ZM111.225 104.88H104.217V112.176H102.233V104.88H95.225V102.896H102.233V95.632H104.217V102.896H111.225V104.88ZM145.117 89.488V116.304H142.973V89.488H145.117ZM126.909 90.256C130.109 91.312 133.565 90.96 136.733 90.96V92.656C133.181 92.72 129.021 92.816 126.493 91.92L126.909 90.256ZM130.813 101.68C129.597 103.28 127.517 105.168 124.765 106.128L123.389 104.624C127.965 103.28 130.333 99.888 130.333 97.104H123.997V95.28H139.005V97.104H132.509C132.509 98.8 131.197 101.168 130.813 101.68ZM133.629 100.56C134.717 102.16 136.669 103.536 139.613 104.208L138.333 105.872C135.165 104.944 133.149 103.248 132.221 101.648L133.629 100.56ZM130.397 105.264H132.445V109.392H130.397V105.264ZM132.605 110.672C135.677 110.608 138.877 110.48 141.533 109.968V111.824C138.141 112.432 133.757 112.56 129.149 112.56H121.405V110.704L132.605 110.672ZM166.234 89.808H168.41V99.664H172.954V89.488H175.13V116.304H172.954V101.488H166.234V89.808ZM151.674 91.856H162.522V93.68H151.674V91.856ZM164.634 110.256C162.554 110.576 160.186 110.736 156.762 110.736H151.674V94.96H153.85V108.912H156.474C159.802 108.912 162.17 108.848 164.634 108.368V110.256ZM168.41 115.856H166.234V102.768H168.41V115.856ZM195.123 90.992L196.403 92.4L187.763 99.984L186.515 98.544L195.123 90.992ZM196.147 97.36V114H194.163V97.36H196.147ZM204.906 93.232V91.312H212.842V93.232H204.906ZM208.81 99.472C212.874 99.472 215.946 102.64 215.946 106.864C215.946 111.152 212.778 114.352 208.522 114.352C204.01 114.352 201.066 111.44 201.066 106.96H203.05C203.05 110.288 205.194 112.464 208.522 112.464C211.626 112.464 213.962 110.064 213.962 106.864C213.962 103.728 211.754 101.36 208.81 101.36C207.274 101.36 206.122 101.712 204.81 102.288V96.176H206.73V99.76C207.274 99.568 208.042 99.472 208.81 99.472ZM223.798 101.552C222.838 101.552 221.942 101.296 221.142 100.816C219.51 99.856 218.486 98.16 218.486 96.24C218.486 95.28 218.742 94.384 219.222 93.584C220.182 91.952 221.878 90.928 223.798 90.928C224.758 90.928 225.654 91.152 226.454 91.632C228.086 92.592 229.11 94.32 229.11 96.24C229.11 97.2 228.886 98.096 228.406 98.896C227.446 100.528 225.718 101.552 223.798 101.552ZM223.798 99.568C225.686 99.568 227.126 98.128 227.126 96.24C227.126 94.352 225.686 92.912 223.798 92.912C221.91 92.912 220.47 94.352 220.47 96.24C220.47 98.064 221.974 99.568 223.798 99.568ZM235.126 114.384C234.134 114.384 233.238 114.16 232.438 113.68C230.806 112.784 229.814 111.088 229.814 109.072C229.814 108.08 230.07 107.152 230.55 106.352C231.51 104.72 233.206 103.76 235.126 103.76C236.086 103.76 236.982 103.984 237.782 104.464C239.414 105.424 240.438 107.152 240.438 109.072C240.438 110.032 240.214 110.928 239.734 111.728C238.774 113.36 237.046 114.384 235.126 114.384ZM235.126 112.4C237.014 112.4 238.454 110.896 238.454 109.072C238.454 107.184 237.014 105.744 235.126 105.744C233.238 105.744 231.798 107.184 231.798 109.072C231.798 110.896 233.302 112.4 235.126 112.4ZM221.654 113.328L235.062 90.928L236.854 91.984L223.478 114.384L221.654 113.328ZM274.452 89.488V116.304H272.276V89.488H274.452ZM263.028 99.696H266.932V89.808H269.076V101.52H263.028V99.696ZM250.676 91.696H264.02V93.52H250.676V91.696ZM255.7 108.784C256.628 108.784 257.524 108.784 258.452 108.752C258.836 105.072 258.996 98.672 258.996 94.48H261.076C261.012 99.024 260.756 105.072 260.436 108.656C261.972 108.56 263.444 108.432 264.82 108.176L265.076 109.968C262.42 110.416 259.124 110.608 255.476 110.608H250.388V108.784H255.7ZM253.268 107.824C253.012 104.176 252.82 98.736 252.756 94.48H254.804C254.804 98.352 254.9 104.08 255.22 107.824H253.268ZM269.076 115.856H266.932V102.8H269.076V115.856ZM303.187 89.488V116.304H301.043V89.488H303.187ZM283.411 92.656C284.563 91.824 285.939 91.344 287.603 91.344C292.627 91.344 295.219 95.536 295.219 101.2C295.219 106.96 292.659 111.056 287.603 111.056C282.771 111.056 280.051 107.12 280.051 101.232C280.051 98.224 280.787 95.728 282.067 94L283.411 95.472C282.579 96.88 282.099 98.768 282.131 101.232C282.195 105.968 283.891 109.232 287.603 109.232C291.347 109.232 293.171 106.032 293.171 101.232C293.171 96.304 291.283 93.232 287.603 93.232C286.419 93.232 285.459 93.552 284.627 94.128L283.411 92.656ZM324.705 89.84H326.753V96.24H330.817V89.488H332.865V106H330.817V98.064H324.705V89.84ZM310.209 104.816V90.736H312.321V96.304H318.113V98.16H312.321V104.816H310.209ZM319.393 90.736H321.505V101.712H319.393V90.736ZM326.753 106H324.705V99.184H326.753V106ZM321.537 104.816H313.601V102.992H321.537V104.816ZM330.625 109.84H313.441V108.016H332.769V116.976H330.625V109.84ZM345.225 100.272H361.225V102.256H345.225V100.272ZM345.225 105.52H361.225V107.504H345.225V105.52ZM395.117 89.488V116.304H392.973V89.488H395.117ZM376.909 90.256C380.109 91.312 383.565 90.96 386.733 90.96V92.656C383.181 92.72 379.021 92.816 376.493 91.92L376.909 90.256ZM380.813 101.68C379.597 103.28 377.517 105.168 374.765 106.128L373.389 104.624C377.965 103.28 380.333 99.888 380.333 97.104H373.997V95.28H389.005V97.104H382.509C382.509 98.8 381.197 101.168 380.813 101.68ZM383.629 100.56C384.717 102.16 386.669 103.536 389.613 104.208L388.333 105.872C385.165 104.944 383.149 103.248 382.221 101.648L383.629 100.56ZM380.397 105.264H382.445V109.392H380.397V105.264ZM382.605 110.672C385.677 110.608 388.877 110.48 391.533 109.968V111.824C388.141 112.432 383.757 112.56 379.149 112.56H371.405V110.704L382.605 110.672ZM422.602 89.488V116.304H420.458V89.488H422.602ZM409.322 94.864C409.29 101.968 406.314 106.928 400.682 111.312L399.21 109.936C404.682 105.904 407.338 100.88 407.338 94.864V93.232H400.33V91.376H415.978V93.232H409.322V94.864ZM414.122 99.024H419.178V100.848H414.122V99.024ZM410.506 101.392C411.626 104.24 413.674 106.896 416.938 109.36L415.402 110.8C412.33 108.208 409.994 105.328 409.002 102.48L410.506 101.392ZM447.335 89.488H449.479V116.304H447.335V89.488ZM435.623 111.408C437.799 105.328 438.599 96.816 438.599 93.232H427.015V91.376H440.711C440.711 96.688 439.815 105.648 437.767 111.856L435.623 111.408ZM454.951 99.664V101.488H450.599V99.664H454.951ZM484.041 101.616C484.489 98.384 484.681 95.376 484.681 92.624H466.505V90.736H486.889C486.857 92.944 486.729 97.584 486.185 101.648L484.041 101.616ZM463.529 102.928H489.481V104.816H463.529V102.928ZM477.609 116.624H475.433V106.096H477.609V116.624ZM517.599 89.488V116.304H515.455V101.488H509.055V89.808H511.199V99.664H515.455V89.488H517.599ZM494.143 91.696H496.191V110.128H494.143V91.696ZM497.471 91.696H505.439V106.96L503.327 106.992V93.52H497.471V91.696ZM509.055 102.768H511.263V115.856H509.055V102.768ZM497.471 108.272H505.439V110.128H497.471V108.272ZM550.232 89.488H552.376V111.312H550.232V89.488ZM533.912 89.648C537.08 90.704 540.568 90.352 543.704 90.352V92.144C540.184 92.208 536.024 92.304 533.496 91.376L533.912 89.648ZM530.232 106.576C535.992 104.144 537.624 99.664 537.624 97.968V97.328H530.648V95.536H546.488V97.328H539.704V97.968C539.704 101.68 536.024 106.288 531.512 108.208L530.232 106.576ZM557.848 99.696V101.552H553.496V99.696H557.848ZM541.144 101.648C542.168 102.992 543.896 104.528 547.032 105.616L545.784 107.28C543.128 106.256 540.76 104.752 539.576 102.832L541.144 101.648ZM536.376 114.96H553.496V116.816H534.232V110.064H536.376V114.96ZM560.943 103.344C569.839 100.656 571.375 96.464 571.375 92.88V91.536H573.423V92.88C573.423 99.088 569.039 102.704 562.063 105.008L560.943 103.344ZM574.895 97.392C576.079 99.248 578.959 101.296 583.887 102.576L582.767 104.24C578.447 103.088 574.895 101.04 573.391 98.576L574.895 97.392ZM559.279 111.568H585.519V113.424H559.279V111.568Z" fill="white"/>
<path d="M146.04 533.3L142.92 532.28L143.32 531.12L146.46 532.1V528.82H147.7V532.1L150.82 531.12L151.22 532.3L148.1 533.32L150.02 535.96L149 536.7L147.06 534.04L145.14 536.7L144.1 535.96L146.04 533.3ZM172.699 527.68V544.44H171.339V527.68H172.699ZM165.559 534.06H167.999V527.88H169.339V535.2H165.559V534.06ZM157.839 529.06H166.179V530.2H157.839V529.06ZM160.979 539.74C161.559 539.74 162.119 539.74 162.699 539.72C162.939 537.42 163.039 533.42 163.039 530.8H164.339C164.299 533.64 164.139 537.42 163.939 539.66C164.899 539.6 165.819 539.52 166.679 539.36L166.839 540.48C165.179 540.76 163.119 540.88 160.839 540.88H157.659V539.74H160.979ZM159.459 539.14C159.299 536.86 159.179 533.46 159.139 530.8H160.419C160.419 533.22 160.479 536.8 160.679 539.14H159.459ZM169.339 544.16H167.999V536H169.339V544.16ZM190.658 527.68V544.44H189.318V527.68H190.658ZM178.298 529.66C179.018 529.14 179.878 528.84 180.918 528.84C184.058 528.84 185.678 531.46 185.678 535C185.678 538.6 184.078 541.16 180.918 541.16C177.898 541.16 176.198 538.7 176.198 535.02C176.198 533.14 176.658 531.58 177.458 530.5L178.298 531.42C177.778 532.3 177.478 533.48 177.498 535.02C177.538 537.98 178.598 540.02 180.918 540.02C183.258 540.02 184.398 538.02 184.398 535.02C184.398 531.94 183.218 530.02 180.918 530.02C180.178 530.02 179.578 530.22 179.058 530.58L178.298 529.66ZM204.107 527.9H205.387V531.9H207.927V527.68H209.207V538H207.927V533.04H204.107V527.9ZM195.047 537.26V528.46H196.367V531.94H199.987V533.1H196.367V537.26H195.047ZM200.787 528.46H202.107V535.32H200.787V528.46ZM205.387 538H204.107V533.74H205.387V538ZM202.127 537.26H197.167V536.12H202.127V537.26ZM207.807 540.4H197.067V539.26H209.147V544.86H207.807V540.4ZM227.172 527.88H228.532V534.04H231.372V527.68H232.732V544.44H231.372V535.18H227.172V527.88ZM218.072 529.16H224.852V530.3H218.072V529.16ZM226.172 540.66C224.872 540.86 223.392 540.96 221.252 540.96H218.072V531.1H219.432V539.82H221.072C223.152 539.82 224.632 539.78 226.172 539.48V540.66ZM228.532 544.16H227.172V535.98H228.532V544.16ZM248.957 527.68H250.297V532.66H253.537V533.82H250.297V537.9H248.957V527.68ZM235.457 536.84C238.957 534.92 240.397 531.86 240.397 529.58V528.38H241.737V529.58C241.737 532.94 239.357 536.06 236.477 537.74L235.457 536.84ZM242.617 532.7C243.317 533.9 244.497 535.06 246.537 535.9L245.617 536.92C243.537 535.86 242.437 534.82 241.657 533.4L242.617 532.7ZM240.797 540.28C239.997 540.58 239.557 541.02 239.557 541.9C239.557 543.18 241.357 543.84 244.437 543.84C247.597 543.84 249.317 543.16 249.317 541.88C249.317 540.28 247.397 539.76 244.437 539.76C243.537 539.76 242.737 539.82 242.057 539.92L241.437 538.92C242.257 538.76 243.257 538.66 244.437 538.66C248.657 538.66 250.617 539.74 250.617 541.88C250.617 543.7 248.757 544.96 244.437 544.96C240.177 544.96 238.257 543.72 238.257 541.9C238.257 540.6 238.857 539.82 240.177 539.32L240.797 540.28ZM267.687 527.68H269.027V532.66H272.267V533.82H269.027V537.9H267.687V527.68ZM254.187 536.84C257.687 534.92 259.127 531.86 259.127 529.58V528.38H260.467V529.58C260.467 532.94 258.087 536.06 255.207 537.74L254.187 536.84ZM261.347 532.7C262.047 533.9 263.227 535.06 265.267 535.9L264.347 536.92C262.267 535.86 261.167 534.82 260.387 533.4L261.347 532.7ZM259.527 540.28C258.727 540.58 258.287 541.02 258.287 541.9C258.287 543.18 260.087 543.84 263.167 543.84C266.327 543.84 268.047 543.16 268.047 541.88C268.047 540.28 266.127 539.76 263.167 539.76C262.267 539.76 261.467 539.82 260.787 539.92L260.167 538.92C260.987 538.76 261.987 538.66 263.167 538.66C267.387 538.66 269.347 539.74 269.347 541.88C269.347 543.7 267.487 544.96 263.167 544.96C258.907 544.96 256.987 543.72 256.987 541.9C256.987 540.6 257.587 539.82 258.907 539.32L259.527 540.28ZM287.818 529.42H275.038V528.28H287.818V529.42ZM275.078 533.54H283.658C283.758 532.44 283.838 531.38 283.878 530.12H285.238C285.198 531.46 285.098 532.54 284.998 533.54H287.778V534.7H275.078V533.54ZM278.978 530.12C279.018 531.1 279.078 531.88 279.138 532.84H277.798L277.638 530.12H278.978ZM289.718 536.5V537.68H282.078V539.58H287.638V543.1H286.278V540.72H277.438V539.58H280.738V537.68H273.118V536.5H289.718ZM275.238 539.58H276.558V545.06H275.238V539.58ZM277.438 543.9H287.658V545.06H277.438V543.9ZM295.962 529.46C294.982 529.74 294.402 530.24 294.402 530.92C294.402 532.24 296.502 532.74 299.582 532.74C302.642 532.74 304.762 532.24 304.762 530.92C304.762 529.58 302.642 529.08 299.582 529.08C298.642 529.08 297.782 529.12 297.042 529.24L296.362 528.22C297.262 528.06 298.322 527.98 299.582 527.98C303.882 527.98 306.062 528.98 306.062 530.92C306.062 532.84 303.882 533.84 299.582 533.84C295.222 533.84 293.102 532.84 293.102 530.92C293.102 529.8 293.822 528.98 295.282 528.5L295.962 529.46ZM291.282 535.38H307.882V536.54H291.282V535.38ZM304.322 539.28H293.402V538.1H305.802V540.34H304.302L304.322 539.28ZM293.402 540.94H305.802V542.12H293.402V540.94ZM294.842 543.88H306.182V545.06H293.402V542.72H294.862L294.842 543.88ZM321.256 529.18C321.256 530.52 320.976 533.08 320.256 534.9L318.916 534.58C319.776 532.74 319.956 530.6 319.956 529.42H315.556V528.28H321.256V529.18ZM328.896 528.28C328.896 529.7 328.856 532.32 328.316 534.88L327.036 534.66C327.516 532.56 327.576 530.3 327.576 529.42H321.976V528.28H328.896ZM322.816 532.3H324.076V535.28H322.816V532.3ZM330.616 537.16H314.016V535.98H330.616V537.16ZM316.076 540.4V539.26H328.576V545.06H327.216V540.4H316.076ZM346.371 529.08C344.151 529.12 341.551 529.18 339.971 528.6L340.231 527.58C342.211 528.24 344.391 528.02 346.371 528.02V529.08ZM350.051 527.68H351.391V539.46H350.051V527.68ZM348.391 531.18H337.711V530.1H348.391V531.18ZM349.251 538.54C347.291 538.82 345.011 538.88 342.471 538.88H336.751V537.74H342.371V536.34C340.171 536.24 338.771 535.6 338.771 534.2C338.771 533.36 339.271 532.78 340.131 532.42L340.751 533.36C340.311 533.54 340.051 533.82 340.051 534.2C340.051 535.08 341.371 535.38 343.051 535.38C344.731 535.38 346.051 535.08 346.051 534.2C346.051 533.34 344.731 533 343.051 533C342.551 533 342.071 533.04 341.671 533.1L341.071 532.16C341.651 532.06 342.311 532 343.051 532C345.631 532 347.331 532.64 347.331 534.2C347.331 535.6 345.911 536.24 343.711 536.34V537.74C345.651 537.72 347.531 537.64 349.251 537.4V538.54ZM354.531 534.04V535.18H352.091V534.04H354.531ZM339.251 540.32H351.391V544.86H350.051V541.48H339.251V540.32ZM369.483 527.68H370.843V541.12H369.483V527.68ZM358.123 529.2C358.903 528.7 359.823 528.46 360.783 528.46C363.163 528.46 365.363 530.02 365.363 533.04C365.363 536.06 363.163 537.6 360.783 537.6C358.363 537.6 356.183 536.06 356.183 533.04C356.183 531.76 356.583 530.74 357.223 529.98L358.083 530.88C357.683 531.42 357.443 532.14 357.443 533.04C357.443 535.44 359.103 536.46 360.783 536.46C362.443 536.46 364.123 535.44 364.123 533.04C364.123 530.64 362.443 529.62 360.783 529.62C360.123 529.62 359.483 529.78 358.903 530.12L358.123 529.2ZM360.323 543.6H371.223V544.76H358.983V539.86H360.323V543.6ZM389.282 527.68V544.44H387.962V535.86H384.142V527.88H385.462V534.72H387.962V527.68H389.282ZM381.202 529.86C379.222 529.9 376.882 529.96 375.462 529.38L375.682 528.36C377.482 529.02 379.422 528.8 381.202 528.8V529.86ZM373.762 532.1H382.702V533.24H373.762V532.1ZM378.522 535C380.902 535 382.362 536.4 382.362 538.4C382.362 540.36 380.902 541.76 378.522 541.76C376.142 541.76 374.682 540.36 374.682 538.4C374.682 537.5 374.982 536.7 375.542 536.12L376.382 537.02C376.082 537.4 375.922 537.88 375.922 538.4C375.922 539.72 376.862 540.64 378.522 540.64C380.162 540.64 381.122 539.72 381.122 538.4C381.122 537.14 380.162 536.12 378.522 536.12C377.982 536.12 377.502 536.24 377.122 536.42L376.362 535.5C376.942 535.18 377.682 535 378.522 535ZM384.142 536.66H385.502V544.16H384.142V536.66ZM393.499 534.7C397.839 533.7 399.659 531.64 399.659 529.98V529.64H393.979V528.46H406.679V529.64H400.939V529.98C400.939 532.6 398.139 534.78 394.119 535.74L393.499 534.7ZM401.779 531.96C402.679 533.02 404.319 533.94 407.079 534.42L406.559 535.5C404.119 535.04 401.979 534.06 401.059 532.88L400.879 532.64L401.779 531.96ZM408.439 537.58V538.76H392.219V537.58H408.439ZM399.639 539.56H400.999V544.74H399.639V539.56ZM424.633 527.68V544.44H423.293V527.68H424.633ZM416.893 533.66H419.873V527.88H421.233V534.82H416.893V533.66ZM409.213 540.36C412.253 537.46 413.173 534.7 413.173 531.24V529.06H414.473V531.24C414.473 535.06 413.293 538.1 410.173 541.12L409.213 540.36ZM415.093 535.6C415.653 537.08 416.593 538.46 418.233 539.88L417.293 540.72C415.953 539.44 414.513 537.58 414.173 536.26L415.093 535.6ZM421.233 544.16H419.873V535.62H421.233V544.16ZM432.311 530.48C431.271 531.06 430.691 531.96 430.691 533.16C430.691 535.32 432.791 536.44 435.771 536.44C438.731 536.44 440.831 535.32 440.831 533.16C440.831 531 438.891 529.76 435.771 529.76C434.891 529.76 434.091 529.86 433.411 530.04L432.751 528.98C433.611 528.74 434.611 528.6 435.771 528.6C440.031 528.6 442.171 530.48 442.171 533.16C442.171 536.34 439.171 537.58 435.771 537.58C432.271 537.58 429.371 536.32 429.371 533.16C429.371 531.56 430.111 530.24 431.611 529.44L432.311 530.48ZM427.571 541.48H431.671V538.28H433.031V541.48H438.531V538.28H439.871V541.48H443.971V542.64H427.571V541.48ZM48.2863 564.3L45.1663 563.28L45.5663 562.12L48.7063 563.1V559.82H49.9463V563.1L53.0663 562.12L53.4663 563.3L50.3463 564.32L52.2663 566.96L51.2463 567.7L49.3063 565.04L47.3863 567.7L46.3463 566.96L48.2863 564.3ZM74.9446 558.68V575.44H73.5846V558.68H74.9446ZM67.8046 565.06H70.2446V558.88H71.5846V566.2H67.8046V565.06ZM60.0846 560.06H68.4246V561.2H60.0846V560.06ZM63.2246 570.74C63.8046 570.74 64.3646 570.74 64.9446 570.72C65.1846 568.42 65.2846 564.42 65.2846 561.8H66.5846C66.5446 564.64 66.3846 568.42 66.1846 570.66C67.1446 570.6 68.0646 570.52 68.9246 570.36L69.0846 571.48C67.4246 571.76 65.3646 571.88 63.0846 571.88H59.9046V570.74H63.2246ZM61.7046 570.14C61.5446 567.86 61.4246 564.46 61.3846 561.8H62.6646C62.6646 564.22 62.7246 567.8 62.9246 570.14H61.7046ZM71.5846 575.16H70.2446V567H71.5846V575.16ZM92.904 558.68V575.44H91.564V558.68H92.904ZM80.544 560.66C81.264 560.14 82.124 559.84 83.164 559.84C86.304 559.84 87.924 562.46 87.924 566C87.924 569.6 86.324 572.16 83.164 572.16C80.144 572.16 78.444 569.7 78.444 566.02C78.444 564.14 78.904 562.58 79.704 561.5L80.544 562.42C80.024 563.3 79.724 564.48 79.744 566.02C79.784 568.98 80.844 571.02 83.164 571.02C85.504 571.02 86.644 569.02 86.644 566.02C86.644 562.94 85.464 561.02 83.164 561.02C82.424 561.02 81.824 561.22 81.304 561.58L80.544 560.66ZM106.353 558.9H107.633V562.9H110.173V558.68H111.453V569H110.173V564.04H106.353V558.9ZM97.2927 568.26V559.46H98.6127V562.94H102.233V564.1H98.6127V568.26H97.2927ZM103.033 559.46H104.353V566.32H103.033V559.46ZM107.633 569H106.353V564.74H107.633V569ZM104.373 568.26H99.4127V567.12H104.373V568.26ZM110.053 571.4H99.3127V570.26H111.393V575.86H110.053V571.4ZM133.798 558.68V568.8H132.458V558.68H133.798ZM118.958 568.06C123.418 565.92 123.838 562.86 123.838 560.92V560.82H119.558V559.66H129.338V560.82H125.198V560.92C125.198 564.66 123.358 567.28 119.878 569.02L118.958 568.06ZM128.278 564.1V562.98H131.758V564.1H128.278ZM125.998 564.22C126.618 565.24 127.878 566.38 129.858 567.12L128.938 568.18C127.098 567.44 125.578 566.16 124.978 565.02L125.998 564.22ZM132.458 571.2H121.758V570.06H133.798V575.86H132.458V571.2ZM141.931 559.26C142.771 559.08 143.831 558.98 145.031 558.98C149.331 558.98 151.511 560.16 151.511 562.2C151.511 564.26 149.331 565.42 145.031 565.42C140.671 565.42 138.551 564.26 138.551 562.2C138.551 561.02 139.271 560.12 140.691 559.58L141.371 560.56C140.451 560.92 139.911 561.46 139.911 562.2C139.911 563.62 141.891 564.34 145.031 564.34C148.151 564.34 150.151 563.62 150.151 562.2C150.151 560.78 148.151 560.08 145.031 560.08C144.091 560.08 143.271 560.14 142.571 560.28L141.931 559.26ZM136.731 567.8H140.971V566.12H142.251V567.8H147.811V566.12H149.091V567.8H153.331V568.98H136.731V567.8ZM141.351 571.8C140.431 572.12 139.911 572.62 139.911 573.32C139.911 574.68 141.891 575.26 145.031 575.26C148.151 575.26 150.151 574.68 150.151 573.32C150.151 571.94 148.151 571.38 145.031 571.38C144.111 571.38 143.311 571.44 142.611 571.52L141.971 570.5C142.831 570.36 143.831 570.28 145.031 570.28C149.331 570.28 151.511 571.32 151.511 573.32C151.511 575.3 149.331 576.34 145.031 576.34C140.671 576.34 138.551 575.3 138.551 573.32C138.551 572.16 139.251 571.32 140.711 570.82L141.351 571.8ZM159.375 560.8C158.355 561.26 157.835 561.98 157.835 562.84C157.835 564.42 159.595 565.5 162.995 565.5C166.375 565.5 168.175 564.42 168.175 562.84C168.175 561.26 166.375 560.18 162.995 560.18C162.075 560.18 161.255 560.26 160.575 560.42L159.995 559.42C160.835 559.22 161.835 559.1 162.995 559.1C167.295 559.1 169.455 560.64 169.455 562.84C169.455 565.06 167.295 566.6 162.995 566.6C158.675 566.6 156.555 565.06 156.555 562.84C156.555 561.52 157.295 560.46 158.815 559.82L159.375 560.8ZM160.655 570.14C160.575 572.36 160.215 574.14 159.595 575.64L158.235 575.26C158.875 573.78 159.235 572.1 159.295 570.14H154.895V568.98H171.115V570.14H160.655ZM167.195 575.74H165.875L165.755 571.14H167.075L167.195 575.74ZM174.629 566.46V559.46H175.929V566.46H174.629ZM185.589 560.64H176.829V559.46H186.929V564.38H185.589V560.64ZM186.929 566.46H176.829V565.28H186.929V566.46ZM172.669 568.98H188.889V570.16H172.669V568.98ZM181.449 575.64H180.089V570.96H181.449V575.64ZM205.262 565.04C203.662 565.44 201.822 565.56 198.802 565.56H192.562V559.18H193.902V564.4H198.822C201.502 564.4 203.102 564.32 205.082 563.88L205.262 565.04ZM190.442 568.2H207.042V569.36H190.442V568.2ZM193.902 574.7H205.542V575.86H192.562V570.96H193.902V574.7ZM226.276 566.14H221.716V565H226.276V562.82H221.716V561.68H226.276V558.68H227.636V567.62H226.276V566.14ZM218.216 567C219.136 564.94 219.576 562.72 219.616 560.62H212.596V559.46H221.016C221.016 562.24 220.556 565.04 219.516 567.42L218.216 567ZM226.196 571.06V569.86H215.696V568.7H227.636V571.06H226.196ZM215.696 571.76H227.636V572.9H215.696V571.76ZM228.216 574.9V576.06H215.696V573.6H217.136V574.9H228.216ZM246.179 558.68V575.44H244.839V558.68H246.179ZM241.319 558.88H242.679V565.82H238.279V564.66H241.319V558.88ZM236.079 562.4C236.079 565.86 234.419 569.58 231.759 572.12L230.759 571.34C233.859 568.36 234.799 565.06 234.799 562.38V561.2H231.259V560.06H239.419V561.2H236.079V562.4ZM236.759 566.3C237.319 567.88 238.259 569.42 239.839 570.88L238.879 571.72C237.619 570.44 236.579 569.16 235.799 566.98L236.759 566.3ZM241.319 566.52H242.679V575.16H241.319V566.52ZM268.324 572.12H266.984V558.68H268.324V572.12ZM258.284 566.06C257.644 567.1 256.604 568.4 254.764 569.66L253.684 568.8C257.164 566.58 258.224 563.84 258.304 561.82V560.82H254.284V559.66H263.664V560.82H259.604V561.82C259.564 563.66 259.024 564.84 258.284 566.06ZM266.184 564.82H262.564V563.66H266.184V564.82ZM260.404 564.72C261.104 566.02 262.084 567.06 264.044 568.22L263.064 569.16C261.244 568.08 259.944 566.62 259.424 565.46L260.404 564.72ZM268.724 574.6V575.76H256.484V570.96H257.824V574.6H268.724ZM277.113 565.7C281.453 564.7 283.273 562.64 283.273 560.98V560.64H277.593V559.46H290.293V560.64H284.553V560.98C284.553 563.6 281.753 565.78 277.733 566.74L277.113 565.7ZM285.393 562.96C286.293 564.02 287.933 564.94 290.693 565.42L290.173 566.5C287.733 566.04 285.593 565.06 284.673 563.88L284.493 563.64L285.393 562.96ZM292.053 568.58V569.76H275.833V568.58H292.053ZM283.253 570.56H284.613V575.74H283.253V570.56ZM295.726 566.1V559.46H297.026V566.1H295.726ZM306.766 560.62H297.826V559.46H308.126V564.14H306.766V560.62ZM308.146 566.1H297.826V564.96H308.146V566.1ZM293.606 568.16H310.206V569.3H293.606V568.16ZM302.646 572.92H301.366V569.9H302.646V572.92ZM297.066 574.7H308.706V575.86H295.726V571.06H297.066V574.7ZM327.21 558.68V575.44H325.85V558.68H327.21ZM320.07 565.06H322.51V558.88H323.85V566.2H320.07V565.06ZM312.35 560.06H320.69V561.2H312.35V560.06ZM315.49 570.74C316.07 570.74 316.63 570.74 317.21 570.72C317.45 568.42 317.55 564.42 317.55 561.8H318.85C318.81 564.64 318.65 568.42 318.45 570.66C319.41 570.6 320.33 570.52 321.19 570.36L321.35 571.48C319.69 571.76 317.63 571.88 315.35 571.88H312.17V570.74H315.49ZM313.97 570.14C313.81 567.86 313.69 564.46 313.65 561.8H314.93C314.93 564.22 314.99 567.8 315.19 570.14H313.97ZM323.85 575.16H322.51V567H323.85V575.16ZM345.17 558.68V575.44H343.83V558.68H345.17ZM332.81 560.66C333.53 560.14 334.39 559.84 335.43 559.84C338.57 559.84 340.19 562.46 340.19 566C340.19 569.6 338.59 572.16 335.43 572.16C332.41 572.16 330.71 569.7 330.71 566.02C330.71 564.14 331.17 562.58 331.97 561.5L332.81 562.42C332.29 563.3 331.99 564.48 332.01 566.02C332.05 568.98 333.11 571.02 335.43 571.02C337.77 571.02 338.91 569.02 338.91 566.02C338.91 562.94 337.73 561.02 335.43 561.02C334.69 561.02 334.09 561.22 333.57 561.58L332.81 560.66ZM362.738 558.68V575.44H361.398V558.68H362.738ZM354.518 562.04C354.498 566.48 352.278 569.44 348.838 572.32L347.918 571.46C351.258 568.9 353.258 565.7 353.258 562.04V561.02H348.618V559.86H358.978V561.02H354.518V562.04ZM355.338 565.88C356.098 567.76 357.458 569.5 359.578 571.1L358.618 572C356.898 570.58 355.058 568.5 354.378 566.58L355.338 565.88ZM381.696 558.68V575.44H380.336V558.68H381.696ZM375.116 565.34H376.736V558.88H378.076V566.5H375.116V565.34ZM368.256 560.52C368.816 560.08 369.536 559.84 370.396 559.84C373.256 559.84 374.316 562.48 374.316 565.92C374.316 569.36 373.216 571.96 370.396 571.96C367.696 571.96 366.456 569.6 366.456 565.92C366.456 564.04 366.776 562.5 367.456 561.44L368.316 562.38C367.896 563.24 367.716 564.46 367.716 565.92C367.716 568.86 368.496 570.82 370.396 570.82C372.256 570.82 373.076 568.86 373.076 565.92C373.076 562.94 372.256 561.02 370.396 561.02C369.856 561.02 369.396 561.18 369.016 561.46L368.256 560.52ZM378.076 575.16H376.736V567.2H378.076V575.16ZM397.542 575.44V558.68H398.882V575.44H397.542ZM383.842 571.46C387.262 568.94 388.922 565.8 388.922 562.04V559.86H390.162V562.04C390.142 566.48 388.282 569.58 384.762 572.32L383.842 571.46ZM396.842 564.64V565.8H393.462V564.64H396.842ZM390.922 566.12C391.622 567.88 392.902 569.54 394.942 571.1L393.982 572C391.342 569.78 390.282 567.78 389.982 566.82L390.922 566.12ZM416 560.08C413.78 560.12 411.18 560.18 409.6 559.6L409.86 558.58C411.84 559.24 414.02 559.02 416 559.02V560.08ZM419.68 558.68H421.02V570.46H419.68V558.68ZM418.02 562.18H407.34V561.1H418.02V562.18ZM418.88 569.54C416.92 569.82 414.64 569.88 412.1 569.88H406.38V568.74H412V567.34C409.8 567.24 408.4 566.6 408.4 565.2C408.4 564.36 408.9 563.78 409.76 563.42L410.38 564.36C409.94 564.54 409.68 564.82 409.68 565.2C409.68 566.08 411 566.38 412.68 566.38C414.36 566.38 415.68 566.08 415.68 565.2C415.68 564.34 414.36 564 412.68 564C412.18 564 411.7 564.04 411.3 564.1L410.7 563.16C411.28 563.06 411.94 563 412.68 563C415.26 563 416.96 563.64 416.96 565.2C416.96 566.6 415.54 567.24 413.34 567.34V568.74C415.28 568.72 417.16 568.64 418.88 568.4V569.54ZM424.16 565.04V566.18H421.72V565.04H424.16ZM408.88 571.32H421.02V575.86H419.68V572.48H408.88V571.32ZM439.112 558.68H440.472V572.12H439.112V558.68ZM427.752 560.2C428.532 559.7 429.452 559.46 430.412 559.46C432.792 559.46 434.992 561.02 434.992 564.04C434.992 567.06 432.792 568.6 430.412 568.6C427.992 568.6 425.812 567.06 425.812 564.04C425.812 562.76 426.212 561.74 426.852 560.98L427.712 561.88C427.312 562.42 427.072 563.14 427.072 564.04C427.072 566.44 428.732 567.46 430.412 567.46C432.072 567.46 433.752 566.44 433.752 564.04C433.752 561.64 432.072 560.62 430.412 560.62C429.752 560.62 429.112 560.78 428.532 561.12L427.752 560.2ZM429.952 574.6H440.852V575.76H428.612V570.86H429.952V574.6ZM460.282 558.68H461.622V575.44H460.282V558.68ZM452.962 572.38C454.322 568.58 454.822 563.26 454.822 561.02H447.582V559.86H456.142C456.142 563.18 455.582 568.78 454.302 572.66L452.962 572.38ZM465.042 565.04V566.18H462.322V565.04H465.042ZM480.653 564.54C479.053 564.96 477.213 565.08 474.193 565.08H467.953V559.18H469.293V563.9H474.213C476.893 563.9 478.493 563.82 480.473 563.4L480.653 564.54ZM465.833 567.32H482.433V568.52H465.833V567.32ZM471.013 570.34C471.893 570.18 472.933 570.1 474.133 570.1C478.433 570.1 480.613 571.2 480.613 573.22C480.613 575.2 478.433 576.34 474.133 576.34C469.773 576.34 467.653 575.2 467.653 573.22C467.653 572.02 468.393 571.16 469.893 570.66L470.573 571.64C469.573 571.94 469.013 572.46 469.013 573.22C469.013 574.58 470.993 575.26 474.133 575.26C477.253 575.26 479.253 574.58 479.253 573.22C479.253 571.82 477.253 571.2 474.133 571.2C473.213 571.2 472.393 571.24 471.693 571.36L471.013 570.34ZM492.917 560.14C490.717 560.18 488.117 560.24 486.537 559.66L486.797 558.58C488.777 559.24 490.957 559.02 492.917 559.02V560.14ZM497.377 568.92V558.68H498.717V568.92H497.377ZM494.957 562.68H484.477V561.58H494.957V562.68ZM494.257 566.44C494.257 568.02 492.557 569.06 489.777 569.06C486.997 569.06 485.317 568.02 485.317 566.44C485.317 565.46 485.857 564.8 486.817 564.34L487.457 565.26C486.937 565.54 486.617 565.86 486.617 566.44C486.617 567.54 488.077 568.02 489.777 568.02C491.497 568.02 492.937 567.54 492.937 566.44C492.937 565.2 491.497 564.84 489.777 564.84C489.317 564.84 488.857 564.88 488.457 564.94L487.837 563.98C488.397 563.86 489.057 563.78 489.777 563.78C492.557 563.78 494.257 564.72 494.257 566.44ZM501.957 564.36V565.52H499.417V564.36H501.957ZM496.597 572.9H488.217V575.86H486.897V569.84H488.217V571.76H496.597V572.9ZM497.397 569.84H498.737V574H497.397V569.84ZM489.017 574.7H498.757V575.86H489.017V574.7ZM517.884 558.68V575.44H516.544V558.68H517.884ZM515.544 571.18C513.884 571.52 511.824 571.74 508.744 571.76L504.204 571.78V559.86H505.564V570.62L508.764 570.6C511.704 570.58 513.804 570.36 515.544 570V571.18ZM534.113 575.44V558.68H535.453V575.44H534.113ZM522.173 559.96H530.133V561.16H522.173V559.96ZM523.513 570.82H524.913C527.933 570.82 530.753 570.78 533.213 570.2V571.36C530.913 571.86 528.213 571.96 524.893 571.96H522.193V562.06H523.513V570.82ZM538.873 565.42V566.58H536.153V565.42H538.873ZM540.701 574.64C540.201 574.64 539.801 574.24 539.801 573.74C539.801 573.26 540.221 572.84 540.701 572.84C541.201 572.84 541.601 573.24 541.601 573.74C541.601 574.24 541.201 574.64 540.701 574.64ZM135.269 595.3L132.149 594.28L132.549 593.12L135.689 594.1V590.82H136.929V594.1L140.049 593.12L140.449 594.3L137.329 595.32L139.249 597.96L138.229 598.7L136.289 596.04L134.369 598.7L133.329 597.96L135.269 595.3ZM161.927 589.68V606.44H160.567V589.68H161.927ZM154.787 596.06H157.227V589.88H158.567V597.2H154.787V596.06ZM147.067 591.06H155.407V592.2H147.067V591.06ZM150.207 601.74C150.787 601.74 151.347 601.74 151.927 601.72C152.167 599.42 152.267 595.42 152.267 592.8H153.567C153.527 595.64 153.367 599.42 153.167 601.66C154.127 601.6 155.047 601.52 155.907 601.36L156.067 602.48C154.407 602.76 152.347 602.88 150.067 602.88H146.887V601.74H150.207ZM148.687 601.14C148.527 598.86 148.407 595.46 148.367 592.8H149.647C149.647 595.22 149.707 598.8 149.907 601.14H148.687ZM158.567 606.16H157.227V598H158.567V606.16ZM179.886 589.68V606.44H178.546V589.68H179.886ZM167.526 591.66C168.246 591.14 169.106 590.84 170.146 590.84C173.286 590.84 174.906 593.46 174.906 597C174.906 600.6 173.306 603.16 170.146 603.16C167.126 603.16 165.426 600.7 165.426 597.02C165.426 595.14 165.886 593.58 166.686 592.5L167.526 593.42C167.006 594.3 166.706 595.48 166.726 597.02C166.766 599.98 167.826 602.02 170.146 602.02C172.486 602.02 173.626 600.02 173.626 597.02C173.626 593.94 172.446 592.02 170.146 592.02C169.406 592.02 168.806 592.22 168.286 592.58L167.526 591.66ZM193.335 589.9H194.615V593.9H197.155V589.68H198.435V600H197.155V595.04H193.335V589.9ZM184.275 599.26V590.46H185.595V593.94H189.215V595.1H185.595V599.26H184.275ZM190.015 590.46H191.335V597.32H190.015V590.46ZM194.615 600H193.335V595.74H194.615V600ZM191.355 599.26H186.395V598.12H191.355V599.26ZM197.035 602.4H186.295V601.26H198.375V606.86H197.035V602.4ZM206.67 590.44C207.51 590.28 208.51 590.18 209.67 590.18C213.97 590.18 216.15 591.44 216.15 593.64C216.15 595.82 213.97 597.08 209.67 597.08C205.31 597.08 203.19 595.82 203.19 593.64C203.19 592.34 203.93 591.36 205.43 590.78L206.07 591.78C205.07 592.16 204.51 592.78 204.51 593.64C204.51 595.28 206.53 596 209.67 596C212.79 596 214.83 595.28 214.83 593.64C214.83 592 212.79 591.26 209.67 591.26C208.79 591.26 207.97 591.32 207.29 591.44L206.67 590.44ZM201.37 599H217.97V600.14H201.37V599ZM204.83 605.7H216.47V606.86H203.49V602.06H204.83V605.7ZM236.924 597.26C237.204 595.24 237.324 593.36 237.324 591.64H225.964V590.46H238.704C238.684 591.84 238.604 594.74 238.264 597.28L236.924 597.26ZM224.104 598.08H240.324V599.26H224.104V598.08ZM232.904 606.64H231.544V600.06H232.904V606.64ZM257.898 589.68V606.44H256.558V597.18H252.558V589.88H253.898V596.04H256.558V589.68H257.898ZM243.238 591.06H244.518V602.58H243.238V591.06ZM245.318 591.06H250.298V600.6L248.978 600.62V592.2H245.318V591.06ZM252.558 597.98H253.938V606.16H252.558V597.98ZM245.318 601.42H250.298V602.58H245.318V601.42ZM270.443 591.08C268.223 591.12 265.623 591.18 264.043 590.6L264.303 589.58C266.283 590.24 268.463 590.02 270.443 590.02V591.08ZM274.123 589.68H275.463V601.46H274.123V589.68ZM272.463 593.18H261.783V592.1H272.463V593.18ZM273.323 600.54C271.363 600.82 269.083 600.88 266.543 600.88H260.823V599.74H266.443V598.34C264.243 598.24 262.843 597.6 262.843 596.2C262.843 595.36 263.343 594.78 264.203 594.42L264.823 595.36C264.383 595.54 264.123 595.82 264.123 596.2C264.123 597.08 265.443 597.38 267.123 597.38C268.803 597.38 270.123 597.08 270.123 596.2C270.123 595.34 268.803 595 267.123 595C266.623 595 266.143 595.04 265.743 595.1L265.143 594.16C265.723 594.06 266.383 594 267.123 594C269.703 594 271.403 594.64 271.403 596.2C271.403 597.6 269.983 598.24 267.783 598.34V599.74C269.723 599.72 271.603 599.64 273.323 599.4V600.54ZM278.603 596.04V597.18H276.163V596.04H278.603ZM263.323 602.32H275.463V606.86H274.123V603.48H263.323V602.32ZM292.975 595.1H288.795V593.98H292.975V589.68H294.315V599.9H292.975V595.1ZM279.475 599.06C283.975 596.84 284.355 593.94 284.355 591.92V591.82H280.075V590.66H289.855V591.82H285.715V591.92C285.715 595.8 283.835 598.2 280.395 600.02L279.475 599.06ZM286.515 595.22C287.135 596.28 288.415 597.38 290.395 598.08L289.475 599.16C287.635 598.46 286.095 597.2 285.495 596.02L286.515 595.22ZM285.355 600.94C286.195 600.76 287.215 600.66 288.435 600.66C292.655 600.66 294.615 601.82 294.615 603.8C294.615 605.8 292.655 606.96 288.435 606.96C284.175 606.96 282.275 605.8 282.275 603.8C282.275 602.7 282.855 601.84 284.135 601.32L284.775 602.28C283.995 602.6 283.555 603.1 283.555 603.8C283.555 605.26 285.355 605.84 288.435 605.84C291.515 605.84 293.315 605.26 293.315 603.8C293.315 602.36 291.515 601.78 288.435 601.78C287.495 601.78 286.675 601.84 285.995 601.94L285.355 600.94ZM306.539 589.38C308.419 590.04 311.039 589.98 313.639 589.92V591C311.199 591.1 307.799 591.02 306.299 590.44L306.539 589.38ZM303.279 592.32H316.579V593.42H303.279V592.32ZM307.359 594.7C307.979 594.6 308.739 594.52 309.859 594.52C313.519 594.52 315.099 595.48 315.099 597.02C315.099 598.58 313.519 599.54 309.859 599.54C306.159 599.54 304.619 598.58 304.619 597.02C304.619 596.08 305.179 595.38 306.379 594.96L306.979 595.9C306.219 596.16 305.859 596.54 305.859 597.02C305.859 597.96 307.239 598.48 309.859 598.48C312.459 598.48 313.859 597.96 313.859 597.02C313.859 596.12 312.459 595.56 309.859 595.56C308.979 595.56 308.459 595.62 307.959 595.68L307.359 594.7ZM301.819 600.84H318.039V602.02H301.819V600.84ZM310.579 606.74H309.259V602.82H310.579V606.74ZM338.603 589.68V606.44H337.263V589.68H338.603ZM330.483 593.04C330.463 597.48 328.423 600.48 324.903 603.32L323.983 602.46C327.403 599.94 329.243 596.7 329.243 593.04V592.02H324.683V590.86H334.843V592.02H330.483V593.04ZM341.843 596.42V597.58H339.303V596.42H341.843ZM331.223 596.84C331.903 598.68 333.343 600.54 335.483 602.1L334.523 603C332.303 601.14 330.943 599.24 330.283 597.54L331.223 596.84ZM357.14 591.42H344.74V590.28H357.14V591.42ZM359.22 598.6V599.78H342.62V598.6H350.24V596.5H344.74V592.12H346.08V595.34H352.1C354.3 595.34 355.78 595.28 357.36 595.02L357.48 596.2C356.1 596.42 354.48 596.5 352.08 596.5H351.6V598.6H359.22ZM350.92 601.28C355.22 601.28 357.4 602.32 357.4 604.32C357.4 606.3 355.22 607.34 350.92 607.34C346.56 607.34 344.44 606.3 344.44 604.32C344.44 603.14 345.18 602.3 346.68 601.8L347.36 602.78C346.36 603.08 345.8 603.58 345.8 604.32C345.8 605.68 347.78 606.26 350.92 606.26C354.04 606.26 356.04 605.68 356.04 604.32C356.04 602.94 354.04 602.38 350.92 602.38C350 602.38 349.18 602.42 348.48 602.54L347.8 601.52C348.68 601.36 349.72 601.28 350.92 601.28ZM379.164 594.46V595.6H375.944V599.02H374.604V589.68H375.944V594.46H379.164ZM363.564 594.52V598.28H362.244V590.18H363.564V593.36H368.464V594.52H363.564ZM370.564 596.34H369.264V590.18H370.564V596.34ZM364.364 597.14H370.584V598.28H364.364V597.14ZM374.544 602.24V601.26H364.064V600.1H375.944V602.24H374.544ZM364.064 602.94H375.944V604.08H364.064V602.94ZM365.464 605.9H376.524V607.06H364.064V604.78H365.464V605.9ZM392.862 596.5C393.242 594.52 393.362 592.76 393.362 591.42H382.042V590.28H394.722C394.762 592.2 394.602 594.3 394.202 596.5H392.862ZM396.622 598.4H380.022V597.2H396.622V598.4ZM382.142 607.06V599.76H383.462V602.46H392.402V603.62H383.462V607.06H382.142ZM393.202 599.76H394.542V605.2H393.202V599.76ZM394.562 607.06H384.262V605.9H394.562V607.06ZM412.926 589.68V599.9H411.586V589.68H412.926ZM408.726 591.64H399.826V590.48H408.726V591.64ZM410.786 599.36C408.806 599.62 406.486 599.72 403.906 599.72H398.186V598.58H403.826V596.42H399.846V592.34H401.186V595.28H405.186C406.386 595.28 408.046 595.18 409.066 594.84L409.306 596.02C408.486 596.32 406.426 596.42 405.166 596.42V598.58C407.146 598.56 409.046 598.48 410.786 598.22V599.36ZM402.126 603.98V606.86H400.786V600.8H402.126V602.86H410.786V603.98H402.126ZM411.586 600.8H412.926V605H411.586V600.8ZM402.926 605.7H412.926V606.86H402.926V605.7ZM430.902 589.68V606.44H429.562V589.68H430.902ZM428.562 602.18C426.902 602.52 424.842 602.74 421.762 602.76L417.222 602.78V590.86H418.582V601.62L421.782 601.6C424.722 601.58 426.822 601.36 428.562 601V602.18ZM447.131 606.44V589.68H448.471V606.44H447.131ZM435.191 590.96H443.151V592.16H435.191V590.96ZM436.531 601.82H437.931C440.951 601.82 443.771 601.78 446.231 601.2V602.36C443.931 602.86 441.231 602.96 437.911 602.96H435.211V593.06H436.531V601.82ZM451.891 596.42V597.58H449.171V596.42H451.891ZM453.718 605.64C453.218 605.64 452.818 605.24 452.818 604.74C452.818 604.26 453.238 603.84 453.718 603.84C454.218 603.84 454.618 604.24 454.618 604.74C454.618 605.24 454.218 605.64 453.718 605.64Z" fill="white"/>
<g filter="url(#filter0_d_4_565)">
<path fill-rule="evenodd" clip-rule="evenodd" d="M477.666 215.323L97 234.952L108.708 461.999L489.374 442.37L484.64 350.562C473.321 350.593 463.799 340.897 463.157 328.444C462.514 315.991 470.989 305.367 482.251 304.234L477.666 215.323Z" fill="url(#paint0_linear_4_565)" shape-rendering="crispEdges"/>
</g>
<g opacity="0.9">
<path d="M159.1 407.694L157.584 378.28L167.554 377.766C174.453 377.452 177.781 381.404 178.092 386.637C178.319 391.832 175.417 396.147 168.606 396.54L162.208 396.87L162.756 407.505L159.1 407.694ZM162.041 393.629L168.272 393.308C172.923 393.026 174.616 390.315 174.436 386.825C174.254 383.294 172.293 380.812 167.555 381.015L161.407 381.332L162.041 393.629Z" fill="white"/>
<path d="M181.669 406.53L177.847 406.727L187.049 376.761L190.871 376.564L203.19 405.42L199.368 405.617L196.035 397.541L184.153 398.154L181.669 406.53ZM185.15 394.854L194.705 394.361L189.371 381.39L189.121 381.402L185.15 394.854Z" fill="white"/>
<path d="M199.356 376.126L203.51 375.912L212.277 389.206L212.692 389.185L220.045 375.059L224.199 374.845L214.542 392.755L215.164 404.803L211.425 404.996L210.803 392.948L199.356 376.126Z" fill="white"/>
<path d="M228.865 404.096L227.348 374.683L237.651 374.151C243.802 373.876 246.888 377.174 247.111 381.495C247.305 385.275 245.15 387.094 242.608 387.892L242.626 388.224C245.376 388.249 248.745 390.575 248.985 395.228C249.214 399.673 246.48 403.188 239.5 403.548L228.865 404.096ZM232.353 400.667L239.333 400.307C243.944 400.07 245.626 397.942 245.495 395.408C245.341 392.416 242.801 390.006 238.977 390.162L231.831 390.53L232.353 400.667ZM231.668 387.373L238.232 387.035C241.392 386.913 243.781 384.791 243.625 381.758C243.492 379.182 241.684 377.234 237.818 377.392L231.171 377.735L231.668 387.373Z" fill="white"/>
<path d="M255.126 402.742L251.304 402.939L260.506 372.973L264.328 372.776L276.646 401.632L272.824 401.83L269.492 393.754L257.61 394.366L255.126 402.742ZM258.606 391.066L268.161 390.573L262.827 377.602L262.578 377.615L258.606 391.066Z" fill="white"/>
<path d="M297.432 380.4C296.391 376.371 292.788 374.349 288.968 374.588C283.606 374.823 279.705 379.148 280.095 386.709C280.487 394.311 284.81 398.171 290.172 397.936C293.992 397.697 297.328 395.359 297.993 391.284L301.649 391.096C300.921 397.173 296.288 401.036 290.347 401.343C282.786 401.732 277.002 396.199 276.523 386.893C276.045 377.628 281.229 371.529 288.792 371.181C294.689 370.835 299.693 374.16 301.088 380.211L297.432 380.4Z" fill="white"/>
<path d="M306.459 400.095L304.943 370.681L308.598 370.493L309.348 385.034L309.681 385.017L322.059 369.799L326.795 369.555L315.183 383.483L328.312 398.968L323.908 399.195L313.068 386.091L309.627 390.434L310.115 399.907L306.459 400.095Z" fill="white"/>
</g>
<path d="M158.927 294.424L161.867 297.341L143.935 314.796L141.061 311.806L158.927 294.424ZM161.867 308.152L163.732 344.325L159.419 344.547L157.554 308.374L161.867 308.152Z" fill="#F4D3F4"/>
<path d="M180.444 298.197L180.229 294.023L197.481 293.133L197.696 297.307L180.444 298.197ZM189.63 311.324C198.465 310.868 205.498 317.411 205.972 326.593C206.452 335.915 199.924 343.226 190.672 343.703C180.864 344.209 174.138 338.209 173.635 328.47L177.948 328.247C178.321 335.482 183.226 339.972 190.461 339.599C197.208 339.251 202.017 333.772 201.659 326.815C201.307 319.998 196.242 315.098 189.842 315.428C186.503 315.6 184.038 316.495 181.251 317.894L180.565 304.607L184.739 304.392L185.141 312.183C186.302 311.705 187.961 311.41 189.63 311.324Z" fill="#F4D3F4"/>
<path d="M222.446 314.165C220.359 314.273 218.382 313.817 216.589 312.863C212.934 310.959 210.518 307.387 210.303 303.213C210.195 301.126 210.651 299.15 211.605 297.357C213.509 293.702 217.081 291.286 221.255 291.07C223.342 290.963 225.315 291.349 227.108 292.303C230.763 294.207 233.183 297.849 233.398 302.022C233.505 304.109 233.119 306.082 232.165 307.875C230.261 311.53 226.62 313.95 222.446 314.165ZM222.223 309.852C226.328 309.641 229.297 306.349 229.085 302.245C228.873 298.141 225.581 295.172 221.477 295.383C217.373 295.595 214.404 298.887 214.616 302.991C214.82 306.956 218.258 310.057 222.223 309.852ZM248.51 340.79C246.353 340.902 244.38 340.515 242.587 339.561C238.939 337.797 236.593 334.221 236.367 329.838C236.255 327.682 236.708 325.636 237.662 323.843C239.566 320.188 243.145 317.911 247.319 317.695C249.406 317.588 251.378 317.974 253.171 318.928C256.827 320.832 259.246 324.474 259.462 328.647C259.569 330.734 259.183 332.707 258.229 334.5C256.325 338.156 252.683 340.575 248.51 340.79ZM248.287 336.478C252.391 336.266 255.353 332.835 255.149 328.87C254.937 324.766 251.645 321.797 247.541 322.008C243.437 322.22 240.468 325.512 240.68 329.616C240.884 333.581 244.322 336.682 248.287 336.478ZM219.105 340.005L245.741 289.808L249.755 291.902L223.188 342.096L219.105 340.005Z" fill="#F4D3F4"/>
<rect x="396.057" y="191.56" width="4.83721" height="254.437" transform="rotate(-2.95181 396.057 191.56)" fill="#F4D3F4"/>
<rect x="384.422" y="195.881" width="4.83721" height="27.0883" transform="rotate(-31.9605 384.422 195.881)" fill="#F4D3F4"/>
<rect x="374.543" y="206.412" width="4.83721" height="27.0884" transform="rotate(-59.8209 374.543 206.412)" fill="#F4D3F4"/>
<rect x="374.264" y="219.807" width="4.83721" height="27.0884" transform="rotate(-92.9518 374.264 219.807)" fill="#F4D3F4"/>
<rect width="5.0943" height="28.5281" transform="matrix(-0.898358 -0.439264 -0.439264 0.898358 414.5 194.051)" fill="#F4D3F4"/>
<rect width="5.0943" height="28.5281" transform="matrix(-0.588953 -0.808167 -0.808167 0.588953 424.975 203.097)" fill="#F4D3F4"/>
<rect width="5.80465" height="28.0558" transform="matrix(-0.051496 -0.998673 -0.998673 0.051496 427.75 218.337)" fill="#F4D3F4"/>
<defs>
<filter id="filter0_d_4_565" x="95" y="213.323" width="402.374" height="256.676" filterUnits="userSpaceOnUse" color-interpolation-filters="sRGB">
<feFlood flood-opacity="0" result="BackgroundImageFix"/>
<feColorMatrix in="SourceAlpha" type="matrix" values="0 0 0 0 0 0 0 0 0 0 0 0 0 0 0 0 0 0 127 0" result="hardAlpha"/>
<feOffset dx="3" dy="3"/>
<feGaussianBlur stdDeviation="2.5"/>
<feComposite in2="hardAlpha" operator="out"/>
<feColorMatrix type="matrix" values="0 0 0 0 0.503715 0 0 0 0 0.679167 0 0 0 0 0.605477 0 0 0 0.25 0"/>
<feBlend mode="normal" in2="BackgroundImageFix" result="effect1_dropShadow_4_565"/>
<feBlend mode="normal" in="SourceGraphic" in2="effect1_dropShadow_4_565" result="shape"/>
</filter>
<linearGradient id="paint0_linear_4_565" x1="287.333" y1="225.138" x2="299.041" y2="452.185" gradientUnits="userSpaceOnUse">
<stop offset="0.104167" stop-color="#D6BD66" stop-opacity="0.3"/>
<stop offset="1" stop-color="#554EA6" stop-opacity="0.15"/>
</linearGradient>
</defs>
</svg>
