<svg width="68" height="54" viewBox="0 0 68 54" fill="none" xmlns="http://www.w3.org/2000/svg">
<path d="M28.8618 17.9V0.849999H30.5368V17.9H28.8618ZM15.5868 0.949999C18.0618 1.775 20.7868 1.525 23.2368 1.525V2.95C20.4868 3 17.2368 3.075 15.2618 2.375L15.5868 0.949999ZM12.6868 5H25.7868V6.375H12.6868V5ZM16.9118 8.325C17.5618 8.175 18.3118 8.1 19.1618 8.1C22.7618 8.1 24.5868 9.525 24.5868 11.75C24.5868 13.975 22.7618 15.375 19.1618 15.375C15.5868 15.375 13.7618 13.975 13.7618 11.75C13.7618 10.45 14.3868 9.425 15.6118 8.8L16.3868 9.95C15.6868 10.325 15.2868 10.9 15.2868 11.75C15.2868 13.4 16.8368 14.1 19.1618 14.1C21.5118 14.1 23.0618 13.4 23.0618 11.75C23.0618 10.1 21.5118 9.425 19.1618 9.425C18.6118 9.425 18.1118 9.475 17.6868 9.55L16.9118 8.325ZM34.5368 8.85V10.275H31.4118V8.85H34.5368ZM17.7618 20.75H31.1618V22.2H16.0618V17.175H17.7618V20.75ZM52.5214 7.625H47.2964V6.225H52.5214V0.849999H54.1964V13.625H52.5214V7.625ZM35.6464 12.575C41.2714 9.8 41.7464 6.175 41.7464 3.65V3.525H36.3964V2.075H48.6214V3.525H43.4464V3.65C43.4464 8.5 41.0964 11.5 36.7964 13.775L35.6464 12.575ZM44.4464 7.775C45.2214 9.1 46.8214 10.475 49.2964 11.35L48.1464 12.7C45.8464 11.825 43.9214 10.25 43.1714 8.775L44.4464 7.775ZM42.9964 14.925C44.0464 14.7 45.3214 14.575 46.8464 14.575C52.1214 14.575 54.5714 16.025 54.5714 18.5C54.5714 21 52.1214 22.45 46.8464 22.45C41.5214 22.45 39.1464 21 39.1464 18.5C39.1464 17.125 39.8714 16.05 41.4714 15.4L42.2714 16.6C41.2964 17 40.7464 17.625 40.7464 18.5C40.7464 20.325 42.9964 21.05 46.8464 21.05C50.6964 21.05 52.9464 20.325 52.9464 18.5C52.9464 16.7 50.6964 15.975 46.8464 15.975C45.6714 15.975 44.6464 16.05 43.7964 16.175L42.9964 14.925ZM16.6284 52.8V31.85H18.3034V52.8H16.6284ZM0.00341797 47.825C4.27842 44.675 6.57842 40.625 6.57842 36.05V33.325H8.12842V36.05C8.10342 41.6 5.55342 45.35 1.15342 48.9L0.00341797 47.825ZM9.10342 40.825C10.0534 43.2 12.0784 45.75 14.3534 47.375L13.1534 48.5C10.1284 45.925 8.47842 43.4 7.92842 41.725L9.10342 40.825ZM22.5534 41.475V42.925H19.1784V41.475H22.5534ZM30.1864 32.8C31.2364 32.6 32.4864 32.475 33.9364 32.475C39.3114 32.475 42.0364 34.05 42.0364 36.8C42.0364 39.525 39.3114 41.1 33.9364 41.1C28.4864 41.1 25.8364 39.525 25.8364 36.8C25.8364 35.175 26.7614 33.95 28.6364 33.225L29.4364 34.475C28.1864 34.95 27.4864 35.725 27.4864 36.8C27.4864 38.85 30.0114 39.75 33.9364 39.75C37.8364 39.75 40.3864 38.85 40.3864 36.8C40.3864 34.75 37.8364 33.825 33.9364 33.825C32.8364 33.825 31.8114 33.9 30.9614 34.05L30.1864 32.8ZM23.5614 43.5H44.3114V44.925H23.5614V43.5ZM27.8864 51.875H42.4364V53.325H26.2114V47.325H27.8864V51.875ZM64.6415 34.025H48.6665V32.6H64.6415V34.025ZM48.7165 39.175H59.4415C59.5665 37.8 59.6665 36.475 59.7165 34.9H61.4165C61.3665 36.575 61.2415 37.925 61.1165 39.175H64.5915V40.625H48.7165V39.175ZM53.5915 34.9C53.6415 36.125 53.7165 37.1 53.7915 38.3H52.1165L51.9165 34.9H53.5915ZM67.0165 42.875V44.35H57.4665V46.725H64.4165V51.125H62.7165V48.15H51.6665V46.725H55.7915V44.35H46.2665V42.875H67.0165ZM48.9165 46.725H50.5665V53.575H48.9165V46.725ZM51.6665 52.125H64.4415V53.575H51.6665V52.125Z" fill="white"/>
</svg>
