<svg width="381" height="118" viewBox="0 0 381 118" fill="none" xmlns="http://www.w3.org/2000/svg">
<path d="M188.531 20.323C184.644 20.323 181.723 17.126 181.723 10.686C181.723 4.246 184.644 1.049 188.531 1.049C192.395 1.049 195.316 4.246 195.316 10.686C195.316 17.126 192.395 20.323 188.531 20.323ZM188.531 18.184C191.015 18.184 192.993 15.7 192.993 10.686C192.993 5.695 191.015 3.188 188.531 3.188C186.024 3.188 184.046 5.695 184.046 10.686C184.046 15.7 186.024 18.184 188.531 18.184ZM201.35 19.909V3.602H197.532V1.486H203.765V19.909H201.35Z" fill="white"/>
<path d="M188.531 20.023C186.678 20.023 185.066 19.2652 183.908 17.7383C182.744 16.2027 182.023 13.865 182.023 10.686H181.423C181.423 13.947 182.162 16.4278 183.43 18.1007C184.705 19.7823 186.497 20.623 188.531 20.623V20.023ZM182.023 10.686C182.023 7.50705 182.744 5.16926 183.908 3.63373C185.066 2.10681 186.678 1.349 188.531 1.349V0.748999C186.497 0.748999 184.705 1.58969 183.43 3.27127C182.162 4.94423 181.423 7.42495 181.423 10.686H182.023ZM188.531 1.349C190.372 1.349 191.978 2.10635 193.133 3.63346C194.294 5.16911 195.016 7.50707 195.016 10.686H195.616C195.616 7.42492 194.877 4.94438 193.612 3.27154C192.34 1.59014 190.554 0.748999 188.531 0.748999V1.349ZM195.016 10.686C195.016 13.8649 194.294 16.2029 193.133 17.7385C191.978 19.2656 190.372 20.023 188.531 20.023V20.623C190.554 20.623 192.34 19.7819 193.612 18.1005C194.877 16.4276 195.616 13.9471 195.616 10.686H195.016ZM188.531 18.484C189.887 18.484 191.092 17.8002 191.945 16.4779C192.792 15.1651 193.293 13.2272 193.293 10.686H192.693C192.693 13.1588 192.204 14.9699 191.441 16.1526C190.684 17.3258 189.658 17.884 188.531 17.884V18.484ZM193.293 10.686C193.293 8.15602 192.792 6.21837 191.946 4.903C191.093 3.57846 189.888 2.888 188.531 2.888V3.488C189.657 3.488 190.684 4.05104 191.441 5.22775C192.204 6.41362 192.693 8.22497 192.693 10.686H193.293ZM188.531 2.888C187.163 2.888 185.952 3.57753 185.096 4.90259C184.246 6.21818 183.746 8.15608 183.746 10.686H184.346C184.346 8.22492 184.834 6.41382 185.6 5.22816C186.36 4.05196 187.392 3.488 188.531 3.488V2.888ZM183.746 10.686C183.746 13.2271 184.246 15.1653 185.096 16.4783C185.953 17.8011 187.164 18.484 188.531 18.484V17.884C187.391 17.884 186.359 17.3249 185.6 16.1522C184.834 14.9697 184.346 13.1589 184.346 10.686H183.746ZM201.35 19.909H201.05V20.209H201.35V19.909ZM201.35 3.602H201.65V3.302H201.35V3.602ZM197.532 3.602H197.232V3.902H197.532V3.602ZM197.532 1.486V1.186H197.232V1.486H197.532ZM203.765 1.486H204.065V1.186H203.765V1.486ZM203.765 19.909V20.209H204.065V19.909H203.765ZM201.65 19.909V3.602H201.05V19.909H201.65ZM201.35 3.302H197.532V3.902H201.35V3.302ZM197.832 3.602V1.486H197.232V3.602H197.832ZM197.532 1.786H203.765V1.186H197.532V1.786ZM203.465 1.486V19.909H204.065V1.486H203.465ZM203.765 19.609H201.35V20.209H203.765V19.609Z" fill="white"/>
<path d="M82.9253 72.2832C79.2295 72.2832 76.4258 70.0034 76.27 66.8457H78.7339C78.918 68.6724 80.7021 70.0317 82.9253 70.0459C85.5874 70.0317 87.5132 68.0918 87.5132 65.5146C87.5132 62.8525 85.5166 60.8843 82.7554 60.8701C81.0278 60.8418 79.6826 61.3799 78.9321 62.7109H76.4683L77.9126 51.4961H89.0142V53.7617H80.0366L79.272 59.7656H79.4702C80.3906 59.0576 81.7642 58.5762 83.2085 58.5762C87.1167 58.5762 89.9912 61.4648 90.0054 65.458C89.9912 69.4229 87.0176 72.2832 82.9253 72.2832ZM105.355 51.4111V62.9941H93.7153V51.4111H105.355ZM95.896 61.21H103.203V53.2236H95.896V61.21ZM96.5757 73.7559V65.8262H98.7563V71.8867H113.483V73.7559H96.5757ZM110.113 67.582V49.1172H112.322V56.792H116.117V58.6611H112.322V67.582H110.113ZM138.461 49.1455V68.2617H136.224V65.6562H131.013V64.042H136.224V49.1455H138.461ZM117.561 60.8135C122.248 60.7852 128.563 60.7427 133.958 60.0771L134.1 61.6914C131.863 62.0454 129.498 62.272 127.19 62.4136V67.3838H124.953V62.5269C122.404 62.626 119.982 62.626 117.873 62.626L117.561 60.8135ZM119.6 54.5547C119.586 51.9067 122.106 50.165 125.831 50.165C129.526 50.165 132.047 51.9067 132.061 54.5547C132.047 57.2451 129.526 58.916 125.831 58.916C122.106 58.916 119.586 57.2451 119.6 54.5547ZM121.186 73.7559V66.3926H123.423V71.8867H139.084V73.7559H121.186ZM121.724 54.5547C121.696 56.1973 123.367 57.2593 125.831 57.2734C128.224 57.2593 129.923 56.1973 129.937 54.5547C129.923 52.9404 128.224 51.8359 125.831 51.8643C123.367 51.8359 121.696 52.9404 121.724 54.5547ZM170.803 49.1172V74.3506H168.566V49.1172H170.803ZM150.979 59.8506C150.993 54.498 153.655 51.0854 157.408 51.0713C161.146 51.0854 163.851 54.498 163.836 59.8506C163.851 65.2173 161.146 68.6157 157.408 68.6016C153.655 68.6157 150.993 65.2173 150.979 59.8506ZM153.131 59.8506C153.131 63.9429 154.887 66.6333 157.408 66.6191C159.942 66.6333 161.684 63.9429 161.684 59.8506C161.684 55.7583 159.942 53.0679 157.408 53.0537C154.887 53.0679 153.131 55.7583 153.131 59.8506ZM183.519 53.1953C183.519 56.6221 186.125 59.7656 189.778 61.0117L188.56 62.7676C185.785 61.748 183.59 59.6665 182.485 57.0327C181.409 60.0205 179.158 62.3286 176.212 63.4756L175.023 61.6914C178.79 60.2896 181.324 56.9194 181.338 53.0254V50.4199H183.519V53.1953ZM178.365 69.6494C178.379 66.7749 181.537 65.0898 186.719 65.0898C191.888 65.0898 195.017 66.7749 195.017 69.6494C195.017 72.5806 191.888 74.2373 186.719 74.2373C181.537 74.2373 178.379 72.5806 178.365 69.6494ZM180.602 69.6494C180.574 71.4336 182.924 72.4673 186.719 72.4814C190.528 72.4673 192.851 71.4336 192.865 69.6494C192.851 67.936 190.528 66.874 186.719 66.874C182.924 66.874 180.574 67.936 180.602 69.6494ZM192.582 64.4385V49.1172H194.791V55.6875H198.585V57.5566H194.791V64.4385H192.582ZM227.359 50.7598V52.9688C227.359 55.3477 227.359 57.9673 226.637 61.5781H230.389V63.4189H219.996V74.3506H217.758V63.4189H207.45V61.5781H224.385C225.15 57.9531 225.15 55.3193 225.15 52.9688V52.6006H210.338V50.7598H227.359ZM254.093 49.1172V74.2939H251.941V60.9551H248.429V73.0195H246.305V49.6553H248.429V59.1143H251.941V49.1172H254.093ZM233.448 67.5254V52.0625H243.077V67.5254H233.448ZM235.543 65.7412H240.981V53.8467H235.543V65.7412ZM277.061 49.1172V59.5107H281.281V61.3516H277.061V74.2939H274.852V49.1172H277.061ZM257.435 55.0078V53.167H263.92V49.4287H266.129V53.167H272.417V55.0078H257.435ZM258.879 62.8809C258.865 59.4824 261.471 57.1035 265.053 57.1035C268.607 57.1035 271.199 59.4824 271.227 62.8809C271.199 66.2935 268.607 68.6582 265.053 68.6582C261.471 68.6582 258.865 66.2935 258.879 62.8809ZM261.003 62.8809C260.989 65.1748 262.703 66.7891 265.053 66.7607C267.375 66.7891 269.075 65.1748 269.103 62.8809C269.075 60.6011 267.375 58.9585 265.053 58.9727C262.703 58.9585 260.989 60.6011 261.003 62.8809ZM302.833 51.666V54.1865C302.804 57.2734 302.804 60.7285 301.898 65.7979L299.632 65.543C300.581 60.7285 300.581 57.2026 300.595 54.1865V53.5068H285.076V51.666H302.833ZM282.64 70.7256V68.8848H291.646V59.8789H293.827V68.8848H305.58V70.7256H282.64ZM8.06055 89.0713C11.4873 89.0854 13.9653 92.0308 14.3052 96.7461H19.9551V87.1172H22.1641V112.351H19.9551V98.5869H14.3335C14.0928 103.529 11.5723 106.616 8.06055 106.602C4.33643 106.616 1.73096 103.217 1.74512 97.8506C1.73096 92.498 4.33643 89.0854 8.06055 89.0713ZM3.86914 97.8506C3.8833 101.943 5.58252 104.633 8.06055 104.619C10.5244 104.633 12.252 101.943 12.252 97.8506C12.252 93.7583 10.5244 91.0679 8.06055 91.0537C5.58252 91.0679 3.8833 93.7583 3.86914 97.8506ZM46.6895 99.2383V101.079H29.3008V89.4678H46.4346V91.3086H31.5098V99.2383H46.6895ZM26.3555 108.867V106.998H49.4082V108.867H26.3555ZM72.8008 87.1172V106.262H70.6768V87.1172H72.8008ZM52.5801 101.476V89.1562H54.6758V93.4043H60.2832V89.1562H62.3789V94.4521H65.8623V87.627H67.9863V105.497H65.8623V96.293H62.3789V101.476H52.5801ZM54.6758 99.6348H60.2832V95.1602H54.6758V99.6348ZM56.29 111.756V103.685H58.499V109.887H73.5654V111.756H56.29ZM96.873 100.739V102.552H79.4561V89.2979H96.5898V91.167H81.7217V94.9053H96.0518V96.6895H81.7217V100.739H96.873ZM76.4824 109.009V107.168H99.5352V109.009H76.4824ZM120.096 88.5615C120.082 94.4805 116.98 98.8701 110.184 101.419L109.192 99.833C112.704 98.5444 115.083 96.7744 116.471 94.6079L109.391 95.3584L109.022 93.4893L117.292 92.9512C117.604 92.144 117.802 91.2944 117.887 90.4023H110.24V88.5615H120.096ZM113.497 103.316V101.532H130.206V107.423H115.763V110.17H131.226V111.954H113.554V105.724H128.025V103.316H113.497ZM122.531 100.201V87.627H124.655V92.9229H128.082V87.1455H130.206V100.399H128.082V94.792H124.655V100.201H122.531ZM154.646 87.1455V105.667H152.466V87.1455H154.646ZM135.162 90.7422V88.9297H146.66V96.208H137.371V100.229C142.058 100.229 145.357 100.088 149.351 99.3799L149.577 101.221C145.471 101.929 142.086 102.07 137.258 102.099H135.219V94.4521H144.451V90.7422H135.162ZM138.136 111.756V104.223H140.373V109.887H155.383V111.756H138.136ZM171.78 89.5244V91.3936H162.463V104.223C167.008 104.237 169.996 104.081 173.479 103.401L173.763 105.242C170.053 105.95 166.98 106.12 162.151 106.12H160.226V89.5244H171.78ZM170.279 98.1338V96.293H177.614V87.1172H179.852V112.351H177.614V98.1338H170.279ZM207.039 98.8135V100.569H183.986V98.8135H207.039ZM186.762 104.251V102.58H204.15V107.933H189.027V110.34H204.972V111.954H186.79V106.403H201.941V104.251H186.762ZM186.903 89.4961V87.8818H204.065V93.0928H189.197V95.3018H204.519V96.916H186.988V91.5635H201.828V89.4961H186.903ZM227.854 88.165C233.391 88.165 237.554 90.9688 237.568 95.2168C237.554 99.1108 234.269 101.716 229.639 102.226V106.63H239.692V109.604H216.102V106.63H226.042V102.226C221.44 101.702 218.169 99.0967 218.169 95.2168C218.169 90.9688 222.318 88.165 227.854 88.165ZM221.737 95.2168C221.737 97.9355 224.244 99.4507 227.854 99.4648C231.479 99.4507 233.986 97.9355 234 95.2168C233.986 92.6396 231.479 91.0396 227.854 91.0537C224.244 91.0396 221.737 92.6396 221.737 95.2168ZM262.745 86.834V102.354H259.12V86.834H262.745ZM241.278 99.1533C245.541 97.7798 247.509 94.438 247.537 91.2236H242.241V88.335H256.401V91.2236H251.219C251.233 94.2539 253.159 97.3975 257.364 98.6719L255.523 101.476C252.635 100.569 250.61 98.7144 249.449 96.3779C248.273 98.9268 246.178 100.952 243.147 101.957L241.278 99.1533ZM245.017 106.375V103.486H262.745V112.605H259.12V106.375H245.017ZM273.422 106.375V103.005L282.088 89.4961H287.44V102.948H290.046V106.375H287.44V110H283.391V106.375H273.422ZM277.727 102.948H283.447V94.1689H283.249L277.727 102.778V102.948ZM296.984 107.904L294.549 115.976H291.547L292.963 107.904H296.984ZM307.831 89.2129C312.079 89.2271 316.101 91.7617 316.101 99.21C316.115 106.177 312.815 110.283 307.661 110.283C303.541 110.283 300.708 107.692 300.298 104.223H304.489C304.843 105.738 306.019 106.63 307.661 106.63C310.451 106.63 311.923 104.124 311.938 100.031H311.768C310.805 101.844 308.78 102.92 306.5 102.92C302.818 102.92 300.1 100.145 300.071 96.3213C300.071 92.2007 303.201 89.1987 307.831 89.2129ZM304.234 96.208C304.234 98.2329 305.721 99.8047 307.831 99.8047C309.913 99.8047 311.513 98.1479 311.513 96.1797C311.484 94.2256 309.955 92.5688 307.859 92.5547C305.764 92.5688 304.206 94.1689 304.234 96.208ZM326.947 110.283C321.807 110.283 318.706 106.46 318.706 99.748C318.706 93.0503 321.835 89.2129 326.947 89.2129C332.059 89.2129 335.188 93.0503 335.188 99.748C335.188 106.488 332.073 110.283 326.947 110.283ZM323.067 99.748C323.039 104.478 324.568 106.771 326.947 106.771C329.326 106.771 330.841 104.478 330.827 99.748C330.841 95.061 329.312 92.7104 326.947 92.6963C324.583 92.7104 323.067 95.061 323.067 99.748ZM346.092 110.283C340.952 110.283 337.851 106.46 337.851 99.748C337.851 93.0503 340.98 89.2129 346.092 89.2129C351.204 89.2129 354.333 93.0503 354.333 99.748C354.333 106.488 351.218 110.283 346.092 110.283ZM342.212 99.748C342.184 104.478 343.713 106.771 346.092 106.771C348.471 106.771 349.986 104.478 349.972 99.748C349.986 95.061 348.457 92.7104 346.092 92.6963C343.727 92.7104 342.212 95.061 342.212 99.748ZM378.264 86.8623V106.318H374.639V104.279H369.711V101.815H374.639V86.8623H378.264ZM356.344 98.2754C361.059 98.2471 367.431 98.1763 372.883 97.5107L373.081 100.088C371.042 100.428 368.932 100.668 366.851 100.824V105.724H363.226V109.264H378.83V112.152H359.629V104.449H363.226V101.037C360.917 101.122 358.723 101.136 356.769 101.136L356.344 98.2754ZM358.241 92.3564C358.241 89.6094 360.889 87.7261 364.727 87.7402C368.465 87.7261 371.141 89.6094 371.155 92.3564C371.141 95.1177 368.465 96.9019 364.727 96.8877C360.889 96.9019 358.241 95.1177 358.241 92.3564ZM361.668 92.3564C361.654 93.6025 362.886 94.2964 364.727 94.2822C366.454 94.2964 367.7 93.6025 367.729 92.3564C367.7 91.082 366.454 90.374 364.727 90.374C362.886 90.374 361.654 91.082 361.668 92.3564Z" fill="white"/>
</svg>
