<svg width="411" height="32" viewBox="0 0 411 32" fill="none" xmlns="http://www.w3.org/2000/svg">
<path d="M20.8672 6.75H23.5402V29.808H20.8672V18.819H16.4392C16.2232 25.569 13.4422 28.728 9.58117 28.728C5.53117 28.728 2.69617 25.326 2.69617 18.009C2.69617 10.692 5.53117 7.29 9.58117 7.29C13.2802 7.29 15.9802 10.152 16.3852 16.308H20.8672V6.75ZM9.58117 26.271C11.9572 26.271 13.7662 23.868 13.7662 18.009C13.7662 12.177 11.9572 9.747 9.58117 9.747C7.17817 9.747 5.36917 12.177 5.36917 18.009C5.36917 23.868 7.17817 26.271 9.58117 26.271ZM29.3158 21.195V7.587H49.3228V10.071H32.0428V18.711H49.5928V21.195H29.3158ZM27.8038 28.701V26.19H50.8348V28.701H27.8038ZM75.9425 6.75V24.057H73.4045V6.75H75.9425ZM64.4675 14.904V20.493H54.4775V7.155H56.9615V11.502H62.0105V7.155H64.4675V12.42H67.8425V6.885H70.3535V23.652H67.8425V14.904H64.4675ZM56.9615 18.306H62.0105V13.662H56.9615V18.306ZM58.6625 27.081H76.5095V29.511H55.9355V22.599H58.6625V27.081ZM101.617 19.926V22.329H81.2862V7.587H101.266V9.99H83.9592V13.77H100.969V16.119H83.9592V19.926H101.617ZM79.7472 26.244H102.778V28.701H79.7472V26.244ZM129.162 13.554V18.441H126.624V6.885H129.162V11.232H132.915V6.75H135.453V18.684H132.915V13.554H129.162ZM123.735 10.962C123.735 15.957 119.28 18.279 113.745 18.279V16.173C117.066 16.146 119.496 15.444 120.603 13.635H113.745V11.583H121.197C121.224 11.421 121.224 11.259 121.224 11.07V9.396H113.745V7.317H123.735V10.962ZM117.93 27.459H136.02V29.511H115.311V23.733H132.834V21.978H115.257V19.926H135.453V25.704H117.93V27.459ZM158.104 23.949V6.75H160.777V23.949H158.104ZM140.311 20.763V12.906H151.3V9.585H140.257V7.317H153.946V15.093H142.957V18.495H149.032C152.164 18.495 154.81 18.117 156.295 17.469V19.737C154.891 20.358 152.191 20.763 148.924 20.763H140.311ZM141.229 29.511V22.869H143.929V27.135H161.398V29.511H141.229ZM184.265 6.75H186.938V29.808H184.265V18.63H175.733V16.119H184.265V6.75ZM169.172 26.001H175.274C177.461 26.001 179.837 25.569 181.241 24.921V27.351C179.837 28.026 177.353 28.431 175.139 28.431H166.445V7.587H179.837V10.017H169.172V26.001ZM222.88 16.092V18.657H219.64V29.808H216.967V6.75H219.64V16.092H222.88ZM208.273 10.044C208.246 12.744 208.003 15.201 207.571 17.361L214.969 26.649L212.863 28.242L206.788 20.385C205.222 25.164 202.522 28.026 199.039 28.431V25.785C203.116 25.029 205.492 18.603 205.573 10.044H199.579V7.587H214.078V10.044H208.273ZM244.369 6.75H246.907V29.808H244.369V6.75ZM238.564 14.634V6.885H241.102V29.403H238.564V17.172H234.919V14.634H238.564ZM232.408 7.425C232.408 11.016 232.219 14.121 231.895 16.794L237.484 26.946L235.243 28.134L231.193 20.574C230.032 25.191 228.007 27.783 224.929 28.431V25.731C228.574 24.543 229.816 17.604 229.843 7.317L232.408 7.425ZM260.405 6.669V10.341H266.642V12.771H251.468V10.341H257.678V6.669H260.405ZM269.558 6.75H272.231V29.808H269.558V6.75ZM259.055 14.607C262.835 14.607 265.535 17.469 265.535 21.654C265.535 25.839 262.835 28.701 259.055 28.701C255.248 28.701 252.548 25.839 252.548 21.654C252.548 17.469 255.248 14.607 259.055 14.607ZM259.055 26.352C261.242 26.352 262.943 24.516 262.943 21.654C262.943 18.765 261.242 16.956 259.055 16.956C256.841 16.956 255.14 18.765 255.14 21.654C255.14 24.516 256.841 26.352 259.055 26.352ZM297.103 26.19H307.282V28.701H284.251V26.19H294.376V21.006H285.763V7.425H288.409V11.556H303.097V7.425H305.743V21.006H297.103V26.19ZM288.409 13.959V18.603H303.097V13.959H288.409ZM329.231 6.75H331.931V29.808H329.231V18.684H324.803V16.092H329.231V6.75ZM314.084 25.974H320.267C322.454 25.974 324.83 25.542 326.234 24.894V27.324C324.83 28.026 322.373 28.431 320.132 28.431H311.438V16.686H320.591V10.044H311.384V7.587H323.237V19.143H314.084V25.974ZM360.305 16.092V18.657H357.065V29.808H354.392V6.75H357.065V16.092H360.305ZM337.031 10.044V7.587H349.586V13.149C349.586 22.329 344.861 28.377 337.031 28.377V25.839C343.295 25.812 346.859 20.925 346.859 13.203V10.044H337.031ZM381.012 29.808V6.75H383.685V29.808H381.012ZM363.246 28.377V25.839C369.537 25.812 373.317 20.925 373.317 13.203V10.044H363.246V7.587H376.044V13.149C376.044 22.383 371.13 28.377 363.246 28.377Z" fill="white"/>
<path d="M407.743 18.468L398.806 27.378L397.618 26.163L405.34 18.468L397.618 10.746L398.833 9.558L407.743 18.468Z" fill="white"/>
</svg>
