<svg width="416" height="120" viewBox="0 0 416 120" fill="none" xmlns="http://www.w3.org/2000/svg">
<path d="M58.5906 36.568H65.7026V39.928H57.4146L51.4226 56.56L48.2306 55.328L62.4546 15.68L65.7026 16.8L58.5906 36.568ZM77.2946 56.672L66.3746 25.76L69.5666 24.472L80.4866 55.384L77.2946 56.672ZM119.74 43.792L116.716 45.36L105.796 21.728L99.1884 56.448L95.8284 55.776L103.332 16.296H107.028L119.74 43.792ZM128.588 21.952L123.436 34.496L120.3 33.208L127.244 16.296H130.884L139.452 55.832L136.092 56.504L128.588 21.952ZM162.013 56.672C151.373 56.672 143.365 48.104 143.365 36.68C143.365 31.024 145.101 26.04 148.013 22.344L150.365 24.92C148.125 27.776 146.837 31.696 146.837 36.12C146.837 45.92 153.333 53.312 162.013 53.312C170.693 53.312 177.189 45.92 177.189 36.12C177.189 26.32 170.693 18.984 162.013 18.984C159.941 18.984 157.925 19.376 156.133 20.216L154.453 17.248C156.917 16.072 159.605 15.624 162.013 15.624C172.653 15.624 180.661 24.192 180.661 35.56C180.661 47.6 172.653 56.672 162.013 56.672ZM207.938 27.664C207.938 34.552 203.066 39.032 195.506 39.032H190.97V56H187.498V16.296H190.97V35.728H195.562C200.994 35.728 204.466 32.536 204.466 27.664C204.466 22.792 200.994 19.656 195.562 19.656H195.45V16.296H195.562C203.066 16.296 207.938 20.776 207.938 27.664ZM206.538 56.28L196.57 45.304L199.146 43.12L208.946 53.928L206.538 56.28ZM234.99 56H215.334V16.296H218.806V33.656H233.534V37.016H218.806V52.64H234.99V56ZM223.734 19.656V16.296H234.71V19.656H223.734ZM283.981 26.32C281.741 21.84 277.149 18.984 271.661 18.984C269.589 18.984 267.573 19.376 265.781 20.216L264.101 17.248C266.565 16.072 269.253 15.624 271.661 15.624C278.941 15.624 285.437 19.824 287.845 26.32H283.981ZM271.661 56.672C261.021 56.672 253.013 48.104 253.013 36.68C253.013 31.024 254.749 26.04 257.661 22.344L260.013 24.92C257.717 27.776 256.485 31.696 256.485 36.12C256.485 45.92 262.981 53.312 271.661 53.312C274.741 53.312 277.597 52.528 279.725 51.128L281.517 53.928C278.829 55.72 275.301 56.672 271.661 56.672ZM278.997 34.72V38.08H266.453V34.72H278.997ZM288.573 34.72V56H285.101V34.72H288.573ZM300.291 16.296V56H296.819V16.296H300.291ZM326.531 33.768V37.128H312.923V56H309.451V16.296H312.923V33.768H326.531ZM328.435 19.656H317.851V16.296H328.435V19.656ZM353.747 16.296V19.656H331.963V16.296H353.747ZM344.562 26.208V56H341.091V26.208H344.562ZM364.132 16.296V46.312H360.66V16.296H364.132ZM362.396 56.672C360.94 56.672 359.764 55.496 359.764 54.04C359.764 52.64 360.996 51.408 362.396 51.408C363.852 51.408 365.028 52.584 365.028 54.04C365.028 55.496 363.852 56.672 362.396 56.672Z" fill="white"/>
<path d="M21.4831 116.304V89.488H23.6271V116.304H21.4831ZM0.203125 109.936C5.67513 105.904 8.61913 100.72 8.61913 94.864V91.376H10.6031V94.864C10.5711 101.968 7.30713 106.768 1.67513 111.312L0.203125 109.936ZM11.8511 100.976C13.0671 104.016 15.6591 107.28 18.5711 109.36L17.0351 110.8C13.1631 107.504 11.0511 104.272 10.3471 102.128L11.8511 100.976ZM29.0671 101.808V103.664H24.7471V101.808H29.0671ZM52.8854 94.736V89.488H55.0614V110.992H52.8854V102.224H47.4774V100.368H52.8854V96.592H47.4774V94.736H52.8854ZM32.6934 105.424V91.056H34.8054V105.424H32.6934ZM43.5734 92.912H36.0854V91.056H45.6854V102.288H43.5734V92.912ZM45.7174 105.424H36.0854V103.568H45.7174V105.424ZM38.2294 114.96H55.6694V116.816H36.0854V108.976H38.2294V114.96ZM95.6209 97.168V98.992H90.4689V104.112H88.3249V89.488H90.4689V97.168H95.6209ZM76.7729 91.44C76.7729 96.432 73.4769 101.072 68.3569 104.08L66.7249 102.64C72.9969 99.056 74.6289 94.512 74.6289 91.44V90.288H76.7729V91.44ZM83.1409 102.64C79.5569 100.816 77.6689 99.248 76.5489 97.136L78.0849 96.016C79.2689 98.096 81.4449 99.632 84.5489 100.976L83.1409 102.64ZM88.2289 109.456V107.696H71.5249V105.84H90.4689V109.456H88.2289ZM71.5249 110.576H90.4689V112.4H71.5249V110.576ZM73.7649 115.44H91.3969V117.296H71.5249V113.52H73.7649V115.44ZM98.9016 99.792C106.55 98.064 108.918 94.704 108.918 91.568V90.384H110.998V91.568C110.998 96.976 106.23 99.984 99.8296 101.456L98.9016 99.792ZM112.438 95.248C113.846 96.944 116.822 98.48 121.078 99.216L120.15 100.944C116.438 100.208 112.63 98.672 110.966 96.4L112.438 95.248ZM97.0136 105.328H122.966V107.216H97.0136V105.328ZM111.062 116.784H108.886V108.496H111.062V116.784ZM146.347 92.24H128.843V90.448H148.523V94.288H146.315L146.347 92.24ZM148.523 97.232H128.843V95.408H148.523V97.232ZM152.011 104.88V106.768H125.451V104.88H137.643V101.968H128.843V98.352H131.019L130.987 100.144H140.779C144.299 100.144 146.667 100.048 149.195 99.664L149.387 101.456C147.179 101.84 144.587 101.968 140.747 101.968H139.819V104.88H152.011ZM128.587 109.104H148.587V117.296H146.411V110.928H128.587V109.104ZM185.89 89.488V116.304H183.714V89.488H185.89ZM177.666 93.36H164.002V91.536H177.666V93.36ZM169.282 108.912C172.77 108.912 175.97 108.816 178.978 108.272L179.33 110.064C176.482 110.576 173.026 110.736 169.25 110.736H164.002V94.64H166.178V108.912H169.282ZM176.29 99.664H182.754V101.488H176.29V99.664ZM222.233 89.488V116.304H220.089V101.488H214.073V99.664H220.089V89.488H222.233ZM199.193 91.376H212.889C212.857 97.488 211.737 106.768 209.913 112.176L207.769 111.728C209.945 105.648 210.745 96.816 210.745 93.232H199.193V91.376ZM208.633 101.392C205.785 101.68 201.433 101.776 198.841 101.744V99.984C202.201 99.984 206.329 99.856 208.857 99.6L208.633 101.392ZM250.688 89.488V116.304H248.544V89.488H250.688ZM237.536 94.864C237.504 101.968 233.952 106.704 228.448 111.312L226.976 109.936C232.32 105.84 235.52 100.72 235.52 94.864V93.232H228.096V91.376H244.672V93.232H237.536V94.864ZM238.848 101.008C240.064 104.016 242.24 106.8 245.632 109.36L244.096 110.8C241.344 108.528 238.4 105.2 237.312 102.128L238.848 101.008ZM279.101 99.664C276.541 100.304 273.597 100.496 268.765 100.496H258.781V90.288H260.925V98.64H268.797C273.085 98.64 275.645 98.512 278.813 97.808L279.101 99.664ZM255.389 104.72H281.949V106.576H255.389V104.72ZM260.925 115.12H279.549V116.976H258.781V109.136H260.925V115.12ZM312.276 101.616C312.724 98.384 312.916 95.376 312.916 92.624H294.74V90.736H315.124C315.092 92.944 314.964 97.584 314.42 101.648L312.276 101.616ZM291.764 102.928H317.716V104.816H291.764V102.928ZM305.844 116.624H303.668V106.096H305.844V116.624ZM345.833 89.488V116.304H343.689V101.488H337.289V89.808H339.433V99.664H343.689V89.488H345.833ZM322.377 91.696H324.425V110.128H322.377V91.696ZM325.705 91.696H333.673V106.96L331.561 106.992V93.52H325.705V91.696ZM337.289 102.768H339.497V115.856H337.289V102.768ZM325.705 108.272H333.673V110.128H325.705V108.272ZM382.658 89.488V116.304H380.514V89.488H382.658ZM375.33 89.808H377.442V104.88H375.33V101.84H371.01V100.048H375.33V89.808ZM369.41 92.976C366.242 93.04 362.53 93.136 360.226 92.208L360.578 90.576C363.458 91.632 366.562 91.28 369.41 91.28V92.976ZM371.842 98.384H357.826V96.56H371.842V98.384ZM365.282 101.2C368.866 101.2 371.426 103.248 371.394 106.64C371.362 109.936 369.026 112.016 365.282 112.016C361.474 112.016 359.138 109.776 359.138 106.64C359.138 105.168 359.618 103.92 360.514 102.992L361.954 104.336C361.442 104.944 361.154 105.776 361.154 106.64C361.154 108.752 362.626 110.224 365.282 110.224C367.906 110.224 369.442 108.752 369.442 106.64C369.442 104.624 367.906 102.992 365.282 102.992C364.482 102.992 363.81 103.12 363.234 103.376L361.794 102C362.754 101.488 363.906 101.2 365.282 101.2ZM377.442 115.856H375.33V107.984H372.546V106.16H377.442V115.856ZM404.029 89.84H406.077V96.88H410.301V89.488H412.349V106.32H410.301V98.704H404.029V89.84ZM389.693 90.736H400.477V92.592H389.693V90.736ZM393.341 103.216C397.149 103.216 400.157 103.12 402.749 102.8V104.624C400.157 104.944 397.181 105.072 393.181 105.072H389.693V93.712H391.869V103.216H393.341ZM400.157 97.136V98.896H392.989V97.136H400.157ZM406.077 106.32H404.029V99.824H406.077V106.32ZM410.109 110.16H392.925V108.304H412.253V116.976H410.109V110.16Z" fill="white"/>
</svg>
