<svg width="146" height="54" viewBox="0 0 146 54" fill="none" xmlns="http://www.w3.org/2000/svg">
<path d="M145 27C145 30.3337 143.177 33.6336 139.605 36.7568C136.035 39.8783 130.812 42.7349 124.272 45.154C111.199 49.9893 93.0715 53 73 53C52.9285 53 34.8013 49.9893 21.7281 45.154C15.1876 42.7349 9.96459 39.8783 6.39497 36.7568C2.8233 33.6336 1 30.3337 1 27C1 23.6663 2.8233 20.3664 6.39497 17.2432C9.96459 14.1217 15.1876 11.2651 21.7281 8.84602C34.8013 4.01073 52.9285 1 73 1C93.0715 1 111.199 4.01073 124.272 8.84602C130.812 11.2651 136.035 14.1217 139.605 17.2432C143.177 20.3664 145 23.6663 145 27Z" stroke="url(#paint0_linear_4_567)" stroke-width="2"/>
<path d="M26.9422 35.44H34.4562V37H25.3302V18.566H26.9422V26.626H33.7802V28.186H26.9422V35.44ZM34.3262 18.566V20.126H29.2302V18.566H34.3262ZM45.4368 30.474L43.9808 29.928L47.7768 18.28L49.2848 18.826L45.4368 30.474ZM41.8748 37.312L36.3628 18.8L37.8708 18.306L43.3828 36.818L41.8748 37.312ZM53.5516 35.44H61.0656V37H51.9396V18.566H53.5516V26.626H60.3896V28.186H53.5516V35.44ZM60.9356 18.566V20.126H55.8396V18.566H60.9356ZM76.4661 18.566H78.0781V37H76.3621L64.5841 19.19L65.9101 18.306L76.4661 34.296V18.566ZM64.7141 37V25.534H66.3261V37H64.7141ZM80.8502 20.126V18.566H90.9642V20.126H80.8502ZM85.0882 37V23.168H86.7002V37H85.0882ZM104.483 37.286C101.155 37.286 99.1274 33.464 99.1274 27.77C99.1274 24.702 99.6734 22.206 100.843 20.438L101.909 21.66C101.103 23.22 100.739 25.586 100.739 27.77C100.739 32.32 102.091 35.726 104.483 35.726C106.875 35.726 108.227 32.32 108.227 27.77C108.227 23.22 106.875 19.814 104.483 19.814C104.249 19.814 103.989 19.866 103.911 19.892L103.261 18.462C103.625 18.332 103.989 18.254 104.483 18.254C107.811 18.254 109.839 22.076 109.839 27.77C109.839 33.464 107.811 37.286 104.483 37.286ZM116.787 33.074L115.513 32.086L120.687 25.534C121.363 24.676 121.805 23.948 121.805 23.012C121.805 21.192 120.401 19.814 118.555 19.814C116.709 19.814 115.331 21.14 115.331 22.908C115.331 24.104 115.903 24.936 116.683 25.638L115.591 26.73C114.473 25.898 113.719 24.52 113.719 22.908C113.719 20.256 115.799 18.254 118.555 18.254C121.337 18.254 123.417 20.282 123.417 23.012C123.417 24 123.001 25.248 122.013 26.47L116.787 33.074ZM113.407 37V35.44H124.119V37H113.407Z" fill="white"/>
<defs>
<linearGradient id="paint0_linear_4_567" x1="46.569" y1="-6.45669e-07" x2="72.9048" y2="54.0464" gradientUnits="userSpaceOnUse">
<stop stop-color="#FEFEFE"/>
<stop offset="1" stop-color="white" stop-opacity="0"/>
</linearGradient>
</defs>
</svg>
