<svg width="403" height="119" viewBox="0 0 403 119" fill="none" xmlns="http://www.w3.org/2000/svg">
<path d="M11.3406 36.568H18.4526V39.928H10.1646L4.17263 56.56L0.980625 55.328L15.2046 15.68L18.4526 16.8L11.3406 36.568ZM30.0446 56.672L19.1246 25.76L22.3166 24.472L33.2366 55.384L30.0446 56.672ZM72.4904 43.792L69.4664 45.36L58.5464 21.728L51.9384 56.448L48.5784 55.776L56.0824 16.296H59.7784L72.4904 43.792ZM81.3384 21.952L76.1864 34.496L73.0504 33.208L79.9944 16.296H83.6344L92.2024 55.832L88.8424 56.504L81.3384 21.952ZM114.763 56.672C104.123 56.672 96.115 48.104 96.115 36.68C96.115 31.024 97.851 26.04 100.763 22.344L103.115 24.92C100.875 27.776 99.587 31.696 99.587 36.12C99.587 45.92 106.083 53.312 114.763 53.312C123.443 53.312 129.939 45.92 129.939 36.12C129.939 26.32 123.443 18.984 114.763 18.984C112.691 18.984 110.675 19.376 108.883 20.216L107.203 17.248C109.667 16.072 112.355 15.624 114.763 15.624C125.403 15.624 133.411 24.192 133.411 35.56C133.411 47.6 125.403 56.672 114.763 56.672ZM160.688 27.664C160.688 34.552 155.816 39.032 148.256 39.032H143.72V56H140.248V16.296H143.72V35.728H148.312C153.744 35.728 157.216 32.536 157.216 27.664C157.216 22.792 153.744 19.656 148.312 19.656H148.2V16.296H148.312C155.816 16.296 160.688 20.776 160.688 27.664ZM159.288 56.28L149.32 45.304L151.896 43.12L161.696 53.928L159.288 56.28ZM187.74 56H168.084V16.296H171.556V33.656H186.284V37.016H171.556V52.64H187.74V56ZM176.484 19.656V16.296H187.46V19.656H176.484ZM222.171 33.6C227.883 35 230.795 39.088 230.795 44.576C230.795 51.632 225.643 56 217.467 56H216.907V52.64H217.467C223.571 52.64 227.323 49.504 227.323 44.688C227.323 39.256 223.627 36.344 217.187 36.344H211.587V56H208.115V16.296H213.267C220.659 16.296 225.475 20.048 225.475 26.432C225.475 29.68 224.019 32.312 222.171 33.6ZM215.507 32.984C219.595 32.984 222.003 31.08 222.003 26.432C222.003 22.12 218.643 19.656 213.267 19.656H211.587V32.984H215.507ZM257.029 56H237.373V16.296H240.845V33.656H255.573V37.016H240.845V52.64H257.029V56ZM245.773 19.656V16.296H256.749V19.656H245.773ZM293.672 56H289.976L264.608 17.64L267.464 15.736L290.2 50.176V16.296H293.672V56ZM268.36 31.304V56H264.888V31.304H268.36ZM322.49 56H302.834V16.296H306.306V33.656H321.034V37.016H306.306V52.64H322.49V56ZM311.234 19.656V16.296H322.21V19.656H311.234ZM347.149 33.768V37.128H333.541V56H330.069V16.296H333.541V33.768H347.149ZM349.053 19.656H338.469V16.296H349.053V19.656ZM359.244 16.296V56H355.772V16.296H359.244ZM386.997 16.296V19.656H365.213V16.296H386.997ZM377.812 26.208V56H374.341V26.208H377.812ZM397.382 16.296V46.312H393.91V16.296H397.382ZM395.646 56.672C394.19 56.672 393.014 55.496 393.014 54.04C393.014 52.64 394.246 51.408 395.646 51.408C397.102 51.408 398.278 52.584 398.278 54.04C398.278 55.496 397.102 56.672 395.646 56.672Z" fill="white"/>
<path d="M47.4355 88.328C50.6355 89.384 53.7715 89.032 56.9395 89.032V90.824C53.4195 90.888 49.5475 90.984 47.0195 90.056L47.4355 88.328ZM65.0355 100.136H58.6675V98.344H65.0355V88.488H67.1795V106.888H65.0355V100.136ZM44.0755 104.2C49.8035 101.512 50.8595 97.32 50.8595 95.656V95.528H44.4915V93.736H59.3715V95.528H52.9075V95.656C52.9075 99.656 50.0595 103.368 45.3555 105.832L44.0755 104.2ZM54.3475 99.624C55.3075 100.936 56.5875 102.216 59.6915 103.56L58.3795 105.224C55.8515 103.976 54.0915 102.632 52.8435 100.744L54.3475 99.624ZM46.9875 114.76C54.1235 113.16 56.8755 109.384 56.8755 106.888V106.504H59.0195V106.888C59.0195 111.08 54.4115 114.984 47.9795 116.424L46.9875 114.76ZM60.3315 110.152C61.7395 111.848 64.4275 113.576 68.9075 114.376L67.9475 116.136C64.0435 115.208 60.6835 113.832 58.8275 111.304L60.3315 110.152ZM99.6975 100.616C100.146 97.384 100.338 94.376 100.338 91.624H82.1615V89.736H102.546C102.514 91.944 102.386 96.584 101.842 100.648L99.6975 100.616ZM79.1855 101.928H105.138V103.816H79.1855V101.928ZM93.2655 115.624H91.0895V105.096H93.2655V115.624ZM133.255 88.488V115.304H131.111V100.488H124.711V88.808H126.855V98.664H131.111V88.488H133.255ZM109.799 90.696H111.847V109.128H109.799V90.696ZM113.127 90.696H121.095V105.96L118.983 105.992V92.52H113.127V90.696ZM124.711 101.768H126.919V114.856H124.711V101.768ZM113.127 107.272H121.095V109.128H113.127V107.272ZM164.992 105.992C165.76 101.352 166.144 97.256 166.144 92.552H148.224V90.696H168.288V91.976C168.288 94.504 168.032 100.744 167.104 106.28L164.992 105.992ZM155.488 100.392H157.568V109.288H155.488V100.392ZM145.248 110.568H171.488V112.424H145.248V110.568ZM188.942 88.84H190.99V94.92H195.054V88.488H197.134V104.072H195.054V96.776H188.942V88.84ZM179.982 102.696C181.71 99.048 182.606 94.44 182.606 91.592H173.39V89.736H184.814C184.814 94.056 183.886 99.176 182.03 103.368L179.982 102.696ZM190.99 104.072H188.942V97.896H190.99V104.072ZM194.862 107.912H177.678V106.056H197.038V115.976H194.862V107.912ZM230.595 110.312V88.488H232.739V110.312H230.595ZM213.603 88.616C216.771 89.672 220.259 89.352 223.395 89.352V91.176C219.875 91.24 215.715 91.336 213.187 90.44L213.603 88.616ZM209.891 93.8H226.659V95.56H209.891V93.8ZM215.299 98.056C216.131 97.864 217.091 97.768 218.179 97.768C222.787 97.768 225.123 99.592 225.123 102.44C225.123 105.288 222.787 107.08 218.179 107.08C213.603 107.08 211.267 105.288 211.267 102.44C211.267 100.776 212.067 99.464 213.635 98.664L214.627 100.136C213.731 100.616 213.219 101.352 213.219 102.44C213.219 104.552 215.203 105.448 218.179 105.448C221.187 105.448 223.171 104.552 223.171 102.44C223.171 100.328 221.187 99.464 218.179 99.464C217.475 99.464 216.835 99.528 216.291 99.624L215.299 98.056ZM237.859 98.728V100.552H233.859V98.728H237.859ZM216.387 113.96H233.539V115.816H214.211V109.384H216.387V113.96ZM260.879 97.16H254.191V95.368H260.879V88.488H263.023V104.84H260.879V97.16ZM239.279 103.496C246.479 99.944 247.087 95.304 247.087 92.072V91.912H240.239V90.056H255.887V91.912H249.263V92.072C249.263 98.28 246.255 102.12 240.751 105.032L239.279 103.496ZM250.543 97.352C251.535 99.048 253.583 100.808 256.751 101.928L255.279 103.656C252.335 102.536 249.871 100.52 248.911 98.632L250.543 97.352ZM248.687 106.504C250.031 106.216 251.663 106.056 253.615 106.056C260.367 106.056 263.503 107.912 263.503 111.08C263.503 114.28 260.367 116.136 253.615 116.136C246.799 116.136 243.759 114.28 243.759 111.08C243.759 109.32 244.687 107.944 246.735 107.112L247.759 108.648C246.511 109.16 245.807 109.96 245.807 111.08C245.807 113.416 248.687 114.344 253.615 114.344C258.543 114.344 261.423 113.416 261.423 111.08C261.423 108.776 258.543 107.848 253.615 107.848C252.111 107.848 250.799 107.944 249.711 108.104L248.687 106.504ZM295.061 115.304V88.488H297.205V115.304H295.061ZM273.781 108.936C279.253 104.904 282.197 99.72 282.197 93.864V90.376H284.181V93.864C284.149 100.968 280.885 105.768 275.253 110.312L273.781 108.936ZM285.429 99.976C286.645 103.016 289.237 106.28 292.149 108.36L290.613 109.8C286.741 106.504 284.629 103.272 283.925 101.128L285.429 99.976ZM302.645 100.808V102.664H298.325V100.808H302.645ZM312.416 89.704C313.76 89.448 315.36 89.288 317.216 89.288C324.096 89.288 327.584 91.304 327.584 94.824C327.584 98.312 324.096 100.328 317.216 100.328C310.24 100.328 306.848 98.312 306.848 94.824C306.848 92.744 308.032 91.176 310.432 90.248L311.456 91.848C309.856 92.456 308.96 93.448 308.96 94.824C308.96 97.448 312.192 98.6 317.216 98.6C322.208 98.6 325.472 97.448 325.472 94.824C325.472 92.2 322.208 91.016 317.216 91.016C315.808 91.016 314.496 91.112 313.408 91.304L312.416 89.704ZM303.936 103.4H330.496V105.224H303.936V103.4ZM309.472 114.12H328.096V115.976H307.328V108.296H309.472V114.12ZM356.518 91.272H336.07V89.448H356.518V91.272ZM336.134 97.864H349.862C350.022 96.104 350.15 94.408 350.214 92.392H352.39C352.326 94.536 352.166 96.264 352.006 97.864H356.454V99.72H336.134V97.864ZM342.374 92.392C342.438 93.96 342.534 95.208 342.63 96.744H340.486L340.23 92.392H342.374ZM359.558 102.6V104.488H347.334V107.528H356.23V113.16H354.054V109.352H339.91V107.528H345.19V104.488H332.998V102.6H359.558ZM336.39 107.528H338.502V116.296H336.39V107.528ZM339.91 114.44H356.262V116.296H339.91V114.44Z" fill="white"/>
</svg>
