<svg width="321" height="33" viewBox="0 0 321 33" fill="none" xmlns="http://www.w3.org/2000/svg">
<path d="M9.51084 17.065C7.94484 19.576 5.27184 21.277 1.95084 21.628V19.279C5.59584 18.739 7.94484 16.147 8.32284 12.394H2.19384V10.126H8.29584V7.345H10.9958V10.126H17.0168V12.394H11.0228C10.9418 13.285 10.7798 14.122 10.5098 14.905L17.5028 19.495L16.1528 21.493L9.51084 17.065ZM16.0988 13.906H20.5268V7.75H23.1998V23.707H20.5268V16.282H16.0988V13.906ZM24.1448 28.459L23.1458 30.808L13.1288 26.758C10.6988 29.161 6.97284 30.484 3.27384 30.511V28.027C7.59384 27.973 11.8868 25.813 12.8588 22.006L15.5588 22.519C15.3428 23.356 15.0188 24.139 14.5868 24.868L24.1448 28.459ZM53.6339 18.82V10.801H36.5429V8.29H56.4149V18.82H53.6339ZM58.0619 20.737V23.275H47.7749V31.348H45.0209V23.275H35.0309V20.737H58.0619ZM80.6316 7.75H83.1696V30.808H80.6316V19.576H76.8786V30.403H74.3406V7.885H76.8786V17.038H80.6316V7.75ZM61.7046 29.431V8.587H71.5866V29.431H61.7046ZM64.2426 11.017V27.001H69.0756V11.017H64.2426ZM101.373 7.696V11.395H106.044V13.798H93.9746V11.395H98.7266V7.696H101.373ZM114.225 7.75H116.709V30.808H114.225V7.75ZM108.987 15.364V7.885H111.444V30.403H108.987V23.734H106.206V21.25H108.987V17.848H106.206V15.364H108.987ZM100.05 15.553C103.047 15.553 105.234 18.037 105.234 22.627C105.234 27.217 103.047 29.701 100.05 29.701C97.0256 29.701 94.8386 27.217 94.8386 22.627C94.8386 18.037 97.0256 15.553 100.05 15.553ZM100.05 27.352C101.643 27.352 102.804 25.651 102.804 22.627C102.804 19.603 101.643 17.902 100.05 17.902C98.4296 17.902 97.2686 19.603 97.2686 22.627C97.2686 25.651 98.4296 27.352 100.05 27.352ZM140.142 7.75H142.68V22.492H140.142V15.715H136.389V22.249H133.851V7.885H136.389V13.258H140.142V7.75ZM132.177 20.602C130.665 21.196 128.289 21.466 125.643 21.466H121.215V8.317H131.421V10.558H123.753V13.69H131.097V15.877H123.753V19.225H125.859C128.424 19.225 130.638 18.955 132.177 18.388V20.602ZM122.322 26.029V23.761H142.68V30.808H140.034V26.029H122.322ZM173.087 7.75H175.76V30.808H173.087V19.63H164.555V17.119H173.087V7.75ZM157.994 27.001H164.096C166.283 27.001 168.659 26.569 170.063 25.921V28.351C168.659 29.026 166.175 29.431 163.961 29.431H155.267V8.587H168.659V11.017H157.994V27.001ZM200.443 27.19H210.622V29.701H187.591V27.19H197.716V22.006H189.103V8.425H191.749V12.556H206.437V8.425H209.083V22.006H200.443V27.19ZM191.749 14.959V19.603H206.437V14.959H191.749ZM232.571 7.75H235.271V30.808H232.571V19.684H228.143V17.092H232.571V7.75ZM217.424 26.974H223.607C225.794 26.974 228.17 26.542 229.574 25.894V28.324C228.17 29.026 225.713 29.431 223.472 29.431H214.778V17.686H223.931V11.044H214.724V8.587H226.577V20.143H217.424V26.974ZM263.646 17.092V19.657H260.406V30.808H257.733V7.75H260.406V17.092H263.646ZM240.372 11.044V8.587H252.927V14.149C252.927 23.329 248.202 29.377 240.372 29.377V26.839C246.636 26.812 250.2 21.925 250.2 14.203V11.044H240.372ZM284.352 30.808V7.75H287.025V30.808H284.352ZM266.586 29.377V26.839C272.877 26.812 276.657 21.925 276.657 14.203V11.044H266.586V8.587H279.384V14.149C279.384 23.383 274.47 29.377 266.586 29.377Z" fill="white"/>
<path d="M317.743 18.468L308.806 27.378L307.618 26.163L315.34 18.468L307.618 10.746L308.833 9.558L317.743 18.468Z" fill="white"/>
</svg>
