<svg width="146" height="54" viewBox="0 0 146 54" fill="none" xmlns="http://www.w3.org/2000/svg">
<path d="M145 27C145 30.3337 143.177 33.6336 139.605 36.7568C136.035 39.8783 130.812 42.7349 124.272 45.154C111.199 49.9893 93.0715 53 73 53C52.9285 53 34.8013 49.9893 21.7281 45.154C15.1876 42.7349 9.96459 39.8783 6.39497 36.7568C2.8233 33.6336 1 30.3337 1 27C1 23.6663 2.8233 20.3664 6.39497 17.2432C9.96459 14.1217 15.1876 11.2651 21.7281 8.84602C34.8013 4.01073 52.9285 1 73 1C93.0715 1 111.199 4.01073 124.272 8.84602C130.812 11.2651 136.035 14.1217 139.605 17.2432C143.177 20.3664 145 23.6663 145 27Z" stroke="url(#paint0_linear_16_435)" stroke-width="2"/>
<path d="M25.2264 35.44H32.7404V37H23.6144V18.566H25.2264V26.626H32.0644V28.186H25.2264V35.44ZM32.6104 18.566V20.126H27.5144V18.566H32.6104ZM43.721 30.474L42.265 29.928L46.061 18.28L47.569 18.826L43.721 30.474ZM40.159 37.312L34.647 18.8L36.155 18.306L41.667 36.818L40.159 37.312ZM51.8358 35.44H59.3498V37H50.2238V18.566H51.8358V26.626H58.6738V28.186H51.8358V35.44ZM59.2198 18.566V20.126H54.1238V18.566H59.2198ZM74.7503 18.566H76.3623V37H74.6463L62.8683 19.19L64.1943 18.306L74.7503 34.296V18.566ZM62.9983 37V25.534H64.6103V37H62.9983ZM79.1344 20.126V18.566H89.2484V20.126H79.1344ZM83.3724 37V23.168H84.9844V37H83.3724ZM102.768 37.286C99.4396 37.286 97.4116 33.464 97.4116 27.77C97.4116 24.702 97.9576 22.206 99.1276 20.438L100.194 21.66C99.3876 23.22 99.0236 25.586 99.0236 27.77C99.0236 32.32 100.376 35.726 102.768 35.726C105.16 35.726 106.512 32.32 106.512 27.77C106.512 23.22 105.16 19.814 102.768 19.814C102.534 19.814 102.274 19.866 102.196 19.892L101.546 18.462C101.91 18.332 102.274 18.254 102.768 18.254C106.096 18.254 108.124 22.076 108.124 27.77C108.124 33.464 106.096 37.286 102.768 37.286ZM121.337 18.566V20.1H112.341V18.566H121.337ZM117.385 25.248C120.661 25.508 123.053 27.874 123.053 30.994C123.053 34.582 120.401 37.26 116.865 37.26C113.199 37.26 110.833 34.686 110.833 30.682H112.445C112.445 33.75 114.187 35.726 116.865 35.726C119.491 35.726 121.441 33.698 121.441 30.994C121.441 28.576 119.439 26.756 116.787 26.756C116.137 26.756 115.617 26.886 114.967 27.094V25.612L117.983 22.102L119.179 23.142L117.385 25.248Z" fill="white"/>
<defs>
<linearGradient id="paint0_linear_16_435" x1="46.569" y1="-6.45669e-07" x2="72.9048" y2="54.0464" gradientUnits="userSpaceOnUse">
<stop stop-color="#FEFEFE"/>
<stop offset="1" stop-color="white" stop-opacity="0"/>
</linearGradient>
</defs>
</svg>
