<svg width="310" height="103" viewBox="0 0 310 103" fill="none" xmlns="http://www.w3.org/2000/svg">
<path d="M0 0H290C301.046 0 310 8.9543 310 20V103H0V0Z" fill="#00519C"/>
<path d="M80.2966 46.743V42.942H71.8126V41.073L79.7926 29.922H82.3966V41.073H85.1476V42.942H82.3966V46.743H80.2966ZM74.0806 41.073H80.2966V32.337L74.0806 41.073ZM102.949 33.513H105.469V35.508H102.949V42.564H100.87V29.25H102.949V33.513ZM97.8245 29.691V39.372H87.3455V29.691H97.8245ZM95.7665 37.566V31.497H89.4035V37.566H95.7665ZM90.0545 41.136V45.063H103.432V46.953H87.9545V41.136H90.0545ZM116.282 40.506H121.721V29.25H123.8V43.299H121.721V42.186H116.282V40.506ZM113.3 36.285C110.192 36.285 107.987 35.046 107.987 32.778C107.987 30.531 110.192 29.292 113.3 29.292C116.429 29.292 118.613 30.531 118.613 32.778C118.613 35.046 116.429 36.285 113.3 36.285ZM113.3 30.93C111.41 30.93 110.024 31.539 110.024 32.778C110.024 34.017 111.41 34.647 113.3 34.647C115.19 34.647 116.576 34.017 116.576 32.778C116.576 31.539 115.19 30.93 113.3 30.93ZM111.872 42.48V39.267H106.916V37.545H114.329C116.786 37.545 118.97 37.356 120.209 36.831V38.553C119.075 39.057 116.828 39.267 114.266 39.267H113.951V42.48H111.872ZM110.654 45.189H124.262V46.953H108.575V41.514H110.654V45.189ZM147.66 47.184V29.25H149.76V47.184H147.66ZM139.197 46.344C136.005 46.344 133.758 43.698 133.758 38.007C133.758 32.316 136.005 29.67 139.197 29.67C142.368 29.67 144.615 32.316 144.615 38.007C144.615 43.698 142.368 46.344 139.197 46.344ZM139.197 44.433C141.066 44.433 142.536 42.564 142.536 38.007C142.536 33.471 141.066 31.581 139.197 31.581C137.286 31.581 135.837 33.471 135.837 38.007C135.837 42.564 137.286 44.433 139.197 44.433ZM169.435 32.673H171.955V34.647H169.435V39.162H167.356V29.25H169.435V32.673ZM159.313 34.878C158.011 36.978 155.911 38.448 153.244 38.805V36.915C156.646 36.306 158.641 33.198 158.683 29.418L160.762 29.544C160.762 30.867 160.531 32.106 160.111 33.24L165.676 36.852L164.605 38.385L159.313 34.878ZM162.022 39.75C166.327 39.75 169.708 40.779 169.708 43.467C169.708 46.155 166.327 47.184 162.022 47.184C157.738 47.184 154.336 46.155 154.336 43.467C154.336 40.779 157.738 39.75 162.022 39.75ZM162.022 45.462C165.088 45.462 167.482 44.853 167.482 43.467C167.482 42.102 165.088 41.472 162.022 41.472C158.977 41.472 156.562 42.102 156.562 43.467C156.562 44.853 158.977 45.462 162.022 45.462ZM193.757 37.86V31.623H180.464V29.67H195.92V37.86H193.757ZM197.201 39.351V41.325H189.2V47.604H187.058V41.325H179.288V39.351H197.201ZM214.755 29.25H216.729V47.184H214.755V38.448H211.836V46.869H209.862V29.355H211.836V36.474H214.755V29.25ZM200.034 46.113V29.901H207.72V46.113H200.034ZM202.008 31.791V44.223H205.767V31.791H202.008ZM234.346 29.25H236.425V47.184H234.346V29.25ZM227.71 29.775C227.689 32.526 227.458 35.004 226.996 37.146L232.792 44.874L231.112 46.071L226.345 39.561C225.022 43.509 222.838 45.903 220.003 46.113V44.013C223.594 43.446 225.568 37.23 225.589 29.691L227.71 29.775Z" fill="white"/>
<path d="M91.5589 69.28C89.7499 71.359 87.0499 72.844 83.8369 72.925V69.01C86.7259 68.767 88.6429 66.769 89.1559 64.447H84.1069V60.694H89.1829V58.345H93.8269V60.694H98.9029V63.718H101.279V58.75H105.842V74.653H101.279V67.768H98.2549V64.447H93.8269C93.7459 64.933 93.6379 65.419 93.4759 65.878L99.6589 69.415L97.4989 72.79L91.5589 69.28ZM106.814 78.055L105.356 82.105L95.2039 78.784C92.5309 80.809 88.8049 81.808 84.9979 81.808V77.596C89.3449 77.596 93.1519 76.003 94.0429 72.979L98.6059 73.843C98.4439 74.437 98.2009 75.004 97.9309 75.544L106.814 78.055ZM134.224 69.928V63.259H118.267V59.02H138.949V69.928H134.224ZM140.299 71.305V75.544H130.849V82.348H126.124V75.544H116.971V71.305H140.299ZM161.627 58.75H165.893V81.808H161.627V71.548H159.71V81.403H155.498V58.858H159.71V67.228H161.627V58.75ZM143.348 80.728V59.29H153.824V80.728H143.348ZM147.587 63.421V76.597H149.612V63.421H147.587ZM191.17 81.43L185.014 73.033L182.017 76.489V81.43H177.103V59.425H182.017V69.793L190.819 59.425H196.84L188.2 69.388L197.299 81.43H191.17ZM199.409 59.425H204.323V81.43H199.409V59.425ZM226.198 59.425V63.772H219.043V81.43H214.129V63.772H206.974V59.425H226.198Z" fill="white"/>
</svg>
