<svg width="310" height="103" viewBox="0 0 310 103" fill="none" xmlns="http://www.w3.org/2000/svg">
<path d="M0 20C0 8.95431 8.9543 0 20 0H310V103H0V20Z" fill="#00519C"/>
<path d="M75.0519 46.743V45.315L81.0159 39.33C83.1579 37.167 83.9979 35.802 83.9979 34.605C83.9979 32.631 82.6539 31.476 80.5539 31.476C78.2859 31.476 77.0679 33.198 77.0679 35.067H74.8629C74.8629 32.022 77.0679 29.523 80.5749 29.523C83.9559 29.523 86.182 31.56 86.182 34.584C86.182 36.39 85.1529 37.923 82.6329 40.506L78.2229 44.832H86.7489V46.743H75.0519ZM105.192 33.513H107.712V35.508H105.192V42.564H103.113V29.25H105.192V33.513ZM100.068 29.691V39.372H89.5892V29.691H100.068ZM98.0102 37.566V31.497H91.6472V37.566H98.0102ZM92.2982 41.136V45.063H105.675V46.953H90.1982V41.136H92.2982ZM118.525 40.506H123.964V29.25H126.043V43.299H123.964V42.186H118.525V40.506ZM115.543 36.285C112.435 36.285 110.23 35.046 110.23 32.778C110.23 30.531 112.435 29.292 115.543 29.292C118.672 29.292 120.856 30.531 120.856 32.778C120.856 35.046 118.672 36.285 115.543 36.285ZM115.543 30.93C113.653 30.93 112.267 31.539 112.267 32.778C112.267 34.017 113.653 34.647 115.543 34.647C117.433 34.647 118.819 34.017 118.819 32.778C118.819 31.539 117.433 30.93 115.543 30.93ZM114.115 42.48V39.267H109.159V37.545H116.572C119.029 37.545 121.213 37.356 122.452 36.831V38.553C121.318 39.057 119.071 39.267 116.509 39.267H116.194V42.48H114.115ZM112.897 45.189H126.505V46.953H110.818V41.514H112.897V45.189ZM149.903 47.184V29.25H152.003V47.184H149.903ZM141.44 46.344C138.248 46.344 136.001 43.698 136.001 38.007C136.001 32.316 138.248 29.67 141.44 29.67C144.611 29.67 146.858 32.316 146.858 38.007C146.858 43.698 144.611 46.344 141.44 46.344ZM141.44 44.433C143.309 44.433 144.779 42.564 144.779 38.007C144.779 33.471 143.309 31.581 141.44 31.581C139.529 31.581 138.08 33.471 138.08 38.007C138.08 42.564 139.529 44.433 141.44 44.433ZM171.679 32.673H174.199V34.647H171.679V39.162H169.6V29.25H171.679V32.673ZM161.557 34.878C160.255 36.978 158.155 38.448 155.488 38.805V36.915C158.89 36.306 160.885 33.198 160.927 29.418L163.006 29.544C163.006 30.867 162.775 32.106 162.355 33.24L167.92 36.852L166.849 38.385L161.557 34.878ZM164.266 39.75C168.571 39.75 171.952 40.779 171.952 43.467C171.952 46.155 168.571 47.184 164.266 47.184C159.982 47.184 156.58 46.155 156.58 43.467C156.58 40.779 159.982 39.75 164.266 39.75ZM164.266 45.462C167.332 45.462 169.726 44.853 169.726 43.467C169.726 42.102 167.332 41.472 164.266 41.472C161.221 41.472 158.806 42.102 158.806 43.467C158.806 44.853 161.221 45.462 164.266 45.462ZM196 37.86V31.623H182.707V29.67H198.163V37.86H196ZM199.444 39.351V41.325H191.443V47.604H189.301V41.325H181.531V39.351H199.444ZM216.999 29.25H218.973V47.184H216.999V38.448H214.08V46.869H212.106V29.355H214.08V36.474H216.999V29.25ZM202.278 46.113V29.901H209.964V46.113H202.278ZM204.252 31.791V44.223H208.011V31.791H204.252ZM236.59 29.25H238.669V47.184H236.59V29.25ZM229.954 29.775C229.933 32.526 229.702 35.004 229.24 37.146L235.036 44.874L233.356 46.071L228.589 39.561C227.266 43.509 225.082 45.903 222.247 46.113V44.013C225.838 43.446 227.812 37.23 227.833 29.691L229.954 29.775Z" fill="white"/>
<path d="M52.5987 67.795H61.9948V71.116H38.6668V67.795H48.0628V66.742H40.0708V58.75H60.5908V62.017H44.6068V63.475H60.8608V66.742H52.5987V67.795ZM44.4988 78.082V78.919H60.8878V81.808H40.0438V75.679H56.1898V74.842H39.9898V71.98H60.6448V78.082H44.4988ZM86.7784 64.582V68.011H65.8264V64.582H69.3634V62.179H66.0694V58.75H86.5354V62.179H83.2414V64.582H86.7784ZM73.8994 62.179V64.582H78.7054V62.179H73.8994ZM87.9664 72.52H78.5704V73.546C83.5384 73.816 86.8324 75.031 86.8324 77.785C86.8324 80.971 82.5124 82.078 76.3024 82.078C70.0924 82.078 65.7724 80.944 65.7724 77.785C65.7724 75.031 69.0664 73.816 74.0344 73.546V72.52H64.6384V69.064H87.9664V72.52ZM81.9994 77.785C81.9994 77.056 79.6774 76.813 76.3024 76.813C72.9274 76.813 70.6054 77.056 70.6054 77.785C70.6054 78.541 72.9274 78.757 76.3024 78.757C79.6774 78.757 81.9994 78.541 81.9994 77.785ZM112.912 58.75V81.808H108.349V58.75H112.912ZM98.5481 59.02C102.895 59.02 105.784 62.422 105.784 70.009C105.784 77.596 102.895 80.998 98.5481 80.998C94.2011 80.998 91.2851 77.596 91.2851 70.009C91.2851 62.422 94.2011 59.02 98.5481 59.02ZM98.5481 63.205C97.0091 63.205 95.7941 64.852 95.7941 70.009C95.7941 75.193 97.0091 76.813 98.5481 76.813C100.06 76.813 101.275 75.193 101.275 70.009C101.275 64.852 100.06 63.205 98.5481 63.205ZM135.651 67.525C132.978 71.143 129.009 73.438 124.608 73.465V69.145C129.198 69.118 133.464 64.852 134.301 58.669L138.945 59.398C138.729 61.018 138.297 62.53 137.676 63.961L147.504 69.874L145.101 73.573L135.651 67.525ZM124.149 80.998V76.732H147.477V80.998H124.149ZM164.107 76.732H173.449V80.998H150.121V76.732H159.463V72.547H151.39V59.155H156.061V68.281H172.315V72.547H164.107V76.732ZM187.757 71.575C181.331 71.575 177.146 69.01 177.146 65.122C177.146 61.234 181.331 58.669 187.757 58.669C194.183 58.669 198.368 61.234 198.368 65.122C198.368 69.01 194.183 71.575 187.757 71.575ZM187.757 62.746C184.463 62.746 181.952 63.556 181.952 65.122C181.952 66.661 184.463 67.498 187.757 67.498C191.051 67.498 193.562 66.661 193.562 65.122C193.562 63.556 191.051 62.746 187.757 62.746ZM199.421 72.952V77.164H190.106V82.348H185.408V77.164H176.093V72.952H199.421ZM220.748 58.75H225.014V81.808H220.748V58.75ZM214.943 67.228V58.858H219.155V81.403H214.943V71.548H212.945V80.728H202.469V59.29H212.945V67.228H214.943ZM208.733 76.597V63.421H206.681V76.597H208.733ZM250.338 58.75V81.808H245.775V58.75H250.338ZM235.974 59.02C240.321 59.02 243.21 62.422 243.21 70.009C243.21 77.596 240.321 80.998 235.974 80.998C231.627 80.998 228.711 77.596 228.711 70.009C228.711 62.422 231.627 59.02 235.974 59.02ZM235.974 63.205C234.435 63.205 233.22 64.852 233.22 70.009C233.22 75.193 234.435 76.813 235.974 76.813C237.486 76.813 238.701 75.193 238.701 70.009C238.701 64.852 237.486 63.205 235.974 63.205ZM271.855 58.75H276.418V81.808H271.855V71.521H267.346C265.618 77.434 260.866 80.701 254.791 80.728V76.462C258.544 76.435 261.433 74.815 262.756 71.332H254.791V67.201H263.512V66.526V63.475H254.791V59.29H268.048V66.202C268.048 66.553 268.048 66.904 268.021 67.255H271.855V58.75Z" fill="white"/>
</svg>
