<svg width="216" height="33" viewBox="0 0 216 33" fill="none" xmlns="http://www.w3.org/2000/svg">
<path d="M25.9114 17.092V19.657H22.6714V30.808H19.9984V7.75H22.6714V17.092H25.9114ZM9.41443 8.29C13.4374 8.29 16.2724 11.692 16.2724 19.009C16.2724 26.326 13.4374 29.728 9.41443 29.728C5.36443 29.728 2.52943 26.326 2.52943 19.009C2.52943 11.692 5.36443 8.29 9.41443 8.29ZM9.41443 27.271C11.7904 27.271 13.5994 24.868 13.5994 19.009C13.5994 13.177 11.7904 10.747 9.41443 10.747C7.01143 10.747 5.20243 13.177 5.20243 19.009C5.20243 24.868 7.01143 27.271 9.41443 27.271ZM47.4011 7.75H49.9391V30.808H47.4011V7.75ZM41.5961 15.634V7.885H44.1341V30.403H41.5961V18.172H37.9511V15.634H41.5961ZM35.4401 8.425C35.4401 12.016 35.2511 15.121 34.9271 17.794L40.5161 27.946L38.2751 29.134L34.2251 21.574C33.0641 26.191 31.0391 28.783 27.9611 29.431V26.731C31.6061 25.543 32.8481 18.604 32.8751 8.317L35.4401 8.425ZM73.4538 7.75H75.9108V30.808H73.4538V7.75ZM68.1888 17.119V7.885H70.6458V30.403H68.1888V19.63H65.4078V17.119H68.1888ZM63.6528 10.963V26.785C64.7598 26.596 65.7048 26.353 66.5148 25.948V28.351C65.0298 29.08 62.3568 29.431 59.1438 29.431H53.6088V27.055H55.6608V10.963H53.7708V8.587H65.6238V10.963H63.6528ZM58.0638 27.055H59.2248C59.9538 27.055 60.6288 27.055 61.2498 27.001V10.963H58.0638V27.055ZM98.5149 15.337C95.9229 19.306 92.0079 21.871 87.7419 21.871V19.333C92.7369 19.333 97.3269 14.23 98.5149 7.858L101.269 8.344C100.945 10.072 100.405 11.719 99.7029 13.204L109.801 19.819L108.343 21.952L98.5149 15.337ZM100.135 27.19H110.314V29.701H87.2829V27.19H97.4079V20.737H100.135V27.19ZM134.612 8.02V17.254H114.902V8.02H134.612ZM131.939 15.04V10.234H117.575V15.04H131.939ZM113.255 19.576H136.286V21.844H126.107V25.813H123.407V21.844H113.255V19.576ZM117.575 23.815V28.243H135.125V30.538H114.875V23.815H117.575ZM158.855 7.75H161.393V30.808H158.855V19.549H155.102V30.403H152.564V7.885H155.102V17.038H158.855V7.75ZM142.547 27.055H145.517C147.488 27.055 149.486 26.704 150.89 26.164V28.54C149.513 29.134 147.299 29.431 145.22 29.431H139.928V8.533H142.547V27.055ZM184.044 30.808V7.75H186.717V30.808H184.044ZM166.278 29.377V26.839C172.569 26.812 176.349 21.925 176.349 14.203V11.044H166.278V8.587H179.076V14.149C179.076 23.383 174.162 29.377 166.278 29.377Z" fill="white"/>
<path d="M212.743 18.468L203.806 27.378L202.618 26.163L210.34 18.468L202.618 10.746L203.833 9.558L212.743 18.468Z" fill="white"/>
</svg>
