<svg width="411" height="119" viewBox="0 0 411 119" fill="none" xmlns="http://www.w3.org/2000/svg">
<path d="M11.4031 36.568H18.5151V39.928H10.2271L4.23513 56.56L1.04313 55.328L15.2671 15.68L18.5151 16.8L11.4031 36.568ZM30.1071 56.672L19.1871 25.76L22.3791 24.472L33.2991 55.384L30.1071 56.672ZM72.5529 43.792L69.5289 45.36L58.6089 21.728L52.0009 56.448L48.6409 55.776L56.1449 16.296H59.8409L72.5529 43.792ZM81.4009 21.952L76.2489 34.496L73.1129 33.208L80.0569 16.296H83.6969L92.2649 55.832L88.9049 56.504L81.4009 21.952ZM114.826 56.672C104.186 56.672 96.1775 48.104 96.1775 36.68C96.1775 31.024 97.9135 26.04 100.826 22.344L103.178 24.92C100.938 27.776 99.6495 31.696 99.6495 36.12C99.6495 45.92 106.146 53.312 114.826 53.312C123.505 53.312 130.002 45.92 130.002 36.12C130.002 26.32 123.505 18.984 114.826 18.984C112.754 18.984 110.738 19.376 108.946 20.216L107.266 17.248C109.73 16.072 112.418 15.624 114.826 15.624C125.466 15.624 133.474 24.192 133.474 35.56C133.474 47.6 125.466 56.672 114.826 56.672ZM160.751 27.664C160.751 34.552 155.879 39.032 148.319 39.032H143.783V56H140.311V16.296H143.783V35.728H148.375C153.807 35.728 157.279 32.536 157.279 27.664C157.279 22.792 153.807 19.656 148.375 19.656H148.263V16.296H148.375C155.879 16.296 160.751 20.776 160.751 27.664ZM159.351 56.28L149.383 45.304L151.959 43.12L161.759 53.928L159.351 56.28ZM187.803 56H168.147V16.296H171.619V33.656H186.347V37.016H171.619V52.64H187.803V56ZM176.547 19.656V16.296H187.523V19.656H176.547ZM225.258 33.768V37.128H211.65V56H208.178V16.296H211.65V33.768H225.258ZM227.162 19.656H216.578V16.296H227.162V19.656ZM254.321 27.664C254.321 34.552 249.449 39.032 241.889 39.032H237.353V56H233.881V16.296H237.353V35.728H241.945C247.377 35.728 250.849 32.536 250.849 27.664C250.849 22.792 247.377 19.656 241.945 19.656H241.833V16.296H241.945C249.449 16.296 254.321 20.776 254.321 27.664ZM252.921 56.28L242.953 45.304L245.529 43.12L255.329 53.928L252.921 56.28ZM265.189 16.296V56H261.717V16.296H265.189ZM294.006 56H274.35V16.296H277.822V33.656H292.55V37.016H277.822V52.64H294.006V56ZM282.75 19.656V16.296H293.726V19.656H282.75ZM330.648 56H326.952L301.584 17.64L304.44 15.736L327.176 50.176V16.296H330.648V56ZM305.336 31.304V56H301.864V31.304H305.336ZM345.971 16.296C357.955 16.296 365.739 24.136 365.739 36.288C365.739 48.272 358.571 56 347.483 56H347.371V52.64H347.483C356.443 52.64 362.267 46.2 362.267 36.288C362.267 26.208 355.883 19.656 345.971 19.656H343.283V56H339.811V16.296H345.971ZM389.089 25.704C389.089 21.616 386.345 18.984 382.145 18.984C380.969 18.984 379.793 19.208 378.841 19.656L377.105 16.744C378.449 16.016 380.073 15.624 382.145 15.624C388.417 15.624 392.505 19.6 392.505 25.704H389.089ZM390.097 48.944C390.825 47.656 391.217 46.312 391.217 44.408C391.217 40.656 388.417 37.464 383.433 36.176L379.737 35.224C374.081 33.768 371.561 30.072 371.561 25.704C371.561 23.968 371.897 22.4 372.681 20.944L375.481 23.24C375.201 23.968 375.033 24.92 375.033 25.704C375.033 28.56 376.713 30.856 381.025 31.976L384.497 32.872C391.273 34.608 394.689 39.032 394.689 44.408C394.689 46.984 394.073 49.448 392.729 51.352L390.097 48.944ZM381.809 56.672C374.081 56.672 369.097 51.912 369.097 44.52H372.569C372.569 49.84 376.209 53.312 381.809 53.312C383.489 53.312 384.945 53.088 386.513 52.304L388.361 55.216C386.457 56.224 384.497 56.672 381.809 56.672ZM405.319 16.296V46.312H401.847V16.296H405.319ZM403.583 56.672C402.127 56.672 400.951 55.496 400.951 54.04C400.951 52.64 402.183 51.408 403.583 51.408C405.039 51.408 406.215 52.584 406.215 54.04C406.215 55.496 405.039 56.672 403.583 56.672Z" fill="white"/>
<path d="M13.4355 89.992L14.7155 91.4L6.0755 98.984L4.8275 97.544L13.4355 89.992ZM14.4595 96.36V113H12.4755V96.36H14.4595ZM26.4183 113.352C22.3223 113.352 19.8263 108.648 19.8263 101.64C19.8263 97.864 20.4983 94.792 21.9383 92.616L23.2503 94.12C22.2583 96.04 21.8103 98.952 21.8103 101.64C21.8103 107.24 23.4743 111.432 26.4183 111.432C29.3623 111.432 31.0263 107.24 31.0263 101.64C31.0263 96.04 29.3623 91.848 26.4183 91.848C26.1302 91.848 25.8103 91.912 25.7143 91.944L24.9143 90.184C25.3623 90.024 25.8103 89.928 26.4183 89.928C30.5143 89.928 33.0103 94.632 33.0103 101.64C33.0103 108.648 30.5143 113.352 26.4183 113.352ZM43.4495 113.352C39.3535 113.352 36.8575 108.648 36.8575 101.64C36.8575 97.864 37.5295 94.792 38.9695 92.616L40.2815 94.12C39.2895 96.04 38.8415 98.952 38.8415 101.64C38.8415 107.24 40.5055 111.432 43.4495 111.432C46.3935 111.432 48.0575 107.24 48.0575 101.64C48.0575 96.04 46.3935 91.848 43.4495 91.848C43.1615 91.848 42.8415 91.912 42.7455 91.944L41.9455 90.184C42.3935 90.024 42.8415 89.928 43.4495 89.928C47.5455 89.928 50.0415 94.632 50.0415 101.64C50.0415 108.648 47.5455 113.352 43.4495 113.352ZM58.0168 100.552C57.0568 100.552 56.1608 100.296 55.3608 99.816C53.7288 98.856 52.7048 97.16 52.7048 95.24C52.7048 94.28 52.9608 93.384 53.4408 92.584C54.4008 90.952 56.0968 89.928 58.0168 89.928C58.9768 89.928 59.8728 90.152 60.6728 90.632C62.3048 91.592 63.3288 93.32 63.3288 95.24C63.3288 96.2 63.1048 97.096 62.6248 97.896C61.6648 99.528 59.9368 100.552 58.0168 100.552ZM58.0168 98.568C59.9048 98.568 61.3448 97.128 61.3448 95.24C61.3448 93.352 59.9048 91.912 58.0168 91.912C56.1288 91.912 54.6888 93.352 54.6888 95.24C54.6888 97.064 56.1927 98.568 58.0168 98.568ZM69.3448 113.384C68.3528 113.384 67.4568 113.16 66.6568 112.68C65.0248 111.784 64.0328 110.088 64.0328 108.072C64.0328 107.08 64.2888 106.152 64.7688 105.352C65.7288 103.72 67.4248 102.76 69.3448 102.76C70.3048 102.76 71.2008 102.984 72.0008 103.464C73.6328 104.424 74.6568 106.152 74.6568 108.072C74.6568 109.032 74.4328 109.928 73.9528 110.728C72.9928 112.36 71.2648 113.384 69.3448 113.384ZM69.3448 111.4C71.2328 111.4 72.6728 109.896 72.6728 108.072C72.6728 106.184 71.2328 104.744 69.3448 104.744C67.4568 104.744 66.0168 106.184 66.0168 108.072C66.0168 109.896 67.5208 111.4 69.3448 111.4ZM55.8728 112.328L69.2808 89.928L71.0728 90.984L57.6968 113.384L55.8728 112.328ZM107.871 88.488V109.992H105.727V88.488H107.871ZM83.6468 104.744C89.3748 101.192 91.1348 96.552 91.3588 93.576C91.4548 92.36 91.3908 91.112 91.3908 89.896H93.5668V92.904C93.5668 95.944 92.3828 98.408 91.2308 100.36C90.2068 102.088 88.4148 104.168 85.3108 106.184L83.6468 104.744ZM104.447 96.04V97.8H98.3348V96.04H104.447ZM94.7188 97.416C95.8068 99.592 97.7588 101.672 101.151 103.24L99.7108 104.872C96.3828 103.24 94.1108 100.744 93.1508 98.568L94.7188 97.416ZM91.0708 113.96H108.511V115.816H88.8948V108.136H91.0708V113.96ZM118.033 98.472H115.953V89.416H118.033V98.472ZM133.617 91.272H119.312V89.416H135.793V95.336H133.617V91.272ZM135.825 98.472H119.312V96.648H135.825V98.472ZM139.121 100.968V102.824H126.897V105.48H135.793V108.712H133.457V107.4H115.953V105.48H124.753V102.824H112.561V100.968H139.121ZM135.793 111.72H115.953V109.832H135.793V111.72ZM118.257 114.376H136.401V116.296H115.953V112.84H118.289L118.257 114.376ZM167.255 88.488V115.304H165.079V88.488H167.255ZM156.727 99.144H159.319V88.808H161.463V101H156.727V99.144ZM145.751 91.432C146.647 90.728 147.799 90.344 149.175 90.344C153.751 90.344 155.447 94.568 155.447 100.072C155.447 105.576 153.687 109.736 149.175 109.736C144.855 109.736 142.871 105.96 142.871 100.072C142.871 97.064 143.383 94.6 144.471 92.904L145.847 94.408C145.175 95.784 144.887 97.736 144.887 100.072C144.887 104.776 146.135 107.912 149.175 107.912C152.151 107.912 153.463 104.776 153.463 100.072C153.463 95.304 152.151 92.232 149.175 92.232C148.311 92.232 147.575 92.488 146.967 92.936L145.751 91.432ZM161.463 114.856H159.319V102.12H161.463V114.856ZM204.88 88.488V115.304H202.704V88.488H204.88ZM194.352 99.144H196.944V88.808H199.088V101H194.352V99.144ZM183.376 91.432C184.272 90.728 185.424 90.344 186.8 90.344C191.376 90.344 193.072 94.568 193.072 100.072C193.072 105.576 191.312 109.736 186.8 109.736C182.48 109.736 180.496 105.96 180.496 100.072C180.496 97.064 181.008 94.6 182.096 92.904L183.472 94.408C182.8 95.784 182.512 97.736 182.512 100.072C182.512 104.776 183.76 107.912 186.8 107.912C189.776 107.912 191.088 104.776 191.088 100.072C191.088 95.304 189.776 92.232 186.8 92.232C185.936 92.232 185.2 92.488 184.592 92.936L183.376 91.432ZM199.088 114.856H196.944V102.12H199.088V114.856ZM233.625 88.488V115.304H231.449V101.128H226.745V99.272H231.481L231.449 95.4V88.488H233.625ZM217.945 90.344C222.457 90.344 225.049 93.896 225.305 99.272V101.128C225.049 106.536 222.489 110.056 217.945 110.056C213.049 110.056 210.489 106.12 210.489 100.232C210.489 97.224 211.161 94.728 212.441 93L213.785 94.472C212.953 95.88 212.569 97.832 212.569 100.232C212.569 105.032 214.169 108.232 217.945 108.232C221.625 108.232 223.289 105.032 223.289 100.232C223.289 95.368 221.625 92.232 217.945 92.232C216.729 92.232 215.769 92.52 215.001 93.128L213.785 91.656C214.873 90.792 216.249 90.344 217.945 90.344ZM256.871 88.84V95.88H261.255V88.488H263.303V104.68H261.255V97.704H256.871V104.68H254.823V88.84H256.871ZM240.647 91.592V89.736H251.431V97.864H249.319V91.592H240.647ZM240.647 96.104H248.039V97.864H240.647V96.104ZM242.823 102.216H244.295C247.815 102.216 251.111 102.024 253.543 101.672V103.496C251.143 103.848 247.815 104.072 244.135 104.072H240.647V99.144H242.823V102.216ZM244.359 115.976V106.152H246.503V109.32H259.783V111.144H246.503V115.976H244.359ZM261.063 106.152H263.207V113H261.063V106.152ZM263.239 115.976H247.783V114.12H263.239V115.976ZM292.111 88.84H294.191V96.2H297.775V88.488H299.855V106.568H297.775V98.024H294.191V105.32H292.111V88.84ZM279.151 88.616C282.351 89.672 284.879 89.352 287.727 89.352V91.016C284.495 91.08 281.295 91.176 278.735 90.28L279.151 88.616ZM276.079 93.416H290.287V95.208H276.079V93.416ZM279.951 99.56C279.503 99.976 279.279 100.52 279.279 101.192C279.279 102.92 280.783 103.752 283.375 103.752C285.935 103.752 287.471 102.92 287.471 101.192C287.471 99.432 285.935 98.632 283.375 98.632C282.575 98.632 281.903 98.696 281.327 98.856L280.367 97.384C281.231 97.096 282.255 96.968 283.375 96.968C287.023 96.968 289.391 98.44 289.391 101.192C289.391 103.944 287.023 105.448 283.375 105.448C279.695 105.448 277.295 103.944 277.295 101.192C277.295 99.816 277.871 98.792 278.895 98.088L279.951 99.56ZM284.399 109.64C283.087 110.056 282.51 110.76 282.51 111.688C282.51 113.576 285.263 114.376 290.222 114.376C295.151 114.376 297.999 113.576 297.999 111.688C297.999 109.768 295.151 108.936 290.222 108.936C288.655 108.936 287.311 109.032 286.223 109.192L285.199 107.592C286.543 107.336 288.207 107.176 290.222 107.176C296.975 107.176 300.143 108.872 300.143 111.688C300.143 114.44 296.975 116.136 290.222 116.136C283.407 116.136 280.335 114.44 280.335 111.688C280.335 110.12 281.327 108.872 283.407 108.104L284.399 109.64ZM313.13 89.736C314.538 89.448 316.17 89.288 318.122 89.288C325.002 89.288 328.49 91.304 328.49 94.824C328.49 98.312 325.002 100.328 318.122 100.328C311.146 100.328 307.754 98.312 307.754 94.824C307.754 92.776 308.906 91.24 311.242 90.312L312.298 91.848C310.73 92.488 309.866 93.448 309.866 94.824C309.866 97.448 313.098 98.6 318.122 98.6C323.114 98.6 326.378 97.448 326.378 94.824C326.378 92.2 323.114 91.016 318.122 91.016C316.618 91.016 315.274 91.112 314.122 91.336L313.13 89.736ZM304.842 103.56H331.402V105.384H304.842V103.56ZM319.338 111.272H317.194V106.504H319.338V111.272ZM310.378 114.12H329.002V115.976H308.234V108.328H310.378V114.12ZM342.384 89.704C343.728 89.448 345.328 89.288 347.184 89.288C354.064 89.288 357.552 91.304 357.552 94.824C357.552 98.312 354.064 100.328 347.184 100.328C340.208 100.328 336.816 98.312 336.816 94.824C336.816 92.744 338 91.176 340.4 90.248L341.424 91.848C339.824 92.456 338.928 93.448 338.928 94.824C338.928 97.448 342.16 98.6 347.184 98.6C352.176 98.6 355.44 97.448 355.44 94.824C355.44 92.2 352.176 91.016 347.184 91.016C345.776 91.016 344.464 91.112 343.376 91.304L342.384 89.704ZM333.904 103.4H360.464V105.224H333.904V103.4ZM339.44 114.12H358.064V115.976H337.296V108.296H339.44V114.12ZM392.967 97.096H385.415V95.24H392.967V88.488H395.111V104.36H392.967V97.096ZM372.615 89.736H386.279V91.592H372.615V89.736ZM374.791 101H376.871C381.351 101 384.775 100.84 387.591 100.296L387.943 102.12C385.127 102.632 381.639 102.824 376.711 102.824H372.615V92.872H374.791V101ZM376.007 115.976V106.376H378.023V115.976H376.007ZM392.967 108.2H379.271V106.376H395.143V113H392.967V108.2ZM379.271 114.12H395.175V115.976H379.271V114.12ZM403.683 90.312V107.464H401.699V90.312H403.683ZM402.691 113.384C401.859 113.384 401.187 112.712 401.187 111.88C401.187 111.08 401.891 110.376 402.691 110.376C403.523 110.376 404.195 111.048 404.195 111.88C404.195 112.712 403.523 113.384 402.691 113.384Z" fill="white"/>
</svg>
