<svg width="468" height="186" viewBox="0 0 468 186" fill="none" xmlns="http://www.w3.org/2000/svg">
<path d="M150.407 33.568H157.519V36.928H149.231L143.239 53.56L140.047 52.328L154.271 12.68L157.519 13.8L150.407 33.568ZM169.111 53.672L158.191 22.76L161.383 21.472L172.303 52.384L169.111 53.672ZM211.557 40.792L208.533 42.36L197.613 18.728L191.005 53.448L187.645 52.776L195.149 13.296H198.845L211.557 40.792ZM220.405 18.952L215.253 31.496L212.117 30.208L219.061 13.296H222.701L231.269 52.832L227.909 53.504L220.405 18.952ZM253.829 53.672C243.189 53.672 235.181 45.104 235.181 33.68C235.181 28.024 236.917 23.04 239.829 19.344L242.181 21.92C239.941 24.776 238.653 28.696 238.653 33.12C238.653 42.92 245.149 50.312 253.829 50.312C262.509 50.312 269.005 42.92 269.005 33.12C269.005 23.32 262.509 15.984 253.829 15.984C251.757 15.984 249.741 16.376 247.949 17.216L246.269 14.248C248.733 13.072 251.421 12.624 253.829 12.624C264.469 12.624 272.477 21.192 272.477 32.56C272.477 44.6 264.469 53.672 253.829 53.672ZM299.755 24.664C299.755 31.552 294.883 36.032 287.323 36.032H282.787V53H279.315V13.296H282.787V32.728H287.379C292.811 32.728 296.283 29.536 296.283 24.664C296.283 19.792 292.811 16.656 287.379 16.656H287.267V13.296H287.379C294.883 13.296 299.755 17.776 299.755 24.664ZM298.355 53.28L288.387 42.304L290.963 40.12L300.763 50.928L298.355 53.28ZM326.807 53H307.151V13.296H310.623V30.656H325.351V34.016H310.623V49.64H326.807V53ZM315.551 16.656V13.296H326.527V16.656H315.551ZM9.51322 76.296V116H6.04122V76.296H9.51322ZM14.0492 95.784C19.4812 95.784 23.0092 92.592 23.0092 87.72C23.0092 82.848 19.5372 79.656 14.1052 79.656H13.8252V76.296H14.1052C21.6092 76.296 26.4812 80.776 26.4812 87.72C26.4812 94.664 21.6092 99.144 14.0492 99.144H13.8812V95.784H14.0492ZM39.3914 96.568H46.5034V99.928H38.2154L32.2234 116.56L29.0314 115.328L43.2554 75.68L46.5034 76.8L39.3914 96.568ZM58.0954 116.672L47.1754 85.76L50.3674 84.472L61.2874 115.384L58.0954 116.672ZM63.2723 77.584L66.1283 75.792L76.0963 90.184L86.0083 75.624L88.8643 77.36L76.1523 96.12L63.2723 77.584ZM77.7763 100.6V116H74.3043V100.6H77.7763ZM115.58 103.792L112.556 105.36L101.636 81.728L95.0283 116.448L91.6683 115.776L99.1723 76.296H102.868L115.58 103.792ZM124.428 81.952L119.276 94.496L116.14 93.208L123.084 76.296H126.724L135.292 115.832L131.932 116.504L124.428 81.952ZM161.213 116H141.557V76.296H145.029V93.656H159.757V97.016H145.029V112.64H161.213V116ZM149.957 79.656V76.296H160.933V79.656H149.957ZM197.855 116H194.159L168.791 77.64L171.647 75.736L194.383 110.176V76.296H197.855V116ZM172.543 91.304V116H169.071V91.304H172.543ZM225.61 76.296V79.656H203.826V76.296H225.61ZM216.426 86.208V116H212.954V86.208H216.426ZM258.48 93.6C264.192 95 267.104 99.088 267.104 104.576C267.104 111.632 261.952 116 253.776 116H253.216V112.64H253.776C259.88 112.64 263.632 109.504 263.632 104.688C263.632 99.256 259.936 96.344 253.496 96.344H247.896V116H244.424V76.296H249.576C256.968 76.296 261.784 80.048 261.784 86.432C261.784 89.68 260.328 92.312 258.48 93.6ZM251.816 92.984C255.904 92.984 258.312 91.08 258.312 86.432C258.312 82.12 254.952 79.656 249.576 79.656H247.896V92.984H251.816ZM293.338 116H273.682V76.296H277.154V93.656H291.882V97.016H277.154V112.64H293.338V116ZM282.082 79.656V76.296H293.058V79.656H282.082ZM329.98 116H326.284L300.916 77.64L303.772 75.736L326.508 110.176V76.296H329.98V116ZM304.668 91.304V116H301.196V91.304H304.668ZM358.799 116H339.143V76.296H342.615V93.656H357.343V97.016H342.615V112.64H358.799V116ZM347.543 79.656V76.296H358.519V79.656H347.543ZM383.457 93.768V97.128H369.849V116H366.377V76.296H369.849V93.768H383.457ZM385.361 79.656H374.777V76.296H385.361V79.656ZM395.552 76.296V116H392.08V76.296H395.552ZM423.305 76.296V79.656H401.521V76.296H423.305ZM414.121 86.208V116H410.649V86.208H414.121ZM445.842 85.704C445.842 81.616 443.098 78.984 438.898 78.984C437.722 78.984 436.546 79.208 435.594 79.656L433.858 76.744C435.202 76.016 436.826 75.624 438.898 75.624C445.17 75.624 449.258 79.6 449.258 85.704H445.842ZM446.85 108.944C447.578 107.656 447.97 106.312 447.97 104.408C447.97 100.656 445.17 97.464 440.186 96.176L436.49 95.224C430.834 93.768 428.314 90.072 428.314 85.704C428.314 83.968 428.65 82.4 429.434 80.944L432.234 83.24C431.954 83.968 431.786 84.92 431.786 85.704C431.786 88.56 433.466 90.856 437.778 91.976L441.25 92.872C448.026 94.608 451.442 99.032 451.442 104.408C451.442 106.984 450.826 109.448 449.482 111.352L446.85 108.944ZM438.562 116.672C430.834 116.672 425.85 111.912 425.85 104.52H429.322C429.322 109.84 432.962 113.312 438.562 113.312C440.242 113.312 441.698 113.088 443.266 112.304L445.114 115.216C443.21 116.224 441.25 116.672 438.562 116.672ZM462.073 76.296V106.312H458.601V76.296H462.073ZM460.337 116.672C458.881 116.672 457.705 115.496 457.705 114.04C457.705 112.64 458.937 111.408 460.337 111.408C461.793 111.408 462.969 112.584 462.969 114.04C462.969 115.496 461.793 116.672 460.337 116.672Z" fill="white"/>
<path d="M9.52925 156.992L10.8093 158.4L2.16925 165.984L0.92125 164.544L9.52925 156.992ZM10.5533 163.36V180H8.56925V163.36H10.5533ZM36.848 176.992V155.488H39.024V176.992H36.848ZM17.584 157.056H19.696V171.104H17.584V157.056ZM28.464 158.912H20.976V157.056H30.576V167.968H28.464V158.912ZM44.464 164.736V166.592H40.144V164.736H44.464ZM30.608 171.104H20.976V169.248H30.608V171.104ZM22.672 180.96H40.08V182.816H20.496V174.976H22.672V180.96ZM69.457 155.488V177.952H67.313V155.488H69.457ZM51.601 159.04C50.609 159.584 50.001 160.416 50.001 161.536C50.001 163.744 52.369 164.8 55.377 164.8C58.385 164.8 60.721 163.744 60.721 161.536C60.721 159.296 58.385 158.24 55.377 158.24C54.577 158.24 53.809 158.304 53.137 158.464L52.177 156.928C53.137 156.672 54.225 156.544 55.377 156.544C59.377 156.544 62.641 158.048 62.641 161.536C62.641 164.8 59.377 166.464 55.377 166.464C51.377 166.464 48.081 164.8 48.081 161.536C48.081 159.616 49.041 158.304 50.609 157.504L51.601 159.04ZM53.585 175.552C53.713 174.688 53.777 173.856 53.777 172.864V171.072H45.873V169.248H53.041C57.233 169.248 61.425 169.12 65.009 168.48L65.297 170.24C62.609 170.752 59.441 170.976 55.953 171.04V172.864C55.953 173.888 55.921 174.752 55.793 175.68L53.585 175.552ZM59.761 174.976V173.12H66.353V174.976H59.761ZM52.337 180.96H70.097V182.816H50.193V176.544H52.337V180.96ZM97.5783 155.488V182.304H95.4343V155.488H97.5783ZM78.8903 160.32C78.1223 161.184 77.7063 162.368 77.7063 163.744C77.7063 166.976 79.8503 168.864 83.4663 168.864C87.0183 168.864 89.2263 166.976 89.2263 163.744C89.2263 160.608 87.0183 158.56 83.4663 158.56C82.2503 158.56 81.1943 158.784 80.3303 159.232L79.0503 157.76C80.2343 157.088 81.7063 156.736 83.4663 156.736C88.3303 156.736 91.1783 159.616 91.1783 163.744C91.1783 167.84 88.3943 170.784 83.4663 170.784C78.5063 170.784 75.7543 167.904 75.7543 163.744C75.7543 161.792 76.3623 160.128 77.5463 158.912L78.8903 160.32ZM93.8343 177.216C90.6663 177.76 85.9623 177.952 81.9303 177.952H74.1543V176.096H81.9623C85.7063 176.096 90.4743 175.968 93.8343 175.392V177.216ZM126.392 155.84H128.472V163.2H132.056V155.488H134.136V173.568H132.056V165.024H128.472V172.32H126.392V155.84ZM113.432 155.616C116.632 156.672 119.16 156.352 122.008 156.352V158.016C118.776 158.08 115.576 158.176 113.016 157.28L113.432 155.616ZM110.36 160.416H124.568V162.208H110.36V160.416ZM114.232 166.56C113.784 166.976 113.56 167.52 113.56 168.192C113.56 169.92 115.064 170.752 117.656 170.752C120.216 170.752 121.752 169.92 121.752 168.192C121.752 166.432 120.216 165.632 117.656 165.632C116.856 165.632 116.184 165.696 115.608 165.856L114.648 164.384C115.512 164.096 116.536 163.968 117.656 163.968C121.304 163.968 123.672 165.44 123.672 168.192C123.672 170.944 121.304 172.448 117.656 172.448C113.976 172.448 111.576 170.944 111.576 168.192C111.576 166.816 112.152 165.792 113.176 165.088L114.232 166.56ZM118.68 176.64C117.368 177.056 116.792 177.76 116.792 178.688C116.792 180.576 119.544 181.376 124.504 181.376C129.432 181.376 132.28 180.576 132.28 178.688C132.28 176.768 129.432 175.936 124.504 175.936C122.936 175.936 121.592 176.032 120.504 176.192L119.48 174.592C120.824 174.336 122.488 174.176 124.504 174.176C131.256 174.176 134.424 175.872 134.424 178.688C134.424 181.44 131.256 183.136 124.504 183.136C117.688 183.136 114.616 181.44 114.616 178.688C114.616 177.12 115.608 175.872 117.688 175.104L118.68 176.64ZM144.659 167.328H142.515V156.32H144.659V160.384H159.059V162.176H144.659V167.328ZM162.355 164.384H160.179V156.32H162.355V164.384ZM165.683 170.656V172.576H139.123V170.656H151.315V167.328H145.779V165.504H162.355V167.328H153.491V170.656H165.683ZM142.259 175.104H162.259V183.296H160.083V176.928H142.259V175.104ZM172.058 157.312V174.464H170.074V157.312H172.058ZM171.066 180.384C170.234 180.384 169.562 179.712 169.562 178.88C169.562 178.08 170.266 177.376 171.066 177.376C171.898 177.376 172.57 178.048 172.57 178.88C172.57 179.712 171.898 180.384 171.066 180.384ZM204.324 165.408C205.028 162.176 205.124 159.68 205.124 158.272H186.98V156.448H207.3C207.3 158.72 207.172 162.24 206.372 165.76L204.324 165.408ZM183.748 166.976H194.692V161.824H196.836V166.976H210.308V168.864H183.748V166.976ZM204.612 173.664H187.14V171.84H206.98V175.616H204.58L204.612 173.664ZM187.14 176.576H206.98V178.432H187.14V176.576ZM189.444 181.44H207.588V183.296H187.14V179.392H189.476L189.444 181.44ZM234.091 182.304V155.488H236.235V182.304H234.091ZM214.987 159.232V157.376H227.979V168.224H225.835V159.232H214.987ZM241.707 166.272V168.128H237.355V166.272H241.707ZM214.987 168.224V166.368H224.523V168.224H214.987ZM217.163 175.52H219.211C223.787 175.52 228.683 175.296 232.491 174.432V176.288C228.939 177.088 224.171 177.376 219.179 177.376H214.987V169.664H217.163V175.52ZM263.639 182.304V155.488H265.783V182.304H263.639ZM241.719 175.936C247.191 171.904 249.847 166.88 249.847 160.864V157.376H251.831V160.864C251.799 167.968 248.823 172.928 243.191 177.312L241.719 175.936ZM262.519 165.024V166.88H257.111V165.024H262.519ZM253.047 167.392C254.167 170.208 256.215 172.864 259.479 175.36L257.943 176.8C253.719 173.248 252.023 170.048 251.543 168.512L253.047 167.392ZM307.155 163.168V164.992H302.003V171.68H299.859V155.488H302.003V163.168H307.155ZM282.227 163.52V169.888H280.115V156.608H282.227V161.696H290.067V163.52H282.227ZM293.427 166.784H291.347V156.608H293.427V166.784ZM283.507 168.064H293.459V169.888H283.507V168.064ZM302.003 175.52H283.027V173.696H302.003V175.52ZM285.235 181.12H302.611V182.976H283.059V176.64H285.235V181.12ZM332.273 165.664C329.713 166.304 326.769 166.496 321.937 166.496H311.953V156.288H314.097V164.64H321.969C326.257 164.64 328.817 164.512 331.985 163.808L332.273 165.664ZM308.561 170.72H335.121V172.576H308.561V170.72ZM314.097 181.12H332.721V182.976H311.953V175.136H314.097V181.12ZM365.896 167.424H358.6V165.6H365.896V162.112H358.6V160.288H365.896V155.488H368.072V169.792H365.896V167.424ZM353 168.8C354.472 165.504 355.176 161.952 355.24 158.592H344.008V156.736H357.48C357.48 161.184 356.744 165.664 355.08 169.472L353 168.8ZM365.768 175.296V173.376H348.968V171.52H368.072V175.296H365.768ZM348.968 176.416H368.072V178.24H348.968V176.416ZM369 181.44V183.296H348.968V179.36H351.272V181.44H369ZM397.74 155.488V182.304H395.596V155.488H397.74ZM389.964 155.808H392.14V166.912H385.1V165.056H389.964V155.808ZM381.58 161.44C381.58 166.976 378.924 172.928 374.668 176.992L373.068 175.744C378.028 170.976 379.532 165.696 379.532 161.408V159.52H373.868V157.696H386.924V159.52H381.58V161.44ZM382.668 167.68C383.564 170.208 385.068 172.672 387.596 175.008L386.06 176.352C384.044 174.304 382.38 172.256 381.132 168.768L382.668 167.68ZM389.964 168.032H392.14V181.856H389.964V168.032ZM434.58 155.488V182.304H432.436V155.488H434.58ZM427.252 155.808H429.364V170.88H427.252V167.84H422.932V166.048H427.252V155.808ZM421.332 158.976C418.164 159.04 414.452 159.136 412.148 158.208L412.5 156.576C415.38 157.632 418.484 157.28 421.332 157.28V158.976ZM423.764 164.384H409.748V162.56H423.764V164.384ZM417.204 167.2C420.788 167.2 423.348 169.248 423.316 172.64C423.284 175.936 420.948 178.016 417.204 178.016C413.396 178.016 411.06 175.776 411.06 172.64C411.06 171.168 411.54 169.92 412.436 168.992L413.876 170.336C413.364 170.944 413.076 171.776 413.076 172.64C413.076 174.752 414.548 176.224 417.204 176.224C419.828 176.224 421.364 174.752 421.364 172.64C421.364 170.624 419.828 168.992 417.204 168.992C416.404 168.992 415.732 169.12 415.156 169.376L413.716 168C414.676 167.488 415.828 167.2 417.204 167.2ZM429.364 181.856H427.252V173.984H424.468V172.16H429.364V181.856ZM455.951 155.84H457.999V162.88H462.223V155.488H464.271V172.32H462.223V164.704H455.951V155.84ZM441.615 156.736H452.399V158.592H441.615V156.736ZM445.263 169.216C449.071 169.216 452.079 169.12 454.671 168.8V170.624C452.079 170.944 449.103 171.072 445.103 171.072H441.615V159.712H443.791V169.216H445.263ZM452.079 163.136V164.896H444.911V163.136H452.079ZM457.999 172.32H455.951V165.824H457.999V172.32ZM462.031 176.16H444.847V174.304H464.175V182.976H462.031V176.16Z" fill="white"/>
</svg>
