<svg width="146" height="54" viewBox="0 0 146 54" fill="none" xmlns="http://www.w3.org/2000/svg">
<path d="M145 27C145 30.3337 143.177 33.6336 139.605 36.7568C136.035 39.8783 130.812 42.7349 124.272 45.154C111.199 49.9893 93.0715 53 73 53C52.9285 53 34.8013 49.9893 21.7281 45.154C15.1876 42.7349 9.96459 39.8783 6.39497 36.7568C2.8233 33.6336 1 30.3337 1 27C1 23.6663 2.8233 20.3664 6.39497 17.2432C9.96459 14.1217 15.1876 11.2651 21.7281 8.84602C34.8013 4.01073 52.9285 1 73 1C93.0715 1 111.199 4.01073 124.272 8.84602C130.812 11.2651 136.035 14.1217 139.605 17.2432C143.177 20.3664 145 23.6663 145 27Z" stroke="url(#paint0_linear_35_291)" stroke-width="2"/>
<path d="M25.7645 35.44H33.2785V37H24.1525V18.566H25.7645V26.626H32.6025V28.186H25.7645V35.44ZM33.1485 18.566V20.126H28.0525V18.566H33.1485ZM44.259 30.474L42.803 29.928L46.599 18.28L48.107 18.826L44.259 30.474ZM40.697 37.312L35.185 18.8L36.693 18.306L42.205 36.818L40.697 37.312ZM52.3739 35.44H59.8879V37H50.7619V18.566H52.3739V26.626H59.2119V28.186H52.3739V35.44ZM59.7579 18.566V20.126H54.6619V18.566H59.7579ZM75.2884 18.566H76.9004V37H75.1844L63.4064 19.19L64.7324 18.306L75.2884 34.296V18.566ZM63.5364 37V25.534H65.1484V37H63.5364ZM79.6725 20.126V18.566H89.7865V20.126H79.6725ZM83.9105 37V23.168H85.5225V37H83.9105ZM103.306 37.286C99.9776 37.286 97.9496 33.464 97.9496 27.77C97.9496 24.702 98.4956 22.206 99.6656 20.438L100.732 21.66C99.9256 23.22 99.5616 25.586 99.5616 27.77C99.5616 32.32 100.914 35.726 103.306 35.726C105.698 35.726 107.05 32.32 107.05 27.77C107.05 23.22 105.698 19.814 103.306 19.814C103.072 19.814 102.812 19.866 102.734 19.892L102.084 18.462C102.448 18.332 102.812 18.254 103.306 18.254C106.634 18.254 108.662 22.076 108.662 27.77C108.662 33.464 106.634 37.286 103.306 37.286ZM120.992 18.566V20.126H114.544V18.566H120.992ZM117.716 25.196C121.018 25.196 123.514 27.77 123.514 31.202C123.514 34.686 120.94 37.286 117.482 37.286C113.816 37.286 111.424 34.92 111.424 31.28H113.036C113.036 33.984 114.778 35.752 117.482 35.752C120.004 35.752 121.902 33.802 121.902 31.202C121.902 28.654 120.108 26.73 117.716 26.73C116.468 26.73 115.532 27.016 114.466 27.484V22.518H116.026V25.43C116.468 25.274 117.092 25.196 117.716 25.196Z" fill="white"/>
<defs>
<linearGradient id="paint0_linear_35_291" x1="46.569" y1="-6.45669e-07" x2="72.9048" y2="54.0464" gradientUnits="userSpaceOnUse">
<stop stop-color="#FEFEFE"/>
<stop offset="1" stop-color="white" stop-opacity="0"/>
</linearGradient>
</defs>
</svg>
