<svg width="242" height="33" viewBox="0 0 242 33" fill="none" xmlns="http://www.w3.org/2000/svg">
<path d="M20.768 19.09V16.768H15.746V14.581H20.768V12.205H16.745V10.018H20.768V7.75H23.441V19.09H20.768ZM15.611 10.666C15.611 16.309 10.319 18.685 2.46205 18.685V16.444C8.86105 16.417 12.938 14.824 12.938 11.098V10.558H2.46205V8.317H15.611V10.666ZM6.56605 28.405H24.008V30.511H3.92005V24.409H20.795V22.411H3.86605V20.305H23.441V26.407H6.56605V28.405ZM47.3337 7.75H49.8717V30.808H47.3337V7.75ZM41.3667 16.525V7.885H43.9047V30.403H41.3667V19.036H37.7217V16.525H41.3667ZM35.0757 11.017C35.0487 13.609 34.9137 15.931 34.6707 17.983L40.2867 27.865L38.0997 29.107L33.9957 21.655C32.8617 26.326 30.8367 28.918 27.8937 29.431V26.812C30.9447 25.975 32.4567 19.873 32.5107 11.017H28.2717V8.587H39.1257V11.017H35.0757ZM68.0748 7.696V11.395H72.7458V13.798H60.6768V11.395H65.4288V7.696H68.0748ZM80.9268 7.75H83.4108V30.808H80.9268V7.75ZM75.6888 15.364V7.885H78.1458V30.403H75.6888V23.734H72.9078V21.25H75.6888V17.848H72.9078V15.364H75.6888ZM66.7518 15.553C69.7488 15.553 71.9358 18.037 71.9358 22.627C71.9358 27.217 69.7488 29.701 66.7518 29.701C63.7278 29.701 61.5408 27.217 61.5408 22.627C61.5408 18.037 63.7278 15.553 66.7518 15.553ZM66.7518 27.352C68.3448 27.352 69.5058 25.651 69.5058 22.627C69.5058 19.603 68.3448 17.902 66.7518 17.902C65.1318 17.902 63.9708 19.603 63.9708 22.627C63.9708 25.651 65.1318 27.352 66.7518 27.352ZM106.844 7.75H109.382V22.492H106.844V15.715H103.091V22.249H100.553V7.885H103.091V13.258H106.844V7.75ZM98.8795 20.602C97.3675 21.196 94.9915 21.466 92.3455 21.466H87.9175V8.317H98.1235V10.558H90.4555V13.69H97.7995V15.877H90.4555V19.225H92.5615C95.1265 19.225 97.3405 18.955 98.8795 18.388V20.602ZM89.0245 26.029V23.761H109.382V30.808H106.736V26.029H89.0245ZM139.79 7.75H142.463V30.808H139.79V19.63H131.258V17.119H139.79V7.75ZM124.697 27.001H130.799C132.986 27.001 135.362 26.569 136.766 25.921V28.351C135.362 29.026 132.878 29.431 130.664 29.431H121.97V8.587H135.362V11.017H124.697V27.001ZM167.146 27.19H177.325V29.701H154.294V27.19H164.419V22.006H155.806V8.425H158.452V12.556H173.14V8.425H175.786V22.006H167.146V27.19ZM158.452 14.959V19.603H173.14V14.959H158.452ZM199.111 30.808V7.75H201.784V30.808H199.111ZM181.345 29.377V26.839C187.636 26.812 191.416 21.925 191.416 14.203V11.044H181.345V8.587H194.143V14.149C194.143 23.383 189.229 29.377 181.345 29.377Z" fill="white"/>
<path d="M238.743 18.468L229.806 27.378L228.618 26.163L236.34 18.468L228.618 10.746L229.833 9.558L238.743 18.468Z" fill="white"/>
</svg>
