<svg width="146" height="54" viewBox="0 0 146 54" fill="none" xmlns="http://www.w3.org/2000/svg">
<path d="M145 27C145 30.3337 143.177 33.6336 139.605 36.7568C136.035 39.8783 130.812 42.7349 124.272 45.154C111.199 49.9893 93.0715 53 73 53C52.9285 53 34.8013 49.9893 21.7281 45.154C15.1876 42.7349 9.96459 39.8783 6.39497 36.7568C2.8233 33.6336 1 30.3337 1 27C1 23.6663 2.8233 20.3664 6.39497 17.2432C9.96459 14.1217 15.1876 11.2651 21.7281 8.84602C34.8013 4.01073 52.9285 1 73 1C93.0715 1 111.199 4.01073 124.272 8.84602C130.812 11.2651 136.035 14.1217 139.605 17.2432C143.177 20.3664 145 23.6663 145 27Z" stroke="url(#paint0_linear_35_294)" stroke-width="2"/>
<path d="M25.0995 35.44H32.6135V37H23.4875V18.566H25.0995V26.626H31.9375V28.186H25.0995V35.44ZM32.4835 18.566V20.126H27.3875V18.566H32.4835ZM43.594 30.474L42.138 29.928L45.934 18.28L47.442 18.826L43.594 30.474ZM40.032 37.312L34.52 18.8L36.028 18.306L41.54 36.818L40.032 37.312ZM51.7088 35.44H59.2228V37H50.0968V18.566H51.7088V26.626H58.5468V28.186H51.7088V35.44ZM59.0928 18.566V20.126H53.9968V18.566H59.0928ZM74.6234 18.566H76.2354V37H74.5194L62.7414 19.19L64.0674 18.306L74.6234 34.296V18.566ZM62.8714 37V25.534H64.4834V37H62.8714ZM79.0074 20.126V18.566H89.1214V20.126H79.0074ZM83.2454 37V23.168H84.8574V37H83.2454ZM102.641 37.286C99.3126 37.286 97.2846 33.464 97.2846 27.77C97.2846 24.702 97.8306 22.206 99.0006 20.438L100.067 21.66C99.2606 23.22 98.8966 25.586 98.8966 27.77C98.8966 32.32 100.249 35.726 102.641 35.726C105.033 35.726 106.385 32.32 106.385 27.77C106.385 23.22 105.033 19.814 102.641 19.814C102.407 19.814 102.147 19.866 102.069 19.892L101.419 18.462C101.783 18.332 102.147 18.254 102.641 18.254C105.969 18.254 107.997 22.076 107.997 27.77C107.997 33.464 105.969 37.286 102.641 37.286ZM114.737 24.858L113.437 23.896L117.571 18.254L118.871 19.19L114.737 24.858ZM117.259 37.312C113.957 37.312 111.487 34.816 111.487 31.488C111.487 28.212 113.957 25.742 117.259 25.742C120.561 25.742 123.031 28.212 123.031 31.488C123.031 34.816 120.561 37.312 117.259 37.312ZM117.259 35.778C119.625 35.778 121.419 33.958 121.419 31.514C121.419 29.096 119.625 27.276 117.259 27.276C114.893 27.276 113.099 29.096 113.099 31.514C113.099 33.958 114.893 35.778 117.259 35.778Z" fill="white"/>
<defs>
<linearGradient id="paint0_linear_35_294" x1="46.569" y1="-6.45669e-07" x2="72.9048" y2="54.0464" gradientUnits="userSpaceOnUse">
<stop stop-color="#FEFEFE"/>
<stop offset="1" stop-color="white" stop-opacity="0"/>
</linearGradient>
</defs>
</svg>
