<svg width="478" height="120" viewBox="0 0 478 120" fill="none" xmlns="http://www.w3.org/2000/svg">
<path d="M67.5984 36.568H74.7104V39.928H66.4224L60.4304 56.56L57.2384 55.328L71.4624 15.68L74.7104 16.8L67.5984 36.568ZM86.3024 56.672L75.3824 25.76L78.5744 24.472L89.4944 55.384L86.3024 56.672ZM128.748 43.792L125.724 45.36L114.804 21.728L108.196 56.448L104.836 55.776L112.34 16.296H116.036L128.748 43.792ZM137.596 21.952L132.444 34.496L129.308 33.208L136.252 16.296H139.892L148.46 55.832L145.1 56.504L137.596 21.952ZM171.021 56.672C160.381 56.672 152.373 48.104 152.373 36.68C152.373 31.024 154.109 26.04 157.021 22.344L159.373 24.92C157.133 27.776 155.845 31.696 155.845 36.12C155.845 45.92 162.341 53.312 171.021 53.312C179.701 53.312 186.197 45.92 186.197 36.12C186.197 26.32 179.701 18.984 171.021 18.984C168.949 18.984 166.933 19.376 165.141 20.216L163.461 17.248C165.925 16.072 168.613 15.624 171.021 15.624C181.661 15.624 189.669 24.192 189.669 35.56C189.669 47.6 181.661 56.672 171.021 56.672ZM216.946 27.664C216.946 34.552 212.074 39.032 204.514 39.032H199.978V56H196.506V16.296H199.978V35.728H204.57C210.002 35.728 213.474 32.536 213.474 27.664C213.474 22.792 210.002 19.656 204.57 19.656H204.458V16.296H204.57C212.074 16.296 216.946 20.776 216.946 27.664ZM215.546 56.28L205.578 45.304L208.154 43.12L217.954 53.928L215.546 56.28ZM243.998 56H224.342V16.296H227.814V33.656H242.542V37.016H227.814V52.64H243.998V56ZM232.742 19.656V16.296H243.718V19.656H232.742ZM284.029 56H264.373V16.296H267.845V33.656H282.573V37.016H267.845V52.64H284.029V56ZM272.773 19.656V16.296H283.749V19.656H272.773ZM312.72 15.68L315.968 16.856L307.68 41.944L304.544 40.768L312.72 15.68ZM291.384 15.736L303.256 55.608L300.008 56.672L288.136 16.8L291.384 15.736ZM341.342 56H321.686V16.296H325.158V33.656H339.886V37.016H325.158V52.64H341.342V56ZM330.086 19.656V16.296H341.062V19.656H330.086ZM377.984 56H374.288L348.92 17.64L351.776 15.736L374.512 50.176V16.296H377.984V56ZM352.672 31.304V56H349.2V31.304H352.672ZM405.739 16.296V19.656H383.955V16.296H405.739ZM396.555 26.208V56H393.083V26.208H396.555ZM416.124 16.296V46.312H412.652V16.296H416.124ZM414.388 56.672C412.932 56.672 411.756 55.496 411.756 54.04C411.756 52.64 412.988 51.408 414.388 51.408C415.844 51.408 417.02 52.584 417.02 54.04C417.02 55.496 415.844 56.672 414.388 56.672Z" fill="white"/>
<path d="M26.33 89.488V116.304H24.186V89.488H26.33ZM19.002 89.808H21.114V104.88H19.002V101.84H14.682V100.048H19.002V89.808ZM13.082 92.976C9.914 93.04 6.202 93.136 3.898 92.208L4.25 90.576C7.13 91.632 10.234 91.28 13.082 91.28V92.976ZM15.514 98.384H1.498V96.56H15.514V98.384ZM8.954 101.2C12.538 101.2 15.098 103.248 15.066 106.64C15.034 109.936 12.698 112.016 8.954 112.016C5.146 112.016 2.81 109.776 2.81 106.64C2.81 105.168 3.29 103.92 4.186 102.992L5.626 104.336C5.114 104.944 4.826 105.776 4.826 106.64C4.826 108.752 6.298 110.224 8.954 110.224C11.578 110.224 13.114 108.752 13.114 106.64C13.114 104.624 11.578 102.992 8.954 102.992C8.154 102.992 7.482 103.12 6.906 103.376L5.466 102C6.426 101.488 7.578 101.2 8.954 101.2ZM21.114 115.856H19.002V107.984H16.218V106.16H21.114V115.856ZM47.7013 89.84H49.7493V96.88H53.9733V89.488H56.0213V106.32H53.9733V98.704H47.7013V89.84ZM33.3653 90.736H44.1493V92.592H33.3653V90.736ZM37.0133 103.216C40.8213 103.216 43.8293 103.12 46.4213 102.8V104.624C43.8293 104.944 40.8533 105.072 36.8533 105.072H33.3653V93.712H35.5413V103.216H37.0133ZM43.8293 97.136V98.896H36.6613V97.136H43.8293ZM49.7493 106.32H47.7013V99.824H49.7493V106.32ZM53.7813 110.16H36.5973V108.304H55.9253V116.976H53.7813V110.16ZM87.7413 89.488H89.8853V116.304H87.7413V89.488ZM76.0293 111.408C78.2053 105.328 79.0053 96.816 79.0053 93.232H67.4213V91.376H81.1173C81.1173 96.688 80.2213 105.648 78.1733 111.856L76.0293 111.408ZM95.3573 99.664V101.488H91.0053V99.664H95.3573ZM100.015 90.448H119.855V92.272H100.015V90.448ZM102.159 98.544H111.823C115.343 98.544 117.711 98.448 120.239 98.064L120.399 99.888C118.191 100.272 115.631 100.4 111.791 100.4H100.015V93.392H102.159V98.544ZM96.623 103.6H123.183V105.488H96.623V103.6ZM99.759 110.384V108.528H119.759V117.296H117.583V110.384H99.759ZM147.158 111.312V89.488H149.302V111.312H147.158ZM130.166 89.616C133.334 90.672 136.822 90.352 139.958 90.352V92.176C136.438 92.24 132.278 92.336 129.75 91.44L130.166 89.616ZM126.454 94.8H143.222V96.56H126.454V94.8ZM131.862 99.056C132.694 98.864 133.654 98.768 134.742 98.768C139.35 98.768 141.686 100.592 141.686 103.44C141.686 106.288 139.35 108.08 134.742 108.08C130.166 108.08 127.83 106.288 127.83 103.44C127.83 101.776 128.63 100.464 130.198 99.664L131.19 101.136C130.294 101.616 129.782 102.352 129.782 103.44C129.782 105.552 131.766 106.448 134.742 106.448C137.75 106.448 139.734 105.552 139.734 103.44C139.734 101.328 137.75 100.464 134.742 100.464C134.038 100.464 133.398 100.528 132.854 100.624L131.862 99.056ZM154.422 99.728V101.552H150.422V99.728H154.422ZM132.95 114.96H150.102V116.816H130.774V110.384H132.95V114.96ZM186.578 89.488V116.304H184.434V89.488H186.578ZM171.634 91.344C176.658 91.344 179.25 95.536 179.25 101.2C179.25 106.96 176.69 111.056 171.634 111.056C166.802 111.056 164.082 107.12 164.082 101.232C164.082 98.224 164.818 95.728 166.098 94L167.442 95.472C166.61 96.88 166.13 98.768 166.162 101.232C166.226 105.968 167.922 109.232 171.634 109.232C175.378 109.232 177.202 106.032 177.202 101.232C177.202 96.304 175.314 93.232 171.634 93.232C170.45 93.232 169.49 93.552 168.658 94.128L167.442 92.656C168.594 91.824 169.97 91.344 171.634 91.344ZM191.762 100.272V102.128H187.698V100.272H191.762ZM216.422 89.488V116.304H214.278V89.488H216.422ZM204.038 99.056H208.806V89.808H210.982V100.912H204.038V99.056ZM191.75 109.776C196.614 105.136 198.086 100.72 198.086 95.184V91.696H200.166V95.184C200.166 101.296 198.278 106.16 193.286 110.992L191.75 109.776ZM201.158 102.16C202.054 104.528 203.558 106.736 206.182 109.008L204.678 110.352C202.534 108.304 200.23 105.328 199.686 103.216L201.158 102.16ZM210.982 115.856H208.806V102.192H210.982V115.856ZM245.827 89.488V116.304H243.651V89.488H245.827ZM234.403 99.696H238.307V89.808H240.451V101.52H234.403V99.696ZM222.051 91.696H235.395V93.52H222.051V91.696ZM227.075 108.784C228.003 108.784 228.899 108.784 229.827 108.752C230.211 105.072 230.371 98.672 230.371 94.48H232.451C232.387 99.024 232.131 105.072 231.811 108.656C233.347 108.56 234.819 108.432 236.195 108.176L236.451 109.968C233.795 110.416 230.499 110.608 226.851 110.608H221.763V108.784H227.075ZM224.643 107.824C224.387 104.176 224.195 98.736 224.131 94.48H226.179C226.179 98.352 226.275 104.08 226.595 107.824H224.643ZM240.451 115.856H238.307V102.8H240.451V115.856ZM281.875 89.488V116.304H279.731V89.488H281.875ZM262.099 92.656C263.251 91.824 264.627 91.344 266.291 91.344C271.315 91.344 273.907 95.536 273.907 101.2C273.907 106.96 271.347 111.056 266.291 111.056C261.459 111.056 258.739 107.12 258.739 101.232C258.739 98.224 259.475 95.728 260.755 94L262.099 95.472C261.266 96.88 260.786 98.768 260.819 101.232C260.883 105.968 262.579 109.232 266.291 109.232C270.035 109.232 271.859 106.032 271.859 101.232C271.859 96.304 269.971 93.232 266.291 93.232C265.107 93.232 264.147 93.552 263.315 94.128L262.099 92.656ZM309.345 89.488H311.393V110.992H309.345V89.488ZM301.281 97.584H304.033V89.84H306.081V99.44H301.281V97.584ZM288.897 106.096V91.056H291.009V97.264H296.513V99.12H291.009V106.096H288.897ZM297.793 91.056H299.873V102.992H297.793V91.056ZM306.081 110.672H304.065V100.56H306.081V110.672ZM299.905 106.096H292.289V104.272H299.905V106.096ZM294.593 114.96H312.033V116.816H292.449V109.744H294.593V114.96ZM319.388 91.696H339.068V93.488H319.388V91.696ZM329.308 104.88C333.596 104.88 336.156 104.752 339.356 104.048L339.612 105.84C337.052 106.512 334.14 106.672 329.276 106.672H319.388V94.928H321.532V104.88H329.308ZM338.748 98.32V100.08H322.812V98.32H338.748ZM316.092 111.568H342.332V113.424H316.092V111.568ZM365.546 91.888H348.234V90.128H367.914V93.328H365.514L365.546 91.888ZM348.234 94.448H367.914V96.208H348.234V94.448ZM350.538 98.832H360.17C363.69 98.832 366.058 98.736 368.586 98.352L368.778 100.08C366.57 100.464 363.978 100.592 360.138 100.592H348.234V97.328H350.57L350.538 98.832ZM344.842 103.088H371.402V104.88H344.842V103.088ZM365.706 109.008H348.234V107.248H368.074V110.384H365.674L365.706 109.008ZM348.234 111.344H368.074V113.136H348.234V111.344ZM350.538 115.504H368.682V117.296H348.234V114.096H350.57L350.538 115.504ZM402.689 111.312V89.488H404.833V111.312H402.689ZM385.697 89.616C388.865 90.672 392.353 90.352 395.489 90.352V92.176C391.969 92.24 387.809 92.336 385.281 91.44L385.697 89.616ZM381.985 94.8H398.753V96.56H381.985V94.8ZM387.393 99.056C388.225 98.864 389.185 98.768 390.273 98.768C394.881 98.768 397.217 100.592 397.217 103.44C397.217 106.288 394.881 108.08 390.273 108.08C385.697 108.08 383.361 106.288 383.361 103.44C383.361 101.776 384.161 100.464 385.729 99.664L386.721 101.136C385.825 101.616 385.313 102.352 385.313 103.44C385.313 105.552 387.297 106.448 390.273 106.448C393.281 106.448 395.265 105.552 395.265 103.44C395.265 101.328 393.281 100.464 390.273 100.464C389.569 100.464 388.929 100.528 388.385 100.624L387.393 99.056ZM409.953 99.728V101.552H405.953V99.728H409.953ZM388.481 114.96H405.633V116.816H386.305V110.384H388.481V114.96ZM435.085 99.664C432.525 100.304 429.581 100.496 424.749 100.496H414.765V90.288H416.909V98.64H424.781C429.069 98.64 431.629 98.512 434.797 97.808L435.085 99.664ZM411.373 104.4H437.933V106.224H411.373V104.4ZM425.837 112.272H423.789V107.184H425.837V112.272ZM416.909 115.12H435.533V116.976H414.765V109.296H416.909V115.12ZM466.068 89.488V116.304H463.892V89.488H466.068ZM455.54 100.144H458.132V89.808H460.276V102H455.54V100.144ZM444.564 92.432C445.46 91.728 446.612 91.344 447.988 91.344C452.564 91.344 454.26 95.568 454.26 101.072C454.26 106.576 452.5 110.736 447.988 110.736C443.668 110.736 441.684 106.96 441.684 101.072C441.684 98.064 442.196 95.6 443.284 93.904L444.66 95.408C443.988 96.784 443.7 98.736 443.7 101.072C443.7 105.776 444.948 108.912 447.988 108.912C450.964 108.912 452.276 105.776 452.276 101.072C452.276 96.304 450.964 93.232 447.988 93.232C447.124 93.232 446.388 93.488 445.78 93.936L444.564 92.432ZM460.276 115.856H458.132V103.12H460.276V115.856ZM474.62 91.312V108.464H472.636V91.312H474.62ZM473.628 114.384C472.796 114.384 472.124 113.712 472.124 112.88C472.124 112.08 472.828 111.376 473.628 111.376C474.46 111.376 475.132 112.048 475.132 112.88C475.132 113.712 474.46 114.384 473.628 114.384Z" fill="white"/>
</svg>
