<svg width="210" height="324" viewBox="0 0 210 324" fill="none" xmlns="http://www.w3.org/2000/svg">
<g opacity="0.6">
<g opacity="0.7">
<path d="M69.7533 166.7C74.3783 166.725 77.7033 168.95 77.7033 172.4C77.7033 175.6 74.8283 177.725 70.7033 178.025V182.6H79.7533V184.2H59.9033V182.6H68.8033V178.025C64.7283 177.725 61.8283 175.6 61.8533 172.4C61.8283 168.95 65.1783 166.725 69.7533 166.7ZM63.7033 172.4C63.6783 174.875 66.2533 176.5 69.7533 176.5C73.2783 176.5 75.8533 174.875 75.8533 172.4C75.8533 169.925 73.2783 168.275 69.7533 168.3C66.2533 168.275 63.6783 169.925 63.7033 172.4Z" fill="#502B20"/>
<path d="M99.4598 165.3V181.2H97.5598V172.9H93.1098V171.3H97.5598V165.3H99.4598ZM81.5598 176.85C84.7848 175.75 87.1098 172.875 87.1098 169.75V168.65H82.2098V167.05H93.9098V168.65H89.0598V169.75C89.0348 172.575 91.2098 175.3 94.4098 176.4L93.4098 177.9C90.9348 177.025 89.0348 175.225 88.1098 173C87.1598 175.5 85.1348 177.475 82.5598 178.45L81.5598 176.85ZM85.5598 186.5V179.8H87.4598V184.9H100.11V186.5H85.5598Z" fill="#502B20"/>
<path d="M116.366 167.3V185H114.166V169.6H114.066L109.766 172.45V170.25L114.166 167.3H116.366Z" fill="#502B20"/>
<path d="M127.328 167.3V185H125.128V169.6H125.028L120.728 172.45V170.25L125.128 167.3H127.328Z" fill="#502B20"/>
<path d="M138.99 171.1C138.965 175.075 141.665 179.05 144.84 180.5L143.69 182.05C141.215 180.825 139.065 178.25 138.04 175.125C137.04 178.425 134.89 181.175 132.34 182.45L131.14 180.85C134.39 179.375 137.065 175.225 137.09 171.1V167.15H138.99V171.1ZM147.24 187V165.3H149.14V187H147.24Z" fill="#502B20"/>
</g>
<path d="M94.3982 216.243H98.3352V218.103H93.7472L90.4302 227.31L88.6632 226.628L96.5372 204.68L98.3352 205.3L94.3982 216.243ZM104.752 227.372L98.7072 210.26L100.474 209.547L106.519 226.659L104.752 227.372Z" fill="#472317"/>
<path d="M111.462 205.021V227H109.54V205.021H111.462ZM113.973 215.809C116.98 215.809 118.933 214.042 118.933 211.345C118.933 208.648 117.011 206.881 114.004 206.881H113.849V205.021H114.004C118.158 205.021 120.855 207.501 120.855 211.345C120.855 215.189 118.158 217.669 113.973 217.669H113.88V215.809H113.973Z" fill="#472317"/>
<path d="M88.1982 230.1H121.816V231.65H88.1982V230.1Z" fill="#472317"/>
<path fill-rule="evenodd" clip-rule="evenodd" d="M98.4351 216.143V218.203H93.8174L90.4896 227.44L88.536 226.686L96.4764 204.553L98.4635 205.238L94.5404 216.143H98.4351ZM104.693 227.504L98.581 210.203L100.534 209.415L106.645 226.716L104.693 227.504ZM111.562 204.921V227.1H109.44V204.921H111.562ZM113.749 206.981V204.921H114.004C116.101 204.921 117.839 205.547 119.055 206.668C120.271 207.79 120.955 209.398 120.955 211.345C120.955 213.291 120.271 214.9 119.051 216.022C117.831 217.143 116.085 217.769 113.973 217.769H113.78V215.709H113.973C115.457 215.709 116.672 215.273 117.514 214.514C118.355 213.756 118.833 212.668 118.833 211.345C118.833 210.021 118.362 208.933 117.529 208.176C116.695 207.417 115.488 206.981 114.004 206.981H113.749ZM88.0981 230H121.916V231.75H88.0981V230ZM98.3351 216.243H94.3981L98.3351 205.3L96.5371 204.68L88.6631 226.628L90.4301 227.31L93.7471 218.103H98.3351V216.243ZM98.7071 210.26L104.752 227.372L106.519 226.659L100.474 209.547L98.7071 210.26ZM111.462 227V205.021H109.54V227H111.462ZM118.933 211.345C118.933 214.042 116.98 215.809 113.973 215.809H113.88V217.669H113.973C118.158 217.669 120.855 215.189 120.855 211.345C120.855 207.501 118.158 205.021 114.004 205.021H113.849V206.881H114.004C117.011 206.881 118.933 208.648 118.933 211.345ZM121.816 230.1H88.1981V231.65H121.816V230.1Z" fill="#472317"/>
<g opacity="0.7">
<path d="M58.9795 252.576V257.496H61.7725V259.172H58.9795V264.178H56.9385V252.576H58.9795ZM44.6064 262.953V253.779H46.6045V256.658H51.6533V253.779H53.6729V262.953H44.6064ZM46.2607 266.799V265.145H58.9795V271.826H56.9385V266.799H46.2607ZM46.6045 261.32H51.6533V258.27H46.6045V261.32Z" fill="#502B20"/>
<path d="M80.4639 262.309V263.963H72.8154V267.701H70.7959V263.963H62.8467V262.309H80.4639ZM65.0381 271.418V265.875H67.0791V269.764H78.5088V271.418H65.0381ZM65.1025 260.311V253.479H78.1865V260.311H65.1025ZM67.1006 258.699H76.167V255.09H67.1006V258.699Z" fill="#502B20"/>
<path d="M87.21 253.693C88.8105 253.683 90.1748 254.284 91.0771 255.283H95.8896V252.576H97.9307V263.941H95.8896V261.342H91.0664C90.1641 262.33 88.7998 262.921 87.21 262.91C84.3096 262.921 82.1504 260.998 82.1611 258.312C82.1504 255.595 84.3096 253.683 87.21 253.693ZM84.1162 258.312C84.1055 259.999 85.4053 261.191 87.21 261.17C88.9609 261.191 90.2607 259.999 90.2607 258.312C90.2607 256.583 88.9609 255.434 87.21 255.455C85.4053 255.434 84.1055 256.583 84.1162 258.312ZM84.9756 268.088C84.9648 265.735 87.457 264.36 91.4854 264.371C95.4922 264.36 97.9844 265.735 97.9951 268.088C97.9844 270.43 95.4922 271.794 91.4854 271.783C87.457 271.794 84.9648 270.43 84.9756 268.088ZM86.9736 268.088C86.9629 269.409 88.6602 270.183 91.4854 270.172C94.3105 270.183 95.9971 269.409 95.9971 268.088C95.9971 266.713 94.3105 265.95 91.4854 265.939C88.6602 265.95 86.9629 266.713 86.9736 268.088ZM92.0117 256.916C92.1406 257.346 92.2158 257.818 92.2158 258.312C92.2158 258.785 92.1406 259.247 92.0117 259.666H95.8896V256.916H92.0117Z" fill="#502B20"/>
<path d="M107.513 253.715L102.507 272.342H100.466L105.472 253.715H107.513Z" fill="#502B20"/>
<path d="M118.706 253.779C118.695 258.71 115.215 262.18 109.511 263.684L108.694 262.072C113.324 260.869 116.139 258.452 116.515 255.412H109.769V253.779H118.706ZM111.874 271.568V264.285H124.485V271.568H111.874ZM113.894 269.936H122.487V265.918H113.894V269.936ZM122.444 263.426V252.598H124.485V263.426H122.444Z" fill="#502B20"/>
<path d="M134.669 256.594C134.669 259.086 136.506 261.428 139.481 262.373L138.429 263.963C136.216 263.232 134.551 261.718 133.67 259.795C132.811 261.89 131.092 263.544 128.804 264.35L127.751 262.738C130.748 261.718 132.596 259.226 132.606 256.594V255.756H128.288V254.102H138.901V255.756H134.669V256.594ZM130.909 271.418V265.316H132.972V269.764H144.079V271.418H130.909ZM141.458 266.648V252.598H143.499V266.648H141.458Z" fill="#502B20"/>
<path d="M151.878 253.693C153.479 253.683 154.843 254.284 155.745 255.283H160.558V252.576H162.599V263.941H160.558V261.342H155.734C154.832 262.33 153.468 262.921 151.878 262.91C148.978 262.921 146.818 260.998 146.829 258.312C146.818 255.595 148.978 253.683 151.878 253.693ZM148.784 258.312C148.773 259.999 150.073 261.191 151.878 261.17C153.629 261.191 154.929 259.999 154.929 258.312C154.929 256.583 153.629 255.434 151.878 255.455C150.073 255.434 148.773 256.583 148.784 258.312ZM149.644 268.088C149.633 265.735 152.125 264.36 156.153 264.371C160.16 264.36 162.652 265.735 162.663 268.088C162.652 270.43 160.16 271.794 156.153 271.783C152.125 271.794 149.633 270.43 149.644 268.088ZM151.642 268.088C151.631 269.409 153.328 270.183 156.153 270.172C158.979 270.183 160.665 269.409 160.665 268.088C160.665 266.713 158.979 265.95 156.153 265.939C153.328 265.95 151.631 266.713 151.642 268.088ZM156.68 256.916C156.809 257.346 156.884 257.818 156.884 258.312C156.884 258.785 156.809 259.247 156.68 259.666H160.558V256.916H156.68Z" fill="#502B20"/>
</g>
</g>
<g opacity="0.9">
<path d="M89.4675 34.4751C89.9425 32.0001 90.0925 29.7001 90.0925 28.0251H75.9425V26.6001H91.7925C91.8425 29.0001 91.6425 31.7251 91.1425 34.4751H89.4675ZM94.1675 36.8501H73.4175V35.3501H94.1675V36.8501ZM76.0675 47.5751V39.8251H77.7175V47.5751H76.0675ZM89.8675 41.2751H78.7175V39.8251H91.5675V45.2501H89.8675V41.2751ZM91.5675 47.5751H78.7175V46.1251H91.5675V47.5751Z" fill="#533A3A"/>
<path d="M102.048 29.3501C100.748 30.0751 100.023 31.2001 100.023 32.7001C100.023 35.4001 102.648 36.8001 106.373 36.8001C110.073 36.8001 112.698 35.4001 112.698 32.7001C112.698 30.0001 110.273 28.4501 106.373 28.4501C105.273 28.4501 104.273 28.5751 103.423 28.8001L102.598 27.4751C103.673 27.1751 104.923 27.0001 106.373 27.0001C111.698 27.0001 114.373 29.3501 114.373 32.7001C114.373 36.6751 110.623 38.2251 106.373 38.2251C101.998 38.2251 98.3726 36.6501 98.3726 32.7001C98.3726 30.7001 99.2976 29.0501 101.173 28.0501L102.048 29.3501ZM96.1226 43.1001H101.248V39.1001H102.948V43.1001H109.823V39.1001H111.498V43.1001H116.623V44.5501H96.1226V43.1001Z" fill="#533A3A"/>
<path d="M136.183 25.8501H137.883V37.2751H136.183V25.8501ZM121.708 29.4501C121.358 30.0001 121.133 30.7001 121.133 31.5251C121.133 33.8001 122.733 35.1001 125.108 35.1001C127.508 35.1001 129.158 33.8001 129.158 31.5251C129.158 29.2501 127.483 27.9501 125.108 27.9501C124.158 27.9501 123.333 28.1501 122.683 28.5501L121.708 27.3751C122.633 26.8001 123.758 26.5001 125.108 26.5001C128.408 26.5001 130.708 28.3001 130.708 31.5251C130.708 34.8001 128.308 36.5751 125.108 36.5751C121.808 36.5751 119.558 34.6251 119.558 31.5251C119.558 30.2251 119.958 29.1251 120.633 28.3001L121.708 29.4501ZM136.083 40.1001H122.933V38.6251H137.883V41.4251H136.083V40.1001ZM122.933 42.3001H137.883V43.7501H122.933V42.3001ZM124.708 46.1001H138.608V47.5751H122.933V44.6251H124.708V46.1001Z" fill="#533A3A"/>
</g>
<g opacity="0.9">
<path d="M98.746 62.1159L100.186 63.6999L90.466 72.2319L89.062 70.6119L98.746 62.1159ZM99.898 69.2799V87.9999H97.666V69.2799H99.898Z" fill="#533A3A"/>
<path d="M114.864 62.0439L116.664 63.3399L110.94 71.1879L109.14 69.8559L114.864 62.0439ZM114.432 88.4319C109.86 88.4319 106.44 84.9759 106.44 80.3679C106.44 75.8319 109.86 72.4119 114.432 72.4119C119.004 72.4119 122.424 75.8319 122.424 80.3679C122.424 84.9759 119.004 88.4319 114.432 88.4319ZM114.432 86.3079C117.708 86.3079 120.192 83.7879 120.192 80.4039C120.192 77.0559 117.708 74.5359 114.432 74.5359C111.156 74.5359 108.672 77.0559 108.672 80.4039C108.672 83.7879 111.156 86.3079 114.432 86.3079Z" fill="#533A3A"/>
</g>
<path d="M1 1V323" stroke="#3D0E0E"/>
<path d="M209 1V323" stroke="#3D0E0E"/>
<path d="M1 1L209 1.00002" stroke="#3D0E0E"/>
<path d="M1 100H209" stroke="#3D0E0E"/>
<path d="M1 323H209" stroke="#3D0E0E"/>
</svg>
