<svg width="210" height="324" viewBox="0 0 210 324" fill="none" xmlns="http://www.w3.org/2000/svg">
<path d="M1 1V323" stroke="#3D0E0E"/>
<path d="M209 1V323" stroke="#3D0E0E"/>
<path d="M1 100H209" stroke="#3D0E0E"/>
<path d="M1 1H209" stroke="#3D0E0E"/>
<path d="M1 323H209" stroke="#3D0E0E"/>
<path d="M86.4675 28.4751C86.9425 26.0001 87.0925 23.7001 87.0925 22.0251H72.9425V20.6001H88.7925C88.8425 23.0001 88.6425 25.7251 88.1425 28.4751H86.4675ZM91.1675 30.8501H70.4175V29.3501H91.1675V30.8501ZM73.0675 41.5751V33.8251H74.7175V41.5751H73.0675ZM86.8675 35.2751H75.7175V33.8251H88.5675V39.2501H86.8675V35.2751ZM88.5675 41.5751H75.7175V40.1251H88.5675V41.5751Z" fill="#3D0E0E"/>
<path d="M99.0476 23.3501C97.7476 24.0751 97.0226 25.2001 97.0226 26.7001C97.0226 29.4001 99.6476 30.8001 103.373 30.8001C107.073 30.8001 109.698 29.4001 109.698 26.7001C109.698 24.0001 107.273 22.4501 103.373 22.4501C102.273 22.4501 101.273 22.5751 100.423 22.8001L99.5976 21.4751C100.673 21.1751 101.923 21.0001 103.373 21.0001C108.698 21.0001 111.373 23.3501 111.373 26.7001C111.373 30.6751 107.623 32.2251 103.373 32.2251C98.9976 32.2251 95.3726 30.6501 95.3726 26.7001C95.3726 24.7001 96.2976 23.0501 98.1726 22.0501L99.0476 23.3501ZM93.1226 37.1001H98.2476V33.1001H99.9476V37.1001H106.823V33.1001H108.498V37.1001H113.623V38.5501H93.1226V37.1001Z" fill="#3D0E0E"/>
<path d="M133.183 19.8501H134.883V31.2751H133.183V19.8501ZM118.708 23.4501C118.358 24.0001 118.133 24.7001 118.133 25.5251C118.133 27.8001 119.733 29.1001 122.108 29.1001C124.508 29.1001 126.158 27.8001 126.158 25.5251C126.158 23.2501 124.483 21.9501 122.108 21.9501C121.158 21.9501 120.333 22.1501 119.683 22.5501L118.708 21.3751C119.633 20.8001 120.758 20.5001 122.108 20.5001C125.408 20.5001 127.708 22.3001 127.708 25.5251C127.708 28.8001 125.308 30.5751 122.108 30.5751C118.808 30.5751 116.558 28.6251 116.558 25.5251C116.558 24.2251 116.958 23.1251 117.633 22.3001L118.708 23.4501ZM133.083 34.1001H119.933V32.6251H134.883V35.4251H133.083V34.1001ZM119.933 36.3001H134.883V37.7501H119.933V36.3001ZM121.708 40.1001H135.608V41.5751H119.933V38.6251H121.708V40.1001Z" fill="#3D0E0E"/>
<path d="M95.746 56.1159L97.186 57.6999L87.466 66.2319L86.062 64.6119L95.746 56.1159ZM96.898 63.2799V81.9999H94.666V63.2799H96.898Z" fill="#3D0E0E"/>
<path d="M111.864 56.0439L113.664 57.3399L107.94 65.1879L106.14 63.8559L111.864 56.0439ZM111.432 82.4319C106.86 82.4319 103.44 78.9759 103.44 74.3679C103.44 69.8319 106.86 66.4119 111.432 66.4119C116.004 66.4119 119.424 69.8319 119.424 74.3679C119.424 78.9759 116.004 82.4319 111.432 82.4319ZM111.432 80.3079C114.708 80.3079 117.192 77.7879 117.192 74.4039C117.192 71.0559 114.708 68.5359 111.432 68.5359C108.156 68.5359 105.672 71.0559 105.672 74.4039C105.672 77.7879 108.156 80.3079 111.432 80.3079Z" fill="#3D0E0E"/>
<g opacity="0.85">
<path d="M68.2578 160.689C72.8721 160.714 76.1924 162.96 76.1924 166.378C76.1924 169.613 73.3115 171.749 69.1855 172.03V176.583H78.2432V178.194H58.3701V176.583H67.3057V172.03C63.2041 171.737 60.3232 169.601 60.3232 166.378C60.3232 162.96 63.6558 160.714 68.2578 160.689ZM62.1787 166.378C62.1665 168.88 64.7422 170.504 68.2578 170.528C71.7734 170.504 74.3369 168.88 74.3369 166.378C74.3369 163.924 71.7734 162.264 68.2578 162.276C64.7422 162.264 62.1665 163.924 62.1787 166.378Z" fill="#3E2050"/>
<path d="M97.9697 159.298V175.216H96.041V166.891H91.5732V165.304H96.041V159.298H97.9697ZM80.0742 170.87C83.2725 169.747 85.5918 166.878 85.5918 163.766V162.643H80.6846V161.056H92.3789V162.643H87.5205V163.766C87.5205 166.573 89.6934 169.295 92.8672 170.382L91.8662 171.92C89.4248 171.029 87.5327 169.21 86.5928 166.964C85.6528 169.479 83.6509 171.468 81.0752 172.433L80.0742 170.87ZM84.0293 180.514V173.775H85.958V178.902H98.5801V180.514H84.0293Z" fill="#3E2050"/>
<path d="M114.889 161.324V179H112.667V163.619H112.569L108.272 166.476V164.254L112.667 161.324H114.889Z" fill="#3E2050"/>
<path d="M125.851 161.324V179H123.629V163.619H123.531L119.234 166.476V164.254L123.629 161.324H125.851Z" fill="#3E2050"/>
<path d="M137.496 165.108C137.484 169.076 140.182 173.055 143.38 174.508L142.208 176.021C139.73 174.825 137.594 172.25 136.556 169.161C135.555 172.433 133.419 175.179 130.88 176.461L129.659 174.85C132.894 173.373 135.567 169.222 135.592 165.108V161.153H137.496V165.108ZM145.748 181.026V159.273H147.677V181.026H145.748Z" fill="#3E2050"/>
</g>
<path d="M93.3982 210.243H97.3352V212.103H92.7472L89.4302 221.31L87.6632 220.628L95.5372 198.68L97.3352 199.3L93.3982 210.243ZM103.752 221.372L97.7072 204.26L99.4742 203.547L105.519 220.659L103.752 221.372Z" fill="#260D32"/>
<path d="M110.462 199.021V221H108.54V199.021H110.462ZM112.973 209.809C115.98 209.809 117.933 208.042 117.933 205.345C117.933 202.648 116.011 200.881 113.004 200.881H112.849V199.021H113.004C117.158 199.021 119.855 201.501 119.855 205.345C119.855 209.189 117.158 211.669 112.973 211.669H112.88V209.809H112.973Z" fill="#260D32"/>
<path d="M87.1982 224.1H120.816V225.65H87.1982V224.1Z" fill="#260D32"/>
<path fill-rule="evenodd" clip-rule="evenodd" d="M97.4351 210.143V212.203H92.8174L89.4896 221.44L87.536 220.686L95.4764 198.553L97.4635 199.238L93.5404 210.143H97.4351ZM103.693 221.504L97.581 204.203L99.5336 203.415L105.645 220.716L103.693 221.504ZM110.562 198.921V221.1H108.44V198.921H110.562ZM112.749 200.981V198.921H113.004C115.101 198.921 116.839 199.547 118.055 200.668C119.271 201.79 119.955 203.398 119.955 205.345C119.955 207.291 119.271 208.9 118.051 210.022C116.831 211.143 115.085 211.769 112.973 211.769H112.78V209.709H112.973C114.457 209.709 115.672 209.273 116.514 208.514C117.355 207.756 117.833 206.668 117.833 205.345C117.833 204.021 117.362 202.933 116.529 202.176C115.695 201.417 114.488 200.981 113.004 200.981H112.749ZM87.0981 224H120.916V225.75H87.0981V224ZM97.3351 210.243H93.3981L97.3351 199.3L95.5371 198.68L87.6631 220.628L89.4301 221.31L92.7471 212.103H97.3351V210.243ZM97.7071 204.26L103.752 221.372L105.519 220.659L99.4741 203.547L97.7071 204.26ZM110.462 221V199.021H108.54V221H110.462ZM117.933 205.345C117.933 208.042 115.98 209.809 112.973 209.809H112.88V211.669H112.973C117.158 211.669 119.855 209.189 119.855 205.345C119.855 201.501 117.158 199.021 113.004 199.021H112.849V200.881H113.004C116.011 200.881 117.933 202.648 117.933 205.345ZM120.816 224.1H87.1981V225.65H120.816V224.1Z" fill="#240D32"/>
<g opacity="0.85">
<path d="M57.9795 246.576V251.496H60.7725V253.172H57.9795V258.178H55.9385V246.576H57.9795ZM43.6064 256.953V247.779H45.6045V250.658H50.6533V247.779H52.6729V256.953H43.6064ZM45.2607 260.799V259.145H57.9795V265.826H55.9385V260.799H45.2607ZM45.6045 255.32H50.6533V252.27H45.6045V255.32Z" fill="#3E2050"/>
<path d="M79.4639 256.309V257.963H71.8154V261.701H69.7959V257.963H61.8467V256.309H79.4639ZM64.0381 265.418V259.875H66.0791V263.764H77.5088V265.418H64.0381ZM64.1025 254.311V247.479H77.1865V254.311H64.1025ZM66.1006 252.699H75.167V249.09H66.1006V252.699Z" fill="#3E2050"/>
<path d="M86.21 247.693C87.8105 247.683 89.1748 248.284 90.0771 249.283H94.8896V246.576H96.9307V257.941H94.8896V255.342H90.0664C89.1641 256.33 87.7998 256.921 86.21 256.91C83.3096 256.921 81.1504 254.998 81.1611 252.312C81.1504 249.595 83.3096 247.683 86.21 247.693ZM83.1162 252.312C83.1055 253.999 84.4053 255.191 86.21 255.17C87.9609 255.191 89.2607 253.999 89.2607 252.312C89.2607 250.583 87.9609 249.434 86.21 249.455C84.4053 249.434 83.1055 250.583 83.1162 252.312ZM83.9756 262.088C83.9648 259.735 86.457 258.36 90.4854 258.371C94.4922 258.36 96.9844 259.735 96.9951 262.088C96.9844 264.43 94.4922 265.794 90.4854 265.783C86.457 265.794 83.9648 264.43 83.9756 262.088ZM85.9736 262.088C85.9629 263.409 87.6602 264.183 90.4854 264.172C93.3105 264.183 94.9971 263.409 94.9971 262.088C94.9971 260.713 93.3105 259.95 90.4854 259.939C87.6602 259.95 85.9629 260.713 85.9736 262.088ZM91.0117 250.916C91.1406 251.346 91.2158 251.818 91.2158 252.312C91.2158 252.785 91.1406 253.247 91.0117 253.666H94.8896V250.916H91.0117Z" fill="#3E2050"/>
<path d="M106.513 247.715L101.507 266.342H99.4658L104.472 247.715H106.513Z" fill="#3E2050"/>
<path d="M117.706 247.779C117.695 252.71 114.215 256.18 108.511 257.684L107.694 256.072C112.324 254.869 115.139 252.452 115.515 249.412H108.769V247.779H117.706ZM110.874 265.568V258.285H123.485V265.568H110.874ZM112.894 263.936H121.487V259.918H112.894V263.936ZM121.444 257.426V246.598H123.485V257.426H121.444Z" fill="#3E2050"/>
<path d="M133.669 250.594C133.669 253.086 135.506 255.428 138.481 256.373L137.429 257.963C135.216 257.232 133.551 255.718 132.67 253.795C131.811 255.89 130.092 257.544 127.804 258.35L126.751 256.738C129.748 255.718 131.596 253.226 131.606 250.594V249.756H127.288V248.102H137.901V249.756H133.669V250.594ZM129.909 265.418V259.316H131.972V263.764H143.079V265.418H129.909ZM140.458 260.648V246.598H142.499V260.648H140.458Z" fill="#3E2050"/>
<path d="M150.878 247.693C152.479 247.683 153.843 248.284 154.745 249.283H159.558V246.576H161.599V257.941H159.558V255.342H154.734C153.832 256.33 152.468 256.921 150.878 256.91C147.978 256.921 145.818 254.998 145.829 252.312C145.818 249.595 147.978 247.683 150.878 247.693ZM147.784 252.312C147.773 253.999 149.073 255.191 150.878 255.17C152.629 255.191 153.929 253.999 153.929 252.312C153.929 250.583 152.629 249.434 150.878 249.455C149.073 249.434 147.773 250.583 147.784 252.312ZM148.644 262.088C148.633 259.735 151.125 258.36 155.153 258.371C159.16 258.36 161.652 259.735 161.663 262.088C161.652 264.43 159.16 265.794 155.153 265.783C151.125 265.794 148.633 264.43 148.644 262.088ZM150.642 262.088C150.631 263.409 152.328 264.183 155.153 264.172C157.979 264.183 159.665 263.409 159.665 262.088C159.665 260.713 157.979 259.95 155.153 259.939C152.328 259.95 150.631 260.713 150.642 262.088ZM155.68 250.916C155.809 251.346 155.884 251.818 155.884 252.312C155.884 252.785 155.809 253.247 155.68 253.666H159.558V250.916H155.68Z" fill="#3E2050"/>
</g>
</svg>
