<svg width="209" height="322" viewBox="0 0 209 322" fill="none" xmlns="http://www.w3.org/2000/svg">
<path d="M208 0V322" stroke="#3D0E0E"/>
<rect x="0.5" y="0.5" width="207" height="321" stroke="#3D0E0E"/>
<path d="M0 99H208" stroke="#3D0E0E"/>
<path d="M85.4675 27.4751C85.9425 25.0001 86.0925 22.7001 86.0925 21.0251H71.9425V19.6001H87.7925C87.8425 22.0001 87.6425 24.7251 87.1425 27.4751H85.4675ZM90.1675 29.8501H69.4175V28.3501H90.1675V29.8501ZM72.0675 40.5751V32.8251H73.7175V40.5751H72.0675ZM85.8675 34.2751H74.7175V32.8251H87.5675V38.2501H85.8675V34.2751ZM87.5675 40.5751H74.7175V39.1251H87.5675V40.5751Z" fill="#3D0E0E"/>
<path d="M98.0476 22.3501C96.7476 23.0751 96.0226 24.2001 96.0226 25.7001C96.0226 28.4001 98.6476 29.8001 102.373 29.8001C106.073 29.8001 108.698 28.4001 108.698 25.7001C108.698 23.0001 106.273 21.4501 102.373 21.4501C101.273 21.4501 100.273 21.5751 99.4226 21.8001L98.5976 20.4751C99.6726 20.1751 100.923 20.0001 102.373 20.0001C107.698 20.0001 110.373 22.3501 110.373 25.7001C110.373 29.6751 106.623 31.2251 102.373 31.2251C97.9976 31.2251 94.3726 29.6501 94.3726 25.7001C94.3726 23.7001 95.2976 22.0501 97.1726 21.0501L98.0476 22.3501ZM92.1226 36.1001H97.2476V32.1001H98.9476V36.1001H105.823V32.1001H107.498V36.1001H112.623V37.5501H92.1226V36.1001Z" fill="#3D0E0E"/>
<path d="M132.183 18.8501H133.883V30.2751H132.183V18.8501ZM117.708 22.4501C117.358 23.0001 117.133 23.7001 117.133 24.5251C117.133 26.8001 118.733 28.1001 121.108 28.1001C123.508 28.1001 125.158 26.8001 125.158 24.5251C125.158 22.2501 123.483 20.9501 121.108 20.9501C120.158 20.9501 119.333 21.1501 118.683 21.5501L117.708 20.3751C118.633 19.8001 119.758 19.5001 121.108 19.5001C124.408 19.5001 126.708 21.3001 126.708 24.5251C126.708 27.8001 124.308 29.5751 121.108 29.5751C117.808 29.5751 115.558 27.6251 115.558 24.5251C115.558 23.2251 115.958 22.1251 116.633 21.3001L117.708 22.4501ZM132.083 33.1001H118.933V31.6251H133.883V34.4251H132.083V33.1001ZM118.933 35.3001H133.883V36.7501H118.933V35.3001ZM120.708 39.1001H134.608V40.5751H118.933V37.6251H120.708V39.1001Z" fill="#3D0E0E"/>
<path d="M95.1196 65.1239C96.0556 63.9359 96.6676 62.9279 96.6676 61.6319C96.6676 59.1119 94.7236 57.2039 92.1676 57.2039C89.6116 57.2039 87.7036 59.0399 87.7036 61.4879C87.7036 63.1439 88.4956 64.2959 89.5756 65.2679L88.0636 66.7799C86.5156 65.6279 85.4716 63.7199 85.4716 61.4879C85.4716 57.8159 88.3516 55.0439 92.1676 55.0439C96.0196 55.0439 98.8996 57.8519 98.8996 61.6319C98.8996 62.9999 98.3236 64.7279 96.9556 66.4199L89.7196 75.5639L87.9556 74.1959L95.1196 65.1239ZM99.8716 78.8399V80.9999H85.0396V78.8399H99.8716Z" fill="#3D0E0E"/>
<path d="M105.873 57.5999V55.4759H118.329V57.5999H105.873ZM112.857 64.7279C117.393 65.0879 120.705 68.3639 120.705 72.6839C120.705 77.6519 117.033 81.3599 112.137 81.3599C107.061 81.3599 103.785 77.7959 103.785 72.2519H106.017C106.017 76.4999 108.429 79.2359 112.137 79.2359C115.773 79.2359 118.473 76.4279 118.473 72.6839C118.473 69.3359 115.701 66.8159 112.029 66.8159C111.129 66.8159 110.409 66.9959 109.509 67.2839V65.2319L113.685 60.3719L115.341 61.8119L112.857 64.7279Z" fill="#3D0E0E"/>
<g opacity="0.85">
<path d="M69.2578 159.689C73.8721 159.714 77.1924 161.96 77.1924 165.378C77.1924 168.613 74.3115 170.749 70.1855 171.03V175.583H79.2432V177.194H59.3701V175.583H68.3057V171.03C64.2041 170.737 61.3232 168.601 61.3232 165.378C61.3232 161.96 64.6558 159.714 69.2578 159.689ZM63.1787 165.378C63.1665 167.88 65.7422 169.504 69.2578 169.528C72.7734 169.504 75.3369 167.88 75.3369 165.378C75.3369 162.924 72.7734 161.264 69.2578 161.276C65.7422 161.264 63.1665 162.924 63.1787 165.378Z" fill="#3E2050"/>
<path d="M98.9697 158.298V174.216H97.041V165.891H92.5732V164.304H97.041V158.298H98.9697ZM81.0742 169.87C84.2725 168.747 86.5918 165.878 86.5918 162.766V161.643H81.6846V160.056H93.3789V161.643H88.5205V162.766C88.5205 165.573 90.6934 168.295 93.8672 169.382L92.8662 170.92C90.4248 170.029 88.5327 168.21 87.5928 165.964C86.6528 168.479 84.6509 170.468 82.0752 171.433L81.0742 169.87ZM85.0293 179.514V172.775H86.958V177.902H99.5801V179.514H85.0293Z" fill="#3E2050"/>
<path d="M115.889 160.324V178H113.667V162.619H113.569L109.272 165.476V163.254L113.667 160.324H115.889Z" fill="#3E2050"/>
<path d="M126.851 160.324V178H124.629V162.619H124.531L120.234 165.476V163.254L124.629 160.324H126.851Z" fill="#3E2050"/>
<path d="M138.496 164.108C138.484 168.076 141.182 172.055 144.38 173.508L143.208 175.021C140.73 173.825 138.594 171.25 137.556 168.161C136.555 171.433 134.419 174.179 131.88 175.461L130.659 173.85C133.894 172.373 136.567 168.222 136.592 164.108V160.153H138.496V164.108ZM146.748 180.026V158.273H148.677V180.026H146.748Z" fill="#3E2050"/>
</g>
<path d="M39.8999 196.254V222.232H37.7919V196.254H39.8999ZM29.3599 206.143H32.2119V196.564H34.2889V207.91H29.3599V206.143ZM17.1769 216.249V198.393H19.1919V216.249H17.1769ZM26.0739 200.16H20.4319V198.393H28.1199V213.211H26.0739V200.16ZM34.2889 221.798H32.2119V208.995H34.2889V221.798ZM28.1199 216.249H20.4319V214.451H28.1199V216.249Z" fill="#260D32"/>
<path d="M67.7461 196.254V222.232H65.6691V196.254H67.7461ZM48.5881 199.323C49.7041 198.517 51.0371 198.052 52.6491 198.052C57.5161 198.052 60.0271 202.113 60.0271 207.6C60.0271 213.18 57.5471 217.148 52.6491 217.148C47.9681 217.148 45.3331 213.335 45.3331 207.631C45.3331 204.717 46.0461 202.299 47.2861 200.625L48.5881 202.051C47.7821 203.415 47.3171 205.244 47.3481 207.631C47.4101 212.219 49.0531 215.381 52.6491 215.381C56.2761 215.381 58.0431 212.281 58.0431 207.631C58.0431 202.857 56.2141 199.881 52.6491 199.881C51.5021 199.881 50.5721 200.191 49.7661 200.749L48.5881 199.323Z" fill="#260D32"/>
<path d="M91.4437 216.094C92.1877 211.506 92.4667 205.244 92.4667 200.191H75.1687V198.393H94.5437V201.493C94.5437 204.655 94.2337 211.227 93.5207 216.094H91.4437ZM90.6687 208.561C86.3907 209.088 80.3457 209.181 74.8587 209.181V207.507C79.1057 207.507 85.9567 207.445 90.7617 206.856L90.6687 208.561ZM97.7057 219.442H72.2857V217.644H97.7057V219.442Z" fill="#260D32"/>
<path d="M121.961 202.826V196.254H124.069V210.731H121.961V204.624H116.629L116.691 202.826H121.961ZM104.136 200.811C103.64 201.555 103.361 202.516 103.361 203.601C103.361 206.577 105.438 208.406 108.29 208.406C111.111 208.406 113.188 206.577 113.188 203.601C113.188 200.594 111.111 198.796 108.29 198.796C107.143 198.796 106.089 199.106 105.283 199.633L104.074 198.207C105.221 197.432 106.678 197.029 108.29 197.029C112.289 197.029 115.172 199.571 115.172 203.601C115.172 207.631 112.289 210.204 108.29 210.204C104.26 210.204 101.346 207.631 101.346 203.601C101.346 201.896 101.873 200.47 102.772 199.385L104.136 200.811ZM105.531 222.883V212.126H107.577V215.97H120.752V217.768H107.577V222.883H105.531ZM121.992 212.126H124.069V220H121.992V212.126ZM124.1 222.883H108.817V221.085H124.1V222.883Z" fill="#260D32"/>
<path d="M157.502 208.964H151.922V207.166H157.502V201.989H151.922V200.191H157.502V196.254H159.61V217.086H157.502V208.964ZM139.894 198.61C141.103 197.835 142.529 197.463 144.017 197.463C147.706 197.463 151.116 199.881 151.116 204.562C151.116 209.243 147.706 211.63 144.017 211.63C140.266 211.63 136.887 209.243 136.887 204.562C136.887 202.578 137.507 200.997 138.499 199.819L139.832 201.214C139.212 202.051 138.84 203.167 138.84 204.562C138.84 208.282 141.413 209.863 144.017 209.863C146.59 209.863 149.194 208.282 149.194 204.562C149.194 200.873 146.59 199.261 144.017 199.261C142.994 199.261 142.002 199.509 141.103 200.036L139.894 198.61ZM143.304 220.93H160.199V222.728H141.227V215.133H143.304V220.93Z" fill="#260D32"/>
<path d="M177.961 198.517C174.551 198.579 170.521 198.672 168.072 197.773L168.475 196.099C171.544 197.122 174.923 196.781 177.961 196.781V198.517ZM184.874 212.126V196.254H186.951V212.126H184.874ZM181.123 202.454H164.879V200.749H181.123V202.454ZM180.038 208.282C180.038 210.731 177.403 212.343 173.094 212.343C168.785 212.343 166.181 210.731 166.181 208.282C166.181 206.763 167.018 205.74 168.506 205.027L169.498 206.453C168.692 206.887 168.196 207.383 168.196 208.282C168.196 209.987 170.459 210.731 173.094 210.731C175.76 210.731 177.992 209.987 177.992 208.282C177.992 206.36 175.76 205.802 173.094 205.802C172.381 205.802 171.668 205.864 171.048 205.957L170.087 204.469C170.955 204.283 171.978 204.159 173.094 204.159C177.403 204.159 180.038 205.616 180.038 208.282ZM191.973 205.058V206.856H188.036V205.058H191.973ZM183.665 218.295H170.676V222.883H168.63V213.552H170.676V216.528H183.665V218.295ZM184.905 213.552H186.982V220H184.905V213.552ZM171.916 221.085H187.013V222.883H171.916V221.085Z" fill="#260D32"/>
<path d="M13.8599 223.1H192.128V224.65H13.8599V223.1Z" fill="#260D32"/>
<path fill-rule="evenodd" clip-rule="evenodd" d="M39.9998 196.154V222.332H37.6918V196.154H39.9998ZM29.2598 206.043H32.1118V196.464H34.3888V208.01H29.2598V206.043ZM17.0768 216.349V198.293H19.2918V216.349H17.0768ZM20.3318 200.26V198.293H28.2198V213.311H25.9738V200.26H20.3318ZM34.3888 221.898H32.1118V208.895H34.3888V221.898ZM28.2198 216.349H20.3318V214.351H28.2198V216.349ZM67.846 196.154V222.332H65.569V196.154H67.846ZM48.4429 199.304L48.5294 199.242C49.6626 198.424 51.0162 197.952 52.649 197.952C55.1142 197.952 56.9889 198.982 58.244 200.71C59.4964 202.433 60.127 204.843 60.127 207.6C60.127 210.403 59.5044 212.813 58.2555 214.525C57.0038 216.242 55.1287 217.248 52.649 217.248C50.2779 217.248 48.4188 216.281 47.1555 214.588C45.8947 212.9 45.233 210.497 45.233 207.631C45.233 204.702 45.9495 202.261 47.2056 200.566L47.2779 200.468L48.7117 202.038L48.6741 202.102C47.8797 203.446 47.4172 205.256 47.448 207.63C47.4789 209.915 47.9037 211.831 48.7576 213.173C49.6078 214.509 50.8861 215.281 52.649 215.281C54.429 215.281 55.7461 214.523 56.6227 213.195C57.5028 211.861 57.943 209.946 57.943 207.631C57.943 205.254 57.4874 203.339 56.5999 202.022C55.7161 200.709 54.399 199.981 52.649 199.981C51.5219 199.981 50.6118 200.285 49.8229 200.831L49.7474 200.884L48.4429 199.304ZM91.326 216.194L91.3448 216.078C92.0827 211.528 92.3629 205.324 92.3665 200.291H75.0686V198.293H94.6436V201.493C94.6436 204.658 94.3334 211.236 93.6195 216.109L93.607 216.194H91.326ZM90.7639 208.65L90.6808 208.66C86.3958 209.188 80.3449 209.281 74.8586 209.281H74.7586V207.407H74.8586C79.1064 207.407 85.9514 207.345 90.7494 206.757L90.8679 206.742L90.7639 208.65ZM97.8056 219.542H72.1856V217.544H97.8056V219.542ZM121.861 196.154H124.169V210.831H121.861V204.724H116.526L116.595 202.726H121.861V196.154ZM104.264 200.8L104.219 200.867C103.736 201.592 103.461 202.533 103.461 203.601C103.461 205.065 103.971 206.239 104.825 207.047C105.679 207.856 106.885 208.306 108.29 208.306C109.679 208.306 110.878 207.856 111.728 207.047C112.578 206.239 113.088 205.065 113.088 203.601C113.088 202.122 112.578 200.948 111.728 200.144C110.878 199.339 109.679 198.896 108.29 198.896C107.161 198.896 106.126 199.201 105.338 199.717L105.264 199.765L103.926 198.187L104.018 198.124C105.184 197.336 106.662 196.929 108.29 196.929C110.311 196.929 112.057 197.571 113.299 198.731C114.542 199.891 115.272 201.561 115.272 203.601C115.272 205.641 114.542 207.319 113.299 208.487C112.057 209.654 110.311 210.304 108.29 210.304C106.254 210.304 104.492 209.654 103.239 208.487C101.984 207.319 101.246 205.641 101.246 203.601C101.246 201.875 101.78 200.426 102.695 199.321L102.767 199.235L104.264 200.8ZM105.431 222.983V212.026H107.677V215.87H120.852V217.868H107.677V222.983H105.431ZM121.892 212.026H124.169V220.1H121.892V212.026ZM124.2 222.983H108.717V220.985H124.2V222.983ZM151.822 209.064V207.066H157.402V202.089H151.822V200.091H157.402V196.154H159.71V217.186H157.402V209.064H151.822ZM139.744 198.588L139.84 198.526C141.067 197.739 142.513 197.363 144.017 197.363C145.883 197.363 147.683 197.974 149.017 199.183C150.353 200.393 151.216 202.195 151.216 204.562C151.216 206.929 150.353 208.723 149.017 209.926C147.682 211.127 145.883 211.73 144.017 211.73C142.121 211.73 140.313 211.127 138.979 209.926C137.642 208.723 136.787 206.928 136.787 204.562C136.787 202.556 137.415 200.952 138.423 199.755L138.494 199.669L139.963 201.206L139.912 201.274C139.307 202.091 138.94 203.185 138.94 204.562C138.94 206.397 139.574 207.694 140.519 208.533C141.465 209.374 142.734 209.763 144.017 209.763C145.284 209.763 146.553 209.374 147.504 208.533C148.453 207.694 149.094 206.397 149.094 204.562C149.094 202.743 148.453 201.446 147.504 200.603C146.553 199.758 145.284 199.361 144.017 199.361C143.011 199.361 142.036 199.605 141.154 200.122L141.081 200.165L139.744 198.588ZM160.299 220.83V222.828H141.127V215.033H143.404V220.83H160.299ZM178.061 198.615L177.757 198.621C176.109 198.651 174.325 198.684 172.652 198.605C170.909 198.524 169.277 198.322 168.038 197.867L167.954 197.836L168.403 195.97L168.507 196.004C170.952 196.819 173.593 196.762 176.118 196.708C176.741 196.694 177.357 196.681 177.961 196.681H178.061V198.615ZM184.774 212.226V196.154H187.051V212.226H184.774ZM181.223 202.554H164.779V200.649H181.223V202.554ZM168.54 204.9L169.644 206.488L169.546 206.541C169.148 206.755 168.836 206.98 168.624 207.254C168.414 207.526 168.296 207.853 168.296 208.282C168.296 209.079 168.821 209.664 169.698 210.055C170.575 210.446 171.784 210.631 173.094 210.631C174.42 210.631 175.629 210.446 176.502 210.055C177.374 209.664 177.892 209.08 177.892 208.282C177.892 207.822 177.759 207.449 177.523 207.145C177.285 206.84 176.939 206.599 176.504 206.413C175.631 206.042 174.423 205.902 173.094 205.902C172.387 205.902 171.679 205.964 171.063 206.056L170.999 206.066L169.925 204.402L170.066 204.371C170.941 204.184 171.971 204.059 173.094 204.059C175.258 204.059 177.014 204.424 178.232 205.134C179.457 205.847 180.138 206.909 180.138 208.282C180.138 209.549 179.454 210.594 178.233 211.317C177.015 212.038 175.259 212.443 173.094 212.443C170.929 212.443 169.181 212.038 167.971 211.317C166.757 210.593 166.081 209.548 166.081 208.282C166.081 207.503 166.296 206.846 166.705 206.293C167.113 205.741 167.709 205.298 168.463 204.937L168.54 204.9ZM192.073 204.958V206.956H187.936V204.958H192.073ZM183.765 218.395H170.776V222.983H168.53V213.452H170.776V216.428H183.765V218.395ZM184.805 213.452H187.082V220.1H184.805V213.452ZM171.816 220.985H187.113V222.983H171.816V220.985ZM13.7598 223H192.228V224.75H13.7598V223ZM39.8998 222.232V196.254H37.7918V222.232H39.8998ZM32.2118 206.143H29.3598V207.91H34.2888V196.564H32.2118V206.143ZM17.1768 198.393V216.249H19.1918V198.393H17.1768ZM20.4318 200.16H26.0738V213.211H28.1198V198.393H20.4318V200.16ZM32.2118 221.798H34.2888V208.995H32.2118V221.798ZM20.4318 216.249H28.1198V214.451H20.4318V216.249ZM67.746 222.232V196.254H65.669V222.232H67.746ZM52.649 198.052C51.037 198.052 49.704 198.517 48.588 199.323L49.766 200.749C50.572 200.191 51.502 199.881 52.649 199.881C56.214 199.881 58.043 202.857 58.043 207.631C58.043 212.281 56.276 215.381 52.649 215.381C49.053 215.381 47.41 212.219 47.348 207.631C47.317 205.244 47.782 203.415 48.588 202.051L47.286 200.625C46.046 202.299 45.333 204.717 45.333 207.631C45.333 213.335 47.968 217.148 52.649 217.148C57.547 217.148 60.027 213.18 60.027 207.6C60.027 202.113 57.516 198.052 52.649 198.052ZM92.4666 200.191C92.4666 205.244 92.1876 211.506 91.4436 216.094H93.5206C94.2336 211.227 94.5436 204.655 94.5436 201.493V198.393H75.1686V200.191H92.4666ZM74.8586 209.181C80.3456 209.181 86.3906 209.088 90.6686 208.561L90.7616 206.856C85.9566 207.445 79.1056 207.507 74.8586 207.507V209.181ZM72.2856 219.442H97.7056V217.644H72.2856V219.442ZM121.961 196.254V202.826H116.691L116.629 204.624H121.961V210.731H124.069V196.254H121.961ZM103.361 203.601C103.361 202.516 103.64 201.555 104.136 200.811L102.772 199.385C101.873 200.47 101.346 201.896 101.346 203.601C101.346 207.631 104.26 210.204 108.29 210.204C112.289 210.204 115.172 207.631 115.172 203.601C115.172 199.571 112.289 197.029 108.29 197.029C106.678 197.029 105.221 197.432 104.074 198.207L105.283 199.633C106.089 199.106 107.143 198.796 108.29 198.796C111.111 198.796 113.188 200.594 113.188 203.601C113.188 206.577 111.111 208.406 108.29 208.406C105.438 208.406 103.361 206.577 103.361 203.601ZM105.531 212.126V222.883H107.577V217.768H120.752V215.97H107.577V212.126H105.531ZM124.069 212.126H121.992V220H124.069V212.126ZM108.817 222.883H124.1V221.085H108.817V222.883ZM151.922 208.964H157.502V217.086H159.61V196.254H157.502V200.191H151.922V201.989H157.502V207.166H151.922V208.964ZM144.017 197.463C142.529 197.463 141.103 197.835 139.894 198.61L141.103 200.036C142.002 199.509 142.994 199.261 144.017 199.261C146.59 199.261 149.194 200.873 149.194 204.562C149.194 208.282 146.59 209.863 144.017 209.863C141.413 209.863 138.84 208.282 138.84 204.562C138.84 203.167 139.212 202.051 139.832 201.214L138.499 199.819C137.507 200.997 136.887 202.578 136.887 204.562C136.887 209.243 140.266 211.63 144.017 211.63C147.706 211.63 151.116 209.243 151.116 204.562C151.116 199.881 147.706 197.463 144.017 197.463ZM160.199 220.93H143.304V215.133H141.227V222.728H160.199V220.93ZM177.756 198.521L177.961 198.517V196.781C177.362 196.781 176.749 196.794 176.128 196.808C173.602 196.863 170.939 196.92 168.475 196.099L168.072 197.773C170.472 198.654 174.391 198.582 177.756 198.521ZM184.874 196.254V212.126H186.951V196.254H184.874ZM164.879 202.454H181.123V200.749H164.879V202.454ZM173.094 212.343C177.403 212.343 180.038 210.731 180.038 208.282C180.038 205.616 177.403 204.159 173.094 204.159C171.978 204.159 170.955 204.283 170.087 204.469L171.048 205.957C171.668 205.864 172.381 205.802 173.094 205.802C175.76 205.802 177.992 206.36 177.992 208.282C177.992 209.987 175.76 210.731 173.094 210.731C170.459 210.731 168.196 209.987 168.196 208.282C168.196 207.383 168.692 206.887 169.498 206.453L168.506 205.027C167.018 205.74 166.181 206.763 166.181 208.282C166.181 210.731 168.785 212.343 173.094 212.343ZM188.036 206.856H191.973V205.058H188.036V206.856ZM170.676 218.295H183.665V216.528H170.676V213.552H168.63V222.883H170.676V218.295ZM186.982 213.552H184.905V220H186.982V213.552ZM187.013 221.085H171.916V222.883H187.013V221.085ZM192.128 223.1H13.8598V224.65H192.128V223.1Z" fill="#240D32"/>
<g opacity="0.85">
<path d="M58.6006 260.744V262.42H40.9834V260.744H48.7607V256.189H50.8018V260.744H58.6006ZM41.7998 255.309C45.377 254.707 48.6963 252.032 48.6963 249.078V248.906H42.4443V247.23H57.0752V248.906H50.8232V249.078C50.8232 252.032 54.1641 254.653 57.8271 255.223L57.0107 256.834C53.8955 256.254 51.0273 254.449 49.7705 251.914C48.5352 254.481 45.6885 256.318 42.6377 256.92L41.7998 255.309Z" fill="#3E2050"/>
<path d="M68.7627 246.027C72.8984 246.038 75.6055 247.531 75.5947 249.916C75.6055 252.301 72.8984 253.783 68.7627 253.783C64.627 253.783 61.8984 252.301 61.9092 249.916C61.8984 247.531 64.627 246.038 68.7627 246.027ZM59.9971 256.77V255.115H77.5713V256.77H73.21V260.594H71.1689V256.77H68.1396V260.594H66.0771V256.77H59.9971ZM62.1025 264.418V258.939H64.165V262.764H75.7881V264.418H62.1025ZM64.1006 249.916C64.0791 251.323 65.9482 252.15 68.7627 252.172C71.5879 252.15 73.4355 251.323 73.4463 249.916C73.4355 248.509 71.5879 247.671 68.7627 247.66C65.9482 247.671 64.0791 248.509 64.1006 249.916Z" fill="#3E2050"/>
<path d="M84.167 247.016C87.0459 247.026 89.0977 249.647 89.1084 253.762C89.0977 257.919 87.0459 260.54 84.167 260.529C81.2881 260.54 79.2363 257.919 79.2471 253.762C79.2363 249.647 81.2881 247.026 84.167 247.016ZM81.2021 253.762C81.1914 256.823 82.416 258.703 84.167 258.703C85.9502 258.703 87.1533 256.823 87.1533 253.762C87.1533 250.743 85.9502 248.853 84.167 248.842C82.416 248.853 81.1914 250.743 81.2021 253.762ZM91.9658 264.826V245.576H94.0068V253.117H97.1006V254.836H94.0068V264.826H91.9658Z" fill="#3E2050"/>
<path d="M110.013 246.715L105.007 265.342H102.966L107.972 246.715H110.013Z" fill="#3E2050"/>
<path d="M126.577 246.779C126.566 251.71 123.086 255.18 117.382 256.684L116.565 255.072C121.195 253.869 124.01 251.452 124.386 248.412H117.64V246.779H126.577ZM119.745 264.568V257.285H132.356V264.568H119.745ZM121.765 262.936H130.358V258.918H121.765V262.936ZM130.315 256.426V245.598H132.356V256.426H130.315Z" fill="#3E2050"/>
<path d="M151.972 245.576V264.826H150.017V245.576H151.972ZM135.622 253.891C135.622 249.723 137.255 247.112 139.769 247.123C141.412 247.112 142.68 248.208 143.367 250.109H146.171V245.941H148.104V263.881H146.171V257.672H143.378C142.68 259.584 141.412 260.69 139.769 260.68C137.255 260.69 135.622 258.069 135.622 253.891ZM137.491 253.891C137.48 256.952 138.34 258.757 139.769 258.746C141.187 258.757 142.089 256.952 142.089 253.891C142.089 250.818 141.187 249.024 139.769 249.035C138.34 249.024 137.48 250.818 137.491 253.891ZM143.797 251.764C143.904 252.419 143.958 253.128 143.958 253.891C143.958 254.643 143.904 255.352 143.797 255.996H146.171V251.764H143.797Z" fill="#3E2050"/>
<path d="M161.554 249.594C161.554 252.086 163.391 254.428 166.366 255.373L165.313 256.963C163.101 256.232 161.436 254.718 160.555 252.795C159.695 254.89 157.977 256.544 155.688 257.35L154.636 255.738C157.633 254.718 159.48 252.226 159.491 249.594V248.756H155.173V247.102H165.786V248.756H161.554V249.594ZM157.794 264.418V258.316H159.856V262.764H170.964V264.418H157.794ZM168.343 259.648V245.598H170.384V259.648H168.343Z" fill="#3E2050"/>
</g>
</svg>
