<svg width="146" height="54" viewBox="0 0 146 54" fill="none" xmlns="http://www.w3.org/2000/svg">
<path d="M145 27C145 30.3337 143.177 33.6336 139.605 36.7568C136.035 39.8783 130.812 42.7349 124.272 45.154C111.199 49.9893 93.0715 53 73 53C52.9285 53 34.8013 49.9893 21.7281 45.154C15.1876 42.7349 9.96459 39.8783 6.39497 36.7568C2.8233 33.6336 1 30.3337 1 27C1 23.6663 2.8233 20.3664 6.39497 17.2432C9.96459 14.1217 15.1876 11.2651 21.7281 8.84602C34.8013 4.01073 52.9285 1 73 1C93.0715 1 111.199 4.01073 124.272 8.84602C130.812 11.2651 136.035 14.1217 139.605 17.2432C143.177 20.3664 145 23.6663 145 27Z" stroke="url(#paint0_linear_35_302)" stroke-width="2"/>
<path d="M25.8866 35.44H33.4006V37H24.2746V18.566H25.8866V26.626H32.7246V28.186H25.8866V35.44ZM33.2706 18.566V20.126H28.1746V18.566H33.2706ZM44.3811 30.474L42.9251 29.928L46.7211 18.28L48.2291 18.826L44.3811 30.474ZM40.8191 37.312L35.3071 18.8L36.8151 18.306L42.3271 36.818L40.8191 37.312ZM52.496 35.44H60.01V37H50.884V18.566H52.496V26.626H59.334V28.186H52.496V35.44ZM59.88 18.566V20.126H54.784V18.566H59.88ZM75.4105 18.566H77.0225V37H75.3065L63.5285 19.19L64.8545 18.306L75.4105 34.296V18.566ZM63.6585 37V25.534H65.2705V37H63.6585ZM79.7945 20.126V18.566H89.9085V20.126H79.7945ZM84.0325 37V23.168H85.6445V37H84.0325ZM103.428 37.286C100.1 37.286 98.0717 33.464 98.0717 27.77C98.0717 24.702 98.6177 22.206 99.7877 20.438L100.854 21.66C100.048 23.22 99.6837 25.586 99.6837 27.77C99.6837 32.32 101.036 35.726 103.428 35.726C105.82 35.726 107.172 32.32 107.172 27.77C107.172 23.22 105.82 19.814 103.428 19.814C103.194 19.814 102.934 19.866 102.856 19.892L102.206 18.462C102.57 18.332 102.934 18.254 103.428 18.254C106.756 18.254 108.784 22.076 108.784 27.77C108.784 33.464 106.756 37.286 103.428 37.286ZM112.612 20.126V18.566H122.414V20.126H112.612ZM114.094 37.312L112.638 36.61L119.684 22.466L121.14 23.168L114.094 37.312Z" fill="white"/>
<defs>
<linearGradient id="paint0_linear_35_302" x1="46.569" y1="-6.45669e-07" x2="72.9048" y2="54.0464" gradientUnits="userSpaceOnUse">
<stop stop-color="#FEFEFE"/>
<stop offset="1" stop-color="white" stop-opacity="0"/>
</linearGradient>
</defs>
</svg>
