<svg width="209" height="322" viewBox="0 0 209 322" fill="none" xmlns="http://www.w3.org/2000/svg">
<path fill-rule="evenodd" clip-rule="evenodd" d="M207.5 322V0H208.5V322H207.5Z" fill="#3D0E0E"/>
<path fill-rule="evenodd" clip-rule="evenodd" d="M207 1H1V321H207V1ZM0 0V322H208V0H0Z" fill="#3D0E0E"/>
<path fill-rule="evenodd" clip-rule="evenodd" d="M208 99.5H0V98.5H208V99.5Z" fill="#3D0E0E"/>
<path d="M79.8227 29.8251H85.9727V18.8501H87.6477V32.0001H85.9727V31.2501H79.8227V29.8251ZM76.6477 26.1251C73.4727 26.1251 70.9477 25.3001 70.9477 22.6751C70.9477 21.2751 71.6727 20.3751 72.8477 19.8251L73.5977 20.9751C72.8977 21.3251 72.4727 21.8501 72.4727 22.6751C72.4727 24.4001 74.3977 24.8501 76.6477 24.8501C78.9227 24.8501 80.7977 24.3751 80.7977 22.6501C80.7977 20.9251 78.9227 20.5001 76.6477 20.5001C76.0477 20.5001 75.4227 20.5001 74.8977 20.6001L74.1477 19.4001C74.8977 19.2501 75.7477 19.1751 76.6477 19.1751C79.8227 19.1751 82.3227 20.0501 82.3227 22.6501C82.3227 25.2751 79.8227 26.1251 76.6477 26.1251ZM69.2227 28.8251V27.4001H74.5727C77.8477 27.4001 81.3727 27.3001 84.1727 26.8001L84.3977 28.1751C82.2977 28.5751 79.6477 28.7501 76.8477 28.8001V29.6251C76.8477 30.4001 76.8227 31.1001 76.7227 31.8251L75.0227 31.7251C75.0977 31.0501 75.1477 30.3751 75.1477 29.6251V28.8251H69.2227ZM85.8227 35.1501V34.3251H72.5977V32.8501H87.6477V35.1501H85.8227ZM72.5977 35.9001H87.6477V37.3751H72.5977V35.9001ZM88.3977 39.1001V40.5751H72.5977V38.1251H74.4227L74.3977 39.1001H88.3977Z" fill="#3D0E0E"/>
<path d="M97.2424 22.3501C95.9424 23.0751 95.2174 24.2001 95.2174 25.7001C95.2174 28.4001 97.8424 29.8001 101.567 29.8001C105.267 29.8001 107.892 28.4001 107.892 25.7001C107.892 23.0001 105.467 21.4501 101.567 21.4501C100.467 21.4501 99.4674 21.5751 98.6174 21.8001L97.7924 20.4751C98.8674 20.1751 100.117 20.0001 101.567 20.0001C106.892 20.0001 109.567 22.3501 109.567 25.7001C109.567 29.6751 105.817 31.2251 101.567 31.2251C97.1924 31.2251 93.5674 29.6501 93.5674 25.7001C93.5674 23.7001 94.4924 22.0501 96.3674 21.0501L97.2424 22.3501ZM91.3174 36.1001H96.4424V32.1001H98.1424V36.1001H105.017V32.1001H106.692V36.1001H111.817V37.5501H91.3174V36.1001Z" fill="#3D0E0E"/>
<path d="M131.378 18.8501H133.078V30.2751H131.378V18.8501ZM116.903 22.4501C116.553 23.0001 116.328 23.7001 116.328 24.5251C116.328 26.8001 117.928 28.1001 120.303 28.1001C122.703 28.1001 124.353 26.8001 124.353 24.5251C124.353 22.2501 122.678 20.9501 120.303 20.9501C119.353 20.9501 118.528 21.1501 117.878 21.5501L116.903 20.3751C117.828 19.8001 118.953 19.5001 120.303 19.5001C123.603 19.5001 125.903 21.3001 125.903 24.5251C125.903 27.8001 123.503 29.5751 120.303 29.5751C117.003 29.5751 114.753 27.6251 114.753 24.5251C114.753 23.2251 115.153 22.1251 115.828 21.3001L116.903 22.4501ZM131.278 33.1001H118.128V31.6251H133.078V34.4251H131.278V33.1001ZM118.128 35.3001H133.078V36.7501H118.128V35.3001ZM119.903 39.1001H133.803V40.5751H118.128V37.6251H119.903V39.1001Z" fill="#3D0E0E"/>
<path d="M95.8359 55.1159L97.2759 56.6999L87.5559 65.2319L86.1519 63.6119L95.8359 55.1159ZM96.9879 62.2799V80.9999H94.7559V62.2799H96.9879Z" fill="#3D0E0E"/>
<path d="M110.009 68.7959C106.049 68.7959 103.061 65.8439 103.061 61.9199C103.061 57.9959 106.049 55.0439 110.009 55.0439C113.969 55.0439 116.957 57.9959 116.957 61.9199C116.957 65.8439 113.969 68.7959 110.009 68.7959ZM110.009 66.6719C112.709 66.6719 114.725 64.6199 114.725 61.9199C114.725 59.2199 112.709 57.1679 110.009 57.1679C107.309 57.1679 105.293 59.2199 105.293 61.9199C105.293 64.6199 107.309 66.6719 110.009 66.6719ZM112.709 70.4879L114.653 71.6039L109.073 81.4319L107.093 80.3879L112.709 70.4879Z" fill="#3D0E0E"/>
<g opacity="0.85">
<path d="M73.1392 159.689C77.7534 159.714 81.0737 161.96 81.0737 165.378C81.0737 168.613 78.1929 170.749 74.0669 171.03V175.583H83.1245V177.194H63.2515V175.583H72.187V171.03C68.0854 170.737 65.2046 168.601 65.2046 165.378C65.2046 161.96 68.5371 159.714 73.1392 159.689ZM67.0601 165.378C67.0479 167.88 69.6235 169.504 73.1392 169.528C76.6548 169.504 79.2183 167.88 79.2183 165.378C79.2183 162.924 76.6548 161.264 73.1392 161.276C69.6235 161.264 67.0479 162.924 67.0601 165.378Z" fill="#3E2050"/>
<path d="M103.486 160.764V162.351H85.8833V160.764H93.7935V158.151H95.6733V160.764H103.486ZM84.8579 173.923V172.336H104.731V173.923H95.6733V180.026H93.7935V173.923H84.8579ZM87.6655 167.233C87.6411 164.89 90.3022 163.596 94.7456 163.596C99.1523 163.596 101.813 164.89 101.826 167.233C101.813 169.528 99.1523 170.822 94.7456 170.847C90.3022 170.822 87.6411 169.528 87.6655 167.233ZM89.6431 167.233C89.6187 168.576 91.5107 169.37 94.7456 169.357C97.9438 169.37 99.8237 168.576 99.8481 167.233C99.8237 165.866 97.9438 165.073 94.7456 165.061C91.5107 165.073 89.6187 165.866 89.6431 167.233Z" fill="#3E2050"/>
<path d="M119.428 178.244C115.705 178.244 113.142 176.181 113.154 173.312C113.142 171.03 114.729 169.138 116.743 168.82V168.723C114.985 168.32 113.825 166.696 113.837 164.768C113.825 162.07 116.193 160.08 119.428 160.08C122.651 160.08 125.019 162.07 125.043 164.768C125.019 166.696 123.847 168.32 122.114 168.723V168.82C124.116 169.138 125.703 171.03 125.727 173.312C125.703 176.181 123.115 178.244 119.428 178.244ZM115.351 173.19C115.314 175.046 116.889 176.303 119.428 176.315C121.955 176.303 123.53 175.046 123.53 173.19C123.53 171.237 121.809 169.797 119.428 169.797C117.06 169.797 115.314 171.237 115.351 173.19ZM115.961 164.938C115.974 166.721 117.402 167.929 119.428 167.941C121.442 167.929 122.895 166.721 122.895 164.938C122.895 163.168 121.491 161.972 119.428 161.984C117.329 161.972 115.974 163.168 115.961 164.938Z" fill="#3E2050"/>
<path d="M135.615 164.108C135.603 168.076 138.3 172.055 141.499 173.508L140.327 175.021C137.849 173.825 135.712 171.25 134.675 168.161C133.674 171.433 131.538 174.179 128.999 175.461L127.778 173.85C131.013 172.373 133.686 168.222 133.71 164.108V160.153H135.615V164.108ZM143.867 180.026V158.273H145.795V180.026H143.867Z" fill="#3E2050"/>
</g>
<path d="M83.2277 203.477H77.1207V201.741H83.2277V196.254H85.3047V210.421H83.2277V203.477ZM69.5257 204.345C68.5647 206.143 66.7667 208.158 63.2637 210.39L61.6827 208.995C67.8827 205.461 69.1847 201.121 69.1847 197.897V197.029H71.2927V197.897C71.2927 200.346 70.6417 202.237 69.5257 204.345ZM77.2447 208.995C73.7727 207.228 72.0367 205.709 70.9827 203.694L72.4397 202.609C73.4317 204.562 75.4467 206.05 78.6087 207.383L77.2447 208.995ZM83.0727 215.598V213.893H66.7667V212.095H85.3047V215.598H83.0727ZM66.7667 216.683H85.3047V218.45H66.7667V216.683ZM86.2037 221.395V223.193H66.7667V219.535H68.9987V221.395H86.2037Z" fill="#260D32"/>
<path d="M112.381 196.254V222.232H110.304V196.254H112.381ZM104.569 199.323C101.128 199.385 97.0983 199.478 94.6493 198.61L95.0523 196.998C98.1523 198.021 101.5 197.68 104.569 197.68V199.323ZM107.514 203.601H91.3013V201.834H107.514V203.601ZM100.477 217.086C103.577 217.024 106.212 216.9 108.878 216.404L108.909 218.202C105.623 218.76 102.027 218.915 97.5323 218.915H89.8443V217.117H98.4313V214.048C95.1763 213.862 92.7893 212.684 92.7893 209.801C92.7893 208.189 93.5643 207.011 95.0523 206.298L96.0753 207.755C95.2383 208.158 94.7113 208.809 94.7113 209.801C94.7113 211.754 96.8193 212.467 99.4543 212.467C102.12 212.467 104.197 211.754 104.197 209.801C104.197 207.817 102.12 207.166 99.4543 207.166C98.8343 207.166 98.2143 207.197 97.6563 207.29L96.7263 205.771C97.5323 205.616 98.4313 205.523 99.4543 205.523C103.763 205.523 106.119 207.011 106.119 209.801C106.119 212.684 103.67 213.862 100.477 214.048V217.086ZM117.682 207.631V209.398H113.466V207.631H117.682Z" fill="#260D32"/>
<path d="M120.705 206.236C128.114 204.562 130.408 201.307 130.408 198.269V197.122H132.423V198.269C132.423 203.508 127.804 206.422 121.604 207.848L120.705 206.236ZM133.818 201.834C135.182 203.477 138.065 204.965 142.188 205.678L141.289 207.352C137.693 206.639 134.004 205.151 132.392 202.95L133.818 201.834ZM118.876 211.599H144.017V213.428H118.876V211.599ZM132.485 222.697H130.377V214.668H132.485V222.697Z" fill="#260D32"/>
<path d="M60.7837 223.1H145.226V224.65H60.7837V223.1Z" fill="#260D32"/>
<path fill-rule="evenodd" clip-rule="evenodd" d="M77.0206 203.577V201.641H83.1276V196.154H85.4046V210.521H83.1276V203.577H77.0206ZM69.6138 204.392C68.6424 206.209 66.8301 208.236 63.3173 210.474L63.2539 210.515L61.5115 208.977L61.6331 208.908C64.72 207.148 66.5814 205.192 67.6717 203.28C68.762 201.368 69.0846 199.495 69.0846 197.897V196.929H71.3926V197.897C71.3926 200.367 70.7347 202.275 69.6138 204.392ZM77.2698 209.12L77.1992 209.084C73.719 207.313 71.9618 205.782 70.894 203.74L70.8544 203.665L72.475 202.458L72.5287 202.564C73.5047 204.485 75.4929 205.961 78.6474 207.291L78.7728 207.344L77.2698 209.12ZM82.9726 215.698V213.993H66.6666V211.995H85.4046V215.698H82.9726ZM66.6666 216.583H85.4046V218.55H66.6666V216.583ZM86.3036 221.295V223H145.326V224.75H60.6836V223H66.6666V219.435H69.0986V221.295H86.3036ZM112.481 196.154V222.332H110.204V196.154H112.481ZM104.669 199.421L104.349 199.427C102.691 199.457 100.905 199.489 99.2327 199.415C97.4867 199.337 95.8547 199.143 94.6157 198.704L94.5301 198.674L94.9813 196.869L95.0835 196.903C97.5524 197.718 100.177 197.661 102.709 197.607C103.336 197.593 103.958 197.58 104.569 197.58H104.669V199.421ZM107.614 203.701H91.2012V201.734H107.614V203.701ZM108.976 216.284L109.011 218.286L108.926 218.3C105.631 218.86 102.029 219.015 97.5322 219.015H89.7442V217.017H98.3312V214.142C96.735 214.041 95.3389 213.698 94.3335 213.019C93.3022 212.322 92.6892 211.275 92.6892 209.801C92.6892 208.978 92.8871 208.261 93.2788 207.658C93.6703 207.054 94.2515 206.571 95.0089 206.208L95.0853 206.171L96.2247 207.794L96.1185 207.845C95.7114 208.041 95.3854 208.295 95.1612 208.614C94.9376 208.933 94.8112 209.324 94.8112 209.801C94.8112 210.731 95.3086 211.367 96.1388 211.777C96.975 212.189 98.1428 212.367 99.4542 212.367C100.781 212.367 101.949 212.189 102.781 211.777C103.196 211.571 103.524 211.309 103.749 210.984C103.973 210.661 104.097 210.27 104.097 209.801C104.097 209.323 103.973 208.931 103.749 208.609C103.525 208.287 103.197 208.029 102.782 207.829C101.95 207.428 100.782 207.266 99.4542 207.266C98.8369 207.266 98.223 207.297 97.6726 207.388L97.6061 207.4L96.5655 205.7L96.7073 205.673C97.5197 205.516 98.425 205.423 99.4542 205.423C101.617 205.423 103.306 205.796 104.456 206.531C105.613 207.271 106.219 208.372 106.219 209.801C106.219 211.276 105.59 212.322 104.551 213.019C103.539 213.698 102.144 214.041 100.577 214.142V216.984C103.632 216.921 106.232 216.794 108.86 216.305L108.976 216.284ZM117.782 207.531V209.498H113.366V207.531H117.782ZM120.553 206.168L120.683 206.138C124.378 205.304 126.785 204.077 128.267 202.691C129.747 201.307 130.308 199.76 130.308 198.269V197.022H132.523V198.269C132.523 200.923 131.352 202.988 129.402 204.566C127.455 206.141 124.734 207.231 121.627 207.945L121.554 207.962L120.553 206.168ZM133.833 201.695L133.895 201.77C135.237 203.387 138.093 204.868 142.205 205.579L142.342 205.603L141.342 207.464L141.27 207.45C139.466 207.092 137.637 206.54 136.054 205.799C134.474 205.06 133.132 204.129 132.312 203.009L132.254 202.931L133.833 201.695ZM118.776 211.499H144.117V213.528H118.776V211.499ZM132.585 222.797H130.277V214.568H132.585V222.797ZM77.1206 203.477H83.2276V210.421H85.3046V196.254H83.2276V201.741H77.1206V203.477ZM63.2636 210.39C66.7666 208.158 68.5646 206.143 69.5256 204.345C70.6416 202.237 71.2926 200.346 71.2926 197.897V197.029H69.1846V197.897C69.1846 201.121 67.8826 205.461 61.6826 208.995L63.2636 210.39ZM70.9826 203.694C72.0366 205.709 73.7726 207.228 77.2446 208.995L78.6086 207.383C75.4466 206.05 73.4316 204.562 72.4396 202.609L70.9826 203.694ZM83.0726 213.893V215.598H85.3046V212.095H66.7666V213.893H83.0726ZM85.3046 216.683H66.7666V218.45H85.3046V216.683ZM86.2036 223.1V221.395H68.9986V219.535H66.7666V223.1H60.7836V224.65H145.226V223.1H86.2036ZM112.381 222.232V196.254H110.304V222.232H112.381ZM104.348 199.327L104.569 199.323V197.68C103.962 197.68 103.344 197.693 102.719 197.707C100.185 197.761 97.539 197.818 95.0522 196.998L94.6492 198.61C97.0459 199.459 100.957 199.388 104.348 199.327ZM91.3012 203.601H107.514V201.834H91.3012V203.601ZM108.878 216.404C106.212 216.9 103.577 217.024 100.477 217.086V214.048C103.67 213.862 106.119 212.684 106.119 209.801C106.119 207.011 103.763 205.523 99.4542 205.523C98.4312 205.523 97.5322 205.616 96.7262 205.771L97.6562 207.29C98.2142 207.197 98.8342 207.166 99.4542 207.166C102.12 207.166 104.197 207.817 104.197 209.801C104.197 211.754 102.12 212.467 99.4542 212.467C96.8192 212.467 94.7112 211.754 94.7112 209.801C94.7112 208.809 95.2382 208.158 96.0752 207.755L95.0522 206.298C93.5642 207.011 92.7892 208.189 92.7892 209.801C92.7892 212.684 95.1762 213.862 98.4312 214.048V217.117H89.8442V218.915H97.5322C102.027 218.915 105.623 218.76 108.909 218.202L108.878 216.404ZM117.682 209.398V207.631H113.466V209.398H117.682ZM130.408 198.269C130.408 201.307 128.114 204.562 120.705 206.236L121.604 207.848C127.804 206.422 132.423 203.508 132.423 198.269V197.122H130.408V198.269ZM142.188 205.678C138.065 204.965 135.182 203.477 133.818 201.834L132.392 202.95C134.004 205.151 137.693 206.639 141.289 207.352L142.188 205.678ZM144.017 211.599H118.876V213.428H144.017V211.599ZM130.377 222.697H132.485V214.668H130.377V222.697Z" fill="#240D32"/>
<g opacity="0.85">
<path d="M58.6006 260.744V262.42H40.9834V260.744H48.7607V256.189H50.8018V260.744H58.6006ZM41.7998 255.309C45.377 254.707 48.6963 252.032 48.6963 249.078V248.906H42.4443V247.23H57.0752V248.906H50.8232V249.078C50.8232 252.032 54.1641 254.653 57.8271 255.223L57.0107 256.834C53.8955 256.254 51.0273 254.449 49.7705 251.914C48.5352 254.481 45.6885 256.318 42.6377 256.92L41.7998 255.309Z" fill="#3E2050"/>
<path d="M68.7627 246.027C72.8984 246.038 75.6055 247.531 75.5947 249.916C75.6055 252.301 72.8984 253.783 68.7627 253.783C64.627 253.783 61.8984 252.301 61.9092 249.916C61.8984 247.531 64.627 246.038 68.7627 246.027ZM59.9971 256.77V255.115H77.5713V256.77H73.21V260.594H71.1689V256.77H68.1396V260.594H66.0771V256.77H59.9971ZM62.1025 264.418V258.939H64.165V262.764H75.7881V264.418H62.1025ZM64.1006 249.916C64.0791 251.323 65.9482 252.15 68.7627 252.172C71.5879 252.15 73.4355 251.323 73.4463 249.916C73.4355 248.509 71.5879 247.671 68.7627 247.66C65.9482 247.671 64.0791 248.509 64.1006 249.916Z" fill="#3E2050"/>
<path d="M84.167 247.016C87.0459 247.026 89.0977 249.647 89.1084 253.762C89.0977 257.919 87.0459 260.54 84.167 260.529C81.2881 260.54 79.2363 257.919 79.2471 253.762C79.2363 249.647 81.2881 247.026 84.167 247.016ZM81.2021 253.762C81.1914 256.823 82.416 258.703 84.167 258.703C85.9502 258.703 87.1533 256.823 87.1533 253.762C87.1533 250.743 85.9502 248.853 84.167 248.842C82.416 248.853 81.1914 250.743 81.2021 253.762ZM91.9658 264.826V245.576H94.0068V253.117H97.1006V254.836H94.0068V264.826H91.9658Z" fill="#3E2050"/>
<path d="M110.013 246.715L105.007 265.342H102.966L107.972 246.715H110.013Z" fill="#3E2050"/>
<path d="M126.577 246.779C126.566 251.71 123.086 255.18 117.382 256.684L116.565 255.072C121.195 253.869 124.01 251.452 124.386 248.412H117.64V246.779H126.577ZM119.745 264.568V257.285H132.356V264.568H119.745ZM121.765 262.936H130.358V258.918H121.765V262.936ZM130.315 256.426V245.598H132.356V256.426H130.315Z" fill="#3E2050"/>
<path d="M151.972 245.576V264.826H150.017V245.576H151.972ZM135.622 253.891C135.622 249.723 137.255 247.112 139.769 247.123C141.412 247.112 142.68 248.208 143.367 250.109H146.171V245.941H148.104V263.881H146.171V257.672H143.378C142.68 259.584 141.412 260.69 139.769 260.68C137.255 260.69 135.622 258.069 135.622 253.891ZM137.491 253.891C137.48 256.952 138.34 258.757 139.769 258.746C141.187 258.757 142.089 256.952 142.089 253.891C142.089 250.818 141.187 249.024 139.769 249.035C138.34 249.024 137.48 250.818 137.491 253.891ZM143.797 251.764C143.904 252.419 143.958 253.128 143.958 253.891C143.958 254.643 143.904 255.352 143.797 255.996H146.171V251.764H143.797Z" fill="#3E2050"/>
<path d="M161.554 249.594C161.554 252.086 163.391 254.428 166.366 255.373L165.313 256.963C163.101 256.232 161.436 254.718 160.555 252.795C159.695 254.89 157.977 256.544 155.688 257.35L154.636 255.738C157.633 254.718 159.48 252.226 159.491 249.594V248.756H155.173V247.102H165.786V248.756H161.554V249.594ZM157.794 264.418V258.316H159.856V262.764H170.964V264.418H157.794ZM168.343 259.648V245.598H170.384V259.648H168.343Z" fill="#3E2050"/>
</g>
</svg>
