<svg width="168" height="324" viewBox="0 0 168 324" fill="none" xmlns="http://www.w3.org/2000/svg">
<g opacity="0.6">
<g opacity="0.7">
<path d="M29.1347 160.7C33.7597 160.725 37.0847 162.95 37.0847 166.4C37.0847 169.6 34.2097 171.725 30.0847 172.025V176.6H39.1347V178.2H19.2847V176.6H28.1847V172.025C24.1097 171.725 21.2097 169.6 21.2347 166.4C21.2097 162.95 24.5597 160.725 29.1347 160.7ZM23.0847 166.4C23.0597 168.875 25.6347 170.5 29.1347 170.5C32.6597 170.5 35.2347 168.875 35.2347 166.4C35.2347 163.925 32.6597 162.275 29.1347 162.3C25.6347 162.275 23.0597 163.925 23.0847 166.4Z" fill="#502B20"/>
<path d="M59.4911 161.75V163.35H41.8911V161.75H49.7911V159.15H51.6911V161.75H59.4911ZM40.8911 174.95V173.35H60.7411V174.95H51.6911V181H49.7911V174.95H40.8911ZM43.6911 168.25C43.6411 165.9 46.3161 164.6 50.7411 164.6C55.1661 164.6 57.8161 165.9 57.8411 168.25C57.8161 170.525 55.1661 171.825 50.7411 171.85C46.3161 171.825 43.6411 170.525 43.6911 168.25ZM45.6411 168.25C45.6411 169.575 47.5161 170.375 50.7411 170.35C53.9661 170.375 55.8411 169.575 55.8411 168.25C55.8411 166.875 53.9661 166.075 50.7411 166.05C47.5161 166.075 45.6411 166.875 45.6411 168.25Z" fill="#502B20"/>
<path d="M75.4476 179.25C71.6976 179.25 69.1226 177.175 69.1476 174.3C69.1226 172.025 70.7226 170.15 72.7476 169.8V169.75C70.9726 169.325 69.8226 167.7 69.7976 165.75C69.8226 163.075 72.1726 161.075 75.4476 161.1C78.6476 161.075 80.9976 163.075 80.9976 165.75C80.9976 167.7 79.8226 169.325 78.0976 169.75V169.8C80.0976 170.15 81.6976 172.025 81.6976 174.3C81.6976 177.175 79.0976 179.25 75.4476 179.25ZM71.3476 174.2C71.2976 176.05 72.8726 177.3 75.4476 177.3C77.9476 177.3 79.5226 176.05 79.4976 174.2C79.5226 172.225 77.7976 170.8 75.4476 170.8C73.0476 170.8 71.2976 172.225 71.3476 174.2ZM71.9476 165.95C71.9476 167.725 73.3976 168.925 75.4476 168.95C77.4226 168.925 78.8726 167.725 78.8976 165.95C78.8726 164.175 77.4726 162.975 75.4476 163C73.3226 162.975 71.9476 164.175 71.9476 165.95Z" fill="#502B20"/>
<path d="M91.6087 165.1C91.5837 169.075 94.2837 173.05 97.4587 174.5L96.3087 176.05C93.8337 174.825 91.6837 172.25 90.6587 169.125C89.6587 172.425 87.5087 175.175 84.9587 176.45L83.7587 174.85C87.0087 173.375 89.6837 169.225 89.7087 165.1V161.15H91.6087V165.1ZM99.8587 181V159.3H101.759V181H99.8587Z" fill="#502B20"/>
</g>
<path d="M28.3654 197.254V223.232H26.2884V197.254H28.3654ZM13.8884 199.052C18.7554 199.052 21.2664 203.113 21.2664 208.6C21.2664 214.18 18.7864 218.148 13.8884 218.148C9.20736 218.148 6.57236 214.335 6.57236 208.631C6.57236 205.717 7.28535 203.299 8.52535 201.625L9.82735 203.051C9.02135 204.415 8.55636 206.244 8.58736 208.631C8.64936 213.219 10.2924 216.381 13.8884 216.381C17.5154 216.381 19.2824 213.281 19.2824 208.631C19.2824 203.857 17.4534 200.881 13.8884 200.881C12.7414 200.881 11.8114 201.191 11.0054 201.749L9.82735 200.323C10.9434 199.517 12.2764 199.052 13.8884 199.052ZM33.3874 207.701V209.499H29.4504V207.701H33.3874Z" fill="#472317"/>
<path d="M57.8965 197.254V223.232H55.8195V197.254H57.8965ZM38.7385 200.323C39.8545 199.517 41.1875 199.052 42.7995 199.052C47.6665 199.052 50.1775 203.113 50.1775 208.6C50.1775 214.18 47.6975 218.148 42.7995 218.148C38.1185 218.148 35.4835 214.335 35.4835 208.631C35.4835 205.717 36.1965 203.299 37.4365 201.625L38.7385 203.051C37.9325 204.415 37.4675 206.244 37.4985 208.631C37.5605 213.219 39.2035 216.381 42.7995 216.381C46.4265 216.381 48.1935 213.281 48.1935 208.631C48.1935 203.857 46.3645 200.881 42.7995 200.881C41.6525 200.881 40.7225 201.191 39.9165 201.749L38.7385 200.323Z" fill="#472317"/>
<path d="M69.7831 201.594C68.1711 202.493 67.272 203.888 67.272 205.748C67.272 209.096 70.2791 211.018 75.1461 211.018C79.9821 211.018 82.989 209.096 82.989 205.748C82.989 202.4 79.9821 200.478 75.1461 200.478C73.7821 200.478 72.5421 200.633 71.4881 200.912L70.4651 199.269C71.7981 198.897 73.3481 198.68 75.1461 198.68C81.7491 198.68 85.0661 201.594 85.0661 205.748C85.0661 210.708 80.695 212.785 75.177 212.785C69.504 212.785 65.226 210.739 65.226 205.748C65.226 203.268 66.373 201.222 68.698 199.982L69.7831 201.594ZM76.2001 218.644H87.856V220.442H62.4361V218.644H74.0921V214.335H76.2001V218.644Z" fill="#472317"/>
<path d="M114.22 197.254V223.232H112.112V197.254H114.22ZM103.153 207.143H106.935V197.564H109.012V208.91H103.153V207.143ZM91.1866 199.393H104.114V201.16H91.1866V199.393ZM96.0536 215.947C96.9526 215.947 97.8206 215.947 98.7196 215.916C99.0916 212.351 99.2466 206.151 99.2466 202.09H101.262C101.2 206.492 100.952 212.351 100.642 215.823C102.13 215.73 103.556 215.606 104.889 215.358L105.137 217.094C102.564 217.528 99.3706 217.714 95.8366 217.714H90.9076V215.947H96.0536ZM93.6976 215.017C93.4496 211.483 93.2636 206.213 93.2016 202.09H95.1856C95.1856 205.841 95.2786 211.39 95.5886 215.017H93.6976ZM109.012 222.798H106.935V210.15H109.012V222.798Z" fill="#472317"/>
<path d="M4.46436 224.1H117.537V225.65H4.46436V224.1Z" fill="#472317"/>
<path fill-rule="evenodd" clip-rule="evenodd" d="M28.4653 197.154V223.332H26.1883V197.154H28.4653ZM8.5172 201.468L9.95097 203.038L9.91335 203.102C9.11893 204.447 8.65642 206.256 8.68725 208.63C8.71812 210.915 9.14292 212.831 9.99687 214.173C10.847 215.509 12.1254 216.281 13.8883 216.281C15.6682 216.281 16.9853 215.523 17.8619 214.195C18.7421 212.861 19.1823 210.946 19.1823 208.631C19.1823 206.255 18.7266 204.34 17.8392 203.022C16.9553 201.709 15.6383 200.981 13.8883 200.981C12.7612 200.981 11.8511 201.285 11.0622 201.832L10.9867 201.884L9.6822 200.305L9.76871 200.242C10.9019 199.424 12.2554 198.952 13.8883 198.952C16.3535 198.952 18.2282 199.983 19.4833 201.71C20.7356 203.433 21.3663 205.843 21.3663 208.6C21.3663 211.403 20.7436 213.814 19.4948 215.526C18.243 217.242 16.368 218.248 13.8883 218.248C11.5172 218.248 9.65807 217.281 8.39474 215.589C7.134 213.9 6.47226 211.497 6.47226 208.631C6.47226 205.702 7.18878 203.262 8.4449 201.566L8.5172 201.468ZM33.4873 207.601V209.599H29.3503V207.601H33.4873ZM57.9964 197.154V223.332H55.7194V197.154H57.9964ZM38.5933 200.305L38.6798 200.242C39.813 199.424 41.1666 198.952 42.7994 198.952C45.2646 198.952 47.1393 199.983 48.3944 201.71C49.6468 203.433 50.2774 205.843 50.2774 208.6C50.2774 211.403 49.6548 213.814 48.4059 215.526C47.1542 217.242 45.2791 218.248 42.7994 218.248C40.4283 218.248 38.5692 217.281 37.3059 215.589C36.0451 213.9 35.3834 211.497 35.3834 208.631C35.3834 205.702 36.0999 203.262 37.356 201.566L37.4283 201.468L38.8621 203.038L38.8245 203.102C38.0301 204.447 37.5676 206.256 37.5984 208.63C37.6293 210.915 38.0541 212.831 38.908 214.173C39.7582 215.509 41.0365 216.281 42.7994 216.281C44.5794 216.281 45.8965 215.523 46.7731 214.195C47.6532 212.861 48.0934 210.946 48.0934 208.631C48.0934 206.255 47.6378 204.34 46.7503 203.022C45.8665 201.709 44.5494 200.981 42.7994 200.981C41.6723 200.981 40.7622 201.285 39.9733 201.832L39.8978 201.884L38.5933 200.305ZM69.9266 201.629L69.8317 201.682C68.2486 202.565 67.372 203.928 67.372 205.748C67.372 207.387 68.1057 208.674 69.439 209.555C70.7768 210.44 72.7235 210.918 75.146 210.918C77.5527 210.918 79.4917 210.44 80.8257 209.555C82.1552 208.674 82.889 207.387 82.889 205.748C82.889 204.109 82.1552 202.822 80.8257 201.941C79.4917 201.057 77.5527 200.578 75.146 200.578C73.7892 200.578 72.558 200.733 71.5135 201.009L71.4421 201.028L70.3095 199.209L70.4381 199.173C71.7808 198.798 73.3399 198.58 75.146 198.58C78.4605 198.58 80.9645 199.311 82.6423 200.577C84.3234 201.844 85.1659 203.642 85.1659 205.748C85.1659 208.263 84.055 210.054 82.2446 211.211C80.4398 212.365 77.9461 212.885 75.1769 212.885C72.331 212.885 69.8215 212.373 68.0203 211.223C66.2129 210.069 65.126 208.278 65.126 205.748C65.126 203.232 66.2924 201.152 68.6509 199.894L68.7305 199.852L69.9266 201.629ZM87.956 218.544V220.542H62.3359V218.544H73.992V214.235H76.2999V218.544H87.956ZM114.32 197.154V223.332H112.012V197.154H114.32ZM103.053 207.043H106.835V197.464H109.112V209.01H103.053V207.043ZM91.0865 199.293H104.214V201.26H91.0865V199.293ZM99.1465 201.99H101.363L101.362 202.092C101.3 206.446 101.057 212.228 100.751 215.716C102.196 215.624 103.578 215.5 104.87 215.26L104.973 215.241L105.249 217.177L105.153 217.193C102.572 217.628 99.3732 217.814 95.8365 217.814H90.8075V215.847H96.0535C96.9236 215.847 97.7629 215.847 98.629 215.819C98.994 212.247 99.1465 206.118 99.1465 202.09V201.99ZM93.6043 215.117L93.5978 215.024C93.3496 211.488 93.1635 206.216 93.1015 202.092L93.1 201.99H95.2855V202.09C95.2855 205.841 95.3785 211.386 95.6881 215.009L95.6974 215.117H93.6043ZM109.112 222.898H106.835V210.05H109.112V222.898ZM4.36426 224H117.637V225.75H4.36426V224ZM28.3653 223.232V197.254H26.2883V223.232H28.3653ZM21.2663 208.6C21.2663 203.113 18.7553 199.052 13.8883 199.052C12.2763 199.052 10.9433 199.517 9.82726 200.323L11.0053 201.749C11.8113 201.191 12.7413 200.881 13.8883 200.881C17.4533 200.881 19.2823 203.857 19.2823 208.631C19.2823 213.281 17.5153 216.381 13.8883 216.381C10.2923 216.381 8.64925 213.219 8.58726 208.631C8.55626 206.244 9.02126 204.415 9.82726 203.051L8.52525 201.625C7.28526 203.299 6.57226 205.717 6.57226 208.631C6.57226 214.335 9.20726 218.148 13.8883 218.148C18.7863 218.148 21.2663 214.18 21.2663 208.6ZM29.4503 209.499H33.3873V207.701H29.4503V209.499ZM57.8964 223.232V197.254H55.8194V223.232H57.8964ZM42.7994 199.052C41.1874 199.052 39.8544 199.517 38.7384 200.323L39.9164 201.749C40.7224 201.191 41.6524 200.881 42.7994 200.881C46.3644 200.881 48.1934 203.857 48.1934 208.631C48.1934 213.281 46.4264 216.381 42.7994 216.381C39.2034 216.381 37.5604 213.219 37.4984 208.631C37.4674 206.244 37.9324 204.415 38.7384 203.051L37.4364 201.625C36.1964 203.299 35.4834 205.717 35.4834 208.631C35.4834 214.335 38.1184 218.148 42.7994 218.148C47.6974 218.148 50.1774 214.18 50.1774 208.6C50.1774 203.113 47.6664 199.052 42.7994 199.052ZM67.2719 205.748C67.2719 203.888 68.171 202.493 69.783 201.594L68.6979 199.982C66.3729 201.222 65.2259 203.268 65.2259 205.748C65.2259 210.739 69.504 212.785 75.1769 212.785C80.695 212.785 85.066 210.708 85.066 205.748C85.066 201.594 81.749 198.68 75.146 198.68C73.348 198.68 71.798 198.897 70.465 199.269L71.488 200.912C72.542 200.633 73.782 200.478 75.146 200.478C79.982 200.478 82.9889 202.4 82.9889 205.748C82.9889 209.096 79.982 211.018 75.146 211.018C70.279 211.018 67.2719 209.096 67.2719 205.748ZM87.8559 218.644H76.2V214.335H74.092V218.644H62.436V220.442H87.8559V218.644ZM114.22 223.232V197.254H112.112V223.232H114.22ZM106.935 207.143H103.153V208.91H109.012V197.564H106.935V207.143ZM104.114 199.393H91.1865V201.16H104.114V199.393ZM98.7195 215.916C97.8205 215.947 96.9525 215.947 96.0535 215.947H90.9075V217.714H95.8365C99.3705 217.714 102.564 217.528 105.137 217.094L104.889 215.358C103.556 215.606 102.13 215.73 100.642 215.823C100.952 212.351 101.2 206.492 101.262 202.09H99.2465C99.2465 206.151 99.0915 212.351 98.7195 215.916ZM93.2015 202.09C93.2635 206.213 93.4495 211.483 93.6975 215.017H95.5885C95.2785 211.39 95.1855 205.841 95.1855 202.09H93.2015ZM106.935 222.798H109.012V210.15H106.935V222.798ZM117.537 224.1H4.46426V225.65H117.537V224.1Z" fill="#472317"/>
<g opacity="0.7">
<path d="M39.6195 256.784V260.128C41.3795 260.04 43.1835 259.886 44.8555 259.644L45.0315 261.14C40.6535 261.932 35.9895 261.976 32.5355 261.976L32.2715 260.304C33.8335 260.304 35.6595 260.282 37.5955 260.216V256.784H39.6195ZM32.7995 255.86C35.7035 255.068 37.4855 253.044 37.5515 250.668H33.3275V248.996H37.5955V246.708H39.6195V248.996H43.9755V250.668H39.6635C39.7295 252.934 41.5555 254.892 44.4595 255.64L43.4915 257.268C41.2035 256.608 39.4875 255.2 38.6295 253.374C37.7715 255.31 36.0775 256.762 33.7675 257.444L32.7995 255.86ZM46.0875 265.848V246.576H48.1115V265.848H46.0875Z" fill="#502B20"/>
<path d="M67.2572 246.576V258.016H65.2332V253.176H61.6252V251.504H65.2332V246.576H67.2572ZM51.1972 256.3C54.1892 255.244 56.0152 252.648 56.0372 250.008V249.568H51.8572V247.896H62.2412V249.568H58.1052V249.964C58.0832 252.406 59.8212 254.782 62.7252 255.772L61.6692 257.4C59.5132 256.63 57.9292 255.09 57.1152 253.198C56.2572 255.354 54.5632 257.092 52.2532 257.928L51.1972 256.3ZM54.2772 262.196C54.2772 259.908 56.7632 258.566 60.7892 258.588C64.8372 258.566 67.3012 259.908 67.3012 262.196C67.3012 264.484 64.8372 265.804 60.7892 265.804C56.7632 265.804 54.2772 264.484 54.2772 262.196ZM56.3012 262.196C56.3012 263.494 57.9732 264.242 60.7892 264.22C63.6052 264.242 65.2772 263.494 65.2772 262.196C65.2772 260.898 63.6052 260.15 60.7892 260.128C57.9732 260.15 56.3012 260.898 56.3012 262.196Z" fill="#502B20"/>
<path d="M78.9668 247.016C83.1248 247.038 85.8308 248.534 85.8308 250.932C85.8308 253.308 83.1248 254.782 78.9668 254.76C74.8528 254.782 72.1248 253.308 72.1468 250.932C72.1248 248.534 74.8528 247.038 78.9668 247.016ZM70.2108 257.796V256.124H87.8108V257.796H83.4108V261.58H81.3868V257.796H78.3508V261.58H76.2828V257.796H70.2108ZM72.3228 265.408V259.952H74.3908V263.78H86.0068V265.408H72.3228ZM74.3028 250.932C74.3028 252.318 76.1728 253.154 78.9668 253.176C81.8048 253.154 83.6528 252.318 83.6748 250.932C83.6528 249.502 81.8048 248.666 78.9668 248.688C76.1728 248.666 74.3028 249.502 74.3028 250.932Z" fill="#502B20"/>
</g>
</g>
<path opacity="0.9" d="M56.4216 56.116L57.8616 57.7L48.1416 66.232L46.7376 64.612L56.4216 56.116ZM57.5736 63.28V82H55.3416V63.28H57.5736ZM65.1232 58.6V56.476H77.5792V58.6H65.1232ZM72.1072 65.728C76.6432 66.088 79.9552 69.364 79.9552 73.684C79.9552 78.652 76.2832 82.36 71.3872 82.36C66.3112 82.36 63.0352 78.796 63.0352 73.252H65.2672C65.2672 77.5 67.6792 80.236 71.3872 80.236C75.0232 80.236 77.7232 77.428 77.7232 73.684C77.7232 70.336 74.9512 67.816 71.2792 67.816C70.3792 67.816 69.6592 67.996 68.7592 68.284V66.232L72.9352 61.372L74.5912 62.812L72.1072 65.728Z" fill="#533A3A"/>
<g opacity="0.9">
<path d="M49.2385 19.8496V40.7996H47.5635V19.8496H49.2385ZM42.9385 22.3246C40.1635 22.3746 36.9135 22.4496 34.9385 21.7496L35.2635 20.4496C37.7635 21.2746 40.4635 20.9996 42.9385 20.9996V22.3246ZM45.3135 25.7746H32.2385V24.3496H45.3135V25.7746ZM39.6385 36.6496C42.1385 36.5996 44.2635 36.4996 46.4135 36.0996L46.4385 37.5496C43.7885 37.9996 40.8885 38.1246 37.2635 38.1246H31.0635V36.6746H37.9885V34.1996C35.3635 34.0496 33.4385 33.0996 33.4385 30.7746C33.4385 29.4746 34.0635 28.5246 35.2635 27.9496L36.0885 29.1246C35.4135 29.4496 34.9885 29.9746 34.9885 30.7746C34.9885 32.3496 36.6885 32.9246 38.8135 32.9246C40.9635 32.9246 42.6385 32.3496 42.6385 30.7746C42.6385 29.1746 40.9635 28.6496 38.8135 28.6496C38.3135 28.6496 37.8135 28.6746 37.3635 28.7496L36.6135 27.5246C37.2635 27.3996 37.9885 27.3246 38.8135 27.3246C42.2885 27.3246 44.1885 28.5246 44.1885 30.7746C44.1885 33.0996 42.2135 34.0496 39.6385 34.1996V36.6496ZM53.5135 29.0246V30.4496H50.1135V29.0246H53.5135Z" fill="#533A3A"/>
<path d="M60.4016 23.3496C59.1016 24.0746 58.3766 25.1996 58.3766 26.6996C58.3766 29.3996 61.0016 30.7996 64.7266 30.7996C68.4266 30.7996 71.0516 29.3996 71.0516 26.6996C71.0516 23.9996 68.6266 22.4496 64.7266 22.4496C63.6266 22.4496 62.6266 22.5746 61.7766 22.7996L60.9516 21.4746C62.0266 21.1746 63.2766 20.9996 64.7266 20.9996C70.0516 20.9996 72.7266 23.3496 72.7266 26.6996C72.7266 30.6746 68.9766 32.2246 64.7266 32.2246C60.3516 32.2246 56.7266 30.6496 56.7266 26.6996C56.7266 24.6996 57.6516 23.0496 59.5266 22.0496L60.4016 23.3496ZM54.4766 37.0996H59.6016V33.0996H61.3016V37.0996H68.1766V33.0996H69.8516V37.0996H74.9766V38.5496H54.4766V37.0996Z" fill="#533A3A"/>
<path d="M94.5375 19.8496H96.2375V31.2746H94.5375V19.8496ZM80.0625 23.4496C79.7125 23.9996 79.4875 24.6996 79.4875 25.5246C79.4875 27.7996 81.0875 29.0996 83.4625 29.0996C85.8625 29.0996 87.5125 27.7996 87.5125 25.5246C87.5125 23.2496 85.8375 21.9496 83.4625 21.9496C82.5125 21.9496 81.6875 22.1496 81.0375 22.5496L80.0625 21.3746C80.9875 20.7996 82.1125 20.4996 83.4625 20.4996C86.7625 20.4996 89.0625 22.2996 89.0625 25.5246C89.0625 28.7996 86.6625 30.5746 83.4625 30.5746C80.1625 30.5746 77.9125 28.6246 77.9125 25.5246C77.9125 24.2246 78.3125 23.1246 78.9875 22.2996L80.0625 23.4496ZM94.4375 34.0996H81.2875V32.6246H96.2375V35.4246H94.4375V34.0996ZM81.2875 36.2996H96.2375V37.7496H81.2875V36.2996ZM83.0625 40.0996H96.9625V41.5746H81.2875V38.6246H83.0625V40.0996Z" fill="#533A3A"/>
</g>
<path d="M0 100H168" stroke="#3D0E0E"/>
<path d="M0 323H168" stroke="#3D0E0E"/>
<path d="M167 1V323" stroke="#3D0E0E"/>
<path d="M0 1H168" stroke="#3D0E0E"/>
</svg>
