<svg width="208" height="322" viewBox="0 0 208 322" fill="none" xmlns="http://www.w3.org/2000/svg">
<rect x="0.5" y="0.5" width="207" height="321" stroke="#3D0E0E"/>
<path d="M0 99H208" stroke="#3D0E0E"/>
<path d="M79.8227 29.8251H85.9727V18.8501H87.6477V32.0001H85.9727V31.2501H79.8227V29.8251ZM76.6477 26.1251C73.4727 26.1251 70.9477 25.3001 70.9477 22.6751C70.9477 21.2751 71.6727 20.3751 72.8477 19.8251L73.5977 20.9751C72.8977 21.3251 72.4727 21.8501 72.4727 22.6751C72.4727 24.4001 74.3977 24.8501 76.6477 24.8501C78.9227 24.8501 80.7977 24.3751 80.7977 22.6501C80.7977 20.9251 78.9227 20.5001 76.6477 20.5001C76.0477 20.5001 75.4227 20.5001 74.8977 20.6001L74.1477 19.4001C74.8977 19.2501 75.7477 19.1751 76.6477 19.1751C79.8227 19.1751 82.3227 20.0501 82.3227 22.6501C82.3227 25.2751 79.8227 26.1251 76.6477 26.1251ZM69.2227 28.8251V27.4001H74.5727C77.8477 27.4001 81.3727 27.3001 84.1727 26.8001L84.3977 28.1751C82.2977 28.5751 79.6477 28.7501 76.8477 28.8001V29.6251C76.8477 30.4001 76.8227 31.1001 76.7227 31.8251L75.0227 31.7251C75.0977 31.0501 75.1477 30.3751 75.1477 29.6251V28.8251H69.2227ZM85.8227 35.1501V34.3251H72.5977V32.8501H87.6477V35.1501H85.8227ZM72.5977 35.9001H87.6477V37.3751H72.5977V35.9001ZM88.3977 39.1001V40.5751H72.5977V38.1251H74.4227L74.3977 39.1001H88.3977Z" fill="#3D0E0E"/>
<path d="M97.2424 22.3501C95.9424 23.0751 95.2174 24.2001 95.2174 25.7001C95.2174 28.4001 97.8424 29.8001 101.567 29.8001C105.267 29.8001 107.892 28.4001 107.892 25.7001C107.892 23.0001 105.467 21.4501 101.567 21.4501C100.467 21.4501 99.4674 21.5751 98.6174 21.8001L97.7924 20.4751C98.8674 20.1751 100.117 20.0001 101.567 20.0001C106.892 20.0001 109.567 22.3501 109.567 25.7001C109.567 29.6751 105.817 31.2251 101.567 31.2251C97.1924 31.2251 93.5674 29.6501 93.5674 25.7001C93.5674 23.7001 94.4924 22.0501 96.3674 21.0501L97.2424 22.3501ZM91.3174 36.1001H96.4424V32.1001H98.1424V36.1001H105.017V32.1001H106.692V36.1001H111.817V37.5501H91.3174V36.1001Z" fill="#3D0E0E"/>
<path d="M131.378 18.8501H133.078V30.2751H131.378V18.8501ZM116.903 22.4501C116.553 23.0001 116.328 23.7001 116.328 24.5251C116.328 26.8001 117.928 28.1001 120.303 28.1001C122.703 28.1001 124.353 26.8001 124.353 24.5251C124.353 22.2501 122.678 20.9501 120.303 20.9501C119.353 20.9501 118.528 21.1501 117.878 21.5501L116.903 20.3751C117.828 19.8001 118.953 19.5001 120.303 19.5001C123.603 19.5001 125.903 21.3001 125.903 24.5251C125.903 27.8001 123.503 29.5751 120.303 29.5751C117.003 29.5751 114.753 27.6251 114.753 24.5251C114.753 23.2251 115.153 22.1251 115.828 21.3001L116.903 22.4501ZM131.278 33.1001H118.128V31.6251H133.078V34.4251H131.278V33.1001ZM118.128 35.3001H133.078V36.7501H118.128V35.3001ZM119.903 39.1001H133.803V40.5751H118.128V37.6251H119.903V39.1001Z" fill="#3D0E0E"/>
<path d="M94.7206 55.1159L96.1606 56.6999L86.4406 65.2319L85.0366 63.6119L94.7206 55.1159ZM95.8726 62.2799V80.9999H93.6406V62.2799H95.8726Z" fill="#3D0E0E"/>
<path d="M112.602 65.1239C113.538 63.9359 114.15 62.9279 114.15 61.6319C114.15 59.1119 112.206 57.2039 109.65 57.2039C107.094 57.2039 105.186 59.0399 105.186 61.4879C105.186 63.1439 105.978 64.2959 107.058 65.2679L105.546 66.7799C103.998 65.6279 102.954 63.7199 102.954 61.4879C102.954 57.8159 105.834 55.0439 109.65 55.0439C113.502 55.0439 116.382 57.8519 116.382 61.6319C116.382 62.9999 115.806 64.7279 114.438 66.4199L107.202 75.5639L105.438 74.1959L112.602 65.1239ZM117.354 78.8399V80.9999H102.522V78.8399H117.354Z" fill="#3D0E0E"/>
<g opacity="0.85">
<path d="M67.2578 159.689C71.8721 159.714 75.1924 161.96 75.1924 165.378C75.1924 168.613 72.3115 170.749 68.1855 171.03V175.583H77.2432V177.194H57.3701V175.583H66.3057V171.03C62.2041 170.737 59.3232 168.601 59.3232 165.378C59.3232 161.96 62.6558 159.714 67.2578 159.689ZM61.1787 165.378C61.1665 167.88 63.7422 169.504 67.2578 169.528C70.7734 169.504 73.3369 167.88 73.3369 165.378C73.3369 162.924 70.7734 161.264 67.2578 161.276C63.7422 161.264 61.1665 162.924 61.1787 165.378Z" fill="#3E2050"/>
<path d="M96.9697 158.298V174.216H95.041V165.891H90.5732V164.304H95.041V158.298H96.9697ZM79.0742 169.87C82.2725 168.747 84.5918 165.878 84.5918 162.766V161.643H79.6846V160.056H91.3789V161.643H86.5205V162.766C86.5205 165.573 88.6934 168.295 91.8672 169.382L90.8662 170.92C88.4248 170.029 86.5327 168.21 85.5928 165.964C84.6528 168.479 82.6509 170.468 80.0752 171.433L79.0742 169.87ZM83.0293 179.514V172.775H84.958V177.902H97.5801V179.514H83.0293Z" fill="#3E2050"/>
<path d="M113.889 160.324V178H111.667V162.619H111.569L107.272 165.476V163.254L111.667 160.324H113.889Z" fill="#3E2050"/>
<path d="M124.851 160.324V178H122.629V162.619H122.531L118.234 165.476V163.254L122.629 160.324H124.851Z" fill="#3E2050"/>
<path d="M136.496 164.108C136.484 168.076 139.182 172.055 142.38 173.508L141.208 175.021C138.73 173.825 136.594 171.25 135.556 168.161C134.555 171.433 132.419 174.179 129.88 175.461L128.659 173.85C131.894 172.373 134.567 168.222 134.592 164.108V160.153H136.496V164.108ZM144.748 180.026V158.273H146.677V180.026H144.748Z" fill="#3E2050"/>
</g>
<path d="M38.7915 203.229C38.7915 200.966 37.2725 199.509 34.9475 199.509C34.2965 199.509 33.6455 199.633 33.1185 199.881L32.1575 198.269C32.9015 197.866 33.8005 197.649 34.9475 197.649C38.4195 197.649 40.6825 199.85 40.6825 203.229H38.7915ZM39.3495 216.094C39.7525 215.381 39.9695 214.637 39.9695 213.583C39.9695 211.506 38.4195 209.739 35.6605 209.026L33.6145 208.499C30.4835 207.693 29.0885 205.647 29.0885 203.229C29.0885 202.268 29.2745 201.4 29.7085 200.594L31.2585 201.865C31.1035 202.268 31.0105 202.795 31.0105 203.229C31.0105 204.81 31.9405 206.081 34.3275 206.701L36.2495 207.197C40.0005 208.158 41.8915 210.607 41.8915 213.583C41.8915 215.009 41.5505 216.373 40.8065 217.427L39.3495 216.094ZM34.7615 220.372C30.4835 220.372 27.7245 217.737 27.7245 213.645H29.6465C29.6465 216.59 31.6615 218.512 34.7615 218.512C35.6915 218.512 36.4975 218.388 37.3655 217.954L38.3885 219.566C37.3345 220.124 36.2495 220.372 34.7615 220.372Z" fill="#260D32"/>
<path d="M47.2804 220H45.3584V198.021H47.2804V209.832L56.7354 197.99L58.1614 199.261L47.2804 212.87V220ZM56.9524 220.124L50.5354 213.18L51.8994 211.847L58.3164 218.791L56.9524 220.124Z" fill="#260D32"/>
<path d="M87.0859 208.003C87.5199 204.872 87.7059 201.958 87.7059 199.292H70.0979V197.463H89.8449C89.8139 199.602 89.6899 204.097 89.1629 208.034L87.0859 208.003ZM67.2149 209.274H92.3559V211.103H67.2149V209.274ZM80.8549 222.542H78.7469V212.343H80.8549V222.542Z" fill="#260D32"/>
<path d="M117.27 198.951H98.0497V197.184H117.27V198.951ZM120.494 210.08V211.909H94.7637V210.08H106.575V206.825H98.0497V200.036H100.127V205.027H109.458C112.868 205.027 115.162 204.934 117.611 204.531L117.797 206.36C115.658 206.701 113.147 206.825 109.427 206.825H108.683V210.08H120.494ZM97.8017 214.699H117.177V223.193H115.069V216.497H97.8017V214.699Z" fill="#260D32"/>
<path d="M143.533 196.254H145.61V203.973H150.632V205.771H145.61V212.095H143.533V196.254ZM122.608 210.452C128.033 207.476 130.265 202.733 130.265 199.199V197.339H132.342V199.199C132.342 204.407 128.653 209.243 124.189 211.847L122.608 210.452ZM133.706 204.035C134.791 205.895 136.62 207.693 139.782 208.995L138.356 210.576C135.132 208.933 133.427 207.321 132.218 205.12L133.706 204.035ZM130.885 215.784C129.645 216.249 128.963 216.931 128.963 218.295C128.963 220.279 131.753 221.302 136.527 221.302C141.425 221.302 144.091 220.248 144.091 218.264C144.091 215.784 141.115 214.978 136.527 214.978C135.132 214.978 133.892 215.071 132.838 215.226L131.877 213.676C133.148 213.428 134.698 213.273 136.527 213.273C143.068 213.273 146.106 214.947 146.106 218.264C146.106 221.085 143.223 223.038 136.527 223.038C129.924 223.038 126.948 221.116 126.948 218.295C126.948 216.28 127.878 215.071 129.924 214.296L130.885 215.784Z" fill="#260D32"/>
<path d="M174.735 198.951H154.926V197.184H174.735V198.951ZM154.988 205.337H168.287C168.442 203.632 168.566 201.989 168.628 200.036H170.736C170.674 202.113 170.519 203.787 170.364 205.337H174.673V207.135H154.988V205.337ZM161.033 200.036C161.095 201.555 161.188 202.764 161.281 204.252H159.204L158.956 200.036H161.033ZM177.68 209.925V211.754H165.838V214.699H174.456V220.155H172.348V216.466H158.646V214.699H163.761V211.754H151.95V209.925H177.68ZM155.236 214.699H157.282V223.193H155.236V214.699ZM158.646 221.395H174.487V223.193H158.646V221.395Z" fill="#260D32"/>
<path d="M27.1045 223.1H178.889V224.65H27.1045V223.1Z" fill="#260D32"/>
<g opacity="0.85">
<path d="M52.1084 245.576V250.496H54.9014V252.172H52.1084V257.178H50.0674V245.576H52.1084ZM37.7354 255.953V246.779H39.7334V249.658H44.7822V246.779H46.8018V255.953H37.7354ZM39.3896 259.799V258.145H52.1084V264.826H50.0674V259.799H39.3896ZM39.7334 254.32H44.7822V251.27H39.7334V254.32Z" fill="#3E2050"/>
<path d="M73.5928 255.309V256.963H65.9443V260.701H63.9248V256.963H55.9756V255.309H73.5928ZM58.167 264.418V258.875H60.208V262.764H71.6377V264.418H58.167ZM58.2314 253.311V246.479H71.3154V253.311H58.2314ZM60.2295 251.699H69.2959V248.09H60.2295V251.699Z" fill="#3E2050"/>
<path d="M80.3389 246.693C81.9395 246.683 83.3037 247.284 84.2061 248.283H89.0186V245.576H91.0596V256.941H89.0186V254.342H84.1953C83.293 255.33 81.9287 255.921 80.3389 255.91C77.4385 255.921 75.2793 253.998 75.29 251.312C75.2793 248.595 77.4385 246.683 80.3389 246.693ZM77.2451 251.312C77.2344 252.999 78.5342 254.191 80.3389 254.17C82.0898 254.191 83.3896 252.999 83.3896 251.312C83.3896 249.583 82.0898 248.434 80.3389 248.455C78.5342 248.434 77.2344 249.583 77.2451 251.312ZM78.1045 261.088C78.0938 258.735 80.5859 257.36 84.6143 257.371C88.6211 257.36 91.1133 258.735 91.124 261.088C91.1133 263.43 88.6211 264.794 84.6143 264.783C80.5859 264.794 78.0938 263.43 78.1045 261.088ZM80.1025 261.088C80.0918 262.409 81.7891 263.183 84.6143 263.172C87.4395 263.183 89.126 262.409 89.126 261.088C89.126 259.713 87.4395 258.95 84.6143 258.939C81.7891 258.95 80.0918 259.713 80.1025 261.088ZM85.1406 249.916C85.2695 250.346 85.3447 250.818 85.3447 251.312C85.3447 251.785 85.2695 252.247 85.1406 252.666H89.0186V249.916H85.1406Z" fill="#3E2050"/>
<path d="M106.013 246.715L101.007 265.342H98.9658L103.972 246.715H106.013Z" fill="#3E2050"/>
<path d="M122.577 246.779C122.566 251.71 119.086 255.18 113.382 256.684L112.565 255.072C117.195 253.869 120.01 251.452 120.386 248.412H113.64V246.779H122.577ZM115.745 264.568V257.285H128.356V264.568H115.745ZM117.765 262.936H126.358V258.918H117.765V262.936ZM126.315 256.426V245.598H128.356V256.426H126.315Z" fill="#3E2050"/>
<path d="M138.54 249.594C138.54 252.086 140.377 254.428 143.353 255.373L142.3 256.963C140.087 256.232 138.422 254.718 137.541 252.795C136.682 254.89 134.963 256.544 132.675 257.35L131.622 255.738C134.619 254.718 136.467 252.226 136.478 249.594V248.756H132.159V247.102H142.772V248.756H138.54V249.594ZM134.78 264.418V258.316H136.843V262.764H147.95V264.418H134.78ZM145.329 259.648V245.598H147.37V259.648H145.329Z" fill="#3E2050"/>
<path d="M155.749 246.693C157.35 246.683 158.714 247.284 159.616 248.283H164.429V245.576H166.47V256.941H164.429V254.342H159.605C158.703 255.33 157.339 255.921 155.749 255.91C152.849 255.921 150.689 253.998 150.7 251.312C150.689 248.595 152.849 246.683 155.749 246.693ZM152.655 251.312C152.645 252.999 153.944 254.191 155.749 254.17C157.5 254.191 158.8 252.999 158.8 251.312C158.8 249.583 157.5 248.434 155.749 248.455C153.944 248.434 152.645 249.583 152.655 251.312ZM153.515 261.088C153.504 258.735 155.996 257.36 160.024 257.371C164.031 257.36 166.523 258.735 166.534 261.088C166.523 263.43 164.031 264.794 160.024 264.783C155.996 264.794 153.504 263.43 153.515 261.088ZM155.513 261.088C155.502 262.409 157.199 263.183 160.024 263.172C162.85 263.183 164.536 262.409 164.536 261.088C164.536 259.713 162.85 258.95 160.024 258.939C157.199 258.95 155.502 259.713 155.513 261.088ZM160.551 249.916C160.68 250.346 160.755 250.818 160.755 251.312C160.755 251.785 160.68 252.247 160.551 252.666H164.429V249.916H160.551Z" fill="#3E2050"/>
</g>
</svg>
