<svg width="208" height="322" viewBox="0 0 208 322" fill="none" xmlns="http://www.w3.org/2000/svg">
<rect x="0.5" y="0.5" width="207" height="321" stroke="#3D0E0E"/>
<path d="M0 99H208" stroke="#3D0E0E"/>
<path d="M72.6366 26.9001C78.6116 25.5501 80.4616 22.9251 80.4616 20.4751V19.5501H82.0866V20.4751C82.0866 24.7001 78.3616 27.0501 73.3616 28.2001L72.6366 26.9001ZM83.2116 23.3501C84.3116 24.6751 86.6366 25.8751 89.9616 26.4501L89.2366 27.8001C86.3366 27.2251 83.3616 26.0251 82.0616 24.2501L83.2116 23.3501ZM71.1616 31.2251H91.4366V32.7001H71.1616V31.2251ZM82.1366 40.1751H80.4366V33.7001H82.1366V40.1751Z" fill="#3D0E0E"/>
<path d="M99.3034 22.3501C98.0034 23.0751 97.2784 24.2001 97.2784 25.7001C97.2784 28.4001 99.9034 29.8001 103.628 29.8001C107.328 29.8001 109.953 28.4001 109.953 25.7001C109.953 23.0001 107.528 21.4501 103.628 21.4501C102.528 21.4501 101.528 21.5751 100.678 21.8001L99.8534 20.4751C100.928 20.1751 102.178 20.0001 103.628 20.0001C108.953 20.0001 111.628 22.3501 111.628 25.7001C111.628 29.6751 107.878 31.2251 103.628 31.2251C99.2534 31.2251 95.6284 29.6501 95.6284 25.7001C95.6284 23.7001 96.5534 22.0501 98.4284 21.0501L99.3034 22.3501ZM93.3784 36.1001H98.5034V32.1001H100.203V36.1001H107.078V32.1001H108.753V36.1001H113.878V37.5501H93.3784V36.1001Z" fill="#3D0E0E"/>
<path d="M133.439 18.8501H135.139V30.2751H133.439V18.8501ZM118.964 22.4501C118.614 23.0001 118.389 23.7001 118.389 24.5251C118.389 26.8001 119.989 28.1001 122.364 28.1001C124.764 28.1001 126.414 26.8001 126.414 24.5251C126.414 22.2501 124.739 20.9501 122.364 20.9501C121.414 20.9501 120.589 21.1501 119.939 21.5501L118.964 20.3751C119.889 19.8001 121.014 19.5001 122.364 19.5001C125.664 19.5001 127.964 21.3001 127.964 24.5251C127.964 27.8001 125.564 29.5751 122.364 29.5751C119.064 29.5751 116.814 27.6251 116.814 24.5251C116.814 23.2251 117.214 22.1251 117.889 21.3001L118.964 22.4501ZM133.339 33.1001H120.189V31.6251H135.139V34.4251H133.339V33.1001ZM120.189 35.3001H135.139V36.7501H120.189V35.3001ZM121.964 39.1001H135.864V40.5751H120.189V37.6251H121.964V39.1001Z" fill="#3D0E0E"/>
<path d="M96.746 55.1162L98.186 56.7002L88.466 65.2322L87.062 63.6122L96.746 55.1162ZM97.898 62.2802V81.0002H95.666V62.2802H97.898Z" fill="#3D0E0E"/>
<path d="M105.916 63.7922L112.468 55.1162L114.232 56.4842L107.716 65.0882L105.916 63.7922ZM115.384 70.2002V81.0002H113.152V70.2002H103.468V68.0402H113.152V62.2802H115.384V68.0402H121.54V70.2002H115.384Z" fill="#3D0E0E"/>
<g clip-path="url(#clip0_388_498)">
<path d="M51.5 157.852L57.371 161L56.0027 154.774L61 150.494L54.2828 149.794L51.5 144L48.7172 149.794L42 150.494L46.9973 154.774L45.6283 161L51.5 157.852Z" fill="#3F234D"/>
</g>
<g opacity="0.85">
<path d="M73.1347 159.7C77.7597 159.725 81.0847 161.95 81.0847 165.4C81.0847 168.6 78.2097 170.725 74.0847 171.025V175.6H83.1347V177.2H63.2847V175.6H72.1847V171.025C68.1097 170.725 65.2097 168.6 65.2347 165.4C65.2097 161.95 68.5597 159.725 73.1347 159.7ZM67.0847 165.4C67.0597 167.875 69.6347 169.5 73.1347 169.5C76.6597 169.5 79.2347 167.875 79.2347 165.4C79.2347 162.925 76.6597 161.275 73.1347 161.3C69.6347 161.275 67.0597 162.925 67.0847 165.4Z" fill="#3E2050"/>
<path d="M103.491 160.75V162.35H85.8911V160.75H93.7911V158.15H95.6911V160.75H103.491ZM84.8911 173.95V172.35H104.741V173.95H95.6911V180H93.7911V173.95H84.8911ZM87.6911 167.25C87.6411 164.9 90.3161 163.6 94.7411 163.6C99.1661 163.6 101.816 164.9 101.841 167.25C101.816 169.525 99.1661 170.825 94.7411 170.85C90.3161 170.825 87.6411 169.525 87.6911 167.25ZM89.6411 167.25C89.6411 168.575 91.5161 169.375 94.7411 169.35C97.9661 169.375 99.8411 168.575 99.8411 167.25C99.8411 165.875 97.9661 165.075 94.7411 165.05C91.5161 165.075 89.6411 165.875 89.6411 167.25Z" fill="#3E2050"/>
<path d="M119.448 178.25C115.698 178.25 113.123 176.175 113.148 173.3C113.123 171.025 114.723 169.15 116.748 168.8V168.75C114.973 168.325 113.823 166.7 113.798 164.75C113.823 162.075 116.173 160.075 119.448 160.1C122.648 160.075 124.998 162.075 124.998 164.75C124.998 166.7 123.823 168.325 122.098 168.75V168.8C124.098 169.15 125.698 171.025 125.698 173.3C125.698 176.175 123.098 178.25 119.448 178.25ZM115.348 173.2C115.298 175.05 116.873 176.3 119.448 176.3C121.948 176.3 123.523 175.05 123.498 173.2C123.523 171.225 121.798 169.8 119.448 169.8C117.048 169.8 115.298 171.225 115.348 173.2ZM115.948 164.95C115.948 166.725 117.398 167.925 119.448 167.95C121.423 167.925 122.873 166.725 122.898 164.95C122.873 163.175 121.473 161.975 119.448 162C117.323 161.975 115.948 163.175 115.948 164.95Z" fill="#3E2050"/>
<path d="M135.609 164.1C135.584 168.075 138.284 172.05 141.459 173.5L140.309 175.05C137.834 173.825 135.684 171.25 134.659 168.125C133.659 171.425 131.509 174.175 128.959 175.45L127.759 173.85C131.009 172.375 133.684 168.225 133.709 164.1V160.15H135.609V164.1ZM143.859 180V158.3H145.759V180H143.859Z" fill="#3E2050"/>
</g>
<path d="M52.444 218.978V193H54.521V218.978H52.444ZM35.363 204.315V213.584H33.317V194.829H35.363V202.517H43.082V204.315H35.363ZM44.477 194.829H46.523V210.422H44.477V194.829ZM59.822 203.447V205.245H55.606V203.447H59.822ZM46.554 213.584H36.758V211.817H46.554V213.584Z" fill="#260D32"/>
<path d="M84.3403 193V218.978H82.2633V193H84.3403ZM65.1823 196.069C66.2983 195.263 67.6313 194.798 69.2433 194.798C74.1103 194.798 76.6213 198.859 76.6213 204.346C76.6213 209.926 74.1413 213.894 69.2433 213.894C64.5623 213.894 61.9273 210.081 61.9273 204.377C61.9273 201.463 62.6403 199.045 63.8803 197.371L65.1823 198.797C64.3763 200.161 63.9113 201.99 63.9423 204.377C64.0043 208.965 65.6473 212.127 69.2433 212.127C72.8703 212.127 74.6373 209.027 74.6373 204.377C74.6373 199.603 72.8083 196.627 69.2433 196.627C68.0963 196.627 67.1663 196.937 66.3603 197.495L65.1823 196.069Z" fill="#260D32"/>
<path d="M117.369 200.223V201.99H112.068V207.942H109.96V193H112.068V200.223H117.369ZM105 196.007H91.1429V194.209H105V196.007ZM108.72 205.741C106.147 206.299 102.21 206.454 97.9629 206.454H91.1739V197.247H93.2509V204.687H97.9939C102.086 204.687 106.054 204.501 108.72 203.943V205.741ZM94.3359 201.246V199.51H104.039V201.246H94.3359ZM110.208 212.53V211.073H93.9639V209.275H112.378V212.53H110.208ZM93.9639 213.615H112.378V215.382H93.9639V213.615ZM96.1339 218.141H113.246V219.939H93.9639V216.467H96.1339V218.141Z" fill="#260D32"/>
<path d="M130.898 205.679H128.821V194.085H130.898V198.549H144.569V200.285H130.898V205.679ZM147.886 202.858H145.809V194.085H147.886V202.858ZM132.138 203.943H147.886V205.679H132.138V203.943ZM150.924 209.275V211.073H134.711C134.618 214.018 134.091 216.808 133.068 219.288L130.96 218.699C132.076 216.219 132.541 213.584 132.603 211.073H125.783V209.275H150.924ZM144.662 212.468L144.848 219.443H142.802L142.647 212.468H144.662Z" fill="#260D32"/>
<path d="M174.567 193H176.644V218.978H174.567V193ZM155.44 194.829H168.677V196.627H155.44V194.829ZM159.687 212.127C164.12 212.127 169.018 212.003 172.707 211.228V212.995C169.266 213.708 164.523 213.894 159.656 213.894H155.44V198.177H157.548V212.127H159.687ZM168.15 203.571V205.307H159.098V203.571H168.15Z" fill="#260D32"/>
<path d="M30 219.846H179.961V221.396H30V219.846Z" fill="#260D32"/>
<g opacity="0.85">
<path d="M92.1553 245.576V264.848H90.0873V245.576H92.1553ZM76.8433 253.76C76.8433 249.646 78.9333 247.028 81.8153 247.028C84.6973 247.028 86.8093 249.646 86.7873 253.76C86.8093 257.918 84.6973 260.536 81.8153 260.536C78.9333 260.536 76.8433 257.918 76.8433 253.76ZM78.8233 253.76C78.8233 256.818 80.0553 258.71 81.8153 258.688C83.5973 258.71 84.8293 256.818 84.8073 253.76C84.8293 250.746 83.5973 248.854 81.8153 248.832C80.0553 248.854 78.8233 250.746 78.8233 253.76Z" fill="#3E2050"/>
<path d="M104.965 251.428V253.804H112.753V255.432H95.1969V253.804H102.941V251.428H104.965ZM96.1209 250.9C99.9489 250.526 102.919 248.7 102.941 246.368V245.708H105.009V246.368C104.987 248.7 107.957 250.526 111.785 250.9L111.037 252.484C107.913 252.066 105.185 250.812 103.953 248.832C102.721 250.812 99.9929 252.066 96.8689 252.484L96.1209 250.9ZM97.3089 258.38V256.84H110.553V261.416H99.3329V263.044H111.081V264.628H97.3529V259.92H108.529V258.38H97.3089Z" fill="#3E2050"/>
<path d="M130.183 245.576V264.848H128.115V245.576H130.183ZM114.871 253.76C114.871 249.646 116.961 247.028 119.843 247.028C122.725 247.028 124.837 249.646 124.815 253.76C124.837 257.918 122.725 260.536 119.843 260.536C116.961 260.536 114.871 257.918 114.871 253.76ZM116.851 253.76C116.851 256.818 118.083 258.71 119.843 258.688C121.625 258.71 122.857 256.818 122.835 253.76C122.857 250.746 121.625 248.854 119.843 248.832C118.083 248.854 116.851 250.746 116.851 253.76Z" fill="#3E2050"/>
</g>
<defs>
<clipPath id="clip0_388_498">
<rect width="19" height="17" fill="white" transform="translate(42 144)"/>
</clipPath>
</defs>
</svg>
