<svg width="208" height="322" viewBox="0 0 208 322" fill="none" xmlns="http://www.w3.org/2000/svg">
<path fill-rule="evenodd" clip-rule="evenodd" d="M207 1H1V321H207V1ZM0 0V322H208V0H0Z" fill="#3D0E0E"/>
<path fill-rule="evenodd" clip-rule="evenodd" d="M208 99.5H0V98.5H208V99.5Z" fill="#3D0E0E"/>
<path d="M73.7175 27.4001H72.0675V19.5751H73.7175V27.4001ZM85.8675 21.0251H74.7175V19.5751H87.5675V24.9751H85.8675V21.0251ZM90.1675 30.0251V31.5001H69.4175V30.0251H78.9425V27.4001H74.7175V25.9751H87.5675V27.4001H80.6425V30.0251H90.1675ZM71.8675 33.7251H87.4925V40.5751H85.7925V35.1751H71.8675V33.7251Z" fill="#3D0E0E"/>
<path d="M98.0476 22.3501C96.7476 23.0751 96.0226 24.2001 96.0226 25.7001C96.0226 28.4001 98.6476 29.8001 102.373 29.8001C106.073 29.8001 108.698 28.4001 108.698 25.7001C108.698 23.0001 106.273 21.4501 102.373 21.4501C101.273 21.4501 100.273 21.5751 99.4226 21.8001L98.5976 20.4751C99.6726 20.1751 100.923 20.0001 102.373 20.0001C107.698 20.0001 110.373 22.3501 110.373 25.7001C110.373 29.6751 106.623 31.2251 102.373 31.2251C97.9976 31.2251 94.3726 29.6501 94.3726 25.7001C94.3726 23.7001 95.2976 22.0501 97.1726 21.0501L98.0476 22.3501ZM92.1226 36.1001H97.2476V32.1001H98.9476V36.1001H105.823V32.1001H107.498V36.1001H112.623V37.5501H92.1226V36.1001Z" fill="#3D0E0E"/>
<path d="M132.183 18.8501H133.883V30.2751H132.183V18.8501ZM117.708 22.4501C117.358 23.0001 117.133 23.7001 117.133 24.5251C117.133 26.8001 118.733 28.1001 121.108 28.1001C123.508 28.1001 125.158 26.8001 125.158 24.5251C125.158 22.2501 123.483 20.9501 121.108 20.9501C120.158 20.9501 119.333 21.1501 118.683 21.5501L117.708 20.3751C118.633 19.8001 119.758 19.5001 121.108 19.5001C124.408 19.5001 126.708 21.3001 126.708 24.5251C126.708 27.8001 124.308 29.5751 121.108 29.5751C117.808 29.5751 115.558 27.6251 115.558 24.5251C115.558 23.2251 115.958 22.1251 116.633 21.3001L117.708 22.4501ZM132.083 33.1001H118.933V31.6251H133.883V34.4251H132.083V33.1001ZM118.933 35.3001H133.883V36.7501H118.933V35.3001ZM120.708 39.1001H134.608V40.5751H118.933V37.6251H120.708V39.1001Z" fill="#3D0E0E"/>
<path d="M94.4745 55.1162L95.9145 56.7002L86.1945 65.2322L84.7905 63.6122L94.4745 55.1162ZM95.6265 62.2802V81.0002H93.3945V62.2802H95.6265Z" fill="#3D0E0E"/>
<path d="M105.48 57.6362V55.4762H114.408V57.6362H105.48ZM109.872 64.6562C114.444 64.6562 117.9 68.2202 117.9 72.9722C117.9 77.7962 114.336 81.3962 109.548 81.3962C104.472 81.3962 101.16 78.1202 101.16 73.0802H103.392C103.392 76.8242 105.804 79.2722 109.548 79.2722C113.04 79.2722 115.668 76.5722 115.668 72.9722C115.668 69.4442 113.184 66.7802 109.872 66.7802C108.144 66.7802 106.848 67.1762 105.372 67.8242V60.9482H107.532V64.9802C108.144 64.7642 109.008 64.6562 109.872 64.6562Z" fill="#3D0E0E"/>
<g opacity="0.85">
<path d="M71.1347 159.7C75.7597 159.725 79.0847 161.95 79.0847 165.4C79.0847 168.6 76.2097 170.725 72.0847 171.025V175.6H81.1347V177.2H61.2847V175.6H70.1847V171.025C66.1097 170.725 63.2097 168.6 63.2347 165.4C63.2097 161.95 66.5597 159.725 71.1347 159.7ZM65.0847 165.4C65.0597 167.875 67.6347 169.5 71.1347 169.5C74.6597 169.5 77.2347 167.875 77.2347 165.4C77.2347 162.925 74.6597 161.275 71.1347 161.3C67.6347 161.275 65.0597 162.925 65.0847 165.4Z" fill="#3E2050"/>
<path d="M101.491 160.75V162.35H83.8911V160.75H91.7911V158.15H93.6911V160.75H101.491ZM82.8911 173.95V172.35H102.741V173.95H93.6911V180H91.7911V173.95H82.8911ZM85.6911 167.25C85.6411 164.9 88.3161 163.6 92.7411 163.6C97.1661 163.6 99.8161 164.9 99.8411 167.25C99.8161 169.525 97.1661 170.825 92.7411 170.85C88.3161 170.825 85.6411 169.525 85.6911 167.25ZM87.6411 167.25C87.6411 168.575 89.5161 169.375 92.7411 169.35C95.9661 169.375 97.8411 168.575 97.8411 167.25C97.8411 165.875 95.9661 165.075 92.7411 165.05C89.5161 165.075 87.6411 165.875 87.6411 167.25Z" fill="#3E2050"/>
<path d="M117.448 178.25C113.698 178.25 111.123 176.175 111.148 173.3C111.123 171.025 112.723 169.15 114.748 168.8V168.75C112.973 168.325 111.823 166.7 111.798 164.75C111.823 162.075 114.173 160.075 117.448 160.1C120.648 160.075 122.998 162.075 122.998 164.75C122.998 166.7 121.823 168.325 120.098 168.75V168.8C122.098 169.15 123.698 171.025 123.698 173.3C123.698 176.175 121.098 178.25 117.448 178.25ZM113.348 173.2C113.298 175.05 114.873 176.3 117.448 176.3C119.948 176.3 121.523 175.05 121.498 173.2C121.523 171.225 119.798 169.8 117.448 169.8C115.048 169.8 113.298 171.225 113.348 173.2ZM113.948 164.95C113.948 166.725 115.398 167.925 117.448 167.95C119.423 167.925 120.873 166.725 120.898 164.95C120.873 163.175 119.473 161.975 117.448 162C115.323 161.975 113.948 163.175 113.948 164.95Z" fill="#3E2050"/>
<path d="M133.609 164.1C133.584 168.075 136.284 172.05 139.459 173.5L138.309 175.05C135.834 173.825 133.684 171.25 132.659 168.125C131.659 171.425 129.509 174.175 126.959 175.45L125.759 173.85C129.009 172.375 131.684 168.225 131.709 164.1V160.15H133.609V164.1ZM141.859 180V158.3H143.759V180H141.859Z" fill="#3E2050"/>
</g>
<path d="M49.6409 198.393H69.9149V200.16H49.6409V198.393ZM65.7919 201.4C65.6369 204.5 65.3579 207.755 65.1099 210.018H69.9149V211.785H49.6409V210.018H63.1259C63.3429 207.538 63.5599 204.345 63.6529 201.4H65.7919ZM56.0269 201.4C56.0889 203.539 56.2439 206.608 56.4299 208.778L54.3529 208.84C54.1979 206.639 54.0429 203.539 53.9809 201.4H56.0269ZM47.0679 217.644H72.4879V219.442H47.0679V217.644Z" fill="#260D32"/>
<path d="M96.1544 222.232V196.254H98.2315V222.232H96.1544ZM77.0275 199.881V198.083H89.6134V208.592H87.5365V199.881H77.0275ZM77.0275 208.592V206.794H86.2345V208.592H77.0275ZM79.1355 215.66H81.1194C85.8624 215.66 90.9154 215.412 94.6044 214.575V216.373C91.1634 217.148 86.2344 217.458 81.0884 217.458H77.0275V209.987H79.1355V215.66Z" fill="#260D32"/>
<path d="M127.602 196.254V222.232H125.494V196.254H127.602ZM117.062 206.143H119.914V196.564H121.991V207.91H117.062V206.143ZM104.879 216.249V198.393H106.894V216.249H104.879ZM113.776 200.16H108.134V198.393H115.822V213.211H113.776V200.16ZM121.991 221.798H119.914V208.995H121.991V221.798ZM115.822 216.249H108.134V214.451H115.822V216.249Z" fill="#260D32"/>
<path d="M152.751 222.232V196.254H154.828V222.232H152.751ZM134.244 199.881V198.083H146.83V208.592H144.753V199.881H134.244ZM160.129 206.701V208.499H155.913V206.701H160.129ZM134.244 208.592V206.794H143.482V208.592H134.244ZM136.352 215.66H138.336C142.769 215.66 147.512 215.443 151.201 214.606V216.404C147.76 217.179 143.141 217.458 138.305 217.458H134.244V209.987H136.352V215.66Z" fill="#260D32"/>
<path d="M45.8589 223.1H160.129V224.65H45.8589V223.1Z" fill="#260D32"/>
<path fill-rule="evenodd" clip-rule="evenodd" d="M49.5408 198.293H70.0148V200.26H49.5408V198.293ZM65.8969 201.3L65.8917 201.405C65.7391 204.457 65.4664 207.658 65.2213 209.918H70.0148V211.885H49.5408V209.918H63.0341C63.2483 207.452 63.461 204.303 63.5528 201.397L63.5559 201.3H65.8969ZM56.1239 201.3L56.1267 201.397C56.1887 203.535 56.3436 206.602 56.5294 208.769L56.5385 208.875L54.2598 208.943L54.253 208.847C54.0979 206.645 53.9429 203.543 53.8808 201.403L53.8778 201.3H56.1239ZM46.9678 217.544H72.5878V219.542H46.9678V217.544ZM96.0544 222.332V196.154H98.3314V222.332H96.0544ZM76.9274 199.981V197.983H89.7133V208.692H87.4363V199.981H76.9274ZM76.9274 208.692V206.694H86.3344V208.692H76.9274ZM94.7044 214.45V216.453L94.6263 216.47C91.1742 217.248 86.2363 217.558 81.0883 217.558H76.9274V209.887H79.2354V215.56H81.1193C85.8612 215.56 90.9048 215.312 94.5822 214.477L94.7044 214.45ZM127.702 196.154V222.332H125.394V196.154H127.702ZM116.962 206.043H119.814V196.464H122.091V208.01H116.962V206.043ZM104.779 216.349V198.293H106.994V216.349H104.779ZM108.034 200.26V198.293H115.922V213.311H113.676V200.26H108.034ZM122.091 221.898H119.814V208.895H122.091V221.898ZM115.922 216.349H108.034V214.351H115.922V216.349ZM152.651 222.332V196.154H154.928V222.332H152.651ZM134.144 199.981V197.983H146.93V208.692H144.653V199.981H134.144ZM160.229 206.601V208.599H155.813V206.601H160.229ZM134.144 208.692V206.694H143.582V208.692H134.144ZM151.301 214.481V216.484L151.223 216.501C147.771 217.279 143.143 217.558 138.305 217.558H134.144V209.887H136.452V215.56H138.336C142.768 215.56 147.502 215.343 151.179 214.508L151.301 214.481ZM45.7588 223H160.229V224.75H45.7588V223ZM69.9148 198.393H49.6408V200.16H69.9148V198.393ZM65.1098 210.018C65.3578 207.755 65.6368 204.5 65.7918 201.4H63.6528C63.5598 204.345 63.3428 207.538 63.1258 210.018H49.6408V211.785H69.9148V210.018H65.1098ZM56.4298 208.778C56.2438 206.608 56.0888 203.539 56.0268 201.4H53.9808C54.0428 203.539 54.1978 206.639 54.3528 208.84L56.4298 208.778ZM72.4878 217.644H47.0678V219.442H72.4878V217.644ZM96.1544 196.254V222.232H98.2314V196.254H96.1544ZM77.0274 198.083V199.881H87.5364V208.592H89.6133V198.083H77.0274ZM77.0274 206.794V208.592H86.2344V206.794H77.0274ZM81.1193 215.66H79.1354V209.987H77.0274V217.458H81.0883C86.2344 217.458 91.1634 217.148 94.6043 216.373V214.575C90.9154 215.412 85.8624 215.66 81.1193 215.66ZM127.602 222.232V196.254H125.494V222.232H127.602ZM119.914 206.143H117.062V207.91H121.991V196.564H119.914V206.143ZM104.879 198.393V216.249H106.894V198.393H104.879ZM108.134 200.16H113.776V213.211H115.822V198.393H108.134V200.16ZM119.914 221.798H121.991V208.995H119.914V221.798ZM108.134 216.249H115.822V214.451H108.134V216.249ZM152.751 196.254V222.232H154.828V196.254H152.751ZM134.244 198.083V199.881H144.753V208.592H146.83V198.083H134.244ZM160.129 208.499V206.701H155.913V208.499H160.129ZM134.244 206.794V208.592H143.482V206.794H134.244ZM138.336 215.66H136.352V209.987H134.244V217.458H138.305C143.141 217.458 147.76 217.179 151.201 216.404V214.606C147.512 215.443 142.769 215.66 138.336 215.66ZM160.129 223.1H45.8588V224.65H160.129V223.1Z" fill="#240D32"/>
<g opacity="0.85">
<path d="M91.6504 255.803V259.133C93.4121 259.036 95.1953 258.886 96.8711 258.639L97.0215 260.143C92.6709 260.948 87.998 260.98 84.5605 260.98L84.3027 259.305C85.8496 259.294 87.6865 259.283 89.6094 259.219V255.803H91.6504ZM84.8184 254.879C87.6865 254.052 89.4805 252.043 89.5879 249.68H85.334V248.025H89.6094V245.727H91.6504V248.025H95.9688V249.68H91.6504C91.7578 251.946 93.584 253.891 96.4629 254.664L95.5176 256.254C93.2188 255.599 91.5 254.202 90.6299 252.376C89.792 254.299 88.0947 255.771 85.7852 256.426L84.8184 254.879ZM98.0742 264.869V245.576H100.115V264.869H98.0742Z" fill="#3E2050"/>
<path d="M119.129 245.576V264.826H117.088V245.576H119.129ZM103.316 259.455C106.958 259.466 111.728 259.466 115.906 258.918L116.057 260.422C111.717 261.163 107.151 261.185 103.596 261.174L103.316 259.455ZM103.725 249.723V248.09H108.58V245.791H110.643V248.09H115.477V249.723H103.725ZM104.971 254.342C104.949 252.107 106.861 250.689 109.611 250.689C112.372 250.689 114.263 252.107 114.273 254.342C114.263 256.501 112.372 257.962 109.611 257.951C106.861 257.962 104.949 256.501 104.971 254.342ZM106.883 254.342C106.861 255.577 107.989 256.372 109.611 256.383C111.223 256.372 112.329 255.577 112.34 254.342C112.329 253.085 111.223 252.269 109.611 252.258C107.989 252.269 106.861 253.085 106.883 254.342Z" fill="#3E2050"/>
</g>
</svg>
