<svg width="209" height="322" viewBox="0 0 209 322" fill="none" xmlns="http://www.w3.org/2000/svg">
<path fill-rule="evenodd" clip-rule="evenodd" d="M207.5 322V0H208.5V322H207.5Z" fill="#3D0E0E"/>
<path fill-rule="evenodd" clip-rule="evenodd" d="M207 1H1V321H207V1ZM0 0V322H208V0H0Z" fill="#3D0E0E"/>
<path fill-rule="evenodd" clip-rule="evenodd" d="M208 99.5H0V98.5H208V99.5Z" fill="#3D0E0E"/>
<path d="M87.2385 18.8501V39.8001H85.5635V18.8501H87.2385ZM80.9385 21.3251C78.1635 21.3751 74.9135 21.4501 72.9385 20.7501L73.2635 19.4501C75.7635 20.2751 78.4635 20.0001 80.9385 20.0001V21.3251ZM83.3135 24.7751H70.2385V23.3501H83.3135V24.7751ZM77.6385 35.6501C80.1385 35.6001 82.2635 35.5001 84.4135 35.1001L84.4385 36.5501C81.7885 37.0001 78.8885 37.1251 75.2635 37.1251H69.0635V35.6751H75.9885V33.2001C73.3635 33.0501 71.4385 32.1001 71.4385 29.7751C71.4385 28.4751 72.0635 27.5251 73.2635 26.9501L74.0885 28.1251C73.4135 28.4501 72.9885 28.9751 72.9885 29.7751C72.9885 31.3501 74.6885 31.9251 76.8135 31.9251C78.9635 31.9251 80.6385 31.3501 80.6385 29.7751C80.6385 28.1751 78.9635 27.6501 76.8135 27.6501C76.3135 27.6501 75.8135 27.6751 75.3635 27.7501L74.6135 26.5251C75.2635 26.4001 75.9885 26.3251 76.8135 26.3251C80.2885 26.3251 82.1885 27.5251 82.1885 29.7751C82.1885 32.1001 80.2135 33.0501 77.6385 33.2001V35.6501ZM91.5135 28.0251V29.4501H88.1135V28.0251H91.5135Z" fill="#3D0E0E"/>
<path d="M98.4016 22.3501C97.1016 23.0751 96.3766 24.2001 96.3766 25.7001C96.3766 28.4001 99.0016 29.8001 102.727 29.8001C106.427 29.8001 109.052 28.4001 109.052 25.7001C109.052 23.0001 106.627 21.4501 102.727 21.4501C101.627 21.4501 100.627 21.5751 99.7766 21.8001L98.9516 20.4751C100.027 20.1751 101.277 20.0001 102.727 20.0001C108.052 20.0001 110.727 22.3501 110.727 25.7001C110.727 29.6751 106.977 31.2251 102.727 31.2251C98.3516 31.2251 94.7266 29.6501 94.7266 25.7001C94.7266 23.7001 95.6516 22.0501 97.5266 21.0501L98.4016 22.3501ZM92.4766 36.1001H97.6016V32.1001H99.3016V36.1001H106.177V32.1001H107.852V36.1001H112.977V37.5501H92.4766V36.1001Z" fill="#3D0E0E"/>
<path d="M132.537 18.8501H134.238V30.2751H132.537V18.8501ZM118.062 22.4501C117.713 23.0001 117.488 23.7001 117.488 24.5251C117.488 26.8001 119.088 28.1001 121.463 28.1001C123.863 28.1001 125.513 26.8001 125.513 24.5251C125.513 22.2501 123.838 20.9501 121.463 20.9501C120.513 20.9501 119.688 21.1501 119.038 21.5501L118.062 20.3751C118.988 19.8001 120.113 19.5001 121.463 19.5001C124.763 19.5001 127.063 21.3001 127.063 24.5251C127.063 27.8001 124.663 29.5751 121.463 29.5751C118.163 29.5751 115.913 27.6251 115.913 24.5251C115.913 23.2251 116.313 22.1251 116.988 21.3001L118.062 22.4501ZM132.438 33.1001H119.288V31.6251H134.238V34.4251H132.438V33.1001ZM119.288 35.3001H134.238V36.7501H119.288V35.3001ZM121.062 39.1001H134.963V40.5751H119.288V37.6251H121.062V39.1001Z" fill="#3D0E0E"/>
<path d="M95.3051 65.1239C96.2411 63.9359 96.8531 62.9279 96.8531 61.6319C96.8531 59.1119 94.9091 57.2039 92.3531 57.2039C89.7971 57.2039 87.8891 59.0399 87.8891 61.4879C87.8891 63.1439 88.6811 64.2959 89.7611 65.2679L88.2491 66.7799C86.7011 65.6279 85.6571 63.7199 85.6571 61.4879C85.6571 57.8159 88.5371 55.0439 92.3531 55.0439C96.2051 55.0439 99.0851 57.8519 99.0851 61.6319C99.0851 62.9999 98.5091 64.7279 97.1411 66.4199L89.9051 75.5639L88.1411 74.1959L95.3051 65.1239ZM100.057 78.8399V80.9999H85.2251V78.8399H100.057Z" fill="#3D0E0E"/>
<path d="M111.963 81.3959C107.355 81.3959 104.547 76.1039 104.547 68.2199C104.547 63.9719 105.303 60.5159 106.923 58.0679L108.399 59.7599C107.283 61.9199 106.779 65.1959 106.779 68.2199C106.779 74.5199 108.651 79.2359 111.963 79.2359C115.275 79.2359 117.147 74.5199 117.147 68.2199C117.147 61.9199 115.275 57.2039 111.963 57.2039C111.639 57.2039 111.279 57.2759 111.171 57.3119L110.271 55.3319C110.775 55.1519 111.279 55.0439 111.963 55.0439C116.571 55.0439 119.379 60.3359 119.379 68.2199C119.379 76.1039 116.571 81.3959 111.963 81.3959Z" fill="#3D0E0E"/>
<g opacity="0.85">
<path d="M73.1392 159.689C77.7534 159.714 81.0737 161.96 81.0737 165.378C81.0737 168.613 78.1929 170.749 74.0669 171.03V175.583H83.1245V177.194H63.2515V175.583H72.187V171.03C68.0854 170.737 65.2046 168.601 65.2046 165.378C65.2046 161.96 68.5371 159.714 73.1392 159.689ZM67.0601 165.378C67.0479 167.88 69.6235 169.504 73.1392 169.528C76.6548 169.504 79.2183 167.88 79.2183 165.378C79.2183 162.924 76.6548 161.264 73.1392 161.276C69.6235 161.264 67.0479 162.924 67.0601 165.378Z" fill="#3E2050"/>
<path d="M103.486 160.764V162.351H85.8833V160.764H93.7935V158.151H95.6733V160.764H103.486ZM84.8579 173.923V172.336H104.731V173.923H95.6733V180.026H93.7935V173.923H84.8579ZM87.6655 167.233C87.6411 164.89 90.3022 163.596 94.7456 163.596C99.1523 163.596 101.813 164.89 101.826 167.233C101.813 169.528 99.1523 170.822 94.7456 170.847C90.3022 170.822 87.6411 169.528 87.6655 167.233ZM89.6431 167.233C89.6187 168.576 91.5107 169.37 94.7456 169.357C97.9438 169.37 99.8237 168.576 99.8481 167.233C99.8237 165.866 97.9438 165.073 94.7456 165.061C91.5107 165.073 89.6187 165.866 89.6431 167.233Z" fill="#3E2050"/>
<path d="M119.428 178.244C115.705 178.244 113.142 176.181 113.154 173.312C113.142 171.03 114.729 169.138 116.743 168.82V168.723C114.985 168.32 113.825 166.696 113.837 164.768C113.825 162.07 116.193 160.08 119.428 160.08C122.651 160.08 125.019 162.07 125.043 164.768C125.019 166.696 123.847 168.32 122.114 168.723V168.82C124.116 169.138 125.703 171.03 125.727 173.312C125.703 176.181 123.115 178.244 119.428 178.244ZM115.351 173.19C115.314 175.046 116.889 176.303 119.428 176.315C121.955 176.303 123.53 175.046 123.53 173.19C123.53 171.237 121.809 169.797 119.428 169.797C117.06 169.797 115.314 171.237 115.351 173.19ZM115.961 164.938C115.974 166.721 117.402 167.929 119.428 167.941C121.442 167.929 122.895 166.721 122.895 164.938C122.895 163.168 121.491 161.972 119.428 161.984C117.329 161.972 115.974 163.168 115.961 164.938Z" fill="#3E2050"/>
<path d="M135.615 164.108C135.603 168.076 138.3 172.055 141.499 173.508L140.327 175.021C137.849 173.825 135.712 171.25 134.675 168.161C133.674 171.433 131.538 174.179 128.999 175.461L127.778 173.85C131.013 172.373 133.686 168.222 133.71 164.108V160.153H135.615V164.108ZM143.867 180.026V158.273H145.795V180.026H143.867Z" fill="#3E2050"/>
</g>
<path d="M99.3539 196.254V222.232H97.2769V196.254H99.3539ZM88.8449 208.127H92.1309V196.564H94.2079V209.925H88.8449V208.127ZM77.9639 197.308C80.7539 198.331 83.7609 197.99 86.5199 197.99V199.633C83.4509 199.695 79.8549 199.788 77.6229 198.889L77.9639 197.308ZM75.2979 203.105H88.8759V204.872H75.2979V203.105ZM79.1419 208.375C80.0409 207.879 81.1879 207.6 82.4899 207.6C86.1789 207.6 88.4419 209.77 88.4419 212.87C88.4419 215.908 86.1789 218.078 82.4899 218.078C78.8009 218.078 76.5379 215.908 76.5379 212.87C76.5379 211.475 77.0029 210.235 77.8709 209.336L79.1729 210.731C78.7079 211.32 78.4599 212.064 78.4599 212.87C78.4599 214.916 79.9169 216.342 82.4899 216.342C85.0319 216.342 86.5199 214.916 86.5199 212.87C86.5199 210.917 85.0319 209.336 82.4899 209.336C81.6529 209.336 80.9089 209.522 80.3199 209.801L79.1419 208.375ZM94.2079 221.798H92.1309V211.165H94.2079V221.798Z" fill="#260D32"/>
<path d="M124.521 222.232V196.254H126.598V222.232H124.521ZM106.014 199.881V198.083H118.6V208.592H116.523V199.881H106.014ZM131.899 206.701V208.499H127.683V206.701H131.899ZM106.014 208.592V206.794H115.252V208.592H106.014ZM108.122 215.66H110.106C114.539 215.66 119.282 215.443 122.971 214.606V216.404C119.53 217.179 114.911 217.458 110.075 217.458H106.014V209.987H108.122V215.66Z" fill="#260D32"/>
<path d="M74.0889 223.1H131.899V224.65H74.0889V223.1Z" fill="#260D32"/>
<path fill-rule="evenodd" clip-rule="evenodd" d="M99.4538 196.154V222.332H97.1768V196.154H99.4538ZM88.7448 208.027H92.0308V196.464H94.3078V210.025H88.7448V208.027ZM77.8903 197.174L77.9982 197.214C79.3791 197.72 80.8164 197.89 82.2563 197.932C83.1286 197.958 83.9945 197.937 84.8494 197.917C85.4113 197.903 85.9686 197.89 86.5198 197.89H86.6198V199.731L86.3303 199.737C84.85 199.767 83.2532 199.799 81.7522 199.721C80.1876 199.64 78.7172 199.437 77.5854 198.982L77.5072 198.95L77.8903 197.174ZM75.1978 203.005H88.9758V204.972H75.1978V203.005ZM78.9879 208.346L79.0935 208.287C80.0098 207.782 81.174 207.5 82.4898 207.5C84.3537 207.5 85.8674 208.048 86.9163 208.998C87.966 209.949 88.5418 211.294 88.5418 212.87C88.5418 214.415 87.9656 215.745 86.916 216.687C85.8672 217.629 84.3537 218.178 82.4898 218.178C80.6259 218.178 79.1124 217.629 78.0636 216.687C77.014 215.745 76.4378 214.415 76.4378 212.87C76.4378 211.452 76.9105 210.186 77.7988 209.266L77.872 209.191L79.3045 210.725L79.2513 210.793C78.8013 211.363 78.5598 212.085 78.5598 212.87C78.5598 213.868 78.9144 214.707 79.5765 215.298C80.2397 215.89 81.2213 216.242 82.4898 216.242C83.7425 216.242 84.7243 215.891 85.3916 215.298C86.0578 214.707 86.4198 213.867 86.4198 212.87C86.4198 211.92 86.0582 211.063 85.39 210.444C84.7217 209.824 83.7398 209.436 82.4898 209.436C81.6674 209.436 80.938 209.619 80.3626 209.891L80.2922 209.924L78.9879 208.346ZM94.3078 221.898H92.0308V211.065H94.3078V221.898ZM124.421 222.332V196.154H126.698V222.332H124.421ZM105.914 199.981V197.983H118.7V208.692H116.423V199.981H105.914ZM131.999 206.601V208.599H127.583V206.601H131.999ZM105.914 208.692V206.694H115.352V208.692H105.914ZM123.071 214.481V216.484L122.993 216.501C119.541 217.279 114.913 217.558 110.075 217.558H105.914V209.887H108.222V215.56H110.106C114.538 215.56 119.272 215.343 122.949 214.508L123.071 214.481ZM73.9888 223H131.999V224.75H73.9888V223ZM99.3538 222.232V196.254H97.2768V222.232H99.3538ZM92.1308 208.127H88.8448V209.925H94.2078V196.564H92.1308V208.127ZM84.857 198.017C82.5797 198.071 80.2019 198.128 77.9638 197.308L77.6228 198.889C79.8088 199.769 83.3032 199.698 86.3294 199.637L86.5198 199.633V197.99C85.974 197.99 85.4186 198.003 84.857 198.017ZM88.8758 203.105H75.2978V204.872H88.8758V203.105ZM82.4898 207.6C81.1878 207.6 80.0408 207.879 79.1418 208.375L80.3198 209.801C80.9088 209.522 81.6528 209.336 82.4898 209.336C85.0318 209.336 86.5198 210.917 86.5198 212.87C86.5198 214.916 85.0318 216.342 82.4898 216.342C79.9168 216.342 78.4598 214.916 78.4598 212.87C78.4598 212.064 78.7078 211.32 79.1728 210.731L77.8708 209.336C77.0028 210.235 76.5378 211.475 76.5378 212.87C76.5378 215.908 78.8008 218.078 82.4898 218.078C86.1788 218.078 88.4418 215.908 88.4418 212.87C88.4418 209.77 86.1788 207.6 82.4898 207.6ZM92.1308 221.798H94.2078V211.165H92.1308V221.798ZM124.521 196.254V222.232H126.598V196.254H124.521ZM106.014 198.083V199.881H116.523V208.592H118.6V198.083H106.014ZM127.683 208.499H131.899V206.701H127.683V208.499ZM106.014 206.794V208.592H115.252V206.794H106.014ZM110.106 215.66H108.122V209.987H106.014V217.458H110.075C114.911 217.458 119.53 217.179 122.971 216.404V214.606C119.282 215.443 114.539 215.66 110.106 215.66ZM131.899 223.1H74.0888V224.65H131.899V223.1Z" fill="#240D32"/>
<g opacity="0.85">
<path d="M58.6006 260.744V262.42H40.9834V260.744H48.7607V256.189H50.8018V260.744H58.6006ZM41.7998 255.309C45.377 254.707 48.6963 252.032 48.6963 249.078V248.906H42.4443V247.23H57.0752V248.906H50.8232V249.078C50.8232 252.032 54.1641 254.653 57.8271 255.223L57.0107 256.834C53.8955 256.254 51.0273 254.449 49.7705 251.914C48.5352 254.481 45.6885 256.318 42.6377 256.92L41.7998 255.309Z" fill="#3E2050"/>
<path d="M68.7627 246.027C72.8984 246.038 75.6055 247.531 75.5947 249.916C75.6055 252.301 72.8984 253.783 68.7627 253.783C64.627 253.783 61.8984 252.301 61.9092 249.916C61.8984 247.531 64.627 246.038 68.7627 246.027ZM59.9971 256.77V255.115H77.5713V256.77H73.21V260.594H71.1689V256.77H68.1396V260.594H66.0771V256.77H59.9971ZM62.1025 264.418V258.939H64.165V262.764H75.7881V264.418H62.1025ZM64.1006 249.916C64.0791 251.323 65.9482 252.15 68.7627 252.172C71.5879 252.15 73.4355 251.323 73.4463 249.916C73.4355 248.509 71.5879 247.671 68.7627 247.66C65.9482 247.671 64.0791 248.509 64.1006 249.916Z" fill="#3E2050"/>
<path d="M84.167 247.016C87.0459 247.026 89.0977 249.647 89.1084 253.762C89.0977 257.919 87.0459 260.54 84.167 260.529C81.2881 260.54 79.2363 257.919 79.2471 253.762C79.2363 249.647 81.2881 247.026 84.167 247.016ZM81.2021 253.762C81.1914 256.823 82.416 258.703 84.167 258.703C85.9502 258.703 87.1533 256.823 87.1533 253.762C87.1533 250.743 85.9502 248.853 84.167 248.842C82.416 248.853 81.1914 250.743 81.2021 253.762ZM91.9658 264.826V245.576H94.0068V253.117H97.1006V254.836H94.0068V264.826H91.9658Z" fill="#3E2050"/>
<path d="M110.013 246.715L105.007 265.342H102.966L107.972 246.715H110.013Z" fill="#3E2050"/>
<path d="M126.577 246.779C126.566 251.71 123.086 255.18 117.382 256.684L116.565 255.072C121.195 253.869 124.01 251.452 124.386 248.412H117.64V246.779H126.577ZM119.745 264.568V257.285H132.356V264.568H119.745ZM121.765 262.936H130.358V258.918H121.765V262.936ZM130.315 256.426V245.598H132.356V256.426H130.315Z" fill="#3E2050"/>
<path d="M151.972 245.576V264.826H150.017V245.576H151.972ZM135.622 253.891C135.622 249.723 137.255 247.112 139.769 247.123C141.412 247.112 142.68 248.208 143.367 250.109H146.171V245.941H148.104V263.881H146.171V257.672H143.378C142.68 259.584 141.412 260.69 139.769 260.68C137.255 260.69 135.622 258.069 135.622 253.891ZM137.491 253.891C137.48 256.952 138.34 258.757 139.769 258.746C141.187 258.757 142.089 256.952 142.089 253.891C142.089 250.818 141.187 249.024 139.769 249.035C138.34 249.024 137.48 250.818 137.491 253.891ZM143.797 251.764C143.904 252.419 143.958 253.128 143.958 253.891C143.958 254.643 143.904 255.352 143.797 255.996H146.171V251.764H143.797Z" fill="#3E2050"/>
<path d="M161.554 249.594C161.554 252.086 163.391 254.428 166.366 255.373L165.313 256.963C163.101 256.232 161.436 254.718 160.555 252.795C159.695 254.89 157.977 256.544 155.688 257.35L154.636 255.738C157.633 254.718 159.48 252.226 159.491 249.594V248.756H155.173V247.102H165.786V248.756H161.554V249.594ZM157.794 264.418V258.316H159.856V262.764H170.964V264.418H157.794ZM168.343 259.648V245.598H170.384V259.648H168.343Z" fill="#3E2050"/>
</g>
</svg>
