<svg width="211" height="324" viewBox="0 0 211 324" fill="none" xmlns="http://www.w3.org/2000/svg">
<path d="M72.6366 27.8996C78.6116 26.5496 80.4616 23.9246 80.4616 21.4746V20.5496H82.0866V21.4746C82.0866 25.6996 78.3616 28.0496 73.3616 29.1996L72.6366 27.8996ZM83.2116 24.3496C84.3116 25.6746 86.6366 26.8746 89.9616 27.4496L89.2366 28.7996C86.3366 28.2246 83.3616 27.0246 82.0616 25.2496L83.2116 24.3496ZM71.1616 32.2246H91.4366V33.6996H71.1616V32.2246ZM82.1366 41.1746H80.4366V34.6996H82.1366V41.1746Z" fill="#3D0E0E"/>
<path d="M99.3034 23.3496C98.0034 24.0746 97.2784 25.1996 97.2784 26.6996C97.2784 29.3996 99.9034 30.7996 103.628 30.7996C107.328 30.7996 109.953 29.3996 109.953 26.6996C109.953 23.9996 107.528 22.4496 103.628 22.4496C102.528 22.4496 101.528 22.5746 100.678 22.7996L99.8534 21.4746C100.928 21.1746 102.178 20.9996 103.628 20.9996C108.953 20.9996 111.628 23.3496 111.628 26.6996C111.628 30.6746 107.878 32.2246 103.628 32.2246C99.2534 32.2246 95.6284 30.6496 95.6284 26.6996C95.6284 24.6996 96.5534 23.0496 98.4284 22.0496L99.3034 23.3496ZM93.3784 37.0996H98.5034V33.0996H100.203V37.0996H107.078V33.0996H108.753V37.0996H113.878V38.5496H93.3784V37.0996Z" fill="#3D0E0E"/>
<path d="M133.439 19.8496H135.139V31.2746H133.439V19.8496ZM118.964 23.4496C118.614 23.9996 118.389 24.6996 118.389 25.5246C118.389 27.7996 119.989 29.0996 122.364 29.0996C124.764 29.0996 126.414 27.7996 126.414 25.5246C126.414 23.2496 124.739 21.9496 122.364 21.9496C121.414 21.9496 120.589 22.1496 119.939 22.5496L118.964 21.3746C119.889 20.7996 121.014 20.4996 122.364 20.4996C125.664 20.4996 127.964 22.2996 127.964 25.5246C127.964 28.7996 125.564 30.5746 122.364 30.5746C119.064 30.5746 116.814 28.6246 116.814 25.5246C116.814 24.2246 117.214 23.1246 117.889 22.2996L118.964 23.4496ZM133.339 34.0996H120.189V32.6246H135.139V35.4246H133.339V34.0996ZM120.189 36.2996H135.139V37.7496H120.189V36.2996ZM121.964 40.0996H135.864V41.5746H120.189V38.6246H121.964V40.0996Z" fill="#3D0E0E"/>
<path d="M96.7458 56.116L98.1858 57.7L88.4658 66.232L87.0618 64.612L96.7458 56.116ZM97.8978 63.28V82H95.6658V63.28H97.8978ZM105.915 64.792L112.467 56.116L114.231 57.484L107.715 66.088L105.915 64.792ZM115.383 71.2V82H113.151V71.2H103.467V69.04H113.151V63.28H115.383V69.04H121.539V71.2H115.383Z" fill="#3D0E0E"/>
<path d="M210 1V323" stroke="#3D0E0E"/>
<path d="M2 100H210" stroke="#3D0E0E"/>
<path d="M2 323H210" stroke="#3D0E0E"/>
<path d="M1 1V323" stroke="#3D0E0E"/>
<path d="M2 1H210" stroke="#3D0E0E"/>
<g clip-path="url(#clip0_38_416)">
<path d="M51.5 158.852L57.371 162L56.0027 155.774L61 151.494L54.2828 150.794L51.5 145L48.7172 150.794L42 151.494L46.9973 155.774L45.6283 162L51.5 158.852Z" fill="#3F234D"/>
</g>
<path opacity="0.85" d="M73.1348 160.7C77.7598 160.725 81.0848 162.95 81.0848 166.4C81.0848 169.6 78.2098 171.725 74.0848 172.025V176.6H83.1348V178.2H63.2848V176.6H72.1848V172.025C68.1098 171.725 65.2098 169.6 65.2348 166.4C65.2098 162.95 68.5598 160.725 73.1348 160.7ZM67.0848 166.4C67.0598 168.875 69.6348 170.5 73.1348 170.5C76.6598 170.5 79.2348 168.875 79.2348 166.4C79.2348 163.925 76.6598 162.275 73.1348 162.3C69.6348 162.275 67.0598 163.925 67.0848 166.4ZM103.491 161.75V163.35H85.8912V161.75H93.7912V159.15H95.6912V161.75H103.491ZM84.8912 174.95V173.35H104.741V174.95H95.6912V181H93.7912V174.95H84.8912ZM87.6912 168.25C87.6412 165.9 90.3162 164.6 94.7412 164.6C99.1662 164.6 101.816 165.9 101.841 168.25C101.816 170.525 99.1662 171.825 94.7412 171.85C90.3162 171.825 87.6412 170.525 87.6912 168.25ZM89.6412 168.25C89.6412 169.575 91.5162 170.375 94.7412 170.35C97.9662 170.375 99.8412 169.575 99.8412 168.25C99.8412 166.875 97.9662 166.075 94.7412 166.05C91.5162 166.075 89.6412 166.875 89.6412 168.25ZM119.448 179.25C115.698 179.25 113.123 177.175 113.148 174.3C113.123 172.025 114.723 170.15 116.748 169.8V169.75C114.973 169.325 113.823 167.7 113.798 165.75C113.823 163.075 116.173 161.075 119.448 161.1C122.648 161.075 124.998 163.075 124.998 165.75C124.998 167.7 123.823 169.325 122.098 169.75V169.8C124.098 170.15 125.698 172.025 125.698 174.3C125.698 177.175 123.098 179.25 119.448 179.25ZM115.348 174.2C115.298 176.05 116.873 177.3 119.448 177.3C121.948 177.3 123.523 176.05 123.498 174.2C123.523 172.225 121.798 170.8 119.448 170.8C117.048 170.8 115.298 172.225 115.348 174.2ZM115.948 165.95C115.948 167.725 117.398 168.925 119.448 168.95C121.423 168.925 122.873 167.725 122.898 165.95C122.873 164.175 121.473 162.975 119.448 163C117.323 162.975 115.948 164.175 115.948 165.95ZM135.609 165.1C135.584 169.075 138.284 173.05 141.459 174.5L140.309 176.05C137.834 174.825 135.684 172.25 134.659 169.125C133.659 172.425 131.509 175.175 128.959 176.45L127.759 174.85C131.009 173.375 133.684 169.225 133.709 165.1V161.15H135.609V165.1ZM143.859 181V159.3H145.759V181H143.859Z" fill="#3E2050"/>
<path d="M52.4567 223.232V197.254H54.5337V223.232H52.4567ZM35.3757 208.569V217.838H33.3297V199.083H35.3757V206.771H43.0947V208.569H35.3757ZM44.4897 199.083H46.5357V214.676H44.4897V199.083ZM59.8347 207.701V209.499H55.6187V207.701H59.8347ZM46.5667 217.838H36.7707V216.071H46.5667V217.838Z" fill="#260D32"/>
<path d="M84.353 197.254V223.232H82.276V197.254H84.353ZM65.195 200.323C66.311 199.517 67.644 199.052 69.256 199.052C74.123 199.052 76.634 203.113 76.634 208.6C76.634 214.18 74.154 218.148 69.256 218.148C64.575 218.148 61.94 214.335 61.94 208.631C61.94 205.717 62.653 203.299 63.893 201.625L65.195 203.051C64.389 204.415 63.924 206.244 63.955 208.631C64.017 213.219 65.66 216.381 69.256 216.381C72.883 216.381 74.65 213.281 74.65 208.631C74.65 203.857 72.821 200.881 69.256 200.881C68.109 200.881 67.179 201.191 66.373 201.749L65.195 200.323Z" fill="#260D32"/>
<path d="M117.382 204.477V206.244H112.081V212.196H109.973V197.254H112.081V204.477H117.382ZM105.013 200.261H91.1556V198.463H105.013V200.261ZM108.733 209.995C106.16 210.553 102.223 210.708 97.9756 210.708H91.1866V201.501H93.2636V208.941H98.0066C102.099 208.941 106.067 208.755 108.733 208.197V209.995ZM94.3486 205.5V203.764H104.052V205.5H94.3486ZM110.221 216.784V215.327H93.9766V213.529H112.391V216.784H110.221ZM93.9766 217.869H112.391V219.636H93.9766V217.869ZM96.1466 222.395H113.259V224.193H93.9766V220.721H96.1466V222.395Z" fill="#260D32"/>
<path d="M130.911 209.933H128.834V198.339H130.911V202.803H144.582V204.539H130.911V209.933ZM147.899 207.112H145.822V198.339H147.899V207.112ZM132.151 208.197H147.899V209.933H132.151V208.197ZM150.937 213.529V215.327H134.724C134.631 218.272 134.104 221.062 133.081 223.542L130.973 222.953C132.089 220.473 132.554 217.838 132.616 215.327H125.796V213.529H150.937ZM144.675 216.722L144.861 223.697H142.815L142.66 216.722H144.675Z" fill="#260D32"/>
<path d="M174.58 197.254H176.657V223.232H174.58V197.254ZM155.453 199.083H168.69V200.881H155.453V199.083ZM159.7 216.381C164.133 216.381 169.031 216.257 172.72 215.482V217.249C169.279 217.962 164.536 218.148 159.669 218.148H155.453V202.431H157.561V216.381H159.7ZM168.163 207.825V209.561H159.111V207.825H168.163Z" fill="#260D32"/>
<path d="M30.0127 224.1H179.974V225.65H30.0127V224.1Z" fill="#260D32"/>
<path fill-rule="evenodd" clip-rule="evenodd" d="M52.3566 223.332V197.154H54.6336V223.332H52.3566ZM35.4756 217.938H33.2296V198.983H35.4756V206.671H43.1946V208.669H35.4756V217.938ZM44.3896 198.983H46.6356V214.776H44.3896V198.983ZM59.9346 207.601V209.599H55.5186V207.601H59.9346ZM46.6666 217.938H36.6706V215.971H46.6666V217.938ZM84.4529 197.154V223.332H82.1759V197.154H84.4529ZM65.0499 200.305L65.1364 200.242C66.2696 199.424 67.6231 198.952 69.2559 198.952C71.7212 198.952 73.5958 199.983 74.851 201.71C76.1033 203.433 76.7339 205.843 76.7339 208.6C76.7339 211.403 76.1113 213.814 74.8625 215.526C73.6107 217.242 71.7357 218.248 69.2559 218.248C66.8848 218.248 65.0257 217.281 63.7624 215.589C62.5017 213.9 61.8399 211.497 61.8399 208.631C61.8399 205.702 62.5565 203.262 63.8126 201.566L63.8849 201.468L65.3186 203.038L65.281 203.102C64.4866 204.447 64.0241 206.256 64.0549 208.63C64.0858 210.915 64.5106 212.831 65.3645 214.173C66.2147 215.509 67.4931 216.281 69.2559 216.281C71.0359 216.281 72.353 215.523 73.2296 214.195C74.1098 212.861 74.5499 210.946 74.5499 208.631C74.5499 206.255 74.0943 204.34 73.2069 203.022C72.323 201.709 71.006 200.981 69.2559 200.981C68.1288 200.981 67.2188 201.285 66.4299 201.832L66.3543 201.884L65.0499 200.305ZM117.481 204.377V206.344H112.181V212.296H109.872V197.154H112.181V204.377H117.481ZM105.112 200.361H91.0555V198.363H105.112V200.361ZM108.832 210.076L108.754 210.093C106.169 210.654 102.222 210.808 97.9755 210.808H91.0865V201.401H93.3635V208.841H98.0065C102.098 208.841 106.057 208.655 108.712 208.099L108.832 208.074V210.076ZM94.2485 205.6V203.664H104.151V205.6H94.2485ZM110.12 216.884V215.427H93.8765V213.429H112.491V216.884H110.12ZM93.8765 217.769H112.491V219.736H93.8765V217.769ZM93.8765 224H29.9126V225.75H180.074V224H113.358V222.295H96.2465V220.621H93.8765V224ZM131.011 210.033H128.734V198.239H131.011V202.703H144.682V204.639H131.011V210.033ZM147.999 207.212H145.722V198.239H147.999V207.212ZM132.051 208.097H147.999V210.033H132.051V208.097ZM151.037 213.429V215.427H134.821C134.719 218.346 134.19 221.115 133.173 223.58L133.139 223.662L130.834 223.018L130.882 222.912C131.976 220.481 132.441 217.897 132.513 215.427H125.696V213.429H151.037ZM144.772 216.622L144.964 223.797H142.717L142.558 216.622H144.772ZM174.48 197.154H176.757V223.332H174.48V197.154ZM155.353 198.983H168.79V200.981H155.353V198.983ZM172.82 215.359V217.331L172.74 217.347C169.288 218.062 164.536 218.248 159.669 218.248H155.353V202.331H157.661V216.281H159.7C164.133 216.281 169.022 216.157 172.699 215.384L172.82 215.359ZM168.263 207.725V209.661H159.011V207.725H168.263ZM52.4566 197.254V223.232H54.5336V197.254H52.4566ZM35.3756 217.838V208.569H43.0946V206.771H35.3756V199.083H33.3296V217.838H35.3756ZM46.5356 199.083H44.4896V214.676H46.5356V199.083ZM59.8346 209.499V207.701H55.6186V209.499H59.8346ZM36.7706 217.838H46.5666V216.071H36.7706V217.838ZM84.3529 223.232V197.254H82.2759V223.232H84.3529ZM69.2559 199.052C67.6439 199.052 66.3109 199.517 65.1949 200.323L66.3729 201.749C67.1789 201.191 68.1089 200.881 69.2559 200.881C72.8209 200.881 74.6499 203.857 74.6499 208.631C74.6499 213.281 72.8829 216.381 69.2559 216.381C65.6599 216.381 64.0169 213.219 63.9549 208.631C63.9239 206.244 64.3889 204.415 65.1949 203.051L63.8929 201.625C62.6529 203.299 61.9399 205.717 61.9399 208.631C61.9399 214.335 64.5749 218.148 69.2559 218.148C74.1539 218.148 76.6339 214.18 76.6339 208.6C76.6339 203.113 74.1229 199.052 69.2559 199.052ZM117.381 206.244V204.477H112.08V197.254H109.972V212.196H112.08V206.244H117.381ZM91.1555 200.261H105.012V198.463H91.1555V200.261ZM97.9755 210.708C102.222 210.708 106.159 210.553 108.732 209.995V208.197C106.066 208.755 102.099 208.941 98.0065 208.941H93.2635V201.501H91.1865V210.708H97.9755ZM94.3485 203.764V205.5H104.051V203.764H94.3485ZM110.22 215.327V216.784H112.39V213.529H93.9765V215.327H110.22ZM112.39 217.869H93.9765V219.636H112.39V217.869ZM113.258 222.395H96.1465V220.721H93.9765V224.1H30.0126V225.65H179.974V224.1H113.258V222.395ZM128.834 209.933H130.911V204.539H144.582V202.803H130.911V198.339H128.834V209.933ZM145.822 207.112H147.899V198.339H145.822V207.112ZM147.899 208.197H132.151V209.933H147.899V208.197ZM150.937 215.327V213.529H125.796V215.327H132.616C132.554 217.838 132.089 220.473 130.973 222.953L133.081 223.542C134.104 221.062 134.631 218.272 134.724 215.327H150.937ZM144.861 223.697L144.675 216.722H142.66L142.815 223.697H144.861ZM176.657 197.254H174.58V223.232H176.657V197.254ZM168.69 199.083H155.453V200.881H168.69V199.083ZM172.72 215.482C169.031 216.257 164.133 216.381 159.7 216.381H157.561V202.431H155.453V218.148H159.669C164.536 218.148 169.279 217.962 172.72 217.249V215.482ZM168.163 209.561V207.825H159.111V209.561H168.163Z" fill="#240D32"/>
<path opacity="0.85" d="M92.1555 246.576V265.848H90.0875V246.576H92.1555ZM76.8435 254.76C76.8435 250.646 78.9335 248.028 81.8155 248.028C84.6975 248.028 86.8095 250.646 86.7875 254.76C86.8095 258.918 84.6975 261.536 81.8155 261.536C78.9335 261.536 76.8435 258.918 76.8435 254.76ZM78.8235 254.76C78.8235 257.818 80.0555 259.71 81.8155 259.688C83.5975 259.71 84.8295 257.818 84.8075 254.76C84.8295 251.746 83.5975 249.854 81.8155 249.832C80.0555 249.854 78.8235 251.746 78.8235 254.76ZM104.965 252.428V254.804H112.753V256.432H95.1972V254.804H102.941V252.428H104.965ZM96.1212 251.9C99.9492 251.526 102.919 249.7 102.941 247.368V246.708H105.009V247.368C104.987 249.7 107.957 251.526 111.785 251.9L111.037 253.484C107.913 253.066 105.185 251.812 103.953 249.832C102.721 251.812 99.9932 253.066 96.8692 253.484L96.1212 251.9ZM97.3092 259.38V257.84H110.553V262.416H99.3332V264.044H111.081V265.628H97.3532V260.92H108.529V259.38H97.3092ZM130.183 246.576V265.848H128.115V246.576H130.183ZM114.871 254.76C114.871 250.646 116.961 248.028 119.843 248.028C122.725 248.028 124.837 250.646 124.815 254.76C124.837 258.918 122.725 261.536 119.843 261.536C116.961 261.536 114.871 258.918 114.871 254.76ZM116.851 254.76C116.851 257.818 118.083 259.71 119.843 259.688C121.625 259.71 122.857 257.818 122.835 254.76C122.857 251.746 121.625 249.854 119.843 249.832C118.083 249.854 116.851 251.746 116.851 254.76Z" fill="#3E2050"/>
<defs>
<clipPath id="clip0_38_416">
<rect width="19" height="17" fill="white" transform="translate(42 145)"/>
</clipPath>
</defs>
</svg>
