<svg width="208" height="322" viewBox="0 0 208 322" fill="none" xmlns="http://www.w3.org/2000/svg">
<rect x="0.5" y="0.5" width="207" height="321" stroke="#3D0E0E"/>
<path d="M0 99H208" stroke="#3D0E0E"/>
<path d="M87.2385 18.8501V39.8001H85.5635V18.8501H87.2385ZM80.9385 21.3251C78.1635 21.3751 74.9135 21.4501 72.9385 20.7501L73.2635 19.4501C75.7635 20.2751 78.4635 20.0001 80.9385 20.0001V21.3251ZM83.3135 24.7751H70.2385V23.3501H83.3135V24.7751ZM77.6385 35.6501C80.1385 35.6001 82.2635 35.5001 84.4135 35.1001L84.4385 36.5501C81.7885 37.0001 78.8885 37.1251 75.2635 37.1251H69.0635V35.6751H75.9885V33.2001C73.3635 33.0501 71.4385 32.1001 71.4385 29.7751C71.4385 28.4751 72.0635 27.5251 73.2635 26.9501L74.0885 28.1251C73.4135 28.4501 72.9885 28.9751 72.9885 29.7751C72.9885 31.3501 74.6885 31.9251 76.8135 31.9251C78.9635 31.9251 80.6385 31.3501 80.6385 29.7751C80.6385 28.1751 78.9635 27.6501 76.8135 27.6501C76.3135 27.6501 75.8135 27.6751 75.3635 27.7501L74.6135 26.5251C75.2635 26.4001 75.9885 26.3251 76.8135 26.3251C80.2885 26.3251 82.1885 27.5251 82.1885 29.7751C82.1885 32.1001 80.2135 33.0501 77.6385 33.2001V35.6501ZM91.5135 28.0251V29.4501H88.1135V28.0251H91.5135Z" fill="#3D0E0E"/>
<path d="M98.4016 22.3501C97.1016 23.0751 96.3766 24.2001 96.3766 25.7001C96.3766 28.4001 99.0016 29.8001 102.727 29.8001C106.427 29.8001 109.052 28.4001 109.052 25.7001C109.052 23.0001 106.627 21.4501 102.727 21.4501C101.627 21.4501 100.627 21.5751 99.7766 21.8001L98.9516 20.4751C100.027 20.1751 101.277 20.0001 102.727 20.0001C108.052 20.0001 110.727 22.3501 110.727 25.7001C110.727 29.6751 106.977 31.2251 102.727 31.2251C98.3516 31.2251 94.7266 29.6501 94.7266 25.7001C94.7266 23.7001 95.6516 22.0501 97.5266 21.0501L98.4016 22.3501ZM92.4766 36.1001H97.6016V32.1001H99.3016V36.1001H106.177V32.1001H107.852V36.1001H112.977V37.5501H92.4766V36.1001Z" fill="#3D0E0E"/>
<path d="M132.537 18.8501H134.238V30.2751H132.537V18.8501ZM118.062 22.4501C117.713 23.0001 117.488 23.7001 117.488 24.5251C117.488 26.8001 119.088 28.1001 121.463 28.1001C123.863 28.1001 125.513 26.8001 125.513 24.5251C125.513 22.2501 123.838 20.9501 121.463 20.9501C120.513 20.9501 119.688 21.1501 119.038 21.5501L118.062 20.3751C118.988 19.8001 120.113 19.5001 121.463 19.5001C124.763 19.5001 127.063 21.3001 127.063 24.5251C127.063 27.8001 124.663 29.5751 121.463 29.5751C118.163 29.5751 115.913 27.6251 115.913 24.5251C115.913 23.2251 116.313 22.1251 116.988 21.3001L118.062 22.4501ZM132.438 33.1001H119.288V31.6251H134.238V34.4251H132.438V33.1001ZM119.288 35.3001H134.238V36.7501H119.288V35.3001ZM121.062 39.1001H134.963V40.5751H119.288V37.6251H121.062V39.1001Z" fill="#3D0E0E"/>
<path d="M94.4216 55.116L95.8616 56.7L86.1416 65.232L84.7376 63.612L94.4216 55.116ZM95.5736 62.28V81H93.3416V62.28H95.5736ZM103.123 57.6V55.476H115.579V57.6H103.123ZM110.107 64.728C114.643 65.088 117.955 68.364 117.955 72.684C117.955 77.652 114.283 81.36 109.387 81.36C104.311 81.36 101.035 77.796 101.035 72.252H103.267C103.267 76.5 105.679 79.236 109.387 79.236C113.023 79.236 115.723 76.428 115.723 72.684C115.723 69.336 112.951 66.816 109.279 66.816C108.379 66.816 107.659 66.996 106.759 67.284V65.232L110.935 60.372L112.591 61.812L110.107 64.728Z" fill="#3D0E0E"/>
<path opacity="0.85" d="M71.1348 159.7C75.7598 159.725 79.0848 161.95 79.0848 165.4C79.0848 168.6 76.2098 170.725 72.0848 171.025V175.6H81.1348V177.2H61.2848V175.6H70.1848V171.025C66.1098 170.725 63.2098 168.6 63.2348 165.4C63.2098 161.95 66.5598 159.725 71.1348 159.7ZM65.0848 165.4C65.0598 167.875 67.6348 169.5 71.1348 169.5C74.6598 169.5 77.2348 167.875 77.2348 165.4C77.2348 162.925 74.6598 161.275 71.1348 161.3C67.6348 161.275 65.0598 162.925 65.0848 165.4ZM101.491 160.75V162.35H83.8912V160.75H91.7912V158.15H93.6912V160.75H101.491ZM82.8912 173.95V172.35H102.741V173.95H93.6912V180H91.7912V173.95H82.8912ZM85.6912 167.25C85.6412 164.9 88.3162 163.6 92.7412 163.6C97.1662 163.6 99.8162 164.9 99.8412 167.25C99.8162 169.525 97.1662 170.825 92.7412 170.85C88.3162 170.825 85.6412 169.525 85.6912 167.25ZM87.6412 167.25C87.6412 168.575 89.5162 169.375 92.7412 169.35C95.9662 169.375 97.8412 168.575 97.8412 167.25C97.8412 165.875 95.9662 165.075 92.7412 165.05C89.5162 165.075 87.6412 165.875 87.6412 167.25ZM117.448 178.25C113.698 178.25 111.123 176.175 111.148 173.3C111.123 171.025 112.723 169.15 114.748 168.8V168.75C112.973 168.325 111.823 166.7 111.798 164.75C111.823 162.075 114.173 160.075 117.448 160.1C120.648 160.075 122.998 162.075 122.998 164.75C122.998 166.7 121.823 168.325 120.098 168.75V168.8C122.098 169.15 123.698 171.025 123.698 173.3C123.698 176.175 121.098 178.25 117.448 178.25ZM113.348 173.2C113.298 175.05 114.873 176.3 117.448 176.3C119.948 176.3 121.523 175.05 121.498 173.2C121.523 171.225 119.798 169.8 117.448 169.8C115.048 169.8 113.298 171.225 113.348 173.2ZM113.948 164.95C113.948 166.725 115.398 167.925 117.448 167.95C119.423 167.925 120.873 166.725 120.898 164.95C120.873 163.175 119.473 161.975 117.448 162C115.323 161.975 113.948 163.175 113.948 164.95ZM133.609 164.1C133.584 168.075 136.284 172.05 139.459 173.5L138.309 175.05C135.834 173.825 133.684 171.25 132.659 168.125C131.659 171.425 129.509 174.175 126.959 175.45L125.759 173.85C129.009 172.375 131.684 168.225 131.709 164.1V160.15H133.609V164.1ZM141.859 180V158.3H143.759V180H141.859Z" fill="#3E2050"/>
<path d="M70.3654 196.254V222.232H68.2884V196.254H70.3654ZM55.8884 198.052C60.7554 198.052 63.2664 202.113 63.2664 207.6C63.2664 213.18 60.7864 217.148 55.8884 217.148C51.2074 217.148 48.5724 213.335 48.5724 207.631C48.5724 204.717 49.2854 202.299 50.5254 200.625L51.8274 202.051C51.0214 203.415 50.5564 205.244 50.5874 207.631C50.6494 212.219 52.2924 215.381 55.8884 215.381C59.5154 215.381 61.2824 212.281 61.2824 207.631C61.2824 202.857 59.4534 199.881 55.8884 199.881C54.7414 199.881 53.8114 200.191 53.0054 200.749L51.8274 199.323C52.9434 198.517 54.2764 198.052 55.8884 198.052ZM75.3874 206.701V208.499H71.4504V206.701H75.3874Z" fill="#260D32"/>
<path d="M99.8965 196.254V222.232H97.8195V196.254H99.8965ZM80.7385 199.323C81.8545 198.517 83.1875 198.052 84.7995 198.052C89.6665 198.052 92.1775 202.113 92.1775 207.6C92.1775 213.18 89.6975 217.148 84.7995 217.148C80.1185 217.148 77.4835 213.335 77.4835 207.631C77.4835 204.717 78.1965 202.299 79.4365 200.625L80.7385 202.051C79.9325 203.415 79.4675 205.244 79.4985 207.631C79.5605 212.219 81.2035 215.381 84.7995 215.381C88.4265 215.381 90.1935 212.281 90.1935 207.631C90.1935 202.857 88.3645 199.881 84.7995 199.881C83.6525 199.881 82.7225 200.191 81.9165 200.749L80.7385 199.323Z" fill="#260D32"/>
<path d="M111.783 200.594C110.171 201.493 109.272 202.888 109.272 204.748C109.272 208.096 112.279 210.018 117.146 210.018C121.982 210.018 124.989 208.096 124.989 204.748C124.989 201.4 121.982 199.478 117.146 199.478C115.782 199.478 114.542 199.633 113.488 199.912L112.465 198.269C113.798 197.897 115.348 197.68 117.146 197.68C123.749 197.68 127.066 200.594 127.066 204.748C127.066 209.708 122.695 211.785 117.177 211.785C111.504 211.785 107.226 209.739 107.226 204.748C107.226 202.268 108.373 200.222 110.698 198.982L111.783 200.594ZM118.2 217.644H129.856V219.442H104.436V217.644H116.092V213.335H118.2V217.644Z" fill="#260D32"/>
<path d="M156.22 196.254V222.232H154.112V196.254H156.22ZM145.153 206.143H148.935V196.564H151.012V207.91H145.153V206.143ZM133.187 198.393H146.114V200.16H133.187V198.393ZM138.054 214.947C138.953 214.947 139.821 214.947 140.72 214.916C141.092 211.351 141.247 205.151 141.247 201.09H143.262C143.2 205.492 142.952 211.351 142.642 214.823C144.13 214.73 145.556 214.606 146.889 214.358L147.137 216.094C144.564 216.528 141.371 216.714 137.837 216.714H132.908V214.947H138.054ZM135.698 214.017C135.45 210.483 135.264 205.213 135.202 201.09H137.186C137.186 204.841 137.279 210.39 137.589 214.017H135.698ZM151.012 221.798H148.935V209.15H151.012V221.798Z" fill="#260D32"/>
<path d="M46.4644 223.1H159.537V224.65H46.4644V223.1Z" fill="#260D32"/>
<path fill-rule="evenodd" clip-rule="evenodd" d="M70.4653 196.154V222.332H68.1883V196.154H70.4653ZM50.5172 200.468L51.951 202.038L51.9134 202.102C51.1189 203.446 50.6564 205.256 50.6872 207.63C50.7181 209.914 51.1429 211.831 51.9969 213.173C52.847 214.509 54.1254 215.281 55.8883 215.281C57.6682 215.281 58.9853 214.523 59.8619 213.194C60.7421 211.861 61.1823 209.945 61.1823 207.631C61.1823 205.254 60.7266 203.339 59.8392 202.021C58.9553 200.709 57.6383 199.981 55.8883 199.981C54.7612 199.981 53.8511 200.285 53.0622 200.831L52.9867 200.883L51.6822 199.304L51.7687 199.242C52.9019 198.423 54.2554 197.952 55.8883 197.952C58.3535 197.952 60.2282 198.982 61.4833 200.709C62.7356 202.433 63.3663 204.843 63.3663 207.6C63.3663 210.403 62.7436 212.813 61.4948 214.525C60.243 216.241 58.368 217.248 55.8883 217.248C53.5172 217.248 51.6581 216.28 50.3947 214.588C49.134 212.899 48.4723 210.497 48.4723 207.631C48.4723 204.702 49.1888 202.261 50.4449 200.565L50.5172 200.468ZM75.4873 206.601V208.599H71.3503V206.601H75.4873ZM99.9964 196.154V222.332H97.7194V196.154H99.9964ZM80.5933 199.304L80.6798 199.242C81.813 198.423 83.1666 197.952 84.7994 197.952C87.2646 197.952 89.1393 198.982 90.3944 200.709C91.6468 202.433 92.2774 204.843 92.2774 207.6C92.2774 210.403 91.6548 212.813 90.4059 214.525C89.1542 216.241 87.2791 217.248 84.7994 217.248C82.4283 217.248 80.5692 216.28 79.3059 214.588C78.0451 212.899 77.3834 210.497 77.3834 207.631C77.3834 204.702 78.0999 202.261 79.356 200.565L79.4283 200.468L80.8621 202.038L80.8245 202.102C80.0301 203.446 79.5676 205.256 79.5984 207.63C79.6293 209.914 80.0541 211.831 80.908 213.173C81.7582 214.509 83.0365 215.281 84.7994 215.281C86.5794 215.281 87.8965 214.523 88.7731 213.194C89.6532 211.861 90.0934 209.945 90.0934 207.631C90.0934 205.254 89.6378 203.339 88.7503 202.021C87.8665 200.709 86.5494 199.981 84.7994 199.981C83.6723 199.981 82.7622 200.285 81.9733 200.831L81.8978 200.883L80.5933 199.304ZM111.927 200.628L111.832 200.681C110.249 201.564 109.372 202.927 109.372 204.748C109.372 206.387 110.106 207.674 111.439 208.555C112.777 209.439 114.724 209.918 117.146 209.918C119.553 209.918 121.492 209.439 122.826 208.555C124.155 207.674 124.889 206.387 124.889 204.748C124.889 203.109 124.155 201.822 122.826 200.941C121.492 200.056 119.553 199.578 117.146 199.578C115.789 199.578 114.558 199.732 113.514 200.008L113.442 200.027L112.31 198.208L112.438 198.172C113.781 197.798 115.34 197.58 117.146 197.58C120.461 197.58 122.964 198.311 124.642 199.576C126.323 200.844 127.166 202.641 127.166 204.748C127.166 207.263 126.055 209.053 124.245 210.211C122.44 211.364 119.946 211.885 117.177 211.885C114.331 211.885 111.822 211.372 110.02 210.222C108.213 209.068 107.126 207.277 107.126 204.748C107.126 202.232 108.292 200.151 110.651 198.894L110.731 198.851L111.927 200.628ZM129.956 217.544V219.542H104.336V217.544H115.992V213.235H118.3V217.544H129.956ZM156.32 196.154V222.332H154.012V196.154H156.32ZM145.053 206.043H148.835V196.464H151.112V208.01H145.053V206.043ZM133.087 198.293H146.214V200.26H133.087V198.293ZM141.147 200.99H143.363L143.362 201.091C143.3 205.446 143.057 211.227 142.751 214.716C144.196 214.624 145.578 214.5 146.87 214.259L146.973 214.24L147.249 216.176L147.153 216.192C144.572 216.628 141.373 216.814 137.837 216.814H132.808V214.847H138.054C138.924 214.847 139.763 214.847 140.629 214.819C140.994 211.246 141.147 205.117 141.147 201.09V200.99ZM135.604 214.117L135.598 214.024C135.35 210.487 135.164 205.215 135.102 201.091L135.1 200.99H137.286V201.09C137.286 204.84 137.379 210.386 137.688 214.008L137.697 214.117H135.604ZM151.112 221.898H148.835V209.05H151.112V221.898ZM46.3643 223H159.637V224.75H46.3643V223ZM70.3653 222.232V196.254H68.2883V222.232H70.3653ZM63.2663 207.6C63.2663 202.113 60.7553 198.052 55.8883 198.052C54.2763 198.052 52.9433 198.517 51.8273 199.323L53.0053 200.749C53.8113 200.191 54.7413 199.881 55.8883 199.881C59.4533 199.881 61.2823 202.857 61.2823 207.631C61.2823 212.281 59.5153 215.381 55.8883 215.381C52.2923 215.381 50.6493 212.219 50.5873 207.631C50.5563 205.244 51.0213 203.415 51.8273 202.051L50.5253 200.625C49.2853 202.299 48.5723 204.717 48.5723 207.631C48.5723 213.335 51.2073 217.148 55.8883 217.148C60.7863 217.148 63.2663 213.18 63.2663 207.6ZM71.4503 208.499H75.3873V206.701H71.4503V208.499ZM99.8964 222.232V196.254H97.8194V222.232H99.8964ZM84.7994 198.052C83.1874 198.052 81.8544 198.517 80.7384 199.323L81.9164 200.749C82.7224 200.191 83.6524 199.881 84.7994 199.881C88.3644 199.881 90.1934 202.857 90.1934 207.631C90.1934 212.281 88.4264 215.381 84.7994 215.381C81.2034 215.381 79.5604 212.219 79.4984 207.631C79.4674 205.244 79.9324 203.415 80.7384 202.051L79.4364 200.625C78.1964 202.299 77.4834 204.717 77.4834 207.631C77.4834 213.335 80.1184 217.148 84.7994 217.148C89.6974 217.148 92.1774 213.18 92.1774 207.6C92.1774 202.113 89.6664 198.052 84.7994 198.052ZM109.272 204.748C109.272 202.888 110.171 201.493 111.783 200.594L110.698 198.982C108.373 200.222 107.226 202.268 107.226 204.748C107.226 209.739 111.504 211.785 117.177 211.785C122.695 211.785 127.066 209.708 127.066 204.748C127.066 200.594 123.749 197.68 117.146 197.68C115.348 197.68 113.798 197.897 112.465 198.269L113.488 199.912C114.542 199.633 115.782 199.478 117.146 199.478C121.982 199.478 124.989 201.4 124.989 204.748C124.989 208.096 121.982 210.018 117.146 210.018C112.279 210.018 109.272 208.096 109.272 204.748ZM129.856 217.644H118.2V213.335H116.092V217.644H104.436V219.442H129.856V217.644ZM156.22 222.232V196.254H154.112V222.232H156.22ZM148.935 206.143H145.153V207.91H151.012V196.564H148.935V206.143ZM146.114 198.393H133.187V200.16H146.114V198.393ZM140.72 214.916C139.821 214.947 138.953 214.947 138.054 214.947H132.908V216.714H137.837C141.371 216.714 144.564 216.528 147.137 216.094L146.889 214.358C145.556 214.606 144.13 214.73 142.642 214.823C142.952 211.351 143.2 205.492 143.262 201.09H141.247C141.247 205.151 141.092 211.351 140.72 214.916ZM135.202 201.09C135.264 205.213 135.45 210.483 135.698 214.017H137.589C137.279 210.39 137.186 204.841 137.186 201.09H135.202ZM148.935 221.798H151.012V209.15H148.935V221.798ZM159.537 223.1H46.4643V224.65H159.537V223.1Z" fill="#240D32"/>
<path opacity="0.85" d="M81.6436 255.803V259.133C83.4053 259.036 85.1885 258.886 86.8643 258.639L87.0146 260.143C82.6641 260.948 77.9912 260.98 74.5537 260.98L74.2959 259.305C75.8428 259.294 77.6797 259.283 79.6025 259.219V255.803H81.6436ZM74.8115 254.879C77.6797 254.052 79.4736 252.043 79.5811 249.68H75.3271V248.025H79.6025V245.727H81.6436V248.025H85.9619V249.68H81.6436C81.751 251.946 83.5771 253.891 86.4561 254.664L85.5107 256.254C83.2119 255.599 81.4932 254.202 80.623 252.376C79.7852 254.299 78.0879 255.771 75.7783 256.426L74.8115 254.879ZM88.0674 264.869V245.576H90.1084V264.869H88.0674ZM109.251 245.576V257.027H107.21V252.15H103.622V250.475H107.21V245.576H109.251ZM93.2021 255.287C96.1885 254.245 98.0254 251.646 98.0146 248.992V248.562H93.8467V246.908H104.224V248.562H100.099V248.971C100.088 251.409 101.828 253.783 104.739 254.771L103.687 256.383C101.527 255.642 99.9375 254.095 99.0996 252.193C98.2617 254.342 96.5752 256.071 94.2764 256.92L93.2021 255.287ZM96.2959 261.195C96.2852 258.907 98.7559 257.575 102.806 257.564C106.834 257.575 109.305 258.907 109.315 261.195C109.305 263.483 106.834 264.815 102.806 264.826C98.7559 264.815 96.2852 263.483 96.2959 261.195ZM98.3154 261.195C98.3047 262.495 99.9805 263.236 102.806 263.215C105.609 263.236 107.285 262.495 107.296 261.195C107.285 259.885 105.609 259.144 102.806 259.154C99.9805 259.144 98.3047 259.885 98.3154 261.195ZM120.981 246.027C125.117 246.038 127.824 247.531 127.813 249.916C127.824 252.301 125.117 253.783 120.981 253.783C116.846 253.783 114.117 252.301 114.128 249.916C114.117 247.531 116.846 246.038 120.981 246.027ZM112.216 256.77V255.115H129.79V256.77H125.429V260.594H123.388V256.77H120.358V260.594H118.296V256.77H112.216ZM114.321 264.418V258.939H116.384V262.764H128.007V264.418H114.321ZM116.319 249.916C116.298 251.323 118.167 252.15 120.981 252.172C123.807 252.15 125.654 251.323 125.665 249.916C125.654 248.509 123.807 247.671 120.981 247.66C118.167 247.671 116.298 248.509 116.319 249.916Z" fill="#3E2050"/>
</svg>
