<svg width="208" height="322" viewBox="0 0 208 322" fill="none" xmlns="http://www.w3.org/2000/svg">
<path fill-rule="evenodd" clip-rule="evenodd" d="M208 99.5H0V98.5H208V99.5Z" fill="#3D0E0E"/>
<path d="M89.4675 27.4751C89.9425 25.0001 90.0925 22.7001 90.0925 21.0251H75.9425V19.6001H91.7925C91.8425 22.0001 91.6425 24.7251 91.1425 27.4751H89.4675ZM94.1675 29.8501H73.4175V28.3501H94.1675V29.8501ZM76.0675 40.5751V32.8251H77.7175V40.5751H76.0675ZM89.8675 34.2751H78.7175V32.8251H91.5675V38.2501H89.8675V34.2751ZM91.5675 40.5751H78.7175V39.1251H91.5675V40.5751Z" fill="#3D0E0E"/>
<path d="M102.048 22.3501C100.748 23.0751 100.023 24.2001 100.023 25.7001C100.023 28.4001 102.648 29.8001 106.373 29.8001C110.073 29.8001 112.698 28.4001 112.698 25.7001C112.698 23.0001 110.273 21.4501 106.373 21.4501C105.273 21.4501 104.273 21.5751 103.423 21.8001L102.598 20.4751C103.673 20.1751 104.923 20.0001 106.373 20.0001C111.698 20.0001 114.373 22.3501 114.373 25.7001C114.373 29.6751 110.623 31.2251 106.373 31.2251C101.998 31.2251 98.3726 29.6501 98.3726 25.7001C98.3726 23.7001 99.2976 22.0501 101.173 21.0501L102.048 22.3501ZM96.1226 36.1001H101.248V32.1001H102.948V36.1001H109.823V32.1001H111.498V36.1001H116.623V37.5501H96.1226V36.1001Z" fill="#3D0E0E"/>
<path d="M136.183 18.8501H137.883V30.2751H136.183V18.8501ZM121.708 22.4501C121.358 23.0001 121.133 23.7001 121.133 24.5251C121.133 26.8001 122.733 28.1001 125.108 28.1001C127.508 28.1001 129.158 26.8001 129.158 24.5251C129.158 22.2501 127.483 20.9501 125.108 20.9501C124.158 20.9501 123.333 21.1501 122.683 21.5501L121.708 20.3751C122.633 19.8001 123.758 19.5001 125.108 19.5001C128.408 19.5001 130.708 21.3001 130.708 24.5251C130.708 27.8001 128.308 29.5751 125.108 29.5751C121.808 29.5751 119.558 27.6251 119.558 24.5251C119.558 23.2251 119.958 22.1251 120.633 21.3001L121.708 22.4501ZM136.083 33.1001H122.933V31.6251H137.883V34.4251H136.083V33.1001ZM122.933 35.3001H137.883V36.7501H122.933V35.3001ZM124.708 39.1001H138.608V40.5751H122.933V37.6251H124.708V39.1001Z" fill="#3D0E0E"/>
<path d="M98.746 55.1159L100.186 56.6999L90.466 65.2319L89.062 63.6119L98.746 55.1159ZM99.898 62.2799V80.9999H97.666V62.2799H99.898Z" fill="#3D0E0E"/>
<path d="M114.864 55.0439L116.664 56.3399L110.94 64.1879L109.14 62.8559L114.864 55.0439ZM114.432 81.4319C109.86 81.4319 106.44 77.9759 106.44 73.3679C106.44 68.8319 109.86 65.4119 114.432 65.4119C119.004 65.4119 122.424 68.8319 122.424 73.3679C122.424 77.9759 119.004 81.4319 114.432 81.4319ZM114.432 79.3079C117.708 79.3079 120.192 76.7879 120.192 73.4039C120.192 70.0559 117.708 67.5359 114.432 67.5359C111.156 67.5359 108.672 70.0559 108.672 73.4039C108.672 76.7879 111.156 79.3079 114.432 79.3079Z" fill="#3D0E0E"/>
<g opacity="0.85">
<path d="M70.2578 159.689C74.8721 159.714 78.1924 161.96 78.1924 165.378C78.1924 168.613 75.3115 170.749 71.1855 171.03V175.583H80.2432V177.194H60.3701V175.583H69.3057V171.03C65.2041 170.737 62.3232 168.601 62.3232 165.378C62.3232 161.96 65.6558 159.714 70.2578 159.689ZM64.1787 165.378C64.1665 167.88 66.7422 169.504 70.2578 169.528C73.7734 169.504 76.3369 167.88 76.3369 165.378C76.3369 162.924 73.7734 161.264 70.2578 161.276C66.7422 161.264 64.1665 162.924 64.1787 165.378Z" fill="#3E2050"/>
<path d="M99.9697 158.298V174.216H98.041V165.891H93.5732V164.304H98.041V158.298H99.9697ZM82.0742 169.87C85.2725 168.747 87.5918 165.878 87.5918 162.766V161.643H82.6846V160.056H94.3789V161.643H89.5205V162.766C89.5205 165.573 91.6934 168.295 94.8672 169.382L93.8662 170.92C91.4248 170.029 89.5327 168.21 88.5928 165.964C87.6528 168.479 85.6509 170.468 83.0752 171.433L82.0742 169.87ZM86.0293 179.514V172.775H87.958V177.902H100.58V179.514H86.0293Z" fill="#3E2050"/>
<path d="M116.889 160.324V178H114.667V162.619H114.569L110.272 165.476V163.254L114.667 160.324H116.889Z" fill="#3E2050"/>
<path d="M127.851 160.324V178H125.629V162.619H125.531L121.234 165.476V163.254L125.629 160.324H127.851Z" fill="#3E2050"/>
<path d="M139.496 164.108C139.484 168.076 142.182 172.055 145.38 173.508L144.208 175.021C141.73 173.825 139.594 171.25 138.556 168.161C137.555 171.433 135.419 174.179 132.88 175.461L131.659 173.85C134.894 172.373 137.567 168.222 137.592 164.108V160.153H139.496V164.108ZM147.748 180.026V158.273H149.677V180.026H147.748Z" fill="#3E2050"/>
</g>
<path d="M95.3982 209.243H99.3352V211.103H94.7472L91.4302 220.31L89.6632 219.628L97.5372 197.68L99.3352 198.3L95.3982 209.243ZM105.752 220.372L99.7072 203.26L101.474 202.547L107.519 219.659L105.752 220.372Z" fill="#260D32"/>
<path d="M112.462 198.021V220H110.54V198.021H112.462ZM114.973 208.809C117.98 208.809 119.933 207.042 119.933 204.345C119.933 201.648 118.011 199.881 115.004 199.881H114.849V198.021H115.004C119.158 198.021 121.855 200.501 121.855 204.345C121.855 208.189 119.158 210.669 114.973 210.669H114.88V208.809H114.973Z" fill="#260D32"/>
<path d="M89.1982 223.1H122.816V224.65H89.1982V223.1Z" fill="#260D32"/>
<path fill-rule="evenodd" clip-rule="evenodd" d="M99.4351 209.143V211.203H94.8174L91.4896 220.44L89.536 219.686L97.4764 197.553L99.4635 198.238L95.5404 209.143H99.4351ZM105.693 220.504L99.581 203.203L101.534 202.415L107.645 219.716L105.693 220.504ZM112.562 197.921V220.1H110.44V197.921H112.562ZM114.749 199.981V197.921H115.004C117.101 197.921 118.839 198.547 120.055 199.668C121.271 200.79 121.955 202.398 121.955 204.345C121.955 206.291 121.271 207.9 120.051 209.022C118.831 210.143 117.085 210.769 114.973 210.769H114.78V208.709H114.973C116.457 208.709 117.672 208.273 118.514 207.514C119.355 206.756 119.833 205.668 119.833 204.345C119.833 203.021 119.362 201.933 118.529 201.176C117.695 200.417 116.488 199.981 115.004 199.981H114.749ZM89.0981 223H122.916V224.75H89.0981V223ZM99.3351 209.243H95.3981L99.3351 198.3L97.5371 197.68L89.6631 219.628L91.4301 220.31L94.7471 211.103H99.3351V209.243ZM99.7071 203.26L105.752 220.372L107.519 219.659L101.474 202.547L99.7071 203.26ZM112.462 220V198.021H110.54V220H112.462ZM119.933 204.345C119.933 207.042 117.98 208.809 114.973 208.809H114.88V210.669H114.973C119.158 210.669 121.855 208.189 121.855 204.345C121.855 200.501 119.158 198.021 115.004 198.021H114.849V199.881H115.004C118.011 199.881 119.933 201.648 119.933 204.345ZM122.816 223.1H89.1981V224.65H122.816V223.1Z" fill="#240D32"/>
<g opacity="0.85">
<path d="M59.9795 245.576V250.496H62.7725V252.172H59.9795V257.178H57.9385V245.576H59.9795ZM45.6064 255.953V246.779H47.6045V249.658H52.6533V246.779H54.6729V255.953H45.6064ZM47.2607 259.799V258.145H59.9795V264.826H57.9385V259.799H47.2607ZM47.6045 254.32H52.6533V251.27H47.6045V254.32Z" fill="#3E2050"/>
<path d="M81.4639 255.309V256.963H73.8154V260.701H71.7959V256.963H63.8467V255.309H81.4639ZM66.0381 264.418V258.875H68.0791V262.764H79.5088V264.418H66.0381ZM66.1025 253.311V246.479H79.1865V253.311H66.1025ZM68.1006 251.699H77.167V248.09H68.1006V251.699Z" fill="#3E2050"/>
<path d="M88.21 246.693C89.8105 246.683 91.1748 247.284 92.0771 248.283H96.8896V245.576H98.9307V256.941H96.8896V254.342H92.0664C91.1641 255.33 89.7998 255.921 88.21 255.91C85.3096 255.921 83.1504 253.998 83.1611 251.312C83.1504 248.595 85.3096 246.683 88.21 246.693ZM85.1162 251.312C85.1055 252.999 86.4053 254.191 88.21 254.17C89.9609 254.191 91.2607 252.999 91.2607 251.312C91.2607 249.583 89.9609 248.434 88.21 248.455C86.4053 248.434 85.1055 249.583 85.1162 251.312ZM85.9756 261.088C85.9648 258.735 88.457 257.36 92.4854 257.371C96.4922 257.36 98.9844 258.735 98.9951 261.088C98.9844 263.43 96.4922 264.794 92.4854 264.783C88.457 264.794 85.9648 263.43 85.9756 261.088ZM87.9736 261.088C87.9629 262.409 89.6602 263.183 92.4854 263.172C95.3105 263.183 96.9971 262.409 96.9971 261.088C96.9971 259.713 95.3105 258.95 92.4854 258.939C89.6602 258.95 87.9629 259.713 87.9736 261.088ZM93.0117 249.916C93.1406 250.346 93.2158 250.818 93.2158 251.312C93.2158 251.785 93.1406 252.247 93.0117 252.666H96.8896V249.916H93.0117Z" fill="#3E2050"/>
<path d="M108.513 246.715L103.507 265.342H101.466L106.472 246.715H108.513Z" fill="#3E2050"/>
<path d="M119.706 246.779C119.695 251.71 116.215 255.18 110.511 256.684L109.694 255.072C114.324 253.869 117.139 251.452 117.515 248.412H110.769V246.779H119.706ZM112.874 264.568V257.285H125.485V264.568H112.874ZM114.894 262.936H123.487V258.918H114.894V262.936ZM123.444 256.426V245.598H125.485V256.426H123.444Z" fill="#3E2050"/>
<path d="M135.669 249.594C135.669 252.086 137.506 254.428 140.481 255.373L139.429 256.963C137.216 256.232 135.551 254.718 134.67 252.795C133.811 254.89 132.092 256.544 129.804 257.35L128.751 255.738C131.748 254.718 133.596 252.226 133.606 249.594V248.756H129.288V247.102H139.901V248.756H135.669V249.594ZM131.909 264.418V258.316H133.972V262.764H145.079V264.418H131.909ZM142.458 259.648V245.598H144.499V259.648H142.458Z" fill="#3E2050"/>
<path d="M152.878 246.693C154.479 246.683 155.843 247.284 156.745 248.283H161.558V245.576H163.599V256.941H161.558V254.342H156.734C155.832 255.33 154.468 255.921 152.878 255.91C149.978 255.921 147.818 253.998 147.829 251.312C147.818 248.595 149.978 246.683 152.878 246.693ZM149.784 251.312C149.773 252.999 151.073 254.191 152.878 254.17C154.629 254.191 155.929 252.999 155.929 251.312C155.929 249.583 154.629 248.434 152.878 248.455C151.073 248.434 149.773 249.583 149.784 251.312ZM150.644 261.088C150.633 258.735 153.125 257.36 157.153 257.371C161.16 257.36 163.652 258.735 163.663 261.088C163.652 263.43 161.16 264.794 157.153 264.783C153.125 264.794 150.633 263.43 150.644 261.088ZM152.642 261.088C152.631 262.409 154.328 263.183 157.153 263.172C159.979 263.183 161.665 262.409 161.665 261.088C161.665 259.713 159.979 258.95 157.153 258.939C154.328 258.95 152.631 259.713 152.642 261.088ZM157.68 249.916C157.809 250.346 157.884 250.818 157.884 251.312C157.884 251.785 157.809 252.247 157.68 252.666H161.558V249.916H157.68Z" fill="#3E2050"/>
</g>
<path fill-rule="evenodd" clip-rule="evenodd" d="M207 1H1V321H207V1ZM0 0V322H208V0H0Z" fill="#3D0E0E"/>
</svg>
