<svg width="164" height="324" viewBox="0 0 164 324" fill="none" xmlns="http://www.w3.org/2000/svg">
<g opacity="0.6">
<g opacity="0.7">
<path d="M71.7533 160.7C76.3783 160.725 79.7033 162.95 79.7033 166.4C79.7033 169.6 76.8283 171.725 72.7033 172.025V176.6H81.7533V178.2H61.9033V176.6H70.8033V172.025C66.7283 171.725 63.8283 169.6 63.8533 166.4C63.8283 162.95 67.1783 160.725 71.7533 160.7ZM65.7033 166.4C65.6783 168.875 68.2533 170.5 71.7533 170.5C75.2783 170.5 77.8533 168.875 77.8533 166.4C77.8533 163.925 75.2783 162.275 71.7533 162.3C68.2533 162.275 65.6783 163.925 65.7033 166.4Z" fill="#502B20"/>
<path d="M101.46 159.3V175.2H99.5598V166.9H95.1098V165.3H99.5598V159.3H101.46ZM83.5598 170.85C86.7848 169.75 89.1098 166.875 89.1098 163.75V162.65H84.2098V161.05H95.9098V162.65H91.0598V163.75C91.0348 166.575 93.2098 169.3 96.4098 170.4L95.4098 171.9C92.9348 171.025 91.0348 169.225 90.1098 167C89.1598 169.5 87.1348 171.475 84.5598 172.45L83.5598 170.85ZM87.5598 180.5V173.8H89.4598V178.9H102.11V180.5H87.5598Z" fill="#502B20"/>
<path d="M118.366 161.3V179H116.166V163.6H116.066L111.766 166.45V164.25L116.166 161.3H118.366Z" fill="#502B20"/>
<path d="M129.328 161.3V179H127.128V163.6H127.028L122.728 166.45V164.25L127.128 161.3H129.328Z" fill="#502B20"/>
<path d="M140.99 165.1C140.965 169.075 143.665 173.05 146.84 174.5L145.69 176.05C143.215 174.825 141.065 172.25 140.04 169.125C139.04 172.425 136.89 175.175 134.34 176.45L133.14 174.85C136.39 173.375 139.065 169.225 139.09 165.1V161.15H140.99V165.1ZM149.24 181V159.3H151.14V181H149.24Z" fill="#502B20"/>
</g>
<path d="M96.3982 210.243H100.335V212.103H95.7472L92.4302 221.31L90.6632 220.628L98.5372 198.68L100.335 199.3L96.3982 210.243ZM106.752 221.372L100.707 204.26L102.474 203.547L108.519 220.659L106.752 221.372Z" fill="#472317"/>
<path d="M113.462 199.021V221H111.54V199.021H113.462ZM115.973 209.809C118.98 209.809 120.933 208.042 120.933 205.345C120.933 202.648 119.011 200.881 116.004 200.881H115.849V199.021H116.004C120.158 199.021 122.855 201.501 122.855 205.345C122.855 209.189 120.158 211.669 115.973 211.669H115.88V209.809H115.973Z" fill="#472317"/>
<path d="M90.1982 224.1H123.816V225.65H90.1982V224.1Z" fill="#472317"/>
<path fill-rule="evenodd" clip-rule="evenodd" d="M100.436 210.143V212.203H95.8179L92.49 221.44L90.5365 220.686L98.4769 198.553L100.464 199.238L96.5409 210.143H100.436ZM106.693 221.504L100.581 204.203L102.534 203.415L108.646 220.716L106.693 221.504ZM113.562 198.921V221.1H111.44V198.921H113.562ZM115.749 200.981V198.921H116.004C118.101 198.921 119.84 199.547 121.055 200.668C122.272 201.79 122.955 203.398 122.955 205.345C122.955 207.291 122.272 208.9 121.051 210.022C119.832 211.143 118.085 211.769 115.973 211.769H115.78V209.709H115.973C117.458 209.709 118.672 209.273 119.514 208.514C120.355 207.756 120.833 206.668 120.833 205.345C120.833 204.021 120.363 202.933 119.529 202.176C118.695 201.417 117.489 200.981 116.004 200.981H115.749ZM90.0986 224H123.916V225.75H90.0986V224ZM100.336 210.243H96.3986L100.336 199.3L98.5376 198.68L90.6636 220.628L92.4306 221.31L95.7476 212.103H100.336V210.243ZM100.708 204.26L106.753 221.372L108.52 220.659L102.475 203.547L100.708 204.26ZM113.462 221V199.021H111.54V221H113.462ZM120.933 205.345C120.933 208.042 118.98 209.809 115.973 209.809H115.88V211.669H115.973C120.158 211.669 122.855 209.189 122.855 205.345C122.855 201.501 120.158 199.021 116.004 199.021H115.849V200.881H116.004C119.011 200.881 120.933 202.648 120.933 205.345ZM123.816 224.1H90.1986V225.65H123.816V224.1Z" fill="#472317"/>
<g opacity="0.7">
<path d="M60.9964 246.576V251.504H63.7684V253.176H60.9964V258.192H58.9724V246.576H60.9964ZM46.6084 256.96V247.764H48.6324V250.668H53.6484V247.764H55.6724V256.96H46.6084ZM48.2804 260.788V259.16H60.9964V265.804H58.9724V260.788H48.2804ZM48.6324 255.332H53.6484V252.252H48.6324V255.332Z" fill="#502B20"/>
<path d="M82.4741 256.3V257.972H74.8181V261.712H72.8381V257.972H64.8741V256.3H82.4741ZM67.0301 265.408V259.864H69.0981V263.78H80.5381V265.408H67.0301ZM67.1181 254.32V247.456H80.1861V254.32H67.1181ZM69.0981 252.692H78.1621V249.084H69.0981V252.692Z" fill="#502B20"/>
<path d="M89.2117 247.676C90.7957 247.676 92.1597 248.27 93.0617 249.26H97.9237V246.576H99.9477V257.928H97.9237V255.332H93.0617C92.1597 256.322 90.7957 256.916 89.2117 256.916C86.3297 256.916 84.1737 255.002 84.1957 252.296C84.1737 249.59 86.3297 247.676 89.2117 247.676ZM86.1317 252.296C86.1097 253.99 87.4077 255.178 89.2117 255.156C90.9717 255.178 92.2697 253.99 92.2917 252.296C92.2697 250.58 90.9717 249.436 89.2117 249.436C87.4077 249.436 86.1097 250.58 86.1317 252.296ZM86.9677 262.064C86.9677 259.732 89.4757 258.368 93.4797 258.368C97.5057 258.368 99.9917 259.732 99.9917 262.064C99.9917 264.418 97.5057 265.804 93.4797 265.804C89.4757 265.804 86.9677 264.418 86.9677 262.064ZM88.9917 262.064C88.9697 263.406 90.6637 264.176 93.4797 264.176C96.3177 264.176 98.0117 263.406 98.0117 262.064C98.0117 260.722 96.3177 259.952 93.4797 259.952C90.6637 259.952 88.9697 260.722 88.9917 262.064ZM94.0297 253.66H97.9237V250.932H94.0297C94.1617 251.35 94.2277 251.812 94.2277 252.296C94.2277 252.78 94.1617 253.242 94.0297 253.66Z" fill="#502B20"/>
<path d="M109.545 247.72L104.529 266.332H102.461L107.477 247.72H109.545Z" fill="#502B20"/>
<path d="M120.671 247.808C120.693 252.714 117.195 256.19 111.475 257.664L110.683 256.08C115.325 254.87 118.141 252.45 118.515 249.392H111.739V247.808H120.671ZM113.851 265.584V258.28H126.479V265.584H113.851ZM115.875 263.956H124.499V259.908H115.875V263.956ZM124.455 257.4V246.576H126.479V257.4H124.455Z" fill="#502B20"/>
<path d="M136.649 250.58C136.649 253.088 138.497 255.442 141.489 256.344L140.433 257.972C138.211 257.246 136.539 255.728 135.659 253.792C134.801 255.882 133.085 257.554 130.797 258.368L129.741 256.74C132.733 255.728 134.581 253.22 134.581 250.58V249.744H130.269V248.116H140.873V249.744H136.649V250.58ZM132.909 265.408V259.336H134.933V263.78H146.065V265.408H132.909ZM143.469 260.656V246.576H145.493V260.656H143.469Z" fill="#502B20"/>
<path d="M153.858 247.676C155.442 247.676 156.806 248.27 157.708 249.26H162.57V246.576H164.594V257.928H162.57V255.332H157.708C156.806 256.322 155.442 256.916 153.858 256.916C150.976 256.916 148.82 255.002 148.842 252.296C148.82 249.59 150.976 247.676 153.858 247.676ZM150.778 252.296C150.756 253.99 152.054 255.178 153.858 255.156C155.618 255.178 156.916 253.99 156.938 252.296C156.916 250.58 155.618 249.436 153.858 249.436C152.054 249.436 150.756 250.58 150.778 252.296ZM151.614 262.064C151.614 259.732 154.122 258.368 158.126 258.368C162.152 258.368 164.638 259.732 164.638 262.064C164.638 264.418 162.152 265.804 158.126 265.804C154.122 265.804 151.614 264.418 151.614 262.064ZM153.638 262.064C153.616 263.406 155.31 264.176 158.126 264.176C160.964 264.176 162.658 263.406 162.658 262.064C162.658 260.722 160.964 259.952 158.126 259.952C155.31 259.952 153.616 260.722 153.638 262.064ZM158.676 253.66H162.57V250.932H158.676C158.808 251.35 158.874 251.812 158.874 252.296C158.874 252.78 158.808 253.242 158.676 253.66Z" fill="#502B20"/>
</g>
</g>
<g opacity="0.9">
<path d="M91.4675 28.4746C91.9425 25.9996 92.0925 23.6996 92.0925 22.0246H77.9425V20.5996H93.7925C93.8425 22.9996 93.6425 25.7246 93.1425 28.4746H91.4675ZM96.1675 30.8496H75.4175V29.3496H96.1675V30.8496ZM78.0675 41.5746V33.8246H79.7175V41.5746H78.0675ZM91.8675 35.2746H80.7175V33.8246H93.5675V39.2496H91.8675V35.2746ZM93.5675 41.5746H80.7175V40.1246H93.5675V41.5746Z" fill="#533A3A"/>
<path d="M104.048 23.3496C102.748 24.0746 102.023 25.1996 102.023 26.6996C102.023 29.3996 104.648 30.7996 108.373 30.7996C112.073 30.7996 114.698 29.3996 114.698 26.6996C114.698 23.9996 112.273 22.4496 108.373 22.4496C107.273 22.4496 106.273 22.5746 105.423 22.7996L104.598 21.4746C105.673 21.1746 106.923 20.9996 108.373 20.9996C113.698 20.9996 116.373 23.3496 116.373 26.6996C116.373 30.6746 112.623 32.2246 108.373 32.2246C103.998 32.2246 100.373 30.6496 100.373 26.6996C100.373 24.6996 101.298 23.0496 103.173 22.0496L104.048 23.3496ZM98.1226 37.0996H103.248V33.0996H104.948V37.0996H111.823V33.0996H113.498V37.0996H118.623V38.5496H98.1226V37.0996Z" fill="#533A3A"/>
<path d="M138.183 19.8496H139.883V31.2746H138.183V19.8496ZM123.708 23.4496C123.358 23.9996 123.133 24.6996 123.133 25.5246C123.133 27.7996 124.733 29.0996 127.108 29.0996C129.508 29.0996 131.158 27.7996 131.158 25.5246C131.158 23.2496 129.483 21.9496 127.108 21.9496C126.158 21.9496 125.333 22.1496 124.683 22.5496L123.708 21.3746C124.633 20.7996 125.758 20.4996 127.108 20.4996C130.408 20.4996 132.708 22.2996 132.708 25.5246C132.708 28.7996 130.308 30.5746 127.108 30.5746C123.808 30.5746 121.558 28.6246 121.558 25.5246C121.558 24.2246 121.958 23.1246 122.633 22.2996L123.708 23.4496ZM138.083 34.0996H124.933V32.6246H139.883V35.4246H138.083V34.0996ZM124.933 36.2996H139.883V37.7496H124.933V36.2996ZM126.708 40.0996H140.608V41.5746H124.933V38.6246H126.708V40.0996Z" fill="#533A3A"/>
</g>
<path opacity="0.9" d="M100.746 56.116L102.186 57.7L92.4658 66.232L91.0618 64.612L100.746 56.116ZM101.898 63.28V82H99.6658V63.28H101.898ZM116.863 56.044L118.663 57.34L112.939 65.188L111.139 63.856L116.863 56.044ZM116.431 82.432C111.859 82.432 108.439 78.976 108.439 74.368C108.439 69.832 111.859 66.412 116.431 66.412C121.003 66.412 124.423 69.832 124.423 74.368C124.423 78.976 121.003 82.432 116.431 82.432ZM116.431 80.308C119.707 80.308 122.191 77.788 122.191 74.404C122.191 71.056 119.707 68.536 116.431 68.536C113.155 68.536 110.671 71.056 110.671 74.404C110.671 77.788 113.155 80.308 116.431 80.308Z" fill="#533A3A"/>
<path d="M1 1V323" stroke="#3D0E0E"/>
<path d="M1 100H164" stroke="#3D0E0E"/>
<path d="M1 323H164" stroke="#3D0E0E"/>
<path d="M1 1H164" stroke="#3D0E0E"/>
</svg>
