<svg width="510" height="120" viewBox="0 0 510 120" fill="none" xmlns="http://www.w3.org/2000/svg">
<path d="M111.395 34.568H118.507V37.928H110.219L104.227 54.56L101.035 53.328L115.259 13.68L118.507 14.8L111.395 34.568ZM130.099 54.672L119.179 23.76L122.371 22.472L133.291 53.384L130.099 54.672ZM172.545 41.792L169.521 43.36L158.601 19.728L151.993 54.448L148.633 53.776L156.137 14.296H159.833L172.545 41.792ZM181.393 19.952L176.241 32.496L173.105 31.208L180.049 14.296H183.689L192.257 53.832L188.897 54.504L181.393 19.952ZM214.818 54.672C204.178 54.672 196.17 46.104 196.17 34.68C196.17 29.024 197.906 24.04 200.818 20.344L203.17 22.92C200.93 25.776 199.642 29.696 199.642 34.12C199.642 43.92 206.138 51.312 214.818 51.312C223.498 51.312 229.994 43.92 229.994 34.12C229.994 24.32 223.498 16.984 214.818 16.984C212.746 16.984 210.73 17.376 208.938 18.216L207.258 15.248C209.722 14.072 212.41 13.624 214.818 13.624C225.458 13.624 233.466 22.192 233.466 33.56C233.466 45.6 225.458 54.672 214.818 54.672ZM260.743 25.664C260.743 32.552 255.871 37.032 248.311 37.032H243.775V54H240.303V14.296H243.775V33.728H248.367C253.799 33.728 257.271 30.536 257.271 25.664C257.271 20.792 253.799 17.656 248.367 17.656H248.255V14.296H248.367C255.871 14.296 260.743 18.776 260.743 25.664ZM259.343 54.28L249.375 43.304L251.951 41.12L261.751 51.928L259.343 54.28ZM287.795 54H268.139V14.296H271.611V31.656H286.339V35.016H271.611V50.64H287.795V54ZM276.539 17.656V14.296H287.515V17.656H276.539ZM311.642 14.296V54H308.17V14.296H311.642ZM325.754 50.64V54H316.906V50.64H325.754ZM335.486 14.296V54H332.014V14.296H335.486ZM365.759 13.68L369.007 14.856L360.719 39.944L357.583 38.768L365.759 13.68ZM344.423 13.736L356.295 53.608L353.047 54.672L341.175 14.8L344.423 13.736ZM394.381 54H374.725V14.296H378.197V31.656H392.925V35.016H378.197V50.64H394.381V54ZM383.125 17.656V14.296H394.101V17.656H383.125ZM406.327 14.296V44.312H402.855V14.296H406.327ZM404.591 54.672C403.135 54.672 401.959 53.496 401.959 52.04C401.959 50.64 403.191 49.408 404.591 49.408C406.047 49.408 407.223 50.584 407.223 52.04C407.223 53.496 406.047 54.672 404.591 54.672Z" fill="white"/>
<path d="M23.1449 110.992V89.488H25.2889V110.992H23.1449ZM3.88088 91.056H18.1849V92.912H3.88088V91.056ZM6.05688 103.888H10.3129C15.4329 103.888 18.5049 103.696 21.5449 103.088V104.976C18.6009 105.552 15.6249 105.712 10.2809 105.712H3.91288V94.192H6.05688V103.888ZM30.7609 98.608V100.432H26.4089V98.608H30.7609ZM8.96888 114.96H26.3769V116.816H6.79288V108.976H8.96888V114.96ZM47.4824 90.992L48.7624 92.4L40.1224 99.984L38.8744 98.544L47.4824 90.992ZM48.5064 97.36V114H46.5224V97.36H48.5064ZM60.4651 114.352C56.3691 114.352 53.8731 109.648 53.8731 102.64C53.8731 98.864 54.5451 95.792 55.9851 93.616L57.2971 95.12C56.3051 97.04 55.8571 99.952 55.8571 102.64C55.8571 108.24 57.5211 112.432 60.4651 112.432C63.4091 112.432 65.0731 108.24 65.0731 102.64C65.0731 97.04 63.4091 92.848 60.4651 92.848C60.1771 92.848 59.8571 92.912 59.7611 92.944L58.9611 91.184C59.4091 91.024 59.8571 90.928 60.4651 90.928C64.5611 90.928 67.0571 95.632 67.0571 102.64C67.0571 109.648 64.5611 114.352 60.4651 114.352ZM92.7604 89.488H94.9364V104.112H92.7604V89.488ZM74.2324 94.096C73.7844 94.8 73.4964 95.696 73.4964 96.752C73.4964 99.664 75.5444 101.328 78.5844 101.328C81.6564 101.328 83.7684 99.664 83.7684 96.752C83.7684 93.84 81.6244 92.176 78.5844 92.176C77.3684 92.176 76.3124 92.432 75.4804 92.944L74.2324 91.44C75.4164 90.704 76.8564 90.32 78.5844 90.32C82.8084 90.32 85.7524 92.624 85.7524 96.752C85.7524 100.944 82.6804 103.216 78.5844 103.216C74.3604 103.216 71.4804 100.72 71.4804 96.752C71.4804 95.088 71.9924 93.68 72.8564 92.624L74.2324 94.096ZM92.6324 107.728H75.8004V105.84H94.9364V109.424H92.6324V107.728ZM75.8004 110.544H94.9364V112.4H75.8004V110.544ZM78.0724 115.408H95.8644V117.296H75.8004V113.52H78.0724V115.408ZM100.535 110.992L102.551 111.28L101.655 117.232L99.6394 116.912L100.535 110.992ZM134.527 89.488H136.671V104.112H134.527V89.488ZM112.287 102.64C118.719 98.992 120.223 94.512 120.223 91.184V90.288H122.367V91.184C122.367 96.88 119.103 100.816 113.919 104.08L112.287 102.64ZM123.743 96.176C125.055 98.256 126.975 99.536 130.111 101.008L128.703 102.672C125.023 100.688 123.423 99.408 122.207 97.296L123.743 96.176ZM134.367 107.728H117.535V105.84H136.671V109.424H134.367V107.728ZM117.535 110.544H136.671V112.4H117.535V110.544ZM119.807 115.408H137.599V117.296H117.535V113.52H119.807V115.408ZM162.029 89.488H164.173V116.304H162.029V89.488ZM140.109 109.936C145.581 105.904 148.685 100.72 148.685 94.864V91.376H150.669V94.864C150.637 101.968 147.213 106.768 141.581 111.312L140.109 109.936ZM151.981 101.008C153.229 104.048 155.885 107.28 158.797 109.36L157.261 110.8C153.389 107.504 151.181 104.304 150.477 102.16L151.981 101.008ZM188.249 89.488H190.425V110.992H188.249V89.488ZM175.545 106.352C177.689 102.256 178.777 96.304 178.873 92.912H167.929V91.056H181.081C181.081 96.4 179.705 102.64 177.593 107.088L175.545 106.352ZM195.897 98.736V100.592H191.545V98.736H195.897ZM174.233 114.96H191.513V116.816H172.089V109.136H174.233V114.96ZM204.879 93.968C203.215 94.896 202.287 96.336 202.287 98.256C202.287 101.712 205.455 103.696 210.415 103.696C215.375 103.696 218.511 101.712 218.511 98.256C218.511 94.8 215.407 92.816 210.415 92.816C209.007 92.816 207.727 92.976 206.639 93.264L205.583 91.568C206.959 91.184 208.559 90.96 210.415 90.96C217.231 90.96 220.655 93.968 220.655 98.256C220.655 103.344 216.079 105.52 210.415 105.52C204.623 105.52 200.175 103.312 200.175 98.256C200.175 95.696 201.359 93.584 203.759 92.304L204.879 93.968ZM197.295 111.568H223.535V113.424H197.295V111.568ZM246.909 93.072H229.341V91.216H249.021V96.368H246.909V93.072ZM249.021 99.632H229.341V97.808H249.021V99.632ZM250.173 105.52C247.613 106.192 244.669 106.352 239.837 106.352H229.341V101.072H231.453V104.56H239.869C244.125 104.56 246.717 104.432 249.885 103.728L250.173 105.52ZM252.285 111.568V113.424H226.045V111.568H238.077V107.632H240.253V111.568H252.285ZM285.787 100.016C283.227 100.656 280.283 100.848 275.451 100.848H265.243V90.448H267.387V98.96H275.483C279.771 98.96 282.331 98.832 285.531 98.16L285.787 100.016ZM262.107 105.328H288.059V107.216H262.107V105.328ZM276.155 116.624H273.979V108.496H276.155V116.624ZM312.465 116.304V89.488H314.609V116.304H312.465ZM292.721 93.232V91.376H305.713V102.224H303.569V93.232H292.721ZM292.721 102.224V100.368H302.225V102.224H292.721ZM294.897 109.52H296.945C301.841 109.52 307.057 109.264 310.865 108.4V110.256C307.313 111.056 302.225 111.376 296.913 111.376H292.721V103.664H294.897V109.52ZM343.007 99.664C340.447 100.304 337.503 100.496 332.671 100.496H322.687V90.288H324.831V98.64H332.703C336.991 98.64 339.551 98.512 342.719 97.808L343.007 99.664ZM319.295 104.72H345.855V106.576H319.295V104.72ZM324.831 115.12H343.455V116.976H322.687V109.136H324.831V115.12ZM378.038 101.104H372.438V99.344H378.038V94.832H372.438V93.104H378.038V89.488H380.214V105.68H378.038V101.104ZM359.862 94.128C359.318 94.896 358.998 95.888 358.998 97.072C358.998 100.144 361.142 102.032 364.086 102.032C366.998 102.032 369.142 100.144 369.142 97.072C369.142 93.968 366.998 92.112 364.086 92.112C362.902 92.112 361.846 92.4 361.014 92.976L359.766 91.472C360.95 90.704 362.422 90.288 364.086 90.288C368.214 90.288 371.19 92.912 371.19 97.072C371.19 101.232 368.214 103.888 364.086 103.888C359.926 103.888 356.918 101.232 356.918 97.072C356.918 95.28 357.462 93.776 358.422 92.656L359.862 94.128ZM378.038 109.52H361.078V107.696H380.214V116.976H378.038V109.52ZM401.781 89.808H403.957V99.664H408.501V89.488H410.677V116.304H408.501V101.488H401.781V89.808ZM387.221 91.856H398.069V93.68H387.221V91.856ZM400.181 110.256C398.101 110.576 395.733 110.736 392.309 110.736H387.221V94.96H389.397V108.912H392.021C395.349 108.912 397.717 108.848 400.181 108.368V110.256ZM403.957 115.856H401.781V102.768H403.957V115.856ZM435.901 100.4C436.509 97.232 436.701 94.416 436.701 92.272H418.589V90.448H438.877C438.941 93.52 438.685 96.88 438.045 100.4H435.901ZM441.917 103.44H415.357V101.52H441.917V103.44ZM418.749 117.296V105.616H420.861V109.936H435.165V111.792H420.861V117.296H418.749ZM436.445 105.616H438.589V114.32H436.445V105.616ZM438.621 117.296H422.141V115.44H438.621V117.296ZM476.564 89.488V116.304H474.42V89.488H476.564ZM469.236 89.808H471.348V104.88H469.236V101.84H464.916V100.048H469.236V89.808ZM463.316 92.976C460.148 93.04 456.436 93.136 454.132 92.208L454.484 90.576C457.364 91.632 460.468 91.28 463.316 91.28V92.976ZM465.748 98.384H451.732V96.56H465.748V98.384ZM459.188 101.2C462.772 101.2 465.332 103.248 465.3 106.64C465.268 109.936 462.932 112.016 459.188 112.016C455.38 112.016 453.044 109.776 453.044 106.64C453.044 105.168 453.524 103.92 454.42 102.992L455.86 104.336C455.348 104.944 455.06 105.776 455.06 106.64C455.06 108.752 456.532 110.224 459.188 110.224C461.812 110.224 463.348 108.752 463.348 106.64C463.348 104.624 461.812 102.992 459.188 102.992C458.388 102.992 457.716 103.12 457.14 103.376L455.7 102C456.66 101.488 457.812 101.2 459.188 101.2ZM471.348 115.856H469.236V107.984H466.452V106.16H471.348V115.856ZM497.936 89.84H499.984V96.88H504.208V89.488H506.256V106.32H504.208V98.704H497.936V89.84ZM483.6 90.736H494.384V92.592H483.6V90.736ZM487.248 103.216C491.056 103.216 494.064 103.12 496.656 102.8V104.624C494.064 104.944 491.088 105.072 487.088 105.072H483.6V93.712H485.776V103.216H487.248ZM494.064 97.136V98.896H486.896V97.136H494.064ZM499.984 106.32H497.936V99.824H499.984V106.32ZM504.016 110.16H486.832V108.304H506.16V116.976H504.016V110.16Z" fill="white"/>
</svg>
