<svg width="201" height="64" viewBox="0 0 201 64" fill="none" xmlns="http://www.w3.org/2000/svg">
<path d="M32.373 12.8516V27.6328H38.1309V32.1445H32.373V52.0391H26.959V12.8516H32.373ZM3.11133 20.543V16.1172H21.2012V31.2852H8.61133V38.375C14.3047 38.3535 19.0098 38.0957 24.209 37.2148L24.6816 41.5977C18.709 42.6934 13.3379 42.9297 6.46289 42.9297H3.1543V26.9453H15.7441V20.543H3.11133ZM72.291 12.8516V52.0391H66.748V12.8516H72.291ZM40.709 29.5234C40.6875 20.9941 45.0488 15.6016 51.0645 15.6016C56.9512 15.6016 61.334 20.9941 61.334 29.5234C61.334 38.1172 56.9512 43.4883 51.0645 43.4883C45.0488 43.4883 40.6875 38.1172 40.709 29.5234ZM45.9941 29.5234C45.9727 35.3457 48.0137 38.5254 51.0645 38.5039C54.0293 38.5254 56.0273 35.3457 56.0488 29.5234C56.0273 23.7227 54.0293 20.543 51.0645 20.543C48.0137 20.543 45.9727 23.7227 45.9941 29.5234ZM113.369 42.7578V47.2266H77.5762V42.7578H113.369ZM81.3574 36.2266V15.3438H86.8574V21.832H103.916V15.3438H109.373V36.2266H81.3574ZM86.8574 31.9297H103.916V26.0859H86.8574V31.9297ZM136.873 14.0117C142.824 13.9902 147.293 17.7285 147.314 22.9492C147.293 28.127 142.824 31.8223 136.873 31.8438C130.836 31.8223 126.346 28.127 126.346 22.9492C126.346 17.7285 130.836 13.9902 136.873 14.0117ZM131.674 22.9492C131.631 25.7422 133.844 27.3965 136.873 27.418C139.838 27.3965 142.008 25.7422 142.029 22.9492C142.008 20.1348 139.838 18.4805 136.873 18.4805C133.865 18.4805 131.631 20.1348 131.674 22.9492ZM132.232 38.2891V34.0781H158.486V44.6914H137.689V47.2266H159.561V51.5234H132.318V40.6953H153.029V38.2891H132.232ZM152.986 32.4453V12.8516H158.486V32.4453H152.986ZM196.729 12.8516V36.0547H191.271V26.8164H185.17V22.3906H191.271V12.8516H196.729ZM163.514 31.7578C169.916 29.6094 172.838 24.4961 172.967 19.5977H165.104V15.2148H186.33V19.5977H178.553C178.66 24.1523 181.453 28.75 187.533 30.7695L184.826 35.0664C180.529 33.6699 177.543 30.834 175.846 27.332C174.127 31.3066 170.99 34.5078 166.35 36.0977L163.514 31.7578ZM169.916 44.4766C169.916 39.7285 175.029 36.9355 183.365 36.9141C191.723 36.9355 196.836 39.7285 196.857 44.4766C196.836 49.2246 191.723 51.9961 183.365 51.9961C175.029 51.9961 169.916 49.2246 169.916 44.4766ZM175.373 44.4766C175.373 46.7109 178.188 47.8281 183.365 47.8281C188.564 47.8281 191.379 46.7109 191.4 44.4766C191.379 42.2207 188.564 41.1035 183.365 41.125C178.188 41.1035 175.373 42.2207 175.373 44.4766Z" fill="#43264A"/>
<path d="M0 60L201 60" stroke="#43264A" stroke-width="1.5"/>
</svg>
