<svg width="213" height="324" viewBox="0 0 213 324" fill="none" xmlns="http://www.w3.org/2000/svg">
<g opacity="0.6">
<g opacity="0.7">
<path d="M73.1347 160.7C77.7597 160.725 81.0847 162.95 81.0847 166.4C81.0847 169.6 78.2097 171.725 74.0847 172.025V176.6H83.1347V178.2H63.2847V176.6H72.1847V172.025C68.1097 171.725 65.2097 169.6 65.2347 166.4C65.2097 162.95 68.5597 160.725 73.1347 160.7ZM67.0847 166.4C67.0597 168.875 69.6347 170.5 73.1347 170.5C76.6597 170.5 79.2347 168.875 79.2347 166.4C79.2347 163.925 76.6597 162.275 73.1347 162.3C69.6347 162.275 67.0597 163.925 67.0847 166.4Z" fill="#502B20"/>
<path d="M103.491 161.75V163.35H85.8911V161.75H93.7911V159.15H95.6911V161.75H103.491ZM84.8911 174.95V173.35H104.741V174.95H95.6911V181H93.7911V174.95H84.8911ZM87.6911 168.25C87.6411 165.9 90.3161 164.6 94.7411 164.6C99.1661 164.6 101.816 165.9 101.841 168.25C101.816 170.525 99.1661 171.825 94.7411 171.85C90.3161 171.825 87.6411 170.525 87.6911 168.25ZM89.6411 168.25C89.6411 169.575 91.5161 170.375 94.7411 170.35C97.9661 170.375 99.8411 169.575 99.8411 168.25C99.8411 166.875 97.9661 166.075 94.7411 166.05C91.5161 166.075 89.6411 166.875 89.6411 168.25Z" fill="#502B20"/>
<path d="M119.448 179.25C115.698 179.25 113.123 177.175 113.148 174.3C113.123 172.025 114.723 170.15 116.748 169.8V169.75C114.973 169.325 113.823 167.7 113.798 165.75C113.823 163.075 116.173 161.075 119.448 161.1C122.648 161.075 124.998 163.075 124.998 165.75C124.998 167.7 123.823 169.325 122.098 169.75V169.8C124.098 170.15 125.698 172.025 125.698 174.3C125.698 177.175 123.098 179.25 119.448 179.25ZM115.348 174.2C115.298 176.05 116.873 177.3 119.448 177.3C121.948 177.3 123.523 176.05 123.498 174.2C123.523 172.225 121.798 170.8 119.448 170.8C117.048 170.8 115.298 172.225 115.348 174.2ZM115.948 165.95C115.948 167.725 117.398 168.925 119.448 168.95C121.423 168.925 122.873 167.725 122.898 165.95C122.873 164.175 121.473 162.975 119.448 163C117.323 162.975 115.948 164.175 115.948 165.95Z" fill="#502B20"/>
<path d="M135.609 165.1C135.584 169.075 138.284 173.05 141.459 174.5L140.309 176.05C137.834 174.825 135.684 172.25 134.659 169.125C133.659 172.425 131.509 175.175 128.959 176.45L127.759 174.85C131.009 173.375 133.684 169.225 133.709 165.1V161.15H135.609V165.1ZM143.859 181V159.3H145.759V181H143.859Z" fill="#502B20"/>
</g>
<path d="M51.6409 199.393H71.9149V201.16H51.6409V199.393ZM67.7919 202.4C67.6369 205.5 67.3579 208.755 67.1099 211.018H71.9149V212.785H51.6409V211.018H65.1259C65.3429 208.538 65.5599 205.345 65.6529 202.4H67.7919ZM58.0269 202.4C58.0889 204.539 58.2439 207.608 58.4299 209.778L56.3529 209.84C56.1979 207.639 56.0429 204.539 55.9809 202.4H58.0269ZM49.0679 218.644H74.4879V220.442H49.0679V218.644Z" fill="#472317"/>
<path d="M98.1544 223.232V197.254H100.231V223.232H98.1544ZM79.0275 200.881V199.083H91.6134V209.592H89.5365V200.881H79.0275ZM79.0275 209.592V207.794H88.2345V209.592H79.0275ZM81.1355 216.66H83.1194C87.8624 216.66 92.9154 216.412 96.6044 215.575V217.373C93.1634 218.148 88.2344 218.458 83.0884 218.458H79.0275V210.987H81.1355V216.66Z" fill="#472317"/>
<path d="M129.602 197.254V223.232H127.494V197.254H129.602ZM119.062 207.143H121.914V197.564H123.991V208.91H119.062V207.143ZM106.879 217.249V199.393H108.894V217.249H106.879ZM115.776 201.16H110.134V199.393H117.822V214.211H115.776V201.16ZM123.991 222.798H121.914V209.995H123.991V222.798ZM117.822 217.249H110.134V215.451H117.822V217.249Z" fill="#472317"/>
<path d="M154.751 223.232V197.254H156.828V223.232H154.751ZM136.244 200.881V199.083H148.83V209.592H146.753V200.881H136.244ZM162.129 207.701V209.499H157.913V207.701H162.129ZM136.244 209.592V207.794H145.482V209.592H136.244ZM138.352 216.66H140.336C144.769 216.66 149.512 216.443 153.201 215.606V217.404C149.76 218.179 145.141 218.458 140.305 218.458H136.244V210.987H138.352V216.66Z" fill="#472317"/>
<path d="M47.8589 224.1H162.129V225.65H47.8589V224.1Z" fill="#472317"/>
<path fill-rule="evenodd" clip-rule="evenodd" d="M51.5408 199.293H72.0148V201.26H51.5408V199.293ZM67.8969 202.3L67.8917 202.405C67.7391 205.457 67.4664 208.659 67.2213 210.918H72.0148V212.885H51.5408V210.918H65.0341C65.2483 208.453 65.461 205.304 65.5528 202.397L65.5559 202.3H67.8969ZM58.1239 202.3L58.1267 202.397C58.1887 204.535 58.3436 207.602 58.5294 209.77L58.5385 209.875L56.2598 209.943L56.253 209.847C56.0979 207.645 55.9429 204.544 55.8808 202.403L55.8778 202.3H58.1239ZM48.9678 218.544H74.5878V220.542H48.9678V218.544ZM98.0544 223.332V197.154H100.331V223.332H98.0544ZM78.9274 200.981V198.983H91.7133V209.692H89.4363V200.981H78.9274ZM78.9274 209.692V207.694H88.3344V209.692H78.9274ZM96.7044 215.45V217.453L96.6263 217.471C93.1742 218.248 88.2363 218.558 83.0883 218.558H78.9274V210.887H81.2354V216.56H83.1193C87.8612 216.56 92.9048 216.312 96.5822 215.478L96.7044 215.45ZM129.702 197.154V223.332H127.394V197.154H129.702ZM118.962 207.043H121.814V197.464H124.091V209.01H118.962V207.043ZM106.779 217.349V199.293H108.994V217.349H106.779ZM110.034 201.26V199.293H117.922V214.311H115.676V201.26H110.034ZM124.091 222.898H121.814V209.895H124.091V222.898ZM117.922 217.349H110.034V215.351H117.922V217.349ZM154.651 223.332V197.154H156.928V223.332H154.651ZM136.144 200.981V198.983H148.93V209.692H146.653V200.981H136.144ZM162.229 207.601V209.599H157.813V207.601H162.229ZM136.144 209.692V207.694H145.582V209.692H136.144ZM153.301 215.481V217.484L153.223 217.502C149.771 218.279 145.143 218.558 140.305 218.558H136.144V210.887H138.452V216.56H140.336C144.768 216.56 149.502 216.343 153.179 215.509L153.301 215.481ZM47.7588 224H162.229V225.75H47.7588V224ZM71.9148 199.393H51.6408V201.16H71.9148V199.393ZM67.1098 211.018C67.3578 208.755 67.6368 205.5 67.7918 202.4H65.6528C65.5598 205.345 65.3428 208.538 65.1258 211.018H51.6408V212.785H71.9148V211.018H67.1098ZM58.4298 209.778C58.2438 207.608 58.0888 204.539 58.0268 202.4H55.9808C56.0428 204.539 56.1978 207.639 56.3528 209.84L58.4298 209.778ZM74.4878 218.644H49.0678V220.442H74.4878V218.644ZM98.1544 197.254V223.232H100.231V197.254H98.1544ZM79.0274 199.083V200.881H89.5364V209.592H91.6133V199.083H79.0274ZM79.0274 207.794V209.592H88.2344V207.794H79.0274ZM83.1193 216.66H81.1354V210.987H79.0274V218.458H83.0883C88.2344 218.458 93.1634 218.148 96.6043 217.373V215.575C92.9154 216.412 87.8624 216.66 83.1193 216.66ZM129.602 223.232V197.254H127.494V223.232H129.602ZM121.914 207.143H119.062V208.91H123.991V197.564H121.914V207.143ZM106.879 199.393V217.249H108.894V199.393H106.879ZM110.134 201.16H115.776V214.211H117.822V199.393H110.134V201.16ZM121.914 222.798H123.991V209.995H121.914V222.798ZM110.134 217.249H117.822V215.451H110.134V217.249ZM154.751 197.254V223.232H156.828V197.254H154.751ZM136.244 199.083V200.881H146.753V209.592H148.83V199.083H136.244ZM162.129 209.499V207.701H157.913V209.499H162.129ZM136.244 207.794V209.592H145.482V207.794H136.244ZM140.336 216.66H138.352V210.987H136.244V218.458H140.305C145.141 218.458 149.76 218.179 153.201 217.404V215.606C149.512 216.443 144.769 216.66 140.336 216.66ZM162.129 224.1H47.8588V225.65H162.129V224.1Z" fill="#472317"/>
<g opacity="0.7">
<path d="M93.6263 256.784V260.128C95.3863 260.04 97.1903 259.886 98.8623 259.644L99.0383 261.14C94.6603 261.932 89.9963 261.976 86.5423 261.976L86.2783 260.304C87.8403 260.304 89.6663 260.282 91.6023 260.216V256.784H93.6263ZM86.8063 255.86C89.7103 255.068 91.4923 253.044 91.5583 250.668H87.3343V248.996H91.6023V246.708H93.6263V248.996H97.9823V250.668H93.6703C93.7363 252.934 95.5623 254.892 98.4663 255.64L97.4983 257.268C95.2103 256.608 93.4943 255.2 92.6363 253.374C91.7783 255.31 90.0843 256.762 87.7743 257.444L86.8063 255.86ZM100.094 265.848V246.576H102.118V265.848H100.094Z" fill="#502B20"/>
<path d="M121.132 246.576V265.804H119.108V246.576H121.132ZM105.292 260.436C108.966 260.458 113.74 260.458 117.876 259.908L118.052 261.404C113.718 262.152 109.142 262.196 105.6 262.196L105.292 260.436ZM105.732 250.712V249.084H110.572V246.796H112.64V249.084H117.48V250.712H105.732ZM106.964 255.332C106.942 253.11 108.856 251.702 111.628 251.68C114.378 251.702 116.27 253.11 116.292 255.332C116.27 257.51 114.378 258.962 111.628 258.94C108.856 258.962 106.942 257.51 106.964 255.332ZM108.9 255.332C108.856 256.564 110 257.378 111.628 257.356C113.212 257.378 114.334 256.564 114.312 255.332C114.334 254.078 113.212 253.264 111.628 253.264C110 253.264 108.856 254.078 108.9 255.332Z" fill="#502B20"/>
</g>
</g>
<g opacity="0.9">
<path d="M77.7175 28.3996H76.0675V20.5746H77.7175V28.3996ZM89.8675 22.0246H78.7175V20.5746H91.5675V25.9746H89.8675V22.0246ZM94.1675 31.0246V32.4996H73.4175V31.0246H82.9425V28.3996H78.7175V26.9746H91.5675V28.3996H84.6425V31.0246H94.1675ZM75.8675 34.7246H91.4925V41.5746H89.7925V36.1746H75.8675V34.7246Z" fill="#533A3A"/>
<path d="M102.048 23.3496C100.748 24.0746 100.023 25.1996 100.023 26.6996C100.023 29.3996 102.648 30.7996 106.373 30.7996C110.073 30.7996 112.698 29.3996 112.698 26.6996C112.698 23.9996 110.273 22.4496 106.373 22.4496C105.273 22.4496 104.273 22.5746 103.423 22.7996L102.598 21.4746C103.673 21.1746 104.923 20.9996 106.373 20.9996C111.698 20.9996 114.373 23.3496 114.373 26.6996C114.373 30.6746 110.623 32.2246 106.373 32.2246C101.998 32.2246 98.3726 30.6496 98.3726 26.6996C98.3726 24.6996 99.2976 23.0496 101.173 22.0496L102.048 23.3496ZM96.1226 37.0996H101.248V33.0996H102.948V37.0996H109.823V33.0996H111.498V37.0996H116.623V38.5496H96.1226V37.0996Z" fill="#533A3A"/>
<path d="M136.183 19.8496H137.883V31.2746H136.183V19.8496ZM121.708 23.4496C121.358 23.9996 121.133 24.6996 121.133 25.5246C121.133 27.7996 122.733 29.0996 125.108 29.0996C127.508 29.0996 129.158 27.7996 129.158 25.5246C129.158 23.2496 127.483 21.9496 125.108 21.9496C124.158 21.9496 123.333 22.1496 122.683 22.5496L121.708 21.3746C122.633 20.7996 123.758 20.4996 125.108 20.4996C128.408 20.4996 130.708 22.2996 130.708 25.5246C130.708 28.7996 128.308 30.5746 125.108 30.5746C121.808 30.5746 119.558 28.6246 119.558 25.5246C119.558 24.2246 119.958 23.1246 120.633 22.2996L121.708 23.4496ZM136.083 34.0996H122.933V32.6246H137.883V35.4246H136.083V34.0996ZM122.933 36.2996H137.883V37.7496H122.933V36.2996ZM124.708 40.0996H138.608V41.5746H122.933V38.6246H124.708V40.0996Z" fill="#533A3A"/>
</g>
<path opacity="0.9" d="M98.4743 56.116L99.9143 57.7L90.1943 66.232L88.7903 64.612L98.4743 56.116ZM99.6263 63.28V82H97.3943V63.28H99.6263ZM109.48 58.636V56.476H118.408V58.636H109.48ZM113.872 65.656C118.444 65.656 121.9 69.22 121.9 73.972C121.9 78.796 118.336 82.396 113.548 82.396C108.472 82.396 105.16 79.12 105.16 74.08H107.392C107.392 77.824 109.804 80.272 113.548 80.272C117.04 80.272 119.668 77.572 119.668 73.972C119.668 70.444 117.184 67.78 113.872 67.78C112.144 67.78 110.848 68.176 109.372 68.824V61.948H111.532V65.98C112.144 65.764 113.008 65.656 113.872 65.656Z" fill="#533A3A"/>
<path d="M212 1V323" stroke="#3D0E0E"/>
<path d="M1 1V323" stroke="#3D0E0E"/>
<path d="M1 100H212" stroke="#3D0E0E"/>
<path d="M1 323H212" stroke="#3D0E0E"/>
<path d="M1 1H212" stroke="#3D0E0E"/>
</svg>
