<svg width="209" height="322" viewBox="0 0 209 322" fill="none" xmlns="http://www.w3.org/2000/svg">
<path d="M208 0V322" stroke="#3D0E0E"/>
<path fill-rule="evenodd" clip-rule="evenodd" d="M207 1H1V321H207V1ZM0 0V322H208V0H0Z" fill="#3D0E0E"/>
<path fill-rule="evenodd" clip-rule="evenodd" d="M208 99.5H0V98.5H208V99.5Z" fill="#3D0E0E"/>
<path d="M73.7175 27.4001H72.0675V19.5751H73.7175V27.4001ZM85.8675 21.0251H74.7175V19.5751H87.5675V24.9751H85.8675V21.0251ZM90.1675 30.0251V31.5001H69.4175V30.0251H78.9425V27.4001H74.7175V25.9751H87.5675V27.4001H80.6425V30.0251H90.1675ZM71.8675 33.7251H87.4925V40.5751H85.7925V35.1751H71.8675V33.7251Z" fill="#3D0E0E"/>
<path d="M98.0476 22.3501C96.7476 23.0751 96.0226 24.2001 96.0226 25.7001C96.0226 28.4001 98.6476 29.8001 102.373 29.8001C106.073 29.8001 108.698 28.4001 108.698 25.7001C108.698 23.0001 106.273 21.4501 102.373 21.4501C101.273 21.4501 100.273 21.5751 99.4226 21.8001L98.5976 20.4751C99.6726 20.1751 100.923 20.0001 102.373 20.0001C107.698 20.0001 110.373 22.3501 110.373 25.7001C110.373 29.6751 106.623 31.2251 102.373 31.2251C97.9976 31.2251 94.3726 29.6501 94.3726 25.7001C94.3726 23.7001 95.2976 22.0501 97.1726 21.0501L98.0476 22.3501ZM92.1226 36.1001H97.2476V32.1001H98.9476V36.1001H105.823V32.1001H107.498V36.1001H112.623V37.5501H92.1226V36.1001Z" fill="#3D0E0E"/>
<path d="M132.183 18.8501H133.883V30.2751H132.183V18.8501ZM117.708 22.4501C117.358 23.0001 117.133 23.7001 117.133 24.5251C117.133 26.8001 118.733 28.1001 121.108 28.1001C123.508 28.1001 125.158 26.8001 125.158 24.5251C125.158 22.2501 123.483 20.9501 121.108 20.9501C120.158 20.9501 119.333 21.1501 118.683 21.5501L117.708 20.3751C118.633 19.8001 119.758 19.5001 121.108 19.5001C124.408 19.5001 126.708 21.3001 126.708 24.5251C126.708 27.8001 124.308 29.5751 121.108 29.5751C117.808 29.5751 115.558 27.6251 115.558 24.5251C115.558 23.2251 115.958 22.1251 116.633 21.3001L117.708 22.4501ZM132.083 33.1001H118.933V31.6251H133.883V34.4251H132.083V33.1001ZM118.933 35.3001H133.883V36.7501H118.933V35.3001ZM120.708 39.1001H134.608V40.5751H118.933V37.6251H120.708V39.1001Z" fill="#3D0E0E"/>
<path d="M94.9184 65.1239C95.8544 63.9359 96.4664 62.9279 96.4664 61.6319C96.4664 59.1119 94.5224 57.2039 91.9664 57.2039C89.4104 57.2039 87.5024 59.0399 87.5024 61.4879C87.5024 63.1439 88.2944 64.2959 89.3744 65.2679L87.8624 66.7799C86.3144 65.6279 85.2704 63.7199 85.2704 61.4879C85.2704 57.8159 88.1504 55.0439 91.9664 55.0439C95.8184 55.0439 98.6984 57.8519 98.6984 61.6319C98.6984 62.9999 98.1224 64.7279 96.7544 66.4199L89.5184 75.5639L87.7544 74.1959L94.9184 65.1239ZM99.6704 78.8399V80.9999H84.8384V78.8399H99.6704Z" fill="#3D0E0E"/>
<path d="M114.852 65.1239C115.788 63.9359 116.4 62.9279 116.4 61.6319C116.4 59.1119 114.456 57.2039 111.9 57.2039C109.344 57.2039 107.436 59.0399 107.436 61.4879C107.436 63.1439 108.228 64.2959 109.308 65.2679L107.796 66.7799C106.248 65.6279 105.204 63.7199 105.204 61.4879C105.204 57.8159 108.084 55.0439 111.9 55.0439C115.752 55.0439 118.632 57.8519 118.632 61.6319C118.632 62.9999 118.056 64.7279 116.688 66.4199L109.452 75.5639L107.688 74.1959L114.852 65.1239ZM119.604 78.8399V80.9999H104.772V78.8399H119.604Z" fill="#3D0E0E"/>
<g opacity="0.85">
<path d="M69.2578 159.689C73.8721 159.714 77.1924 161.96 77.1924 165.378C77.1924 168.613 74.3115 170.749 70.1855 171.03V175.583H79.2432V177.194H59.3701V175.583H68.3057V171.03C64.2041 170.737 61.3232 168.601 61.3232 165.378C61.3232 161.96 64.6558 159.714 69.2578 159.689ZM63.1787 165.378C63.1665 167.88 65.7422 169.504 69.2578 169.528C72.7734 169.504 75.3369 167.88 75.3369 165.378C75.3369 162.924 72.7734 161.264 69.2578 161.276C65.7422 161.264 63.1665 162.924 63.1787 165.378Z" fill="#3E2050"/>
<path d="M98.9697 158.298V174.216H97.041V165.891H92.5732V164.304H97.041V158.298H98.9697ZM81.0742 169.87C84.2725 168.747 86.5918 165.878 86.5918 162.766V161.643H81.6846V160.056H93.3789V161.643H88.5205V162.766C88.5205 165.573 90.6934 168.295 93.8672 169.382L92.8662 170.92C90.4248 170.029 88.5327 168.21 87.5928 165.964C86.6528 168.479 84.6509 170.468 82.0752 171.433L81.0742 169.87ZM85.0293 179.514V172.775H86.958V177.902H99.5801V179.514H85.0293Z" fill="#3E2050"/>
<path d="M115.889 160.324V178H113.667V162.619H113.569L109.272 165.476V163.254L113.667 160.324H115.889Z" fill="#3E2050"/>
<path d="M126.851 160.324V178H124.629V162.619H124.531L120.234 165.476V163.254L124.629 160.324H126.851Z" fill="#3E2050"/>
<path d="M138.496 164.108C138.484 168.076 141.182 172.055 144.38 173.508L143.208 175.021C140.73 173.825 138.594 171.25 137.556 168.161C136.555 171.433 134.419 174.179 131.88 175.461L130.659 173.85C133.894 172.373 136.567 168.222 136.592 164.108V160.153H138.496V164.108ZM146.748 180.026V158.273H148.677V180.026H146.748Z" fill="#3E2050"/>
</g>
<path d="M17.2863 209.677C25.9043 207.073 27.3923 203.012 27.3923 199.54V198.238H29.3763V199.54C29.3763 205.554 25.1293 209.057 18.3713 211.289L17.2863 209.677ZM30.8023 203.911C31.9493 205.709 34.7393 207.693 39.5133 208.933L38.4283 210.545C34.2433 209.429 30.8023 207.445 29.3453 205.058L30.8023 203.911ZM15.6743 217.644H41.0943V219.442H15.6743V217.644Z" fill="#260D32"/>
<path d="M64.1409 196.254H66.2179V217.086H64.1409V196.254ZM44.4249 199.571V197.773H57.1659C56.9799 203.322 55.7089 208.437 52.9499 213.924L50.9039 213.18C53.4459 208.716 54.9029 202.981 54.9959 199.571H44.4249ZM52.8879 206.112C50.2839 206.329 46.9669 206.391 44.4249 206.36V204.748C48.4549 204.748 51.1829 204.624 53.3219 204.407L52.8879 206.112ZM49.9429 220.93H66.8379V222.728H47.8659V215.288H49.9429V220.93Z" fill="#260D32"/>
<path d="M95.603 196.254V222.232H93.495V196.254H95.603ZM87.791 196.564H89.868V205.089H87.791V196.564ZM77.933 217.489C80.072 211.599 80.754 203.663 80.754 200.16H71.702V198.393H82.831C82.831 203.539 81.994 211.909 80.041 217.892L77.933 217.489ZM79.018 208.003C76.631 208.282 73.841 208.344 71.392 208.313V206.639C74.802 206.639 77.189 206.546 79.266 206.267L79.018 208.003ZM89.868 221.798H87.853V208.096H83.451V206.329H89.868V221.798Z" fill="#260D32"/>
<path d="M123.449 196.254V222.232H121.341V208.499H116.784V206.701H121.372L121.341 202.95V196.254H123.449ZM108.259 198.052C112.63 198.052 115.141 201.493 115.389 206.701V208.499C115.141 213.738 112.661 217.148 108.259 217.148C103.516 217.148 101.036 213.335 101.036 207.631C101.036 204.717 101.687 202.299 102.927 200.625L104.229 202.051C103.423 203.415 103.051 205.306 103.051 207.631C103.051 212.281 104.601 215.381 108.259 215.381C111.824 215.381 113.436 212.281 113.436 207.631C113.436 202.919 111.824 199.881 108.259 199.881C107.081 199.881 106.151 200.16 105.407 200.749L104.229 199.323C105.283 198.486 106.616 198.052 108.259 198.052Z" fill="#260D32"/>
<path d="M156.897 208.964H151.317V207.166H156.897V201.989H151.317V200.191H156.897V196.254H159.005V217.086H156.897V208.964ZM139.289 198.61C140.498 197.835 141.924 197.463 143.412 197.463C147.101 197.463 150.511 199.881 150.511 204.562C150.511 209.243 147.101 211.63 143.412 211.63C139.661 211.63 136.282 209.243 136.282 204.562C136.282 202.578 136.902 200.997 137.894 199.819L139.227 201.214C138.607 202.051 138.235 203.167 138.235 204.562C138.235 208.282 140.808 209.863 143.412 209.863C145.985 209.863 148.589 208.282 148.589 204.562C148.589 200.873 145.985 199.261 143.412 199.261C142.389 199.261 141.397 199.509 140.498 200.036L139.289 198.61ZM142.699 220.93H159.594V222.728H140.622V215.133H142.699V220.93Z" fill="#260D32"/>
<path d="M177.356 198.517C173.946 198.579 169.916 198.672 167.467 197.773L167.87 196.099C170.939 197.122 174.318 196.781 177.356 196.781V198.517ZM184.269 212.126V196.254H186.346V212.126H184.269ZM180.518 202.454H164.274V200.749H180.518V202.454ZM179.433 208.282C179.433 210.731 176.798 212.343 172.489 212.343C168.18 212.343 165.576 210.731 165.576 208.282C165.576 206.763 166.413 205.74 167.901 205.027L168.893 206.453C168.087 206.887 167.591 207.383 167.591 208.282C167.591 209.987 169.854 210.731 172.489 210.731C175.155 210.731 177.387 209.987 177.387 208.282C177.387 206.36 175.155 205.802 172.489 205.802C171.776 205.802 171.063 205.864 170.443 205.957L169.482 204.469C170.35 204.283 171.373 204.159 172.489 204.159C176.798 204.159 179.433 205.616 179.433 208.282ZM191.368 205.058V206.856H187.431V205.058H191.368ZM183.06 218.295H170.071V222.883H168.025V213.552H170.071V216.528H183.06V218.295ZM184.3 213.552H186.377V220H184.3V213.552ZM171.311 221.085H186.408V222.883H171.311V221.085Z" fill="#260D32"/>
<path d="M14.4653 223.1H191.523V224.65H14.4653V223.1Z" fill="#260D32"/>
<path fill-rule="evenodd" clip-rule="evenodd" d="M17.1276 209.621L17.2573 209.581C21.5552 208.283 24.0612 206.625 25.4935 204.871C26.9241 203.119 27.2922 201.261 27.2922 199.54V198.138H29.4762V199.54C29.4762 202.574 28.4037 204.978 26.4787 206.904C24.5566 208.826 21.7888 210.266 18.4026 211.384L18.3306 211.408L17.1276 209.621ZM30.8271 203.764L30.8865 203.857C32.0143 205.625 34.7764 207.599 39.5384 208.836L39.675 208.872L38.4714 210.66L38.4025 210.642C34.2089 209.523 30.737 207.53 29.2599 205.11L29.2136 205.034L30.8271 203.764ZM15.5742 217.544H41.1942V219.542H15.5742V217.544ZM64.0408 196.154H66.3178V217.186H64.0408V196.154ZM44.3248 199.671V197.673H57.2692L57.2657 197.776C57.0792 203.34 55.8045 208.469 53.0391 213.969L52.9992 214.048L50.7583 213.234L50.8169 213.131C53.3258 208.725 54.7741 203.075 54.8926 199.671H44.3248ZM52.9671 206.206L52.8961 206.212C50.2878 206.429 46.9674 206.491 44.4236 206.46L44.3248 206.459V204.648H44.4248C48.453 204.648 51.1773 204.524 53.3117 204.308L53.454 204.293L52.9671 206.206ZM66.9378 220.83V222.828H47.7658V215.188H50.0428V220.83H66.9378ZM95.7029 196.154V222.332H93.3949V196.154H95.7029ZM87.6909 196.464H89.9679V205.189H87.6909V196.464ZM77.7988 217.565L77.8389 217.455C79.9523 211.635 80.6409 203.806 80.6537 200.26H71.6019V198.293H82.9309V198.393C82.9309 203.545 82.0933 211.927 80.136 217.923L80.1086 218.007L77.7988 217.565ZM79.106 208.093L79.0295 208.102C76.6364 208.382 73.8415 208.444 71.3906 208.413L71.2919 208.412V206.539H71.3919C74.8008 206.539 77.1824 206.446 79.2526 206.168L79.3836 206.15L79.106 208.093ZM89.9679 221.898H87.7529V208.196H83.3509V206.229H89.9679V221.898ZM123.549 196.154V222.332H121.241V208.599H116.684V206.601H121.271L121.241 202.951V196.154H123.549ZM115.489 206.696L115.489 206.701L115.489 208.504C115.365 211.136 114.679 213.321 113.46 214.85C112.239 216.383 110.489 217.248 108.259 217.248C105.857 217.248 104.021 216.281 102.788 214.587C101.559 212.898 100.936 210.496 100.936 207.631C100.936 204.704 101.59 202.262 102.847 200.566L102.919 200.468L104.353 202.038L104.315 202.102C103.522 203.444 103.151 205.314 103.151 207.631C103.151 209.948 103.538 211.864 104.368 213.197C105.194 214.523 106.464 215.281 108.259 215.281C110.007 215.281 111.269 214.524 112.1 213.197C112.934 211.863 113.336 209.947 113.336 207.631C113.336 205.284 112.934 203.368 112.1 202.042C111.27 200.723 110.008 199.981 108.259 199.981C107.098 199.981 106.191 200.256 105.469 200.827L105.392 200.888L104.087 199.308L104.167 199.245C105.242 198.391 106.598 197.952 108.259 197.952C110.474 197.952 112.224 198.825 113.448 200.361C114.671 201.894 115.364 204.079 115.489 206.696ZM151.217 209.064V207.066H156.797V202.089H151.217V200.091H156.797V196.154H159.105V217.186H156.797V209.064H151.217ZM139.138 198.588L139.235 198.526C140.462 197.739 141.907 197.363 143.412 197.363C145.277 197.363 147.077 197.974 148.412 199.183C149.748 200.393 150.611 202.195 150.611 204.562C150.611 206.929 149.748 208.723 148.411 209.926C147.077 211.127 145.277 211.73 143.412 211.73C141.516 211.73 139.708 211.127 138.373 209.926C137.037 208.723 136.182 206.928 136.182 204.562C136.182 202.556 136.809 200.952 137.817 199.755L137.889 199.669L139.357 201.206L139.307 201.274C138.702 202.091 138.335 203.185 138.335 204.562C138.335 206.397 138.968 207.694 139.913 208.533C140.86 209.374 142.129 209.763 143.412 209.763C144.679 209.763 145.948 209.374 146.899 208.533C147.848 207.694 148.489 206.397 148.489 204.562C148.489 202.743 147.848 201.446 146.899 200.603C145.948 199.758 144.678 199.361 143.412 199.361C142.405 199.361 141.431 199.605 140.548 200.122L140.476 200.165L139.138 198.588ZM159.694 220.83V222.828H140.522V215.033H142.799V220.83H159.694ZM177.456 198.615L177.151 198.621C175.504 198.651 173.72 198.684 172.046 198.605C170.304 198.524 168.672 198.322 167.432 197.867L167.349 197.836L167.798 195.97L167.901 196.004C170.347 196.819 172.988 196.762 175.512 196.708C176.135 196.694 176.751 196.681 177.356 196.681H177.456V198.615ZM184.169 212.226V196.154H186.446V212.226H184.169ZM180.618 202.554H164.174V200.649H180.618V202.554ZM167.934 204.9L169.039 206.488L168.94 206.541C168.542 206.755 168.231 206.98 168.019 207.254C167.808 207.526 167.691 207.853 167.691 208.282C167.691 209.079 168.216 209.664 169.092 210.055C169.97 210.446 171.178 210.631 172.489 210.631C173.815 210.631 175.023 210.446 175.897 210.055C176.768 209.664 177.287 209.08 177.287 208.282C177.287 207.822 177.154 207.449 176.917 207.145C176.68 206.84 176.333 206.599 175.898 206.413C175.026 206.042 173.818 205.902 172.489 205.902C171.781 205.902 171.073 205.964 170.458 206.056L170.394 206.066L169.319 204.402L169.461 204.371C170.335 204.184 171.365 204.059 172.489 204.059C174.652 204.059 176.408 204.424 177.627 205.134C178.851 205.847 179.533 206.909 179.533 208.282C179.533 209.549 178.849 210.594 177.628 211.317C176.409 212.038 174.654 212.443 172.489 212.443C170.324 212.443 168.576 212.038 167.365 211.317C166.151 210.593 165.476 209.548 165.476 208.282C165.476 207.503 165.691 206.846 166.1 206.293C166.508 205.741 167.104 205.298 167.857 204.937L167.934 204.9ZM191.468 204.958V206.956H187.331V204.958H191.468ZM183.16 218.395H170.171V222.983H167.925V213.452H170.171V216.428H183.16V218.395ZM184.2 213.452H186.477V220.1H184.2V213.452ZM171.211 220.985H186.508V222.983H171.211V220.985ZM14.3652 223H191.623V224.75H14.3652V223ZM27.3922 199.54C27.3922 203.012 25.9042 207.073 17.2862 209.677L18.3712 211.289C25.1292 209.057 29.3762 205.554 29.3762 199.54V198.238H27.3922V199.54ZM39.5132 208.933C34.7392 207.693 31.9492 205.709 30.8022 203.911L29.3452 205.058C30.8022 207.445 34.2432 209.429 38.4282 210.545L39.5132 208.933ZM41.0942 217.644H15.6742V219.442H41.0942V217.644ZM66.2178 196.254H64.1408V217.086H66.2178V196.254ZM44.4248 197.773V199.571H54.9958C54.9028 202.981 53.4458 208.716 50.9038 213.18L52.9498 213.924C55.7088 208.437 56.9798 203.322 57.1658 197.773H44.4248ZM44.4248 206.36C46.9668 206.391 50.2838 206.329 52.8878 206.112L53.3218 204.407C51.1828 204.624 48.4548 204.748 44.4248 204.748V206.36ZM66.8378 220.93H49.9428V215.288H47.8658V222.728H66.8378V220.93ZM95.6029 222.232V196.254H93.4949V222.232H95.6029ZM89.8679 196.564H87.7909V205.089H89.8679V196.564ZM80.7539 200.16C80.7539 203.663 80.0719 211.599 77.9329 217.489L80.0409 217.892C81.9939 211.909 82.8309 203.539 82.8309 198.393H71.7019V200.16H80.7539ZM71.3919 208.313C73.8409 208.344 76.6309 208.282 79.0179 208.003L79.2659 206.267C77.1889 206.546 74.8019 206.639 71.3919 206.639V208.313ZM87.8529 221.798H89.8679V206.329H83.4509V208.096H87.8529V221.798ZM123.449 222.232V196.254H121.341V202.95L121.372 206.701H116.784V208.499H121.341V222.232H123.449ZM115.389 206.701C115.141 201.493 112.63 198.052 108.259 198.052C106.616 198.052 105.283 198.486 104.229 199.323L105.407 200.749C106.151 200.16 107.081 199.881 108.259 199.881C111.824 199.881 113.436 202.919 113.436 207.631C113.436 212.281 111.824 215.381 108.259 215.381C104.601 215.381 103.051 212.281 103.051 207.631C103.051 205.306 103.423 203.415 104.229 202.051L102.927 200.625C101.687 202.299 101.036 204.717 101.036 207.631C101.036 213.335 103.516 217.148 108.259 217.148C112.661 217.148 115.141 213.738 115.389 208.499V206.701ZM151.317 208.964H156.897V217.086H159.005V196.254H156.897V200.191H151.317V201.989H156.897V207.166H151.317V208.964ZM143.412 197.463C141.924 197.463 140.498 197.835 139.289 198.61L140.498 200.036C141.397 199.509 142.389 199.261 143.412 199.261C145.985 199.261 148.589 200.873 148.589 204.562C148.589 208.282 145.985 209.863 143.412 209.863C140.808 209.863 138.235 208.282 138.235 204.562C138.235 203.167 138.607 202.051 139.227 201.214L137.894 199.819C136.902 200.997 136.282 202.578 136.282 204.562C136.282 209.243 139.661 211.63 143.412 211.63C147.101 211.63 150.511 209.243 150.511 204.562C150.511 199.881 147.101 197.463 143.412 197.463ZM159.594 220.93H142.699V215.133H140.622V222.728H159.594V220.93ZM177.15 198.521L177.356 198.517V196.781C176.756 196.781 176.144 196.794 175.523 196.808C172.996 196.863 170.333 196.92 167.87 196.099L167.467 197.773C169.867 198.654 173.785 198.582 177.15 198.521ZM184.269 196.254V212.126H186.346V196.254H184.269ZM164.274 202.454H180.518V200.749H164.274V202.454ZM172.489 212.343C176.798 212.343 179.433 210.731 179.433 208.282C179.433 205.616 176.798 204.159 172.489 204.159C171.373 204.159 170.35 204.283 169.482 204.469L170.443 205.957C171.063 205.864 171.776 205.802 172.489 205.802C175.155 205.802 177.387 206.36 177.387 208.282C177.387 209.987 175.155 210.731 172.489 210.731C169.854 210.731 167.591 209.987 167.591 208.282C167.591 207.383 168.087 206.887 168.893 206.453L167.901 205.027C166.413 205.74 165.576 206.763 165.576 208.282C165.576 210.731 168.18 212.343 172.489 212.343ZM187.431 206.856H191.368V205.058H187.431V206.856ZM170.071 218.295H183.06V216.528H170.071V213.552H168.025V222.883H170.071V218.295ZM186.377 213.552H184.3V220H186.377V213.552ZM186.408 221.085H171.311V222.883H186.408V221.085ZM191.523 223.1H14.4652V224.65H191.523V223.1Z" fill="#240D32"/>
<g opacity="0.85">
<path d="M93.335 245.598V251.27H96.085V252.967H93.335V258.617H91.2939V245.598H93.335ZM78.0596 256.254C79.5527 256.265 81.2822 256.265 83.0869 256.211V254.804C80.874 254.578 79.499 253.59 79.5205 252.107C79.499 250.389 81.3037 249.368 84.0967 249.379C86.8682 249.368 88.6621 250.389 88.6729 252.107C88.6621 253.579 87.3086 254.567 85.1279 254.804V256.125C86.8467 256.039 88.5869 255.899 90.1982 255.674L90.3701 257.092C86.2451 257.801 81.6904 257.865 78.2744 257.865L78.0596 256.254ZM78.5537 248.67V247.145H83.0869V245.426H85.1279V247.145H89.6611V248.67H78.5537ZM80.6162 261.84C80.6162 259.896 82.958 258.821 87.04 258.832C91.0898 258.821 93.4424 259.896 93.4639 261.84C93.4424 263.773 91.0898 264.815 87.04 264.826C82.958 264.815 80.6162 263.773 80.6162 261.84ZM81.4541 252.107C81.4541 252.978 82.4531 253.482 84.0967 253.482C85.7188 253.482 86.7285 252.978 86.7178 252.107C86.7285 251.27 85.7188 250.754 84.0967 250.754C82.4531 250.754 81.4541 251.27 81.4541 252.107ZM82.6787 261.84C82.6572 262.774 84.1719 263.312 87.04 263.301C89.876 263.312 91.3799 262.774 91.3799 261.84C91.3799 260.862 89.876 260.325 87.04 260.336C84.1719 260.325 82.6572 260.862 82.6787 261.84Z" fill="#3E2050"/>
<path d="M113.165 245.598V259.584H111.124V245.598H113.165ZM97.5889 251.656C97.5996 248.874 99.8125 246.897 102.724 246.887C105.624 246.897 107.837 248.874 107.837 251.656C107.837 254.481 105.624 256.447 102.724 256.447C99.8125 256.447 97.5996 254.481 97.5889 251.656ZM99.5869 251.656C99.5762 253.472 100.93 254.664 102.724 254.664C104.485 254.664 105.839 253.472 105.839 251.656C105.839 249.884 104.485 248.67 102.724 248.67C100.93 248.67 99.5762 249.884 99.5869 251.656ZM100.575 264.418V258.166H102.638V262.764H113.745V264.418H100.575Z" fill="#3E2050"/>
<path d="M123.005 249.1C123.016 251.71 124.745 254.224 127.646 255.244L126.528 256.834C124.434 256.028 122.854 254.438 122.027 252.451C121.2 254.664 119.557 256.415 117.29 257.285L116.194 255.674C119.191 254.61 120.975 251.936 120.985 249.035V246.758H123.005V249.1ZM119.696 264.418V258.338H121.759V262.764H132.694V264.418H119.696ZM126.163 251.656V249.98H130.224V245.598H132.265V259.949H130.224V251.656H126.163Z" fill="#3E2050"/>
</g>
<g clip-path="url(#clip0_388_560)">
<path d="M48.5 157.852L54.371 161L53.0027 154.774L58 150.494L51.2828 149.794L48.5 144L45.7172 149.794L39 150.494L43.9973 154.774L42.6283 161L48.5 157.852Z" fill="#3F234D"/>
</g>
<defs>
<clipPath id="clip0_388_560">
<rect width="19" height="17" fill="white" transform="translate(39 144)"/>
</clipPath>
</defs>
</svg>
