<svg width="216" height="33" viewBox="0 0 216 33" fill="none" xmlns="http://www.w3.org/2000/svg">
<path d="M25.9114 17.092V19.657H22.6714V30.808H19.9984V7.75H22.6714V17.092H25.9114ZM5.52643 26.974H12.0334C14.2204 26.974 16.5964 26.569 18.0004 25.894V28.324C16.5964 29.026 14.1934 29.431 11.9794 29.431H2.88043V17.605H12.9514V11.044H2.82643V8.587H15.6244V20.062H5.52643V26.974ZM46.6181 30.808V7.75H49.3181V30.808H46.6181ZM35.7371 29.728C31.6331 29.728 28.7441 26.326 28.7441 19.009C28.7441 11.692 31.6331 8.29 35.7371 8.29C39.8141 8.29 42.7031 11.692 42.7031 19.009C42.7031 26.326 39.8141 29.728 35.7371 29.728ZM35.7371 27.271C38.1401 27.271 40.0301 24.868 40.0301 19.009C40.0301 13.177 38.1401 10.747 35.7371 10.747C33.2801 10.747 31.4171 13.177 31.4171 19.009C31.4171 24.868 33.2801 27.271 35.7371 27.271ZM75.2358 8.425V22.438H55.2558V8.425H57.9018V12.88H72.5898V8.425H75.2358ZM57.9018 20.035H72.5898V15.256H57.9018V20.035ZM53.7438 27.19H76.7748V29.701H53.7438V27.19ZM100.135 27.19H110.314V29.701H87.2829V27.19H97.4079V22.006H88.7949V8.425H91.4409V12.556H106.129V8.425H108.775V22.006H100.135V27.19ZM91.4409 14.959V19.603H106.129V14.959H91.4409ZM132.263 7.75H134.963V30.808H132.263V19.684H127.835V17.092H132.263V7.75ZM117.116 26.974H123.299C125.486 26.974 127.862 26.542 129.266 25.894V28.324C127.862 29.026 125.405 29.431 123.164 29.431H114.47V17.686H123.623V11.044H114.416V8.587H126.269V20.143H117.116V26.974ZM163.337 17.092V19.657H160.097V30.808H157.424V7.75H160.097V17.092H163.337ZM140.063 11.044V8.587H152.618V14.149C152.618 23.329 147.893 29.377 140.063 29.377V26.839C146.327 26.812 149.891 21.925 149.891 14.203V11.044H140.063ZM184.044 30.808V7.75H186.717V30.808H184.044ZM166.278 29.377V26.839C172.569 26.812 176.349 21.925 176.349 14.203V11.044H166.278V8.587H179.076V14.149C179.076 23.383 174.162 29.377 166.278 29.377Z" fill="white"/>
<path d="M212.743 18.468L203.806 27.378L202.618 26.163L210.34 18.468L202.618 10.746L203.833 9.558L212.743 18.468Z" fill="white"/>
</svg>
