<svg width="209" height="322" viewBox="0 0 209 322" fill="none" xmlns="http://www.w3.org/2000/svg">
<path fill-rule="evenodd" clip-rule="evenodd" d="M207.5 322V0H208.5V322H207.5Z" fill="#3D0E0E"/>
<path fill-rule="evenodd" clip-rule="evenodd" d="M207 1H1V321H207V1ZM0 0V322H208V0H0Z" fill="#3D0E0E"/>
<path fill-rule="evenodd" clip-rule="evenodd" d="M208 99.5H0V98.5H208V99.5Z" fill="#3D0E0E"/>
<path d="M70.6366 26.9001C76.6116 25.5501 78.4616 22.9251 78.4616 20.4751V19.5501H80.0866V20.4751C80.0866 24.7001 76.3616 27.0501 71.3616 28.2001L70.6366 26.9001ZM81.2116 23.3501C82.3116 24.6751 84.6366 25.8751 87.9616 26.4501L87.2366 27.8001C84.3366 27.2251 81.3616 26.0251 80.0616 24.2501L81.2116 23.3501ZM69.1616 31.2251H89.4366V32.7001H69.1616V31.2251ZM80.1366 40.1751H78.4366V33.7001H80.1366V40.1751Z" fill="#3D0E0E"/>
<path d="M97.3034 22.3501C96.0034 23.0751 95.2784 24.2001 95.2784 25.7001C95.2784 28.4001 97.9034 29.8001 101.628 29.8001C105.328 29.8001 107.953 28.4001 107.953 25.7001C107.953 23.0001 105.528 21.4501 101.628 21.4501C100.528 21.4501 99.5284 21.5751 98.6784 21.8001L97.8534 20.4751C98.9284 20.1751 100.178 20.0001 101.628 20.0001C106.953 20.0001 109.628 22.3501 109.628 25.7001C109.628 29.6751 105.878 31.2251 101.628 31.2251C97.2534 31.2251 93.6284 29.6501 93.6284 25.7001C93.6284 23.7001 94.5534 22.0501 96.4284 21.0501L97.3034 22.3501ZM91.3784 36.1001H96.5034V32.1001H98.2034V36.1001H105.078V32.1001H106.753V36.1001H111.878V37.5501H91.3784V36.1001Z" fill="#3D0E0E"/>
<path d="M131.439 18.8501H133.139V30.2751H131.439V18.8501ZM116.964 22.4501C116.614 23.0001 116.389 23.7001 116.389 24.5251C116.389 26.8001 117.989 28.1001 120.364 28.1001C122.764 28.1001 124.414 26.8001 124.414 24.5251C124.414 22.2501 122.739 20.9501 120.364 20.9501C119.414 20.9501 118.589 21.1501 117.939 21.5501L116.964 20.3751C117.889 19.8001 119.014 19.5001 120.364 19.5001C123.664 19.5001 125.964 21.3001 125.964 24.5251C125.964 27.8001 123.564 29.5751 120.364 29.5751C117.064 29.5751 114.814 27.6251 114.814 24.5251C114.814 23.2251 115.214 22.1251 115.889 21.3001L116.964 22.4501ZM131.339 33.1001H118.189V31.6251H133.139V34.4251H131.339V33.1001ZM118.189 35.3001H133.139V36.7501H118.189V35.3001ZM119.964 39.1001H133.864V40.5751H118.189V37.6251H119.964V39.1001Z" fill="#3D0E0E"/>
<path d="M97.1684 65.1239C98.1044 63.9359 98.7164 62.9279 98.7164 61.6319C98.7164 59.1119 96.7724 57.2039 94.2164 57.2039C91.6604 57.2039 89.7524 59.0399 89.7524 61.4879C89.7524 63.1439 90.5444 64.2959 91.6244 65.2679L90.1124 66.7799C88.5644 65.6279 87.5204 63.7199 87.5204 61.4879C87.5204 57.8159 90.4004 55.0439 94.2164 55.0439C98.0684 55.0439 100.948 57.8519 100.948 61.6319C100.948 62.9999 100.372 64.7279 99.0044 66.4199L91.7684 75.5639L90.0044 74.1959L97.1684 65.1239ZM101.92 78.8399V80.9999H87.0884V78.8399H101.92Z" fill="#3D0E0E"/>
<path d="M114.654 55.1159L116.094 56.6999L106.374 65.2319L104.97 63.6119L114.654 55.1159ZM115.806 62.2799V80.9999H113.574V62.2799H115.806Z" fill="#3D0E0E"/>
<g opacity="0.85">
<path d="M69.2578 159.689C73.8721 159.714 77.1924 161.96 77.1924 165.378C77.1924 168.613 74.3115 170.749 70.1855 171.03V175.583H79.2432V177.194H59.3701V175.583H68.3057V171.03C64.2041 170.737 61.3232 168.601 61.3232 165.378C61.3232 161.96 64.6558 159.714 69.2578 159.689ZM63.1787 165.378C63.1665 167.88 65.7422 169.504 69.2578 169.528C72.7734 169.504 75.3369 167.88 75.3369 165.378C75.3369 162.924 72.7734 161.264 69.2578 161.276C65.7422 161.264 63.1665 162.924 63.1787 165.378Z" fill="#3E2050"/>
<path d="M98.9697 158.298V174.216H97.041V165.891H92.5732V164.304H97.041V158.298H98.9697ZM81.0742 169.87C84.2725 168.747 86.5918 165.878 86.5918 162.766V161.643H81.6846V160.056H93.3789V161.643H88.5205V162.766C88.5205 165.573 90.6934 168.295 93.8672 169.382L92.8662 170.92C90.4248 170.029 88.5327 168.21 87.5928 165.964C86.6528 168.479 84.6509 170.468 82.0752 171.433L81.0742 169.87ZM85.0293 179.514V172.775H86.958V177.902H99.5801V179.514H85.0293Z" fill="#3E2050"/>
<path d="M115.889 160.324V178H113.667V162.619H113.569L109.272 165.476V163.254L113.667 160.324H115.889Z" fill="#3E2050"/>
<path d="M126.851 160.324V178H124.629V162.619H124.531L120.234 165.476V163.254L124.629 160.324H126.851Z" fill="#3E2050"/>
<path d="M138.496 164.108C138.484 168.076 141.182 172.055 144.38 173.508L143.208 175.021C140.73 173.825 138.594 171.25 137.556 168.161C136.555 171.433 134.419 174.179 131.88 175.461L130.659 173.85C133.894 172.373 136.567 168.222 136.592 164.108V160.153H138.496V164.108ZM146.748 180.026V158.273H148.677V180.026H146.748Z" fill="#3E2050"/>
</g>
<path d="M69.6273 200.594C68.0153 201.493 67.1163 202.888 67.1163 204.748C67.1163 208.096 70.1233 210.018 74.9903 210.018C79.8263 210.018 82.8333 208.096 82.8333 204.748C82.8333 201.4 79.8263 199.478 74.9903 199.478C73.6263 199.478 72.3863 199.633 71.3323 199.912L70.3093 198.269C71.6423 197.897 73.1923 197.68 74.9903 197.68C81.5933 197.68 84.9103 200.594 84.9103 204.748C84.9103 209.708 80.5393 211.785 75.0213 211.785C69.3483 211.785 65.0703 209.739 65.0703 204.748C65.0703 202.268 66.2173 200.222 68.5423 198.982L69.6273 200.594ZM76.0443 217.644H87.7003V219.442H62.2803V217.644H73.9363V213.335H76.0443V217.644Z" fill="#260D32"/>
<path d="M111.367 203.477H105.26V201.741H111.367V196.254H113.444V210.421H111.367V203.477ZM97.6648 204.345C96.7038 206.143 94.9059 208.158 91.4029 210.39L89.8219 208.995C96.0219 205.461 97.3239 201.121 97.3239 197.897V197.029H99.4319V197.897C99.4319 200.346 98.7808 202.237 97.6648 204.345ZM105.384 208.995C101.912 207.228 100.176 205.709 99.1219 203.694L100.579 202.609C101.571 204.562 103.586 206.05 106.748 207.383L105.384 208.995ZM111.212 215.598V213.893H94.9059V212.095H113.444V215.598H111.212ZM94.9059 216.683H113.444V218.45H94.9059V216.683ZM114.343 221.395V223.193H94.9059V219.535H97.1379V221.395H114.343Z" fill="#260D32"/>
<path d="M138.226 198.92H121.269V197.184H140.334V200.904H138.195L138.226 198.92ZM140.334 203.756H121.269V201.989H140.334V203.756ZM143.713 211.165V212.994H117.983V211.165H129.794V208.344H121.269V204.841H123.377L123.346 206.577H132.832C136.242 206.577 138.536 206.484 140.985 206.112L141.171 207.848C139.032 208.22 136.521 208.344 132.801 208.344H131.902V211.165H143.713ZM121.021 215.257H140.396V223.193H138.288V217.024H121.021V215.257Z" fill="#260D32"/>
<path d="M61.0713 223.1H144.922V224.65H61.0713V223.1Z" fill="#260D32"/>
<path fill-rule="evenodd" clip-rule="evenodd" d="M69.7709 200.628L69.6759 200.681C68.0928 201.564 67.2162 202.927 67.2162 204.748C67.2162 206.387 67.9499 207.674 69.2832 208.555C70.6211 209.439 72.5678 209.918 74.9902 209.918C77.397 209.918 79.3359 209.439 80.6699 208.555C81.9994 207.674 82.7332 206.387 82.7332 204.748C82.7332 203.109 81.9994 201.822 80.6699 200.941C79.3359 200.056 77.397 199.578 74.9902 199.578C73.6335 199.578 72.4022 199.732 71.3578 200.008L71.2864 200.027L70.1538 198.208L70.2823 198.172C71.625 197.798 73.1841 197.58 74.9902 197.58C78.3048 197.58 80.8087 198.311 82.4865 199.576C84.1677 200.844 85.0102 202.641 85.0102 204.748C85.0102 207.263 83.8992 209.053 82.0888 210.211C80.284 211.364 77.7903 211.885 75.0212 211.885C72.1753 211.885 69.6658 211.372 67.8645 210.222C66.0571 209.068 64.9702 207.277 64.9702 204.748C64.9702 202.232 66.1367 200.151 68.4951 198.894L68.5748 198.851L69.7709 200.628ZM87.8002 217.544V219.542H62.1802V217.544H73.8362V213.235H76.1442V217.544H87.8002ZM105.16 203.577V201.641H111.267V196.154H113.544V210.521H111.267V203.577H105.16ZM97.7529 204.392C96.7815 206.209 94.9692 208.236 91.4565 210.474L91.393 210.515L89.6507 208.977L89.7722 208.908C92.8592 207.148 94.7206 205.192 95.8109 203.28C96.9012 201.368 97.2238 199.495 97.2238 197.897V196.929H99.5317V197.897C99.5317 200.367 98.8739 202.275 97.7529 204.392ZM105.409 209.12L105.338 209.084C101.858 207.313 100.101 205.782 99.0331 203.74L98.9936 203.665L100.614 202.458L100.668 202.564C101.644 204.485 103.632 205.961 106.787 207.291L106.912 207.344L105.409 209.12ZM111.112 215.698V213.993H94.8058V211.995H113.544V215.698H111.112ZM94.8058 216.583H113.544V218.55H94.8058V216.583ZM114.443 221.295V223H138.188V217.124H120.921V215.157H140.496V223H145.022V224.75H60.9712V223H94.8058V219.435H97.2378V221.295H114.443ZM121.169 199.02V197.084H140.434V201.004H138.094L138.125 199.02H121.169ZM140.434 203.856H121.169V201.889H140.434V203.856ZM143.813 211.065V213.094H117.883V211.065H129.694V208.444H121.169V204.741H123.479L123.448 206.477H132.832C136.241 206.477 138.529 206.384 140.97 206.013L141.074 205.997L141.281 207.93L141.188 207.946C139.041 208.32 136.522 208.444 132.801 208.444H132.002V211.065H143.813ZM67.1162 204.748C67.1162 202.888 68.0152 201.493 69.6272 200.594L68.5422 198.982C66.2172 200.222 65.0702 202.268 65.0702 204.748C65.0702 209.739 69.3482 211.785 75.0212 211.785C80.5392 211.785 84.9102 209.708 84.9102 204.748C84.9102 200.594 81.5932 197.68 74.9902 197.68C73.1922 197.68 71.6422 197.897 70.3092 198.269L71.3322 199.912C72.3862 199.633 73.6262 199.478 74.9902 199.478C79.8262 199.478 82.8332 201.4 82.8332 204.748C82.8332 208.096 79.8262 210.018 74.9902 210.018C70.1232 210.018 67.1162 208.096 67.1162 204.748ZM87.7002 217.644H76.0442V213.335H73.9362V217.644H62.2802V219.442H87.7002V217.644ZM105.26 203.477H111.367V210.421H113.444V196.254H111.367V201.741H105.26V203.477ZM91.4028 210.39C94.9058 208.158 96.7038 206.143 97.6647 204.345C98.7808 202.237 99.4318 200.346 99.4318 197.897V197.029H97.3238V197.897C97.3238 201.121 96.0218 205.461 89.8218 208.995L91.4028 210.39ZM99.1218 203.694C100.176 205.709 101.912 207.228 105.384 208.995L106.748 207.383C103.586 206.05 101.571 204.562 100.579 202.609L99.1218 203.694ZM111.212 213.893V215.598H113.444V212.095H94.9058V213.893H111.212ZM113.444 216.683H94.9058V218.45H113.444V216.683ZM114.343 223.1V221.395H97.1378V219.535H94.9058V223.1H61.0712V224.65H144.922V223.1H140.396V215.257H121.021V217.024H138.288V223.1H114.343ZM121.269 198.92H138.226L138.195 200.904H140.334V197.184H121.269V198.92ZM121.269 203.756H140.334V201.989H121.269V203.756ZM143.713 212.994V211.165H131.902V208.344H132.801C136.521 208.344 139.032 208.22 141.171 207.848L140.985 206.112C138.536 206.484 136.242 206.577 132.832 206.577H123.346L123.377 204.841H121.269V208.344H129.794V211.165H117.983V212.994H143.713Z" fill="#240D32"/>
<g opacity="0.85">
<path d="M94.3018 245.598V260.121H92.2393V257.607H88.1572V255.975H92.2393V245.598H94.3018ZM78.0596 253.096C80.4766 253.085 83.4844 253.053 86.46 252.859C86.7822 250.904 86.8682 249.4 86.8789 248.326H79.7998V246.672H88.9307V247.424C88.9199 248.466 88.9199 250.249 88.5225 252.698C89.2314 252.623 89.9297 252.548 90.6064 252.451L90.7568 253.934C89.0273 254.224 87.2334 254.417 85.4717 254.535V258.875H83.4307V254.643C81.5938 254.729 79.8535 254.75 78.3389 254.75L78.0596 253.096ZM80.874 264.418V258.553H82.915V262.764H94.7744V264.418H80.874Z" fill="#3E2050"/>
<path d="M108.052 247.445V249.1H97.2236V247.445H101.735V245.404H103.755V247.445H108.052ZM98.2979 253.654C98.2979 251.506 100.146 250.045 102.724 250.023C105.302 250.045 107.16 251.506 107.171 253.654C107.16 255.792 105.302 257.274 102.724 257.285C100.146 257.274 98.2979 255.792 98.2979 253.654ZM100.21 260.486V258.832H113.251V264.826H111.21V260.486H100.21ZM100.21 253.654C100.199 254.89 101.23 255.695 102.724 255.695C104.195 255.695 105.259 254.89 105.28 253.654C105.259 252.419 104.195 251.603 102.724 251.592C101.23 251.603 100.199 252.419 100.21 253.654ZM108.095 255.48V253.805H111.21V251.807H108.116V250.174H111.21V245.576H113.251V257.779H111.21V255.48H108.095Z" fill="#3E2050"/>
<path d="M126.077 247.273C126.066 249.83 129.192 252.226 132.974 252.73L132.179 254.406C129.031 253.901 126.271 252.269 125.014 250.002C123.757 252.269 120.996 253.901 117.87 254.406L117.054 252.73C120.824 252.226 123.939 249.862 123.95 247.273V246.221H126.077V247.273ZM116.216 257.973V256.297H133.769V257.973H125.948V264.826H123.95V257.973H116.216Z" fill="#3E2050"/>
</g>
<g clip-path="url(#clip0_388_550)">
<path d="M48.5 157.852L54.371 161L53.0027 154.774L58 150.494L51.2828 149.794L48.5 144L45.7172 149.794L39 150.494L43.9973 154.774L42.6283 161L48.5 157.852Z" fill="#3F234D"/>
</g>
<defs>
<clipPath id="clip0_388_550">
<rect width="19" height="17" fill="white" transform="translate(39 144)"/>
</clipPath>
</defs>
</svg>
