<svg width="210" height="324" viewBox="0 0 210 324" fill="none" xmlns="http://www.w3.org/2000/svg">
<path d="M209 1V323" stroke="#3D0E0E"/>
<path d="M1 1V323" stroke="#3D0E0E"/>
<path d="M1 100H209" stroke="#3D0E0E"/>
<path d="M1 1H209" stroke="#3D0E0E"/>
<path d="M1 323H209" stroke="#3D0E0E"/>
<path d="M88.2385 19.8501V40.8001H86.5635V19.8501H88.2385ZM81.9385 22.3251C79.1635 22.3751 75.9135 22.4501 73.9385 21.7501L74.2635 20.4501C76.7635 21.2751 79.4635 21.0001 81.9385 21.0001V22.3251ZM84.3135 25.7751H71.2385V24.3501H84.3135V25.7751ZM78.6385 36.6501C81.1385 36.6001 83.2635 36.5001 85.4135 36.1001L85.4385 37.5501C82.7885 38.0001 79.8885 38.1251 76.2635 38.1251H70.0635V36.6751H76.9885V34.2001C74.3635 34.0501 72.4385 33.1001 72.4385 30.7751C72.4385 29.4751 73.0635 28.5251 74.2635 27.9501L75.0885 29.1251C74.4135 29.4501 73.9885 29.9751 73.9885 30.7751C73.9885 32.3501 75.6885 32.9251 77.8135 32.9251C79.9635 32.9251 81.6385 32.3501 81.6385 30.7751C81.6385 29.1751 79.9635 28.6501 77.8135 28.6501C77.3135 28.6501 76.8135 28.6751 76.3635 28.7501L75.6135 27.5251C76.2635 27.4001 76.9885 27.3251 77.8135 27.3251C81.2885 27.3251 83.1885 28.5251 83.1885 30.7751C83.1885 33.1001 81.2135 34.0501 78.6385 34.2001V36.6501ZM92.5135 29.0251V30.4501H89.1135V29.0251H92.5135Z" fill="#3D0E0E"/>
<path d="M99.4016 23.3501C98.1016 24.0751 97.3766 25.2001 97.3766 26.7001C97.3766 29.4001 100.002 30.8001 103.727 30.8001C107.427 30.8001 110.052 29.4001 110.052 26.7001C110.052 24.0001 107.627 22.4501 103.727 22.4501C102.627 22.4501 101.627 22.5751 100.777 22.8001L99.9516 21.4751C101.027 21.1751 102.277 21.0001 103.727 21.0001C109.052 21.0001 111.727 23.3501 111.727 26.7001C111.727 30.6751 107.977 32.2251 103.727 32.2251C99.3516 32.2251 95.7266 30.6501 95.7266 26.7001C95.7266 24.7001 96.6516 23.0501 98.5266 22.0501L99.4016 23.3501ZM93.4766 37.1001H98.6016V33.1001H100.302V37.1001H107.177V33.1001H108.852V37.1001H113.977V38.5501H93.4766V37.1001Z" fill="#3D0E0E"/>
<path d="M133.537 19.8501H135.238V31.2751H133.537V19.8501ZM119.062 23.4501C118.713 24.0001 118.488 24.7001 118.488 25.5251C118.488 27.8001 120.088 29.1001 122.463 29.1001C124.863 29.1001 126.513 27.8001 126.513 25.5251C126.513 23.2501 124.838 21.9501 122.463 21.9501C121.513 21.9501 120.688 22.1501 120.038 22.5501L119.062 21.3751C119.988 20.8001 121.113 20.5001 122.463 20.5001C125.763 20.5001 128.063 22.3001 128.063 25.5251C128.063 28.8001 125.663 30.5751 122.463 30.5751C119.163 30.5751 116.913 28.6251 116.913 25.5251C116.913 24.2251 117.313 23.1251 117.988 22.3001L119.062 23.4501ZM133.438 34.1001H120.288V32.6251H135.238V35.4251H133.438V34.1001ZM120.288 36.3001H135.238V37.7501H120.288V36.3001ZM122.062 40.1001H135.963V41.5751H120.288V38.6251H122.062V40.1001Z" fill="#3D0E0E"/>
<path d="M95.4218 56.1162L96.8618 57.7002L87.1418 66.2322L85.7378 64.6122L95.4218 56.1162ZM96.5738 63.2802V82.0002H94.3418V63.2802H96.5738Z" fill="#3D0E0E"/>
<path d="M104.123 58.6002V56.4762H116.579V58.6002H104.123ZM111.107 65.7282C115.643 66.0882 118.955 69.3642 118.955 73.6842C118.955 78.6522 115.283 82.3602 110.387 82.3602C105.311 82.3602 102.035 78.7962 102.035 73.2522H104.267C104.267 77.5002 106.679 80.2362 110.387 80.2362C114.023 80.2362 116.723 77.4282 116.723 73.6842C116.723 70.3362 113.951 67.8162 110.279 67.8162C109.379 67.8162 108.659 67.9962 107.759 68.2842V66.2322L111.935 61.3722L113.591 62.8122L111.107 65.7282Z" fill="#3D0E0E"/>
<g opacity="0.85">
<path d="M72.1347 160.7C76.7597 160.725 80.0847 162.95 80.0847 166.4C80.0847 169.6 77.2097 171.725 73.0847 172.025V176.6H82.1347V178.2H62.2847V176.6H71.1847V172.025C67.1097 171.725 64.2097 169.6 64.2347 166.4C64.2097 162.95 67.5597 160.725 72.1347 160.7ZM66.0847 166.4C66.0597 168.875 68.6347 170.5 72.1347 170.5C75.6597 170.5 78.2347 168.875 78.2347 166.4C78.2347 163.925 75.6597 162.275 72.1347 162.3C68.6347 162.275 66.0597 163.925 66.0847 166.4Z" fill="#3E2050"/>
<path d="M102.491 161.75V163.35H84.8911V161.75H92.7911V159.15H94.6911V161.75H102.491ZM83.8911 174.95V173.35H103.741V174.95H94.6911V181H92.7911V174.95H83.8911ZM86.6911 168.25C86.6411 165.9 89.3161 164.6 93.7411 164.6C98.1661 164.6 100.816 165.9 100.841 168.25C100.816 170.525 98.1661 171.825 93.7411 171.85C89.3161 171.825 86.6411 170.525 86.6911 168.25ZM88.6411 168.25C88.6411 169.575 90.5161 170.375 93.7411 170.35C96.9661 170.375 98.8411 169.575 98.8411 168.25C98.8411 166.875 96.9661 166.075 93.7411 166.05C90.5161 166.075 88.6411 166.875 88.6411 168.25Z" fill="#3E2050"/>
<path d="M118.448 179.25C114.698 179.25 112.123 177.175 112.148 174.3C112.123 172.025 113.723 170.15 115.748 169.8V169.75C113.973 169.325 112.823 167.7 112.798 165.75C112.823 163.075 115.173 161.075 118.448 161.1C121.648 161.075 123.998 163.075 123.998 165.75C123.998 167.7 122.823 169.325 121.098 169.75V169.8C123.098 170.15 124.698 172.025 124.698 174.3C124.698 177.175 122.098 179.25 118.448 179.25ZM114.348 174.2C114.298 176.05 115.873 177.3 118.448 177.3C120.948 177.3 122.523 176.05 122.498 174.2C122.523 172.225 120.798 170.8 118.448 170.8C116.048 170.8 114.298 172.225 114.348 174.2ZM114.948 165.95C114.948 167.725 116.398 168.925 118.448 168.95C120.423 168.925 121.873 167.725 121.898 165.95C121.873 164.175 120.473 162.975 118.448 163C116.323 162.975 114.948 164.175 114.948 165.95Z" fill="#3E2050"/>
<path d="M134.609 165.1C134.584 169.075 137.284 173.05 140.459 174.5L139.309 176.05C136.834 174.825 134.684 172.25 133.659 169.125C132.659 172.425 130.509 175.175 127.959 176.45L126.759 174.85C130.009 173.375 132.684 169.225 132.709 165.1V161.15H134.609V165.1ZM142.859 181V159.3H144.759V181H142.859Z" fill="#3E2050"/>
</g>
<path d="M71.3654 197.254V223.232H69.2884V197.254H71.3654ZM56.8884 199.052C61.7554 199.052 64.2664 203.113 64.2664 208.6C64.2664 214.18 61.7864 218.148 56.8884 218.148C52.2074 218.148 49.5724 214.335 49.5724 208.631C49.5724 205.717 50.2854 203.299 51.5254 201.625L52.8274 203.051C52.0214 204.415 51.5564 206.244 51.5874 208.631C51.6494 213.219 53.2924 216.381 56.8884 216.381C60.5154 216.381 62.2824 213.281 62.2824 208.631C62.2824 203.857 60.4534 200.881 56.8884 200.881C55.7414 200.881 54.8114 201.191 54.0054 201.749L52.8274 200.323C53.9434 199.517 55.2764 199.052 56.8884 199.052ZM76.3874 207.701V209.499H72.4504V207.701H76.3874Z" fill="#260D32"/>
<path d="M100.896 197.254V223.232H98.8195V197.254H100.896ZM81.7385 200.323C82.8545 199.517 84.1875 199.052 85.7995 199.052C90.6665 199.052 93.1775 203.113 93.1775 208.6C93.1775 214.18 90.6975 218.148 85.7995 218.148C81.1185 218.148 78.4835 214.335 78.4835 208.631C78.4835 205.717 79.1965 203.299 80.4365 201.625L81.7385 203.051C80.9325 204.415 80.4675 206.244 80.4985 208.631C80.5605 213.219 82.2035 216.381 85.7995 216.381C89.4265 216.381 91.1935 213.281 91.1935 208.631C91.1935 203.857 89.3645 200.881 85.7995 200.881C84.6525 200.881 83.7225 201.191 82.9165 201.749L81.7385 200.323Z" fill="#260D32"/>
<path d="M112.783 201.594C111.171 202.493 110.272 203.888 110.272 205.748C110.272 209.096 113.279 211.018 118.146 211.018C122.982 211.018 125.989 209.096 125.989 205.748C125.989 202.4 122.982 200.478 118.146 200.478C116.782 200.478 115.542 200.633 114.488 200.912L113.465 199.269C114.798 198.897 116.348 198.68 118.146 198.68C124.749 198.68 128.066 201.594 128.066 205.748C128.066 210.708 123.695 212.785 118.177 212.785C112.504 212.785 108.226 210.739 108.226 205.748C108.226 203.268 109.373 201.222 111.698 199.982L112.783 201.594ZM119.2 218.644H130.856V220.442H105.436V218.644H117.092V214.335H119.2V218.644Z" fill="#260D32"/>
<path d="M157.22 197.254V223.232H155.112V197.254H157.22ZM146.153 207.143H149.935V197.564H152.012V208.91H146.153V207.143ZM134.187 199.393H147.114V201.16H134.187V199.393ZM139.054 215.947C139.953 215.947 140.821 215.947 141.72 215.916C142.092 212.351 142.247 206.151 142.247 202.09H144.262C144.2 206.492 143.952 212.351 143.642 215.823C145.13 215.73 146.556 215.606 147.889 215.358L148.137 217.094C145.564 217.528 142.371 217.714 138.837 217.714H133.908V215.947H139.054ZM136.698 215.017C136.45 211.483 136.264 206.213 136.202 202.09H138.186C138.186 205.841 138.279 211.39 138.589 215.017H136.698ZM152.012 222.798H149.935V210.15H152.012V222.798Z" fill="#260D32"/>
<path d="M47.4644 224.1H160.537V225.65H47.4644V224.1Z" fill="#260D32"/>
<path fill-rule="evenodd" clip-rule="evenodd" d="M71.4653 197.154V223.332H69.1883V197.154H71.4653ZM51.5172 201.468L52.951 203.038L52.9134 203.102C52.1189 204.446 51.6564 206.256 51.6872 208.63C51.7181 210.914 52.1429 212.831 52.9969 214.173C53.847 215.509 55.1254 216.281 56.8883 216.281C58.6682 216.281 59.9853 215.523 60.8619 214.194C61.7421 212.861 62.1823 210.945 62.1823 208.631C62.1823 206.254 61.7266 204.339 60.8392 203.021C59.9553 201.709 58.6383 200.981 56.8883 200.981C55.7612 200.981 54.8511 201.285 54.0622 201.831L53.9867 201.883L52.6822 200.304L52.7687 200.242C53.9019 199.423 55.2554 198.952 56.8883 198.952C59.3535 198.952 61.2282 199.982 62.4833 201.709C63.7356 203.433 64.3663 205.843 64.3663 208.6C64.3663 211.403 63.7436 213.813 62.4948 215.525C61.243 217.241 59.368 218.248 56.8883 218.248C54.5172 218.248 52.6581 217.28 51.3947 215.588C50.134 213.899 49.4723 211.497 49.4723 208.631C49.4723 205.702 50.1888 203.261 51.4449 201.565L51.5172 201.468ZM76.4873 207.601V209.599H72.3503V207.601H76.4873ZM100.996 197.154V223.332H98.7194V197.154H100.996ZM81.5933 200.304L81.6798 200.242C82.813 199.423 84.1666 198.952 85.7994 198.952C88.2646 198.952 90.1393 199.982 91.3944 201.709C92.6468 203.433 93.2774 205.843 93.2774 208.6C93.2774 211.403 92.6548 213.813 91.4059 215.525C90.1542 217.241 88.2791 218.248 85.7994 218.248C83.4283 218.248 81.5692 217.28 80.3059 215.588C79.0451 213.899 78.3834 211.497 78.3834 208.631C78.3834 205.702 79.0999 203.261 80.356 201.565L80.4283 201.468L81.8621 203.038L81.8245 203.102C81.0301 204.446 80.5676 206.256 80.5984 208.63C80.6293 210.914 81.0541 212.831 81.908 214.173C82.7582 215.509 84.0365 216.281 85.7994 216.281C87.5794 216.281 88.8965 215.523 89.7731 214.194C90.6532 212.861 91.0934 210.945 91.0934 208.631C91.0934 206.254 90.6378 204.339 89.7503 203.021C88.8665 201.709 87.5494 200.981 85.7994 200.981C84.6723 200.981 83.7622 201.285 82.9733 201.831L82.8978 201.883L81.5933 200.304ZM112.927 201.628L112.832 201.681C111.249 202.564 110.372 203.927 110.372 205.748C110.372 207.387 111.106 208.674 112.439 209.555C113.777 210.439 115.724 210.918 118.146 210.918C120.553 210.918 122.492 210.439 123.826 209.555C125.155 208.674 125.889 207.387 125.889 205.748C125.889 204.109 125.155 202.822 123.826 201.941C122.492 201.056 120.553 200.578 118.146 200.578C116.789 200.578 115.558 200.732 114.514 201.008L114.442 201.027L113.31 199.208L113.438 199.172C114.781 198.798 116.34 198.58 118.146 198.58C121.461 198.58 123.964 199.311 125.642 200.576C127.323 201.844 128.166 203.641 128.166 205.748C128.166 208.263 127.055 210.053 125.245 211.211C123.44 212.364 120.946 212.885 118.177 212.885C115.331 212.885 112.822 212.372 111.02 211.222C109.213 210.068 108.126 208.277 108.126 205.748C108.126 203.232 109.292 201.151 111.651 199.894L111.731 199.851L112.927 201.628ZM130.956 218.544V220.542H105.336V218.544H116.992V214.235H119.3V218.544H130.956ZM157.32 197.154V223.332H155.012V197.154H157.32ZM146.053 207.043H149.835V197.464H152.112V209.01H146.053V207.043ZM134.087 199.293H147.214V201.26H134.087V199.293ZM142.147 201.99H144.363L144.362 202.091C144.3 206.446 144.057 212.227 143.751 215.716C145.196 215.624 146.578 215.5 147.87 215.259L147.973 215.24L148.249 217.176L148.153 217.192C145.572 217.628 142.373 217.814 138.837 217.814H133.808V215.847H139.054C139.924 215.847 140.763 215.847 141.629 215.819C141.994 212.246 142.147 206.117 142.147 202.09V201.99ZM136.604 215.117L136.598 215.024C136.35 211.487 136.164 206.215 136.102 202.091L136.1 201.99H138.286V202.09C138.286 205.84 138.379 211.386 138.688 215.008L138.697 215.117H136.604ZM152.112 222.898H149.835V210.05H152.112V222.898ZM47.3643 224H160.637V225.75H47.3643V224ZM71.3653 223.232V197.254H69.2883V223.232H71.3653ZM64.2663 208.6C64.2663 203.113 61.7553 199.052 56.8883 199.052C55.2763 199.052 53.9433 199.517 52.8273 200.323L54.0053 201.749C54.8113 201.191 55.7413 200.881 56.8883 200.881C60.4533 200.881 62.2823 203.857 62.2823 208.631C62.2823 213.281 60.5153 216.381 56.8883 216.381C53.2923 216.381 51.6493 213.219 51.5873 208.631C51.5563 206.244 52.0213 204.415 52.8273 203.051L51.5253 201.625C50.2853 203.299 49.5723 205.717 49.5723 208.631C49.5723 214.335 52.2073 218.148 56.8883 218.148C61.7863 218.148 64.2663 214.18 64.2663 208.6ZM72.4503 209.499H76.3873V207.701H72.4503V209.499ZM100.896 223.232V197.254H98.8194V223.232H100.896ZM85.7994 199.052C84.1874 199.052 82.8544 199.517 81.7384 200.323L82.9164 201.749C83.7224 201.191 84.6524 200.881 85.7994 200.881C89.3644 200.881 91.1934 203.857 91.1934 208.631C91.1934 213.281 89.4264 216.381 85.7994 216.381C82.2034 216.381 80.5604 213.219 80.4984 208.631C80.4674 206.244 80.9324 204.415 81.7384 203.051L80.4364 201.625C79.1964 203.299 78.4834 205.717 78.4834 208.631C78.4834 214.335 81.1184 218.148 85.7994 218.148C90.6974 218.148 93.1774 214.18 93.1774 208.6C93.1774 203.113 90.6664 199.052 85.7994 199.052ZM110.272 205.748C110.272 203.888 111.171 202.493 112.783 201.594L111.698 199.982C109.373 201.222 108.226 203.268 108.226 205.748C108.226 210.739 112.504 212.785 118.177 212.785C123.695 212.785 128.066 210.708 128.066 205.748C128.066 201.594 124.749 198.68 118.146 198.68C116.348 198.68 114.798 198.897 113.465 199.269L114.488 200.912C115.542 200.633 116.782 200.478 118.146 200.478C122.982 200.478 125.989 202.4 125.989 205.748C125.989 209.096 122.982 211.018 118.146 211.018C113.279 211.018 110.272 209.096 110.272 205.748ZM130.856 218.644H119.2V214.335H117.092V218.644H105.436V220.442H130.856V218.644ZM157.22 223.232V197.254H155.112V223.232H157.22ZM149.935 207.143H146.153V208.91H152.012V197.564H149.935V207.143ZM147.114 199.393H134.187V201.16H147.114V199.393ZM141.72 215.916C140.821 215.947 139.953 215.947 139.054 215.947H133.908V217.714H138.837C142.371 217.714 145.564 217.528 148.137 217.094L147.889 215.358C146.556 215.606 145.13 215.73 143.642 215.823C143.952 212.351 144.2 206.492 144.262 202.09H142.247C142.247 206.151 142.092 212.351 141.72 215.916ZM136.202 202.09C136.264 206.213 136.45 211.483 136.698 215.017H138.589C138.279 211.39 138.186 205.841 138.186 202.09H136.202ZM149.935 222.798H152.012V210.15H149.935V222.798ZM160.537 224.1H47.4643V225.65H160.537V224.1Z" fill="#240D32"/>
<g opacity="0.85">
<path d="M82.6436 256.803V260.133C84.4053 260.036 86.1885 259.886 87.8643 259.639L88.0146 261.143C83.6641 261.948 78.9912 261.98 75.5537 261.98L75.2959 260.305C76.8428 260.294 78.6797 260.283 80.6025 260.219V256.803H82.6436ZM75.8115 255.879C78.6797 255.052 80.4736 253.043 80.5811 250.68H76.3271V249.025H80.6025V246.727H82.6436V249.025H86.9619V250.68H82.6436C82.751 252.946 84.5771 254.891 87.4561 255.664L86.5107 257.254C84.2119 256.599 82.4932 255.202 81.623 253.376C80.7852 255.299 79.0879 256.771 76.7783 257.426L75.8115 255.879ZM89.0674 265.869V246.576H91.1084V265.869H89.0674Z" fill="#3E2050"/>
<path d="M110.251 246.576V258.027H108.21V253.15H104.622V251.475H108.21V246.576H110.251ZM94.2021 256.287C97.1885 255.245 99.0254 252.646 99.0146 249.992V249.562H94.8467V247.908H105.224V249.562H101.099V249.971C101.088 252.409 102.828 254.783 105.739 255.771L104.687 257.383C102.527 256.642 100.938 255.095 100.1 253.193C99.2617 255.342 97.5752 257.071 95.2764 257.92L94.2021 256.287ZM97.2959 262.195C97.2852 259.907 99.7559 258.575 103.806 258.564C107.834 258.575 110.305 259.907 110.315 262.195C110.305 264.483 107.834 265.815 103.806 265.826C99.7559 265.815 97.2852 264.483 97.2959 262.195ZM99.3154 262.195C99.3047 263.495 100.98 264.236 103.806 264.215C106.609 264.236 108.285 263.495 108.296 262.195C108.285 260.885 106.609 260.144 103.806 260.154C100.98 260.144 99.3047 260.885 99.3154 262.195Z" fill="#3E2050"/>
<path d="M121.981 247.027C126.117 247.038 128.824 248.531 128.813 250.916C128.824 253.301 126.117 254.783 121.981 254.783C117.846 254.783 115.117 253.301 115.128 250.916C115.117 248.531 117.846 247.038 121.981 247.027ZM113.216 257.77V256.115H130.79V257.77H126.429V261.594H124.388V257.77H121.358V261.594H119.296V257.77H113.216ZM115.321 265.418V259.939H117.384V263.764H129.007V265.418H115.321ZM117.319 250.916C117.298 252.323 119.167 253.15 121.981 253.172C124.807 253.15 126.654 252.323 126.665 250.916C126.654 249.509 124.807 248.671 121.981 248.66C119.167 248.671 117.298 249.509 117.319 250.916Z" fill="#3E2050"/>
</g>
</svg>
