<svg width="210" height="324" viewBox="0 0 210 324" fill="none" xmlns="http://www.w3.org/2000/svg">
<g opacity="0.6">
<g opacity="0.7">
<path d="M73.1347 166.7C77.7597 166.725 81.0847 168.95 81.0847 172.4C81.0847 175.6 78.2097 177.725 74.0847 178.025V182.6H83.1347V184.2H63.2847V182.6H72.1847V178.025C68.1097 177.725 65.2097 175.6 65.2347 172.4C65.2097 168.95 68.5597 166.725 73.1347 166.7ZM67.0847 172.4C67.0597 174.875 69.6347 176.5 73.1347 176.5C76.6597 176.5 79.2347 174.875 79.2347 172.4C79.2347 169.925 76.6597 168.275 73.1347 168.3C69.6347 168.275 67.0597 169.925 67.0847 172.4Z" fill="#502B20"/>
<path d="M103.491 167.75V169.35H85.8911V167.75H93.7911V165.15H95.6911V167.75H103.491ZM84.8911 180.95V179.35H104.741V180.95H95.6911V187H93.7911V180.95H84.8911ZM87.6911 174.25C87.6411 171.9 90.3161 170.6 94.7411 170.6C99.1661 170.6 101.816 171.9 101.841 174.25C101.816 176.525 99.1661 177.825 94.7411 177.85C90.3161 177.825 87.6411 176.525 87.6911 174.25ZM89.6411 174.25C89.6411 175.575 91.5161 176.375 94.7411 176.35C97.9661 176.375 99.8411 175.575 99.8411 174.25C99.8411 172.875 97.9661 172.075 94.7411 172.05C91.5161 172.075 89.6411 172.875 89.6411 174.25Z" fill="#502B20"/>
<path d="M119.448 185.25C115.698 185.25 113.123 183.175 113.148 180.3C113.123 178.025 114.723 176.15 116.748 175.8V175.75C114.973 175.325 113.823 173.7 113.798 171.75C113.823 169.075 116.173 167.075 119.448 167.1C122.648 167.075 124.998 169.075 124.998 171.75C124.998 173.7 123.823 175.325 122.098 175.75V175.8C124.098 176.15 125.698 178.025 125.698 180.3C125.698 183.175 123.098 185.25 119.448 185.25ZM115.348 180.2C115.298 182.05 116.873 183.3 119.448 183.3C121.948 183.3 123.523 182.05 123.498 180.2C123.523 178.225 121.798 176.8 119.448 176.8C117.048 176.8 115.298 178.225 115.348 180.2ZM115.948 171.95C115.948 173.725 117.398 174.925 119.448 174.95C121.423 174.925 122.873 173.725 122.898 171.95C122.873 170.175 121.473 168.975 119.448 169C117.323 168.975 115.948 170.175 115.948 171.95Z" fill="#502B20"/>
<path d="M135.609 171.1C135.584 175.075 138.284 179.05 141.459 180.5L140.309 182.05C137.834 180.825 135.684 178.25 134.659 175.125C133.659 178.425 131.509 181.175 128.959 182.45L127.759 180.85C131.009 179.375 133.684 175.225 133.709 171.1V167.15H135.609V171.1ZM143.859 187V165.3H145.759V187H143.859Z" fill="#502B20"/>
</g>
<path d="M72.3654 203.254V229.232H70.2884V203.254H72.3654ZM57.8884 205.052C62.7554 205.052 65.2664 209.113 65.2664 214.6C65.2664 220.18 62.7864 224.148 57.8884 224.148C53.2074 224.148 50.5724 220.335 50.5724 214.631C50.5724 211.717 51.2854 209.299 52.5254 207.625L53.8274 209.051C53.0214 210.415 52.5564 212.244 52.5874 214.631C52.6494 219.219 54.2924 222.381 57.8884 222.381C61.5154 222.381 63.2824 219.281 63.2824 214.631C63.2824 209.857 61.4534 206.881 57.8884 206.881C56.7414 206.881 55.8114 207.191 55.0054 207.749L53.8274 206.323C54.9434 205.517 56.2764 205.052 57.8884 205.052ZM77.3874 213.701V215.499H73.4504V213.701H77.3874Z" fill="#472317"/>
<path d="M101.896 203.254V229.232H99.8195V203.254H101.896ZM82.7385 206.323C83.8545 205.517 85.1875 205.052 86.7995 205.052C91.6665 205.052 94.1775 209.113 94.1775 214.6C94.1775 220.18 91.6975 224.148 86.7995 224.148C82.1185 224.148 79.4835 220.335 79.4835 214.631C79.4835 211.717 80.1965 209.299 81.4365 207.625L82.7385 209.051C81.9325 210.415 81.4675 212.244 81.4985 214.631C81.5605 219.219 83.2035 222.381 86.7995 222.381C90.4265 222.381 92.1935 219.281 92.1935 214.631C92.1935 209.857 90.3645 206.881 86.7995 206.881C85.6525 206.881 84.7225 207.191 83.9165 207.749L82.7385 206.323Z" fill="#472317"/>
<path d="M113.783 207.594C112.171 208.493 111.272 209.888 111.272 211.748C111.272 215.096 114.279 217.018 119.146 217.018C123.982 217.018 126.989 215.096 126.989 211.748C126.989 208.4 123.982 206.478 119.146 206.478C117.782 206.478 116.542 206.633 115.488 206.912L114.465 205.269C115.798 204.897 117.348 204.68 119.146 204.68C125.749 204.68 129.066 207.594 129.066 211.748C129.066 216.708 124.695 218.785 119.177 218.785C113.504 218.785 109.226 216.739 109.226 211.748C109.226 209.268 110.373 207.222 112.698 205.982L113.783 207.594ZM120.2 224.644H131.856V226.442H106.436V224.644H118.092V220.335H120.2V224.644Z" fill="#472317"/>
<path d="M158.22 203.254V229.232H156.112V203.254H158.22ZM147.153 213.143H150.935V203.564H153.012V214.91H147.153V213.143ZM135.187 205.393H148.114V207.16H135.187V205.393ZM140.054 221.947C140.953 221.947 141.821 221.947 142.72 221.916C143.092 218.351 143.247 212.151 143.247 208.09H145.262C145.2 212.492 144.952 218.351 144.642 221.823C146.13 221.73 147.556 221.606 148.889 221.358L149.137 223.094C146.564 223.528 143.371 223.714 139.837 223.714H134.908V221.947H140.054ZM137.698 221.017C137.45 217.483 137.264 212.213 137.202 208.09H139.186C139.186 211.841 139.279 217.39 139.589 221.017H137.698ZM153.012 228.798H150.935V216.15H153.012V228.798Z" fill="#472317"/>
<path d="M48.4644 230.1H161.537V231.65H48.4644V230.1Z" fill="#472317"/>
<path fill-rule="evenodd" clip-rule="evenodd" d="M72.4653 203.154V229.332H70.1883V203.154H72.4653ZM52.5172 207.468L53.951 209.038L53.9134 209.102C53.1189 210.446 52.6564 212.256 52.6872 214.63C52.7181 216.914 53.1429 218.831 53.9969 220.173C54.847 221.509 56.1254 222.281 57.8883 222.281C59.6682 222.281 60.9853 221.523 61.8619 220.194C62.7421 218.861 63.1823 216.945 63.1823 214.631C63.1823 212.254 62.7266 210.339 61.8392 209.021C60.9553 207.709 59.6383 206.981 57.8883 206.981C56.7612 206.981 55.8511 207.285 55.0622 207.831L54.9867 207.883L53.6822 206.304L53.7687 206.242C54.9019 205.423 56.2554 204.952 57.8883 204.952C60.3535 204.952 62.2282 205.982 63.4833 207.709C64.7356 209.433 65.3663 211.843 65.3663 214.6C65.3663 217.403 64.7436 219.813 63.4948 221.525C62.243 223.241 60.368 224.248 57.8883 224.248C55.5172 224.248 53.6581 223.28 52.3947 221.588C51.134 219.899 50.4723 217.497 50.4723 214.631C50.4723 211.702 51.1888 209.261 52.4449 207.565L52.5172 207.468ZM77.4873 213.601V215.599H73.3503V213.601H77.4873ZM101.996 203.154V229.332H99.7194V203.154H101.996ZM82.5933 206.304L82.6798 206.242C83.813 205.423 85.1666 204.952 86.7994 204.952C89.2646 204.952 91.1393 205.982 92.3944 207.709C93.6468 209.433 94.2774 211.843 94.2774 214.6C94.2774 217.403 93.6548 219.813 92.4059 221.525C91.1542 223.241 89.2791 224.248 86.7994 224.248C84.4283 224.248 82.5692 223.28 81.3059 221.588C80.0451 219.899 79.3834 217.497 79.3834 214.631C79.3834 211.702 80.0999 209.261 81.356 207.565L81.4283 207.468L82.8621 209.038L82.8245 209.102C82.0301 210.446 81.5676 212.256 81.5984 214.63C81.6293 216.914 82.0541 218.831 82.908 220.173C83.7582 221.509 85.0365 222.281 86.7994 222.281C88.5794 222.281 89.8965 221.523 90.7731 220.194C91.6532 218.861 92.0934 216.945 92.0934 214.631C92.0934 212.254 91.6378 210.339 90.7503 209.021C89.8665 207.709 88.5494 206.981 86.7994 206.981C85.6723 206.981 84.7622 207.285 83.9733 207.831L83.8978 207.883L82.5933 206.304ZM113.927 207.628L113.832 207.681C112.249 208.564 111.372 209.927 111.372 211.748C111.372 213.387 112.106 214.674 113.439 215.555C114.777 216.439 116.724 216.918 119.146 216.918C121.553 216.918 123.492 216.439 124.826 215.555C126.155 214.674 126.889 213.387 126.889 211.748C126.889 210.109 126.155 208.822 124.826 207.941C123.492 207.056 121.553 206.578 119.146 206.578C117.789 206.578 116.558 206.732 115.514 207.008L115.442 207.027L114.31 205.208L114.438 205.172C115.781 204.798 117.34 204.58 119.146 204.58C122.461 204.58 124.964 205.311 126.642 206.576C128.323 207.844 129.166 209.641 129.166 211.748C129.166 214.263 128.055 216.053 126.245 217.211C124.44 218.364 121.946 218.885 119.177 218.885C116.331 218.885 113.822 218.372 112.02 217.222C110.213 216.068 109.126 214.277 109.126 211.748C109.126 209.232 110.292 207.151 112.651 205.894L112.731 205.851L113.927 207.628ZM131.956 224.544V226.542H106.336V224.544H117.992V220.235H120.3V224.544H131.956ZM158.32 203.154V229.332H156.012V203.154H158.32ZM147.053 213.043H150.835V203.464H153.112V215.01H147.053V213.043ZM135.087 205.293H148.214V207.26H135.087V205.293ZM143.147 207.99H145.363L145.362 208.091C145.3 212.446 145.057 218.227 144.751 221.716C146.196 221.624 147.578 221.5 148.87 221.259L148.973 221.24L149.249 223.176L149.153 223.192C146.572 223.628 143.373 223.814 139.837 223.814H134.808V221.847H140.054C140.924 221.847 141.763 221.847 142.629 221.819C142.994 218.246 143.147 212.117 143.147 208.09V207.99ZM137.604 221.117L137.598 221.024C137.35 217.487 137.164 212.215 137.102 208.091L137.1 207.99H139.286V208.09C139.286 211.84 139.379 217.386 139.688 221.008L139.697 221.117H137.604ZM153.112 228.898H150.835V216.05H153.112V228.898ZM48.3643 230H161.637V231.75H48.3643V230ZM72.3653 229.232V203.254H70.2883V229.232H72.3653ZM65.2663 214.6C65.2663 209.113 62.7553 205.052 57.8883 205.052C56.2763 205.052 54.9433 205.517 53.8273 206.323L55.0053 207.749C55.8113 207.191 56.7413 206.881 57.8883 206.881C61.4533 206.881 63.2823 209.857 63.2823 214.631C63.2823 219.281 61.5153 222.381 57.8883 222.381C54.2923 222.381 52.6493 219.219 52.5873 214.631C52.5563 212.244 53.0213 210.415 53.8273 209.051L52.5253 207.625C51.2853 209.299 50.5723 211.717 50.5723 214.631C50.5723 220.335 53.2073 224.148 57.8883 224.148C62.7863 224.148 65.2663 220.18 65.2663 214.6ZM73.4503 215.499H77.3873V213.701H73.4503V215.499ZM101.896 229.232V203.254H99.8194V229.232H101.896ZM86.7994 205.052C85.1874 205.052 83.8544 205.517 82.7384 206.323L83.9164 207.749C84.7224 207.191 85.6524 206.881 86.7994 206.881C90.3644 206.881 92.1934 209.857 92.1934 214.631C92.1934 219.281 90.4264 222.381 86.7994 222.381C83.2034 222.381 81.5604 219.219 81.4984 214.631C81.4674 212.244 81.9324 210.415 82.7384 209.051L81.4364 207.625C80.1964 209.299 79.4834 211.717 79.4834 214.631C79.4834 220.335 82.1184 224.148 86.7994 224.148C91.6974 224.148 94.1774 220.18 94.1774 214.6C94.1774 209.113 91.6664 205.052 86.7994 205.052ZM111.272 211.748C111.272 209.888 112.171 208.493 113.783 207.594L112.698 205.982C110.373 207.222 109.226 209.268 109.226 211.748C109.226 216.739 113.504 218.785 119.177 218.785C124.695 218.785 129.066 216.708 129.066 211.748C129.066 207.594 125.749 204.68 119.146 204.68C117.348 204.68 115.798 204.897 114.465 205.269L115.488 206.912C116.542 206.633 117.782 206.478 119.146 206.478C123.982 206.478 126.989 208.4 126.989 211.748C126.989 215.096 123.982 217.018 119.146 217.018C114.279 217.018 111.272 215.096 111.272 211.748ZM131.856 224.644H120.2V220.335H118.092V224.644H106.436V226.442H131.856V224.644ZM158.22 229.232V203.254H156.112V229.232H158.22ZM150.935 213.143H147.153V214.91H153.012V203.564H150.935V213.143ZM148.114 205.393H135.187V207.16H148.114V205.393ZM142.72 221.916C141.821 221.947 140.953 221.947 140.054 221.947H134.908V223.714H139.837C143.371 223.714 146.564 223.528 149.137 223.094L148.889 221.358C147.556 221.606 146.13 221.73 144.642 221.823C144.952 218.351 145.2 212.492 145.262 208.09H143.247C143.247 212.151 143.092 218.351 142.72 221.916ZM137.202 208.09C137.264 212.213 137.45 217.483 137.698 221.017H139.589C139.279 217.39 139.186 211.841 139.186 208.09H137.202ZM150.935 228.798H153.012V216.15H150.935V228.798ZM161.537 230.1H48.4643V231.65H161.537V230.1Z" fill="#472317"/>
<g opacity="0.7">
<path d="M83.6436 262.803V266.133C85.4053 266.036 87.1885 265.886 88.8643 265.639L89.0146 267.143C84.6641 267.948 79.9912 267.98 76.5537 267.98L76.2959 266.305C77.8428 266.294 79.6797 266.283 81.6025 266.219V262.803H83.6436ZM76.8115 261.879C79.6797 261.052 81.4736 259.043 81.5811 256.68H77.3271V255.025H81.6025V252.727H83.6436V255.025H87.9619V256.68H83.6436C83.751 258.946 85.5771 260.891 88.4561 261.664L87.5107 263.254C85.2119 262.599 83.4932 261.202 82.623 259.376C81.7852 261.299 80.0879 262.771 77.7783 263.426L76.8115 261.879ZM90.0674 271.869V252.576H92.1084V271.869H90.0674Z" fill="#502B20"/>
<path d="M111.251 252.576V264.027H109.21V259.15H105.622V257.475H109.21V252.576H111.251ZM95.2021 262.287C98.1885 261.245 100.025 258.646 100.015 255.992V255.562H95.8467V253.908H106.224V255.562H102.099V255.971C102.088 258.409 103.828 260.783 106.739 261.771L105.687 263.383C103.527 262.642 101.938 261.095 101.1 259.193C100.262 261.342 98.5752 263.071 96.2764 263.92L95.2021 262.287ZM98.2959 268.195C98.2852 265.907 100.756 264.575 104.806 264.564C108.834 264.575 111.305 265.907 111.315 268.195C111.305 270.483 108.834 271.815 104.806 271.826C100.756 271.815 98.2852 270.483 98.2959 268.195ZM100.315 268.195C100.305 269.495 101.98 270.236 104.806 270.215C107.609 270.236 109.285 269.495 109.296 268.195C109.285 266.885 107.609 266.144 104.806 266.154C101.98 266.144 100.305 266.885 100.315 268.195Z" fill="#502B20"/>
<path d="M122.981 253.027C127.117 253.038 129.824 254.531 129.813 256.916C129.824 259.301 127.117 260.783 122.981 260.783C118.846 260.783 116.117 259.301 116.128 256.916C116.117 254.531 118.846 253.038 122.981 253.027ZM114.216 263.77V262.115H131.79V263.77H127.429V267.594H125.388V263.77H122.358V267.594H120.296V263.77H114.216ZM116.321 271.418V265.939H118.384V269.764H130.007V271.418H116.321ZM118.319 256.916C118.298 258.323 120.167 259.15 122.981 259.172C125.807 259.15 127.654 258.323 127.665 256.916C127.654 255.509 125.807 254.671 122.981 254.66C120.167 254.671 118.298 255.509 118.319 256.916Z" fill="#502B20"/>
</g>
</g>
<g opacity="0.9">
<path d="M100.422 62.1162L101.862 63.7002L92.1418 72.2322L90.7378 70.6122L100.422 62.1162ZM101.574 69.2802V88.0002H99.3418V69.2802H101.574Z" fill="#533A3A"/>
<path d="M109.123 64.6002V62.4762H121.579V64.6002H109.123ZM116.107 71.7282C120.643 72.0882 123.955 75.3642 123.955 79.6842C123.955 84.6522 120.283 88.3602 115.387 88.3602C110.311 88.3602 107.035 84.7962 107.035 79.2522H109.267C109.267 83.5002 111.679 86.2362 115.387 86.2362C119.023 86.2362 121.723 83.4282 121.723 79.6842C121.723 76.3362 118.951 73.8162 115.279 73.8162C114.379 73.8162 113.659 73.9962 112.759 74.2842V72.2322L116.935 67.3722L118.591 68.8122L116.107 71.7282Z" fill="#533A3A"/>
</g>
<g opacity="0.9">
<path d="M93.2385 25.8501V46.8001H91.5635V25.8501H93.2385ZM86.9385 28.3251C84.1635 28.3751 80.9135 28.4501 78.9385 27.7501L79.2635 26.4501C81.7635 27.2751 84.4635 27.0001 86.9385 27.0001V28.3251ZM89.3135 31.7751H76.2385V30.3501H89.3135V31.7751ZM83.6385 42.6501C86.1385 42.6001 88.2635 42.5001 90.4135 42.1001L90.4385 43.5501C87.7885 44.0001 84.8885 44.1251 81.2635 44.1251H75.0635V42.6751H81.9885V40.2001C79.3635 40.0501 77.4385 39.1001 77.4385 36.7751C77.4385 35.4751 78.0635 34.5251 79.2635 33.9501L80.0885 35.1251C79.4135 35.4501 78.9885 35.9751 78.9885 36.7751C78.9885 38.3501 80.6885 38.9251 82.8135 38.9251C84.9635 38.9251 86.6385 38.3501 86.6385 36.7751C86.6385 35.1751 84.9635 34.6501 82.8135 34.6501C82.3135 34.6501 81.8135 34.6751 81.3635 34.7501L80.6135 33.5251C81.2635 33.4001 81.9885 33.3251 82.8135 33.3251C86.2885 33.3251 88.1885 34.5251 88.1885 36.7751C88.1885 39.1001 86.2135 40.0501 83.6385 40.2001V42.6501ZM97.5135 35.0251V36.4501H94.1135V35.0251H97.5135Z" fill="#533A3A"/>
<path d="M104.402 29.3501C103.102 30.0751 102.377 31.2001 102.377 32.7001C102.377 35.4001 105.002 36.8001 108.727 36.8001C112.427 36.8001 115.052 35.4001 115.052 32.7001C115.052 30.0001 112.627 28.4501 108.727 28.4501C107.627 28.4501 106.627 28.5751 105.777 28.8001L104.952 27.4751C106.027 27.1751 107.277 27.0001 108.727 27.0001C114.052 27.0001 116.727 29.3501 116.727 32.7001C116.727 36.6751 112.977 38.2251 108.727 38.2251C104.352 38.2251 100.727 36.6501 100.727 32.7001C100.727 30.7001 101.652 29.0501 103.527 28.0501L104.402 29.3501ZM98.4766 43.1001H103.602V39.1001H105.302V43.1001H112.177V39.1001H113.852V43.1001H118.977V44.5501H98.4766V43.1001Z" fill="#533A3A"/>
<path d="M138.537 25.8501H140.238V37.2751H138.537V25.8501ZM124.062 29.4501C123.713 30.0001 123.488 30.7001 123.488 31.5251C123.488 33.8001 125.088 35.1001 127.463 35.1001C129.863 35.1001 131.513 33.8001 131.513 31.5251C131.513 29.2501 129.838 27.9501 127.463 27.9501C126.513 27.9501 125.688 28.1501 125.038 28.5501L124.062 27.3751C124.988 26.8001 126.113 26.5001 127.463 26.5001C130.763 26.5001 133.063 28.3001 133.063 31.5251C133.063 34.8001 130.663 36.5751 127.463 36.5751C124.163 36.5751 121.913 34.6251 121.913 31.5251C121.913 30.2251 122.313 29.1251 122.988 28.3001L124.062 29.4501ZM138.438 40.1001H125.288V38.6251H140.238V41.4251H138.438V40.1001ZM125.288 42.3001H140.238V43.7501H125.288V42.3001ZM127.062 46.1001H140.963V47.5751H125.288V44.6251H127.062V46.1001Z" fill="#533A3A"/>
</g>
<path d="M1 1V323" stroke="#3D0E0E"/>
<path d="M209 1V323" stroke="#3D0E0E"/>
<path d="M1 1L209 1.00002" stroke="#3D0E0E"/>
<path d="M1 100H209" stroke="#3D0E0E"/>
<path d="M1 323H209" stroke="#3D0E0E"/>
</svg>
