<svg width="209" height="324" viewBox="0 0 209 324" fill="none" xmlns="http://www.w3.org/2000/svg">
<path d="M208 1V323" stroke="#3D0E0E"/>
<path fill-rule="evenodd" clip-rule="evenodd" d="M207 2H1V322H207V2ZM0 1V323H208V1H0Z" fill="#3D0E0E"/>
<path fill-rule="evenodd" clip-rule="evenodd" d="M208 100.5H0V99.5H208V100.5Z" fill="#3D0E0E"/>
<path fill-rule="evenodd" clip-rule="evenodd" d="M208 1.5H0V0.5H208V1.5Z" fill="#3D0E0E"/>
<path fill-rule="evenodd" clip-rule="evenodd" d="M208 323.5H0V322.5H208V323.5Z" fill="#3D0E0E"/>
<path d="M89.4675 28.4751C89.9425 26.0001 90.0925 23.7001 90.0925 22.0251H75.9425V20.6001H91.7925C91.8425 23.0001 91.6425 25.7251 91.1425 28.4751H89.4675ZM94.1675 30.8501H73.4175V29.3501H94.1675V30.8501ZM76.0675 41.5751V33.8251H77.7175V41.5751H76.0675ZM89.8675 35.2751H78.7175V33.8251H91.5675V39.2501H89.8675V35.2751ZM91.5675 41.5751H78.7175V40.1251H91.5675V41.5751Z" fill="#3D0E0E"/>
<path d="M102.048 23.3501C100.748 24.0751 100.023 25.2001 100.023 26.7001C100.023 29.4001 102.648 30.8001 106.373 30.8001C110.073 30.8001 112.698 29.4001 112.698 26.7001C112.698 24.0001 110.273 22.4501 106.373 22.4501C105.273 22.4501 104.273 22.5751 103.423 22.8001L102.598 21.4751C103.673 21.1751 104.923 21.0001 106.373 21.0001C111.698 21.0001 114.373 23.3501 114.373 26.7001C114.373 30.6751 110.623 32.2251 106.373 32.2251C101.998 32.2251 98.3726 30.6501 98.3726 26.7001C98.3726 24.7001 99.2976 23.0501 101.173 22.0501L102.048 23.3501ZM96.1226 37.1001H101.248V33.1001H102.948V37.1001H109.823V33.1001H111.498V37.1001H116.623V38.5501H96.1226V37.1001Z" fill="#3D0E0E"/>
<path d="M136.183 19.8501H137.883V31.2751H136.183V19.8501ZM121.708 23.4501C121.358 24.0001 121.133 24.7001 121.133 25.5251C121.133 27.8001 122.733 29.1001 125.108 29.1001C127.508 29.1001 129.158 27.8001 129.158 25.5251C129.158 23.2501 127.483 21.9501 125.108 21.9501C124.158 21.9501 123.333 22.1501 122.683 22.5501L121.708 21.3751C122.633 20.8001 123.758 20.5001 125.108 20.5001C128.408 20.5001 130.708 22.3001 130.708 25.5251C130.708 28.8001 128.308 30.5751 125.108 30.5751C121.808 30.5751 119.558 28.6251 119.558 25.5251C119.558 24.2251 119.958 23.1251 120.633 22.3001L121.708 23.4501ZM136.083 34.1001H122.933V32.6251H137.883V35.4251H136.083V34.1001ZM122.933 36.3001H137.883V37.7501H122.933V36.3001ZM124.708 40.1001H138.608V41.5751H122.933V38.6251H124.708V40.1001Z" fill="#3D0E0E"/>
<path d="M98.746 56.1159L100.186 57.6999L90.466 66.2319L89.062 64.6119L98.746 56.1159ZM99.898 63.2799V81.9999H97.666V63.2799H99.898Z" fill="#3D0E0E"/>
<path d="M114.864 56.0439L116.664 57.3399L110.94 65.1879L109.14 63.8559L114.864 56.0439ZM114.432 82.4319C109.86 82.4319 106.44 78.9759 106.44 74.3679C106.44 69.8319 109.86 66.4119 114.432 66.4119C119.004 66.4119 122.424 69.8319 122.424 74.3679C122.424 78.9759 119.004 82.4319 114.432 82.4319ZM114.432 80.3079C117.708 80.3079 120.192 77.7879 120.192 74.4039C120.192 71.0559 117.708 68.5359 114.432 68.5359C111.156 68.5359 108.672 71.0559 108.672 74.4039C108.672 77.7879 111.156 80.3079 114.432 80.3079Z" fill="#3D0E0E"/>
<g opacity="0.85">
<path d="M70.2578 160.689C74.8721 160.714 78.1924 162.96 78.1924 166.378C78.1924 169.613 75.3115 171.749 71.1855 172.03V176.583H80.2432V178.194H60.3701V176.583H69.3057V172.03C65.2041 171.737 62.3232 169.601 62.3232 166.378C62.3232 162.96 65.6558 160.714 70.2578 160.689ZM64.1787 166.378C64.1665 168.88 66.7422 170.504 70.2578 170.528C73.7734 170.504 76.3369 168.88 76.3369 166.378C76.3369 163.924 73.7734 162.264 70.2578 162.276C66.7422 162.264 64.1665 163.924 64.1787 166.378Z" fill="#3E2050"/>
<path d="M99.9697 159.298V175.216H98.041V166.891H93.5732V165.304H98.041V159.298H99.9697ZM82.0742 170.87C85.2725 169.747 87.5918 166.878 87.5918 163.766V162.643H82.6846V161.056H94.3789V162.643H89.5205V163.766C89.5205 166.573 91.6934 169.295 94.8672 170.382L93.8662 171.92C91.4248 171.029 89.5327 169.21 88.5928 166.964C87.6528 169.479 85.6509 171.468 83.0752 172.433L82.0742 170.87ZM86.0293 180.514V173.775H87.958V178.902H100.58V180.514H86.0293Z" fill="#3E2050"/>
<path d="M116.889 161.324V179H114.667V163.619H114.569L110.272 166.476V164.254L114.667 161.324H116.889Z" fill="#3E2050"/>
<path d="M127.851 161.324V179H125.629V163.619H125.531L121.234 166.476V164.254L125.629 161.324H127.851Z" fill="#3E2050"/>
<path d="M139.496 165.108C139.484 169.076 142.182 173.055 145.38 174.508L144.208 176.021C141.73 174.825 139.594 172.25 138.556 169.161C137.555 172.433 135.419 175.179 132.88 176.461L131.659 174.85C134.894 173.373 137.567 169.222 137.592 165.108V161.153H139.496V165.108ZM147.748 181.026V159.273H149.677V181.026H147.748Z" fill="#3E2050"/>
</g>
<path d="M95.3982 210.243H99.3352V212.103H94.7472L91.4302 221.31L89.6632 220.628L97.5372 198.68L99.3352 199.3L95.3982 210.243ZM105.752 221.372L99.7072 204.26L101.474 203.547L107.519 220.659L105.752 221.372Z" fill="#260D32"/>
<path d="M112.462 199.021V221H110.54V199.021H112.462ZM114.973 209.809C117.98 209.809 119.933 208.042 119.933 205.345C119.933 202.648 118.011 200.881 115.004 200.881H114.849V199.021H115.004C119.158 199.021 121.855 201.501 121.855 205.345C121.855 209.189 119.158 211.669 114.973 211.669H114.88V209.809H114.973Z" fill="#260D32"/>
<path d="M89.1982 224.1H122.816V225.65H89.1982V224.1Z" fill="#260D32"/>
<path fill-rule="evenodd" clip-rule="evenodd" d="M99.4351 210.143V212.203H94.8174L91.4896 221.44L89.536 220.686L97.4764 198.553L99.4635 199.238L95.5404 210.143H99.4351ZM105.693 221.504L99.581 204.203L101.534 203.415L107.645 220.716L105.693 221.504ZM112.562 198.921V221.1H110.44V198.921H112.562ZM114.749 200.981V198.921H115.004C117.101 198.921 118.839 199.547 120.055 200.668C121.271 201.79 121.955 203.398 121.955 205.345C121.955 207.291 121.271 208.9 120.051 210.022C118.831 211.143 117.085 211.769 114.973 211.769H114.78V209.709H114.973C116.457 209.709 117.672 209.273 118.514 208.514C119.355 207.756 119.833 206.668 119.833 205.345C119.833 204.021 119.362 202.933 118.529 202.176C117.695 201.417 116.488 200.981 115.004 200.981H114.749ZM89.0981 224H122.916V225.75H89.0981V224ZM99.3351 210.243H95.3981L99.3351 199.3L97.5371 198.68L89.6631 220.628L91.4301 221.31L94.7471 212.103H99.3351V210.243ZM99.7071 204.26L105.752 221.372L107.519 220.659L101.474 203.547L99.7071 204.26ZM112.462 221V199.021H110.54V221H112.462ZM119.933 205.345C119.933 208.042 117.98 209.809 114.973 209.809H114.88V211.669H114.973C119.158 211.669 121.855 209.189 121.855 205.345C121.855 201.501 119.158 199.021 115.004 199.021H114.849V200.881H115.004C118.011 200.881 119.933 202.648 119.933 205.345ZM122.816 224.1H89.1981V225.65H122.816V224.1Z" fill="#240D32"/>
<g opacity="0.85">
<path d="M59.9795 246.576V251.496H62.7725V253.172H59.9795V258.178H57.9385V246.576H59.9795ZM45.6064 256.953V247.779H47.6045V250.658H52.6533V247.779H54.6729V256.953H45.6064ZM47.2607 260.799V259.145H59.9795V265.826H57.9385V260.799H47.2607ZM47.6045 255.32H52.6533V252.27H47.6045V255.32Z" fill="#3E2050"/>
<path d="M81.4639 256.309V257.963H73.8154V261.701H71.7959V257.963H63.8467V256.309H81.4639ZM66.0381 265.418V259.875H68.0791V263.764H79.5088V265.418H66.0381ZM66.1025 254.311V247.479H79.1865V254.311H66.1025ZM68.1006 252.699H77.167V249.09H68.1006V252.699Z" fill="#3E2050"/>
<path d="M88.21 247.693C89.8105 247.683 91.1748 248.284 92.0771 249.283H96.8896V246.576H98.9307V257.941H96.8896V255.342H92.0664C91.1641 256.33 89.7998 256.921 88.21 256.91C85.3096 256.921 83.1504 254.998 83.1611 252.312C83.1504 249.595 85.3096 247.683 88.21 247.693ZM85.1162 252.312C85.1055 253.999 86.4053 255.191 88.21 255.17C89.9609 255.191 91.2607 253.999 91.2607 252.312C91.2607 250.583 89.9609 249.434 88.21 249.455C86.4053 249.434 85.1055 250.583 85.1162 252.312ZM85.9756 262.088C85.9648 259.735 88.457 258.36 92.4854 258.371C96.4922 258.36 98.9844 259.735 98.9951 262.088C98.9844 264.43 96.4922 265.794 92.4854 265.783C88.457 265.794 85.9648 264.43 85.9756 262.088ZM87.9736 262.088C87.9629 263.409 89.6602 264.183 92.4854 264.172C95.3105 264.183 96.9971 263.409 96.9971 262.088C96.9971 260.713 95.3105 259.95 92.4854 259.939C89.6602 259.95 87.9629 260.713 87.9736 262.088ZM93.0117 250.916C93.1406 251.346 93.2158 251.818 93.2158 252.312C93.2158 252.785 93.1406 253.247 93.0117 253.666H96.8896V250.916H93.0117Z" fill="#3E2050"/>
<path d="M108.513 247.715L103.507 266.342H101.466L106.472 247.715H108.513Z" fill="#3E2050"/>
<path d="M119.706 247.779C119.695 252.71 116.215 256.18 110.511 257.684L109.694 256.072C114.324 254.869 117.139 252.452 117.515 249.412H110.769V247.779H119.706ZM112.874 265.568V258.285H125.485V265.568H112.874ZM114.894 263.936H123.487V259.918H114.894V263.936ZM123.444 257.426V246.598H125.485V257.426H123.444Z" fill="#3E2050"/>
<path d="M135.669 250.594C135.669 253.086 137.506 255.428 140.481 256.373L139.429 257.963C137.216 257.232 135.551 255.718 134.67 253.795C133.811 255.89 132.092 257.544 129.804 258.35L128.751 256.738C131.748 255.718 133.596 253.226 133.606 250.594V249.756H129.288V248.102H139.901V249.756H135.669V250.594ZM131.909 265.418V259.316H133.972V263.764H145.079V265.418H131.909ZM142.458 260.648V246.598H144.499V260.648H142.458Z" fill="#3E2050"/>
<path d="M152.878 247.693C154.479 247.683 155.843 248.284 156.745 249.283H161.558V246.576H163.599V257.941H161.558V255.342H156.734C155.832 256.33 154.468 256.921 152.878 256.91C149.978 256.921 147.818 254.998 147.829 252.312C147.818 249.595 149.978 247.683 152.878 247.693ZM149.784 252.312C149.773 253.999 151.073 255.191 152.878 255.17C154.629 255.191 155.929 253.999 155.929 252.312C155.929 250.583 154.629 249.434 152.878 249.455C151.073 249.434 149.773 250.583 149.784 252.312ZM150.644 262.088C150.633 259.735 153.125 258.36 157.153 258.371C161.16 258.36 163.652 259.735 163.663 262.088C163.652 264.43 161.16 265.794 157.153 265.783C153.125 265.794 150.633 264.43 150.644 262.088ZM152.642 262.088C152.631 263.409 154.328 264.183 157.153 264.172C159.979 264.183 161.665 263.409 161.665 262.088C161.665 260.713 159.979 259.95 157.153 259.939C154.328 259.95 152.631 260.713 152.642 262.088ZM157.68 250.916C157.809 251.346 157.884 251.818 157.884 252.312C157.884 252.785 157.809 253.247 157.68 253.666H161.558V250.916H157.68Z" fill="#3E2050"/>
</g>
</svg>
