<svg width="210" height="324" viewBox="0 0 210 324" fill="none" xmlns="http://www.w3.org/2000/svg">
<path d="M1 100H209" stroke="#3D0E0E"/>
<path d="M1 1H209" stroke="#3D0E0E"/>
<path d="M1 323H209" stroke="#3D0E0E"/>
<path d="M74.7175 28.4001H73.0675V20.5751H74.7175V28.4001ZM86.8675 22.0251H75.7175V20.5751H88.5675V25.9751H86.8675V22.0251ZM91.1675 31.0251V32.5001H70.4175V31.0251H79.9425V28.4001H75.7175V26.9751H88.5675V28.4001H81.6425V31.0251H91.1675ZM72.8675 34.7251H88.4925V41.5751H86.7925V36.1751H72.8675V34.7251Z" fill="#3D0E0E"/>
<path d="M99.0476 23.3501C97.7476 24.0751 97.0226 25.2001 97.0226 26.7001C97.0226 29.4001 99.6476 30.8001 103.373 30.8001C107.073 30.8001 109.698 29.4001 109.698 26.7001C109.698 24.0001 107.273 22.4501 103.373 22.4501C102.273 22.4501 101.273 22.5751 100.423 22.8001L99.5976 21.4751C100.673 21.1751 101.923 21.0001 103.373 21.0001C108.698 21.0001 111.373 23.3501 111.373 26.7001C111.373 30.6751 107.623 32.2251 103.373 32.2251C98.9976 32.2251 95.3726 30.6501 95.3726 26.7001C95.3726 24.7001 96.2976 23.0501 98.1726 22.0501L99.0476 23.3501ZM93.1226 37.1001H98.2476V33.1001H99.9476V37.1001H106.823V33.1001H108.498V37.1001H113.623V38.5501H93.1226V37.1001Z" fill="#3D0E0E"/>
<path d="M133.183 19.8501H134.883V31.2751H133.183V19.8501ZM118.708 23.4501C118.358 24.0001 118.133 24.7001 118.133 25.5251C118.133 27.8001 119.733 29.1001 122.108 29.1001C124.508 29.1001 126.158 27.8001 126.158 25.5251C126.158 23.2501 124.483 21.9501 122.108 21.9501C121.158 21.9501 120.333 22.1501 119.683 22.5501L118.708 21.3751C119.633 20.8001 120.758 20.5001 122.108 20.5001C125.408 20.5001 127.708 22.3001 127.708 25.5251C127.708 28.8001 125.308 30.5751 122.108 30.5751C118.808 30.5751 116.558 28.6251 116.558 25.5251C116.558 24.2251 116.958 23.1251 117.633 22.3001L118.708 23.4501ZM133.083 34.1001H119.933V32.6251H134.883V35.4251H133.083V34.1001ZM119.933 36.3001H134.883V37.7501H119.933V36.3001ZM121.708 40.1001H135.608V41.5751H119.933V38.6251H121.708V40.1001Z" fill="#3D0E0E"/>
<path d="M95.4745 56.1162L96.9145 57.7002L87.1945 66.2322L85.7905 64.6122L95.4745 56.1162ZM96.6265 63.2802V82.0002H94.3945V63.2802H96.6265Z" fill="#3D0E0E"/>
<path d="M106.48 58.6362V56.4762H115.408V58.6362H106.48ZM110.872 65.6562C115.444 65.6562 118.9 69.2202 118.9 73.9722C118.9 78.7962 115.336 82.3962 110.548 82.3962C105.472 82.3962 102.16 79.1202 102.16 74.0802H104.392C104.392 77.8242 106.804 80.2722 110.548 80.2722C114.04 80.2722 116.668 77.5722 116.668 73.9722C116.668 70.4442 114.184 67.7802 110.872 67.7802C109.144 67.7802 107.848 68.1762 106.372 68.8242V61.9482H108.532V65.9802C109.144 65.7642 110.008 65.6562 110.872 65.6562Z" fill="#3D0E0E"/>
<g opacity="0.85">
<path d="M72.1347 160.7C76.7597 160.725 80.0847 162.95 80.0847 166.4C80.0847 169.6 77.2097 171.725 73.0847 172.025V176.6H82.1347V178.2H62.2847V176.6H71.1847V172.025C67.1097 171.725 64.2097 169.6 64.2347 166.4C64.2097 162.95 67.5597 160.725 72.1347 160.7ZM66.0847 166.4C66.0597 168.875 68.6347 170.5 72.1347 170.5C75.6597 170.5 78.2347 168.875 78.2347 166.4C78.2347 163.925 75.6597 162.275 72.1347 162.3C68.6347 162.275 66.0597 163.925 66.0847 166.4Z" fill="#3E2050"/>
<path d="M102.491 161.75V163.35H84.8911V161.75H92.7911V159.15H94.6911V161.75H102.491ZM83.8911 174.95V173.35H103.741V174.95H94.6911V181H92.7911V174.95H83.8911ZM86.6911 168.25C86.6411 165.9 89.3161 164.6 93.7411 164.6C98.1661 164.6 100.816 165.9 100.841 168.25C100.816 170.525 98.1661 171.825 93.7411 171.85C89.3161 171.825 86.6411 170.525 86.6911 168.25ZM88.6411 168.25C88.6411 169.575 90.5161 170.375 93.7411 170.35C96.9661 170.375 98.8411 169.575 98.8411 168.25C98.8411 166.875 96.9661 166.075 93.7411 166.05C90.5161 166.075 88.6411 166.875 88.6411 168.25Z" fill="#3E2050"/>
<path d="M118.448 179.25C114.698 179.25 112.123 177.175 112.148 174.3C112.123 172.025 113.723 170.15 115.748 169.8V169.75C113.973 169.325 112.823 167.7 112.798 165.75C112.823 163.075 115.173 161.075 118.448 161.1C121.648 161.075 123.998 163.075 123.998 165.75C123.998 167.7 122.823 169.325 121.098 169.75V169.8C123.098 170.15 124.698 172.025 124.698 174.3C124.698 177.175 122.098 179.25 118.448 179.25ZM114.348 174.2C114.298 176.05 115.873 177.3 118.448 177.3C120.948 177.3 122.523 176.05 122.498 174.2C122.523 172.225 120.798 170.8 118.448 170.8C116.048 170.8 114.298 172.225 114.348 174.2ZM114.948 165.95C114.948 167.725 116.398 168.925 118.448 168.95C120.423 168.925 121.873 167.725 121.898 165.95C121.873 164.175 120.473 162.975 118.448 163C116.323 162.975 114.948 164.175 114.948 165.95Z" fill="#3E2050"/>
<path d="M134.609 165.1C134.584 169.075 137.284 173.05 140.459 174.5L139.309 176.05C136.834 174.825 134.684 172.25 133.659 169.125C132.659 172.425 130.509 175.175 127.959 176.45L126.759 174.85C130.009 173.375 132.684 169.225 132.709 165.1V161.15H134.609V165.1ZM142.859 181V159.3H144.759V181H142.859Z" fill="#3E2050"/>
</g>
<path d="M50.6409 199.393H70.9149V201.16H50.6409V199.393ZM66.7919 202.4C66.6369 205.5 66.3579 208.755 66.1099 211.018H70.9149V212.785H50.6409V211.018H64.1259C64.3429 208.538 64.5599 205.345 64.6529 202.4H66.7919ZM57.0269 202.4C57.0889 204.539 57.2439 207.608 57.4299 209.778L55.3529 209.84C55.1979 207.639 55.0429 204.539 54.9809 202.4H57.0269ZM48.0679 218.644H73.4879V220.442H48.0679V218.644Z" fill="#260D32"/>
<path d="M97.1544 223.232V197.254H99.2315V223.232H97.1544ZM78.0275 200.881V199.083H90.6134V209.592H88.5365V200.881H78.0275ZM78.0275 209.592V207.794H87.2345V209.592H78.0275ZM80.1355 216.66H82.1194C86.8624 216.66 91.9154 216.412 95.6044 215.575V217.373C92.1634 218.148 87.2344 218.458 82.0884 218.458H78.0275V210.987H80.1355V216.66Z" fill="#260D32"/>
<path d="M128.602 197.254V223.232H126.494V197.254H128.602ZM118.062 207.143H120.914V197.564H122.991V208.91H118.062V207.143ZM105.879 217.249V199.393H107.894V217.249H105.879ZM114.776 201.16H109.134V199.393H116.822V214.211H114.776V201.16ZM122.991 222.798H120.914V209.995H122.991V222.798ZM116.822 217.249H109.134V215.451H116.822V217.249Z" fill="#260D32"/>
<path d="M153.751 223.232V197.254H155.828V223.232H153.751ZM135.244 200.881V199.083H147.83V209.592H145.753V200.881H135.244ZM161.129 207.701V209.499H156.913V207.701H161.129ZM135.244 209.592V207.794H144.482V209.592H135.244ZM137.352 216.66H139.336C143.769 216.66 148.512 216.443 152.201 215.606V217.404C148.76 218.179 144.141 218.458 139.305 218.458H135.244V210.987H137.352V216.66Z" fill="#260D32"/>
<path d="M46.8589 224.1H161.129V225.65H46.8589V224.1Z" fill="#260D32"/>
<path fill-rule="evenodd" clip-rule="evenodd" d="M50.5408 199.293H71.0148V201.26H50.5408V199.293ZM66.8969 202.3L66.8917 202.405C66.7391 205.457 66.4664 208.658 66.2213 210.918H71.0148V212.885H50.5408V210.918H64.0341C64.2483 208.452 64.461 205.303 64.5528 202.397L64.5559 202.3H66.8969ZM57.1239 202.3L57.1267 202.397C57.1887 204.535 57.3436 207.602 57.5294 209.769L57.5385 209.875L55.2598 209.943L55.253 209.847C55.0979 207.645 54.9429 204.543 54.8808 202.403L54.8778 202.3H57.1239ZM47.9678 218.544H73.5878V220.542H47.9678V218.544ZM97.0544 223.332V197.154H99.3314V223.332H97.0544ZM77.9274 200.981V198.983H90.7133V209.692H88.4363V200.981H77.9274ZM77.9274 209.692V207.694H87.3344V209.692H77.9274ZM95.7044 215.45V217.453L95.6263 217.47C92.1742 218.248 87.2363 218.558 82.0883 218.558H77.9274V210.887H80.2354V216.56H82.1193C86.8612 216.56 91.9048 216.312 95.5822 215.477L95.7044 215.45ZM128.702 197.154V223.332H126.394V197.154H128.702ZM117.962 207.043H120.814V197.464H123.091V209.01H117.962V207.043ZM105.779 217.349V199.293H107.994V217.349H105.779ZM109.034 201.26V199.293H116.922V214.311H114.676V201.26H109.034ZM123.091 222.898H120.814V209.895H123.091V222.898ZM116.922 217.349H109.034V215.351H116.922V217.349ZM153.651 223.332V197.154H155.928V223.332H153.651ZM135.144 200.981V198.983H147.93V209.692H145.653V200.981H135.144ZM161.229 207.601V209.599H156.813V207.601H161.229ZM135.144 209.692V207.694H144.582V209.692H135.144ZM152.301 215.481V217.484L152.223 217.501C148.771 218.279 144.143 218.558 139.305 218.558H135.144V210.887H137.452V216.56H139.336C143.768 216.56 148.502 216.343 152.179 215.508L152.301 215.481ZM46.7588 224H161.229V225.75H46.7588V224ZM70.9148 199.393H50.6408V201.16H70.9148V199.393ZM66.1098 211.018C66.3578 208.755 66.6368 205.5 66.7918 202.4H64.6528C64.5598 205.345 64.3428 208.538 64.1258 211.018H50.6408V212.785H70.9148V211.018H66.1098ZM57.4298 209.778C57.2438 207.608 57.0888 204.539 57.0268 202.4H54.9808C55.0428 204.539 55.1978 207.639 55.3528 209.84L57.4298 209.778ZM73.4878 218.644H48.0678V220.442H73.4878V218.644ZM97.1544 197.254V223.232H99.2314V197.254H97.1544ZM78.0274 199.083V200.881H88.5364V209.592H90.6133V199.083H78.0274ZM78.0274 207.794V209.592H87.2344V207.794H78.0274ZM82.1193 216.66H80.1354V210.987H78.0274V218.458H82.0883C87.2344 218.458 92.1634 218.148 95.6043 217.373V215.575C91.9154 216.412 86.8624 216.66 82.1193 216.66ZM128.602 223.232V197.254H126.494V223.232H128.602ZM120.914 207.143H118.062V208.91H122.991V197.564H120.914V207.143ZM105.879 199.393V217.249H107.894V199.393H105.879ZM109.134 201.16H114.776V214.211H116.822V199.393H109.134V201.16ZM120.914 222.798H122.991V209.995H120.914V222.798ZM109.134 217.249H116.822V215.451H109.134V217.249ZM153.751 197.254V223.232H155.828V197.254H153.751ZM135.244 199.083V200.881H145.753V209.592H147.83V199.083H135.244ZM161.129 209.499V207.701H156.913V209.499H161.129ZM135.244 207.794V209.592H144.482V207.794H135.244ZM139.336 216.66H137.352V210.987H135.244V218.458H139.305C144.141 218.458 148.76 218.179 152.201 217.404V215.606C148.512 216.443 143.769 216.66 139.336 216.66ZM161.129 224.1H46.8588V225.65H161.129V224.1Z" fill="#240D32"/>
<g opacity="0.85">
<path d="M92.6504 256.803V260.133C94.4121 260.036 96.1953 259.886 97.8711 259.639L98.0215 261.143C93.6709 261.948 88.998 261.98 85.5605 261.98L85.3027 260.305C86.8496 260.294 88.6865 260.283 90.6094 260.219V256.803H92.6504ZM85.8184 255.879C88.6865 255.052 90.4805 253.043 90.5879 250.68H86.334V249.025H90.6094V246.727H92.6504V249.025H96.9688V250.68H92.6504C92.7578 252.946 94.584 254.891 97.4629 255.664L96.5176 257.254C94.2188 256.599 92.5 255.202 91.6299 253.376C90.792 255.299 89.0947 256.771 86.7852 257.426L85.8184 255.879ZM99.0742 265.869V246.576H101.115V265.869H99.0742Z" fill="#3E2050"/>
<path d="M120.129 246.576V265.826H118.088V246.576H120.129ZM104.316 260.455C107.958 260.466 112.728 260.466 116.906 259.918L117.057 261.422C112.717 262.163 108.151 262.185 104.596 262.174L104.316 260.455ZM104.725 250.723V249.09H109.58V246.791H111.643V249.09H116.477V250.723H104.725ZM105.971 255.342C105.949 253.107 107.861 251.689 110.611 251.689C113.372 251.689 115.263 253.107 115.273 255.342C115.263 257.501 113.372 258.962 110.611 258.951C107.861 258.962 105.949 257.501 105.971 255.342ZM107.883 255.342C107.861 256.577 108.989 257.372 110.611 257.383C112.223 257.372 113.329 256.577 113.34 255.342C113.329 254.085 112.223 253.269 110.611 253.258C108.989 253.269 107.861 254.085 107.883 255.342Z" fill="#3E2050"/>
</g>
<path d="M1 1V323" stroke="#3D0E0E"/>
<path d="M209 1V323" stroke="#3D0E0E"/>
</svg>
