<svg width="419" height="152" viewBox="0 0 419 152" fill="none" xmlns="http://www.w3.org/2000/svg">
<path opacity="0.8" d="M32.8438 11.75V20.0312H37.0625V22.0938H32.8438V31.875H30.4062V11.75H32.8438ZM12.4375 26.9375V14.1562H24.8125V16.2188H14.875V24.875C20.4531 24.8906 23.625 24.7188 27.3438 23.9688L27.6562 26C23.75 26.75 20.4375 26.9375 14.5938 26.9375H12.4375ZM15.4688 38.9375V29.8438H17.875V36.875H34.125V38.9375H15.4688ZM47.8125 37L47.7812 34.9375L55.5 26.8125C58.1719 23.9688 59.4531 22.4375 59.4688 20.3438C59.4531 18.0156 57.5156 16.5156 54.9688 16.5C52.2656 16.5156 50.5781 18.2188 50.5625 20.75H47.9062C47.875 16.75 50.9688 14.0625 55.0625 14.0625C59.1719 14.0625 62.0781 16.8281 62.0938 20.3438C62.0781 22.875 60.9062 24.8438 56.9062 28.9688L51.7188 34.3125V34.5H62.5V37H47.8125ZM79.625 15.6875C79.6094 19.4062 84.5625 22.5625 89.4062 23.2812L88.5 25.2188C84.1719 24.4844 79.9375 22.1719 78.25 18.8281C76.5625 22.1719 72.3281 24.4844 68.0625 25.2188L67.0938 23.2812C71.9219 22.5625 76.8594 19.4062 76.875 15.6875V15.5H67.9688V13.5H88.5V15.5H79.625V15.6875ZM65.5938 29.625V27.5938H90.9062V29.625H79.4062V39.5312H77V29.625H65.5938ZM97.8125 34.9062L95.375 43.4062H93.0625L94.7812 34.9062H97.8125ZM133.281 11.75V39.5312H130.906V24.8125H127.031V38.125H124.688V12.3438H127.031V22.7812H130.906V11.75H133.281ZM110.5 32.0625V15H121.125V32.0625H110.5ZM112.812 30.0938H118.812V16.9688H112.812V30.0938ZM145 12.7812C149.156 12.7969 152.172 15.3281 152.188 18.9375C152.172 22.5625 149.156 25.0625 145 25.0625C140.797 25.0625 137.766 22.5625 137.781 18.9375C137.766 15.3281 140.797 12.7969 145 12.7812ZM140.188 18.9375C140.156 21.375 142.203 23.0625 145 23.0625C147.75 23.0625 149.812 21.375 149.812 18.9375C149.812 16.5312 147.75 14.8281 145 14.8438C142.203 14.8281 140.156 16.5312 140.188 18.9375ZM142 29.3438V27.375H160.062V34.0625H144.469V37.1875H161.062V39.1562H142.062V32.2188H157.625V29.3438H142ZM157.625 26.0312V11.75H160.062V26.0312H157.625ZM195.219 18.375V20.4062H186.688V23.4375H198.219V25.5H172.781V23.4375H184.281V20.4062H176.25V12.2188H178.656V18.375H195.219ZM175.969 29.7188V27.7812H194.938V34.1562H178.5V37.1875H195.938V39.1562H176.031V32.3438H192.531V29.7188H175.969ZM221.969 11.75V22.8125H226.625V24.875H221.969V39.5938H219.531V11.75H221.969ZM201.562 16.375V14.3438H214.188V24.2812H204.062V30.7812C209.219 30.7969 212.828 30.5938 217.031 29.8125L217.281 31.8438C212.906 32.6406 209.203 32.8438 203.844 32.875H201.625V22.25H211.75V16.375H201.562ZM253.531 25.875V27.9062H242.25V33.5938H239.781V27.9062H228.094V25.875H253.531ZM230.969 18.0625C230.953 14.6094 234.844 12.4844 240.781 12.4688C246.719 12.4844 250.562 14.6094 250.562 18.0625C250.562 21.4844 246.719 23.6094 240.781 23.5938C234.844 23.6094 230.953 21.4844 230.969 18.0625ZM231.375 38.9375V30.8125H233.844V36.8438H250.688V38.9375H231.375ZM233.594 18.0625C233.562 20.2188 236.453 21.5938 240.781 21.5938C245.094 21.5938 247.969 20.2188 247.969 18.0625C247.969 15.8438 245.094 14.4844 240.781 14.4688C236.453 14.4844 233.562 15.8438 233.594 18.0625ZM287.625 11.75V39.5312H285.25V11.75H287.625ZM263.75 18.5625V16.5625H269.438V12.5H271.906V16.5625H277.594V18.5625H263.75ZM264.781 26.875C264.766 23.0781 267.234 20.4688 270.625 20.4688C274.047 20.4688 276.5 23.0781 276.5 26.875C276.5 27.0938 276.484 27.3125 276.469 27.5312H280.094V23.2188H276.188V21.1875H280.094V12.375H282.406V38.1562H280.094V29.5H276.047C275.203 31.8125 273.188 33.2812 270.625 33.2812C267.234 33.2812 264.766 30.6562 264.781 26.875ZM266.938 26.875C266.938 29.375 268.484 31.1719 270.625 31.1562C272.781 31.1719 274.328 29.375 274.344 26.875C274.328 24.3438 272.781 22.5938 270.625 22.5625C268.484 22.5938 266.938 24.3438 266.938 26.875ZM303.5 13.7812V15.8438H295.062V19.3125H303.188V21.25H295.062V25.0938C299.109 25.0781 301.641 24.9219 304.625 24.3438L304.875 26.375C301.609 27.0156 298.984 27.1406 294.469 27.1562H292.719V13.7812H303.5ZM296.344 32.0625V30.0625H315.062V39.5312H312.656V32.0625H296.344ZM306.531 28.4375V12.3125H308.812V19.0312H312.719V11.7812H315.062V28.625H312.719V21.0312H308.812V28.4375H306.531ZM328.219 13.7812C332.578 13.7969 335.672 16.4531 335.688 20.3125C335.672 24.1875 332.578 26.8281 328.219 26.8438C323.828 26.8281 320.703 24.1875 320.719 20.3125C320.703 16.4531 323.828 13.7969 328.219 13.7812ZM319.281 31.375C324.406 31.3906 331.484 31.3438 337.625 30.4375L337.812 32.25C331.453 33.4375 324.625 33.4688 319.625 33.4688L319.281 31.375ZM323.125 20.3125C323.109 22.9062 325.25 24.6875 328.219 24.6875C331.156 24.6875 333.297 22.9062 333.281 20.3125C333.297 17.7344 331.156 15.9375 328.219 15.9375C325.25 15.9375 323.109 17.7344 323.125 20.3125ZM339.469 39.5938V11.75H341.906V39.5938H339.469ZM377.844 11.7812V32.3125H375.375V24.8125H368.188C366.906 26.4531 364.844 27.4375 362.469 27.4375C358.312 27.4375 355.234 24.5625 355.25 20.5C355.234 16.4219 358.312 13.5469 362.469 13.5312C364.828 13.5469 366.859 14.5156 368.156 16.125H375.375V11.7812H377.844ZM357.594 20.5C357.594 23.2812 359.625 25.2656 362.469 25.25C365.203 25.2656 367.281 23.2812 367.281 20.5C367.281 17.7344 365.203 15.7344 362.469 15.7188C359.625 15.7344 357.594 17.7344 357.594 20.5ZM360 38.9375V30.1562H362.469V36.875H378.625V38.9375H360ZM369.266 18.1562C369.516 18.875 369.656 19.6562 369.656 20.5C369.656 21.3125 369.516 22.0781 369.281 22.7812H375.375V18.1562H369.266ZM407.875 25.7188V27.75H382.469V25.7188H393.906V21.4375H396.312V25.7188H407.875ZM384 20.9688C388.906 20.2969 393.875 17.2031 393.875 13.5V12.1875H396.344V13.5C396.344 17.2031 401.344 20.2969 406.25 20.9688L405.25 22.9375C401.047 22.2031 396.859 19.9688 395.125 16.7656C393.375 20 389.203 22.2031 384.938 22.9375L384 20.9688ZM385.281 32.4375V30.4688H404.656V39.5312H402.188V32.4375H385.281Z" fill="white"/>
<path d="M22.7278 123.4C22.7278 129.56 26.4878 129.64 29.2878 129.64V131H5.20781V129.64C8.48781 129.64 12.8078 129.32 12.8078 123.4V88.76C12.8078 81.56 5.36781 86.84 5.36781 86.84L4.56781 85.56L20.1678 73.96H22.7278V123.4ZM59.0341 73.96C76.6341 73.96 81.3541 87.4 81.3541 103.32C81.3541 119.16 76.6341 131.72 59.0341 131.72C41.3541 131.72 36.6341 119.16 36.6341 103.32C36.6341 87.4 41.3541 73.96 59.0341 73.96ZM59.0341 130.36C66.3141 130.36 68.7141 125.24 68.7141 103.32C68.7141 81.32 65.9141 75.32 59.0341 75.32C51.8341 75.32 49.2741 81.32 49.2741 103.32C49.2741 125.24 51.9941 130.36 59.0341 130.36ZM102.865 124.68C102.865 128.44 99.8247 131.4 96.1447 131.4C92.3847 131.4 89.3447 128.44 89.3447 124.68C89.3447 120.92 92.3847 117.88 96.1447 117.88C99.8247 117.88 102.865 120.92 102.865 124.68ZM130.697 123.4C130.697 129.56 134.457 129.64 137.257 129.64V131H113.177V129.64C116.457 129.64 120.777 129.32 120.777 123.4V88.76C120.777 81.56 113.337 86.84 113.337 86.84L112.537 85.56L128.137 73.96H130.697V123.4ZM167.003 73.96C184.603 73.96 189.323 87.4 189.323 103.32C189.323 119.16 184.603 131.72 167.003 131.72C149.323 131.72 144.603 119.16 144.603 103.32C144.603 87.4 149.323 73.96 167.003 73.96ZM167.003 130.36C174.283 130.36 176.683 125.24 176.683 103.32C176.683 81.32 173.883 75.32 167.003 75.32C159.803 75.32 157.243 81.32 157.243 103.32C157.243 125.24 159.963 130.36 167.003 130.36ZM222.593 114.36H197.393V106.92H222.593V114.36ZM250.54 123.4C250.54 129.56 254.3 129.64 257.1 129.64V131H233.02V129.64C236.3 129.64 240.62 129.32 240.62 123.4V88.76C240.62 81.56 233.18 86.84 233.18 86.84L232.38 85.56L247.98 73.96H250.54V123.4ZM286.847 73.96C304.447 73.96 309.167 87.4 309.167 103.32C309.167 119.16 304.447 131.72 286.847 131.72C269.167 131.72 264.447 119.16 264.447 103.32C264.447 87.4 269.167 73.96 286.847 73.96ZM286.847 130.36C294.127 130.36 296.527 125.24 296.527 103.32C296.527 81.32 293.727 75.32 286.847 75.32C279.647 75.32 277.087 81.32 277.087 103.32C277.087 125.24 279.807 130.36 286.847 130.36ZM330.677 124.68C330.677 128.44 327.637 131.4 323.957 131.4C320.197 131.4 317.157 128.44 317.157 124.68C317.157 120.92 320.197 117.88 323.957 117.88C327.637 117.88 330.677 120.92 330.677 124.68ZM371.389 116.2H372.749L368.669 131H338.909L357.149 104.44C368.589 84.84 346.429 76.68 340.349 89.32L339.069 89C340.909 74.04 354.589 73.96 354.589 73.96C362.589 73.96 368.269 80.04 368.269 87.32C368.269 92.6 364.909 97.56 358.589 105.56C354.589 110.6 347.549 120.76 347.549 120.76H364.109C366.829 120.76 369.629 119.4 371.389 116.2ZM416.042 115.32H407.722V119.4C407.722 129.48 411.162 129.64 414.522 129.64V131H389.322V129.64C392.682 129.64 396.122 129.32 396.122 119.8V115.32H377.562V113.96L403.962 73.96L407.722 74.68V109.72H416.042V115.32ZM396.122 109.72V88.52L384.922 105.48C381.962 109.64 384.362 109.72 385.962 109.72H396.122Z" fill="white"/>
</svg>
