<svg width="107" height="100" viewBox="0 0 107 100" fill="none" xmlns="http://www.w3.org/2000/svg">
<path d="M49.8379 18.5879V20.9902C49.8232 23.4805 49.8232 26.1904 49.1494 29.9258H52.6797V32.9434H42.2793V43.7246H38.5293V32.9434H28.3633V29.9258H45.3555C46.0439 26.498 46.1025 23.876 46.1172 21.5762H31.1465V18.5879H49.8379ZM77.4062 17.0352V43.6953H73.832V30.248H71.4297V42.4648H67.8848V17.416H71.4297V27.2012H73.832V17.0352H77.4062ZM55.0527 36.9863V19.7891H65.6582V36.9863H55.0527ZM58.5391 34.0566H62.1719V22.748H58.5391V34.0566ZM51.4785 57.0352V83.6953H47.9043V57.0352H51.4785ZM28.334 64.0371V61.0781H32.8457V57.6797H36.5664V61.0781H41.0195V64.0371H28.334ZM28.9199 71.6836C28.9053 67.9043 31.3369 65.2676 34.6035 65.2676C37.9434 65.2676 40.3457 67.9043 40.3457 71.6836V71.8887H42.7188V68.6953H39.7891V65.6484H42.7188V57.4746H46.2051V82.5234H42.7188V74.8184H39.7012C38.7637 76.8398 36.9033 78.0996 34.6035 78.0996C31.3369 78.0996 28.9053 75.4629 28.9199 71.6836ZM32.1719 71.6836C32.1572 73.7344 33.1387 74.9209 34.6035 74.9355C36.0977 74.9209 37.1084 73.7344 37.123 71.6836C37.1084 69.5889 36.0977 68.4316 34.6035 68.4316C33.1387 68.4316 32.1572 69.5889 32.1719 71.6836ZM65.7754 58.8223V61.8105H58.8027V64.0078H65.5117V66.8496H58.8027V69.208C61.7617 69.1787 63.9443 69.0615 66.4199 68.6367L66.8008 71.625C63.6807 72.1816 61.0732 72.2842 57.0449 72.2695H55.2285V58.8223H65.7754ZM58.7734 77.4258V74.4375H77.2012V83.6953H73.4805V77.4258H58.7734ZM67.8555 73.1191V57.5332H71.3418V63.5684H73.6562V57.0645H77.2012V73.3242H73.6562V66.5566H71.3418V73.1191H67.8555Z" fill="white"/>
</svg>
