<svg width="107" height="100" viewBox="0 0 107 100" fill="none" xmlns="http://www.w3.org/2000/svg">
<path d="M22.5771 18.9102C26.6494 18.9102 29.5938 22.5869 29.6084 28.4023C29.5938 34.2617 26.6494 37.9238 22.5771 37.9238C18.4902 37.9238 15.5312 34.2617 15.5459 28.4023C15.5312 22.5869 18.4902 18.9102 22.5771 18.9102ZM19.1494 28.4023C19.1494 32.3721 20.541 34.54 22.5771 34.5254C24.6572 34.54 26.0195 32.3721 26.0342 28.4023C26.0195 24.4473 24.6572 22.2793 22.5771 22.2793C20.541 22.2793 19.1494 24.4473 19.1494 28.4023ZM32.6846 43.6953V17.0352H36.4346V27.084H40.3604V30.1895H36.4346V43.6953H32.6846ZM49.8818 23.7441C49.8672 28.0654 51.0684 32.5186 54.7158 34.8477L52.6943 37.748C50.3799 36.3564 48.9297 34.042 48.0801 31.3174C47.1279 34.335 45.5312 36.8691 43.1143 38.334L40.8291 35.5801C44.7842 33.1338 46.249 28.4316 46.249 23.9199V19.3203H49.8818V23.7441ZM51.9033 29.0762V26.0293H55.3604V17.416H58.8467V42.4648H55.3604V29.0762H51.9033ZM60.8682 43.6953V17.0352H64.4424V43.6953H60.8682ZM90.5752 17.0352V43.6953H86.9717V17.0352H90.5752ZM66.9619 34.5254H69.1885V23.0703H67.46V20.0527H79.6768V23.0703H77.9775V34.1592C78.7246 34.0859 79.4424 34.0127 80.1162 33.9102L80.3799 36.6055C76.1611 37.499 70.7119 37.6016 67.3721 37.6016L66.9619 34.5254ZM72.499 34.4668C73.1875 34.4521 73.876 34.4229 74.5791 34.3936V23.0703H72.499V34.4668ZM79.0615 30.0723V26.7324H81.6396V17.5625H85.1846V42.4355H81.6396V30.0723H79.0615ZM37.7236 57.0352V83.7539H33.9443V57.0352H37.7236ZM16.1904 68.4023C16.1758 62.5869 19.1494 58.9102 23.251 58.9102C27.2646 58.9102 30.2529 62.5869 30.2529 68.4023C30.2529 74.2617 27.2646 77.9238 23.251 77.9238C19.1494 77.9238 16.1758 74.2617 16.1904 68.4023ZM19.7939 68.4023C19.7793 72.3721 21.1709 74.54 23.251 74.5254C25.2725 74.54 26.6348 72.3721 26.6494 68.4023C26.6348 64.4473 25.2725 62.2793 23.251 62.2793C21.1709 62.2793 19.7793 64.4473 19.7939 68.4023ZM64.2373 57.0352V77.1914H60.6924V57.0352H64.2373ZM42.2646 72.5625V59.0859H45.8096V63.1582H49.4424V59.0859H52.8994V64.418H55.3018V57.4453H58.8174V76.3418H55.3018V67.4062H52.8994V72.5625H42.2646ZM45.8096 69.5449H49.4424V66H45.8096V69.5449ZM46.1611 83.2266V74.5254H49.9111V80.2383H64.9111V83.2266H46.1611ZM88.9932 70.8047V73.7637H70.126V58.998H88.7881V62.0156H73.9346V64.8281H88.1729V67.7578H73.9346V70.8047H88.9932ZM67.2549 80.5898V77.543H91.6592V80.5898H67.2549Z" fill="white"/>
</svg>
