<svg width="107" height="100" viewBox="0 0 107 100" fill="none" xmlns="http://www.w3.org/2000/svg">
<path d="M23.5146 41V19.7891H27.9092V37.3672H37.0498V41H23.5146ZM44.2861 19.7891V41H39.8916V19.7891H44.2861ZM51.5811 19.7891L56.7373 35.9609H56.9424L62.1279 19.7891H66.9912L59.667 41H54.0127L46.6592 19.7891H51.5811ZM69.3936 41V19.7891H83.6318V23.4219H73.7881V28.5781H82.8994V32.2109H73.7881V37.3672H83.6611V41H69.3936ZM40.7852 73.3535C46.3369 73.3535 49.7646 75.2578 49.7793 78.5098C49.7646 81.8057 46.3369 83.7246 40.7852 83.7246C35.1455 83.7246 31.6299 81.8057 31.6445 78.5098C31.6299 75.2578 35.1455 73.3535 40.7852 73.3535ZM29.1543 71.2441V58.7051H32.875V62.0742H38.3242V58.7051H42.0742V71.2441H29.1543ZM32.875 68.2852H38.3242V64.9746H32.875V68.2852ZM35.3945 78.5098C35.3652 80.0332 37.2842 80.8242 40.7852 80.8242C44.2422 80.8242 46.0879 80.0332 46.0879 78.5098C46.0879 76.9863 44.2422 76.2686 40.7852 76.2539C37.2842 76.2686 35.3652 76.9863 35.3945 78.5098ZM45.7656 72.7676V57.0352H49.5156V63.2168H53.1191V66.3516H49.5156V72.7676H45.7656ZM68.2656 66.4688V69.75H78.6074V72.7383H54.291V69.75H64.5742V66.4688H68.2656ZM55.5508 65.1504C61.4395 64.4033 64.501 61.3564 64.5156 58.3535V57.4746H68.3242V58.3535C68.3096 61.4736 71.2979 64.4033 77.3184 65.1504L75.8828 68.0508C71.3711 67.377 68.0605 65.4873 66.376 62.8213C64.6768 65.4727 61.3662 67.3916 56.8691 68.0508L55.5508 65.1504ZM57.0742 78.9785C57.0742 75.9463 60.5752 74.2178 66.4199 74.2031C72.2207 74.2178 75.6777 75.9463 75.707 78.9785C75.6777 82.0107 72.2207 83.71 66.4199 83.6953C60.5752 83.71 57.0742 82.0107 57.0742 78.9785ZM60.8828 78.9785C60.8682 80.2822 62.6846 80.9121 66.4199 80.9121C70.0674 80.9121 71.9424 80.2822 71.957 78.9785C71.9424 77.6455 70.0674 77.0596 66.4199 77.0449C62.6846 77.0596 60.8682 77.6455 60.8828 78.9785Z" fill="white"/>
</svg>
