<svg width="445" height="152" viewBox="0 0 445 152" fill="none" xmlns="http://www.w3.org/2000/svg">
<path opacity="0.8" d="M45.8438 11.75V20.0312H50.0625V22.0938H45.8438V31.875H43.4062V11.75H45.8438ZM25.4375 26.9375V14.1562H37.8125V16.2188H27.875V24.875C33.4531 24.8906 36.625 24.7188 40.3438 23.9688L40.6562 26C36.75 26.75 33.4375 26.9375 27.5938 26.9375H25.4375ZM28.4688 38.9375V29.8438H30.875V36.875H47.125V38.9375H28.4688ZM60.8125 37L60.7812 34.9375L68.5 26.8125C71.1719 23.9688 72.4531 22.4375 72.4688 20.3438C72.4531 18.0156 70.5156 16.5156 67.9688 16.5C65.2656 16.5156 63.5781 18.2188 63.5625 20.75H60.9062C60.875 16.75 63.9688 14.0625 68.0625 14.0625C72.1719 14.0625 75.0781 16.8281 75.0938 20.3438C75.0781 22.875 73.9062 24.8438 69.9062 28.9688L64.7188 34.3125V34.5H75.5V37H60.8125ZM92.625 15.6875C92.6094 19.4062 97.5625 22.5625 102.406 23.2812L101.5 25.2188C97.1719 24.4844 92.9375 22.1719 91.25 18.8281C89.5625 22.1719 85.3281 24.4844 81.0625 25.2188L80.0938 23.2812C84.9219 22.5625 89.8594 19.4062 89.875 15.6875V15.5H80.9688V13.5H101.5V15.5H92.625V15.6875ZM78.5938 29.625V27.5938H103.906V29.625H92.4062V39.5312H90V29.625H78.5938ZM110.812 34.9062L108.375 43.4062H106.062L107.781 34.9062H110.812ZM146.281 11.75V39.5312H143.906V24.8125H140.031V38.125H137.688V12.3438H140.031V22.7812H143.906V11.75H146.281ZM123.5 32.0625V15H134.125V32.0625H123.5ZM125.812 30.0938H131.812V16.9688H125.812V30.0938ZM158 12.7812C162.156 12.7969 165.172 15.3281 165.188 18.9375C165.172 22.5625 162.156 25.0625 158 25.0625C153.797 25.0625 150.766 22.5625 150.781 18.9375C150.766 15.3281 153.797 12.7969 158 12.7812ZM153.188 18.9375C153.156 21.375 155.203 23.0625 158 23.0625C160.75 23.0625 162.812 21.375 162.812 18.9375C162.812 16.5312 160.75 14.8281 158 14.8438C155.203 14.8281 153.156 16.5312 153.188 18.9375ZM155 29.3438V27.375H173.062V34.0625H157.469V37.1875H174.062V39.1562H155.062V32.2188H170.625V29.3438H155ZM170.625 26.0312V11.75H173.062V26.0312H170.625ZM208.219 18.375V20.4062H199.688V23.4375H211.219V25.5H185.781V23.4375H197.281V20.4062H189.25V12.2188H191.656V18.375H208.219ZM188.969 29.7188V27.7812H207.938V34.1562H191.5V37.1875H208.938V39.1562H189.031V32.3438H205.531V29.7188H188.969ZM234.969 11.75V22.8125H239.625V24.875H234.969V39.5938H232.531V11.75H234.969ZM214.562 16.375V14.3438H227.188V24.2812H217.062V30.7812C222.219 30.7969 225.828 30.5938 230.031 29.8125L230.281 31.8438C225.906 32.6406 222.203 32.8438 216.844 32.875H214.625V22.25H224.75V16.375H214.562ZM266.531 25.875V27.9062H255.25V33.5938H252.781V27.9062H241.094V25.875H266.531ZM243.969 18.0625C243.953 14.6094 247.844 12.4844 253.781 12.4688C259.719 12.4844 263.562 14.6094 263.562 18.0625C263.562 21.4844 259.719 23.6094 253.781 23.5938C247.844 23.6094 243.953 21.4844 243.969 18.0625ZM244.375 38.9375V30.8125H246.844V36.8438H263.688V38.9375H244.375ZM246.594 18.0625C246.562 20.2188 249.453 21.5938 253.781 21.5938C258.094 21.5938 260.969 20.2188 260.969 18.0625C260.969 15.8438 258.094 14.4844 253.781 14.4688C249.453 14.4844 246.562 15.8438 246.594 18.0625ZM300.625 11.75V39.5312H298.25V11.75H300.625ZM276.75 18.5625V16.5625H282.438V12.5H284.906V16.5625H290.594V18.5625H276.75ZM277.781 26.875C277.766 23.0781 280.234 20.4688 283.625 20.4688C287.047 20.4688 289.5 23.0781 289.5 26.875C289.5 27.0938 289.484 27.3125 289.469 27.5312H293.094V23.2188H289.188V21.1875H293.094V12.375H295.406V38.1562H293.094V29.5H289.047C288.203 31.8125 286.188 33.2812 283.625 33.2812C280.234 33.2812 277.766 30.6562 277.781 26.875ZM279.938 26.875C279.938 29.375 281.484 31.1719 283.625 31.1562C285.781 31.1719 287.328 29.375 287.344 26.875C287.328 24.3438 285.781 22.5938 283.625 22.5625C281.484 22.5938 279.938 24.3438 279.938 26.875ZM316.5 13.7812V15.8438H308.062V19.3125H316.188V21.25H308.062V25.0938C312.109 25.0781 314.641 24.9219 317.625 24.3438L317.875 26.375C314.609 27.0156 311.984 27.1406 307.469 27.1562H305.719V13.7812H316.5ZM309.344 32.0625V30.0625H328.062V39.5312H325.656V32.0625H309.344ZM319.531 28.4375V12.3125H321.812V19.0312H325.719V11.7812H328.062V28.625H325.719V21.0312H321.812V28.4375H319.531ZM341.219 13.7812C345.578 13.7969 348.672 16.4531 348.688 20.3125C348.672 24.1875 345.578 26.8281 341.219 26.8438C336.828 26.8281 333.703 24.1875 333.719 20.3125C333.703 16.4531 336.828 13.7969 341.219 13.7812ZM332.281 31.375C337.406 31.3906 344.484 31.3438 350.625 30.4375L350.812 32.25C344.453 33.4375 337.625 33.4688 332.625 33.4688L332.281 31.375ZM336.125 20.3125C336.109 22.9062 338.25 24.6875 341.219 24.6875C344.156 24.6875 346.297 22.9062 346.281 20.3125C346.297 17.7344 344.156 15.9375 341.219 15.9375C338.25 15.9375 336.109 17.7344 336.125 20.3125ZM352.469 39.5938V11.75H354.906V39.5938H352.469ZM390.844 11.7812V32.3125H388.375V24.8125H381.188C379.906 26.4531 377.844 27.4375 375.469 27.4375C371.312 27.4375 368.234 24.5625 368.25 20.5C368.234 16.4219 371.312 13.5469 375.469 13.5312C377.828 13.5469 379.859 14.5156 381.156 16.125H388.375V11.7812H390.844ZM370.594 20.5C370.594 23.2812 372.625 25.2656 375.469 25.25C378.203 25.2656 380.281 23.2812 380.281 20.5C380.281 17.7344 378.203 15.7344 375.469 15.7188C372.625 15.7344 370.594 17.7344 370.594 20.5ZM373 38.9375V30.1562H375.469V36.875H391.625V38.9375H373ZM382.266 18.1562C382.516 18.875 382.656 19.6562 382.656 20.5C382.656 21.3125 382.516 22.0781 382.281 22.7812H388.375V18.1562H382.266ZM420.875 25.7188V27.75H395.469V25.7188H406.906V21.4375H409.312V25.7188H420.875ZM397 20.9688C401.906 20.2969 406.875 17.2031 406.875 13.5V12.1875H409.344V13.5C409.344 17.2031 414.344 20.2969 419.25 20.9688L418.25 22.9375C414.047 22.2031 409.859 19.9688 408.125 16.7656C406.375 20 402.203 22.2031 397.938 22.9375L397 20.9688ZM398.281 32.4375V30.4688H417.656V39.5312H415.188V32.4375H398.281Z" fill="white"/>
<path d="M25.3153 73.96C42.9153 73.96 47.6353 87.4 47.6353 103.32C47.6353 119.16 42.9153 131.72 25.3153 131.72C7.63531 131.72 2.91531 119.16 2.91531 103.32C2.91531 87.4 7.63531 73.96 25.3153 73.96ZM25.3153 130.36C32.5953 130.36 34.9953 125.24 34.9953 103.32C34.9953 81.32 32.1953 75.32 25.3153 75.32C18.1153 75.32 15.5553 81.32 15.5553 103.32C15.5553 125.24 18.2753 130.36 25.3153 130.36ZM79.2259 95.96C90.5859 95.96 94.1859 104.76 94.1859 113.56C94.1859 125.96 85.4659 131.72 74.3459 131.72C60.8259 131.72 53.9459 121.48 53.9459 105.56C53.9459 85.88 65.6259 73.96 78.2659 73.96C84.7459 73.96 88.2659 77.64 89.2259 79.24C90.2659 80.92 90.3459 83.56 89.0659 85.48C87.3059 88.36 83.6259 89.16 80.7459 87.4C77.9459 85.64 77.1459 81.88 78.9059 79.08C79.7859 77.72 80.9059 76.84 82.4259 76.6C82.9859 76.52 81.9459 75.32 78.2659 75.32C72.5059 75.32 66.6659 80.6 66.5859 102.52C69.0659 96.68 75.5459 95.96 79.2259 95.96ZM74.3459 130.36C80.3459 130.36 82.4259 127.56 82.4259 115.16C82.4259 104.68 79.3859 99.32 74.9859 99.32C72.5059 99.32 67.8659 100.6 66.5859 105.64C66.8259 123 68.3459 130.36 74.3459 130.36ZM115.865 124.68C115.865 128.44 112.825 131.4 109.145 131.4C105.385 131.4 102.345 128.44 102.345 124.68C102.345 120.92 105.385 117.88 109.145 117.88C112.825 117.88 115.865 120.92 115.865 124.68ZM143.697 123.4C143.697 129.56 147.457 129.64 150.257 129.64V131H126.177V129.64C129.457 129.64 133.777 129.32 133.777 123.4V88.76C133.777 81.56 126.337 86.84 126.337 86.84L125.537 85.56L141.137 73.96H143.697V123.4ZM180.003 73.96C197.603 73.96 202.323 87.4 202.323 103.32C202.323 119.16 197.603 131.72 180.003 131.72C162.323 131.72 157.603 119.16 157.603 103.32C157.603 87.4 162.323 73.96 180.003 73.96ZM180.003 130.36C187.283 130.36 189.683 125.24 189.683 103.32C189.683 81.32 186.883 75.32 180.003 75.32C172.803 75.32 170.243 81.32 170.243 103.32C170.243 125.24 172.963 130.36 180.003 130.36ZM235.593 114.36H210.393V106.92H235.593V114.36ZM265.94 73.96C283.54 73.96 288.26 87.4 288.26 103.32C288.26 119.16 283.54 131.72 265.94 131.72C248.26 131.72 243.54 119.16 243.54 103.32C243.54 87.4 248.26 73.96 265.94 73.96ZM265.94 130.36C273.22 130.36 275.62 125.24 275.62 103.32C275.62 81.32 272.82 75.32 265.94 75.32C258.74 75.32 256.18 81.32 256.18 103.32C256.18 125.24 258.9 130.36 265.94 130.36ZM319.851 95.96C331.211 95.96 334.811 104.76 334.811 113.56C334.811 125.96 326.091 131.72 314.971 131.72C301.451 131.72 294.571 121.48 294.571 105.56C294.571 85.88 306.251 73.96 318.891 73.96C325.371 73.96 328.891 77.64 329.851 79.24C330.891 80.92 330.971 83.56 329.691 85.48C327.931 88.36 324.251 89.16 321.371 87.4C318.571 85.64 317.771 81.88 319.531 79.08C320.411 77.72 321.531 76.84 323.051 76.6C323.611 76.52 322.571 75.32 318.891 75.32C313.131 75.32 307.291 80.6 307.211 102.52C309.691 96.68 316.171 95.96 319.851 95.96ZM314.971 130.36C320.971 130.36 323.051 127.56 323.051 115.16C323.051 104.68 320.011 99.32 315.611 99.32C313.131 99.32 308.491 100.6 307.211 105.64C307.451 123 308.971 130.36 314.971 130.36ZM356.49 124.68C356.49 128.44 353.45 131.4 349.77 131.4C346.01 131.4 342.97 128.44 342.97 124.68C342.97 120.92 346.01 117.88 349.77 117.88C353.45 117.88 356.49 120.92 356.49 124.68ZM397.202 116.2H398.562L394.482 131H364.722L382.962 104.44C394.402 84.84 372.242 76.68 366.162 89.32L364.882 89C366.722 74.04 380.402 73.96 380.402 73.96C388.402 73.96 394.082 80.04 394.082 87.32C394.082 92.6 390.722 97.56 384.402 105.56C380.402 110.6 373.362 120.76 373.362 120.76H389.922C392.642 120.76 395.442 119.4 397.202 116.2ZM441.855 115.32H433.535V119.4C433.535 129.48 436.975 129.64 440.335 129.64V131H415.135V129.64C418.495 129.64 421.935 129.32 421.935 119.8V115.32H403.375V113.96L429.775 73.96L433.535 74.68V109.72H441.855V115.32ZM421.935 109.72V88.52L410.735 105.48C407.775 109.64 410.175 109.72 411.775 109.72H421.935Z" fill="white"/>
</svg>
