<svg width="107" height="100" viewBox="0 0 107 100" fill="none" xmlns="http://www.w3.org/2000/svg">
<path d="M34.3984 41L43.334 23.5391V23.3926H32.9336V19.7891H47.9043V23.4512L38.9688 41H34.3984ZM63.9297 26.5859V29.7793H74.2715V32.7969H49.9551V29.7793H60.2383V26.5859H63.9297ZM51.0098 25.1797C55.9756 24.7109 58.7002 22.9531 59.374 21.1074H52.1816V18.1777H72.0742V21.1074H64.8232C65.4824 22.9385 68.207 24.7109 73.2168 25.1797L71.8984 28.1094C66.874 27.6113 63.5049 25.751 62.084 23.1729C60.6777 25.7363 57.3379 27.6113 52.3281 28.1094L51.0098 25.1797ZM52.7383 38.9785C52.7383 35.9463 56.2393 34.2617 62.084 34.2617C67.8848 34.2617 71.3418 35.9463 71.3711 38.9785C71.3418 42.0107 67.8848 43.71 62.084 43.6953C56.2393 43.71 52.7383 42.0107 52.7383 38.9785ZM56.5469 38.9785C56.5322 40.2822 58.3486 40.9121 62.084 40.9121C65.7314 40.9121 67.6064 40.2822 67.6211 38.9785C67.6064 37.7041 65.7314 37.1035 62.084 37.1035C58.3486 37.1035 56.5322 37.7041 56.5469 38.9785ZM37.0205 58.5293V60.9316C37.0059 63.7002 37.0059 66.791 36.1123 71.0977H39.7158V74.1152H29.4326V83.6367H25.6826V74.1152H15.3994V71.0977H32.4502C32.7725 69.6768 32.9922 68.373 33.1387 67.1719L17.8311 67.9336L17.3916 64.7402L33.3877 64.3008C33.4316 63.3047 33.4316 62.3818 33.4463 61.4883H18.2412V58.5293H37.0205ZM63.4756 58.002V61.0195H59.9893V65.6191H63.2998V68.5195H55.3311V71.0098H65.6436V73.9395H41.3271V71.0098H51.5811V68.5195H43.6416V65.6191H46.9229V61.0195H43.4658V58.002H63.4756ZM44.2568 83.2266V75.668H48.0068V80.2383H62.8896V83.2266H44.2568ZM50.6729 65.6191H56.2393V61.0195H50.6729V65.6191ZM90.165 57.0645V73.3828H86.5908V66.791H84.6572V73.2949H81.1416V57.3574H84.6572V63.7441H86.5908V57.0645H90.165ZM67.0205 69.3984C67.6797 69.3984 68.4121 69.3984 69.1885 69.3838V62.2207H67.5186V59.1738H79.8232V62.2207H78.0947V69.0322C78.7979 68.9736 79.4717 68.9004 80.1162 68.8125L80.3213 71.5371C76.1904 72.3428 70.7559 72.4307 67.4014 72.416L67.0205 69.3984ZM71.3271 77.5137V74.5254H90.165V83.6953H86.415V77.5137H71.3271ZM72.6162 69.3252C73.3193 69.3105 74.0371 69.2812 74.7549 69.252V62.2207H72.6162V69.3252Z" fill="#FFA2D1"/>
</svg>
