<svg width="108" height="100" viewBox="0 0 108 100" fill="none" xmlns="http://www.w3.org/2000/svg">
<path d="M23.0771 18.9102C27.1494 18.9102 30.0938 22.5869 30.1084 28.4023C30.0938 34.2617 27.1494 37.9238 23.0771 37.9238C18.9902 37.9238 16.0312 34.2617 16.0459 28.4023C16.0312 22.5869 18.9902 18.9102 23.0771 18.9102ZM19.6494 28.4023C19.6494 32.3721 21.041 34.54 23.0771 34.5254C25.1572 34.54 26.5195 32.3721 26.5342 28.4023C26.5195 24.4473 25.1572 22.2793 23.0771 22.2793C21.041 22.2793 19.6494 24.4473 19.6494 28.4023ZM33.1846 43.6953V17.0352H36.9346V27.084H40.8604V30.1895H36.9346V43.6953H33.1846ZM50.3818 23.7441C50.3672 28.0654 51.5684 32.5186 55.2158 34.8477L53.1943 37.748C50.8799 36.3564 49.4297 34.042 48.5801 31.3174C47.6279 34.335 46.0312 36.8691 43.6143 38.334L41.3291 35.5801C45.2842 33.1338 46.749 28.4316 46.749 23.9199V19.3203H50.3818V23.7441ZM52.4033 29.0762V26.0293H55.8604V17.416H59.3467V42.4648H55.8604V29.0762H52.4033ZM61.3682 43.6953V17.0352H64.9424V43.6953H61.3682ZM91.0752 17.0352V43.6953H87.4717V17.0352H91.0752ZM67.4619 34.5254H69.6885V23.0703H67.96V20.0527H80.1768V23.0703H78.4775V34.1592C79.2246 34.0859 79.9424 34.0127 80.6162 33.9102L80.8799 36.6055C76.6611 37.499 71.2119 37.6016 67.8721 37.6016L67.4619 34.5254ZM72.999 34.4668C73.6875 34.4521 74.376 34.4229 75.0791 34.3936V23.0703H72.999V34.4668ZM79.5615 30.0723V26.7324H82.1396V17.5625H85.6846V42.4355H82.1396V30.0723H79.5615ZM37.0518 57.0352V62.1914H40.6553V65.2676H37.0518V70.3652H33.3018V57.0352H37.0518ZM16.0752 63.8613C16.0605 60.3018 19.1514 57.8408 23.2529 57.8262C27.3398 57.8408 30.4014 60.3018 30.4014 63.8613C30.4014 67.377 27.3398 69.8965 23.2529 69.8965C19.1514 69.8965 16.0605 67.377 16.0752 63.8613ZM19.3564 74.291V71.4199H37.0518V78.6855H23.0771V80.4727H37.8135V83.4023H19.415V75.9902H33.3311V74.291H19.3564ZM19.7373 63.8613C19.708 65.751 21.2021 66.9375 23.2529 66.9375C25.2891 66.9375 26.7686 65.751 26.7686 63.8613C26.7686 62.001 25.2891 60.873 23.2529 60.873C21.2021 60.873 19.708 62.001 19.7373 63.8613ZM64.1807 57.0352V83.7539H60.46V57.0352H64.1807ZM43.2334 62.2793V59.2617H55.9189V69.5449H47.1299V74.4375C51.2021 74.4082 54.6445 74.2031 58.5557 73.5586L58.8779 76.5762C54.498 77.3525 50.5283 77.5137 45.665 77.5137H43.2627V66.5859H52.1104V62.2793H43.2334ZM90.167 57.0352V83.6953H86.3877V57.0352H90.167ZM67.8428 76.1367C74.7275 72.8848 77.7598 68.666 78.3604 62.748H69.2783V59.8184H82.1689C82.1543 67.9043 79.3271 74.6279 69.8057 79.125L67.8428 76.1367Z" fill="white"/>
</svg>
