<svg width="107" height="100" viewBox="0 0 107 100" fill="none" xmlns="http://www.w3.org/2000/svg">
<path d="M49.5156 17.0645V25.2383H53.1191V28.2852H49.5156V36.957H45.7656V17.0645H49.5156ZM28.3633 22.8066V19.8477H34.4277V17.0059H38.1484V19.8477H44.1836V22.8066H28.3633ZM29.6523 28.9004C29.6523 25.8096 32.3916 23.7441 36.2734 23.7441C40.1406 23.7441 42.8359 25.8096 42.8359 28.9004C42.8359 31.9766 40.1406 33.998 36.2734 33.998C32.3916 33.998 29.6523 31.9766 29.6523 28.9004ZM32.2305 43.2266V35.4336H35.9512V40.2383H50.4824V43.2266H32.2305ZM33.3145 28.9004C33.2998 30.3652 34.4863 31.1562 36.2734 31.1562C38.0752 31.1562 39.291 30.3652 39.291 28.9004C39.291 27.4209 38.0752 26.6006 36.2734 26.5859C34.4863 26.6006 33.2998 27.4209 33.3145 28.9004ZM76.7617 17.0352V32.8555H73.041V26.5566H68.8809V23.5391H73.041V17.0352H76.7617ZM54.1152 29.9258C58.4805 28.4609 60.4727 24.9746 60.5605 21.6348H55.1992V18.6465H69.6719V21.6348H64.3691C64.4424 24.7402 66.3467 27.875 70.4922 29.252L68.6465 32.1816C65.7168 31.2295 63.6807 29.2959 62.5234 26.9082C61.3516 29.6182 59.2129 31.8008 56.0488 32.8848L54.1152 29.9258ZM58.4805 38.5977C58.4805 35.3604 61.9668 33.4561 67.6504 33.4414C73.3486 33.4561 76.835 35.3604 76.8496 38.5977C76.835 41.835 73.3486 43.7246 67.6504 43.7246C61.9668 43.7246 58.4805 41.835 58.4805 38.5977ZM62.2012 38.5977C62.2012 40.1211 64.1201 40.8828 67.6504 40.8828C71.1953 40.8828 73.1143 40.1211 73.1289 38.5977C73.1143 37.0596 71.1953 36.2979 67.6504 36.3125C64.1201 36.2979 62.2012 37.0596 62.2012 38.5977ZM25.2139 63.0703C25.1992 67.8457 27.2354 72.665 31.5127 74.7305L29.2568 77.7188C26.4004 76.2979 24.4668 73.6611 23.3682 70.4531C22.1963 73.8955 20.1455 76.7227 17.1279 78.2168L14.8135 75.1992C19.3398 73.1191 21.4639 68.0215 21.4639 63.0703V59.0859H25.2139V63.0703ZM32.6846 83.6953V57.0352H36.4346V67.3184H40.3604V70.4824H36.4346V83.6953H32.6846ZM65.6436 70.6582V73.6465H41.3271V70.6582H65.6436ZM43.7588 63.3047C43.7588 59.9062 47.6113 57.8262 53.4854 57.8555C59.3154 57.8262 63.168 59.9062 63.1826 63.3047C63.168 66.7178 59.3154 68.8125 53.4854 68.8125C47.6113 68.8125 43.7588 66.7178 43.7588 63.3047ZM44.2568 83.2266V75.4336H48.0068V80.2383H62.8896V83.2266H44.2568ZM47.6553 63.3047C47.626 64.96 49.7793 65.7949 53.4854 65.7949C57.1621 65.7949 59.3154 64.96 59.3154 63.3047C59.3154 61.6934 57.1621 60.8145 53.4854 60.7852C49.7793 60.8145 47.626 61.6934 47.6553 63.3047ZM91.5713 69.5156V72.4746H81.2588V74.7598H88.6709V83.4023H70.0674V74.7598H77.5381V72.4746H67.2549V69.5156H91.5713ZM69.3936 60.7559V57.7676H89.4033V60.7559H85.917V64.8281H89.2275V67.8164H69.5693V64.8281H72.8506V60.7559H69.3936ZM73.7588 80.4141H85.0088V77.6602H73.7588V80.4141ZM76.6006 64.8281H82.167V60.7559H76.6006V64.8281Z" fill="white"/>
</svg>
