<svg width="107" height="100" viewBox="0 0 107 100" fill="none" xmlns="http://www.w3.org/2000/svg">
<path d="M50.834 17.0352V30.4531H47.1133V28.4023H41.0195V25.5605H47.1133V23.2168H41.3125C39.6572 27.2158 35.8486 29.7793 29.9453 31.0684L28.6855 28.0215C34.7939 26.8203 37.6064 24.2861 38.1045 21.0781H30.1797V18.0605H42.25C42.25 18.8662 42.1914 19.6426 42.0742 20.375H47.1133V17.0352H50.834ZM33.1094 34.3496V31.4199H50.834V38.7148H36.8887V40.4727H51.4199V43.4316H33.1387V35.9609H47.084V34.3496H33.1094ZM77.3477 17.0352V43.6953H73.8027V17.0352H77.3477ZM53.7344 35.9023C57.6602 33.4854 59.125 28.71 59.125 24.1836V22.748H54.7598V19.7598H66.7715V22.748H62.7285V24.1836C62.7139 28.6074 64.1055 33.0898 68.002 35.3164L65.8047 38.0703C63.417 36.6641 61.8643 34.291 60.9561 31.4199C60.0479 34.5254 58.4365 37.1621 55.9902 38.6562L53.7344 35.9023ZM64.8672 29.1934V26.1758H68.3828V17.4746H71.8984V42.4648H68.3828V29.1934H64.8672ZM51.4785 57.0352V83.6953H47.9043V57.0352H51.4785ZM28.334 64.0371V61.0781H32.8457V57.6797H36.5664V61.0781H41.0195V64.0371H28.334ZM28.9199 71.6836C28.9053 67.9043 31.3369 65.2676 34.6035 65.2676C37.9434 65.2676 40.3457 67.9043 40.3457 71.6836V71.8887H42.7188V68.6953H39.7891V65.6484H42.7188V57.4746H46.2051V82.5234H42.7188V74.8184H39.7012C38.7637 76.8398 36.9033 78.0996 34.6035 78.0996C31.3369 78.0996 28.9053 75.4629 28.9199 71.6836ZM32.1719 71.6836C32.1572 73.7344 33.1387 74.9209 34.6035 74.9355C36.0977 74.9209 37.1084 73.7344 37.123 71.6836C37.1084 69.5889 36.0977 68.4316 34.6035 68.4316C33.1387 68.4316 32.1572 69.5889 32.1719 71.6836ZM65.7754 58.8223V61.8105H58.8027V64.0078H65.5117V66.8496H58.8027V69.208C61.7617 69.1787 63.9443 69.0615 66.4199 68.6367L66.8008 71.625C63.6807 72.1816 61.0732 72.2842 57.0449 72.2695H55.2285V58.8223H65.7754ZM58.7734 77.4258V74.4375H77.2012V83.6953H73.4805V77.4258H58.7734ZM67.8555 73.1191V57.5332H71.3418V63.5684H73.6562V57.0645H77.2012V73.3242H73.6562V66.5566H71.3418V73.1191H67.8555Z" fill="white"/>
</svg>
