<svg width="412" height="471" viewBox="0 0 412 471" fill="none" xmlns="http://www.w3.org/2000/svg">
<path d="M11.5646 14.888C12.3966 13.832 12.9406 12.936 12.9406 11.784C12.9406 9.544 11.2126 7.848 8.94063 7.848C6.66863 7.848 4.97263 9.48 4.97263 11.656C4.97263 13.128 5.67663 14.152 6.63663 15.016L5.29263 16.36C3.91663 15.336 2.98863 13.64 2.98863 11.656C2.98863 8.392 5.54863 5.928 8.94063 5.928C12.3646 5.928 14.9246 8.424 14.9246 11.784C14.9246 13 14.4126 14.536 13.1966 16.04L6.76463 24.168L5.19663 22.952L11.5646 14.888ZM15.7886 27.08V29H2.60463V27.08H15.7886ZM26.3714 29.352C22.2754 29.352 19.7794 24.648 19.7794 17.64C19.7794 13.864 20.4514 10.792 21.8914 8.616L23.2034 10.12C22.2114 12.04 21.7634 14.952 21.7634 17.64C21.7634 23.24 23.4274 27.432 26.3714 27.432C29.3154 27.432 30.9794 23.24 30.9794 17.64C30.9794 12.04 29.3154 7.848 26.3714 7.848C26.0834 7.848 25.7634 7.912 25.6674 7.944L24.8674 6.184C25.3154 6.024 25.7634 5.928 26.3714 5.928C30.4674 5.928 32.9634 10.632 32.9634 17.64C32.9634 24.648 30.4674 29.352 26.3714 29.352ZM46.3146 14.888C47.1466 13.832 47.6906 12.936 47.6906 11.784C47.6906 9.544 45.9626 7.848 43.6906 7.848C41.4186 7.848 39.7226 9.48 39.7226 11.656C39.7226 13.128 40.4266 14.152 41.3866 15.016L40.0426 16.36C38.6666 15.336 37.7386 13.64 37.7386 11.656C37.7386 8.392 40.2986 5.928 43.6906 5.928C47.1146 5.928 49.6746 8.424 49.6746 11.784C49.6746 13 49.1626 14.536 47.9466 16.04L41.5146 24.168L39.9466 22.952L46.3146 14.888ZM50.5386 27.08V29H37.3546V27.08H50.5386ZM55.8734 8.2V6.312H66.9454V8.2H55.8734ZM62.0814 14.536C66.1134 14.856 69.0574 17.768 69.0574 21.608C69.0574 26.024 65.7934 29.32 61.4414 29.32C56.9294 29.32 54.0174 26.152 54.0174 21.224H56.0014C56.0014 25 58.1454 27.432 61.4414 27.432C64.6734 27.432 67.0734 24.936 67.0734 21.608C67.0734 18.632 64.6094 16.392 61.3454 16.392C60.5454 16.392 59.9054 16.552 59.1054 16.808V14.984L62.8174 10.664L64.2894 11.944L62.0814 14.536ZM102.844 4.488V31.304H100.7V4.488H102.844ZM87.8999 6.344C92.9239 6.344 95.5159 10.536 95.5159 16.2C95.5159 21.96 92.9559 26.056 87.8999 26.056C83.0679 26.056 80.3479 22.12 80.3479 16.232C80.3479 13.224 81.0839 10.728 82.3639 9L83.7079 10.472C82.8759 11.88 82.3959 13.768 82.4279 16.232C82.4919 20.968 84.1879 24.232 87.8999 24.232C91.6439 24.232 93.4679 21.032 93.4679 16.232C93.4679 11.304 91.5799 8.232 87.8999 8.232C86.7159 8.232 85.7559 8.552 84.9239 9.128L83.7079 7.656C84.8599 6.824 86.2359 6.344 87.8999 6.344ZM108.028 15.272V17.128H103.964V15.272H108.028ZM114.8 19.912H112.688V6.376H114.8V19.912ZM129.968 8.232H116.24V6.376H132.08V16.616H129.968V8.232ZM132.08 19.912H116.24V18.056H132.08V19.912ZM135.504 26.568V28.424H109.264V26.568H121.296V21.512H123.472V26.568H135.504ZM163.646 4.488V31.304H161.502V4.488H163.646ZM151.966 15.208H155.582V4.808H157.694V17.032H151.966V15.208ZM140.19 8.52V6.696H150.366V17.352H148.19V8.52H140.19ZM140.19 15.56H146.91V17.352H140.19V15.56ZM157.694 30.856H155.582V18.312H157.694V30.856ZM142.366 24.52C146.334 24.488 149.438 24.2 152.062 23.688L152.382 25.512C149.566 26.056 146.014 26.376 141.086 26.376H140.19V18.632H142.366V24.52ZM191.91 4.488V31.304H189.766V4.488H191.91ZM169.574 6.376H185.126V8.232H169.574V6.376ZM175.686 23.912C176.87 23.912 178.086 23.912 179.27 23.88C179.59 20.104 179.686 13.736 179.718 9.512H181.798C181.734 13.96 181.542 20.104 181.254 23.784C183.302 23.656 185.254 23.4 187.11 22.984L187.43 24.808C184.102 25.608 180.07 25.736 175.654 25.736H168.966V23.912H175.686ZM173.03 22.632C172.806 19.144 172.646 13.224 172.614 9.512H174.694C174.726 13 174.79 19.048 175.046 22.632H173.03ZM184.358 16.488V14.664H188.646V16.488H184.358ZM217.279 4.488H219.423V31.304H217.279V4.488ZM195.359 24.936C200.831 20.904 203.935 15.72 203.935 9.864V6.376H205.919V9.864C205.887 16.968 202.463 21.768 196.831 26.312L195.359 24.936ZM207.231 16.008C208.479 19.048 211.135 22.28 214.047 24.36L212.511 25.8C208.639 22.504 206.431 19.304 205.727 17.16L207.231 16.008ZM247.691 4.488V20.68H245.547V4.488H247.691ZM224.747 5.736H241.067V7.592H224.747V5.736ZM243.947 18.568C241.323 19.112 237.451 19.336 232.843 19.336H224.587V17.544H235.403C235.627 15.304 235.723 11.336 235.755 8.872H237.867C237.771 11.368 237.611 15.272 237.387 17.48C239.691 17.384 242.251 17.096 243.947 16.744V18.568ZM228.619 16.296C228.459 14.344 228.299 10.76 228.235 8.872H230.315C230.379 10.728 230.475 14.28 230.603 16.264L228.619 16.296ZM245.547 24.52H228.427V22.696H247.691V31.976H245.547V24.52ZM261.365 18.024C270.261 15.336 271.797 11.144 271.797 7.56V6.216H273.845V7.56C273.845 13.768 269.461 17.384 262.485 19.688L261.365 18.024ZM275.317 12.392C276.501 14.248 279.381 16.296 284.309 17.576L283.189 19.24C278.869 18.088 275.317 16.04 273.813 13.576L275.317 12.392ZM276.341 20.328H278.453V25.448H276.341V20.328ZM267.221 20.488H269.333V25.448H267.221V20.488ZM259.701 26.568H285.941V28.424H259.701V26.568ZM312.035 4.488V21H309.891V4.488H312.035ZM289.091 5.736H305.411V7.592H289.091V5.736ZM308.611 18.824C305.731 19.432 302.211 19.656 296.899 19.656H288.931V17.832H299.683C299.971 15.24 300.067 11.4 300.131 8.712H302.243C302.179 11.464 301.955 15.24 301.699 17.736C304.515 17.64 306.627 17.416 308.611 16.968V18.824ZM292.995 16.744C292.803 14.28 292.611 11.176 292.579 8.712H294.659C294.691 11.112 294.787 14.184 294.979 16.712L292.995 16.744ZM296.899 24.744C295.619 25.288 294.947 26.088 294.947 27.144C294.947 29.32 297.699 30.408 302.627 30.408C307.555 30.408 310.339 29.32 310.339 27.144C310.339 25 307.555 23.912 302.627 23.912C301.155 23.912 299.875 24.008 298.787 24.2L297.795 22.632C299.107 22.344 300.739 22.184 302.627 22.184C309.379 22.184 312.515 24.136 312.515 27.144C312.515 30.184 309.379 32.136 302.627 32.136C295.843 32.136 292.771 30.184 292.771 27.144C292.771 25.416 293.763 24.072 295.875 23.208L296.899 24.744ZM340.781 4.808H342.957V14.664H347.501V4.488H349.677V31.304H347.501V16.488H340.781V4.808ZM326.221 6.856H337.069V8.68H326.221V6.856ZM339.181 25.256C337.101 25.576 334.733 25.736 331.309 25.736H326.221V9.96H328.397V23.912H331.021C334.349 23.912 336.717 23.848 339.181 23.368V25.256ZM342.957 30.856H340.781V17.768H342.957V30.856ZM362.357 4.168C365.557 5.224 369.333 5.128 373.749 5.032V6.856C369.589 7.016 364.469 6.856 361.941 5.928L362.357 4.168ZM356.693 15.688C362.389 15.048 366.421 13.064 366.613 10.92H357.429V9.064H377.845V10.92H368.629C368.629 14.472 363.541 16.648 357.653 17.48L356.693 15.688ZM370.261 13.032C371.957 14.152 374.933 15.08 378.549 15.4L377.621 17.224C372.885 16.584 369.813 15.336 368.629 14.216L370.261 13.032ZM357.493 26.12V24.296H366.549V21.224H354.357V19.368H380.917V21.224H368.693V24.296H377.493V32.296H375.317V26.12H357.493ZM408.412 4.488V31.304H406.268V4.488H408.412ZM400.636 4.808H402.812V15.912H395.772V14.056H400.636V4.808ZM392.252 10.44C392.252 15.976 389.596 21.928 385.34 25.992L383.74 24.744C388.7 19.976 390.204 14.696 390.204 10.408V8.52H384.54V6.696H397.596V8.52H392.252V10.44ZM393.34 16.68C394.236 19.208 395.74 21.672 398.268 24.008L396.732 25.352C394.716 23.304 393.052 21.256 391.804 17.768L393.34 16.68ZM400.636 17.032H402.812V30.856H400.636V17.032Z" fill="white"/>
<path d="M223.859 153.3V181.38H271.829V186.19H151.969V181.38H199.939V153.3H161.069V90.2505H156.129V86.4805H262.079V153.3H223.859ZM187.979 148.49H235.169V91.2905H187.979V148.49Z" fill="white"/>
<path d="M369.069 179.04C369.069 180.08 369.329 180.774 369.849 181.12C370.369 181.554 371.019 181.814 371.799 181.9H374.009C375.049 181.9 375.742 181.64 376.089 181.12C376.435 180.6 376.652 180.037 376.739 179.43V87.0005H371.799V83.2305H402.869V87.0005H397.279V179.04C397.279 180.254 397.625 181.034 398.319 181.38C399.012 181.727 399.835 181.9 400.789 181.9H403.649V185.93H342.679V181.9H345.799C347.012 181.9 347.749 181.554 348.009 180.86C348.355 180.167 348.529 179.517 348.529 178.91V170.98C345.322 172.194 341.725 173.494 337.739 174.88C333.839 176.18 329.679 177.394 325.259 178.52C320.839 179.734 316.159 180.73 311.219 181.51C306.365 182.29 301.339 182.68 296.139 182.68C292.412 182.68 289.812 181.684 288.339 179.69C286.952 177.697 286.259 175.01 286.259 171.63V119.37H309.529V91.2905H284.439V86.4805H332.019V124.18H310.309V172.15C310.309 173.017 310.569 173.797 311.089 174.49C311.609 175.184 312.432 175.487 313.559 175.4C316.245 175.314 319.105 174.924 322.139 174.23C325.172 173.537 328.249 172.714 331.369 171.76C334.489 170.72 337.522 169.68 340.469 168.64C343.415 167.514 346.102 166.474 348.529 165.52V124.18H334.879V118.2H348.529V87.0005H343.459V83.2305H369.069V179.04Z" fill="white"/>
<path d="M299.389 225.23H337.219V229.26H330.459V280.22H306.539V229.26H299.389V225.23ZM218.269 252.66C218.269 247.114 219.005 242.694 220.479 239.4C222.039 236.02 224.292 233.42 227.239 231.6C230.272 229.78 233.999 228.61 238.419 228.09C242.925 227.484 248.125 227.18 254.019 227.18C259.912 227.18 265.025 227.484 269.359 228.09C273.779 228.61 277.419 229.78 280.279 231.6C283.139 233.42 285.262 236.02 286.649 239.4C288.035 242.694 288.729 247.114 288.729 252.66C288.729 258.207 288.035 262.67 286.649 266.05C285.262 269.344 283.139 271.9 280.279 273.72C277.419 275.54 273.822 276.754 269.489 277.36C265.155 277.88 259.999 278.14 254.019 278.14C248.125 278.14 242.925 277.88 238.419 277.36C233.999 276.754 230.272 275.54 227.239 273.72C224.292 271.9 222.039 269.344 220.479 266.05C219.005 262.67 218.269 258.207 218.269 252.66ZM257.009 273.07C258.915 273.07 260.432 272.767 261.559 272.16C262.772 271.554 263.682 270.774 264.289 269.82C264.982 268.78 265.459 267.61 265.719 266.31C265.979 265.01 266.109 263.71 266.109 262.41V242.26C266.109 240.96 265.979 239.704 265.719 238.49C265.459 237.19 264.982 236.02 264.289 234.98C263.682 233.94 262.772 233.117 261.559 232.51C260.432 231.904 258.915 231.6 257.009 231.6H250.899C248.992 231.6 247.432 231.904 246.219 232.51C245.092 233.117 244.182 233.94 243.489 234.98C242.795 236.02 242.319 237.19 242.059 238.49C241.799 239.704 241.669 240.96 241.669 242.26V262.41C241.669 263.71 241.799 265.01 242.059 266.31C242.319 267.61 242.795 268.78 243.489 269.82C244.182 270.774 245.092 271.554 246.219 272.16C247.432 272.767 248.992 273.07 250.899 273.07H257.009ZM326.169 308.95C329.635 308.95 332.019 309.817 333.319 311.55C334.619 313.284 335.312 315.58 335.399 318.44C335.399 319.827 335.095 321.257 334.489 322.73C333.969 324.29 332.929 325.677 331.369 326.89C329.895 328.19 327.859 329.23 325.259 330.01C322.659 330.877 319.365 331.31 315.379 331.31H237.249C232.222 331.31 229.709 328.884 229.709 324.03V305.18H305.369V291.53H229.319V286.72H330.589V305.05C329.029 304.53 327.425 304.27 325.779 304.27C323.785 304.27 321.922 304.747 320.189 305.7C318.542 306.567 317.285 307.997 316.419 309.99H254.929V323.9C254.929 324.42 255.059 324.984 255.319 325.59C255.579 326.197 256.272 326.5 257.399 326.5H313.039C315.552 326.5 317.155 325.634 317.849 323.9C318.542 322.167 318.715 320.304 318.369 318.31C318.282 317.53 318.282 316.62 318.369 315.58C318.542 314.454 318.889 313.414 319.409 312.46C320.015 311.42 320.839 310.597 321.879 309.99C323.005 309.297 324.435 308.95 326.169 308.95Z" fill="white"/>
<path d="M155.089 430.54C155.089 427.16 156.215 424.3 158.469 421.96C160.809 419.62 163.712 418.451 167.179 418.451C170.559 418.451 173.419 419.62 175.759 421.96C178.099 424.3 179.269 427.16 179.269 430.54C179.269 432.447 178.879 434.18 178.099 435.74C182.259 434.094 185.725 431.667 188.499 428.46C191.272 425.254 193.482 421.397 195.129 416.891C196.775 412.384 197.945 407.357 198.639 401.81C199.332 396.177 199.679 390.154 199.679 383.74V373.47H192.659V368.92H224.769V381.92C224.769 391.54 225.679 399.73 227.499 406.49C229.405 413.25 232.092 418.754 235.559 423C239.025 427.247 243.185 430.367 248.039 432.36C252.892 434.354 258.309 435.394 264.289 435.48V441.33C258.569 441.33 252.849 440.464 247.129 438.73C241.495 436.91 236.295 434.484 231.529 431.451C226.849 428.417 222.819 424.864 219.439 420.79C216.145 416.717 213.935 412.34 212.809 407.66C211.162 413.467 208.605 418.58 205.139 423C201.672 427.334 197.815 430.974 193.569 433.92C189.322 436.78 184.902 438.947 180.309 440.42C175.715 441.894 171.512 442.63 167.699 442.63H167.179C163.712 442.63 160.809 441.504 158.469 439.25C156.215 436.91 155.089 434.007 155.089 430.54ZM271.829 470.19H151.969V465.38H271.829V470.19Z" fill="white"/>
<path d="M283.269 370.48H353.729V375.29H316.029V401.55H351.129V406.36H316.029V456.41C316.029 457.277 316.289 458.057 316.809 458.75C317.329 459.357 318.152 459.66 319.279 459.66C322.139 459.66 325.735 459.314 330.069 458.62C334.489 457.84 339.039 456.931 343.719 455.891C348.485 454.851 353.165 453.724 357.759 452.51C362.352 451.297 366.295 450.214 369.589 449.26V371.26H362.439V367.23H400.269V371.26H393.509V401.29H410.669V407.27H393.509V463.04C393.509 464.254 393.855 465.034 394.549 465.38C395.242 465.727 396.065 465.9 397.019 465.9H401.179V469.93H362.439V465.9H366.859C368.072 465.9 368.809 465.554 369.069 464.86C369.415 464.167 369.589 463.517 369.589 462.91V454.85C365.949 455.89 361.399 457.104 355.939 458.49C350.565 459.877 344.759 461.134 338.519 462.26C332.279 463.474 325.865 464.514 319.279 465.38C312.692 466.247 306.452 466.68 300.559 466.68C296.832 466.68 294.232 465.684 292.759 463.69C291.372 461.697 290.679 459.01 290.679 455.63V374.25H283.269V370.48Z" fill="white"/>
<path d="M74.2259 406.36H88.5259V371H83.4559V367.23H109.066V463.56C109.153 464.514 109.543 465.12 110.236 465.38C110.929 465.727 111.709 465.9 112.576 465.9H114.006C115.219 465.9 115.956 465.554 116.216 464.86C116.563 464.167 116.736 463.517 116.736 462.91V371H111.796V367.23H142.866V371H137.276V463.04C137.276 464.254 137.623 465.034 138.316 465.38C139.009 465.727 139.833 465.9 140.786 465.9H143.646V469.93H82.6759V465.9H85.7959C87.0093 465.9 87.7459 465.554 88.0059 464.86C88.3526 464.167 88.5259 463.517 88.5259 462.91V412.34H74.2259V465.38H80.2059V469.93H18.5859V465.38H26.1259V375.42H18.5859V370.74H80.3359V375.42H74.2259V406.36ZM46.7959 465.38H54.0759V375.42H46.7959V465.38Z" fill="#FFA2D1"/>
<path d="M136.759 263.06H152.229V229H147.159V225.23H172.769V321.56C172.856 322.427 173.159 322.99 173.679 323.25C174.199 323.597 174.806 323.814 175.499 323.9H178.099C179.139 323.727 179.789 323.294 180.049 322.6C180.309 321.994 180.439 321.43 180.439 320.91V229H176.149V225.23H206.569V229H200.979V321.04C200.979 322.254 201.326 323.034 202.019 323.38C202.712 323.727 203.536 323.9 204.489 323.9H207.349V327.93H146.379V323.9H149.499C150.712 323.9 151.449 323.554 151.709 322.86C152.056 322.167 152.229 321.517 152.229 320.91V269.04H136.759V263.06ZM82.2891 318.18C82.2891 315.58 83.1557 313.37 84.8891 311.55C86.7091 309.73 88.9624 308.82 91.6491 308.82C94.2491 308.82 96.4591 309.73 98.2791 311.55C100.099 313.37 101.009 315.58 101.009 318.18V318.96C102.742 316.62 104.042 313.76 104.909 310.38C105.776 306.914 106.382 303.1 106.729 298.94C107.076 294.694 107.206 290.144 107.119 285.29C107.119 280.437 107.119 275.41 107.119 270.21V231.47H100.099V227.7H131.039V276.58C131.039 278.227 130.996 280.35 130.909 282.95C130.909 285.464 130.996 288.194 131.169 291.14C131.342 294.087 131.646 297.164 132.079 300.37C132.512 303.49 133.206 306.48 134.159 309.34C135.112 312.2 136.369 314.8 137.929 317.14C139.576 319.394 141.612 321.17 144.039 322.47V327.54C140.486 326.674 137.366 324.984 134.679 322.47C131.992 320.044 129.652 317.14 127.659 313.76C125.666 310.38 124.019 306.654 122.719 302.58C121.419 298.507 120.379 294.39 119.599 290.23C118.472 295.43 116.912 300.284 114.919 304.79C113.012 309.21 110.846 313.11 108.419 316.49C105.992 319.784 103.392 322.384 100.619 324.29C97.8457 326.284 95.0724 327.367 92.2991 327.54H91.5191C88.9191 327.54 86.7091 326.63 84.8891 324.81C83.1557 323.077 82.2891 320.867 82.2891 318.18Z" fill="#FFA2D1"/>
<path d="M102.43 83.2305H140.26V87.2605H133.5V117.29H150.66V123.27H133.5V179.04C133.5 180.254 133.846 181.034 134.54 181.38C135.233 181.727 136.056 181.9 137.01 181.9H141.17V185.93H102.43V181.9H106.85C108.063 181.9 108.8 181.554 109.06 180.86C109.406 180.167 109.58 179.517 109.58 178.91V87.2605H102.43V83.2305Z" fill="#FFA2D1"/>
<path d="M95.2675 135.232C95.2675 138.152 95.2175 140.922 95.1175 143.532C94.8475 150.782 94.2075 156.852 93.1875 161.752C91.8875 168.422 89.7675 173.582 86.8175 177.222C83.8675 180.772 80.0975 183.112 75.5075 184.242C70.9175 185.452 65.4075 186.062 58.9975 186.062C52.5875 186.062 47.1275 185.452 42.3575 184.242C37.6775 183.112 33.8175 180.772 30.7875 177.222C27.7575 173.582 25.4575 168.422 23.8975 161.752C22.4275 155.082 21.6875 146.242 21.6875 135.232C21.6875 133.942 21.6975 132.682 21.7175 131.452C21.7375 130.232 21.7675 129.042 21.8075 127.882C21.8675 126.182 21.9475 124.542 22.0475 122.972C22.1875 120.772 22.3675 118.692 22.5975 116.732C22.9375 113.782 23.3775 111.112 23.8975 108.712C25.3675 102.042 27.6275 96.9223 30.6575 93.3723C33.7775 89.7323 37.6775 87.3523 42.3575 86.2223C47.0375 85.0123 52.5875 84.4023 58.9975 84.4023C65.4075 84.4023 70.9175 85.0123 75.5075 86.2223C80.0975 87.3523 83.8275 89.7323 86.6875 93.3723C89.6375 96.9223 91.7975 102.042 93.1875 108.712C94.3575 114.342 95.0375 121.532 95.2175 130.262C95.2475 131.872 95.2675 133.522 95.2675 135.232Z" fill="#FFA2D1"/>
<path fill-rule="evenodd" clip-rule="evenodd" d="M97.26 141.911C96.64 142.611 95.92 143.141 95.12 143.531C90.9 145.601 84.61 143.621 80.18 142.541L79.53 141.911C80.84 140.631 80.84 141.271 82.16 140.001C82.16 138.721 82.81 137.451 83.47 136.811C85.44 140.001 84.79 141.911 88.07 142.541C99.23 145.071 96.6 127.261 84.79 132.351C77.57 134.901 79.53 145.071 67.71 150.171L65.08 152.081C65.08 159.091 70.34 155.261 74.28 159.091H43.39C46.02 157.181 50.63 156.541 53.92 155.901C55.89 155.261 54.57 152.721 53.92 151.441C44.71 149.531 37.5 138.721 31.58 134.261C29.95 132.931 28.45 131.811 27.06 130.861C25.15 129.571 23.43 128.601 21.81 127.881C15.49 125.071 10.63 125.981 2 125.981C9.87 120.891 9.87 121.521 20.4 122.801C20.96 122.851 21.51 122.911 22.05 122.971C24.39 123.241 26.63 123.601 28.79 124.081C32.1 124.821 35.22 125.851 38.13 127.261C46.66 130.441 58.5 139.361 72.29 134.901C65.08 134.901 61.13 135.541 54.55 132.991C51.29 131.721 44.05 128.531 42.08 126.621L58.5 125.981C54.55 125.351 50.61 125.981 48.64 124.071C50.61 118.991 53.89 118.981 57.82 116.451L57.84 116.431C57.84 116.431 57.84 116.441 57.82 116.441C56.5 113.901 53.89 113.261 58.48 110.711C63.08 112.631 61.11 113.261 59.8 116.451C62.43 118.361 64.4 117.721 67.03 120.911C69 123.451 69 126.001 71.63 127.281C76.24 129.191 84.11 125.361 91.34 127.911C92.73 128.411 94.07 129.231 95.22 130.261C98.44 133.121 100.17 137.681 97.26 141.911Z" fill="#05038B"/>
<path fill-rule="evenodd" clip-rule="evenodd" d="M21.81 127.88C21.77 129.04 21.74 130.23 21.72 131.45C13.49 126.35 2 125.98 2 125.98C10.63 125.98 15.49 125.07 21.81 127.88Z" fill="#FFA2D1"/>
</svg>
