<svg xmlns="http://www.w3.org/2000/svg" width="74.789" height="112.693" viewBox="0 0 74.789 112.693">
  <defs>
    <style>
      .cls-1 {
        fill: #f66;
      }

      .cls-2 {
        fill: #a59cf7;
      }

      .cls-3 {
        fill: #437ebc;
      }

      .cls-4 {
        fill: #fff;
      }

      .cls-5 {
        fill: #824736;
      }
    </style>
  </defs>
  <g id="그룹_558" data-name="그룹 558" transform="translate(-439.114 61)">
    <path id="패스_1176" data-name="패스 1176" class="cls-1" d="M109.742,77.216c9.536-12.955,19.724-31.739,15.822-49.666C121.418,8.5,103.467-3.743,81.514,1.036S48.333,24.453,52.481,43.5c3.9,17.928,21,30.728,35.064,38.549Z" transform="translate(387.484 -61)"/>
    <path id="패스_1177" data-name="패스 1177" class="cls-2" d="M100.83,77.682c6.005-12.186,11.152-29.874,7.25-47.8C103.936,10.835,91.308-2.568,75.921.781S54.627,21.608,58.775,40.656c3.9,17.926,15.967,31.825,26.494,40.414Z" transform="translate(393.076 -60.744)"/>
    <path id="패스_1178" data-name="패스 1178" class="cls-1" d="M90.1,78.447A144.174,144.174,0,0,0,87.5,32.8C83.357,13.751,76.239-.861,69.63.578s-7,17.707-2.858,36.755A143.9,143.9,0,0,0,83.418,79.9Z" transform="translate(399.366 -60.542)"/>
    <path id="패스_1179" data-name="패스 1179" class="cls-3" d="M77.135,57.821l-1.742.366-5.9-14.53,1.744-.368Z" transform="translate(404.542 -19.666)"/>
    <path id="패스_1180" data-name="패스 1180" class="cls-3" d="M79.231,57.378l-1.74.366-4.16-14.9,1.744-.368Z" transform="translate(408.205 -20.439)"/>
    <path id="패스_1181" data-name="패스 1181" class="cls-3" d="M81.709,56.854l1.742-.366-.477-15.678-1.742.369Z" transform="translate(415.75 -22.031)"/>
    <path id="패스_1182" data-name="패스 1182" class="cls-3" d="M79.615,57.3l1.742-.368L79.136,41.621l-1.742.368Z" transform="translate(412.084 -21.259)"/>
    <path id="패스_1183" data-name="패스 1183" class="cls-3" d="M99.564,36.4l-1.544.326-29.96,6.324-1.538.325,2.008,3.139L98.995,40.08Z" transform="translate(401.703 -26.246)"/>
    <path id="패스_1184" data-name="패스 1184" class="cls-4" d="M67.548,44.712l3.62,5.642,12.888-2.8,12.923-2.651,1.034-6.625Z" transform="translate(402.683 -24.447)"/>
    <path id="패스_1185" data-name="패스 1185" class="cls-5" d="M94.616,60.833a4.964,4.964,0,0,1-3.832,5.882l-9.766,2.06a4.96,4.96,0,0,1-5.88-3.831L71.813,54.372a4.961,4.961,0,0,1,3.833-5.88l11.856-2.5a4.963,4.963,0,0,1,5.884,3.831Z" transform="translate(406.652 -17.191)"/>
  </g>
</svg>
