<svg xmlns="http://www.w3.org/2000/svg" width="668.125" height="257.743" viewBox="0 0 668.125 257.743">
  <defs>
    <style>
      .cls-1 {
        fill: #9e7836;
      }
    </style>
  </defs>
  <g id="별요소" transform="translate(0)">
    <rect id="사각형_231" data-name="사각형 231" class="cls-1" width="54.435" height="2.109" transform="matrix(-0.469, -0.883, 0.883, -0.469, 167.585, 126.639)"/>
    <path id="패스_387" data-name="패스 387" class="cls-1" d="M1117.492,119.919c16.547-9,33.658-17.457,50.859-25.14l-.86-1.926c-17.251,7.7-34.412,16.188-51.006,25.213Z" transform="translate(-987.191 -1.742)"/>
    <rect id="사각형_232" data-name="사각형 232" class="cls-1" width="54.744" height="2.109" transform="matrix(-0.961, -0.278, 0.278, -0.961, 182.527, 112.229)"/>
    <path id="패스_388" data-name="패스 388" class="cls-1" d="M1134.141,131.017a325.022,325.022,0,0,1,14.944-48.666l-1.962-.775a327.183,327.183,0,0,0-15.041,48.982Z" transform="translate(-983.522 -1.742)"/>
    <path id="패스_389" data-name="패스 389" class="cls-1" d="M1135.506,80.018a4.554,4.554,0,0,1-.1.791,2.839,2.839,0,0,1-.179.461,2.631,2.631,0,0,1-.2.432,6.562,6.562,0,0,1-.435.564c-.022.026-.044.052-.069.077l.417-.54-.022.03c.09-.214.181-.427.271-.641a3.808,3.808,0,0,1-.346.8,2.989,2.989,0,0,1-2.562,1.449,3.258,3.258,0,0,1-2.82-1.617,5.923,5.923,0,0,1-.346-.8,3.155,3.155,0,0,1-.133-.927,7.949,7.949,0,0,1,.122-.921,3.278,3.278,0,0,1,1.554-2.01c.266-.111.532-.224.8-.337a.156.156,0,0,1,.062-.017,3.516,3.516,0,0,1,1.83,0,3.659,3.659,0,0,1,2.57,4.522,3.447,3.447,0,0,1-1.592,2.076l-.819.345a4.786,4.786,0,0,1-.951.124,3.88,3.88,0,0,1-1.936-.521,3.644,3.644,0,0,1-1.683-2.185.2.2,0,0,1-.017-.071l-.123-.917a3.581,3.581,0,0,1,1.8-3.123l.822-.346a.216.216,0,0,1,.05-.013,3.507,3.507,0,0,1,1.874.013l.817.345.692.533c.178.232.357.462.535.692a2.555,2.555,0,0,1,.406,1.272,1.736,1.736,0,0,1,0,.91,3.354,3.354,0,0,1-.674,1.616,2.584,2.584,0,0,1-.959.882,6.978,6.978,0,0,1-.889.372l.821-.346a.193.193,0,0,0-.045.023l.7-.538a.19.19,0,0,0-.036.033c.18-.231.359-.464.539-.695l-.013.021c.116-.275.231-.55.347-.823a.131.131,0,0,0-.012.049l.123-.917c0,.014,0,.026,0,.04l-.123-.918.009.036c-.116-.273-.232-.549-.348-.824a.22.22,0,0,0,.035.066l-.54-.7a.235.235,0,0,0,.054.055l-.7-.541a1.045,1.045,0,0,0,.171.109c-.274-.116-.548-.231-.822-.348a.534.534,0,0,0,.077.025q-1.668.439-3.335.88a.151.151,0,0,0,.044-.046q-.267.348-.534.692c0-.009.009-.017.014-.026-.115.271-.229.543-.344.816a.214.214,0,0,0,.015-.061c-.04.3-.081.6-.121.906a.259.259,0,0,0,0-.063c.04.3.081.6.121.9a.287.287,0,0,0-.017-.063c.114.271.228.539.342.809a.406.406,0,0,0-.05-.085l.528.683a.281.281,0,0,0-.047-.045q.341.264.681.526a.191.191,0,0,0-.055-.028q.4.167.8.338l-.03-.009q.445.062.891.12c-.336-.029-.68-.067-1.013-.126l.873.119h-.035c.287-.039.575-.078.862-.115a.108.108,0,0,0-.035.01l.763-.323a.3.3,0,0,0-.049.028c.211-.162.423-.325.634-.489a.393.393,0,0,0-.029.027c.161-.206.322-.414.482-.622a.251.251,0,0,0-.032.049q.153-.36.3-.72a.188.188,0,0,0-.011.037c.035-.262.071-.526.106-.788a.124.124,0,0,0,0,.038q-.053-.387-.1-.777a.118.118,0,0,0,.01.038q-.371-.636-.74-1.269a.407.407,0,0,0,.038.034l-.57-.439a.713.713,0,0,0,.1.059c-.451-.121-.9-.244-1.353-.366h.038l-.708.1a1.014,1.014,0,0,0,.153-.049l-.625.264a1.162,1.162,0,0,0,.141-.082l-.52.4a.846.846,0,0,0,.144-.142l-.392.507.023-.033.391-.505a1.883,1.883,0,0,1,.8-.518,1.255,1.255,0,0,1,.63-.169,1.9,1.9,0,0,1,1,.044c.2.084.4.167.6.252l.506.391a2.776,2.776,0,0,1,.731,1.764" transform="translate(-967.199 -1.742)"/>
    <path id="패스_390" data-name="패스 390" class="cls-1" d="M1157.052,75.191a3.28,3.28,0,0,1,.784.585l.513.664a2.444,2.444,0,0,1,.389,1.219,1.654,1.654,0,0,1,0,.872,2.45,2.45,0,0,1-.389,1.219,3.6,3.6,0,0,1-1.281,1.279,3.415,3.415,0,0,1-1.728.467,2.018,2.018,0,0,1-.942-.12A6.081,6.081,0,0,1,1153.5,81a3.072,3.072,0,0,1-.851-.664,3.725,3.725,0,0,1-.966-1.707,2.67,2.67,0,0,1-.063-1.406,2.615,2.615,0,0,1,.419-1.31l.551-.714a3.515,3.515,0,0,1,1.555-.906,2.517,2.517,0,0,1,.518-.078c.156-.021.346-.06.519-.066a2.908,2.908,0,0,1,1.037.149l.851.359a.171.171,0,0,1,.033.018.147.147,0,0,1,.021.014c.251.181.495.37.734.567l.038.034a4.256,4.256,0,0,1,.3.382q.151.189.3.384a3.32,3.32,0,0,1,.4.94.2.2,0,0,1,.009.035l.129.963a.594.594,0,0,1,0,.061,3.871,3.871,0,0,1-.136,1,2.856,2.856,0,0,1-.661,1.263,1.83,1.83,0,0,1-.654.654,1.076,1.076,0,0,1-.389.294l-.872.368a.159.159,0,0,1-.031.009,3.757,3.757,0,0,1-.5.067c-.168.03-.337.053-.508.067-.014,0-.027,0-.041,0a3.848,3.848,0,0,1-1.916-.521,4.02,4.02,0,0,1-.821-.628.493.493,0,0,1-.038-.041q-.151-.19-.3-.384a4.6,4.6,0,0,1-.3-.4c-.009-.016-.017-.033-.026-.05l-.192-.455a1.494,1.494,0,0,1-.193-.467q-.068-.5-.133-.992l0-.023a8.83,8.83,0,0,1,.135-1,.286.286,0,0,1,.008-.031l.008-.021.375-.887a3.2,3.2,0,0,1,.311-.413,2.955,2.955,0,0,1,1.1-1.011,3.681,3.681,0,0,1,1.865-.5,4.108,4.108,0,0,1,2.612,1.082,3.692,3.692,0,0,1,.95,1.63,3.985,3.985,0,0,1,.014,2.082,4.053,4.053,0,0,1-1.664,2.164l-.865.365a3.655,3.655,0,0,1-1.925,0,3.846,3.846,0,0,1-1.734-1.017h5.224l-.015.018.579-.748a.2.2,0,0,0-.022.038l.374-.885a.152.152,0,0,0-.012.041l.132-.987a.435.435,0,0,0,0,.063q-.066-.5-.133-.99c.055.366.112.733.145,1.1l-.132-.989a.437.437,0,0,0,.022.088q-.186-.443-.373-.885a.465.465,0,0,0,.045.078l-.576-.746a.387.387,0,0,0,.045.046l-.743-.575a.276.276,0,0,0,.036.023l-.875-.37a.265.265,0,0,0,.061.018l-.971-.13a.17.17,0,0,0,.045,0l-2.577,1.068.017-.019-.569.737a.227.227,0,0,0,.025-.043l-.366.868a.288.288,0,0,0,.02-.07l-.129.961a.376.376,0,0,0,0-.074l.129.958a.434.434,0,0,0-.02-.073l.362.857a.424.424,0,0,0-.051-.087l.558.722a.422.422,0,0,0-.053-.051l.719.556a.174.174,0,0,0-.042-.024l.847.357a.285.285,0,0,0-.071-.018l.939.126h-.026l3.4-2.588-.006.029.126-.935a.525.525,0,0,0,0,.089q-.062-.467-.125-.931a.505.505,0,0,0,.031.114l-.351-.831a.507.507,0,0,0,.045.078l-.542-.7a.6.6,0,0,0,.04.047,3.219,3.219,0,0,1,.313.387,1.847,1.847,0,0,1,.456.776l.183.44c-.113-.269-.227-.538-.34-.806a.264.264,0,0,0,.018.032l-.52-.674a.2.2,0,0,0,.026.031l-3.973-.513a.272.272,0,0,0,.03-.021l-.653.5a.415.415,0,0,0,.072-.073q.313-.24.625-.482a2.286,2.286,0,0,1,1.147-.366,1.546,1.546,0,0,1,.821,0,2.286,2.286,0,0,1,1.147.366" transform="translate(-1012.716 -1.742)"/>
    <path id="패스_391" data-name="패스 391" class="cls-1" d="M1169.537,101.2c-5.058,0-5.067-7.861,0-7.861s5.066,7.861,0,7.861" transform="translate(-1041.43 -1.742)"/>
    <path id="패스_392" data-name="패스 392" class="cls-1" d="M1166.8,117.556a1.366,1.366,0,0,1,.282-.223c.091-.071.182-.142.275-.211a.123.123,0,0,1,.034-.022l.629-.265a2.283,2.283,0,0,1,.819-.118c.239.033.479.064.718.1a6.858,6.858,0,0,1,.661.281,2.958,2.958,0,0,1,.589.45,3.07,3.07,0,0,1,.258.323,3.235,3.235,0,0,1,.247.331,2.977,2.977,0,0,1,.4,1.467,4.276,4.276,0,0,1-.051.429,1.979,1.979,0,0,1-.333,1.048c-.142.186-.285.37-.428.554a1.545,1.545,0,0,1-.567.434c-.112.051-.225.1-.34.144a2.724,2.724,0,0,1-.354.148c-.136.031-.293.042-.418.058a2.512,2.512,0,0,1-.419.049l-.731-.1-.027,0a.525.525,0,0,1-.077-.023,5.828,5.828,0,0,1-.685-.289c-.025-.015-.046-.03-.07-.047a5.78,5.78,0,0,1-.582-.45.7.7,0,0,1-.059-.062,6.238,6.238,0,0,1-.452-.585l-.037-.061a.347.347,0,0,1-.018-.039l-.281-.666c-.008-.022-.015-.043-.021-.066a.269.269,0,0,1-.007-.04l-.1-.744c0-.022,0-.044,0-.067a2.292,2.292,0,0,1,.263-1.172,2.718,2.718,0,0,1,.644-1l-.725,1.244a6.27,6.27,0,0,1,.306-.719,2.2,2.2,0,0,1,.236-.31c.078-.1.158-.206.239-.309a3.121,3.121,0,0,1,.671-.519,3.06,3.06,0,0,1,1.578-.424c.141.013.282.032.423.056s.283.035.424.058a.74.74,0,0,1,.081.022,3.468,3.468,0,0,1,1.533.919,7.02,7.02,0,0,1,.507.663,3.661,3.661,0,0,1,.166.391c.059.128.113.26.165.391a2.676,2.676,0,0,1,.122.955,3.451,3.451,0,0,1-.909,2.195l-.629.485a3.088,3.088,0,0,1-1.566.424,5.049,5.049,0,0,1-.928-.133l-.747-.316a2.068,2.068,0,0,1-.665-.506c-.094-.11-.183-.226-.268-.344a2.767,2.767,0,0,1-.264-.346,2.715,2.715,0,0,1-.35-.845,2.354,2.354,0,0,1-.055-1.242,2.312,2.312,0,0,1,.369-1.158l.487-.631a2.33,2.33,0,0,1,1-.643,1.536,1.536,0,0,1,.786-.213,2.354,2.354,0,0,1,1.242.055c.248.106.5.21.744.314a3.14,3.14,0,0,1,1.117,1.118.332.332,0,0,0,.033.062c-.163-.211-.325-.422-.488-.632a1.119,1.119,0,0,0,.123.125c-.211-.162-.421-.324-.631-.488a.282.282,0,0,0,.058.039l-4.247,1.113a.3.3,0,0,0,.025-.05l-.312.739a.313.313,0,0,0,.014-.052c-.037.273-.073.547-.11.82a.532.532,0,0,0,0-.08c.036.272.073.543.109.815a.484.484,0,0,0-.026-.1q.153.364.307.727a.6.6,0,0,0-.055-.1c.157.205.315.408.472.612a.589.589,0,0,0-.1-.1l.606.469a1.148,1.148,0,0,0-.2-.119l.693.292a.454.454,0,0,0-.066-.016l.761.1a.194.194,0,0,0-.048,0q.377-.053.754-.1l-.027,0,.674-.284-.023.017.57-.44a.382.382,0,0,0-.039.041c.147-.188.293-.379.44-.568a.435.435,0,0,0-.04.07c.094-.223.189-.445.283-.669a.4.4,0,0,0-.019.078c.033-.249.067-.5.1-.745a.541.541,0,0,0,0,.082c-.033-.247-.067-.5-.1-.742a.554.554,0,0,0,.036.136c-.093-.222-.187-.443-.28-.665a.671.671,0,0,0,.057.1l-.434-.562a.588.588,0,0,0,.1.1l-.559-.432a.567.567,0,0,0,.071.041c-.219-.092-.439-.184-.658-.278a.43.43,0,0,0,.077.024c-.243-.033-.487-.065-.73-.1a.365.365,0,0,0,.081,0l-.729.1a.347.347,0,0,0,.056-.012l-1.911,1.911a.217.217,0,0,0,.021-.062c-.033.243-.065.484-.1.727a.277.277,0,0,0,0-.065q.048.363.1.725a.45.45,0,0,0-.024-.094q.138.326.274.65a.454.454,0,0,0-.052-.084q.213.274.424.55a4.394,4.394,0,0,1-.493-.646l.417.54a.251.251,0,0,0-.037-.042c.177.138.355.274.532.411a.208.208,0,0,0-.046-.031l.62.263-.028-.012a2.579,2.579,0,0,1-1.8-1.8,2.605,2.605,0,0,1,.663-2.507" transform="translate(-1040.307 -1.742)"/>
    <path id="패스_393" data-name="패스 393" class="cls-1" d="M1149.006,129.977a2.916,2.916,0,0,1,1.154.682,3.078,3.078,0,0,1,.4.529l.238.561a.312.312,0,0,1,.021.086,2.4,2.4,0,0,1,0,1.253,2.64,2.64,0,0,1-1.083,1.408,2.342,2.342,0,0,1-1.191.322,2.77,2.77,0,0,1-2.42-1.348,3.481,3.481,0,0,1-.288-.648,2.631,2.631,0,0,1-.12-.767,4.152,4.152,0,0,1,.109-.894,2.956,2.956,0,0,1,2.044-2.038,2.81,2.81,0,0,1,2.7.747,3.245,3.245,0,0,1,.792,1.378,3.163,3.163,0,0,1,0,1.65,4.888,4.888,0,0,1-.306.723,2.737,2.737,0,0,1-.485.623,3.155,3.155,0,0,1-1.354.785,3.3,3.3,0,0,1-.839.111c-.134-.016-.269-.033-.4-.054a1.92,1.92,0,0,1-.4-.057,2.99,2.99,0,0,1-2.191-2.9,3.209,3.209,0,0,1,.052-.4c.011-.136.03-.27.054-.4a3.548,3.548,0,0,1,.32-.756,2.96,2.96,0,0,1,1.762-1.36l.743-.1a2.112,2.112,0,0,1,1.075.24,1.4,1.4,0,0,1,.616.359,2.106,2.106,0,0,1,.72.784c.092.222.186.444.28.666.034.248.067.5.1.743a2.116,2.116,0,0,1-.242,1.075,2.071,2.071,0,0,1-.576.9,6.477,6.477,0,0,1-.615.472l.565-.437a.3.3,0,0,0-.046.042l.436-.564a.382.382,0,0,0-.049.083c.094-.222.186-.444.28-.665a.424.424,0,0,0-.017.063q.051-.371.1-.739a.194.194,0,0,0,0,.064c-.034-.246-.066-.492-.1-.738a.26.26,0,0,0,.012.063q-.14-.331-.278-.662a.183.183,0,0,0,.032.056c-.145-.187-.289-.373-.432-.56a.226.226,0,0,0,.053.049l-.559-.432.031.018-.659-.278a.42.42,0,0,0,.1.027l-.731-.1a.358.358,0,0,0,.073,0l-.729.1a.513.513,0,0,0,.106-.031l-.653.276a.342.342,0,0,0,.063-.038l-.553.427a.33.33,0,0,0,.053-.052l-.426.552a.361.361,0,0,0,.041-.068l-.275.65a.373.373,0,0,0,.025-.08c-.032.241-.064.481-.1.722a.479.479,0,0,0,0-.126q.048.36.1.72a.76.76,0,0,0-.033-.124c.092.215.181.429.273.644-.12-.261-.239-.522-.346-.79.09.212.18.425.269.637l-.019-.036.951.951-.033-.014.629.265a.351.351,0,0,0-.073-.017l.692.093a.387.387,0,0,0-.076,0l.683-.092a.557.557,0,0,0-.114.028l.6-.255a.586.586,0,0,0-.1.059l.5-.388a.228.228,0,0,0-.052.056q.313-.54.629-1.079a.31.31,0,0,0-.024.079c.03-.216.058-.432.088-.648a.391.391,0,0,0-.005.083q-.044-.322-.085-.645a.442.442,0,0,0,.028.12q-.12-.287-.243-.575a.644.644,0,0,0,.065.106l-.374-.485a.324.324,0,0,0,.058.059l-.482-.373a.5.5,0,0,0,.106.062l-.566-.239a.31.31,0,0,0,.081.02l-2.984,2.273a.242.242,0,0,0,0-.089l.083.624-.011-.043c.079.186.157.373.235.559a.278.278,0,0,0-.043-.077c.121.157.241.314.364.471-.012-.01-.021-.021-.033-.031l.471.363-.037-.025a2.421,2.421,0,0,1-1.066-1.385q-.039-.309-.083-.616a1.758,1.758,0,0,1,.2-.893,1.132,1.132,0,0,1,.3-.511,1.73,1.73,0,0,1,.65-.6,2.3,2.3,0,0,1,1.785-.234" transform="translate(-999.209 -1.742)"/>
    <path id="패스_394" data-name="패스 394" class="cls-1" d="M1125.568,127.33v0l.49-.635a2.366,2.366,0,0,1,1.009-.648,1.56,1.56,0,0,1,.791-.214,2.388,2.388,0,0,1,1.251.056,4.343,4.343,0,0,1,.964.381.853.853,0,0,1,.112.068l.655.505a.406.406,0,0,1,.045.047,6.889,6.889,0,0,1,.545.714q.1.207.179.421a3.41,3.41,0,0,1,.176.423,3.151,3.151,0,0,1,.129.941,2.623,2.623,0,0,1-.295,1.34,2.036,2.036,0,0,1-.461.788,2.669,2.669,0,0,1-.98.9,3.011,3.011,0,0,1-.849.354l-.886.119a.182.182,0,0,1-.057,0,3.565,3.565,0,0,1-3.385-2.589,3.4,3.4,0,0,1,0-1.784l.339-.8a3.361,3.361,0,0,1,1.2-1.2,2.5,2.5,0,0,1,1.248-.4,3.447,3.447,0,0,1,3.343,1.6,3.331,3.331,0,0,1,.457,1.693l0,.025-.12-.891.009.024q-.17-.4-.338-.8l.013.023q-.263-.337-.524-.677a.2.2,0,0,0,.038.04l-.677-.523a.242.242,0,0,0,.048.03l-.8-.337a.217.217,0,0,0,.055.016l-.887-.119a.175.175,0,0,0,.056,0l-.886.119.028-.007-.8.335a.157.157,0,0,0,.052-.032l-.673.52.023-.023c-.174.224-.347.449-.52.673a.656.656,0,0,0,.064-.109l-.333.788a.336.336,0,0,0,.018-.062l-.117.872a.551.551,0,0,0,0-.1c.039.288.077.576.116.864a.486.486,0,0,0-.027-.1c.108.257.216.513.325.77a.788.788,0,0,0-.079-.127c.165.215.331.429.5.644a1.444,1.444,0,0,0-.107-.113,3.133,3.133,0,0,1-.806-3.05c.1-.252.2-.5.315-.747" transform="translate(-959.154 -1.742)"/>
    <path id="패스_395" data-name="패스 395" class="cls-1" d="M1110.557,111.062a3.085,3.085,0,0,1,2.175-.873l-1.347.364a2.5,2.5,0,0,1,1.109-.377,2.092,2.092,0,0,1,1.164.052,3.708,3.708,0,0,1,1.376.811l.452.586a2.154,2.154,0,0,1,.344,1.076,1.452,1.452,0,0,1,0,.769,2.154,2.154,0,0,1-.344,1.076,3.424,3.424,0,0,1-1.038,1.038,2.155,2.155,0,0,1-1.076.344,2.189,2.189,0,0,1-1.154-.052,3.684,3.684,0,0,1-.761-.316,3.082,3.082,0,0,1-1.077-1.076,3.135,3.135,0,0,1-.443-1.633q.205.758.41,1.515l-.005-.009a3.152,3.152,0,0,1,0-3.139,3.094,3.094,0,0,1,2.684-1.54,3.344,3.344,0,0,1,1.688.46,5.173,5.173,0,0,1,.765.589,3.394,3.394,0,0,1,.956,1.745,3.3,3.3,0,0,1-.847,3.207,3.361,3.361,0,0,1-3.207.847,1.365,1.365,0,0,1-.139-.04,7.074,7.074,0,0,1-.875-.37,5.707,5.707,0,0,1-.875-.652,3.369,3.369,0,0,1-.867-3.28l.008-.034.335-.794a2.521,2.521,0,0,1,.856-.933,1.663,1.663,0,0,1,.734-.427,2.508,2.508,0,0,1,1.281-.287l.884.119.794.335a3.738,3.738,0,0,1,1.528,1.987c.011.074.023.148.034.222l-.72-1.236a2.328,2.328,0,0,1,.539.672,3.061,3.061,0,0,1,.427,1.535,3.193,3.193,0,0,1-.945,2.264,3.26,3.26,0,0,1-5.467-3.2,3.747,3.747,0,0,1,.942-1.591,4.018,4.018,0,0,1,1.606-.957,3.035,3.035,0,0,1,2.955.781,3.371,3.371,0,0,1,.978,1.612,3.66,3.66,0,0,1,.016,1.9,3.473,3.473,0,0,1-6.687.037,3.356,3.356,0,0,1,2.329-4.1l.8-.107.8.107.718.3a2.272,2.272,0,0,1,.844.774,2.991,2.991,0,0,1,.592,2.221,2.234,2.234,0,0,1-.357,1.118.324.324,0,0,0-.041.078c.1-.242.2-.485.307-.727-.1.3-.24.574-.367.857l.309-.732a.371.371,0,0,0-.022.092c.036-.271.073-.543.109-.815a.322.322,0,0,0,0,.093q-.055-.408-.11-.815l.013.045q-.156-.368-.31-.734a.272.272,0,0,0,.048.082c-.16-.207-.32-.415-.481-.622a.345.345,0,0,0,.069.063l-.622-.481a.4.4,0,0,0,.083.042l-.736-.311a.425.425,0,0,0,.092.022l-.819-.111a.44.44,0,0,0,.1,0l-.821.11a.616.616,0,0,0,.14-.036l-.739.312a.43.43,0,0,0,.083-.048l-.627.484a.877.877,0,0,0,.1-.107l-.483.625a.411.411,0,0,0,.051-.1q-.156.369-.311.736a.456.456,0,0,0,.026-.1c-.036.272-.073.545-.11.817a.7.7,0,0,0,0-.164c.037.272.073.543.11.814a.554.554,0,0,0-.031-.106q.155.364.308.729a.721.721,0,0,0-.084-.142l.476.616c-.012-.014-.025-.027-.038-.04l2.956.781a.588.588,0,0,0-.1.03l.723-.305a1.013,1.013,0,0,0-.19.107l.61-.471a1.041,1.041,0,0,0-.152.153c.156-.2.312-.405.469-.607a.733.733,0,0,0-.074.131l.3-.714a.46.46,0,0,0-.024.09c.035-.264.071-.528.106-.792a.329.329,0,0,0,0,.089c-.035-.264-.071-.527-.106-.791a.275.275,0,0,0,.026.085l-.3-.709.024.04-.463-.6a.27.27,0,0,0,.067.068l-.6-.462.038.022-.706-.3a.269.269,0,0,0,.082.025l-.783-.1a.362.362,0,0,0,.087,0l-.782.1a.37.37,0,0,0,.087-.022l-.7.3a.67.67,0,0,0,.119-.069l-.592.457a.4.4,0,0,0,.064-.065l-.456.59c.033-.048.058-.1.089-.15l-.291.688a.274.274,0,0,0,.028-.083l-.1.755a.283.283,0,0,0,0-.088l5.218,1.414c-.029.06-.058.121-.088.182l-2.87-5a3.155,3.155,0,0,1,.933.12,3.787,3.787,0,0,1,2.015,1.549.992.992,0,0,0,.065.1q-.261-.34-.524-.679a1.157,1.157,0,0,0,.166.162l-.671-.518a.92.92,0,0,0,.1.065l-4.841,1.969c0-.02.007-.04.01-.06l-.117.874a1.04,1.04,0,0,0,0-.185c.038.288.077.577.116.865a8.1,8.1,0,0,1-.131-.981c.038.285.077.571.115.856-.049-.35-.131-.7-.155-1.054l.911,2.2-.012-.013h4.243l-.027.024q.233-.3.467-.6a.166.166,0,0,0-.037.061l.3-.706-.008.034.105-.781c0,.011,0,.023,0,.034q-.051-.389-.1-.777l.009.033-.293-.7.018.029-5.393,1.46v-.045l.1.764a6.562,6.562,0,0,1-.132-.946l1.323,2.306-.044-.022.635.268a.452.452,0,0,0-.095-.029l.7.1a.367.367,0,0,0-.1,0l.7-.093a.368.368,0,0,0-.1.022l-.69.093a1.958,1.958,0,0,1-1-.224,2.48,2.48,0,0,1-1.241-1.062,3.072,3.072,0,0,1-.354-1.31,2.88,2.88,0,0,1,.76-1.835" transform="translate(-928.412 -1.742)"/>
    <path id="패스_396" data-name="패스 396" class="cls-1" d="M1115.2,90.284a3.8,3.8,0,0,1,.768.109,4.69,4.69,0,0,1,.644.272,2.626,2.626,0,0,1,.308.231,2.926,2.926,0,0,1,.339.274l.426.552a.361.361,0,0,1,.023.031c.01.017.019.034.028.052a5.271,5.271,0,0,1,.293.694q.03.2.054.4a1.423,1.423,0,0,1,0,.755,2.428,2.428,0,0,1-.067.435,5.932,5.932,0,0,1-.3.708c-.012.023-.023.044-.036.065a3.4,3.4,0,0,1-.233.3c-.078.107-.159.211-.243.314a3.4,3.4,0,0,1-.675.524l.585-.452a2.951,2.951,0,0,1-2.186.875l.808-.109-.038.016a2.521,2.521,0,0,1-1.325.059,2.472,2.472,0,0,1-1.236-.394l-.672-.52a3.315,3.315,0,0,1-.855-1.466l-.008-.034q-.058-.442-.119-.885a2.465,2.465,0,0,1,.057-.516,2.209,2.209,0,0,1,.256-.947,2.072,2.072,0,0,1,.186-.432l.528-.684.044-.048.687-.531.028-.017.813-.343a.123.123,0,0,1,.049-.016,9.374,9.374,0,0,1,.942-.124,9.12,9.12,0,0,1,.945.126.14.14,0,0,1,.033.01q.42.172.837.354l.031.018.7.539.054.049.542.7q.174.414.35.828a2.361,2.361,0,0,1,.07.5c.025.158.047.318.064.478a1.01,1.01,0,0,1-.06.477,1.443,1.443,0,0,1-.072.491q-.172.411-.346.821l-.537.7-.7.537a2.559,2.559,0,0,1-1.277.408,1.728,1.728,0,0,1-.914,0,3.382,3.382,0,0,1-1.625-.677,2.591,2.591,0,0,1-.885-.964.826.826,0,0,1-.049-.077,1.269,1.269,0,0,1-.185-.429,2.4,2.4,0,0,1-.185-.449l.348.826a.276.276,0,0,0-.034-.063q.269.349.538.7a.2.2,0,0,0-.05-.047l.693.536-.03-.016.817.344-.034-.01.906.122a.158.158,0,0,0-.065,0l.9-.121-.031.009.809-.342a.232.232,0,0,0-.057.034l.683-.528a.316.316,0,0,0-.048.049l.525-.679a.3.3,0,0,0-.035.06l.336-.8c-.119.32.078.189-.355.861l-.52.672a1.867,1.867,0,0,1-.7.533l1.4-1.816c-.005.024-.009.047-.012.071q.053-.39.1-.781c0,.01,0,.021,0,.031l-2.134-2.8.026.006H1114.3a.266.266,0,0,0,.057-.015l-.688.29a.448.448,0,0,0,.1-.06l-.579.448a.633.633,0,0,0,.062-.064l-.445.576a3.127,3.127,0,0,1,.478-.624,4.521,4.521,0,0,1,.61-.473l-.567.438a.545.545,0,0,0,.069-.067l-.427.552a.488.488,0,0,0,.049-.082c-.089.212-.179.423-.268.634a.417.417,0,0,0,.019-.067l-.093.69a.337.337,0,0,0,0-.071q.047.338.091.675l0-.025a2.543,2.543,0,0,1,0-1.341,1.893,1.893,0,0,1,.451-.857,1.913,1.913,0,0,1,.707-.65,2.51,2.51,0,0,1,1.273-.344" transform="translate(-932.546 -1.742)"/>
    <g id="그룹_779" data-name="그룹 779">
      <path id="패스_418" data-name="패스 418" class="cls-1" d="M776,173.584a1.361,1.361,0,0,0,1.361-1.361V158.629h13.594a1.36,1.36,0,0,0,0-2.721H777.365V142.314a1.361,1.361,0,1,0-2.722,0v13.594H761.049a1.36,1.36,0,0,0,0,2.721h13.594v13.594A1.361,1.361,0,0,0,776,173.584" transform="translate(-463.512 -120.621)"/>
      <path id="패스_419" data-name="패스 419" class="cls-1" d="M787.541,168.806a1.361,1.361,0,0,0,0-1.924l-9.613-9.613,9.613-9.612a1.36,1.36,0,0,0-1.924-1.924L776,155.345l-9.612-9.612a1.361,1.361,0,0,0-1.925,1.924l9.613,9.612-9.613,9.613a1.361,1.361,0,0,0,1.925,1.924L776,159.193l9.613,9.613a1.361,1.361,0,0,0,1.924,0" transform="translate(-463.512 -120.621)"/>
    </g>
    <g id="그룹_780" data-name="그룹 780" transform="translate(330.829 142.24)">
      <path id="패스_418-2" data-name="패스 418" class="cls-1" d="M776,173.584a1.361,1.361,0,0,0,1.361-1.361V158.629h13.594a1.36,1.36,0,0,0,0-2.721H777.365V142.314a1.361,1.361,0,1,0-2.722,0v13.594H761.049a1.36,1.36,0,0,0,0,2.721h13.594v13.594A1.361,1.361,0,0,0,776,173.584" transform="translate(-463.512 -120.621)"/>
      <path id="패스_419-2" data-name="패스 419" class="cls-1" d="M787.541,168.806a1.361,1.361,0,0,0,0-1.924l-9.613-9.613,9.613-9.612a1.36,1.36,0,0,0-1.924-1.924L776,155.345l-9.612-9.612a1.361,1.361,0,0,0-1.925,1.924l9.613,9.612-9.613,9.613a1.361,1.361,0,0,0,1.925,1.924L776,159.193l9.613,9.613a1.361,1.361,0,0,0,1.924,0" transform="translate(-463.512 -120.621)"/>
    </g>
    <path id="패스_422" data-name="패스 422" class="cls-1" d="M442.318,338.356a4.244,4.244,0,1,0,4.244-4.244,4.244,4.244,0,0,0-4.244,4.244" transform="translate(10.684 -220.742)"/>
    <path id="패스_426" data-name="패스 426" class="cls-1" d="M1395.319,204.475a4.244,4.244,0,1,0,4.244-4.244,4.244,4.244,0,0,0-4.244,4.244" transform="translate(-1395.318 -120.742)"/>
    <path id="패스_427" data-name="패스 427" class="cls-1" d="M1570.941,204.475a4.244,4.244,0,1,0,4.244-4.244,4.244,4.244,0,0,0-4.244,4.244" transform="translate(-1546.563 9.258)"/>
    <path id="패스_432" data-name="패스 432" class="cls-1" d="M553.311,155.874a4.245,4.245,0,1,0,4.244-4.244,4.244,4.244,0,0,0-4.244,4.244" transform="translate(106.325 -131.298)"/>
    <path id="패스_434" data-name="패스 434" class="cls-1" d="M993.338,124.986a4.245,4.245,0,1,0,4.244-4.244,4.244,4.244,0,0,0-4.244,4.244" transform="translate(-841.358 -120.742)"/>
    <path id="패스_435" data-name="패스 435" class="cls-1" d="M1192.878,4.241A4.244,4.244,0,1,0,1197.122,0a4.244,4.244,0,0,0-4.244,4.244" transform="translate(-660.437 249.258)"/>
  </g>
</svg>
