<svg xmlns="http://www.w3.org/2000/svg" width="55.444" height="81.379" viewBox="0 0 55.444 81.379">
  <defs>
    <style>
      .cls-1 {
        fill: #7fc064;
      }

      .cls-2 {
        fill: #fff;
      }

      .cls-3 {
        fill: #437ebc;
      }

      .cls-4 {
        fill: #f4b321;
      }

      .cls-5 {
        fill: none;
      }
    </style>
  </defs>
  <g id="그룹_894" data-name="그룹 894" transform="translate(-541 -14339.363)">
    <path id="패스_2297" data-name="패스 2297" class="cls-1" d="M23.265,106.445c11.187-3.989,25.184-11.274,30.2-23.858,5.332-13.37-.593-28.281-16-34.426S7.485,48.777,2.153,62.148c-5.023,12.582.156,27.483,5.528,38.079Z" transform="translate(541.057 14293.491)"/>
    <path id="패스_2298" data-name="패스 2298" class="cls-2" d="M18.507,105.127C27.22,100.15,37.679,91.456,42.7,78.872c5.332-13.37,3.144-26.788-7.653-31.1S13.409,51.721,8.074,65.091c-5.02,12.585-3.381,26.073-.487,35.681Z" transform="translate(543.482 14293.877)"/>
    <path id="패스_2299" data-name="패스 2299" class="cls-1" d="M13.409,103.573A106.4,106.4,0,0,0,30.682,74.564c5.335-13.37,7.019-25.254,2.38-27.1S21.456,55.4,16.125,68.771A106.147,106.147,0,0,0,8.72,101.7Z" transform="translate(545.464 14294.189)"/>
    <path id="패스_2300" data-name="패스 2300" class="cls-3" d="M3.546,94.562l-1.217-.494,2.4-11.33,1.216.5Z" transform="translate(542.191 14312.371)"/>
    <path id="패스_2301" data-name="패스 2301" class="cls-3" d="M6.211,95.478l-1.22-.5L8.606,84.148l1.219.494Z" transform="translate(543.556 14313.093)"/>
    <path id="패스_2302" data-name="패스 2302" class="cls-3" d="M10.431,96.839l1.217.494,6.186-9.789-1.219-.5Z" transform="translate(546.341 14314.578)"/>
    <path id="패스_2303" data-name="패스 2303" class="cls-3" d="M7.767,95.923l1.22.494,4.967-10.285-1.219-.493Z" transform="translate(544.978 14313.856)"/>
    <path id="패스_2304" data-name="패스 2304" class="cls-3" d="M26.564,87.758l-1.081-.439L4.539,78.81l-1.08-.439L3.39,81.12l21.3,8.654Z" transform="translate(542.736 14310.134)"/>
    <path id="패스_2305" data-name="패스 2305" class="cls-2" d="M3.429,80.189l-.113,4.949,9.044,3.615,9,3.718,3.367-3.629Z" transform="translate(542.697 14311.066)"/>
    <path id="패스_2306" data-name="패스 2306" class="cls-4" d="M15.392,103.952a4.064,4.064,0,0,1-5.292,2.236l-7.565-3.076A4.064,4.064,0,0,1,.3,97.82l2.146-8.867a4.065,4.065,0,0,1,5.292-2.235L17.8,90.809A4.062,4.062,0,0,1,20.038,96.1Z" transform="translate(541 14314.255)"/>
    <rect id="사각형_521" data-name="사각형 521" class="cls-5" width="55.444" height="81.379" transform="translate(541 14339.363)"/>
  </g>
</svg>
