<svg xmlns="http://www.w3.org/2000/svg" width="650.497" height="267.743" viewBox="0 0 650.497 267.743">
  <defs>
    <style>
      .cls-1 {
        fill: #9e7836;
      }
    </style>
  </defs>
  <g id="그룹_895" data-name="그룹 895" transform="translate(-5.905)">
    <path id="패스_422" data-name="패스 422" class="cls-1" d="M450.806,338.356a4.244,4.244,0,1,1-4.244-4.244,4.244,4.244,0,0,1,4.244,4.244" transform="translate(-367.405 -300.742)"/>
    <path id="패스_426" data-name="패스 426" class="cls-1" d="M1403.807,204.475a4.244,4.244,0,1,1-4.244-4.244,4.244,4.244,0,0,1,4.244,4.244" transform="translate(-747.405 -120.742)"/>
    <path id="패스_427" data-name="패스 427" class="cls-1" d="M1579.429,204.475a4.244,4.244,0,1,1-4.244-4.244,4.244,4.244,0,0,1,4.244,4.244" transform="translate(-947.405 9.258)"/>
    <path id="패스_432" data-name="패스 432" class="cls-1" d="M561.8,155.874a4.245,4.245,0,1,1-4.244-4.244,4.244,4.244,0,0,1,4.244,4.244" transform="translate(-547.405 9.258)"/>
    <path id="패스_434" data-name="패스 434" class="cls-1" d="M1001.827,124.986a4.245,4.245,0,1,1-4.244-4.244,4.244,4.244,0,0,1,4.244,4.244" transform="translate(-497.405 -120.742)"/>
    <path id="패스_435" data-name="패스 435" class="cls-1" d="M1201.367,4.241A4.244,4.244,0,1,1,1197.123,0a4.244,4.244,0,0,1,4.244,4.244" transform="translate(-1132.405 259.258)"/>
    <path id="패스_2516" data-name="패스 2516" class="cls-1" d="M1001.827,124.986a4.245,4.245,0,1,1-4.244-4.244,4.244,4.244,0,0,1,4.244,4.244" transform="translate(-607.405 -70.742)"/>
  </g>
</svg>
