<svg width="77" height="12" viewBox="0 0 77 12" fill="none" xmlns="http://www.w3.org/2000/svg">
<path d="M38.5125 11.9986C34.9783 11.9986 31.6788 10.4835 29.4286 7.83556L29.0194 7.44407C27.9628 6.48112 26.5853 5.95124 25.1371 5.95124C23.9083 5.95124 22.7449 6.32409 21.764 7.03107L20.742 7.96391C18.4954 10.5237 15.2408 11.9878 11.7779 11.9878C5.48283 11.9871 0.323856 7.15583 0.000821588 1.09847C-0.0168386 0.770793 0.252479 0.495459 0.589494 0.495459H5.5314C5.83309 0.495459 6.08917 0.717734 6.11639 1.01099C6.38424 3.82529 8.82061 6.03513 11.7772 6.03513C13.4807 6.03513 15.0797 5.30019 16.1658 4.01816L16.2909 3.87118L17.8089 2.4859L17.9222 2.40057C20.0046 0.830306 22.4991 0 25.1364 0C28.1592 0 31.0334 1.11281 33.2306 3.13408L33.2733 3.17352L33.9569 3.82744L34.071 3.96654C35.1578 5.28872 36.7767 6.04732 38.5125 6.04732C40.2484 6.04732 41.815 5.31238 42.9011 4.03035L43.0261 3.88337L44.5442 2.49809L44.6575 2.41276C46.7392 0.841061 49.2337 0.0114723 51.8709 0.0114723C54.8614 0.0114723 57.7135 1.10421 59.9019 3.08819L59.9998 3.18069L60.6606 3.83533L60.7577 3.95292C61.846 5.27725 63.4707 6.03657 65.2147 6.03657C68.175 6.03657 70.6143 3.83604 70.8836 1.03466C70.9116 0.742113 71.1669 0.51912 71.4686 0.51912H76.4105C76.7475 0.51912 77.0168 0.794455 76.9992 1.12213C76.6754 7.16659 71.5135 11.9878 65.214 11.9878C61.662 11.9878 58.3486 10.4641 56.0954 7.80043L55.6973 7.40607C54.6488 6.47538 53.2926 5.96343 51.8709 5.96343C50.6421 5.96343 49.4787 6.33628 48.4979 7.04326L47.4758 7.9761C45.2293 10.5359 41.9746 12 38.5118 12L38.5125 11.9986Z" fill="white"/>
</svg>
