<svg xmlns="http://www.w3.org/2000/svg" xmlns:xlink="http://www.w3.org/1999/xlink" width="200.425" height="189.937" viewBox="0 0 200.425 189.937">
  <defs>
    <style>
      .cls-1 {
        fill: none;
      }

      .cls-2 {
        clip-path: url(#clip-path);
      }

      .cls-3 {
        clip-path: url(#clip-path-2);
      }

      .cls-4 {
        opacity: 0.35;
      }

      .cls-5 {
        clip-path: url(#clip-path-3);
      }

      .cls-6 {
        fill: #adfffe;
      }

      .cls-6, .cls-7 {
        fill-rule: evenodd;
      }

      .cls-7 {
        fill: #fdffcc;
      }
    </style>
    <clipPath id="clip-path">
      <rect id="사각형_337" data-name="사각형 337" class="cls-1" width="200.425" height="189.937" transform="translate(-10)"/>
    </clipPath>
    <clipPath id="clip-path-2">
      <rect id="사각형_336" data-name="사각형 336" class="cls-1" width="230.425" height="289.937"/>
    </clipPath>
    <clipPath id="clip-path-3">
      <rect id="사각형_335" data-name="사각형 335" class="cls-1" width="189.286" height="189.098"/>
    </clipPath>
  </defs>
  <g id="그룹_533" data-name="그룹 533" class="cls-2" transform="translate(10)">
    <g id="그룹_532" data-name="그룹 532">
      <g id="그룹_531" data-name="그룹 531" class="cls-3">
        <g id="그룹_530" data-name="그룹 530" class="cls-4">
          <g id="그룹_529" data-name="그룹 529">
            <g id="그룹_528" data-name="그룹 528" class="cls-5">
              <path id="패스_981" data-name="패스 981" class="cls-6" d="M84.668,268.882c-4.91-.784-9.8-1.793-14.734-2.311a130.931,130.931,0,0,0-45.594,3.07,90.762,90.762,0,0,0-21.18,7.9,9.136,9.136,0,0,0-2,1.244A8.625,8.625,0,0,0,0,280.577a6.48,6.48,0,0,0,2.079.232,18.018,18.018,0,0,0,3.14-1.148c21.324-9.141,43.62-12.337,66.671-10.882,3.606.228,7.2.585,10.805.865.626.048,1.259.006,1.888.006.028-.255.056-.512.085-.767" transform="translate(0 -173.121)"/>
              <path id="패스_982" data-name="패스 982" class="cls-6" d="M292.121,268.732c1.586-.077,3.175-.1,4.756-.239a167.136,167.136,0,0,1,73.8,9.874c1.475.55,2.978,1.041,4.5,1.444.4.107.921-.216,1.385-.341-.174-.506-.2-1.243-.552-1.476a27.375,27.375,0,0,0-3.955-2.182,125.627,125.627,0,0,0-38.422-9.7,142.02,142.02,0,0,0-32.844.389c-2.935.384-5.835,1.036-8.751,1.565.029.22.057.44.086.66" transform="translate(-190.196 -172.817)"/>
              <path id="패스_983" data-name="패스 983" class="cls-6" d="M107.562,219.837a24.1,24.1,0,0,0-1.927-1.75A127.139,127.139,0,0,0,51.088,194.61c-6.058-1.025-12.28-1.1-18.433-1.515a13.684,13.684,0,0,0-3.713.408c-.458.1-.812.681-1.215,1.042.405.347.778.94,1.221,1,2.148.278,4.312.482,6.475.587,19.9.964,38.512,6.622,56.205,15.53,4.808,2.421,9.446,5.18,14.167,7.778.49.27,1.007.492,1.512.735l.254-.335" transform="translate(-18.059 -125.747)"/>
              <path id="패스_984" data-name="패스 984" class="cls-6" d="M274.963,289.154c1.33,4.109,2.723,8.2,3.98,12.33a205.114,205.114,0,0,1,8.393,66.583c-.059,1.839-.1,3.685.011,5.518a5.29,5.29,0,0,0,.855,1.766c.4-.507,1.071-.974,1.155-1.529a81.572,81.572,0,0,0,1.07-8.991,164.756,164.756,0,0,0-12.315-70.3c-.794-1.911-1.779-3.744-2.675-5.614l-.474.236" transform="translate(-179.077 -188.166)"/>
              <path id="패스_985" data-name="패스 985" class="cls-6" d="M196.037,308.633c-2.946,4.081-6.136,8.01-8.8,12.27-12,19.213-18.974,40.058-19.794,62.813a35.453,35.453,0,0,0,.167,4.921c.054.517.64.979.983,1.466.345-.485.931-.94,1-1.461.552-4.234.977-8.484,1.5-12.722a146.955,146.955,0,0,1,22.7-62.245q1.47-2.285,2.949-4.564l-.709-.479" transform="translate(-109.039 -201.006)"/>
              <path id="패스_986" data-name="패스 986" class="cls-6" d="M283.912,278.866a12.215,12.215,0,0,0,1.256.768c19.221,8.863,35.4,21.779,49.681,37.235,2.81,3.041,5.575,6.123,8.438,9.112.45.471,1.313.547,1.986.806-.055-.762.184-1.765-.211-2.249-4.023-4.932-7.87-10.052-12.3-14.6-12.127-12.441-25.923-22.611-42.061-29.352-2.133-.891-4.378-1.517-6.572-2.266-.073.181-.145.363-.217.544" transform="translate(-184.905 -181.265)"/>
              <path id="패스_987" data-name="패스 987" class="cls-6" d="M126.061,281.324c-3.5.8-7.047,1.432-10.493,2.419-18.755,5.371-35.841,13.971-50.719,26.7A84.592,84.592,0,0,0,58.318,317c-.377.4-.3,1.226-.438,1.856.639-.112,1.44-.017,1.892-.369,4.3-3.354,8.459-6.9,12.821-10.169a158.58,158.58,0,0,1,39.924-21.61c3.934-1.471,7.947-2.73,11.924-4.085l1.795-.611q-.087-.343-.174-.684" transform="translate(-37.696 -183.22)"/>
              <path id="패스_988" data-name="패스 988" class="cls-6" d="M289.316,216.991c.669-.335,1.351-.647,2.007-1.007,12.835-7.057,26.118-13.014,40.395-16.569a106.157,106.157,0,0,1,27.762-3.034c.984.018,2.815-.52,2.825-.843.05-1.685-1.616-1.383-2.628-1.546a61.654,61.654,0,0,0-21.96.875,125.113,125.113,0,0,0-46.43,19.96c-.779.533-1.485,1.173-2.224,1.763l.255.4" transform="translate(-188.259 -125.936)"/>
              <path id="패스_989" data-name="패스 989" class="cls-6" d="M241.364,296.076c-.907,2.858-1.894,5.694-2.707,8.579a233.146,233.146,0,0,0-7.828,38c-.873,8.023-1.706,16.1-.161,24.156a31.811,31.811,0,0,0,1.43,4.9c.178.488.867.789,1.321,1.175a5.068,5.068,0,0,0,.653-1.806c-.277-4.652-1.1-9.32-.89-13.943a237.29,237.29,0,0,1,2.161-24.7c1.712-11.364,4.112-22.624,6.213-33.929.141-.759.242-1.526.361-2.289l-.554-.147" transform="translate(-149.667 -192.827)"/>
              <path id="패스_990" data-name="패스 990" class="cls-6" d="M293.027,277.495c1.223.524,2.011.907,2.829,1.2A218.321,218.321,0,0,1,327,292.406a131.275,131.275,0,0,1,25.944,18.467,15.954,15.954,0,0,0,2.322,1.809c.3.188,1.054.173,1.2-.032a1.521,1.521,0,0,0,.168-1.36,20.673,20.673,0,0,0-2.392-3.118c-7.445-7.788-16.331-13.549-25.867-18.423A150.661,150.661,0,0,0,299.085,278.3c-1.646-.444-3.334-.733-5.006-1.074-.156-.032-.341.08-1.052.266" transform="translate(-190.842 -180.549)"/>
              <path id="패스_991" data-name="패스 991" class="cls-6" d="M272.154,144.914c.4-1.214.828-2.419,1.191-3.645,3.67-12.352,7.8-24.532,13.675-36.043a85.173,85.173,0,0,1,13.937-20.2c.72-.758,2.26-1.561,1.114-2.8-.3-.33-2.165.342-2.974.982-5.247,4.142-9,9.549-12.2,15.31-7.575,13.621-12.244,28.272-15.031,43.558-.161.885-.177,1.8-.26,2.7l.552.146" transform="translate(-176.888 -53.492)"/>
              <path id="패스_992" data-name="패스 992" class="cls-6" d="M131.475,326.416c-2.07,1.684-4.189,3.312-6.2,5.061C113.964,341.3,103.508,351.922,95.1,364.4c-3.277,4.863-6.184,9.946-7.485,15.764a10.217,10.217,0,0,0-.245,2.535,1.247,1.247,0,0,0,.69.964c.311.065.793-.282,1.069-.573a3.007,3.007,0,0,0,.5-1.063c3.734-10.372,9.8-19.375,16.945-27.59,7.76-8.925,15.989-17.444,24.012-26.141.439-.476.872-.956,1.309-1.433l-.417-.445" transform="translate(-56.899 -212.587)"/>
              <path id="패스_993" data-name="패스 993" class="cls-6" d="M200.135,134.876a24.307,24.307,0,0,0-.357-2.474,155.581,155.581,0,0,0-15.816-40.628A48.9,48.9,0,0,0,173.4,78.359a27.82,27.82,0,0,0-4.236-2.846c-.436-.247-1.181.051-1.785.1.148.566.1,1.357.471,1.664,9.306,7.84,15.043,18.217,20.053,28.956,3.881,8.32,6.968,17.009,10.409,25.533l1.3,3.231Z" transform="translate(-109.01 -49.117)"/>
              <path id="패스_994" data-name="패스 994" class="cls-6" d="M291.33,253.727c4.471-.633,8.935-1.32,13.414-1.891,16.587-2.113,33.165-2.425,49.72.369a29.992,29.992,0,0,0,3.912.455c.48.017.977-.421,1.466-.651-.35-.471-.622-1.257-1.061-1.365a99.8,99.8,0,0,0-11.7-2.6,137.675,137.675,0,0,0-53.511,4.368c-.632.174-1.246.417-1.862.647a2.592,2.592,0,0,0-.461.288c.027.128.056.256.084.383" transform="translate(-189.682 -160.932)"/>
              <path id="패스_995" data-name="패스 995" class="cls-6" d="M116.569,257.186c-2.645-.663-5.267-1.443-7.94-1.969a137.081,137.081,0,0,0-54.04-.258,29.976,29.976,0,0,0-4.522,1.346c-.424.158-.658.818-.98,1.248.483.242.988.728,1.444.685,2.941-.279,5.878-.618,8.8-1.037a184.647,184.647,0,0,1,51.864.017c1.743.242,3.495.415,5.242.62l.129-.652" transform="translate(-31.97 -164.379)"/>
              <path id="패스_996" data-name="패스 996" class="cls-6" d="M268.655,133.807c.74-2.966,1.5-5.927,2.217-8.9,2.855-11.893,5.749-23.785,10.385-35.134,1.906-4.666,4.4-9.092,6.636-13.621a7.257,7.257,0,0,0,.753-1.373c.1-.443.059-1.252-.18-1.368a1.664,1.664,0,0,0-1.521.078,23.241,23.241,0,0,0-3.095,3.549c-4.358,6.531-6.88,13.866-9.07,21.323a184.709,184.709,0,0,0-6.688,33.6c-.056.565-.007,1.14-.007,1.71l.569.137" transform="translate(-174.585 -47.717)"/>
              <path id="패스_997" data-name="패스 997" class="cls-6" d="M325.115,341.068c2.016,2.807,4.1,5.567,6.036,8.427,8.866,13.086,14.706,27.514,18.84,42.7a40.407,40.407,0,0,0,1.529,4.672c.185.454.918.684,1.4,1.017.249-.48.763-1,.7-1.433a66.993,66.993,0,0,0-1.358-7.937c-4.359-16.491-11.573-31.525-23.028-44.335-1.124-1.256-2.438-2.344-3.664-3.51l-.456.4" transform="translate(-211.74 -221.867)"/>
              <path id="패스_998" data-name="패스 998" class="cls-6" d="M185.732,167.39c-.716-1.795-1.353-3.625-2.16-5.379-6.191-13.461-13.775-26-24.6-36.3a82.1,82.1,0,0,0-8.086-6.248,7.857,7.857,0,0,0-2.645-1.266,7.6,7.6,0,0,0-2.3.118c.383.67.6,1.575,1.173,1.972,14.294,9.917,23.921,23.793,32.691,38.4,1.453,2.419,2.841,4.879,4.277,7.309.339.575.753,1.108,1.131,1.66l.521-.268" transform="translate(-95.046 -76.936)"/>
              <path id="패스_999" data-name="패스 999" class="cls-6" d="M268.627,287.047c0,.6-.052,1.214.008,1.812,1.07,10.524,2.21,21.042,3.213,31.572.716,7.522,1.245,15.06,1.866,22.591a32.579,32.579,0,0,0,.43,3.912c.108.522.707.942,1.083,1.408.419-.491,1.153-.951,1.206-1.478a47.978,47.978,0,0,0,.325-6.88,313.347,313.347,0,0,0-5.107-41.834c-.562-3.1-1.244-6.181-1.9-9.265-.138-.654-.392-1.283-.594-1.923l-.533.086" transform="translate(-174.937 -186.891)"/>
              <path id="패스_1000" data-name="패스 1000" class="cls-6" d="M103.2,143.53c-2.1-2.44-4.027-5.048-6.316-7.291-9.507-9.317-20.962-15.542-33.239-20.329-4.21-1.642-8.611-2.8-12.928-4.163a2.029,2.029,0,0,0-.96-.175c-.68.152-1.336.419-2,.639.42.506.744,1.2,1.281,1.479a28.373,28.373,0,0,0,3.645,1.485c12.147,4.36,24.165,9.058,34.845,16.441,4.839,3.345,9.2,7.388,13.733,11.165a5.42,5.42,0,0,1,.923,1.693l1.015-.942" transform="translate(-31.106 -72.653)"/>
              <path id="패스_1001" data-name="패스 1001" class="cls-6" d="M323.071,113.893c.8-1.09,1.472-1.951,2.079-2.858,6.216-9.291,12.777-18.3,20.955-26.013A60.885,60.885,0,0,1,362.57,73.669a5.865,5.865,0,0,0,1.551-.835,1.671,1.671,0,0,0,.584-1.28,1.452,1.452,0,0,0-1.154-.737,7.564,7.564,0,0,0-2.3.42c-6.542,2.1-11.882,6.116-16.729,10.805a101.806,101.806,0,0,0-20.943,29.338,14.414,14.414,0,0,0-.654,1.644c-.051.152.053.357.147.868" transform="translate(-210.304 -46.121)"/>
              <path id="패스_1002" data-name="패스 1002" class="cls-6" d="M325.79,152.78c2.308-2.313,4.589-4.653,6.927-6.934,8.628-8.416,18.034-15.751,29.319-20.289,3.522-1.416,7.257-2.3,10.9-3.425a9.429,9.429,0,0,0,1.868-.6c.38-.214.587-.738.872-1.124-.39-.287-.8-.839-1.17-.819a37.569,37.569,0,0,0-6.059.589c-9.667,2.123-17.924,7.046-25.508,13.207a86.937,86.937,0,0,0-16.276,17.087c-.451.635-.84,1.314-1.258,1.973l.39.331" transform="translate(-211.926 -77.888)"/>
              <path id="패스_1003" data-name="패스 1003" class="cls-6" d="M309.814,196.677c1.891-1.12,3.8-2.21,5.672-3.365,8.061-4.981,16.312-9.665,25.212-12.918,5.831-2.132,11.982-3.376,17.966-5.1.725-.21,1.3-.943,1.943-1.433-.761-.362-1.517-1.026-2.284-1.038-6.3-.1-12.2,1.776-17.936,4.109a113.077,113.077,0,0,0-28.2,16.731c-.716.574-1.381,1.213-2.057,1.835-.23.212-.422.465-.63.7l.314.482" transform="translate(-201.57 -112.551)"/>
              <path id="패스_1004" data-name="패스 1004" class="cls-6" d="M71.277,283.513c-1.191.123-2.391.186-3.57.38-14.346,2.368-28.512,5.479-42.033,10.959a54.229,54.229,0,0,0-8.17,4.671c-.476.3-.521,1.282-.765,1.949.644.008,1.4.248,1.916-.009,13.363-6.714,27.784-10.305,42.06-14.33q4.646-1.31,9.282-2.654a13.766,13.766,0,0,0,1.368-.558c-.029-.136-.059-.272-.089-.409" transform="translate(-10.902 -184.646)"/>
              <path id="패스_1005" data-name="패스 1005" class="cls-6" d="M265.11,66.337c.242-2.306.559-4.608.717-6.921,1.031-15.136,2.336-30.24,5.039-45.192.131-.725-.42-1.575-.654-2.366-.6.569-1.592,1.051-1.744,1.721A150.338,150.338,0,0,0,265.26,29.36a190.494,190.494,0,0,0-1.033,34.609c.052.792.192,1.578.291,2.367h.592" transform="translate(-171.844 -7.722)"/>
              <path id="패스_1006" data-name="패스 1006" class="cls-6" d="M280.613,284.423a4.994,4.994,0,0,0,.727.54c10.387,5.175,18.644,12.93,26.026,21.687,3.555,4.219,6.8,8.7,10.294,12.971.647.793,2.31,1.873,2.6,1.652,1.382-1.073.107-2.251-.484-3.188-8.217-13.041-18.341-24.176-32.132-31.522a65.088,65.088,0,0,0-6.755-2.716c-.09.191-.18.384-.272.576" transform="translate(-182.757 -184.863)"/>
              <path id="패스_1007" data-name="패스 1007" class="cls-6" d="M193.173,307.44c-.712.744-1.477,1.444-2.128,2.238-8.066,9.843-15.328,20.224-20.549,31.885a72.17,72.17,0,0,0-2.87,8.981,3.989,3.989,0,0,0-.053,1.954,5.981,5.981,0,0,0,.883,1.541c.488-.422,1.218-.751,1.423-1.283,1.039-2.694,1.789-5.506,2.918-8.157,4.811-11.293,11.48-21.554,17.945-31.924,1-1.6,1.94-3.224,2.908-4.837l-.476-.4" transform="translate(-109.073 -200.229)"/>
              <path id="패스_1008" data-name="패스 1008" class="cls-6" d="M171.7,292.079c-1.6.679-3.224,1.3-4.786,2.048-10.093,4.859-19.769,10.4-28.08,18.01a58.61,58.61,0,0,0-5.79,6.672,7.756,7.756,0,0,0-1.346,2.817c-.149.557.251,1.26.4,1.9.6-.279,1.428-.392,1.759-.86,6.028-8.489,14.423-14.27,22.844-20,4.394-2.989,8.935-5.761,13.4-8.641.645-.415,1.256-.884,1.883-1.329q-.145-.308-.289-.616" transform="translate(-85.751 -190.224)"/>
              <path id="패스_1009" data-name="패스 1009" class="cls-6" d="M229.034,61.659c0-2.542.172-5.1-.03-7.624-.876-10.98-2.823-21.756-7-32a75.2,75.2,0,0,0-4.646-8.857c-.318-.552-1.322-.71-2.011-1.049a6.42,6.42,0,0,0,.013,2.187c2,5.274,4.275,10.452,6.109,15.783,3.343,9.718,5.029,19.835,6.744,29.934.094.557.236,1.105.356,1.658l.465-.029" transform="translate(-140.185 -7.897)"/>
              <path id="패스_1010" data-name="패스 1010" class="cls-6" d="M291.1,311.944c5.385,7.551,7.819,16.177,10.229,24.781,1.735,6.2,3.171,12.482,4.758,18.723a13.165,13.165,0,0,0,.863,2.611c.22.445.8.71,1.221,1.056.331-.491.962-1,.94-1.471a32.1,32.1,0,0,0-.611-4.881c-2.421-11.953-5.479-23.713-11.624-34.387-1.283-2.228-3.275-4.051-4.966-6.038-.177-.21-.535-.266-.808-.393" transform="translate(-189.587 -203.162)"/>
              <path id="패스_1011" data-name="패스 1011" class="cls-6" d="M120.686,191.842c-1.951-1.509-3.831-3.124-5.864-4.511a89.56,89.56,0,0,0-32.788-13.987,19.792,19.792,0,0,0-4.307-.436c-.691.014-1.37.623-2.054.963.53.478.985,1.2,1.6,1.391,2.195.677,4.443,1.187,6.677,1.735,12.435,3.049,23.935,8.321,34.979,14.682.34.2.686.385,1.041.555a1.078,1.078,0,0,0,.371.03l.342-.422" transform="translate(-49.283 -112.609)"/>
              <path id="패스_1012" data-name="패스 1012" class="cls-6" d="M367.733,105.751c2.112-1.753,4.2-3.537,6.341-5.254,9.145-7.339,19.268-12.688,30.831-15.1a7.937,7.937,0,0,0,2.062-.626c.382-.2.839-.769.8-1.118a1.392,1.392,0,0,0-1.018-.908,20.636,20.636,0,0,0-4.5.225c-13.974,2.84-25.059,10.37-34.086,21.186a9.556,9.556,0,0,0-.776,1.289l.344.3" transform="translate(-239.272 -53.878)"/>
              <path id="패스_1013" data-name="패스 1013" class="cls-6" d="M163.787,108.616a13.18,13.18,0,0,0-.742-1.776c-6.495-10.4-13.687-20.272-22.643-28.721a36.838,36.838,0,0,0-5.94-4.151c-.436-.271-1.261.085-1.906.152.223.607.264,1.432.694,1.791,10.067,8.4,18.008,18.757,26.439,28.662,1.065,1.251,2.17,2.468,3.272,3.686.112.123.332.149.826.356" transform="translate(-86.331 -48.108)"/>
              <path id="패스_1014" data-name="패스 1014" class="cls-6" d="M219,98.313c-.331-2.789-.525-5.6-1.019-8.362-1.69-9.432-4.218-18.6-9.4-26.8a22.248,22.248,0,0,0-2.959-3.668c-.364-.37-1.231-.246-1.868-.348-.035.594-.3,1.3-.066,1.761.97,1.937,2.122,3.781,3.144,5.693,4.3,8.053,7.075,16.68,9.486,25.441.6,2.165,1.252,4.315,1.88,6.471l.8-.187" transform="translate(-132.599 -38.512)"/>
              <path id="패스_1015" data-name="패스 1015" class="cls-6" d="M214.64,382.3c-.348.817-.763,1.611-1.034,2.453a119.218,119.218,0,0,0-5.966,30.465,27.287,27.287,0,0,0,.279,5.3c.1.68.851,1.265,1.306,1.893.43-.632,1.164-1.229,1.239-1.9.539-4.829.8-9.691,1.426-14.508.877-6.771,2-13.51,3-20.265.16-1.088.206-2.192.305-3.29l-.551-.146" transform="translate(-135.212 -248.986)"/>
              <path id="패스_1016" data-name="패스 1016" class="cls-6" d="M431.56,364.293c2.255,2.44,4.627,4.783,6.743,7.338,6.2,7.484,12.29,15.053,18.429,22.585a9.867,9.867,0,0,0,1.438,1.6,6.56,6.56,0,0,0,1.609.689c.093-.652.466-1.44.227-1.93a37.752,37.752,0,0,0-2.924-5.109,109.028,109.028,0,0,0-22.992-24.2c-.663-.511-1.395-.936-2.1-1.4l-.435.425" transform="translate(-281.065 -236.979)"/>
              <path id="패스_1017" data-name="패스 1017" class="cls-6" d="M322.824,239.1c2.7-.419,5.42-.783,8.112-1.268a175.73,175.73,0,0,1,27.616-3.03,3.059,3.059,0,0,0,1.355-.166c.45-.251,1.038-.727,1.062-1.135a1.542,1.542,0,0,0-.96-1.168,31.006,31.006,0,0,0-5.652-.657,88.51,88.51,0,0,0-22.155,3.466c-2.785.757-5.505,1.756-8.245,2.675a8.725,8.725,0,0,0-1.306.692l.174.59" transform="translate(-210.135 -150.887)"/>
              <path id="패스_1018" data-name="패스 1018" class="cls-6" d="M104.845,299.4a12.694,12.694,0,0,0-1.861.012c-9.618,1.44-18.89,3.963-27.246,9.125a19.952,19.952,0,0,0-3.871,3.582c-.317.342-.134,1.148-.181,1.741.644.007,1.491.287,1.9-.019,8.654-6.453,18.871-9.367,28.839-12.848.85-.3,1.678-.659,2.516-.991-.033-.2-.065-.4-.1-.6" transform="translate(-46.68 -194.974)"/>
              <path id="패스_1019" data-name="패스 1019" class="cls-6" d="M311.9,128.7c.889-1.2,1.781-2.391,2.666-3.59,5.608-7.6,11.233-15.191,16.784-22.835a6.226,6.226,0,0,0,.495-2.376c-.76.142-1.8.015-2.235.468-2.445,2.547-5.12,4.992-7.015,7.925-3.659,5.666-6.866,11.625-10.217,17.486a18.921,18.921,0,0,0-1.045,2.671l.568.251" transform="translate(-202.762 -65.06)"/>
              <path id="패스_1020" data-name="패스 1020" class="cls-6" d="M160.707,185.421a7.726,7.726,0,0,0-.765-1.289c-5.191-5.84-11.043-10.85-18.16-14.226a7.839,7.839,0,0,0-2.626-.738,1.623,1.623,0,0,0-1.326.79c-.146.393.218,1.032.475,1.5.141.254.525.373.8.553q9.469,6.19,18.943,12.376c.754.492,1.539.935,2.311,1.4l.349-.364" transform="translate(-89.743 -110.173)"/>
              <path id="패스_1021" data-name="패스 1021" class="cls-6" d="M65.75,217.66a61.827,61.827,0,0,0-7.592-1.786c-5.864-.651-11.759-1.035-17.646-1.455a6.8,6.8,0,0,0-2.7.454,1.166,1.166,0,0,0,.161,2.3,31.466,31.466,0,0,0,3.733.248q11.032.518,22.067,1.029c.618.028,1.239,0,1.858,0,.039-.266.078-.531.116-.8" transform="translate(-24.026 -139.638)"/>
              <path id="패스_1022" data-name="패스 1022" class="cls-6" d="M261.439,309.54c-.393,2.425-.927,4.838-1.15,7.279q-.681,7.439-1.045,14.906c-.055,1.146-.455,3.018,1.436,3.129,1.851.108,1.58-1.747,1.6-2.832.155-7.011.182-14.025.224-21.038a6.154,6.154,0,0,0-.341-1.43l-.728-.013" transform="translate(-168.792 -201.596)"/>
              <path id="패스_1023" data-name="패스 1023" class="cls-6" d="M290.4,22.162c.2-.568.394-1.139.6-1.7q3.015-8.2,6.036-16.393a12.881,12.881,0,0,0,.866-2.393A1.683,1.683,0,0,0,297.26.261a1.782,1.782,0,0,0-1.51.251A3.98,3.98,0,0,0,294.676,1.9a37.184,37.184,0,0,0-5.027,17.983,19.058,19.058,0,0,0,.227,2.222l.521.061" transform="translate(-188.642 -0.114)"/>
              <path id="패스_1024" data-name="패스 1024" class="cls-6" d="M391.264,293.21c1.3.4,2.582.829,3.89,1.184a50.756,50.756,0,0,1,14.279,6.047c.64.41,1.722.133,2.6.173-.286-.828-.33-1.923-.9-2.441-3.58-3.258-8.023-4.668-12.691-5.37-2.333-.35-4.72-.349-7.082-.507q-.048.457-.1.915" transform="translate(-254.821 -190.365)"/>
              <path id="패스_1025" data-name="패스 1025" class="cls-6" d="M479.9,96.242c1.132-.127,2.276-.187,3.394-.392q4.456-.819,8.889-1.75c.977-.2,2.007-.5,1.827-1.865-.183-1.39-1.278-1.358-2.26-1.261a26.236,26.236,0,0,0-11.413,4,3.145,3.145,0,0,0-.606.7l.169.566" transform="translate(-312.436 -59.223)"/>
              <path id="패스_1026" data-name="패스 1026" class="cls-6" d="M360.348,10.586c2.04-1.48,4.108-2.923,6.109-4.454a45.373,45.373,0,0,0,4.337-3.681,2.036,2.036,0,0,0,.144-1.87,1.691,1.691,0,0,0-1.59-.526c-4.312,2.237-7.195,5.833-9.588,9.86l.587.67" transform="translate(-234.304 -0.001)"/>
              <path id="패스_1027" data-name="패스 1027" class="cls-6" d="M81.984,236.864c-.446-.286-.688-.549-.972-.607a25.322,25.322,0,0,0-12.473.246,2.1,2.1,0,0,0-1.214,1.618,2.005,2.005,0,0,0,1.553,1.249c4.16-.554,8.3-1.274,12.438-1.962.16-.027.292-.229.669-.543" transform="translate(-43.845 -153.44)"/>
              <path id="패스_1028" data-name="패스 1028" class="cls-6" d="M19.473,127.612c-.858-.683-1.234-1.207-1.712-1.326-3.662-.922-7.329-1.849-11.035-2.554A2.553,2.553,0,0,0,4.6,125.017c-.455,1.416.843,1.708,1.905,1.821,3.584.38,7.173.713,10.764,1.025a13.7,13.7,0,0,0,2.206-.251" transform="translate(-2.933 -80.576)"/>
              <path id="패스_1029" data-name="패스 1029" class="cls-6" d="M506.541,314.471a4.378,4.378,0,0,0,.725,1.022c3.2,2.284,6.394,4.592,9.683,6.748.5.325,1.477-.091,2.235-.164-.141-.7-.035-1.676-.461-2.061a25.945,25.945,0,0,0-11.273-5.728c-.21-.053-.47.088-.909.182" transform="translate(-329.899 -204.682)"/>
              <path id="패스_1030" data-name="패스 1030" class="cls-6" d="M417.654,478.813a14.572,14.572,0,0,0,.405,3.19c1.1,3.063,2.273,6.1,3.615,9.064.239.526,1.417.626,2.161.922.146-.744.641-1.654.38-2.206-1.8-3.8-3.753-7.535-5.657-11.287l-.9.317" transform="translate(-272.008 -311.633)"/>
              <path id="패스_1031" data-name="패스 1031" class="cls-6" d="M95.251,29.993a22.154,22.154,0,0,0-2.42-3.461,85.92,85.92,0,0,0-6.587-5.8,2.265,2.265,0,0,0-2.162-.038c-.951.761-.387,1.58.453,2.222,3.111,2.372,6.2,4.774,9.312,7.14a3.457,3.457,0,0,0,1.021.35l.384-.417" transform="translate(-54.437 -13.313)"/>
            </g>
          </g>
        </g>
        <path id="패스_1032" data-name="패스 1032" class="cls-7" d="M499.475,756.15c.878-1.624,2.3-3.171,2.539-4.885.971-6.858,1.771-13.754,2.251-20.664a74.619,74.619,0,0,0-.573-14.758c-2.1,13.3-1.837,26.8-5.717,39.837l1.5.469" transform="translate(-324.32 -466.213)"/>
        <path id="패스_1033" data-name="패스 1033" class="cls-7" d="M563.908,598.462c-1.255.1-2.7-.17-3.732.367-5.1,2.664-10.451,5.057-15.016,8.476-4.956,3.712-9.144,8.448-13.4,13.043,10.876-6.859,19.254-17.422,32.467-20.625q-.156-.631-.315-1.261" transform="translate(-346.32 -389.765)"/>
        <path id="패스_1034" data-name="패스 1034" class="cls-7" d="M537.087,707.354c5.532,11.526,14.317,21.088,16.341,34.184l1.185-.208c0-1.474.449-3.136-.077-4.389-2.4-5.74-4.669-11.607-7.789-16.959-2.649-4.542-6.4-8.443-9.66-12.627" transform="translate(-349.792 -460.683)"/>
        <path id="패스_1035" data-name="패스 1035" class="cls-7" d="M410.333,574.133c5.772.743,9.584,4.328,13,8.461,5.03,6.086,10.009,12.213,15.014,18.32.284.346.6.669,1.035,1.159-1.964-10.982-21.125-29.7-29.048-27.94" transform="translate(-267.24 -373.844)"/>
        <path id="패스_1036" data-name="패스 1036" class="cls-7" d="M378.872,708.895c10.535-7.907,22.485-10.723,33.7-15.135-9.364.258-30.888,7.695-33.7,15.135" transform="translate(-246.751 -451.83)"/>
        <path id="패스_1037" data-name="패스 1037" class="cls-7" d="M571.014,673.785c5.226,0,10.471-.283,15.672.081,4.963.347,9.879,1.367,15.628,2.21-4.143-5.107-17.34-5.818-31.3-2.291" transform="translate(-371.888 -437.395)"/>
        <path id="패스_1038" data-name="패스 1038" class="cls-7" d="M403.329,662.076q15.105,1.3,30.209,2.609c-9.92-3.123-19.871-5.9-30.209-2.609" transform="translate(-262.679 -430.23)"/>
        <path id="패스_1039" data-name="패스 1039" class="cls-7" d="M559.32,699.673l29.238,12.295c-1.968-3.837-19.547-11.349-29.238-12.295" transform="translate(-364.272 -455.681)"/>
        <path id="패스_1040" data-name="패스 1040" class="cls-7" d="M440.23,623.907c-4.993-5.2-9.629-11-17.355-11.844l-.637.984,17.992,10.86" transform="translate(-274.994 -398.623)"/>
        <path id="패스_1041" data-name="패스 1041" class="cls-7" d="M450.122,698.208c-7.914,2.765-15.556,5.963-20.821,12.952l20.821-12.952" transform="translate(-279.594 -454.727)"/>
        <path id="패스_1042" data-name="패스 1042" class="cls-7" d="M532.524,549.4c-5.408,7.514-7.256,16.27-8.966,25.826,3.144-9.056,6.055-17.441,8.966-25.826" transform="translate(-340.981 -357.808)"/>
        <path id="패스_1043" data-name="패스 1043" class="cls-7" d="M597.318,641.6c-7.115-.5-13.541,1.988-20.438,5.172l20.687-3.952q-.124-.61-.249-1.22" transform="translate(-375.709 -417.817)"/>
        <path id="패스_1044" data-name="패스 1044" class="cls-7" d="M571.023,625.4c-6.906,1.786-12.21,6.186-17.738,11.4l18.361-10.318-.623-1.078" transform="translate(-360.342 -407.306)"/>
        <path id="패스_1045" data-name="패스 1045" class="cls-7" d="M533.893,729.047c1.113,7.01,2.081,13.1,3.119,19.632,2.085-4.564.841-12.393-3.119-19.632" transform="translate(-347.712 -474.812)"/>
        <path id="패스_1046" data-name="패스 1046" class="cls-7" d="M468.135,589.671c6.8,4.045,9.469,10.908,12.484,17.594.07-7.086-7.168-17.7-12.484-17.594" transform="translate(-304.886 -384.039)"/>
        <path id="패스_1047" data-name="패스 1047" class="cls-7" d="M568.437,717.646l11.606,12.5.772-.81c-2.576-5.49-7.527-8.625-12.378-11.687" transform="translate(-370.21 -467.386)"/>
        <path id="패스_1048" data-name="패스 1048" class="cls-7" d="M504.124,583.525c.97-7.4-1.535-16.588-4.781-17.845,1.614,6.025,3.317,12.38,4.781,17.845" transform="translate(-325.211 -368.414)"/>
        <path id="패스_1049" data-name="패스 1049" class="cls-7" d="M413.164,681.9c-7.265.2-13.706.2-19.168,4.58l19.168-4.58" transform="translate(-256.601 -444.105)"/>
        <path id="패스_1050" data-name="패스 1050" class="cls-7" d="M445.4,727.891c-5.338,3.239-9.646,9.608-9.1,13.771l9.1-13.771" transform="translate(-284.12 -474.059)"/>
        <path id="패스_1051" data-name="패스 1051" class="cls-7" d="M538.8,601.6l11.359-13.167-.89-.66c-5.337,3.163-7.745,8.635-10.469,13.827" transform="translate(-350.905 -382.806)"/>
        <path id="패스_1052" data-name="패스 1052" class="cls-7" d="M490.535,776.172c4.26-5.2,3.2-11.533,3.384-17.6q-1.691,8.8-3.384,17.6" transform="translate(-319.474 -494.039)"/>
        <path id="패스_1053" data-name="패스 1053" class="cls-7" d="M569.172,686.074l17.706,3.689c.055-.3.109-.593.165-.889-5.674-2.727-11.79-3.2-17.871-2.8" transform="translate(-370.689 -446.743)"/>
        <path id="패스_1054" data-name="패스 1054" class="cls-7" d="M391.833,638.119l16.522,1.8c-5.606-1.772-10.845-4.309-16.522-1.8" transform="translate(-255.192 -414.906)"/>
        <path id="패스_1055" data-name="패스 1055" class="cls-7" d="M546.98,747.758c.917-6.113-1.746-11.266-4.892-16.293l4.892,16.293" transform="translate(-353.049 -476.386)"/>
        <path id="패스_1056" data-name="패스 1056" class="cls-7" d="M484.063,716.69c-3.265,3.56-6.223,7.222-5.3,12.591l5.3-12.591" transform="translate(-311.696 -466.764)"/>
        <path id="패스_1057" data-name="패스 1057" class="cls-7" d="M481.515,767.241c.861-3.36,1.639-6.4,2.387-9.315-3.035,2.4-4.067,5.835-2.387,9.315" transform="translate(-313.077 -493.62)"/>
        <path id="패스_1058" data-name="패스 1058" class="cls-7" d="M423.665,689.822l10.824-1.879c-.034-.245-.068-.491-.1-.737l-10.863,1.518.142,1.1" transform="translate(-275.831 -447.562)"/>
        <path id="패스_1059" data-name="패스 1059" class="cls-7" d="M589.544,664.11l12.133-.726c0-.086-.008-.173-.012-.259H589.6q-.029.493-.058.985" transform="translate(-383.956 -431.878)"/>
      </g>
    </g>
  </g>
</svg>
