<svg xmlns="http://www.w3.org/2000/svg" xmlns:xlink="http://www.w3.org/1999/xlink" width="264.773" height="276.85" viewBox="0 0 264.773 276.85">
  <defs>
    <style>
      .cls-1 {
        fill: none;
      }

      .cls-2 {
        clip-path: url(#clip-path);
      }

      .cls-3 {
        clip-path: url(#clip-path-2);
      }

      .cls-4 {
        opacity: 0.1;
      }

      .cls-5 {
        clip-path: url(#clip-path-3);
      }

      .cls-6 {
        fill: #ffc4fd;
      }

      .cls-6, .cls-7 {
        fill-rule: evenodd;
      }

      .cls-7 {
        fill: #fff;
      }
    </style>
    <clipPath id="clip-path">
      <rect id="사각형_340" data-name="사각형 340" class="cls-1" width="264.773" height="276.85" transform="translate(0 182.891)"/>
    </clipPath>
    <clipPath id="clip-path-2">
      <rect id="사각형_339" data-name="사각형 339" class="cls-1" width="264.773" height="459.743"/>
    </clipPath>
    <clipPath id="clip-path-3">
      <rect id="사각형_338" data-name="사각형 338" class="cls-1" width="264.773" height="264.51"/>
    </clipPath>
  </defs>
  <g id="그룹_541" data-name="그룹 541" transform="translate(0 -182.891)">
    <g id="그룹_540" data-name="그룹 540" class="cls-2">
      <g id="그룹_539" data-name="그룹 539" transform="translate(0 -0.002)">
        <g id="그룹_538" data-name="그룹 538" class="cls-3">
          <g id="그룹_537" data-name="그룹 537" class="cls-4" transform="translate(0 195.233)">
            <g id="그룹_536" data-name="그룹 536">
              <g id="그룹_535" data-name="그룹 535" class="cls-5">
                <path id="패스_1060" data-name="패스 1060" class="cls-6" d="M363.748,811.859c6.867-1.1,13.7-2.508,20.609-3.232a183.138,183.138,0,0,1,63.777,4.294A126.964,126.964,0,0,1,477.76,823.97a12.821,12.821,0,0,1,2.8,1.74,12.123,12.123,0,0,1,1.623,2.508,9.074,9.074,0,0,1-2.91.324,25.224,25.224,0,0,1-4.392-1.606c-29.828-12.787-61.016-17.258-93.259-15.222-5.043.319-10.075.818-15.114,1.208-.875.068-1.761.009-2.641.009q-.059-.536-.118-1.073" transform="translate(-217.408 -677.908)"/>
                <path id="패스_1061" data-name="패스 1061" class="cls-6" d="M128.274,811.735c-2.218-.108-4.442-.142-6.652-.333A233.783,233.783,0,0,0,18.4,825.214c-2.063.77-4.167,1.456-6.294,2.02-.564.15-1.287-.3-1.937-.477.244-.708.276-1.738.771-2.065a38.19,38.19,0,0,1,5.533-3.052c17.142-7.567,35.158-11.68,53.743-13.562a198.67,198.67,0,0,1,45.943.543c4.1.537,8.161,1.449,12.239,2.19-.04.307-.08.616-.12.924" transform="translate(-6.075 -677.57)"/>
                <path id="패스_1062" data-name="패스 1062" class="cls-6" d="M346.935,756.807a33.574,33.574,0,0,1,2.7-2.447c22.906-16.815,48.259-28.094,76.3-32.841,8.473-1.434,17.177-1.532,25.783-2.119a19.16,19.16,0,0,1,5.194.571c.639.136,1.135.952,1.7,1.458-.566.485-1.088,1.315-1.707,1.395-3,.389-6.031.674-9.058.821-27.837,1.349-53.871,9.263-78.619,21.723-6.726,3.386-13.214,7.246-19.817,10.879-.686.378-1.409.688-2.116,1.029l-.354-.468" transform="translate(-207.359 -625.194)"/>
                <path id="패스_1063" data-name="패스 1063" class="cls-6" d="M292.335,835.911c-1.86,5.747-3.809,11.468-5.566,17.247-9.233,30.371-12.734,61.471-11.74,93.136.082,2.572.134,5.154-.016,7.719a7.407,7.407,0,0,1-1.2,2.47c-.56-.71-1.5-1.363-1.615-2.139a114.1,114.1,0,0,1-1.5-12.577c-1.283-34,4.139-66.847,17.227-98.335,1.111-2.674,2.488-5.237,3.742-7.853l.663.331" transform="translate(-161.687 -694.648)"/>
                <path id="패스_1064" data-name="패스 1064" class="cls-6" d="M354.175,859.484c4.121,5.708,8.582,11.205,12.3,17.163,16.79,26.875,26.541,56.033,27.688,87.863a49.647,49.647,0,0,1-.235,6.884c-.074.723-.9,1.369-1.375,2.051-.483-.679-1.3-1.315-1.4-2.043-.772-5.922-1.367-11.868-2.1-17.8a205.556,205.556,0,0,0-31.757-87.069q-2.055-3.2-4.124-6.384l.992-.67" transform="translate(-211.094 -708.935)"/>
                <path id="패스_1065" data-name="패스 1065" class="cls-6" d="M186.333,823.494a17.158,17.158,0,0,1-1.758,1.075c-26.886,12.4-49.522,30.464-69.493,52.084-3.93,4.254-7.8,8.565-11.8,12.746-.631.659-1.838.765-2.778,1.126.077-1.065-.257-2.468.294-3.145,5.628-6.9,11.008-14.061,17.206-20.42,16.963-17.4,36.261-31.629,58.834-41.058,2.984-1.246,6.125-2.123,9.194-3.17l.3.762" transform="translate(-60.05 -686.969)"/>
                <path id="패스_1066" data-name="패스 1066" class="cls-6" d="M350.529,826.373c4.9,1.116,9.857,2,14.678,3.384,26.236,7.512,50.134,19.542,70.946,37.349a118.266,118.266,0,0,1,9.136,9.167c.527.562.424,1.715.612,2.6-.894-.157-2.014-.024-2.646-.517-6.018-4.691-11.833-9.647-17.933-14.224A221.811,221.811,0,0,0,369.475,833.9c-5.5-2.057-11.115-3.818-16.679-5.714l-2.512-.855q.123-.479.244-.957" transform="translate(-209.362 -689.145)"/>
                <path id="패스_1067" data-name="패스 1067" class="cls-6" d="M155.085,752.771c-.937-.468-1.89-.905-2.807-1.409-17.955-9.872-36.534-18.2-56.5-23.176a148.472,148.472,0,0,0-38.834-4.244c-1.375.025-3.938-.728-3.951-1.18-.07-2.357,2.261-1.935,3.678-2.163,10.307-1.654,20.569-.8,30.717,1.224,23.607,4.709,45.125,14.369,64.947,27.921,1.089.745,2.077,1.641,3.111,2.465l-.355.561" transform="translate(-31.669 -625.403)"/>
                <path id="패스_1068" data-name="패스 1068" class="cls-6" d="M338.157,844.26c1.268,4,2.65,7.965,3.787,12,4.921,17.455,8.986,35.111,10.95,53.156,1.221,11.222,2.387,22.522.225,33.789a44.432,44.432,0,0,1-2,6.855c-.249.683-1.213,1.1-1.849,1.643-.321-.842-.963-1.7-.914-2.525.387-6.507,1.535-13.036,1.245-19.5a331.766,331.766,0,0,0-3.024-34.547c-2.395-15.9-5.751-31.647-8.69-47.461-.2-1.062-.338-2.134-.505-3.2l.774-.2" transform="translate(-201.65 -699.836)"/>
                <path id="패스_1069" data-name="패스 1069" class="cls-6" d="M170.461,821.781c-1.711.733-2.813,1.269-3.958,1.685-14.948,5.422-29.627,11.491-43.561,19.173a183.654,183.654,0,0,0-36.29,25.831A22.381,22.381,0,0,1,83.4,871c-.419.263-1.475.241-1.676-.045a2.129,2.129,0,0,1-.235-1.9,28.9,28.9,0,0,1,3.346-4.361c10.414-10.893,22.843-18.952,36.182-25.77a210.742,210.742,0,0,1,40.965-16.012c2.3-.622,4.664-1.025,7-1.5.217-.044.475.111,1.471.371" transform="translate(-48.624 -686.174)"/>
                <path id="패스_1070" data-name="패스 1070" class="cls-6" d="M263.875,672.675c-.557-1.7-1.157-3.385-1.666-5.1-5.133-17.277-10.91-34.315-19.129-50.416A119.181,119.181,0,0,0,223.585,588.9c-1.007-1.061-3.162-2.183-1.559-3.922.426-.461,3.029.48,4.161,1.374,7.34,5.794,12.589,13.357,17.07,21.415,10.595,19.053,17.126,39.548,21.026,60.929.225,1.239.247,2.515.363,3.773l-.772.2" transform="translate(-132.359 -544.795)"/>
                <path id="패스_1071" data-name="패스 1071" class="cls-6" d="M397.969,881.046c2.9,2.356,5.858,4.632,8.675,7.079,15.819,13.742,30.445,28.6,42.2,46.05,4.584,6.8,8.651,13.913,10.471,22.05a14.391,14.391,0,0,1,.343,3.546,1.746,1.746,0,0,1-.966,1.349c-.435.091-1.108-.395-1.495-.8a4.239,4.239,0,0,1-.695-1.487c-5.222-14.508-13.708-27.1-23.7-38.593-10.856-12.484-22.366-24.4-33.589-36.566-.614-.665-1.221-1.336-1.832-2l.584-.623" transform="translate(-237.513 -721.823)"/>
                <path id="패스_1072" data-name="패스 1072" class="cls-6" d="M341.3,659.886a34.125,34.125,0,0,1,.5-3.461c4.905-19.9,11.889-39.016,22.124-56.83,3.993-6.95,8.571-13.537,14.774-18.765a38.921,38.921,0,0,1,5.925-3.981c.609-.346,1.652.071,2.5.14-.207.791-.147,1.9-.658,2.329-13.019,10.967-21.042,25.482-28.05,40.5-5.429,11.638-9.748,23.791-14.56,35.716l-1.824,4.52-.727-.17" transform="translate(-203.991 -539.926)"/>
                <path id="패스_1073" data-name="패스 1073" class="cls-6" d="M162.333,794.147c-6.254-.886-12.5-1.847-18.763-2.645-23.2-2.957-46.392-3.393-69.549.516a41.731,41.731,0,0,1-5.472.637c-.672.024-1.367-.589-2.051-.911.49-.659.87-1.758,1.485-1.909,5.429-1.337,10.843-2.972,16.367-3.643,25.341-3.071,50.286-.644,74.851,6.11.885.243,1.744.584,2.605.9a3.656,3.656,0,0,1,.645.4c-.038.179-.078.357-.117.535" transform="translate(-39.745 -664.345)"/>
                <path id="패스_1074" data-name="패스 1074" class="cls-6" d="M363.986,798c3.7-.927,7.368-2.018,11.105-2.754,25.168-4.963,50.373-5.429,75.591-.36a41.834,41.834,0,0,1,6.326,1.883c.592.22.921,1.144,1.37,1.745-.675.338-1.382,1.019-2.02.959-4.114-.389-8.222-.864-12.313-1.451a258.284,258.284,0,0,0-72.546.023c-2.438.338-4.889.581-7.334.868q-.088-.456-.179-.913" transform="translate(-217.55 -668.18)"/>
                <path id="패스_1075" data-name="패스 1075" class="cls-6" d="M289.4,658.792c-1.036-4.148-2.1-8.29-3.1-12.448-3.993-16.636-8.041-33.27-14.527-49.147-2.666-6.526-6.155-12.717-9.282-19.053a10.156,10.156,0,0,1-1.054-1.92c-.143-.62-.082-1.751.252-1.914a2.325,2.325,0,0,1,2.128.11,32.5,32.5,0,0,1,4.328,4.964c6.1,9.135,9.626,19.4,12.687,29.826a258.409,258.409,0,0,1,9.356,47c.079.79.01,1.594.01,2.392l-.8.192" transform="translate(-156.217 -538.369)"/>
                <path id="패스_1076" data-name="패스 1076" class="cls-6" d="M204.685,898.886c-2.82,3.926-5.733,7.788-8.443,11.787-12.4,18.305-20.572,38.487-26.353,59.721a56.413,56.413,0,0,1-2.14,6.536c-.259.634-1.283.956-1.956,1.422-.349-.671-1.068-1.393-.983-2a93.8,93.8,0,0,1,1.9-11.1c6.1-23.068,16.187-44.1,32.212-62.015,1.573-1.758,3.41-3.279,5.125-4.91l.638.564" transform="translate(-98.501 -732.148)"/>
                <path id="패스_1077" data-name="패스 1077" class="cls-6" d="M342.823,697.407c1-2.511,1.894-5.071,3.022-7.524,8.659-18.829,19.268-36.375,34.417-50.776,3.437-3.267,7.473-5.912,11.311-8.74a10.989,10.989,0,0,1,3.7-1.771,10.641,10.641,0,0,1,3.214.165c-.537.936-.84,2.2-1.641,2.759-19.993,13.872-33.461,33.283-45.729,53.716-2.033,3.385-3.974,6.825-5.982,10.224-.476.805-1.053,1.55-1.583,2.322l-.729-.375" transform="translate(-204.902 -570.881)"/>
                <path id="패스_1078" data-name="패스 1078" class="cls-6" d="M315.423,833.328a25.1,25.1,0,0,1-.011,2.535c-1.5,14.721-3.091,29.433-4.494,44.162-1,10.521-1.742,21.066-2.61,31.6a45.369,45.369,0,0,1-.6,5.472c-.151.73-.989,1.316-1.515,1.969-.587-.686-1.614-1.33-1.687-2.067a67.131,67.131,0,0,1-.455-9.624c.889-19.683,3.629-39.151,7.144-58.516.787-4.338,1.74-8.647,2.654-12.96.193-.914.55-1.794.831-2.69l.745.12" transform="translate(-181.704 -693.23)"/>
                <path id="패스_1079" data-name="패스 1079" class="cls-6" d="M407.451,665.258c2.932-3.413,5.634-7.062,8.835-10.2,13.3-13.032,29.32-21.74,46.492-28.437,5.889-2.3,12.046-3.91,18.084-5.824a2.838,2.838,0,0,1,1.343-.245c.952.213,1.868.585,2.8.894-.588.707-1.04,1.674-1.792,2.068a39.649,39.649,0,0,1-5.1,2.078c-16.991,6.1-33.8,12.671-48.741,23-6.77,4.679-12.868,10.334-19.211,15.618a7.58,7.58,0,0,0-1.291,2.368l-1.42-1.318" transform="translate(-243.529 -566.115)"/>
                <path id="패스_1080" data-name="패스 1080" class="cls-6" d="M179.5,631.391c-1.114-1.525-2.06-2.729-2.908-4-8.695-13-17.871-25.6-29.311-36.387a85.194,85.194,0,0,0-23.032-15.88,8.166,8.166,0,0,1-2.17-1.168,2.333,2.333,0,0,1-.818-1.79,2.03,2.03,0,0,1,1.614-1.031,10.58,10.58,0,0,1,3.221.587c9.151,2.938,16.621,8.556,23.4,15.115a142.393,142.393,0,0,1,29.295,41.038,20.069,20.069,0,0,1,.914,2.3c.072.214-.074.5-.2,1.215" transform="translate(-72.461 -536.593)"/>
                <path id="패스_1081" data-name="패스 1081" class="cls-6" d="M158.575,676.7c-3.228-3.235-6.418-6.509-9.689-9.7-12.069-11.772-25.225-22.032-41.012-28.381-4.926-1.981-10.151-3.216-15.24-4.791a13.2,13.2,0,0,1-2.613-.834c-.533-.3-.822-1.033-1.22-1.572.547-.4,1.113-1.174,1.637-1.145a52.51,52.51,0,0,1,8.474.825c13.522,2.97,25.072,9.856,35.681,18.473a121.594,121.594,0,0,1,22.766,23.9c.631.889,1.175,1.839,1.76,2.76l-.545.462" transform="translate(-53.076 -571.94)"/>
                <path id="패스_1082" data-name="패스 1082" class="cls-6" d="M176.222,728.185c-2.646-1.567-5.319-3.09-7.934-4.707-11.275-6.967-22.816-13.518-35.267-18.07-8.155-2.982-16.761-4.722-25.13-7.137-1.014-.293-1.817-1.319-2.718-2,1.065-.507,2.123-1.435,3.2-1.452,8.814-.139,17.068,2.484,25.089,5.748a158.206,158.206,0,0,1,39.445,23.4c1,.8,1.932,1.7,2.877,2.568.322.3.589.65.882.977l-.439.675" transform="translate(-62.86 -610.511)"/>
                <path id="패스_1083" data-name="패스 1083" class="cls-6" d="M448.029,829.026c1.666.173,3.344.26,4.993.532,20.068,3.312,39.882,7.664,58.8,15.329,4.035,1.635,7.71,4.2,11.428,6.535.665.416.729,1.793,1.07,2.726-.9.012-1.965.347-2.679-.012-18.693-9.392-38.866-14.416-58.834-20.045q-6.5-1.832-12.983-3.713a19.04,19.04,0,0,1-1.914-.78c.041-.191.083-.381.124-.572" transform="translate(-267.708 -690.731)"/>
                <path id="패스_1084" data-name="패스 1084" class="cls-6" d="M321.849,575.857c-.34-3.227-.782-6.447-1-9.682-1.443-21.173-3.268-42.3-7.049-63.215-.184-1.015.587-2.2.914-3.31.842.8,2.227,1.469,2.439,2.407,1.659,7.325,3.627,14.639,4.488,22.075a266.535,266.535,0,0,1,1.445,48.412c-.073,1.108-.268,2.207-.406,3.311l-.829,0" transform="translate(-187.537 -493.866)"/>
                <path id="패스_1085" data-name="패스 1085" class="cls-6" d="M234.222,830.237a7,7,0,0,1-1.017.755c-14.529,7.239-26.079,18.086-36.4,30.336-4.973,5.9-9.519,12.163-14.4,18.145-.9,1.108-3.232,2.62-3.631,2.31-1.934-1.5-.15-3.148.677-4.459,11.494-18.242,25.655-33.817,44.945-44.093a91.25,91.25,0,0,1,9.45-3.8l.38.805" transform="translate(-106.331 -690.974)"/>
                <path id="패스_1086" data-name="패스 1086" class="cls-6" d="M364.735,858.037c1,1.04,2.066,2.02,2.976,3.131,11.284,13.769,21.441,28.289,28.746,44.6,1.786,3.989,2.759,8.347,4.015,12.563a5.567,5.567,0,0,1,.074,2.732,8.352,8.352,0,0,1-1.235,2.155c-.682-.591-1.7-1.051-1.99-1.795-1.454-3.769-2.5-7.7-4.082-11.411-6.731-15.8-16.058-30.149-25.1-44.655-1.392-2.233-2.713-4.51-4.068-6.767l.666-.554" transform="translate(-217.6 -708.07)"/>
                <path id="패스_1087" data-name="패스 1087" class="cls-6" d="M358.688,839.412c2.234.95,4.51,1.813,6.7,2.865,14.118,6.8,27.654,14.546,39.277,25.193a81.992,81.992,0,0,1,8.1,9.333,10.849,10.849,0,0,1,1.883,3.94c.208.779-.35,1.762-.563,2.654-.837-.39-2-.549-2.461-1.2-8.431-11.874-20.173-19.961-31.954-27.974-6.146-4.181-12.5-8.059-18.749-12.087-.9-.582-1.757-1.237-2.634-1.859q.2-.431.405-.862" transform="translate(-214.142 -696.938)"/>
                <path id="패스_1088" data-name="패스 1088" class="cls-6" d="M349.068,569.262c0-3.555-.241-7.131.042-10.665,1.226-15.359,3.949-30.431,9.793-44.765a104.985,104.985,0,0,1,6.5-12.389c.444-.773,1.85-.993,2.812-1.468.01,1.026.321,2.165-.018,3.059-2.8,7.378-5.98,14.621-8.545,22.078-4.676,13.592-7.035,27.746-9.434,41.871-.132.779-.33,1.547-.5,2.32l-.652-.04" transform="translate(-208.577 -494.061)"/>
                <path id="패스_1089" data-name="패스 1089" class="cls-6" d="M267.75,863.5c-7.532,10.564-10.938,22.628-14.307,34.664-2.428,8.671-4.436,17.459-6.655,26.189A18.407,18.407,0,0,1,245.579,928c-.308.622-1.122.993-1.707,1.477-.463-.687-1.345-1.393-1.315-2.057a44.919,44.919,0,0,1,.855-6.828c3.387-16.72,7.666-33.17,16.261-48.1,1.795-3.117,4.58-5.667,6.945-8.446.248-.293.747-.372,1.131-.55" transform="translate(-144.973 -711.334)"/>
                <path id="패스_1090" data-name="패스 1090" class="cls-6" d="M409.871,721.406c2.729-2.111,5.358-4.369,8.2-6.31a125.272,125.272,0,0,1,45.864-19.565,27.684,27.684,0,0,1,6.024-.611c.967.02,1.917.872,2.874,1.347-.742.669-1.379,1.678-2.244,1.945-3.071.947-6.214,1.661-9.34,2.427-17.393,4.264-33.479,11.639-48.927,20.537-.477.274-.962.538-1.458.776a1.507,1.507,0,0,1-.518.042l-.479-.59" transform="translate(-244.975 -610.575)"/>
                <path id="패스_1091" data-name="패스 1091" class="cls-6" d="M128.286,617.785c-2.955-2.452-5.876-4.948-8.869-7.349-12.792-10.265-26.953-17.748-43.127-21.117a11.158,11.158,0,0,1-2.885-.877c-.533-.278-1.173-1.075-1.116-1.563a1.947,1.947,0,0,1,1.424-1.271,28.913,28.913,0,0,1,6.29.315c19.547,3.973,35.052,14.506,47.679,29.636a13.337,13.337,0,0,1,1.085,1.8l-.482.425" transform="translate(-43.205 -545.225)"/>
                <path id="패스_1092" data-name="패스 1092" class="cls-6" d="M388.821,623.441a18.4,18.4,0,0,1,1.038-2.484C398.945,606.4,409,592.6,421.532,580.782a51.532,51.532,0,0,1,8.31-5.806c.609-.379,1.763.119,2.666.213-.312.85-.37,2-.972,2.506-14.081,11.753-25.189,26.237-36.982,40.092-1.489,1.75-3.036,3.452-4.577,5.156-.157.173-.465.209-1.156.5" transform="translate(-232.394 -538.804)"/>
                <path id="패스_1093" data-name="패스 1093" class="cls-6" d="M357.7,611.774c.463-3.9.733-7.837,1.425-11.7,2.364-13.194,5.9-26.011,13.151-37.491a31.1,31.1,0,0,1,4.14-5.13c.509-.517,1.72-.344,2.611-.487.049.83.416,1.819.093,2.463-1.357,2.71-2.969,5.289-4.4,7.964-6.021,11.264-9.9,23.332-13.268,35.587-.833,3.029-1.751,6.035-2.63,9.052l-1.123-.261" transform="translate(-213.795 -528.126)"/>
                <path id="패스_1094" data-name="패스 1094" class="cls-6" d="M380.822,948.809c.487,1.143,1.069,2.255,1.447,3.432,4.448,13.877,7.612,28.015,8.345,42.614a38.221,38.221,0,0,1-.391,7.41c-.139.952-1.191,1.769-1.827,2.649-.6-.884-1.628-1.719-1.733-2.659-.753-6.755-1.121-13.557-1.993-20.294-1.228-9.471-2.8-18.9-4.19-28.347-.224-1.521-.29-3.067-.428-4.6l.771-.2" transform="translate(-227.152 -762.324)"/>
                <path id="패스_1095" data-name="패스 1095" class="cls-6" d="M75.593,927.051c-3.155,3.413-6.472,6.69-9.431,10.265-8.668,10.468-17.193,21.056-25.779,31.592a13.826,13.826,0,0,1-2.012,2.245,9.214,9.214,0,0,1-2.251.964c-.13-.912-.652-2.014-.319-2.7a52.74,52.74,0,0,1,4.091-7.147,152.522,152.522,0,0,1,32.16-33.854c.929-.715,1.952-1.31,2.93-1.96l.609.595" transform="translate(-21.333 -748.964)"/>
                <path id="패스_1096" data-name="패스 1096" class="cls-6" d="M187.046,776.563c-3.783-.586-7.58-1.1-11.346-1.773a245.8,245.8,0,0,0-38.631-4.238,4.281,4.281,0,0,1-1.895-.232c-.63-.351-1.452-1.016-1.485-1.587a2.155,2.155,0,0,1,1.344-1.633,43.3,43.3,0,0,1,7.906-.919c10.55.131,20.847,2.09,30.991,4.848,3.9,1.06,7.7,2.457,11.533,3.743a12.178,12.178,0,0,1,1.826.967l-.244.826" transform="translate(-79.904 -653.167)"/>
                <path id="패스_1097" data-name="패스 1097" class="cls-6" d="M455.69,848.3a17.851,17.851,0,0,1,2.6.016c13.453,2.014,26.423,5.544,38.111,12.764a27.89,27.89,0,0,1,5.415,5.01c.444.479.188,1.606.253,2.435-.9.011-2.087.4-2.661-.027-12.106-9.026-26.4-13.1-40.341-17.972-1.189-.416-2.347-.923-3.519-1.386.045-.28.091-.561.136-.841" transform="translate(-272.28 -702.224)"/>
                <path id="패스_1098" data-name="패스 1098" class="cls-6" d="M237.227,646.681c-1.243-1.674-2.491-3.344-3.729-5.022-7.844-10.634-15.713-21.25-23.477-31.942-.606-.835-.478-2.2-.692-3.323,1.064.2,2.518.021,3.127.655,3.421,3.563,7.163,6.983,9.813,11.085,5.119,7.926,9.6,16.261,14.291,24.461a26.553,26.553,0,0,1,1.462,3.736l-.795.351" transform="translate(-125.114 -557.666)"/>
                <path id="패스_1099" data-name="패스 1099" class="cls-6" d="M411.4,713.121a10.751,10.751,0,0,1,1.07-1.8c7.263-8.169,15.448-15.177,25.4-19.9a10.96,10.96,0,0,1,3.672-1.033,2.272,2.272,0,0,1,1.854,1.105c.206.55-.3,1.443-.664,2.094-.2.356-.735.522-1.118.773q-13.247,8.659-26.5,17.313c-1.055.688-2.154,1.308-3.233,1.959l-.488-.509" transform="translate(-245.888 -607.865)"/>
                <path id="패스_1100" data-name="패스 1100" class="cls-6" d="M513.058,749.787c3.537-.859,7.031-2.1,10.619-2.5,8.2-.911,16.449-1.448,24.685-2.035a9.518,9.518,0,0,1,3.772.635,1.631,1.631,0,0,1-.226,3.224,43.963,43.963,0,0,1-5.221.347q-15.432.725-30.867,1.439c-.865.039-1.733,0-2.6,0q-.081-.558-.162-1.114" transform="translate(-306.649 -640.651)"/>
                <path id="패스_1101" data-name="패스 1101" class="cls-6" d="M333.786,860.584c.55,3.392,1.3,6.767,1.61,10.182q.953,10.406,1.462,20.851c.077,1.6.636,4.222-2.01,4.376-2.589.152-2.21-2.444-2.243-3.962-.217-9.807-.254-19.618-.312-29.428a8.561,8.561,0,0,1,.476-2l1.018-.018" transform="translate(-198.607 -709.593)"/>
                <path id="패스_1102" data-name="패스 1102" class="cls-6" d="M288.724,516.241c-.28-.795-.552-1.593-.843-2.384q-4.218-11.466-8.443-22.93a18.034,18.034,0,0,1-1.21-3.347,2.35,2.35,0,0,1,.9-1.974,2.49,2.49,0,0,1,2.111.351,5.567,5.567,0,0,1,1.5,1.935,52.006,52.006,0,0,1,7.031,25.154,26.44,26.44,0,0,1-.317,3.108l-.728.086" transform="translate(-166.286 -485.401)"/>
                <path id="패스_1103" data-name="패스 1103" class="cls-6" d="M140.574,840.954c-1.813.555-3.612,1.159-5.441,1.657a70.99,70.99,0,0,0-19.973,8.458c-.9.574-2.408.185-3.636.241.4-1.159.461-2.69,1.258-3.414,5.008-4.558,11.222-6.531,17.752-7.511,3.264-.49,6.6-.489,9.906-.71q.067.64.134,1.28" transform="translate(-66.657 -697.095)"/>
                <path id="패스_1104" data-name="패스 1104" class="cls-6" d="M46.516,602.954c-1.583-.177-3.184-.262-4.748-.549q-6.231-1.145-12.434-2.447c-1.367-.286-2.808-.706-2.557-2.609.257-1.944,1.788-1.9,3.163-1.764A36.688,36.688,0,0,1,45.9,601.179a4.419,4.419,0,0,1,.849.984l-.237.791" transform="translate(-15.987 -551.172)"/>
                <path id="패스_1105" data-name="패스 1105" class="cls-6" d="M197.551,500.08c-2.853-2.071-5.747-4.088-8.545-6.23a63.449,63.449,0,0,1-6.067-5.15,2.852,2.852,0,0,1-.2-2.616,2.365,2.365,0,0,1,2.224-.734c6.031,3.128,10.064,8.158,13.411,13.792q-.411.468-.822.937" transform="translate(-109.089 -485.274)"/>
                <path id="패스_1106" data-name="패스 1106" class="cls-6" d="M525.524,772.7c.624-.4.963-.767,1.36-.849a35.422,35.422,0,0,1,17.447.344,2.934,2.934,0,0,1,1.7,2.263,2.807,2.807,0,0,1-2.173,1.747c-5.818-.774-11.6-1.782-17.4-2.745-.224-.037-.408-.321-.936-.76" transform="translate(-314.1 -656.008)"/>
                <path id="패스_1107" data-name="패스 1107" class="cls-6" d="M600.624,640.725c1.2-.956,1.727-1.688,2.395-1.855,5.123-1.29,10.251-2.587,15.436-3.573a3.573,3.573,0,0,1,2.977,1.8c.637,1.981-1.18,2.389-2.664,2.547-5.014.531-10.035,1-15.058,1.433a19.168,19.168,0,0,1-3.086-.351" transform="translate(-358.986 -574.931)"/>
                <path id="패스_1108" data-name="패스 1108" class="cls-6" d="M17.686,866.6a6.158,6.158,0,0,1-1.014,1.43c-4.483,3.2-8.945,6.423-13.545,9.44-.694.455-2.067-.127-3.126-.229.2-.981.049-2.343.645-2.883a36.292,36.292,0,0,1,15.769-8.012c.294-.074.657.123,1.272.254" transform="translate(0 -713.026)"/>
                <path id="패스_1109" data-name="패스 1109" class="cls-6" d="M137.944,1065.881a20.4,20.4,0,0,1-.568,4.463c-1.532,4.284-3.179,8.537-5.056,12.678-.334.736-1.981.875-3.022,1.29-.2-1.041-.9-2.314-.533-3.085,2.514-5.322,5.249-10.539,7.913-15.79l1.264.443" transform="translate(-76.899 -832.032)"/>
                <path id="패스_1110" data-name="패스 1110" class="cls-6" d="M516.226,523.419a30.992,30.992,0,0,1,3.385-4.841,120.281,120.281,0,0,1,9.214-8.108,3.168,3.168,0,0,1,3.023-.053c1.331,1.064.542,2.211-.634,3.107-4.35,3.318-8.669,6.678-13.024,9.989a4.851,4.851,0,0,1-1.429.49l-.536-.584" transform="translate(-308.543 -500.087)"/>
              </g>
            </g>
          </g>
          <path id="패스_1111" data-name="패스 1111" class="cls-7" d="M456.057,253.152c-1.484-2.137-3.713-4.082-4.321-6.445-2.434-9.455-4.635-18.989-6.39-28.591a105.17,105.17,0,0,1-1.509-20.761c5.029,18.306,6.772,37.257,14.247,54.907l-2.026.891" transform="translate(-265.263 -117.954)"/>
          <path id="패스_1112" data-name="패스 1112" class="cls-7" d="M294.512,69.224c1.774-.055,3.763-.662,5.286-.071,7.56,2.934,15.431,5.446,22.361,9.521,7.523,4.422,14.132,10.4,20.818,16.169-16.308-7.9-29.7-21.388-48.708-23.8q.121-.909.243-1.817" transform="translate(-175.881 -41.177)"/>
          <path id="패스_1113" data-name="패스 1113" class="cls-7" d="M385.45,190.129c-5.943,17.011-16.75,31.782-17.535,50.443l-1.692-.107c-.231-2.065-1.12-4.322-.58-6.16,2.47-8.418,4.722-16.99,8.254-24.975,3-6.778,7.639-12.828,11.553-19.2" transform="translate(-218.438 -113.636)"/>
          <path id="패스_1114" data-name="패스 1114" class="cls-7" d="M497.027,11.374c-7.97,1.945-12.747,7.564-16.885,13.888-6.092,9.312-12.107,18.675-18.16,28.014-.343.529-.73,1.03-1.268,1.785,1.03-15.691,24.939-44.914,36.313-43.687" transform="translate(-275.364 -6.774)"/>
          <path id="패스_1115" data-name="패스 1115" class="cls-7" d="M537.618,181.016c-15.995-9.426-33.175-11.5-49.58-15.921,13.156-1.1,44.471,5.941,49.58,15.921" transform="translate(-291.695 -98.606)"/>
          <path id="패스_1116" data-name="패스 1116" class="cls-7" d="M305.335,157.47c-7.32.818-14.712,1.244-21.94,2.568-6.9,1.263-13.624,3.462-21.544,5.544,5-7.8,23.377-10.866,43.484-8.113" transform="translate(-156.506 -93.523)"/>
          <path id="패스_1117" data-name="패스 1117" class="cls-7" d="M509.506,119.1q-20.954,4.192-41.905,8.387c13.406-5.929,26.909-11.372,41.905-8.387" transform="translate(-279.48 -70.678)"/>
          <path id="패스_1118" data-name="패스 1118" class="cls-7" d="M329.112,183.822l-39.029,21.8c2.156-5.682,25.6-18.958,39.029-21.8" transform="translate(-173.379 -109.866)"/>
          <path id="패스_1119" data-name="패스 1119" class="cls-7" d="M483.607,78.393c6.18-8.061,11.764-16.922,22.454-19.309l1.046,1.279-23.5,18.03" transform="translate(-289.047 -35.312)"/>
          <path id="패스_1120" data-name="패스 1120" class="cls-7" d="M472.267,172.5c11.518,2.634,22.724,5.916,31.193,14.881L472.267,172.5" transform="translate(-282.269 -103.098)"/>
          <path id="패스_1121" data-name="패스 1121" class="cls-7" d="M378.892,0c8.752,9.678,12.712,21.654,16.6,34.771C389.674,22.573,384.283,11.285,378.892,0" transform="translate(-226.46 0.005)"/>
          <path id="패스_1122" data-name="패스 1122" class="cls-7" d="M286.508,122.889c9.888-1.815,19.28.663,29.44,4.044-10.455-.811-20.026-1.555-29.6-2.3q.078-.875.157-1.748" transform="translate(-171.149 -73.082)"/>
          <path id="패스_1123" data-name="패스 1123" class="cls-7" d="M321.53,99.725c9.952,1.42,18.071,6.753,26.631,13.184l-27.336-11.577.7-1.607" transform="translate(-191.754 -59.603)"/>
          <path id="패스_1124" data-name="패스 1124" class="cls-7" d="M416.452,216.035c-.463,9.994-.864,18.674-1.294,27.988-3.636-6.066-3.12-17.227,1.294-27.988" transform="translate(-246.695 -129.12)"/>
          <path id="패스_1125" data-name="패스 1125" class="cls-7" d="M460.814,37.883c-8.893,6.731-11.554,16.762-14.731,26.6-1.208-9.915,7.268-25.922,14.731-26.6" transform="translate(-266.55 -22.64)"/>
          <path id="패스_1126" data-name="패스 1126" class="cls-7" d="M355.425,206.882l-14.3,19.323-1.209-1.013c2.75-8.094,9.192-13.26,15.509-18.31" transform="translate(-203.164 -123.649)"/>
          <path id="패스_1127" data-name="패스 1127" class="cls-7" d="M430.4,38.734c-2.519-10.215-.449-23.476,3.9-25.745-1.317,8.692-2.707,17.86-3.9,25.745" transform="translate(-256.595 -7.761)"/>
          <path id="패스_1128" data-name="패스 1128" class="cls-7" d="M518.671,146.226c10.207-.863,19.23-1.87,27.568,3.412l-27.568-3.412" transform="translate(-310.004 -86.981)"/>
          <path id="패스_1129" data-name="패스 1129" class="cls-7" d="M508.514,204.934c7.985,3.7,15.017,11.947,14.9,17.865l-14.9-17.865" transform="translate(-303.933 -122.485)"/>
          <path id="패스_1130" data-name="패스 1130" class="cls-7" d="M375.5,66.979,357.528,50.315l1.143-1.065c7.972,3.595,12.2,10.882,16.831,17.729" transform="translate(-213.691 -29.434)"/>
          <path id="패스_1131" data-name="패스 1131" class="cls-7" d="M474.323,271.438c-6.781-6.617-6.289-15.654-7.5-24.127q3.748,12.064,7.5,24.127" transform="translate(-279.017 -147.813)"/>
          <path id="패스_1132" data-name="패스 1132" class="cls-7" d="M336.78,168.93l-24.224,7.941-.37-1.22c7.521-4.709,16.013-6.327,24.594-6.721" transform="translate(-186.59 -100.966)"/>
          <path id="패스_1133" data-name="패스 1133" class="cls-7" d="M548.4,87.54l-22.861,5.107c7.575-3.36,14.516-7.734,22.861-5.107" transform="translate(-314.107 -51.84)"/>
          <path id="패스_1134" data-name="패스 1134" class="cls-7" d="M400.481,243.673c-2.242-8.419.681-16.053,4.3-23.589q-2.149,11.795-4.3,23.589" transform="translate(-238.895 -131.54)"/>
          <path id="패스_1135" data-name="패스 1135" class="cls-7" d="M468.373,195.652c5.131,4.476,9.849,9.142,9.4,16.807l-9.4-16.807" transform="translate(-279.941 -116.937)"/>
          <path id="패스_1136" data-name="패스 1136" class="cls-7" d="M484.143,257.795l-4.8-12.675c4.627,2.889,6.61,7.537,4.8,12.675" transform="translate(-286.497 -146.504)"/>
          <path id="패스_1137" data-name="패스 1137" class="cls-7" d="M527.845,156.462l-15.456-.936c.009-.35.018-.7.027-1.048l15.455.424q-.013.781-.026,1.56" transform="translate(-306.249 -92.328)"/>
          <path id="패스_1138" data-name="패스 1138" class="cls-7" d="M320.366,144.945l-17.109.883c-.008-.12-.015-.243-.023-.364l16.9-1.889.235,1.371" transform="translate(-181.24 -85.811)"/>
        </g>
      </g>
    </g>
  </g>
</svg>
