<svg xmlns="http://www.w3.org/2000/svg" xmlns:xlink="http://www.w3.org/1999/xlink" width="99.425" height="99.938" viewBox="0 0 99.425 99.938">
  <defs>
    <style>
      .cls-1 {
        fill: none;
      }

      .cls-2 {
        clip-path: url(#clip-path);
      }

      .cls-3 {
        clip-path: url(#clip-path-2);
      }

      .cls-4 {
        fill: #fdffcc;
        fill-rule: evenodd;
      }
    </style>
    <clipPath id="clip-path">
      <rect id="사각형_337" data-name="사각형 337" class="cls-1" width="99.425" height="99.938" transform="translate(131 190)"/>
    </clipPath>
    <clipPath id="clip-path-2">
      <rect id="사각형_336" data-name="사각형 336" class="cls-1" width="230.425" height="289.937"/>
    </clipPath>
  </defs>
  <g id="그룹_533" data-name="그룹 533" class="cls-2" transform="translate(-131 -190)">
    <g id="그룹_532" data-name="그룹 532">
      <g id="그룹_531" data-name="그룹 531" class="cls-3">
        <path id="패스_1032" data-name="패스 1032" class="cls-4" d="M499.475,756.15c.878-1.624,2.3-3.171,2.539-4.885.971-6.858,1.771-13.754,2.251-20.664a74.619,74.619,0,0,0-.573-14.758c-2.1,13.3-1.837,26.8-5.717,39.837l1.5.469" transform="translate(-324.32 -466.213)"/>
        <path id="패스_1033" data-name="패스 1033" class="cls-4" d="M563.908,598.462c-1.255.1-2.7-.17-3.732.367-5.1,2.664-10.451,5.057-15.016,8.476-4.956,3.712-9.144,8.448-13.4,13.043,10.876-6.859,19.254-17.422,32.467-20.625q-.156-.631-.315-1.261" transform="translate(-346.32 -389.765)"/>
        <path id="패스_1034" data-name="패스 1034" class="cls-4" d="M537.087,707.354c5.532,11.526,14.317,21.088,16.341,34.184l1.185-.208c0-1.474.449-3.136-.077-4.389-2.4-5.74-4.669-11.607-7.789-16.959-2.649-4.542-6.4-8.443-9.66-12.627" transform="translate(-349.792 -460.683)"/>
        <path id="패스_1035" data-name="패스 1035" class="cls-4" d="M410.333,574.133c5.772.743,9.584,4.328,13,8.461,5.03,6.086,10.009,12.213,15.014,18.32.284.346.6.669,1.035,1.159-1.964-10.982-21.125-29.7-29.048-27.94" transform="translate(-267.24 -373.844)"/>
        <path id="패스_1036" data-name="패스 1036" class="cls-4" d="M378.872,708.895c10.535-7.907,22.485-10.723,33.7-15.135-9.364.258-30.888,7.695-33.7,15.135" transform="translate(-246.751 -451.83)"/>
        <path id="패스_1037" data-name="패스 1037" class="cls-4" d="M571.014,673.785c5.226,0,10.471-.283,15.672.081,4.963.347,9.879,1.367,15.628,2.21-4.143-5.107-17.34-5.818-31.3-2.291" transform="translate(-371.888 -437.395)"/>
        <path id="패스_1038" data-name="패스 1038" class="cls-4" d="M403.329,662.076q15.105,1.3,30.209,2.609c-9.92-3.123-19.871-5.9-30.209-2.609" transform="translate(-262.679 -430.23)"/>
        <path id="패스_1039" data-name="패스 1039" class="cls-4" d="M559.32,699.673l29.238,12.295c-1.968-3.837-19.547-11.349-29.238-12.295" transform="translate(-364.272 -455.681)"/>
        <path id="패스_1040" data-name="패스 1040" class="cls-4" d="M440.23,623.907c-4.993-5.2-9.629-11-17.355-11.844l-.637.984,17.992,10.86" transform="translate(-274.994 -398.623)"/>
        <path id="패스_1041" data-name="패스 1041" class="cls-4" d="M450.122,698.208c-7.914,2.765-15.556,5.963-20.821,12.952l20.821-12.952" transform="translate(-279.594 -454.727)"/>
        <path id="패스_1042" data-name="패스 1042" class="cls-4" d="M532.524,549.4c-5.408,7.514-7.256,16.27-8.966,25.826,3.144-9.056,6.055-17.441,8.966-25.826" transform="translate(-340.981 -357.808)"/>
        <path id="패스_1043" data-name="패스 1043" class="cls-4" d="M597.318,641.6c-7.115-.5-13.541,1.988-20.438,5.172l20.687-3.952q-.124-.61-.249-1.22" transform="translate(-375.709 -417.817)"/>
        <path id="패스_1044" data-name="패스 1044" class="cls-4" d="M571.023,625.4c-6.906,1.786-12.21,6.186-17.738,11.4l18.361-10.318-.623-1.078" transform="translate(-360.342 -407.306)"/>
        <path id="패스_1045" data-name="패스 1045" class="cls-4" d="M533.893,729.047c1.113,7.01,2.081,13.1,3.119,19.632,2.085-4.564.841-12.393-3.119-19.632" transform="translate(-347.712 -474.812)"/>
        <path id="패스_1046" data-name="패스 1046" class="cls-4" d="M468.135,589.671c6.8,4.045,9.469,10.908,12.484,17.594.07-7.086-7.168-17.7-12.484-17.594" transform="translate(-304.886 -384.039)"/>
        <path id="패스_1047" data-name="패스 1047" class="cls-4" d="M568.437,717.646l11.606,12.5.772-.81c-2.576-5.49-7.527-8.625-12.378-11.687" transform="translate(-370.21 -467.386)"/>
        <path id="패스_1048" data-name="패스 1048" class="cls-4" d="M504.124,583.525c.97-7.4-1.535-16.588-4.781-17.845,1.614,6.025,3.317,12.38,4.781,17.845" transform="translate(-325.211 -368.414)"/>
        <path id="패스_1049" data-name="패스 1049" class="cls-4" d="M413.164,681.9c-7.265.2-13.706.2-19.168,4.58l19.168-4.58" transform="translate(-256.601 -444.105)"/>
        <path id="패스_1050" data-name="패스 1050" class="cls-4" d="M445.4,727.891c-5.338,3.239-9.646,9.608-9.1,13.771l9.1-13.771" transform="translate(-284.12 -474.059)"/>
        <path id="패스_1051" data-name="패스 1051" class="cls-4" d="M538.8,601.6l11.359-13.167-.89-.66c-5.337,3.163-7.745,8.635-10.469,13.827" transform="translate(-350.905 -382.806)"/>
        <path id="패스_1052" data-name="패스 1052" class="cls-4" d="M490.535,776.172c4.26-5.2,3.2-11.533,3.384-17.6q-1.691,8.8-3.384,17.6" transform="translate(-319.474 -494.039)"/>
        <path id="패스_1053" data-name="패스 1053" class="cls-4" d="M569.172,686.074l17.706,3.689c.055-.3.109-.593.165-.889-5.674-2.727-11.79-3.2-17.871-2.8" transform="translate(-370.689 -446.743)"/>
        <path id="패스_1054" data-name="패스 1054" class="cls-4" d="M391.833,638.119l16.522,1.8c-5.606-1.772-10.845-4.309-16.522-1.8" transform="translate(-255.192 -414.906)"/>
        <path id="패스_1055" data-name="패스 1055" class="cls-4" d="M546.98,747.758c.917-6.113-1.746-11.266-4.892-16.293l4.892,16.293" transform="translate(-353.049 -476.386)"/>
        <path id="패스_1056" data-name="패스 1056" class="cls-4" d="M484.063,716.69c-3.265,3.56-6.223,7.222-5.3,12.591l5.3-12.591" transform="translate(-311.696 -466.764)"/>
        <path id="패스_1057" data-name="패스 1057" class="cls-4" d="M481.515,767.241c.861-3.36,1.639-6.4,2.387-9.315-3.035,2.4-4.067,5.835-2.387,9.315" transform="translate(-313.077 -493.62)"/>
        <path id="패스_1058" data-name="패스 1058" class="cls-4" d="M423.665,689.822l10.824-1.879c-.034-.245-.068-.491-.1-.737l-10.863,1.518.142,1.1" transform="translate(-275.831 -447.562)"/>
        <path id="패스_1059" data-name="패스 1059" class="cls-4" d="M589.544,664.11l12.133-.726c0-.086-.008-.173-.012-.259H589.6q-.029.493-.058.985" transform="translate(-383.956 -431.878)"/>
      </g>
    </g>
  </g>
</svg>
