<svg id="리본" xmlns="http://www.w3.org/2000/svg" xmlns:xlink="http://www.w3.org/1999/xlink" width="388.223" height="830.778" viewBox="0 0 388.223 830.778">
  <defs>
    <style>
      .cls-1 {
        fill: none;
      }

      .cls-2 {
        clip-path: url(#clip-path);
      }

      .cls-3 {
        fill: #d64245;
      }

      .cls-4 {
        fill: #e39d49;
      }
    </style>
    <clipPath id="clip-path">
      <rect id="사각형_328" data-name="사각형 328" class="cls-1" width="388.223" height="830.778"/>
    </clipPath>
  </defs>
  <g id="그룹_506" data-name="그룹 506" class="cls-2">
    <path id="패스_734" data-name="패스 734" class="cls-3" d="M387.711,34.6c-.172,2.853-.536,5.63-.823,8.445-.383,2.777-.709,5.583-1.2,8.312-.862,5.524-2.04,10.887-3.285,16.22A272.3,272.3,0,0,1,372.87,98.3c-3.725,9.862-7.862,19.39-12.3,28.639a539.51,539.51,0,0,1-29.424,52.654c-10.513,16.766-21.554,32.9-32.8,48.68-22.531,31.541-45.885,61.741-68.807,91.826-22.914,30.066-45.482,59.978-66.538,90.475-21.065,30.469-40.656,61.549-57.145,93.607-16.469,32.029-29.74,65.14-37.295,98.844a278,278,0,0,0-6.7,50.681,240.709,240.709,0,0,0,3.38,50.241A247.754,247.754,0,0,0,79,752.52a295.918,295.918,0,0,0,23.191,45.846l-17.437-6.09-3.849-1.35L59.6,783.486,54.18,809.377l-.852,4.07L49.7,830.778a358.333,358.333,0,0,1-28.056-55.555A309.816,309.816,0,0,1,4.456,714.535,303.033,303.033,0,0,1,.2,651.474a339.184,339.184,0,0,1,8.158-61.933,421.432,421.432,0,0,1,17.9-58.657A553.472,553.472,0,0,1,50.972,476c18.222-35.4,39.23-68.586,61.262-100.491,22.052-31.914,45.195-62.564,68.242-92.812s46.085-60.065,67.639-90.246c10.762-15.09,21.142-30.276,30.774-45.635a480.945,480.945,0,0,0,26.074-46.583c3.763-7.842,7.181-15.722,10.149-23.6a209.974,209.974,0,0,0,7.344-23.574c3.763-15.626,5.123-30.927,3.275-45.281l12.218-1.551,2.48-.316,32.287-4.1,2.471-.316L386.926,0c.708,5.812,1.149,11.634,1.273,17.417.077,5.774-.019,11.538-.488,17.187"/>
    <path id="패스_735" data-name="패스 735" class="cls-4" d="M371.213,63.34c-4.721,19.926-12,38.7-20.462,56.56A511.292,511.292,0,0,1,322.3,171.281c-10.284,16.5-21.171,32.478-32.335,48.172-22.349,31.4-45.789,61.712-68.941,92.074s-46.095,60.707-67.6,91.8c-21.5,31.071-41.594,62.9-58.542,95.942-16.929,33-30.641,67.323-38.358,102.5A288.149,288.149,0,0,0,49.794,654.8,252.232,252.232,0,0,0,53.653,707.4a260.43,260.43,0,0,0,14.593,50.48,289.952,289.952,0,0,0,16.507,34.394l-3.849-1.35c-2.336-4.309-5.036-9.537-7.928-15.646a278.231,278.231,0,0,1-14.4-36.96,255.644,255.644,0,0,1-10.159-50.3,266.832,266.832,0,0,1,1.2-61.089,337.609,337.609,0,0,1,16.5-67.409C74.125,536.505,84.677,513.266,96.9,490.2c12.275-23.067,26.226-45.97,41.183-68.5,29.9-45.079,63.56-88.694,95.55-130.624s62.411-82.27,86.339-120.656a502.543,502.543,0,0,0,30.488-55.689A281.806,281.806,0,0,0,368.4,64.508a187.709,187.709,0,0,0,5.467-39.794,158.869,158.869,0,0,0-1.149-22.9c-.009-.086-.019-.173-.028-.259.277.374,2.451-.44,2.451-.44.019.124.028.258.048.383,2.642,21,.708,42.1-3.974,61.846"/>
    <path id="패스_736" data-name="패스 736" class="cls-4" d="M337.106,55.316c-3.955,16.737-10.312,33.35-18.021,49.59a477.2,477.2,0,0,1-26.523,47.856c-9.776,15.675-20.27,31.1-31.147,46.392-21.784,30.592-45.032,60.687-68.243,91.126-23.229,30.44-46.5,61.214-68.567,93.119-22.061,31.885-42.964,64.929-60.908,99.888A536.08,536.08,0,0,0,39.51,537.233,404.542,404.542,0,0,0,22.3,594.253a323.673,323.673,0,0,0-7.536,59.471,287.617,287.617,0,0,0,4.4,59.883,295.831,295.831,0,0,0,16.556,57.3,321.526,321.526,0,0,0,18.46,38.473l-.852,4.069c-3.16-5.582-7.344-13.309-12.007-23.152a311.567,311.567,0,0,1-16.211-41.6A290.326,290.326,0,0,1,13.552,691.47a301.353,301.353,0,0,1,1.322-69.1,373.08,373.08,0,0,1,18.154-74.409c8.723-25.01,20.031-49.838,32.929-74.188,12.946-24.33,27.5-48.182,42.925-71.421,30.851-46.506,64.977-90.677,96.891-132.53,31.952-41.814,61.741-81.446,84.472-117.946a465.7,465.7,0,0,0,28.371-51.764,245.653,245.653,0,0,0,15.742-43.9,151.778,151.778,0,0,0,4.471-32.3,121.274,121.274,0,0,0-.88-17.685c-.01-.067-.01-.134-.02-.191.269.277,2.461-.412,2.461-.412.01.1.029.191.039.287,2,16.058.622,32.785-3.323,49.408"/>
  </g>
</svg>
