<svg xmlns="http://www.w3.org/2000/svg" width="59.197" height="89.198" viewBox="0 0 59.197 89.198">
  <g id="그룹_781" data-name="그룹 781" transform="translate(-440.114 45)">
    <g id="구성_요소_105_3" data-name="구성 요소 105 – 3" transform="translate(440.114 -45)">
      <path id="패스_1176" data-name="패스 1176" d="M97.626,61.118C105.174,50.864,113.239,36,110.15,21.806,106.868,6.729,92.66-2.963,75.284.82S49.02,19.355,52.3,34.43c3.087,14.19,16.626,24.322,27.754,30.512Z" transform="translate(-51.63 0)" fill="#f66"/>
      <path id="패스_1177" data-name="패스 1177" d="M91.794,61.543c4.753-9.646,8.827-23.646,5.739-37.836C94.252,8.632,84.257-1.977,72.078.674S55.223,17.159,58.507,32.235c3.088,14.189,12.638,25.19,20.97,31.989Z" transform="translate(-48.425 0.147)" fill="#a59cf7"/>
      <path id="패스_1178" data-name="패스 1178" d="M84.674,62.192A114.117,114.117,0,0,0,82.619,26.06C79.337,10.985,73.7-.581,68.472.557S62.93,14.573,66.21,29.649a113.9,113.9,0,0,0,13.175,33.7Z" transform="translate(-44.82 0.263)" fill="#f66"/>
      <path id="패스_1179" data-name="패스 1179" d="M75.542,54.791l-1.379.289-4.67-11.5,1.38-.291Z" transform="translate(-41.853 23.691)" fill="#437ebc"/>
      <path id="패스_1180" data-name="패스 1180" d="M78,54.272l-1.377.289L73.331,42.769l1.38-.291Z" transform="translate(-39.753 23.249)" fill="#437ebc"/>
      <path id="패스_1181" data-name="패스 1181" d="M81.61,53.51l1.379-.289-.378-12.409-1.379.292Z" transform="translate(-35.428 22.336)" fill="#437ebc"/>
      <path id="패스_1182" data-name="패스 1182" d="M79.152,54.029l1.379-.291L78.773,41.621l-1.379.291Z" transform="translate(-37.531 22.779)" fill="#437ebc"/>
      <path id="패스_1183" data-name="패스 1183" d="M92.675,36.4l-1.222.258L67.739,41.661l-1.218.257L68.11,44.4l24.114-5.091Z" transform="translate(-43.48 19.92)" fill="#437ebc"/>
      <path id="패스_1184" data-name="패스 1184" d="M67.548,43.371l2.866,4.465,10.2-2.214,10.229-2.1.819-5.244Z" transform="translate(-42.919 20.951)" fill="#fff"/>
      <path id="패스_1185" data-name="패스 1185" d="M89.839,57.715a3.929,3.929,0,0,1-3.033,4.656L79.076,64a3.926,3.926,0,0,1-4.654-3.033L71.79,52.6a3.927,3.927,0,0,1,3.034-4.654l9.384-1.982A3.928,3.928,0,0,1,88.866,49Z" transform="translate(-40.644 25.11)" fill="#824736"/>
    </g>
  </g>
</svg>
