<svg xmlns="http://www.w3.org/2000/svg" xmlns:xlink="http://www.w3.org/1999/xlink" width="137.8" height="137.489" viewBox="0 0 137.8 137.489">
  <defs>
    <clipPath id="clip-path">
      <rect id="사각형_149" data-name="사각형 149" width="137.8" height="137.489" fill="none" stroke="#100d50" stroke-width="1"/>
    </clipPath>
  </defs>
  <g id="그룹_466" data-name="그룹 466" transform="translate(-139 -783.02)">
    <g id="그룹_465" data-name="그룹 465" transform="translate(185.853 830.45)">
      <path id="패스_183" data-name="패스 183" d="M136.132,130.164l-2.848,1.27-8.393-18.856,2.838-1.251Z" transform="translate(-113.861 -109.914)" fill="#4d95ff"/>
      <path id="패스_184" data-name="패스 184" d="M131.747,132.932l-2.085,2.309-15.33-13.793,2.087-2.323Z" transform="translate(-110.128 -112.826)" fill="#4d95ff"/>
      <path id="패스_185" data-name="패스 185" d="M128.9,137.248l-.952,2.966-19.623-6.367.975-2.967Z" transform="translate(-107.876 -116.928)" fill="#4d95ff"/>
      <path id="패스_186" data-name="패스 186" d="M128.074,142.2l.327,3.105-20.51,2.15-.327-3.093Z" transform="translate(-107.564 -121.221)" fill="#4d95ff"/>
      <path id="패스_187" data-name="패스 187" d="M129.318,146.517l1.569,2.708-17.861,10.3-1.556-2.69Z" transform="translate(-109.15 -124.836)" fill="#4d95ff"/>
      <path id="패스_188" data-name="패스 188" d="M132.549,150.062l2.521,1.832L122.939,168.57l-2.51-1.834Z" transform="translate(-112.449 -127.756)" fill="#4d95ff"/>
      <path id="패스_189" data-name="패스 189" d="M137.156,152.207l3.052.645-4.291,20.17-3.042-.654Z" transform="translate(-116.738 -129.326)" fill="#4d95ff"/>
      <path id="패스_190" data-name="패스 190" d="M141.973,152.526l3.042-.657,4.29,20.176-3.039.654Z" transform="translate(-120.839 -129.172)" fill="#4d95ff"/>
      <path id="패스_191" data-name="패스 191" d="M146.158,150.957l2.521-1.821L160.8,165.811l-2.521,1.834Z" transform="translate(-124.332 -127.322)" fill="#4d95ff"/>
      <path id="패스_192" data-name="패스 192" d="M149.4,147.86l1.546-2.709,17.861,10.314-1.553,2.694Z" transform="translate(-126.953 -124.209)" fill="#4d95ff"/>
      <path id="패스_193" data-name="패스 193" d="M151.12,143.744l.327-3.1,20.522,2.152-.338,3.091Z" transform="translate(-128.111 -120.518)" fill="#4d95ff"/>
      <path id="패스_194" data-name="패스 194" d="M150.955,138.708l-.973-2.947,19.621-6.377.954,2.956Z" transform="translate(-127.507 -116.246)" fill="#4d95ff"/>
      <path id="패스_195" data-name="패스 195" d="M148.962,134.063l-2.088-2.311,15.344-13.8,2.077,2.312Z" transform="translate(-125.3 -112.279)" fill="#4d95ff"/>
      <path id="패스_196" data-name="패스 196" d="M145.542,130.787l-2.835-1.261,8.388-18.847,2.841,1.271Z" transform="translate(-121.994 -109.609)" fill="#4d95ff"/>
      <rect id="사각형_148" data-name="사각형 148" width="3.117" height="20.614" transform="translate(19.872)" fill="#4d95ff"/>
    </g>
    <g id="그룹_339" data-name="그룹 339" transform="translate(139 783.02)">
      <g id="그룹_338" data-name="그룹 338" clip-path="url(#clip-path)">
        <path id="패스_197" data-name="패스 197" d="M137.6,37.325v23.7a29.068,29.068,0,0,0-2.929.153V37.325Z" transform="translate(-68.872 -19.09)" fill="#f5c950" stroke="#100d50" stroke-width="1"/>
        <path id="패스_198" data-name="패스 198" d="M104.751,68.039a26.248,26.248,0,0,0-2.609,1.349L92.4,47.512l2.674-1.194Z" transform="translate(-47.254 -23.689)" fill="#f5c950" stroke="#100d50" stroke-width="1"/>
        <path id="패스_199" data-name="패스 199" d="M78.166,87.934a27.37,27.37,0,0,0-1.84,2.286L58.443,74.128l1.971-2.185Z" transform="translate(-29.888 -36.795)" fill="#f5c950" stroke="#100d50" stroke-width="1"/>
        <path id="패스_200" data-name="패스 200" d="M62.41,117.192a25.036,25.036,0,0,0-.725,2.843l-23.014-7.475.906-2.788Z" transform="translate(-19.777 -56.144)" fill="#f5c950" stroke="#100d50" stroke-width="1"/>
        <path id="패스_201" data-name="패스 201" d="M60.363,150.962l-24.18,2.549-.3-2.921,23.993-2.531a25.516,25.516,0,0,0,.483,2.9" transform="translate(-18.354 -75.725)" fill="#f5c950" stroke="#100d50" stroke-width="1"/>
        <path id="패스_202" data-name="패스 202" d="M71.895,172.519,50.77,184.7l-1.46-2.537,20.975-12.112a25.594,25.594,0,0,0,1.609,2.463" transform="translate(-25.218 -86.976)" fill="#f5c950" stroke="#100d50" stroke-width="1"/>
        <path id="패스_203" data-name="패스 203" d="M95.211,188.807,80.862,208.556l-2.368-1.732L92.753,187.2a24.548,24.548,0,0,0,2.458,1.609" transform="translate(-40.143 -95.743)" fill="#f5c950" stroke="#100d50" stroke-width="1"/>
        <path id="패스_204" data-name="패스 204" d="M126.327,197.159l-5.074,23.857-2.866-.605,5.04-23.72a25.192,25.192,0,0,0,2.9.469" transform="translate(-60.545 -100.598)" fill="#f5c950" stroke="#100d50" stroke-width="1"/>
        <path id="패스_205" data-name="패스 205" d="M159.708,219.186l-2.871.605L151.8,196.139a29.42,29.42,0,0,0,2.849-.736Z" transform="translate(-77.634 -99.939)" fill="#f5c950" stroke="#100d50" stroke-width="1"/>
        <path id="패스_206" data-name="패스 206" d="M189.63,203.592l-2.379,1.726-14.157-19.49a26.976,26.976,0,0,0,2.3-1.817Z" transform="translate(-88.522 -94.113)" fill="#f5c950" stroke="#100d50" stroke-width="1"/>
        <path id="패스_207" data-name="패스 207" d="M211.13,177.395l-1.467,2.536L188.9,167.95a25.277,25.277,0,0,0,1.37-2.6Z" transform="translate(-96.607 -84.569)" fill="#f5c950" stroke="#100d50" stroke-width="1"/>
        <path id="패스_208" data-name="패스 208" d="M220.462,145.048l-.31,2.922-23.717-2.5a28.741,28.741,0,0,0,.193-2.933Z" transform="translate(-100.459 -72.902)" fill="#f5c950" stroke="#100d50" stroke-width="1"/>
        <path id="패스_209" data-name="패스 209" d="M215.8,107.236l-22.578,7.338a28.263,28.263,0,0,0-1.027-2.747l22.7-7.382Z" transform="translate(-98.29 -53.419)" fill="#f5c950" stroke="#100d50" stroke-width="1"/>
        <path id="패스_210" data-name="패스 210" d="M198.146,69.975l-17.6,15.849a28.8,28.8,0,0,0-2.051-2.1l17.69-15.933Z" transform="translate(-91.285 -34.674)" fill="#f5c950" stroke="#100d50" stroke-width="1"/>
        <path id="패스_211" data-name="패스 211" d="M170.465,45.252,160.839,66.86A27.639,27.639,0,0,0,158.1,65.8l9.683-21.745Z" transform="translate(-80.853 -22.533)" fill="#f5c950" stroke="#100d50" stroke-width="1"/>
        <g id="그룹_464" data-name="그룹 464" transform="translate(0 -0.001)">
          <path id="패스_212" data-name="패스 212" d="M136.275,3.552a3.559,3.559,0,1,0-3.556,3.556,3.556,3.556,0,0,0,3.556-3.556" transform="translate(-66.051 0.001)" fill="#fff" stroke="#100d50" stroke-width="3"/>
          <path id="패스_213" data-name="패스 213" d="M81.627,15.413a3.557,3.557,0,1,0-1.806,4.706,3.56,3.56,0,0,0,1.806-4.706" transform="translate(-38.264 -6.804)" fill="#fff" stroke="#100d50" stroke-width="3"/>
          <path id="패스_214" data-name="패스 214" d="M36.535,48.481A3.557,3.557,0,1,0,36.8,53.5a3.563,3.563,0,0,0-.26-5.024" transform="translate(-15.647 -24.33)" fill="#fff" stroke="#100d50" stroke-width="3"/>
          <path id="패스_215" data-name="패스 215" d="M8.787,97.029a3.557,3.557,0,1,0,2.288,4.486,3.558,3.558,0,0,0-2.288-4.486" transform="translate(-2.114 -49.536)" fill="#fff" stroke="#100d50" stroke-width="3"/>
          <path id="패스_216" data-name="패스 216" d="M3.184,152.66a3.558,3.558,0,1,0,3.908,3.172,3.562,3.562,0,0,0-3.908-3.172" transform="translate(0 -78.068)" fill="#fff" stroke="#100d50" stroke-width="3"/>
          <path id="패스_217" data-name="패스 217" d="M20.7,205.775a3.555,3.555,0,1,0,4.86,1.3,3.552,3.552,0,0,0-4.86-1.3" transform="translate(-9.674 -104.998)" fill="#fff" stroke="#100d50" stroke-width="3"/>
          <path id="패스_218" data-name="패스 218" d="M58.3,247.166a3.553,3.553,0,1,0,4.966-.787,3.552,3.552,0,0,0-4.966.787" transform="translate(-29.463 -125.664)" fill="#fff" stroke="#100d50" stroke-width="3"/>
          <path id="패스_219" data-name="패스 219" d="M112.216,273.892a3.56,3.56,0,1,0-2.741-4.217,3.557,3.557,0,0,0,2.741,4.217" transform="translate(-55.947 -136.481)" fill="#fff" stroke="#100d50" stroke-width="3"/>
          <path id="패스_220" data-name="패스 220" d="M169.611,272.177a3.555,3.555,0,1,0-4.225-2.736,3.56,3.56,0,0,0,4.225,2.736" transform="translate(-84.541 -135.606)" fill="#fff" stroke="#100d50" stroke-width="3"/>
          <path id="패스_221" data-name="패스 221" d="M216.38,246.468a3.556,3.556,0,1,0,.793-4.966,3.563,3.563,0,0,0-.793,4.966" transform="translate(-110.312 -123.168)" fill="#fff" stroke="#100d50" stroke-width="3"/>
          <path id="패스_222" data-name="패스 222" d="M253.613,204.753a3.557,3.557,0,1,0-1.3-4.859,3.57,3.57,0,0,0,1.3,4.859" transform="translate(-128.791 -101.327)" fill="#fff" stroke="#100d50" stroke-width="3"/>
          <path id="패스_223" data-name="패스 223" d="M270.661,151.495a3.556,3.556,0,1,0-3.171-3.908,3.557,3.557,0,0,0,3.171,3.908" transform="translate(-136.787 -73.853)" fill="#fff" stroke="#100d50" stroke-width="3"/>
          <path id="패스_224" data-name="패스 224" d="M264.572,95.908a3.556,3.556,0,1,0-4.479-2.282,3.559,3.559,0,0,0,4.479,2.282" transform="translate(-132.923 -45.504)" fill="#fff" stroke="#100d50" stroke-width="3"/>
          <path id="패스_225" data-name="패스 225" d="M236.4,47.607a3.553,3.553,0,1,0-5.023-.262,3.554,3.554,0,0,0,5.023.262" transform="translate(-117.859 -21.178)" fill="#fff" stroke="#100d50" stroke-width="3"/>
          <path id="패스_226" data-name="패스 226" d="M191.022,14.942a3.558,3.558,0,1,0-4.7,1.8,3.566,3.566,0,0,0,4.7-1.8" transform="translate(-94.208 -5.081)" fill="#fff" stroke="#100d50" stroke-width="3"/>
        </g>
      </g>
    </g>
  </g>
</svg>
