<svg id="구성_요소_43_3" data-name="구성 요소 43 – 3" xmlns="http://www.w3.org/2000/svg" xmlns:xlink="http://www.w3.org/1999/xlink" width="206" height="205.552" viewBox="0 0 206 205.552">
  <defs>
    <clipPath id="clip-path">
      <rect id="사각형_149" data-name="사각형 149" width="206" height="205.552" fill="none"/>
    </clipPath>
  </defs>
  <rect id="사각형_148" data-name="사각형 148" width="3.117" height="20.614" transform="translate(100.6 77.745)" fill="#f5c950"/>
  <path id="패스_183" data-name="패스 183" d="M136.132,130.164l-2.848,1.27-8.393-18.856,2.838-1.251Z" transform="translate(-34.716 -31.748)" fill="#f5c950"/>
  <path id="패스_184" data-name="패스 184" d="M131.747,132.932l-2.085,2.309-15.33-13.793,2.087-2.323Z" transform="translate(-32.345 -33.579)" fill="#f5c950"/>
  <path id="패스_185" data-name="패스 185" d="M128.9,137.248l-.952,2.966-19.623-6.367.975-2.967Z" transform="translate(-30.93 -36.191)" fill="#f5c950"/>
  <path id="패스_186" data-name="패스 186" d="M128.074,142.2l.327,3.105-20.51,2.15-.327-3.093Z" transform="translate(-30.736 -38.883)" fill="#f5c950"/>
  <path id="패스_187" data-name="패스 187" d="M129.318,146.517l1.569,2.708-17.861,10.3-1.556-2.69Z" transform="translate(-31.72 -40.935)" fill="#f5c950"/>
  <path id="패스_188" data-name="패스 188" d="M132.549,150.062l2.521,1.832L122.939,168.57l-2.51-1.834Z" transform="translate(-33.799 -42.594)" fill="#f5c950"/>
  <path id="패스_189" data-name="패스 189" d="M137.156,152.207l3.052.645-4.291,20.17-3.042-.654Z" transform="translate(-36.538 -43.496)" fill="#f5c950"/>
  <path id="패스_190" data-name="패스 190" d="M141.973,152.526l3.042-.657,4.29,20.176-3.039.654Z" transform="translate(-39.039 -43.401)" fill="#f5c950"/>
  <path id="패스_191" data-name="패스 191" d="M146.158,150.957l2.521-1.821L160.8,165.811l-2.521,1.834Z" transform="translate(-41.021 -42.331)" fill="#f5c950"/>
  <path id="패스_192" data-name="패스 192" d="M149.4,147.86l1.546-2.709,17.861,10.314-1.553,2.694Z" transform="translate(-42.513 -40.553)" fill="#f5c950"/>
  <path id="패스_193" data-name="패스 193" d="M151.12,143.744l.327-3.1,20.522,2.152-.338,3.091Z" transform="translate(-43.184 -38.454)" fill="#f5c950"/>
  <path id="패스_194" data-name="패스 194" d="M150.955,138.708l-.973-2.947,19.621-6.377.954,2.956Z" transform="translate(-42.824 -35.776)" fill="#f5c950"/>
  <path id="패스_195" data-name="패스 195" d="M148.962,134.063l-2.088-2.311,15.344-13.8,2.077,2.312Z" transform="translate(-41.553 -33.248)" fill="#f5c950"/>
  <path id="패스_196" data-name="패스 196" d="M145.542,130.787l-2.835-1.261,8.388-18.847,2.841,1.271Z" transform="translate(-39.667 -31.563)" fill="#f5c950"/>
  <g id="그룹_339" data-name="그룹 339">
    <g id="그룹_338" data-name="그룹 338" clip-path="url(#clip-path)">
      <path id="패스_197" data-name="패스 197" d="M139.05,37.325V72.753a43.449,43.449,0,0,0-4.379.229V37.325Z" transform="translate(-36.307 -10.063)" fill="#f5c950"/>
      <path id="패스_198" data-name="패스 198" d="M110.864,78.792a39.232,39.232,0,0,0-3.9,2.017L92.4,48.1l4-1.784Z" transform="translate(-24.911 -12.487)" fill="#f5c950"/>
      <path id="패스_199" data-name="패스 199" d="M87.928,95.85a40.917,40.917,0,0,0-2.75,3.418L58.443,75.21l2.946-3.267Z" transform="translate(-15.756 -19.396)" fill="#f5c950"/>
      <path id="패스_200" data-name="패스 200" d="M74.159,120.865a37.43,37.43,0,0,0-1.084,4.251l-34.4-11.175,1.355-4.168Z" transform="translate(-10.426 -29.595)" fill="#f5c950"/>
      <path id="패스_201" data-name="패스 201" d="M72.477,152.4l-36.148,3.81-.441-4.367,35.867-3.784a38.156,38.156,0,0,0,.722,4.341" transform="translate(-9.675 -39.917)" fill="#f5c950"/>
      <path id="패스_202" data-name="패스 202" d="M83.072,173.738,51.493,191.956l-2.183-3.793,31.356-18.107a38.27,38.27,0,0,0,2.406,3.682" transform="translate(-13.294 -45.847)" fill="#f5c950"/>
      <path id="패스_203" data-name="패스 203" d="M103.485,189.6,82.034,219.13l-3.54-2.589L99.811,187.2a36.7,36.7,0,0,0,3.674,2.406" transform="translate(-21.162 -50.468)" fill="#f5c950"/>
      <path id="패스_204" data-name="패스 204" d="M130.256,197.391l-7.584,35.667-4.284-.9,7.535-35.463a37.646,37.646,0,0,0,4.333.7" transform="translate(-31.917 -53.027)" fill="#f5c950"/>
      <path id="패스_205" data-name="패스 205" d="M163.62,230.959l-4.292.9L151.8,196.5a43.961,43.961,0,0,0,4.26-1.1Z" transform="translate(-40.926 -52.681)" fill="#f5c950"/>
      <path id="패스_206" data-name="패스 206" d="M197.814,213.285l-3.556,2.58-21.164-29.138a40.318,40.318,0,0,0,3.438-2.717Z" transform="translate(-46.666 -49.609)" fill="#f5c950"/>
      <path id="패스_207" data-name="패스 207" d="M222.131,183.357l-2.193,3.791L188.9,169.237a37.787,37.787,0,0,0,2.049-3.887Z" transform="translate(-50.928 -44.578)" fill="#f5c950"/>
      <path id="패스_208" data-name="패스 208" d="M232.354,146.289l-.464,4.369-35.455-3.734a42.971,42.971,0,0,0,.289-4.385Z" transform="translate(-52.959 -38.429)" fill="#f5c950"/>
      <path id="패스_209" data-name="패스 209" d="M227.479,108.618l-33.752,10.971a42.259,42.259,0,0,0-1.535-4.107l33.932-11.037Z" transform="translate(-51.815 -28.158)" fill="#f5c950"/>
      <path id="패스_210" data-name="패스 210" d="M207.871,71.054l-26.31,23.7a43.05,43.05,0,0,0-3.065-3.134l26.446-23.821Z" transform="translate(-48.122 -18.277)" fill="#f5c950"/>
      <path id="패스_211" data-name="패스 211" d="M176.586,45.843,162.2,78.148a41.312,41.312,0,0,0-4.1-1.582l14.476-32.509Z" transform="translate(-42.623 -11.878)" fill="#f5c950"/>
      <path id="패스_212" data-name="패스 212" d="M139.8,5.31a5.321,5.321,0,1,0-5.317,5.317A5.316,5.316,0,0,0,139.8,5.31" transform="translate(-34.82 0)" fill="#fff"/>
      <path id="패스_213" data-name="패스 213" d="M85,16.456a5.317,5.317,0,1,0-2.7,7.036A5.321,5.321,0,0,0,85,16.456" transform="translate(-20.172 -3.587)" fill="#fff"/>
      <path id="패스_214" data-name="패스 214" d="M39.473,48.931a5.318,5.318,0,1,0,.389,7.511,5.326,5.326,0,0,0-.389-7.511" transform="translate(-8.249 -12.825)" fill="#fff"/>
      <path id="패스_215" data-name="패스 215" d="M11.09,97.115a5.318,5.318,0,1,0,3.42,6.707,5.318,5.318,0,0,0-3.42-6.707" transform="translate(-1.114 -26.112)" fill="#fff"/>
      <path id="패스_216" data-name="패스 216" d="M4.76,152.67a5.32,5.32,0,1,0,5.842,4.742A5.325,5.325,0,0,0,4.76,152.67" transform="translate(0 -41.152)" fill="#fff"/>
      <path id="패스_217" data-name="패스 217" d="M21.576,206.011a5.314,5.314,0,1,0,7.265,1.946,5.31,5.31,0,0,0-7.265-1.946" transform="translate(-5.1 -55.348)" fill="#fff"/>
      <path id="패스_218" data-name="패스 218" d="M58.633,247.89a5.312,5.312,0,1,0,7.424-1.177,5.311,5.311,0,0,0-7.424,1.177" transform="translate(-15.532 -66.241)" fill="#fff"/>
      <path id="패스_219" data-name="패스 219" d="M113.611,277.377a5.322,5.322,0,1,0-4.1-6.3,5.318,5.318,0,0,0,4.1,6.3" transform="translate(-29.493 -71.943)" fill="#fff"/>
      <path id="패스_220" data-name="패스 220" d="M171.741,275.659a5.315,5.315,0,1,0-6.317-4.09,5.322,5.322,0,0,0,6.317,4.09" transform="translate(-44.567 -71.482)" fill="#fff"/>
      <path id="패스_221" data-name="패스 221" d="M216.716,249.264a5.316,5.316,0,1,0,1.185-7.424,5.326,5.326,0,0,0-1.185,7.424" transform="translate(-58.153 -64.925)" fill="#fff"/>
      <path id="패스_222" data-name="패스 222" d="M254.494,208.038a5.317,5.317,0,1,0-1.944-7.265,5.337,5.337,0,0,0,1.944,7.265" transform="translate(-67.894 -53.412)" fill="#fff"/>
      <path id="패스_223" data-name="패스 223" d="M272.24,155.006a5.317,5.317,0,1,0-4.741-5.843,5.318,5.318,0,0,0,4.741,5.843" transform="translate(-72.11 -38.931)" fill="#fff"/>
      <path id="패스_224" data-name="패스 224" d="M266.876,99.341a5.316,5.316,0,1,0-6.7-3.412,5.321,5.321,0,0,0,6.7,3.412" transform="translate(-70.073 -23.987)" fill="#fff"/>
      <path id="패스_225" data-name="패스 225" d="M239.336,50.676a5.311,5.311,0,1,0-7.509-.391,5.314,5.314,0,0,0,7.509.391" transform="translate(-62.132 -11.164)" fill="#fff"/>
      <path id="패스_226" data-name="패스 226" d="M194.393,17.419a5.319,5.319,0,1,0-7.028,2.692,5.332,5.332,0,0,0,7.028-2.692" transform="translate(-49.663 -2.679)" fill="#fff"/>
    </g>
  </g>
</svg>
