<svg xmlns="http://www.w3.org/2000/svg" xmlns:xlink="http://www.w3.org/1999/xlink" width="100" height="100.225" viewBox="0 0 100 100.225">
  <defs>
    <clipPath id="clip-path">
      <rect id="사각형_150" data-name="사각형 150" width="100" height="100.225" fill="none"/>
    </clipPath>
  </defs>
  <g id="그룹_342" data-name="그룹 342" transform="translate(20 -30)">
    <g id="그룹_341" data-name="그룹 341" transform="translate(-20 30)" clip-path="url(#clip-path)">
      <path id="패스_227" data-name="패스 227" d="M41.05,136.531c-.2,1.128-38.012-4.626-39.21-4.839a2.141,2.141,0,0,1-1.81-2.424,2.14,2.14,0,0,1,2.532-1.652c1.2.212,38.687,7.79,38.488,8.915" transform="translate(0 -88.305)" fill="#2daeba"/>
      <path id="패스_228" data-name="패스 228" d="M42.437,168.244c.275,1.11-36.607,11.232-37.789,11.53a2.077,2.077,0,1,1-1-4.023c1.183-.292,38.511-8.617,38.789-7.507" transform="translate(-1.351 -116.381)" fill="#2daeba"/>
      <path id="패스_229" data-name="패스 229" d="M63.588,179.159c.7.9-28.876,25.152-29.836,25.9a2.075,2.075,0,1,1-2.546-3.266c.96-.75,31.677-23.535,32.382-22.636" transform="translate(-20.99 -123.988)" fill="#2daeba"/>
      <path id="패스_230" data-name="패스 230" d="M100.8,187.034c1.008.534-16.145,34.718-16.719,35.793a2.075,2.075,0,1,1-3.656-1.947C81,219.8,99.79,186.494,100.8,187.034" transform="translate(-55.477 -129.452)" fill="#2daeba"/>
      <path id="패스_231" data-name="패스 231" d="M147.589,190.584c1.141.082-.626,38.289-.713,39.5a2.075,2.075,0,1,1-4.133-.293c.087-1.215,3.7-39.288,4.846-39.208" transform="translate(-98.796 -131.913)" fill="#2daeba"/>
      <path id="패스_232" data-name="패스 232" d="M170.084,189.225c1.074-.389,15,35.231,15.415,36.378a2.074,2.074,0,1,1-3.892,1.412c-.417-1.142-12.6-37.4-11.522-37.79" transform="translate(-117.678 -130.971)" fill="#2daeba"/>
      <path id="패스_233" data-name="패스 233" d="M180.367,183.192c.826-.8,28.033,26.083,28.876,26.958a2.075,2.075,0,1,1-2.979,2.878c-.847-.877-26.718-29.044-25.9-29.836" transform="translate(-124.829 -126.785)" fill="#2daeba"/>
      <path id="패스_234" data-name="패스 234" d="M187.252,173.466c.431-1.057,36.219,12.429,37.346,12.887a2.074,2.074,0,1,1-1.554,3.839c-1.126-.454-36.223-15.664-35.792-16.726" transform="translate(-129.605 -120.025)" fill="#2daeba"/>
      <path id="패스_235" data-name="패스 235" d="M189.612,154.333c-.038-1.145,38.139-3.381,39.355-3.421a2.076,2.076,0,1,1,.142,4.142c-1.216.04-39.459.422-39.5-.721" transform="translate(-131.241 -104.454)" fill="#2daeba"/>
      <path id="패스_236" data-name="패스 236" d="M187.018,106.943c-.5-1.029,33.472-18.6,34.569-19.133a2.075,2.075,0,1,1,1.813,3.725c-1.1.533-35.877,16.436-36.382,15.408" transform="translate(-129.441 -60.616)" fill="#2daeba"/>
      <path id="패스_237" data-name="패스 237" d="M179.951,68.255c-.875-.736,23.01-30.6,23.794-31.537a2.076,2.076,0,1,1,3.171,2.667c-.782.929-26.09,29.606-26.965,28.869" transform="translate(-124.538 -24.851)" fill="#2daeba"/>
      <path id="패스_238" data-name="패스 238" d="M169.518,45.008c-1.1-.318,8.572-37.318,8.91-38.487a2.075,2.075,0,1,1,3.982,1.142c-.338,1.169-11.793,37.662-12.892,37.345" transform="translate(-117.272 -3.39)" fill="#2daeba"/>
      <path id="패스_239" data-name="패스 239" d="M141,41.272c-1.131.158-7.345-37.579-7.513-38.785A2.137,2.137,0,0,1,135.237.019a2.143,2.143,0,0,1,2.357,1.894c.168,1.206,4.544,39.2,3.41,39.359" transform="translate(-92.381 0)" fill="#2daeba"/>
      <path id="패스_240" data-name="패스 240" d="M95.052,57.694c-.969.605-22-31.341-22.64-32.372a2.076,2.076,0,1,1,3.515-2.2c.644,1.031,20.094,33.962,19.124,34.568" transform="translate(-49.878 -15.265)" fill="#2daeba"/>
      <path id="패스_241" data-name="패스 241" d="M59.678,91.412c-.642.949-32.845-19.685-33.853-20.366a2.075,2.075,0,1,1,2.317-3.433c1.008.679,32.174,22.853,31.535,23.8" transform="translate(-17.18 -46.524)" fill="#2daeba"/>
    </g>
  </g>
</svg>
