<svg id="말_2" data-name="말 2" xmlns="http://www.w3.org/2000/svg" width="150.655" height="121.676" viewBox="0 0 150.655 121.676">
  <path id="패스_317" data-name="패스 317" d="M87.939,118.969s11.672-3.694,18.435,11.34,4.041,35,4.041,35l-7.724,6.153Z" transform="translate(-57.733 -114.39)" fill="#fc1aa3"/>
  <path id="패스_318" data-name="패스 318" d="M112.168,142.071s1.52-9.309,10.721-12.2,22.6.981,25.665,25.064a15.1,15.1,0,0,0,4.4,8.869c.8.781,2.908,1.615,3.287,2.782.694,2.163-2,2.641-3.467,2.872-8.211,1.3-11.846-7.293-16.159-13.386-3.886-5.48-8.935-9.614-15.115-10.141a9.76,9.76,0,0,0-3.4.039s-8.181,2.513-5.935-3.9" transform="translate(-5.702 -94.913)" fill="#fc1aa3"/>
  <path id="패스_319" data-name="패스 319" d="M200.59,226.336c-2.034-2.722-12.8-22.65-9.734-40.2l.078-.033a25.362,25.362,0,0,0,.942-7.8c-.882-5.606-3.057-10.754-7.35-14.212-5.618-4.529-12.913-3.093-23.09-1.155-8.283,1.579-15.16.072-27.924-.622-3.389-.182-8.552-.275-10.434-2.7-.99-6.853-2.366-17.036-5.013-24.681q-.2-.588-.413-1.149c-.425-1.131-.939-2.384-1.541-3.721-1.065-2.381-11.262-17.338-13.679-10.287-1.107,3.267.227,3.243,1.185,7.418-6.536,2.731-14.373,9.04-20.73,11.983-.159.075-4.3,1.992-4.3,1.992-1.914.882-2.04,12.028,4.242,12.145l2.985-.2,3.673-.248,6.617-.541a2.921,2.921,0,0,1,2.976,3.6c-1.427,6.431-.081,16.892,1.5,26.994.3,3.2-.817,7.185-2.552,13.53-2.74,4.553-5.414,8.809-6.895,10.188a5.744,5.744,0,0,0-1.334,6.473l5.064,15.932a7.088,7.088,0,0,0,4.035,3.844l13.811,5.148,2.833-8.394-10-4.206a4.69,4.69,0,0,1-2.689-3.06l-.147-8.986a2.234,2.234,0,0,1,1.466-2.731,74.343,74.343,0,0,0,20.6-10.158l5.788.078c.559-.365,3.2.389,3.811.449q4.936.48,9.9.5a66.563,66.563,0,0,0,9.593-1.17c3.811-.559,5.274-2.426,9.177-1.675a7.147,7.147,0,0,1,1.107.82c3.108,3.093,9.279,12.1,11.932,15.492,3.7,4.738,21.131,23.464,28.193,23.5l2.579-6.542c-3.365-1.69-4.071-2.665-6.261-5.615" transform="translate(-77.432 -117.907)" fill="#fff"/>
  <path id="패스_320" data-name="패스 320" d="M111.694,156.854c-21.433,0-14.8-24.224-14.8-24.224,12.348.661,16.584,1.319,27.918.607,0,0,10.227,23.616-13.117,23.616" transform="translate(-40.317 -87.845)" fill="#fc1aa3"/>
  <path id="패스_321" data-name="패스 321" d="M87.5,163.943s2.977.851,5.785,1.706l3.036-8.841-5.287-2.221Z" transform="translate(-57.292 -45.063)" fill="#fc1aa3"/>
  <path id="패스_322" data-name="패스 322" d="M118.026,161.893s3.515,1.971,5.839,3.464l3.85-7.018-4.508-2.916Z" transform="translate(2.467 -43.681)" fill="#fc1aa3"/>
</svg>
