<svg xmlns="http://www.w3.org/2000/svg" width="151.709" height="122.946" viewBox="0 0 151.709 122.946">
  <g id="말_1" data-name="말 1" transform="translate(0)">
    <path id="패스_300" data-name="패스 300" d="M27.422,137.969s11.672-3.694,18.435,11.34,4.041,35,4.041,35l-7.724,6.153Z" transform="translate(2.693 -133.705)" fill="#4d95ff"/>
    <path id="패스_301" data-name="패스 301" d="M51.652,161.071s1.52-9.309,10.718-12.2,22.6.981,25.668,25.064a15.1,15.1,0,0,0,4.4,8.869c.808.781,2.911,1.615,3.287,2.782.694,2.163-1.992,2.641-3.464,2.872-8.211,1.3-11.846-7.293-16.162-13.386-3.883-5.48-8.932-9.614-15.109-10.141a9.793,9.793,0,0,0-3.407.039s-8.181,2.513-5.932-3.9" transform="translate(55.871 -113.48)" fill="#4d95ff"/>
    <path id="패스_302" data-name="패스 302" d="M140.067,245.336c-2.028-2.722-12.8-22.65-9.731-40.2l.081-.033a25.253,25.253,0,0,0,.939-7.8c-.882-5.606-3.057-10.754-7.344-14.212-5.624-4.529-12.919-3.093-23.093-1.155-8.286,1.579-15.163.072-27.927-.622-3.392-.183-8.549-.275-10.434-2.7-.987-6.853-2.363-17.036-5.013-24.681-.132-.392-.269-.775-.41-1.149-.425-1.131-.942-2.384-1.544-3.721-1.068-2.381-11.259-17.338-13.676-10.287-1.113,3.267.224,3.243,1.182,7.418-6.536,2.731-14.373,9.04-20.73,11.983-.156.075-4.3,1.992-4.3,1.992-1.914.882-2.043,12.028,4.239,12.145l2.985-.2,3.67-.248,6.62-.541a2.917,2.917,0,0,1,2.973,3.6c-1.421,6.431-.084,16.892,1.5,26.994.3,3.2-.817,7.185-2.552,13.53C34.77,220,32.09,224.26,30.612,225.639a5.746,5.746,0,0,0-1.334,6.473l5.064,15.932a7.1,7.1,0,0,0,4.035,3.844l13.811,5.148,2.833-8.394-10-4.206a4.691,4.691,0,0,1-2.689-3.06l-.147-8.986a2.239,2.239,0,0,1,1.466-2.731,74.311,74.311,0,0,0,20.6-10.158l5.785.078c.562-.365,3.2.389,3.817.449q4.931.48,9.9.5a66.153,66.153,0,0,0,9.593-1.17c3.808-.559,5.274-2.426,9.177-1.675a7.316,7.316,0,0,1,1.11.82c3.1,3.093,9.279,12.1,11.929,15.495,3.7,4.738,21.134,23.461,28.19,23.5l2.584-6.542c-3.368-1.69-4.071-2.665-6.267-5.615" transform="translate(-16.915 -136.907)" fill="#fff"/>
    <path id="패스_303" data-name="패스 303" d="M15.769,24.224C-5.66,24.224.968,0,.968,0,13.319.661,17.552,1.319,28.886.607c0,0,10.227,23.616-13.117,23.616" transform="matrix(0.998, -0.07, 0.07, 0.998, 61.93, 45.371)" fill="#4d95ff"/>
    <path id="패스_304" data-name="패스 304" d="M26.982,183.6s3.183.911,6.189,1.826l3.25-9.464-5.659-2.377Z" transform="translate(5.203 -63.265)" fill="#4d95ff"/>
    <path id="패스_305" data-name="패스 305" d="M57.509,180.893s3.512,1.971,5.836,3.464l3.847-7.018-4.5-2.916Z" transform="translate(65.275 -61.411)" fill="#4d95ff"/>
  </g>
</svg>
