<svg id="말_3" data-name="말 3" xmlns="http://www.w3.org/2000/svg" width="147.315" height="122.634" viewBox="0 0 147.315 122.634">
  <path id="패스_334" data-name="패스 334" d="M148.457,137.969s11.675-3.694,18.438,11.34,4.041,35,4.041,35l-7.724,6.153Z" transform="translate(-120.389 -133.705)" fill="#2ff561"/>
  <path id="패스_335" data-name="패스 335" d="M172.688,161.071s1.52-9.309,10.718-12.2,22.6.981,25.668,25.064a15.1,15.1,0,0,0,4.4,8.869c.808.781,2.911,1.615,3.287,2.782.694,2.163-1.992,2.641-3.464,2.872-8.211,1.3-11.846-7.293-16.162-13.386-3.883-5.48-8.932-9.614-15.109-10.141a9.792,9.792,0,0,0-3.407.039s-8.181,2.513-5.932-3.9" transform="translate(-69.559 -113.48)" fill="#2ff561"/>
  <path id="패스_336" data-name="패스 336" d="M261.1,245.336c-2.028-2.722-12.8-22.65-9.731-40.2l.078-.033a25.175,25.175,0,0,0,.942-7.8c-.882-5.606-3.057-10.754-7.344-14.212-5.624-4.529-12.92-3.093-23.093-1.155-8.286,1.579-15.163.072-27.927-.622-3.392-.183-8.549-.275-10.434-2.7-.987-6.853-2.363-17.036-5.013-24.681q-.2-.588-.413-1.149c-.422-1.131-.939-2.384-1.541-3.721-1.068-2.381-11.259-17.338-13.679-10.287-1.11,3.267.227,3.243,1.185,7.418-6.536,2.731-14.373,9.04-20.733,11.983-.153.075-4.293,1.992-4.293,1.992-1.914.882-2.043,12.028,4.239,12.145l2.985-.2,3.67-.248,6.62-.541a2.917,2.917,0,0,1,2.973,3.6c-1.424,6.431-.084,16.892,1.5,26.994.3,3.2-.82,7.185-2.552,13.53-2.737,4.553-5.417,8.809-6.9,10.188a5.746,5.746,0,0,0-1.334,6.473l5.064,15.932a7.1,7.1,0,0,0,4.035,3.844l13.811,5.148,2.833-8.394-10-4.206a4.683,4.683,0,0,1-2.689-3.06l-.147-8.986a2.239,2.239,0,0,1,1.466-2.731,74.311,74.311,0,0,0,20.6-10.158l5.785.078c.562-.365,3.2.389,3.817.449,3.284.32,6.59.491,9.9.5a66.153,66.153,0,0,0,9.593-1.17c3.8-.559,5.274-2.426,9.174-1.675a7.189,7.189,0,0,1,1.113.82c3.1,3.093,9.279,12.1,11.929,15.495,3.7,4.738,21.131,23.461,28.193,23.5l2.581-6.542c-3.368-1.69-4.071-2.665-6.267-5.615" transform="translate(-137.951 -136.907)" fill="#fff"/>
  <path id="패스_337" data-name="패스 337" d="M172.212,175.854c-21.43,0-14.8-24.224-14.8-24.224,12.351.661,16.584,1.319,27.918.607,0,0,10.227,23.616-13.117,23.616" transform="translate(-103.282 -107.395)" fill="#2ff561"/>
  <path id="패스_338" data-name="패스 338" d="M148.018,183.046s3.01.861,5.849,1.725l3.07-8.939-5.345-2.245Z" transform="translate(-115.134 -63.265)" fill="#2ff561"/>
  <path id="패스_339" data-name="패스 339" d="M178.545,181.628s3.911,2.2,6.5,3.857l4.287-7.815-5.017-3.248Z" transform="translate(-58.215 -62.851)" fill="#2ff561"/>
</svg>
