<svg xmlns="http://www.w3.org/2000/svg" width="103.801" height="14.06" viewBox="0 0 103.801 14.06">
  <g id="그룹_487" data-name="그룹 487" transform="translate(-15 -1536)">
    <path id="사각형_322" data-name="사각형 322" d="M0,0H23a0,0,0,0,1,0,0V2.56a11.5,11.5,0,0,1-11.5,11.5h0A11.5,11.5,0,0,1,0,2.56V0A0,0,0,0,1,0,0Z" transform="translate(15 1536)" fill="#fff"/>
    <path id="사각형_324" data-name="사각형 324" d="M0,0H23a0,0,0,0,1,0,0V2.56a11.5,11.5,0,0,1-11.5,11.5h0A11.5,11.5,0,0,1,0,2.56V0A0,0,0,0,1,0,0Z" transform="translate(55.4 1536)" fill="#fff"/>
    <path id="사각형_326" data-name="사각형 326" d="M0,0H23a0,0,0,0,1,0,0V2.56a11.5,11.5,0,0,1-11.5,11.5h0A11.5,11.5,0,0,1,0,2.56V0A0,0,0,0,1,0,0Z" transform="translate(95.801 1536)" fill="#fff"/>
    <path id="패스_719" data-name="패스 719" d="M0,0H23V2.56a11.5,11.5,0,0,1-23,0Z" transform="translate(35.199 1536)" fill="#2ff561"/>
    <path id="사각형_325" data-name="사각형 325" d="M0,0H23a0,0,0,0,1,0,0V2.56a11.5,11.5,0,0,1-11.5,11.5h0A11.5,11.5,0,0,1,0,2.56V0A0,0,0,0,1,0,0Z" transform="translate(75.6 1536)" fill="#2ff561"/>
  </g>
</svg>
