<svg width="342" height="317" viewBox="0 0 342 317" fill="none" xmlns="http://www.w3.org/2000/svg">
<path d="M12.3999 58.38L9.73589 66.768H15.0999L12.3999 58.38ZM0.375891 77.496L10.0239 51.036H15.2799L24.7839 77.496H18.6999L16.6479 71.412H8.22389L6.35189 77.496H0.375891ZM27.4575 77.496V51.036H35.7375L40.3455 70.188L45.3495 51.036H53.5575V77.496H48.2655V58.02L43.1535 77.496H37.4655L32.6055 58.128V77.496H27.4575ZM69.236 73.068C72.44 73.068 75.428 70.116 75.428 64.932V63.528C75.428 58.164 72.584 55.464 69.056 55.464C65.852 55.464 62.9 58.236 62.9 63.42V64.788C62.9 70.296 65.852 73.068 69.236 73.068ZM69.092 77.892C63.152 77.892 57.392 73.32 57.392 64.428V63.852C57.392 55.248 63.008 50.64 69.2 50.64C75.212 50.64 80.972 54.852 80.972 63.816V64.428C80.972 73.104 75.176 77.892 69.092 77.892ZM90.2325 63.204H93.1845C95.8125 63.204 97.8645 61.944 97.8645 59.316C97.8645 57.012 96.1005 55.68 93.1845 55.68H90.2325V63.204ZM84.9045 77.496V51.036H93.8325C99.7725 51.036 103.192 54.132 103.192 59.136C103.192 62.7 101.14 65.472 98.5845 66.588L105.316 77.496H99.0885L93.7605 67.74H90.2325V77.496H84.9045ZM108.422 77.496V51.036H124.406V55.86H113.786V61.368H123.146V65.94H113.786V72.708H124.658V77.496H108.422ZM147.25 77.928C143.686 77.928 140.014 76.632 138.178 75.588L139.618 70.548C141.238 71.664 144.334 72.888 146.854 72.888C149.986 72.888 151.462 71.664 151.462 70.008C151.462 68.1 150.49 67.38 147.682 66.696L144.73 65.904C141.274 65.04 138.538 62.916 138.538 58.38C138.538 54.168 141.886 50.712 148.006 50.712C151.534 50.712 154.63 51.828 155.89 52.656L154.414 57.408C153.046 56.58 150.85 55.536 148.15 55.536C145.702 55.536 144.046 56.508 144.046 58.056C144.046 59.532 144.586 60.504 147.07 61.152L149.95 61.836C153.946 62.88 156.898 64.644 156.898 69.36C156.898 74.292 153.406 77.928 147.25 77.928ZM170.146 58.38L167.482 66.768H172.846L170.146 58.38ZM158.122 77.496L167.77 51.036H173.026L182.53 77.496H176.446L174.394 71.412H165.97L164.098 77.496H158.122ZM185.204 77.496V51.036H190.604V72.708H202.052V77.496H185.204ZM206.227 77.496V51.036H222.211V55.86H211.591V61.368H220.951V65.94H211.591V72.708H222.463V77.496H206.227ZM236.918 77.496V51.036H253.046V55.86H242.282V61.368H251.75V65.94H242.282V77.496H236.918ZM257.239 77.496V51.036H273.223V55.86H262.603V61.368H271.963V65.94H262.603V72.708H273.475V77.496H257.239ZM285.976 77.928C282.412 77.928 278.74 76.632 276.904 75.588L278.344 70.548C279.964 71.664 283.06 72.888 285.58 72.888C288.712 72.888 290.188 71.664 290.188 70.008C290.188 68.1 289.216 67.38 286.408 66.696L283.456 65.904C280 65.04 277.264 62.916 277.264 58.38C277.264 54.168 280.612 50.712 286.732 50.712C290.26 50.712 293.356 51.828 294.616 52.656L293.14 57.408C291.772 56.58 289.576 55.536 286.876 55.536C284.428 55.536 282.772 56.508 282.772 58.056C282.772 59.532 283.312 60.504 285.796 61.152L288.676 61.836C292.672 62.88 295.624 64.644 295.624 69.36C295.624 74.292 292.132 77.928 285.976 77.928ZM310.952 56.004V77.496H305.48V56.004H298.208V51.036H318.26V56.004H310.952ZM329.123 58.38L326.459 66.768H331.823L329.123 58.38ZM317.099 77.496L326.747 51.036H332.003L341.507 77.496H335.423L333.371 71.412H324.947L323.075 77.496H317.099Z" fill="white"/>
<path d="M139.318 30.46V26.824L144.178 21.46C147.166 18.148 149.506 15.196 149.506 12.136C149.506 9.328 147.994 8.464 145.762 8.464C144.502 8.464 141.91 9.328 140.434 10.156L139.246 5.512C141.046 4.468 143.71 3.532 146.662 3.532C152.35 3.532 155.518 6.124 155.518 11.2C155.518 16.132 151.774 20.74 149.074 23.584L147.166 25.6H155.374V30.46H139.318ZM168.976 26.212C171.784 26.212 173.44 23.584 173.44 17.86V16.744C173.44 10.804 171.712 8.284 169.012 8.284C166.168 8.284 164.584 10.84 164.584 16.6V17.752C164.584 23.512 166.06 26.212 168.976 26.212ZM168.94 30.892C163.432 30.892 158.824 27.256 158.824 18.04V16.96C158.824 7.204 163.864 3.568 169.048 3.568C174.268 3.568 179.164 7.348 179.164 16.816V17.788C179.164 27.544 174.088 30.892 168.94 30.892ZM181.928 30.46V26.824L186.788 21.46C189.776 18.148 192.116 15.196 192.116 12.136C192.116 9.328 190.604 8.464 188.372 8.464C187.112 8.464 184.52 9.328 183.044 10.156L181.856 5.512C183.656 4.468 186.32 3.532 189.272 3.532C194.96 3.532 198.128 6.124 198.128 11.2C198.128 16.132 194.384 20.74 191.684 23.584L189.776 25.6H197.984V30.46H181.928ZM209.565 30.964C206.649 30.964 202.833 30.1 201.501 29.164L202.653 24.448C203.733 25.168 206.829 25.996 208.593 25.996C210.969 25.996 212.553 25.06 212.553 22.396C212.553 20.092 210.789 19.3 208.521 19.084H205.353V14.62H208.089C210.429 14.62 212.265 13.468 212.265 11.452C212.265 9.292 210.645 8.536 208.521 8.536C207.045 8.536 204.813 9.22 203.373 9.832L202.329 5.224C204.021 4.252 207.549 3.64 210.141 3.64C214.641 3.64 218.025 5.908 218.025 10.336C218.025 13.432 216.729 15.412 214.137 16.42C217.017 17.14 218.781 19.48 218.781 22.936C218.781 28.12 215.037 30.964 209.565 30.964Z" fill="white"/>
<path d="M179.513 118.999C175.978 118.999 172.679 117.484 170.429 114.836L170.019 114.444C168.963 113.481 167.585 112.951 166.137 112.951C164.908 112.951 163.745 113.324 162.764 114.031L161.742 114.964C159.495 117.524 156.241 118.988 152.778 118.988C146.483 118.987 141.324 114.156 141.001 108.098C140.983 107.771 141.252 107.495 141.589 107.495H146.531C146.833 107.495 147.089 107.718 147.116 108.011C147.384 110.825 149.821 113.035 152.777 113.035C154.481 113.035 156.08 112.3 157.166 111.018L157.291 110.871L158.809 109.486L158.922 109.401C161.005 107.83 163.499 107 166.136 107C169.159 107 172.033 108.113 174.231 110.134L174.273 110.174L174.957 110.827L175.071 110.967C176.158 112.289 177.777 113.047 179.513 113.047C181.248 113.047 182.815 112.312 183.901 111.03L184.026 110.883L185.544 109.498L185.658 109.413C187.739 107.841 190.234 107.011 192.871 107.011C195.861 107.011 198.714 108.104 200.902 110.088L201 110.181L201.661 110.835L201.758 110.953C202.846 112.277 204.471 113.037 206.215 113.037C209.175 113.037 211.614 110.836 211.884 108.035C211.912 107.742 212.167 107.519 212.469 107.519H217.411C217.748 107.519 218.017 107.794 217.999 108.122C217.675 114.167 212.513 118.988 206.214 118.988C202.662 118.988 199.349 117.464 197.095 114.8L196.697 114.406C195.649 113.475 194.293 112.963 192.871 112.963C191.642 112.963 190.479 113.336 189.498 114.043L188.476 114.976C186.229 117.536 182.975 119 179.512 119L179.513 118.999Z" fill="white"/>
<path d="M54.8173 209.444L55.2933 211.824C52.5773 212.44 48.5733 212.748 43.8133 212.748L41.0413 212.776V200.456H52.8013V202.892H44.0653V210.284C48.0413 210.284 51.9613 210.088 54.8173 209.444ZM61.5093 223.892H43.9253V215.576H46.9773V221.428H61.5093V223.892ZM64.5893 208.1H60.7253V217.368H57.6453V198.188H60.7253V205.552H64.5893V208.1ZM73.3868 221.12V219.328L77.6708 214.848C80.4708 211.908 82.5988 209.5 82.5988 206.84C82.5988 204.264 81.2828 203.172 78.5948 203.172C77.0548 203.172 75.4028 203.9 74.2548 204.656L73.6388 202.304C74.9548 201.492 76.9988 200.624 79.2948 200.624C83.6068 200.624 85.8468 202.836 85.8468 206.476C85.8468 210.032 83.1588 212.888 80.2748 215.884L77.5308 218.628H86.1268V221.12H73.3868ZM101.425 224.704H98.3729V215.268H87.9569V212.832H111.925V215.268H101.425V224.704ZM109.685 201.744H101.621C102.153 205.02 106.829 207.428 110.805 207.848L109.433 210.256C105.709 209.724 101.313 207.232 99.9689 204.768C98.6809 207.372 94.3969 209.78 90.4769 210.368L89.0209 207.96C93.1089 207.54 97.8129 205.048 98.3449 201.744H90.1689V199.28H109.685V201.744ZM114.163 200.26H126.343C126.231 207.68 120.995 212.58 114.387 214.4L112.847 211.964C117.663 210.956 122.227 207.54 123.011 202.808H114.163V200.26ZM137.683 208.464H133.763V217.592H130.711V198.188H133.763V205.916H137.683V208.464ZM134.491 223.976H116.879V215.576H119.931V221.512H134.491V223.976ZM156.56 209.556C156.56 205.3 154.992 202.752 152.724 202.752C150.484 202.752 148.944 205.3 148.944 209.556C148.944 213.812 150.484 216.36 152.724 216.36C154.992 216.36 156.56 213.812 156.56 209.556ZM145.948 209.556C145.948 203.956 148.468 200.26 152.724 200.26C156.98 200.26 159.472 203.956 159.472 209.584C159.472 215.156 156.98 218.824 152.724 218.824C148.468 218.824 145.948 215.156 145.948 209.556ZM166.248 198.188V208.548H170.364V211.096H166.248V224.732H163.196V198.188H166.248ZM188.814 210.396V202.724H176.858V210.396H188.814ZM194.806 221.372H170.838V218.936H181.254V212.832H173.806V200.288H191.866V212.832H184.306V218.936H194.806V221.372ZM208.048 215.212L208.44 217.62C206.06 218.18 202.448 218.376 199.256 218.404H197.016V208.1H203.316V203.536H196.932V201.1H206.368V210.536H200.068V215.884C203.064 215.884 205.472 215.716 208.048 215.212ZM213.172 223.444H210.288V210.508H207.404V207.988H210.288V198.748H213.172V223.444ZM218.408 224.732H215.468V198.188H218.408V224.732ZM236.326 203.032H221.626V200.568H236.326V203.032ZM240.05 210.928H235.71V208.38H240.05V198.188H243.102V224.732H240.05V210.928ZM237.222 215.212L237.446 217.592C235.626 217.928 232.574 218.18 229.27 218.348C226.61 218.488 223.754 218.572 221.178 218.572L220.786 215.968H224.622L223.726 205.188L226.75 204.852L227.394 215.912C228.234 215.884 229.102 215.856 229.97 215.8H230.306L230.95 204.796L233.946 204.992L233.05 215.632C234.758 215.52 236.158 215.38 237.222 215.212ZM262.615 216.304L260.795 218.6C258.527 217.144 255.699 213.868 254.719 210.956C253.823 214.092 251.163 217.424 248.251 219.188L246.375 216.948C250.491 214.288 253.095 209.892 253.095 204.824V200.484H256.259V204.656C256.259 209.752 258.723 213.868 262.615 216.304ZM268.299 224.732H265.247V198.188H268.299V224.732ZM287.253 202.472H272.609V200.036H287.253V202.472ZM293.497 213.84H290.417V198.216H293.497V213.84ZM293.525 224.732H290.445V217.62H275.633V215.212H293.525V224.732ZM277.789 203.732L278.181 210.34C279.301 210.312 280.449 210.256 281.569 210.2L281.989 203.704L284.957 203.984L284.341 210.06C285.713 209.948 287.001 209.836 288.121 209.696L288.373 212.02C286.469 212.384 283.137 212.664 280.001 212.804C277.397 212.944 274.597 213 272.189 213.028L271.741 210.452C272.889 210.452 274.121 210.424 275.437 210.396L274.737 204.012L277.789 203.732ZM22.0096 257.044L22.4016 259.508C20.1896 260.012 16.7456 260.236 13.5256 260.236H10.8656V243.408H20.8616V245.872C18.5656 245.872 16.2136 245.844 13.9456 245.844V257.716C17.2776 257.716 19.9936 257.492 22.0096 257.044ZM32.3696 266.732H29.4296L29.4296 253.292H26.7416L26.7416 265.444H23.8576V240.72H26.7416V250.744H29.4296V240.188H32.3696V266.732ZM56.8395 244.752H37.4075V242.316H56.8395V244.752ZM56.8115 254.216H37.4355V251.752H41.3555L40.8515 246.32L43.9315 245.956L44.2675 251.752H50.1755L50.9595 246.012L53.9275 246.516L53.0595 251.752H56.8115V254.216ZM59.1635 263.316H35.1955V260.88H41.2995V255.532H44.3515V260.88H49.9235V255.532H52.9755V260.88H59.1635V263.316ZM83.0529 252.004L81.2889 254.384C79.1049 253.46 76.3889 251.248 75.2409 248.728C74.4289 251.5 71.6569 253.964 68.9969 255.084L67.1209 252.676C70.9289 251.136 73.6449 247.972 73.6449 243.884V241.364H76.7809V243.744C76.7809 247.888 80.0289 250.996 83.0529 252.004ZM85.5169 261.468C85.5169 259.676 83.3329 258.64 79.6089 258.64C75.9409 258.64 73.7849 259.676 73.7849 261.468C73.7849 263.232 75.9409 264.268 79.6089 264.268C83.3329 264.268 85.5169 263.232 85.5169 261.468ZM88.6529 261.468C88.6529 264.632 85.3209 266.732 79.6089 266.732C73.9529 266.732 70.6489 264.632 70.6489 261.468C70.6489 258.248 73.9529 256.148 79.6089 256.148C85.3209 256.148 88.6529 258.248 88.6529 261.468ZM92.1809 249.176H88.2889V255.896H85.2369V240.188H88.2889V246.628H92.1809V249.176ZM110.715 263.96V260.068H98.9827V263.96H110.715ZM114.411 243.268H95.1747V240.804H114.411V243.268ZM114.383 250.828H95.2307V248.364H99.2067L98.5067 244.276L101.503 244.108L102.091 248.364H107.523L108.195 244.08L111.191 244.388L110.407 248.364H114.383V250.828ZM113.767 266.396H95.9307V257.688H103.295V255.28H92.8787V252.816H116.847V255.28H106.347V257.688H113.767V266.396ZM139.833 266.564H121.129V259.844H135.801V257.856H121.017V255.42H138.853V262.084H124.181V264.128H139.833V266.564ZM142.045 253.404H118.077V250.94H142.045V253.404ZM139.245 249.008H121.241V240.692H138.993V243.156H124.293V246.572H139.245V249.008ZM155.314 242.708C151.478 242.708 149.238 243.632 149.238 245.088C149.238 246.488 151.478 247.412 155.314 247.412C159.15 247.412 161.418 246.488 161.418 245.088C161.418 243.632 159.15 242.708 155.314 242.708ZM155.314 240.356C161.166 240.356 164.554 242.26 164.554 245.088C164.554 247.888 161.166 249.792 155.314 249.792C149.462 249.792 146.13 247.888 146.13 245.088C146.13 242.26 149.462 240.356 155.314 240.356ZM165.058 266.564H146.326V260.012H160.998V258.164H146.186V255.756H164.05V262.224H149.378V264.156H165.058V266.564ZM167.242 253.824H143.274V251.388H167.242V253.824ZM180.772 243.996V241.56H188.22V243.996H180.772ZM193.4 258.668L193.624 261.02C188.08 261.72 182.228 261.888 176.208 261.944L175.732 259.396C178.028 259.396 180.548 259.424 183.04 259.34V254.664H186.092V259.228C188.752 259.116 191.44 258.92 193.4 258.668ZM197.936 240.188V266.732H194.884V240.188H197.936ZM177.244 248.112V245.676H191.636V248.112H186.148C186.624 250.548 189.648 252.564 192.392 252.956L190.88 255.392C188.5 254.832 185.756 252.928 184.608 250.912C183.74 253.18 180.996 255.448 178.084 256.26L176.46 253.796C179.792 253.04 182.564 250.772 182.984 248.112H177.244ZM212.97 257.044L213.362 259.508C211.15 260.012 207.706 260.236 204.486 260.236H201.826V243.408H211.822V245.872C209.526 245.872 207.174 245.844 204.906 245.844V257.716C208.238 257.716 210.954 257.492 212.97 257.044ZM223.33 266.732H220.39V253.292H217.702V265.444H214.818V240.72H217.702V250.744H220.39V240.188H223.33V266.732ZM242.263 255.616C242.263 253.908 241.199 252.704 239.463 252.704C237.783 252.704 236.691 253.908 236.691 255.616C236.691 257.324 237.783 258.472 239.463 258.472C241.199 258.472 242.263 257.268 242.263 255.616ZM245.035 255.616C245.035 258.696 242.767 260.936 239.463 260.936C236.243 260.936 233.919 258.528 233.919 255.616C233.919 252.48 236.243 250.268 239.463 250.268C242.767 250.268 245.035 252.536 245.035 255.616ZM246.099 249.064H233.275V246.6H246.099V249.064ZM243.187 244.78H236.327V242.316H243.187V244.78ZM250.803 265.472H247.919V258.78H245.427V256.372H247.919V252.396H245.287V250.016H247.919V240.72H250.803V265.472ZM255.815 266.732H252.903V240.188H255.815V266.732ZM280.985 266.732H277.933V259.62H262.897V257.184H280.985V266.732ZM269.505 247.16V249.54H262.701V252.284C266.145 252.284 268.833 252.088 270.877 251.64L271.269 254.02C269.001 254.496 265.417 254.72 262.141 254.748L259.677 254.72V242.092H269.897V244.556H262.701V247.16H269.505ZM280.985 255.784H278.073V249.176H275.441V255.532H272.557V240.664H275.441V246.628H278.073V240.188H280.985V255.784ZM302.347 249.008C302.347 246.488 299.771 244.78 295.823 244.78C291.903 244.78 289.327 246.488 289.327 249.008C289.327 251.528 291.903 253.18 295.823 253.18C299.743 253.18 302.347 251.528 302.347 249.008ZM305.455 248.98C305.455 252.872 301.647 255.672 295.823 255.672C290.055 255.672 286.219 252.872 286.219 248.98C286.219 245.116 290.055 242.288 295.823 242.288C301.647 242.288 305.455 245.116 305.455 248.98ZM307.807 263.204H283.839V260.768H307.807V263.204ZM330.681 256.484H322.505V260.936H333.005V263.372H309.037V260.936H319.453V256.484H312.117V247.916H326.873V244.472H312.005V242.036H329.925V250.38H315.169V254.02H330.681V256.484ZM37.8107 294.284V286.724H31.5947V294.284H37.8107ZM40.8627 296.692H28.5427V284.316H40.8627V296.692ZM49.0947 307.92H31.3427V299.492H34.3947V305.456H49.0947V307.92ZM48.3107 282.188V289.888H52.2027V292.436H48.3107V301.424H45.2307V282.188H48.3107ZM67.7685 290.784L68.2445 293.332C64.9965 294.116 60.2365 294.368 56.7365 294.424H53.9085V283.56H56.9325V291.848C60.8525 291.848 64.6325 291.484 67.7685 290.784ZM74.3765 308.536H56.4285V301.452H70.4285V299.212H56.2605V296.748H73.4805V303.748H59.4805V306.1H74.3765V308.536ZM77.3725 289.944H73.4805V295.348H70.4285V282.188H73.4805V287.396H77.3725V289.944ZM108.346 291.596L106.946 294.088C103.026 293.416 98.714 290.84 97.398 287.872C96.222 290.84 91.91 293.388 87.878 294.116L86.534 291.596C91.238 291.064 95.802 287.956 95.802 284.12V282.804H99.022V284.12C99.022 287.956 104.062 291.204 108.346 291.596ZM98.854 308.76H95.802V299.128H85.386V296.692H109.354V299.128H98.854V308.76ZM132.179 289.972C132.179 293.724 129.127 296.076 125.347 296.076C121.595 296.076 118.515 293.724 118.515 289.972C118.515 286.304 121.567 283.644 125.347 283.644C129.099 283.644 132.179 286.248 132.179 289.972ZM142.259 306.436L140.607 308.648C138.843 307.864 136.519 305.82 135.819 303.86C135.287 305.848 132.963 308.088 130.919 309.096L129.183 307.052C132.263 305.652 134.307 302.936 134.307 299.52V298.316H137.275V299.492C137.275 302.852 139.319 305.4 142.259 306.436ZM129.183 289.944C129.183 287.844 127.727 286.164 125.347 286.164C123.051 286.164 121.511 287.872 121.511 289.944C121.511 292.156 123.079 293.752 125.347 293.752C127.643 293.752 129.183 292.128 129.183 289.944ZM136.631 282.188H139.711V297.028H136.631V282.188ZM130.863 304.336L128.903 306.464C127.951 305.96 126.635 304.896 126.103 303.72C125.431 305.848 123.359 307.864 120.923 308.928L119.271 306.856C122.071 305.68 124.479 303.076 124.479 299.716V298.456H127.447V299.576C127.447 302.236 129.323 303.86 130.863 304.336ZM164.265 308.032H146.177V300.22H149.229V305.568H164.265V308.032ZM164.097 292.184H146.317V283.056H149.369V289.72H164.097V292.184ZM167.037 297.896H143.069V295.432H167.037V297.896ZM198.767 294.228L197.171 296.608C193.223 295.6 188.911 292.548 187.539 289.328C186.363 292.436 182.107 295.572 177.879 296.58L176.395 294.144C180.735 293.416 185.971 289.86 185.971 285.296V283.7H189.163V285.296C189.163 289.832 194.763 293.472 198.767 294.228ZM199.523 305.4H175.555V302.936H181.659V297.056H184.711V302.936H190.283V297.056H193.335V302.936H199.523V305.4ZM216.377 286.528H201.733V284.092H216.377V286.528ZM222.621 298.12H219.541V282.188H222.621V298.12ZM213.717 300.78C210.049 300.78 207.837 301.76 207.837 303.524C207.837 305.26 210.049 306.268 213.717 306.268C217.497 306.268 219.653 305.26 219.653 303.524C219.653 301.76 217.497 300.78 213.717 300.78ZM206.885 287.76L207.277 294.284L210.721 294.172L211.085 287.732L214.081 288.04L213.437 294.004C214.865 293.92 216.153 293.808 217.245 293.64L217.497 295.964C215.593 296.328 212.261 296.608 209.125 296.748C206.521 296.888 203.721 296.944 201.313 296.972L200.865 294.396C202.013 294.396 203.245 294.368 204.561 294.34L203.861 288.04L206.885 287.76ZM222.789 303.524C222.789 306.66 219.485 308.732 213.717 308.732C207.977 308.732 204.701 306.66 204.701 303.524C204.701 300.36 207.977 298.288 213.717 298.288C219.485 298.288 222.789 300.36 222.789 303.524ZM245.25 299.044L245.642 301.508C243.43 302.012 239.986 302.236 236.766 302.236H234.106V285.408H244.102V287.872C241.806 287.872 239.454 287.844 237.186 287.844V299.716C240.518 299.716 243.234 299.492 245.25 299.044ZM255.61 308.732H252.67V295.292H249.982V307.444H247.098V282.72H249.982V292.744H252.67V282.188H255.61V308.732ZM266.052 284.512V282.132H274.76V284.512H266.052ZM281.34 292.044L280.08 294.536C276.216 294.2 271.932 292.492 270.42 290.224C268.964 292.548 264.96 294.2 260.732 294.48L259.444 292.016C263.644 291.96 267.704 290.392 268.712 288.292H260.816V285.856H279.996V288.292H272.184C273.22 290.42 277.532 291.96 281.34 292.044ZM261.236 300.36H268.852V298.232H258.436V295.768H282.404V298.232H271.904V300.36H279.324V308.816H276.272V302.796H261.236V300.36ZM306.006 308.732H303.094V282.188H306.006V308.732ZM300.742 307.472H297.858V294.172H294.246V291.624H297.858V282.72H300.742V307.472ZM296.766 300.36L294.974 302.572C293.182 301.424 290.858 298.596 290.158 296.076C289.57 298.708 287.274 301.732 284.978 303.16L283.074 301.116C286.574 298.792 288.702 294.928 288.702 289.664V287.704H284.026V285.24H296.038V287.704H291.67V289.58C291.67 294.844 293.798 298.624 296.766 300.36ZM310.427 305.456V302.236H313.703V305.456H310.427ZM310.735 299.24L310.343 284.036H313.759L313.395 299.24H310.735Z" fill="white"/>
</svg>
