<svg id="구성_요소_44_10" data-name="구성 요소 44 – 10" xmlns="http://www.w3.org/2000/svg" xmlns:xlink="http://www.w3.org/1999/xlink" width="63" height="63.226" viewBox="0 0 63 63.226">
  <defs>
    <clipPath id="clip-path">
      <rect id="사각형_150" data-name="사각형 150" width="63" height="63.225" fill="none"/>
    </clipPath>
  </defs>
  <g id="그룹_341" data-name="그룹 341" clip-path="url(#clip-path)">
    <path id="패스_227" data-name="패스 227" d="M25.862,133.227c-.126.711-23.948-2.918-24.7-3.052a1.35,1.35,0,0,1-1.14-1.529A1.348,1.348,0,0,1,1.614,127.6c.755.134,24.373,4.914,24.248,5.624" transform="translate(0 -102.804)" fill="#2daeba"/>
    <path id="패스_228" data-name="패스 228" d="M27.457,168.207c.173.7-23.063,7.086-23.807,7.273a1.31,1.31,0,1,1-.63-2.538c.745-.184,24.262-5.436,24.437-4.736" transform="translate(-1.573 -135.489)" fill="#2daeba"/>
    <path id="패스_229" data-name="패스 229" d="M51.281,179.149c.442.571-18.192,15.867-18.8,16.34a1.308,1.308,0,1,1-1.6-2.06c.605-.473,19.956-14.847,20.4-14.28" transform="translate(-24.444 -144.346)" fill="#2daeba"/>
    <path id="패스_230" data-name="패스 230" d="M93.159,187.032c.635.337-10.171,21.9-10.533,22.579a1.308,1.308,0,1,1-2.3-1.228c.361-.679,12.2-21.692,12.836-21.351" transform="translate(-64.606 -150.707)" fill="#2daeba"/>
    <path id="패스_231" data-name="패스 231" d="M145.794,190.584c.719.051-.395,24.154-.449,24.918a1.308,1.308,0,1,1-2.6-.185c.055-.767,2.332-24.784,3.053-24.734" transform="translate(-115.054 -153.572)" fill="#2daeba"/>
    <path id="패스_232" data-name="패스 232" d="M170.059,189.224c.677-.245,9.449,22.225,9.711,22.948a1.307,1.307,0,1,1-2.452.891c-.263-.72-7.937-23.592-7.259-23.839" transform="translate(-137.043 -152.475)" fill="#2daeba"/>
    <path id="패스_233" data-name="패스 233" d="M180.36,183.186c.52-.5,17.661,16.454,18.192,17.006a1.308,1.308,0,1,1-1.877,1.815c-.533-.553-16.833-18.322-16.315-18.822" transform="translate(-145.371 -147.603)" fill="#2daeba"/>
    <path id="패스_234" data-name="패스 234" d="M187.251,173.445c.271-.667,22.818,7.841,23.528,8.13A1.308,1.308,0,1,1,209.8,184c-.709-.287-22.82-9.881-22.549-10.551" transform="translate(-150.933 -139.732)" fill="#2daeba"/>
    <path id="패스_235" data-name="패스 235" d="M189.612,153.069c-.024-.722,24.027-2.133,24.794-2.158a1.309,1.309,0,1,1,.09,2.613c-.766.025-24.859.266-24.884-.455" transform="translate(-152.838 -121.604)" fill="#2daeba"/>
    <path id="패스_236" data-name="패스 236" d="M187.016,99.794c-.315-.649,21.087-11.733,21.779-12.069a1.309,1.309,0,1,1,1.142,2.35c-.691.336-22.6,10.369-22.92,9.72" transform="translate(-150.743 -70.569)" fill="#2daeba"/>
    <path id="패스_237" data-name="패스 237" d="M179.943,56.312c-.551-.465,14.5-19.3,14.99-19.894a1.308,1.308,0,1,1,2,1.683c-.492.586-16.437,18.676-16.988,18.212" transform="translate(-145.032 -28.931)" fill="#2daeba"/>
    <path id="패스_238" data-name="패스 238" d="M169.486,30.2c-.693-.2,5.4-23.541,5.613-24.279a1.308,1.308,0,1,1,2.509.72c-.213.737-7.43,23.759-8.122,23.558" transform="translate(-136.571 -3.947)" fill="#2daeba"/>
    <path id="패스_239" data-name="패스 239" d="M138.216,26.036c-.713.1-4.628-23.706-4.733-24.467a1.348,1.348,0,0,1,1.1-1.557,1.351,1.351,0,0,1,1.485,1.195c.106.76,2.863,24.729,2.149,24.829" transform="translate(-107.583 0)" fill="#2daeba"/>
    <path id="패스_240" data-name="패스 240" d="M86.546,44.537c-.611.382-13.858-19.771-14.263-20.422A1.308,1.308,0,1,1,74.5,22.731c.406.651,12.659,21.424,12.048,21.806" transform="translate(-58.086 -17.772)" fill="#2daeba"/>
    <path id="패스_241" data-name="패스 241" d="M46.781,82.48c-.4.6-20.692-12.418-21.327-12.848a1.308,1.308,0,1,1,1.46-2.166c.635.429,20.27,14.417,19.867,15.013" transform="translate(-20.007 -54.163)" fill="#2daeba"/>
  </g>
</svg>
