<svg xmlns="http://www.w3.org/2000/svg" xmlns:xlink="http://www.w3.org/1999/xlink" width="750" height="1200" viewBox="0 0 750 1200">
  <defs>
    <clipPath id="clip-path">
      <rect id="사각형_573" data-name="사각형 573" width="750" height="1200" transform="translate(-6324 -1647)" fill="#fff"/>
    </clipPath>
    <clipPath id="clip-path-2">
      <rect id="사각형_541" data-name="사각형 541" width="115.831" height="112.372" transform="translate(0 0)" fill="#ff1aa3"/>
    </clipPath>
    <clipPath id="clip-path-3">
      <rect id="사각형_540" data-name="사각형 540" width="115.831" height="112.373" fill="#ff1aa3"/>
    </clipPath>
    <clipPath id="clip-path-4">
      <rect id="사각형_543" data-name="사각형 543" width="161.111" height="106" transform="matrix(0.998, -0.07, 0.07, 0.998, 29.419, 3.446)" fill="none"/>
    </clipPath>
    <clipPath id="clip-path-5">
      <rect id="사각형_542" data-name="사각형 542" width="161.111" height="106" fill="none"/>
    </clipPath>
    <clipPath id="clip-path-6">
      <rect id="사각형_545" data-name="사각형 545" width="98.758" height="113.957" fill="#ff4547"/>
    </clipPath>
    <clipPath id="clip-path-8">
      <rect id="사각형_546" data-name="사각형 546" width="87" height="87" fill="none"/>
    </clipPath>
    <clipPath id="clip-path-9">
      <rect id="사각형_548" data-name="사각형 548" width="18.417" height="22.493" transform="translate(0 0)" fill="none"/>
    </clipPath>
    <clipPath id="clip-path-11">
      <rect id="사각형_552" data-name="사각형 552" width="27.147" height="27.147" transform="translate(0 0)" fill="none"/>
    </clipPath>
    <clipPath id="clip-path-12">
      <rect id="사각형_553" data-name="사각형 553" width="20.402" height="20.402" fill="none"/>
    </clipPath>
    <clipPath id="clip-path-13">
      <rect id="사각형_551" data-name="사각형 551" width="45" height="45" transform="translate(0.327 0.327)" fill="none"/>
    </clipPath>
    <clipPath id="clip-path-16">
      <rect id="사각형_535" data-name="사각형 535" width="66" height="66" fill="none"/>
    </clipPath>
    <clipPath id="clip-path-19">
      <rect id="사각형_537" data-name="사각형 537" width="81.982" height="81.982" fill="#cbd9ff"/>
    </clipPath>
    <clipPath id="clip-path-20">
      <rect id="사각형_536" data-name="사각형 536" width="81.981" height="81.982" fill="#cbd9ff"/>
    </clipPath>
  </defs>
  <g id="마스크_그룹_828" data-name="마스크 그룹 828" transform="translate(6324 1647)" clip-path="url(#clip-path)">
    <g id="_03_BG_그래픽" data-name="03_BG_그래픽" transform="translate(-6323.012 -6578)">
      <path id="사각형_569" data-name="사각형 569" d="M0,0H690a0,0,0,0,1,0,0V1160a40,40,0,0,1-40,40H40a40,40,0,0,1-40-40V0A0,0,0,0,1,0,0Z" transform="translate(31 4931)" fill="#4931c3"/>
      <g id="그룹_823" data-name="그룹 823" transform="translate(576 5473)" clip-path="url(#clip-path-2)">
        <g id="그룹_822" data-name="그룹 822" transform="translate(0 0)" style="isolation: isolate">
          <g id="그룹_821" data-name="그룹 821">
            <g id="그룹_820" data-name="그룹 820" clip-path="url(#clip-path-3)">
              <path id="패스_2473" data-name="패스 2473" d="M52.579,4.317h0A9.143,9.143,0,0,0,67.65,4.96a9.143,9.143,0,0,1,16.436,6.128A9.142,9.142,0,0,0,95.9,20.466a9.143,9.143,0,0,1,9.7,14.617,9.142,9.142,0,0,0,4.046,14.532,9.143,9.143,0,0,1-.748,17.525,9.143,9.143,0,0,0-5.27,14.135,9.142,9.142,0,0,1-10.9,13.737,9.144,9.144,0,0,0-12.572,8.338,9.143,9.143,0,0,1-16.9,4.7,9.143,9.143,0,0,0-15.071-.643,9.143,9.143,0,0,1-16.436-6.127,9.143,9.143,0,0,0-11.815-9.379,9.143,9.143,0,0,1-9.7-14.617A9.142,9.142,0,0,0,6.188,62.757a9.143,9.143,0,0,1,.748-17.524A9.143,9.143,0,0,0,12.2,31.1,9.143,9.143,0,0,1,23.111,17.36,9.143,9.143,0,0,0,35.682,9.021a9.143,9.143,0,0,1,16.9-4.7" transform="translate(0 0)" fill="#ff1aa3"/>
            </g>
          </g>
        </g>
      </g>
      <g id="그룹_828" data-name="그룹 828" transform="matrix(0.998, 0.07, -0.07, 0.998, 5.282, 5649)">
        <g id="마스크_그룹_827" data-name="마스크 그룹 827" clip-path="url(#clip-path-4)">
          <g id="그룹_826" data-name="그룹 826" style="isolation: isolate">
            <g id="그룹_825" data-name="그룹 825">
              <g id="그룹_824" data-name="그룹 824" clip-path="url(#clip-path-5)">
                <path id="패스_2474" data-name="패스 2474" d="M145.844,51.477,38.907,103.3A27.182,27.182,0,0,1,2.7,90.733h0A27.182,27.182,0,0,1,15.268,54.524L122.2,2.7a27.1,27.1,0,0,1,23.639,48.778" transform="translate(0 0)" fill="#52f554"/>
              </g>
            </g>
          </g>
        </g>
      </g>
      <g id="그룹_833" data-name="그룹 833" transform="translate(148.927 5417.447) rotate(-51)">
        <g id="그룹_832" data-name="그룹 832" clip-path="url(#clip-path-6)">
          <g id="그룹_831" data-name="그룹 831" style="isolation: isolate">
            <g id="그룹_830" data-name="그룹 830">
              <g id="그룹_829" data-name="그룹 829" clip-path="url(#clip-path-6)">
                <path id="패스_2475" data-name="패스 2475" d="M95.449,85.755c-.027.037-.046.077-.076.113a2.193,2.193,0,1,1-3.384-2.791c.029-.036.065-.062.1-.1L90.529,81.7,88.68,80.172c-.027.037-.046.078-.075.113a2.194,2.194,0,1,1-3.385-2.791c.029-.036.066-.062.1-.1l-2.639-2.175-.767-.633c-.027.037-.046.077-.076.113a2.193,2.193,0,1,1-3.384-2.791c.029-.036.065-.063.1-.1l-3.4-2.809c-.027.037-.046.078-.076.113a2.193,2.193,0,1,1-3.384-2.791c.029-.036.065-.062.1-.1l-1.195-.986-2.21-1.823c-.027.038-.047.078-.076.114a2.194,2.194,0,1,1-3.384-2.792c.029-.035.065-.062.1-.095l-1.457-1.2L61.6,57.842c-.027.037-.047.077-.076.113a2.193,2.193,0,1,1-3.384-2.791l.011-.012L83.43,48.116l-3.017-2.488c-.024.034-.042.07-.069.1a2,2,0,0,1-3.086-2.545c.027-.033.06-.057.088-.087l-3.105-2.561c-.024.033-.042.07-.069.1A2,2,0,0,1,71.087,38.1a1.2,1.2,0,0,1,.088-.087L68.07,35.448c-.025.034-.042.07-.069.1a2,2,0,0,1-3.086-2.545c.027-.033.059-.057.088-.088l-3.1-2.56c-.025.033-.042.07-.069.1a2,2,0,0,1-3.086-2.545c.027-.033.06-.057.088-.087l-3.1-2.561c-.025.033-.042.07-.069.1a2,2,0,0,1-3.086-2.545c.027-.033.06-.057.088-.088l-3.1-2.56c-.024.033-.042.07-.069.1A2,2,0,0,1,46.4,17.736c.027-.033.06-.057.088-.088l-3.1-2.56c-.024.033-.042.07-.069.1a2,2,0,0,1-3.086-2.545c.027-.033.06-.057.089-.088L37.211,10c-.025.033-.043.07-.07.1a2,2,0,1,1-3.085-2.545c.026-.033.059-.057.088-.088L31.039,4.907c-.025.034-.042.071-.069.1a2,2,0,0,1-3.086-2.545c.027-.033.059-.057.088-.088L25.088,0l-1.24,3.526c.04.012.08.016.12.03a2,2,0,1,1-1.327,3.773c-.04-.014-.073-.037-.112-.053l-1.335,3.8c.04.012.081.015.12.03a2,2,0,1,1-1.326,3.773c-.04-.014-.074-.036-.113-.053l-1.335,3.8c.04.012.081.015.121.029a2,2,0,1,1-1.328,3.774c-.039-.014-.073-.036-.112-.053l-1.335,3.8c.04.012.081.015.121.029A2,2,0,0,1,14.68,29.97c-.04-.014-.074-.037-.113-.053l-1.335,3.8c.04.012.081.015.121.029a2,2,0,0,1-1.327,3.774c-.04-.014-.074-.037-.113-.053l-1.335,3.8c.04.012.081.015.121.029a2,2,0,0,1-1.327,3.774c-.04-.014-.074-.037-.113-.053l-1.335,3.8c.04.011.081.015.121.029a2,2,0,0,1-1.327,3.774c-.04-.014-.074-.037-.113-.053l-1.335,3.8c.04.011.081.015.121.029a2,2,0,0,1-1.327,3.774c-.04-.014-.074-.037-.113-.053L2.616,63.9c.04.011.081.015.121.029A2,2,0,0,1,1.41,67.705c-.04-.014-.074-.037-.113-.053L0,71.341l24.793-6.9.017,0a2.194,2.194,0,0,1-1.456,4.139c-.043-.016-.081-.04-.123-.058l-.838,2.382-.626,1.782c.044.013.088.017.132.033a2.193,2.193,0,0,1-1.455,4.138c-.044-.015-.081-.04-.124-.058l-.95,2.7-.514,1.462c.044.012.088.016.132.032a2.194,2.194,0,0,1-1.455,4.139c-.044-.016-.081-.041-.123-.058l-1.465,4.164c.044.012.089.017.132.032a2.194,2.194,0,0,1-1.455,4.139c-.044-.016-.081-.04-.123-.058l-.33.938L13.034,97.52c.044.013.089.017.133.033a2.193,2.193,0,0,1-1.456,4.138c-.044-.015-.081-.04-.123-.058l-.45,1.279L10.124,105.8c.044.012.088.016.132.032A2.193,2.193,0,0,1,8.8,109.968c-.043-.015-.081-.04-.123-.058l-1.423,4.047,9.828-2.736a2.193,2.193,0,1,1,4.226-1.176l4.227-1.177a2.193,2.193,0,1,1,4.226-1.177l4.226-1.176a2.194,2.194,0,0,1,4.227-1.177l4.226-1.176a2.194,2.194,0,1,1,4.227-1.177l4.226-1.176a2.193,2.193,0,1,1,4.226-1.177l4.227-1.176a2.193,2.193,0,1,1,4.226-1.177L67.8,97.1a2.193,2.193,0,1,1,4.226-1.177l4.226-1.176a2.194,2.194,0,1,1,4.227-1.177L84.7,92.4A2.193,2.193,0,1,1,88.93,91.22l9.828-2.736Z" fill="#ff4547"/>
              </g>
            </g>
          </g>
        </g>
      </g>
      <g id="그룹_835" data-name="그룹 835" transform="translate(475.383 5748.803) rotate(-25)">
        <g id="그룹_834" data-name="그룹 834" clip-path="url(#clip-path-8)">
          <path id="패스_2476" data-name="패스 2476" d="M4.931,87H8.982a2.113,2.113,0,0,1,4.226,0h3.875a2.113,2.113,0,0,1,4.227,0h3.874a2.113,2.113,0,0,1,4.227,0h3.874a2.114,2.114,0,0,1,4.227,0h3.874a2.113,2.113,0,0,1,4.227,0h3.875a2.113,2.113,0,0,1,4.226,0h3.875a2.114,2.114,0,0,1,4.227,0H65.69a2.113,2.113,0,0,1,4.227,0h3.874a2.113,2.113,0,0,1,4.227,0H87V78.018a2.113,2.113,0,1,1,0-4.226V69.917a2.113,2.113,0,1,1,0-4.227V61.816a2.114,2.114,0,1,1,0-4.227V53.715a2.114,2.114,0,1,1,0-4.227V45.613a2.113,2.113,0,1,1,0-4.226V37.512a2.114,2.114,0,1,1,0-4.227V29.411a2.113,2.113,0,1,1,0-4.227V21.31a2.113,2.113,0,1,1,0-4.227V13.208a2.113,2.113,0,1,1,0-4.226V0H78.018A2.113,2.113,0,0,1,75.9,2.113,2.114,2.114,0,0,1,73.791,0H69.917A2.113,2.113,0,0,1,67.8,2.113,2.113,2.113,0,0,1,65.69,0H61.816A2.114,2.114,0,0,1,59.7,2.113,2.113,2.113,0,0,1,57.589,0H53.714A2.113,2.113,0,0,1,51.6,2.113,2.113,2.113,0,0,1,49.488,0H45.613A2.113,2.113,0,0,1,43.5,2.113,2.114,2.114,0,0,1,41.386,0H37.512A2.113,2.113,0,0,1,35.4,2.113,2.113,2.113,0,0,1,33.285,0H29.411A2.113,2.113,0,0,1,27.3,2.113,2.113,2.113,0,0,1,25.184,0H21.31A2.114,2.114,0,0,1,19.2,2.113,2.113,2.113,0,0,1,17.083,0H13.208A2.113,2.113,0,0,1,8.982,0H0V8.982a2.113,2.113,0,0,1,0,4.226v3.875A2.113,2.113,0,0,1,2.113,19.2,2.113,2.113,0,0,1,0,21.31v3.874A2.113,2.113,0,0,1,2.113,27.3,2.113,2.113,0,0,1,0,29.411v3.874A2.114,2.114,0,0,1,2.113,35.4,2.113,2.113,0,0,1,0,37.512v3.875a2.113,2.113,0,1,1,0,4.226v3.875A2.113,2.113,0,0,1,2.113,51.6,2.114,2.114,0,0,1,0,53.715v3.874A2.113,2.113,0,0,1,2.113,59.7,2.113,2.113,0,0,1,0,61.816V65.69A2.113,2.113,0,0,1,2.113,67.8,2.113,2.113,0,0,1,0,69.917v3.875a2.113,2.113,0,1,1,0,4.226V87Z" fill="#0246ff"/>
        </g>
      </g>
      <g id="그룹_840" data-name="그룹 840" transform="translate(693 5839)">
        <g id="그룹_839" data-name="그룹 839" clip-path="url(#clip-path-9)">
          <g id="그룹_838" data-name="그룹 838" style="isolation: isolate">
            <g id="그룹_837" data-name="그룹 837">
              <g id="그룹_836" data-name="그룹 836" clip-path="url(#clip-path-9)">
                <path id="패스_2477" data-name="패스 2477" d="M.079,13.286a7.736,7.736,0,0,0,4.632,8.433c3.476,1.563,6.992.857,9.578-3.007,2.029-3.032,4.421-8.76,4.1-12.518A6.847,6.847,0,0,0,13.04.119C7.651-.95,2.54,5.4.638,10.933a11.83,11.83,0,0,0-.559,2.353" fill="#ff00cf"/>
              </g>
            </g>
          </g>
        </g>
      </g>
      <g id="그룹_848" data-name="그룹 848" transform="translate(272.001 5491.854)">
        <g id="그룹_847" data-name="그룹 847" transform="translate(315 320)" clip-path="url(#clip-path-11)">
          <path id="패스_2479" data-name="패스 2479" d="M4,21.818a3.247,3.247,0,0,0,1.711-1.193A9.831,9.831,0,0,1,7.176,18.65a36.366,36.366,0,0,1,3.582-2.392c.685-.432,1.274-.793,1.955-1.224-.115.575-.224,1.114-.284,1.349-.179.7-.363,1.409-.5,2.12a7.593,7.593,0,0,1-1.651,3.787,4.566,4.566,0,0,0-1.385,2.145,2.34,2.34,0,0,0,.662,2.183,2.035,2.035,0,0,0,3.092-.439,3.249,3.249,0,0,0,.367-2.053,9.845,9.845,0,0,1-.359-2.435,36.366,36.366,0,0,1,.841-4.224c.179-.79.34-1.462.518-2.248.325.488.63.946.754,1.155.371.625.74,1.253,1.143,1.855a7.593,7.593,0,0,1,1.51,3.846,4.569,4.569,0,0,0,.537,2.5,2.34,2.34,0,0,0,2.012,1.076,2.056,2.056,0,0,0,.261-.031A2.013,2.013,0,0,0,21.84,23.15a3.249,3.249,0,0,0-1.193-1.711,9.819,9.819,0,0,1-1.975-1.468A36.4,36.4,0,0,1,16.28,16.39c-.359-.569-.668-1.071-1.01-1.615.625.15,1.2.283,1.853.442a36.318,36.318,0,0,1,4.157,1.126,9.849,9.849,0,0,1,2.021,1.4,3.246,3.246,0,0,0,2,.586,2.037,2.037,0,0,0,1.769-2.573A2.341,2.341,0,0,0,25.412,14.2a4.565,4.565,0,0,0-2.537.286,7.593,7.593,0,0,1-4.126-.206c-.7-.19-1.413-.34-2.123-.492-.237-.051-.769-.194-1.334-.347.688-.419,1.274-.785,1.966-1.207a36.316,36.316,0,0,1,3.736-2.143,9.825,9.825,0,0,1,2.422-.436,3.247,3.247,0,0,0,1.83-1A2.013,2.013,0,0,0,24.9,5.723a2.057,2.057,0,0,0-.22-.144,2.341,2.341,0,0,0-2.281.068,4.567,4.567,0,0,0-1.592,2,7.6,7.6,0,0,1-3.064,2.772c-.629.36-1.239.759-1.849,1.153-.2.132-.68.406-1.188.7.19-.783.346-1.456.537-2.243a36.406,36.406,0,0,1,1.126-4.157,9.837,9.837,0,0,1,1.4-2.02,3.249,3.249,0,0,0,.585-2A2.035,2.035,0,0,0,15.783.075a2.34,2.34,0,0,0-1.565,1.661A4.564,4.564,0,0,0,14.5,4.273,7.59,7.59,0,0,1,14.3,8.4c-.19.7-.34,1.413-.492,2.123-.051.237-.194.768-.347,1.334-.419-.688-.785-1.274-1.207-1.966a36.37,36.37,0,0,1-2.143-3.736,9.845,9.845,0,0,1-.436-2.422,3.249,3.249,0,0,0-1-1.83,2.013,2.013,0,0,0-2.926.349,2.094,2.094,0,0,0-.144.22,2.341,2.341,0,0,0,.068,2.28,4.567,4.567,0,0,0,2,1.592,7.593,7.593,0,0,1,2.772,3.064c.36.629.759,1.239,1.153,1.849.159.246.526.89.881,1.506-.7-.14-1.424-.283-1.708-.355-.7-.179-1.409-.363-2.12-.5a7.591,7.591,0,0,1-3.787-1.652A4.57,4.57,0,0,0,2.711,8.866a2.341,2.341,0,0,0-2.183.662,2.119,2.119,0,0,0-.163.206,2.013,2.013,0,0,0,.6,2.885,3.25,3.25,0,0,0,2.054.367,9.84,9.84,0,0,1,2.434-.359,36.366,36.366,0,0,1,4.224.841c.79.179,1.462.34,2.248.518-.488.325-.946.63-1.154.754-.625.371-1.253.74-1.856,1.143a7.593,7.593,0,0,1-3.846,1.51,4.569,4.569,0,0,0-2.5.537A2.34,2.34,0,0,0,1.5,19.943a2.057,2.057,0,0,0,.031.261A2.013,2.013,0,0,0,4,21.818" transform="translate(0 0)" fill="#eae8ea"/>
          <path id="패스_2480" data-name="패스 2480" d="M45.65,59.161a5.559,5.559,0,0,0-.11-.723,1.908,1.908,0,0,0-.059-.184.077.077,0,0,0-.038-.049.23.23,0,0,0-.1-.013,1.835,1.835,0,0,0-.525.067.179.179,0,0,0-.15.224q.118.807.234,1.615a.1.1,0,0,0,.035.076c.11.082.346.022.508-.016.083-.019.234-.049.274-.106a.2.2,0,0,0,.03-.15c-.039-.246-.073-.492-.105-.739" transform="translate(-30.443 -39.658)" fill="#eae8ea"/>
          <path id="패스_2481" data-name="패스 2481" d="M37.478,22.608a.1.1,0,0,0,.035.076c.11.082.346.022.508-.016.082-.019.234-.05.274-.106a.194.194,0,0,0,.03-.15c-.039-.246-.073-.492-.105-.739a5.518,5.518,0,0,0-.11-.724q-.025-.093-.059-.184a.077.077,0,0,0-.038-.049.236.236,0,0,0-.1-.014,1.851,1.851,0,0,0-.525.067.179.179,0,0,0-.149.224l.234,1.615" transform="translate(-25.38 -14.109)" fill="#eae8ea"/>
          <path id="패스_2482" data-name="패스 2482" d="M21.015,45.688c.246-.039.492-.073.739-.105a5.572,5.572,0,0,0,.724-.11c.062-.017.124-.036.184-.059a.077.077,0,0,0,.049-.038.231.231,0,0,0,.013-.1,1.835,1.835,0,0,0-.067-.525.179.179,0,0,0-.224-.15l-1.615.234a.1.1,0,0,0-.076.035c-.082.11-.022.346.016.508.019.083.049.234.106.274a.2.2,0,0,0,.15.03" transform="translate(-14.108 -30.397)" fill="#eae8ea"/>
          <path id="패스_2483" data-name="패스 2483" d="M58.306,37.411a.1.1,0,0,0-.076.035c-.082.11-.022.346.016.508.019.082.05.234.106.274a.194.194,0,0,0,.15.03c.246-.039.492-.073.739-.105a5.572,5.572,0,0,0,.724-.11c.062-.017.124-.036.184-.059a.077.077,0,0,0,.049-.038.236.236,0,0,0,.014-.1,1.851,1.851,0,0,0-.067-.525.179.179,0,0,0-.224-.149l-1.615.234" transform="translate(-39.657 -25.334)" fill="#eae8ea"/>
          <path id="패스_2484" data-name="패스 2484" d="M29.893,57.364a.194.194,0,0,0,.127-.085c.146-.2.3-.4.448-.6a5.562,5.562,0,0,0,.434-.589c.032-.056.062-.113.089-.172A.079.079,0,0,0,31,55.86a.234.234,0,0,0-.058-.077,1.843,1.843,0,0,0-.418-.324.179.179,0,0,0-.264.053l-.976,1.308a.1.1,0,0,0-.029.079c.019.136.229.26.37.348.072.045.2.13.269.118" transform="translate(-19.936 -37.772)" fill="#eae8ea"/>
          <path id="패스_2485" data-name="패스 2485" d="M51.512,23.749l-.976,1.308a.1.1,0,0,0-.029.079c.02.136.229.26.371.348.072.045.2.13.269.118a.193.193,0,0,0,.127-.085c.146-.2.3-.4.448-.6a5.565,5.565,0,0,0,.434-.589q.048-.084.089-.172a.077.077,0,0,0,.008-.061.232.232,0,0,0-.058-.077,1.841,1.841,0,0,0-.418-.324.179.179,0,0,0-.264.053" transform="translate(-34.421 -16.126)" fill="#eae8ea"/>
          <path id="패스_2486" data-name="패스 2486" d="M56.75,51.03a5.562,5.562,0,0,0-.589-.434c-.056-.032-.113-.062-.172-.089a.079.079,0,0,0-.061-.008.234.234,0,0,0-.077.058,1.834,1.834,0,0,0-.324.418.179.179,0,0,0,.053.264l1.308.976a.1.1,0,0,0,.079.029c.136-.019.26-.229.348-.37.045-.072.13-.2.118-.269a.2.2,0,0,0-.085-.127c-.2-.146-.4-.3-.6-.448" transform="translate(-37.819 -34.414)" fill="#eae8ea"/>
          <path id="패스_2487" data-name="패스 2487" d="M25.125,30.962a.1.1,0,0,0,.079.029c.136-.019.26-.229.348-.37.045-.072.131-.2.119-.269a.2.2,0,0,0-.085-.127c-.2-.146-.4-.3-.6-.448a5.533,5.533,0,0,0-.59-.434q-.083-.048-.172-.089a.079.079,0,0,0-.061-.008.231.231,0,0,0-.077.058,1.833,1.833,0,0,0-.324.418.179.179,0,0,0,.053.264l1.308.976" transform="translate(-16.172 -19.929)" fill="#eae8ea"/>
        </g>
      </g>
      <g id="그룹_850" data-name="그룹 850" transform="translate(549 5550)" opacity="0.514">
        <g id="그룹_849" data-name="그룹 849" clip-path="url(#clip-path-12)">
          <path id="패스_2488" data-name="패스 2488" d="M20.071,10.408a1.525,1.525,0,0,0-1.184-.459,1.123,1.123,0,0,0-.984.728c-.171-.022-.352-.043-.538-.064a7.722,7.722,0,0,0-.924-1.022c-.046-.005-.148.062-.192.08l-.211.088a5.438,5.438,0,0,0-.923.468l-.105.074q-.252-.039-.505-.071a11.535,11.535,0,0,0-.906-.993c.082-.469.192-1.126.25-1.365l.4-.318.04,0a10.206,10.206,0,0,0,1.553-.169c.055-.018.1-.263.107-.315a2.508,2.508,0,0,0,.042-.345c0-.053.018-.331.046-.606l.477-.375A1.311,1.311,0,0,0,18.444,4.1a1.58,1.58,0,0,0-.093-.152,1.35,1.35,0,0,0-1.015-.577,1.525,1.525,0,0,0-1.162.513,1.122,1.122,0,0,0-.181,1.21c-.136.106-.279.219-.425.335a7.7,7.7,0,0,0-1.376-.07c-.036.029-.061.149-.079.193l-.087.212a5.441,5.441,0,0,0-.322.983c0,.013-.011.061-.022.127q-.206.151-.407.307a11.615,11.615,0,0,0-1.343-.062c-.274-.39-.66-.931-.789-1.142q.028-.253.056-.505l.03-.027a10.19,10.19,0,0,0,.978-1.218c.026-.051-.118-.255-.147-.3a2.539,2.539,0,0,0-.215-.274c-.035-.04-.221-.247-.4-.461.024-.214.048-.415.072-.6a1.311,1.311,0,0,0,.2-2.53,1.594,1.594,0,0,0-.174-.042,1.35,1.35,0,0,0-1.125.31,1.524,1.524,0,0,0-.459,1.184A1.122,1.122,0,0,0,10.7,2.5c-.022.171-.043.352-.064.538a7.7,7.7,0,0,0-1.022.924c-.005.046.062.148.08.192l.088.212a5.409,5.409,0,0,0,.468.923l.074.105q-.039.252-.071.5a11.661,11.661,0,0,0-1,.913,11.7,11.7,0,0,0-1.332-.25q-.161-.2-.326-.392c0-.067.007-.116.008-.129A5.416,5.416,0,0,0,7.51,5.01l-.036-.227c-.007-.047,0-.17-.033-.206A7.7,7.7,0,0,0,6.086,4.33c-.116-.147-.229-.289-.337-.424a1.123,1.123,0,0,0,.1-1.219,1.526,1.526,0,0,0-1.013-.766,1.35,1.35,0,0,0-1.12.329,1.637,1.637,0,0,0-.126.127A1.311,1.311,0,0,0,5.1,4.421c.118.147.245.306.378.475-.035.274-.085.548-.094.6a2.556,2.556,0,0,0-.039.346c0,.053-.017.3.032.331a10.193,10.193,0,0,0,1.473.521l.039.007.314.4c0,.246-.043.91-.07,1.386a11.529,11.529,0,0,0-1.11.76c-.169-.018-.338-.034-.508-.047l-.085-.1a5.44,5.44,0,0,0-.791-.667L4.45,8.3c-.039-.028-.123-.117-.169-.122a7.715,7.715,0,0,0-1.134.783c-.185-.022-.366-.043-.538-.061a1.123,1.123,0,0,0-.791-.934,1.525,1.525,0,0,0-1.258.175A1.35,1.35,0,0,0,0,9.167a1.572,1.572,0,0,0,0,.179,1.311,1.311,0,0,0,2.51.381l.6.069c.169.219.328.448.358.491a2.511,2.511,0,0,0,.217.272c.036.038.2.225.257.211A10.229,10.229,0,0,0,5.358,10.1l.033-.023.5.061c.175.173.613.673.93,1.029a11.573,11.573,0,0,0-.247,1.322q-.2.161-.392.326L6.058,12.8a5.42,5.42,0,0,0-1.031.088l-.227.036c-.047.008-.17,0-.206.033a7.729,7.729,0,0,0-.248,1.355c-.147.115-.289.229-.424.337a1.123,1.123,0,0,0-1.22-.1,1.524,1.524,0,0,0-.766,1.013,1.351,1.351,0,0,0,.329,1.12,1.586,1.586,0,0,0,.127.126,1.311,1.311,0,0,0,2.044-1.505c.147-.118.306-.245.475-.378.274.036.548.085.6.094a2.529,2.529,0,0,0,.346.039c.052,0,.3.016.331-.032a10.2,10.2,0,0,0,.52-1.473l.007-.039.4-.313c.246,0,.91.042,1.386.07a11.628,11.628,0,0,0,.76,1.11q-.026.254-.047.508l-.1.086a5.413,5.413,0,0,0-.667.791l-.134.186c-.028.039-.117.123-.122.169a7.7,7.7,0,0,0,.783,1.134c-.022.185-.043.366-.061.538a1.122,1.122,0,0,0-.934.791A1.524,1.524,0,0,0,8.16,19.84a1.35,1.35,0,0,0,1.024.56,1.571,1.571,0,0,0,.179,0,1.311,1.311,0,0,0,.381-2.51c.02-.188.043-.39.068-.6.219-.169.448-.328.491-.358a2.547,2.547,0,0,0,.272-.217c.038-.036.225-.2.211-.257a10.181,10.181,0,0,0-.673-1.409l-.023-.033q.031-.251.061-.5c.172-.174.667-.607,1.022-.924.468.082,1.117.19,1.355.248l.318.4c0,.013,0,.027,0,.04a10.187,10.187,0,0,0,.169,1.553c.018.054.263.1.315.107a2.532,2.532,0,0,0,.345.042c.053,0,.331.018.606.047.134.168.259.328.375.477A1.311,1.311,0,0,0,16.3,18.426a1.571,1.571,0,0,0,.153-.094,1.35,1.35,0,0,0,.576-1.015,1.525,1.525,0,0,0-.513-1.162,1.123,1.123,0,0,0-1.21-.181c-.106-.136-.219-.279-.335-.425a7.7,7.7,0,0,0,.07-1.376c-.029-.036-.149-.061-.193-.079l-.212-.087a5.413,5.413,0,0,0-.983-.321l-.127-.022q-.151-.206-.307-.407a11.62,11.62,0,0,0,.062-1.343c.39-.274.931-.66,1.142-.789l.505.056.027.03a10.227,10.227,0,0,0,1.217.978c.051.026.255-.118.3-.147a2.549,2.549,0,0,0,.274-.215c.04-.035.247-.221.461-.4l.6.072a1.311,1.311,0,0,0,2.53.2,1.579,1.579,0,0,0,.042-.174,1.351,1.351,0,0,0-.31-1.125M16.757,4.49a.567.567,0,0,1,.524-.331.45.45,0,0,1,.084.016.494.494,0,0,1,.11.048.6.6,0,0,1,.056.038.592.592,0,0,1,.224.577.435.435,0,0,1-.24.279.508.508,0,0,1-.3.049.6.6,0,0,1-.276-.13.508.508,0,0,1-.178-.548M4.845,3.633a.594.594,0,0,1-.3.063.508.508,0,0,1-.285-.118.435.435,0,0,1-.17-.327.593.593,0,0,1,.351-.511.565.565,0,0,1,.064-.024A.5.5,0,0,1,4.623,2.7a.458.458,0,0,1,.086,0,.567.567,0,0,1,.435.442.508.508,0,0,1-.3.492M1.779,9.348a.6.6,0,0,1-.167.256.507.507,0,0,1-.285.118.436.436,0,0,1-.351-.111A.593.593,0,0,1,.89,8.94a.487.487,0,0,1,.068-.1.459.459,0,0,1,.063-.058.567.567,0,0,1,.62.005.507.507,0,0,1,.137.559M3.6,16.141a.434.434,0,0,1-.327.17.592.592,0,0,1-.511-.351.512.512,0,0,1-.025-.064.491.491,0,0,1-.021-.118.451.451,0,0,1,0-.086.567.567,0,0,1,.442-.435.508.508,0,0,1,.492.3.594.594,0,0,1,.063.3.509.509,0,0,1-.118.285m11.639,1.053a.6.6,0,0,1,.13-.276.508.508,0,0,1,.548-.178.568.568,0,0,1,.331.525.458.458,0,0,1-.016.084.5.5,0,0,1-.048.11.566.566,0,0,1-.038.056.592.592,0,0,1-.577.224.435.435,0,0,1-.279-.241.506.506,0,0,1-.049-.3m-4.36-9c.055-.406.109-.841.162-1.289.089.12.194.272.3.423s.2.284.281.4c.125,0,.265.006.411.006.184,0,.377,0,.558,0l-.6.49c-.42.338-.783.623-1.2.957.034-.415.067-.81.09-.98m-.067-6.666a.567.567,0,0,1,.137-.6.416.416,0,0,1,.071-.048.475.475,0,0,1,.111-.044.571.571,0,0,1,.067-.013.592.592,0,0,1,.567.25.435.435,0,0,1,.027.367.509.509,0,0,1-.18.251.594.594,0,0,1-.287.1.508.508,0,0,1-.513-.262M8.986,7.379c.161.038.317.073.451.1.1-.093.215-.2.332-.321s.257-.26.38-.385c-.027.258-.053.515-.08.773-.059.543-.115,1.007-.173,1.545-.333-.427-.624-.792-.96-1.223l-.475-.615c.17.042.352.087.525.128M7.371,9.058c.124-.077.243-.152.346-.222.011-.14.021-.312.03-.486h0c.01-.184.019-.369.031-.517.28.353.556.695.816,1.011.109.133.345.452.593.786-.528-.066-.988-.117-1.523-.183l-.771-.1c.155-.094.321-.194.477-.291m-.1,2.883c.043-.176.09-.364.132-.543.033-.143.064-.28.088-.4-.091-.107-.206-.235-.322-.365s-.247-.274-.343-.388c.448.051.884.1,1.292.138.171.016.564.075.975.137-.42.327-.781.615-1.206.947l-.615.475m2.2.8c-.032.257-.066.514-.1.771-.094-.155-.194-.32-.291-.477-.077-.124-.152-.243-.222-.347-.14-.011-.312-.021-.486-.03h0c-.184-.01-.368-.019-.517-.031.353-.28.695-.556,1.011-.816.133-.109.452-.345.786-.592-.066.528-.117.988-.183,1.523m.274,6.337a.435.435,0,0,1-.111.351.592.592,0,0,1-.609.113.55.55,0,0,1-.062-.028.465.465,0,0,1-.1-.068.437.437,0,0,1-.058-.063.567.567,0,0,1,.005-.62.508.508,0,0,1,.559-.137.594.594,0,0,1,.256.167.508.508,0,0,1,.118.285m1.683-6.066c-.153-.027-.3-.055-.432-.074-.1.085-.213.187-.328.291-.141.126-.283.255-.4.354.051-.448.1-.884.138-1.292.017-.168.073-.552.134-.956.265.312.515.608.617.742.248.326.518.672.8,1.026-.152-.023-.34-.057-.526-.091m1.65-1.691c-.143.1-.284.2-.4.281,0,.124-.006.265-.006.411,0,.184,0,.377,0,.559l-.49-.6c-.338-.42-.623-.784-.957-1.2.415.034.81.067.981.09.406.055.841.109,1.289.162-.12.088-.272.194-.423.3m-.213-1.266c-.536-.058-.995-.113-1.524-.171l.036-.03c.3-.258.59-.5.722-.6.326-.248.672-.518,1.026-.8-.022.147-.055.33-.088.511h0c-.031.171-.061.34-.082.479.085.091.183.192.287.3.13.13.268.265.4.392l-.773-.08m6.473,1.692a.436.436,0,0,1-.367.027.509.509,0,0,1-.251-.18.6.6,0,0,1-.1-.287.508.508,0,0,1,.262-.513.567.567,0,0,1,.6.137.462.462,0,0,1,.048.071.5.5,0,0,1,.044.111.506.506,0,0,1,.013.067.592.592,0,0,1-.25.567" transform="translate(0 0)" fill="#fff"/>
        </g>
      </g>
      <g id="그룹_846" data-name="그룹 846" transform="translate(178.673 5584.673)" opacity="0.679" clip-path="url(#clip-path-13)">
        <g id="그룹_845" data-name="그룹 845">
          <g id="그룹_844" data-name="그룹 844" clip-path="url(#clip-path-13)">
            <g id="그룹_843" data-name="그룹 843" opacity="0.84">
              <g id="그룹_842" data-name="그룹 842">
                <g id="그룹_841" data-name="그룹 841" clip-path="url(#clip-path-13)">
                  <path id="패스_2478" data-name="패스 2478" d="M10.676,27.68c-1.933-.253-4.979-.643-6.352-.828-1.232,2.394-2.8,4.5-3.618,6.3,2.942.512,4.316.348,7.048,1.045.884-1.241,2.643-3.123,3.755-4.711.937-.409,2.02-.926,2.981-1.334-.309.778-.494,1.4-.771,2.183.453-.069.867-.175,1.319-.244a.185.185,0,0,0,.094-.032.188.188,0,0,0,.052-.1l.714-2.355c1.232-.466,2.385-1.033,3.586-1.592.679-.313,1.285-.583,1.929-.877-.123.365-.228.668-.3.835-.588,1.432-1.213,3.1-1.807,4.7-.872.319-1.484.482-2.244.688-.034.009-.077,0-.1.033s0,.062.006.095a11.667,11.667,0,0,0,.03,1.265q.914-.348,1.809-.741c-.412,1.115-.8,2.157-1.135,3.016-1.545,1.188-3.975,3.066-5.076,3.906.822,2.563,1.2,5.165,1.9,7.014,2.442-1.719,3.3-2.806,5.722-4.245-.252-1.5-.34-4.077-.675-5.986.373-.953.773-2.084,1.165-3.051.332.769.638,1.335,1,2.088.272-.369.489-.737.76-1.106a.143.143,0,0,0,.012-.195l-1.161-2.169c.542-1.2.956-2.417,1.41-3.661.259-.7.5-1.321.744-1.984.171.345.311.634.381.8.6,1.429,1.331,3.047,2.045,4.6-.391.842-.708,1.39-1.1,2.073-.017.031-.052.056-.044.091s.046.041.071.063a11.816,11.816,0,0,0,.916.874q.4-.892.755-1.8c.5,1.08.961,2.089,1.33,2.935-.252,1.933-.643,4.979-.828,6.352,2.394,1.232,4.5,2.8,6.3,3.618.512-2.942.348-4.316,1.045-7.047-1.241-.885-3.123-2.643-4.711-3.756-.409-.937-.925-2.02-1.333-2.981.778.309,1.4.494,2.183.771-.07-.453-.175-.867-.244-1.319a.2.2,0,0,0-.032-.094.192.192,0,0,0-.1-.052l-2.355-.714c-.466-1.232-1.033-2.385-1.592-3.585-.175-.381-.338-.738-.5-1.092.362.139.728.281,1.118.434,1.231.489,2.414.989,3.671,1.383l.848,2.309a.144.144,0,0,0,.154.122c.455.042.874.125,1.33.168-.322-.77-.541-1.376-.895-2.135.983.352,2.094.8,3.053,1.16,1.2,1.521,3.066,3.3,4.021,4.486,2.687-.853,4.068-.769,6.976-1.449-.918-1.749-2.607-3.764-3.975-6.083-1.36.264-4.378.829-6.293,1.193-.865-.32-1.9-.725-3.006-1.159q.889-.408,1.757-.858a11.68,11.68,0,0,0-.925-.865c-.023-.023-.034-.061-.067-.067s-.058.03-.088.049c-.659.431-1.188.779-2.006,1.218-1.593-.624-3.25-1.264-4.711-1.777-.169-.059-.466-.182-.82-.333.647-.286,1.252-.558,1.938-.858,1.216-.525,2.406-1.008,3.574-1.618l2.232,1.033a.19.19,0,0,0,.109.026.2.2,0,0,0,.086-.049c.353-.292.707-.531,1.06-.823-.772-.317-1.356-.59-2.142-.877.944-.446,2.05-.911,2.979-1.339,1.926.226,4.5.164,6.015.33,1.3-2.5,2.333-3.42,3.908-5.957-1.886-.587-4.505-.818-7.112-1.491-.775,1.148-2.509,3.682-3.607,5.293-.838.386-1.856.831-2.945,1.306q.339-.916.636-1.848a11.535,11.535,0,0,0-1.266.043c-.033,0-.068-.019-.095,0s-.019.063-.027.1c-.162.771-.289,1.391-.557,2.28-1.568.685-3.193,1.4-4.589,2.074-.162.078-.459.2-.816.344.256-.66.49-1.28.764-1.976.489-1.231.989-2.414,1.383-3.672l2.309-.848a.185.185,0,0,0,.095-.058.189.189,0,0,0,.026-.1c.043-.456.125-.875.168-1.331-.769.322-1.375.542-2.135.895.352-.983.8-2.094,1.16-3.053,1.521-1.2,3.3-3.066,4.487-4.021C32.6,4.289,32.685,2.908,32,0c-1.749.918-3.764,2.607-6.083,3.974.264,1.36.829,4.378,1.192,6.294-.32.865-.725,1.9-1.159,3.006q-.407-.888-.858-1.757a11.654,11.654,0,0,0-.864.925c-.024.023-.062.035-.068.067s.031.058.049.088c.431.659.78,1.189,1.218,2.006-.624,1.593-1.264,3.251-1.777,4.711-.06.17-.183.466-.334.821-.285-.648-.558-1.252-.857-1.938-.525-1.216-1.008-2.406-1.619-3.574l1.034-2.233a.144.144,0,0,0-.023-.194c-.292-.353-.531-.707-.822-1.06-.317.771-.59,1.355-.877,2.142-.446-.943-.911-2.05-1.339-2.979.226-1.926.164-4.5.33-6.015-2.5-1.3-3.42-2.332-5.957-3.908C12.6,2.262,12.372,4.881,11.7,7.488c1.148.775,3.682,2.51,5.293,3.607.385.838.831,1.856,1.306,2.945q-.917-.339-1.849-.635a11.7,11.7,0,0,0,.043,1.265c0,.033-.019.068,0,.095s.063.02.1.027c.771.162,1.392.29,2.28.558.685,1.567,1.4,3.192,2.075,4.588.129.269.382.91.648,1.583-.687-.227-1.342-.443-1.618-.556-1.432-.589-3.1-1.213-4.7-1.807-.319-.872-.482-1.484-.687-2.245-.01-.033,0-.077-.033-.1s-.061,0-.094.006a11.684,11.684,0,0,0-1.266.03q.348.913.741,1.809c-1.115-.411-2.156-.8-3.015-1.134-1.188-1.545-3.066-3.975-3.906-5.077-2.563.822-5.164,1.2-7.014,1.9,1.718,2.443,2.806,3.3,4.244,5.723,1.5-.253,4.077-.34,5.987-.676.952.373,2.083.774,3.051,1.165-.769.331-1.335.638-2.088,1,.369.271.737.489,1.106.76a.144.144,0,0,0,.2.012l2.169-1.161c1.2.542,2.417.956,3.661,1.411.7.258,1.321.5,1.984.744-.345.172-.634.312-.8.381-1.429.6-3.047,1.331-4.6,2.046-.842-.391-1.39-.709-2.073-1.1-.03-.017-.056-.052-.091-.045s-.041.047-.063.071a11.708,11.708,0,0,0-.874.916q.892.4,1.8.755c-1.079.5-2.089.961-2.935,1.33m-1.9,3.109A16.913,16.913,0,0,1,7.064,32.48a.454.454,0,0,1-.182.1.468.468,0,0,1-.186-.014,30.939,30.939,0,0,0-3.507-.624,18.831,18.831,0,0,0,2.121-3.355.324.324,0,0,1,.1-.134.305.305,0,0,1,.184-.036,11.569,11.569,0,0,1,1.628.134q.2.036.409.079c.434.092.863.2,1.3.288.109.021,1.128.291,1.189.189a8.956,8.956,0,0,1-1.341,1.685m9.762,7.784a16.809,16.809,0,0,1-.015,2.405.456.456,0,0,1-.06.2.47.47,0,0,1-.142.122A31.015,31.015,0,0,0,15.4,43.335a18.829,18.829,0,0,0-.872-3.872A.324.324,0,0,1,14.5,39.3a.3.3,0,0,1,.105-.157,11.421,11.421,0,0,1,1.246-1.055c.113-.08.228-.157.345-.233.371-.242.754-.466,1.122-.714.092-.061,1-.592.975-.707a8.945,8.945,0,0,1,.243,2.14M37.5,28.092c.429-.109.852-.246,1.28-.362.134-.037.268-.072.4-.1A11.551,11.551,0,0,1,40.8,27.4a.309.309,0,0,1,.187.025.337.337,0,0,1,.1.128A18.841,18.841,0,0,0,43.4,30.78a31.121,31.121,0,0,0-3.465.824.468.468,0,0,1-.185.025.453.453,0,0,1-.186-.086,16.728,16.728,0,0,1-1.806-1.59,8.941,8.941,0,0,1-1.436-1.6c.067.1,1.069-.23,1.177-.258m-.558-11.737c.226-.382.429-.777.648-1.162.069-.12.139-.24.213-.358a11.551,11.551,0,0,1,.982-1.3.3.3,0,0,1,.15-.114.332.332,0,0,1,.164.017,18.844,18.844,0,0,0,3.916.648,31.029,31.029,0,0,0-1.867,3.033.474.474,0,0,1-.113.148.458.458,0,0,1-.193.071,16.866,16.866,0,0,1-2.4.153,8.939,8.939,0,0,1-2.15-.12c.117.022.594-.918.65-1.013M28.247,8.45c-.11-.429-.246-.851-.363-1.28q-.055-.2-.1-.4a11.561,11.561,0,0,1-.228-1.617.3.3,0,0,1,.026-.187.335.335,0,0,1,.127-.1,18.787,18.787,0,0,0,3.228-2.311,31.116,31.116,0,0,0,.825,3.465.469.469,0,0,1,.024.185.447.447,0,0,1-.086.187,16.855,16.855,0,0,1-1.589,1.806,8.968,8.968,0,0,1-1.6,1.436c.1-.067-.23-1.069-.257-1.177M7.377,18.383a16.819,16.819,0,0,1-2.406-.014.447.447,0,0,1-.2-.061.469.469,0,0,1-.122-.141,31.015,31.015,0,0,0-2.039-2.921,18.819,18.819,0,0,0,3.872-.872.333.333,0,0,1,.163-.026.306.306,0,0,1,.157.105A11.554,11.554,0,0,1,7.862,15.7c.08.113.157.229.233.345.242.372.467.755.714,1.122.061.091.592,1,.707.974a8.935,8.935,0,0,1-2.139.243M30.943,37.174a16.626,16.626,0,0,1,1.691,1.711.445.445,0,0,1,.1.181.481.481,0,0,1-.014.186,30.935,30.935,0,0,0-.625,3.507,18.845,18.845,0,0,0-3.355-2.121.333.333,0,0,1-.134-.1.308.308,0,0,1-.036-.184,11.558,11.558,0,0,1,.134-1.627c.024-.137.051-.274.079-.409.092-.433.2-.863.288-1.3.022-.108.291-1.128.189-1.189a8.927,8.927,0,0,1,1.684,1.342M15.348,8.36c-.12-.069-.24-.139-.358-.213a11.471,11.471,0,0,1-1.3-.982.3.3,0,0,1-.113-.15.324.324,0,0,1,.016-.164,18.8,18.8,0,0,0,.648-3.916A31.113,31.113,0,0,0,17.269,4.8a.466.466,0,0,1,.148.113.437.437,0,0,1,.071.192,16.67,16.67,0,0,1,.153,2.4,8.975,8.975,0,0,1-.119,2.15c.022-.117-.919-.594-1.014-.65-.382-.226-.776-.428-1.161-.648" fill="#fff"/>
                </g>
              </g>
            </g>
          </g>
        </g>
      </g>
      <g id="그룹_810" data-name="그룹 810" transform="translate(97 5806)" clip-path="url(#clip-path-16)">
        <g id="그룹_809" data-name="그룹 809">
          <g id="그룹_808" data-name="그룹 808" clip-path="url(#clip-path-16)">
            <g id="그룹_807" data-name="그룹 807" opacity="0.84">
              <g id="그룹_806" data-name="그룹 806">
                <g id="그룹_805" data-name="그룹 805" clip-path="url(#clip-path-16)">
                  <path id="패스_2470" data-name="패스 2470" d="M15.335,39.758c-2.776-.363-7.151-.924-9.123-1.19-1.769,3.439-4.024,6.468-5.2,9.052,4.226.735,6.2.5,10.123,1.5,1.27-1.782,3.8-4.486,5.394-6.766,1.346-.588,2.9-1.33,4.282-1.916-.444,1.118-.709,2.005-1.107,3.135.651-.1,1.245-.251,1.9-.351a.266.266,0,0,0,.135-.046.27.27,0,0,0,.075-.14q.513-1.692,1.025-3.382c1.77-.67,3.426-1.484,5.151-2.287.975-.45,1.845-.838,2.77-1.259-.176.524-.327.96-.426,1.2-.845,2.057-1.742,4.446-2.595,6.751-1.252.458-2.131.693-3.223.988-.049.013-.11,0-.137.047s0,.089.008.136a16.759,16.759,0,0,0,.043,1.817q1.313-.5,2.6-1.064c-.592,1.6-1.147,3.1-1.63,4.332-2.219,1.707-5.709,4.4-7.291,5.61,1.18,3.682,1.727,7.419,2.726,10.075,3.508-2.469,4.737-4.03,8.219-6.1-.362-2.159-.488-5.856-.97-8.6.536-1.369,1.111-2.993,1.673-4.383.477,1.1.916,1.918,1.434,3,.39-.53.7-1.058,1.092-1.588a.205.205,0,0,0,.017-.28l-1.667-3.116c.778-1.725,1.373-3.472,2.025-5.259.372-1.008.713-1.9,1.069-2.85.246.5.447.911.547,1.149.856,2.053,1.912,4.376,2.938,6.609-.561,1.209-1.017,2-1.581,2.978-.025.044-.074.081-.063.13s.066.059.1.09a16.972,16.972,0,0,0,1.315,1.255q.576-1.281,1.085-2.59c.715,1.551,1.38,3,1.911,4.215-.362,2.776-.923,7.151-1.189,9.123,3.438,1.769,6.468,4.024,9.052,5.2.735-4.226.5-6.2,1.5-10.122-1.783-1.271-4.486-3.8-6.767-5.4-.588-1.346-1.329-2.9-1.915-4.282,1.118.444,2,.709,3.135,1.107-.1-.65-.252-1.245-.351-1.9a.279.279,0,0,0-.046-.135.276.276,0,0,0-.141-.075l-3.382-1.025c-.669-1.77-1.484-3.425-2.286-5.15-.252-.547-.485-1.06-.714-1.568.52.2,1.046.4,1.606.623,1.768.7,3.467,1.42,5.273,1.986l1.218,3.317a.207.207,0,0,0,.221.175c.654.061,1.256.179,1.911.241-.462-1.106-.777-1.976-1.285-3.066,1.412.5,3.007,1.156,4.385,1.666,1.727,2.184,4.4,4.738,5.775,6.444,3.859-1.225,5.843-1.1,10.02-2.081-1.319-2.512-3.745-5.407-5.709-8.738-1.953.379-6.289,1.191-9.039,1.713-1.243-.46-2.729-1.041-4.318-1.665q1.277-.586,2.523-1.232a16.775,16.775,0,0,0-1.329-1.242c-.033-.033-.049-.088-.1-.1s-.084.043-.126.071c-.947.619-1.707,1.119-2.882,1.749-2.288-.9-4.668-1.816-6.767-2.553-.243-.085-.67-.262-1.178-.479.93-.411,1.8-.8,2.783-1.232C41.608,31.29,43.318,30.6,45,29.72L48.2,31.2a.272.272,0,0,0,.156.038.282.282,0,0,0,.123-.07c.507-.42,1.016-.762,1.523-1.182-1.109-.455-1.947-.847-3.077-1.259,1.356-.641,2.944-1.309,4.279-1.923,2.766.324,6.464.236,8.64.474,1.863-3.595,3.351-4.912,5.613-8.557-2.709-.843-6.471-1.175-10.215-2.141-1.113,1.649-3.6,5.289-5.181,7.6-1.2.554-2.666,1.194-4.23,1.876q.488-1.316.913-2.655a16.568,16.568,0,0,0-1.818.062c-.047,0-.1-.028-.136,0s-.028.09-.039.14c-.232,1.107-.415,2-.8,3.275-2.252.984-4.586,2.016-6.591,2.979-.232.112-.659.288-1.172.494.367-.948.7-1.838,1.1-2.838.7-1.768,1.42-3.468,1.987-5.274l3.317-1.218a.266.266,0,0,0,.136-.083.271.271,0,0,0,.038-.137c.062-.655.18-1.257.241-1.912-1.1.462-1.975.778-3.066,1.285.506-1.412,1.156-3.007,1.666-4.385,2.185-1.727,4.738-4.4,6.445-5.775C46.826,6.16,46.947,4.177,45.969,0c-2.512,1.319-5.406,3.744-8.737,5.708.379,1.954,1.191,6.289,1.712,9.04-.46,1.242-1.041,2.729-1.665,4.317q-.585-1.275-1.232-2.523a16.739,16.739,0,0,0-1.241,1.329c-.034.033-.089.05-.1.1s.044.084.071.126c.619.947,1.12,1.708,1.75,2.882-.9,2.288-1.816,4.669-2.553,6.767-.086.244-.263.67-.48,1.179-.41-.931-.8-1.8-1.231-2.784-.754-1.746-1.448-3.456-2.325-5.133L31.426,17.8a.206.206,0,0,0-.033-.279c-.419-.507-.762-1.016-1.181-1.522-.455,1.108-.847,1.946-1.259,3.076-.641-1.355-1.309-2.944-1.923-4.279.324-2.766.236-6.464.474-8.64C23.908,4.29,22.592,2.8,18.947.54c-.844,2.709-1.176,6.471-2.142,10.215,1.649,1.113,5.289,3.6,7.6,5.181.553,1.2,1.193,2.666,1.876,4.23q-1.317-.488-2.656-.912a16.81,16.81,0,0,0,.062,1.817c0,.047-.028.1,0,.136s.09.029.139.039c1.107.232,2,.416,3.275.8.984,2.251,2.017,4.585,2.98,6.59.185.386.549,1.307.931,2.274-.987-.326-1.927-.636-2.324-.8-2.057-.846-4.446-1.742-6.751-2.595-.458-1.252-.692-2.132-.987-3.224-.014-.048,0-.11-.048-.137s-.088.006-.135.009a16.782,16.782,0,0,0-1.818.043q.5,1.311,1.064,2.6c-1.6-.591-3.1-1.146-4.331-1.629-1.707-2.219-4.4-5.71-5.611-7.292C6.392,19.065,2.656,19.613,0,20.611c2.468,3.509,4.03,4.738,6.1,8.22,2.159-.363,5.856-.488,8.6-.971,1.368.536,2.992,1.112,4.382,1.674-1.1.476-1.918.916-3,1.434.53.389,1.058.7,1.588,1.091a.207.207,0,0,0,.281.017l3.115-1.667c1.726.779,3.472,1.373,5.259,2.026,1.009.371,1.9.712,2.85,1.068-.495.247-.911.448-1.149.547-2.053.857-4.376,1.912-6.609,2.939-1.209-.562-2-1.018-2.978-1.581-.043-.025-.08-.075-.13-.064s-.059.067-.09.1a16.816,16.816,0,0,0-1.255,1.316q1.281.574,2.59,1.085c-1.55.714-3,1.38-4.215,1.911M12.6,44.224a24.292,24.292,0,0,1-2.458,2.429.652.652,0,0,1-.261.138.672.672,0,0,1-.267-.02,44.44,44.44,0,0,0-5.037-.9,27.047,27.047,0,0,0,3.047-4.819.465.465,0,0,1,.139-.192.438.438,0,0,1,.265-.052,16.616,16.616,0,0,1,2.338.193q.294.051.587.114c.623.132,1.24.292,1.865.414.156.03,1.62.418,1.708.271a12.864,12.864,0,0,1-1.926,2.42M26.626,55.4a24.144,24.144,0,0,1-.021,3.455.655.655,0,0,1-.086.282.675.675,0,0,1-.2.175,44.548,44.548,0,0,0-4.195,2.928,27.045,27.045,0,0,0-1.253-5.562.466.466,0,0,1-.037-.234.437.437,0,0,1,.151-.225,16.4,16.4,0,0,1,1.789-1.516c.163-.115.328-.226.5-.335.533-.347,1.083-.67,1.611-1.026.132-.088,1.441-.85,1.4-1.016a12.847,12.847,0,0,1,.349,3.074M53.862,40.35c.616-.157,1.224-.353,1.838-.52.192-.053.385-.1.58-.148a16.591,16.591,0,0,1,2.322-.327.444.444,0,0,1,.268.036.484.484,0,0,1,.15.184,27.063,27.063,0,0,0,3.319,4.636A44.7,44.7,0,0,0,57.362,45.4a.672.672,0,0,1-.266.036.651.651,0,0,1-.267-.123,24.027,24.027,0,0,1-2.594-2.284,12.843,12.843,0,0,1-2.063-2.3c.1.141,1.536-.33,1.69-.37m-.8-16.858c.324-.548.616-1.116.931-1.669.1-.173.2-.345.306-.514a16.59,16.59,0,0,1,1.411-1.873.437.437,0,0,1,.215-.164.478.478,0,0,1,.236.024,27.066,27.066,0,0,0,5.625.931A44.57,44.57,0,0,0,59.1,24.584a.681.681,0,0,1-.162.213.658.658,0,0,1-.277.1,24.225,24.225,0,0,1-3.449.22,12.84,12.84,0,0,1-3.088-.172c.168.032.853-1.319.934-1.455M40.572,12.137c-.158-.616-.353-1.223-.521-1.838q-.079-.288-.148-.579A16.6,16.6,0,0,1,39.576,7.4a.438.438,0,0,1,.037-.268.481.481,0,0,1,.183-.15A26.985,26.985,0,0,0,44.432,3.66a44.694,44.694,0,0,0,1.185,4.977.674.674,0,0,1,.035.266.642.642,0,0,1-.123.268,24.21,24.21,0,0,1-2.283,2.594,12.882,12.882,0,0,1-2.3,2.062c.142-.1-.33-1.536-.369-1.69M10.6,26.4a24.158,24.158,0,0,1-3.456-.02.642.642,0,0,1-.282-.087.673.673,0,0,1-.175-.2A44.549,44.549,0,0,0,3.755,21.9a27.03,27.03,0,0,0,5.562-1.253.478.478,0,0,1,.234-.038.439.439,0,0,1,.225.151,16.6,16.6,0,0,1,1.516,1.789c.115.163.226.329.335.5.347.534.671,1.084,1.026,1.612.088.131.85,1.441,1.016,1.4A12.834,12.834,0,0,1,10.6,26.4M44.445,53.4a23.882,23.882,0,0,1,2.429,2.458.638.638,0,0,1,.139.26.691.691,0,0,1-.02.267,44.433,44.433,0,0,0-.9,5.037,27.068,27.068,0,0,0-4.819-3.047.478.478,0,0,1-.192-.139.442.442,0,0,1-.052-.265,16.6,16.6,0,0,1,.193-2.337c.034-.2.073-.393.114-.588.132-.622.292-1.24.414-1.865.031-.155.418-1.62.272-1.708A12.823,12.823,0,0,1,44.445,53.4m-22.4-41.387c-.173-.1-.345-.2-.514-.306a16.476,16.476,0,0,1-1.874-1.41.437.437,0,0,1-.163-.216.466.466,0,0,1,.023-.236,27,27,0,0,0,.931-5.625A44.689,44.689,0,0,0,24.805,6.9a.669.669,0,0,1,.213.163.628.628,0,0,1,.1.276,23.945,23.945,0,0,1,.22,3.449,12.891,12.891,0,0,1-.171,3.088c.032-.168-1.32-.853-1.456-.934-.548-.324-1.115-.615-1.668-.931" fill="#fff"/>
                </g>
              </g>
            </g>
          </g>
        </g>
      </g>
      <g id="그룹_815" data-name="그룹 815" transform="translate(463 5366.955)" clip-path="url(#clip-path-19)">
        <g id="그룹_814" data-name="그룹 814" transform="translate(0 0.001)" style="isolation: isolate">
          <g id="그룹_813" data-name="그룹 813">
            <g id="그룹_812" data-name="그룹 812" clip-path="url(#clip-path-20)">
              <path id="패스_2471" data-name="패스 2471" d="M2.381,44.753a5.048,5.048,0,0,0,6.07-1.91c2.518.016,5.545-.026,8.142.009-1.49,1.53-3.264,3.02-5.554,5.174a.227.227,0,0,0-.073.176c.007.082.084.141.155.188a18.756,18.756,0,0,0,1.636.936.612.612,0,0,0,.35.1.64.64,0,0,0,.34-.216c1.835-1.828,4.627-4.334,6.575-6.242,1.807.08,3.609.084,5.413.066-.009.141-.016.284-.016.432a2.719,2.719,0,0,0,.237,1.4.126.126,0,0,0,.031.031c.1.08.411.045.535.056a7.619,7.619,0,0,0,1.267.021c.256-.021.434,0,.925-.042a5.593,5.593,0,0,0,.047-1.049,4.092,4.092,0,0,1-.019-.9l1.535-.023c2.283-.028,4.238-.031,6.5-.059-1.192,1.288-2.332,2.515-2.851,3.02-.878.852-1.8,1.762-2.748,2.706-.382-.375-1.089-1.178-1.452-1.265-.223-.052-.375.167-.5.305-.249.272-.514.526-.781.777-.167.155-.652.462-.666.695-.021.319.974,1.223,1.171,1.4.059.052.113.1.169.155-1.258,1.265-2.534,2.562-3.8,3.844a14.22,14.22,0,0,1-2.124.129c-1.978.019-5.559.347-7.539.366.026.854-.211,1.452-.143,2.3,1.865-.061,4.932-.155,7.284-.23-2.041,2.077-3.954,4.022-5.554,5.615a3.989,3.989,0,0,0-.436-.117c-2.874-.587-5.988,1.746-5.7,4.782a4.153,4.153,0,0,0,5.552,3.564,5.05,5.05,0,0,0,2.943-5.641c1.79-1.769,3.9-3.94,5.763-5.754.028,2.135-.174,4.444-.268,7.586a.23.23,0,0,0,.07.176.277.277,0,0,0,.244.023,17.936,17.936,0,0,0,1.819-.5.627.627,0,0,0,.317-.178.638.638,0,0,0,.087-.392c0-2.591.206-6.338.235-9.065,1.333-1.22,2.614-2.492,3.876-3.78.092.106.188.211.293.317a2.7,2.7,0,0,0,1.159.824.142.142,0,0,0,.045,0c.127-.016.321-.258.415-.338a8.088,8.088,0,0,0,.913-.88c.167-.2.305-.31.622-.683a5.689,5.689,0,0,0-.706-.777,4.009,4.009,0,0,1-.65-.622l1.068-1.1c1.6-1.636,2.978-3.018,4.555-4.637.066,1.755.129,3.431.12,4.153-.019,1.223-.028,2.518-.031,3.855a6.048,6.048,0,0,0-1.922.134c-.192.12-.148.382-.141.573.016.366.009.734,0,1.1-.007.225-.134.788.021.962.211.239,1.553.176,1.821.164.075,0,.15-.007.228-.009,0,1.781.019,3.6.033,5.4a13.948,13.948,0,0,1-1.41,1.593c-1.387,1.413-3.686,4.177-5.073,5.592.622.584.878,1.176,1.528,1.729,1.277-1.361,3.379-3.6,4.989-5.31.026,2.91.049,5.639.045,7.9a3.622,3.622,0,0,0-.392.228c-2.447,1.614-3,5.467-.652,7.41a4.153,4.153,0,0,0,6.448-1.4,5.053,5.053,0,0,0-1.91-6.07c.016-2.518-.026-5.545.007-8.142,1.53,1.49,3.02,3.264,5.176,5.554a.226.226,0,0,0,.174.073c.084-.007.143-.084.188-.155q.51-.8.939-1.638a.47.47,0,0,0-.12-.688c-1.83-1.835-4.334-4.627-6.244-6.575.08-1.807.087-3.611.068-5.416.141.009.284.016.432.019a2.706,2.706,0,0,0,1.4-.237.146.146,0,0,0,.033-.033c.077-.1.045-.408.054-.535a7.592,7.592,0,0,0,.023-1.265c-.021-.256,0-.434-.042-.925a5.819,5.819,0,0,0-1.049-.049,3.974,3.974,0,0,1-.9.021q-.014-.767-.026-1.537c-.028-2.283-.028-4.238-.056-6.5,1.286,1.194,2.515,2.332,3.02,2.853.852.875,1.76,1.8,2.7,2.745-.375.382-1.176,1.091-1.262,1.455-.052.221.164.373.305.5.27.249.526.516.777.784.153.164.46.652.692.666.319.019,1.225-.976,1.4-1.173.052-.056.1-.113.155-.167,1.265,1.255,2.56,2.534,3.844,3.794a13.949,13.949,0,0,1,.127,2.124c.019,1.98.347,5.561.366,7.539.854-.026,1.452.214,2.3.143-.059-1.863-.155-4.932-.228-7.281,2.077,2.039,4.022,3.954,5.613,5.552a4.457,4.457,0,0,0-.115.439c-.589,2.872,1.746,5.988,4.78,5.7a4.152,4.152,0,0,0,3.567-5.552,5.047,5.047,0,0,0-5.643-2.94c-1.769-1.793-3.94-3.9-5.751-5.765,2.135-.026,4.444.174,7.586.27a.232.232,0,0,0,.176-.073.278.278,0,0,0,.021-.242,18.785,18.785,0,0,0-.493-1.821.607.607,0,0,0-.181-.314.623.623,0,0,0-.392-.087c-2.591,0-6.336-.209-9.062-.237-1.223-1.333-2.492-2.612-3.783-3.874.108-.094.214-.19.319-.293a2.7,2.7,0,0,0,.824-1.159.142.142,0,0,0,0-.045c-.016-.127-.258-.321-.34-.418a7.5,7.5,0,0,0-.88-.91c-.195-.167-.307-.305-.683-.624a5.674,5.674,0,0,0-.774.709,4.078,4.078,0,0,1-.622.648q-.553-.531-1.1-1.068c-1.666-1.624-3.072-3.029-4.728-4.644,1.783-.061,3.5-.12,4.238-.106,1.223.023,2.515.038,3.853.045a5.987,5.987,0,0,0,.129,1.922c.117.195.38.15.57.143.368-.014.734,0,1.1.009.225.009.786.136.962-.016.239-.209.181-1.553.169-1.819,0-.077-.007-.153-.009-.23,1.783,0,3.6,0,5.4-.012A14.405,14.405,0,0,1,63.449,44.1c1.406,1.394,4.16,3.7,5.568,5.1.589-.622,1.18-.873,1.736-1.523-1.356-1.281-3.583-3.393-5.291-5.007,2.912-.014,5.641-.026,7.9-.014a3.654,3.654,0,0,0,.228.394c1.605,2.452,5.456,3.022,7.408.68a4.152,4.152,0,0,0-1.38-6.453,5.048,5.048,0,0,0-6.075,1.884c-2.518-.026-5.547,0-8.145-.04,1.5-1.523,3.278-3.006,5.575-5.153a.228.228,0,0,0,.075-.174c-.007-.084-.084-.143-.155-.188a18.806,18.806,0,0,0-1.633-.946.607.607,0,0,0-.35-.1.631.631,0,0,0-.34.214c-1.842,1.821-4.644,4.315-6.6,6.216-1.8-.087-3.609-.1-5.413-.087.012-.141.019-.284.021-.432a2.716,2.716,0,0,0-.232-1.4.11.11,0,0,0-.033-.033c-.1-.077-.408-.047-.533-.056a7.621,7.621,0,0,0-1.267-.028c-.256.021-.434,0-.925.04a5.785,5.785,0,0,0-.052,1.047,4.069,4.069,0,0,1,.016.9l-1.537.021c-2.3.019-4.266.012-6.547.031,1.187-1.269,2.318-2.478,2.835-2.975.88-.849,1.807-1.755,2.757-2.694.38.375,1.086,1.18,1.45,1.267.221.054.375-.162.5-.3.249-.27.516-.521.786-.772.164-.153.652-.46.669-.692.021-.317-.971-1.227-1.169-1.406l-.167-.155c1.262-1.26,2.546-2.553,3.811-3.83a14.252,14.252,0,0,1,2.124-.12c1.98-.009,5.564-.324,7.542-.336-.023-.854.218-1.452.153-2.3-1.865.054-4.932.136-7.284.2,2.049-2.07,3.97-4.008,5.575-5.594q.215.07.436.12c2.872.6,6-1.722,5.721-4.759a4.152,4.152,0,0,0-5.538-3.588,5.047,5.047,0,0,0-2.964,5.629c-1.8,1.762-3.919,3.926-5.787,5.73-.019-2.135.19-4.442.3-7.586a.22.22,0,0,0-.07-.174.279.279,0,0,0-.242-.026,18.627,18.627,0,0,0-1.823.488.6.6,0,0,0-.314.178.624.624,0,0,0-.089.392c-.016,2.591-.235,6.336-.272,9.062-1.338,1.215-2.623,2.483-3.891,3.766-.092-.108-.188-.214-.291-.319a2.719,2.719,0,0,0-1.157-.828.142.142,0,0,0-.045,0c-.127.016-.321.256-.418.338a7.5,7.5,0,0,0-.915.875c-.167.195-.307.307-.627.68a5.691,5.691,0,0,0,.7.779,4.077,4.077,0,0,1,.648.624q-.535.549-1.072,1.1c-1.612,1.64-3.008,3.027-4.606,4.653-.059-1.739-.115-3.391-.1-4.109.021-1.223.035-2.518.045-3.855a6,6,0,0,0,1.922-.127c.195-.12.15-.38.143-.57-.014-.368,0-.737.009-1.1.007-.225.136-.786-.016-.962-.211-.239-1.556-.183-1.821-.169l-.228.007c0-1.783,0-3.6-.012-5.4A13.943,13.943,0,0,1,44.1,18.533c1.391-1.408,3.7-4.163,5.094-5.571-.619-.587-.873-1.18-1.521-1.736-1.281,1.356-3.393,3.585-5.01,5.291-.014-2.91-.026-5.639-.012-7.9a4.337,4.337,0,0,0,.392-.225c2.454-1.607,3.022-5.456.68-7.41a4.151,4.151,0,0,0-6.451,1.38,5.047,5.047,0,0,0,1.884,6.077c-.026,2.518,0,5.545-.04,8.142-1.525-1.5-3.008-3.276-5.153-5.575a.227.227,0,0,0-.176-.073c-.084.007-.141.084-.188.155a18.492,18.492,0,0,0-.943,1.631.633.633,0,0,0-.1.35.64.64,0,0,0,.216.34c1.821,1.842,4.315,4.646,6.216,6.6-.087,1.8-.1,3.609-.089,5.413-.141-.009-.284-.019-.432-.019a2.692,2.692,0,0,0-1.4.232.1.1,0,0,0-.031.031c-.08.1-.047.411-.059.535a7.593,7.593,0,0,0-.026,1.265c.019.258,0,.436.038.925a5.616,5.616,0,0,0,1.049.054,3.93,3.93,0,0,1,.9-.016q.011.767.019,1.535c.019,2.3.012,4.266.033,6.547-1.272-1.187-2.478-2.316-2.978-2.835-.847-.88-1.753-1.8-2.694-2.757.378-.38,1.183-1.084,1.269-1.448.054-.221-.164-.375-.3-.5-.27-.251-.523-.516-.772-.786-.155-.167-.46-.655-.692-.669-.319-.021-1.227.969-1.406,1.166-.052.056-.106.113-.157.167-1.26-1.26-2.551-2.544-3.827-3.811a13.928,13.928,0,0,1-.12-2.124c-.012-1.98-.326-5.561-.336-7.542-.854.023-1.452-.218-2.3-.15.052,1.863.136,4.932.2,7.281-2.07-2.049-4.005-3.968-5.592-5.573a4.03,4.03,0,0,0,.117-.439c.6-2.87-1.72-6-4.759-5.721a4.152,4.152,0,0,0-3.585,5.538,5.049,5.049,0,0,0,5.629,2.966c1.762,1.8,3.923,3.919,5.73,5.786-2.138.019-4.444-.192-7.586-.3a.222.222,0,0,0-.176.07.287.287,0,0,0-.023.242,18.749,18.749,0,0,0,.486,1.821.644.644,0,0,0,.178.317.627.627,0,0,0,.394.089c2.588.014,6.336.232,9.062.272,1.215,1.338,2.48,2.621,3.766,3.891-.108.092-.216.188-.321.291a2.719,2.719,0,0,0-.828,1.157.142.142,0,0,0,0,.045c.016.127.258.321.338.418a7.7,7.7,0,0,0,.878.915c.195.167.307.305.68.627a5.689,5.689,0,0,0,.777-.706,4.047,4.047,0,0,1,.624-.645q.553.535,1.1,1.072c1.607,1.582,2.973,2.954,4.559,4.515-1.706.066-3.318.124-4.024.115-1.22-.016-2.515-.026-3.853-.031a5.954,5.954,0,0,0-.136-1.919c-.12-.195-.38-.15-.57-.141-.368.016-.734.007-1.1,0-.225-.009-.786-.134-.962.019-.239.211-.176,1.556-.162,1.821,0,.077.007.153.009.228-1.783.007-3.6.019-5.4.035a14.2,14.2,0,0,1-1.593-1.413c-1.413-1.387-4.177-3.684-5.589-5.071-.584.622-1.178.875-1.729,1.528,1.361,1.277,3.6,3.377,5.31,4.986-2.912.026-5.639.049-7.9.045a3.862,3.862,0,0,0-.228-.392c-1.614-2.447-5.467-3-7.413-.65a4.153,4.153,0,0,0,1.406,6.446" transform="translate(0 -0.001)" fill="#cbd9ff"/>
            </g>
          </g>
        </g>
      </g>
    </g>
  </g>
</svg>
