<svg xmlns="http://www.w3.org/2000/svg" width="650.496" height="227.743" viewBox="0 0 650.496 227.743">
  <g id="그룹_891" data-name="그룹 891" transform="translate(-17077.311 14930.255)">
    <rect id="사각형_227" data-name="사각형 227" width="54.435" height="2.109" transform="translate(17120.098 -14856.447) rotate(-62.014)" fill="#9e7836"/>
    <path id="패스_367" data-name="패스 367" d="M1515.244,357.077c-16.546-9-33.657-17.457-50.857-25.14l.86-1.926c17.25,7.705,34.411,16.188,51.005,25.213Z" transform="translate(15644 -15220.997)" fill="#9e7836"/>
    <rect id="사각형_228" data-name="사각형 228" width="54.743" height="2.109" transform="translate(17106.432 -14871.894) rotate(-16.134)" fill="#9e7836"/>
    <path id="패스_368" data-name="패스 368" d="M1494.927,368.175a325.023,325.023,0,0,0-14.944-48.666l1.962-.775a327.182,327.182,0,0,1,15.041,48.982Z" transform="translate(15644 -15220.997)" fill="#9e7836"/>
    <path id="패스_369" data-name="패스 369" d="M1477.239,317.176a4.566,4.566,0,0,0,.1.791,2.828,2.828,0,0,0,.179.46,2.557,2.557,0,0,0,.2.432,6.564,6.564,0,0,0,.435.564,1.011,1.011,0,0,0,.069.077l-.417-.539.022.029c-.09-.214-.181-.427-.271-.641a3.831,3.831,0,0,0,.346.8,2.99,2.99,0,0,0,2.561,1.45,3.259,3.259,0,0,0,2.821-1.618,5.829,5.829,0,0,0,.346-.8,3.146,3.146,0,0,0,.133-.927,7.888,7.888,0,0,0-.122-.919,3.278,3.278,0,0,0-1.554-2.01l-.8-.337a.2.2,0,0,0-.062-.019,3.527,3.527,0,0,0-1.83,0,3.657,3.657,0,0,0-2.57,4.522,3.442,3.442,0,0,0,1.592,2.075l.819.346a4.86,4.86,0,0,0,.951.124,3.891,3.891,0,0,0,1.936-.522,3.642,3.642,0,0,0,1.683-2.184.221.221,0,0,0,.017-.073l.123-.916a3.581,3.581,0,0,0-1.8-3.122l-.822-.347a.286.286,0,0,0-.05-.013,3.507,3.507,0,0,0-1.874.013l-.817.345-.692.534-.535.692a2.552,2.552,0,0,0-.406,1.272,1.732,1.732,0,0,0,0,.909,3.385,3.385,0,0,0,.673,1.617,2.584,2.584,0,0,0,.96.881,6.843,6.843,0,0,0,.889.373l-.821-.347a.241.241,0,0,1,.045.023l-.7-.538a.166.166,0,0,1,.036.034l-.539-.7a.109.109,0,0,1,.013.021c-.116-.275-.231-.549-.347-.823a.136.136,0,0,1,.012.049l-.123-.916c0,.013,0,.026,0,.039l.123-.917-.009.036.348-.824a.228.228,0,0,1-.035.065l.54-.7a.256.256,0,0,1-.054.055l.7-.541a1.041,1.041,0,0,1-.171.108l.822-.347a.529.529,0,0,1-.077.024l3.335.881a.177.177,0,0,1-.044-.046l.534.692c0-.009-.009-.018-.014-.027l.344.816a.208.208,0,0,1-.015-.06c.04.3.081.6.121.9a.259.259,0,0,1,0-.063c-.04.3-.081.6-.121.9a.261.261,0,0,1,.017-.063l-.342.809a.406.406,0,0,1,.05-.085l-.528.682a.276.276,0,0,1,.047-.044l-.681.526a.223.223,0,0,1,.055-.029l-.8.338.031-.008-.891.119c.336-.029.679-.066,1.013-.125l-.874.118a.109.109,0,0,1,.036,0l-.862-.116a.139.139,0,0,1,.035.01l-.763-.323a.3.3,0,0,1,.049.029l-.634-.489a.188.188,0,0,1,.029.027l-.482-.623a.23.23,0,0,1,.032.05q-.153-.36-.3-.72a.155.155,0,0,1,.011.037c-.035-.263-.071-.526-.106-.789a.131.131,0,0,1,0,.039l.1-.777a.119.119,0,0,1-.01.037q.371-.635.74-1.269a.41.41,0,0,1-.038.035l.569-.44a.571.571,0,0,1-.094.06l1.353-.366h-.038l.708.1a1.013,1.013,0,0,1-.153-.05l.625.264a.951.951,0,0,1-.141-.082l.52.4a.89.89,0,0,1-.144-.143l.392.508-.023-.034-.391-.506a1.878,1.878,0,0,0-.8-.516,1.247,1.247,0,0,0-.631-.17,1.893,1.893,0,0,0-.995.044l-.6.252-.506.39a2.781,2.781,0,0,0-.731,1.766" transform="translate(15644 -15220.997)" fill="#9e7836"/>
    <path id="패스_370" data-name="패스 370" d="M1501.21,312.348a3.28,3.28,0,0,0-.784.585l-.513.664a2.444,2.444,0,0,0-.389,1.219,1.65,1.65,0,0,0,0,.871,2.45,2.45,0,0,0,.389,1.22,3.6,3.6,0,0,0,1.281,1.279,3.416,3.416,0,0,0,1.728.467,2.018,2.018,0,0,0,.942-.12,6.077,6.077,0,0,0,.893-.374,3.072,3.072,0,0,0,.851-.664,3.725,3.725,0,0,0,.966-1.707,2.67,2.67,0,0,0,.063-1.406,2.624,2.624,0,0,0-.419-1.31l-.551-.714a3.524,3.524,0,0,0-1.555-.906,2.519,2.519,0,0,0-.518-.078c-.156-.021-.346-.06-.519-.066a2.908,2.908,0,0,0-1.037.149l-.851.36a.128.128,0,0,0-.033.017.147.147,0,0,0-.021.014q-.377.271-.734.567l-.038.034a4.257,4.257,0,0,0-.3.382q-.151.189-.3.384a3.32,3.32,0,0,0-.4.94.2.2,0,0,0-.009.035l-.129.963a.593.593,0,0,0,0,.061,3.871,3.871,0,0,0,.136,1,2.856,2.856,0,0,0,.661,1.263,1.83,1.83,0,0,0,.654.654,1.076,1.076,0,0,0,.389.294l.872.368a.158.158,0,0,0,.031.009,3.757,3.757,0,0,0,.5.067c.168.03.337.053.508.067.014,0,.027,0,.041,0a3.848,3.848,0,0,0,1.916-.521,4.019,4.019,0,0,0,.821-.628c.013-.013.026-.027.038-.041q.151-.19.3-.384a4.8,4.8,0,0,0,.3-.395c.009-.016.017-.033.026-.049l.192-.456a1.494,1.494,0,0,0,.193-.467q.066-.5.133-.992l0-.023a8.83,8.83,0,0,0-.135-1,.288.288,0,0,0-.008-.031l-.008-.021-.375-.887a3.2,3.2,0,0,0-.311-.413,2.951,2.951,0,0,0-1.105-1.011,3.675,3.675,0,0,0-1.864-.5,4.108,4.108,0,0,0-2.612,1.082,3.682,3.682,0,0,0-.95,1.63,4,4,0,0,0-.014,2.082,4.053,4.053,0,0,0,1.664,2.164l.865.365a3.655,3.655,0,0,0,1.925,0,3.846,3.846,0,0,0,1.734-1.017h-5.224l.015.018-.579-.748a.2.2,0,0,1,.022.038l-.374-.885a.152.152,0,0,1,.012.041l-.132-.987a.32.32,0,0,1,0,.063c.045-.33.089-.66.134-.99-.055.366-.112.733-.145,1.1l.132-.989a.438.438,0,0,1-.022.088q.186-.442.373-.885a.465.465,0,0,1-.045.078l.577-.746a.406.406,0,0,1-.047.046l.744-.575a.274.274,0,0,1-.036.023l.875-.37a.265.265,0,0,1-.061.018l.971-.13a.171.171,0,0,1-.045,0l2.577,1.068-.017-.019.569.737a.2.2,0,0,1-.025-.042l.366.867a.288.288,0,0,1-.02-.07l.129.961a.468.468,0,0,1,0-.074l-.129.958a.434.434,0,0,1,.02-.073l-.362.857a.424.424,0,0,1,.051-.087l-.558.722a.421.421,0,0,1,.053-.051l-.719.556a.174.174,0,0,1,.042-.024l-.847.357a.339.339,0,0,1,.071-.019l-.939.127h.026l-3.4-2.588.006.029-.126-.936a.542.542,0,0,1,0,.09q.062-.467.125-.931a.505.505,0,0,1-.031.114l.351-.831a.507.507,0,0,1-.045.078l.542-.7a.6.6,0,0,1-.04.047,3.215,3.215,0,0,0-.313.387,1.847,1.847,0,0,0-.456.776l-.183.44c.113-.269.227-.538.34-.806a.263.263,0,0,1-.018.032l.52-.674a.2.2,0,0,1-.026.031l3.973-.513a.272.272,0,0,1-.03-.021l.653.5a.415.415,0,0,1-.072-.073q-.313-.24-.625-.482a2.286,2.286,0,0,0-1.147-.366,1.545,1.545,0,0,0-.821,0,2.286,2.286,0,0,0-1.147.366" transform="translate(15644 -15220.997)" fill="#9e7836"/>
    <path id="패스_371" data-name="패스 371" d="M1517.438,338.356c5.058,0,5.066-7.861,0-7.861s-5.067,7.861,0,7.861" transform="translate(15644 -15220.997)" fill="#9e7836"/>
    <path id="패스_372" data-name="패스 372" d="M1519.05,354.714a1.332,1.332,0,0,0-.282-.223c-.091-.072-.182-.142-.274-.211a.187.187,0,0,0-.035-.022l-.629-.265a2.282,2.282,0,0,0-.819-.118l-.718.1a6.831,6.831,0,0,0-.66.28,3.006,3.006,0,0,0-.59.451,13.222,13.222,0,0,0-.505.653,2.982,2.982,0,0,0-.4,1.468,4.228,4.228,0,0,0,.051.428,1.988,1.988,0,0,0,.333,1.049q.213.277.428.554a1.545,1.545,0,0,0,.567.434c.112.051.226.1.34.144a2.589,2.589,0,0,0,.354.147c.136.031.293.042.418.059a2.624,2.624,0,0,0,.419.049l.731-.1.027,0a.761.761,0,0,0,.078-.023,5.733,5.733,0,0,0,.684-.29.753.753,0,0,0,.07-.046,5.921,5.921,0,0,0,.582-.45c.021-.02.04-.041.059-.062a6.345,6.345,0,0,0,.452-.585l.037-.061a.327.327,0,0,0,.018-.039l.281-.666c.008-.022.015-.043.021-.066a.273.273,0,0,0,.008-.04l.1-.744c0-.022,0-.044,0-.067a2.292,2.292,0,0,0-.263-1.172,2.717,2.717,0,0,0-.644-1l.725,1.244a6.361,6.361,0,0,0-.306-.72,2.25,2.25,0,0,0-.236-.309c-.078-.1-.158-.207-.239-.309a3.12,3.12,0,0,0-.671-.519,3.059,3.059,0,0,0-1.577-.424c-.142.013-.283.032-.424.056s-.283.035-.424.057c-.028.007-.054.014-.081.023a3.469,3.469,0,0,0-1.533.919,6.914,6.914,0,0,0-.507.663,3.71,3.71,0,0,0-.166.39c-.059.129-.113.26-.165.392a2.673,2.673,0,0,0-.122.955,3.464,3.464,0,0,0,.909,2.2l.629.485a3.088,3.088,0,0,0,1.566.424,4.951,4.951,0,0,0,.928-.134l.747-.315a2.087,2.087,0,0,0,.666-.5q.139-.168.267-.345a2.58,2.58,0,0,0,.264-.346,2.69,2.69,0,0,0,.35-.845,2.364,2.364,0,0,0,.056-1.242,2.312,2.312,0,0,0-.37-1.158l-.487-.631a2.343,2.343,0,0,0-1-.644,1.55,1.55,0,0,0-.786-.212,2.358,2.358,0,0,0-1.243.055l-.744.314a3.132,3.132,0,0,0-1.117,1.118.308.308,0,0,1-.033.062c.163-.211.325-.422.488-.632a1.109,1.109,0,0,1-.123.125l.632-.488a.312.312,0,0,1-.059.038l4.247,1.114a.289.289,0,0,1-.025-.05l.312.739a.313.313,0,0,1-.014-.052q.055.41.11.82a.548.548,0,0,1,0-.08c-.036.272-.073.543-.109.815a.477.477,0,0,1,.026-.1c-.1.242-.2.485-.307.727a.7.7,0,0,1,.055-.1l-.472.612a.588.588,0,0,1,.1-.1l-.606.468a1.148,1.148,0,0,1,.2-.118l-.693.292a.354.354,0,0,1,.066-.016l-.761.1a.381.381,0,0,1,.048,0l-.753-.1.026,0-.674-.284.023.017-.57-.44a.3.3,0,0,1,.039.041c-.147-.189-.293-.379-.44-.569a.493.493,0,0,1,.04.071c-.094-.223-.189-.446-.283-.67a.442.442,0,0,1,.019.078c-.033-.248-.067-.5-.1-.744a.541.541,0,0,1,0,.082c.034-.247.067-.495.1-.742a.544.544,0,0,1-.036.136c.093-.222.187-.443.28-.665a.608.608,0,0,1-.057.1l.434-.561a.588.588,0,0,1-.1.1l.559-.432a.5.5,0,0,1-.071.041l.658-.278a.358.358,0,0,1-.077.023l.73-.1a.436.436,0,0,1-.081,0l.729.1a.346.346,0,0,1-.056-.012l1.912,1.911a.253.253,0,0,1-.022-.062c.033.242.065.484.1.726a.229.229,0,0,1,0-.064c-.033.242-.065.484-.1.725a.428.428,0,0,1,.024-.094c-.092.217-.183.433-.274.65a.454.454,0,0,1,.052-.084l-.424.549a4.333,4.333,0,0,0,.493-.645l-.417.54a.216.216,0,0,1,.037-.042l-.532.411a.209.209,0,0,1,.046-.031l-.62.262.028-.011a2.579,2.579,0,0,0,1.8-1.8,2.6,2.6,0,0,0-.663-2.507" transform="translate(15644 -15220.997)" fill="#9e7836"/>
    <path id="패스_373" data-name="패스 373" d="M1495.748,367.134a2.916,2.916,0,0,0-1.154.682,3.077,3.077,0,0,0-.4.529l-.238.561a.312.312,0,0,0-.021.086,2.38,2.38,0,0,0,0,1.253,2.64,2.64,0,0,0,1.083,1.408,2.343,2.343,0,0,0,1.191.322,2.77,2.77,0,0,0,2.42-1.348,3.482,3.482,0,0,0,.288-.648,2.7,2.7,0,0,0,.12-.767,4.152,4.152,0,0,0-.109-.894,2.956,2.956,0,0,0-2.045-2.038,2.809,2.809,0,0,0-2.695.747,3.271,3.271,0,0,0-.794,1.378,3.185,3.185,0,0,0,0,1.65,4.844,4.844,0,0,0,.306.723,2.68,2.68,0,0,0,.485.623,3.133,3.133,0,0,0,1.354.785,3.3,3.3,0,0,0,.839.111c.134-.016.269-.033.4-.054a1.92,1.92,0,0,0,.4-.057,2.99,2.99,0,0,0,2.191-2.9,3.209,3.209,0,0,0-.052-.4,3.563,3.563,0,0,0-.056-.4,3.439,3.439,0,0,0-.318-.756,2.96,2.96,0,0,0-1.762-1.36l-.743-.1a2.112,2.112,0,0,0-1.075.24,1.4,1.4,0,0,0-.616.359,2.106,2.106,0,0,0-.72.784c-.094.222-.186.444-.28.666-.034.248-.067.495-.1.743a3.1,3.1,0,0,0,.818,1.973,6.477,6.477,0,0,0,.615.472l-.565-.437a.3.3,0,0,1,.046.042l-.436-.564a.381.381,0,0,1,.049.083c-.094-.222-.186-.444-.28-.665a.424.424,0,0,1,.017.063l-.1-.739a.2.2,0,0,1,0,.064c.034-.246.066-.492.1-.738a.261.261,0,0,1-.013.063c.093-.221.187-.442.279-.662a.183.183,0,0,1-.032.056c.145-.187.289-.373.432-.56a.226.226,0,0,1-.053.049l.558-.432-.031.018.66-.278a.42.42,0,0,1-.1.027l.731-.1a.37.37,0,0,1-.074,0l.73.1a.511.511,0,0,1-.106-.031l.653.276a.34.34,0,0,1-.063-.038q.278.213.552.427a.436.436,0,0,1-.053-.052q.216.276.427.552a.362.362,0,0,1-.041-.068l.275.65a.373.373,0,0,1-.025-.08c.032.241.064.481.1.722a.479.479,0,0,1,0-.126q-.048.36-.1.72a.759.759,0,0,1,.033-.124c-.092.215-.181.429-.273.644.12-.261.239-.522.346-.79-.09.212-.18.425-.269.637.006-.012.012-.024.019-.036l-.951.951.032-.014-.628.265a.351.351,0,0,1,.073-.017l-.692.093a.387.387,0,0,1,.076,0l-.683-.092a.534.534,0,0,1,.113.028l-.6-.255a.558.558,0,0,1,.1.059l-.5-.388a.229.229,0,0,1,.052.056q-.313-.54-.629-1.079a.3.3,0,0,1,.024.079c-.03-.216-.058-.432-.088-.648a.391.391,0,0,1,.005.083q.044-.323.085-.645a.442.442,0,0,1-.028.12q.12-.286.243-.575a.644.644,0,0,1-.065.106l.374-.485a.359.359,0,0,1-.058.059l.482-.373a.531.531,0,0,1-.106.062l.566-.239a.332.332,0,0,1-.081.02l2.984,2.273a.223.223,0,0,1,0-.089c-.028.208-.057.416-.084.624l.011-.043c-.079.186-.157.373-.235.559a.278.278,0,0,1,.043-.077c-.121.157-.241.314-.364.471.012-.01.021-.021.033-.031l-.472.363c.014-.008.026-.017.038-.025a2.421,2.421,0,0,0,1.066-1.385c.026-.206.054-.411.082-.616a1.747,1.747,0,0,0-.2-.893,1.132,1.132,0,0,0-.3-.511,1.737,1.737,0,0,0-.65-.6,2.3,2.3,0,0,0-1.785-.234" transform="translate(15644 -15220.997)" fill="#9e7836"/>
    <path id="패스_374" data-name="패스 374" d="M1479.131,364.488v0l-.49-.635a2.365,2.365,0,0,0-1.009-.648,1.561,1.561,0,0,0-.792-.214,2.385,2.385,0,0,0-1.25.056,4.342,4.342,0,0,0-.964.381.865.865,0,0,0-.112.068l-.655.505a.407.407,0,0,0-.045.047,6.891,6.891,0,0,0-.545.714c-.064.138-.124.278-.179.421a3.41,3.41,0,0,0-.176.423,3.119,3.119,0,0,0-.129.941,2.623,2.623,0,0,0,.295,1.34,2.036,2.036,0,0,0,.461.788,2.669,2.669,0,0,0,.98.9,3.012,3.012,0,0,0,.849.354l.887.119a.174.174,0,0,0,.056,0,3.565,3.565,0,0,0,3.385-2.589,3.4,3.4,0,0,0,0-1.784l-.339-.8a3.361,3.361,0,0,0-1.2-1.2,2.5,2.5,0,0,0-1.248-.4,3.443,3.443,0,0,0-3.342,1.6,3.323,3.323,0,0,0-.458,1.693l0,.025.12-.891-.009.024q.17-.4.338-.8l-.013.023c.175-.225.349-.451.524-.677a.2.2,0,0,1-.038.04l.677-.523a.242.242,0,0,1-.048.03l.8-.337a.217.217,0,0,1-.055.016l.887-.119a.176.176,0,0,1-.056,0l.885.119-.027-.007.8.335a.157.157,0,0,1-.052-.032l.673.52-.022-.023.519.673a.731.731,0,0,1-.064-.109l.333.788a.337.337,0,0,1-.018-.062l.117.872a.551.551,0,0,1,0-.1c-.039.288-.077.576-.116.864a.479.479,0,0,1,.027-.1c-.108.257-.216.513-.325.77a.788.788,0,0,1,.079-.127c-.165.215-.331.429-.5.644a1.447,1.447,0,0,1,.107-.113,3.133,3.133,0,0,0,.806-3.05c-.1-.252-.2-.5-.315-.747" transform="translate(15644 -15220.997)" fill="#9e7836"/>
    <path id="패스_375" data-name="패스 375" d="M1463.4,348.219a3.084,3.084,0,0,0-2.175-.873l1.347.364a2.5,2.5,0,0,0-1.109-.377,2.092,2.092,0,0,0-1.164.052,3.707,3.707,0,0,0-1.376.811l-.452.586a2.154,2.154,0,0,0-.344,1.076,1.452,1.452,0,0,0,0,.769,2.154,2.154,0,0,0,.344,1.076,3.439,3.439,0,0,0,1.038,1.039,2.154,2.154,0,0,0,1.076.343,2.189,2.189,0,0,0,1.154-.052,3.708,3.708,0,0,0,.761-.316,3.074,3.074,0,0,0,1.077-1.076,3.135,3.135,0,0,0,.443-1.633q-.205.758-.41,1.515l.005-.009a3.152,3.152,0,0,0,0-3.139,3.091,3.091,0,0,0-2.684-1.539,3.333,3.333,0,0,0-1.688.459,5.172,5.172,0,0,0-.765.589,3.389,3.389,0,0,0-.956,1.746,3.294,3.294,0,0,0,.847,3.206,3.361,3.361,0,0,0,3.207.847,1.371,1.371,0,0,0,.139-.04,6.923,6.923,0,0,0,.875-.37,5.709,5.709,0,0,0,.875-.652,3.369,3.369,0,0,0,.867-3.28l-.008-.034c-.112-.264-.223-.529-.335-.794a2.529,2.529,0,0,0-.856-.933,1.663,1.663,0,0,0-.734-.427,2.508,2.508,0,0,0-1.281-.287l-.884.119-.794.335a3.726,3.726,0,0,0-1.528,1.987c-.011.074-.023.148-.034.222l.72-1.236a2.328,2.328,0,0,0-.539.672,3.061,3.061,0,0,0-.427,1.535,3.193,3.193,0,0,0,.945,2.264,3.26,3.26,0,0,0,5.467-3.2,3.747,3.747,0,0,0-.942-1.591,4.018,4.018,0,0,0-1.606-.957,3.072,3.072,0,0,0-1.615,0,3.034,3.034,0,0,0-1.34.782,3.363,3.363,0,0,0-.978,1.611,3.66,3.66,0,0,0-.016,1.9,3.473,3.473,0,0,0,6.687.037,3.356,3.356,0,0,0-2.329-4.1l-.8-.107-.8.107-.718.3a2.271,2.271,0,0,0-.844.774,2.991,2.991,0,0,0-.592,2.221,2.231,2.231,0,0,0,.357,1.118.324.324,0,0,1,.041.078l-.307-.727c.1.3.24.574.367.857l-.309-.731a.354.354,0,0,1,.022.091c-.036-.271-.073-.543-.109-.815a.327.327,0,0,1,0,.094c.037-.272.073-.544.11-.816,0,.015-.008.03-.013.045.1-.245.207-.489.31-.734a.28.28,0,0,1-.048.082l.481-.622a.346.346,0,0,1-.069.063l.622-.481a.4.4,0,0,1-.083.042l.736-.311a.425.425,0,0,1-.092.022l.819-.11a.512.512,0,0,1-.1,0l.821.11a.67.67,0,0,1-.14-.035l.739.311a.429.429,0,0,1-.083-.048l.627.484a.812.812,0,0,1-.1-.107l.483.625a.426.426,0,0,1-.051-.094q.156.368.311.736a.478.478,0,0,1-.026-.105c.037.272.073.545.11.817a.7.7,0,0,1,0-.164c-.037.272-.073.543-.11.814a.631.631,0,0,1,.03-.106l-.307.729a.768.768,0,0,1,.083-.142l-.475.616.038-.04-2.956.781a.59.59,0,0,1,.1.03l-.723-.3a.965.965,0,0,1,.19.108l-.61-.472a1.042,1.042,0,0,1,.152.153c-.156-.2-.313-.4-.469-.607a.77.77,0,0,1,.074.131l-.3-.714a.46.46,0,0,1,.024.09c-.035-.264-.071-.528-.106-.792a.329.329,0,0,1,0,.089c.035-.264.071-.527.106-.791a.275.275,0,0,1-.026.085c.1-.236.2-.473.3-.709l-.024.04.463-.6a.29.29,0,0,1-.067.068l.6-.462-.038.023.706-.3a.3.3,0,0,1-.082.024l.783-.105a.316.316,0,0,1-.087,0l.782.1a.369.369,0,0,1-.087-.022l.7.3a.615.615,0,0,1-.119-.069l.592.457a.4.4,0,0,1-.064-.065l.456.591c-.033-.049-.058-.1-.089-.151l.291.688a.274.274,0,0,1-.028-.083q.051.378.1.755a.321.321,0,0,1,0-.088l-5.218,1.414c.029.06.058.121.088.182q1.434-2.5,2.87-5a3.156,3.156,0,0,0-.933.12,3.782,3.782,0,0,0-2.015,1.55.982.982,0,0,1-.065.094q.261-.34.524-.679a1.221,1.221,0,0,1-.166.163l.671-.519a.792.792,0,0,1-.1.065l4.841,1.97c0-.02-.007-.041-.01-.061l.117.874a1.04,1.04,0,0,1,0-.185c-.038.288-.077.577-.116.865a8.1,8.1,0,0,0,.131-.981c-.038.285-.077.571-.115.856.049-.35.131-.7.155-1.053q-.456,1.1-.911,2.2l.012-.013H1458.9l.027.024-.467-.6a.167.167,0,0,1,.037.061q-.148-.352-.3-.7l.008.033-.105-.781v.034q.051-.388.1-.777l-.009.033c.1-.232.2-.463.293-.7l-.018.029,5.393,1.461V350.2l-.1.764a6.568,6.568,0,0,0,.132-.945l-1.323,2.305.044-.022-.635.268a.4.4,0,0,1,.095-.028l-.7.094a.414.414,0,0,1,.1-.005l-.7-.093a.368.368,0,0,1,.1.022l.69.093a1.958,1.958,0,0,0,1-.224,2.48,2.48,0,0,0,1.241-1.062,3.072,3.072,0,0,0,.354-1.31,2.88,2.88,0,0,0-.76-1.835" transform="translate(15644 -15220.997)" fill="#9e7836"/>
    <path id="패스_376" data-name="패스 376" d="M1462.89,327.441a3.875,3.875,0,0,0-.768.109,4.576,4.576,0,0,0-.644.273,2.609,2.609,0,0,0-.308.23,2.931,2.931,0,0,0-.339.275l-.426.552a.251.251,0,0,0-.023.031.507.507,0,0,0-.028.052,5.257,5.257,0,0,0-.293.693c-.02.135-.038.268-.054.4a1.423,1.423,0,0,0,0,.755,2.413,2.413,0,0,0,.067.435,5.794,5.794,0,0,0,.3.708c.012.023.024.044.036.065a3.221,3.221,0,0,0,.233.3c.078.107.159.211.243.314a3.364,3.364,0,0,0,.675.524l-.585-.452a2.943,2.943,0,0,0,2.186.875l-.808-.109.038.016a2.511,2.511,0,0,0,1.325.059,2.462,2.462,0,0,0,1.236-.394c.224-.172.448-.346.672-.52a3.31,3.31,0,0,0,.855-1.466.315.315,0,0,0,.007-.034c.04-.295.08-.589.119-.885a2.391,2.391,0,0,0-.056-.516,2.213,2.213,0,0,0-.256-.947,2.072,2.072,0,0,0-.186-.432l-.528-.684-.045-.047-.686-.531-.028-.019-.813-.341a.11.11,0,0,0-.049-.017,3.651,3.651,0,0,0-1.887,0,.14.14,0,0,0-.033.01c-.28.115-.559.234-.837.354l-.031.018-.7.54-.054.048-.542.7q-.174.414-.35.828a2.361,2.361,0,0,0-.07.5c-.025.159-.047.318-.064.478a1.014,1.014,0,0,0,.06.478,1.467,1.467,0,0,0,.071.49c.116.275.232.548.347.822l.537.695.7.537a2.56,2.56,0,0,0,1.277.409,1.749,1.749,0,0,0,.914,0,3.382,3.382,0,0,0,1.625-.677,2.6,2.6,0,0,0,.885-.964c.018-.025.033-.051.049-.078a1.26,1.26,0,0,0,.185-.429,2.4,2.4,0,0,0,.185-.449l-.348.826a.293.293,0,0,1,.034-.062l-.538.7a.19.19,0,0,1,.05-.048l-.694.536.031-.016-.817.344.034-.01-.906.122a.163.163,0,0,1,.066,0l-.9-.121.031.01-.809-.343a.269.269,0,0,1,.057.034c-.228-.175-.455-.352-.683-.528a.315.315,0,0,1,.048.049c-.175-.226-.35-.451-.525-.679a.311.311,0,0,1,.035.061l-.336-.8c.119.319-.078.188.355.86l.52.672a1.867,1.867,0,0,0,.7.533l-1.4-1.815c.005.023.009.047.012.07l-.105-.781a.3.3,0,0,1,0,.031q1.068-1.4,2.134-2.8l-.026.006h1.537a.341.341,0,0,1-.057-.014l.688.289a.485.485,0,0,1-.1-.059l.579.448a.767.767,0,0,1-.062-.065l.445.576a3.127,3.127,0,0,0-.478-.624,4.525,4.525,0,0,0-.61-.473l.567.438a.619.619,0,0,1-.069-.066l.427.552a.46.46,0,0,1-.049-.083l.268.635a.379.379,0,0,1-.019-.067l.093.689a.328.328,0,0,1,0-.07q-.047.336-.091.674l0-.025a2.543,2.543,0,0,0,0-1.341,2.819,2.819,0,0,0-1.158-1.506,2.51,2.51,0,0,0-1.273-.345" transform="translate(15644 -15220.997)" fill="#9e7836"/>
    <rect id="사각형_231" data-name="사각형 231" width="54.435" height="2.109" transform="translate(17582.197 -14793.605) rotate(-62.014)" fill="#9e7836"/>
    <path id="패스_387" data-name="패스 387" d="M1167.344,119.919c-16.547-9-33.658-17.457-50.859-25.14l.86-1.926c17.251,7.705,34.412,16.188,51.006,25.213Z" transform="translate(16454 -14920.997)" fill="#9e7836"/>
    <rect id="사각형_232" data-name="사각형 232" width="54.743" height="2.109" transform="translate(17568.531 -14809.052) rotate(-16.134)" fill="#9e7836"/>
    <path id="패스_388" data-name="패스 388" d="M1147.026,131.017a325.022,325.022,0,0,0-14.944-48.666l1.962-.775a327.183,327.183,0,0,1,15.041,48.982Z" transform="translate(16454 -14920.997)" fill="#9e7836"/>
    <path id="패스_389" data-name="패스 389" d="M1129.338,80.018a4.554,4.554,0,0,0,.1.791,2.839,2.839,0,0,0,.179.461,2.631,2.631,0,0,0,.2.432,6.562,6.562,0,0,0,.435.564c.022.026.044.052.069.077l-.417-.54.022.03c-.09-.214-.181-.427-.271-.641a3.808,3.808,0,0,0,.346.8,2.989,2.989,0,0,0,2.562,1.449,3.258,3.258,0,0,0,2.82-1.617,5.923,5.923,0,0,0,.346-.8,3.155,3.155,0,0,0,.133-.927,7.949,7.949,0,0,0-.122-.921,3.278,3.278,0,0,0-1.554-2.01c-.266-.111-.532-.224-.8-.337a.156.156,0,0,0-.062-.017,3.516,3.516,0,0,0-1.83,0,3.659,3.659,0,0,0-2.57,4.522,3.447,3.447,0,0,0,1.592,2.076l.819.345a4.786,4.786,0,0,0,.951.124,3.88,3.88,0,0,0,1.936-.521,3.644,3.644,0,0,0,1.683-2.185.2.2,0,0,0,.017-.071l.123-.917a3.581,3.581,0,0,0-1.8-3.123l-.822-.346a.216.216,0,0,0-.05-.013,3.507,3.507,0,0,0-1.874.013l-.817.345-.692.533c-.178.232-.357.462-.535.692a2.555,2.555,0,0,0-.406,1.272,1.736,1.736,0,0,0,0,.91,3.354,3.354,0,0,0,.674,1.616,2.584,2.584,0,0,0,.959.882,6.978,6.978,0,0,0,.889.372l-.821-.346a.193.193,0,0,1,.045.023l-.7-.538a.19.19,0,0,1,.036.033c-.18-.231-.359-.464-.539-.695l.013.021c-.116-.275-.231-.55-.347-.823a.131.131,0,0,1,.012.049l-.123-.917c0,.014,0,.026,0,.04l.123-.918-.009.036c.116-.273.232-.549.348-.824a.22.22,0,0,1-.035.066l.54-.7a.235.235,0,0,1-.054.055l.7-.541a1.045,1.045,0,0,1-.171.109c.274-.116.548-.231.822-.348a.534.534,0,0,1-.077.025q1.668.439,3.335.88a.151.151,0,0,1-.044-.046q.267.348.534.692c0-.009-.009-.017-.014-.026.115.271.229.543.344.816a.214.214,0,0,1-.015-.061c.04.3.081.6.121.906a.259.259,0,0,1,0-.063c-.04.3-.081.6-.121.9a.287.287,0,0,1,.017-.063c-.114.271-.228.539-.342.809a.406.406,0,0,1,.05-.085l-.528.683a.281.281,0,0,1,.047-.045q-.341.264-.681.526a.191.191,0,0,1,.055-.028q-.4.167-.8.338l.03-.009q-.445.062-.891.12c.336-.029.68-.067,1.013-.126l-.873.119h.035c-.287-.039-.575-.078-.862-.115a.108.108,0,0,1,.035.01l-.763-.323a.3.3,0,0,1,.049.028c-.211-.162-.423-.325-.634-.489a.393.393,0,0,1,.029.027c-.161-.206-.322-.414-.482-.622a.251.251,0,0,1,.032.049q-.153-.36-.3-.72a.188.188,0,0,1,.011.037c-.035-.262-.071-.526-.106-.788a.124.124,0,0,1,0,.038q.053-.387.1-.777a.118.118,0,0,1-.01.038q.371-.636.74-1.269a.407.407,0,0,1-.038.034l.57-.439a.713.713,0,0,1-.1.059c.451-.121.9-.244,1.353-.366h-.038l.708.1a1.014,1.014,0,0,1-.153-.049l.625.264a1.162,1.162,0,0,1-.141-.082l.52.4a.846.846,0,0,1-.144-.142l.392.507-.023-.033-.391-.505a1.883,1.883,0,0,0-.8-.518,1.255,1.255,0,0,0-.63-.169,1.9,1.9,0,0,0-1,.044c-.2.084-.4.167-.6.252l-.506.391a2.776,2.776,0,0,0-.731,1.764" transform="translate(16454 -14920.997)" fill="#9e7836"/>
    <path id="패스_390" data-name="패스 390" d="M1153.309,75.191a3.28,3.28,0,0,0-.784.585l-.513.664a2.444,2.444,0,0,0-.389,1.219,1.654,1.654,0,0,0,0,.872,2.45,2.45,0,0,0,.389,1.219,3.6,3.6,0,0,0,1.281,1.279,3.415,3.415,0,0,0,1.728.467,2.018,2.018,0,0,0,.942-.12,6.081,6.081,0,0,0,.893-.374,3.072,3.072,0,0,0,.851-.664,3.725,3.725,0,0,0,.966-1.707,2.67,2.67,0,0,0,.063-1.406,2.615,2.615,0,0,0-.419-1.31l-.551-.714a3.515,3.515,0,0,0-1.555-.906,2.517,2.517,0,0,0-.518-.078c-.156-.021-.346-.06-.519-.066a2.908,2.908,0,0,0-1.037.149l-.851.359a.171.171,0,0,0-.033.018.147.147,0,0,0-.021.014c-.251.181-.495.37-.734.567l-.038.034a4.256,4.256,0,0,0-.3.382q-.151.189-.3.384a3.32,3.32,0,0,0-.4.94.2.2,0,0,0-.009.035l-.129.963a.594.594,0,0,0,0,.061,3.871,3.871,0,0,0,.136,1,2.856,2.856,0,0,0,.661,1.263,1.83,1.83,0,0,0,.654.654,1.076,1.076,0,0,0,.389.294l.872.368a.159.159,0,0,0,.031.009,3.757,3.757,0,0,0,.5.067c.168.03.337.053.508.067.014,0,.027,0,.041,0a3.848,3.848,0,0,0,1.916-.521,4.02,4.02,0,0,0,.821-.628.493.493,0,0,0,.038-.041q.151-.19.3-.384a4.6,4.6,0,0,0,.3-.4c.009-.016.017-.033.026-.05l.192-.455a1.494,1.494,0,0,0,.193-.467q.068-.5.133-.992l0-.023a8.83,8.83,0,0,0-.135-1,.286.286,0,0,0-.008-.031l-.008-.021-.375-.887a3.2,3.2,0,0,0-.311-.413,2.955,2.955,0,0,0-1.1-1.011,3.681,3.681,0,0,0-1.865-.5,4.108,4.108,0,0,0-2.612,1.082,3.692,3.692,0,0,0-.95,1.63,3.985,3.985,0,0,0-.014,2.082,4.053,4.053,0,0,0,1.664,2.164l.865.365a3.655,3.655,0,0,0,1.925,0,3.846,3.846,0,0,0,1.734-1.017h-5.224l.015.018-.579-.748a.2.2,0,0,1,.022.038l-.374-.885a.152.152,0,0,1,.012.041l-.132-.987a.435.435,0,0,1,0,.063q.066-.5.133-.99c-.055.366-.112.733-.145,1.1l.132-.989a.437.437,0,0,1-.022.088q.186-.443.373-.885a.465.465,0,0,1-.045.078l.576-.746a.387.387,0,0,1-.045.046l.743-.575a.276.276,0,0,1-.036.023l.875-.37a.265.265,0,0,1-.061.018l.971-.13a.17.17,0,0,1-.045,0l2.577,1.068-.017-.019.569.737a.227.227,0,0,1-.025-.043l.366.868a.288.288,0,0,1-.02-.07l.129.961a.376.376,0,0,1,0-.074l-.129.958a.434.434,0,0,1,.02-.073l-.362.857a.424.424,0,0,1,.051-.087l-.558.722a.422.422,0,0,1,.053-.051l-.719.556a.174.174,0,0,1,.042-.024l-.847.357a.285.285,0,0,1,.071-.018l-.939.126h.026l-3.4-2.588.006.029-.126-.935a.525.525,0,0,1,0,.089q.062-.467.125-.931a.505.505,0,0,1-.031.114l.351-.831a.507.507,0,0,1-.045.078l.542-.7a.6.6,0,0,1-.04.047,3.219,3.219,0,0,0-.313.387,1.847,1.847,0,0,0-.456.776l-.183.44c.113-.269.227-.538.34-.806a.264.264,0,0,1-.018.032l.52-.674a.2.2,0,0,1-.026.031l3.973-.513a.272.272,0,0,1-.03-.021l.653.5a.415.415,0,0,1-.072-.073q-.313-.24-.625-.482a2.286,2.286,0,0,0-1.147-.366,1.546,1.546,0,0,0-.821,0,2.286,2.286,0,0,0-1.147.366" transform="translate(16454 -14920.997)" fill="#9e7836"/>
    <path id="패스_391" data-name="패스 391" d="M1169.537,101.2c5.058,0,5.067-7.861,0-7.861s-5.066,7.861,0,7.861" transform="translate(16454 -14920.997)" fill="#9e7836"/>
    <path id="패스_392" data-name="패스 392" d="M1171.15,117.556a1.366,1.366,0,0,0-.282-.223c-.091-.071-.182-.142-.275-.211a.123.123,0,0,0-.034-.022l-.629-.265a2.283,2.283,0,0,0-.819-.118c-.239.033-.479.064-.718.1a6.858,6.858,0,0,0-.661.281,2.958,2.958,0,0,0-.589.45,3.07,3.07,0,0,0-.258.323,3.235,3.235,0,0,0-.247.331,2.977,2.977,0,0,0-.4,1.467,4.276,4.276,0,0,0,.051.429,1.979,1.979,0,0,0,.333,1.048c.142.186.285.37.428.554a1.545,1.545,0,0,0,.567.434c.112.051.225.1.34.144a2.724,2.724,0,0,0,.354.148c.136.031.293.042.418.058a2.512,2.512,0,0,0,.419.049l.731-.1.027,0a.525.525,0,0,0,.077-.023,5.828,5.828,0,0,0,.685-.289c.025-.015.046-.03.07-.047a5.78,5.78,0,0,0,.582-.45.7.7,0,0,0,.059-.062,6.238,6.238,0,0,0,.452-.585l.037-.061a.347.347,0,0,0,.018-.039l.281-.666c.008-.022.015-.043.021-.066a.269.269,0,0,0,.007-.04l.1-.744c0-.022,0-.044,0-.067a2.292,2.292,0,0,0-.263-1.172,2.718,2.718,0,0,0-.644-1l.725,1.244a6.27,6.27,0,0,0-.306-.719,2.2,2.2,0,0,0-.236-.31c-.078-.1-.158-.206-.239-.309a3.121,3.121,0,0,0-.671-.519,3.06,3.06,0,0,0-1.578-.424c-.141.013-.282.032-.423.056s-.283.035-.424.058a.74.74,0,0,0-.081.022,3.468,3.468,0,0,0-1.533.919,7.02,7.02,0,0,0-.507.663,3.661,3.661,0,0,0-.166.391c-.059.128-.113.26-.165.391a2.676,2.676,0,0,0-.122.955,3.451,3.451,0,0,0,.909,2.195l.629.485a3.088,3.088,0,0,0,1.566.424,5.049,5.049,0,0,0,.928-.133l.747-.316a2.068,2.068,0,0,0,.665-.506c.094-.11.183-.226.268-.344a2.767,2.767,0,0,0,.264-.346,2.715,2.715,0,0,0,.35-.845,2.354,2.354,0,0,0,.055-1.242,2.312,2.312,0,0,0-.369-1.158l-.487-.631a2.33,2.33,0,0,0-1-.643,1.536,1.536,0,0,0-.786-.213,2.354,2.354,0,0,0-1.242.055c-.248.106-.5.21-.744.314a3.14,3.14,0,0,0-1.117,1.118.332.332,0,0,1-.033.062c.163-.211.325-.422.488-.632a1.119,1.119,0,0,1-.123.125c.211-.162.421-.324.631-.488a.282.282,0,0,1-.058.039l4.247,1.113a.3.3,0,0,1-.025-.05l.312.739a.313.313,0,0,1-.014-.052c.037.273.073.547.11.82a.532.532,0,0,1,0-.08c-.036.272-.073.543-.109.815a.484.484,0,0,1,.026-.1q-.153.364-.307.727a.6.6,0,0,1,.055-.1c-.157.205-.315.408-.472.612a.589.589,0,0,1,.1-.1l-.606.469a1.148,1.148,0,0,1,.2-.119l-.693.292a.454.454,0,0,1,.066-.016l-.761.1a.194.194,0,0,1,.048,0q-.377-.053-.754-.1l.027,0-.674-.284.023.017-.57-.44a.382.382,0,0,1,.039.041c-.147-.188-.293-.379-.44-.568a.435.435,0,0,1,.04.07c-.094-.223-.189-.445-.283-.669a.4.4,0,0,1,.019.078c-.033-.249-.067-.5-.1-.745a.541.541,0,0,1,0,.082c.033-.247.067-.5.1-.742a.554.554,0,0,1-.036.136c.093-.222.187-.443.28-.665a.671.671,0,0,1-.057.1l.434-.562a.588.588,0,0,1-.1.1l.559-.432a.567.567,0,0,1-.071.041c.219-.092.439-.184.658-.278a.43.43,0,0,1-.077.024c.243-.033.487-.065.73-.1a.365.365,0,0,1-.081,0l.729.1a.347.347,0,0,1-.056-.012l1.911,1.911a.217.217,0,0,1-.021-.062c.033.243.065.484.1.727a.277.277,0,0,1,0-.065q-.048.363-.1.725a.45.45,0,0,1,.024-.094q-.138.326-.274.65a.454.454,0,0,1,.052-.084q-.213.274-.424.55a4.394,4.394,0,0,0,.493-.646l-.417.54a.251.251,0,0,1,.037-.042c-.177.138-.355.274-.532.411a.208.208,0,0,1,.046-.031l-.62.263.028-.012a2.579,2.579,0,0,0,1.8-1.8,2.605,2.605,0,0,0-.663-2.507" transform="translate(16454 -14920.997)" fill="#9e7836"/>
    <path id="패스_393" data-name="패스 393" d="M1147.847,129.977a2.916,2.916,0,0,0-1.154.682,3.078,3.078,0,0,0-.4.529l-.238.561a.312.312,0,0,0-.021.086,2.4,2.4,0,0,0,0,1.253,2.64,2.64,0,0,0,1.083,1.408,2.342,2.342,0,0,0,1.191.322,2.77,2.77,0,0,0,2.42-1.348,3.481,3.481,0,0,0,.288-.648,2.631,2.631,0,0,0,.12-.767,4.152,4.152,0,0,0-.109-.894,2.956,2.956,0,0,0-2.044-2.038,2.81,2.81,0,0,0-2.7.747,3.245,3.245,0,0,0-.792,1.378,3.163,3.163,0,0,0,0,1.65,4.888,4.888,0,0,0,.306.723,2.737,2.737,0,0,0,.485.623,3.155,3.155,0,0,0,1.354.785,3.3,3.3,0,0,0,.839.111c.134-.016.269-.033.4-.054a1.92,1.92,0,0,0,.4-.057,2.99,2.99,0,0,0,2.191-2.9,3.209,3.209,0,0,0-.052-.4c-.011-.136-.03-.27-.054-.4a3.548,3.548,0,0,0-.32-.756,2.96,2.96,0,0,0-1.762-1.36l-.743-.1a2.112,2.112,0,0,0-1.075.24,1.4,1.4,0,0,0-.616.359,2.106,2.106,0,0,0-.72.784c-.092.222-.186.444-.28.666-.034.248-.067.5-.1.743a2.116,2.116,0,0,0,.242,1.075,2.071,2.071,0,0,0,.576.9,6.477,6.477,0,0,0,.615.472l-.565-.437a.3.3,0,0,1,.046.042l-.436-.564a.382.382,0,0,1,.049.083c-.094-.222-.186-.444-.28-.665a.424.424,0,0,1,.017.063q-.051-.371-.1-.739a.194.194,0,0,1,0,.064c.034-.246.066-.492.1-.738a.26.26,0,0,1-.012.063q.14-.331.278-.662a.183.183,0,0,1-.032.056c.145-.187.289-.373.432-.56a.226.226,0,0,1-.053.049l.559-.432-.031.018.659-.278a.42.42,0,0,1-.1.027l.731-.1a.358.358,0,0,1-.073,0l.729.1a.513.513,0,0,1-.106-.031l.653.276a.342.342,0,0,1-.063-.038l.553.427a.33.33,0,0,1-.053-.052l.426.552a.361.361,0,0,1-.041-.068l.275.65a.373.373,0,0,1-.025-.08c.032.241.064.481.1.722a.479.479,0,0,1,0-.126q-.048.36-.1.72a.76.76,0,0,1,.033-.124c-.092.215-.181.429-.273.644.12-.261.239-.522.346-.79-.09.212-.18.425-.269.637l.019-.036-.951.951.033-.014-.629.265a.351.351,0,0,1,.073-.017l-.692.093a.387.387,0,0,1,.076,0l-.683-.092a.557.557,0,0,1,.114.028l-.6-.255a.586.586,0,0,1,.1.059l-.5-.388a.228.228,0,0,1,.052.056q-.313-.54-.629-1.079a.31.31,0,0,1,.024.079c-.03-.216-.058-.432-.088-.648a.391.391,0,0,1,.005.083q.044-.322.085-.645a.442.442,0,0,1-.028.12q.12-.287.243-.575a.644.644,0,0,1-.065.106l.374-.485a.324.324,0,0,1-.058.059l.482-.373a.5.5,0,0,1-.106.062l.566-.239a.31.31,0,0,1-.081.02l2.984,2.273a.242.242,0,0,1,0-.089l-.083.624.011-.043c-.079.186-.157.373-.235.559a.278.278,0,0,1,.043-.077c-.121.157-.241.314-.364.471.012-.01.021-.021.033-.031l-.471.363.037-.025a2.421,2.421,0,0,0,1.066-1.385q.039-.309.083-.616a1.758,1.758,0,0,0-.2-.893,1.132,1.132,0,0,0-.3-.511,1.73,1.73,0,0,0-.65-.6,2.3,2.3,0,0,0-1.785-.234" transform="translate(16454 -14920.997)" fill="#9e7836"/>
    <path id="패스_394" data-name="패스 394" d="M1131.23,127.33v0l-.49-.635a2.366,2.366,0,0,0-1.009-.648,1.56,1.56,0,0,0-.791-.214,2.388,2.388,0,0,0-1.251.056,4.343,4.343,0,0,0-.964.381.853.853,0,0,0-.112.068l-.655.505a.406.406,0,0,0-.045.047,6.889,6.889,0,0,0-.545.714q-.1.207-.179.421a3.41,3.41,0,0,0-.176.423,3.151,3.151,0,0,0-.129.941,2.623,2.623,0,0,0,.295,1.34,2.036,2.036,0,0,0,.461.788,2.669,2.669,0,0,0,.98.9,3.011,3.011,0,0,0,.849.354l.886.119a.182.182,0,0,0,.057,0,3.565,3.565,0,0,0,3.385-2.589,3.4,3.4,0,0,0,0-1.784l-.339-.8a3.361,3.361,0,0,0-1.2-1.2,2.5,2.5,0,0,0-1.248-.4,3.447,3.447,0,0,0-3.343,1.6,3.331,3.331,0,0,0-.457,1.693l0,.025.12-.891-.009.024q.17-.4.338-.8l-.013.023q.263-.337.524-.677a.2.2,0,0,1-.038.04l.677-.523a.242.242,0,0,1-.048.03l.8-.337a.217.217,0,0,1-.055.016l.887-.119a.175.175,0,0,1-.056,0l.886.119-.028-.007.8.335a.157.157,0,0,1-.052-.032l.673.52-.023-.023c.174.224.347.449.52.673a.656.656,0,0,1-.064-.109l.333.788a.336.336,0,0,1-.018-.062l.117.872a.551.551,0,0,1,0-.1c-.039.288-.077.576-.116.864a.486.486,0,0,1,.027-.1c-.108.257-.216.513-.325.77a.788.788,0,0,1,.079-.127c-.165.215-.331.429-.5.644a1.444,1.444,0,0,1,.107-.113,3.133,3.133,0,0,0,.806-3.05c-.1-.252-.2-.5-.315-.747" transform="translate(16454 -14920.997)" fill="#9e7836"/>
    <path id="패스_395" data-name="패스 395" d="M1115.5,111.062a3.085,3.085,0,0,0-2.175-.873l1.347.364a2.5,2.5,0,0,0-1.109-.377,2.092,2.092,0,0,0-1.164.052,3.708,3.708,0,0,0-1.376.811l-.452.586a2.154,2.154,0,0,0-.344,1.076,1.452,1.452,0,0,0,0,.769,2.154,2.154,0,0,0,.344,1.076,3.424,3.424,0,0,0,1.038,1.038,2.155,2.155,0,0,0,1.076.344,2.189,2.189,0,0,0,1.154-.052,3.684,3.684,0,0,0,.761-.316,3.082,3.082,0,0,0,1.077-1.076,3.135,3.135,0,0,0,.443-1.633q-.205.758-.41,1.515l.005-.009a3.152,3.152,0,0,0,0-3.139,3.094,3.094,0,0,0-2.684-1.54,3.344,3.344,0,0,0-1.688.46,5.173,5.173,0,0,0-.765.589,3.394,3.394,0,0,0-.956,1.745,3.3,3.3,0,0,0,.847,3.207,3.361,3.361,0,0,0,3.207.847,1.365,1.365,0,0,0,.139-.04,7.074,7.074,0,0,0,.875-.37,5.707,5.707,0,0,0,.875-.652,3.369,3.369,0,0,0,.867-3.28l-.008-.034-.335-.794a2.521,2.521,0,0,0-.856-.933,1.663,1.663,0,0,0-.734-.427,2.508,2.508,0,0,0-1.281-.287l-.884.119-.794.335a3.738,3.738,0,0,0-1.528,1.987c-.011.074-.023.148-.034.222l.72-1.236a2.328,2.328,0,0,0-.539.672,3.061,3.061,0,0,0-.427,1.535,3.193,3.193,0,0,0,.945,2.264,3.26,3.26,0,0,0,5.467-3.2,3.747,3.747,0,0,0-.942-1.591,4.018,4.018,0,0,0-1.606-.957,3.035,3.035,0,0,0-2.955.781,3.371,3.371,0,0,0-.978,1.612,3.66,3.66,0,0,0-.016,1.9,3.473,3.473,0,0,0,6.687.037,3.356,3.356,0,0,0-2.329-4.1l-.8-.107-.8.107-.718.3a2.272,2.272,0,0,0-.844.774,2.991,2.991,0,0,0-.592,2.221,2.234,2.234,0,0,0,.357,1.118.324.324,0,0,1,.041.078c-.1-.242-.2-.485-.307-.727.1.3.24.574.367.857l-.309-.732a.371.371,0,0,1,.022.092c-.036-.271-.073-.543-.109-.815a.322.322,0,0,1,0,.093q.055-.408.11-.815l-.013.045q.156-.368.31-.734a.272.272,0,0,1-.048.082c.16-.207.32-.415.481-.622a.345.345,0,0,1-.069.063l.622-.481a.4.4,0,0,1-.083.042l.736-.311a.425.425,0,0,1-.092.022l.819-.111a.44.44,0,0,1-.1,0l.821.11a.616.616,0,0,1-.14-.036l.739.312a.43.43,0,0,1-.083-.048l.627.484a.877.877,0,0,1-.1-.107l.483.625a.411.411,0,0,1-.051-.1q.156.369.311.736a.456.456,0,0,1-.026-.1c.036.272.073.545.11.817a.7.7,0,0,1,0-.164c-.037.272-.073.543-.11.814a.554.554,0,0,1,.031-.106q-.155.364-.308.729a.721.721,0,0,1,.084-.142l-.476.616c.012-.014.025-.027.038-.04l-2.956.781a.588.588,0,0,1,.1.03l-.723-.305a1.013,1.013,0,0,1,.19.107l-.61-.471a1.041,1.041,0,0,1,.152.153c-.156-.2-.312-.405-.469-.607a.733.733,0,0,1,.074.131l-.3-.714a.46.46,0,0,1,.024.09c-.035-.264-.071-.528-.106-.792a.329.329,0,0,1,0,.089c.035-.264.071-.527.106-.791a.275.275,0,0,1-.026.085l.3-.709-.024.04.463-.6a.27.27,0,0,1-.067.068l.6-.462-.038.022.706-.3a.269.269,0,0,1-.082.025l.783-.1a.362.362,0,0,1-.087,0l.782.1a.37.37,0,0,1-.087-.022l.7.3a.67.67,0,0,1-.119-.069l.592.457a.4.4,0,0,1-.064-.065l.456.59c-.033-.048-.058-.1-.089-.15l.291.688a.274.274,0,0,1-.028-.083l.1.755a.283.283,0,0,1,0-.088l-5.218,1.414c.029.06.058.121.088.182l2.87-5a3.155,3.155,0,0,0-.933.12,3.787,3.787,0,0,0-2.015,1.549.992.992,0,0,1-.065.1q.261-.34.524-.679a1.157,1.157,0,0,1-.166.162l.671-.518a.92.92,0,0,1-.1.065l4.841,1.969c0-.02-.007-.04-.01-.06l.117.874a1.04,1.04,0,0,1,0-.185c-.038.288-.077.577-.116.865a8.1,8.1,0,0,0,.131-.981c-.038.285-.077.571-.115.856.049-.35.131-.7.155-1.054l-.911,2.2.012-.013H1111l.027.024q-.233-.3-.467-.6a.166.166,0,0,1,.037.061l-.3-.706.008.034L1110.2,113c0,.011,0,.023,0,.034q.051-.389.1-.777l-.009.033.293-.695-.018.029,5.393,1.46v-.045l-.1.764a6.562,6.562,0,0,0,.132-.946l-1.323,2.306.044-.022-.635.268a.452.452,0,0,1,.095-.029l-.7.1a.367.367,0,0,1,.1,0l-.7-.093a.368.368,0,0,1,.1.022l.69.093a1.958,1.958,0,0,0,1-.224,2.48,2.48,0,0,0,1.241-1.062,3.072,3.072,0,0,0,.354-1.31,2.88,2.88,0,0,0-.76-1.835" transform="translate(16454 -14920.997)" fill="#9e7836"/>
    <path id="패스_396" data-name="패스 396" d="M1114.989,90.284a3.8,3.8,0,0,0-.768.109,4.69,4.69,0,0,0-.644.272,2.625,2.625,0,0,0-.308.231,2.926,2.926,0,0,0-.339.274l-.426.552a.361.361,0,0,0-.023.031c-.01.017-.019.034-.028.052a5.271,5.271,0,0,0-.293.694q-.03.2-.054.4a1.423,1.423,0,0,0,0,.755,2.428,2.428,0,0,0,.067.435,5.932,5.932,0,0,0,.3.708c.012.023.023.044.036.065a3.4,3.4,0,0,0,.233.3c.078.107.159.211.243.314a3.4,3.4,0,0,0,.675.524l-.585-.452a2.951,2.951,0,0,0,2.186.875l-.808-.109.038.016a2.521,2.521,0,0,0,1.325.059,2.472,2.472,0,0,0,1.236-.394l.672-.52a3.315,3.315,0,0,0,.855-1.466l.008-.034q.058-.442.119-.885a2.465,2.465,0,0,0-.057-.516,2.209,2.209,0,0,0-.256-.947,2.072,2.072,0,0,0-.186-.432l-.528-.684-.044-.048-.687-.531-.028-.017-.813-.343a.123.123,0,0,0-.049-.016,9.374,9.374,0,0,0-.942-.124,9.12,9.12,0,0,0-.945.126.14.14,0,0,0-.033.01q-.42.172-.837.354l-.031.018-.7.539-.054.049-.542.7q-.174.414-.35.828a2.361,2.361,0,0,0-.07.5c-.025.158-.047.318-.064.478a1.01,1.01,0,0,0,.06.477,1.443,1.443,0,0,0,.072.491q.172.411.346.821l.537.7.7.537a2.559,2.559,0,0,0,1.277.408,1.728,1.728,0,0,0,.914,0,3.382,3.382,0,0,0,1.625-.677,2.591,2.591,0,0,0,.885-.964.826.826,0,0,0,.049-.077,1.269,1.269,0,0,0,.185-.429,2.4,2.4,0,0,0,.185-.449l-.348.826a.276.276,0,0,1,.034-.063q-.269.349-.538.7a.2.2,0,0,1,.05-.047l-.693.536.03-.016-.817.344.034-.01-.906.122a.158.158,0,0,1,.065,0l-.9-.121.031.009-.809-.342a.232.232,0,0,1,.057.034l-.683-.528a.316.316,0,0,1,.048.049l-.525-.679a.3.3,0,0,1,.035.06l-.336-.8c.119.32-.078.189.355.861l.52.672a1.867,1.867,0,0,0,.7.533l-1.4-1.816c.005.024.009.047.012.071q-.053-.39-.1-.781c0,.01,0,.021,0,.031l2.134-2.8-.026.006h1.537a.266.266,0,0,1-.057-.015l.688.29a.448.448,0,0,1-.1-.06l.579.448a.633.633,0,0,1-.062-.064l.445.576a3.127,3.127,0,0,0-.478-.624,4.521,4.521,0,0,0-.61-.473l.567.438a.545.545,0,0,1-.069-.067l.427.552a.488.488,0,0,1-.049-.082c.089.212.179.423.268.634a.417.417,0,0,1-.019-.067l.093.69a.337.337,0,0,1,0-.071q-.047.338-.091.675l0-.025a2.543,2.543,0,0,0,0-1.341,1.893,1.893,0,0,0-.451-.857,1.913,1.913,0,0,0-.707-.65,2.51,2.51,0,0,0-1.273-.344" transform="translate(16454 -14920.997)" fill="#9e7836"/>
    <path id="패스_418" data-name="패스 418" d="M776,173.584a1.361,1.361,0,0,1-1.361-1.361V158.629H761.049a1.36,1.36,0,0,1,0-2.721h13.594V142.314a1.361,1.361,0,1,1,2.722,0v13.594h13.594a1.36,1.36,0,0,1,0,2.721H777.365v13.594A1.361,1.361,0,0,1,776,173.584" transform="translate(16484 -14950.997)" fill="#9e7836"/>
    <path id="패스_419" data-name="패스 419" d="M764.467,168.806a1.361,1.361,0,0,1,0-1.924l9.613-9.613-9.613-9.612a1.36,1.36,0,0,1,1.924-1.924L776,155.345l9.612-9.612a1.361,1.361,0,0,1,1.925,1.924l-9.613,9.612,9.613,9.613a1.361,1.361,0,0,1-1.925,1.924L776,159.193l-9.613,9.613a1.361,1.361,0,0,1-1.924,0" transform="translate(16484 -14950.997)" fill="#9e7836"/>
    <path id="패스_422" data-name="패스 422" d="M450.806,338.356a4.244,4.244,0,1,1-4.244-4.244,4.244,4.244,0,0,1,4.244,4.244" transform="translate(16804 -15260.997)" fill="#9e7836"/>
    <path id="패스_426" data-name="패스 426" d="M1403.807,204.475a4.244,4.244,0,1,1-4.244-4.244,4.244,4.244,0,0,1,4.244,4.244" transform="translate(16324 -15050.997)" fill="#9e7836"/>
    <path id="패스_427" data-name="패스 427" d="M1579.429,204.475a4.244,4.244,0,1,1-4.244-4.244,4.244,4.244,0,0,1,4.244,4.244" transform="translate(16124 -14920.997)" fill="#9e7836"/>
    <path id="패스_432" data-name="패스 432" d="M561.8,155.874a4.245,4.245,0,1,1-4.244-4.244,4.244,4.244,0,0,1,4.244,4.244" transform="translate(16524 -14920.997)" fill="#9e7836"/>
    <path id="패스_434" data-name="패스 434" d="M1001.827,124.986a4.245,4.245,0,1,1-4.244-4.244,4.244,4.244,0,0,1,4.244,4.244" transform="translate(16504 -15050.997)" fill="#9e7836"/>
    <path id="패스_435" data-name="패스 435" d="M1201.367,4.241A4.244,4.244,0,1,1,1197.123,0a4.244,4.244,0,0,1,4.244,4.244" transform="translate(15984 -14710.997)" fill="#9e7836"/>
  </g>
</svg>
