<svg width="567" height="873" viewBox="0 0 567 873" fill="none" xmlns="http://www.w3.org/2000/svg">
<path d="M57.08 28.5441C30.3614 29.2706 29.7679 29.863 29.04 56.5316C28.3121 29.863 27.7186 29.2706 1 28.5441C27.7186 27.8176 28.3121 27.2252 29.04 0.556641C29.7679 27.2252 30.3614 27.8176 57.08 28.5441Z" fill="#F1B400"/>
<path d="M57.08 28.5441C30.3614 29.2706 29.7679 29.863 29.04 56.5316C28.3121 29.863 27.7186 29.2706 1 28.5441C27.7186 27.8176 28.3121 27.2252 29.04 0.556641C29.7679 27.2252 30.3614 27.8176 57.08 28.5441Z" stroke="black" stroke-miterlimit="10"/>
<path d="M557.713 856.553C542.479 848.741 541.963 848.892 533.35 863.65C541.145 848.444 540.994 847.928 526.207 839.3C541.441 847.112 541.957 846.962 550.57 832.203C542.775 847.41 542.926 847.925 557.713 856.553Z" fill="#F1B400"/>
<path d="M557.713 856.553C542.479 848.741 541.963 848.892 533.35 863.65C541.145 848.444 540.994 847.928 526.207 839.3C541.441 847.112 541.957 846.962 550.57 832.203C542.775 847.41 542.926 847.925 557.713 856.553Z" stroke="black" stroke-miterlimit="10"/>
</svg>
