<svg width="750" height="1172" viewBox="0 0 750 1172" fill="none" xmlns="http://www.w3.org/2000/svg">
<path d="M750 1040L589 853.402L750 1092.89V1040Z" fill="url(#paint0_linear_388_571)" fill-opacity="0.9"/>
<path d="M171 704.695L0.000290155 808L0 843.847L171 704.695Z" fill="url(#paint1_linear_388_571)" fill-opacity="0.9"/>
<path d="M165 846.744L0 1113V1172L165 846.744Z" fill="url(#paint2_linear_388_571)" fill-opacity="0.9"/>
<path d="M171 607.037L0 532.888V494.951L171 607.037Z" fill="url(#paint3_linear_388_571)" fill-opacity="0.9"/>
<path d="M0 131.647V49.9395L191 455L0 131.647Z" fill="url(#paint4_linear_388_571)" fill-opacity="0.9"/>
<path d="M543 366.22L673.39 0H705L543 366.22Z" fill="url(#paint5_linear_388_571)" fill-opacity="0.9"/>
<path d="M750 717.5L570 668.073L750 770.5V717.5Z" fill="url(#paint6_linear_388_571)" fill-opacity="0.9"/>
<path d="M750 387.305L553 551.549L750 416.696V387.305Z" fill="url(#paint7_linear_388_571)" fill-opacity="0.9"/>
<defs>
<linearGradient id="paint0_linear_388_571" x1="750" y1="1095.33" x2="572.681" y2="875.436" gradientUnits="userSpaceOnUse">
<stop stop-color="#FFE361"/>
<stop offset="1" stop-color="#FFE361" stop-opacity="0"/>
</linearGradient>
<linearGradient id="paint1_linear_388_571" x1="1.83752e-06" y1="842.86" x2="156.117" y2="827.668" gradientUnits="userSpaceOnUse">
<stop stop-color="#FFE361"/>
<stop offset="1" stop-color="#FFE361" stop-opacity="0"/>
</linearGradient>
<linearGradient id="paint2_linear_388_571" x1="-0.0010309" y1="1164.13" x2="120.179" y2="805.876" gradientUnits="userSpaceOnUse">
<stop stop-color="#FFE361"/>
<stop offset="1" stop-color="#FFE361" stop-opacity="0"/>
</linearGradient>
<linearGradient id="paint3_linear_388_571" x1="-1.72878e-06" y1="517.701" x2="58.3962" y2="654.948" gradientUnits="userSpaceOnUse">
<stop stop-color="#FFE361"/>
<stop offset="1" stop-color="#FFE361" stop-opacity="0"/>
</linearGradient>
<linearGradient id="paint4_linear_388_571" x1="-2.50202e-07" y1="95.4395" x2="254.995" y2="314.503" gradientUnits="userSpaceOnUse">
<stop stop-color="#FFE361"/>
<stop offset="1" stop-color="#FFE361" stop-opacity="0"/>
</linearGradient>
<linearGradient id="paint5_linear_388_571" x1="690.5" y1="-8.62569e-07" x2="644.541" y2="405.452" gradientUnits="userSpaceOnUse">
<stop stop-color="#FFE361"/>
<stop offset="1" stop-color="#FFE361" stop-opacity="0"/>
</linearGradient>
<linearGradient id="paint6_linear_388_571" x1="750" y1="749.763" x2="721.829" y2="634.092" gradientUnits="userSpaceOnUse">
<stop stop-color="#FFE361"/>
<stop offset="1" stop-color="#FFE361" stop-opacity="0"/>
</linearGradient>
<linearGradient id="paint7_linear_388_571" x1="750" y1="542.305" x2="666.686" y2="344.988" gradientUnits="userSpaceOnUse">
<stop stop-color="#FFE361"/>
<stop offset="1" stop-color="#FFE361" stop-opacity="0"/>
</linearGradient>
</defs>
</svg>
