<svg width="548" height="131" viewBox="0 0 548 131" fill="none" xmlns="http://www.w3.org/2000/svg">
<path d="M41.915 103.5C23.9562 107.727 23.6382 108.21 26.889 126.339C22.6541 108.414 22.1698 108.097 4.00707 111.341C21.9659 107.114 22.2839 106.631 19.0331 88.5022C23.268 106.427 23.7523 106.745 41.915 103.5Z" fill="#F1B400"/>
<path d="M41.915 103.5C23.9562 107.727 23.6382 108.21 26.889 126.339C22.6541 108.414 22.1698 108.097 4.00707 111.341C21.9659 107.114 22.2839 106.631 19.0331 88.5022C23.268 106.427 23.7523 106.745 41.915 103.5Z" stroke="black" stroke-miterlimit="10"/>
<path d="M547.08 28.6486C520.361 29.3751 519.768 29.9675 519.04 56.6361C518.312 29.9675 517.719 29.3751 491 28.6486C517.719 27.9221 518.312 27.3297 519.04 0.661133C519.768 27.3297 520.361 27.9221 547.08 28.6486Z" fill="#F1B400"/>
<path d="M547.08 28.6486C520.361 29.3751 519.768 29.9675 519.04 56.6361C518.312 29.9675 517.719 29.3751 491 28.6486C517.719 27.9221 518.312 27.3297 519.04 0.661133C519.768 27.3297 520.361 27.9221 547.08 28.6486Z" stroke="black" stroke-miterlimit="10"/>
</svg>
