<svg width="634" height="350" viewBox="0 0 634 350" fill="none" xmlns="http://www.w3.org/2000/svg">
<path d="M16.6246 12.0598L94.095 6.84626C102.947 6.25056 110.537 13.04 110.876 21.8577L112.564 65.7227C112.872 73.7131 107.081 80.6602 99.1283 81.841L82.9747 84.235L88.9343 101.36L60.8155 87.53L34.6128 91.4208C26.8849 92.5683 19.486 87.9094 17.2285 80.4731L2.5864 32.2416C-0.341174 22.5981 6.51593 12.74 16.6246 12.0598Z" fill="black"/>
<path d="M30.7599 29.8369C34.5456 29.339 37.6443 30.8817 38.036 33.7851C38.3765 36.449 36.3645 38.526 33.2443 39.2909L33.6403 42.3021L40.5147 41.398L40.7821 43.4313L24.6515 45.5527L24.3841 43.5195L31.181 42.6256L30.785 39.6144C27.5911 39.67 25.1202 38.1826 24.7713 35.5297C24.3893 32.625 26.9741 30.3348 30.7599 29.8369ZM27.2113 35.2088C27.4557 37.0678 29.3058 37.8784 31.776 37.5634C34.2534 37.2277 35.8309 35.9663 35.5961 34.106C35.3547 32.3451 33.497 31.4764 31.0196 31.8121C28.5494 32.1271 26.9795 33.4466 27.2113 35.2088ZM54.4623 29.4185L54.7196 31.3743L42.4618 32.9864L41.764 27.6805L44.2233 27.3571L44.6639 30.7071L54.4623 29.4185ZM40.8605 36.3883L40.6033 34.4325L56.7339 32.311L56.9911 34.2668L40.8605 36.3883ZM43.0898 39.1091L42.8402 37.2114L55.1948 35.5866L55.8111 40.2728L45.9739 41.5665L46.1216 42.6897L56.501 41.3246L56.7506 43.2223L43.8925 44.9134L43.2609 40.111L53.1175 38.8147L52.985 37.8077L43.0898 39.1091ZM66.0552 25.7466L67.1681 34.2089L58.7058 35.3218L57.5929 26.8595L66.0552 25.7466ZM61.712 42.4516L60.9607 36.7391L63.42 36.4157L63.9115 40.153L73.5163 38.8898L73.776 40.865L61.712 42.4516ZM60.8911 33.0644L64.4735 32.5933L63.875 28.0426L60.2926 28.5138L60.8911 33.0644ZM70.0726 36.8212L68.3816 23.9632L70.8602 23.6372L71.5275 28.7107L73.9093 28.3974L74.1767 30.4307L71.7949 30.7439L72.5513 36.4952L70.0726 36.8212ZM82.086 22.4169C86.1429 21.8833 88.626 22.6402 88.8904 24.5754C89.1392 26.5422 86.9349 27.9057 82.878 28.4392C78.8115 28.9741 76.3102 28.2294 76.0517 26.2639C75.7971 24.3275 78.0195 22.9517 82.086 22.4169ZM75.2085 32.2846L74.9513 30.3288L91.0238 28.215L91.281 30.1708L75.2085 32.2846ZM77.4393 34.8674L77.2025 33.0665L89.4602 31.4544L90.0511 35.9469L80.2333 37.2381L80.3733 38.3032L90.6559 36.9509L90.9004 38.8099L78.1973 40.4805L77.586 35.833L87.3845 34.5444L87.2571 33.5762L77.4393 34.8674ZM78.6466 25.9226C78.7502 26.7856 80.0535 26.959 82.6386 26.619C85.2432 26.2764 86.4476 25.7733 86.3343 24.9116C86.2311 24.1273 84.9274 23.8752 82.3229 24.2178C79.7377 24.5578 78.5338 25.1397 78.6466 25.9226ZM46.5973 55.0693L48.9149 72.691L46.4168 73.0195L44.0993 55.3978L46.5973 55.0693ZM33.5021 69.6355C37.77 66.8876 39.4075 63.8355 39.29 59.8717L33.287 60.6612L33.0324 58.7247L41.5528 57.6042C42.246 62.95 40.9618 67.6399 35.0592 71.4401L33.5021 69.6355ZM62.8248 52.9351L63.6856 59.4803L66.2804 59.139L66.5453 61.1529L63.9504 61.4942L65.1474 70.5955L62.6688 70.9215L60.3461 53.2611L62.8248 52.9351ZM51.378 68.0528L49.8321 56.2986L58.1007 55.2111L58.3631 57.2057L52.5537 57.9697L53.5699 65.6961C56.1234 65.3406 58.2163 64.9274 60.506 64.2126L61.0496 66.249C58.3706 67.0741 55.9783 67.4577 52.8691 67.8567L51.378 68.0528ZM80.7976 50.5911L82.5039 63.5653L80.0446 63.8887L78.3383 50.9145L80.7976 50.5911ZM67.3813 55.5271L67.1216 53.5519L75.2934 52.4772L76.032 58.0929L70.3001 58.8468L70.5573 60.8026C73.7124 60.3778 75.6942 60.0186 77.9219 59.2824L78.4528 61.2219C75.9507 62.0435 73.6784 62.4408 69.9507 62.9311L68.4016 63.1348L67.6401 57.3448L73.3333 56.5961L73.0939 54.7758L67.3813 55.5271ZM71.2207 69.4422L70.5102 64.0395L72.9695 63.716L73.4203 67.1436L83.2768 65.8473L83.5366 67.8224L71.2207 69.4422ZM87.4441 51.549L88.4835 61.3999L86.0049 61.7259L84.4619 51.9412L87.4441 51.549ZM85.9986 64.524C85.8621 63.6358 86.5024 62.8129 87.4138 62.7028C88.2743 62.5798 89.1153 63.2079 89.2325 64.0987C89.3509 64.9992 88.7009 65.8234 87.8391 65.9367C86.929 66.0564 86.0977 65.427 85.9986 64.524Z" fill="white"/>
<mask id="mask0_388_569" style="mask-type:alpha" maskUnits="userSpaceOnUse" x="56" y="60" width="578" height="290">
<rect x="56" y="60" width="578" height="290" fill="#D9D9D9"/>
</mask>
<g mask="url(#mask0_388_569)">
<path d="M131.647 224.532L120.012 127.821L140.391 122.534L145.558 165.488L155.587 163.121L156.918 174.177L146.873 176.417L152.362 222.04L131.647 224.532ZM61.965 183.28C60.2221 168.792 61.6438 157.749 66.2303 150.149C70.8167 142.55 77.4308 138.23 86.0725 137.19C93.3586 136.314 99.6188 138.698 104.853 144.342C110.088 149.987 113.532 159.328 115.186 172.365C116.929 186.852 115.507 197.896 110.921 205.495C106.335 213.095 99.7205 217.415 91.0788 218.454C83.7926 219.331 77.5324 216.947 72.2981 211.302C67.0637 205.658 63.6194 196.317 61.965 183.28ZM81.0122 180.859C81.2505 184.269 81.441 186.566 81.5837 187.753C82.2462 193.26 83.2489 197.307 84.5917 199.896C85.9243 202.4 87.3955 203.556 89.0052 203.362C91.6316 203.046 93.6067 200.531 94.9304 195.816C96.3388 191.091 96.7417 184.081 96.139 174.785C95.9008 171.376 95.7103 169.078 95.5676 167.892C94.8337 161.792 93.7208 157.543 92.229 155.144C90.7269 152.66 89.0321 151.789 87.1446 152.532C84.8539 153.495 83.1315 156.324 81.9772 161.018C80.8128 165.628 80.4911 172.241 81.0122 180.859ZM472.262 178.397L467.125 135.697L455.124 138.817L453.824 128.015L465.81 124.768L462.003 93.1243L478.569 88.2951L489.164 176.364L472.262 178.397ZM409.324 165.342C408.858 160.756 409.955 157.015 412.615 154.116C415.349 151.123 419.512 149.29 425.103 148.617C426.713 148.423 429.121 148.435 432.327 148.651C432.749 142.154 432.653 134.215 432.04 124.834C431.417 115.369 430.513 106.066 429.328 96.9265L448.146 92.5998L448.247 108.445C448.413 118.395 448.412 126.603 448.244 133.07C448.066 139.451 447.404 145.376 446.257 150.842C453.31 152.315 460.488 154.115 467.792 156.245L459.572 172.576L440.679 165.566C438.271 169.122 435.347 171.966 431.908 174.099C429.106 175.811 426.434 176.82 423.892 177.126C419.995 177.595 416.702 176.659 414.014 174.318C411.326 171.977 409.762 168.985 409.324 165.342ZM420.442 164.52C421.008 165.655 421.969 166.141 423.324 165.978C424.849 165.794 426.51 164.95 428.305 163.445C428.932 162.94 429.449 162.233 429.855 161.324L428.223 160.618C426.766 159.934 425.317 159.679 423.877 159.852C422.691 159.995 421.752 160.409 421.061 161.093C420.37 161.778 420.08 162.586 420.192 163.518C420.243 163.942 420.326 164.276 420.442 164.52ZM484.114 84.0182L500.68 79.1889L512.651 178.695L495.749 180.729L484.114 84.0182ZM268.025 339.949L263.255 300.299L255.005 302.452L253.705 291.65L261.94 289.37L257.766 254.676L274.332 249.847L284.927 337.916L268.025 339.949ZM214.067 317.948L219.978 316.721L215.866 282.536L228.025 279.655L232.183 314.222L239.732 312.669L235.558 277.975L247.59 275.11L251.825 310.312L260.883 308.448L263.069 326.621L222.276 331.529C220.496 331.743 218.875 331.122 217.41 329.665C215.946 328.208 215.071 326.294 214.785 323.921L214.067 317.948ZM207.584 264.065L251.091 252.771L252.818 267.132L209.205 277.536L207.584 264.065ZM279.877 245.57L296.442 240.74L308.414 340.247L291.511 342.28L279.877 245.57Z" fill="#FD7D95"/>
<path d="M278.434 193.594L178.165 205.657L176.391 190.915L218.913 183.221L217.491 171.402L206.653 173.48C203.21 174.152 200.128 173.534 197.406 171.627C194.674 169.635 193.099 166.902 192.681 163.429L188.094 125.303L252.833 109.393L259.331 163.403L234.255 168.225L235.692 180.171L275.942 172.879L278.434 193.594ZM239.674 150.04L237.167 129.198L207.445 136.126L209.922 156.713L239.674 150.04ZM348.543 193.281L343.773 153.631L335.523 155.784L334.224 144.982L342.458 142.702L338.284 108.008L354.85 103.179L365.445 191.248L348.543 193.281ZM293.636 143.032L316.464 136.676L315.027 124.73L292.138 130.578L290.517 117.107L328.432 106.486L333.279 146.772L310.516 152.604L312.336 167.727L343.435 161.536L345.621 179.709L309.657 184.036C306.691 184.393 303.959 183.475 301.461 181.283C299.047 179.081 297.637 176.286 297.229 172.897L293.636 143.032ZM360.395 98.9022L376.961 94.0729L388.932 193.579L372.03 195.613L360.395 98.9022ZM622.194 143.084L571.569 152.011L571.967 155.315L622.744 147.659L624.854 165.197L571.733 171.588C568.259 172.005 565.146 171.134 562.394 168.972C559.641 166.811 558.056 163.994 557.638 160.52L555.987 146.795L602.326 137.61L601.852 133.671L555.559 143.237L554.244 132.307L619.014 116.651L622.194 143.084ZM531.492 105.005C530.463 96.4485 532.414 89.8105 537.347 85.0915C542.27 80.2878 549.01 77.3712 557.567 76.3417C565.023 75.4448 571.177 76.5952 576.031 79.793C580.97 82.9806 583.913 88.5139 584.861 96.3931C585.891 104.95 583.939 111.588 579.006 116.307C574.073 121.026 567.328 123.9 558.771 124.93C551.316 125.827 545.123 124.724 540.195 121.621C535.341 118.423 532.44 112.885 531.492 105.005ZM549.411 102.85C549.425 104.395 549.467 105.464 549.539 106.057C549.885 108.938 550.733 110.985 552.082 112.198C553.421 113.326 555.108 113.767 557.141 113.523C559.937 113.186 562.219 111.795 563.987 109.347C565.745 106.815 566.73 103.216 566.943 98.5488C566.929 97.0035 566.886 95.9342 566.815 95.3412C566.468 92.4606 565.625 90.4563 564.286 89.3281C562.937 88.1153 561.246 87.6311 559.212 87.8758C556.417 88.2121 554.14 89.6464 552.381 92.1785C550.613 94.6259 549.623 98.183 549.411 102.85ZM592.504 70.9783L612.883 65.6903L618.677 113.855L598.253 118.762L592.504 70.9783ZM430.625 312.265L330.356 324.328L328.583 309.586L428.133 291.55L430.625 312.265ZM335.141 278.371C334.686 273.871 336.376 270.058 340.211 266.932C344.047 263.806 349.862 261.774 357.656 260.837C360.028 260.551 363.41 260.445 367.803 260.518C368.733 253.96 369.018 245.976 368.66 236.565L391.621 232.384C391.328 238.522 390.868 243.992 390.243 248.794C389.607 253.512 388.592 257.931 387.197 262.053C396.876 263.209 406.766 264.684 416.866 266.477L404.548 283.043C394.916 280.849 386.294 278.836 378.681 277.001C375.171 280.689 370.977 283.687 366.097 285.993C362.438 287.722 358.701 288.816 354.889 289.275C351.246 289.713 347.955 289.507 345.017 288.658C342.153 287.713 339.841 286.358 338.081 284.593C336.397 282.733 335.416 280.659 335.141 278.371ZM350.58 277.03C351.315 278.145 352.657 278.585 354.606 278.35C356.555 278.116 358.851 277.195 361.493 275.588C362.3 275.147 363.066 274.367 363.791 273.249L361.523 272.619C359.652 272.071 357.7 271.919 355.667 272.163C353.972 272.367 352.61 272.832 351.58 273.557C350.55 274.283 350.091 275.112 350.203 276.044L350.58 277.03ZM517.486 315.094L505.851 218.384L526.23 213.096L531.397 256.05L541.426 253.683L542.756 264.74L532.712 266.979L538.201 312.602L517.486 315.094ZM442.739 236.032L486.5 224.708L488.243 239.196L461.907 245.329L463.467 258.292L489.864 252.667L491.607 267.154L465.225 272.907L466.845 286.378L502.774 279.606L504.975 297.906L463.546 302.89C460.072 303.308 456.959 302.436 454.207 300.275C451.454 298.113 449.869 295.296 449.451 291.822L442.739 236.032Z" fill="#0021F9"/>
<path d="M131.647 224.532L130.654 224.652L130.774 225.644L131.767 225.525L131.647 224.532ZM120.012 127.821L119.761 126.854L118.915 127.073L119.02 127.941L120.012 127.821ZM140.391 122.534L141.384 122.414L141.247 121.278L140.14 121.566L140.391 122.534ZM145.558 165.488L144.565 165.607L144.699 166.718L145.788 166.461L145.558 165.488ZM155.587 163.121L156.58 163.002L156.447 161.891L155.358 162.148L155.587 163.121ZM156.918 174.177L157.135 175.153L158.018 174.956L157.91 174.058L156.918 174.177ZM146.873 176.417L146.655 175.441L145.772 175.638L145.88 176.536L146.873 176.417ZM152.362 222.04L152.481 223.033L153.474 222.913L153.355 221.921L152.362 222.04ZM61.965 183.28L60.9721 183.399L60.9729 183.406L61.965 183.28ZM66.2303 150.149L67.0864 150.666L67.0864 150.666L66.2303 150.149ZM115.186 172.365L116.179 172.245L116.178 172.239L115.186 172.365ZM110.921 205.495L110.065 204.979L110.065 204.979L110.921 205.495ZM72.2981 211.302L71.5648 211.982L71.5648 211.982L72.2981 211.302ZM81.0122 180.859L80.014 180.92L80.0147 180.929L81.0122 180.859ZM84.5917 199.896L83.704 200.357L83.7089 200.366L84.5917 199.896ZM94.9304 195.816L93.972 195.53L93.9698 195.538L93.9676 195.546L94.9304 195.816ZM96.139 174.785L97.1369 174.721L97.1366 174.715L96.139 174.785ZM92.229 155.144L91.3732 155.661L91.3798 155.672L92.229 155.144ZM87.1446 152.532L86.7784 151.602L86.7677 151.606L86.757 151.61L87.1446 152.532ZM81.9772 161.018L82.9468 161.263L82.9483 161.257L81.9772 161.018ZM132.64 224.413L121.005 127.702L119.02 127.941L130.654 224.652L132.64 224.413ZM120.264 128.789L140.642 123.501L140.14 121.566L119.761 126.854L120.264 128.789ZM139.398 122.653L144.565 165.607L146.551 165.368L141.384 122.414L139.398 122.653ZM145.788 166.461L155.817 164.094L155.358 162.148L145.329 164.515L145.788 166.461ZM154.595 163.24L155.925 174.297L157.91 174.058L156.58 163.002L154.595 163.24ZM156.7 173.201L146.655 175.441L147.091 177.393L157.135 175.153L156.7 173.201ZM145.88 176.536L151.369 222.159L153.355 221.921L147.866 176.298L145.88 176.536ZM152.242 221.047L131.528 223.539L131.767 225.525L152.481 223.033L152.242 221.047ZM62.9578 183.16C61.2258 168.763 62.6686 157.986 67.0864 150.666L65.3741 149.633C60.619 157.512 59.2184 168.822 60.9721 183.399L62.9578 183.16ZM67.0864 150.666C71.5174 143.324 77.863 139.185 86.1919 138.183L85.953 136.198C76.9985 137.275 70.116 141.775 65.3741 149.633L67.0864 150.666ZM86.1919 138.183C93.1422 137.347 99.0908 139.599 104.12 145.022L105.586 143.662C100.147 137.797 93.575 135.281 85.953 136.198L86.1919 138.183ZM104.12 145.022C109.143 150.439 112.549 159.53 114.194 172.491L116.178 172.239C114.514 159.126 111.032 149.535 105.586 143.662L104.12 145.022ZM114.193 172.484C115.925 186.882 114.483 197.659 110.065 204.979L111.777 206.012C116.532 198.133 117.933 186.823 116.179 172.245L114.193 172.484ZM110.065 204.979C105.634 212.321 99.2882 216.459 90.9593 217.461L91.1982 219.447C100.153 218.37 107.035 213.869 111.777 206.012L110.065 204.979ZM90.9593 217.461C84.009 218.298 78.0605 216.046 73.0313 210.622L71.5648 211.982C77.0044 217.848 83.5763 220.364 91.1982 219.447L90.9593 217.461ZM73.0313 210.622C68.0082 205.206 64.6018 196.115 62.957 183.154L60.9729 183.406C62.637 196.519 66.1192 206.11 71.5648 211.982L73.0313 210.622ZM80.0147 180.929C80.2527 184.335 80.4447 186.657 80.5908 187.872L82.5765 187.633C82.4373 186.476 82.2483 184.202 82.0098 180.79L80.0147 180.929ZM80.5908 187.872C81.2572 193.411 82.2763 197.604 83.704 200.357L85.4794 199.436C84.2214 197.011 83.2352 193.108 82.5765 187.633L80.5908 187.872ZM83.7089 200.366C85.0773 202.937 86.8501 204.628 89.1247 204.355L88.8858 202.369C87.9409 202.483 86.7714 201.863 85.4745 199.426L83.7089 200.366ZM89.1247 204.355C92.4175 203.959 94.5574 200.844 95.8931 196.086L93.9676 195.546C92.6559 200.217 90.8458 202.133 88.8858 202.369L89.1247 204.355ZM95.8887 196.102C97.349 191.203 97.7417 184.049 97.1369 174.721L95.1411 174.85C95.7417 184.113 95.3286 190.98 93.972 195.53L95.8887 196.102ZM97.1366 174.715C96.8985 171.309 96.7066 168.987 96.5604 167.773L94.5747 168.012C94.714 169.169 94.903 171.442 95.1414 174.855L97.1366 174.715ZM96.5604 167.773C95.8249 161.659 94.6953 157.216 93.0781 154.616L91.3798 155.672C92.7464 157.869 93.8425 161.925 94.5747 168.012L96.5604 167.773ZM93.0846 154.626C92.2842 153.303 91.3653 152.292 90.2882 151.738C89.167 151.163 87.9701 151.133 86.7784 151.602L87.5108 153.463C88.2066 153.189 88.8009 153.223 89.3744 153.518C89.9921 153.835 90.6717 154.501 91.3733 155.661L93.0846 154.626ZM86.757 151.61C83.9906 152.774 82.1701 156.046 81.0062 160.779L82.9483 161.257C84.0928 156.602 85.7173 154.217 87.5322 153.454L86.757 151.61ZM81.0077 160.773C79.8054 165.533 79.4909 172.268 80.0141 180.92L82.0104 180.799C81.4913 172.214 81.8202 165.723 82.9468 161.263L81.0077 160.773ZM278.434 193.594L278.553 194.587L279.546 194.467L279.426 193.474L278.434 193.594ZM178.165 205.657L177.172 205.776L177.291 206.769L178.284 206.65L178.165 205.657ZM176.391 190.915L176.213 189.931L175.286 190.099L175.398 191.034L176.391 190.915ZM218.913 183.221L219.091 184.205L220.018 184.037L219.905 183.102L218.913 183.221ZM217.491 171.402L218.484 171.283L218.355 170.218L217.302 170.42L217.491 171.402ZM206.653 173.48L206.465 172.497L206.462 172.498L206.653 173.48ZM197.406 171.627L196.817 172.435L196.824 172.44L196.832 172.446L197.406 171.627ZM188.094 125.303L187.855 124.332L186.995 124.544L187.101 125.423L188.094 125.303ZM252.833 109.393L253.826 109.273L253.691 108.152L252.594 108.422L252.833 109.393ZM259.331 163.403L259.52 164.385L260.435 164.209L260.324 163.284L259.331 163.403ZM234.255 168.225L234.066 167.243L233.151 167.419L233.262 168.345L234.255 168.225ZM235.692 180.171L234.7 180.29L234.826 181.344L235.871 181.155L235.692 180.171ZM275.942 172.879L276.934 172.76L276.808 171.706L275.763 171.895L275.942 172.879ZM239.674 150.04L239.893 151.015L240.775 150.818L240.667 149.92L239.674 150.04ZM237.167 129.198L238.159 129.079L238.026 127.971L236.94 128.224L237.167 129.198ZM207.445 136.126L207.218 135.152L206.345 135.355L206.452 136.245L207.445 136.126ZM209.922 156.713L208.929 156.833L209.061 157.931L210.141 157.689L209.922 156.713ZM278.314 192.601L178.045 204.664L178.284 206.65L278.553 194.587L278.314 192.601ZM179.157 205.537L177.384 190.796L175.398 191.034L177.172 205.776L179.157 205.537ZM176.569 191.899L219.091 184.205L218.735 182.237L176.213 189.931L176.569 191.899ZM219.905 183.102L218.484 171.283L216.498 171.522L217.92 183.34L219.905 183.102ZM217.302 170.42L206.465 172.497L206.842 174.462L217.679 172.384L217.302 170.42ZM206.462 172.498C203.269 173.121 200.466 172.55 197.98 170.808L196.832 172.446C199.79 174.518 203.152 175.182 206.845 174.461L206.462 172.498ZM197.995 170.819C195.496 168.997 194.06 166.518 193.674 163.309L191.688 163.548C192.138 167.286 193.851 170.273 196.817 172.435L197.995 170.819ZM193.674 163.309L189.087 125.184L187.101 125.423L191.688 163.548L193.674 163.309ZM188.333 126.275L253.072 110.364L252.594 108.422L187.855 124.332L188.333 126.275ZM251.84 109.512L258.338 163.523L260.324 163.284L253.826 109.273L251.84 109.512ZM259.142 162.421L234.066 167.243L234.444 169.207L259.52 164.385L259.142 162.421ZM233.262 168.345L234.7 180.29L236.685 180.052L235.248 168.106L233.262 168.345ZM235.871 181.155L276.12 173.863L275.763 171.895L235.514 179.187L235.871 181.155ZM274.949 172.999L277.441 193.713L279.426 193.474L276.934 172.76L274.949 172.999ZM240.667 149.92L238.159 129.079L236.174 129.317L238.681 150.159L240.667 149.92ZM236.94 128.224L207.218 135.152L207.672 137.099L237.394 130.172L236.94 128.224ZM206.452 136.245L208.929 156.833L210.915 156.594L208.438 136.006L206.452 136.245ZM210.141 157.689L239.893 151.015L239.455 149.064L209.703 155.737L210.141 157.689ZM348.543 193.281L347.55 193.401L347.67 194.394L348.663 194.274L348.543 193.281ZM343.773 153.631L344.766 153.512L344.629 152.375L343.521 152.664L343.773 153.631ZM335.523 155.784L334.53 155.904L334.667 157.041L335.776 156.752L335.523 155.784ZM334.224 144.982L333.957 144.018L333.128 144.248L333.231 145.102L334.224 144.982ZM342.458 142.702L342.725 143.666L343.554 143.436L343.451 142.583L342.458 142.702ZM338.284 108.008L338.005 107.048L337.19 107.286L337.292 108.128L338.284 108.008ZM354.85 103.179L355.843 103.06L355.702 101.889L354.57 102.219L354.85 103.179ZM365.445 191.248L365.565 192.241L366.558 192.121L366.438 191.129L365.445 191.248ZM293.636 143.032L293.368 142.069L292.541 142.299L292.643 143.152L293.636 143.032ZM316.464 136.676L316.733 137.639L317.56 137.409L317.457 136.556L316.464 136.676ZM315.027 124.73L316.02 124.611L315.884 123.479L314.78 123.761L315.027 124.73ZM292.138 130.578L291.145 130.697L291.281 131.829L292.385 131.547L292.138 130.578ZM290.517 117.107L290.248 116.144L289.422 116.375L289.524 117.226L290.517 117.107ZM328.432 106.486L329.425 106.367L329.286 105.209L328.162 105.523L328.432 106.486ZM333.279 146.772L333.527 147.74L334.376 147.523L334.272 146.652L333.279 146.772ZM310.516 152.604L310.268 151.636L309.419 151.853L309.524 152.724L310.516 152.604ZM312.336 167.727L311.343 167.847L311.472 168.919L312.531 168.708L312.336 167.727ZM343.435 161.536L344.428 161.417L344.299 160.345L343.24 160.556L343.435 161.536ZM345.621 179.709L345.741 180.702L346.734 180.583L346.614 179.59L345.621 179.709ZM301.461 181.283L300.787 182.022L300.794 182.029L300.802 182.035L301.461 181.283ZM360.395 98.9022L360.115 97.9422L359.301 98.1795L359.402 99.0216L360.395 98.9022ZM376.961 94.0729L377.954 93.9535L377.813 92.7829L376.681 93.1129L376.961 94.0729ZM388.932 193.579L389.051 194.572L390.044 194.453L389.925 193.46L388.932 193.579ZM372.03 195.613L371.037 195.732L371.156 196.725L372.149 196.606L372.03 195.613ZM349.536 193.162L344.766 153.512L342.78 153.751L347.55 193.401L349.536 193.162ZM343.521 152.664L335.271 154.817L335.776 156.752L344.026 154.599L343.521 152.664ZM336.516 155.665L335.217 144.863L333.231 145.102L334.53 155.904L336.516 155.665ZM334.491 145.946L342.725 143.666L342.191 141.738L333.957 144.018L334.491 145.946ZM343.451 142.583L339.277 107.889L337.292 108.128L341.465 142.822L343.451 142.583ZM338.564 108.968L355.13 104.139L354.57 102.219L338.005 107.048L338.564 108.968ZM353.857 103.299L364.453 191.368L366.438 191.129L355.843 103.06L353.857 103.299ZM365.326 190.255L348.424 192.289L348.663 194.274L365.565 192.241L365.326 190.255ZM293.904 143.995L316.733 137.639L316.196 135.713L293.368 142.069L293.904 143.995ZM317.457 136.556L316.02 124.611L314.034 124.849L315.472 136.795L317.457 136.556ZM314.78 123.761L291.89 129.609L292.385 131.547L315.275 125.699L314.78 123.761ZM293.131 130.458L291.51 116.988L289.524 117.226L291.145 130.697L293.131 130.458ZM290.787 118.07L328.702 107.449L328.162 105.523L290.248 116.144L290.787 118.07ZM327.439 106.606L332.286 146.891L334.272 146.652L329.425 106.367L327.439 106.606ZM333.03 145.803L310.268 151.636L310.765 153.573L333.527 147.74L333.03 145.803ZM309.524 152.724L311.343 167.847L313.329 167.608L311.509 152.485L309.524 152.724ZM312.531 168.708L343.63 162.517L343.24 160.556L312.141 166.747L312.531 168.708ZM342.442 161.656L344.628 179.829L346.614 179.59L344.428 161.417L342.442 161.656ZM345.502 178.717L309.537 183.043L309.776 185.029L345.741 180.702L345.502 178.717ZM309.537 183.043C306.888 183.362 304.432 182.56 302.121 180.532L300.802 182.035C303.487 184.391 306.495 185.424 309.776 185.029L309.537 183.043ZM302.135 180.545C299.907 178.512 298.602 175.94 298.222 172.777L296.236 173.016C296.671 176.631 298.188 179.651 300.787 182.022L302.135 180.545ZM298.222 172.777L294.629 142.913L292.643 143.152L296.236 173.016L298.222 172.777ZM360.675 99.8622L377.241 95.033L376.681 93.1129L360.115 97.9422L360.675 99.8622ZM375.968 94.1924L387.939 193.699L389.925 193.46L377.954 93.9535L375.968 94.1924ZM388.813 192.587L371.91 194.62L372.149 196.606L389.051 194.572L388.813 192.587ZM373.023 195.493L361.388 98.7827L359.402 99.0216L371.037 195.732L373.023 195.493ZM472.262 178.397L471.269 178.517L471.389 179.51L472.382 179.39L472.262 178.397ZM467.125 135.697L468.118 135.578L467.981 134.442L466.874 134.73L467.125 135.697ZM455.124 138.817L454.131 138.937L454.268 140.073L455.375 139.785L455.124 138.817ZM453.824 128.015L453.563 127.05L452.728 127.276L452.831 128.135L453.824 128.015ZM465.81 124.768L466.072 125.733L466.906 125.507L466.803 124.649L465.81 124.768ZM462.003 93.1243L461.724 92.1643L460.909 92.4017L461.011 93.2438L462.003 93.1243ZM478.569 88.2951L479.562 88.1757L479.421 87.0051L478.289 87.3351L478.569 88.2951ZM489.164 176.364L489.284 177.357L490.277 177.237L490.157 176.245L489.164 176.364ZM409.324 165.342L408.329 165.443L408.33 165.452L408.331 165.461L409.324 165.342ZM412.615 154.116L413.352 154.792L413.353 154.791L412.615 154.116ZM432.327 148.651L432.26 149.648L433.26 149.716L433.325 148.715L432.327 148.651ZM432.04 124.834L433.038 124.769L433.038 124.769L432.04 124.834ZM429.328 96.9265L429.104 95.9519L428.219 96.1552L428.336 97.0551L429.328 96.9265ZM448.146 92.5998L449.146 92.5934L449.138 91.3457L447.921 91.6253L448.146 92.5998ZM448.247 108.445L447.247 108.452L447.247 108.462L448.247 108.445ZM448.244 133.07L449.244 133.098L449.244 133.096L448.244 133.07ZM446.257 150.842L445.278 150.637L445.072 151.617L446.052 151.821L446.257 150.842ZM467.792 156.245L468.685 156.694L469.226 155.621L468.072 155.285L467.792 156.245ZM459.572 172.576L459.224 173.513L460.063 173.824L460.465 173.025L459.572 172.576ZM440.679 165.566L441.027 164.628L440.292 164.355L439.851 165.005L440.679 165.566ZM431.908 174.099L432.429 174.952L432.435 174.949L431.908 174.099ZM414.014 174.318L413.357 175.072L413.357 175.072L414.014 174.318ZM420.442 164.52L419.537 164.947L419.542 164.957L419.547 164.966L420.442 164.52ZM428.305 163.445L427.678 162.666L427.67 162.672L427.663 162.678L428.305 163.445ZM429.855 161.324L430.768 161.733L431.182 160.809L430.252 160.407L429.855 161.324ZM428.223 160.618L427.798 161.524L427.812 161.53L427.826 161.536L428.223 160.618ZM421.061 161.093L420.357 160.383L420.357 160.383L421.061 161.093ZM484.114 84.0182L483.834 83.0581L483.02 83.2955L483.121 84.1376L484.114 84.0182ZM500.68 79.1889L501.673 79.0695L501.532 77.8989L500.4 78.2289L500.68 79.1889ZM512.651 178.695L512.77 179.688L513.763 179.569L513.644 178.576L512.651 178.695ZM495.749 180.729L494.756 180.848L494.875 181.841L495.868 181.722L495.749 180.729ZM473.255 178.278L468.118 135.578L466.132 135.817L471.269 178.517L473.255 178.278ZM466.874 134.73L454.872 137.849L455.375 139.785L467.377 136.665L466.874 134.73ZM456.117 138.698L454.817 127.896L452.831 128.135L454.131 138.937L456.117 138.698ZM454.086 128.98L466.072 125.733L465.549 123.803L453.563 127.05L454.086 128.98ZM466.803 124.649L462.996 93.0049L461.011 93.2438L464.817 124.888L466.803 124.649ZM462.283 94.0844L478.849 89.2551L478.289 87.3351L461.724 92.1643L462.283 94.0844ZM477.576 88.4145L488.171 176.484L490.157 176.245L479.562 88.1757L477.576 88.4145ZM489.045 175.371L472.143 177.405L472.382 179.39L489.284 177.357L489.045 175.371ZM410.319 165.241C409.877 160.886 410.919 157.444 413.352 154.792L411.878 153.44C408.992 156.585 407.84 160.627 408.329 165.443L410.319 165.241ZM413.353 154.791C415.873 152.032 419.777 150.265 425.223 149.61L424.984 147.624C419.247 148.314 414.825 150.213 411.877 153.442L413.353 154.791ZM425.223 149.61C426.736 149.428 429.068 149.433 432.26 149.648L432.394 147.653C429.174 147.436 426.69 147.419 424.984 147.624L425.223 149.61ZM433.325 148.715C433.751 142.161 433.653 134.176 433.038 124.769L431.043 124.899C431.654 134.254 431.747 142.146 431.329 148.586L433.325 148.715ZM433.038 124.769C432.414 115.283 431.508 105.959 430.319 96.7979L428.336 97.0551C429.519 106.173 430.421 115.455 431.043 124.9L433.038 124.769ZM429.552 97.9011L448.37 93.5744L447.921 91.6253L429.104 95.9519L429.552 97.9011ZM447.146 92.6062L447.247 108.452L449.247 108.439L449.146 92.5934L447.146 92.6062ZM447.247 108.462C447.413 118.404 447.411 126.597 447.244 133.044L449.244 133.096C449.412 126.61 449.413 118.386 449.247 108.429L447.247 108.462ZM447.245 133.042C447.068 139.372 446.411 145.236 445.278 150.637L447.235 151.048C448.396 145.515 449.065 139.531 449.244 133.098L447.245 133.042ZM446.052 151.821C453.079 153.288 460.232 155.082 467.512 157.205L468.072 155.285C460.745 153.148 453.541 151.341 446.461 149.863L446.052 151.821ZM466.899 155.795L458.679 172.126L460.465 173.025L468.685 156.694L466.899 155.795ZM459.92 171.638L441.027 164.628L440.332 166.504L459.224 173.513L459.92 171.638ZM439.851 165.005C437.517 168.452 434.693 171.195 431.381 173.249L432.435 174.949C436.001 172.737 439.025 169.792 441.507 166.127L439.851 165.005ZM431.386 173.245C428.673 174.903 426.138 175.849 423.773 176.133L424.011 178.119C426.73 177.792 429.538 176.719 432.429 174.952L431.386 173.245ZM423.773 176.133C420.124 176.572 417.123 175.699 414.671 173.564L413.357 175.072C416.282 177.619 419.865 178.618 424.011 178.119L423.773 176.133ZM414.671 173.564C412.175 171.39 410.727 168.627 410.317 165.222L408.331 165.461C408.798 169.342 410.476 172.563 413.357 175.072L414.671 173.564ZM419.547 164.966C419.908 165.691 420.431 166.271 421.136 166.628C421.834 166.981 422.622 167.07 423.444 166.971L423.205 164.985C422.671 165.049 422.301 164.976 422.038 164.843C421.782 164.714 421.541 164.484 421.336 164.073L419.547 164.966ZM423.444 166.971C425.238 166.755 427.076 165.78 428.948 164.211L427.663 162.678C425.943 164.12 424.461 164.834 423.205 164.985L423.444 166.971ZM428.933 164.223C429.708 163.598 430.312 162.752 430.768 161.733L428.943 160.916C428.586 161.714 428.156 162.281 427.678 162.666L428.933 164.223ZM430.252 160.407L428.62 159.701L427.826 161.536L429.458 162.242L430.252 160.407ZM428.648 159.713C427.04 158.958 425.404 158.661 423.757 158.859L423.996 160.845C425.23 160.696 426.491 160.91 427.798 161.524L428.648 159.713ZM423.757 158.859C422.402 159.022 421.239 159.509 420.357 160.383L421.765 161.804C422.264 161.308 422.979 160.967 423.996 160.845L423.757 158.859ZM420.357 160.383C419.456 161.276 419.049 162.387 419.199 163.638L421.185 163.399C421.111 162.786 421.283 162.281 421.765 161.804L420.357 160.383ZM419.199 163.638C419.257 164.114 419.358 164.566 419.537 164.947L421.346 164.093C421.295 163.985 421.23 163.77 421.185 163.399L419.199 163.638ZM484.394 84.9782L500.96 80.149L500.4 78.2289L483.834 83.0581L484.394 84.9782ZM499.687 79.3084L511.658 178.815L513.644 178.576L501.673 79.0695L499.687 79.3084ZM512.531 177.703L495.629 179.736L495.868 181.722L512.77 179.688L512.531 177.703ZM496.742 180.609L485.107 83.8987L483.121 84.1376L494.756 180.848L496.742 180.609ZM622.194 143.084L622.367 144.069L623.3 143.905L623.186 142.965L622.194 143.084ZM571.569 152.011L571.396 151.026L570.464 151.191L570.577 152.13L571.569 152.011ZM571.967 155.315L570.974 155.435L571.097 156.458L572.116 156.304L571.967 155.315ZM622.744 147.659L623.737 147.54L623.614 146.517L622.595 146.67L622.744 147.659ZM624.854 165.197L624.973 166.19L625.966 166.07L625.847 165.077L624.854 165.197ZM562.394 168.972L561.776 169.759L561.776 169.759L562.394 168.972ZM555.987 146.795L555.792 145.814L554.883 145.994L554.994 146.914L555.987 146.795ZM602.326 137.61L602.52 138.591L603.429 138.411L603.318 137.491L602.326 137.61ZM601.852 133.671L602.844 133.551L602.714 132.471L601.649 132.691L601.852 133.671ZM555.559 143.237L554.566 143.356L554.696 144.436L555.761 144.216L555.559 143.237ZM554.244 132.307L554.009 131.335L553.145 131.544L553.251 132.427L554.244 132.307ZM619.014 116.651L620.006 116.531L619.872 115.415L618.779 115.679L619.014 116.651ZM537.347 85.0915L538.039 85.8141L538.046 85.8072L537.347 85.0915ZM576.031 79.793L575.481 80.6281L575.489 80.6332L576.031 79.793ZM540.195 121.621L539.645 122.456L539.653 122.462L539.662 122.467L540.195 121.621ZM549.411 102.85L548.412 102.804L548.411 102.832L548.411 102.859L549.411 102.85ZM552.082 112.198L551.414 112.941L551.426 112.952L551.438 112.962L552.082 112.198ZM563.987 109.347L564.798 109.933L564.803 109.925L564.809 109.917L563.987 109.347ZM566.943 98.5488L567.942 98.5943L567.943 98.567L567.943 98.5398L566.943 98.5488ZM564.286 89.3281L563.618 90.0718L563.63 90.0825L563.642 90.0929L564.286 89.3281ZM552.381 92.1785L553.192 92.7641L553.197 92.7565L553.203 92.7488L552.381 92.1785ZM592.504 70.9783L592.253 70.0103L591.407 70.2299L591.512 71.0977L592.504 70.9783ZM612.883 65.6903L613.876 65.5709L613.739 64.4351L612.632 64.7224L612.883 65.6903ZM618.677 113.855L618.911 114.827L619.776 114.619L619.67 113.736L618.677 113.855ZM598.253 118.762L597.26 118.881L597.394 119.996L598.487 119.734L598.253 118.762ZM622.02 142.099L571.396 151.026L571.743 152.996L622.367 144.069L622.02 142.099ZM570.577 152.13L570.974 155.435L572.96 155.196L572.562 151.892L570.577 152.13ZM572.116 156.304L622.893 148.648L622.595 146.67L571.818 154.326L572.116 156.304ZM621.751 147.779L623.861 165.316L625.847 165.077L623.737 147.54L621.751 147.779ZM624.734 164.204L571.613 170.595L571.852 172.58L624.973 166.19L624.734 164.204ZM571.613 170.595C568.403 170.981 565.555 170.183 563.011 168.186L561.776 169.759C564.737 172.084 568.115 173.03 571.852 172.58L571.613 170.595ZM563.011 168.186C560.467 166.188 559.017 163.611 558.631 160.4L556.645 160.639C557.095 164.376 558.815 167.434 561.776 169.759L563.011 168.186ZM558.631 160.4L556.98 146.675L554.994 146.914L556.645 160.639L558.631 160.4ZM556.181 147.776L602.52 138.591L602.131 136.629L555.792 145.814L556.181 147.776ZM603.318 137.491L602.844 133.551L600.859 133.79L601.333 137.73L603.318 137.491ZM601.649 132.691L555.356 142.257L555.761 144.216L602.054 134.65L601.649 132.691ZM556.552 143.117L555.237 132.188L553.251 132.427L554.566 143.356L556.552 143.117ZM554.479 133.279L619.249 117.623L618.779 115.679L554.009 131.335L554.479 133.279ZM618.021 116.77L621.201 143.204L623.186 142.965L620.006 116.531L618.021 116.77ZM532.485 104.886C531.482 96.5508 533.392 90.2593 538.039 85.8141L536.656 84.3689C531.437 89.3617 529.443 96.3461 530.499 105.125L532.485 104.886ZM538.046 85.8072C542.775 81.1922 549.291 78.3445 557.686 77.3346L557.448 75.3489C548.728 76.3978 541.765 79.3833 536.649 84.3758L538.046 85.8072ZM557.686 77.3346C564.977 76.4575 570.876 77.5945 575.481 80.6281L576.582 78.9579C571.478 75.5959 565.068 74.4321 557.448 75.3489L557.686 77.3346ZM575.489 80.6332C580.098 83.6079 582.943 88.8191 583.869 96.5126L585.854 96.2737C584.884 88.2088 581.842 82.3532 576.574 78.9528L575.489 80.6332ZM583.869 96.5126C584.871 104.848 582.962 111.139 578.315 115.584L579.697 117.03C584.917 112.037 586.91 105.052 585.854 96.2737L583.869 96.5126ZM578.315 115.584C573.575 120.119 567.051 122.926 558.652 123.937L558.891 125.923C567.605 124.874 574.571 121.934 579.697 117.03L578.315 115.584ZM558.652 123.937C551.357 124.814 545.412 123.724 540.728 120.775L539.662 122.467C544.835 125.724 551.274 126.839 558.891 125.923L558.652 123.937ZM540.745 120.786C536.218 117.803 533.411 112.585 532.485 104.886L530.499 105.125C531.469 113.184 534.464 119.043 539.645 122.456L540.745 120.786ZM548.411 102.859C548.425 104.401 548.467 105.522 548.546 106.177L550.532 105.938C550.468 105.407 550.425 104.389 550.411 102.841L548.411 102.859ZM548.546 106.177C548.905 109.162 549.804 111.494 551.414 112.941L552.751 111.454C551.663 110.476 550.866 108.714 550.532 105.938L548.546 106.177ZM551.438 112.962C553.025 114.3 555.003 114.787 557.26 114.516L557.022 112.53C555.212 112.748 553.818 112.352 552.727 111.433L551.438 112.962ZM557.26 114.516C560.355 114.143 562.879 112.588 564.798 109.933L563.177 108.762C561.559 111.001 559.519 112.23 557.022 112.53L557.26 114.516ZM564.809 109.917C566.716 107.17 567.725 103.359 567.942 98.5943L565.944 98.5034C565.736 103.072 564.775 106.46 563.166 108.777L564.809 109.917ZM567.943 98.5398C567.929 96.9974 567.886 95.8767 567.807 95.2217L565.822 95.4606C565.886 95.9918 565.929 97.0095 565.943 98.5579L567.943 98.5398ZM567.807 95.2217C567.449 92.2448 566.556 89.9333 564.931 88.5634L563.642 90.0929C564.694 90.9793 565.487 92.6765 565.822 95.4606L567.807 95.2217ZM564.955 88.5844C563.362 87.1527 561.371 86.6088 559.093 86.8829L559.332 88.8686C561.12 88.6535 562.512 89.0778 563.618 90.0718L564.955 88.5844ZM559.093 86.8829C555.985 87.2569 553.464 88.8663 551.56 91.6081L553.203 92.7488C554.815 90.4264 556.848 89.1674 559.332 88.8686L559.093 86.8829ZM551.571 91.5928C549.642 94.2626 548.628 98.0415 548.412 102.804L550.41 102.895C550.617 98.3244 551.584 94.9892 553.192 92.7641L551.571 91.5928ZM592.756 71.9462L613.134 66.6583L612.632 64.7224L592.253 70.0103L592.756 71.9462ZM611.89 65.8098L617.684 113.974L619.67 113.736L613.876 65.5709L611.89 65.8098ZM618.444 112.883L598.019 117.789L598.487 119.734L618.911 114.827L618.444 112.883ZM599.246 118.642L593.497 70.8588L591.512 71.0977L597.26 118.881L599.246 118.642ZM268.025 339.949L267.032 340.068L267.151 341.061L268.144 340.942L268.025 339.949ZM263.255 300.299L264.248 300.179L264.111 299.042L263.002 299.331L263.255 300.299ZM255.005 302.452L254.012 302.571L254.149 303.709L255.257 303.419L255.005 302.452ZM253.705 291.65L253.438 290.686L252.61 290.915L252.712 291.769L253.705 291.65ZM261.94 289.37L262.207 290.333L263.035 290.104L262.933 289.25L261.94 289.37ZM257.766 254.676L257.486 253.716L256.672 253.953L256.773 254.795L257.766 254.676ZM274.332 249.847L275.325 249.727L275.184 248.557L274.052 248.887L274.332 249.847ZM284.927 337.916L285.046 338.908L286.039 338.789L285.92 337.796L284.927 337.916ZM214.067 317.948L213.863 316.969L212.964 317.156L213.074 318.068L214.067 317.948ZM219.978 316.721L220.182 317.701L221.081 317.514L220.971 316.602L219.978 316.721ZM215.866 282.536L215.635 281.563L214.766 281.769L214.873 282.655L215.866 282.536ZM228.025 279.655L229.018 279.536L228.884 278.424L227.794 278.682L228.025 279.655ZM232.183 314.222L231.19 314.341L231.32 315.42L232.385 315.201L232.183 314.222ZM239.732 312.669L239.933 313.649L240.835 313.463L240.725 312.55L239.732 312.669ZM235.558 277.975L235.326 277.002L234.459 277.209L234.565 278.095L235.558 277.975ZM247.59 275.11L248.583 274.99L248.449 273.877L247.358 274.137L247.59 275.11ZM251.825 310.312L250.832 310.431L250.962 311.51L252.026 311.291L251.825 310.312ZM260.883 308.448L261.876 308.329L261.746 307.25L260.682 307.469L260.883 308.448ZM263.069 326.621L263.189 327.614L264.182 327.495L264.062 326.502L263.069 326.621ZM217.41 329.665L218.115 328.956L218.115 328.956L217.41 329.665ZM207.584 264.065L207.333 263.097L206.487 263.317L206.591 264.184L207.584 264.065ZM251.091 252.771L252.084 252.652L251.947 251.516L250.84 251.804L251.091 252.771ZM252.818 267.132L253.05 268.105L253.918 267.898L253.811 267.012L252.818 267.132ZM209.205 277.536L208.212 277.655L208.346 278.769L209.437 278.508L209.205 277.536ZM279.877 245.57L279.597 244.61L278.783 244.847L278.884 245.689L279.877 245.57ZM296.442 240.74L297.435 240.621L297.294 239.45L296.163 239.78L296.442 240.74ZM308.414 340.247L308.533 341.24L309.526 341.12L309.406 340.127L308.414 340.247ZM291.511 342.28L290.519 342.4L290.638 343.393L291.631 343.273L291.511 342.28ZM269.018 339.829L264.248 300.179L262.262 300.418L267.032 340.068L269.018 339.829ZM263.002 299.331L254.752 301.484L255.257 303.419L263.507 301.266L263.002 299.331ZM255.998 302.332L254.698 291.53L252.712 291.769L254.012 302.571L255.998 302.332ZM253.972 292.613L262.207 290.333L261.673 288.406L253.438 290.686L253.972 292.613ZM262.933 289.25L258.759 254.556L256.773 254.795L260.947 289.489L262.933 289.25ZM258.046 255.636L274.612 250.807L274.052 248.887L257.486 253.716L258.046 255.636ZM273.339 249.966L283.934 338.035L285.92 337.796L275.325 249.727L273.339 249.966ZM284.808 336.923L267.905 338.956L268.144 340.942L285.046 338.908L284.808 336.923ZM214.27 318.928L220.182 317.701L219.775 315.742L213.863 316.969L214.27 318.928ZM220.971 316.602L216.859 282.417L214.873 282.655L218.986 316.841L220.971 316.602ZM216.096 283.509L228.255 280.628L227.794 278.682L215.635 281.563L216.096 283.509ZM227.032 279.774L231.19 314.341L233.176 314.102L229.018 279.536L227.032 279.774ZM232.385 315.201L239.933 313.649L239.53 311.69L231.982 313.242L232.385 315.201ZM240.725 312.55L236.551 277.856L234.565 278.095L238.739 312.788L240.725 312.55ZM235.79 278.948L247.822 276.082L247.358 274.137L235.326 277.002L235.79 278.948ZM246.597 275.229L250.832 310.431L252.818 310.192L248.583 274.99L246.597 275.229ZM252.026 311.291L261.085 309.428L260.682 307.469L251.623 309.332L252.026 311.291ZM259.89 308.568L262.077 326.741L264.062 326.502L261.876 308.329L259.89 308.568ZM262.95 325.629L222.156 330.536L222.395 332.522L263.189 327.614L262.95 325.629ZM222.156 330.536C220.73 330.708 219.4 330.234 218.115 328.956L216.705 330.374C218.349 332.009 220.263 332.778 222.395 332.522L222.156 330.536ZM218.115 328.956C216.835 327.682 216.041 325.987 215.778 323.802L213.792 324.041C214.1 326.6 215.057 328.734 216.705 330.374L218.115 328.956ZM215.778 323.802L215.06 317.829L213.074 318.068L213.792 324.041L215.778 323.802ZM207.836 265.033L251.342 253.739L250.84 251.804L207.333 263.097L207.836 265.033ZM250.098 252.891L251.826 267.251L253.811 267.012L252.084 252.652L250.098 252.891ZM252.586 266.159L208.973 276.563L209.437 278.508L253.05 268.105L252.586 266.159ZM210.198 277.416L208.577 263.945L206.591 264.184L208.212 277.655L210.198 277.416ZM280.157 246.53L296.722 241.7L296.163 239.78L279.597 244.61L280.157 246.53ZM295.45 240.86L307.421 340.366L309.406 340.127L297.435 240.621L295.45 240.86ZM308.294 339.254L291.392 341.287L291.631 343.273L308.533 341.24L308.294 339.254ZM292.504 342.161L280.869 245.45L278.884 245.689L290.519 342.4L292.504 342.161ZM430.625 312.265L430.745 313.258L431.738 313.139L431.618 312.146L430.625 312.265ZM330.356 324.328L329.363 324.447L329.483 325.44L330.476 325.321L330.356 324.328ZM328.583 309.586L328.404 308.602L327.477 308.77L327.59 309.706L328.583 309.586ZM428.133 291.55L429.126 291.431L428.999 290.377L427.955 290.567L428.133 291.55ZM335.141 278.371L334.146 278.472L334.147 278.482L334.148 278.491L335.141 278.371ZM340.211 266.932L339.579 266.157L339.579 266.157L340.211 266.932ZM367.803 260.518L367.786 261.518L368.669 261.533L368.793 260.659L367.803 260.518ZM368.66 236.565L368.481 235.581L367.627 235.736L367.66 236.603L368.66 236.565ZM391.621 232.384L392.62 232.432L392.68 231.175L391.442 231.4L391.621 232.384ZM390.243 248.794L391.234 248.928L391.235 248.923L390.243 248.794ZM387.197 262.053L386.25 261.732L385.854 262.9L387.078 263.046L387.197 262.053ZM416.866 266.477L417.668 267.074L418.634 265.775L417.04 265.492L416.866 266.477ZM404.548 283.043L404.326 284.018L404.962 284.162L405.351 283.639L404.548 283.043ZM378.681 277.001L378.916 276.029L378.355 275.894L377.957 276.312L378.681 277.001ZM366.097 285.993L366.524 286.897L366.524 286.897L366.097 285.993ZM345.017 288.658L344.703 289.607L344.721 289.613L344.739 289.618L345.017 288.658ZM338.081 284.593L337.34 285.264L337.356 285.282L337.373 285.299L338.081 284.593ZM350.58 277.03L349.645 277.387L349.684 277.489L349.745 277.581L350.58 277.03ZM361.493 275.588L361.014 274.71L360.994 274.722L360.974 274.733L361.493 275.588ZM363.791 273.249L364.63 273.793L365.37 272.65L364.058 272.285L363.791 273.249ZM361.523 272.619L361.242 273.579L361.249 273.581L361.255 273.583L361.523 272.619ZM350.203 276.044L349.21 276.163L349.225 276.285L349.269 276.4L350.203 276.044ZM430.506 311.272L330.237 323.335L330.476 325.321L430.745 313.258L430.506 311.272ZM331.349 324.209L329.576 309.467L327.59 309.706L329.363 324.447L331.349 324.209ZM328.761 310.57L428.311 292.534L427.955 290.567L328.404 308.602L328.761 310.57ZM427.14 291.67L429.632 312.385L431.618 312.146L429.126 291.431L427.14 291.67ZM336.136 278.271C335.718 274.14 337.239 270.644 340.843 267.707L339.579 266.157C335.512 269.471 333.653 273.602 334.146 278.472L336.136 278.271ZM340.843 267.707C344.469 264.752 350.068 262.757 357.775 261.83L357.537 259.844C349.655 260.792 343.624 262.86 339.579 266.157L340.843 267.707ZM357.775 261.83C360.08 261.552 363.408 261.445 367.786 261.518L367.819 259.519C363.413 259.445 359.977 259.55 357.537 259.844L357.775 261.83ZM368.793 260.659C369.734 254.023 370.019 245.975 369.659 236.526L367.66 236.603C368.018 245.977 367.732 253.898 366.813 260.378L368.793 260.659ZM368.839 237.548L391.8 233.368L391.442 231.4L368.481 235.581L368.839 237.548ZM390.622 232.336C390.33 238.454 389.873 243.896 389.251 248.665L391.235 248.923C391.864 244.088 392.326 238.59 392.62 232.432L390.622 232.336ZM389.252 248.661C388.624 253.321 387.622 257.677 386.25 261.732L388.144 262.374C389.561 258.186 390.59 253.703 391.234 248.928L389.252 248.661ZM387.078 263.046C396.738 264.2 406.609 265.671 416.691 267.461L417.04 265.492C406.923 263.696 397.015 262.218 387.315 261.06L387.078 263.046ZM416.063 265.88L403.746 282.446L405.351 283.639L417.668 267.074L416.063 265.88ZM404.77 282.068C395.141 279.875 386.523 277.862 378.916 276.029L378.447 277.973C386.064 279.809 394.691 281.824 404.326 284.018L404.77 282.068ZM377.957 276.312C374.537 279.905 370.445 282.832 365.67 285.088L366.524 286.897C371.509 284.541 375.806 281.473 379.406 277.69L377.957 276.312ZM365.67 285.088C362.102 286.774 358.47 287.837 354.77 288.282L355.008 290.268C358.933 289.795 362.773 288.67 366.524 286.897L365.67 285.088ZM354.77 288.282C351.234 288.707 348.081 288.503 345.294 287.697L344.739 289.618C347.829 290.512 351.258 290.719 355.008 290.268L354.77 288.282ZM345.33 287.708C342.584 286.802 340.417 285.52 338.79 283.887L337.373 285.299C339.264 287.196 341.721 288.624 344.703 289.607L345.33 287.708ZM338.823 283.921C337.264 282.2 336.382 280.315 336.134 278.252L334.148 278.491C334.451 281.002 335.529 283.265 337.34 285.264L338.823 283.921ZM349.745 277.581C350.781 279.15 352.6 279.599 354.726 279.343L354.487 277.357C352.715 277.571 351.85 277.139 351.414 276.479L349.745 277.581ZM354.726 279.343C356.874 279.085 359.311 278.086 362.013 276.442L360.974 274.733C358.39 276.305 356.235 277.147 354.487 277.357L354.726 279.343ZM361.973 276.465C362.976 275.917 363.852 274.992 364.63 273.793L362.951 272.705C362.279 273.743 361.624 274.377 361.014 274.71L361.973 276.465ZM364.058 272.285L361.791 271.656L361.255 273.583L363.523 274.212L364.058 272.285ZM361.804 271.66C359.797 271.071 357.708 270.911 355.547 271.171L355.786 273.156C357.692 272.927 359.507 273.07 361.242 273.579L361.804 271.66ZM355.547 271.171C353.744 271.387 352.209 271.891 351.004 272.74L352.156 274.375C353.011 273.773 354.2 273.347 355.786 273.156L355.547 271.171ZM351.004 272.74C349.792 273.594 349.039 274.742 349.21 276.163L351.196 275.924C351.143 275.482 351.308 274.972 352.156 274.375L351.004 272.74ZM349.269 276.4L349.645 277.387L351.514 276.673L351.137 275.687L349.269 276.4ZM517.486 315.094L516.493 315.214L516.613 316.207L517.605 316.087L517.486 315.094ZM505.851 218.384L505.6 217.416L504.754 217.635L504.858 218.503L505.851 218.384ZM526.23 213.096L527.222 212.976L527.086 211.841L525.978 212.128L526.23 213.096ZM531.397 256.05L530.404 256.17L530.538 257.28L531.627 257.023L531.397 256.05ZM541.426 253.683L542.419 253.564L542.285 252.453L541.197 252.71L541.426 253.683ZM542.756 264.74L542.974 265.716L543.857 265.519L543.749 264.62L542.756 264.74ZM532.712 266.979L532.494 266.003L531.611 266.2L531.719 267.099L532.712 266.979ZM538.201 312.602L538.32 313.595L539.313 313.476L539.194 312.483L538.201 312.602ZM442.739 236.032L442.489 235.064L441.642 235.283L441.747 236.152L442.739 236.032ZM486.5 224.708L487.493 224.589L487.356 223.454L486.25 223.74L486.5 224.708ZM488.243 239.196L488.47 240.17L489.343 239.967L489.236 239.076L488.243 239.196ZM461.907 245.329L461.68 244.356L460.807 244.559L460.914 245.449L461.907 245.329ZM463.467 258.292L462.474 258.411L462.605 259.498L463.675 259.27L463.467 258.292ZM489.864 252.667L490.857 252.547L490.726 251.461L489.655 251.689L489.864 252.667ZM491.607 267.154L491.82 268.131L492.708 267.938L492.599 267.035L491.607 267.154ZM465.225 272.907L465.012 271.93L464.123 272.123L464.232 273.026L465.225 272.907ZM466.845 286.378L465.853 286.497L465.98 287.558L467.031 287.36L466.845 286.378ZM502.774 279.606L503.767 279.486L503.639 278.425L502.589 278.623L502.774 279.606ZM504.975 297.906L505.095 298.899L506.088 298.779L505.968 297.786L504.975 297.906ZM454.207 300.275L453.589 301.061L453.589 301.061L454.207 300.275ZM518.479 314.975L506.844 218.264L504.858 218.503L516.493 315.214L518.479 314.975ZM506.102 219.352L526.481 214.064L525.978 212.128L505.6 217.416L506.102 219.352ZM525.237 213.215L530.404 256.17L532.39 255.931L527.222 212.976L525.237 213.215ZM531.627 257.023L541.656 254.657L541.197 252.71L531.167 255.077L531.627 257.023ZM540.433 253.803L541.764 264.859L543.749 264.62L542.419 253.564L540.433 253.803ZM542.539 263.763L532.494 266.003L532.93 267.955L542.974 265.716L542.539 263.763ZM531.719 267.099L537.208 312.722L539.194 312.483L533.705 266.86L531.719 267.099ZM538.081 311.609L517.367 314.102L517.605 316.087L538.32 313.595L538.081 311.609ZM442.99 237.001L486.751 225.676L486.25 223.74L442.489 235.064L442.99 237.001ZM485.507 224.828L487.25 239.315L489.236 239.076L487.493 224.589L485.507 224.828ZM488.016 238.222L461.68 244.356L462.134 246.303L488.47 240.17L488.016 238.222ZM460.914 245.449L462.474 258.411L464.459 258.173L462.9 245.21L460.914 245.449ZM463.675 259.27L490.072 253.645L489.655 251.689L463.258 257.314L463.675 259.27ZM488.871 252.786L490.614 267.274L492.599 267.035L490.857 252.547L488.871 252.786ZM491.394 266.177L465.012 271.93L465.438 273.884L491.82 268.131L491.394 266.177ZM464.232 273.026L465.853 286.497L467.838 286.258L466.218 272.787L464.232 273.026ZM467.031 287.36L502.959 280.588L502.589 278.623L466.66 285.395L467.031 287.36ZM501.781 279.725L503.983 298.025L505.968 297.786L503.767 279.486L501.781 279.725ZM504.856 296.913L463.427 301.897L463.666 303.883L505.095 298.899L504.856 296.913ZM463.427 301.897C460.216 302.283 457.368 301.486 454.824 299.488L453.589 301.061C456.55 303.386 459.929 304.332 463.666 303.883L463.427 301.897ZM454.824 299.488C452.28 297.49 450.83 294.913 450.444 291.703L448.458 291.942C448.908 295.679 450.628 298.736 453.589 301.061L454.824 299.488ZM450.444 291.703L443.732 235.913L441.747 236.152L448.458 291.942L450.444 291.703Z" fill="black"/>
</g>
</svg>
