<svg width="578" height="290" viewBox="0 0 578 290" fill="none" xmlns="http://www.w3.org/2000/svg">
<mask id="mask0_257_1059" style="mask-type:alpha" maskUnits="userSpaceOnUse" x="0" y="0" width="578" height="290">
<rect width="578" height="290" fill="#D9D9D9"/>
</mask>
<g mask="url(#mask0_257_1059)">
<path d="M75.6472 164.532L64.0124 67.8214L84.3907 62.5335L89.5583 105.488L99.5874 103.121L100.918 114.177L90.8731 116.417L96.3618 162.04L75.6472 164.532ZM5.96499 123.28C4.22206 108.792 5.64383 97.7488 10.2303 90.1492C14.8167 82.5497 21.4308 78.2301 30.0725 77.1904C37.3586 76.3139 43.6188 78.6979 48.8532 84.3424C54.0875 89.9869 57.5319 99.3277 59.1863 112.365C60.9292 126.852 59.5074 137.896 54.921 145.495C50.3345 153.095 43.7205 157.415 35.0788 158.454C27.7926 159.331 21.5324 156.947 16.2981 151.302C11.0637 145.658 7.61936 136.317 5.96499 123.28ZM25.0122 120.859C25.2505 124.269 25.441 126.566 25.5837 127.753C26.2462 133.26 27.2489 137.307 28.5917 139.896C29.9243 142.4 31.3955 143.556 33.0052 143.362C35.6316 143.046 37.6067 140.531 38.9304 135.816C40.3388 131.091 40.7417 124.081 40.139 114.785C39.9008 111.376 39.7103 109.078 39.5676 107.892C38.8337 101.792 37.7208 97.5426 36.229 95.1436C34.7269 92.6599 33.0321 91.7894 31.1446 92.5322C28.8539 93.4954 27.1315 96.324 25.9772 101.018C24.8128 105.628 24.4911 112.241 25.0122 120.859ZM416.262 118.397L411.125 75.6974L399.124 78.8172L397.824 68.0151L409.81 64.7682L406.003 33.1243L422.569 28.2951L433.164 116.364L416.262 118.397ZM353.324 105.342C352.858 100.756 353.955 97.0146 356.615 94.1161C359.349 91.1228 363.512 89.2898 369.103 88.6171C370.713 88.4234 373.121 88.4346 376.327 88.6505C376.749 82.1536 376.653 74.2149 376.04 64.8343C375.417 55.3689 374.513 46.0663 373.328 36.9265L392.146 32.5998L392.247 48.4452C392.413 58.3953 392.412 66.6035 392.244 73.0698C392.066 79.4514 391.404 85.3756 390.257 90.8424C397.31 92.3145 404.488 94.1153 411.792 96.2448L403.572 112.576L384.679 105.566C382.271 109.122 379.347 111.966 375.908 114.099C373.106 115.811 370.434 116.82 367.892 117.126C363.995 117.595 360.702 116.659 358.014 114.318C355.326 111.977 353.762 108.985 353.324 105.342ZM364.442 104.52C365.008 105.655 365.969 106.141 367.324 105.978C368.849 105.794 370.51 104.95 372.305 103.445C372.932 102.94 373.449 102.233 373.855 101.324L372.223 100.618C370.766 99.9342 369.317 99.6788 367.877 99.8521C366.691 99.9948 365.752 100.409 365.061 101.093C364.37 101.778 364.08 102.586 364.192 103.518C364.243 103.942 364.326 104.276 364.442 104.52ZM428.114 24.0182L444.68 19.1889L456.651 118.695L439.749 120.729L428.114 24.0182ZM212.025 279.949L207.255 240.299L199.005 242.452L197.705 231.65L205.94 229.37L201.766 194.676L218.332 189.847L228.927 277.916L212.025 279.949ZM158.067 257.948L163.978 256.721L159.866 222.536L172.025 219.655L176.183 254.222L183.732 252.669L179.558 217.975L191.59 215.11L195.825 250.312L204.883 248.448L207.069 266.621L166.276 271.529C164.496 271.743 162.875 271.122 161.41 269.665C159.946 268.208 159.071 266.294 158.785 263.921L158.067 257.948ZM151.584 204.065L195.091 192.771L196.818 207.132L153.205 217.536L151.584 204.065ZM223.877 185.57L240.442 180.74L252.414 280.247L235.511 282.28L223.877 185.57Z" fill="#FD7D95"/>
<path d="M222.434 133.594L122.165 145.657L120.391 130.915L162.913 123.221L161.491 111.402L150.653 113.48C147.21 114.152 144.128 113.534 141.406 111.627C138.674 109.635 137.099 106.902 136.681 103.429L132.094 65.3035L196.833 49.3929L203.331 103.403L178.255 108.225L179.692 120.171L219.942 112.879L222.434 133.594ZM183.674 90.0397L181.167 69.198L151.445 76.1256L153.922 96.7131L183.674 90.0397ZM292.543 133.281L287.773 93.6314L279.523 95.7842L278.224 84.9821L286.458 82.7022L282.284 48.0084L298.85 43.1791L309.445 131.248L292.543 133.281ZM237.636 83.0321L260.464 76.6759L259.027 64.73L236.138 70.5779L234.517 57.107L272.432 46.4863L277.279 86.7718L254.516 92.6044L256.336 107.727L287.435 101.536L289.621 119.709L253.657 124.036C250.691 124.393 247.959 123.475 245.461 121.283C243.047 119.081 241.637 116.286 241.229 112.897L237.636 83.0321ZM304.395 38.9022L320.961 34.0729L332.932 133.579L316.03 135.613L304.395 38.9022ZM566.194 83.0843L515.569 92.0109L515.967 95.3151L566.744 87.6593L568.854 105.197L515.733 111.588C512.259 112.005 509.146 111.134 506.394 108.972C503.641 106.811 502.056 103.994 501.638 100.52L499.987 86.7948L546.326 77.6102L545.852 73.6706L499.559 83.2365L498.244 72.3073L563.014 56.6509L566.194 83.0843ZM475.492 45.0054C474.463 36.4485 476.414 29.8105 481.347 25.0915C486.27 20.2878 493.01 17.3712 501.567 16.3417C509.023 15.4448 515.177 16.5952 520.031 19.793C524.97 22.9806 527.913 28.5139 528.861 36.3931C529.891 44.9501 527.939 51.5881 523.006 56.3071C518.073 61.0261 511.328 63.9003 502.771 64.9297C495.316 65.8267 489.123 64.7237 484.195 61.6209C479.341 58.4231 476.44 52.8846 475.492 45.0054ZM493.411 42.8497C493.425 44.3951 493.467 45.4643 493.539 46.0574C493.885 48.9379 494.733 50.9847 496.082 52.1975C497.421 53.3257 499.108 53.7674 501.141 53.5228C503.937 53.1864 506.219 51.7946 507.987 49.3472C509.745 46.815 510.73 43.2156 510.943 38.5488C510.929 37.0035 510.886 35.9342 510.815 35.3412C510.468 32.4606 509.625 30.4563 508.286 29.3281C506.937 28.1153 505.246 27.6311 503.212 27.8758C500.417 28.2121 498.14 29.6464 496.381 32.1785C494.613 34.6259 493.623 38.183 493.411 42.8497ZM536.504 10.9783L556.883 5.69035L562.677 53.8551L542.253 58.7617L536.504 10.9783ZM374.625 252.265L274.356 264.328L272.583 249.586L372.133 231.55L374.625 252.265ZM279.141 218.371C278.686 213.871 280.376 210.058 284.211 206.932C288.047 203.806 293.862 201.774 301.656 200.837C304.028 200.551 307.41 200.445 311.803 200.518C312.733 193.96 313.018 185.976 312.66 176.565L335.621 172.384C335.328 178.522 334.868 183.992 334.243 188.794C333.607 193.512 332.592 197.931 331.197 202.053C340.876 203.209 350.766 204.684 360.866 206.477L348.548 223.043C338.916 220.849 330.294 218.836 322.681 217.001C319.171 220.689 314.977 223.687 310.097 225.993C306.438 227.722 302.701 228.816 298.889 229.275C295.246 229.713 291.955 229.507 289.017 228.658C286.153 227.713 283.841 226.358 282.081 224.593C280.397 222.733 279.416 220.659 279.141 218.371ZM294.58 217.03C295.315 218.145 296.657 218.585 298.606 218.35C300.555 218.116 302.851 217.195 305.493 215.588C306.3 215.147 307.066 214.367 307.791 213.249L305.523 212.619C303.652 212.071 301.7 211.919 299.667 212.163C297.972 212.367 296.61 212.832 295.58 213.557C294.55 214.283 294.091 215.112 294.203 216.044L294.58 217.03ZM461.486 255.094L449.851 158.384L470.23 153.096L475.397 196.05L485.426 193.683L486.756 204.74L476.712 206.979L482.201 252.602L461.486 255.094ZM386.739 176.032L430.5 164.708L432.243 179.196L405.907 185.329L407.467 198.292L433.864 192.667L435.607 207.154L409.225 212.907L410.845 226.378L446.774 219.606L448.975 237.906L407.546 242.89C404.072 243.308 400.959 242.436 398.207 240.275C395.454 238.113 393.869 235.296 393.451 231.822L386.739 176.032Z" fill="#0021F9"/>
<path d="M75.6472 164.532L74.6543 164.652L74.7738 165.644L75.7666 165.525L75.6472 164.532ZM64.0124 67.8214L63.7612 66.8535L62.9151 67.0731L63.0196 67.9409L64.0124 67.8214ZM84.3907 62.5335L85.3835 62.4141L85.2469 61.2782L84.1395 61.5656L84.3907 62.5335ZM89.5583 105.488L88.5654 105.607L88.6991 106.718L89.788 106.461L89.5583 105.488ZM99.5874 103.121L100.58 103.002L100.447 101.891L99.3577 102.148L99.5874 103.121ZM100.918 114.177L101.135 115.153L102.018 114.956L101.91 114.058L100.918 114.177ZM90.8731 116.417L90.6555 115.441L89.7722 115.638L89.8803 116.536L90.8731 116.417ZM96.3618 162.04L96.4813 163.033L97.4741 162.913L97.3547 161.921L96.3618 162.04ZM5.96499 123.28L4.97213 123.399L4.97294 123.406L5.96499 123.28ZM10.2303 90.1492L11.0864 90.6659L11.0864 90.6659L10.2303 90.1492ZM59.1863 112.365L60.1791 112.245L60.1783 112.239L59.1863 112.365ZM54.921 145.495L54.0648 144.979L54.0648 144.979L54.921 145.495ZM16.2981 151.302L15.5648 151.982L15.5648 151.982L16.2981 151.302ZM25.0122 120.859L24.014 120.92L24.0147 120.929L25.0122 120.859ZM28.5917 139.896L27.704 140.357L27.7089 140.366L28.5917 139.896ZM38.9304 135.816L37.972 135.53L37.9698 135.538L37.9676 135.546L38.9304 135.816ZM40.139 114.785L41.1369 114.721L41.1366 114.715L40.139 114.785ZM36.229 95.1436L35.3732 95.6612L35.3798 95.6717L36.229 95.1436ZM31.1446 92.5322L30.7784 91.6017L30.7677 91.6059L30.757 91.6104L31.1446 92.5322ZM25.9772 101.018L26.9468 101.263L26.9483 101.257L25.9772 101.018ZM76.64 164.413L65.0052 67.702L63.0196 67.9409L74.6543 164.652L76.64 164.413ZM64.2636 68.7894L84.6418 63.5015L84.1395 61.5656L63.7612 66.8535L64.2636 68.7894ZM83.3978 62.653L88.5654 105.607L90.5511 105.368L85.3835 62.4141L83.3978 62.653ZM89.788 106.461L99.8171 104.094L99.3577 102.148L89.3286 104.515L89.788 106.461ZM98.5945 103.24L99.9247 114.297L101.91 114.058L100.58 103.002L98.5945 103.24ZM100.7 113.201L90.6555 115.441L91.0908 117.393L101.135 115.153L100.7 113.201ZM89.8803 116.536L95.369 162.159L97.3547 161.921L91.866 116.298L89.8803 116.536ZM96.2424 161.047L75.5277 163.539L75.7666 165.525L96.4813 163.033L96.2424 161.047ZM6.95783 123.16C5.22576 108.763 6.66863 97.9861 11.0864 90.6659L9.37411 89.6325C4.61902 97.5115 3.21837 108.822 4.97215 123.399L6.95783 123.16ZM11.0864 90.6659C15.5174 83.324 21.863 79.1853 30.1919 78.1833L29.953 76.1976C20.9985 77.2749 14.116 81.7754 9.37411 89.6325L11.0864 90.6659ZM30.1919 78.1833C37.1422 77.3471 43.0908 79.5991 48.1199 85.0224L49.5864 83.6624C44.1469 77.7966 37.575 75.2806 29.953 76.1976L30.1919 78.1833ZM48.1199 85.0224C53.1431 90.4391 56.5495 99.5295 58.1942 112.491L60.1783 112.239C58.5143 99.1259 55.032 89.5348 49.5864 83.6624L48.1199 85.0224ZM58.1934 112.484C59.9255 126.882 58.4826 137.659 54.0648 144.979L55.7771 146.012C60.5322 138.133 61.9329 126.823 60.1791 112.245L58.1934 112.484ZM54.0648 144.979C49.6338 152.321 43.2882 156.459 34.9593 157.461L35.1982 159.447C44.1527 158.37 51.0352 153.869 55.7771 146.012L54.0648 144.979ZM34.9593 157.461C28.009 158.298 22.0605 156.046 17.0313 150.622L15.5648 151.982C21.0044 157.848 27.5763 160.364 35.1982 159.447L34.9593 157.461ZM17.0313 150.622C12.0082 145.206 8.60177 136.115 6.95703 123.154L4.97294 123.406C6.63695 136.519 10.1192 146.11 15.5648 151.982L17.0313 150.622ZM24.0147 120.929C24.2527 124.335 24.4447 126.657 24.5908 127.872L26.5765 127.633C26.4373 126.476 26.2483 124.202 26.0098 120.79L24.0147 120.929ZM24.5908 127.872C25.2572 133.411 26.2763 137.604 27.704 140.357L29.4794 139.436C28.2214 137.011 27.2352 133.108 26.5765 127.633L24.5908 127.872ZM27.7089 140.366C29.0773 142.937 30.8501 144.628 33.1247 144.355L32.8858 142.369C31.9409 142.483 30.7714 141.863 29.4745 139.426L27.7089 140.366ZM33.1247 144.355C36.4175 143.959 38.5574 140.844 39.8931 136.086L37.9676 135.546C36.6559 140.217 34.8458 142.133 32.8858 142.369L33.1247 144.355ZM39.8887 136.102C41.349 131.203 41.7417 124.049 41.1369 114.721L39.1411 114.85C39.7417 124.113 39.3286 130.98 37.972 135.53L39.8887 136.102ZM41.1366 114.715C40.8985 111.309 40.7066 108.987 40.5604 107.773L38.5747 108.012C38.714 109.169 38.903 111.442 39.1414 114.855L41.1366 114.715ZM40.5604 107.773C39.8249 101.659 38.6953 97.2159 37.0781 94.6155L35.3798 95.6717C36.7464 97.8692 37.8425 101.925 38.5747 108.012L40.5604 107.773ZM37.0846 94.6261C36.2842 93.3025 35.3653 92.2917 34.2882 91.7385C33.167 91.1626 31.9701 91.1327 30.7784 91.6017L31.5108 93.4627C32.2066 93.1889 32.8009 93.2229 33.3744 93.5175C33.9921 93.8348 34.6717 94.501 35.3733 95.6611L37.0846 94.6261ZM30.757 91.6104C27.9906 92.7736 26.1701 96.0458 25.0062 100.779L26.9483 101.257C28.0928 96.6023 29.7173 94.2172 31.5322 93.454L30.757 91.6104ZM25.0077 100.773C23.8054 105.533 23.4909 112.268 24.0141 120.92L26.0104 120.799C25.4913 112.214 25.8202 105.723 26.9468 101.263L25.0077 100.773ZM222.434 133.594L222.553 134.587L223.546 134.467L223.426 133.474L222.434 133.594ZM122.165 145.657L121.172 145.776L121.291 146.769L122.284 146.65L122.165 145.657ZM120.391 130.915L120.213 129.931L119.286 130.099L119.398 131.034L120.391 130.915ZM162.913 123.221L163.091 124.205L164.018 124.037L163.905 123.102L162.913 123.221ZM161.491 111.402L162.484 111.283L162.355 110.218L161.302 110.42L161.491 111.402ZM150.653 113.48L150.465 112.497L150.462 112.498L150.653 113.48ZM141.406 111.627L140.817 112.435L140.824 112.44L140.832 112.446L141.406 111.627ZM132.094 65.3035L131.855 64.3324L130.995 64.5437L131.101 65.4229L132.094 65.3035ZM196.833 49.3929L197.826 49.2735L197.691 48.1523L196.594 48.4218L196.833 49.3929ZM203.331 103.403L203.52 104.385L204.435 104.209L204.324 103.284L203.331 103.403ZM178.255 108.225L178.066 107.243L177.151 107.419L177.262 108.345L178.255 108.225ZM179.692 120.171L178.7 120.29L178.826 121.344L179.871 121.155L179.692 120.171ZM219.942 112.879L220.934 112.76L220.808 111.706L219.763 111.895L219.942 112.879ZM183.674 90.0397L183.893 91.0154L184.775 90.8176L184.667 89.9202L183.674 90.0397ZM181.167 69.198L182.159 69.0785L182.026 67.9708L180.94 68.2241L181.167 69.198ZM151.445 76.1256L151.218 75.1517L150.345 75.3552L150.452 76.245L151.445 76.1256ZM153.922 96.7131L152.929 96.8326L153.061 97.931L154.141 97.6889L153.922 96.7131ZM222.314 132.601L122.045 144.664L122.284 146.65L222.553 134.587L222.314 132.601ZM123.157 145.537L121.384 130.796L119.398 131.034L121.172 145.776L123.157 145.537ZM120.569 131.899L163.091 124.205L162.735 122.237L120.213 129.931L120.569 131.899ZM163.905 123.102L162.484 111.283L160.498 111.522L161.92 123.34L163.905 123.102ZM161.302 110.42L150.465 112.497L150.842 114.462L161.679 112.384L161.302 110.42ZM150.462 112.498C147.269 113.121 144.466 112.55 141.98 110.808L140.832 112.446C143.79 114.518 147.152 115.182 150.845 114.461L150.462 112.498ZM141.995 110.819C139.496 108.997 138.06 106.518 137.674 103.309L135.688 103.548C136.138 107.286 137.851 110.273 140.817 112.435L141.995 110.819ZM137.674 103.309L133.087 65.1841L131.101 65.4229L135.688 103.548L137.674 103.309ZM132.333 66.2746L197.072 50.364L196.594 48.4218L131.855 64.3324L132.333 66.2746ZM195.84 49.5124L202.338 103.523L204.324 103.284L197.826 49.2735L195.84 49.5124ZM203.142 102.421L178.066 107.243L178.444 109.207L203.52 104.385L203.142 102.421ZM177.262 108.345L178.7 120.29L180.685 120.052L179.248 108.106L177.262 108.345ZM179.871 121.155L220.12 113.863L219.763 111.895L179.514 119.187L179.871 121.155ZM218.949 112.999L221.441 133.713L223.426 133.474L220.934 112.76L218.949 112.999ZM184.667 89.9202L182.159 69.0785L180.174 69.3174L182.681 90.1591L184.667 89.9202ZM180.94 68.2241L151.218 75.1517L151.672 77.0995L181.394 70.1719L180.94 68.2241ZM150.452 76.245L152.929 96.8326L154.915 96.5937L152.438 76.0062L150.452 76.245ZM154.141 97.6889L183.893 91.0154L183.455 89.0639L153.703 95.7374L154.141 97.6889ZM292.543 133.281L291.55 133.401L291.67 134.394L292.663 134.274L292.543 133.281ZM287.773 93.6314L288.766 93.512L288.629 92.3745L287.521 92.6638L287.773 93.6314ZM279.523 95.7842L278.53 95.9037L278.667 97.0411L279.776 96.7518L279.523 95.7842ZM278.224 84.9821L277.957 84.0184L277.128 84.2478L277.231 85.1015L278.224 84.9821ZM286.458 82.7022L286.725 83.6659L287.554 83.4365L287.451 82.5828L286.458 82.7022ZM282.284 48.0084L282.005 47.0483L281.19 47.2857L281.292 48.1278L282.284 48.0084ZM298.85 43.1791L299.843 43.0597L299.702 41.8891L298.57 42.2191L298.85 43.1791ZM309.445 131.248L309.565 132.241L310.558 132.121L310.438 131.129L309.445 131.248ZM237.636 83.0321L237.368 82.0687L236.541 82.299L236.643 83.1515L237.636 83.0321ZM260.464 76.6759L260.733 77.6392L261.56 77.4089L261.457 76.5564L260.464 76.6759ZM259.027 64.73L260.02 64.6106L259.884 63.479L258.78 63.7611L259.027 64.73ZM236.138 70.5779L235.145 70.6973L235.281 71.8289L236.385 71.5467L236.138 70.5779ZM234.517 57.107L234.248 56.1441L233.422 56.3753L233.524 57.2264L234.517 57.107ZM272.432 46.4863L273.425 46.3668L273.286 45.2087L272.162 45.5233L272.432 46.4863ZM277.279 86.7718L277.527 87.7405L278.376 87.5229L278.272 86.6523L277.279 86.7718ZM254.516 92.6044L254.268 91.6357L253.419 91.8533L253.524 92.7238L254.516 92.6044ZM256.336 107.727L255.343 107.847L255.472 108.919L256.531 108.708L256.336 107.727ZM287.435 101.536L288.428 101.417L288.299 100.345L287.24 100.556L287.435 101.536ZM289.621 119.709L289.741 120.702L290.734 120.583L290.614 119.59L289.621 119.709ZM245.461 121.283L244.787 122.022L244.794 122.029L244.802 122.035L245.461 121.283ZM304.395 38.9022L304.115 37.9422L303.301 38.1795L303.402 39.0216L304.395 38.9022ZM320.961 34.0729L321.954 33.9535L321.813 32.7829L320.681 33.1129L320.961 34.0729ZM332.932 133.579L333.051 134.572L334.044 134.453L333.925 133.46L332.932 133.579ZM316.03 135.613L315.037 135.732L315.156 136.725L316.149 136.606L316.03 135.613ZM293.536 133.162L288.766 93.512L286.78 93.7508L291.55 133.401L293.536 133.162ZM287.521 92.6638L279.271 94.8166L279.776 96.7518L288.026 94.599L287.521 92.6638ZM280.516 95.6648L279.217 84.8627L277.231 85.1015L278.53 95.9037L280.516 95.6648ZM278.491 85.9458L286.725 83.6659L286.191 81.7385L277.957 84.0184L278.491 85.9458ZM287.451 82.5828L283.277 47.8889L281.292 48.1278L285.465 82.8216L287.451 82.5828ZM282.564 48.9684L299.13 44.1392L298.57 42.2191L282.005 47.0483L282.564 48.9684ZM297.857 43.2986L308.453 131.368L310.438 131.129L299.843 43.0597L297.857 43.2986ZM309.326 130.255L292.424 132.289L292.663 134.274L309.565 132.241L309.326 130.255ZM237.904 83.9954L260.733 77.6392L260.196 75.7125L237.368 82.0687L237.904 83.9954ZM261.457 76.5564L260.02 64.6106L258.034 64.8495L259.472 76.7953L261.457 76.5564ZM258.78 63.7611L235.89 69.609L236.385 71.5467L259.275 65.6989L258.78 63.7611ZM237.131 70.4584L235.51 56.9876L233.524 57.2264L235.145 70.6973L237.131 70.4584ZM234.787 58.0699L272.702 47.4492L272.162 45.5233L234.248 56.1441L234.787 58.0699ZM271.439 46.6057L276.286 86.8912L278.272 86.6523L273.425 46.3668L271.439 46.6057ZM277.03 85.8031L254.268 91.6357L254.765 93.5731L277.527 87.7405L277.03 85.8031ZM253.524 92.7238L255.343 107.847L257.329 107.608L255.509 92.4849L253.524 92.7238ZM256.531 108.708L287.63 102.517L287.24 100.556L256.141 106.747L256.531 108.708ZM286.442 101.656L288.628 119.829L290.614 119.59L288.428 101.417L286.442 101.656ZM289.502 118.717L253.537 123.043L253.776 125.029L289.741 120.702L289.502 118.717ZM253.537 123.043C250.888 123.362 248.432 122.56 246.121 120.532L244.802 122.035C247.487 124.391 250.495 125.424 253.776 125.029L253.537 123.043ZM246.135 120.545C243.907 118.512 242.602 115.94 242.222 112.777L240.236 113.016C240.671 116.631 242.188 119.651 244.787 122.022L246.135 120.545ZM242.222 112.777L238.629 82.9126L236.643 83.1515L240.236 113.016L242.222 112.777ZM304.675 39.8622L321.241 35.033L320.681 33.1129L304.115 37.9422L304.675 39.8622ZM319.968 34.1924L331.939 133.699L333.925 133.46L321.954 33.9535L319.968 34.1924ZM332.813 132.587L315.91 134.62L316.149 136.606L333.051 134.572L332.813 132.587ZM317.023 135.493L305.388 38.7827L303.402 39.0216L315.037 135.732L317.023 135.493ZM416.262 118.397L415.269 118.517L415.389 119.51L416.382 119.39L416.262 118.397ZM411.125 75.6974L412.118 75.5779L411.981 74.4416L410.874 74.7295L411.125 75.6974ZM399.124 78.8172L398.131 78.9366L398.268 80.073L399.375 79.785L399.124 78.8172ZM397.824 68.0151L397.563 67.0499L396.728 67.276L396.831 68.1345L397.824 68.0151ZM409.81 64.7682L410.072 65.7334L410.906 65.5073L410.803 64.6487L409.81 64.7682ZM406.003 33.1243L405.724 32.1643L404.909 32.4017L405.011 33.2438L406.003 33.1243ZM422.569 28.2951L423.562 28.1757L423.421 27.0051L422.289 27.3351L422.569 28.2951ZM433.164 116.364L433.284 117.357L434.277 117.237L434.157 116.245L433.164 116.364ZM353.324 105.342L352.329 105.443L352.33 105.452L352.331 105.461L353.324 105.342ZM356.615 94.1161L357.352 94.7922L357.353 94.7906L356.615 94.1161ZM376.327 88.6505L376.26 89.6482L377.26 89.7156L377.325 88.7153L376.327 88.6505ZM376.04 64.8343L377.038 64.7691L377.038 64.7686L376.04 64.8343ZM373.328 36.9265L373.104 35.9519L372.219 36.1552L372.336 37.0551L373.328 36.9265ZM392.146 32.5998L393.146 32.5934L393.138 31.3457L391.921 31.6253L392.146 32.5998ZM392.247 48.4452L391.247 48.4516L391.247 48.4618L392.247 48.4452ZM392.244 73.0698L393.244 73.0976L393.244 73.0957L392.244 73.0698ZM390.257 90.8424L389.278 90.637L389.072 91.6168L390.052 91.8213L390.257 90.8424ZM411.792 96.2448L412.685 96.6944L413.226 95.6211L412.072 95.2848L411.792 96.2448ZM403.572 112.576L403.224 113.513L404.063 113.824L404.465 113.025L403.572 112.576ZM384.679 105.566L385.027 104.628L384.292 104.355L383.851 105.005L384.679 105.566ZM375.908 114.099L376.429 114.952L376.435 114.949L375.908 114.099ZM358.014 114.318L357.357 115.072L357.357 115.072L358.014 114.318ZM364.442 104.52L363.537 104.947L363.542 104.957L363.547 104.966L364.442 104.52ZM372.305 103.445L371.678 102.666L371.67 102.672L371.663 102.678L372.305 103.445ZM373.855 101.324L374.768 101.733L375.182 100.809L374.252 100.407L373.855 101.324ZM372.223 100.618L371.798 101.524L371.812 101.53L371.826 101.536L372.223 100.618ZM365.061 101.093L364.357 100.383L364.357 100.383L365.061 101.093ZM428.114 24.0182L427.834 23.0581L427.02 23.2955L427.121 24.1376L428.114 24.0182ZM444.68 19.1889L445.673 19.0695L445.532 17.8989L444.4 18.2289L444.68 19.1889ZM456.651 118.695L456.77 119.688L457.763 119.569L457.644 118.576L456.651 118.695ZM439.749 120.729L438.756 120.848L438.875 121.841L439.868 121.722L439.749 120.729ZM417.255 118.278L412.118 75.5779L410.132 75.8168L415.269 118.517L417.255 118.278ZM410.874 74.7295L398.872 77.8494L399.375 79.785L411.377 76.6652L410.874 74.7295ZM400.117 78.6977L398.817 67.8956L396.831 68.1345L398.131 78.9366L400.117 78.6977ZM398.086 68.9803L410.072 65.7334L409.549 63.803L397.563 67.0499L398.086 68.9803ZM410.803 64.6487L406.996 33.0049L405.011 33.2438L408.817 64.8876L410.803 64.6487ZM406.283 34.0844L422.849 29.2551L422.289 27.3351L405.724 32.1643L406.283 34.0844ZM421.576 28.4145L432.171 116.484L434.157 116.245L423.562 28.1757L421.576 28.4145ZM433.045 115.371L416.143 117.405L416.382 119.39L433.284 117.357L433.045 115.371ZM354.319 105.241C353.877 100.886 354.919 97.4437 357.352 94.7922L355.878 93.4401C352.992 96.5855 351.84 100.627 352.329 105.443L354.319 105.241ZM357.353 94.7906C359.873 92.0323 363.777 90.2651 369.223 89.6099L368.984 87.6243C363.247 88.3145 358.825 90.2133 355.877 93.4417L357.353 94.7906ZM369.223 89.6099C370.736 89.4279 373.068 89.4333 376.26 89.6482L376.394 87.6528C373.174 87.4359 370.69 87.419 368.984 87.6243L369.223 89.6099ZM377.325 88.7153C377.751 82.1608 377.653 74.1758 377.038 64.7691L375.043 64.8994C375.654 74.254 375.747 82.1465 375.329 88.5857L377.325 88.7153ZM377.038 64.7686C376.414 55.2828 375.508 45.9592 374.319 36.7979L372.336 37.0551C373.519 46.1734 374.421 55.455 375.043 64.8999L377.038 64.7686ZM373.552 37.9011L392.37 33.5744L391.921 31.6253L373.104 35.9519L373.552 37.9011ZM391.146 32.6062L391.247 48.4516L393.247 48.4388L393.146 32.5934L391.146 32.6062ZM391.247 48.4618C391.413 58.4044 391.411 66.5971 391.244 73.0439L393.244 73.0957C393.412 66.6098 393.413 58.3862 393.247 48.4285L391.247 48.4618ZM391.245 73.0419C391.068 79.3721 390.411 85.2362 389.278 90.637L391.235 91.0478C392.396 85.5149 393.065 79.5306 393.244 73.0976L391.245 73.0419ZM390.052 91.8213C397.079 93.2878 404.232 95.0822 411.512 97.2048L412.072 95.2848C404.745 93.1484 397.541 91.3412 390.461 89.8635L390.052 91.8213ZM410.899 95.7952L402.679 112.126L404.465 113.025L412.685 96.6944L410.899 95.7952ZM403.92 111.638L385.027 104.628L384.332 106.504L403.224 113.513L403.92 111.638ZM383.851 105.005C381.517 108.452 378.693 111.195 375.381 113.249L376.435 114.949C380.001 112.737 383.025 109.792 385.507 106.127L383.851 105.005ZM375.386 113.245C372.673 114.903 370.138 115.849 367.773 116.133L368.011 118.119C370.73 117.792 373.538 116.719 376.429 114.952L375.386 113.245ZM367.773 116.133C364.124 116.572 361.123 115.699 358.671 113.564L357.357 115.072C360.282 117.619 363.865 118.618 368.011 118.119L367.773 116.133ZM358.671 113.564C356.175 111.39 354.727 108.627 354.317 105.222L352.331 105.461C352.798 109.342 354.476 112.563 357.357 115.072L358.671 113.564ZM363.547 104.966C363.908 105.691 364.431 106.271 365.136 106.628C365.834 106.981 366.622 107.07 367.444 106.971L367.205 104.985C366.671 105.049 366.301 104.976 366.038 104.843C365.782 104.714 365.541 104.484 365.336 104.073L363.547 104.966ZM367.444 106.971C369.238 106.755 371.076 105.78 372.948 104.211L371.663 102.678C369.943 104.12 368.461 104.834 367.205 104.985L367.444 106.971ZM372.933 104.223C373.708 103.598 374.312 102.752 374.768 101.733L372.943 100.916C372.586 101.714 372.156 102.281 371.678 102.666L372.933 104.223ZM374.252 100.407L372.62 99.7006L371.826 101.536L373.458 102.242L374.252 100.407ZM372.648 99.7131C371.04 98.9584 369.404 98.6612 367.757 98.8592L367.996 100.845C369.23 100.696 370.491 100.91 371.798 101.524L372.648 99.7131ZM367.757 98.8592C366.402 99.0223 365.239 99.5086 364.357 100.383L365.765 101.804C366.264 101.308 366.979 100.967 367.996 100.845L367.757 98.8592ZM364.357 100.383C363.456 101.276 363.049 102.387 363.199 103.638L365.185 103.399C365.111 102.786 365.283 102.281 365.765 101.804L364.357 100.383ZM363.199 103.638C363.257 104.114 363.358 104.566 363.537 104.947L365.346 104.093C365.295 103.985 365.23 103.77 365.185 103.399L363.199 103.638ZM428.394 24.9782L444.96 20.149L444.4 18.2289L427.834 23.0581L428.394 24.9782ZM443.687 19.3084L455.658 118.815L457.644 118.576L445.673 19.0695L443.687 19.3084ZM456.531 117.703L439.629 119.736L439.868 121.722L456.77 119.688L456.531 117.703ZM440.742 120.609L429.107 23.8987L427.121 24.1376L438.756 120.848L440.742 120.609ZM566.194 83.0843L566.367 84.0691L567.3 83.9047L567.186 82.9648L566.194 83.0843ZM515.569 92.0109L515.396 91.0261L514.464 91.1905L514.577 92.1304L515.569 92.0109ZM515.967 95.3151L514.974 95.4346L515.097 96.4576L516.116 96.3039L515.967 95.3151ZM566.744 87.6593L567.737 87.5399L567.614 86.5169L566.595 86.6705L566.744 87.6593ZM568.854 105.197L568.973 106.19L569.966 106.07L569.847 105.077L568.854 105.197ZM506.394 108.972L505.776 109.759L505.776 109.759L506.394 108.972ZM499.987 86.7948L499.792 85.8139L498.883 85.9941L498.994 86.9143L499.987 86.7948ZM546.326 77.6102L546.52 78.5911L547.429 78.4109L547.318 77.4908L546.326 77.6102ZM545.852 73.6706L546.844 73.5512L546.714 72.4712L545.649 72.6913L545.852 73.6706ZM499.559 83.2365L498.566 83.3559L498.696 84.4359L499.761 84.2158L499.559 83.2365ZM498.244 72.3073L498.009 71.3353L497.145 71.5442L497.251 72.4268L498.244 72.3073ZM563.014 56.6509L564.006 56.5314L563.872 55.4146L562.779 55.6789L563.014 56.6509ZM481.347 25.0915L482.039 25.8141L482.046 25.8072L481.347 25.0915ZM520.031 19.793L519.481 20.6281L519.489 20.6332L520.031 19.793ZM484.195 61.6209L483.645 62.4559L483.653 62.4616L483.662 62.4671L484.195 61.6209ZM493.411 42.8497L492.412 42.8043L492.411 42.8315L492.411 42.8588L493.411 42.8497ZM496.082 52.1975L495.414 52.9412L495.426 52.9519L495.438 52.9623L496.082 52.1975ZM507.987 49.3472L508.798 49.9328L508.803 49.9252L508.809 49.9175L507.987 49.3472ZM510.943 38.5488L511.942 38.5943L511.943 38.567L511.943 38.5398L510.943 38.5488ZM508.286 29.3281L507.618 30.0718L507.63 30.0825L507.642 30.0929L508.286 29.3281ZM496.381 32.1785L497.192 32.7641L497.197 32.7565L497.203 32.7488L496.381 32.1785ZM536.504 10.9783L536.253 10.0103L535.407 10.2299L535.512 11.0977L536.504 10.9783ZM556.883 5.69035L557.876 5.57091L557.739 4.43506L556.632 4.72241L556.883 5.69035ZM562.677 53.8551L562.911 54.8274L563.776 54.6194L563.67 53.7356L562.677 53.8551ZM542.253 58.7617L541.26 58.8812L541.394 59.9965L542.487 59.7341L542.253 58.7617ZM566.02 82.0995L515.396 91.0261L515.743 92.9958L566.367 84.0691L566.02 82.0995ZM514.577 92.1304L514.974 95.4346L516.96 95.1957L516.562 91.8915L514.577 92.1304ZM516.116 96.3039L566.893 88.6481L566.595 86.6705L515.818 94.3263L516.116 96.3039ZM565.751 87.7787L567.861 105.316L569.847 105.077L567.737 87.5399L565.751 87.7787ZM568.734 104.204L515.613 110.595L515.852 112.58L568.973 106.19L568.734 104.204ZM515.613 110.595C512.403 110.981 509.555 110.183 507.011 108.186L505.776 109.759C508.737 112.084 512.115 113.03 515.852 112.58L515.613 110.595ZM507.011 108.186C504.467 106.188 503.017 103.611 502.631 100.4L500.645 100.639C501.095 104.376 502.815 107.434 505.776 109.759L507.011 108.186ZM502.631 100.4L500.98 86.6754L498.994 86.9143L500.645 100.639L502.631 100.4ZM500.181 87.7758L546.52 78.5911L546.131 76.6293L499.792 85.8139L500.181 87.7758ZM547.318 77.4908L546.844 73.5512L544.859 73.7901L545.333 77.7297L547.318 77.4908ZM545.649 72.6913L499.356 82.2572L499.761 84.2158L546.054 74.6499L545.649 72.6913ZM500.552 83.1171L499.237 72.1879L497.251 72.4268L498.566 83.3559L500.552 83.1171ZM498.479 73.2793L563.249 57.6229L562.779 55.6789L498.009 71.3353L498.479 73.2793ZM562.021 56.7703L565.201 83.2037L567.186 82.9648L564.006 56.5314L562.021 56.7703ZM476.485 44.886C475.482 36.5508 477.392 30.2593 482.039 25.8141L480.656 24.3689C475.437 29.3617 473.443 36.3461 474.499 45.1249L476.485 44.886ZM482.046 25.8072C486.775 21.1922 493.291 18.3445 501.686 17.3346L501.448 15.3489C492.728 16.3978 485.765 19.3833 480.649 24.3758L482.046 25.8072ZM501.686 17.3346C508.977 16.4575 514.876 17.5945 519.481 20.6281L520.582 18.9579C515.478 15.5959 509.068 14.4321 501.448 15.3489L501.686 17.3346ZM519.489 20.6332C524.098 23.6079 526.943 28.8191 527.869 36.5126L529.854 36.2737C528.884 28.2088 525.842 22.3532 520.574 18.9528L519.489 20.6332ZM527.869 36.5126C528.871 44.8477 526.962 51.1393 522.315 55.5845L523.697 57.0297C528.917 52.0369 530.91 45.0525 529.854 36.2737L527.869 36.5126ZM522.315 55.5845C517.575 60.1185 511.051 62.9264 502.652 63.9369L502.891 65.9226C511.605 64.8742 518.571 61.9336 523.697 57.0297L522.315 55.5845ZM502.652 63.9369C495.357 64.8145 489.412 63.7236 484.728 60.7746L483.662 62.4671C488.835 65.7238 495.274 66.8389 502.891 65.9226L502.652 63.9369ZM484.745 60.7858C480.218 57.8032 477.411 52.5854 476.485 44.886L474.499 45.1249C475.469 53.1838 478.464 59.043 483.645 62.4559L484.745 60.7858ZM492.411 42.8588C492.425 44.4011 492.467 45.5218 492.546 46.1768L494.532 45.9379C494.468 45.4068 494.425 44.3891 494.411 42.8406L492.411 42.8588ZM492.546 46.1768C492.905 49.1618 493.804 51.4937 495.414 52.9412L496.751 51.4538C495.663 50.4756 494.866 48.7141 494.532 45.9379L492.546 46.1768ZM495.438 52.9623C497.025 54.2996 499.003 54.7872 501.26 54.5156L501.022 52.53C499.212 52.7476 497.818 52.3517 496.727 51.4328L495.438 52.9623ZM501.26 54.5156C504.355 54.1433 506.879 52.5881 508.798 49.9328L507.177 48.7615C505.559 51.001 503.519 52.2295 501.022 52.53L501.26 54.5156ZM508.809 49.9175C510.716 47.1703 511.725 43.3591 511.942 38.5943L509.944 38.5034C509.736 43.0721 508.775 46.4598 507.166 48.7768L508.809 49.9175ZM511.943 38.5398C511.929 36.9974 511.886 35.8767 511.807 35.2217L509.822 35.4606C509.886 35.9918 509.929 37.0095 509.943 38.5579L511.943 38.5398ZM511.807 35.2217C511.449 32.2448 510.556 29.9333 508.931 28.5634L507.642 30.0929C508.694 30.9793 509.487 32.6765 509.822 35.4606L511.807 35.2217ZM508.955 28.5844C507.362 27.1527 505.371 26.6088 503.093 26.8829L503.332 28.8686C505.12 28.6535 506.512 29.0778 507.618 30.0718L508.955 28.5844ZM503.093 26.8829C499.985 27.2569 497.464 28.8663 495.56 31.6081L497.203 32.7488C498.815 30.4264 500.848 29.1674 503.332 28.8686L503.093 26.8829ZM495.571 31.5928C493.642 34.2626 492.628 38.0415 492.412 42.8043L494.41 42.8951C494.617 38.3244 495.584 34.9892 497.192 32.7641L495.571 31.5928ZM536.756 11.9462L557.134 6.65829L556.632 4.72241L536.253 10.0103L536.756 11.9462ZM555.89 5.80979L561.684 53.9745L563.67 53.7356L557.876 5.57091L555.89 5.80979ZM562.444 52.8827L542.019 57.7894L542.487 59.7341L562.911 54.8274L562.444 52.8827ZM543.246 58.6423L537.497 10.8588L535.512 11.0977L541.26 58.8812L543.246 58.6423ZM212.025 279.949L211.032 280.068L211.151 281.061L212.144 280.942L212.025 279.949ZM207.255 240.299L208.248 240.179L208.111 239.042L207.002 239.331L207.255 240.299ZM199.005 242.452L198.012 242.571L198.149 243.709L199.257 243.419L199.005 242.452ZM197.705 231.65L197.438 230.686L196.61 230.915L196.712 231.769L197.705 231.65ZM205.94 229.37L206.207 230.333L207.035 230.104L206.933 229.25L205.94 229.37ZM201.766 194.676L201.486 193.716L200.672 193.953L200.773 194.795L201.766 194.676ZM218.332 189.847L219.325 189.727L219.184 188.557L218.052 188.887L218.332 189.847ZM228.927 277.916L229.046 278.908L230.039 278.789L229.92 277.796L228.927 277.916ZM158.067 257.948L157.863 256.969L156.964 257.156L157.074 258.068L158.067 257.948ZM163.978 256.721L164.182 257.701L165.081 257.514L164.971 256.602L163.978 256.721ZM159.866 222.536L159.635 221.563L158.766 221.769L158.873 222.655L159.866 222.536ZM172.025 219.655L173.018 219.536L172.884 218.424L171.794 218.682L172.025 219.655ZM176.183 254.222L175.19 254.341L175.32 255.42L176.385 255.201L176.183 254.222ZM183.732 252.669L183.933 253.649L184.835 253.463L184.725 252.55L183.732 252.669ZM179.558 217.975L179.326 217.002L178.459 217.209L178.565 218.095L179.558 217.975ZM191.59 215.11L192.583 214.99L192.449 213.877L191.358 214.137L191.59 215.11ZM195.825 250.312L194.832 250.431L194.962 251.51L196.026 251.291L195.825 250.312ZM204.883 248.448L205.876 248.329L205.746 247.25L204.682 247.469L204.883 248.448ZM207.069 266.621L207.189 267.614L208.182 267.495L208.062 266.502L207.069 266.621ZM161.41 269.665L162.115 268.956L162.115 268.956L161.41 269.665ZM151.584 204.065L151.333 203.097L150.487 203.317L150.591 204.184L151.584 204.065ZM195.091 192.771L196.084 192.652L195.947 191.516L194.84 191.804L195.091 192.771ZM196.818 207.132L197.05 208.105L197.918 207.898L197.811 207.012L196.818 207.132ZM153.205 217.536L152.212 217.655L152.346 218.769L153.437 218.508L153.205 217.536ZM223.877 185.57L223.597 184.61L222.783 184.847L222.884 185.689L223.877 185.57ZM240.442 180.74L241.435 180.621L241.294 179.45L240.163 179.78L240.442 180.74ZM252.414 280.247L252.533 281.24L253.526 281.12L253.406 280.127L252.414 280.247ZM235.511 282.28L234.519 282.4L234.638 283.393L235.631 283.273L235.511 282.28ZM213.018 279.829L208.248 240.179L206.262 240.418L211.032 280.068L213.018 279.829ZM207.002 239.331L198.752 241.484L199.257 243.419L207.507 241.266L207.002 239.331ZM199.998 242.332L198.698 231.53L196.712 231.769L198.012 242.571L199.998 242.332ZM197.972 232.613L206.207 230.333L205.673 228.406L197.438 230.686L197.972 232.613ZM206.933 229.25L202.759 194.556L200.773 194.795L204.947 229.489L206.933 229.25ZM202.046 195.636L218.612 190.807L218.052 188.887L201.486 193.716L202.046 195.636ZM217.339 189.966L227.934 278.035L229.92 277.796L219.325 189.727L217.339 189.966ZM228.808 276.923L211.905 278.956L212.144 280.942L229.046 278.908L228.808 276.923ZM158.27 258.928L164.182 257.701L163.775 255.742L157.863 256.969L158.27 258.928ZM164.971 256.602L160.859 222.417L158.873 222.655L162.986 256.841L164.971 256.602ZM160.096 223.509L172.255 220.628L171.794 218.682L159.635 221.563L160.096 223.509ZM171.032 219.774L175.19 254.341L177.176 254.102L173.018 219.536L171.032 219.774ZM176.385 255.201L183.933 253.649L183.53 251.69L175.982 253.242L176.385 255.201ZM184.725 252.55L180.551 217.856L178.565 218.095L182.739 252.788L184.725 252.55ZM179.79 218.948L191.822 216.082L191.358 214.137L179.326 217.002L179.79 218.948ZM190.597 215.229L194.832 250.431L196.818 250.192L192.583 214.99L190.597 215.229ZM196.026 251.291L205.085 249.428L204.682 247.469L195.623 249.332L196.026 251.291ZM203.89 248.568L206.077 266.741L208.062 266.502L205.876 248.329L203.89 248.568ZM206.95 265.629L166.156 270.536L166.395 272.522L207.189 267.614L206.95 265.629ZM166.156 270.536C164.73 270.708 163.4 270.234 162.115 268.956L160.705 270.374C162.349 272.009 164.263 272.778 166.395 272.522L166.156 270.536ZM162.115 268.956C160.835 267.682 160.041 265.987 159.778 263.802L157.792 264.041C158.1 266.6 159.057 268.734 160.705 270.374L162.115 268.956ZM159.778 263.802L159.06 257.829L157.074 258.068L157.792 264.041L159.778 263.802ZM151.836 205.033L195.342 193.739L194.84 191.804L151.333 203.097L151.836 205.033ZM194.098 192.891L195.826 207.251L197.811 207.012L196.084 192.652L194.098 192.891ZM196.586 206.159L152.973 216.563L153.437 218.508L197.05 208.105L196.586 206.159ZM154.198 217.416L152.577 203.945L150.591 204.184L152.212 217.655L154.198 217.416ZM224.157 186.53L240.722 181.7L240.163 179.78L223.597 184.61L224.157 186.53ZM239.45 180.86L251.421 280.366L253.406 280.127L241.435 180.621L239.45 180.86ZM252.294 279.254L235.392 281.287L235.631 283.273L252.533 281.24L252.294 279.254ZM236.504 282.161L224.869 185.45L222.884 185.689L234.519 282.4L236.504 282.161ZM374.625 252.265L374.745 253.258L375.738 253.139L375.618 252.146L374.625 252.265ZM274.356 264.328L273.363 264.447L273.483 265.44L274.476 265.321L274.356 264.328ZM272.583 249.586L272.404 248.602L271.477 248.77L271.59 249.706L272.583 249.586ZM372.133 231.55L373.126 231.431L372.999 230.377L371.955 230.567L372.133 231.55ZM279.141 218.371L278.146 218.472L278.147 218.482L278.148 218.491L279.141 218.371ZM284.211 206.932L283.579 206.157L283.579 206.157L284.211 206.932ZM311.803 200.518L311.786 201.518L312.669 201.533L312.793 200.659L311.803 200.518ZM312.66 176.565L312.481 175.581L311.627 175.736L311.66 176.603L312.66 176.565ZM335.621 172.384L336.62 172.432L336.68 171.175L335.442 171.4L335.621 172.384ZM334.243 188.794L335.234 188.928L335.235 188.923L334.243 188.794ZM331.197 202.053L330.25 201.732L329.854 202.9L331.078 203.046L331.197 202.053ZM360.866 206.477L361.668 207.074L362.634 205.775L361.04 205.492L360.866 206.477ZM348.548 223.043L348.326 224.018L348.962 224.162L349.351 223.639L348.548 223.043ZM322.681 217.001L322.916 216.029L322.355 215.894L321.957 216.312L322.681 217.001ZM310.097 225.993L310.524 226.897L310.524 226.897L310.097 225.993ZM289.017 228.658L288.703 229.607L288.721 229.613L288.739 229.618L289.017 228.658ZM282.081 224.593L281.34 225.264L281.356 225.282L281.373 225.299L282.081 224.593ZM294.58 217.03L293.645 217.387L293.684 217.489L293.745 217.581L294.58 217.03ZM305.493 215.588L305.014 214.71L304.994 214.722L304.974 214.733L305.493 215.588ZM307.791 213.249L308.63 213.793L309.37 212.65L308.058 212.285L307.791 213.249ZM305.523 212.619L305.242 213.579L305.249 213.581L305.255 213.583L305.523 212.619ZM294.203 216.044L293.21 216.163L293.225 216.285L293.269 216.4L294.203 216.044ZM374.506 251.272L274.237 263.335L274.476 265.321L374.745 253.258L374.506 251.272ZM275.349 264.209L273.576 249.467L271.59 249.706L273.363 264.447L275.349 264.209ZM272.761 250.57L372.311 232.534L371.955 230.567L272.404 248.602L272.761 250.57ZM371.14 231.67L373.632 252.385L375.618 252.146L373.126 231.431L371.14 231.67ZM280.136 218.271C279.718 214.14 281.239 210.644 284.843 207.707L283.579 206.157C279.512 209.471 277.653 213.602 278.146 218.472L280.136 218.271ZM284.843 207.707C288.469 204.752 294.068 202.757 301.775 201.83L301.537 199.844C293.655 200.792 287.624 202.86 283.579 206.157L284.843 207.707ZM301.775 201.83C304.08 201.552 307.408 201.445 311.786 201.518L311.819 199.519C307.413 199.445 303.977 199.55 301.537 199.844L301.775 201.83ZM312.793 200.659C313.734 194.023 314.019 185.975 313.659 176.526L311.66 176.603C312.018 185.977 311.732 193.898 310.813 200.378L312.793 200.659ZM312.839 177.548L335.8 173.368L335.442 171.4L312.481 175.581L312.839 177.548ZM334.622 172.336C334.33 178.454 333.873 183.896 333.251 188.665L335.235 188.923C335.864 184.088 336.326 178.59 336.62 172.432L334.622 172.336ZM333.252 188.661C332.624 193.321 331.622 197.677 330.25 201.732L332.144 202.374C333.561 198.186 334.59 193.703 335.234 188.928L333.252 188.661ZM331.078 203.046C340.738 204.2 350.609 205.671 360.691 207.461L361.04 205.492C350.923 203.696 341.015 202.218 331.315 201.06L331.078 203.046ZM360.063 205.88L347.746 222.446L349.351 223.639L361.668 207.074L360.063 205.88ZM348.77 222.068C339.141 219.875 330.523 217.862 322.916 216.029L322.447 217.973C330.064 219.809 338.691 221.824 348.326 224.018L348.77 222.068ZM321.957 216.312C318.537 219.905 314.445 222.832 309.67 225.088L310.524 226.897C315.509 224.541 319.806 221.473 323.406 217.69L321.957 216.312ZM309.67 225.088C306.102 226.774 302.47 227.837 298.77 228.282L299.008 230.268C302.933 229.795 306.773 228.67 310.524 226.897L309.67 225.088ZM298.77 228.282C295.234 228.707 292.081 228.503 289.294 227.697L288.739 229.618C291.829 230.512 295.258 230.719 299.008 230.268L298.77 228.282ZM289.33 227.708C286.584 226.802 284.417 225.52 282.79 223.887L281.373 225.299C283.264 227.196 285.721 228.624 288.703 229.607L289.33 227.708ZM282.823 223.921C281.264 222.2 280.382 220.315 280.134 218.252L278.148 218.491C278.451 221.002 279.529 223.265 281.34 225.264L282.823 223.921ZM293.745 217.581C294.781 219.15 296.6 219.599 298.726 219.343L298.487 217.357C296.715 217.571 295.85 217.139 295.414 216.479L293.745 217.581ZM298.726 219.343C300.874 219.085 303.311 218.086 306.013 216.442L304.974 214.733C302.39 216.305 300.235 217.147 298.487 217.357L298.726 219.343ZM305.973 216.465C306.976 215.917 307.852 214.992 308.63 213.793L306.951 212.705C306.279 213.743 305.624 214.377 305.014 214.71L305.973 216.465ZM308.058 212.285L305.791 211.656L305.255 213.583L307.523 214.212L308.058 212.285ZM305.804 211.66C303.797 211.071 301.708 210.911 299.547 211.171L299.786 213.156C301.692 212.927 303.507 213.07 305.242 213.579L305.804 211.66ZM299.547 211.171C297.744 211.387 296.209 211.891 295.004 212.74L296.156 214.375C297.011 213.773 298.2 213.347 299.786 213.156L299.547 211.171ZM295.004 212.74C293.792 213.594 293.039 214.742 293.21 216.163L295.196 215.924C295.143 215.482 295.308 214.972 296.156 214.375L295.004 212.74ZM293.269 216.4L293.645 217.387L295.514 216.673L295.137 215.687L293.269 216.4ZM461.486 255.094L460.493 255.214L460.613 256.207L461.605 256.087L461.486 255.094ZM449.851 158.384L449.6 157.416L448.754 157.635L448.858 158.503L449.851 158.384ZM470.23 153.096L471.222 152.976L471.086 151.841L469.978 152.128L470.23 153.096ZM475.397 196.05L474.404 196.17L474.538 197.28L475.627 197.023L475.397 196.05ZM485.426 193.683L486.419 193.564L486.285 192.453L485.197 192.71L485.426 193.683ZM486.756 204.74L486.974 205.716L487.857 205.519L487.749 204.62L486.756 204.74ZM476.712 206.979L476.494 206.003L475.611 206.2L475.719 207.099L476.712 206.979ZM482.201 252.602L482.32 253.595L483.313 253.476L483.194 252.483L482.201 252.602ZM386.739 176.032L386.489 175.064L385.642 175.283L385.747 176.152L386.739 176.032ZM430.5 164.708L431.493 164.589L431.356 163.454L430.25 163.74L430.5 164.708ZM432.243 179.196L432.47 180.17L433.343 179.967L433.236 179.076L432.243 179.196ZM405.907 185.329L405.68 184.356L404.807 184.559L404.914 185.449L405.907 185.329ZM407.467 198.292L406.474 198.411L406.605 199.498L407.675 199.27L407.467 198.292ZM433.864 192.667L434.857 192.547L434.726 191.461L433.655 191.689L433.864 192.667ZM435.607 207.154L435.82 208.131L436.708 207.938L436.599 207.035L435.607 207.154ZM409.225 212.907L409.012 211.93L408.123 212.123L408.232 213.026L409.225 212.907ZM410.845 226.378L409.853 226.497L409.98 227.558L411.031 227.36L410.845 226.378ZM446.774 219.606L447.767 219.486L447.639 218.425L446.589 218.623L446.774 219.606ZM448.975 237.906L449.095 238.899L450.088 238.779L449.968 237.786L448.975 237.906ZM398.207 240.275L397.589 241.061L397.589 241.061L398.207 240.275ZM462.479 254.975L450.844 158.264L448.858 158.503L460.493 255.214L462.479 254.975ZM450.102 159.352L470.481 154.064L469.978 152.128L449.6 157.416L450.102 159.352ZM469.237 153.215L474.404 196.17L476.39 195.931L471.222 152.976L469.237 153.215ZM475.627 197.023L485.656 194.657L485.197 192.71L475.167 195.077L475.627 197.023ZM484.433 193.803L485.764 204.859L487.749 204.62L486.419 193.564L484.433 193.803ZM486.539 203.763L476.494 206.003L476.93 207.955L486.974 205.716L486.539 203.763ZM475.719 207.099L481.208 252.722L483.194 252.483L477.705 206.86L475.719 207.099ZM482.081 251.609L461.367 254.102L461.605 256.087L482.32 253.595L482.081 251.609ZM386.99 177.001L430.751 165.676L430.25 163.74L386.489 175.064L386.99 177.001ZM429.507 164.828L431.25 179.315L433.236 179.076L431.493 164.589L429.507 164.828ZM432.016 178.222L405.68 184.356L406.134 186.303L432.47 180.17L432.016 178.222ZM404.914 185.449L406.474 198.411L408.459 198.173L406.9 185.21L404.914 185.449ZM407.675 199.27L434.072 193.645L433.655 191.689L407.258 197.314L407.675 199.27ZM432.871 192.786L434.614 207.274L436.599 207.035L434.857 192.547L432.871 192.786ZM435.394 206.177L409.012 211.93L409.438 213.884L435.82 208.131L435.394 206.177ZM408.232 213.026L409.853 226.497L411.838 226.258L410.218 212.787L408.232 213.026ZM411.031 227.36L446.959 220.588L446.589 218.623L410.66 225.395L411.031 227.36ZM445.781 219.725L447.983 238.025L449.968 237.786L447.767 219.486L445.781 219.725ZM448.856 236.913L407.427 241.897L407.666 243.883L449.095 238.899L448.856 236.913ZM407.427 241.897C404.216 242.283 401.368 241.486 398.824 239.488L397.589 241.061C400.55 243.386 403.929 244.332 407.666 243.883L407.427 241.897ZM398.824 239.488C396.28 237.49 394.83 234.913 394.444 231.703L392.458 231.942C392.908 235.679 394.628 238.736 397.589 241.061L398.824 239.488ZM394.444 231.703L387.732 175.913L385.747 176.152L392.458 231.942L394.444 231.703Z" fill="black"/>
</g>
</svg>
