<svg width="121" height="112" viewBox="0 0 121 112" fill="none" xmlns="http://www.w3.org/2000/svg">
<path d="M16.6246 12.0598L94.095 6.84626C102.947 6.25056 110.537 13.04 110.876 21.8577L112.564 65.7227C112.872 73.7131 107.081 80.6602 99.1283 81.841L82.9747 84.235L88.9343 101.36L60.8155 87.53L34.6128 91.4208C26.8849 92.5683 19.486 87.9094 17.2285 80.4731L2.5864 32.2416C-0.341174 22.5981 6.51593 12.74 16.6246 12.0598Z" fill="black"/>
<path d="M30.7599 29.8369C34.5456 29.339 37.6443 30.8817 38.036 33.7851C38.3765 36.449 36.3645 38.526 33.2443 39.2909L33.6403 42.3021L40.5147 41.398L40.7821 43.4313L24.6515 45.5527L24.3841 43.5195L31.181 42.6256L30.785 39.6144C27.5911 39.67 25.1202 38.1826 24.7713 35.5297C24.3893 32.625 26.9741 30.3348 30.7599 29.8369ZM27.2113 35.2088C27.4557 37.0678 29.3058 37.8784 31.776 37.5634C34.2534 37.2277 35.8309 35.9663 35.5961 34.106C35.3547 32.3451 33.497 31.4764 31.0196 31.8121C28.5494 32.1271 26.9795 33.4466 27.2113 35.2088ZM54.4623 29.4185L54.7196 31.3743L42.4618 32.9864L41.764 27.6805L44.2233 27.3571L44.6639 30.7071L54.4623 29.4185ZM40.8605 36.3883L40.6033 34.4325L56.7339 32.311L56.9911 34.2668L40.8605 36.3883ZM43.0898 39.1091L42.8402 37.2114L55.1948 35.5866L55.8111 40.2728L45.9739 41.5665L46.1216 42.6897L56.501 41.3246L56.7506 43.2223L43.8925 44.9134L43.2609 40.111L53.1175 38.8147L52.985 37.8077L43.0898 39.1091ZM66.0552 25.7466L67.1681 34.2089L58.7058 35.3218L57.5929 26.8595L66.0552 25.7466ZM61.712 42.4516L60.9607 36.7391L63.42 36.4157L63.9115 40.153L73.5163 38.8898L73.776 40.865L61.712 42.4516ZM60.8911 33.0644L64.4735 32.5933L63.875 28.0426L60.2926 28.5138L60.8911 33.0644ZM70.0726 36.8212L68.3816 23.9632L70.8602 23.6372L71.5275 28.7107L73.9093 28.3974L74.1767 30.4307L71.7949 30.7439L72.5513 36.4952L70.0726 36.8212ZM82.086 22.4169C86.1429 21.8833 88.626 22.6402 88.8904 24.5754C89.1392 26.5422 86.9349 27.9057 82.878 28.4392C78.8115 28.9741 76.3102 28.2294 76.0517 26.2639C75.7971 24.3275 78.0195 22.9517 82.086 22.4169ZM75.2085 32.2846L74.9513 30.3288L91.0238 28.215L91.281 30.1708L75.2085 32.2846ZM77.4393 34.8674L77.2025 33.0665L89.4602 31.4544L90.0511 35.9469L80.2333 37.2381L80.3733 38.3032L90.6559 36.9509L90.9004 38.8099L78.1973 40.4805L77.586 35.833L87.3845 34.5444L87.2571 33.5762L77.4393 34.8674ZM78.6466 25.9226C78.7502 26.7856 80.0535 26.959 82.6386 26.619C85.2432 26.2764 86.4476 25.7733 86.3343 24.9116C86.2311 24.1273 84.9274 23.8752 82.3229 24.2178C79.7377 24.5578 78.5338 25.1397 78.6466 25.9226ZM46.5973 55.0693L48.9149 72.691L46.4168 73.0195L44.0993 55.3978L46.5973 55.0693ZM33.5021 69.6355C37.77 66.8876 39.4075 63.8355 39.29 59.8717L33.287 60.6612L33.0324 58.7247L41.5528 57.6042C42.246 62.95 40.9618 67.6399 35.0592 71.4401L33.5021 69.6355ZM62.8248 52.9351L63.6856 59.4803L66.2804 59.139L66.5453 61.1529L63.9504 61.4942L65.1474 70.5955L62.6688 70.9215L60.3461 53.2611L62.8248 52.9351ZM51.378 68.0528L49.8321 56.2986L58.1007 55.2111L58.3631 57.2057L52.5537 57.9697L53.5699 65.6961C56.1234 65.3406 58.2163 64.9274 60.506 64.2126L61.0496 66.249C58.3706 67.0741 55.9783 67.4577 52.8691 67.8567L51.378 68.0528ZM80.7976 50.5911L82.5039 63.5653L80.0446 63.8887L78.3383 50.9145L80.7976 50.5911ZM67.3813 55.5271L67.1216 53.5519L75.2934 52.4772L76.032 58.0929L70.3001 58.8468L70.5573 60.8026C73.7124 60.3778 75.6942 60.0186 77.9219 59.2824L78.4528 61.2219C75.9507 62.0435 73.6784 62.4408 69.9507 62.9311L68.4016 63.1348L67.6401 57.3448L73.3333 56.5961L73.0939 54.7758L67.3813 55.5271ZM71.2207 69.4422L70.5102 64.0395L72.9695 63.716L73.4203 67.1436L83.2768 65.8473L83.5366 67.8224L71.2207 69.4422ZM87.4441 51.549L88.4835 61.3999L86.0049 61.7259L84.4619 51.9412L87.4441 51.549ZM85.9986 64.524C85.8621 63.6358 86.5024 62.8129 87.4138 62.7028C88.2743 62.5798 89.1153 63.2079 89.2325 64.0987C89.3509 64.9992 88.7009 65.8234 87.8391 65.9367C86.929 66.0564 86.0977 65.427 85.9986 64.524Z" fill="white"/>
</svg>
