<svg width="405" height="443" viewBox="0 0 405 443" fill="none" xmlns="http://www.w3.org/2000/svg">
<g clip-path="url(#clip0_195_514)">
<path d="M306.886 235.227L278.037 264.105C275.964 266.068 273.89 268.03 271.817 269.975C273.594 272.25 275.389 274.524 277.166 276.782C279.274 276.243 281.381 275.705 283.489 275.184C283.559 275.271 287.949 280.55 288.019 280.637C288.019 280.637 289.691 282.651 289.709 282.669C291.172 282.356 292.635 282.026 294.099 281.713C300.823 290.413 307.565 299.096 314.289 307.796L387.98 289.441L403.867 257.767C399.408 248.251 394.948 238.735 390.488 229.219C391.115 228.281 391.725 227.344 392.352 226.406C391.377 223.645 390.384 220.901 389.408 218.14C390.419 216.768 391.429 215.396 392.457 214.007C391.499 210.864 390.541 207.721 389.582 204.561C362.023 214.771 334.463 224.982 306.903 235.193L306.886 235.227Z" fill="#F6819B"/>
<path d="M308.001 234.134L271.817 269.993L360.995 242.417L389.565 204.596L308.001 234.134Z" stroke="black" stroke-width="2" stroke-linecap="round" stroke-linejoin="round"/>
<path d="M326.083 257.368L299.046 222.655L324.968 192.961L359.096 215.64" stroke="black" stroke-width="2" stroke-linecap="round" stroke-linejoin="round"/>
<path d="M283.489 275.202L289.935 282.964L370.768 259.017L392.352 226.423L389.756 218.574" stroke="black" stroke-width="2" stroke-linecap="round" stroke-linejoin="round"/>
<path d="M389.565 204.596L392.439 214.042L365.367 250.769L277.166 276.8L271.817 269.993" stroke="black" stroke-width="2" stroke-linecap="round" stroke-linejoin="round"/>
<path d="M360.995 242.417L388.154 289.771" stroke="black" stroke-width="2" stroke-linecap="round" stroke-linejoin="round"/>
<path d="M298.611 264.123L291.834 225.989L322.077 193.517L334.254 224.635" stroke="black" stroke-width="2" stroke-linecap="round" stroke-linejoin="round"/>
<path d="M293.541 281.887L314.585 308.178L388.154 289.771L404.129 258.358L390.488 229.236" stroke="black" stroke-width="2" stroke-linecap="round" stroke-linejoin="round"/>
<path d="M48.4121 76.1461L206.419 81.6681C204.991 75.764 203.545 66.8037 204.573 55.9505C205.531 45.7225 208.336 37.5956 210.687 32.1777C210.879 37.1962 212.011 49.126 220.147 61.2295C227.951 72.8293 238.003 78.3862 242.567 80.5568C253.438 78.4382 264.309 76.3371 275.179 74.2185C276.869 77.3269 277.827 81.3903 279.099 85.9573C282.252 97.2793 281.015 107.143 279.778 112.925C279.465 117.683 278.019 129.509 269.378 141.074C260.075 153.525 248.02 158.213 243.543 159.707C243.177 159.794 240.129 160.992 239.763 161.061C222.516 164.777 207.935 167.365 177.1 167.955C164.766 170.108 123.165 168.146 82.4524 160.488C68.9513 157.953 60.8157 146.527 53.7777 139.529C51.1646 135.048 48.3076 129.144 46.2171 121.903C42.8026 110.129 44.0569 100.058 44.6666 93.2333C45.7293 87.5723 46.7745 81.7723 48.4469 76.1287L48.4121 76.1461Z" fill="#FFE6E9"/>
<path d="M55.1371 169.64C61.6351 168.876 71.3908 168.025 77.9411 167.244C85.1707 166.375 91.1809 165.16 98.3583 164.257C102.923 164.743 108.793 165.524 113.549 165.941C117.974 166.323 122.765 166.514 127.033 166.792C128.444 170.908 130.186 175.405 132.277 180.337C135.848 188.724 141.806 196.73 146.196 201.817C149.819 196.139 153.025 190.252 156.648 184.574C158.338 186.102 160.394 188.238 162.084 189.766C163.652 188.394 165.463 185.355 167.049 183.984C171.561 189.176 175.968 195.566 180.846 200.48C183.111 197.094 186.874 191.52 189.016 186.293C191.821 179.503 191.995 172.505 192.692 167.678C197.57 167.192 202.796 167.209 207.674 166.723C214.486 166.132 220.374 165.038 227.203 164.448C234.328 165.038 242.376 166.132 249.484 166.723C253.874 167.799 258.473 167.712 262.881 168.789C260.024 174.711 256.574 184.175 254.78 194.455C252.533 207.253 253.421 219.547 254.606 226.823C249.397 223.767 242.638 220.554 237.429 217.481C242.324 222.447 249.728 228.386 254.606 233.352C247.986 234.62 239.833 235.349 233.701 235.627C227.273 235.905 213.893 234.151 198.406 227.275C184.034 220.884 174.435 211.959 169.017 206.002C172.031 211.212 177.884 219.703 188.041 227.032C200.479 236.009 212.866 238.545 219.12 239.378C199.87 248.512 183.25 251.568 171.839 253.982C138.2 261.136 132.381 258.896 105.431 262.942C91.2332 264.887 72.2096 268.447 59.6143 269.246C57.2799 269.402 51.2697 270.114 46.5835 266.902C41.4966 263.429 42.176 255.875 41.8799 252.767C46.6706 252.819 52.0537 251.829 59.7363 249.537C68.708 246.862 75.3453 242.764 79.5089 239.708C82.0349 237.642 87.0696 232.901 89.9614 225.069C93.8114 214.633 91.3028 205.516 90.3447 202.582C91.1983 201.87 92.7488 200.359 93.6198 197.98C93.794 196.382 93.7069 194.941 93.5153 193.691C91.8255 182.924 79.7528 177.367 77.6101 176.412C71.4605 173.235 61.67 171.515 55.1371 169.64Z" fill="#FFC738"/>
<path d="M81.1465 160.628C80.5716 164.257 61.4784 168.633 51.0781 159.898C45.486 155.21 43.9356 148.021 41.0089 134.441C39.563 127.756 38.9358 122.129 38.6396 118.344C40.8695 118.153 43.0994 117.962 45.3293 117.788C47.2978 127.825 51.5659 139.755 61.5132 148.403C71.3212 156.929 81.5821 157.901 81.1465 160.628Z" fill="#515BEE"/>
<path d="M42.7332 68.7142C44.9283 69.7908 47.1407 70.8848 49.3357 71.9788C49.0744 73.2812 48.8131 74.5836 48.5692 75.886C101.058 77.5878 153.565 79.3069 206.054 81.0087C204.73 74.0974 203.667 63.9736 205.461 52.0264C206.646 44.1253 208.789 37.4918 210.879 32.4039C211.28 38.3601 213.301 56.1245 227.429 70.1729C232.864 75.5734 238.596 78.9422 243.108 81.026C254.362 78.7339 265.633 76.4417 276.887 74.1321L283.054 71.1801C276.521 58.2778 259.675 30.2332 226.279 13.667C201.228 1.21623 178.058 0.434806 166.177 0.868933C142.799 0.469536 124.176 4.42877 111.79 8.0407C95.3094 12.8508 81.4598 17.0532 67.8193 29.1219C52.1579 42.9966 45.5554 59.6149 42.7158 68.6969L42.7332 68.7142Z" fill="#515BEE"/>
<path d="M278.734 118.899L284.709 120.288C285.598 125.099 288.071 134.823 295.876 144.096C306.537 156.772 320.178 160.35 324.742 161.339C315.805 161.791 304.046 163.319 290.946 167.66C281.713 170.717 273.978 174.45 267.811 177.975C267.393 176.464 266.591 174.328 265.006 172.14C264.083 170.855 263.125 169.866 262.271 169.119C258.247 168.494 254.188 167.903 250.094 167.313C242.429 166.219 234.868 165.212 227.395 164.291C232.656 163.649 250.669 160.784 264.797 145.364C273.995 135.327 277.392 124.508 278.716 118.882L278.734 118.899Z" fill="#515BEE"/>
<path d="M50.1195 73.1072C49.2311 72.4473 39.9457 65.7617 29.7371 69.3563C18.1174 73.4545 16.114 87.0339 15.8004 89.986C15.5565 92.2261 14.4939 104.416 24.0753 112.508C32.7161 119.819 43.2731 118.083 44.7539 117.805C44.0222 112.126 43.6215 104.764 44.5448 96.2548C45.5727 86.7214 47.9245 78.855 50.1195 73.1072Z" fill="#FFE6E9"/>
<path d="M276.904 74.1147C279.274 72.6039 284.569 69.756 291.155 70.3985C302.182 71.4752 311.38 81.7727 312.425 93.2162C313.279 102.611 308.645 112.561 299.778 117.458C290.597 122.546 281.312 119.733 279.605 119.194C280.632 113.429 281.434 105.962 280.981 97.297C280.493 87.9025 278.699 80.0188 276.904 74.1147Z" fill="#FFE6E9"/>
<path d="M10.1563 207.652C14.7903 199.959 19.9643 194.698 24.0756 191.225C29.5109 186.64 34.3539 184.088 40.8345 180.702C46.2175 177.871 52.8374 174.815 60.642 172.036C56.1822 171.133 44.7367 169.327 32.9777 173.686C26.2009 176.187 21.2883 180.007 20.5566 180.58C18.6751 182.073 15.9401 184.227 13.7973 187.283C8.5362 194.785 9.49435 203.867 10.1563 207.687V207.652Z" fill="#4D4D4D"/>
<path d="M175.829 214.389C183.895 220.936 201.856 233.508 227.343 235.801C237.499 236.721 246.349 235.766 253.282 234.394C250.53 237.763 245.791 242.729 238.562 246.775C229.346 251.933 220.705 253.009 216.002 253.235C212.03 250.96 208.075 248.685 204.103 246.411C209.295 244.292 214.503 242.156 219.695 240.038C215.897 239.534 211.664 238.648 207.187 237.103C191.072 231.563 180.933 220.815 175.847 214.372L175.829 214.389Z" fill="#4D4D4D"/>
<path d="M262.689 169.97L258.665 181.986C261.435 182.247 264.187 182.507 266.957 182.768C267.236 181.674 267.776 178.861 266.626 175.596C265.546 172.505 263.578 170.699 262.689 169.97Z" fill="#4D4D4D"/>
<path d="M146.457 168.338L158.46 182.612L156.718 185.043L162.24 189.558L166.247 184.956L165.934 182.838L177.954 168.442L146.457 168.338Z" fill="#FFE6E9"/>
<path d="M303.872 384.689C303.872 384.001 304 381.001 304 380.001C300.5 378.001 298.214 376.689 292.5 374.501C285.828 371.931 278.559 371.144 274.082 370.692C273.072 370.988 269.361 370.953 268.351 371.265L303.889 384.706L303.872 384.689Z" fill="#4D4D4D"/>
<path d="M61.374 171.255C57.0014 172.748 50.2595 175.37 42.6466 179.746C29.7726 187.127 10.2786 198.258 7.97907 216.977C7.73518 218.905 6.56798 229.984 13.4666 239.447C26.1664 256.882 57.855 256.986 75.9378 243.789C76.0772 243.685 76.3037 243.528 76.565 243.32C79.1781 241.358 91.2159 232.293 92.5573 218.175C92.8186 215.466 92.8535 210.674 90.5539 204.735C91.7734 203.172 93.6548 200.272 93.8465 196.538C94.4039 185.737 80.3627 177.993 77.1921 176.239C74.0912 174.537 68.7778 172.123 61.374 171.272V171.255Z" fill="#FFE6E9"/>
<path d="M258.839 181.448C262.01 181.952 266.975 182.629 273.089 182.924C278.054 183.167 281.347 183.046 283.298 183.028C291.747 182.942 306.084 182.803 316.52 191.138C318.697 192.874 326.206 198.883 326.519 208.138C326.554 209.007 326.728 217.446 320.701 222.499C318.296 224.514 315.718 225.312 314.028 225.833C311.642 226.58 311.015 226.337 302.548 226.823C302.548 226.823 293.994 227.309 290.057 228.681C288.751 229.133 287.444 229.688 287.444 229.688C286.556 230.07 285.946 230.366 285.65 230.487C281.713 232.258 273.542 232.189 254.797 223.628C253.979 217.793 253.473 210.101 254.449 201.175C255.303 193.291 257.062 186.623 258.839 181.466V181.448Z" fill="#FFE6E9"/>
<path d="M179.19 313.77C180.462 313.128 184.103 311.079 186.333 306.65C188.18 302.969 188.092 299.566 187.971 298.089C190.27 294.252 193.998 289.042 199.695 284.006C205.966 278.467 212.186 275.272 216.523 273.466C224.363 279.821 233.056 287.896 241.714 297.968C254 315.001 264.577 330.033 270.5 342.501C266.04 343.057 259.187 343.829 252.097 347.545C241.557 353.085 235.46 360.829 232.585 365.084C222.812 362.149 213.039 359.197 203.266 356.262C200.252 348.865 197.935 343.03 196.507 339.401C192.988 330.493 191.873 327.367 189.016 323.408C185.619 318.702 181.838 315.611 179.225 313.787L179.19 313.77Z" fill="#FFE6E9"/>
<path d="M88.9512 305.591C92.3482 300.173 101.965 286.437 120.448 278.467C135.151 272.129 148.339 272.528 154.802 273.136C155.429 273.622 156.283 274.351 157.258 275.272C158.478 276.435 160.046 278.085 162.345 281.28C163.652 283.086 165.638 285.847 167.432 289.303C169.314 292.915 170.864 297.013 172.101 302.986C175.411 319.014 175.045 334.07 176.926 346.208C153.164 339.297 126.685 339.436 104.282 340.095C104.282 334.851 105.553 316.34 105.536 311.096C102.574 310.627 99.0727 309.828 95.2575 308.404C92.8883 307.519 90.7804 306.546 88.9512 305.574V305.591Z" fill="#FFE6E9"/>
<path d="M246 360.002C244.153 359.307 240.347 358.196 238.5 357.501C251.5 343.951 269 341.001 282.967 343.951C298 348.501 303.467 362.22 305 365.502C300.767 362.532 287.832 355.306 271.5 354.501C259 353.885 251 358.001 246 360.002Z" fill="#F6819B"/>
<path d="M173.948 314.621C173.948 314.621 173.948 314.656 173.965 314.639C174.784 314.326 186.142 313.77 187.71 302.778C189.104 292.95 183.825 284.285 179.174 280.447C175.01 277.009 170.376 275.758 167.031 274.855C161.735 273.414 157.136 273.31 154.07 273.466C157.38 276.383 159.871 279.214 161.683 281.506C165.655 286.525 167.85 290.953 168.634 292.568C173.198 301.91 173.617 309.464 173.948 314.621Z" fill="#4D4D4D"/>
<path d="M216.227 274.265C222.481 278.693 229.972 284.84 237.463 293.089C245.547 301.997 251.191 310.679 255.076 317.73C257.236 315.871 264.988 308.787 266.347 297.187C267.445 287.757 264.344 275.203 254.919 269.698C247.045 265.079 237.847 267.215 230.042 269.021C224.102 270.392 219.398 272.546 216.21 274.282L216.227 274.265Z" fill="#4D4D4D"/>
<path opacity="0.4" d="M93.951 164.447C126.336 175.23 163.06 182.767 203.389 183.427C207.239 183.496 211.037 183.496 214.799 183.427C215.096 181.395 216.158 176.133 220.583 171.601C227.221 164.811 236.07 165.158 237.481 165.245C233.962 165.297 230.443 164.394 226.924 164.447C209.713 166.235 190.968 168.388 170.899 168.597C142.642 168.892 116.825 167.155 93.9336 164.447H93.951Z" fill="black"/>
<path d="M106.5 311.459C101.012 309.341 94.456 307.708 88.951 305.59C87.749 307.552 86.5469 309.497 85.3623 311.459C88.5503 313.161 95.5 314.5 101.5 315.5C103.5 316 104.415 315.726 106 315.5C106.035 314.441 105.983 313.559 106 312.5L106.5 311.459Z" fill="#4D4D4D"/>
<path opacity="0.4" d="M79.2824 241.201C78.603 243.545 77.401 248.894 79.1431 255.319C80.5716 260.632 83.3415 264.21 84.9442 265.998C84.3345 266.641 83.6899 267.509 83.2021 268.638C81.4426 272.701 83.2544 276.712 83.6899 277.615C84.9268 279.873 87.4528 283.728 91.9648 286.975C95.3445 289.406 98.6196 290.622 100.867 291.247C97.5743 293.887 93.6024 297.603 89.822 302.656C87.1741 306.181 85.2229 309.567 83.7596 312.519C79.8399 311.061 63.9695 304.618 56.3566 287.791C53.0118 280.411 52.402 273.569 52.4369 269.02C50.4858 268.325 48.552 267.631 46.6009 266.919C45.2247 265.008 43.8484 263.116 42.4722 261.206C42.3154 258.861 42.1412 256.517 41.9844 254.155C46.6357 254.242 53.9699 253.808 62.3494 250.804C70.1713 248.008 75.8331 244.049 79.3173 241.184L79.2824 241.201Z" fill="black"/>
<path opacity="0.4" d="M258.143 77.6042C260.581 83.352 268.072 103.027 260.181 124.49C251.087 149.218 225.304 166.288 195.184 167.086C199.957 166.913 206.612 166.513 214.521 165.558C222.482 164.586 228.98 163.787 235.374 161.998C241.314 160.331 258.247 155.573 269.623 140.257C277.48 129.682 279.065 118.933 280.075 112.178C282.619 95.0039 278.595 81.0598 275.929 73.8359C270.006 75.0862 264.083 76.3365 258.16 77.5868L258.143 77.6042Z" fill="#EDC3CB"/>
<path opacity="0.4" d="M280.667 111.501C281.399 111.692 293.75 114.592 302.705 105.979C309.638 99.3282 311.589 88.6313 307.443 79.3584C314.951 90.09 314.011 104.173 305.84 112.734C299.377 119.506 289.186 121.955 279.604 119.194C279.953 116.624 280.301 114.054 280.667 111.501Z" fill="#EDC3CB"/>
<path opacity="0.4" d="M16.1836 98.6337C20.2427 103.305 26.6361 105.285 32.6115 103.722C38.7088 102.141 43.3775 97.1229 44.5099 90.9062C44.1963 94.8481 44.0221 99.2415 44.1615 104C44.3009 109.035 44.7364 113.654 45.3113 117.753C43.8305 118.135 35.364 120.149 27.0194 114.992C18.0476 109.435 16.4101 100.006 16.1836 98.6163V98.6337Z" fill="#EDC3CB"/>
<path opacity="0.4" d="M47.4198 80.6436C102.644 82.3107 157.868 83.9951 213.11 85.6621C211.002 79.4454 208.51 70.1899 207.988 58.7637C207.395 45.5141 209.678 34.7825 210.462 34.8172C211.42 34.8693 207.622 50.6021 214.66 64.8241C219.973 75.573 229.799 82.0328 238.753 86.0789C251.47 83.5262 264.205 80.9736 276.922 78.4209C276.73 77.0838 276.556 75.7641 276.365 74.4269C265.285 76.6149 254.205 78.8029 243.108 81.0083C238.805 79.1676 226.053 73.0551 217.865 58.5553C211.489 47.2506 211.071 36.519 211.193 31.6221C208.719 37.0573 205.671 45.3926 204.556 55.9679C203.441 66.63 204.73 75.4688 206.037 81.3209C153.635 79.6017 101.233 77.9 48.8483 76.1808C48.3605 77.6742 47.8901 79.1676 47.4023 80.661L47.4198 80.6436Z" fill="black"/>
<path opacity="0.4" d="M79.7179 178.044C79.7354 179.172 79.596 180.787 78.7772 182.454C76.3906 187.334 70.5371 188.202 69.8926 188.272C72.6799 188.88 77.9759 190.425 83.1673 194.697C87.6619 198.396 90.1008 202.528 91.3202 204.977C91.9125 203.657 94.6128 197.336 91.9474 190.008C88.8116 181.378 80.8155 178.408 79.7179 178.026V178.044Z" fill="#EDC3CB"/>
<path opacity="0.4" d="M7.125 227.413C19.459 241.756 38.8484 247.886 56.9138 243.163C83.5851 236.182 91.3722 209.683 91.6858 208.589C92.3478 213.034 92.853 221.231 88.9682 229.792C80.2577 248.963 57.4538 252.331 53.7432 252.87C48.9002 253.582 31.5142 256.152 18.1176 244.413C11.3931 238.526 8.43156 231.424 7.125 227.413Z" fill="#EDC3CB"/>
<path opacity="0.4" d="M105.657 287.166C112.782 293.279 119.907 299.408 127.05 305.521C127.869 317.069 128.688 328.616 129.524 340.164C121.109 340.147 112.695 340.129 104.281 340.112C104.943 330.492 105.622 320.872 106.284 311.251C102.33 310.209 98.1662 308.89 93.811 307.257C92.1037 306.615 90.4662 305.955 88.8809 305.278C91.8076 300.867 95.6924 295.97 100.866 291.212C102.487 289.719 104.089 288.382 105.675 287.166H105.657Z" fill="#EDC3CB"/>
<path opacity="0.4" d="M192.152 292.011C198.545 299.321 204.939 306.632 211.332 313.943C217.865 329.172 224.381 344.384 230.913 359.613C221.227 356.887 211.541 354.16 201.838 351.434C196.856 340.807 191.873 330.179 186.891 319.569C184.382 317.52 181.856 315.488 179.348 313.439C180.48 312.953 184.086 311.216 186.403 307.066C188.685 302.968 188.285 299.061 188.11 297.828C189.452 295.883 190.793 293.938 192.135 292.011H192.152Z" fill="#EDC3CB"/>
<path d="M253.961 212.913C260.598 216.299 270.458 220.137 282.758 220.936C289.848 221.387 305.004 222.377 318.871 213.139C322.233 210.899 324.724 208.589 326.414 206.853C326.78 208.433 327.216 211.472 326.136 214.91C324.306 220.71 319.446 223.436 317.895 224.322C314.725 226.11 311.955 226.475 308.157 226.979C302.356 227.76 300.718 226.84 295.788 227.447C290.336 228.125 286.991 229.896 284.848 230.695C279.5 232.674 270.476 232.57 254.466 222.915C254.292 219.581 254.135 216.247 253.961 212.913Z" fill="#EDC3CB"/>
<path opacity="0.4" d="M308.001 234.132L272.811 269.349C302.2 260.371 331.606 251.393 360.995 242.416C370.019 229.982 379.043 217.566 388.084 205.133C361.396 214.805 334.689 224.46 308.001 234.132Z" fill="black"/>
<path opacity="0.4" d="M272.322 270.217L287.914 265.477L294.917 271.19L304.133 268.602L315.421 275.409L289.935 282.963L283.489 275.201L277.165 276.799L272.322 270.217Z" fill="black"/>
<path opacity="0.6" d="M74.0033 40.2347C59.666 53.4669 52.1576 67.6194 48.4121 76.1457C55.1366 76.354 61.861 76.5798 68.5855 76.7882C70.1882 69.8421 73.0626 61.0033 78.4631 51.713C90.257 31.4133 107.138 20.89 115.813 16.3057C106.615 19.1014 89.9608 25.5091 74.0033 40.2347Z" fill="#3646D8"/>
<path opacity="0.6" d="M211.35 30.5281C217.831 51.2446 233.022 66.2828 250.878 68.7833C259.815 70.0336 267.532 67.8977 272.776 65.7271C274.152 68.5229 275.528 71.3186 276.905 74.1144C265.459 76.2677 254.014 78.4036 242.568 80.5568C238.317 78.8203 227.708 73.8192 219.817 62.1151C210.688 48.5878 211.071 34.8346 211.367 30.5107L211.35 30.5281Z" fill="#3646D8"/>
<path d="M233.143 363.711C238.7 355.88 246.331 349.628 255.302 346.138C261.156 343.863 268.019 342.3 275.441 342.752C281.137 343.099 284.778 344.488 285.963 344.974C297.844 349.785 303.14 360.881 304.795 364.771L304.028 386.008L233.073 363.815L233.126 363.729L233.143 363.711Z" stroke="black" stroke-width="2" stroke-linecap="round" stroke-linejoin="round"/>
<path d="M304.795 365.639C296.782 360.394 286.172 355.411 273.577 354.629C258.351 353.674 245.582 359.179 236.453 364.84" stroke="black" stroke-width="2" stroke-linecap="round" stroke-linejoin="round"/>
<path d="M303.959 380.087C299.464 377.326 294.621 375.12 289.586 373.54C284.552 371.96 279.326 371.005 274.047 370.692C271.451 370.536 268.751 370.415 266.173 370.744" stroke="black" stroke-linecap="round" stroke-linejoin="round"/>
<path d="M179.627 313.942C180.411 314.481 181.212 315.002 181.996 315.54C185.236 317.711 187.815 320.749 189.417 324.309C193.947 334.329 198.476 344.349 203.006 354.386" stroke="black" stroke-width="2" stroke-linecap="round" stroke-linejoin="round"/>
<path d="M216.054 273.864C220.252 276.921 224.52 280.376 228.736 284.283C242.255 296.786 250.93 309.688 256.313 319.309L270.703 342.665" stroke="black" stroke-width="2" stroke-linecap="round" stroke-linejoin="round"/>
<path d="M254.605 223.506C255.337 223.854 256.452 224.375 257.793 224.965C268.891 229.793 276.225 232.502 283.437 231.025C288.193 230.053 290.214 228.178 297.53 227.188C305.858 226.059 307.373 227.917 312.652 226.302C313.523 226.042 323.801 222.742 326.432 214.042C329.045 205.447 322.477 197.25 320.648 194.976C311.554 183.636 293.489 183.654 278.246 183.306C275.824 183.254 275.214 183.306 273.873 183.306C273.873 183.306 273.159 183.306 272.479 183.306C271.957 183.306 266.243 182.785 258.421 181.848" stroke="black" stroke-width="2" stroke-linecap="round" stroke-linejoin="round"/>
<path d="M61.3738 171.532C58.8478 172.435 56.2521 173.425 53.6389 174.554C38.0473 181.257 18.954 191.954 10.6094 206.801C7.97887 211.489 4.14628 222.256 8.93701 233.369C13.0135 242.833 20.1909 247.539 28.5006 250.439C35.0335 252.714 48.1688 255.614 62.2971 250.804C75.8157 246.219 93.9159 232.657 92.5397 214.233C91.7383 203.345 86.6689 195.67 77.4881 191.033C62.75 183.584 40.0332 186.657 27.1592 202.928" stroke="black" stroke-width="2" stroke-linecap="round" stroke-linejoin="round"/>
<path d="M88.9512 305.591C97.8532 309.62 105.257 311.078 106.285 311.269C105.989 315.454 105.675 319.639 105.379 323.842L104.264 340.443" stroke="black" stroke-width="2" stroke-linecap="round" stroke-linejoin="round"/>
<path d="M153.6 273.083C165.428 282.078 172.919 297.255 173.599 314.36L176.351 346.051" stroke="black" stroke-width="2" stroke-linecap="round" stroke-linejoin="round"/>
<path d="M58.0986 269.402C58.7606 273.222 60.5201 280.377 65.8161 287.687C71.1991 295.137 77.6274 299.096 81.0767 300.919C82.5401 299.374 84.0034 297.811 85.4668 296.266C82.1743 294.703 75.6763 291.073 70.4152 283.78C66.3039 278.067 64.6663 272.493 63.952 269.124" fill="#515BEE"/>
<path d="M58.0986 269.402C58.7606 273.222 60.5201 280.377 65.8161 287.687C71.1991 295.137 77.6274 299.096 81.0767 300.919C82.5401 299.374 84.0034 297.811 85.4668 296.266C82.1743 294.703 75.6763 291.073 70.4152 283.78C66.3039 278.067 64.6663 272.493 63.952 269.124" stroke="black" stroke-width="2" stroke-linecap="round" stroke-linejoin="round"/>
<path d="M204.189 245.837C210.234 250.908 215.931 254.519 220.426 257.02C223.98 259 229.694 262.125 237.847 264.643C242.829 266.171 247.184 267.005 250.442 267.456" stroke="black" stroke-width="2" stroke-linecap="round" stroke-linejoin="round"/>
<path d="M84.5439 311.721C85.8505 312.294 89.4566 313.127 92.2962 313.839C95.432 314.621 104.77 316.67 105.954 315.784" stroke="black" stroke-width="2" stroke-linecap="round" stroke-linejoin="round"/>
<path d="M52.4199 269.002C52.2631 280.411 54.7891 288.451 63.8828 297.585C71.1473 304.878 78.464 309.636 84.0387 312.675C85.3975 310.036 87.5055 306.389 90.5367 302.395C93.1498 298.957 110.222 277.216 140.151 273.586C143.235 273.204 171.648 270.079 182.414 284.075C186.891 289.909 187.536 296.595 187.536 296.595C187.815 299.547 188.337 305.034 184.54 309.445C180.637 313.995 175.772 314.465 174.5 314.5" stroke="black" stroke-width="2" stroke-linecap="round" stroke-linejoin="round"/>
<path d="M255.285 317.312C261.417 312.345 265.372 305.417 266.138 297.533C266.626 292.514 265.738 287.131 264.344 282.286C263.194 278.327 261.295 274.507 258.299 271.659C252.55 266.172 244.885 266.328 237.516 267.439C227.342 268.985 217.447 272.128 208.719 277.65C198.075 284.388 191.769 292.532 187.884 298.54" stroke="black" stroke-width="2" stroke-linecap="round" stroke-linejoin="round"/>
<path d="M157.938 264.331L176.404 278.796" stroke="black" stroke-width="2" stroke-linecap="round" stroke-linejoin="round"/>
<path d="M103.41 332.621C81.9675 333.492 50.1672 337.181 12.5536 351.036C11.2573 351.512 10.8955 353.216 11.8957 354.169C40.7921 381.911 68.4388 398.031 87.7276 407.399C140.158 432.876 188.11 436.352 238.112 439.98C268.702 442.195 295.137 441.949 315.607 441.013C321.253 440.748 324.753 434.763 322.154 429.734L317.85 421.389C316.176 418.144 317.015 414.151 319.848 411.855L327.147 405.933C331.523 402.373 330.775 395.504 325.699 392.997C307.338 383.934 283.2 373.131 254.289 362.93C207.014 346.239 161.71 330.253 103.429 332.604L103.41 332.621Z" fill="#515BEE" stroke="black" stroke-width="2" stroke-linecap="round" stroke-linejoin="round"/>
<path opacity="0.4" d="M14.0003 350.5C31.0949 343.993 48.1845 339.223 73.1993 335.552C87.1996 333.502 100.202 332.604 111.915 332.407C152 377.5 222.643 405.483 278.007 442.021C255.349 440.608 232.673 439.211 210.016 437.798C185.114 436.624 145.896 431.799 102.002 412.995C58.1936 394.23 28.9854 369.681 11.0004 352.5L14.0003 350.5Z" fill="url(#paint0_linear_195_514)"/>
<path d="M177.5 390C125.133 372.209 69.5 337 69.5 337L39.5 342L11.5 352.5C11.5 352.5 62 406.5 132.5 425C203 443.5 319.5 440 319.5 440C319.5 440 330 415.5 319.5 404C319.5 404 255.5 416.5 177.5 390Z" fill="url(#paint1_linear_195_514)" fill-opacity="0.54"/>
<path d="M103.41 332.621C81.9675 333.492 50.1672 337.181 12.5536 351.036C11.2573 351.512 10.8955 353.216 11.8957 354.169C40.7921 381.911 68.4388 398.031 87.7276 407.399C140.158 432.876 188.11 436.352 238.112 439.98C268.702 442.195 295.137 441.949 315.607 441.013C321.253 440.748 324.753 434.763 322.154 429.734L317.85 421.389C316.176 418.144 317.015 414.151 319.848 411.855L327.147 405.933C331.523 402.373 330.775 395.504 325.699 392.997C307.338 383.934 283.2 373.131 254.289 362.93C207.014 346.239 161.71 330.253 103.429 332.604L103.41 332.621Z" stroke="black" stroke-width="2" stroke-linecap="round" stroke-linejoin="round"/>
<path d="M72.7422 335.982C74.8077 345.888 81.939 373.234 106.321 389.422C132.73 406.959 163.146 400.543 188.151 395.272C203.218 392.092 229.207 384.505 257.057 364.108" stroke="black" stroke-width="2" stroke-miterlimit="10"/>
<path d="M104.94 332.347C109.624 347.96 117.564 356.5 122.688 360.886C146.735 381.456 189.822 379.515 228.963 354.328" stroke="black" stroke-width="2" stroke-miterlimit="10"/>
<path d="M131.188 333.101C133.884 337.195 142.189 348.638 157.709 353.721C178.86 360.659 197.352 350.517 203.693 346.357" stroke="black" stroke-width="2" stroke-miterlimit="10"/>
<path d="M20.3516 348.111C26.8463 353.364 35.302 361.337 43.0888 372.668C46.282 377.309 48.8878 381.834 51.019 386.075" stroke="black" stroke-width="2" stroke-miterlimit="10"/>
<path d="M41.417 342.441C44.5933 348.507 49.8863 357.317 58.3411 366.386C62.6852 371.03 66.2046 373.983 67.4939 375.088C73.8534 380.613 82.1361 390.351 91.751 408.934" stroke="black" stroke-width="2" stroke-miterlimit="10"/>
<path d="M195.999 436.029C200.565 430.128 210.411 422.563 222.799 418.143C245.206 410.149 267.459 409.004 285.594 422.968C293.077 428.73 297.222 434.923 299.639 441.193" stroke="black" stroke-width="2" stroke-miterlimit="10"/>
<path d="M207.819 436.752C235.862 423.336 260.95 423.633 273.095 438.965C273.638 439.652 274.178 440.391 274.714 441.217" stroke="black" stroke-width="2" stroke-miterlimit="10"/>
<path d="M38.6221 118.343C40.1028 129.404 41.4791 137.358 43.0295 146.769C44.2316 153.993 49.1791 160.175 56.1474 162.519C56.6875 162.71 57.2624 162.884 57.8373 163.04C70.0493 166.392 78.69 161.981 81.1464 160.644" stroke="black" stroke-width="2" stroke-linecap="round" stroke-linejoin="round"/>
<path d="M284.709 120.305C285.388 124.229 288.42 138.903 301.973 150.173C314.847 160.869 328.958 161.651 333.104 161.738C320.962 161.894 304.882 163.544 287.148 169.674C279.674 172.261 273.055 175.23 267.306 178.252" stroke="black" stroke-width="2" stroke-linecap="round" stroke-linejoin="round"/>
<path d="M283.072 71.1617C277.462 59.6834 268.63 43.2561 250.042 28.4437C206.35 -6.37327 154.07 0.815865 138.601 2.9344C121.65 5.26132 71.06 12.2073 50.2072 50.0979C46.4269 56.9571 44.4932 63.278 43.4131 67.7061" stroke="black" stroke-width="2" stroke-linecap="round" stroke-linejoin="round"/>
<path d="M48.4131 76.3537L206.054 81.0076C204.939 74.9819 204.068 66.8377 204.87 57.2695C205.828 45.9128 208.772 36.7614 211.35 30.5273C211.263 35.3722 211.664 48.2223 220.148 61.2288C228.074 73.3843 238.666 78.9585 243.126 81.0076C254.049 78.6286 264.989 76.2322 275.912 73.8532" stroke="black" stroke-width="2" stroke-linecap="round" stroke-linejoin="round"/>
<path d="M48.4131 76.3373C50.2423 70.8673 52.6812 65.8835 55.4337 61.4033" stroke="black" stroke-width="2" stroke-linecap="round" stroke-linejoin="round"/>
<path d="M276.365 74.4268C278.055 80.2267 288.211 116.919 268.02 141.786C261.888 149.34 254.432 153.941 253.125 154.775C241.279 162.311 229.45 164.534 203.999 166.444C201.786 166.618 199.556 166.774 197.344 166.93C195.48 167.069 193.598 167.191 191.734 167.295C189.992 167.399 188.25 167.503 186.525 167.573C164.279 168.65 142.12 168.094 119.908 166.427C94.4388 164.499 82.61 162.277 70.7813 154.758C67.9939 152.986 61.4263 148.68 55.8864 141.768C36.4099 117.44 46.7231 81.7722 48.4303 76.1285" stroke="black" stroke-width="2" stroke-linecap="round" stroke-linejoin="round"/>
<path d="M270.146 62.2197C271.243 63.4526 272.462 65.0676 273.595 67.0993C275.215 69.9993 276.034 72.7082 276.469 74.7226" stroke="black" stroke-width="2" stroke-linecap="round" stroke-linejoin="round"/>
<path d="M130.186 123.396C130.888 123.396 131.458 120.698 131.458 117.37C131.458 114.043 130.888 111.345 130.186 111.345C129.483 111.345 128.914 114.043 128.914 117.37C128.914 120.698 129.483 123.396 130.186 123.396Z" fill="black" stroke="black" stroke-width="2" stroke-linecap="round" stroke-linejoin="round"/>
<path d="M159.732 117.37C159.732 120.704 159.157 123.396 158.46 123.396C157.763 123.396 157.188 120.704 157.188 117.37C157.188 114.036 157.763 111.345 158.46 111.345C159.157 111.345 159.732 114.036 159.732 117.37Z" fill="black" stroke="black" stroke-width="2" stroke-linecap="round" stroke-linejoin="round"/>
<path d="M158.809 102.193C161.282 102.02 164.366 101.603 167.798 100.596C171.926 99.38 175.236 97.7304 177.641 96.2891" stroke="black" stroke-width="2" stroke-linecap="round" stroke-linejoin="round"/>
<path d="M132.277 100.526C130.517 100.353 128.427 99.9879 126.127 99.3106C123.096 98.4076 120.622 97.2094 118.775 96.1328" stroke="black" stroke-width="2" stroke-linecap="round" stroke-linejoin="round"/>
<path d="M146.039 139.355C148.199 140.049 151.457 140.761 155.394 140.501C163.007 139.997 168.233 136.107 170.237 134.44" stroke="black" stroke-width="2" stroke-linecap="round" stroke-linejoin="round"/>
<path d="M278.734 118.898C279.831 119.315 291.399 123.361 301.816 116.207C310.823 110.025 312.129 100.161 312.356 98.095C313.21 90.1592 310.544 79.0802 300.876 73.6103C293.419 69.3905 284.012 69.7899 276.382 74.4264" stroke="black" stroke-width="2" stroke-linecap="round" stroke-linejoin="round"/>
<path d="M289.309 98.0605L300.841 91.5312" stroke="black" stroke-width="2" stroke-linecap="round" stroke-linejoin="round"/>
<path d="M49.4055 72.3599C47.8724 71.3006 39.6672 65.848 30.6432 68.5222C19.5636 71.8042 15.3129 84.9322 15.6613 94.0489C15.7484 96.15 16.1316 106.135 24.6156 112.977C33.448 120.096 43.9005 118.082 45.3116 117.787" stroke="black" stroke-width="2" stroke-linecap="round" stroke-linejoin="round"/>
<path d="M38.6221 95.9589L27.6992 88.4746" stroke="black" stroke-width="2" stroke-linecap="round" stroke-linejoin="round"/>
<path d="M254.937 227.048L260.215 226.006" stroke="black" stroke-width="2" stroke-linecap="round" stroke-linejoin="round"/>
<path d="M42.2285 253.79C41.34 259.469 42.6814 262.577 43.9705 264.331C47.9425 269.732 56.8445 270.426 97.4526 264.14C144.559 256.847 143.844 261.344 175.062 254.138C195.079 249.519 210.845 243.684 220.81 239.603C214.73 238.926 196.891 236.148 181.299 221.526C168.739 209.753 164.052 196.347 162.328 190.217C160.464 188.498 158.582 186.779 156.718 185.06" stroke="black" stroke-width="2" stroke-linecap="round" stroke-linejoin="round"/>
<path d="M208.876 170.56C212.186 180.11 218.074 193.62 228.788 207.582C237.899 219.46 247.516 227.777 254.989 233.3C247.812 234.532 239.937 235.87 239.937 235.87C239.937 235.87 221.558 236.703 204.364 230.712C187.17 224.721 175.742 213.625 169.731 207.2" stroke="black" stroke-width="2" stroke-linecap="round" stroke-linejoin="round"/>
<path d="M162.328 190.199L167.049 184.764" stroke="black" stroke-width="2" stroke-linecap="round" stroke-linejoin="round"/>
<path d="M178.459 168.788L165.934 183.444L180.846 200.965C183.25 197.979 186.299 193.551 188.633 187.629C191.56 180.214 192.988 172.417 193.023 168.146" stroke="black" stroke-width="2" stroke-linecap="round" stroke-linejoin="round"/>
<path d="M145.882 168.788L157.955 182.958L146.44 202.337C143.67 199.385 140.709 195.773 137.869 191.467C132.486 183.288 129.019 173.65 127.242 167.572" stroke="black" stroke-width="2" stroke-linecap="round" stroke-linejoin="round"/>
<path d="M226.924 164.013C239.031 165.558 251.139 167.121 263.246 168.667C260.407 175.092 257.376 183.583 255.581 193.863C253.194 207.477 253.856 219.147 254.971 227.343C248.648 223.627 242.324 219.911 236 216.212" stroke="black" stroke-width="2" stroke-linecap="round" stroke-linejoin="round"/>
<path d="M253.735 233.82C251.139 237.224 245.268 243.927 235.339 248.39C225.827 252.644 217.291 252.731 213.022 252.488" stroke="black" stroke-width="2" stroke-linecap="round" stroke-linejoin="round"/>
<path d="M262.881 169.5C263.839 170.438 265.703 172.522 266.696 175.804C267.567 178.686 267.341 181.187 267.097 182.576" stroke="black" stroke-width="2" stroke-linecap="round" stroke-linejoin="round"/>
<path d="M91.0938 205.341C92.801 202.858 94.0379 197.961 93.7592 194.957C93.4282 191.119 91.3899 187.594 88.7594 184.764C82.7666 178.321 74.5788 174.275 66.0948 172.278C56.9663 170.108 47.3152 170.108 38.1692 172.209C34.8592 172.973 31.619 174.084 28.5703 175.595C23.3615 178.165 19.2502 181.603 16.0621 185.094C10.6965 190.946 8.72797 199.125 10.6094 206.817" stroke="black" stroke-width="2" stroke-linecap="round" stroke-linejoin="round"/>
<path d="M99.5427 164.604L50.1895 170.647" stroke="black" stroke-width="2" stroke-linecap="round" stroke-linejoin="round"/>
<path opacity="0.33" d="M112.87 141.091C121.356 141.091 128.235 137.072 128.235 132.113C128.235 127.155 121.356 123.136 112.87 123.136C104.384 123.136 97.5049 127.155 97.5049 132.113C97.5049 137.072 104.384 141.091 112.87 141.091Z" fill="#FF7BAC"/>
<path opacity="0.33" d="M175.411 141.091C183.897 141.091 190.776 137.072 190.776 132.113C190.776 127.155 183.897 123.136 175.411 123.136C166.925 123.136 160.046 127.155 160.046 132.113C160.046 137.072 166.925 141.091 175.411 141.091Z" fill="#FF7BAC"/>
</g>
<defs>
<linearGradient id="paint0_linear_195_514" x1="46.0004" y1="381.5" x2="218.5" y2="388" gradientUnits="userSpaceOnUse">
<stop/>
<stop offset="1" stop-opacity="0"/>
</linearGradient>
<linearGradient id="paint1_linear_195_514" x1="184" y1="433.5" x2="193" y2="386" gradientUnits="userSpaceOnUse">
<stop stop-color="#E0E2FF"/>
<stop offset="0.843446" stop-color="#BFC3F4" stop-opacity="0"/>
</linearGradient>
<clipPath id="clip0_195_514">
<rect width="405" height="443" fill="white"/>
</clipPath>
</defs>
</svg>
