<svg width="352" height="44" viewBox="0 0 352 44" fill="none" xmlns="http://www.w3.org/2000/svg">
<path d="M13.68 34.944C15.3867 34.944 16.688 33.8347 17.584 31.616C18.48 29.3973 18.928 26.1333 18.928 21.824C18.928 13.6747 17.392 9.6 14.32 9.6C12.528 9.6 11.184 10.7307 10.288 12.992C9.392 15.2107 8.944 18.4533 8.944 22.72C8.944 30.8693 10.5227 34.944 13.68 34.944ZM0.56 23.488C0.56 19.264 1.136 15.5947 2.288 12.48C3.44 9.36533 4.99733 6.912 6.96 5.12C8.96533 3.328 11.248 2.19733 13.808 1.728C14.576 1.6 15.344 1.536 16.112 1.536C18.544 1.536 20.6987 2.24 22.576 3.648C24.496 5.056 26.0107 7.232 27.12 10.176C28.2293 13.0773 28.784 16.6613 28.784 20.928C28.784 25.664 28.1013 29.696 26.736 33.024C25.4133 36.3093 23.6213 38.7627 21.36 40.384C19.0987 42.048 16.5813 42.88 13.808 42.88C11.248 42.88 8.96533 42.1547 6.96 40.704C4.99733 39.2533 3.44 37.0773 2.288 34.176C1.136 31.2747 0.56 27.712 0.56 23.488ZM46.799 14.08C47.0977 14.0373 47.567 14.016 48.207 14.016C50.5537 14.016 52.7083 14.6347 54.671 15.872C56.6337 17.0667 58.1697 18.7093 59.279 20.8C60.431 22.848 61.007 25.1093 61.007 27.584C61.007 30.272 60.3457 32.768 59.023 35.072C57.743 37.3333 56.015 39.1253 53.839 40.448C51.663 41.8133 49.3163 42.496 46.799 42.496C44.4523 42.496 42.2763 41.8773 40.271 40.64C38.3083 39.4453 36.751 37.824 35.599 35.776C34.4897 33.6853 33.935 31.424 33.935 28.992L41.551 28.608C41.551 30.1013 42.0203 31.36 42.959 32.384C43.9403 33.408 45.1563 33.92 46.607 33.92C48.1003 33.92 49.4017 33.344 50.511 32.192C51.663 30.9973 52.239 29.6107 52.239 28.032C52.239 26.0693 51.7483 24.448 50.767 23.168C49.7857 21.8453 48.207 21.312 46.031 21.568C44.3243 21.7813 42.8523 22.1867 41.615 22.784C40.975 22.9973 40.4203 23.104 39.951 23.104C38.6283 23.104 37.5403 22.6347 36.687 21.696L35.535 20.48L36.303 4.032L58.319 0.767998V8.576L43.663 10.368L43.535 14.656C44.559 14.4 45.647 14.208 46.799 14.08ZM77.5785 35.584V42.88L76.4265 43.968H69.5785L68.7465 43.136V36.8L69.5785 35.84L76.4265 34.688L77.5785 35.584ZM101.44 2.048V38.464C101.44 39.4453 101.077 40.2987 100.352 41.024C99.6688 41.7493 98.8368 42.112 97.8555 42.112H93.1835V13.568L88.4475 14.528V6.464L101.44 2.048ZM122.868 34.944C124.574 34.944 125.876 33.8347 126.772 31.616C127.668 29.3973 128.116 26.1333 128.116 21.824C128.116 13.6747 126.58 9.6 123.508 9.6C121.716 9.6 120.372 10.7307 119.476 12.992C118.58 15.2107 118.132 18.4533 118.132 22.72C118.132 30.8693 119.71 34.944 122.868 34.944ZM109.748 23.488C109.748 19.264 110.324 15.5947 111.476 12.48C112.628 9.36533 114.185 6.912 116.148 5.12C118.153 3.328 120.436 2.19733 122.996 1.728C123.764 1.6 124.532 1.536 125.3 1.536C127.732 1.536 129.886 2.24 131.764 3.648C133.684 5.056 135.198 7.232 136.308 10.176C137.417 13.0773 137.972 16.6613 137.972 20.928C137.972 25.664 137.289 29.696 135.924 33.024C134.601 36.3093 132.809 38.7627 130.548 40.384C128.286 42.048 125.769 42.88 122.996 42.88C120.436 42.88 118.153 42.1547 116.148 40.704C114.185 39.2533 112.628 37.0773 111.476 34.176C110.324 31.2747 109.748 27.712 109.748 23.488ZM187.295 16.384V25.92H154.335V18.752L187.295 16.384ZM216.743 34.944C218.449 34.944 219.751 33.8347 220.647 31.616C221.543 29.3973 221.991 26.1333 221.991 21.824C221.991 13.6747 220.455 9.6 217.383 9.6C215.591 9.6 214.247 10.7307 213.351 12.992C212.455 15.2107 212.007 18.4533 212.007 22.72C212.007 30.8693 213.585 34.944 216.743 34.944ZM203.623 23.488C203.623 19.264 204.199 15.5947 205.351 12.48C206.503 9.36533 208.06 6.912 210.023 5.12C212.028 3.328 214.311 2.19733 216.871 1.728C217.639 1.6 218.407 1.536 219.175 1.536C221.607 1.536 223.761 2.24 225.639 3.648C227.559 5.056 229.073 7.232 230.183 10.176C231.292 13.0773 231.847 16.6613 231.847 20.928C231.847 25.664 231.164 29.696 229.799 33.024C228.476 36.3093 226.684 38.7627 224.423 40.384C222.161 42.048 219.644 42.88 216.871 42.88C214.311 42.88 212.028 42.1547 210.023 40.704C208.06 39.2533 206.503 37.0773 205.351 34.176C204.199 31.2747 203.623 27.712 203.623 23.488ZM249.862 14.08C250.16 14.0373 250.63 14.016 251.27 14.016C253.616 14.016 255.771 14.6347 257.734 15.872C259.696 17.0667 261.232 18.7093 262.342 20.8C263.494 22.848 264.07 25.1093 264.07 27.584C264.07 30.272 263.408 32.768 262.086 35.072C260.806 37.3333 259.078 39.1253 256.902 40.448C254.726 41.8133 252.379 42.496 249.862 42.496C247.515 42.496 245.339 41.8773 243.334 40.64C241.371 39.4453 239.814 37.824 238.661 35.776C237.552 33.6853 236.998 31.424 236.998 28.992L244.614 28.608C244.614 30.1013 245.083 31.36 246.022 32.384C247.003 33.408 248.219 33.92 249.67 33.92C251.163 33.92 252.464 33.344 253.574 32.192C254.726 30.9973 255.302 29.6107 255.302 28.032C255.302 26.0693 254.811 24.448 253.83 23.168C252.848 21.8453 251.27 21.312 249.094 21.568C247.387 21.7813 245.915 22.1867 244.678 22.784C244.038 22.9973 243.483 23.104 243.014 23.104C241.691 23.104 240.603 22.6347 239.75 21.696L238.598 20.48L239.366 4.032L261.382 0.767998V8.576L246.726 10.368L246.598 14.656C247.622 14.4 248.71 14.208 249.862 14.08ZM280.641 35.584V42.88L279.489 43.968H272.641L271.809 43.136V36.8L272.641 35.84L279.489 34.688L280.641 35.584ZM311.926 19.52C310.262 22.9333 306.977 27.584 302.07 33.472L315.83 33.152V38.976C315.83 39.9573 315.467 40.8107 314.742 41.536C314.059 42.2613 313.227 42.624 312.246 42.624H288.95V38.016L289.078 37.888C289.163 37.8027 290.934 35.6053 294.39 31.296C297.889 26.944 300.833 22.5067 303.222 17.984C304.075 16.4053 304.502 15.0613 304.502 13.952C304.502 13.184 304.267 12.5227 303.798 11.968C303.03 11.1573 301.963 10.752 300.598 10.752C299.574 10.752 298.614 11.008 297.718 11.52C296.865 12.032 296.118 12.6933 295.478 13.504C294.838 14.272 294.326 15.0613 293.942 15.872L293.686 16.448L288.31 12.48L288.438 12.096C288.907 11.1573 289.377 10.304 289.846 9.536C290.315 8.72533 291.126 7.70133 292.278 6.464C293.473 5.184 294.902 4.16 296.566 3.392C298.23 2.624 300.043 2.24 302.006 2.24C304.31 2.24 306.358 2.77333 308.15 3.84C309.942 4.94933 311.265 6.336 312.118 8C313.014 9.62133 313.462 11.3707 313.462 13.248C313.462 15.3813 312.95 17.472 311.926 19.52ZM351.527 34.24L345.767 34.368V38.72C345.767 39.8293 345.383 40.7467 344.615 41.472C343.89 42.24 342.972 42.624 341.863 42.624H337.767V34.56L320.935 34.944L331.879 2.752L340.647 1.664L332.071 26.24L337.767 25.92V16.512L345.767 15.936V25.536L351.527 25.216V34.24Z" fill="#001FFE"/>
</svg>
