<svg width="305" height="35" viewBox="0 0 305 35" fill="none" xmlns="http://www.w3.org/2000/svg">
<path d="M15.4844 8.625C15.4844 13.1875 20.3438 17.5 25.7344 18.4688L24.3594 20.9375C19.875 19.9688 15.7656 17.0312 13.9531 13.0938C12.1094 17.0156 8 19.9375 3.51562 20.9375L2.20312 18.4688C7.51562 17.4688 12.3438 13.1875 12.3594 8.625V6.5H15.4844V8.625ZM1.26562 28.9688V26.5H26.8906V28.9688H1.26562ZM53.1406 4.65625V32.6562H50.2969V4.65625H53.1406ZM28.6094 23.4062C29.4219 23.4062 30.3594 23.4062 31.3594 23.3906V10.5312H29.2031V8.09375H42.0469V10.5312H39.8906V23.0469C40.8438 22.9688 41.7656 22.8594 42.6094 22.75L42.8281 24.9062C38.3906 25.7812 32.5781 25.9062 28.9531 25.9062L28.6094 23.4062ZM34.0469 23.3438C35.0625 23.3281 36.1094 23.2812 37.1406 23.2344V10.5312H34.0469V23.3438ZM41.2969 17.8125V15.1562H44.7969V5.28125H47.6094V31.2188H44.7969V17.8125H41.2969ZM79.9219 4.65625V19.3125H76.9531V14.625H71.7031V12.2812H76.9531V9.625H71.7031V7.3125H76.9531V4.65625H79.9219ZM56.5156 17.125C60.8438 15.7031 63.4688 12.0156 63.4844 8.1875V5.375H66.4219V8.1875C66.4219 11.8125 68.9844 15.2812 73.2031 16.6875L71.6406 18.9688C68.5156 17.8594 66.1719 15.5938 64.9688 12.7656C63.75 15.8281 61.3281 18.2656 58.0781 19.4375L56.5156 17.125ZM61.6094 22.875V20.5312H79.9219V27.4062H64.5781V29.9688H80.8906V32.3125H61.6719V25.2188H76.9844V22.875H61.6094ZM114.422 6.34375V8.90625C114.438 11.8125 114.438 15.0469 113.453 19.625H117.578V22.0312H106.328V32.625H103.359V22.0312H92.0469V19.625H110.531C110.969 17.7969 111.219 16.1562 111.375 14.6719L94.7656 15.5L94.3906 12.9375L111.547 12.4062C111.594 11.1562 111.609 10 111.609 8.90625V8.75H95.2031V6.34375H114.422ZM142.828 5.84375V8.28125H138.766V14.1562H142.703V16.5H133.922V19.6562H145.234V22.0312H119.703V19.6562H130.984V16.5H122.172V14.1562H126.141V8.28125H122.047V5.84375H142.828ZM122.922 32.0625V24.2812H125.922V29.6562H142.359V32.0625H122.922ZM129.078 14.1562H135.797V8.28125H129.078V14.1562ZM176.984 4.65625V15.5H181.484V17.9375H176.984V32.7188H174.016V4.65625H176.984ZM156.359 25.75V7.34375H169.453V9.75H159.328V23.2812C164.031 23.2656 167.547 23.0625 171.547 22.3438L171.922 24.8438C167.531 25.625 163.812 25.7656 158.609 25.75H156.359ZM208.422 18.6875V21.0938H197.328V26.5312H194.328V21.0938H182.797V18.6875H208.422ZM185.609 11C185.594 7.5 189.562 5.32812 195.578 5.3125C201.594 5.32812 205.531 7.5 205.516 11C205.531 14.4844 201.594 16.6562 195.578 16.6562C189.562 16.6562 185.594 14.4844 185.609 11ZM186.016 32.0625V23.8438H188.984V29.625H205.578V32.0625H186.016ZM188.797 11C188.766 13.0156 191.484 14.25 195.578 14.25C199.688 14.25 202.375 13.0156 202.391 11C202.375 8.92188 199.688 7.70312 195.578 7.6875C191.484 7.70312 188.766 8.92188 188.797 11ZM236.109 26.8125V29.3125H210.484V26.8125H221.766V21.9062H213.609V13H230.047V9.0625H213.547V6.625H232.984V15.375H216.547V19.4688H233.641V21.9062H224.703V26.8125H236.109ZM260.828 17.9375V20.375H241.328V7.15625H260.578V9.59375H244.266V17.9375H260.828ZM238.141 28.9688V26.5H263.766V28.9688H238.141Z" fill="white"/>
<path d="M300 20.0638V27.2128C300 27.6868 299.812 28.1414 299.477 28.4765C299.141 28.8117 298.687 29 298.213 29H277.787C277.313 29 276.859 28.8117 276.523 28.4765C276.188 28.1414 276 27.6868 276 27.2128V20.0638C276 19.8607 276.081 19.6659 276.224 19.5222C276.368 19.3786 276.563 19.2979 276.766 19.2979C276.969 19.2979 277.164 19.3786 277.308 19.5222C277.451 19.6659 277.532 19.8607 277.532 20.0638V27.2128C277.532 27.2805 277.559 27.3454 277.607 27.3933C277.655 27.4412 277.72 27.4681 277.787 27.4681H298.213C298.28 27.4681 298.345 27.4412 298.393 27.3933C298.441 27.3454 298.468 27.2805 298.468 27.2128V20.0638C298.468 19.8607 298.549 19.6659 298.692 19.5222C298.836 19.3786 299.031 19.2979 299.234 19.2979C299.437 19.2979 299.632 19.3786 299.776 19.5222C299.919 19.6659 300 19.8607 300 20.0638ZM287.459 20.6051C287.602 20.7485 287.797 20.8291 288 20.8291C288.203 20.8291 288.398 20.7485 288.541 20.6051L293.648 15.4987C293.783 15.3535 293.857 15.1615 293.853 14.963C293.85 14.7646 293.769 14.5753 293.629 14.4349C293.489 14.2946 293.299 14.2142 293.101 14.2107C292.902 14.2072 292.71 14.2809 292.565 14.4162L288.766 18.214V5.76596C288.766 5.56281 288.685 5.36799 288.542 5.22434C288.398 5.0807 288.203 5 288 5C287.797 5 287.602 5.0807 287.458 5.22434C287.315 5.36799 287.234 5.56281 287.234 5.76596V18.214L283.435 14.4162C283.29 14.2809 283.098 14.2072 282.899 14.2107C282.701 14.2142 282.511 14.2946 282.371 14.4349C282.231 14.5753 282.15 14.7646 282.147 14.963C282.143 15.1615 282.217 15.3535 282.352 15.4987L287.459 20.6051Z" fill="white"/>
</svg>
