<svg width="358" height="101" viewBox="0 0 358 101" fill="none" xmlns="http://www.w3.org/2000/svg">
<path d="M9.64844 88.4941V92.4297C11.7305 92.3154 13.8379 92.1377 15.8184 91.8457L15.9961 93.623C10.8545 94.5752 5.33203 94.6133 1.26953 94.6133L0.964844 92.6328C2.79297 92.6201 4.96387 92.6074 7.23633 92.5312V88.4941H9.64844ZM1.57422 87.4023C4.96387 86.4248 7.08398 84.0508 7.21094 81.2578H2.18359V79.3027H7.23633V76.5859H9.64844V79.3027H14.752V81.2578H9.64844C9.77539 83.9365 11.9336 86.2344 15.3359 87.1484L14.2188 89.0273C11.502 88.2529 9.4707 86.6025 8.44238 84.4443C7.45215 86.7168 5.44629 88.4561 2.7168 89.2305L1.57422 87.4023ZM17.2402 99.209V76.4082H19.6523V99.209H17.2402ZM42.834 76.4082V99.1582H40.5234V87.4023H37.5781V97.9902H35.3691V76.8652H37.5781V85.4219H40.5234V76.4082H42.834ZM24.0703 93.6992V79.1504H32.6016V81.1055H26.4824V91.6426C29.2754 91.6299 31.3828 91.5029 33.8203 91.0332L33.998 93.0137C31.2686 93.585 28.9072 93.6738 25.5938 93.6992H24.0703ZM71.7031 76.4082V99.1582H69.3926V76.4082H71.7031ZM52.0762 82.1211V80.166H56.4688V76.9922H58.8809V80.166H63.248V82.1211H52.0762ZM52.8125 88.8242C52.7998 85.6758 54.8438 83.5049 57.6113 83.4922C60.4424 83.5049 62.4609 85.6758 62.4609 88.8242C62.4609 88.9639 62.4609 89.0908 62.4482 89.2305H65.1016V85.9805H62.1309V84H65.1016V76.8652H67.3359V98.0664H65.1016V91.1602H62.0293C61.293 92.9883 59.668 94.1436 57.6113 94.1562C54.8438 94.1436 52.7998 91.96 52.8125 88.8242ZM54.9199 88.8242C54.9072 90.7793 56.0371 92.0869 57.6113 92.0742C59.2236 92.0869 60.3535 90.7793 60.3789 88.8242C60.3535 86.8438 59.2236 85.5615 57.6113 85.5488C56.0371 85.5615 54.9072 86.8438 54.9199 88.8242ZM84.4238 78.0332V79.9883H77.8477V82.5273H84.1699V84.3809H77.8477V87.1484C80.8945 87.123 82.8877 87.0088 85.2363 86.5645L85.4648 88.5449C82.7988 89.04 80.6279 89.1416 77.0098 89.1289H75.5371V78.0332H84.4238ZM78.5332 93.293V91.3379H93.9961V99.1582H91.6094V93.293H78.5332ZM86.6582 90.0684V76.8398H88.918V82.2227H91.7109V76.4336H93.9961V90.2461H91.7109V84.1777H88.918V90.0684H86.6582ZM116.645 76.4082V99.1582H114.334V76.4082H116.645ZM97.3223 86.2344C97.3223 81.3086 99.252 78.2236 102.223 78.2363C104.99 78.2236 106.856 80.8516 107.136 85.1172H109.713V76.8398H112.023V98.041H109.713V87.0723H107.148C106.933 91.5156 105.041 94.2705 102.223 94.2578C99.252 94.2705 97.3223 91.1729 97.3223 86.2344ZM99.5566 86.2344C99.5566 89.8525 100.585 91.9854 102.223 91.9727C103.898 91.9854 104.939 89.8525 104.939 86.2344C104.939 82.6035 103.898 80.4834 102.223 80.4961C100.585 80.4834 99.5566 82.6035 99.5566 86.2344ZM145.463 76.4082V99.1582H143.152V76.4082H145.463ZM125.836 82.1211V80.166H130.229V76.9922H132.641V80.166H137.008V82.1211H125.836ZM126.572 88.8242C126.56 85.6758 128.604 83.5049 131.371 83.4922C134.202 83.5049 136.221 85.6758 136.221 88.8242C136.221 88.9639 136.221 89.0908 136.208 89.2305H138.861V85.9805H135.891V84H138.861V76.8652H141.096V98.0664H138.861V91.1602H135.789C135.053 92.9883 133.428 94.1436 131.371 94.1562C128.604 94.1436 126.56 91.96 126.572 88.8242ZM128.68 88.8242C128.667 90.7793 129.797 92.0869 131.371 92.0742C132.983 92.0869 134.113 90.7793 134.139 88.8242C134.113 86.8438 132.983 85.5615 131.371 85.5488C129.797 85.5615 128.667 86.8438 128.68 88.8242ZM158.184 78.0332V79.9883H151.607V82.5273H157.93V84.3809H151.607V87.1484C154.654 87.123 156.647 87.0088 158.996 86.5645L159.225 88.5449C156.559 89.04 154.388 89.1416 150.77 89.1289H149.297V78.0332H158.184ZM152.293 93.293V91.3379H167.756V99.1582H165.369V93.293H152.293ZM160.418 90.0684V76.8398H162.678V82.2227H165.471V76.4336H167.756V90.2461H165.471V84.1777H162.678V90.0684H160.418ZM181.188 76.7891C186.316 76.7764 189.3 78.1602 189.312 80.6992C189.3 83.251 186.316 84.6348 181.188 84.6348C176.059 84.6348 173.05 83.251 173.062 80.6992C173.05 78.1602 176.059 76.7764 181.188 76.7891ZM170.828 87.9609V86.0312H191.572V87.9609H170.828ZM173.316 91.5156V89.7129H188.957V95.0449H175.703V97.0762H189.592V98.9297H173.342V93.293H186.57V91.5156H173.316ZM175.576 80.6992C175.563 82.1084 177.569 82.832 181.188 82.832C184.831 82.832 186.837 82.1084 186.824 80.6992C186.837 79.3535 184.831 78.5664 181.188 78.5664C177.569 78.5664 175.563 79.3535 175.576 80.6992ZM217.521 76.4336V83.7461H220.822V85.752H217.521V93.4453H215.109V76.4336H217.521ZM199.672 81.0293V79.0742H205.258V76.4082H207.67V79.0742H213.23V81.0293H199.672ZM200.916 86.4121C200.903 83.8096 203.15 82.1084 206.451 82.1211C209.714 82.1084 211.961 83.8096 211.961 86.4121C211.961 88.9893 209.714 90.665 206.451 90.6777C203.15 90.665 200.903 88.9893 200.916 86.4121ZM203.1 98.6758V92.0996H205.512V96.7207H218.486V98.6758H203.1ZM203.252 86.4121C203.227 87.8975 204.521 88.8115 206.451 88.7988C208.381 88.8115 209.676 87.8975 209.701 86.4121C209.676 84.9141 208.381 83.9873 206.451 83.9746C204.521 83.9873 203.227 84.9141 203.252 86.4121ZM241.084 76.4336V93.2422H238.672V84.6602H233.695V89.459H223.209V77.9316H225.621V81.791H231.309V77.9316H233.695V82.7051H238.672V76.4336H241.084ZM225.621 87.5039H231.309V83.6445H225.621V87.5039ZM226.23 98.6758V91.5918H228.668V96.7207H241.592V98.6758H226.23ZM262.488 78.5156V80.5215H254.49V91.6172C258.312 91.5918 260.914 91.4521 263.91 90.8809L264.189 92.8613C260.914 93.4834 258.146 93.623 253.855 93.623H252.053V78.5156H262.488ZM261.193 86.5391V84.5332H267.516V76.4082H269.928V99.209H267.516V86.5391H261.193ZM277.596 78.6172L277.367 91.6934H274.854L274.625 78.6172H277.596ZM274.32 95.375C274.308 94.3848 275.133 93.5723 276.123 93.5723C277.101 93.5723 277.913 94.3848 277.926 95.375C277.913 96.3652 277.101 97.165 276.123 97.1777C275.133 97.165 274.308 96.3652 274.32 95.375Z" fill="#CBCBCB"/>
<path d="M43.2656 32.125V36.0859H1.67578V32.125H43.2656ZM2.58984 25.1172C8.35352 22.9844 11.1973 18.1855 11.1719 14.3008V10.3398H15.9453V14.3008C15.9707 17.6523 18.1035 21.9434 22.4199 24.4824C26.6602 21.9941 28.7676 17.8047 28.7422 14.3008V10.3398H33.6172V14.3008C33.6172 18.5918 36.4102 23.1875 42.25 25.1172L39.9648 28.6211C35.5977 27.0977 32.7285 24.1777 31.2051 20.6992C29.707 24.3047 26.8379 27.5293 22.3945 29.1289C17.9258 27.5039 15.0566 24.1777 13.584 20.5215C12.0352 23.9746 9.19141 26.9961 4.92578 28.5195L2.58984 25.1172ZM6.80469 53.3516V39.8438H11.6289V49.4414H38.7969V53.3516H6.80469ZM82.3672 12.8281V34.0547H61.0898V12.8281H82.3672ZM65.8125 30.2461H77.6445V16.7383H65.8125V30.2461ZM66.2188 53.3516V38.9297H71.043V49.4414H96.9922V53.3516H66.2188ZM90.2383 42.1289V8.76562H95.0625V22.375H101.664V26.4375H95.0625V42.1289H90.2383ZM140.613 10.6445V14.5039C140.639 18.541 140.639 23.1367 139.369 29.4336H145.844V33.3945H104.254V29.4336H134.494C135.002 27.0469 135.332 24.9141 135.51 22.959L108.926 24.2031L108.316 20.1914L135.764 19.4297C135.84 17.7031 135.84 16.1289 135.84 14.6055H109.484V10.6445H140.613ZM109.332 53.7578V38.1172H140.664V53.7578H109.332ZM114.055 49.8477H135.891V41.9766H114.055V49.8477ZM163.768 50V13.132H166.992V50H163.768ZM171.048 34.348V31.228H171.204C176.248 31.228 179.524 28.264 179.524 23.74C179.524 19.216 176.3 16.252 171.256 16.252H170.996V13.132H171.256C178.224 13.132 182.748 17.292 182.748 23.74C182.748 30.188 178.224 34.348 171.204 34.348H171.048ZM196.191 12.56L199.207 13.6L192.603 31.956H199.207V35.076H191.511L185.947 50.52L182.983 49.376L196.191 12.56ZM202.795 20.724L212.935 49.428L209.971 50.624L199.831 21.92L202.795 20.724ZM235.597 14.12L223.793 31.54L211.833 14.328L214.485 12.664L223.741 26.028L232.945 12.508L235.597 14.12ZM222.077 50V35.7H225.301V50H222.077ZM253.957 29.2C259.261 30.5 261.965 34.296 261.965 39.392C261.965 45.944 257.181 50 249.589 50H249.069V46.88H249.589C255.257 46.88 258.741 43.968 258.741 39.496C258.741 34.452 255.309 31.748 249.329 31.748H244.129V50H240.905V13.132H245.689C252.553 13.132 257.025 16.616 257.025 22.544C257.025 25.56 255.673 28.004 253.957 29.2ZM247.769 28.628C251.565 28.628 253.801 26.86 253.801 22.544C253.801 18.54 250.681 16.252 245.689 16.252H244.129V28.628H247.769ZM277.797 12.56L280.813 13.6L274.209 31.956H280.813V35.076H273.117L267.553 50.52L264.589 49.376L277.797 12.56ZM284.401 20.724L294.541 49.428L291.577 50.624L281.437 21.92L284.401 20.724ZM325.57 22.44C323.49 18.28 319.226 15.628 314.13 15.628C312.206 15.628 310.334 15.992 308.67 16.772L307.11 14.016C309.398 12.924 311.894 12.508 314.13 12.508C320.89 12.508 326.922 16.408 329.158 22.44H325.57ZM314.13 50.624C304.25 50.624 296.814 42.668 296.814 32.06C296.814 26.808 298.426 22.18 301.13 18.748L303.314 21.14C301.234 23.792 300.038 27.432 300.038 31.54C300.038 40.64 306.07 47.504 314.13 47.504C319.226 47.504 323.49 44.852 325.674 40.692H329.262C326.818 46.516 321.098 50.624 314.13 50.624ZM356.58 15.212L338.328 38.04V50H335.104V13.132H338.328V32.944L354.188 13.08L356.58 15.212ZM346.076 36.324L356.84 47.972L354.552 50.208L343.788 38.56L346.076 36.324Z" fill="white"/>
</svg>
