<svg width="583" height="262" viewBox="0 0 583 262" fill="none" xmlns="http://www.w3.org/2000/svg">
<path d="M242.032 91.32H250.124V93H240.296V73.148H242.032V81.828H249.396V83.508H242.032V91.32ZM249.984 73.148V74.828H244.496V73.148H249.984ZM261.949 85.972L260.381 85.384L264.469 72.84L266.093 73.428L261.949 85.972ZM258.113 93.336L252.177 73.4L253.801 72.868L259.737 92.804L258.113 93.336ZM270.688 91.32H278.78V93H268.952V73.148H270.688V81.828H278.052V83.508H270.688V91.32ZM278.64 73.148V74.828H273.152V73.148H278.64ZM295.365 73.148H297.101V93H295.253L282.569 73.82L283.997 72.868L295.365 90.088V73.148ZM282.709 93V80.652H284.445V93H282.709ZM300.087 74.828V73.148H310.979V74.828H300.087ZM304.651 93V78.104H306.387V93H304.651ZM325.538 93.308C321.954 93.308 319.77 89.192 319.77 83.06C319.77 79.756 320.358 77.068 321.618 75.164L322.766 76.48C321.898 78.16 321.506 80.708 321.506 83.06C321.506 87.96 322.962 91.628 325.538 91.628C328.114 91.628 329.57 87.96 329.57 83.06C329.57 78.16 328.114 74.492 325.538 74.492C325.286 74.492 325.006 74.548 324.922 74.576L324.222 73.036C324.614 72.896 325.006 72.812 325.538 72.812C329.122 72.812 331.306 76.928 331.306 83.06C331.306 89.192 329.122 93.308 325.538 93.308ZM334.644 80.736L333.552 79.476L341.084 72.868L342.204 74.1L334.644 80.736ZM340.244 93V78.44H341.98V93H340.244Z" fill="white"/>
<path d="M46.8125 143.875V154.875H54.5V161.438H46.8125V172.312H38.8125V143.875H46.8125ZM2.0625 158.438C2.03125 150.844 8.625 145.594 17.375 145.562C26.0938 145.594 32.625 150.844 32.625 158.438C32.625 165.938 26.0938 171.312 17.375 171.312C8.625 171.312 2.03125 165.938 2.0625 158.438ZM9.0625 180.688V174.562H46.8125V190.062H17V193.875H48.4375V200.125H9.1875V184.312H38.875V180.688H9.0625ZM9.875 158.438C9.8125 162.469 13 165 17.375 165C21.7188 165 24.875 162.469 24.875 158.438C24.875 154.469 21.7188 152.062 17.375 152.062C13 152.062 9.8125 154.469 9.875 158.438ZM77.5625 161.688C77.5625 169.781 81.75 178.906 90.8125 183.188L86.375 189.188C80.2812 186.438 76.0625 181.094 73.6875 174.75C71.2188 181.594 66.75 187.344 60.3125 190.188L55.9375 184C65.2188 179.906 69.625 170.219 69.6875 161.688V159.5H57.9375V153.125H69.625V145.125H77.625V153.125H89.1875V159.5H77.5625V161.688ZM93.875 200.75V143.875H101.875V165.938H110.25V172.625H101.875V200.75H93.875ZM161.625 143.875V200.75H154.125V143.875H161.625ZM111.625 183.312C123.125 176.5 128.188 168.219 129.281 157.062H114.75V150.625H137.188C137.188 156.062 136.594 161.125 135.219 165.812H142.062V145.125H149.5V198.25H142.062V172.125H132.75C129.5 178.625 124.219 184.25 116.125 188.938L111.625 183.312ZM209.062 150.5V156.688H200.312C200.312 162.375 203.562 167.938 210.75 170.375L207.188 176.25C202.156 174.562 198.75 171.375 196.719 167.344C194.75 171.875 191.312 175.562 186.125 177.562L182.312 171.75C189.562 168.906 192.688 162.781 192.75 156.688H183.938V150.5H192.75V144.875H200.312V150.5H209.062ZM192.125 190.25C192.094 183.5 199.688 179.5 211.812 179.5C223.875 179.5 231.5 183.5 231.562 190.25C231.5 196.844 223.875 200.781 211.812 200.75C199.688 200.781 192.094 196.844 192.125 190.25ZM200.125 190.25C200.062 193.188 204.344 194.688 211.812 194.688C219.219 194.688 223.5 193.188 223.5 190.25C223.5 187.156 219.219 185.562 211.812 185.562C204.344 185.562 200.062 187.156 200.125 190.25ZM211.625 177.188V144.938H219.125V157.75H223.688V143.938H231.25V179H223.688V164.125H219.125V177.188H211.625ZM285.5 143.875V200.75H277.438V143.875H285.5ZM237.875 184.625C252.562 177.688 259.031 168.688 260.312 156.062H240.938V149.812H268.438C268.406 167.062 262.375 181.406 242.062 191L237.875 184.625ZM339.188 159.375V165.625H299.438V145.875H307.375V159.375H339.188ZM292.938 178V171.75H345V178H292.938ZM298.938 199.5V182.625H306.938V193.125H339.562V199.5H298.938ZM408.188 143.75V156.125H415.875V162.5H408.188V174.562H400.188V143.75H408.188ZM363.062 154.188V148.125H376V143.5H383.938V148.125H396.812V154.188H363.062ZM365.812 164.875C365.812 159.188 371.469 155.594 379.938 155.562C388.469 155.594 393.938 159.188 393.938 164.875C393.938 170.688 388.469 174.156 379.938 174.188C371.469 174.156 365.812 170.688 365.812 164.875ZM370.438 182.625V176.875H408.188V191.25H378.375V194.5H409.812V200.375H370.562V185.812H400.25V182.625H370.438ZM373.625 164.875C373.594 167.312 376 168.469 379.938 168.5C383.906 168.469 386.375 167.312 386.375 164.875C386.375 162.469 383.906 161.156 379.938 161.188C376 161.156 373.594 162.469 373.625 164.875ZM466 143.938V184.812H458V143.938H466ZM419.25 161.875C419.25 153.531 426.062 147.531 434.812 147.562C443.531 147.531 450.344 153.531 450.375 161.875C450.344 170.344 443.531 176.312 434.812 176.312C426.062 176.312 419.25 170.344 419.25 161.875ZM427.062 161.875C427 166.625 430.344 169.375 434.812 169.375C439.125 169.375 442.469 166.625 442.5 161.875C442.469 157.25 439.125 154.469 434.812 154.5C430.344 154.469 427 157.25 427.062 161.875ZM427.875 199.75V180.688H435.938V193.375H467.5V199.75H427.875ZM519.812 147.062V152.188C519.781 158.094 519.781 164.688 517.875 173.875H525.562V180.312H503.625V200.625H495.625V180.312H473.688V173.875H510.062C510.75 170.844 511.219 168.062 511.531 165.5L478.875 167.125L477.938 160.312L512.062 159.375C512.156 157.25 512.156 155.281 512.188 153.375H479.75V147.062H519.812ZM576.25 145.938V152.375H568.812V162.188H575.875V168.375H558.875V173.688H580.875V179.938H529V173.688H550.875V168.375H533.938V162.188H540.938V152.375H533.562V145.938H576.25ZM535.25 199.75V183.625H543.25V193.375H575V199.75H535.25ZM548.938 162.188H560.812V152.375H548.938V162.188Z" fill="white"/>
<path d="M97.4844 235.824V260.324H94.9961V247.555H91.9609V259.121H89.5V236.289H91.9609V245.422H94.9961V235.824H97.4844ZM77.2227 253.871V238.586H86.7383V253.871H77.2227ZM79.6836 251.793H84.3047V240.637H79.6836V251.793ZM107.547 236.645C111.238 236.672 113.959 238.928 113.973 242.141C113.959 245.367 111.238 247.609 107.547 247.609C103.814 247.609 101.107 245.367 101.094 242.141C101.107 238.928 103.814 236.672 107.547 236.645ZM103.637 242.141C103.623 244.164 105.291 245.504 107.547 245.504C109.789 245.504 111.457 244.164 111.457 242.141C111.457 240.145 109.789 238.805 107.547 238.832C105.291 238.805 103.623 240.145 103.637 242.141ZM104.812 251.492V249.414H120.918V255.594H107.41V257.945H121.738V260.023H104.895V253.652H118.348V251.492H104.812ZM118.32 248.293V235.824H120.918V248.293H118.32ZM141.125 248.84V253.078C143.367 252.955 145.637 252.764 147.77 252.449L147.961 254.363C142.424 255.389 136.477 255.43 132.102 255.43L131.773 253.297C133.742 253.283 136.08 253.27 138.527 253.188V248.84H141.125ZM132.43 247.664C136.08 246.611 138.363 244.055 138.5 241.047H133.086V238.941H138.527V236.016H141.125V238.941H146.621V241.047H141.125C141.262 243.932 143.586 246.406 147.25 247.391L146.047 249.414C143.121 248.58 140.934 246.803 139.826 244.479C138.76 246.926 136.6 248.799 133.66 249.633L132.43 247.664ZM149.301 260.379V235.824H151.898V260.379H149.301ZM176.863 235.824V260.324H174.375V247.664H171.203V259.066H168.824V236.316H171.203V245.531H174.375V235.824H176.863ZM156.656 254.445V238.777H165.844V240.883H159.254V252.23C162.262 252.217 164.531 252.08 167.156 251.574L167.348 253.707C164.408 254.322 161.865 254.418 158.297 254.445H156.656ZM481.418 247.363V249.469H459.078V247.363H481.418ZM460.254 244.027C464.697 243.549 468.211 241.553 468.498 239.16H461.129V237.027H479.422V239.16H471.971C472.271 241.539 475.73 243.549 480.27 244.027L479.34 246.078C475.088 245.586 471.574 243.795 470.248 241.211C468.895 243.795 465.408 245.586 461.156 246.078L460.254 244.027ZM461.73 255.84C461.73 252.996 464.916 251.355 470.234 251.355C475.512 251.355 478.67 252.996 478.684 255.84C478.67 258.684 475.512 260.283 470.234 260.27C464.916 260.283 461.73 258.684 461.73 255.84ZM464.355 255.84C464.342 257.385 466.488 258.232 470.234 258.219C473.926 258.232 476.086 257.385 476.086 255.84C476.086 254.254 473.926 253.406 470.234 253.379C466.488 253.406 464.342 254.254 464.355 255.84ZM503.703 235.824V250.398H501.105V244.191H496.539V242.059H501.105V235.824H503.703ZM483.277 248.184C487.078 246.857 489.416 243.549 489.402 240.172V239.625H484.098V237.52H497.305V239.625H492.055V240.145C492.041 243.248 494.256 246.27 497.961 247.527L496.621 249.578C493.873 248.635 491.85 246.666 490.783 244.246C489.717 246.98 487.57 249.182 484.645 250.262L483.277 248.184ZM487.215 255.703C487.201 252.791 490.346 251.096 495.5 251.082C500.627 251.096 503.771 252.791 503.785 255.703C503.771 258.615 500.627 260.311 495.5 260.324C490.346 260.311 487.201 258.615 487.215 255.703ZM489.785 255.703C489.771 257.357 491.904 258.301 495.5 258.273C499.068 258.301 501.201 257.357 501.215 255.703C501.201 254.035 499.068 253.092 495.5 253.105C491.904 253.092 489.771 254.035 489.785 255.703Z" fill="#CDCDCD"/>
<path d="M194.746 258.273C190.645 258.273 187.732 256.072 187.609 252.832H190.672C190.781 254.568 192.504 255.676 194.719 255.676C197.111 255.676 198.848 254.377 198.848 252.449C198.848 250.494 197.221 249.1 194.391 249.086H192.695V246.625H194.391C196.646 246.639 198.219 245.381 198.219 243.48C198.219 241.676 196.865 240.445 194.773 240.445C192.791 240.445 191.014 241.553 190.945 243.344H188.047C188.129 240.117 191.109 237.93 194.801 237.93C198.697 237.93 201.145 240.391 201.117 243.316C201.145 245.572 199.75 247.186 197.617 247.719V247.855C200.324 248.238 201.896 250.057 201.883 252.559C201.896 255.854 198.848 258.273 194.746 258.273ZM212.082 258.273C207.502 258.273 204.809 254.582 204.809 248.102C204.809 241.662 207.529 237.93 212.082 237.93C216.621 237.93 219.342 241.662 219.355 248.102C219.342 254.582 216.662 258.273 212.082 258.273ZM207.816 248.102C207.803 253.037 209.402 255.676 212.082 255.676C214.748 255.676 216.348 253.037 216.348 248.102C216.348 243.18 214.734 240.486 212.082 240.473C209.416 240.486 207.816 243.18 207.816 248.102ZM227.012 247.609C224.305 247.637 222.828 245.627 222.855 242.688C222.828 239.789 224.373 237.779 227.012 237.793C229.732 237.779 231.154 239.789 231.168 242.688C231.154 245.641 229.678 247.637 227.012 247.609ZM225.098 258L238.688 238.203H241.176L227.586 258H225.098ZM225.098 242.688C225.111 244.506 225.74 245.682 227.012 245.695C228.297 245.682 228.898 244.506 228.898 242.688C228.898 240.91 228.338 239.693 227.012 239.707C225.74 239.734 225.111 240.924 225.098 242.688ZM235.352 253.488C235.338 250.562 236.869 248.553 239.508 248.566C242.215 248.553 243.65 250.562 243.664 253.488C243.65 256.414 242.174 258.41 239.508 258.41C236.814 258.41 235.338 256.4 235.352 253.488ZM237.594 253.488C237.607 255.279 238.236 256.469 239.508 256.469C240.793 256.469 241.395 255.279 241.395 253.488C241.395 251.684 240.834 250.48 239.508 250.48C238.25 250.508 237.607 251.697 237.594 253.488ZM274.59 235.824V260.324H272.102V235.824H274.59ZM253.453 241.977V239.871H258.184V236.453H260.781V239.871H265.484V241.977H253.453ZM254.246 249.195C254.232 245.805 256.434 243.467 259.414 243.453C262.463 243.467 264.637 245.805 264.637 249.195C264.637 249.346 264.637 249.482 264.623 249.633H267.48V246.133H264.281V244H267.48V236.316H269.887V259.148H267.48V251.711H264.172C263.379 253.68 261.629 254.924 259.414 254.938C256.434 254.924 254.232 252.572 254.246 249.195ZM256.516 249.195C256.502 251.301 257.719 252.709 259.414 252.695C261.15 252.709 262.367 251.301 262.395 249.195C262.367 247.062 261.15 245.682 259.414 245.668C257.719 245.682 256.502 247.062 256.516 249.195ZM288.289 237.574V239.68H281.207V242.414H288.016V244.41H281.207V247.391C284.488 247.363 286.635 247.24 289.164 246.762L289.41 248.895C286.539 249.428 284.201 249.537 280.305 249.523H278.719V237.574H288.289ZM281.945 254.008V251.902H298.598V260.324H296.027V254.008H281.945ZM290.695 250.535V236.289H293.129V242.086H296.137V235.852H298.598V250.727H296.137V244.191H293.129V250.535H290.695ZM309.891 237.574C313.76 237.561 316.549 239.953 316.562 243.398C316.549 246.844 313.76 249.236 309.891 249.25C306.035 249.236 303.205 246.844 303.219 243.398C303.205 239.953 306.035 237.561 309.891 237.574ZM302.043 252.941C306.5 252.941 312.68 252.9 318.039 252.121L318.23 254.008C312.693 255.074 306.746 255.102 302.371 255.102L302.043 252.941ZM305.789 243.398C305.762 245.572 307.512 246.98 309.891 246.98C312.27 246.98 314.02 245.572 314.02 243.398C314.02 241.252 312.27 239.816 309.891 239.816C307.512 239.816 305.762 241.252 305.789 243.398ZM319.57 260.379V235.824H322.168V260.379H319.57ZM334.473 258L343.305 240.938V240.773H333.105V238.203H346.422V240.883L337.617 258H334.473ZM361.051 244.547V247.855H370.949V249.988H348.609V247.855H358.48V244.547H361.051ZM349.758 243.781C354.188 243.33 357.66 241.389 358.016 239.023H350.66V236.945H368.953V239.023H361.516C361.885 241.375 365.357 243.33 369.801 243.781L368.871 245.832C364.619 245.34 361.105 243.59 359.766 241.006C358.426 243.59 354.939 245.34 350.688 245.832L349.758 243.781ZM351.262 256.031C351.262 253.283 354.434 251.766 359.766 251.766C365.057 251.766 368.201 253.283 368.215 256.031C368.201 258.766 365.057 260.283 359.766 260.27C354.434 260.283 351.262 258.766 351.262 256.031ZM353.887 256.031C353.873 257.494 355.979 258.301 359.766 258.301C363.498 258.301 365.617 257.494 365.617 256.031C365.617 254.568 363.498 253.775 359.766 253.762C355.979 253.775 353.873 254.568 353.887 256.031ZM399.223 237.301V239.543C399.236 242.086 399.236 244.916 398.375 248.922H401.984V251.027H392.141V260.297H389.543V251.027H379.645V248.922H395.818C396.201 247.322 396.42 245.887 396.557 244.588L382.023 245.312L381.695 243.07L396.707 242.605C396.748 241.512 396.762 240.5 396.762 239.543V239.406H382.406V237.301H399.223ZM424.078 236.863V238.996H420.523V244.137H423.969V246.188H416.285V248.949H426.184V251.027H403.844V248.949H413.715V246.188H406.004V244.137H409.477V238.996H405.895V236.863H424.078ZM406.66 259.805V252.996H409.285V257.699H423.668V259.805H406.66ZM412.047 244.137H417.926V238.996H412.047V244.137ZM448.934 235.852V250.754H446.473V244.301H443.766V250.617H441.332V236.18H443.766V242.168H446.473V235.852H448.934ZM427.906 247.391C428.604 247.391 429.396 247.377 430.258 247.363V240.062H428.344V237.902H439.801V240.062H437.859V247.062C438.693 246.994 439.5 246.912 440.238 246.816L440.348 248.758C436.465 249.441 431.365 249.523 428.18 249.523L427.906 247.391ZM431.98 254.008V251.875H448.934V260.324H446.363V254.008H431.98ZM432.664 247.322C433.594 247.295 434.537 247.268 435.48 247.213V240.062H432.664V247.322Z" fill="white"/>
<path d="M290.294 9.78787C291.074 8.51307 292.926 8.51307 293.706 9.78787L295.667 12.9924C296.223 13.9007 297.393 14.2142 298.328 13.7055L301.629 11.9108C302.942 11.1968 304.545 12.1227 304.583 13.6167L304.679 17.3723C304.707 18.4369 305.563 19.2934 306.628 19.3206L310.383 19.4165C311.877 19.4547 312.803 21.0584 312.089 22.3713L310.295 25.6718C309.786 26.6073 310.099 27.7773 311.008 28.3332L314.212 30.2941C315.487 31.0741 315.487 32.9259 314.212 33.7059L311.008 35.6668C310.099 36.2227 309.786 37.3927 310.295 38.3282L312.089 41.6287C312.803 42.9416 311.877 44.5453 310.383 44.5835L306.628 44.6794C305.563 44.7066 304.707 45.5631 304.679 46.6277L304.583 50.3833C304.545 51.8773 302.942 52.8032 301.629 52.0892L298.328 50.2945C297.393 49.7858 296.223 50.0993 295.667 51.0076L293.706 54.2121C292.926 55.4869 291.074 55.4869 290.294 54.2121L288.333 51.0076C287.777 50.0993 286.607 49.7858 285.672 50.2945L282.371 52.0892C281.058 52.8032 279.455 51.8773 279.417 50.3833L279.321 46.6277C279.293 45.5631 278.437 44.7066 277.372 44.6794L273.617 44.5835C272.123 44.5453 271.197 42.9416 271.911 41.6287L273.705 38.3282C274.214 37.3927 273.901 36.2227 272.992 35.6668L269.788 33.7059C268.513 32.9259 268.513 31.0741 269.788 30.2941L272.992 28.3332C273.901 27.7773 274.214 26.6073 273.705 25.6718L271.911 22.3713C271.197 21.0584 272.123 19.4547 273.617 19.4165L277.372 19.3206C278.437 19.2934 279.293 18.4369 279.321 17.3723L279.417 13.6167C279.455 12.1227 281.058 11.1968 282.371 11.9108L285.672 13.7055C286.607 14.2142 287.777 13.9007 288.333 12.9924L290.294 9.78787Z" fill="#2DC88F" stroke="black"/>
<path d="M299 25.3535L283.444 40.9099" stroke="black" stroke-linecap="round"/>
<circle cx="285" cy="27" r="4" stroke="black"/>
<circle cx="297" cy="39" r="4" stroke="black"/>
</svg>
