<svg width="590" height="250" viewBox="0 0 590 250" fill="none" xmlns="http://www.w3.org/2000/svg">
<path d="M47.4375 13.9688C47.4375 17.3906 51.082 20.625 55.125 21.3516L54.0938 23.2031C50.7305 22.4766 47.6484 20.2734 46.2891 17.3203C44.9062 20.2617 41.8242 22.4531 38.4609 23.2031L37.4766 21.3516C41.4609 20.6016 45.082 17.3906 45.0938 13.9688V12.375H47.4375V13.9688ZM36.7734 29.2266V27.375H55.9922V29.2266H36.7734ZM75.6797 10.9922V31.9922H73.5469V10.9922H75.6797ZM57.2812 25.0547C57.8906 25.0547 58.5938 25.0547 59.3438 25.043V15.3984H57.7266V13.5703H67.3594V15.3984H65.7422V24.7852C66.457 24.7266 67.1484 24.6445 67.7812 24.5625L67.9453 26.1797C64.6172 26.8359 60.2578 26.9297 57.5391 26.9297L57.2812 25.0547ZM61.3594 25.0078C62.1211 24.9961 62.9062 24.9609 63.6797 24.9258V15.3984H61.3594V25.0078ZM66.7969 20.8594V18.8672H69.4219V11.4609H71.5312V30.9141H69.4219V20.8594H66.7969ZM95.7656 10.9922V21.9844H93.5391V18.4688H89.6016V16.7109H93.5391V14.7188H89.6016V12.9844H93.5391V10.9922H95.7656ZM78.2109 20.3438C81.457 19.2773 83.4258 16.5117 83.4375 13.6406V11.5312H85.6406V13.6406C85.6406 16.3594 87.5625 18.9609 90.7266 20.0156L89.5547 21.7266C87.2109 20.8945 85.4531 19.1953 84.5508 17.0742C83.6367 19.3711 81.8203 21.1992 79.3828 22.0781L78.2109 20.3438ZM82.0312 24.6562V22.8984H95.7656V28.0547H84.2578V29.9766H96.4922V31.7344H82.0781V26.4141H93.5625V24.6562H82.0312ZM121.641 12.2578V14.1797C121.652 16.3594 121.652 18.7852 120.914 22.2188H124.008V24.0234H115.57V31.9688H113.344V24.0234H104.859V22.2188H118.723C119.051 20.8477 119.238 19.6172 119.355 18.5039L106.898 19.125L106.617 17.2031L119.484 16.8047C119.52 15.8672 119.531 15 119.531 14.1797V14.0625H107.227V12.2578H121.641ZM142.945 11.8828V13.7109H139.898V18.1172H142.852V19.875H136.266V22.2422H144.75V24.0234H125.602V22.2422H134.062V19.875H127.453V18.1172H130.43V13.7109H127.359V11.8828H142.945ZM128.016 31.5469V25.7109H130.266V29.7422H142.594V31.5469H128.016ZM132.633 18.1172H137.672V13.7109H132.633V18.1172ZM165.492 21.9609V23.7422H146.344V21.9609H165.492ZM148.406 15.8906C148.395 13.2539 151.336 11.6836 155.906 11.6953C160.453 11.6836 163.395 13.2539 163.406 15.8906C163.395 18.5391 160.453 20.1445 155.906 20.1562C151.336 20.1445 148.395 18.5391 148.406 15.8906ZM148.758 31.5469V25.4531H151.008V29.7422H163.336V31.5469H148.758ZM150.703 15.8906C150.691 17.4492 152.684 18.3281 155.906 18.3281C159.117 18.3281 161.121 17.4492 161.109 15.8906C161.121 14.3906 159.117 13.4766 155.906 13.4766C152.684 13.4766 150.691 14.3906 150.703 15.8906ZM189.445 11.0156V17.7656H192.492V19.6172H189.445V26.7188H187.219V11.0156H189.445ZM172.969 15.2578V13.4531H178.125V10.9922H180.352V13.4531H185.484V15.2578H172.969ZM174.117 20.2266C174.105 17.8242 176.18 16.2539 179.227 16.2656C182.238 16.2539 184.312 17.8242 184.312 20.2266C184.312 22.6055 182.238 24.1523 179.227 24.1641C176.18 24.1523 174.105 22.6055 174.117 20.2266ZM176.133 31.5469V25.4766H178.359V29.7422H190.336V31.5469H176.133ZM176.273 20.2266C176.25 21.5977 177.445 22.4414 179.227 22.4297C181.008 22.4414 182.203 21.5977 182.227 20.2266C182.203 18.8438 181.008 17.9883 179.227 17.9766C177.445 17.9883 176.25 18.8438 176.273 20.2266ZM211.195 10.9922V23.4844H208.969V18.1641H205.055V16.3359H208.969V10.9922H211.195ZM193.688 21.5859C196.945 20.4492 198.949 17.6133 198.938 14.7188V14.25H194.391V12.4453H205.711V14.25H201.211V14.6953C201.199 17.3555 203.098 19.9453 206.273 21.0234L205.125 22.7812C202.77 21.9727 201.035 20.2852 200.121 18.2109C199.207 20.5547 197.367 22.4414 194.859 23.3672L193.688 21.5859ZM197.062 28.0312C197.051 25.5352 199.746 24.082 204.164 24.0703C208.559 24.082 211.254 25.5352 211.266 28.0312C211.254 30.5273 208.559 31.9805 204.164 31.9922C199.746 31.9805 197.051 30.5273 197.062 28.0312ZM199.266 28.0312C199.254 29.4492 201.082 30.2578 204.164 30.2344C207.223 30.2578 209.051 29.4492 209.062 28.0312C209.051 26.6016 207.223 25.793 204.164 25.8047C201.082 25.793 199.254 26.6016 199.266 28.0312ZM225.188 12.8438C225.176 15.6328 228.586 18.2461 232.711 18.7969L231.844 20.625C228.41 20.0742 225.398 18.293 224.027 15.8203C222.656 18.293 219.645 20.0742 216.234 20.625L215.344 18.7969C219.457 18.2461 222.855 15.668 222.867 12.8438V11.6953H225.188V12.8438ZM214.43 24.5156V22.6875H233.578V24.5156H225.047V31.9922H222.867V24.5156H214.43ZM254.742 14.1328V15.9844H251.672V18.5625H254.742V20.4141H251.672V23.6953H249.445V11.0156H251.672V14.1328H254.742ZM236.016 14.0859V12.2812H245.578V18.1641H238.266V20.7188C241.91 20.7188 244.488 20.5781 247.547 20.0625L247.781 21.8672C244.535 22.4414 241.758 22.5703 237.727 22.5469H236.039V16.4531H243.398V14.0859H236.016ZM237.82 28.1016C237.82 25.6641 240.504 24.2109 244.875 24.2109C249.188 24.2109 251.859 25.6641 251.859 28.1016C251.859 30.5391 249.188 31.9453 244.875 31.9453C240.504 31.9453 237.82 30.5391 237.82 28.1016ZM240 28.1016C239.988 29.4727 241.793 30.2578 244.875 30.2344C247.91 30.2578 249.691 29.4727 249.68 28.1016C249.691 26.7422 247.91 25.957 244.875 25.9688C241.793 25.957 239.988 26.7422 240 28.1016ZM265.477 12.2578C269.883 12.2578 273.234 14.5898 273.234 18.1172C273.234 21.668 269.883 23.9883 265.477 23.9766C261.082 23.9883 257.73 21.668 257.742 18.1172C257.73 14.5898 261.082 12.2578 265.477 12.2578ZM255.914 29.2734V27.4219H275.133V29.2734H255.914ZM259.875 18.1172C259.863 20.5664 262.254 22.1484 265.477 22.1484C268.688 22.1484 271.066 20.5664 271.078 18.1172C271.066 15.6797 268.688 14.0508 265.477 14.0625C262.254 14.0508 259.863 15.6797 259.875 18.1172ZM295.875 27.6094V29.4844H276.656V27.6094H285.117V23.9297H279V17.25H291.328V14.2969H278.953V12.4688H293.531V19.0312H281.203V22.1016H294.023V23.9297H287.32V27.6094H295.875ZM306.258 11.8828V14.7422H311.766V11.8828H313.969V21.0469H304.078V11.8828H306.258ZM306.188 24.4688V22.7109H319.758V28.0078H308.414V30H320.484V31.7812H306.234V26.3672H317.555V24.4688H306.188ZM306.258 19.2656H311.766V16.4531H306.258V19.2656ZM317.531 21.7969V10.9922H319.758V15.3984H322.805V17.2031H319.758V21.7969H317.531ZM328.641 22.9688V25.5938H338.555V22.9688H340.734V31.7344H326.438V22.9688H328.641ZM324 21.2578V19.4531H338.051C338.555 17.0508 338.578 15.2695 338.578 13.7344H326.414V11.9062H340.781V13.5C340.793 15.0938 340.793 16.9102 340.242 19.4531H343.219V21.2578H324ZM328.641 29.9062H338.555V27.3281H328.641V29.9062ZM357.258 19.875V21.7031H352.828V25.5938C354.773 25.5117 356.73 25.3828 358.57 25.1719L358.734 26.8125C354.105 27.5039 349.137 27.5742 345.141 27.5859L344.859 25.7344C346.629 25.7344 348.586 25.7227 350.602 25.6758V21.7031H346.383V12.9375H357.164V14.7422H348.586V19.875H357.258ZM359.883 32.0391V10.9922H362.109V32.0391H359.883ZM376.055 13.0078V15.9375H380.789V10.9922H382.992V32.0391H380.789V23.5078H376.055V26.7422H366.305V13.0078H376.055ZM368.508 24.9609H373.875V14.7422H368.508V24.9609ZM376.055 21.7031H380.789V17.7656H376.055V21.7031ZM390 28.3828L388.125 34.8516H386.133L387.375 28.3828H390ZM417.445 27.5391V29.3672H398.227V27.5391H406.711V22.5703H408.938V27.5391H417.445ZM399.117 21.6094C403.02 20.9531 406.641 18.0352 406.641 14.8125V14.625H399.82V12.7969H415.781V14.625H408.961V14.8125C408.961 18.0352 412.605 20.8945 416.602 21.5156L415.711 23.2734C412.312 22.6406 409.184 20.6719 407.812 17.9062C406.465 20.707 403.359 22.7109 400.031 23.3672L399.117 21.6094ZM436.43 10.9922V31.9922H434.18V10.9922H436.43ZM419.18 26.3672C424.758 23.707 427.488 19.9219 427.922 15.0234H420.188V13.2422H430.172C430.172 19.3945 427.559 24.7148 420.352 28.1719L419.18 26.3672ZM464.789 27.4922V29.3203H445.57V27.4922H453.984V22.5H456.188V27.4922H464.789ZM446.227 21.0469C450.27 20.3672 453.879 17.25 453.891 13.9219V12.3281H456.234V13.9219C456.234 17.25 459.891 20.3672 463.945 21.0469L462.984 22.875C459.574 22.207 456.457 20.0977 455.074 17.2266C453.691 20.0859 450.598 22.207 447.211 22.875L446.227 21.0469ZM474.094 15.375C474.094 18.0938 476.098 20.6484 479.344 21.6797L478.195 23.4141C475.781 22.6172 473.965 20.9648 473.004 18.8672C472.066 21.1523 470.191 22.957 467.695 23.8359L466.547 22.0781C469.816 20.9648 471.832 18.2461 471.844 15.375V14.4609H467.133V12.6562H478.711V14.4609H474.094V15.375ZM469.992 31.5469V24.8906H472.242V29.7422H484.359V31.5469H469.992ZM481.5 26.3438V11.0156H483.727V26.3438H481.5ZM500.625 16.3359C500.602 20.168 502.922 24.0352 506.18 25.4766L504.844 27.2344C502.43 26.0859 500.52 23.7305 499.535 20.8594C498.562 23.9414 496.629 26.4727 494.109 27.7031L492.75 25.8281C496.055 24.3633 498.375 20.3438 498.375 16.3359V12.75H500.625V16.3359ZM508.078 32.0391V10.9922H510.305V32.0391H508.078ZM522.516 11.8828V14.7422H528.023V11.8828H530.227V21.0469H520.336V11.8828H522.516ZM522.445 24.4688V22.7109H536.016V28.0078H524.672V30H536.742V31.7812H522.492V26.3672H533.812V24.4688H522.445ZM522.516 19.2656H528.023V16.4531H522.516V19.2656ZM533.789 21.7969V10.9922H536.016V15.3984H539.062V17.2031H536.016V21.7969H533.789ZM544.898 22.9688V25.5938H554.812V22.9688H556.992V31.7344H542.695V22.9688H544.898ZM540.258 21.2578V19.4531H554.309C554.812 17.0508 554.836 15.2695 554.836 13.7344H542.672V11.9062H557.039V13.5C557.051 15.0938 557.051 16.9102 556.5 19.4531H559.477V21.2578H540.258ZM544.898 29.9062H554.812V27.3281H544.898V29.9062ZM578.391 10.9922V32.0391H576.164V10.9922H578.391ZM561.727 19.9219C561.727 15.4336 563.988 12.5742 567.164 12.5625C570.281 12.5742 572.578 15.4336 572.578 19.9219C572.578 24.457 570.281 27.3164 567.164 27.3047C563.988 27.3164 561.727 24.457 561.727 19.9219ZM563.883 19.9219C563.871 23.2617 565.207 25.3125 567.164 25.3125C569.086 25.3125 570.422 23.2617 570.422 19.9219C570.422 16.6289 569.086 14.5664 567.164 14.5547C565.207 14.5664 563.871 16.6289 563.883 19.9219ZM47.4375 60.4688V63.3047H55.9219V65.1328H36.7734V63.3047H45.2344V60.4688H47.4375ZM37.7578 59.8125C41.5547 59.4258 44.5312 57.7617 44.8359 55.7344H38.5312V53.9531H54.2109V55.7344H47.8359C48.1523 57.75 51.1289 59.4258 54.9375 59.8125L54.1406 61.5703C50.4961 61.1484 47.4844 59.6484 46.3359 57.4336C45.1875 59.6484 42.1992 61.1484 38.5547 61.5703L37.7578 59.8125ZM39.0469 70.3125C39.0469 67.957 41.7656 66.6562 46.3359 66.6562C50.8711 66.6562 53.5664 67.957 53.5781 70.3125C53.5664 72.6562 50.8711 73.957 46.3359 73.9453C41.7656 73.957 39.0469 72.6562 39.0469 70.3125ZM41.2969 70.3125C41.2852 71.5664 43.0898 72.2578 46.3359 72.2578C49.5352 72.2578 51.3516 71.5664 51.3516 70.3125C51.3516 69.0586 49.5352 68.3789 46.3359 68.3672C43.0898 68.3789 41.2852 69.0586 41.2969 70.3125ZM76.7344 69.6094V71.4844H57.5156V69.6094H62.7656V65.9062H59.8594V59.2266H72.1875V56.2969H59.8125V54.4688H74.3906V61.0312H62.0625V64.0781H74.8828V65.9062H71.6953V69.6094H76.7344ZM64.9219 69.6094H69.5156V65.9062H64.9219V69.6094ZM90.4922 58.3125V60.0469H86.4375V61.9219C88.3359 61.8281 90.2227 61.6992 91.9922 61.5L92.0859 63.0234C87.6211 63.7031 82.6523 63.832 78.6562 63.8203L78.375 62.0859C80.1797 62.0859 82.1602 62.0625 84.1875 62.0039V60.0469H80.2734V53.8828H90.2578V55.5703H82.5703V58.3125H90.4922ZM81.6328 66.8672V65.1094H95.7188V70.1953H83.8594V72H96.375V73.7812H81.6797V68.5312H93.5156V66.8672H81.6328ZM93.5156 64.2188V53.0156H95.7188V64.2188H93.5156ZM115.617 54.8438C115.605 57.6328 119.016 60.2461 123.141 60.7969L122.273 62.625C118.84 62.0742 115.828 60.293 114.457 57.8203C113.086 60.293 110.074 62.0742 106.664 62.625L105.773 60.7969C109.887 60.2461 113.285 57.668 113.297 54.8438V53.6953H115.617V54.8438ZM104.859 66.5156V64.6875H124.008V66.5156H115.477V73.9922H113.297V66.5156H104.859ZM138.75 66.8672C138.75 68.6719 139.641 70.582 141.551 71.7188C143.473 70.4883 144.422 68.4844 144.422 66.8672V65.8594H146.602V66.8672C146.59 69.0469 148.031 71.1562 150.773 72.0469L149.672 73.6875C147.598 72.9727 146.18 71.5664 145.453 69.8555C144.785 71.543 143.531 73.0781 141.609 73.875C139.594 73.1133 138.316 71.625 137.672 69.9141C136.91 71.5664 135.527 72.9609 133.547 73.6875L132.422 72.0469C135.117 71.0859 136.582 68.8945 136.594 66.8672V65.8594H138.75V66.8672ZM131.883 59.1328C131.895 56.1914 134.262 54.1758 137.484 54.1641C140.695 54.1758 143.062 56.1914 143.062 59.1328C143.062 62.0391 140.695 64.0547 137.484 64.0547C134.262 64.0547 131.895 62.0391 131.883 59.1328ZM134.062 59.1328C134.051 60.9609 135.492 62.2031 137.484 62.2031C139.453 62.2031 140.883 60.9609 140.883 59.1328C140.883 57.293 139.453 56.0508 137.484 56.0625C135.492 56.0508 134.051 57.293 134.062 59.1328ZM146.648 64.9688V53.0156H148.875V64.9688H146.648ZM156.773 65.5781V67.8047H166.641V65.5781H168.867V73.7344H154.57V65.5781H156.773ZM152.203 64.2656V62.4141H171.352V64.2656H152.203ZM153.234 59.3672C157.301 58.8398 160.629 56.6016 160.641 54.1172V53.2266H162.914V54.1172C162.926 56.5312 166.277 58.875 170.297 59.3672L169.5 61.125C166.102 60.6562 163.137 59.0391 161.789 56.8008C160.43 59.0508 157.453 60.6562 154.078 61.125L153.234 59.3672ZM156.773 71.9531H166.641V69.5391H156.773V71.9531ZM190.383 52.9922V73.9922H188.156V52.9922H190.383ZM174.234 68.6484V55.0312H176.438V66.7266C179.508 66.7148 182.73 66.4453 186.094 65.7656L186.398 67.6406C182.684 68.4023 179.309 68.6602 175.992 68.6484H174.234ZM210.047 52.9922V61.125H213.422V62.9531H210.047V74.0391H207.82V52.9922H210.047ZM194.578 68.8125V55.0078H204.398V56.8125H196.805V66.9609C200.332 66.9492 202.969 66.7969 205.969 66.2578L206.25 68.1328C202.957 68.7188 200.168 68.8242 196.266 68.8125H194.578ZM216.82 72.1641C215.906 72.1523 215.145 71.4141 215.156 70.5C215.145 69.5859 215.906 68.8359 216.82 68.8359C217.723 68.8359 218.473 69.5859 218.484 70.5C218.473 71.4141 217.723 72.1523 216.82 72.1641Z" fill="white"/>
<path d="M17.918 25.8984C16.4648 25.8867 15.2812 24.7031 15.2695 23.2266C15.2812 21.7734 16.4648 20.5898 17.918 20.5781C19.3945 20.5898 20.5781 21.7734 20.5898 23.2266C20.5781 24.7031 19.3945 25.8867 17.918 25.8984Z" fill="white"/>
<path d="M53.1328 114.992V123.125H56.5078V124.953H53.1328V136.039H50.9062V114.992H53.1328ZM37.6641 130.812V117.008H47.4844V118.812H39.8906V128.961C43.418 128.949 46.0547 128.797 49.0547 128.258L49.3359 130.133C46.043 130.719 43.2539 130.824 39.3516 130.812H37.6641ZM76.7109 125.516V127.32H68.3906V131.398H66.1406V127.32H57.4922V125.516H76.7109ZM59.6016 119.75C59.5898 117.125 62.5664 115.496 67.0781 115.484C71.5898 115.496 74.543 117.125 74.5312 119.75C74.543 122.363 71.5898 123.992 67.0781 123.992C62.5664 123.992 59.5898 122.363 59.6016 119.75ZM59.9062 135.547V129.383H62.1328V133.719H74.5781V135.547H59.9062ZM61.9922 119.75C61.9688 121.262 64.0078 122.188 67.0781 122.188C70.1602 122.188 72.1758 121.262 72.1875 119.75C72.1758 118.191 70.1602 117.277 67.0781 117.266C64.0078 117.277 61.9688 118.191 61.9922 119.75ZM94.7578 114.992V119.961H97.8047V121.812H94.7578V127.25H92.5312V114.992H94.7578ZM79.0781 126.031V116.188H81.2578V119.234H86.7656V116.188H88.9688V126.031H79.0781ZM81.2578 124.273H86.7656V120.992H81.2578V124.273ZM81.375 135.688V128.352H94.9219V130.133H83.6016V133.93H95.2969V135.688H81.375ZM118.148 125.961V127.742H99V125.961H118.148ZM101.062 119.891C101.051 117.254 103.992 115.684 108.562 115.695C113.109 115.684 116.051 117.254 116.062 119.891C116.051 122.539 113.109 124.145 108.562 124.156C103.992 124.145 101.051 122.539 101.062 119.891ZM101.414 135.547V129.453H103.664V133.742H115.992V135.547H101.414ZM103.359 119.891C103.348 121.449 105.34 122.328 108.562 122.328C111.773 122.328 113.777 121.449 113.766 119.891C113.777 118.391 111.773 117.477 108.562 117.477C105.34 117.477 103.348 118.391 103.359 119.891ZM142.383 116.258V118.18C142.395 120.359 142.395 122.785 141.656 126.219H144.75V128.023H136.312V135.969H134.086V128.023H125.602V126.219H139.465C139.793 124.848 139.98 123.617 140.098 122.504L127.641 123.125L127.359 121.203L140.227 120.805C140.262 119.867 140.273 119 140.273 118.18V118.062H127.969V116.258H142.383ZM163.688 115.883V117.711H160.641V122.117H163.594V123.875H157.008V126.242H165.492V128.023H146.344V126.242H154.805V123.875H148.195V122.117H151.172V117.711H148.102V115.883H163.688ZM148.758 135.547V129.711H151.008V133.742H163.336V135.547H148.758ZM153.375 122.117H158.414V117.711H153.375V122.117ZM186.234 125.961V127.742H167.086V125.961H186.234ZM169.148 119.891C169.137 117.254 172.078 115.684 176.648 115.695C181.195 115.684 184.137 117.254 184.148 119.891C184.137 122.539 181.195 124.145 176.648 124.156C172.078 124.145 169.137 122.539 169.148 119.891ZM169.5 135.547V129.453H171.75V133.742H184.078V135.547H169.5ZM171.445 119.891C171.434 121.449 173.426 122.328 176.648 122.328C179.859 122.328 181.863 121.449 181.852 119.891C181.863 118.391 179.859 117.477 176.648 117.477C173.426 117.477 171.434 118.391 171.445 119.891ZM212.883 127.133V128.961H208.172V135.992H205.945V128.961H200.625V135.992H198.352V128.961H193.664V127.133H212.883ZM196.055 124.812V115.812H198.258V118.484H208.242V115.812H210.469V124.812H196.055ZM198.258 123.031H208.242V120.242H198.258V123.031ZM226.102 116.844V118.672H217.922V122.727H225.305V124.508H217.922V129.219C221.59 129.195 224.25 129.066 227.367 128.562L227.602 130.367C224.273 130.906 221.391 131.012 217.43 131.023H215.719V116.844H226.102ZM229.641 135.992V114.992H231.891V135.992H229.641ZM247.195 117.148V118.977H245.039V128.762C246.082 128.68 247.102 128.586 248.086 128.469L248.203 130.086C243.809 130.824 238.852 130.895 235.172 130.906L234.914 129.055C235.746 129.055 236.648 129.043 237.586 129.031V118.977H235.43V117.148H247.195ZM239.742 128.996C240.773 128.973 241.828 128.938 242.883 128.891V118.977H239.742V128.996ZM249.305 135.992V114.992H251.531V123.266H254.906V125.094H251.531V135.992H249.305ZM275.109 126.922V128.773H266.531V135.992H264.352V128.773H255.891V126.922H275.109ZM257.977 120.453C257.988 117.594 261.012 115.789 265.453 115.789C269.895 115.789 272.941 117.594 272.93 120.453C272.941 123.277 269.895 125.07 265.453 125.07C261.012 125.07 257.988 123.277 257.977 120.453ZM260.273 120.453C260.262 122.199 262.336 123.289 265.453 123.289C268.582 123.289 270.645 122.199 270.656 120.453C270.645 118.684 268.582 117.582 265.453 117.57C262.336 117.582 260.262 118.684 260.273 120.453ZM294.047 114.992V135.992H291.82V114.992H294.047ZM276.961 130.25C280.207 128.797 282.363 125.258 282.375 121.742V120.359H277.594V118.578H282.352V115.414H284.555V118.578H289.266V120.359H284.555V121.742C284.566 125.094 286.77 128.516 290.039 129.898L288.82 131.609C286.395 130.555 284.473 128.363 283.5 125.715C282.551 128.527 280.641 130.859 278.203 131.961L276.961 130.25ZM311.508 125.75V127.906H303.984V125.75H311.508ZM336.422 116.258V118.18C336.434 120.359 336.434 122.785 335.695 126.219H338.789V128.023H330.352V135.969H328.125V128.023H319.641V126.219H333.504C333.832 124.848 334.02 123.617 334.137 122.504L321.68 123.125L321.398 121.203L334.266 120.805C334.301 119.867 334.312 119 334.312 118.18V118.062H322.008V116.258H336.422ZM357.727 115.883V117.711H354.68V122.117H357.633V123.875H351.047V126.242H359.531V128.023H340.383V126.242H348.844V123.875H342.234V122.117H345.211V117.711H342.141V115.883H357.727ZM342.797 135.547V129.711H345.047V133.742H357.375V135.547H342.797ZM347.414 122.117H352.453V117.711H347.414V122.117ZM377.625 114.992V120.43H380.672V122.328H377.625V127.648H375.398V114.992H377.625ZM361.148 118.906V117.125H366.305V114.828H368.531V117.125H373.664V118.906H361.148ZM362.297 123.57C362.285 121.332 364.348 119.82 367.406 119.82C370.441 119.82 372.492 121.332 372.492 123.57C372.492 125.844 370.43 127.332 367.406 127.344C364.348 127.332 362.285 125.844 362.297 123.57ZM364.219 135.734V128.75H377.625V135.734H364.219ZM364.453 123.57C364.43 124.871 365.625 125.645 367.406 125.656C369.188 125.645 370.383 124.871 370.406 123.57C370.383 122.316 369.188 121.52 367.406 121.531C365.625 121.52 364.43 122.316 364.453 123.57ZM366.398 133.93H375.422V130.508H366.398V133.93ZM399.938 114.992V135.992H397.805V114.992H399.938ZM382.102 124.062C382.102 119.516 383.883 116.668 386.625 116.68C389.18 116.668 390.902 119.094 391.16 123.031H393.539V115.391H395.672V134.961H393.539V124.836H391.172C390.973 128.938 389.227 131.48 386.625 131.469C383.883 131.48 382.102 128.621 382.102 124.062ZM384.164 124.062C384.164 127.402 385.113 129.371 386.625 129.359C388.172 129.371 389.133 127.402 389.133 124.062C389.133 120.711 388.172 118.754 386.625 118.766C385.113 118.754 384.164 120.711 384.164 124.062ZM410.18 120.336C410.18 124.18 412.336 128.012 415.547 129.453L414.188 131.234C411.809 130.039 410.004 127.672 409.078 124.801C408.152 127.824 406.324 130.379 403.898 131.633L402.492 129.828C405.75 128.27 407.918 124.227 407.93 120.336V116.75H410.18V120.336ZM413.227 123.781V121.977H417.914V114.992H420.117V136.039H417.914V123.781H413.227ZM445.734 115.016V121.25H448.734V123.078H445.734V129.148H443.508V115.016H445.734ZM429.07 126.805C430.699 126.805 432.586 126.805 434.555 126.758V125.34C432.164 125.07 430.641 123.945 430.664 122.258C430.641 120.336 432.645 119.141 435.656 119.164C438.668 119.141 440.637 120.336 440.648 122.258C440.637 123.934 439.148 125.059 436.781 125.34V126.676C438.656 126.582 440.555 126.43 442.312 126.172L442.5 127.766C437.988 128.551 433.008 128.586 429.305 128.586L429.07 126.805ZM429.609 118.461V116.797H434.555V114.828H436.781V116.797H441.727V118.461H429.609ZM431.695 131.867V130.133H445.734V135.992H443.508V131.867H431.695ZM432.773 122.258C432.773 123.242 433.863 123.887 435.656 123.875C437.426 123.887 438.527 123.242 438.516 122.258C438.527 121.25 437.426 120.664 435.656 120.688C433.863 120.664 432.773 121.25 432.773 122.258ZM467.367 115.016V130.273H465.141V115.016H467.367ZM450.375 121.625C450.387 118.59 452.801 116.434 455.977 116.422C459.141 116.434 461.555 118.59 461.555 121.625C461.555 124.707 459.141 126.852 455.977 126.852C452.801 126.852 450.387 124.707 450.375 121.625ZM452.555 121.625C452.543 123.605 454.02 124.906 455.977 124.906C457.898 124.906 459.375 123.605 459.375 121.625C459.375 119.691 457.898 118.367 455.977 118.367C454.02 118.367 452.543 119.691 452.555 121.625ZM453.633 135.547V128.727H455.883V133.742H468V135.547H453.633ZM492.914 114.992V123.359H496.172V125.211H492.914V135.969H490.688V114.992H492.914ZM476.578 130.367C481.84 127.742 484.699 123.945 485.156 119.047H477.633V117.195H487.43C487.406 123.266 484.734 128.691 477.82 132.102L476.578 130.367ZM514.266 120.664V122.469H499.852V115.367H502.055V120.664H514.266ZM497.297 126.523V124.695H516.469V126.523H497.297ZM499.57 132.055C499.57 129.605 502.301 128.223 506.859 128.234C511.383 128.223 514.09 129.605 514.102 132.055C514.09 134.516 511.383 135.898 506.859 135.898C502.301 135.898 499.57 134.516 499.57 132.055ZM501.82 132.055C501.809 133.402 503.648 134.176 506.859 134.188C510.023 134.176 511.875 133.402 511.875 132.055C511.875 130.695 510.023 129.98 506.859 129.969C503.648 129.98 501.809 130.695 501.82 132.055ZM534.539 114.992V120.266H537.586V122.141H534.539V127.227H532.312V114.992H534.539ZM518.062 118.836V117.055H523.219V114.805H525.445V117.055H530.578V118.836H518.062ZM519.211 123.383C519.199 121.145 521.262 119.691 524.32 119.703C527.344 119.691 529.406 121.145 529.406 123.383C529.406 125.621 527.344 127.086 524.32 127.062C521.262 127.086 519.199 125.621 519.211 123.383ZM521.109 135.734V128.094H523.312V130.133H532.312V128.094H534.539V135.734H521.109ZM521.367 123.383C521.344 124.637 522.539 125.41 524.32 125.422C526.102 125.41 527.297 124.637 527.32 123.383C527.297 122.152 526.102 121.355 524.32 121.367C522.539 121.355 521.344 122.152 521.367 123.383ZM523.312 133.953H532.312V131.867H523.312V133.953ZM556.219 114.992V135.992H553.992V114.992H556.219ZM540.07 130.648V117.031H542.273V128.727C545.344 128.715 548.566 128.445 551.93 127.766L552.234 129.641C548.52 130.402 545.145 130.66 541.828 130.648H540.07ZM575.883 114.992V123.125H579.258V124.953H575.883V136.039H573.656V114.992H575.883ZM560.414 130.812V117.008H570.234V118.812H562.641V128.961C566.168 128.949 568.805 128.797 571.805 128.258L572.086 130.133C568.793 130.719 566.004 130.824 562.102 130.812H560.414ZM582.656 134.164C581.742 134.152 580.98 133.414 580.992 132.5C580.98 131.586 581.742 130.836 582.656 130.836C583.559 130.836 584.309 131.586 584.32 132.5C584.309 133.414 583.559 134.152 582.656 134.164Z" fill="white"/>
<path d="M17.918 129.898C16.4648 129.887 15.2812 128.703 15.2695 127.227C15.2812 125.773 16.4648 124.59 17.918 124.578C19.3945 124.59 20.5781 125.773 20.5898 127.227C20.5781 128.703 19.3945 129.887 17.918 129.898Z" fill="white"/>
<path d="M53.5547 178.258V180.18C53.5664 182.359 53.5664 184.785 52.8281 188.219H55.9219V190.023H47.4844V197.969H45.2578V190.023H36.7734V188.219H50.6367C50.9648 186.848 51.1523 185.617 51.2695 184.504L38.8125 185.125L38.5312 183.203L51.3984 182.805C51.4336 181.867 51.4453 181 51.4453 180.18V180.062H39.1406V178.258H53.5547ZM74.8594 177.883V179.711H71.8125V184.117H74.7656V185.875H68.1797V188.242H76.6641V190.023H57.5156V188.242H65.9766V185.875H59.3672V184.117H62.3438V179.711H59.2734V177.883H74.8594ZM59.9297 197.547V191.711H62.1797V195.742H74.5078V197.547H59.9297ZM64.5469 184.117H69.5859V179.711H64.5469V184.117ZM95.7422 176.992V187.914H93.5391V185.406H88.9453V187.141H79.2656V177.953H81.4922V180.789H86.7422V177.953H88.9453V179.875H93.5391V176.992H95.7422ZM81.4922 185.359H86.7422V182.5H81.4922V185.359ZM82.0078 190.586V188.852H95.7422V194.008H84.2812V195.953H96.4922V197.734H82.0547V192.344H93.5391V190.586H82.0078ZM88.9453 183.695H93.5391V181.586H88.9453V183.695ZM112.148 182.336C112.125 186.051 114.293 189.859 117.422 191.383L116.039 193.164C113.754 191.969 111.984 189.625 111.059 186.824C110.121 189.801 108.281 192.32 105.891 193.562L104.508 191.758C107.73 190.211 109.91 186.18 109.922 182.336V178.75H112.148V182.336ZM118.992 197.992V176.992H121.219V185.359H124.594V187.258H121.219V197.992H118.992ZM144.75 187.234V189.039H125.602V187.234H130.195V184.41C128.566 183.754 127.652 182.699 127.664 181.305C127.652 178.809 130.547 177.355 135.164 177.367C139.77 177.355 142.652 178.809 142.664 181.305C142.652 182.699 141.738 183.754 140.109 184.422V187.234H144.75ZM127.875 194.195C127.875 191.793 130.594 190.469 135.164 190.469C139.676 190.469 142.395 191.793 142.406 194.195C142.395 196.621 139.676 197.945 135.164 197.945C130.594 197.945 127.875 196.621 127.875 194.195ZM129.961 181.305C129.949 182.711 131.895 183.496 135.164 183.508C138.41 183.496 140.379 182.711 140.367 181.305C140.379 179.898 138.41 179.09 135.164 179.078C131.895 179.09 129.949 179.898 129.961 181.305ZM130.125 194.195C130.113 195.508 131.953 196.258 135.164 196.234C138.328 196.258 140.18 195.508 140.18 194.195C140.18 192.906 138.328 192.18 135.164 192.18C131.953 192.18 130.113 192.906 130.125 194.195ZM132.445 187.234H137.906V184.996C137.086 185.125 136.16 185.195 135.164 185.195C134.18 185.195 133.266 185.125 132.445 185.008V187.234ZM165.562 193.539V195.367H146.344V193.539H154.828V188.57H157.055V193.539H165.562ZM147.234 187.609C151.137 186.953 154.758 184.035 154.758 180.812V180.625H147.938V178.797H163.898V180.625H157.078V180.812C157.078 184.035 160.723 186.895 164.719 187.516L163.828 189.273C160.43 188.641 157.301 186.672 155.93 183.906C154.582 186.707 151.477 188.711 148.148 189.367L147.234 187.609ZM184.594 177.016V192.484H182.367V185.195H178.008V183.344H182.367V177.016H184.594ZM167.391 188.359C172.066 186.848 175.242 184 175.699 180.438H168.469V178.586H178.148C178.125 184.07 174.363 188.195 168.328 190.141L167.391 188.359ZM171.07 197.547V190.891H173.32V195.742H185.133V197.547H171.07ZM205.219 176.992V198.039H202.992V176.992H205.219ZM188.555 185.922C188.555 181.434 190.816 178.574 193.992 178.562C197.109 178.574 199.406 181.434 199.406 185.922C199.406 190.457 197.109 193.316 193.992 193.305C190.816 193.316 188.555 190.457 188.555 185.922ZM190.711 185.922C190.699 189.262 192.035 191.312 193.992 191.312C195.914 191.312 197.25 189.262 197.25 185.922C197.25 182.629 195.914 180.566 193.992 180.555C192.035 180.566 190.699 182.629 190.711 185.922ZM221.672 180.344C221.66 183.098 223.605 185.664 226.734 186.695L225.539 188.453C223.242 187.645 221.52 186.004 220.605 183.93C219.691 186.285 217.91 188.137 215.461 189.039L214.266 187.258C217.547 186.098 219.445 183.297 219.469 180.156V178.094H221.672V180.344ZM217.102 194.055C217.102 191.594 219.785 190.152 224.156 190.164C228.469 190.152 231.117 191.594 231.117 194.055C231.117 196.539 228.469 197.957 224.156 197.945C219.785 197.957 217.102 196.539 217.102 194.055ZM219.328 194.055C219.316 195.438 221.121 196.188 224.156 196.211C227.168 196.188 228.949 195.438 228.938 194.055C228.949 192.719 227.168 191.922 224.156 191.922C221.121 191.922 219.316 192.719 219.328 194.055ZM228.703 189.672V176.992H230.93V182.266H233.977V184.141H230.93V189.672H228.703ZM252.562 176.992V198.039H250.336V176.992H252.562ZM235.898 185.922C235.898 181.434 238.16 178.574 241.336 178.562C244.453 178.574 246.75 181.434 246.75 185.922C246.75 190.457 244.453 193.316 241.336 193.305C238.16 193.316 235.898 190.457 235.898 185.922ZM238.055 185.922C238.043 189.262 239.379 191.312 241.336 191.312C243.258 191.312 244.594 189.262 244.594 185.922C244.594 182.629 243.258 180.566 241.336 180.555C239.379 180.566 238.043 182.629 238.055 185.922ZM278.273 176.992V182.266H281.32V184.141H278.273V189.227H276.047V176.992H278.273ZM261.797 180.836V179.055H266.953V176.805H269.18V179.055H274.312V180.836H261.797ZM262.945 185.383C262.934 183.145 264.996 181.691 268.055 181.703C271.078 181.691 273.141 183.145 273.141 185.383C273.141 187.621 271.078 189.086 268.055 189.062C264.996 189.086 262.934 187.621 262.945 185.383ZM264.844 197.734V190.094H267.047V192.133H276.047V190.094H278.273V197.734H264.844ZM265.102 185.383C265.078 186.637 266.273 187.41 268.055 187.422C269.836 187.41 271.031 186.637 271.055 185.383C271.031 184.152 269.836 183.355 268.055 183.367C266.273 183.355 265.078 184.152 265.102 185.383ZM267.047 195.953H276.047V193.867H267.047V195.953ZM299.953 176.992V197.992H297.727V176.992H299.953ZM283.805 192.648V179.031H286.008V190.727C289.078 190.715 292.301 190.445 295.664 189.766L295.969 191.641C292.254 192.402 288.879 192.66 285.562 192.648H283.805ZM319.617 176.992V185.125H322.992V186.953H319.617V198.039H317.391V176.992H319.617ZM304.148 192.812V179.008H313.969V180.812H306.375V190.961C309.902 190.949 312.539 190.797 315.539 190.258L315.82 192.133C312.527 192.719 309.738 192.824 305.836 192.812H304.148ZM326.391 196.164C325.477 196.152 324.715 195.414 324.727 194.5C324.715 193.586 325.477 192.836 326.391 192.836C327.293 192.836 328.043 193.586 328.055 194.5C328.043 195.414 327.293 196.152 326.391 196.164ZM343.219 183.18C343.207 186.496 345.398 190.199 348.586 191.711L347.32 193.445C344.965 192.32 343.09 189.953 342.141 187.211C341.18 190.199 339.211 192.789 336.82 193.984L335.508 192.227C338.695 190.691 341.004 186.73 341.016 183.18V180.953H336.281V179.102H347.789V180.953H343.219V183.18ZM350.039 197.992V176.992H352.266V185.312H355.641V187.188H352.266V197.992H350.039ZM363.047 182.734C363.047 186.086 364.453 189.66 367.266 191.383L366.023 193.094C364.055 191.91 362.73 189.812 362.004 187.387C361.242 190.047 359.789 192.32 357.75 193.562L356.367 191.898C359.332 190.117 360.902 186.402 360.891 182.828V178.914H363.047V182.734ZM364.992 186.227V184.375H368.25V177.391H370.359V196.961H368.25V186.227H364.992ZM372.586 197.992V176.992H374.719V197.992H372.586ZM393.891 177.016V183.766H396.938V185.617H393.891V192.719H391.664V177.016H393.891ZM377.414 181.258V179.453H382.57V176.992H384.797V179.453H389.93V181.258H377.414ZM378.562 186.227C378.551 183.824 380.625 182.254 383.672 182.266C386.684 182.254 388.758 183.824 388.758 186.227C388.758 188.605 386.684 190.152 383.672 190.164C380.625 190.152 378.551 188.605 378.562 186.227ZM380.578 197.547V191.477H382.805V195.742H394.781V197.547H380.578ZM380.719 186.227C380.695 187.598 381.891 188.441 383.672 188.43C385.453 188.441 386.648 187.598 386.672 186.227C386.648 184.844 385.453 183.988 383.672 183.977C381.891 183.988 380.695 184.844 380.719 186.227ZM411.281 182.336C411.258 186.051 413.426 189.859 416.555 191.383L415.172 193.164C412.887 191.969 411.117 189.625 410.191 186.824C409.254 189.801 407.414 192.32 405.023 193.562L403.641 191.758C406.863 190.211 409.043 186.18 409.055 182.336V178.75H411.281V182.336ZM418.125 197.992V176.992H420.352V185.359H423.727V187.258H420.352V197.992H418.125ZM443.883 187.234V189.039H424.734V187.234H429.328V184.41C427.699 183.754 426.785 182.699 426.797 181.305C426.785 178.809 429.68 177.355 434.297 177.367C438.902 177.355 441.785 178.809 441.797 181.305C441.785 182.699 440.871 183.754 439.242 184.422V187.234H443.883ZM427.008 194.195C427.008 191.793 429.727 190.469 434.297 190.469C438.809 190.469 441.527 191.793 441.539 194.195C441.527 196.621 438.809 197.945 434.297 197.945C429.727 197.945 427.008 196.621 427.008 194.195ZM429.094 181.305C429.082 182.711 431.027 183.496 434.297 183.508C437.543 183.496 439.512 182.711 439.5 181.305C439.512 179.898 437.543 179.09 434.297 179.078C431.027 179.09 429.082 179.898 429.094 181.305ZM429.258 194.195C429.246 195.508 431.086 196.258 434.297 196.234C437.461 196.258 439.312 195.508 439.312 194.195C439.312 192.906 437.461 192.18 434.297 192.18C431.086 192.18 429.246 192.906 429.258 194.195ZM431.578 187.234H437.039V184.996C436.219 185.125 435.293 185.195 434.297 185.195C433.312 185.195 432.398 185.125 431.578 185.008V187.234ZM464.695 193.539V195.367H445.477V193.539H453.961V188.57H456.188V193.539H464.695ZM446.367 187.609C450.27 186.953 453.891 184.035 453.891 180.812V180.625H447.07V178.797H463.031V180.625H456.211V180.812C456.211 184.035 459.855 186.895 463.852 187.516L462.961 189.273C459.562 188.641 456.434 186.672 455.062 183.906C453.715 186.707 450.609 188.711 447.281 189.367L446.367 187.609ZM483.727 177.016V192.484H481.5V185.195H477.141V183.344H481.5V177.016H483.727ZM466.523 188.359C471.199 186.848 474.375 184 474.832 180.438H467.602V178.586H477.281C477.258 184.07 473.496 188.195 467.461 190.141L466.523 188.359ZM470.203 197.547V190.891H472.453V195.742H484.266V197.547H470.203ZM506.109 187.961V189.742H486.961V187.961H506.109ZM489.023 181.891C489.012 179.254 491.953 177.684 496.523 177.695C501.07 177.684 504.012 179.254 504.023 181.891C504.012 184.539 501.07 186.145 496.523 186.156C491.953 186.145 489.012 184.539 489.023 181.891ZM489.375 197.547V191.453H491.625V195.742H503.953V197.547H489.375ZM491.32 181.891C491.309 183.449 493.301 184.328 496.523 184.328C499.734 184.328 501.738 183.449 501.727 181.891C501.738 180.391 499.734 179.477 496.523 179.477C493.301 179.477 491.309 180.391 491.32 181.891ZM530.344 178.258V180.18C530.355 182.359 530.355 184.785 529.617 188.219H532.711V190.023H524.273V197.969H522.047V190.023H513.562V188.219H527.426C527.754 186.848 527.941 185.617 528.059 184.504L515.602 185.125L515.32 183.203L528.188 182.805C528.223 181.867 528.234 181 528.234 180.18V180.062H515.93V178.258H530.344ZM551.648 177.883V179.711H548.602V184.117H551.555V185.875H544.969V188.242H553.453V190.023H534.305V188.242H542.766V185.875H536.156V184.117H539.133V179.711H536.062V177.883H551.648ZM536.719 197.547V191.711H538.969V195.742H551.297V197.547H536.719ZM541.336 184.117H546.375V179.711H541.336V184.117ZM53.2734 218.969V225.25H56.3203V227.125H53.2734V234.414H51.0469V218.969H53.2734ZM37.1016 225.648C37.0781 222.59 39.5156 220.434 42.6797 220.422C45.8555 220.434 48.2578 222.59 48.2812 225.648C48.2578 228.707 45.8555 230.887 42.6797 230.875C39.5156 230.887 37.0781 228.707 37.1016 225.648ZM39.2812 225.648C39.2578 227.605 40.7578 228.93 42.6797 228.93C44.625 228.93 46.0898 227.605 46.1016 225.648C46.0898 223.691 44.625 222.367 42.6797 222.367C40.7578 222.367 39.2578 223.691 39.2812 225.648ZM39.9609 239.547V232.797H42.1875V237.742H54.1641V239.547H39.9609ZM75.4922 218.992V239.992H73.3594V229.234H70.6641V238.914H68.5781V219.414H70.6641V227.406H73.3594V218.992H75.4922ZM58.5 234.648V221.477H60.7266V232.691C62.6602 232.668 64.7812 232.516 67.1719 232.047L67.4062 233.992C64.5234 234.508 62.1211 234.66 59.8594 234.648H58.5ZM97.4531 228.625V230.336H78.2344V228.625H97.4531ZM80.5078 233.406V231.812H95.0859V236.43H82.7578V238.164H95.7422V239.734H80.5312V234.953H92.8828V233.406H80.5078ZM80.6484 221.102V219.531H95.0391V224.078H82.8984V225.672H95.3906V227.242H80.6953V222.602H92.8125V221.102H80.6484ZM121.383 219.016V225.25H124.383V227.078H121.383V233.148H119.156V219.016H121.383ZM104.719 230.805C106.348 230.805 108.234 230.805 110.203 230.758V229.34C107.812 229.07 106.289 227.945 106.312 226.258C106.289 224.336 108.293 223.141 111.305 223.164C114.316 223.141 116.285 224.336 116.297 226.258C116.285 227.934 114.797 229.059 112.43 229.34V230.676C114.305 230.582 116.203 230.43 117.961 230.172L118.148 231.766C113.637 232.551 108.656 232.586 104.953 232.586L104.719 230.805ZM105.258 222.461V220.797H110.203V218.828H112.43V220.797H117.375V222.461H105.258ZM107.344 235.867V234.133H121.383V239.992H119.156V235.867H107.344ZM108.422 226.258C108.422 227.242 109.512 227.887 111.305 227.875C113.074 227.887 114.176 227.242 114.164 226.258C114.176 225.25 113.074 224.664 111.305 224.688C109.512 224.664 108.422 225.25 108.422 226.258ZM143.016 219.016V234.273H140.789V219.016H143.016ZM126.023 225.625C126.035 222.59 128.449 220.434 131.625 220.422C134.789 220.434 137.203 222.59 137.203 225.625C137.203 228.707 134.789 230.852 131.625 230.852C128.449 230.852 126.035 228.707 126.023 225.625ZM128.203 225.625C128.191 227.605 129.668 228.906 131.625 228.906C133.547 228.906 135.023 227.605 135.023 225.625C135.023 223.691 133.547 222.367 131.625 222.367C129.668 222.367 128.191 223.691 128.203 225.625ZM129.281 239.547V232.727H131.531V237.742H143.648V239.547H129.281ZM156.727 222.461V224.266H146.297V222.461H150.422V219.602H152.625V222.461H156.727ZM146.977 230.359C146.965 227.535 148.887 225.531 151.523 225.531C154.184 225.531 156.082 227.535 156.094 230.359C156.082 233.23 154.184 235.246 151.523 235.234C148.887 235.246 146.965 233.23 146.977 230.359ZM148.945 230.359C148.934 232.141 150.012 233.336 151.523 233.336C153.035 233.336 154.125 232.141 154.125 230.359C154.125 228.613 153.035 227.395 151.523 227.383C150.012 227.395 148.934 228.613 148.945 230.359ZM157.688 239.008V219.461H159.797V227.734H162.211V218.992H164.32V239.992H162.211V229.562H159.797V239.008H157.688ZM192.094 230.828V232.633H183.562V239.969H181.383V232.633H172.945V230.828H192.094ZM174.023 227.477C177.938 226.938 181.195 224.605 181.266 222.016H174.727V220.234H190.289V222.016H183.797C183.832 224.605 187.066 226.938 191.039 227.477L190.219 229.234C186.773 228.695 183.797 226.996 182.52 224.605C181.23 226.996 178.266 228.695 174.867 229.234L174.023 227.477ZM200.086 224.734C200.086 228.086 201.492 231.66 204.305 233.383L203.062 235.094C201.094 233.91 199.77 231.812 199.043 229.387C198.281 232.047 196.828 234.32 194.789 235.562L193.406 233.898C196.371 232.117 197.941 228.402 197.93 224.828V220.914H200.086V224.734ZM202.031 228.227V226.375H205.289V219.391H207.398V238.961H205.289V228.227H202.031ZM209.625 239.992V218.992H211.758V239.992H209.625ZM233.648 235.516V237.367H214.43V235.516H219.023V230.031C217.301 229.082 216.246 227.582 216.258 225.695C216.246 222.391 219.492 220.223 223.992 220.211C228.504 220.223 231.75 222.391 231.75 225.695C231.75 227.547 230.742 229.035 229.055 229.984V235.516H233.648ZM218.414 225.695C218.414 227.945 220.699 229.41 223.992 229.422C227.262 229.41 229.582 227.945 229.594 225.695C229.582 223.434 227.262 221.992 223.992 221.992C220.699 221.992 218.414 223.434 218.414 225.695ZM221.227 235.516H226.805V230.852C225.949 231.051 225 231.156 223.992 231.156C223.008 231.156 222.07 231.051 221.227 230.852V235.516ZM237.562 238.164C236.648 238.152 235.887 237.414 235.898 236.5C235.887 235.586 236.648 234.836 237.562 234.836C238.465 234.836 239.215 235.586 239.227 236.5C239.215 237.414 238.465 238.152 237.562 238.164Z" fill="white"/>
<path d="M17.918 191.898C16.4648 191.887 15.2812 190.703 15.2695 189.227C15.2812 187.773 16.4648 186.59 17.918 186.578C19.3945 186.59 20.5781 187.773 20.5898 189.227C20.5781 190.703 19.3945 191.887 17.918 191.898Z" fill="white"/>
</svg>
