<svg width="552" height="700" viewBox="0 0 552 700" fill="none" xmlns="http://www.w3.org/2000/svg">
<path fill-rule="evenodd" clip-rule="evenodd" d="M551.911 118.208L189.169 57L170.874 165.421C179.483 170.846 184.45 181.085 182.652 191.746C180.853 202.407 172.801 210.449 162.888 212.749L95.3614 612.941L242.239 637.725C242.016 635.095 242.116 632.394 242.576 629.671C245.515 612.251 262.021 600.511 279.441 603.451C296.862 606.39 308.601 622.895 305.661 640.316C305.202 643.039 304.411 645.623 303.337 648.034L458.103 674.149L525.311 275.847C512.247 272.608 503.688 259.792 505.965 246.301C508.241 232.81 520.531 223.512 533.935 224.739L551.911 118.208Z" fill="#F45B7B"/>
<g filter="url(#filter0_d_95_543)">
<path fill-rule="evenodd" clip-rule="evenodd" d="M88 90.1289H454.869V198.216C441.719 199.504 431.443 210.593 431.443 224.081C431.443 224.629 431.46 225.172 431.494 225.711H103.51C103.544 225.172 103.56 224.629 103.56 224.081C103.56 213.437 97.1613 204.287 88 200.268V90.1289Z" fill="#FD7D95"/>
</g>
<g filter="url(#filter1_d_95_543)">
<path fill-rule="evenodd" clip-rule="evenodd" d="M431.445 223.87H103.56C103.56 223.94 103.56 224.011 103.56 224.081C103.56 234.726 97.1613 243.876 88 247.894V653.929H240.152C240.479 636.342 254.634 622.188 272.048 622.188C289.462 622.188 303.617 636.342 303.944 653.929H455.869V250.025C442.244 249.216 431.444 237.91 431.444 224.081C431.444 224.011 431.444 223.94 431.445 223.87Z" fill="#FFFEFF"/>
</g>
<line x1="121.129" y1="495.647" x2="422.967" y2="495.647" stroke="#D7D7D7" stroke-width="1.22699"/>
<path d="M232.559 122.693L234.267 123.282L230.527 133.677H234.267V135.444H229.909L226.758 144.19L225.079 143.542L232.559 122.693ZM236.299 127.316L242.041 143.572L240.363 144.249L234.62 127.994L236.299 127.316ZM247.325 123.017H249.269L255.954 137.476L254.363 138.3L248.621 125.874L245.146 144.131L243.379 143.778L247.325 123.017ZM266.319 143.807L264.552 144.161L260.606 125.991L257.897 132.588L256.248 131.91L259.899 123.017H261.814L266.319 143.807ZM278.183 144.249C272.588 144.249 268.377 139.743 268.377 133.736C268.377 130.762 269.289 128.141 270.821 126.197L272.057 127.552C270.88 129.054 270.202 131.115 270.202 133.442C270.202 138.595 273.618 142.482 278.183 142.482C282.747 142.482 286.163 138.595 286.163 133.442C286.163 128.288 282.747 124.431 278.183 124.431C277.093 124.431 276.033 124.637 275.091 125.078L274.207 123.518C275.503 122.899 276.916 122.664 278.183 122.664C283.778 122.664 287.989 127.169 287.989 133.147C287.989 139.478 283.778 144.249 278.183 144.249ZM302.332 128.995C302.332 132.617 299.77 134.973 295.795 134.973H293.41V143.896H291.584V123.017H293.41V133.235H295.824C298.681 133.235 300.507 131.557 300.507 128.995C300.507 126.433 298.681 124.784 295.824 124.784H295.766V123.017H295.824C299.77 123.017 302.332 125.373 302.332 128.995ZM297.709 137.123L302.862 142.806L301.596 144.043L296.355 138.271L297.709 137.123ZM308.047 142.129H316.558V143.896H306.222V123.017H308.047V132.146H315.792V133.913H308.047V142.129ZM316.41 123.017V124.784H310.639V123.017H316.41ZM212.288 169.964C212.288 167.815 210.845 166.431 208.636 166.431C208.018 166.431 207.399 166.548 206.899 166.784L205.986 165.253C206.693 164.87 207.547 164.664 208.636 164.664C211.934 164.664 214.084 166.755 214.084 169.964H212.288ZM214.202 183.451L212.818 182.185C213.2 181.508 213.407 180.801 213.407 179.8C213.407 177.827 211.934 176.148 209.313 175.471L207.37 174.97C204.396 174.205 203.07 172.261 203.07 169.964C203.07 169.051 203.247 168.227 203.659 167.461L205.132 168.669C204.985 169.051 204.896 169.552 204.896 169.964C204.896 171.466 205.78 172.674 208.047 173.262L209.873 173.734C213.436 174.647 215.232 176.973 215.232 179.8C215.232 181.154 214.908 182.45 214.202 183.451ZM208.459 186.249C204.396 186.249 201.775 183.746 201.775 179.859H203.601C203.601 182.656 205.515 184.482 208.459 184.482C209.343 184.482 210.108 184.364 210.933 183.952L211.905 185.483C210.904 186.013 209.873 186.249 208.459 186.249ZM224.032 164.693L225.74 165.282L222 175.677H225.74V177.444H221.382L218.231 186.19L216.553 185.542L224.032 164.693ZM227.772 169.316L233.515 185.572L231.836 186.249L226.094 169.994L227.772 169.316ZM236.384 185.896V165.017H238.21V185.896H236.384ZM240.978 185.896V184.129H245.631V185.896H240.978ZM250.748 184.129H259.258V185.896H248.922V165.017H250.748V174.146H258.493V175.913H250.748V184.129ZM259.111 165.017V166.784H253.339V165.017H259.111ZM271.799 165.017V174.205H278.954V175.972H271.799V185.896H269.973V165.017H271.799ZM274.39 165.017H279.956V166.784H274.39V165.017ZM287.385 164.693L289.093 165.282L285.353 175.677H289.093V177.444H284.735L281.584 186.19L279.905 185.542L287.385 164.693ZM291.125 169.316L296.867 185.572L295.189 186.249L289.446 169.994L291.125 169.316ZM308.424 169.964C308.424 167.815 306.981 166.431 304.772 166.431C304.154 166.431 303.536 166.548 303.035 166.784L302.122 165.253C302.829 164.87 303.683 164.664 304.772 164.664C308.07 164.664 310.22 166.755 310.22 169.964H308.424ZM310.338 183.451L308.954 182.185C309.337 181.508 309.543 180.801 309.543 179.8C309.543 177.827 308.07 176.148 305.45 175.471L303.506 174.97C300.532 174.205 299.207 172.261 299.207 169.964C299.207 169.051 299.383 168.227 299.796 167.461L301.268 168.669C301.121 169.051 301.032 169.552 301.032 169.964C301.032 171.466 301.916 172.674 304.183 173.262L306.009 173.734C309.572 174.647 311.369 176.973 311.369 179.8C311.369 181.154 311.045 182.45 310.338 183.451ZM304.596 186.249C300.532 186.249 297.911 183.746 297.911 179.859H299.737C299.737 182.656 301.651 184.482 304.596 184.482C305.479 184.482 306.245 184.364 307.069 183.952L308.041 185.483C307.04 186.013 306.009 186.249 304.596 186.249ZM312.983 166.784V165.017H324.439V166.784H312.983ZM317.783 185.896V170.229H319.609V185.896H317.783ZM331.643 164.693L333.351 165.282L329.611 175.677H333.351V177.444H328.993L325.842 186.19L324.163 185.542L331.643 164.693ZM335.383 169.316L341.125 185.572L339.446 186.249L333.704 169.994L335.383 169.316Z" fill="white"/>
<path d="M248.745 338.516V345.465H207.989V338.516H248.745ZM230.841 368.788C245.682 369.966 256.519 380.685 256.519 394.82C256.519 411.075 244.504 423.207 228.485 423.207C211.876 423.207 201.157 411.546 201.157 393.406H208.46C208.46 407.305 216.352 416.258 228.485 416.258C240.382 416.258 249.216 407.07 249.216 394.82C249.216 383.865 240.146 375.62 228.131 375.62C225.187 375.62 222.831 376.209 219.886 377.151V370.437L233.55 354.535L238.968 359.247L230.841 368.788ZM294.484 423.325C279.407 423.325 270.22 406.01 270.22 380.214C270.22 366.314 272.693 355.006 277.994 346.997L282.823 352.533C279.172 359.6 277.523 370.319 277.523 380.214C277.523 400.827 283.648 416.258 294.484 416.258C305.321 416.258 311.446 400.827 311.446 380.214C311.446 359.6 305.321 344.17 294.484 344.17C293.424 344.17 292.246 344.405 291.893 344.523L288.948 338.045C290.597 337.456 292.246 337.102 294.484 337.102C309.562 337.102 318.749 354.417 318.749 380.214C318.749 406.01 309.562 423.325 294.484 423.325Z" fill="black"/>
<path d="M347.012 391.424C340.18 391.424 334.683 385.927 334.683 379.095C334.683 372.342 340.18 366.767 347.012 366.767C353.765 366.767 359.34 372.342 359.34 379.095C359.34 385.927 353.765 391.424 347.012 391.424ZM345.205 424.327L342.771 422.992L376.067 366.767L378.422 368.102L345.205 424.327ZM347.012 388.754C352.351 388.754 356.67 384.592 356.67 379.095C356.67 373.677 352.351 369.437 347.012 369.437C341.593 369.437 337.353 373.677 337.353 379.095C337.353 384.435 341.593 388.754 347.012 388.754ZM374.81 424.327C367.978 424.327 362.481 418.83 362.481 411.998C362.481 405.245 367.978 399.67 374.81 399.67C381.563 399.67 387.139 405.245 387.139 411.998C387.139 418.83 381.563 424.327 374.81 424.327ZM374.81 421.657C380.15 421.657 384.469 417.338 384.469 411.998C384.469 406.58 380.15 402.34 374.81 402.34C369.392 402.34 365.151 406.58 365.151 411.998C365.151 417.338 369.392 421.657 374.81 421.657Z" fill="black"/>
<path d="M173.742 352.857C168.638 352.857 160.864 346.811 155.445 346.811C152.775 346.811 150.812 347.753 149.477 350.737L147.2 349.638C148.928 346.339 151.205 344.219 155.445 344.219C161.021 344.219 169.659 350.266 173.742 350.266C175.862 350.266 177.826 349.323 179.16 346.339L181.438 347.439C179.71 350.737 177.983 352.857 173.742 352.857Z" fill="black"/>
<rect x="134.626" y="525.708" width="5.26882" height="62.5763" fill="black"/>
<rect x="163.98" y="525.708" width="5.26882" height="62.5763" fill="black"/>
<rect x="259.572" y="525.708" width="5.26882" height="62.5763" fill="black"/>
<rect x="346.885" y="525.708" width="5.26882" height="62.5763" fill="black"/>
<rect x="398.066" y="525.708" width="5.26882" height="62.5763" fill="black"/>
<rect x="367.96" y="525.708" width="5.26882" height="62.5763" fill="black"/>
<rect x="381.509" y="525.708" width="5.26882" height="62.5763" fill="black"/>
<rect x="280.647" y="525.708" width="5.26882" height="62.5763" fill="black"/>
<rect x="315.271" y="525.708" width="5.26882" height="62.5763" fill="black"/>
<rect x="203.874" y="525.708" width="10.5376" height="62.5763" fill="black"/>
<rect x="232.476" y="525.708" width="10.5376" height="62.5763" fill="black"/>
<rect x="142.153" y="525.708" width="3.01075" height="62.5763" fill="black"/>
<rect x="171.508" y="525.708" width="3.01075" height="62.5763" fill="black"/>
<rect x="267.1" y="525.708" width="3.01075" height="62.5763" fill="black"/>
<rect x="354.412" y="525.708" width="3.01075" height="62.5763" fill="black"/>
<rect x="392.046" y="525.708" width="3.01075" height="62.5763" fill="black"/>
<rect x="216.669" y="525.708" width="3.01075" height="62.5763" fill="black"/>
<rect x="291.185" y="525.708" width="3.01075" height="62.5763" fill="black"/>
<rect x="325.809" y="525.708" width="3.01075" height="62.5763" fill="black"/>
<rect x="338.605" y="525.708" width="3.01075" height="62.5763" fill="black"/>
<rect x="245.271" y="525.708" width="3.01075" height="62.5763" fill="black"/>
<rect x="251.293" y="525.708" width="3.01075" height="62.5763" fill="black"/>
<rect x="221.938" y="525.708" width="3.01075" height="62.5763" fill="black"/>
<rect x="296.454" y="525.708" width="3.01075" height="62.5763" fill="black"/>
<rect x="309.249" y="525.708" width="3.01075" height="62.5763" fill="black"/>
<rect x="182.045" y="525.708" width="3.01075" height="62.5763" fill="black"/>
<rect x="192.582" y="525.708" width="3.01075" height="62.5763" fill="black"/>
<rect x="150.434" y="525.708" width="3.01075" height="62.5763" fill="black"/>
<path d="M181.491 453.88V456.48C182.866 456.405 184.259 456.288 185.567 456.095L185.685 457.269C182.288 457.898 178.639 457.923 175.955 457.923L175.754 456.615C176.961 456.606 178.396 456.598 179.897 456.548V453.88H181.491ZM176.156 453.159C178.396 452.513 179.796 450.945 179.88 449.099H176.559V447.808H179.897V446.013H181.491V447.808H184.863V449.099H181.491C181.575 450.869 183.001 452.387 185.248 452.991L184.51 454.233C182.715 453.721 181.373 452.631 180.694 451.205C180.04 452.706 178.714 453.855 176.911 454.367L176.156 453.159ZM186.507 460.959V445.895H188.1V460.959H186.507ZM205.13 457.705V459.014H191.375V457.705H197.397V454.132H198.974V457.705H205.13ZM191.844 453.092C194.738 452.605 197.322 450.374 197.33 447.992V446.852H199.007V447.992C199.007 450.374 201.624 452.605 204.526 453.092L203.839 454.4C201.398 453.922 199.167 452.412 198.177 450.358C197.187 452.404 194.973 453.922 192.549 454.4L191.844 453.092ZM224.093 446.835V448.16C224.093 449.586 224.093 451.138 223.674 453.276H225.838V454.585H219.748V460.943H218.138V454.585H212.132V453.276H222.063C222.508 451.129 222.508 449.561 222.516 448.16V448.143H213.81V446.835H224.093ZM240.771 445.895V460.926H239.244V453.092H237.382V460.188H235.873V446.18H237.382V451.783H239.244V445.895H240.771ZM228.341 456.967V447.59H234.178V456.967H228.341ZM229.85 455.692H232.685V448.848H229.85V455.692ZM257.298 457.739V459.047H243.542V457.739H249.615V454.182H251.208V457.739H257.298ZM244.18 453.494C246.973 453.025 249.565 450.936 249.565 448.63V448.495H244.683V447.187H256.107V448.495H251.225V448.63C251.225 450.936 253.834 452.983 256.694 453.427L256.057 454.686C253.624 454.233 251.385 452.823 250.403 450.844C249.439 452.849 247.216 454.283 244.834 454.753L244.18 453.494ZM271.778 445.912V456.984H270.185V451.767H267.064V450.441H270.185V445.912H271.778ZM259.465 454.031C262.812 452.949 265.085 450.911 265.412 448.361H260.237V447.036H267.165C267.148 450.961 264.456 453.914 260.136 455.306L259.465 454.031ZM262.099 460.607V455.843H263.709V459.315H272.164V460.607H262.099ZM284.836 459.668C282.32 459.668 280.533 458.317 280.458 456.329H282.337C282.404 457.395 283.46 458.074 284.819 458.074C286.287 458.074 287.352 457.277 287.352 456.095C287.352 454.895 286.354 454.04 284.618 454.031H283.578V452.522H284.618C286.002 452.53 286.966 451.758 286.966 450.592C286.966 449.485 286.136 448.73 284.853 448.73C283.637 448.73 282.546 449.41 282.504 450.508H280.726C280.776 448.529 282.605 447.187 284.87 447.187C287.26 447.187 288.761 448.697 288.745 450.492C288.761 451.876 287.906 452.865 286.597 453.193V453.276C288.258 453.511 289.223 454.627 289.214 456.162C289.223 458.183 287.352 459.668 284.836 459.668ZM296.33 459.668C293.521 459.668 291.868 457.403 291.868 453.427C291.868 449.477 293.537 447.187 296.33 447.187C299.115 447.187 300.784 449.477 300.793 453.427C300.784 457.403 299.14 459.668 296.33 459.668ZM293.713 453.427C293.705 456.455 294.686 458.074 296.33 458.074C297.966 458.074 298.947 456.455 298.947 453.427C298.947 450.408 297.958 448.755 296.33 448.747C294.695 448.755 293.713 450.408 293.713 453.427ZM307.791 459.668C304.981 459.668 303.329 457.403 303.329 453.427C303.329 449.477 304.998 447.187 307.791 447.187C310.576 447.187 312.245 449.477 312.253 453.427C312.245 457.403 310.601 459.668 307.791 459.668ZM305.174 453.427C305.166 456.455 306.147 458.074 307.791 458.074C309.427 458.074 310.408 456.455 310.408 453.427C310.408 450.408 309.418 448.755 307.791 448.747C306.156 448.755 305.174 450.408 305.174 453.427ZM316.753 458.343L315.41 462.972H313.985L314.874 458.343H316.753ZM323.801 459.668C320.992 459.668 319.339 457.403 319.339 453.427C319.339 449.477 321.008 447.187 323.801 447.187C326.586 447.187 328.255 449.477 328.264 453.427C328.255 457.403 326.611 459.668 323.801 459.668ZM321.185 453.427C321.176 456.455 322.157 458.074 323.801 458.074C325.437 458.074 326.418 456.455 326.418 453.427C326.418 450.408 325.429 448.755 323.801 448.747C322.166 448.755 321.185 450.408 321.185 453.427ZM335.262 459.668C332.452 459.668 330.8 457.403 330.8 453.427C330.8 449.477 332.469 447.187 335.262 447.187C338.047 447.187 339.716 449.477 339.724 453.427C339.716 457.403 338.072 459.668 335.262 459.668ZM332.645 453.427C332.637 456.455 333.618 458.074 335.262 458.074C336.898 458.074 337.879 456.455 337.879 453.427C337.879 450.408 336.889 448.755 335.262 448.747C333.627 448.755 332.645 450.408 332.645 453.427ZM346.723 459.668C343.913 459.668 342.261 457.403 342.261 453.427C342.261 449.477 343.93 447.187 346.723 447.187C349.508 447.187 351.177 449.477 351.185 453.427C351.177 457.403 349.533 459.668 346.723 459.668ZM344.106 453.427C344.098 456.455 345.079 458.074 346.723 458.074C348.359 458.074 349.34 456.455 349.34 453.427C349.34 450.408 348.35 448.755 346.723 448.747C345.087 448.755 344.106 450.408 344.106 453.427ZM365.934 445.912V457.302H364.34V455.86H361.321V454.736H364.34V445.912H365.934ZM353.369 452.773C356.146 452.748 359.895 452.723 363.099 452.32L363.2 453.461C361.916 453.679 360.566 453.813 359.241 453.905V456.833H357.647V453.989C356.188 454.048 354.787 454.048 353.571 454.048L353.369 452.773ZM354.544 449.133C354.535 447.539 356.053 446.482 358.285 446.482C360.482 446.482 362.009 447.539 362.009 449.133C362.009 450.735 360.482 451.75 358.285 451.75C356.062 451.75 354.535 450.735 354.544 449.133ZM355.45 460.607V456.195H357.026V459.315H366.303V460.607H355.45ZM356.053 449.133C356.045 450.022 356.951 450.576 358.285 450.576C359.568 450.576 360.49 450.022 360.499 449.133C360.49 448.235 359.568 447.657 358.285 447.673C356.951 447.657 356.045 448.235 356.053 449.133Z" fill="#868686"/>
<g clip-path="url(#clip0_95_543)">
<path d="M62.6064 18.1115C96.8493 8.44918 132.437 28.3734 142.1 62.6163C144.134 69.8248 144.857 77.1018 144.412 84.1786L81.4033 144.528C52.7793 145.123 26.2378 126.439 18.1017 97.6049C8.44895 63.3593 28.3731 27.7712 62.6064 18.1115Z" fill="white" stroke="black" stroke-miterlimit="10"/>
<mask id="mask0_95_543" style="mask-type:luminance" maskUnits="userSpaceOnUse" x="23" y="23" width="115" height="114">
<path d="M27.207 58.7318L31.3273 58.8992L30.7983 60.1914L31.4101 60.4448L32.0249 58.9413L35.4942 59.0845L35.5033 58.417L27.238 58.0685L27.2001 58.7442L27.207 58.7318ZM33.1365 64.28L33.6024 63.7953L28.7909 59.5213L28.325 60.0061L33.1365 64.28ZM23.9674 69.3818L28.9333 72.6563L29.332 72.1178L25.057 69.303L31.9959 69.0386L31.9611 68.3627L24.0769 68.6651L23.9674 69.3818ZM30.9326 76.2068L24.438 73.7377L27.0225 73.1019L26.8598 72.4517L23.3694 73.3015L23.2668 74.0058L30.6916 76.8255L30.9176 76.1902L30.9326 76.2068ZM26.9475 81.7472C25.8372 81.8631 24.9017 82.3037 24.2416 82.9471L24.7925 83.3528C25.3065 82.8545 26.0438 82.5217 26.9122 82.4325C28.8305 82.2342 30.4023 83.3492 30.5891 85.0421C30.7662 86.7377 29.4525 88.1578 27.5466 88.3631C25.6284 88.5615 24.0662 87.4438 23.8794 85.7509C23.8382 85.3469 23.8697 84.9431 23.9945 84.5754L23.38 84.3124C23.2011 84.8201 23.1637 85.3502 23.2143 85.8242C23.4369 87.9019 25.2744 89.2952 27.4949 89.0635C29.8459 88.8157 31.4602 87.0614 31.2376 84.9838C31.015 82.9062 29.1776 81.5128 26.9475 81.7472ZM33.6972 97.7143L33.9876 97.1232L31.324 95.9318L31.0706 96.5436L33.6945 97.7046L33.6972 97.7143ZM30.0898 96.1241L29.8096 95.2785L32.9765 94.2394L32.763 93.5931L25.3457 96.0289L25.5592 96.6752L29.1922 95.4838L29.4751 96.3392C29.8138 97.3554 29.4292 98.2016 28.5161 98.5008C27.6031 98.8 26.8106 98.3483 26.4719 97.3321L26.4665 97.3128L25.8394 97.5209L25.8449 97.5402C26.3018 98.9386 27.4467 99.5715 28.7324 99.1568C30.0154 98.7324 30.5549 97.5515 30.0926 96.1338L30.0898 96.1241ZM37.4643 105.909L38.0395 105.591L36.1715 102.211L29.3528 105.995L29.686 106.587L32.6694 104.935L34.0705 107.47L34.6457 107.151L33.2447 104.617L35.9322 103.131L37.4766 105.916L37.4643 105.909ZM31.7701 109.002L30.7283 107.114L30.153 107.432L31.1949 109.32L31.7701 109.002ZM43.2596 115.953L43.7636 116.413C44.4708 115.642 45.4626 115.622 46.2664 116.372C46.5061 116.595 46.6949 116.823 46.8161 117.142L47.4705 116.957C47.3303 116.571 47.102 116.24 46.72 115.88C45.5997 114.856 44.2439 114.875 43.2665 115.941L43.2596 115.953ZM46.8816 118.11C46.8148 118.389 46.6889 118.643 46.4422 118.91C45.9418 119.456 45.1146 119.544 44.2219 119.069L43.561 118.715C42.5449 118.17 41.6967 118.368 41.1164 118.999C40.8862 119.251 40.7246 119.526 40.6466 119.838L41.3539 119.878C41.4079 119.738 41.517 119.572 41.6204 119.46C42.0036 119.05 42.5534 118.937 43.3254 119.353L43.9493 119.686C45.1628 120.341 46.2417 120.151 46.9585 119.377C47.299 119 47.5408 118.569 47.6 118.115L46.9036 118.115L46.8816 118.11ZM41.7459 121.378C41.5761 121.218 41.4298 121.031 41.3562 120.844L40.7114 121.025C40.8148 121.318 40.9953 121.59 41.2924 121.869C42.2031 122.703 43.3159 122.67 44.1264 121.787L43.6348 121.333C43.0944 121.922 42.3402 121.937 41.7363 121.38L41.7459 121.378ZM57.234 123.72L56.8319 123.179L51.8447 127.267L52.2467 127.808L57.234 123.72ZM50.818 128.71L51.6279 124.657L52.8289 125.378L53.1686 124.815L51.7772 123.971L52.4587 120.568L51.7928 120.455L50.1563 128.574L50.8207 128.719L50.818 128.71ZM63.1277 126.784L64.7617 127.383L64.9904 126.758L63.3564 126.159L63.1277 126.784ZM59.0555 132.9L59.6935 133.136L62.3851 125.809L61.7471 125.574L59.0555 132.9ZM73.5738 129.375L73.6927 128.728L69.8899 128.066L68.5461 135.75L69.2215 135.861L69.8095 132.494L72.6609 132.989L72.7797 132.342L69.9284 131.848L70.4561 128.821L73.5931 129.369L73.5738 129.375ZM72.4114 135.75L70.2918 135.382L70.1756 136.038L72.2953 136.406L72.4141 135.76L72.4114 135.75ZM86.6756 133.055L89.3211 132.672L89.2285 132.013L86.583 132.396L86.0552 128.721L85.3763 128.819L86.487 136.548L87.1659 136.45L86.6756 133.055ZM90.1837 136.024L90.0911 135.364L88.0352 135.664L88.1251 136.314L90.181 136.014L90.1837 136.024ZM98.829 125.605L98.1534 125.567L98.0581 132.005L98.7338 132.043L98.829 125.605ZM98.4975 133.709L95.9326 130.474L97.261 130.027L97.0529 129.4L95.5059 129.919L93.3472 127.204L92.8335 127.629L97.9687 134.118L98.5072 133.707L98.4975 133.709ZM108.437 128.723C108.241 128.84 108.013 128.915 107.81 128.931L107.801 129.598C108.099 129.587 108.416 129.497 108.765 129.295C109.826 128.674 110.136 127.599 109.532 126.564L108.952 126.904C109.357 127.601 109.143 128.316 108.43 128.735L108.437 128.723ZM106.831 122.848C107.081 122.996 107.281 123.189 107.465 123.511C107.831 124.145 107.669 124.97 106.955 125.681L106.418 126.207C105.595 127.01 105.532 127.89 105.969 128.629C106.135 128.925 106.356 129.154 106.633 129.325L106.882 128.663C106.763 128.572 106.637 128.42 106.558 128.287C106.276 127.805 106.337 127.247 106.952 126.627L107.456 126.132C108.442 125.168 108.581 124.079 108.054 123.168C107.796 122.732 107.455 122.371 107.037 122.177L106.831 122.848ZM103.701 125.674L104.29 125.331C103.766 124.43 104.038 123.48 104.992 122.92C105.278 122.756 105.549 122.649 105.895 122.624L105.923 121.951C105.502 121.966 105.119 122.084 104.664 122.348C103.352 123.113 102.972 124.415 103.698 125.665L103.701 125.674ZM115.595 124.521L118.84 121.735L118.408 121.234L115.162 124.02L115.595 124.521ZM115.69 121.876L116.208 121.428L112.389 116.989L111.871 117.436L115.69 121.876ZM124.545 115.366L120.644 114.025L121.521 112.936L121.009 112.52L119.984 113.785L116.704 112.654L116.5 113.293L124.316 115.992L124.542 115.357L124.545 115.366ZM120.457 108.353L119.865 108.686L123.25 114.163L123.841 113.83L120.457 108.353ZM133.787 98.6276L129.655 98.6401L130.125 97.323L129.502 97.1039L128.958 98.6392L125.482 98.6539L125.495 99.3257L133.778 99.2951L133.784 98.618L133.787 98.6276ZM127.61 93.3464L127.162 93.8573L132.174 97.919L132.622 97.4081L127.613 93.356L127.61 93.3464ZM129.271 81.3341L135.865 83.4944L133.313 84.2457L133.495 84.8905L136.949 83.8744L137.017 83.1589L129.462 80.6878L129.261 81.3368L129.271 81.3341ZM136.536 87.8249L131.42 84.7903L131.049 85.3523L135.444 87.9669L128.524 88.5582L128.588 89.226L136.452 88.5554L136.529 87.8372L136.536 87.8249ZM133.006 75.6459C134.103 75.4819 135.025 74.9931 135.655 74.3166L135.09 73.9357C134.604 74.4574 133.874 74.819 133.017 74.9467C131.113 75.2344 129.478 74.1893 129.231 72.503C128.984 70.8168 130.218 69.336 132.131 69.0455C134.034 68.7578 135.65 69.8084 135.907 71.4919C135.968 71.8905 135.949 72.3011 135.846 72.6731L136.474 72.9114C136.631 72.3995 136.634 71.8583 136.564 71.3897C136.25 69.3173 134.354 68.013 132.141 68.3464C129.801 68.7055 128.266 70.5205 128.581 72.5929C128.896 74.6654 130.791 75.9696 133.013 75.6335L133.006 75.6459ZM129.215 61.4L129.534 62.2349L126.42 63.4252L126.662 64.0634L133.953 61.2892L133.711 60.6511L130.146 62.0102L129.824 61.1658C129.45 60.1701 129.788 59.3058 130.68 58.9708C131.573 58.6358 132.396 59.0479 132.77 60.0436L132.776 60.0628L133.395 59.8259L133.389 59.8066C132.865 58.4272 131.705 57.8506 130.438 58.3327C129.171 58.8148 128.691 60.0206 129.218 61.4097L129.215 61.4ZM125.54 59.9746L125.274 60.5794L127.985 61.6433L128.204 61.0204L125.53 59.9773L125.54 59.9746ZM121.425 51.9817L120.858 52.3288L122.888 55.6211L129.537 51.5317L129.175 50.9481L126.271 52.7339L124.753 50.2633L124.186 50.6103L125.704 53.0809L123.093 54.6905L121.425 51.9817ZM126.973 48.6291L128.105 50.4707L128.663 50.1264L127.53 48.2848L126.963 48.6318L126.973 48.6291ZM116.438 36.7018C116.614 36.8494 116.761 37.0366 116.854 37.2183L117.488 36.9978C117.377 36.7172 117.178 36.4515 116.876 36.1936C115.935 35.3993 114.814 35.4767 114.046 36.4L114.564 36.8358C115.086 36.2207 115.83 36.1668 116.46 36.706L116.438 36.7018ZM111.45 40.1978C111.504 39.9122 111.611 39.664 111.852 39.3777C112.328 38.8174 113.154 38.6883 114.067 39.1267L114.742 39.4558C115.776 39.9537 116.623 39.7147 117.176 39.06C117.394 38.8011 117.543 38.52 117.609 38.2001L116.9 38.1923C116.849 38.3419 116.759 38.5023 116.655 38.6146C116.3 39.0475 115.755 39.1803 114.962 38.8013L114.325 38.4929C113.086 37.8968 112.009 38.1282 111.334 38.9419C111.006 39.3254 110.792 39.7808 110.752 40.2285L111.45 40.1978ZM115.171 42.1921L114.653 41.7563C113.976 42.5604 112.995 42.619 112.151 41.9116C111.895 41.7033 111.709 41.4857 111.566 41.1624L110.917 41.3663C111.079 41.757 111.314 42.0751 111.723 42.4171C112.883 43.3989 114.239 43.3072 115.174 42.2017L115.171 42.1921ZM107.041 29.8043L106.417 33.8874L105.188 33.2158L104.873 33.793L106.309 34.5725L105.781 38.0048L106.451 38.0962L107.717 29.915L107.051 29.8016L107.041 29.8043ZM100.859 35.0711L101.288 35.5944L106.076 31.2819L105.648 30.7585L100.859 35.0711ZM98.6255 25.9759L97.9737 25.765L95.6128 33.1954L96.2646 33.4063L98.6255 25.9759ZM94.8302 32.2629L93.174 31.7327L92.9769 32.3598L94.6331 32.89L94.8302 32.2629ZM84.2823 30.1582L84.1977 30.8159L88.034 31.3024L89.0195 23.5639L88.3398 23.4752L87.9125 26.8584L85.0456 26.4932L84.9611 27.1509L87.8376 27.5133L87.4512 30.5629L84.2946 30.1652L84.2823 30.1582ZM85.1495 23.7312L87.2928 23.9992L87.3774 23.3415L85.234 23.0735L85.1495 23.7312ZM71.026 27.0722L68.3939 27.576L68.5154 28.2274L71.1475 27.7237L71.8443 31.3716L72.5151 31.2447L71.0567 23.5724L70.386 23.6993L71.026 27.0722ZM67.3869 24.265L67.5084 24.9165L69.5495 24.5276L69.428 23.8761L67.3869 24.265ZM59.1859 26.9427L61.8954 30.0642L60.593 30.5668L60.8299 31.1857L62.3483 30.6014L64.6254 33.2215L65.1214 32.7698L59.6997 26.5172L59.1886 26.9524L59.1859 26.9427ZM59.2115 35.0609L59.8887 35.0672L59.6927 28.6285L59.0156 28.6221L59.2115 35.0609ZM54.3223 35.2248L53.751 35.5938C54.3209 36.472 54.0829 37.4328 53.1592 38.0259C52.8784 38.209 52.6198 38.3236 52.2763 38.3582L52.2796 39.0326C52.7055 38.9956 53.0727 38.8608 53.5228 38.5779C54.7988 37.7607 55.1205 36.4334 54.3292 35.2125L54.3223 35.2248ZM51.3249 38.1902C51.0685 38.0548 50.8617 37.8741 50.6581 37.5575C50.2535 36.934 50.384 36.1075 51.0677 35.3638L51.5777 34.8147C52.358 33.9711 52.3801 33.0921 51.9168 32.3708C51.7309 32.0803 51.5133 31.8612 51.2294 31.7023L51.0143 32.3761C51.1335 32.4671 51.2663 32.6063 51.3552 32.7371C51.6558 33.2133 51.6238 33.7627 51.0269 34.4091L50.5499 34.9281C49.6194 35.9388 49.5211 37.0263 50.0937 37.9142C50.3684 38.3354 50.7354 38.6787 51.1579 38.8504L51.3415 38.1752L51.3249 38.1902ZM49.4497 32.3915C49.6424 32.2644 49.868 32.18 50.0686 32.1546L50.0461 31.4855C49.7507 31.5065 49.4385 31.6154 49.0958 31.8368C48.0579 32.5037 47.8043 33.5935 48.4535 34.6053L49.0151 34.239C48.575 33.5631 48.7546 32.8371 49.4497 32.3915ZM42.5458 39.5556L42.0553 40.0266L46.0728 44.2856L46.5634 43.8147L42.5458 39.5556ZM42.5147 36.9045L39.4048 39.8393L39.8607 40.3133L42.9705 37.3785L42.5147 36.9045ZM33.9958 46.4465L37.9521 47.6161L37.127 48.7425L37.6628 49.1316L38.6231 47.8215L41.9551 48.8036L42.1344 48.1504L34.1971 45.7974L33.9958 46.4465ZM38.3937 53.2685L38.9677 52.9092L35.3382 47.5951L34.7642 47.9545L38.3965 53.2782L38.3937 53.2685Z" fill="white"/>
</mask>
<g mask="url(#mask0_95_543)">
<path d="M62.6064 18.1115C96.8493 8.44918 132.437 28.3734 142.1 62.6163C144.134 69.8248 144.857 77.1018 144.412 84.1786L81.4033 144.528C52.7793 145.123 26.2378 126.439 18.1017 97.6049C8.44895 63.3593 28.3731 27.7712 62.6064 18.1115Z" fill="black"/>
</g>
<path d="M91.8648 121.802C68.7114 128.336 44.6456 114.862 38.1124 91.7089C31.5791 68.5554 45.0525 44.4896 68.2059 37.9564C91.3593 31.4232 115.425 44.8965 121.958 68.0499C128.492 91.2034 115.018 115.269 91.8648 121.802Z" fill="#FFD945" stroke="black" stroke-miterlimit="10"/>
<path d="M55.8669 93.3184C59.4543 106.032 73.96 113.067 88.2711 109.029C102.582 104.991 111.271 91.4108 107.684 78.6973" stroke="black" stroke-miterlimit="10"/>
<path d="M89.6959 77.8812C87.5697 78.4812 83.9616 72.2887 81.6369 64.05C79.3122 55.8113 79.1512 48.6462 81.2773 48.0462C83.4034 47.4463 87.0115 53.6388 89.3362 61.8775C91.661 70.1162 91.822 77.2813 89.6959 77.8812Z" fill="black"/>
<path d="M68.8404 83.766C66.7143 84.3659 63.1061 78.1735 60.7814 69.9348C58.4567 61.6961 58.2957 54.5309 60.4218 53.931C62.5479 53.3311 66.156 59.5235 68.4808 67.7622C70.8055 76.0009 70.9665 83.1661 68.8404 83.766Z" fill="black"/>
<path d="M59.1865 93.0047C58.5454 92.905 57.1681 92.7741 55.6741 93.4451C54.271 94.0696 53.4668 95.0862 53.097 95.6165" stroke="black" stroke-miterlimit="10" stroke-linecap="round"/>
<path d="M104.747 80.1492C105.242 79.7291 106.347 78.8976 107.972 78.6886C109.494 78.4876 110.711 78.9339 111.304 79.1927" stroke="black" stroke-miterlimit="10" stroke-linecap="round"/>
<path d="M81.403 144.527C71.6566 112.895 89.1136 88.2276 114.791 82.1978C124.458 79.9273 134.15 80.216 143.142 83.6534C143.549 83.8086 144.002 84.0134 144.4 84.1712L81.3907 144.52L81.403 144.527Z" fill="white" stroke="black" stroke-linecap="round" stroke-linejoin="round"/>
</g>
<defs>
<filter id="filter0_d_95_543" x="56.0984" y="71.7241" width="430.672" height="199.385" filterUnits="userSpaceOnUse" color-interpolation-filters="sRGB">
<feFlood flood-opacity="0" result="BackgroundImageFix"/>
<feColorMatrix in="SourceAlpha" type="matrix" values="0 0 0 0 0 0 0 0 0 0 0 0 0 0 0 0 0 0 127 0" result="hardAlpha"/>
<feOffset dy="13.4968"/>
<feGaussianBlur stdDeviation="15.9508"/>
<feComposite in2="hardAlpha" operator="out"/>
<feColorMatrix type="matrix" values="0 0 0 0 0 0 0 0 0 0 0 0 0 0 0 0 0 0 0.1 0"/>
<feBlend mode="normal" in2="BackgroundImageFix" result="effect1_dropShadow_95_543"/>
<feBlend mode="normal" in="SourceGraphic" in2="effect1_dropShadow_95_543" result="shape"/>
</filter>
<filter id="filter1_d_95_543" x="56.0984" y="205.465" width="431.672" height="493.862" filterUnits="userSpaceOnUse" color-interpolation-filters="sRGB">
<feFlood flood-opacity="0" result="BackgroundImageFix"/>
<feColorMatrix in="SourceAlpha" type="matrix" values="0 0 0 0 0 0 0 0 0 0 0 0 0 0 0 0 0 0 127 0" result="hardAlpha"/>
<feOffset dy="13.4968"/>
<feGaussianBlur stdDeviation="15.9508"/>
<feComposite in2="hardAlpha" operator="out"/>
<feColorMatrix type="matrix" values="0 0 0 0 0 0 0 0 0 0 0 0 0 0 0 0 0 0 0.1 0"/>
<feBlend mode="normal" in2="BackgroundImageFix" result="effect1_dropShadow_95_543"/>
<feBlend mode="normal" in="SourceGraphic" in2="effect1_dropShadow_95_543" result="shape"/>
</filter>
<clipPath id="clip0_95_543">
<rect width="129.83" height="127.8" fill="white" transform="matrix(-0.96242 0.271567 0.271567 0.96242 124.951 0)"/>
</clipPath>
</defs>
</svg>
