<svg width="605" height="126" viewBox="0 0 605 126" fill="none" xmlns="http://www.w3.org/2000/svg">
<path d="M38.0859 30L45.6562 15.375V15.2344H36.9141V13.0312H48.3281V15.3281L40.7812 30H38.0859ZM57.5391 14.8594C57.5273 17.5312 59.3906 19.9688 62.5781 20.9766L61.5234 22.7109C59.1328 21.9492 57.3867 20.3672 56.4609 18.375C55.5469 20.6719 53.707 22.4883 51.1875 23.3672L50.0391 21.5859C53.3203 20.5078 55.3008 17.8008 55.3125 14.8828V14.2969H50.6953V12.4922H62.0625V14.2969H57.5391V14.8594ZM52.875 28.0078C52.875 25.5469 55.5586 24.1055 59.9297 24.1172C64.2539 24.1055 66.8906 25.5469 66.8906 28.0078C66.8906 30.5039 64.2539 31.957 59.9297 31.9453C55.5586 31.957 52.875 30.5039 52.875 28.0078ZM55.1016 28.0078C55.0898 29.4141 56.8945 30.1992 59.9297 30.1875C62.9414 30.1992 64.7227 29.4141 64.7109 28.0078C64.7227 26.6367 62.9414 25.8633 59.9297 25.875C56.8945 25.8633 55.0898 26.6367 55.1016 28.0078ZM64.4766 23.6016V10.9922H66.7031V16.1953H69.75V18.0234H66.7031V23.6016H64.4766ZM93.5859 12.2578V14.1797C93.5977 16.3594 93.5977 18.7852 92.8594 22.2188H95.9531V24.0234H87.5156V31.9688H85.2891V24.0234H76.8047V22.2188H90.668C90.9961 20.8477 91.1836 19.6172 91.3008 18.5039L78.8438 19.125L78.5625 17.2031L91.4297 16.8047C91.4648 15.8672 91.4766 15 91.4766 14.1797V14.0625H79.1719V12.2578H93.5859ZM114.891 11.8828V13.7109H111.844V18.1172H114.797V19.875H108.211V22.2422H116.695V24.0234H97.5469V22.2422H106.008V19.875H99.3984V18.1172H102.375V13.7109H99.3047V11.8828H114.891ZM99.9609 31.5469V25.7109H102.211V29.7422H114.539V31.5469H99.9609ZM104.578 18.1172H109.617V13.7109H104.578V18.1172ZM137.438 21.9609V23.7422H118.289V21.9609H137.438ZM120.352 15.8906C120.34 13.2539 123.281 11.6836 127.852 11.6953C132.398 11.6836 135.34 13.2539 135.352 15.8906C135.34 18.5391 132.398 20.1445 127.852 20.1562C123.281 20.1445 120.34 18.5391 120.352 15.8906ZM120.703 31.5469V25.4531H122.953V29.7422H135.281V31.5469H120.703ZM122.648 15.8906C122.637 17.4492 124.629 18.3281 127.852 18.3281C131.062 18.3281 133.066 17.4492 133.055 15.8906C133.066 14.3906 131.062 13.4766 127.852 13.4766C124.629 13.4766 122.637 14.3906 122.648 15.8906ZM161.414 10.9922V16.3125H164.438V18.1406H161.414V23.3906H159.164V10.9922H161.414ZM145.781 21.8672V12.5391H155.156V14.3438H147.984V20.0625C152.121 20.0391 154.453 19.9219 157.102 19.3828L157.312 21.1875C154.5 21.7617 151.992 21.8672 147.445 21.8672H145.781ZM147.562 27.8672C147.562 25.3008 150.281 23.8008 154.617 23.7891C158.906 23.8008 161.578 25.3008 161.578 27.8672C161.578 30.457 158.906 31.957 154.617 31.9453C150.281 31.957 147.562 30.457 147.562 27.8672ZM149.766 27.8672C149.754 29.3203 151.582 30.1758 154.617 30.1641C157.594 30.1758 159.434 29.3203 159.445 27.8672C159.434 26.4141 157.594 25.582 154.617 25.5938C151.582 25.582 149.754 26.4141 149.766 27.8672ZM171.586 11.6953C174.75 11.7188 177.082 13.6523 177.094 16.4062C177.082 19.1719 174.75 21.0938 171.586 21.0938C168.387 21.0938 166.066 19.1719 166.055 16.4062C166.066 13.6523 168.387 11.7188 171.586 11.6953ZM168.234 16.4062C168.223 18.1406 169.652 19.2891 171.586 19.2891C173.508 19.2891 174.938 18.1406 174.938 16.4062C174.938 14.6953 173.508 13.5469 171.586 13.5703C169.652 13.5469 168.223 14.6953 168.234 16.4062ZM169.242 24.4219V22.6406H183.047V27.9375H171.469V29.9531H183.75V31.7344H169.312V26.2734H180.844V24.4219H169.242ZM180.82 21.6797V10.9922H183.047V21.6797H180.82ZM203.25 13.0078V26.8125H193.406V13.0078H203.25ZM195.609 25.0078H201.094V14.7656H195.609V25.0078ZM207.398 32.0391V10.9922H209.625V32.0391H207.398ZM226.125 16.3359C226.102 20.0508 228.27 23.8594 231.398 25.3828L230.016 27.1641C227.73 25.9688 225.961 23.625 225.035 20.8242C224.098 23.8008 222.258 26.3203 219.867 27.5625L218.484 25.7578C221.707 24.2109 223.887 20.1797 223.898 16.3359V12.75H226.125V16.3359ZM232.969 31.9922V10.9922H235.195V19.3594H238.57V21.2578H235.195V31.9922H232.969ZM258.727 21.2344V23.0391H239.578V21.2344H244.172V18.4102C242.543 17.7539 241.629 16.6992 241.641 15.3047C241.629 12.8086 244.523 11.3555 249.141 11.3672C253.746 11.3555 256.629 12.8086 256.641 15.3047C256.629 16.6992 255.715 17.7539 254.086 18.4219V21.2344H258.727ZM241.852 28.1953C241.852 25.793 244.57 24.4688 249.141 24.4688C253.652 24.4688 256.371 25.793 256.383 28.1953C256.371 30.6211 253.652 31.9453 249.141 31.9453C244.57 31.9453 241.852 30.6211 241.852 28.1953ZM243.938 15.3047C243.926 16.7109 245.871 17.4961 249.141 17.5078C252.387 17.4961 254.355 16.7109 254.344 15.3047C254.355 13.8984 252.387 13.0898 249.141 13.0781C245.871 13.0898 243.926 13.8984 243.938 15.3047ZM244.102 28.1953C244.09 29.5078 245.93 30.2578 249.141 30.2344C252.305 30.2578 254.156 29.5078 254.156 28.1953C254.156 26.9062 252.305 26.1797 249.141 26.1797C245.93 26.1797 244.09 26.9062 244.102 28.1953ZM246.422 21.2344H251.883V18.9961C251.062 19.125 250.137 19.1953 249.141 19.1953C248.156 19.1953 247.242 19.125 246.422 19.0078V21.2344ZM273.891 16.3359C273.867 20.168 276.188 24.0352 279.445 25.4766L278.109 27.2344C275.695 26.0859 273.785 23.7305 272.801 20.8594C271.828 23.9414 269.895 26.4727 267.375 27.7031L266.016 25.8281C269.32 24.3633 271.641 20.3438 271.641 16.3359V12.75H273.891V16.3359ZM281.344 32.0391V10.9922H283.57V32.0391H281.344ZM312 27.4922V29.3203H292.781V27.4922H301.195V22.5H303.398V27.4922H312ZM293.438 21.0469C297.48 20.3672 301.09 17.25 301.102 13.9219V12.3281H303.445V13.9219C303.445 17.25 307.102 20.3672 311.156 21.0469L310.195 22.875C306.785 22.207 303.668 20.0977 302.285 17.2266C300.902 20.0859 297.809 22.207 294.422 22.875L293.438 21.0469ZM324.328 12.0703V13.6875H328.805V10.9922H331.008V21.6797H328.805V19.1953H324.328V20.7422H314.461V12.0703H324.328ZM316.664 18.9609H322.125V13.8281H316.664V18.9609ZM317.273 24.4453V22.7109H331.008V27.9375H319.547V29.9531H331.758V31.7344H317.32V26.2734H328.805V24.4453H317.273ZM324.328 17.4609H328.805V15.375H324.328V17.4609ZM351.727 11.0156V23.1094H349.477V11.0156H351.727ZM334.312 20.8828C336.059 20.8828 338.074 20.8711 340.172 20.8125V18.75H336.188V12H346.219V13.8281H338.414V16.9922H346.406V18.75H342.375V20.7188C344.238 20.625 346.125 20.4844 347.883 20.25L348 21.8203C343.453 22.5938 338.402 22.6641 334.641 22.6875L334.312 20.8828ZM337.711 31.7344V24.0234H339.938V26.0391H349.523V24.0234H351.727V31.7344H337.711ZM339.938 29.9297H349.523V27.75H339.938V29.9297ZM372.445 10.9922V31.9922H370.219V10.9922H372.445ZM356.297 26.6484V13.0312H358.5V24.7266C361.57 24.7148 364.793 24.4453 368.156 23.7656L368.461 25.6406C364.746 26.4023 361.371 26.6602 358.055 26.6484H356.297ZM392.109 10.9922V19.125H395.484V20.9531H392.109V32.0391H389.883V10.9922H392.109ZM376.641 26.8125V13.0078H386.461V14.8125H378.867V24.9609C382.395 24.9492 385.031 24.7969 388.031 24.2578L388.312 26.1328C385.02 26.7188 382.23 26.8242 378.328 26.8125H376.641Z" fill="white"/>
<path d="M17.918 25.8984C16.4648 25.8867 15.2812 24.7031 15.2695 23.2266C15.2812 21.7734 16.4648 20.5898 17.918 20.5781C19.3945 20.5898 20.5781 21.7734 20.5898 23.2266C20.5781 24.7031 19.3945 25.8867 17.918 25.8984Z" fill="white"/>
<path d="M54.0479 52.9922V61.125H57.4229V62.9531H54.0479V74.0391H51.8213V52.9922H54.0479ZM38.5791 68.8125V55.0078H48.3994V56.8125H40.8057V66.9609C44.333 66.9492 46.9697 66.7969 49.9697 66.2578L50.251 68.1328C46.958 68.7188 44.1689 68.8242 40.2666 68.8125H38.5791ZM77.626 63.5156V65.3203H69.3057V69.3984H67.0557V65.3203H58.4072V63.5156H77.626ZM60.5166 57.75C60.5049 55.125 63.4814 53.4961 67.9932 53.4844C72.5049 53.4961 75.458 55.125 75.4463 57.75C75.458 60.3633 72.5049 61.9922 67.9932 61.9922C63.4814 61.9922 60.5049 60.3633 60.5166 57.75ZM60.8213 73.5469V67.3828H63.0479V71.7188H75.4932V73.5469H60.8213ZM62.9072 57.75C62.8838 59.2617 64.9229 60.1875 67.9932 60.1875C71.0752 60.1875 73.0908 59.2617 73.1025 57.75C73.0908 56.1914 71.0752 55.2773 67.9932 55.2656C64.9229 55.2773 62.8838 56.1914 62.9072 57.75ZM95.6729 52.9922V57.9609H98.7197V59.8125H95.6729V65.25H93.4463V52.9922H95.6729ZM79.9932 64.0312V54.1875H82.1729V57.2344H87.6807V54.1875H89.8838V64.0312H79.9932ZM82.1729 62.2734H87.6807V58.9922H82.1729V62.2734ZM82.29 73.6875V66.3516H95.8369V68.1328H84.5166V71.9297H96.2119V73.6875H82.29ZM119.063 63.9609V65.7422H99.915V63.9609H119.063ZM101.978 57.8906C101.966 55.2539 104.907 53.6836 109.478 53.6953C114.024 53.6836 116.966 55.2539 116.978 57.8906C116.966 60.5391 114.024 62.1445 109.478 62.1562C104.907 62.1445 101.966 60.5391 101.978 57.8906ZM102.329 73.5469V67.4531H104.579V71.7422H116.907V73.5469H102.329ZM104.274 57.8906C104.263 59.4492 106.255 60.3281 109.478 60.3281C112.688 60.3281 114.692 59.4492 114.681 57.8906C114.692 56.3906 112.688 55.4766 109.478 55.4766C106.255 55.4766 104.263 56.3906 104.274 57.8906ZM143.298 54.2578V56.1797C143.31 58.3594 143.31 60.7852 142.571 64.2188H145.665V66.0234H137.228V73.9688H135.001V66.0234H126.517V64.2188H140.38C140.708 62.8477 140.896 61.6172 141.013 60.5039L128.556 61.125L128.274 59.2031L141.142 58.8047C141.177 57.8672 141.188 57 141.188 56.1797V56.0625H128.884V54.2578H143.298ZM164.603 53.8828V55.7109H161.556V60.1172H164.509V61.875H157.923V64.2422H166.407V66.0234H147.259V64.2422H155.72V61.875H149.11V60.1172H152.087V55.7109H149.017V53.8828H164.603ZM149.673 73.5469V67.7109H151.923V71.7422H164.251V73.5469H149.673ZM154.29 60.1172H159.329V55.7109H154.29V60.1172ZM187.149 63.9609V65.7422H168.001V63.9609H187.149ZM170.063 57.8906C170.052 55.2539 172.993 53.6836 177.563 53.6953C182.11 53.6836 185.052 55.2539 185.063 57.8906C185.052 60.5391 182.11 62.1445 177.563 62.1562C172.993 62.1445 170.052 60.5391 170.063 57.8906ZM170.415 73.5469V67.4531H172.665V71.7422H184.993V73.5469H170.415ZM172.36 57.8906C172.349 59.4492 174.341 60.3281 177.563 60.3281C180.774 60.3281 182.778 59.4492 182.767 57.8906C182.778 56.3906 180.774 55.4766 177.563 55.4766C174.341 55.4766 172.349 56.3906 172.36 57.8906ZM213.798 65.1328V66.9609H209.087V73.9922H206.86V66.9609H201.54V73.9922H199.267V66.9609H194.579V65.1328H213.798ZM196.97 62.8125V53.8125H199.173V56.4844H209.157V53.8125H211.384V62.8125H196.97ZM199.173 61.0312H209.157V58.2422H199.173V61.0312ZM227.017 54.8438V56.6719H218.837V60.7266H226.22V62.5078H218.837V67.2188C222.505 67.1953 225.165 67.0664 228.282 66.5625L228.517 68.3672C225.188 68.9062 222.306 69.0117 218.345 69.0234H216.634V54.8438H227.017ZM230.556 73.9922V52.9922H232.806V73.9922H230.556ZM248.11 55.1484V56.9766H245.954V66.7617C246.997 66.6797 248.017 66.5859 249.001 66.4688L249.118 68.0859C244.724 68.8242 239.767 68.8945 236.087 68.9062L235.829 67.0547C236.661 67.0547 237.563 67.043 238.501 67.0312V56.9766H236.345V55.1484H248.11ZM240.657 66.9961C241.688 66.9727 242.743 66.9375 243.798 66.8906V56.9766H240.657V66.9961ZM250.22 73.9922V52.9922H252.446V61.2656H255.821V63.0938H252.446V73.9922H250.22ZM276.024 64.9219V66.7734H267.446V73.9922H265.267V66.7734H256.806V64.9219H276.024ZM258.892 58.4531C258.903 55.5938 261.927 53.7891 266.368 53.7891C270.81 53.7891 273.856 55.5938 273.845 58.4531C273.856 61.2773 270.81 63.0703 266.368 63.0703C261.927 63.0703 258.903 61.2773 258.892 58.4531ZM261.188 58.4531C261.177 60.1992 263.251 61.2891 266.368 61.2891C269.497 61.2891 271.56 60.1992 271.571 58.4531C271.56 56.6836 269.497 55.582 266.368 55.5703C263.251 55.582 261.177 56.6836 261.188 58.4531ZM294.962 52.9922V73.9922H292.735V52.9922H294.962ZM277.876 68.25C281.122 66.7969 283.278 63.2578 283.29 59.7422V58.3594H278.509V56.5781H283.267V53.4141H285.47V56.5781H290.181V58.3594H285.47V59.7422C285.481 63.0938 287.685 66.5156 290.954 67.8984L289.735 69.6094C287.31 68.5547 285.388 66.3633 284.415 63.7148C283.466 66.5273 281.556 68.8594 279.118 69.9609L277.876 68.25ZM306.563 63.75V65.9062H299.04V63.75H306.563ZM325.618 54.2578V56.1797C325.63 58.3594 325.63 60.7852 324.892 64.2188H327.985V66.0234H319.548V73.9688H317.321V66.0234H308.837V64.2188H322.7C323.028 62.8477 323.216 61.6172 323.333 60.5039L310.876 61.125L310.595 59.2031L323.462 58.8047C323.497 57.8672 323.509 57 323.509 56.1797V56.0625H311.204V54.2578H325.618ZM346.923 53.8828V55.7109H343.876V60.1172H346.829V61.875H340.243V64.2422H348.728V66.0234H329.579V64.2422H338.04V61.875H331.431V60.1172H334.407V55.7109H331.337V53.8828H346.923ZM331.993 73.5469V67.7109H334.243V71.7422H346.571V73.5469H331.993ZM336.61 60.1172H341.649V55.7109H336.61V60.1172ZM366.821 52.9922V58.4297H369.868V60.3281H366.821V65.6484H364.595V52.9922H366.821ZM350.345 56.9062V55.125H355.501V52.8281H357.728V55.125H362.86V56.9062H350.345ZM351.493 61.5703C351.481 59.332 353.544 57.8203 356.603 57.8203C359.638 57.8203 361.688 59.332 361.688 61.5703C361.688 63.8438 359.626 65.332 356.603 65.3438C353.544 65.332 351.481 63.8438 351.493 61.5703ZM353.415 73.7344V66.75H366.821V73.7344H353.415ZM353.649 61.5703C353.626 62.8711 354.821 63.6445 356.603 63.6562C358.384 63.6445 359.579 62.8711 359.603 61.5703C359.579 60.3164 358.384 59.5195 356.603 59.5312C354.821 59.5195 353.626 60.3164 353.649 61.5703ZM355.595 71.9297H364.618V68.5078H355.595V71.9297ZM389.134 52.9922V73.9922H387.001V52.9922H389.134ZM371.298 62.0625C371.298 57.5156 373.079 54.668 375.821 54.6797C378.376 54.668 380.099 57.0938 380.356 61.0312H382.735V53.3906H384.868V72.9609H382.735V62.8359H380.368C380.169 66.9375 378.423 69.4805 375.821 69.4688C373.079 69.4805 371.298 66.6211 371.298 62.0625ZM373.36 62.0625C373.36 65.4023 374.31 67.3711 375.821 67.3594C377.368 67.3711 378.329 65.4023 378.329 62.0625C378.329 58.7109 377.368 56.7539 375.821 56.7656C374.31 56.7539 373.36 58.7109 373.36 62.0625ZM399.376 58.3359C399.376 62.1797 401.532 66.0117 404.743 67.4531L403.384 69.2344C401.005 68.0391 399.2 65.6719 398.274 62.8008C397.349 65.8242 395.521 68.3789 393.095 69.6328L391.688 67.8281C394.946 66.2695 397.114 62.2266 397.126 58.3359V54.75H399.376V58.3359ZM402.423 61.7812V59.9766H407.11V52.9922H409.313V74.0391H407.11V61.7812H402.423ZM434.931 53.0156V59.25H437.931V61.0781H434.931V67.1484H432.704V53.0156H434.931ZM418.267 64.8047C419.896 64.8047 421.782 64.8047 423.751 64.7578V63.3398C421.36 63.0703 419.837 61.9453 419.86 60.2578C419.837 58.3359 421.841 57.1406 424.853 57.1641C427.864 57.1406 429.833 58.3359 429.845 60.2578C429.833 61.9336 428.345 63.0586 425.978 63.3398V64.6758C427.853 64.582 429.751 64.4297 431.509 64.1719L431.696 65.7656C427.185 66.5508 422.204 66.5859 418.501 66.5859L418.267 64.8047ZM418.806 56.4609V54.7969H423.751V52.8281H425.978V54.7969H430.923V56.4609H418.806ZM420.892 69.8672V68.1328H434.931V73.9922H432.704V69.8672H420.892ZM421.97 60.2578C421.97 61.2422 423.06 61.8867 424.853 61.875C426.622 61.8867 427.724 61.2422 427.712 60.2578C427.724 59.25 426.622 58.6641 424.853 58.6875C423.06 58.6641 421.97 59.25 421.97 60.2578ZM456.563 53.0156V68.2734H454.337V53.0156H456.563ZM439.571 59.625C439.583 56.5898 441.997 54.4336 445.173 54.4219C448.337 54.4336 450.751 56.5898 450.751 59.625C450.751 62.707 448.337 64.8516 445.173 64.8516C441.997 64.8516 439.583 62.707 439.571 59.625ZM441.751 59.625C441.739 61.6055 443.216 62.9062 445.173 62.9062C447.095 62.9062 448.571 61.6055 448.571 59.625C448.571 57.6914 447.095 56.3672 445.173 56.3672C443.216 56.3672 441.739 57.6914 441.751 59.625ZM442.829 73.5469V66.7266H445.079V71.7422H457.196V73.5469H442.829ZM482.11 52.9922V61.3594H485.368V63.2109H482.11V73.9688H479.884V52.9922H482.11ZM465.774 68.3672C471.036 65.7422 473.896 61.9453 474.353 57.0469H466.829V55.1953H476.626C476.603 61.2656 473.931 66.6914 467.017 70.1016L465.774 68.3672ZM503.462 58.6641V60.4688H489.048V53.3672H491.251V58.6641H503.462ZM486.493 64.5234V62.6953H505.665V64.5234H486.493ZM488.767 70.0547C488.767 67.6055 491.497 66.2227 496.056 66.2344C500.579 66.2227 503.286 67.6055 503.298 70.0547C503.286 72.5156 500.579 73.8984 496.056 73.8984C491.497 73.8984 488.767 72.5156 488.767 70.0547ZM491.017 70.0547C491.005 71.4023 492.845 72.1758 496.056 72.1875C499.22 72.1758 501.071 71.4023 501.071 70.0547C501.071 68.6953 499.22 67.9805 496.056 67.9688C492.845 67.9805 491.005 68.6953 491.017 70.0547ZM523.735 52.9922V58.2656H526.782V60.1406H523.735V65.2266H521.509V52.9922H523.735ZM507.259 56.8359V55.0547H512.415V52.8047H514.642V55.0547H519.774V56.8359H507.259ZM508.407 61.3828C508.396 59.1445 510.458 57.6914 513.517 57.7031C516.54 57.6914 518.603 59.1445 518.603 61.3828C518.603 63.6211 516.54 65.0859 513.517 65.0625C510.458 65.0859 508.396 63.6211 508.407 61.3828ZM510.306 73.7344V66.0938H512.509V68.1328H521.509V66.0938H523.735V73.7344H510.306ZM510.563 61.3828C510.54 62.6367 511.735 63.4102 513.517 63.4219C515.298 63.4102 516.493 62.6367 516.517 61.3828C516.493 60.1523 515.298 59.3555 513.517 59.3672C511.735 59.3555 510.54 60.1523 510.563 61.3828ZM512.509 71.9531H521.509V69.8672H512.509V71.9531ZM545.415 52.9922V73.9922H543.188V52.9922H545.415ZM529.267 68.6484V55.0312H531.47V66.7266C534.54 66.7148 537.763 66.4453 541.126 65.7656L541.431 67.6406C537.716 68.4023 534.341 68.6602 531.024 68.6484H529.267ZM565.079 52.9922V61.125H568.454V62.9531H565.079V74.0391H562.853V52.9922H565.079ZM549.61 68.8125V55.0078H559.431V56.8125H551.837V66.9609C555.364 66.9492 558.001 66.7969 561.001 66.2578L561.282 68.1328C557.989 68.7188 555.2 68.8242 551.298 68.8125H549.61ZM571.853 72.1641C570.938 72.1523 570.177 71.4141 570.188 70.5C570.177 69.5859 570.938 68.8359 571.853 68.8359C572.755 68.8359 573.505 69.5859 573.517 70.5C573.505 71.4141 572.755 72.1523 571.853 72.1641Z" fill="white"/>
<path d="M17.918 67.8984C16.4648 67.8867 15.2812 66.7031 15.2695 65.2266C15.2812 63.7734 16.4648 62.5898 17.918 62.5781C19.3945 62.5898 20.5781 63.7734 20.5898 65.2266C20.5781 66.7031 19.3945 67.8867 17.918 67.8984Z" fill="white"/>
</svg>
