<svg width="362" height="35" viewBox="0 0 362 35" fill="none" xmlns="http://www.w3.org/2000/svg">
<path d="M2.35938 30V7.375H10.4219C15.6875 7.375 18.2656 10.5312 18.2656 14.7188C18.2656 18.8906 15.6719 22.0625 10.4219 22.0625H5.79688V30H2.35938ZM5.79688 19.125H10.0781C13.4062 19.1406 14.7969 17.2656 14.7969 14.7188C14.7969 12.1562 13.4062 10.3281 10.0781 10.3125H5.79688V19.125ZM21.4219 30H17.7656L25.8906 7.375H29.8594L38.0156 30H34.3594L32.2969 24.0312H23.4844L21.4219 30ZM24.4688 21.1562H31.2969L27.9531 11.5H27.7969L24.4688 21.1562ZM36.8281 7.375H40.7344L46.6094 17.625H46.8594L52.7656 7.375H56.6719L48.4531 21.125V30H45.0156V21.125L36.8281 7.375ZM59.5156 30V7.375H67.7969C72.625 7.375 74.9531 9.95312 74.9531 13.3125C74.9531 16.1406 73.2188 17.5625 71.1406 18.0938V18.3125C73.3906 18.4375 75.8281 20.4062 75.8281 23.9062C75.8281 27.375 73.4531 30 68.1719 30H59.5156ZM62.9531 27.0625H67.8594C71.1094 27.0469 72.4219 25.625 72.4219 23.75C72.4219 21.5781 70.7031 19.8438 67.9844 19.8438H62.9531V27.0625ZM62.9531 17.1562H67.5156C69.7969 17.1406 71.5781 15.7656 71.5781 13.5938C71.5781 11.7188 70.2812 10.3125 67.5781 10.3125H62.9531V17.1562ZM81.4531 30H77.7969L85.9219 7.375H89.8906L98.0469 30H94.3906L92.3281 24.0312H83.5156L81.4531 30ZM84.5 21.1562H91.3281L87.9844 11.5H87.8281L84.5 21.1562ZM115.172 14.75C114.625 11.8281 112.203 10.2031 109.328 10.2188C105.422 10.2031 102.531 13.2031 102.516 18.6875C102.531 24.2031 105.438 27.1719 109.328 27.1562C112.172 27.1719 114.578 25.5781 115.172 22.6875L118.641 22.7188C117.922 27.1875 114.281 30.3125 109.297 30.3125C103.406 30.3125 99.1094 25.9219 99.1094 18.6875C99.1094 11.4531 103.438 7.0625 109.297 7.0625C114.078 7.0625 117.875 9.89062 118.641 14.75H115.172ZM122.359 30V7.375H125.797V18.1562H126.078L135.547 7.375H139.859L130.734 17.5625L139.891 30H135.734L128.453 19.9062L125.797 22.9688V30H122.359ZM171.609 6.34375V8.90625C171.625 11.8125 171.625 15.0469 170.641 19.625H174.766V22.0312H163.516V32.625H160.547V22.0312H149.234V19.625H167.719C168.156 17.7969 168.406 16.1562 168.562 14.6719L151.953 15.5L151.578 12.9375L168.734 12.4062C168.781 11.1562 168.797 10 168.797 8.90625V8.75H152.391V6.34375H171.609ZM200.016 5.84375V8.28125H195.953V14.1562H199.891V16.5H191.109V19.6562H202.422V22.0312H176.891V19.6562H188.172V16.5H179.359V14.1562H183.328V8.28125H179.234V5.84375H200.016ZM180.109 32.0625V24.2812H183.109V29.6562H199.547V32.0625H180.109ZM186.266 14.1562H192.984V8.28125H186.266V14.1562ZM234.172 4.65625V15.5H238.672V17.9375H234.172V32.7188H231.203V4.65625H234.172ZM213.547 25.75V7.34375H226.641V9.75H216.516V23.2812C221.219 23.2656 224.734 23.0625 228.734 22.3438L229.109 24.8438C224.719 25.625 221 25.7656 215.797 25.75H213.547ZM265.609 18.6875V21.0938H254.516V26.5312H251.516V21.0938H239.984V18.6875H265.609ZM242.797 11C242.781 7.5 246.75 5.32812 252.766 5.3125C258.781 5.32812 262.719 7.5 262.703 11C262.719 14.4844 258.781 16.6562 252.766 16.6562C246.75 16.6562 242.781 14.4844 242.797 11ZM243.203 32.0625V23.8438H246.172V29.625H262.766V32.0625H243.203ZM245.984 11C245.953 13.0156 248.672 14.25 252.766 14.25C256.875 14.25 259.562 13.0156 259.578 11C259.562 8.92188 256.875 7.70312 252.766 7.6875C248.672 7.70312 245.953 8.92188 245.984 11ZM293.297 26.8125V29.3125H267.672V26.8125H278.953V21.9062H270.797V13H287.234V9.0625H270.734V6.625H290.172V15.375H273.734V19.4688H290.828V21.9062H281.891V26.8125H293.297ZM318.016 17.9375V20.375H298.516V7.15625H317.766V9.59375H301.453V17.9375H318.016ZM295.328 28.9688V26.5H320.953V28.9688H295.328Z" fill="white"/>
<path d="M357 20.0638V27.2128C357 27.6868 356.812 28.1414 356.477 28.4765C356.141 28.8117 355.687 29 355.213 29H334.787C334.313 29 333.859 28.8117 333.523 28.4765C333.188 28.1414 333 27.6868 333 27.2128V20.0638C333 19.8607 333.081 19.6659 333.224 19.5222C333.368 19.3786 333.563 19.2979 333.766 19.2979C333.969 19.2979 334.164 19.3786 334.308 19.5222C334.451 19.6659 334.532 19.8607 334.532 20.0638V27.2128C334.532 27.2805 334.559 27.3454 334.607 27.3933C334.655 27.4412 334.72 27.4681 334.787 27.4681H355.213C355.28 27.4681 355.345 27.4412 355.393 27.3933C355.441 27.3454 355.468 27.2805 355.468 27.2128V20.0638C355.468 19.8607 355.549 19.6659 355.692 19.5222C355.836 19.3786 356.031 19.2979 356.234 19.2979C356.437 19.2979 356.632 19.3786 356.776 19.5222C356.919 19.6659 357 19.8607 357 20.0638ZM344.459 20.6051C344.602 20.7485 344.797 20.8291 345 20.8291C345.203 20.8291 345.398 20.7485 345.541 20.6051L350.648 15.4987C350.783 15.3535 350.857 15.1615 350.853 14.963C350.85 14.7646 350.769 14.5753 350.629 14.4349C350.489 14.2946 350.299 14.2142 350.101 14.2107C349.902 14.2072 349.71 14.2809 349.565 14.4162L345.766 18.214V5.76596C345.766 5.56281 345.685 5.36799 345.542 5.22434C345.398 5.0807 345.203 5 345 5C344.797 5 344.602 5.0807 344.458 5.22434C344.315 5.36799 344.234 5.56281 344.234 5.76596V18.214L340.435 14.4162C340.29 14.2809 340.098 14.2072 339.899 14.2107C339.701 14.2142 339.511 14.2946 339.371 14.4349C339.231 14.5753 339.15 14.7646 339.147 14.963C339.143 15.1615 339.217 15.3535 339.352 15.4987L344.459 20.6051Z" fill="white"/>
</svg>
