<svg width="591" height="174" viewBox="0 0 591 174" fill="none" xmlns="http://www.w3.org/2000/svg">
<rect y="98" width="591" height="76" fill="white"/>
<rect x="55.7168" y="98" width="506" height="76" fill="#70D99B"/>
<path d="M17.4446 109L8.80889 112.886C8.10713 113.202 8.10713 114.198 8.80889 114.514L15.6357 117.586C16.3374 117.902 16.3374 118.898 15.6357 119.214L8.8668 122.26C8.15602 122.58 8.16785 123.593 8.8859 123.896L15.0607 126.504C15.7707 126.803 15.7927 127.802 15.0965 128.132L8.69744 131.172C8.01793 131.495 8.01793 132.462 8.69744 132.784L15.0965 135.824C15.7927 136.155 15.7707 137.153 15.0607 137.453L8.78558 140.102C8.08341 140.398 8.05187 141.382 8.7336 141.723L15.711 145.211C16.3927 145.552 16.3612 146.536 15.659 146.832L9.32979 149.504C8.62852 149.801 8.59588 150.782 9.27593 151.124L15.2637 154.136C15.9274 154.47 15.9167 155.421 15.2456 155.739L8.84512 158.78C8.14169 159.114 8.17353 160.126 8.89659 160.415L17.4446 163.834" stroke="#B6B6B6" stroke-width="0.892622"/>
<path d="M27.8889 109L19.2532 112.886C18.5515 113.202 18.5515 114.198 19.2532 114.514L26.08 117.586C26.7818 117.902 26.7818 118.898 26.08 119.214L19.3111 122.26C18.6004 122.58 18.6122 123.593 19.3302 123.896L25.5051 126.504C26.2151 126.803 26.237 127.802 25.5409 128.132L19.1418 131.172C18.4623 131.495 18.4623 132.462 19.1418 132.784L25.5409 135.824C26.237 136.155 26.2151 137.153 25.5051 137.453L19.2299 140.102C18.5277 140.398 18.4962 141.382 19.1779 141.723L26.1553 145.211C26.837 145.552 26.8055 146.536 26.1033 146.832L19.7741 149.504C19.0729 149.801 19.0402 150.782 19.7203 151.124L25.7081 154.136C26.3718 154.47 26.361 155.421 25.69 155.739L19.2895 158.78C18.586 159.114 18.6179 160.126 19.3409 160.415L27.8889 163.834" stroke="#B6B6B6" stroke-width="0.892622"/>
<path d="M39.2046 109L29.8742 112.876C29.1405 113.18 29.1405 114.22 29.8742 114.524L37.2201 117.576C37.9537 117.881 37.9537 118.92 37.2201 119.224L29.9376 122.249C29.1952 122.558 29.2069 123.614 29.9559 123.905L36.5996 126.495C37.3408 126.784 37.3625 127.825 36.6339 128.144L29.7541 131.161C29.0419 131.473 29.0419 132.483 29.7541 132.796L36.6339 135.812C37.3625 136.132 37.3408 137.172 36.5996 137.461L29.8457 140.094C29.1122 140.379 29.081 141.406 29.7958 141.736L37.2984 145.198C38.0132 145.528 37.982 146.555 37.2485 146.841L30.4352 149.496C29.7026 149.782 29.6703 150.806 30.3835 151.137L36.8151 154.123C37.5122 154.447 37.5016 155.442 36.7976 155.75L29.916 158.768C29.1804 159.09 29.2118 160.144 29.9653 160.423L39.2046 163.834" stroke="#B6B6B6" stroke-width="0.892622"/>
<path d="M576.445 109L567.809 112.886C567.107 113.202 567.107 114.198 567.809 114.514L574.636 117.586C575.337 117.902 575.337 118.898 574.636 119.214L567.867 122.26C567.156 122.58 567.168 123.593 567.886 123.896L574.061 126.504C574.771 126.803 574.793 127.802 574.097 128.132L567.697 131.172C567.018 131.495 567.018 132.462 567.697 132.784L574.097 135.824C574.793 136.155 574.771 137.153 574.061 137.453L567.786 140.102C567.083 140.398 567.052 141.382 567.734 141.723L574.711 145.211C575.393 145.552 575.361 146.536 574.659 146.832L568.33 149.504C567.629 149.801 567.596 150.782 568.276 151.124L574.264 154.136C574.927 154.47 574.917 155.421 574.246 155.739L567.845 158.78C567.142 159.114 567.174 160.126 567.897 160.415L576.445 163.834" stroke="#B6B6B6" stroke-width="0.892622"/>
<path d="M49.6477 109L41.012 112.886C40.3103 113.202 40.3103 114.198 41.012 114.514L47.8388 117.586C48.5406 117.902 48.5406 118.898 47.8388 119.214L41.0699 122.26C40.3591 122.58 40.371 123.593 41.089 123.896L47.2639 126.504C47.9739 126.803 47.9958 127.802 47.2996 128.132L40.9006 131.172C40.2211 131.495 40.2211 132.462 40.9006 132.784L47.2996 135.824C47.9958 136.155 47.9739 137.153 47.2639 137.453L40.9887 140.102C40.2865 140.398 40.255 141.382 40.9367 141.723L47.9141 145.211C48.5958 145.552 48.5643 146.536 47.8621 146.832L41.5329 149.504C40.8316 149.801 40.799 150.782 41.4791 151.124L47.4669 154.136C48.1306 154.47 48.1198 155.421 47.4488 155.739L41.0482 158.78C40.3448 159.114 40.3767 160.126 41.0997 160.415L49.6477 163.834" stroke="#B6B6B6" stroke-width="0.892622"/>
<path d="M586.888 109L578.252 112.886C577.55 113.202 577.55 114.198 578.252 114.514L585.079 117.586C585.781 117.902 585.781 118.898 585.079 119.214L578.31 122.26C577.599 122.58 577.611 123.593 578.329 123.896L584.504 126.504C585.214 126.803 585.236 127.802 584.54 128.132L578.141 131.172C577.461 131.495 577.461 132.462 578.141 132.784L584.54 135.824C585.236 136.155 585.214 137.153 584.504 137.453L578.229 140.102C577.527 140.398 577.495 141.382 578.177 141.723L585.154 145.211C585.836 145.552 585.805 146.536 585.102 146.832L578.773 149.504C578.072 149.801 578.039 150.782 578.719 151.124L584.707 154.136C585.371 154.47 585.36 155.421 584.689 155.739L578.288 158.78C577.585 159.114 577.617 160.126 578.34 160.415L586.888 163.834" stroke="#B6B6B6" stroke-width="0.892622"/>
<line x1="181.5" y1="118" x2="181.5" y2="154" stroke="black"/>
<line x1="486.5" y1="118" x2="486.5" y2="154" stroke="black"/>
<path d="M90.5547 119.477V152H86.4668V123.699H86.2871L78.3809 128.955V124.867L86.4668 119.477H90.5547ZM99.2246 152L99.1797 149.035L110.275 137.355C114.116 133.268 115.958 131.066 115.98 128.057C115.958 124.71 113.173 122.554 109.512 122.531C105.626 122.554 103.2 125.002 103.178 128.641H99.3594C99.3145 122.891 103.762 119.027 109.646 119.027C115.554 119.027 119.731 123.003 119.754 128.057C119.731 131.695 118.047 134.525 112.297 140.455L104.84 148.137V148.406H120.338V152H99.2246ZM133.096 134.57C128.896 134.593 126.56 131.403 126.582 126.754C126.56 122.172 128.985 118.982 133.096 118.982C137.363 118.982 139.587 122.172 139.609 126.754C139.587 131.403 137.273 134.593 133.096 134.57ZM129.771 152L152.143 119.477H155.781L133.41 152H129.771ZM129.861 126.754C129.861 129.786 130.917 131.785 133.096 131.785C135.297 131.785 136.33 129.786 136.33 126.754C136.33 123.767 135.364 121.723 133.096 121.768C130.962 121.79 129.861 123.767 129.861 126.754ZM146.438 144.678C146.393 140.051 148.796 136.884 152.951 136.861C157.151 136.884 159.42 140.051 159.42 144.678C159.42 149.305 157.106 152.472 152.951 152.449C148.706 152.472 146.393 149.305 146.438 144.678ZM149.672 144.678C149.694 147.688 150.75 149.687 152.951 149.664C155.13 149.687 156.141 147.688 156.141 144.678C156.141 141.646 155.197 139.602 152.951 139.646C150.772 139.669 149.694 141.646 149.672 144.678Z" fill="black"/>
<path d="M206.266 130.234C203.055 130.234 200.641 128.277 200.523 125.57H203.031C203.172 127.012 204.555 128.066 206.266 128.078C208.328 128.066 209.805 126.578 209.805 124.562C209.805 122.5 208.281 121 206.148 120.977C204.789 120.977 203.746 121.434 203.172 122.477H200.734L201.836 113.031H211.445V115.234H203.969L203.406 119.992H203.57C204.273 119.312 205.469 118.855 206.758 118.844C209.957 118.855 212.312 121.223 212.312 124.492C212.312 127.832 209.805 130.234 206.266 130.234ZM224.969 112.844V122.641H215.148V112.844H224.969ZM217.328 120.883H222.789V114.648H217.328V120.883ZM217.516 131.547V124.891H219.742V129.742H231.719V131.547H217.516ZM228.602 126.367V110.969H230.828V117.25H233.875V119.125H230.828V126.367H228.602ZM252.531 111.016V126.93H250.305V124.914H246.086V123.344H250.305V111.016H252.531ZM234.977 120.602C238.855 120.566 244.094 120.531 248.57 119.969L248.711 121.562C246.918 121.867 245.031 122.055 243.18 122.184V126.273H240.953V122.301C238.914 122.383 236.957 122.383 235.258 122.383L234.977 120.602ZM236.617 115.516C236.605 113.289 238.727 111.812 241.844 111.812C244.914 111.812 247.047 113.289 247.047 115.516C247.047 117.754 244.914 119.172 241.844 119.172C238.738 119.172 236.605 117.754 236.617 115.516ZM237.883 131.547V125.383H240.086V129.742H253.047V131.547H237.883ZM238.727 115.516C238.715 116.758 239.98 117.531 241.844 117.531C243.637 117.531 244.926 116.758 244.938 115.516C244.926 114.262 243.637 113.453 241.844 113.477C239.98 113.453 238.715 114.262 238.727 115.516ZM279.062 110.992V132.039H276.836V110.992H279.062ZM262.398 119.922C262.398 115.434 264.66 112.574 267.836 112.562C270.953 112.574 273.25 115.434 273.25 119.922C273.25 124.457 270.953 127.316 267.836 127.305C264.66 127.316 262.398 124.457 262.398 119.922ZM264.555 119.922C264.543 123.262 265.879 125.312 267.836 125.312C269.758 125.312 271.094 123.262 271.094 119.922C271.094 116.629 269.758 114.566 267.836 114.555C265.879 114.566 264.543 116.629 264.555 119.922ZM289.656 114.344C289.645 117.098 291.59 119.664 294.719 120.695L293.523 122.453C291.227 121.645 289.504 120.004 288.59 117.93C287.676 120.285 285.895 122.137 283.445 123.039L282.25 121.258C285.531 120.098 287.43 117.297 287.453 114.156V112.094H289.656V114.344ZM285.086 128.055C285.086 125.594 287.77 124.152 292.141 124.164C296.453 124.152 299.102 125.594 299.102 128.055C299.102 130.539 296.453 131.957 292.141 131.945C287.77 131.957 285.086 130.539 285.086 128.055ZM287.312 128.055C287.301 129.438 289.105 130.188 292.141 130.211C295.152 130.188 296.934 129.438 296.922 128.055C296.934 126.719 295.152 125.922 292.141 125.922C289.105 125.922 287.301 126.719 287.312 128.055ZM296.688 123.672V110.992H298.914V116.266H301.961V118.141H298.914V123.672H296.688ZM217.938 139.992V160.992H215.805V139.992H217.938ZM199.539 154.055C200.148 154.055 200.852 154.055 201.602 154.043V144.398H199.984V142.57H209.617V144.398H208V153.785C208.715 153.727 209.406 153.645 210.039 153.562L210.203 155.18C206.875 155.836 202.516 155.93 199.797 155.93L199.539 154.055ZM203.617 154.008C204.379 153.996 205.164 153.961 205.938 153.926V144.398H203.617V154.008ZM209.055 149.859V147.867H211.68V140.461H213.789V159.914H211.68V149.859H209.055ZM237.906 139.992V161.039H235.68V139.992H237.906ZM221.242 148.922C221.242 144.434 223.504 141.574 226.68 141.562C229.797 141.574 232.094 144.434 232.094 148.922C232.094 153.457 229.797 156.316 226.68 156.305C223.504 156.316 221.242 153.457 221.242 148.922ZM223.398 148.922C223.387 152.262 224.723 154.312 226.68 154.312C228.602 154.312 229.938 152.262 229.938 148.922C229.938 145.629 228.602 143.566 226.68 143.555C224.723 143.566 223.387 145.629 223.398 148.922ZM244.258 141.328V144.539H248.312V141.328H250.375V151.242H242.148V141.328H244.258ZM244.258 149.438H248.312V146.273H244.258V149.438ZM244.891 155.602V153.797H259.164V160.992H256.961V155.602H244.891ZM252.531 152.484V140.391H254.594V145.359H257.055V140.016H259.164V152.625H257.055V147.188H254.594V152.484H252.531ZM285.32 139.992V160.992H283.07V139.992H285.32ZM268.07 155.367C273.648 152.707 276.379 148.922 276.812 144.023H269.078V142.242H279.062C279.062 148.395 276.449 153.715 269.242 157.172L268.07 155.367ZM307.82 156.492V158.367H288.602V156.492H307.82ZM290.242 143.836V142.008H306.062V143.836H302.852V150.844H305.992V152.625H290.289V150.844H293.43V143.836H290.242ZM295.633 150.844H300.672V143.836H295.633V150.844ZM326.383 151.172V152.953H311.758V141.727H326.172V143.531H314.008V146.367H325.727V148.125H314.008V151.172H326.383ZM309.344 158.344V156.516H328.562V158.344H309.344ZM346.867 142.125C346.844 148.324 344.945 153.82 337.281 157.594L336.062 155.93C339.859 154.066 342.121 151.805 343.363 149.145L336.508 149.789L336.18 147.867L344.055 147.34C344.371 146.262 344.547 145.125 344.629 143.93H337.281V142.125H346.867ZM350.078 160.969V139.992H352.305V148.383H355.562V150.211H352.305V160.969H350.078ZM373.703 149.953V151.781H359.078V141.867H373.516V143.695H361.281V149.953H373.703ZM356.688 158.227V156.375H375.906V158.227H356.688Z" fill="black"/>
<path d="M421 150.8H439M439 150.8L430.936 143M439 150.8L430.936 159" stroke="black" stroke-width="1.5"/>
<path d="M393 150.8H411M411 150.8L402.936 143M411 150.8L402.936 159" stroke="black" stroke-width="1.5"/>
<path d="M449 150.8H467M467 150.8L458.936 143M467 150.8L458.936 159" stroke="black" stroke-width="1.5"/>
<rect width="591" height="76" fill="white"/>
<rect x="55.5713" width="506" height="76" fill="#FFD945"/>
<path d="M17.4446 11L8.80889 14.8861C8.10713 15.2018 8.10713 16.1983 8.80889 16.5141L15.6357 19.5861C16.3374 19.9019 16.3374 20.8983 15.6357 21.2141L8.8668 24.2601C8.15602 24.58 8.16785 25.5933 8.8859 25.8964L15.0607 28.5036C15.7707 28.8034 15.7927 29.8015 15.0965 30.1322L8.69744 33.1718C8.01793 33.4945 8.01793 34.4616 8.69744 34.7843L15.0965 37.8239C15.7927 38.1546 15.7707 39.1527 15.0607 39.4525L8.78558 42.102C8.08341 42.3985 8.05187 43.3819 8.7336 43.7227L15.711 47.2114C16.3927 47.5523 16.3612 48.5356 15.659 48.8321L9.32979 51.5044C8.62852 51.8005 8.59588 52.7822 9.27593 53.1242L15.2637 56.1357C15.9274 56.4695 15.9167 57.4207 15.2456 57.7395L8.84512 60.7797C8.14169 61.1138 8.17353 62.1256 8.89659 62.4148L17.4446 65.834" stroke="#B6B6B6" stroke-width="0.892622"/>
<path d="M27.8889 11L19.2532 14.8861C18.5515 15.2018 18.5515 16.1983 19.2532 16.5141L26.08 19.5861C26.7818 19.9019 26.7818 20.8983 26.08 21.2141L19.3111 24.2601C18.6004 24.58 18.6122 25.5933 19.3302 25.8964L25.5051 28.5036C26.2151 28.8034 26.237 29.8015 25.5409 30.1322L19.1418 33.1718C18.4623 33.4945 18.4623 34.4616 19.1418 34.7843L25.5409 37.8239C26.237 38.1546 26.2151 39.1527 25.5051 39.4525L19.2299 42.102C18.5277 42.3985 18.4962 43.3819 19.1779 43.7227L26.1553 47.2114C26.837 47.5523 26.8055 48.5356 26.1033 48.8321L19.7741 51.5044C19.0729 51.8005 19.0402 52.7822 19.7203 53.1242L25.7081 56.1357C26.3718 56.4695 26.361 57.4207 25.69 57.7395L19.2895 60.7797C18.586 61.1138 18.6179 62.1256 19.3409 62.4148L27.8889 65.834" stroke="#B6B6B6" stroke-width="0.892622"/>
<path d="M39.2046 11L29.8742 14.8757C29.1405 15.1805 29.1405 16.2197 29.8742 16.5244L37.2201 19.5758C37.9537 19.8805 37.9537 20.9197 37.2201 21.2244L29.9376 24.2495C29.1952 24.5578 29.2069 25.6135 29.9559 25.9055L36.5996 28.4948C37.3408 28.7837 37.3625 29.8246 36.6339 30.144L29.7541 33.1605C29.0419 33.4728 29.0419 34.4832 29.7541 34.7955L36.6339 37.8121C37.3625 38.1315 37.3408 39.1724 36.5996 39.4613L29.8457 42.0935C29.1122 42.3794 29.081 43.4058 29.7958 43.7357L37.2984 47.1984C38.0132 47.5283 37.982 48.5547 37.2485 48.8406L30.4352 51.496C29.7026 51.7815 29.6703 52.8062 30.3835 53.1373L36.8151 56.1232C37.5122 56.4469 37.5016 57.4417 36.7976 57.7503L29.916 60.7677C29.1804 61.0902 29.2118 62.1443 29.9653 62.4225L39.2046 65.834" stroke="#B6B6B6" stroke-width="0.892622"/>
<path d="M576.445 11L567.809 14.8861C567.107 15.2018 567.107 16.1983 567.809 16.5141L574.636 19.5861C575.337 19.9019 575.337 20.8983 574.636 21.2141L567.867 24.2601C567.156 24.58 567.168 25.5933 567.886 25.8964L574.061 28.5036C574.771 28.8034 574.793 29.8015 574.097 30.1322L567.697 33.1718C567.018 33.4945 567.018 34.4616 567.697 34.7843L574.097 37.8239C574.793 38.1546 574.771 39.1527 574.061 39.4525L567.786 42.102C567.083 42.3985 567.052 43.3819 567.734 43.7227L574.711 47.2114C575.393 47.5523 575.361 48.5356 574.659 48.8321L568.33 51.5044C567.629 51.8005 567.596 52.7822 568.276 53.1242L574.264 56.1357C574.927 56.4695 574.917 57.4207 574.246 57.7395L567.845 60.7797C567.142 61.1138 567.174 62.1256 567.897 62.4148L576.445 65.834" stroke="#B6B6B6" stroke-width="0.892622"/>
<path d="M49.6477 11L41.012 14.8861C40.3103 15.2018 40.3103 16.1983 41.012 16.5141L47.8388 19.5861C48.5406 19.9019 48.5406 20.8983 47.8388 21.2141L41.0699 24.2601C40.3591 24.58 40.371 25.5933 41.089 25.8964L47.2639 28.5036C47.9739 28.8034 47.9958 29.8015 47.2996 30.1322L40.9006 33.1718C40.2211 33.4945 40.2211 34.4616 40.9006 34.7843L47.2996 37.8239C47.9958 38.1546 47.9739 39.1527 47.2639 39.4525L40.9887 42.102C40.2865 42.3985 40.255 43.3819 40.9367 43.7227L47.9141 47.2114C48.5958 47.5523 48.5643 48.5356 47.8621 48.8321L41.5329 51.5044C40.8316 51.8005 40.799 52.7822 41.4791 53.1242L47.4669 56.1357C48.1306 56.4695 48.1198 57.4207 47.4488 57.7395L41.0482 60.7797C40.3448 61.1138 40.3767 62.1256 41.0997 62.4148L49.6477 65.834" stroke="#B6B6B6" stroke-width="0.892622"/>
<path d="M586.888 11L578.252 14.8861C577.55 15.2018 577.55 16.1983 578.252 16.5141L585.079 19.5861C585.781 19.9019 585.781 20.8983 585.079 21.2141L578.31 24.2601C577.599 24.58 577.611 25.5933 578.329 25.8964L584.504 28.5036C585.214 28.8034 585.236 29.8015 584.54 30.1322L578.141 33.1718C577.461 33.4945 577.461 34.4616 578.141 34.7843L584.54 37.8239C585.236 38.1546 585.214 39.1527 584.504 39.4525L578.229 42.102C577.527 42.3985 577.495 43.3819 578.177 43.7227L585.154 47.2114C585.836 47.5523 585.805 48.5356 585.102 48.8321L578.773 51.5044C578.072 51.8005 578.039 52.7822 578.719 53.1242L584.707 56.1357C585.371 56.4695 585.36 57.4207 584.689 57.7395L578.288 60.7797C577.585 61.1138 577.617 62.1256 578.34 62.4148L586.888 65.834" stroke="#B6B6B6" stroke-width="0.892622"/>
<line x1="181.5" y1="20" x2="181.5" y2="56" stroke="black"/>
<line x1="486.5" y1="20" x2="486.5" y2="56" stroke="black"/>
<path d="M90.5547 23.2217V55.7451H86.4668V27.4443H86.2871L78.3809 32.7002V28.6123L86.4668 23.2217H90.5547ZM109.826 56.1943C103.964 56.1943 99.5166 52.5781 99.2695 47.5693H103.178C103.47 50.4668 106.3 52.623 109.826 52.6455C114.049 52.623 117.104 49.5459 117.104 45.458C117.104 41.2354 113.937 38.1133 109.557 38.0908C106.816 38.0459 104.683 38.8994 103.492 41.0107H99.584L101.875 23.2217H119.484V26.8154H105.244L104.031 36.3389H104.346C105.806 35.2158 107.984 34.4521 110.275 34.4521C116.475 34.4521 121.034 39.0342 121.057 45.3682C121.034 51.6572 116.317 56.1943 109.826 56.1943ZM133.545 38.3154C129.345 38.3379 127.009 35.1484 127.031 30.499C127.009 25.917 129.435 22.7275 133.545 22.7275C137.812 22.7275 140.036 25.917 140.059 30.499C140.036 35.1484 137.723 38.3379 133.545 38.3154ZM130.221 55.7451L152.592 23.2217H156.23L133.859 55.7451H130.221ZM130.311 30.499C130.311 33.5312 131.366 35.5303 133.545 35.5303C135.746 35.5303 136.779 33.5312 136.779 30.499C136.779 27.5117 135.813 25.4678 133.545 25.5127C131.411 25.5352 130.311 27.5117 130.311 30.499ZM146.887 48.4229C146.842 43.7959 149.245 40.6289 153.4 40.6064C157.601 40.6289 159.869 43.7959 159.869 48.4229C159.869 53.0498 157.556 56.2168 153.4 56.1943C149.155 56.2168 146.842 53.0498 146.887 48.4229ZM150.121 48.4229C150.144 51.4326 151.199 53.4316 153.4 53.4092C155.579 53.4316 156.59 51.4326 156.59 48.4229C156.59 45.3906 155.646 43.3467 153.4 43.3916C151.222 43.4141 150.144 45.3906 150.121 48.4229Z" fill="black"/>
<path d="M206.945 15.0312V32H204.344V17.6094H204.25L200.195 20.2578V17.7969L204.414 15.0312H206.945ZM217.164 32.2344C213.238 32.2344 210.93 29.0703 210.93 23.5156C210.93 17.9961 213.262 14.7969 217.164 14.7969C221.055 14.7969 223.387 17.9961 223.398 23.5156C223.387 29.0703 221.09 32.2344 217.164 32.2344ZM213.508 23.5156C213.496 27.7461 214.867 30.0078 217.164 30.0078C219.449 30.0078 220.82 27.7461 220.82 23.5156C220.82 19.2969 219.438 16.9883 217.164 16.9766C214.879 16.9883 213.508 19.2969 213.508 23.5156ZM235.984 14.8438V24.6406H226.164V14.8438H235.984ZM228.344 22.8828H233.805V16.6484H228.344V22.8828ZM228.531 33.5469V26.8906H230.758V31.7422H242.734V33.5469H228.531ZM239.617 28.3672V12.9688H241.844V19.25H244.891V21.125H241.844V28.3672H239.617ZM263.547 13.0156V28.9297H261.32V26.9141H257.102V25.3438H261.32V13.0156H263.547ZM245.992 22.6016C249.871 22.5664 255.109 22.5312 259.586 21.9688L259.727 23.5625C257.934 23.8672 256.047 24.0547 254.195 24.1836V28.2734H251.969V24.3008C249.93 24.3828 247.973 24.3828 246.273 24.3828L245.992 22.6016ZM247.633 17.5156C247.621 15.2891 249.742 13.8125 252.859 13.8125C255.93 13.8125 258.062 15.2891 258.062 17.5156C258.062 19.7539 255.93 21.1719 252.859 21.1719C249.754 21.1719 247.621 19.7539 247.633 17.5156ZM248.898 33.5469V27.3828H251.102V31.7422H264.062V33.5469H248.898ZM249.742 17.5156C249.73 18.7578 250.996 19.5312 252.859 19.5312C254.652 19.5312 255.941 18.7578 255.953 17.5156C255.941 16.2617 254.652 15.4531 252.859 15.4766C250.996 15.4531 249.73 16.2617 249.742 17.5156ZM290.078 12.9922V34.0391H287.852V12.9922H290.078ZM273.414 21.9219C273.414 17.4336 275.676 14.5742 278.852 14.5625C281.969 14.5742 284.266 17.4336 284.266 21.9219C284.266 26.457 281.969 29.3164 278.852 29.3047C275.676 29.3164 273.414 26.457 273.414 21.9219ZM275.57 21.9219C275.559 25.2617 276.895 27.3125 278.852 27.3125C280.773 27.3125 282.109 25.2617 282.109 21.9219C282.109 18.6289 280.773 16.5664 278.852 16.5547C276.895 16.5664 275.559 18.6289 275.57 21.9219ZM300.672 16.3438C300.66 19.0977 302.605 21.6641 305.734 22.6953L304.539 24.4531C302.242 23.6445 300.52 22.0039 299.605 19.9297C298.691 22.2852 296.91 24.1367 294.461 25.0391L293.266 23.2578C296.547 22.0977 298.445 19.2969 298.469 16.1562V14.0938H300.672V16.3438ZM296.102 30.0547C296.102 27.5938 298.785 26.1523 303.156 26.1641C307.469 26.1523 310.117 27.5938 310.117 30.0547C310.117 32.5391 307.469 33.957 303.156 33.9453C298.785 33.957 296.102 32.5391 296.102 30.0547ZM298.328 30.0547C298.316 31.4375 300.121 32.1875 303.156 32.2109C306.168 32.1875 307.949 31.4375 307.938 30.0547C307.949 28.7188 306.168 27.9219 303.156 27.9219C300.121 27.9219 298.316 28.7188 298.328 30.0547ZM307.703 25.6719V12.9922H309.93V18.2656H312.977V20.1406H309.93V25.6719H307.703ZM217.938 41.9922V62.9922H215.805V41.9922H217.938ZM199.539 56.0547C200.148 56.0547 200.852 56.0547 201.602 56.043V46.3984H199.984V44.5703H209.617V46.3984H208V55.7852C208.715 55.7266 209.406 55.6445 210.039 55.5625L210.203 57.1797C206.875 57.8359 202.516 57.9297 199.797 57.9297L199.539 56.0547ZM203.617 56.0078C204.379 55.9961 205.164 55.9609 205.938 55.9258V46.3984H203.617V56.0078ZM209.055 51.8594V49.8672H211.68V42.4609H213.789V61.9141H211.68V51.8594H209.055ZM237.906 41.9922V63.0391H235.68V41.9922H237.906ZM221.242 50.9219C221.242 46.4336 223.504 43.5742 226.68 43.5625C229.797 43.5742 232.094 46.4336 232.094 50.9219C232.094 55.457 229.797 58.3164 226.68 58.3047C223.504 58.3164 221.242 55.457 221.242 50.9219ZM223.398 50.9219C223.387 54.2617 224.723 56.3125 226.68 56.3125C228.602 56.3125 229.938 54.2617 229.938 50.9219C229.938 47.6289 228.602 45.5664 226.68 45.5547C224.723 45.5664 223.387 47.6289 223.398 50.9219ZM244.258 43.3281V46.5391H248.312V43.3281H250.375V53.2422H242.148V43.3281H244.258ZM244.258 51.4375H248.312V48.2734H244.258V51.4375ZM244.891 57.6016V55.7969H259.164V62.9922H256.961V57.6016H244.891ZM252.531 54.4844V42.3906H254.594V47.3594H257.055V42.0156H259.164V54.625H257.055V49.1875H254.594V54.4844H252.531ZM285.32 41.9922V62.9922H283.07V41.9922H285.32ZM268.07 57.3672C273.648 54.707 276.379 50.9219 276.812 46.0234H269.078V44.2422H279.062C279.062 50.3945 276.449 55.7148 269.242 59.1719L268.07 57.3672ZM307.82 58.4922V60.3672H288.602V58.4922H307.82ZM290.242 45.8359V44.0078H306.062V45.8359H302.852V52.8438H305.992V54.625H290.289V52.8438H293.43V45.8359H290.242ZM295.633 52.8438H300.672V45.8359H295.633V52.8438ZM326.383 53.1719V54.9531H311.758V43.7266H326.172V45.5312H314.008V48.3672H325.727V50.125H314.008V53.1719H326.383ZM309.344 60.3438V58.5156H328.562V60.3438H309.344ZM346.867 44.125C346.844 50.3242 344.945 55.8203 337.281 59.5938L336.062 57.9297C339.859 56.0664 342.121 53.8047 343.363 51.1445L336.508 51.7891L336.18 49.8672L344.055 49.3398C344.371 48.2617 344.547 47.125 344.629 45.9297H337.281V44.125H346.867ZM350.078 62.9688V41.9922H352.305V50.3828H355.562V52.2109H352.305V62.9688H350.078ZM373.703 51.9531V53.7812H359.078V43.8672H373.516V45.6953H361.281V51.9531H373.703ZM356.688 60.2266V58.375H375.906V60.2266H356.688Z" fill="black"/>
<path d="M421 52.8H439M439 52.8L430.936 45M439 52.8L430.936 61" stroke="black" stroke-width="1.5"/>
<path d="M393 52.8H411M411 52.8L402.936 45M411 52.8L402.936 61" stroke="black" stroke-width="1.5"/>
<path d="M449 52.8H467M467 52.8L458.936 45M467 52.8L458.936 61" stroke="black" stroke-width="1.5"/>
</svg>
