<svg width="320" height="37" viewBox="0 0 320 37" fill="none" xmlns="http://www.w3.org/2000/svg">
<path d="M23.5781 6.34375V8.90625C23.5938 11.8125 23.5938 15.0469 22.6094 19.625H26.7344V22.0312H15.4844V32.625H12.5156V22.0312H1.20312V19.625H19.6875C20.125 17.7969 20.375 16.1562 20.5312 14.6719L3.92188 15.5L3.54688 12.9375L20.7031 12.4062C20.75 11.1562 20.7656 10 20.7656 8.90625V8.75H4.35938V6.34375H23.5781ZM51.9844 5.84375V8.28125H47.9219V14.1562H51.8594V16.5H43.0781V19.6562H54.3906V22.0312H28.8594V19.6562H40.1406V16.5H31.3281V14.1562H35.2969V8.28125H31.2031V5.84375H51.9844ZM32.0781 32.0625V24.2812H35.0781V29.6562H51.5156V32.0625H32.0781ZM38.2344 14.1562H44.9531V8.28125H38.2344V14.1562ZM80.3906 4.6875V21.7188H77.5781V14.3438H74.4844V21.5625H71.7031V5.0625H74.4844V11.9062H77.5781V4.6875H80.3906ZM56.3594 17.875C57.1562 17.875 58.0625 17.8594 59.0469 17.8438V9.5H56.8594V7.03125H69.9531V9.5H67.7344V17.5C68.6875 17.4219 69.6094 17.3281 70.4531 17.2188L70.5781 19.4375C66.1406 20.2188 60.3125 20.3125 56.6719 20.3125L56.3594 17.875ZM61.0156 25.4375V23H80.3906V32.6562H77.4531V25.4375H61.0156ZM61.7969 17.7969C62.8594 17.7656 63.9375 17.7344 65.0156 17.6719V9.5H61.7969V17.7969ZM93.6719 21.375C93.7031 15.4844 95.375 10.5938 98.2969 6.40625H101.359C99.2031 9.5 97.1406 15.7969 97.1406 21.375C97.1406 26.9688 99.2031 33.2656 101.359 36.375H98.2969C95.375 32.1719 93.7031 27.2812 93.6719 21.375ZM105.172 30L115.266 10.5V10.3125H103.609V7.375H118.828V10.4375L108.766 30H105.172ZM131.109 9.8125C131.094 13.375 133.578 16.625 137.828 17.9688L136.422 20.2812C133.234 19.2656 130.906 17.1562 129.672 14.5C128.453 17.5625 126 19.9844 122.641 21.1562L121.109 18.7812C125.484 17.3438 128.125 13.7344 128.141 9.84375V9.0625H121.984V6.65625H137.141V9.0625H131.109V9.8125ZM124.891 27.3438C124.891 24.0625 128.469 22.1406 134.297 22.1562C140.062 22.1406 143.578 24.0625 143.578 27.3438C143.578 30.6719 140.062 32.6094 134.297 32.5938C128.469 32.6094 124.891 30.6719 124.891 27.3438ZM127.859 27.3438C127.844 29.2188 130.25 30.2656 134.297 30.25C138.312 30.2656 140.688 29.2188 140.672 27.3438C140.688 25.5156 138.312 24.4844 134.297 24.5C130.25 24.4844 127.844 25.5156 127.859 27.3438ZM140.359 21.4688V4.65625H143.328V11.5938H147.391V14.0312H143.328V21.4688H140.359ZM156.672 21.375C156.641 27.2812 154.969 32.1719 152.047 36.375H148.984C151.141 33.2656 153.203 26.9688 153.203 21.375C153.203 15.7969 151.141 9.5 148.984 6.40625H152.047C154.969 10.5938 156.641 15.4844 156.672 21.375ZM190.047 4.65625V15.5H194.547V17.9375H190.047V32.7188H187.078V4.65625H190.047ZM169.422 25.75V7.34375H182.516V9.75H172.391V23.2812C177.094 23.2656 180.609 23.0625 184.609 22.3438L184.984 24.8438C180.594 25.625 176.875 25.7656 171.672 25.75H169.422ZM221.484 18.6875V21.0938H210.391V26.5312H207.391V21.0938H195.859V18.6875H221.484ZM198.672 11C198.656 7.5 202.625 5.32812 208.641 5.3125C214.656 5.32812 218.594 7.5 218.578 11C218.594 14.4844 214.656 16.6562 208.641 16.6562C202.625 16.6562 198.656 14.4844 198.672 11ZM199.078 32.0625V23.8438H202.047V29.625H218.641V32.0625H199.078ZM201.859 11C201.828 13.0156 204.547 14.25 208.641 14.25C212.75 14.25 215.438 13.0156 215.453 11C215.438 8.92188 212.75 7.70312 208.641 7.6875C204.547 7.70312 201.828 8.92188 201.859 11ZM249.172 26.8125V29.3125H223.547V26.8125H234.828V21.9062H226.672V13H243.109V9.0625H226.609V6.625H246.047V15.375H229.609V19.4688H246.703V21.9062H237.766V26.8125H249.172ZM273.891 17.9375V20.375H254.391V7.15625H273.641V9.59375H257.328V17.9375H273.891ZM251.203 28.9688V26.5H276.828V28.9688H251.203Z" fill="white"/>
<path d="M315 20.0638V27.2128C315 27.6868 314.812 28.1414 314.477 28.4765C314.141 28.8117 313.687 29 313.213 29H292.787C292.313 29 291.859 28.8117 291.523 28.4765C291.188 28.1414 291 27.6868 291 27.2128V20.0638C291 19.8607 291.081 19.6659 291.224 19.5222C291.368 19.3786 291.563 19.2979 291.766 19.2979C291.969 19.2979 292.164 19.3786 292.308 19.5222C292.451 19.6659 292.532 19.8607 292.532 20.0638V27.2128C292.532 27.2805 292.559 27.3454 292.607 27.3933C292.655 27.4412 292.72 27.4681 292.787 27.4681H313.213C313.28 27.4681 313.345 27.4412 313.393 27.3933C313.441 27.3454 313.468 27.2805 313.468 27.2128V20.0638C313.468 19.8607 313.549 19.6659 313.692 19.5222C313.836 19.3786 314.031 19.2979 314.234 19.2979C314.437 19.2979 314.632 19.3786 314.776 19.5222C314.919 19.6659 315 19.8607 315 20.0638ZM302.459 20.6051C302.602 20.7485 302.797 20.8291 303 20.8291C303.203 20.8291 303.398 20.7485 303.541 20.6051L308.648 15.4987C308.783 15.3535 308.857 15.1615 308.853 14.963C308.85 14.7646 308.769 14.5753 308.629 14.4349C308.489 14.2946 308.299 14.2142 308.101 14.2107C307.902 14.2072 307.71 14.2809 307.565 14.4162L303.766 18.214V5.76596C303.766 5.56281 303.685 5.36799 303.542 5.22434C303.398 5.0807 303.203 5 303 5C302.797 5 302.602 5.0807 302.458 5.22434C302.315 5.36799 302.234 5.56281 302.234 5.76596V18.214L298.435 14.4162C298.29 14.2809 298.098 14.2072 297.899 14.2107C297.701 14.2142 297.511 14.2946 297.371 14.4349C297.231 14.5753 297.15 14.7646 297.147 14.963C297.143 15.1615 297.217 15.3535 297.352 15.4987L302.459 20.6051Z" fill="white"/>
</svg>
