<svg width="487" height="342" viewBox="0 0 487 342" fill="none" xmlns="http://www.w3.org/2000/svg">
<path d="M192.032 91.32H200.124V93H190.296V73.148H192.032V81.828H199.396V83.508H192.032V91.32ZM199.984 73.148V74.828H194.496V73.148H199.984ZM211.949 85.972L210.381 85.384L214.469 72.84L216.093 73.428L211.949 85.972ZM208.113 93.336L202.177 73.4L203.801 72.868L209.737 92.804L208.113 93.336ZM220.688 91.32H228.78V93H218.952V73.148H220.688V81.828H228.052V83.508H220.688V91.32ZM228.64 73.148V74.828H223.152V73.148H228.64ZM245.365 73.148H247.101V93H245.253L232.569 73.82L233.997 72.868L245.365 90.088V73.148ZM232.709 93V80.652H234.445V93H232.709ZM250.087 74.828V73.148H260.979V74.828H250.087ZM254.651 93V78.104H256.387V93H254.651ZM275.538 93.308C271.954 93.308 269.77 89.192 269.77 83.06C269.77 79.756 270.358 77.068 271.618 75.164L272.766 76.48C271.898 78.16 271.506 80.708 271.506 83.06C271.506 87.96 272.962 91.628 275.538 91.628C278.114 91.628 279.57 87.96 279.57 83.06C279.57 78.16 278.114 74.492 275.538 74.492C275.286 74.492 275.006 74.548 274.922 74.576L274.222 73.036C274.614 72.896 275.006 72.812 275.538 72.812C279.122 72.812 281.306 76.928 281.306 83.06C281.306 89.192 279.122 93.308 275.538 93.308ZM288.788 88.772L287.416 87.708L292.988 80.652C293.716 79.728 294.192 78.944 294.192 77.936C294.192 75.976 292.68 74.492 290.692 74.492C288.704 74.492 287.22 75.92 287.22 77.824C287.22 79.112 287.836 80.008 288.676 80.764L287.5 81.94C286.296 81.044 285.484 79.56 285.484 77.824C285.484 74.968 287.724 72.812 290.692 72.812C293.688 72.812 295.928 74.996 295.928 77.936C295.928 79 295.48 80.344 294.416 81.66L288.788 88.772ZM285.148 93V91.32H296.684V93H285.148Z" fill="#001FFE"/>
<path d="M46.6875 143.875V165H55.0625V171.5H46.6875V200.875H38.6875V143.875H46.6875ZM4.0625 187.062V149.125H30.75V155.562H12V180.5C20.25 180.438 27.0625 180 34.625 178.688L35.5 185.375C26.6562 186.875 18.9062 187.094 8.875 187.062H4.0625ZM109.625 150.938V157.438H102.25V163.312H109.625V169.875H102.25V177.125H94.25V143.875H102.25V150.938H109.625ZM57.5 160.75C57.4688 152.656 64.2188 146.969 73.125 147C81.9375 146.969 88.625 152.656 88.625 160.75C88.625 168.781 81.9375 174.531 73.125 174.5C64.2188 174.531 57.4688 168.781 57.5 160.75ZM64.125 189.562C64.0938 182.469 71.7188 178.281 83.625 178.25C95.3125 178.281 102.781 182.469 102.812 189.562C102.781 196.562 95.3125 200.781 83.625 200.75C71.7188 200.781 64.0938 196.562 64.125 189.562ZM65.375 160.75C65.3125 165.188 68.6562 167.781 73.125 167.812C77.5 167.781 80.8438 165.188 80.875 160.75C80.8438 156.375 77.5 153.656 73.125 153.688C68.6562 153.656 65.3125 156.375 65.375 160.75ZM72.125 189.562C72.0625 192.906 76.1562 194.438 83.625 194.438C91 194.438 94.9375 192.906 94.9375 189.562C94.9375 186.25 91 184.594 83.625 184.562C76.1562 184.594 72.0625 186.25 72.125 189.562ZM157.562 143.938V161.375H165.25V167.875H157.562V186.375H149.562V143.938H157.562ZM112.438 156.188V149.875H125.375V143.812H133.312V149.875H146.188V156.188H112.438ZM115.188 169.188C115.188 162.594 121.031 158.188 129.312 158.188C137.562 158.188 143.312 162.594 143.312 169.188C143.312 175.75 137.562 180.062 129.312 180.062C121.031 180.062 115.188 175.75 115.188 169.188ZM120.688 199.75V183.125H128.625V193.375H159.625V199.75H120.688ZM123 169.188C122.969 172.312 125.5 174 129.312 174C133.156 174 135.75 172.312 135.75 169.188C135.75 166.031 133.156 164.281 129.312 164.25C125.5 164.281 122.969 166.031 123 169.188ZM230.438 143.875V172.5H222.5V168.125H209.5V162.062H222.5V157.062H210.125C206.594 165.594 198.469 171.062 185.875 173.812L183.188 167.312C196.219 164.75 202.219 159.344 203.281 152.5H186.375V146.062H212.125C212.125 147.781 212 149.438 211.75 151H222.5V143.875H230.438ZM192.625 180.812V174.562H230.438V190.125H200.688V193.875H231.688V200.188H192.688V184.25H222.438V180.812H192.625ZM287 143.875V200.75H279.438V143.875H287ZM236.625 184.125C245 178.969 248.125 168.781 248.125 159.125V156.062H238.812V149.688H264.438V156.062H255.812V159.125C255.781 168.562 258.75 178.125 267.062 182.875L262.375 188.75C257.281 185.75 253.969 180.688 252.031 174.562C250.094 181.188 246.656 186.812 241.438 190L236.625 184.125ZM260.375 169.812V163.375H267.875V144.812H275.375V198.125H267.875V169.812H260.375ZM334.375 178.688C346.219 178.688 353.531 182.75 353.562 189.688C353.531 196.719 346.219 200.812 334.375 200.812C322.344 200.812 314.844 196.719 314.875 189.688C314.844 182.75 322.344 178.688 334.375 178.688ZM309.562 174.188V147.438H317.5V154.625H329.125V147.438H337.125V174.188H309.562ZM317.5 167.875H329.125V160.812H317.5V167.875ZM322.875 189.688C322.812 192.938 326.906 194.625 334.375 194.625C341.75 194.625 345.688 192.938 345.688 189.688C345.688 186.438 341.75 184.906 334.375 184.875C326.906 184.906 322.812 186.438 322.875 189.688ZM345 177.438V143.875H353V157.062H360.688V163.75H353V177.438H345ZM373.625 146.75V154.062H384.812V146.75H392.688V156.875H403.188V143.875H411.125V175H403.188V163.375H392.688V173.375H365.625V146.75H373.625ZM373.188 200V177.375H381.062V182.625H403.188V177.375H411.125V200H373.188ZM373.625 167H384.812V160.188H373.625V167ZM381.062 193.625H403.188V188.75H381.062V193.625ZM450.5 149.562V154.125C450.438 159.469 450.438 166.469 448.938 175.938L441.062 175.312C442.375 167.062 442.5 160.969 442.562 155.938H421V149.562H450.5ZM418 182.75C421.188 182.75 424.75 182.719 428.438 182.625V165.875H436.312V182.375C441.906 182.156 447.562 181.75 452.812 181.062L453.312 187C441.594 188.969 428.719 189.188 418.75 189.125L418 182.75ZM455.5 200.75V143.875H463.562V166.75H471.312V173.375H463.562V200.75H455.5ZM135.719 235.125V241.438H119.719V246.062H141.719V252.375H89.6562V246.062H111.719V241.438H96.1562V224.562H104.094V235.125H135.719ZM95.5938 261.625V255.5H135.469V270.375H103.719V274H137.219V280.125H95.7188V264.812H127.531V261.625H95.5938ZM189.906 223.875V245.375H198.281V251.938H189.906V280.875H182.031V223.875H189.906ZM147.344 235.062V228.625H173.656V250.688H155.344V261C163.625 260.969 170.469 260.594 178.031 259.312L178.719 265.688C170.031 267.281 162.219 267.625 152.219 267.625H147.406V244.375H165.719V235.062H147.344ZM252.344 251.562V257.938H230.781V267.812H222.719V257.938H200.281V251.562H252.344ZM205.656 236.75C205.656 229.531 213.906 225 226.281 224.938C238.594 225 246.812 229.531 246.844 236.75C246.812 244 238.594 248.5 226.281 248.5C213.906 248.5 205.656 244 205.656 236.75ZM206.469 279.75V262.75H214.531V273.312H246.594V279.75H206.469ZM214.281 236.75C214.25 240.219 218.938 242.094 226.281 242.125C233.625 242.094 238.281 240.219 238.281 236.75C238.281 233.125 233.625 231.25 226.281 231.25C218.938 231.25 214.25 233.125 214.281 236.75ZM319.719 223.875V280.75H312.094V223.875H319.719ZM270.344 238.812V232.5H279.969V225.25H287.906V232.5H297.406V238.812H270.344ZM271.594 255.125C271.562 247.062 276.75 241.438 283.719 241.438C290.844 241.438 295.969 247.062 295.969 255.125V255.562H301.031V248.75H294.781V242.25H301.031V224.812H308.469V278.25H301.031V261.812H294.594C292.594 266.125 288.625 268.812 283.719 268.812C276.75 268.812 271.562 263.188 271.594 255.125ZM278.531 255.125C278.5 259.5 280.594 262.031 283.719 262.062C286.906 262.031 289.062 259.5 289.094 255.125C289.062 250.656 286.906 248.188 283.719 248.188C280.594 248.188 278.5 250.656 278.531 255.125ZM350.219 227.688V234.062H335.344V238.75H349.656V244.812H335.344V249.844C341.656 249.781 346.312 249.531 351.594 248.625L352.406 255C345.75 256.188 340.188 256.406 331.594 256.375H327.719V227.688H350.219ZM335.281 267.375V261H374.594V280.75H366.656V267.375H335.281ZM354.656 258.188V224.938H362.094V237.812H367.031V223.938H374.594V258.625H367.031V244.188H362.094V258.188H354.656ZM393.969 229.75L393.156 261.438H385.156L384.344 229.75H393.969ZM383.969 270.312C383.906 267.438 386.281 265.094 389.219 265.125C392 265.094 394.406 267.438 394.406 270.312C394.406 273.219 392 275.562 389.219 275.562C386.281 275.562 383.906 273.219 383.969 270.312Z" fill="#001FFE"/>
<path d="M29.7734 315.852V334.418H27.1758V332.066H22.2539V330.234H27.1758V315.852H29.7734ZM9.29297 327.035C13.8184 326.994 19.9297 326.953 25.1523 326.297L25.3164 328.156C23.2246 328.512 21.0234 328.73 18.8633 328.881V333.652H16.2656V329.018C13.8867 329.113 11.6035 329.113 9.62109 329.113L9.29297 327.035ZM11.207 321.102C11.1934 318.504 13.668 316.781 17.3047 316.781C20.8867 316.781 23.375 318.504 23.375 321.102C23.375 323.713 20.8867 325.367 17.3047 325.367C13.6816 325.367 11.1934 323.713 11.207 321.102ZM12.6836 339.805V332.613H15.2539V337.699H30.375V339.805H12.6836ZM13.668 321.102C13.6543 322.551 15.1309 323.453 17.3047 323.453C19.3965 323.453 20.9004 322.551 20.9141 321.102C20.9004 319.639 19.3965 318.695 17.3047 318.723C15.1309 318.695 13.6543 319.639 13.668 321.102ZM52.6875 315.824V325.75H56.625V327.91H52.6875V340.324H50.1172V315.824H52.6875ZM33.4648 321.785V319.652H39.5078V316.152H42.1055V319.652H47.9844V321.785H33.4648ZM34.7227 329.277C34.7227 325.941 37.293 323.59 40.8203 323.59C44.334 323.59 46.9043 325.941 46.918 329.277C46.9043 332.641 44.334 334.979 40.8203 334.992C37.293 334.979 34.7227 332.641 34.7227 329.277ZM37.2109 329.277C37.1973 331.41 38.7285 332.832 40.8203 332.805C42.8984 332.832 44.416 331.41 44.4297 329.277C44.416 327.186 42.8984 325.736 40.8203 325.723C38.7285 325.736 37.1973 327.186 37.2109 329.277ZM77.625 322.988V325.066H60.7539V316.699H63.3242V322.988H77.625ZM57.7734 330.234V328.156H80.1953V330.234H57.7734ZM60.5625 339.75V332.559H63.1602V337.617H77.7891V339.75H60.5625ZM109.863 315.824V340.324H107.375V327.664H104.203V339.066H101.824V316.316H104.203V325.531H107.375V315.824H109.863ZM89.6562 334.445V318.777H98.8438V320.883H92.2539V332.23C95.2617 332.217 97.5312 332.08 100.156 331.574L100.348 333.707C97.4082 334.322 94.8652 334.418 91.2969 334.445H89.6562ZM135.457 335.211V337.398H113.035V335.211H122.906V330.918H115.77V323.125H130.152V319.68H115.715V317.547H132.723V325.203H118.34V328.785H133.297V330.918H125.477V335.211H135.457ZM152.711 320.309C152.725 323.631 154.926 326.83 158.617 328.129L157.195 330.152C154.529 329.127 152.52 327.104 151.467 324.574C150.414 327.391 148.322 329.619 145.438 330.727L144.043 328.676C147.857 327.322 150.127 323.918 150.141 320.227V317.328H152.711V320.309ZM148.5 339.805V332.066H151.125V337.699H165.043V339.805H148.5ZM156.73 323.562V321.43H161.898V315.852H164.496V334.117H161.898V323.562H156.73ZM178.852 317.574V319.68H171.77V322.414H178.578V324.41H171.77V327.391C175.051 327.363 177.197 327.24 179.727 326.762L179.973 328.895C177.102 329.428 174.764 329.537 170.867 329.523H169.281V317.574H178.852ZM172.508 334.008V331.902H189.16V340.324H186.59V334.008H172.508ZM181.258 330.535V316.289H183.691V322.086H186.699V315.852H189.16V330.727H186.699V324.191H183.691V330.535H181.258ZM211.555 315.824V325.75H215.492V327.91H211.555V340.324H208.984V315.824H211.555ZM192.332 321.785V319.652H198.375V316.152H200.973V319.652H206.852V321.785H192.332ZM193.59 329.277C193.59 325.941 196.16 323.59 199.688 323.59C203.201 323.59 205.771 325.941 205.785 329.277C205.771 332.641 203.201 334.979 199.688 334.992C196.16 334.979 193.59 332.641 193.59 329.277ZM196.078 329.277C196.064 331.41 197.596 332.832 199.688 332.805C201.766 332.832 203.283 331.41 203.297 329.277C203.283 327.186 201.766 325.736 199.688 325.723C197.596 325.736 196.064 327.186 196.078 329.277ZM236.492 318.176V320.582C236.479 323.604 236.479 326.994 235.562 332.012L232.938 331.738C233.881 326.994 233.881 323.521 233.895 320.582V320.281H219.02V318.176H236.492ZM216.668 337.016V334.855H225.172V326.215H227.742V334.855H239.008V337.016H216.668ZM428.91 326.105V328.184H406.57V326.105H428.91ZM407.719 323.043C412.189 322.715 415.703 320.951 416.168 318.805H408.621V316.727H426.914V318.805H419.285C419.75 320.951 423.277 322.715 427.789 323.043L426.941 325.066C422.73 324.684 419.203 323.166 417.727 320.842C416.25 323.152 412.75 324.684 408.539 325.066L407.719 323.043ZM409.25 332.094V330.152H426.094V335.922H411.82V338.082H426.777V340.078H409.277V334.035H423.523V332.094H409.25ZM451.141 315.824V340.324H448.516V315.824H451.141ZM431.016 333.762C437.523 330.658 440.709 326.242 441.215 320.527H432.191V318.449H443.84C443.84 325.627 440.791 331.834 432.383 335.867L431.016 333.762ZM475.34 315.824V340.324H472.715V315.824H475.34ZM455.215 333.762C461.723 330.658 464.908 326.242 465.414 320.527H456.391V318.449H468.039C468.039 325.627 464.99 331.834 456.582 335.867L455.215 333.762Z" fill="#767676"/>
<path d="M268.785 315.824V340.324H266.297V327.555H263.262V339.121H260.801V316.289H263.262V325.422H266.297V315.824H268.785ZM248.523 333.871V318.586H258.039V333.871H248.523ZM250.984 331.793H255.605V320.637H250.984V331.793ZM283.578 317.301V324.438H275.484V327.828C279.75 327.828 282.074 327.732 284.836 327.227L285.082 329.332C282.088 329.838 279.572 329.92 274.691 329.934H272.914V322.469H280.98V319.379H272.887V317.301H283.578ZM275.703 334.254V332.148H292.328V340.352H289.73V334.254H275.703ZM285.137 326.598V324.52H289.73V321.484H285.137V319.406H289.73V315.852H292.328V330.918H289.73V326.598H285.137ZM304.879 320.172C304.865 323.262 307.08 326.283 310.785 327.555L309.445 329.578C306.697 328.635 304.66 326.666 303.594 324.246C302.527 326.939 300.381 329.1 297.469 330.125L296.129 328.074C299.889 326.789 302.24 323.521 302.227 320.199V319.516H296.922V317.41H310.129V319.516H304.879V320.172ZM299.93 333.816V331.711H316.527V340.324H313.93V333.816H299.93ZM309.391 324.191V322.059H313.93V315.824H316.527V330.48H313.93V324.191H309.391ZM340.617 315.852V333.652H338.02V315.852H340.617ZM320.793 323.562C320.807 320.021 323.623 317.506 327.328 317.492C331.02 317.506 333.836 320.021 333.836 323.562C333.836 327.158 331.02 329.66 327.328 329.66C323.623 329.66 320.807 327.158 320.793 323.562ZM323.336 323.562C323.322 325.873 325.045 327.391 327.328 327.391C329.57 327.391 331.293 325.873 331.293 323.562C331.293 321.307 329.57 319.762 327.328 319.762C325.045 319.762 323.322 321.307 323.336 323.562ZM324.594 339.805V331.848H327.219V337.699H341.355V339.805H324.594ZM372.418 315.824V340.324H369.93V315.824H372.418ZM351.281 321.977V319.871H356.012V316.453H358.609V319.871H363.312V321.977H351.281ZM352.074 329.195C352.061 325.805 354.262 323.467 357.242 323.453C360.291 323.467 362.465 325.805 362.465 329.195C362.465 329.346 362.465 329.482 362.451 329.633H365.309V326.133H362.109V324H365.309V316.316H367.715V339.148H365.309V331.711H362C361.207 333.68 359.457 334.924 357.242 334.938C354.262 334.924 352.061 332.572 352.074 329.195ZM354.344 329.195C354.33 331.301 355.547 332.709 357.242 332.695C358.979 332.709 360.195 331.301 360.223 329.195C360.195 327.062 358.979 325.682 357.242 325.668C355.547 325.682 354.33 327.062 354.344 329.195ZM386.117 317.574V319.68H379.035V322.414H385.844V324.41H379.035V327.391C382.316 327.363 384.463 327.24 386.992 326.762L387.238 328.895C384.367 329.428 382.029 329.537 378.133 329.523H376.547V317.574H386.117ZM379.773 334.008V331.902H396.426V340.324H393.855V334.008H379.773ZM388.523 330.535V316.289H390.957V322.086H393.965V315.852H396.426V330.727H393.965V324.191H390.957V330.535H388.523Z" fill="black"/>
<rect x="236.7" y="53.4019" width="38.7685" height="27.6817" transform="rotate(-82.7907 236.7 53.4019)" fill="#4C5EF0" stroke="black" stroke-linejoin="round"/>
<rect x="255.28" y="55.7441" width="38.7544" height="6" transform="rotate(-82.79 255.28 55.7441)" fill="black"/>
<rect width="39.4946" height="28.3238" transform="matrix(-0.110314 -0.993897 0.996022 -0.0891132 223.356 49.7773)" fill="#FFD945" stroke="black" stroke-linejoin="round"/>
<rect width="8.93828" height="7.08096" transform="matrix(-0.110314 -0.993897 0.996022 -0.0891132 229.829 22.5161)" stroke="black" stroke-linejoin="round"/>
<line y1="-0.5" x2="30.0242" y2="-0.5" transform="matrix(-0.110314 -0.993897 0.996022 -0.0891132 243.909 42.4219)" stroke="black" stroke-linejoin="round"/>
<line y1="-0.5" x2="2.00125" y2="-0.5" transform="matrix(-0.110314 -0.993897 0.996022 -0.0891132 238.032 42.9478)" stroke="black" stroke-linejoin="round"/>
<line y1="-0.5" x2="2.00125" y2="-0.5" transform="matrix(-0.110314 -0.993897 0.996022 -0.0891132 237.701 39.9634)" stroke="black" stroke-linejoin="round"/>
<line y1="-0.5" x2="2.00125" y2="-0.5" transform="matrix(-0.110314 -0.993897 0.996022 -0.0891132 237.369 36.9795)" stroke="black" stroke-linejoin="round"/>
</svg>
