<svg width="672" height="764" viewBox="0 0 672 764" fill="none" xmlns="http://www.w3.org/2000/svg">
<path d="M1 37C1 30.3726 6.37258 25 13 25H659C665.627 25 671 30.3726 671 37V751C671 757.627 665.627 763 659 763H13C6.37257 763 1 757.627 1 751V37Z" fill="#2DC88F"/>
<path d="M1.5 37C1.5 30.6487 6.64872 25.5 13 25.5V24.5C6.09644 24.5 0.5 30.0964 0.5 37H1.5ZM13 25.5H659V24.5H13V25.5ZM659 25.5C665.351 25.5 670.5 30.6487 670.5 37H671.5C671.5 30.0964 665.904 24.5 659 24.5V25.5ZM670.5 37V751H671.5V37H670.5ZM670.5 751C670.5 757.351 665.351 762.5 659 762.5V763.5C665.904 763.5 671.5 757.904 671.5 751H670.5ZM659 762.5H13V763.5H659V762.5ZM13 762.5C6.64871 762.5 1.5 757.351 1.5 751H0.5C0.5 757.904 6.09642 763.5 13 763.5V762.5ZM1.5 751V37H0.5V751H1.5Z" fill="black"/>
<rect x="266" y="1" width="139" height="48" rx="24" fill="#FFD945"/>
<path d="M307.195 22.3984C306.562 20.3945 305.027 19.1523 302.789 19.1641C299.93 19.1523 297.738 21.4023 297.727 25.5156C297.738 29.6172 299.906 31.8789 302.906 31.8672C305.613 31.8789 307.406 30.1562 307.453 27.4375H303.281V25.3047H309.961V27.2266C309.961 31.5273 307.008 34.2344 302.883 34.2344C298.289 34.2344 295.172 30.8945 295.172 25.5156C295.172 20.1016 298.383 16.7969 302.766 16.7969C306.434 16.7969 309.27 19.082 309.844 22.3984H307.195ZM315.516 17.0312V34H312.938V17.0312H315.516ZM318.961 34V17.0312H329.484V19.2578H321.539V24.3906H328.734V26.5938H321.539V34H318.961ZM331.523 19.2578V17.0312H344.672V19.2578H339.398V34H336.82V19.2578H331.523ZM358.828 34.2344C354.902 34.2344 352.594 31.0703 352.594 25.5156C352.594 19.9961 354.926 16.7969 358.828 16.7969C362.719 16.7969 365.051 19.9961 365.062 25.5156C365.051 31.0703 362.754 34.2344 358.828 34.2344ZM355.172 25.5156C355.16 29.7461 356.531 32.0078 358.828 32.0078C361.113 32.0078 362.484 29.7461 362.484 25.5156C362.484 21.2969 361.102 18.9883 358.828 18.9766C356.543 18.9883 355.172 21.2969 355.172 25.5156ZM374.18 17.0312V34H371.578V19.6094H371.484L367.43 22.2578V19.7969L371.648 17.0312H374.18Z" fill="black"/>
<rect x="266" y="1" width="139" height="48" rx="24" stroke="black"/>
<path d="M84.7734 109.492C89.0977 109.492 92.332 113.043 92.9648 118.809H98.5195V107.242H102.949V139.305H98.5195V122.395H93.0176C92.543 128.547 89.2383 132.309 84.7734 132.309C79.9219 132.309 76.4414 127.914 76.4766 120.883C76.4414 113.904 79.9219 109.492 84.7734 109.492ZM80.7656 120.883C80.748 125.646 82.3828 128.248 84.7734 128.23C87.1816 128.248 88.7812 125.646 88.7812 120.883C88.7812 116.137 87.1816 113.535 84.7734 113.535C82.3828 113.535 80.748 116.137 80.7656 120.883ZM133.148 122.043V125.629H110.508V109.914H132.902V113.535H114.938V122.043H133.148ZM107.062 135.332V131.641H136.348V135.332H107.062ZM165.668 107.242V131.43H161.414V107.242H165.668ZM139.301 125.875V109.703H143.555V114.59H147.914V109.703H152.062V116.102H154.945V107.734H159.164V130.41H154.945V119.688H152.062V125.875H139.301ZM143.555 122.254H147.914V118H143.555V122.254ZM143.977 138.672V128.23H148.477V135.086H166.477V138.672H143.977ZM195.375 123.766V127.316H172.734V109.598H195.129V113.219H177.305V116.594H194.391V120.109H177.305V123.766H195.375ZM169.289 135.508V131.852H198.574V135.508H169.289ZM222.902 109C222.885 116.963 219.246 122.219 210.668 125.348L208.699 122.289C212.145 121.059 214.553 119.547 216.135 117.736L209.402 118.492L208.875 114.941L218.016 114.484C218.227 113.869 218.367 113.236 218.473 112.586H210.211V109H222.902ZM214.289 128.336V124.855H236.191V133.398H218.789V135.438H237.281V138.883H214.324V130.164H231.762V128.336H214.289ZM224.836 123.555V107.84H229.055V113.852H231.938V107.277H236.191V123.73H231.938V117.473H229.055V123.555H224.836ZM266.566 107.277V130.832H262.102V107.277H266.566ZM241.465 112.938V109.352H256.301V119.547H245.895V123.098C251.625 123.08 255.246 122.904 259.395 122.113L259.887 125.699C255.229 126.578 251.08 126.754 244.312 126.754H241.5V116.242H251.836V112.938H241.465ZM245.051 138.672V128.863H249.516V135.086H267.41V138.672H245.051ZM287.027 110.055V113.711H276.973V127.914C281.631 127.861 284.988 127.65 288.75 126.965L289.207 130.586C284.812 131.43 280.945 131.605 275.039 131.57H272.438V110.055H287.027ZM285.445 121.973V118.316H293.496V107.242H297.961V139.305H293.496V121.973H285.445ZM331.289 121.586V124.926H302.004V121.586H331.289ZM305.344 129.602V126.508H327.773V134.066H309.844V135.895H328.723V138.953H305.379V131.219H323.344V129.602H305.344ZM305.59 110.863V107.805H327.738V115.328H310.125V117.051H328.301V120.074H305.66V112.48H323.238V110.863H305.59ZM342.082 131.5V127.316L352.84 110.547H359.484V127.246H362.719V131.5H359.484V136H354.457V131.5H342.082ZM347.426 127.246H354.527V116.348H354.281L347.426 127.035V127.246ZM371.332 133.398L368.309 143.418H364.582L366.34 133.398H371.332ZM384.797 110.195C390.07 110.213 395.062 113.359 395.062 122.605C395.08 131.254 390.984 136.352 384.586 136.352C379.471 136.352 375.955 133.135 375.445 128.828H380.648C381.088 130.709 382.547 131.816 384.586 131.816C388.049 131.816 389.877 128.705 389.895 123.625H389.684C388.488 125.875 385.975 127.211 383.145 127.211C378.574 127.211 375.199 123.766 375.164 119.02C375.164 113.904 379.049 110.178 384.797 110.195ZM380.332 118.879C380.332 121.393 382.178 123.344 384.797 123.344C387.381 123.344 389.367 121.287 389.367 118.844C389.332 116.418 387.434 114.361 384.832 114.344C382.23 114.361 380.297 116.348 380.332 118.879ZM408.527 136.352C402.146 136.352 398.297 131.605 398.297 123.273C398.297 114.959 402.182 110.195 408.527 110.195C414.873 110.195 418.758 114.959 418.758 123.273C418.758 131.641 414.891 136.352 408.527 136.352ZM403.711 123.273C403.676 129.145 405.574 131.992 408.527 131.992C411.48 131.992 413.361 129.145 413.344 123.273C413.361 117.455 411.463 114.537 408.527 114.52C405.592 114.537 403.711 117.455 403.711 123.273ZM432.293 136.352C425.912 136.352 422.062 131.605 422.062 123.273C422.062 114.959 425.947 110.195 432.293 110.195C438.639 110.195 442.523 114.959 442.523 123.273C442.523 131.641 438.656 136.352 432.293 136.352ZM427.477 123.273C427.441 129.145 429.34 131.992 432.293 131.992C435.246 131.992 437.127 129.145 437.109 123.273C437.127 117.455 435.229 114.537 432.293 114.52C429.357 114.537 427.477 117.455 427.477 123.273ZM472.23 107.277V131.43H467.73V128.898H461.613V125.84H467.73V107.277H472.23ZM445.02 121.445C450.873 121.41 458.783 121.322 465.551 120.496L465.797 123.695C463.266 124.117 460.646 124.416 458.062 124.609V130.691H453.562V135.086H472.934V138.672H449.098V129.109H453.562V124.873C450.697 124.979 447.973 124.996 445.547 124.996L445.02 121.445ZM447.375 114.098C447.375 110.688 450.662 108.35 455.426 108.367C460.066 108.35 463.389 110.688 463.406 114.098C463.389 117.525 460.066 119.74 455.426 119.723C450.662 119.74 447.375 117.525 447.375 114.098ZM451.629 114.098C451.611 115.645 453.141 116.506 455.426 116.488C457.57 116.506 459.117 115.645 459.152 114.098C459.117 112.516 457.57 111.637 455.426 111.637C453.141 111.637 451.611 112.516 451.629 114.098ZM503.977 107.242V139.234H499.688V107.242H503.977ZM476.52 121.094C476.52 113.939 479.244 109.51 483.48 109.527C487.33 109.51 489.967 113.113 490.459 119.09H493.078V107.699H497.297V137.758H493.078V122.641H490.494C490.107 128.916 487.418 132.73 483.48 132.73C479.244 132.73 476.52 128.283 476.52 121.094ZM480.668 121.094C480.633 126.016 481.688 128.441 483.48 128.406C485.326 128.441 486.416 126.016 486.398 121.094C486.416 116.189 485.326 113.746 483.48 113.746C481.688 113.746 480.633 116.189 480.668 121.094ZM533.754 118.738C533.033 116.348 531.117 114.889 528.34 114.871C524.402 114.889 521.73 117.895 521.73 123.238C521.73 128.617 524.314 131.658 528.375 131.676C532.014 131.658 534.176 129.602 534.246 126.402H528.727V122.43H539.344V125.594C539.344 132.273 534.756 136.352 528.34 136.352C521.203 136.352 516.352 131.359 516.352 123.309C516.352 115.047 521.52 110.195 528.234 110.195C533.982 110.195 538.395 113.729 539.098 118.738H533.754ZM543.211 136V110.547H560.297V114.906H548.484V121.094H559.418V125.453H548.484V131.641H560.332V136H543.211ZM563.426 114.906V110.547H584.273V114.906H576.469V136H571.23V114.906H563.426ZM593.625 110.547L593.168 128.371H588.668L588.211 110.547H593.625ZM588 133.363C587.965 131.746 589.301 130.428 590.953 130.445C592.518 130.428 593.871 131.746 593.871 133.363C593.871 134.998 592.518 136.316 590.953 136.316C589.301 136.316 587.965 134.998 588 133.363Z" fill="black"/>
<path d="M175.289 191.234C172.078 191.234 169.664 189.277 169.547 186.57H172.055C172.195 188.012 173.578 189.066 175.289 189.078C177.352 189.066 178.828 187.578 178.828 185.562C178.828 183.5 177.305 182 175.172 181.977C173.812 181.977 172.77 182.434 172.195 183.477H169.758L170.859 174.031H180.469V176.234H172.992L172.43 180.992H172.594C173.297 180.312 174.492 179.855 175.781 179.844C178.98 179.855 181.336 182.223 181.336 185.492C181.336 188.832 178.828 191.234 175.289 191.234ZM193.992 173.844V183.641H184.172V173.844H193.992ZM186.352 181.883H191.812V175.648H186.352V181.883ZM186.539 192.547V185.891H188.766V190.742H200.742V192.547H186.539ZM197.625 187.367V171.969H199.852V178.25H202.898V180.125H199.852V187.367H197.625ZM221.555 172.016V187.93H219.328V185.914H215.109V184.344H219.328V172.016H221.555ZM204 181.602C207.879 181.566 213.117 181.531 217.594 180.969L217.734 182.562C215.941 182.867 214.055 183.055 212.203 183.184V187.273H209.977V183.301C207.938 183.383 205.98 183.383 204.281 183.383L204 181.602ZM205.641 176.516C205.629 174.289 207.75 172.812 210.867 172.812C213.938 172.812 216.07 174.289 216.07 176.516C216.07 178.754 213.938 180.172 210.867 180.172C207.762 180.172 205.629 178.754 205.641 176.516ZM206.906 192.547V186.383H209.109V190.742H222.07V192.547H206.906ZM207.75 176.516C207.738 177.758 209.004 178.531 210.867 178.531C212.66 178.531 213.949 177.758 213.961 176.516C213.949 175.262 212.66 174.453 210.867 174.477C209.004 174.453 207.738 175.262 207.75 176.516ZM248.086 171.992V193.039H245.859V171.992H248.086ZM231.422 180.922C231.422 176.434 233.684 173.574 236.859 173.562C239.977 173.574 242.273 176.434 242.273 180.922C242.273 185.457 239.977 188.316 236.859 188.305C233.684 188.316 231.422 185.457 231.422 180.922ZM233.578 180.922C233.566 184.262 234.902 186.312 236.859 186.312C238.781 186.312 240.117 184.262 240.117 180.922C240.117 177.629 238.781 175.566 236.859 175.555C234.902 175.566 233.566 177.629 233.578 180.922ZM258.68 175.344C258.668 178.098 260.613 180.664 263.742 181.695L262.547 183.453C260.25 182.645 258.527 181.004 257.613 178.93C256.699 181.285 254.918 183.137 252.469 184.039L251.273 182.258C254.555 181.098 256.453 178.297 256.477 175.156V173.094H258.68V175.344ZM254.109 189.055C254.109 186.594 256.793 185.152 261.164 185.164C265.477 185.152 268.125 186.594 268.125 189.055C268.125 191.539 265.477 192.957 261.164 192.945C256.793 192.957 254.109 191.539 254.109 189.055ZM256.336 189.055C256.324 190.438 258.129 191.188 261.164 191.211C264.176 191.188 265.957 190.438 265.945 189.055C265.957 187.719 264.176 186.922 261.164 186.922C258.129 186.922 256.324 187.719 256.336 189.055ZM265.711 184.672V171.992H267.938V177.266H270.984V179.141H267.938V184.672H265.711ZM294.75 173.305V175.156C294.75 177.148 294.75 179.316 294.164 182.305H297.188V184.133H288.68V193.016H286.43V184.133H278.039V182.305H291.914C292.535 179.305 292.535 177.113 292.547 175.156V175.133H280.383V173.305H294.75ZM316.852 171.992V192.992H314.719V182.047H312.117V191.961H310.008V172.391H312.117V180.219H314.719V171.992H316.852ZM299.484 187.461V174.359H307.641V187.461H299.484ZM301.594 185.68H305.555V176.117H301.594V185.68ZM333.094 177.336C333.07 181.168 335.391 185.035 338.648 186.477L337.312 188.234C334.898 187.086 332.988 184.73 332.004 181.859C331.031 184.941 329.098 187.473 326.578 188.703L325.219 186.828C328.523 185.363 330.844 181.344 330.844 177.336V173.75H333.094V177.336ZM340.547 193.039V171.992H342.773V193.039H340.547ZM369.492 171.992V184.484H367.266V179.164H363.352V177.336H367.266V171.992H369.492ZM351.984 182.586C355.242 181.449 357.246 178.613 357.234 175.719V175.25H352.688V173.445H364.008V175.25H359.508V175.695C359.496 178.355 361.395 180.945 364.57 182.023L363.422 183.781C361.066 182.973 359.332 181.285 358.418 179.211C357.504 181.555 355.664 183.441 353.156 184.367L351.984 182.586ZM355.359 189.031C355.348 186.535 358.043 185.082 362.461 185.07C366.855 185.082 369.551 186.535 369.562 189.031C369.551 191.527 366.855 192.98 362.461 192.992C358.043 192.98 355.348 191.527 355.359 189.031ZM357.562 189.031C357.551 190.449 359.379 191.258 362.461 191.234C365.52 191.258 367.348 190.449 367.359 189.031C367.348 187.602 365.52 186.793 362.461 186.805C359.379 186.793 357.551 187.602 357.562 189.031ZM389.086 171.992V180.359H392.344V182.211H389.086V192.969H386.859V171.992H389.086ZM372.75 187.367C378.012 184.742 380.871 180.945 381.328 176.047H373.805V174.195H383.602C383.578 180.266 380.906 185.691 373.992 189.102L372.75 187.367ZM400.055 191V189.125L405.938 183.195C407.801 181.262 408.727 180.184 408.727 178.695C408.727 177.02 407.367 175.953 405.586 175.953C403.699 175.953 402.504 177.148 402.492 178.953H400.055C400.031 175.848 402.398 173.797 405.633 173.797C408.902 173.797 411.164 175.871 411.188 178.625C411.164 180.523 410.273 182.035 407.086 185.164L403.641 188.656V188.797H411.469V191H400.055ZM420.164 173.797C423.281 173.82 426.551 175.695 426.562 181.906C426.562 187.859 423.996 191.234 419.93 191.234C416.801 191.234 414.621 189.301 414.211 186.547H416.766C417.117 187.977 418.219 188.973 419.93 188.984C422.543 188.973 424.078 186.699 424.102 182.82H423.891C422.977 184.25 421.383 185.117 419.555 185.117C416.508 185.117 414.07 182.785 414.07 179.539C414.07 176.305 416.473 173.773 420.164 173.797ZM416.578 179.492C416.59 181.461 418.055 183.02 420.117 183.008C422.168 183.02 423.75 181.344 423.75 179.469C423.75 177.629 422.238 175.953 420.164 175.953C418.113 175.953 416.566 177.547 416.578 179.492ZM431.695 189.383L429.82 195.852H427.828L429.07 189.383H431.695ZM440.344 191.234C436.418 191.234 434.109 188.07 434.109 182.516C434.109 176.996 436.441 173.797 440.344 173.797C444.234 173.797 446.566 176.996 446.578 182.516C446.566 188.07 444.27 191.234 440.344 191.234ZM436.688 182.516C436.676 186.746 438.047 189.008 440.344 189.008C442.629 189.008 444 186.746 444 182.516C444 178.297 442.617 175.988 440.344 175.977C438.059 175.988 436.688 178.297 436.688 182.516ZM455.156 191.234C451.23 191.234 448.922 188.07 448.922 182.516C448.922 176.996 451.254 173.797 455.156 173.797C459.047 173.797 461.379 176.996 461.391 182.516C461.379 188.07 459.082 191.234 455.156 191.234ZM451.5 182.516C451.488 186.746 452.859 189.008 455.156 189.008C457.441 189.008 458.812 186.746 458.812 182.516C458.812 178.297 457.43 175.988 455.156 175.977C452.871 175.988 451.5 178.297 451.5 182.516ZM469.969 191.234C466.043 191.234 463.734 188.07 463.734 182.516C463.734 176.996 466.066 173.797 469.969 173.797C473.859 173.797 476.191 176.996 476.203 182.516C476.191 188.07 473.895 191.234 469.969 191.234ZM466.312 182.516C466.301 186.746 467.672 189.008 469.969 189.008C472.254 189.008 473.625 186.746 473.625 182.516C473.625 178.297 472.242 175.988 469.969 175.977C467.684 175.988 466.312 178.297 466.312 182.516ZM495.609 172.016V187.93H493.383V185.914H489.164V184.344H493.383V172.016H495.609ZM478.055 181.602C481.934 181.566 487.172 181.531 491.648 180.969L491.789 182.562C489.996 182.867 488.109 183.055 486.258 183.184V187.273H484.031V183.301C481.992 183.383 480.035 183.383 478.336 183.383L478.055 181.602ZM479.695 176.516C479.684 174.289 481.805 172.812 484.922 172.812C487.992 172.812 490.125 174.289 490.125 176.516C490.125 178.754 487.992 180.172 484.922 180.172C481.816 180.172 479.684 178.754 479.695 176.516ZM480.961 192.547V186.383H483.164V190.742H496.125V192.547H480.961ZM481.805 176.516C481.793 177.758 483.059 178.531 484.922 178.531C486.715 178.531 488.004 177.758 488.016 176.516C488.004 175.262 486.715 174.453 484.922 174.477C483.059 174.453 481.793 175.262 481.805 176.516ZM106.863 211.562C109.723 211.574 111.797 213.988 112.137 217.867H116.473V209.992H118.676V231.039H116.473V219.672H112.16C111.914 223.773 109.793 226.316 106.863 226.305C103.734 226.316 101.52 223.457 101.543 218.922C101.52 214.434 103.734 211.574 106.863 211.562ZM103.652 218.922C103.664 222.262 104.965 224.312 106.863 224.312C108.762 224.312 110.062 222.262 110.074 218.922C110.062 215.629 108.762 213.566 106.863 213.555C104.965 213.566 103.664 215.629 103.652 218.922ZM138.926 219.953V221.781H124.301V211.867H138.738V213.695H126.504V219.953H138.926ZM121.91 228.227V226.375H141.129V228.227H121.91ZM160.559 209.992V225.93H158.449V209.992H160.559ZM143.543 222.039V211.656H145.652V215.102H149.707V211.656H151.77V215.992H154.348V210.367H156.457V225.273H154.348V217.797H151.77V222.039H143.543ZM145.652 220.234H149.707V216.812H145.652V220.234ZM146.637 230.547V223.773H148.84V228.742H161.168V230.547H146.637ZM180.434 221.172V222.953H165.809V211.727H180.223V213.531H168.059V216.367H179.777V218.125H168.059V221.172H180.434ZM163.395 228.344V226.516H182.613V228.344H163.395ZM199.371 211.188C199.359 216.203 196.84 219.801 191.191 221.898L190.207 220.328C192.938 219.344 194.789 218.043 195.902 216.426L190.465 217.023L190.137 215.219L196.734 214.82C196.945 214.234 197.086 213.625 197.156 212.992H191.098V211.188H199.371ZM193.816 223.609V221.852H207.902V226.984H196.066V228.977H208.699V230.734H193.863V225.344H205.723V223.609H193.816ZM201.152 220.82V210.391H203.262V214.656H205.793V210.016H207.902V220.961H205.793V216.484H203.262V220.82H201.152ZM228.129 210.016V225.461H225.926V210.016H228.129ZM211.793 213.25V211.469H221.449V217.727H214.02V220.75C217.875 220.727 220.512 220.609 223.629 220.047L223.863 221.875C220.559 222.449 217.77 222.566 213.598 222.578H211.84V216.039H219.246V213.25H211.793ZM214.254 230.547V224.242H216.48V228.742H228.715V230.547H214.254ZM242.145 211.938V213.789H234.762V224.031C238.289 224.008 240.691 223.879 243.457 223.352L243.715 225.18C240.691 225.754 238.137 225.883 234.176 225.883H232.512V211.938H242.145ZM240.949 219.344V217.492H246.785V209.992H249.012V231.039H246.785V219.344H240.949ZM271.418 219.625V221.336H252.199V219.625H271.418ZM254.473 224.406V222.812H269.051V227.43H256.723V229.164H269.707V230.734H254.496V225.953H266.848V224.406H254.473ZM254.613 212.102V210.531H269.004V215.078H256.863V216.672H269.355V218.242H254.66V213.602H266.777V212.102H254.613ZM290.848 212.148V213.977H288.691V223.762C289.734 223.68 290.754 223.586 291.738 223.469L291.855 225.086C287.461 225.824 282.504 225.895 278.824 225.906L278.566 224.055C279.398 224.055 280.301 224.043 281.238 224.031V213.977H279.082V212.148H290.848ZM283.395 223.996C284.426 223.973 285.48 223.938 286.535 223.891V213.977H283.395V223.996ZM292.957 230.992V209.992H295.184V218.266H298.559V220.094H295.184V230.992H292.957ZM310.699 211.375C310.699 212.172 310.617 212.922 310.465 213.648H314.848V210.016H317.074V222.508H314.848V219.883H309.551V218.078H314.848V215.43H309.902C308.484 218.723 305.25 221.078 300.715 222.297L299.871 220.539C304.863 219.191 307.898 216.52 308.309 213.18H300.973V211.375H310.699ZM302.848 225.18V223.422H317.074V230.945H314.848V225.18H302.848ZM342.668 209.922V214.844H345.738V216.672H342.668V221.477H340.441V209.922H342.668ZM326.191 213.531V211.773H331.348V209.805H333.574V211.773H338.707V213.531H326.191ZM327.34 217.773C327.328 215.652 329.367 214.328 332.449 214.328C335.531 214.328 337.535 215.652 337.535 217.773C337.535 219.906 335.531 221.207 332.449 221.195C329.367 221.207 327.328 219.906 327.34 217.773ZM329.098 224.125V222.461H342.668V227.336H331.324V229.094H343.395V230.781H329.145V225.766H340.465V224.125H329.098ZM329.496 217.773C329.473 218.91 330.633 219.578 332.449 219.578C334.254 219.578 335.426 218.91 335.449 217.773C335.426 216.637 334.254 215.934 332.449 215.922C330.633 215.934 329.473 216.637 329.496 217.773ZM364.324 210.016V225.273H362.098V210.016H364.324ZM347.332 216.625C347.344 213.59 349.758 211.434 352.934 211.422C356.098 211.434 358.512 213.59 358.512 216.625C358.512 219.707 356.098 221.852 352.934 221.852C349.758 221.852 347.344 219.707 347.332 216.625ZM349.512 216.625C349.5 218.605 350.977 219.906 352.934 219.906C354.855 219.906 356.332 218.605 356.332 216.625C356.332 214.691 354.855 213.367 352.934 213.367C350.977 213.367 349.5 214.691 349.512 216.625ZM350.59 230.547V223.727H352.84V228.742H364.957V230.547H350.59ZM389.871 209.992V218.359H393.129V220.211H389.871V230.969H387.645V209.992H389.871ZM373.535 225.367C378.797 222.742 381.656 218.945 382.113 214.047H374.59V212.195H384.387C384.363 218.266 381.691 223.691 374.777 227.102L373.535 225.367ZM405.387 211.375C405.387 212.172 405.305 212.922 405.152 213.648H409.535V210.016H411.762V222.508H409.535V219.883H404.238V218.078H409.535V215.43H404.59C403.172 218.723 399.938 221.078 395.402 222.297L394.559 220.539C399.551 219.191 402.586 216.52 402.996 213.18H395.66V211.375H405.387ZM397.535 225.18V223.422H411.762V230.945H409.535V225.18H397.535ZM424.559 211.258C428.965 211.258 432.316 213.59 432.316 217.117C432.316 220.668 428.965 222.988 424.559 222.977C420.164 222.988 416.812 220.668 416.824 217.117C416.812 213.59 420.164 211.258 424.559 211.258ZM414.996 228.273V226.422H434.215V228.273H414.996ZM418.957 217.117C418.945 219.566 421.336 221.148 424.559 221.148C427.77 221.148 430.148 219.566 430.16 217.117C430.148 214.68 427.77 213.051 424.559 213.062C421.336 213.051 418.945 214.68 418.957 217.117ZM454.957 226.609V228.484H435.738V226.609H444.199V222.93H438.082V216.25H450.41V213.297H438.035V211.469H452.613V218.031H440.285V221.102H453.105V222.93H446.402V226.609H454.957ZM472.98 211.844V221.641H463.16V211.844H472.98ZM465.34 219.883H470.801V213.648H465.34V219.883ZM465.527 230.547V223.891H467.754V228.742H479.73V230.547H465.527ZM476.613 225.367V209.969H478.84V216.25H481.887V218.125H478.84V225.367H476.613ZM502.699 218.242V220.07H499.441V230.969H497.215V209.992H499.441V218.242H502.699ZM483.879 225.695V212.031H486.082V223.844C489.012 223.832 492.07 223.586 495.41 222.906L495.668 224.781C492.07 225.496 488.766 225.707 485.613 225.695H483.879ZM523.043 226.539V228.391H503.824V226.539H512.285V222.227H506.027V211.422H508.254V215.031H518.566V211.422H520.77V222.227H514.488V226.539H523.043ZM508.254 220.422H518.566V216.836H508.254V220.422ZM530.965 215.734C530.965 219.086 532.371 222.66 535.184 224.383L533.941 226.094C531.973 224.91 530.648 222.812 529.922 220.387C529.16 223.047 527.707 225.32 525.668 226.562L524.285 224.898C527.25 223.117 528.82 219.402 528.809 215.828V211.914H530.965V215.734ZM532.91 219.227V217.375H536.168V210.391H538.277V229.961H536.168V219.227H532.91ZM540.504 230.992V209.992H542.637V230.992H540.504ZM564.527 226.516V228.367H545.309V226.516H549.902V221.031C548.18 220.082 547.125 218.582 547.137 216.695C547.125 213.391 550.371 211.223 554.871 211.211C559.383 211.223 562.629 213.391 562.629 216.695C562.629 218.547 561.621 220.035 559.934 220.984V226.516H564.527ZM549.293 216.695C549.293 218.945 551.578 220.41 554.871 220.422C558.141 220.41 560.461 218.945 560.473 216.695C560.461 214.434 558.141 212.992 554.871 212.992C551.578 212.992 549.293 214.434 549.293 216.695ZM552.105 226.516H557.684V221.852C556.828 222.051 555.879 222.156 554.871 222.156C553.887 222.156 552.949 222.051 552.105 221.852V226.516ZM568.441 229.164C567.527 229.152 566.766 228.414 566.777 227.5C566.766 226.586 567.527 225.836 568.441 225.836C569.344 225.836 570.094 226.586 570.105 227.5C570.094 228.414 569.344 229.152 568.441 229.164Z" fill="black"/>
</svg>
