<svg width="672" height="883" viewBox="0 0 672 883" fill="none" xmlns="http://www.w3.org/2000/svg">
<path d="M94.4844 811.305V813.156C94.4844 815.148 94.4844 817.316 93.8984 820.305H96.9219V822.133H88.4141V831.016H86.1641V822.133H77.7734V820.305H91.6484C92.2695 817.305 92.2695 815.113 92.2812 813.156V813.133H80.1172V811.305H94.4844ZM116.586 809.992V830.992H114.453V820.047H111.852V829.961H109.742V810.391H111.852V818.219H114.453V809.992H116.586ZM99.2188 825.461V812.359H107.375V825.461H99.2188ZM101.328 823.68H105.289V814.117H101.328V823.68ZM138.477 826.539V828.367H119.258V826.539H127.742V821.57H129.969V826.539H138.477ZM120.148 820.609C124.051 819.953 127.672 817.035 127.672 813.812V813.625H120.852V811.797H136.812V813.625H129.992V813.812C129.992 817.035 133.637 819.895 137.633 820.516L136.742 822.273C133.344 821.641 130.215 819.672 128.844 816.906C127.496 819.707 124.391 821.711 121.062 822.367L120.148 820.609ZM157.508 810.016V825.484H155.281V818.195H150.922V816.344H155.281V810.016H157.508ZM140.305 821.359C144.98 819.848 148.156 817 148.613 813.438H141.383V811.586H151.062C151.039 817.07 147.277 821.195 141.242 823.141L140.305 821.359ZM143.984 830.547V823.891H146.234V828.742H158.047V830.547H143.984ZM185.75 820.281V822.039H177.266V823.961C181.156 824.148 183.395 825.367 183.406 827.453C183.395 829.727 180.734 830.957 176.164 830.945C171.57 830.957 168.875 829.727 168.875 827.453C168.875 825.367 171.137 824.148 175.062 823.961V822.039H166.602V820.281H185.75ZM167.609 817.586C171.734 817.258 174.594 815.781 174.91 813.766H168.523V811.984H175.062V809.969H177.266V811.984H183.828V813.766H177.406C177.723 815.781 180.594 817.258 184.719 817.586L184.039 819.297C180.406 818.98 177.465 817.762 176.164 815.793C174.852 817.762 171.922 818.98 168.312 819.297L167.609 817.586ZM171.125 827.453C171.113 828.648 172.918 829.281 176.164 829.258C179.363 829.281 181.18 828.648 181.18 827.453C181.18 826.258 179.363 825.602 176.164 825.602C172.918 825.602 171.113 826.258 171.125 827.453ZM204.781 810.812V812.617H198.395C198.629 814.703 201.641 816.449 205.508 816.859L204.688 818.617C201.055 818.195 198.055 816.66 196.906 814.422C195.758 816.66 192.77 818.195 189.148 818.617L188.352 816.859C192.184 816.449 195.195 814.691 195.418 812.617H189.102V810.812H204.781ZM187.344 822.25V820.445H195.805V817.398H198.008V820.445H206.539V822.25H187.344ZM189.477 825.906V824.125H204.148V830.992H201.898V825.906H189.477ZM221.656 815.336C221.633 819.168 223.953 823.035 227.211 824.477L225.875 826.234C223.461 825.086 221.551 822.73 220.566 819.859C219.594 822.941 217.66 825.473 215.141 826.703L213.781 824.828C217.086 823.363 219.406 819.344 219.406 815.336V811.75H221.656V815.336ZM229.109 831.039V809.992H231.336V831.039H229.109ZM238.461 827.383L236.586 833.852H234.594L235.836 827.383H238.461ZM252.383 811.562C255.242 811.574 257.316 813.988 257.656 817.867H261.992V809.992H264.195V831.039H261.992V819.672H257.68C257.434 823.773 255.312 826.316 252.383 826.305C249.254 826.316 247.039 823.457 247.062 818.922C247.039 814.434 249.254 811.574 252.383 811.562ZM249.172 818.922C249.184 822.262 250.484 824.312 252.383 824.312C254.281 824.312 255.582 822.262 255.594 818.922C255.582 815.629 254.281 813.566 252.383 813.555C250.484 813.566 249.184 815.629 249.172 818.922ZM284.445 819.953V821.781H269.82V811.867H284.258V813.695H272.023V819.953H284.445ZM267.43 828.227V826.375H286.648V828.227H267.43ZM306.078 809.992V825.93H303.969V809.992H306.078ZM289.062 822.039V811.656H291.172V815.102H295.227V811.656H297.289V815.992H299.867V810.367H301.977V825.273H299.867V817.797H297.289V822.039H289.062ZM291.172 820.234H295.227V816.812H291.172V820.234ZM292.156 830.547V823.773H294.359V828.742H306.688V830.547H292.156ZM325.953 821.172V822.953H311.328V811.727H325.742V813.531H313.578V816.367H325.297V818.125H313.578V821.172H325.953ZM308.914 828.344V826.516H328.133V828.344H308.914ZM344.891 811.188C344.879 816.203 342.359 819.801 336.711 821.898L335.727 820.328C338.457 819.344 340.309 818.043 341.422 816.426L335.984 817.023L335.656 815.219L342.254 814.82C342.465 814.234 342.605 813.625 342.676 812.992H336.617V811.188H344.891ZM339.336 823.609V821.852H353.422V826.984H341.586V828.977H354.219V830.734H339.383V825.344H351.242V823.609H339.336ZM346.672 820.82V810.391H348.781V814.656H351.312V810.016H353.422V820.961H351.312V816.484H348.781V820.82H346.672ZM373.648 810.016V825.461H371.445V810.016H373.648ZM357.312 813.25V811.469H366.969V817.727H359.539V820.75C363.395 820.727 366.031 820.609 369.148 820.047L369.383 821.875C366.078 822.449 363.289 822.566 359.117 822.578H357.359V816.039H364.766V813.25H357.312ZM359.773 830.547V824.242H362V828.742H374.234V830.547H359.773ZM387.664 811.938V813.789H380.281V824.031C383.809 824.008 386.211 823.879 388.977 823.352L389.234 825.18C386.211 825.754 383.656 825.883 379.695 825.883H378.031V811.938H387.664ZM386.469 819.344V817.492H392.305V809.992H394.531V831.039H392.305V819.344H386.469ZM422.75 822.648V824.477H414.266V831.016H412.062V824.477H403.602V822.648H422.75ZM404.727 819.414C408.711 818.91 411.922 816.684 412.062 814.328H405.406V812.523H412.062V809.992H414.266V812.523H420.922V814.328H414.289C414.406 816.66 417.582 818.91 421.578 819.414L420.781 821.195C417.406 820.727 414.535 819.145 413.176 817C411.816 819.168 408.934 820.727 405.547 821.195L404.727 819.414ZM440.703 809.992V818.359H443.961V820.211H440.703V830.969H438.477V809.992H440.703ZM424.367 825.367C429.629 822.742 432.488 818.945 432.945 814.047H425.422V812.195H435.219C435.195 818.266 432.523 823.691 425.609 827.102L424.367 825.367ZM461.797 811.305V813.156C461.797 815.148 461.797 817.316 461.211 820.305H464.234V822.133H455.727V831.016H453.477V822.133H445.086V820.305H458.961C459.582 817.305 459.582 815.113 459.594 813.156V813.133H447.43V811.305H461.797ZM483.898 809.992V830.992H481.766V820.047H479.164V829.961H477.055V810.391H479.164V818.219H481.766V809.992H483.898ZM466.531 825.461V812.359H474.688V825.461H466.531ZM468.641 823.68H472.602V814.117H468.641V823.68ZM492.875 811.328C496.109 811.328 498.512 813.367 498.523 816.32C498.512 818.922 496.648 820.809 494 821.23V824.559C495.863 824.465 497.727 824.324 499.461 824.102L499.625 825.766C495.184 826.539 490.297 826.574 486.664 826.539L486.312 824.711C487.941 824.699 489.816 824.688 491.773 824.641V821.23C489.066 820.832 487.215 818.934 487.227 816.32C487.215 813.367 489.582 811.328 492.875 811.328ZM489.383 816.32C489.371 818.184 490.859 819.426 492.875 819.414C494.867 819.426 496.332 818.184 496.344 816.32C496.332 814.445 494.867 813.227 492.875 813.203C490.859 813.227 489.371 814.445 489.383 816.32ZM500.727 830.992V809.992H502.953V818.523H506.188V820.398H502.953V830.992H500.727ZM532.344 820.211V821.992H513.172V820.211H521.68V817.984H515.562V810.953H529.977V812.711H517.766V816.203H530.117V817.984H523.836V820.211H532.344ZM515.445 827.172C515.445 824.734 518.176 823.363 522.734 823.352C527.258 823.363 529.965 824.734 529.977 827.172C529.965 829.609 527.258 830.98 522.734 830.992C518.176 830.98 515.445 829.609 515.445 827.172ZM517.695 827.172C517.684 828.52 519.523 829.258 522.734 829.234C525.898 829.258 527.75 828.52 527.75 827.172C527.75 825.848 525.898 825.086 522.734 825.086C519.523 825.086 517.684 825.848 517.695 827.172ZM541.625 815.336C541.602 819.168 543.922 823.035 547.18 824.477L545.844 826.234C543.43 825.086 541.52 822.73 540.535 819.859C539.562 822.941 537.629 825.473 535.109 826.703L533.75 824.828C537.055 823.363 539.375 819.344 539.375 815.336V811.75H541.625V815.336ZM549.078 831.039V809.992H551.305V831.039H549.078ZM572.727 809.992V830.992H570.594V809.992H572.727ZM554.891 819.062C554.891 814.516 556.672 811.668 559.414 811.68C561.969 811.668 563.691 814.094 563.949 818.031H566.328V810.391H568.461V829.961H566.328V819.836H563.961C563.762 823.938 562.016 826.48 559.414 826.469C556.672 826.48 554.891 823.621 554.891 819.062ZM556.953 819.062C556.953 822.402 557.902 824.371 559.414 824.359C560.961 824.371 561.922 822.402 561.922 819.062C561.922 815.711 560.961 813.754 559.414 813.766C557.902 813.754 556.953 815.711 556.953 819.062ZM588.781 813.719C588.77 816.367 590.668 818.957 593.844 820.047L592.695 821.781C590.34 820.973 588.594 819.285 587.68 817.211C586.766 819.52 584.926 821.371 582.43 822.25L581.281 820.492C584.504 819.391 586.52 816.59 586.508 813.742V813.156H581.961V811.352H593.281V813.156H588.781V813.719ZM584.539 825.414V823.609H598.766V830.992H596.539V825.414H584.539ZM592.648 817.164V815.336H596.539V809.992H598.766V822.555H596.539V817.164H592.648ZM621.148 820.234V822.039H602V820.234H606.594V817.41C604.965 816.754 604.051 815.699 604.062 814.305C604.051 811.809 606.945 810.355 611.562 810.367C616.168 810.355 619.051 811.809 619.062 814.305C619.051 815.699 618.137 816.754 616.508 817.422V820.234H621.148ZM604.273 827.195C604.273 824.793 606.992 823.469 611.562 823.469C616.074 823.469 618.793 824.793 618.805 827.195C618.793 829.621 616.074 830.945 611.562 830.945C606.992 830.945 604.273 829.621 604.273 827.195ZM606.359 814.305C606.348 815.711 608.293 816.496 611.562 816.508C614.809 816.496 616.777 815.711 616.766 814.305C616.777 812.898 614.809 812.09 611.562 812.078C608.293 812.09 606.348 812.898 606.359 814.305ZM606.523 827.195C606.512 828.508 608.352 829.258 611.562 829.234C614.727 829.258 616.578 828.508 616.578 827.195C616.578 825.906 614.727 825.18 611.562 825.18C608.352 825.18 606.512 825.906 606.523 827.195ZM608.844 820.234H614.305V817.996C613.484 818.125 612.559 818.195 611.562 818.195C610.578 818.195 609.664 818.125 608.844 818.008V820.234ZM94.1328 851.992V860.359H97.3906V862.211H94.1328V872.969H91.9062V851.992H94.1328ZM77.7969 867.367C83.0586 864.742 85.918 860.945 86.375 856.047H78.8516V854.195H88.6484C88.625 860.266 85.9531 865.691 79.0391 869.102L77.7969 867.367ZM115.484 857.664V859.469H101.07V852.367H103.273V857.664H115.484ZM98.5156 863.523V861.695H117.688V863.523H98.5156ZM100.789 869.055C100.789 866.605 103.52 865.223 108.078 865.234C112.602 865.223 115.309 866.605 115.32 869.055C115.309 871.516 112.602 872.898 108.078 872.898C103.52 872.898 100.789 871.516 100.789 869.055ZM103.039 869.055C103.027 870.402 104.867 871.176 108.078 871.188C111.242 871.176 113.094 870.402 113.094 869.055C113.094 867.695 111.242 866.98 108.078 866.969C104.867 866.98 103.027 867.695 103.039 869.055ZM135.758 851.992V857.266H138.805V859.141H135.758V864.227H133.531V851.992H135.758ZM119.281 855.836V854.055H124.438V851.805H126.664V854.055H131.797V855.836H119.281ZM120.43 860.383C120.418 858.145 122.48 856.691 125.539 856.703C128.562 856.691 130.625 858.145 130.625 860.383C130.625 862.621 128.562 864.086 125.539 864.062C122.48 864.086 120.418 862.621 120.43 860.383ZM122.328 872.734V865.094H124.531V867.133H133.531V865.094H135.758V872.734H122.328ZM122.586 860.383C122.562 861.637 123.758 862.41 125.539 862.422C127.32 862.41 128.516 861.637 128.539 860.383C128.516 859.152 127.32 858.355 125.539 858.367C123.758 858.355 122.562 859.152 122.586 860.383ZM124.531 870.953H133.531V868.867H124.531V870.953ZM157.438 851.992V872.992H155.211V851.992H157.438ZM141.289 867.648V854.031H143.492V865.727C146.562 865.715 149.785 865.445 153.148 864.766L153.453 866.641C149.738 867.402 146.363 867.66 143.047 867.648H141.289ZM177.102 851.992V860.125H180.477V861.953H177.102V873.039H174.875V851.992H177.102ZM161.633 867.812V854.008H171.453V855.812H163.859V865.961C167.387 865.949 170.023 865.797 173.023 865.258L173.305 867.133C170.012 867.719 167.223 867.824 163.32 867.812H161.633ZM183.875 871.164C182.961 871.152 182.199 870.414 182.211 869.5C182.199 868.586 182.961 867.836 183.875 867.836C184.777 867.836 185.527 868.586 185.539 869.5C185.527 870.414 184.777 871.152 183.875 871.164Z" fill="#626262"/>
<path d="M58.918 824.898C57.4648 824.887 56.2812 823.703 56.2695 822.227C56.2812 820.773 57.4648 819.59 58.918 819.578C60.3945 819.59 61.5781 820.773 61.5898 822.227C61.5781 823.703 60.3945 824.887 58.918 824.898Z" fill="#626262"/>
<path d="M1 37C1 30.3726 6.37258 25 13 25H659C665.627 25 671 30.3726 671 37V751C671 757.627 665.627 763 659 763H13C6.37257 763 1 757.627 1 751V37Z" fill="#2DC88F"/>
<path d="M1.5 37C1.5 30.6487 6.64872 25.5 13 25.5V24.5C6.09644 24.5 0.5 30.0964 0.5 37H1.5ZM13 25.5H659V24.5H13V25.5ZM659 25.5C665.351 25.5 670.5 30.6487 670.5 37H671.5C671.5 30.0964 665.904 24.5 659 24.5V25.5ZM670.5 37V751H671.5V37H670.5ZM670.5 751C670.5 757.351 665.351 762.5 659 762.5V763.5C665.904 763.5 671.5 757.904 671.5 751H670.5ZM659 762.5H13V763.5H659V762.5ZM13 762.5C6.64871 762.5 1.5 757.351 1.5 751H0.5C0.5 757.904 6.09642 763.5 13 763.5V762.5ZM1.5 751V37H0.5V751H1.5Z" fill="black"/>
<rect x="264" y="1" width="143" height="48" rx="24" fill="#FFD945"/>
<path d="M305.195 22.3984C304.562 20.3945 303.027 19.1523 300.789 19.1641C297.93 19.1523 295.738 21.4023 295.727 25.5156C295.738 29.6172 297.906 31.8789 300.906 31.8672C303.613 31.8789 305.406 30.1562 305.453 27.4375H301.281V25.3047H307.961V27.2266C307.961 31.5273 305.008 34.2344 300.883 34.2344C296.289 34.2344 293.172 30.8945 293.172 25.5156C293.172 20.1016 296.383 16.7969 300.766 16.7969C304.434 16.7969 307.27 19.082 307.844 22.3984H305.195ZM313.516 17.0312V34H310.938V17.0312H313.516ZM316.961 34V17.0312H327.484V19.2578H319.539V24.3906H326.734V26.5938H319.539V34H316.961ZM329.523 19.2578V17.0312H342.672V19.2578H337.398V34H334.82V19.2578H329.523ZM356.828 34.2344C352.902 34.2344 350.594 31.0703 350.594 25.5156C350.594 19.9961 352.926 16.7969 356.828 16.7969C360.719 16.7969 363.051 19.9961 363.062 25.5156C363.051 31.0703 360.754 34.2344 356.828 34.2344ZM353.172 25.5156C353.16 29.7461 354.531 32.0078 356.828 32.0078C359.113 32.0078 360.484 29.7461 360.484 25.5156C360.484 21.2969 359.102 18.9883 356.828 18.9766C354.543 18.9883 353.172 21.2969 353.172 25.5156ZM365.734 34V32.125L371.617 26.1953C373.48 24.2617 374.406 23.1836 374.406 21.6953C374.406 20.0195 373.047 18.9531 371.266 18.9531C369.379 18.9531 368.184 20.1484 368.172 21.9531H365.734C365.711 18.8477 368.078 16.7969 371.312 16.7969C374.582 16.7969 376.844 18.8711 376.867 21.625C376.844 23.5234 375.953 25.0352 372.766 28.1641L369.32 31.6562V31.7969H377.148V34H365.734Z" fill="black"/>
<rect x="264" y="1" width="143" height="48" rx="24" stroke="black"/>
<path d="M119.414 107.277V130.656H114.949V123.062H107.637C106.09 124.697 103.875 125.699 101.379 125.699C96.5273 125.699 92.8359 122.184 92.8711 117.438C92.8359 112.621 96.5273 109.123 101.379 109.105C103.857 109.123 106.072 110.107 107.619 111.742H114.949V107.277H119.414ZM97.125 117.438C97.1074 120.109 98.8828 121.727 101.379 121.727C103.734 121.727 105.545 120.109 105.562 117.438C105.545 114.73 103.734 113.113 101.379 113.113C98.8828 113.113 97.1074 114.73 97.125 117.438ZM98.1797 138.672V128.301H102.68V135.086H120.188V138.672H98.1797ZM109.553 115.328C109.729 115.996 109.816 116.699 109.816 117.438C109.816 118.141 109.729 118.826 109.57 119.477H114.949V115.328H109.553ZM148.945 107.242V113.43H153.27V117.121H148.945V123.238H144.445V107.242H148.945ZM124.512 122.043V108.754H139.875V122.043H124.512ZM127.711 127.949V124.504H148.945V133.223H132.176V135.367H149.859V138.883H127.781V129.988H144.48V127.949H127.711ZM128.941 118.492H135.445V112.27H128.941V118.492ZM181.219 110.195V113.781H178.371V127.738C179.672 127.633 180.938 127.51 182.168 127.352L182.414 130.586C175.857 131.729 168.545 131.852 163.043 131.887L162.551 128.23C163.693 128.23 164.924 128.23 166.207 128.213V113.781H163.359V110.195H181.219ZM170.531 128.143C171.691 128.107 172.869 128.055 174.047 128.002V113.781H170.531V128.143ZM183.715 139.234V107.242H188.215V119.406H192.926V123.062H188.215V139.234H183.715ZM212.121 109.879V113.535H200.273V118.809H210.785V122.324H200.273V128.371C205.178 128.336 209.08 128.143 213.562 127.457L213.984 131.078C208.957 131.816 204.369 131.957 198.586 131.957H195.844V109.879H212.121ZM216.445 139.234V107.242H220.98V139.234H216.445ZM260.355 107.242V123.66H255.855V107.242H260.355ZM234.023 119.512C235.113 119.512 236.273 119.494 237.469 119.477V112.621H234.867V109.211H252.27V112.621H249.633V119.002C250.951 118.896 252.252 118.773 253.5 118.633L253.711 121.832C247.348 122.852 240.07 123.027 234.516 123.027L234.023 119.512ZM238.594 128.406V124.926H260.355V133.469H243.094V135.473H261.234V139.023H238.664V130.27H255.926V128.406H238.594ZM241.758 119.389C242.936 119.354 244.113 119.318 245.309 119.266V112.621H241.758V119.389ZM281.59 109.738C281.572 113.518 285.439 117.684 292.77 118.598L291.012 122.219C285.422 121.41 281.326 118.826 279.234 115.363C277.125 118.809 273.047 121.41 267.527 122.219L265.734 118.598C273.012 117.684 276.861 113.518 276.879 109.738V108.191H281.59V109.738ZM264.609 128.301V124.645H293.789V128.301H281.344V139.234H276.914V128.301H264.609ZM324.902 122.219V125.77H312.527V128.512H321.422V138.883H299.098V128.512H308.062V125.77H295.723V122.219H324.902ZM298.289 111.707V108.121H322.301V111.707H318.117V116.594H322.09V120.18H298.5V116.594H302.438V111.707H298.289ZM303.527 135.297H317.027V131.992H303.527V135.297ZM306.938 116.594H313.617V111.707H306.938V116.594ZM347.121 112.727C347.121 116.857 349.336 120.971 354.434 122.676L352.008 126.191C348.615 124.943 346.277 122.588 344.924 119.617C343.553 122.975 341.057 125.594 337.348 126.93L334.922 123.414C340.266 121.656 342.568 117.279 342.586 112.691V109.211H347.121V112.727ZM340.793 138.672V128.406H345.328V135.086H362.766V138.672H340.793ZM351.621 117.684V114.062H357.633V107.277H362.098V130.902H357.633V117.684H351.621ZM393.738 107.242V129.004H389.484V107.242H393.738ZM365.789 122.395C370.166 120.461 371.977 116.576 371.977 112.938V109.246H376.336V112.938C376.318 116.576 377.971 120.092 382.031 121.902L379.605 125.348C376.969 124.188 375.211 122.184 374.156 119.723C372.996 122.377 371.062 124.592 368.18 125.805L365.789 122.395ZM370.289 135.648C377.215 134.77 380.66 131.342 380.66 128.055V127.316H385.125V128.055C385.143 131.342 388.57 134.77 395.496 135.648L393.773 139.094C388.605 138.408 384.861 136.264 382.893 133.311C380.906 136.264 377.127 138.408 371.941 139.094L370.289 135.648ZM379.113 117.402V113.816H383.016V107.875H387.27V125.98H383.016V117.402H379.113ZM434.906 125.137V128.723H422.391V139.199H417.961V128.723H405.621V125.137H434.906ZM409.066 121.691V108.789H431.391V121.691H409.066ZM413.496 118.176H426.926V112.34H413.496V118.176ZM462.855 122.043V125.629H440.215V109.914H462.609V113.535H444.645V122.043H462.855ZM436.77 135.332V131.641H466.055V135.332H436.77ZM497.133 121.867V125.523H467.883V121.867H497.133ZM471.223 133.328C471.223 129.566 475.441 127.439 482.438 127.457C489.381 127.439 493.547 129.566 493.582 133.328C493.547 137.107 489.381 139.252 482.438 139.234C475.441 139.252 471.223 137.107 471.223 133.328ZM471.434 119.617V108.086H493.617V111.707H475.898V116.066H493.793V119.617H471.434ZM475.793 133.328C475.775 135.016 478.008 135.824 482.438 135.824C486.779 135.824 489.064 135.016 489.082 133.328C489.064 131.711 486.779 130.867 482.438 130.867C478.008 130.867 475.775 131.711 475.793 133.328ZM536.473 121.973V125.594H507.293V121.973H536.473ZM508.594 117.297C514.605 116.752 517.893 114.555 518.631 112.305H509.965V108.719H533.836V112.305H525.1C525.82 114.537 529.09 116.752 535.242 117.297L533.66 120.812C527.613 120.232 523.553 117.947 521.848 114.854C520.16 117.947 516.135 120.232 510.07 120.812L508.594 117.297ZM510.633 133.328C510.633 129.566 514.852 127.387 521.848 127.387C528.791 127.387 532.957 129.566 532.992 133.328C532.957 137.107 528.791 139.252 521.848 139.234C514.852 139.252 510.633 137.107 510.633 133.328ZM515.203 133.328C515.186 134.98 517.418 135.754 521.848 135.754C526.189 135.754 528.475 134.98 528.492 133.328C528.475 131.658 526.189 130.867 521.848 130.867C517.418 130.867 515.186 131.658 515.203 133.328ZM565.371 107.242V126.227H560.906V118.668H555.914V115.047H560.906V107.242H565.371ZM538.195 122.711C543.434 120.953 545.824 116.77 545.93 112.762H539.496V109.176H556.863V112.762H550.5C550.588 116.488 552.873 120.25 557.848 121.902L555.633 125.418C552.117 124.275 549.674 121.955 548.285 119.09C546.879 122.342 544.312 124.961 540.516 126.262L538.195 122.711ZM543.434 133.117C543.434 129.232 547.617 126.947 554.438 126.93C561.275 126.947 565.459 129.232 565.477 133.117C565.459 137.002 561.275 139.27 554.438 139.27C547.617 139.27 543.434 137.002 543.434 133.117ZM547.898 133.117C547.898 134.945 550.201 135.859 554.438 135.859C558.691 135.859 560.994 134.945 561.012 133.117C560.994 131.271 558.691 130.357 554.438 130.375C550.201 130.357 547.898 131.271 547.898 133.117ZM576.797 110.547L576.34 128.371H571.84L571.383 110.547H576.797ZM571.172 133.363C571.137 131.746 572.473 130.428 574.125 130.445C575.689 130.428 577.043 131.746 577.043 133.363C577.043 134.998 575.689 136.316 574.125 136.316C572.473 136.316 571.137 134.998 571.172 133.363Z" fill="black"/>
<path d="M121.172 174.031V191H118.57V176.609H118.477L114.422 179.258V176.797L118.641 174.031H121.172ZM131.25 191.234C128.039 191.234 125.625 189.277 125.508 186.57H128.016C128.156 188.012 129.539 189.066 131.25 189.078C133.312 189.066 134.789 187.578 134.789 185.562C134.789 183.5 133.266 182 131.133 181.977C129.773 181.977 128.73 182.434 128.156 183.477H125.719L126.82 174.031H136.43V176.234H128.953L128.391 180.992H128.555C129.258 180.312 130.453 179.855 131.742 179.844C134.941 179.855 137.297 182.223 137.297 185.492C137.297 188.832 134.789 191.234 131.25 191.234ZM149.953 173.844V183.641H140.133V173.844H149.953ZM142.312 181.883H147.773V175.648H142.312V181.883ZM142.5 192.547V185.891H144.727V190.742H156.703V192.547H142.5ZM153.586 187.367V171.969H155.812V178.25H158.859V180.125H155.812V187.367H153.586ZM177.516 172.016V187.93H175.289V185.914H171.07V184.344H175.289V172.016H177.516ZM159.961 181.602C163.84 181.566 169.078 181.531 173.555 180.969L173.695 182.562C171.902 182.867 170.016 183.055 168.164 183.184V187.273H165.938V183.301C163.898 183.383 161.941 183.383 160.242 183.383L159.961 181.602ZM161.602 176.516C161.59 174.289 163.711 172.812 166.828 172.812C169.898 172.812 172.031 174.289 172.031 176.516C172.031 178.754 169.898 180.172 166.828 180.172C163.723 180.172 161.59 178.754 161.602 176.516ZM162.867 192.547V186.383H165.07V190.742H178.031V192.547H162.867ZM163.711 176.516C163.699 177.758 164.965 178.531 166.828 178.531C168.621 178.531 169.91 177.758 169.922 176.516C169.91 175.262 168.621 174.453 166.828 174.477C164.965 174.453 163.699 175.262 163.711 176.516ZM204.047 171.992V193.039H201.82V171.992H204.047ZM187.383 180.922C187.383 176.434 189.645 173.574 192.82 173.562C195.938 173.574 198.234 176.434 198.234 180.922C198.234 185.457 195.938 188.316 192.82 188.305C189.645 188.316 187.383 185.457 187.383 180.922ZM189.539 180.922C189.527 184.262 190.863 186.312 192.82 186.312C194.742 186.312 196.078 184.262 196.078 180.922C196.078 177.629 194.742 175.566 192.82 175.555C190.863 175.566 189.527 177.629 189.539 180.922ZM214.641 175.344C214.629 178.098 216.574 180.664 219.703 181.695L218.508 183.453C216.211 182.645 214.488 181.004 213.574 178.93C212.66 181.285 210.879 183.137 208.43 184.039L207.234 182.258C210.516 181.098 212.414 178.297 212.438 175.156V173.094H214.641V175.344ZM210.07 189.055C210.07 186.594 212.754 185.152 217.125 185.164C221.438 185.152 224.086 186.594 224.086 189.055C224.086 191.539 221.438 192.957 217.125 192.945C212.754 192.957 210.07 191.539 210.07 189.055ZM212.297 189.055C212.285 190.438 214.09 191.188 217.125 191.211C220.137 191.188 221.918 190.438 221.906 189.055C221.918 187.719 220.137 186.922 217.125 186.922C214.09 186.922 212.285 187.719 212.297 189.055ZM221.672 184.672V171.992H223.898V177.266H226.945V179.141H223.898V184.672H221.672ZM250.711 173.305V175.156C250.711 177.148 250.711 179.316 250.125 182.305H253.148V184.133H244.641V193.016H242.391V184.133H234V182.305H247.875C248.496 179.305 248.496 177.113 248.508 175.156V175.133H236.344V173.305H250.711ZM272.812 171.992V192.992H270.68V182.047H268.078V191.961H265.969V172.391H268.078V180.219H270.68V171.992H272.812ZM255.445 187.461V174.359H263.602V187.461H255.445ZM257.555 185.68H261.516V176.117H257.555V185.68ZM289.055 177.336C289.031 181.168 291.352 185.035 294.609 186.477L293.273 188.234C290.859 187.086 288.949 184.73 287.965 181.859C286.992 184.941 285.059 187.473 282.539 188.703L281.18 186.828C284.484 185.363 286.805 181.344 286.805 177.336V173.75H289.055V177.336ZM296.508 193.039V171.992H298.734V193.039H296.508ZM325.336 171.992V193.039H323.109V171.992H325.336ZM308.672 180.922C308.672 176.434 310.934 173.574 314.109 173.562C317.227 173.574 319.523 176.434 319.523 180.922C319.523 185.457 317.227 188.316 314.109 188.305C310.934 188.316 308.672 185.457 308.672 180.922ZM310.828 180.922C310.816 184.262 312.152 186.312 314.109 186.312C316.031 186.312 317.367 184.262 317.367 180.922C317.367 177.629 316.031 175.566 314.109 175.555C312.152 175.566 310.816 177.629 310.828 180.922ZM346.594 171.992V187.93H344.484V171.992H346.594ZM329.578 184.039V173.656H331.688V177.102H335.742V173.656H337.805V177.992H340.383V172.367H342.492V187.273H340.383V179.797H337.805V184.039H329.578ZM331.688 182.234H335.742V178.812H331.688V182.234ZM332.672 192.547V185.773H334.875V190.742H347.203V192.547H332.672ZM366.469 183.172V184.953H351.844V173.727H366.258V175.531H354.094V178.367H365.812V180.125H354.094V183.172H366.469ZM349.43 190.344V188.516H368.648V190.344H349.43ZM389.391 188.609V190.484H370.172V188.609H378.633V184.93H372.516V178.25H384.844V175.297H372.469V173.469H387.047V180.031H374.719V183.102H387.539V184.93H380.836V188.609H389.391ZM401.555 173.844V183.641H391.734V173.844H401.555ZM393.914 181.883H399.375V175.648H393.914V181.883ZM394.102 192.547V185.891H396.328V190.742H408.305V192.547H394.102ZM405.188 187.367V171.969H407.414V178.25H410.461V180.125H407.414V187.367H405.188ZM428.156 173.844V183.641H418.336V173.844H428.156ZM420.516 181.883H425.977V175.648H420.516V181.883ZM420.703 192.547V185.891H422.93V190.742H434.906V192.547H420.703ZM431.789 187.367V171.969H434.016V178.25H437.062V180.125H434.016V187.367H431.789ZM457.875 180.242V182.07H454.617V192.969H452.391V171.992H454.617V180.242H457.875ZM439.055 187.695V174.031H441.258V185.844C444.188 185.832 447.246 185.586 450.586 184.906L450.844 186.781C447.246 187.496 443.941 187.707 440.789 187.695H439.055ZM463.711 172.32V174.148H473.438V172.32H475.664V179.281H469.617V181.109H478.148V182.891H459V181.109H467.438V179.281H461.508V172.32H463.711ZM461.297 186.078V184.414H475.734V189.312H463.5V191.07H476.32V192.781H461.32V187.719H473.531V186.078H461.297ZM463.711 177.594H473.438V175.789H463.711V177.594ZM496.359 173.844C496.348 176.633 499.758 179.246 503.883 179.797L503.016 181.625C499.582 181.074 496.57 179.293 495.199 176.82C493.828 179.293 490.816 181.074 487.406 181.625L486.516 179.797C490.629 179.246 494.027 176.668 494.039 173.844V172.695H496.359V173.844ZM485.602 185.516V183.688H504.75V185.516H496.219V192.992H494.039V185.516H485.602ZM519.492 185.867C519.492 187.672 520.383 189.582 522.293 190.719C524.215 189.488 525.164 187.484 525.164 185.867V184.859H527.344V185.867C527.332 188.047 528.773 190.156 531.516 191.047L530.414 192.688C528.34 191.973 526.922 190.566 526.195 188.855C525.527 190.543 524.273 192.078 522.352 192.875C520.336 192.113 519.059 190.625 518.414 188.914C517.652 190.566 516.27 191.961 514.289 192.688L513.164 191.047C515.859 190.086 517.324 187.895 517.336 185.867V184.859H519.492V185.867ZM512.625 178.133C512.637 175.191 515.004 173.176 518.227 173.164C521.438 173.176 523.805 175.191 523.805 178.133C523.805 181.039 521.438 183.055 518.227 183.055C515.004 183.055 512.637 181.039 512.625 178.133ZM514.805 178.133C514.793 179.961 516.234 181.203 518.227 181.203C520.195 181.203 521.625 179.961 521.625 178.133C521.625 176.293 520.195 175.051 518.227 175.062C516.234 175.051 514.793 176.293 514.805 178.133ZM527.391 183.969V172.016H529.617V183.969H527.391ZM549.938 178.133V179.914H535.477V172.742H537.68V178.133H549.938ZM532.922 184.344V182.562H552.141V184.344H532.922ZM535.312 192.5V186.336H537.539V190.672H550.078V192.5H535.312ZM141.105 220.984V222.766H132.762V226.633H130.559V222.766H121.887V220.984H141.105ZM124.277 230.547V224.805H126.48V228.742H138.973V230.547H124.277ZM124.418 219.133V210.648H126.621V213.203H136.348V210.648H138.574V219.133H124.418ZM126.621 217.352H136.348V214.867H126.621V217.352ZM149.543 210.953C152.707 210.941 154.992 212.711 155.004 215.312C154.992 217.891 152.707 219.672 149.543 219.648C146.391 219.672 144.117 217.891 144.129 215.312C144.117 212.711 146.391 210.941 149.543 210.953ZM142.629 221.289C146.508 221.289 151.863 221.207 156.457 220.516L156.621 222.18C154.699 222.543 152.719 222.766 150.785 222.895V230.336H148.559V223.023C146.52 223.117 144.598 223.129 142.934 223.141L142.629 221.289ZM146.285 215.312C146.262 216.836 147.633 217.844 149.543 217.82C151.5 217.844 152.871 216.836 152.871 215.312C152.871 213.777 151.5 212.746 149.543 212.758C147.633 212.746 146.262 213.777 146.285 215.312ZM157.91 230.992V210.016H160.113V230.992H157.91ZM180.855 209.992V230.992H178.605V209.992H180.855ZM163.605 225.367C169.184 222.707 171.914 218.922 172.348 214.023H164.613V212.242H174.598C174.598 218.395 171.984 223.715 164.777 227.172L163.605 225.367ZM209.191 217.984V219.766H189.996V217.984H195.633C196.289 215.605 196.453 213.824 196.488 212.57H191.777V210.789H198.691V211.516C198.68 212.699 198.68 214.938 197.895 217.984H203.953C204.551 215.617 204.656 213.883 204.68 212.57H200.051V210.789H206.871V211.82C206.848 213.168 206.848 215.23 206.203 217.984H209.191ZM192.363 230.734V221.758H206.871V223.445H194.59V225.367H206.332V226.984H194.59V229H206.988V230.734H192.363ZM222.668 211.891V213.695H220.676V220.281C221.672 220.211 222.645 220.117 223.582 220L223.723 221.664C219.492 222.332 214.594 222.426 210.996 222.438L210.738 220.609C211.547 220.609 212.414 220.598 213.316 220.586V213.695H211.324V211.891H222.668ZM213.926 230.547V223.984H216.152V228.742H228.129V230.547H213.926ZM215.473 220.539C216.469 220.504 217.477 220.469 218.496 220.422V213.695H215.473V220.539ZM225.012 225.461V210.016H227.238V216.227H230.285V218.102H227.238V225.461H225.012ZM248.004 210.016V215.711H251.004V217.562H248.004V223.352H245.777V210.016H248.004ZM231.457 220.328C233.039 220.328 234.879 220.316 236.801 220.258V218.488C234.27 218.172 232.617 216.695 232.629 214.609C232.617 212.289 234.738 210.73 237.855 210.719C240.938 210.73 243.082 212.289 243.105 214.609C243.082 216.66 241.465 218.113 239.027 218.465V220.176C240.891 220.07 242.754 219.918 244.488 219.672L244.676 221.266C240.258 222.027 235.324 222.098 231.691 222.086L231.457 220.328ZM234.129 227.266C234.129 224.91 236.789 223.562 241.137 223.562C245.473 223.562 248.121 224.91 248.145 227.266C248.121 229.574 245.473 230.957 241.137 230.945C236.789 230.957 234.129 229.574 234.129 227.266ZM234.715 214.609C234.691 216.016 235.957 216.906 237.855 216.906C239.719 216.906 240.996 216.016 240.996 214.609C240.996 213.262 239.719 212.418 237.855 212.406C235.957 212.418 234.691 213.262 234.715 214.609ZM236.309 227.266C236.297 228.508 238.09 229.223 241.137 229.234C244.125 229.223 245.918 228.508 245.941 227.266C245.918 225.988 244.125 225.273 241.137 225.273C238.09 225.273 236.297 225.988 236.309 227.266ZM265.488 213.836C265.5 216.684 267.387 219.426 270.551 220.539L269.332 222.273C267.047 221.395 265.324 219.66 264.422 217.492C263.52 219.906 261.727 221.816 259.254 222.766L258.059 221.008C261.328 219.848 263.273 216.93 263.285 213.766V211.281H265.488V213.836ZM261.879 230.547V223.914H264.129V228.742H276.059V230.547H261.879ZM268.934 216.625V214.797H273.363V210.016H275.59V225.672H273.363V216.625H268.934ZM296.73 209.992V224.312H294.621V209.992H296.73ZM278.73 220.234C281.508 218.992 283.031 216.32 283.02 213.93V211.281H285.176V213.93C285.176 216.344 286.582 218.711 289.23 219.836L288.035 221.547C286.137 220.738 284.824 219.25 284.109 217.457C283.348 219.391 281.941 221.055 279.949 221.922L278.73 220.234ZM281.543 229.164C285.516 228.613 288.621 226.387 288.621 223.867V223.258H290.848V223.867C290.848 226.387 293.953 228.613 297.949 229.164L297.059 230.898C293.801 230.406 291.023 228.859 289.734 226.68C288.422 228.859 285.633 230.406 282.363 230.898L281.543 229.164ZM287.355 216.461V214.633H290.426V210.438H292.559V222.367H290.426V216.461H287.355ZM324.621 222.039V223.844H316.043V230.969H313.863V223.844H305.402V222.039H324.621ZM307.816 219.367V211.117H322.207V219.367H307.816ZM309.996 217.633H319.98V212.898H309.996V217.633ZM343.184 219.953V221.781H328.559V211.867H342.996V213.695H330.762V219.953H343.184ZM326.168 228.227V226.375H345.387V228.227H326.168ZM366.082 219.859V221.688H346.91V219.859H366.082ZM349.184 227.148C349.184 224.711 351.914 223.328 356.473 223.328C360.996 223.328 363.703 224.711 363.715 227.148C363.703 229.586 360.996 230.957 356.473 230.945C351.914 230.957 349.184 229.586 349.184 227.148ZM349.301 218.031V210.742H363.715V212.57H351.504V216.227H363.855V218.031H349.301ZM351.434 227.148C351.422 228.496 353.262 229.223 356.473 229.234C359.637 229.223 361.488 228.496 361.488 227.148C361.488 225.812 359.637 225.062 356.473 225.039C353.262 225.062 351.422 225.812 351.434 227.148ZM377.215 210.344C381.949 210.332 384.703 211.609 384.715 213.953C384.703 216.309 381.949 217.586 377.215 217.586C372.48 217.586 369.703 216.309 369.715 213.953C369.703 211.609 372.48 210.332 377.215 210.344ZM367.652 220.656V218.875H386.801V220.656H367.652ZM369.949 223.938V222.273H384.387V227.195H372.152V229.07H384.973V230.781H369.973V225.578H382.184V223.938H369.949ZM372.035 213.953C372.023 215.254 373.875 215.922 377.215 215.922C380.578 215.922 382.43 215.254 382.418 213.953C382.43 212.711 380.578 211.984 377.215 211.984C373.875 211.984 372.023 212.711 372.035 213.953ZM413.402 219.883V221.688H394.254V219.883H413.402ZM395.262 217.023C399.07 216.613 402.082 214.902 402.328 212.852H396.012V211.023H411.691V212.852H405.305C405.562 214.891 408.527 216.613 412.418 217.023L411.621 218.781C407.977 218.359 404.965 216.824 403.828 214.609C402.668 216.824 399.68 218.359 396.035 218.781L395.262 217.023ZM396.527 227.148C396.527 224.711 399.258 223.305 403.816 223.305C408.34 223.305 411.047 224.711 411.059 227.148C411.047 229.586 408.34 230.957 403.816 230.945C399.258 230.957 396.527 229.586 396.527 227.148ZM398.777 227.148C398.766 228.473 400.605 229.199 403.816 229.188C406.98 229.199 408.832 228.473 408.832 227.148C408.832 225.789 406.98 225.062 403.816 225.039C400.605 225.062 398.766 225.789 398.777 227.148ZM432.504 209.992V222.484H430.277V217.164H426.363V215.336H430.277V209.992H432.504ZM414.996 220.586C418.254 219.449 420.258 216.613 420.246 213.719V213.25H415.699V211.445H427.02V213.25H422.52V213.695C422.508 216.355 424.406 218.945 427.582 220.023L426.434 221.781C424.078 220.973 422.344 219.285 421.43 217.211C420.516 219.555 418.676 221.441 416.168 222.367L414.996 220.586ZM418.371 227.031C418.359 224.535 421.055 223.082 425.473 223.07C429.867 223.082 432.562 224.535 432.574 227.031C432.562 229.527 429.867 230.98 425.473 230.992C421.055 230.98 418.359 229.527 418.371 227.031ZM420.574 227.031C420.562 228.449 422.391 229.258 425.473 229.234C428.531 229.258 430.359 228.449 430.371 227.031C430.359 225.602 428.531 224.793 425.473 224.805C422.391 224.793 420.562 225.602 420.574 227.031ZM446.121 213.461V215.266H435.691V213.461H439.816V210.602H442.02V213.461H446.121ZM436.371 221.359C436.359 218.535 438.281 216.531 440.918 216.531C443.578 216.531 445.477 218.535 445.488 221.359C445.477 224.23 443.578 226.246 440.918 226.234C438.281 226.246 436.359 224.23 436.371 221.359ZM438.34 221.359C438.328 223.141 439.406 224.336 440.918 224.336C442.43 224.336 443.52 223.141 443.52 221.359C443.52 219.613 442.43 218.395 440.918 218.383C439.406 218.395 438.328 219.613 438.34 221.359ZM447.082 230.008V210.461H449.191V218.734H451.605V209.992H453.715V230.992H451.605V220.562H449.191V230.008H447.082ZM479.355 219.953V221.781H464.73V211.867H479.168V213.695H466.934V219.953H479.355ZM462.34 228.227V226.375H481.559V228.227H462.34ZM500.496 210.016V221.594H498.27V210.016H500.496ZM484.137 212.805V211H493.793V216.859H486.363V219.344C490.043 219.332 492.727 219.238 495.926 218.711L496.207 220.516C492.773 221.078 489.914 221.172 485.941 221.195H484.184V215.125H491.59V212.805H484.137ZM486.715 230.734V222.578H488.941V224.852H498.293V222.578H500.496V230.734H486.715ZM488.941 228.93H498.293V226.609H488.941V228.93ZM521.262 209.992V230.992H519.035V209.992H521.262ZM505.113 225.648V212.031H507.316V223.727C510.387 223.715 513.609 223.445 516.973 222.766L517.277 224.641C513.562 225.402 510.188 225.66 506.871 225.648H505.113ZM540.926 209.992V218.125H544.301V219.953H540.926V231.039H538.699V209.992H540.926ZM525.457 225.812V212.008H535.277V213.812H527.684V223.961C531.211 223.949 533.848 223.797 536.848 223.258L537.129 225.133C533.836 225.719 531.047 225.824 527.145 225.812H525.457ZM547.699 229.164C546.785 229.152 546.023 228.414 546.035 227.5C546.023 226.586 546.785 225.836 547.699 225.836C548.602 225.836 549.352 226.586 549.363 227.5C549.352 228.414 548.602 229.152 547.699 229.164Z" fill="black"/>
</svg>
