<svg width="150" height="125" viewBox="0 0 150 125" fill="none" xmlns="http://www.w3.org/2000/svg">
<path d="M134.071 85.0848C129.976 95.6972 119.69 102.836 106.252 105.735C92.8189 108.633 76.2988 107.274 59.8884 100.942C43.4781 94.6093 30.3275 84.5186 22.323 73.3482C14.3156 62.1737 11.4913 49.9763 15.5864 39.3639C19.6815 28.7515 29.9672 21.613 43.4053 18.7138C56.8385 15.8158 73.3587 17.1745 89.769 23.5069C106.179 29.8394 119.33 39.93 127.334 51.1004C135.342 62.275 138.166 74.4724 134.071 85.0848Z" fill="#455CF2" stroke="black"/>
<path d="M118.249 78.8862C115.248 86.6634 107.676 91.9018 97.7399 94.0191C87.8087 96.1354 75.5798 95.1131 63.4198 90.4208C51.2598 85.7285 41.5141 78.2712 35.5787 70.0324C29.6402 61.7892 27.5503 52.8228 30.5514 45.0455C33.5525 37.2683 41.1237 32.0299 51.0602 29.9126C60.9913 27.7964 73.2202 28.8186 85.3802 33.5109C97.5402 38.2032 107.286 45.6606 113.221 53.8993C119.16 62.1425 121.25 71.1089 118.249 78.8862Z" fill="#030303" stroke="white"/>
<path d="M59.5196 49.7779C58.6934 51.919 59.0187 54.4939 61.3198 56.3972L59.3594 57.7342C57.8506 56.4088 57.1099 54.7203 57.0026 52.9099C55.6204 54.3758 53.8028 55.2341 51.6133 55.1847L51.0591 52.8774C54.1804 53.0351 56.2493 51.227 57.176 48.8526L57.8721 47.0487L60.2227 47.9557L59.5196 49.7779ZM51.0505 61.9599L53.1037 56.6391L55.4543 57.5462L54.1183 61.0083L63.1563 64.4959L62.439 66.3545L51.0505 61.9599ZM60.8605 53.2472L61.5847 51.3703L64.7007 52.5727L66.0577 49.0559L68.3719 49.9489L63.6468 62.1939L61.3326 61.3009L63.9764 54.4495L60.8605 53.2472ZM75.2552 56.6874C74.6033 58.4037 75.0987 60.6465 77.5304 62.4013L75.7451 63.8268C74.056 62.5889 73.166 60.9893 72.9371 59.3309C71.6282 60.5529 69.85 61.2275 67.695 61.0345L67.2866 58.7834C70.2556 59.0916 72.2238 57.653 72.941 55.7944L69.6064 54.5076L70.3166 52.6672L73.6512 53.954L74.3403 52.1683L76.6909 53.0753L76.0018 54.861L79.3181 56.1407L78.608 57.9811L75.2552 56.6874ZM67.6143 64.2273L68.3315 62.3687L79.5014 66.679L77.2795 72.437L74.9471 71.537L76.4519 67.6375L67.6143 64.2273ZM77.4292 65.1047L81.3527 54.937L83.6851 55.8371L82.1101 59.9187L84.3513 60.7836L83.599 62.7333L81.3577 61.8684L79.7616 66.0048L77.4292 65.1047ZM95.0472 61.331C94.3335 63.1805 95.4922 65.9828 98.9467 67.8811L97.3619 69.384C94.7266 67.8855 93.1632 65.8064 92.7638 63.6948C91.0299 65.0145 88.4625 65.5102 85.5037 64.85L85.3504 62.6974C89.177 63.5773 91.9036 62.3162 92.6602 60.4099L92.8711 59.8633L95.2581 60.7844L95.0472 61.331ZM82.7768 66.9798L83.494 65.1212L98.6726 70.9784L97.9554 72.837L91.7054 70.4252L90.6015 73.286L88.3055 72.4001L89.4095 69.5393L82.7768 66.9798ZM82.1367 73.9554L84.0141 69.0902L86.3282 69.9832L85.168 72.9898L94.5704 76.618L93.8532 78.4766L82.1367 73.9554Z" fill="white"/>
</svg>
