<svg width="432" height="342" viewBox="0 0 432 342" fill="none" xmlns="http://www.w3.org/2000/svg">
<path d="M164.532 91.32H172.624V93H162.796V73.148H164.532V81.828H171.896V83.508H164.532V91.32ZM172.484 73.148V74.828H166.996V73.148H172.484ZM184.449 85.972L182.881 85.384L186.969 72.84L188.593 73.428L184.449 85.972ZM180.613 93.336L174.677 73.4L176.301 72.868L182.237 92.804L180.613 93.336ZM193.188 91.32H201.28V93H191.452V73.148H193.188V81.828H200.552V83.508H193.188V91.32ZM201.14 73.148V74.828H195.652V73.148H201.14ZM217.865 73.148H219.601V93H217.753L205.069 73.82L206.497 72.868L217.865 90.088V73.148ZM205.209 93V80.652H206.945V93H205.209ZM222.587 74.828V73.148H233.479V74.828H222.587ZM227.151 93V78.104H228.887V93H227.151ZM248.038 93.308C244.454 93.308 242.27 89.192 242.27 83.06C242.27 79.756 242.858 77.068 244.118 75.164L245.266 76.48C244.398 78.16 244.006 80.708 244.006 83.06C244.006 87.96 245.462 91.628 248.038 91.628C250.614 91.628 252.07 87.96 252.07 83.06C252.07 78.16 250.614 74.492 248.038 74.492C247.786 74.492 247.506 74.548 247.422 74.576L246.722 73.036C247.114 72.896 247.506 72.812 248.038 72.812C251.622 72.812 253.806 76.928 253.806 83.06C253.806 89.192 251.622 93.308 248.038 93.308ZM268.036 73.148V74.8H258.348V73.148H268.036ZM263.78 80.344C267.308 80.624 269.884 83.172 269.884 86.532C269.884 90.396 267.028 93.28 263.22 93.28C259.272 93.28 256.724 90.508 256.724 86.196H258.46C258.46 89.5 260.336 91.628 263.22 91.628C266.048 91.628 268.148 89.444 268.148 86.532C268.148 83.928 265.992 81.968 263.136 81.968C262.436 81.968 261.876 82.108 261.176 82.332V80.736L264.424 76.956L265.712 78.076L263.78 80.344Z" fill="#001FFE"/>
<path d="M49.0312 177.562V183.5H6.65625V177.562H23.8438V173.562H31.8438V177.562H49.0312ZM1.90625 171.875V165.562H24.2188V161.438H8.65625V144.75H16.5938V155.25H48.2812V161.438H32.1562V165.562H53.9688V171.875H1.90625ZM10.3438 192.938C10.3125 187.938 16.75 185.156 27.7812 185.125C38.8125 185.156 45.3125 187.938 45.3438 192.938C45.3125 198 38.8125 200.781 27.7812 200.75C16.75 200.781 10.3125 198 10.3438 192.938ZM18.7812 192.938C18.7812 194.688 21.8125 195.312 27.7812 195.312C33.7188 195.312 36.875 194.688 36.9062 192.938C36.875 191.156 33.7188 190.594 27.7812 190.562C21.8125 190.594 18.7812 191.156 18.7812 192.938ZM104.906 143.875V173.688H96.9062V143.875H104.906ZM57.7812 167.375C66.1875 165.375 70.5625 160.5 71.25 155.188H59.7188V148.938H71.3438V143.625H79.4688V148.938H91.0312V155.188H79.5C80.2188 160.156 84.625 164.969 93.1562 166.812L89.6562 172.875C82.8125 171.375 78.0938 167.844 75.5 163.25C72.9062 168.156 68.1562 171.938 61.2812 173.625L57.7812 167.375ZM66.7188 181.875V175.812H104.906V190.625H74.6562V194.25H106.469V200.375H66.8438V185.125H96.9688V181.875H66.7188ZM157.531 148.312C157.5 155.031 164.375 162.438 177.406 164.062L174.281 170.5C164.344 169.062 157.062 164.469 153.344 158.312C149.594 164.438 142.344 169.062 132.531 170.5L129.344 164.062C142.281 162.438 149.125 155.031 149.156 148.312V145.562H157.531V148.312ZM127.344 181.312V174.812H179.219V181.312H157.094V200.75H149.219V181.312H127.344ZM211.094 177.125V182.812H217.219V177.125H224.594V194.406C230.906 191.531 233.594 186.219 233.594 181.062V176.688H241.594V181.062C241.562 186.875 244.344 192.375 251.469 194.688L247.344 200.625C242.438 198.938 239.281 195.688 237.469 191.594C235.594 195.562 232.469 198.844 227.844 200.625L224.594 195.719V200.125H203.719V177.125H211.094ZM198.156 159.375C198.094 151.562 204.531 146.031 213.281 146C220.5 146.031 226.281 150.031 227.844 156.062H237.406V143.875H245.344V174H237.406V162.625H227.875C226.344 168.781 220.531 172.875 213.281 172.875C204.531 172.875 198.094 167.312 198.156 159.375ZM205.719 159.375C205.688 163.688 208.812 166.344 213.281 166.375C217.594 166.344 220.688 163.688 220.719 159.375C220.688 155.188 217.594 152.594 213.281 152.562C208.812 152.594 205.688 155.188 205.719 159.375ZM211.094 194.062H217.219V188.688H211.094V194.062ZM298.906 159.375V165.625H259.156V145.875H267.094V159.375H298.906ZM252.656 178V171.75H304.719V178H252.656ZM258.656 199.5V182.625H266.656V193.125H299.281V199.5H258.656ZM344.094 153.625C344.094 160.969 348.031 168.281 357.094 171.312L352.781 177.562C346.75 175.344 342.594 171.156 340.188 165.875C337.75 171.844 333.312 176.5 326.719 178.875L322.406 172.625C331.906 169.5 336 161.719 336.031 153.562V147.375H344.094V153.625ZM332.844 199.75V181.5H340.906V193.375H371.906V199.75H332.844ZM352.094 162.438V156H362.781V143.938H370.719V185.938H362.781V162.438H352.094ZM429.969 166.438V172.75H407.969V176.375H423.656V190.938H391.969V194.375H425.156V200.375H384.156V185.312H415.781V182.375H384.094V176.375H399.969V172.75H378.094V166.438H429.969ZM384.531 163.438V145.5H423.406V163.438H384.531ZM392.344 157.312H415.469V151.688H392.344V157.312ZM96.2812 230.5V236.688H87.5312C87.5312 242.375 90.7812 247.938 97.9688 250.375L94.4062 256.25C89.375 254.562 85.9688 251.375 83.9375 247.344C81.9688 251.875 78.5312 255.562 73.3438 257.562L69.5312 251.75C76.7812 248.906 79.9062 242.781 79.9688 236.688H71.1562V230.5H79.9688V224.875H87.5312V230.5H96.2812ZM79.3438 270.25C79.3125 263.5 86.9062 259.5 99.0312 259.5C111.094 259.5 118.719 263.5 118.781 270.25C118.719 276.844 111.094 280.781 99.0312 280.75C86.9062 280.781 79.3125 276.844 79.3438 270.25ZM87.3438 270.25C87.2812 273.188 91.5625 274.688 99.0312 274.688C106.438 274.688 110.719 273.188 110.719 270.25C110.719 267.156 106.438 265.562 99.0312 265.562C91.5625 265.562 87.2812 267.156 87.3438 270.25ZM98.8438 257.188V224.938H106.344V237.75H110.906V223.938H118.469V259H110.906V244.125H106.344V257.188H98.8438ZM154.031 229.812C154.031 232.781 153.844 235.688 153.406 238.5H164.906V223.812H172.844V280.75H164.906V260.312H151.156V253.938H164.906V244.812H152C148.875 255.344 141.75 264.344 128.406 270.938L124.281 264.625C137.906 257.688 144.594 248.656 145.906 236.062H127.031V229.812H154.031ZM225.094 223.875V245.688H233.156V252.25H225.094V280.625H217.094V223.875H225.094ZM179.594 264.688C193.062 257.938 200.312 248.875 201.812 236.188H182.844V229.688H209.906C209.844 246.688 203.219 261.406 184.094 270.812L179.594 264.688ZM253.781 238.188C253.75 247.406 256.312 256.906 264.094 261.875L259.781 268.062C254.844 265.094 251.75 260.156 249.938 254.344C247.906 260.781 244.5 266.188 239.344 269.312L234.469 263.438C242.906 258.219 246.031 248.188 246.031 238.562V228.75H253.781V238.188ZM258.094 249.562V243.062H265.469V224.688H272.906V278.125H265.469V249.562H258.094ZM277.219 280.75V223.875H284.844V280.75H277.219ZM342.906 267.562V274.125H290.844V267.562H302.469V253.625C298.062 250.969 295.406 246.938 295.406 241.938C295.406 232.719 304.406 226.656 316.781 226.625C329.094 226.656 338.188 232.719 338.219 241.938C338.188 246.844 335.625 250.812 331.344 253.469V267.562H342.906ZM303.281 241.938C303.281 247.5 308.625 250.938 316.781 250.938C324.812 250.938 330.312 247.5 330.344 241.938C330.312 236.219 324.812 232.906 316.781 232.938C308.625 232.906 303.281 236.219 303.281 241.938ZM310.344 267.562H323.281V256.5C321.25 256.906 319.062 257.125 316.781 257.125C314.5 257.125 312.344 256.906 310.344 256.531V267.562ZM359.094 229.75L358.281 261.438H350.281L349.469 229.75H359.094ZM349.094 270.312C349.031 267.438 351.406 265.094 354.344 265.125C357.125 265.094 359.531 267.438 359.531 270.312C359.531 273.219 357.125 275.562 354.344 275.562C351.406 275.562 349.031 273.219 349.094 270.312Z" fill="#001FFE"/>
<path d="M61.8984 317.355V319.516C61.8984 321.84 61.8984 324.369 61.2148 327.855H64.7422V329.988H54.8164V340.352H52.1914V329.988H42.4023V327.855H58.5898C59.3145 324.355 59.3145 321.799 59.3281 319.516V319.488H45.1367V317.355H61.8984ZM87.6836 315.824V340.324H85.1953V327.555H82.1602V339.121H79.6992V316.289H82.1602V325.422H85.1953V315.824H87.6836ZM67.4219 333.871V318.586H76.9375V333.871H67.4219ZM69.8828 331.793H74.5039V320.637H69.8828V331.793ZM110.051 315.742V321.484H113.633V323.617H110.051V329.223H107.453V315.742H110.051ZM90.8281 319.953V317.902H96.8438V315.605H99.4414V317.902H105.43V319.953H90.8281ZM92.168 324.902C92.1543 322.428 94.5332 320.883 98.1289 320.883C101.725 320.883 104.062 322.428 104.062 324.902C104.062 327.391 101.725 328.908 98.1289 328.895C94.5332 328.908 92.1543 327.391 92.168 324.902ZM94.2188 332.312V330.371H110.051V336.059H96.8164V338.109H110.898V340.078H94.2734V334.227H107.48V332.312H94.2188ZM94.6836 324.902C94.6562 326.229 96.0098 327.008 98.1289 327.008C100.234 327.008 101.602 326.229 101.629 324.902C101.602 323.576 100.234 322.756 98.1289 322.742C96.0098 322.756 94.6562 323.576 94.6836 324.902ZM134.387 317.984C134.373 321.238 138.352 324.287 143.164 324.93L142.152 327.062C138.146 326.42 134.633 324.342 133.033 321.457C131.434 324.342 127.92 326.42 123.941 327.062L122.902 324.93C127.701 324.287 131.666 321.279 131.68 317.984V316.645H134.387V317.984ZM121.836 331.602V329.469H144.176V331.602H134.223V340.324H131.68V331.602H121.836ZM168.43 329.195V331.301H146.008V329.195H155.934V326.871H148.879V320.637H163.016V318.449H148.824V316.398H165.613V322.551H151.449V324.848H166.105V326.871H158.504V329.195H168.43ZM148.523 335.102V333.023H165.75V340.133H163.125V335.102H148.523ZM220.602 318.312C220.588 325.531 218.236 331.957 209.527 336.387L208.078 334.418C212.371 332.23 215.023 329.592 216.514 326.475L208.57 327.227L208.16 324.984L217.307 324.41C217.689 323.152 217.922 321.812 218.018 320.418H209.418V318.312H220.602ZM220.547 327.664V325.531H225.934V315.824H228.504V340.324H225.934V327.664H220.547ZM241.328 323.043C241.314 327.145 244.008 331.383 247.781 332.996L246.359 335.02C243.475 333.748 241.178 331.041 240.043 327.773C238.908 331.273 236.611 334.254 233.754 335.648L232.25 333.598C235.941 331.861 238.676 327.268 238.703 323.043V320.445H233.098V318.285H246.906V320.445H241.328V323.043ZM249.996 340.324V315.824H252.594V340.324H249.996ZM276.328 322.988V325.066H259.457V316.699H262.027V322.988H276.328ZM256.477 330.234V328.156H278.898V330.234H256.477ZM259.266 339.75V332.559H261.863V337.617H276.492V339.75H259.266ZM309.879 327.363V329.469H287.539V327.363H309.879ZM288.715 324.027C293.158 323.549 296.672 321.553 296.959 319.16H289.59V317.027H307.883V319.16H300.432C300.732 321.539 304.191 323.549 308.73 324.027L307.801 326.078C303.549 325.586 300.035 323.795 298.709 321.211C297.355 323.795 293.869 325.586 289.617 326.078L288.715 324.027ZM290.191 335.84C290.191 332.996 293.377 331.355 298.695 331.355C303.973 331.355 307.131 332.996 307.145 335.84C307.131 338.684 303.973 340.283 298.695 340.27C293.377 340.283 290.191 338.684 290.191 335.84ZM292.816 335.84C292.803 337.385 294.949 338.232 298.695 338.219C302.387 338.232 304.547 337.385 304.547 335.84C304.547 334.254 302.387 333.406 298.695 333.379C294.949 333.406 292.803 334.254 292.816 335.84ZM332.164 315.824V330.398H329.566V324.191H325V322.059H329.566V315.824H332.164ZM311.738 328.184C315.539 326.857 317.877 323.549 317.863 320.172V319.625H312.559V317.52H325.766V319.625H320.516V320.145C320.502 323.248 322.717 326.27 326.422 327.527L325.082 329.578C322.334 328.635 320.311 326.666 319.244 324.246C318.178 326.98 316.031 329.182 313.105 330.262L311.738 328.184ZM315.676 335.703C315.662 332.791 318.807 331.096 323.961 331.082C329.088 331.096 332.232 332.791 332.246 335.703C332.232 338.615 329.088 340.311 323.961 340.324C318.807 340.311 315.662 338.615 315.676 335.703ZM318.246 335.703C318.232 337.357 320.365 338.301 323.961 338.273C327.529 338.301 329.662 337.357 329.676 335.703C329.662 334.035 327.529 333.092 323.961 333.105C320.365 333.092 318.232 334.035 318.246 335.703ZM363.855 315.824V340.324H361.367V315.824H363.855ZM342.719 321.977V319.871H347.449V316.453H350.047V319.871H354.75V321.977H342.719ZM343.512 329.195C343.498 325.805 345.699 323.467 348.68 323.453C351.729 323.467 353.902 325.805 353.902 329.195C353.902 329.346 353.902 329.482 353.889 329.633H356.746V326.133H353.547V324H356.746V316.316H359.152V339.148H356.746V331.711H353.438C352.645 333.68 350.895 334.924 348.68 334.938C345.699 334.924 343.498 332.572 343.512 329.195ZM345.781 329.195C345.768 331.301 346.984 332.709 348.68 332.695C350.416 332.709 351.633 331.301 351.66 329.195C351.633 327.062 350.416 325.682 348.68 325.668C346.984 325.682 345.768 327.062 345.781 329.195ZM377.555 317.574V319.68H370.473V322.414H377.281V324.41H370.473V327.391C373.754 327.363 375.9 327.24 378.43 326.762L378.676 328.895C375.805 329.428 373.467 329.537 369.57 329.523H367.984V317.574H377.555ZM371.211 334.008V331.902H387.863V340.324H385.293V334.008H371.211ZM379.961 330.535V316.289H382.395V322.086H385.402V315.852H387.863V330.727H385.402V324.191H382.395V330.535H379.961Z" fill="#767676"/>
<path d="M189.512 318.094V320.254H180.898V332.203C185.014 332.176 187.816 332.025 191.043 331.41L191.344 333.543C187.816 334.213 184.836 334.363 180.215 334.363H178.273V318.094H189.512ZM188.117 326.734V324.574H194.926V315.824H197.523V340.379H194.926V326.734H188.117Z" fill="black"/>
<rect x="195" y="22.4399" width="44" height="7.04" fill="#FFD945" stroke="black"/>
<rect x="197.64" y="29.48" width="38.72" height="23.76" fill="#FFD945" stroke="black"/>
<rect x="214.36" y="29.48" width="5.28" height="23.76" fill="#F8A0B0" stroke="black"/>
<rect x="213.48" y="22.4399" width="7.04" height="7.04" fill="#F8A0B0" stroke="black"/>
<rect x="214.36" y="18.0396" width="5.28" height="4.4" fill="#F8A0B0" stroke="black"/>
<path d="M204.953 13.0737C208.903 11.1882 214.36 18.4126 214.36 18.4126V22.4398H203.618C203.618 22.4398 201.365 14.786 204.953 13.0737Z" fill="#F8A0B0" stroke="black"/>
<path d="M229.047 13.0737C225.097 11.1882 219.64 18.4126 219.64 18.4126V22.4398H230.382C230.382 22.4398 232.635 14.786 229.047 13.0737Z" fill="#F8A0B0" stroke="black"/>
</svg>
