<svg width="165" height="165" viewBox="0 0 165 165" fill="none" xmlns="http://www.w3.org/2000/svg">
<path d="M102.272 21.0171L108.455 45.9524L108.556 46.3624L108.978 46.3307L134.595 44.4013L124.941 68.2084L124.782 68.5998L125.141 68.8217L147.001 82.3186L125.196 95.9039L124.838 96.1273L124.998 96.5181L134.749 120.286L109.124 118.46L108.703 118.43L108.603 118.841L102.521 143.801L82.8628 127.262L82.5396 126.99L82.2175 127.263L62.6263 143.882L56.4438 118.946L56.3422 118.536L55.921 118.568L30.3032 120.498L39.9581 96.6904L40.1168 96.299L39.7574 96.0771L17.8981 82.5803L39.7025 68.9949L40.061 68.7715L39.9007 68.3807L30.1493 44.613L55.7748 46.4385L56.1961 46.4686L56.2961 46.0582L62.3774 21.0979L82.0358 37.6371L82.359 37.909L82.6811 37.6358L102.272 21.0171Z" fill="#F1D722" stroke="black"/>
<path d="M96.2688 37.9936L100.65 55.6652L100.752 56.0752L101.173 56.0435L119.328 54.6761L112.486 71.5481L112.327 71.9395L112.687 72.1614L128.178 81.7265L112.726 91.3544L112.367 91.5778L112.527 91.9686L119.438 108.813L101.277 107.519L100.856 107.489L100.756 107.899L96.4463 125.588L82.5145 113.867L82.1913 113.595L81.8692 113.869L67.985 125.646L63.6035 107.975L63.5019 107.565L63.0807 107.596L44.9255 108.964L51.7679 92.0917L51.9266 91.7003L51.5672 91.4784L36.0756 81.9132L51.5283 72.2854L51.8868 72.062L51.7265 71.6712L44.8157 54.8271L62.9763 56.1209L63.3977 56.1509L63.4977 55.7405L67.8075 38.0513L81.7393 49.7726L82.0625 50.0445L82.3846 49.7712L96.2688 37.9936Z" fill="#F8A0B0" stroke="black"/>
<path d="M86.5109 61.2131L84.8375 66.399L87.1238 67.1367L86.5 69.0698L84.2138 68.3321L82.4384 73.834L80.0592 73.0663L84.1317 60.4454L86.5109 61.2131ZM71.9152 60.5258L72.521 58.6485L76.3686 59.89L76.9504 58.087L79.311 58.8488L78.7292 60.6517L82.5582 61.8873L81.9524 63.7646L71.9152 60.5258ZM71.4855 64.6559C72.1183 62.6949 74.279 61.9453 76.7419 62.74C79.1954 63.5317 80.4826 65.394 79.8499 67.3549C79.2201 69.3066 77.0962 70.0374 74.6426 69.2457C72.1798 68.4509 70.8557 66.6076 71.4855 64.6559ZM70.1882 74.273L71.7837 69.3287L74.1443 70.0905L73.1606 73.1388L82.3801 76.1137L81.7683 78.0097L70.1882 74.273ZM73.8089 65.4057C73.4997 66.332 74.0906 67.0768 75.2244 67.4427C76.3676 67.8115 77.3009 67.5586 77.6008 66.6292C77.9037 65.6905 77.3002 64.9212 76.1601 64.543C75.0233 64.1864 74.1025 64.464 73.8089 65.4057ZM103.803 66.7725L100.565 76.8097L98.2039 76.048L99.4934 72.0517L96.854 71.2L97.4718 69.2855L100.111 70.1372L101.443 66.0108L103.803 66.7725ZM86.7961 70.3147C89.8656 70.279 91.8433 68.4749 92.5828 66.3739L89.1813 65.2763L89.793 63.3804L98.9753 66.3433L98.3635 68.2392L94.9992 67.1536C94.4099 69.1389 94.9763 71.5176 97.3245 73.2399L95.5537 74.7208C93.8899 73.517 92.9939 71.8733 92.7485 70.1215C91.4502 71.601 89.6465 72.5479 87.4171 72.5879L86.7961 70.3147ZM87.7903 76.7103C88.4531 74.6563 91.0549 74.1619 94.6638 75.3162C98.2761 76.492 100.098 78.414 99.4447 80.4709C98.7726 82.5218 96.1739 83.007 92.5586 81.8404C88.9526 80.6768 87.1276 78.7642 87.7903 76.7103ZM90.1509 77.472C89.8391 78.4385 90.9006 79.3147 93.1404 80.0374C95.3895 80.7631 96.7629 80.6727 97.0841 79.7092C97.3897 78.7303 96.3281 77.8542 94.076 77.1377C91.8392 76.4057 90.4658 76.4961 90.1509 77.472ZM73.9715 84.8728C73.3174 86.8679 74.6513 89.7303 78.3708 91.4641L76.8237 93.0787C74.0062 91.6976 72.2816 89.6327 71.7664 87.4449C70.0634 88.9066 67.4634 89.5863 64.4072 89.0722L64.077 86.8518C68.0806 87.6101 70.8267 86.0642 71.4807 84.0691L71.7446 83.2512L74.2354 84.0549L73.9715 84.8728ZM61.8268 91.79L62.4506 89.8569L77.8783 94.8351L77.2545 96.7682L70.6745 94.645L68.8092 100.426L66.4671 99.67L68.3325 93.8893L61.8268 91.79ZM96.8442 93.3L96.2084 95.2703L93.9222 94.5326L93.4004 96.1497L95.6866 96.8874L95.0569 98.8391L92.7706 98.1014L91.9909 100.518L89.6117 99.75L92.9045 89.5455L95.2837 90.3132L94.5579 92.5623L96.8442 93.3ZM81.5346 89.0372L82.1344 87.1784L89.904 89.6855L88.2786 94.7227L82.8882 92.9834L82.4084 94.4704C85.2025 95.3514 87.1314 95.861 89.4105 96.1757L89.059 98.1556C86.4864 97.8283 84.2846 97.2102 80.8552 96.1036L79.424 95.6417L81.1034 90.4372L86.5495 92.1946L86.9994 90.8005L81.5346 89.0372ZM79.4817 100.36C80.1385 98.3248 82.7526 97.824 86.3307 98.9786C89.8437 100.112 91.672 102.046 91.0246 104.085C90.3705 106.08 87.7744 106.525 84.2614 105.391C80.6833 104.237 78.837 102.358 79.4817 100.36ZM81.8238 101.116C81.5083 102.03 82.5728 102.897 84.8312 103.625C87.0617 104.345 88.3857 104.249 88.6825 103.329C88.9854 102.39 87.9704 101.529 85.7369 100.819C83.4815 100.081 82.1081 100.171 81.8238 101.116Z" fill="black"/>
</svg>
