<svg width="562" height="258" viewBox="0 0 562 258" fill="none" xmlns="http://www.w3.org/2000/svg">
<path d="M229.032 87.32H237.124V89H227.296V69.148H229.032V77.828H236.396V79.508H229.032V87.32ZM236.984 69.148V70.828H231.496V69.148H236.984ZM248.949 81.972L247.381 81.384L251.469 68.84L253.093 69.428L248.949 81.972ZM245.113 89.336L239.177 69.4L240.801 68.868L246.737 88.804L245.113 89.336ZM257.688 87.32H265.78V89H255.952V69.148H257.688V77.828H265.052V79.508H257.688V87.32ZM265.64 69.148V70.828H260.152V69.148H265.64ZM282.365 69.148H284.101V89H282.253L269.569 69.82L270.997 68.868L282.365 86.088V69.148ZM269.709 89V76.652H271.445V89H269.709ZM287.087 70.828V69.148H297.979V70.828H287.087ZM291.651 89V74.104H293.387V89H291.651ZM312.538 89.308C308.954 89.308 306.77 85.192 306.77 79.06C306.77 75.756 307.358 73.068 308.618 71.164L309.766 72.48C308.898 74.16 308.506 76.708 308.506 79.06C308.506 83.96 309.962 87.628 312.538 87.628C315.114 87.628 316.57 83.96 316.57 79.06C316.57 74.16 315.114 70.492 312.538 70.492C312.286 70.492 312.006 70.548 311.922 70.576L311.222 69.036C311.614 68.896 312.006 68.812 312.538 68.812C316.122 68.812 318.306 72.928 318.306 79.06C318.306 85.192 316.122 89.308 312.538 89.308ZM329.68 69.932L324.612 76.624L323.212 75.616L328.308 68.868L329.68 69.932ZM335.364 78.92V80.6H330.576V89H328.84V80.6H321.308V78.92H328.84V74.44H330.576V78.92H335.364Z" fill="#001FFE"/>
<path d="M49.75 139.875V196.875H41.75V168.125H31.5V161.75H41.75V139.875H49.75ZM1.4375 180C10.5938 175.906 15.0312 166.219 15.0625 157.688V155.5H3.25V149.125H15.0625V141.125H23.0625V149.125H34.5625V155.5H23V157.688C22.9688 165.906 27.5312 175.094 36.8125 179.125L32.5625 185.25C26.0938 182.562 21.5625 177.125 19.0625 170.656C16.625 177.531 12.125 183.312 5.625 186.125L1.4375 180ZM82.9375 140.938C95.5938 140.906 103.594 145.125 103.625 152.062C103.594 158.969 95.5938 163.094 82.9375 163.062C70.3438 163.094 62.1875 158.969 62.1875 152.062C62.1875 145.125 70.3438 140.906 82.9375 140.938ZM57 172.75V166.375H108.875V172.75H57ZM63 196.125V176.75H102.688V196.125H63ZM70.5 152.062C70.4375 155.25 74.9688 156.875 82.9375 156.875C90.7812 156.875 95.375 155.25 95.375 152.062C95.375 148.781 90.7812 147.125 82.9375 147.125C74.9688 147.125 70.4375 148.781 70.5 152.062ZM70.875 189.75H94.875V183.062H70.875V189.75ZM156.062 144.562V171.875H128.75V144.562H156.062ZM135.312 195.75V177.312H143.25V189.375H174.25V195.75H135.312ZM136.625 165.625H148.188V150.938H136.625V165.625ZM164.188 181.375V139.875H172.188V156.25H179.875V162.812H172.188V181.375H164.188ZM192.688 143.688V164.844C199.625 164.719 207.094 164.188 215 162.562L215.875 169.062C206.594 170.969 197.719 171.438 189.562 171.438H184.688V143.688H192.688ZM190.625 195.75V176.938H198.688V189.375H229.375V195.75H190.625ZM219.5 180.75V139.938H227.5V155.875H235.188V162.562H227.5V180.75H219.5ZM304.312 163V169.312H252.438V163H304.312ZM254.75 155.312C265.375 154.656 271.312 151.406 273.062 147.938H257.188V141.688H299.625V147.938H283.594C285.344 151.438 291.344 154.656 302.062 155.312L299.562 161.438C289.031 160.656 281.719 157.344 278.312 152.562C274.906 157.312 267.688 160.656 257.25 161.438L254.75 155.312ZM258.438 178.25V172.438H298V186.938H266.312V190.375H299.5V196.375H258.5V181.375H290.125V178.25H258.438ZM355.688 139.875V196.75H347.75V168.25H336.438V161.75H347.75V139.875H355.688ZM307.188 180.625C321.562 173.531 327.531 164.531 328.719 152.062H309.875V145.812H336.75C336.719 162.969 331.156 177.031 311.312 186.875L307.188 180.625ZM415.062 167.562V173.938H393.5V183.812H385.438V173.938H363V167.562H415.062ZM368.375 152.75C368.375 145.531 376.625 141 389 140.938C401.312 141 409.531 145.531 409.562 152.75C409.531 160 401.312 164.5 389 164.5C376.625 164.5 368.375 160 368.375 152.75ZM369.188 195.75V178.75H377.25V189.312H409.312V195.75H369.188ZM377 152.75C376.969 156.219 381.656 158.094 389 158.125C396.344 158.094 401 156.219 401 152.75C401 149.125 396.344 147.25 389 147.25C381.656 147.25 376.969 149.125 377 152.75ZM482.438 139.875V196.75H474.812V139.875H482.438ZM433.062 154.812V148.5H442.688V141.25H450.625V148.5H460.125V154.812H433.062ZM434.312 171.125C434.281 163.062 439.469 157.438 446.438 157.438C453.562 157.438 458.688 163.062 458.688 171.125V171.562H463.75V164.75H457.5V158.25H463.75V140.812H471.188V194.25H463.75V177.812H457.312C455.312 182.125 451.344 184.812 446.438 184.812C439.469 184.812 434.281 179.188 434.312 171.125ZM441.25 171.125C441.219 175.5 443.312 178.031 446.438 178.062C449.625 178.031 451.781 175.5 451.812 171.125C451.781 166.656 449.625 164.188 446.438 164.188C443.312 164.188 441.219 166.656 441.25 171.125ZM512.938 143.688V150.062H498.062V154.75H512.375V160.812H498.062V165.844C504.375 165.781 509.031 165.531 514.312 164.625L515.125 171C508.469 172.188 502.906 172.406 494.312 172.375H490.438V143.688H512.938ZM498 183.375V177H537.312V196.75H529.375V183.375H498ZM517.375 174.188V140.938H524.812V153.812H529.75V139.938H537.312V174.625H529.75V160.188H524.812V174.188H517.375ZM556.688 145.75L555.875 177.438H547.875L547.062 145.75H556.688ZM546.688 186.312C546.625 183.438 549 181.094 551.938 181.125C554.719 181.094 557.125 183.438 557.125 186.312C557.125 189.219 554.719 191.562 551.938 191.562C549 191.562 546.625 189.219 546.688 186.312Z" fill="#001FFE"/>
<path d="M14.9883 237.102C14.9883 239.959 17.2031 242.707 20.9492 243.801L19.7188 245.824C16.9297 244.977 14.8516 243.213 13.7578 240.957C12.6914 243.5 10.5859 245.496 7.6875 246.48L6.40234 244.402C10.1484 243.213 12.418 240.273 12.418 237.102V236.691H7.08594V234.613H12.418V231.742H15.0156V234.613H20.3203V236.691H14.9883V237.102ZM9.32812 254.164C13.8809 253.426 17.4629 250.678 17.4766 247.602V247.109H20.1289V247.602C20.1152 250.773 23.6289 253.453 28.3047 254.164L27.2656 256.215C23.4375 255.586 20.252 253.686 18.7891 251.006C17.2988 253.658 14.0996 255.586 10.2578 256.215L9.32812 254.164ZM19.582 240.793V238.633H24.2305V231.824H26.8281V248.723H24.2305V240.793H19.582ZM56.9336 233.355V235.516C56.9336 237.84 56.9336 240.369 56.25 243.855H59.7773V245.988H49.8516V256.352H47.2266V245.988H37.4375V243.855H53.625C54.3496 240.355 54.3496 237.799 54.3633 235.516V235.488H40.1719V233.355H56.9336ZM82.7188 231.824V256.324H80.2305V243.555H77.1953V255.121H74.7344V232.289H77.1953V241.422H80.2305V231.824H82.7188ZM62.457 249.871V234.586H71.9727V249.871H62.457ZM64.918 247.793H69.5391V236.637H64.918V247.793ZM104.922 231.824V241.75H108.859V243.91H104.922V256.324H102.352V231.824H104.922ZM85.6992 237.785V235.652H91.7422V232.152H94.3398V235.652H100.219V237.785H85.6992ZM86.957 245.277C86.957 241.941 89.5273 239.59 93.0547 239.59C96.5684 239.59 99.1387 241.941 99.1523 245.277C99.1387 248.641 96.5684 250.979 93.0547 250.992C89.5273 250.979 86.957 248.641 86.957 245.277ZM89.4453 245.277C89.4316 247.41 90.9629 248.832 93.0547 248.805C95.1328 248.832 96.6504 247.41 96.6641 245.277C96.6504 243.186 95.1328 241.736 93.0547 241.723C90.9629 241.736 89.4316 243.186 89.4453 245.277ZM122.531 233.902V235.98H127.863V231.852H130.461V249.707H127.863V243.363H122.531V245.496H111.156V233.902H122.531ZM113.727 243.445H119.988V236.008H113.727V243.445ZM114.465 255.805V248.066H117.09V253.699H131.008V255.805H114.465ZM122.531 241.23H127.863V238.113H122.531V241.23ZM160.32 231.824V236.938H163.875V239.098H160.32V244.211H157.723V231.824H160.32ZM141.453 238.141C141.426 234.9 144.174 232.686 147.879 232.672C151.598 232.686 154.305 234.9 154.305 238.141C154.305 241.354 151.598 243.609 147.879 243.609C144.174 243.609 141.426 241.354 141.453 238.141ZM143.969 238.141C143.955 240.137 145.623 241.531 147.879 241.531C150.135 241.531 151.789 240.137 151.789 238.141C151.789 236.145 150.135 234.791 147.879 234.805C145.623 234.791 143.955 236.145 143.969 238.141ZM144.488 247.355V245.332H160.32V251.539H147.086V253.945H161.168V256.023H144.543V249.598H157.75V247.355H144.488ZM173.855 237.566C173.855 240.574 176.07 243.418 179.816 244.539L178.531 246.645C175.742 245.756 173.678 243.91 172.611 241.572C171.531 244.102 169.412 246.098 166.555 247.082L165.242 245.004C168.988 243.814 171.285 240.82 171.285 237.566V237.129H165.953V235.023H171.285V231.988H173.883V235.023H179.188V237.129H173.855V237.566ZM168.988 255.805V248.367H171.586V253.699H185.559V255.805H168.988ZM181.922 249.953V231.797H184.52V239.316H188.074V241.477H184.52V249.953H181.922ZM216.676 231.824V244.484H214.051V231.824H216.676ZM196.715 241.668C197.645 241.668 198.656 241.654 199.695 241.641V235.488H197.371V233.438H210.688V235.488H208.336V241.285C209.525 241.203 210.701 241.094 211.809 240.957L211.918 242.844C207.023 243.582 201.322 243.76 197.016 243.746L196.715 241.668ZM200.406 247.656V245.605H216.676V251.676H203.031V254H217.523V256.078H200.488V249.789H214.105V247.656H200.406ZM202.184 241.586C203.387 241.545 204.617 241.504 205.848 241.436V235.488H202.184V241.586ZM233.055 233.984C233.041 237.238 237.02 240.287 241.832 240.93L240.82 243.062C236.814 242.42 233.301 240.342 231.701 237.457C230.102 240.342 226.588 242.42 222.609 243.062L221.57 240.93C226.369 240.287 230.334 237.279 230.348 233.984V232.645H233.055V233.984ZM220.504 247.602V245.469H242.844V247.602H232.891V256.324H230.348V247.602H220.504ZM255.121 233.383V235.516H248.285V238.168H254.164V240.191H248.285V243.117C251.525 243.09 253.645 242.967 256.16 242.516L256.406 244.566C253.59 245.1 251.252 245.195 247.383 245.195H245.797V233.383H255.121ZM249.215 256.023V247.629H265.594V256.023H249.215ZM251.812 253.918H263.051V249.68H251.812V253.918ZM255.285 240V237.895H258.32V232.234H260.781V246.344H258.32V240H255.285ZM263.133 246.535V231.824H265.594V246.535H263.133ZM280.059 233.301C285.199 233.301 289.109 236.021 289.109 240.137C289.109 244.279 285.199 246.986 280.059 246.973C274.932 246.986 271.021 244.279 271.035 240.137C271.021 236.021 274.932 233.301 280.059 233.301ZM268.902 253.152V250.992H291.324V253.152H268.902ZM273.523 240.137C273.51 242.994 276.299 244.84 280.059 244.84C283.805 244.84 286.58 242.994 286.594 240.137C286.58 237.293 283.805 235.393 280.059 235.406C276.299 235.393 273.51 237.293 273.523 240.137ZM315.523 251.211V253.398H293.102V251.211H302.973V246.918H295.836V239.125H310.219V235.68H295.781V233.547H312.789V241.203H298.406V244.785H313.363V246.918H305.543V251.211H315.523ZM343.633 233.355V235.516C343.633 237.84 343.633 240.369 342.949 243.855H346.477V245.988H336.551V256.352H333.926V245.988H324.137V243.855H340.324C341.049 240.355 341.049 237.799 341.062 235.516V235.488H326.871V233.355H343.633ZM357.031 235.488C357.018 238.92 359.246 241.982 362.965 243.199L361.543 245.223C358.85 244.238 356.867 242.352 355.801 239.891C354.748 242.693 352.615 244.895 349.648 245.961L348.254 243.883C352.164 242.543 354.434 239.275 354.461 235.598V233.191H357.031V235.488ZM352.273 251.648C352.26 248.682 355.404 246.959 360.559 246.973C365.686 246.959 368.83 248.682 368.844 251.648C368.83 254.602 365.686 256.283 360.559 256.27C355.404 256.283 352.26 254.602 352.273 251.648ZM354.844 251.648C354.83 253.275 356.963 254.232 360.559 254.219C364.127 254.232 366.26 253.275 366.273 251.648C366.26 249.967 364.127 248.996 360.559 248.996C356.963 248.996 354.83 249.967 354.844 251.648ZM360.996 238.934V236.801H366.164V231.824H368.762V246.289H366.164V238.934H360.996ZM386.809 239.672V241.777H382.023V244.881C384.197 244.771 386.357 244.621 388.367 244.402L388.559 246.316C383.336 247.027 377.607 247.178 373 247.164L372.645 245.086C374.736 245.072 377.061 245.045 379.453 244.977V241.777H374.832V233.383H386.59V235.488H377.43V239.672H386.809ZM376.691 255.805V248.887H379.289V253.699H393.617V255.805H376.691ZM390.254 250.199V231.824H392.852V250.199H390.254ZM520.52 231.824V241.777H524.074V243.91H520.52V256.324H517.922V231.824H520.52ZM500.832 249.434C504.414 245.701 505.713 241.49 505.973 236.582H501.707V234.449H508.434C508.42 240.574 507.326 246.152 502.883 250.883L500.832 249.434ZM507.832 251.074C511.482 246.809 512.549 241.805 512.74 236.582H509.227V234.449H515.188C515.188 240.643 514.408 247.178 509.91 252.496L507.832 251.074ZM534.273 239.043C534.26 243.145 536.953 247.383 540.727 248.996L539.305 251.02C536.42 249.748 534.123 247.041 532.988 243.773C531.854 247.273 529.557 250.254 526.699 251.648L525.195 249.598C528.887 247.861 531.621 243.268 531.648 239.043V236.445H526.043V234.285H539.852V236.445H534.273V239.043ZM542.941 256.324V231.824H545.539V256.324H542.941ZM553.961 234.203L553.715 248.285H551.008L550.762 234.203H553.961ZM550.434 252.25C550.42 251.184 551.309 250.309 552.375 250.309C553.428 250.309 554.303 251.184 554.316 252.25C554.303 253.316 553.428 254.178 552.375 254.191C551.309 254.178 550.42 253.316 550.434 252.25Z" fill="#767676"/>
<path d="M404.691 254V234.203H407.699V243.637H407.945L416.23 234.203H420.004L412.02 243.117L420.031 254H416.395L410.023 245.168L407.699 247.848V254H404.691ZM425.5 234.203V254H422.492V234.203H425.5ZM428.535 236.801V234.203H443.875V236.801H437.723V254H434.715V236.801H428.535ZM474.992 243.363V245.469H452.652V243.363H474.992ZM453.828 240.027C458.271 239.549 461.785 237.553 462.072 235.16H454.703V233.027H472.996V235.16H465.545C465.846 237.539 469.305 239.549 473.844 240.027L472.914 242.078C468.662 241.586 465.148 239.795 463.822 237.211C462.469 239.795 458.982 241.586 454.73 242.078L453.828 240.027ZM455.305 251.84C455.305 248.996 458.49 247.355 463.809 247.355C469.086 247.355 472.244 248.996 472.258 251.84C472.244 254.684 469.086 256.283 463.809 256.27C458.49 256.283 455.305 254.684 455.305 251.84ZM457.93 251.84C457.916 253.385 460.062 254.232 463.809 254.219C467.5 254.232 469.66 253.385 469.66 251.84C469.66 250.254 467.5 249.406 463.809 249.379C460.062 249.406 457.916 250.254 457.93 251.84ZM497.277 231.824V246.398H494.68V240.191H490.113V238.059H494.68V231.824H497.277ZM476.852 244.184C480.652 242.857 482.99 239.549 482.977 236.172V235.625H477.672V233.52H490.879V235.625H485.629V236.145C485.615 239.248 487.83 242.27 491.535 243.527L490.195 245.578C487.447 244.635 485.424 242.666 484.357 240.246C483.291 242.98 481.145 245.182 478.219 246.262L476.852 244.184ZM480.789 251.703C480.775 248.791 483.92 247.096 489.074 247.082C494.201 247.096 497.346 248.791 497.359 251.703C497.346 254.615 494.201 256.311 489.074 256.324C483.92 256.311 480.775 254.615 480.789 251.703ZM483.359 251.703C483.346 253.357 485.479 254.301 489.074 254.273C492.643 254.301 494.775 253.357 494.789 251.703C494.775 250.035 492.643 249.092 489.074 249.105C485.479 249.092 483.346 250.035 483.359 251.703Z" fill="black"/>
<path d="M268.077 25.176V4.26519C268.368 2.60718 269.681 1.31158 271.312 1.04884C273.052 0.767973 274.811 1.71929 275.54 3.36824L275.722 17.5564C276.315 15.1011 278.556 13.5337 280.734 13.7965C282.402 13.9958 283.851 15.2461 284.443 16.9766C284.553 16.8316 286.02 14.9562 288.289 15.1192C290.284 15.2551 292.034 16.9132 292.38 19.151C292.909 18.9154 293.738 18.6618 294.695 18.8248C296.49 19.142 297.967 20.8362 298.386 23.1012L297.711 31.0832C298.103 32.3063 298.759 34.9338 297.994 38.0958C296.846 42.8795 293.292 45.3983 292.371 46.0143V54.4312L271.293 54.1775V45.3258C270.665 45.0359 265.726 42.6802 264.377 37.0629C263.347 32.8047 264.769 28.2565 268.058 25.176H268.077Z" fill="#FDE7D6"/>
<path d="M271.312 45.3259V54.4223H292.38V46.0054" stroke="black" stroke-miterlimit="10" stroke-linecap="round" stroke-linejoin="round"/>
<path d="M275.713 18.4266C276.679 15.5273 278.547 13.679 280.734 13.7968C282.903 13.9055 283.714 15.8172 284.206 16.7957C284.324 17.0313 284.616 17.0404 284.771 16.832C285.837 15.4458 287.432 14.8206 288.963 15.2102C290.43 15.5907 291.642 16.8501 292.198 18.5443C292.271 18.7618 292.453 18.8886 292.644 18.8343C293.155 18.6802 293.884 18.5625 294.704 18.8071C297.128 19.5138 298.003 22.6486 298.066 22.8841C298.294 23.9261 298.677 26.2364 298.066 29.0088C297.383 32.0983 295.889 33.0315 295.141 33.6567C293.793 34.7711 292.289 34.7801 291.168 33.6567C289.965 32.4517 289.601 31.3735 290.494 29.7246" stroke="black" stroke-miterlimit="10" stroke-linecap="round" stroke-linejoin="round"/>
<path d="M288.289 46.4314C289.018 46.4314 290.695 46.6942 292.454 45.915C294.221 45.1358 295.133 43.8584 295.816 42.898C297.575 40.4427 297.839 37.9059 297.939 36.8549C298.012 36.0938 298.003 35.4687 297.985 34.6623C297.958 32.8956 297.775 31.4278 297.611 30.4041" stroke="black" stroke-miterlimit="10" stroke-linecap="round" stroke-linejoin="round"/>
<path d="M277.918 31.5545C278.21 31.636 278.529 31.6813 278.857 31.6813C283.65 31.6813 284.789 26.508 284.443 16.7593" stroke="black" stroke-miterlimit="10" stroke-linecap="round" stroke-linejoin="round"/>
<path d="M283.004 29.217C282.794 31.7358 284.015 33.3757 286.184 33.3757C289.064 33.3757 292.709 28.5375 292.362 18.7888" stroke="black" stroke-miterlimit="10" stroke-linecap="round" stroke-linejoin="round"/>
<path d="M268.076 25.1763V4.79094C267.757 2.85207 269.489 1.1397 271.594 1.01286C273.781 0.886019 275.849 2.49872 275.722 4.53726V22.6032" stroke="black" stroke-miterlimit="10" stroke-linecap="round" stroke-linejoin="round"/>
<path d="M273.745 32.823C275.185 32.4697 276.497 32.1435 277.18 31.8808C280.16 30.7664 281.992 27.2238 279.714 24.542C278.319 22.9022 276.433 22.9565 274.456 23.2374C271.758 23.6179 268.569 24.6055 266.719 26.7074C265.653 27.9215 264.942 29.4526 264.468 30.9838C263.138 35.2783 264.778 39.9262 267.694 42.8345C270.555 45.6884 274.009 46.4767 275.367 46.4223" stroke="black" stroke-miterlimit="10" stroke-linecap="round" stroke-linejoin="round"/>
</svg>
