<svg width="111" height="101" viewBox="0 0 111 101" fill="none" xmlns="http://www.w3.org/2000/svg">
<path d="M93.2365 1.03296L15.7477 5.96565C6.89376 6.52926 0.254123 14.2504 1.06744 23.037L5.11343 66.7477C5.85044 74.7099 12.4978 80.8426 20.5362 80.9764L36.8641 81.2437L33.1884 99L59.2638 81.6211L85.7501 82.062C93.5617 82.192 100.29 76.6081 101.558 68.941L109.786 19.212C111.432 9.26908 103.348 0.389322 93.2365 1.03296Z" fill="#FFD945" stroke="black"/>
<path d="M34.8379 24.8906C34.8477 26.7363 36.1172 28.6113 38.998 29.3828L37.8652 31.2969C35.8535 30.7598 34.457 29.6367 33.6465 28.2012C32.875 29.832 31.4688 31.1309 29.3887 31.7656L28.1777 29.793C31.0684 28.9531 32.3574 26.9316 32.3574 24.8906V24.832H28.7832V22.8594H32.3574V20.9648H34.877V22.8594H38.4316V24.832H34.8379V24.8906ZM30.3457 36.7656C34.0273 36.2285 36.0098 34.1484 36.0293 32.3711V32.0781H38.5879V32.3711C38.5684 34.2656 40.4727 36.2676 44.291 36.7656L43.3145 38.7188C40.4141 38.3086 38.3438 37.0098 37.2793 35.291C36.1855 36.9902 34.1055 38.3086 31.2246 38.7188L30.3457 36.7656ZM37.9238 27.7812V25.75H40.7754V21.0234H43.2559V33.1523H40.7754V27.7812H37.9238ZM64.5059 22.0586V23.6602C64.4961 25.3203 64.4961 27.127 64.0469 29.6172H66.4004V31.6289H59.4668V38.8164H56.9668V31.6289H50.1895V29.6172H61.5176C61.9766 27.332 62.0156 25.584 62.0254 24.0508H52.0449V22.0586H64.5059ZM82.8848 21.0234V38.7969H80.502V29.832H78.9004V37.9766H76.5371V21.2773H78.9004V27.8008H80.502V21.0234H82.8848ZM67.9824 34.3242V22.8594H75.0527V34.3242H67.9824ZM70.3066 32.3711H72.7285V24.832H70.3066V32.3711ZM33.7539 46.043V51.4922H36.1562V53.5234H33.7539V59.3047H31.2539V46.043H33.7539ZM19.6523 49.8711V47.8984H23.6953V46.0039H26.1758V47.8984H30.1992V49.8711H19.6523ZM20.5117 53.9336C20.5117 51.873 22.3379 50.4961 24.9258 50.4961C27.5039 50.4961 29.3008 51.873 29.3008 53.9336C29.3008 55.9844 27.5039 57.332 24.9258 57.332C22.3379 57.332 20.5117 55.9844 20.5117 53.9336ZM22.2305 63.4844V58.2891H24.7109V61.4922H34.3984V63.4844H22.2305ZM22.9531 53.9336C22.9434 54.9102 23.7344 55.4375 24.9258 55.4375C26.127 55.4375 26.9375 54.9102 26.9375 53.9336C26.9375 52.9473 26.127 52.4004 24.9258 52.3906C23.7344 52.4004 22.9434 52.9473 22.9531 53.9336ZM51.918 46.0234V56.5703H49.4375V52.3711H46.6641V50.3594H49.4375V46.0234H51.918ZM36.8203 54.6172C39.7305 53.6406 41.0586 51.3164 41.1172 49.0898H37.543V47.0977H47.1914V49.0898H43.6562C43.7051 51.1602 44.9746 53.25 47.7383 54.168L46.5078 56.1211C44.5547 55.4863 43.1973 54.1973 42.4258 52.6055C41.6445 54.4121 40.2188 55.8672 38.1094 56.5898L36.8203 54.6172ZM39.7305 60.3984C39.7305 58.2402 42.0547 56.9707 45.8438 56.9609C49.6426 56.9707 51.9668 58.2402 51.9766 60.3984C51.9668 62.5566 49.6426 63.8164 45.8438 63.8164C42.0547 63.8164 39.7305 62.5566 39.7305 60.3984ZM42.2109 60.3984C42.2109 61.4141 43.4902 61.9219 45.8438 61.9219C48.207 61.9219 49.4863 61.4141 49.4961 60.3984C49.4863 59.373 48.207 58.8652 45.8438 58.875C43.4902 58.8652 42.2109 59.373 42.2109 60.3984ZM74.2422 46.0234V63.7969H71.8594V46.0234H74.2422ZM58.8125 50.6914V48.7188H61.8203V46.4531H64.3008V48.7188H67.2695V50.6914H58.8125ZM59.2031 55.7891C59.1934 53.2695 60.8145 51.5117 62.9922 51.5117C65.2188 51.5117 66.8203 53.2695 66.8203 55.7891V55.9258H68.4023V53.7969H66.4492V51.7656H68.4023V46.3164H70.7266V63.0156H68.4023V57.8789H66.3906C65.7656 59.2266 64.5254 60.0664 62.9922 60.0664C60.8145 60.0664 59.1934 58.3086 59.2031 55.7891ZM61.3711 55.7891C61.3613 57.1562 62.0156 57.9473 62.9922 57.957C63.9883 57.9473 64.6621 57.1562 64.6719 55.7891C64.6621 54.3926 63.9883 53.6211 62.9922 53.6211C62.0156 53.6211 61.3613 54.3926 61.3711 55.7891ZM83.7734 47.2148V49.207H79.125V50.6719H83.5977V52.5664H79.125V54.1387C81.0977 54.1191 82.5527 54.041 84.2031 53.7578L84.457 55.75C82.377 56.1211 80.6387 56.1895 77.9531 56.1797H76.7422V47.2148H83.7734ZM79.1055 59.6172V57.625H91.3906V63.7969H88.9102V59.6172H79.1055ZM85.1602 56.7461V46.3555H87.4844V50.3789H89.0273V46.043H91.3906V56.8828H89.0273V52.3711H87.4844V56.7461H85.1602Z" fill="black"/>
</svg>
