<svg width="269" height="29" viewBox="0 0 269 29" fill="none" xmlns="http://www.w3.org/2000/svg">
<path d="M23.5781 0.6875V21.1875H20.6094V0.6875H23.5781ZM0.515625 14.875C4.90625 13.25 7.5 9.21875 7.51562 5V2.21875H10.5469V5C10.5312 9.09375 13.125 12.8438 17.4531 14.3438L15.9219 16.7188C12.6875 15.5156 10.2969 13.1406 9.04688 10.1094C7.8125 13.3594 5.39062 15.9531 2.10938 17.2188L0.515625 14.875ZM5.26562 28.0625V19.25H8.26562V25.6562H24.4219V28.0625H5.26562ZM50.0781 2.375V4.40625C50.0938 6.875 50.0938 10.0469 49.3125 14.5312H53.5469V16.9688H47.0156V28.625H44.0781V16.9688H37.3594V28.625H34.3906V16.9688H28.0156V14.5312H46.3125C47.1562 10.3125 47.2031 7.21875 47.2031 4.8125H31.2031V2.375H50.0781ZM87.5781 0.65625V28.6562H84.7344V0.65625H87.5781ZM63.4219 7.6875V5.28125H68.8281V1.375H71.7969V5.28125H77.1719V7.6875H63.4219ZM64.3281 15.9375C64.3125 12.0625 66.8281 9.39062 70.2344 9.375C73.7188 9.39062 76.2031 12.0625 76.2031 15.9375C76.2031 16.1094 76.2031 16.2656 76.1875 16.4375H79.4531V12.4375H75.7969V10H79.4531V1.21875H82.2031V27.3125H79.4531V18.8125H75.6719C74.7656 21.0625 72.7656 22.4844 70.2344 22.5C66.8281 22.4844 64.3125 19.7969 64.3281 15.9375ZM66.9219 15.9375C66.9062 18.3438 68.2969 19.9531 70.2344 19.9375C72.2188 19.9531 73.6094 18.3438 73.6406 15.9375C73.6094 13.5 72.2188 11.9219 70.2344 11.9062C68.2969 11.9219 66.9062 13.5 66.9219 15.9375ZM103.234 2.65625V5.0625H95.1406V8.1875H102.922V10.4688H95.1406V13.875C98.8906 13.8438 101.344 13.7031 104.234 13.1562L104.516 15.5938C101.234 16.2031 98.5625 16.3281 94.1094 16.3125H92.2969V2.65625H103.234ZM95.9844 21.4375V19.0312H115.016V28.6562H112.078V21.4375H95.9844ZM105.984 17.4688V1.1875H108.766V7.8125H112.203V0.6875H115.016V17.6875H112.203V10.2188H108.766V17.4688H105.984ZM140.828 3.25V5.71875H130.984V19.375C135.688 19.3438 138.891 19.1719 142.578 18.4688L142.922 20.9062C138.891 21.6719 135.484 21.8438 130.203 21.8438H127.984V3.25H140.828ZM139.234 13.125V10.6562H147.016V0.65625H149.984V28.7188H147.016V13.125H139.234ZM187.703 22.7188V25.1875H162.078V22.7188H173.359V16.9688H165.016V2.5625H167.984V7.375H181.734V2.5625H184.672V16.9688H176.297V22.7188H187.703ZM167.984 14.5625H181.734V9.78125H167.984V14.5625ZM213.047 0.65625V28.7188H210.109V13.6562H204.984V11.1875H210.109V0.65625H213.047ZM190.703 5.59375V3.1875H203.328V13.1875H193.734V19.5625C198.203 19.5312 201.641 19.3906 205.547 18.6875L205.797 21.125C201.609 21.8594 197.922 22.0312 192.984 22.0625H190.766V10.7812H200.453V5.59375H190.703ZM239.203 0.65625V11.8125H243.547V14.2812H239.203V28.625H236.234V0.65625H239.203ZM217.422 21.1562C224.438 17.6562 228.25 12.5938 228.859 6.0625H218.828V3.59375H231.891C231.859 11.6875 228.297 18.9219 219.078 23.4688L217.422 21.1562ZM268.328 0.65625V28.6562H265.328V0.65625H268.328ZM245.328 21.1562C252.766 17.6094 256.406 12.5625 256.984 6.03125H246.672V3.65625H259.984C259.984 11.8594 256.5 18.9531 246.891 23.5625L245.328 21.1562Z" fill="white"/>
</svg>
