<svg width="641" height="262" viewBox="0 0 641 262" fill="none" xmlns="http://www.w3.org/2000/svg">
<path d="M269.032 91.32H277.124V93H267.296V73.148H269.032V81.828H276.396V83.508H269.032V91.32ZM276.984 73.148V74.828H271.496V73.148H276.984ZM288.949 85.972L287.381 85.384L291.469 72.84L293.093 73.428L288.949 85.972ZM285.113 93.336L279.177 73.4L280.801 72.868L286.737 92.804L285.113 93.336ZM297.688 91.32H305.78V93H295.952V73.148H297.688V81.828H305.052V83.508H297.688V91.32ZM305.64 73.148V74.828H300.152V73.148H305.64ZM322.365 73.148H324.101V93H322.253L309.569 73.82L310.997 72.868L322.365 90.088V73.148ZM309.709 93V80.652H311.445V93H309.709ZM327.087 74.828V73.148H337.979V74.828H327.087ZM331.651 93V78.104H333.387V93H331.651ZM352.538 93.308C348.954 93.308 346.77 89.192 346.77 83.06C346.77 79.756 347.358 77.068 348.618 75.164L349.766 76.48C348.898 78.16 348.506 80.708 348.506 83.06C348.506 87.96 349.962 91.628 352.538 91.628C355.114 91.628 356.57 87.96 356.57 83.06C356.57 78.16 355.114 74.492 352.538 74.492C352.286 74.492 352.006 74.548 351.922 74.576L351.222 73.036C351.614 72.896 352.006 72.812 352.538 72.812C356.122 72.812 358.306 76.928 358.306 83.06C358.306 89.192 356.122 93.308 352.538 93.308ZM371.584 73.148V74.828H364.64V73.148H371.584ZM368.056 80.288C371.612 80.288 374.3 83.06 374.3 86.756C374.3 90.508 371.528 93.308 367.804 93.308C363.856 93.308 361.28 90.76 361.28 86.84H363.016C363.016 89.752 364.892 91.656 367.804 91.656C370.52 91.656 372.564 89.556 372.564 86.756C372.564 84.012 370.632 81.94 368.056 81.94C366.712 81.94 365.704 82.248 364.556 82.752V77.404H366.236V80.54C366.712 80.372 367.384 80.288 368.056 80.288Z" fill="black"/>
<path d="M86.3125 143.875V155.688H94V162.188H86.3125V173.75H78.3125V143.875H86.3125ZM40.9375 168.375C55 166.062 61.0938 160.406 61.9062 154H43.75V147.75H70.875C70.8438 162.75 61.5938 171.5 44.3125 174.75L40.9375 168.375ZM48.8125 200.125V175.875H86.5V181.75H56.8125V185.125H85.9375V190.812H56.8125V194.25H87.75V200.125H48.8125ZM144.125 143.875V200.875H136.062V143.875H144.125ZM98.1875 168.125C98.1562 155.719 104.5 147.875 113.25 147.875C121.812 147.875 128.188 155.719 128.188 168.125C128.188 180.625 121.812 188.438 113.25 188.438C104.5 188.438 98.1562 180.625 98.1875 168.125ZM105.875 168.125C105.844 176.594 108.812 181.219 113.25 181.188C117.562 181.219 120.469 176.594 120.5 168.125C120.469 159.688 117.562 155.062 113.25 155.062C108.812 155.062 105.844 159.688 105.875 168.125ZM218.438 167V173.312H166.562V167H218.438ZM168.875 159.312C179.5 158.656 185.438 155.406 187.188 151.938H171.312V145.688H213.75V151.938H197.719C199.469 155.438 205.469 158.656 216.188 159.312L213.688 165.438C203.156 164.656 195.844 161.344 192.438 156.562C189.031 161.312 181.812 164.656 171.375 165.438L168.875 159.312ZM172.562 182.25V176.438H212.125V190.938H180.438V194.375H213.625V200.375H172.625V185.375H204.25V182.25H172.562ZM269.5 143.875V172.5H261.5V143.875H269.5ZM222.688 167.25C236.75 164.688 242.531 159.188 243.375 152.375H225.75V145.938H252.25C252.219 161.562 243.5 170.031 225.5 173.688L222.688 167.25ZM231.312 180.938V174.75H269.5V190.125H239.5V194H271.062V200.188H231.438V184.375H261.438V180.938H231.312ZM339.562 143.938V185.5H331.562V143.938H339.562ZM292.438 173.312C301.844 170.562 306.031 163.875 306 157.125V156.688H294.375V150.5H306V144.188H314.125V150.5H325.688V156.688H314.062V157.125C314 163.469 318.312 169.781 327.688 172.312L323.875 178.562C317.312 176.75 312.781 172.969 310.188 168.125C307.625 173.406 303 177.594 296.25 179.5L292.438 173.312ZM301.438 199.75V181.812H309.5V193.375H341.062V199.75H301.438ZM393.062 147.188V152.312C393.031 157.625 393.031 163.406 391.594 171.375H399.125V177.812H376.938V200.812H368.938V177.812H347.25V171.375H383.5C384.969 164.062 385.094 158.469 385.125 153.562H353.188V147.188H393.062ZM469.375 187.562V194.125H417.312V187.562H439.25V175.938H422.812V148.062H463.562V175.938H447.188V187.562H469.375ZM430.688 169.688H455.688V154.438H430.688V169.688ZM498.562 146.75C510.562 146.781 519.969 153.281 520 163.125C519.969 173.062 510.562 179.531 498.562 179.5C486.531 179.531 477.188 173.062 477.188 163.125C477.188 153.281 486.531 146.781 498.562 146.75ZM472.625 193.812V187.375H524.688V193.812H472.625ZM484.938 163.125C484.906 169.312 490.656 173 498.562 173C506.406 173 512.094 169.312 512.125 163.125C512.094 157.031 506.406 153.188 498.562 153.25C490.656 153.188 484.906 157.031 484.938 163.125ZM575.75 143.875V200.75H567.688V143.875H575.75ZM528.125 184.625C542.812 177.688 549.281 168.688 550.562 156.062H531.188V149.812H558.688C558.656 167.062 552.625 181.406 532.312 191L528.125 184.625ZM596.188 149.75L595.375 181.438H587.375L586.562 149.75H596.188ZM586.188 190.312C586.125 187.438 588.5 185.094 591.438 185.125C594.219 185.094 596.625 187.438 596.625 190.312C596.625 193.219 594.219 195.562 591.438 195.562C588.5 195.562 586.125 193.219 586.188 190.312Z" fill="black"/>
<path d="M23.2422 249.633V251.738H13.2891V260.297H10.7461V251.738H0.902344V249.633H23.2422ZM2.16016 245.723C6.72656 245.094 10.5273 242.373 10.6094 239.352H2.98047V237.273H21.1367V239.352H13.5625C13.6035 242.373 17.377 245.094 22.0117 245.723L21.0547 247.773C17.0352 247.145 13.5625 245.162 12.0723 242.373C10.5684 245.162 7.10938 247.145 3.14453 247.773L2.16016 245.723ZM45.5273 235.852V253.953H42.9297V247.582H37.5703V249.879H26.2773V237.465H28.875V241.621H35V237.465H37.5703V240.199H42.9297V235.852H45.5273ZM28.875 247.773H35V243.617H28.875V247.773ZM29.5312 259.805V252.176H32.1562V257.699H46.0742V259.805H29.5312ZM37.5703 245.477H42.9297V242.332H37.5703V245.477ZM76.4531 235.852V253.898H73.8555V235.852H76.4531ZM56.5469 249.004C60.334 247.814 62.6582 244.793 62.6445 241.539V241.047H57.2031V238.969H62.6445V235.934H65.2695V238.969H70.6562V241.047H65.2422V241.539C65.2285 244.615 67.6074 247.432 71.3945 248.566L70.1367 250.617C67.252 249.729 65.1055 247.883 63.998 245.518C62.9043 248.074 60.7578 250.098 57.832 251.027L56.5469 249.004ZM60.4297 259.805V252.23H63.0547V257.699H77.1914V259.805H60.4297ZM99.832 237.355V239.516C99.832 241.84 99.832 244.369 99.1484 247.855H102.676V249.988H92.75V260.352H90.125V249.988H80.3359V247.855H96.5234C97.248 244.355 97.248 241.799 97.2617 239.516V239.488H83.0703V237.355H99.832ZM125.617 235.824V260.324H123.129V235.824H125.617ZM104.809 246.406C104.809 241.102 106.887 237.779 110.086 237.793C113.066 237.779 115.076 240.609 115.377 245.203H118.152V236.289H120.641V259.121H118.152V247.309H115.391C115.158 252.094 113.121 255.061 110.086 255.047C106.887 255.061 104.809 251.725 104.809 246.406ZM107.215 246.406C107.215 250.303 108.322 252.6 110.086 252.586C111.891 252.6 113.012 250.303 113.012 246.406C113.012 242.496 111.891 240.213 110.086 240.227C108.322 240.213 107.215 242.496 107.215 246.406ZM149.789 235.824V260.324H147.328V235.824H149.789ZM128.652 253.242C133.848 250.152 136.336 246.037 136.787 240.992H129.801V238.859H139.371C139.357 241.252 139.029 243.535 138.277 245.668H142.16V236.453H144.621V259.121H142.16V247.746H137.375C135.926 250.59 133.588 253.078 130.129 255.102L128.652 253.242ZM182.191 255.074V257.207H159.77V255.074H169.586V249.25H172.156V255.074H182.191ZM160.535 247.555C165.252 246.762 169.463 243.125 169.477 239.242V237.383H172.211V239.242C172.211 243.125 176.477 246.762 181.207 247.555L180.086 249.688C176.107 248.908 172.471 246.447 170.857 243.098C169.244 246.434 165.635 248.908 161.684 249.688L160.535 247.555ZM206.363 248.211V250.316H196.629V255.074H194.059V250.316H183.941V248.211H206.363ZM186.73 259.805V252.75H189.328V257.699H203.875V259.805H186.73ZM186.812 245.668V236.973H203.465V245.668H186.812ZM189.355 243.617H200.895V239.023H189.355V243.617ZM229.141 235.824V260.324H226.652V247.773H223.508V259.066H221.074V236.316H223.508V245.641H226.652V235.824H229.141ZM209.316 254.09V238.723H211.914V251.807C214.17 251.779 216.645 251.602 219.434 251.055L219.707 253.324C216.344 253.926 213.541 254.104 210.902 254.09H209.316ZM252.191 238.176V240.582C252.178 243.604 252.178 246.994 251.262 252.012L248.637 251.738C249.58 246.994 249.58 243.521 249.594 240.582V240.281H234.719V238.176H252.191ZM232.367 257.016V254.855H240.871V246.215H243.441V254.855H254.707V257.016H232.367ZM272.59 238.203V258H268.461V242.113H268.352L263.812 244.957V241.32L268.707 238.203H272.59ZM284.867 258.273C279.904 258.273 276.91 254.582 276.91 248.102C276.91 241.635 279.932 237.93 284.867 237.93C289.803 237.93 292.824 241.635 292.824 248.102C292.824 254.609 289.816 258.273 284.867 258.273ZM281.121 248.102C281.094 252.668 282.57 254.883 284.867 254.883C287.164 254.883 288.627 252.668 288.613 248.102C288.627 243.576 287.15 241.307 284.867 241.293C282.584 241.307 281.121 243.576 281.121 248.102ZM303.352 258.273C298.389 258.273 295.395 254.582 295.395 248.102C295.395 241.635 298.416 237.93 303.352 237.93C308.287 237.93 311.309 241.635 311.309 248.102C311.309 254.609 308.301 258.273 303.352 258.273ZM299.605 248.102C299.578 252.668 301.055 254.883 303.352 254.883C305.648 254.883 307.111 252.668 307.098 248.102C307.111 243.576 305.635 241.307 303.352 241.293C301.068 241.307 299.605 243.576 299.605 248.102ZM319.348 248.102C316.381 248.102 314.781 245.941 314.781 242.824C314.781 239.693 316.463 237.52 319.348 237.52C322.314 237.52 323.9 239.693 323.914 242.824C323.9 245.969 322.273 248.102 319.348 248.102ZM317.57 242.824C317.584 244.533 318.199 245.654 319.348 245.668C320.523 245.654 321.111 244.533 321.125 242.824C321.111 241.115 320.578 239.953 319.348 239.953C318.186 239.967 317.584 241.143 317.57 242.824ZM317.625 258L331.242 238.203H334.305L320.688 258H317.625ZM328.152 253.379C328.152 250.248 329.834 248.088 332.691 248.074C335.686 248.088 337.271 250.248 337.285 253.379C337.271 256.523 335.645 258.656 332.691 258.656C329.752 258.656 328.152 256.496 328.152 253.379ZM330.941 253.379C330.955 255.088 331.57 256.223 332.691 256.223C333.895 256.223 334.482 255.088 334.496 253.379C334.482 251.67 333.936 250.508 332.691 250.535C331.543 250.521 330.955 251.697 330.941 253.379ZM366.461 235.633V241.539H369.77V244.383H366.461V250.043H362.906V235.633H366.461ZM347.539 248.703V237.301H358.723V240.09H351.012V245.887C355.633 245.859 358.162 245.709 360.938 245.121L361.238 247.91C358.162 248.58 355.236 248.689 349.617 248.703H347.539ZM349.727 255.457C349.713 252.326 353.049 250.48 358.258 250.48C363.371 250.48 366.639 252.326 366.652 255.457C366.639 258.656 363.371 260.529 358.258 260.516C353.049 260.529 349.713 258.656 349.727 255.457ZM353.172 255.457C353.158 256.961 354.99 257.754 358.258 257.754C361.416 257.754 363.248 256.961 363.262 255.457C363.248 253.994 361.416 253.229 358.258 253.242C354.99 253.229 353.158 253.994 353.172 255.457ZM380.023 240.938C380.037 243.521 381.896 246.064 385.902 247.117L384.344 249.824C381.459 249.072 379.463 247.5 378.328 245.477C377.234 247.678 375.252 249.428 372.312 250.262L370.672 247.555C374.705 246.461 376.551 243.727 376.551 240.938V240.855H371.547V238.121H376.551V235.523H380.078V238.121H385.055V240.855H380.023V240.938ZM375.102 260.242V251.273H391.836V260.242H375.102ZM378.602 257.453H388.418V254.062H378.602V257.453ZM384.426 244.984V242.168H388.363V235.633H391.836V250.207H388.363V244.984H384.426ZM414.996 237.383V247.445H403.348V237.383H414.996ZM404.961 258.246C409.418 257.809 412.904 255.58 413.082 253.379H405.945V251.41H413.137V249.113H415.707V251.41H422.926V253.379H415.762C415.939 255.512 419.344 257.754 423.801 258.246L422.926 260.242C419.084 259.777 415.912 258.137 414.436 255.977C412.932 258.164 409.719 259.777 405.863 260.242L404.961 258.246ZM405.891 245.422H412.426V239.461H405.891V245.422ZM419.781 249.824V235.824H422.352V249.824H419.781ZM442.586 248.84V253.078C444.828 252.955 447.098 252.764 449.23 252.449L449.422 254.363C443.885 255.389 437.938 255.43 433.562 255.43L433.234 253.297C435.203 253.283 437.541 253.27 439.988 253.188V248.84H442.586ZM433.891 247.664C437.541 246.611 439.824 244.055 439.961 241.047H434.547V238.941H439.988V236.016H442.586V238.941H448.082V241.047H442.586C442.723 243.932 445.047 246.406 448.711 247.391L447.508 249.414C444.582 248.58 442.395 246.803 441.287 244.479C440.221 246.926 438.061 248.799 435.121 249.633L433.891 247.664ZM450.762 260.379V235.824H453.359V260.379H450.762ZM478.324 235.824V260.324H475.836V247.664H472.664V259.066H470.285V236.316H472.664V245.531H475.836V235.824H478.324ZM458.117 254.445V238.777H467.305V240.883H460.715V252.23C463.723 252.217 465.992 252.08 468.617 251.574L468.809 253.707C465.869 254.322 463.326 254.418 459.758 254.445H458.117ZM509.141 235.633V250.207H505.668V247.035H501.02V248.84H489.207V237.465H501.02V239.27H505.668V235.633H509.141ZM492.078 255.703C492.078 252.641 495.332 250.85 500.637 250.863C505.955 250.85 509.209 252.641 509.223 255.703C509.209 258.779 505.955 260.529 500.637 260.516C495.332 260.529 492.078 258.779 492.078 255.703ZM492.68 246.078H497.602V240.227H492.68V246.078ZM495.551 255.703C495.551 257.125 497.342 257.863 500.637 257.863C503.945 257.863 505.736 257.125 505.75 255.703C505.736 254.227 503.945 253.516 500.637 253.516C497.342 253.516 495.551 254.227 495.551 255.703ZM501.02 244.219H505.668V242.031H501.02V244.219ZM535.062 247.281V250.043H525.438V252.176H532.355V260.242H514.992V252.176H521.965V250.043H512.367V247.281H535.062ZM514.363 239.105V236.316H533.039V239.105H529.785V242.906H532.875V245.695H514.527V242.906H517.59V239.105H514.363ZM518.438 257.453H528.938V254.883H518.438V257.453ZM521.09 242.906H526.285V239.105H521.09V242.906ZM546.219 242.414C546.205 246.434 548.283 250.74 552.453 252.477L550.566 255.211C547.641 253.967 545.617 251.492 544.496 248.484C543.375 251.752 541.311 254.486 538.371 255.84L536.375 253.078C540.504 251.232 542.637 246.625 542.637 242.414V240.883H537.359V238.039H551.414V240.883H546.219V242.414ZM553.875 260.516V235.633H557.402V260.516H553.875ZM580.508 235.633V241.02H583.871V243.891H580.508V249.141H576.98V235.633H580.508ZM560.656 246.625C566.467 245.395 569.297 242.77 569.734 239.707H561.914V236.973H573.59C573.604 243.562 569.502 247.732 561.914 249.441L560.656 246.625ZM564.156 260.242V250.098H567.684V252.531H577.008V250.098H580.508V260.242H564.156ZM567.684 257.426H577.008V255.211H567.684V257.426ZM604.598 235.824V245.777H608.152V247.91H604.598V260.324H602V235.824H604.598ZM584.91 253.434C588.492 249.701 589.791 245.49 590.051 240.582H585.785V238.449H592.512C592.498 244.574 591.404 250.152 586.961 254.883L584.91 253.434ZM591.91 255.074C595.561 250.809 596.627 245.805 596.818 240.582H593.305V238.449H599.266C599.266 244.643 598.486 251.178 593.988 256.496L591.91 255.074ZM618.352 243.043C618.338 247.145 621.031 251.383 624.805 252.996L623.383 255.02C620.498 253.748 618.201 251.041 617.066 247.773C615.932 251.273 613.635 254.254 610.777 255.648L609.273 253.598C612.965 251.861 615.699 247.268 615.727 243.043V240.445H610.121V238.285H623.93V240.445H618.352V243.043ZM627.02 260.324V235.824H629.617V260.324H627.02ZM638.039 238.203L637.793 252.285H635.086L634.84 238.203H638.039ZM634.512 256.25C634.498 255.184 635.387 254.309 636.453 254.309C637.506 254.309 638.381 255.184 638.395 256.25C638.381 257.316 637.506 258.178 636.453 258.191C635.387 258.178 634.498 257.316 634.512 256.25Z" fill="black"/>
<path d="M291 11L311 25.5L310.933 54L337 11H291Z" fill="#FFD945" stroke="black" stroke-miterlimit="10" stroke-linecap="round" stroke-linejoin="round"/>
<line x1="311.203" y1="25.3227" x2="336.323" y2="11.7968" stroke="black" stroke-miterlimit="10" stroke-linecap="round" stroke-linejoin="round"/>
</svg>
