<svg width="226" height="33" viewBox="0 0 226 33" fill="none" xmlns="http://www.w3.org/2000/svg">
<path d="M14.9844 10.5664C14.7656 8.45703 12.9219 7.25391 10.3281 7.25391C7.5625 7.25391 5.8125 8.67578 5.79688 10.5977C5.79688 12.7383 8.125 13.582 9.92188 14.0039L12.1094 14.5977C15 15.3008 18.625 16.8789 18.6406 20.9727C18.625 24.8008 15.5781 27.5977 10.2344 27.5977C5.17188 27.5977 1.98438 25.0664 1.76562 20.9414H5.20312C5.40625 23.4102 7.59375 24.582 10.2344 24.5977C13.125 24.582 15.2188 23.1289 15.2344 20.9102C15.2188 18.9414 13.3438 18.1445 10.9531 17.5039L8.26562 16.7852C4.625 15.7852 2.375 13.9414 2.35938 10.7852C2.375 6.87891 5.84375 4.28516 10.4219 4.28516C15.0156 4.28516 18.2188 6.91016 18.3281 10.5664H14.9844ZM40.5781 4.59766V27.2227H37.4219L25.9531 10.6914H25.7656V27.2227H22.3281V4.59766H25.5156L36.9844 21.1602H37.2031V4.59766H40.5781ZM57.5156 10.5664C57.2969 8.45703 55.4531 7.25391 52.8594 7.25391C50.0938 7.25391 48.3438 8.67578 48.3281 10.5977C48.3281 12.7383 50.6562 13.582 52.4531 14.0039L54.6406 14.5977C57.5312 15.3008 61.1562 16.8789 61.1719 20.9727C61.1562 24.8008 58.1094 27.5977 52.7656 27.5977C47.7031 27.5977 44.5156 25.0664 44.2969 20.9414H47.7344C47.9375 23.4102 50.125 24.582 52.7656 24.5977C55.6562 24.582 57.75 23.1289 57.7656 20.9102C57.75 18.9414 55.875 18.1445 53.4844 17.5039L50.7969 16.7852C47.1562 15.7852 44.9062 13.9414 44.8906 10.7852C44.9062 6.87891 48.375 4.28516 52.9531 4.28516C57.5469 4.28516 60.75 6.91016 60.8594 10.5664H57.5156ZM89.2031 24.0352V26.5352H63.5781V24.0352H74.8594V19.1289H66.7031V10.2227H83.1406V6.28516H66.6406V3.84766H86.0781V12.5977H69.6406V16.6914H86.7344V19.1289H77.7969V24.0352H89.2031ZM111.672 19.4727C117.734 19.4727 121.562 21.3945 121.578 24.6602C121.562 27.9102 117.734 29.832 111.672 29.8164C105.672 29.832 101.828 27.9102 101.828 24.6602C101.828 21.3945 105.672 19.4727 111.672 19.4727ZM99.0781 17.1602V14.7539H109.297V9.50391H112.203V14.7539H124.547V17.1602H99.0781ZM102.047 5.62891V3.25391H121.359V5.59766C121.375 7.83203 121.375 10.1445 120.578 13.0352L117.672 12.7227C118.422 9.86328 118.422 7.80078 118.422 5.62891H102.047ZM104.797 24.6602C104.766 26.4727 107.438 27.5195 111.672 27.5352C115.953 27.5195 118.609 26.4727 118.641 24.6602C118.609 22.8164 115.953 21.7383 111.672 21.7227C107.438 21.7383 104.766 22.8164 104.797 24.6602ZM152.297 17.6914V20.1289H145.797V29.8789H142.797V20.1289H136.109V29.8789H133.047V20.1289H126.672V17.6914H152.297ZM129.453 9.12891C129.469 5.34766 133.5 2.94141 139.422 2.94141C145.344 2.94141 149.406 5.34766 149.391 9.12891C149.406 12.8633 145.344 15.2227 139.422 15.1914C133.5 15.2227 129.469 12.8633 129.453 9.12891ZM132.516 9.12891C132.5 11.4258 135.266 12.8477 139.422 12.8477C143.594 12.8477 146.344 11.4258 146.359 9.12891C146.344 6.76953 143.594 5.33203 139.422 5.31641C135.266 5.33203 132.5 6.76953 132.516 9.12891ZM176.172 1.87891V13.2227H180.672V15.6914H176.172V29.8789H173.234V1.87891H176.172ZM154.203 8.69141V6.25391H161.109V2.25391H164.078V6.25391H170.797V8.69141H154.203ZM155.641 17.2539C155.641 13.4414 158.578 10.7539 162.609 10.7539C166.625 10.7539 169.562 13.4414 169.578 17.2539C169.562 21.0977 166.625 23.7695 162.609 23.7852C158.578 23.7695 155.641 21.0977 155.641 17.2539ZM158.484 17.2539C158.469 19.6914 160.219 21.3164 162.609 21.2852C164.984 21.3164 166.719 19.6914 166.734 17.2539C166.719 14.8633 164.984 13.207 162.609 13.1914C160.219 13.207 158.469 14.8633 158.484 17.2539ZM205.297 1.87891V29.8789H202.297V1.87891H205.297ZM182.297 22.3789C189.734 18.832 193.375 13.7852 193.953 7.25391H183.641V4.87891H196.953C196.953 13.082 193.469 20.1758 183.859 24.7852L182.297 22.3789Z" fill="white"/>
<path d="M217 8.22266L225 16.2227L217 24.2227" stroke="white" stroke-width="1.5" stroke-linecap="round" stroke-linejoin="round"/>
</svg>
