<svg width="430" height="262" viewBox="0 0 430 262" fill="none" xmlns="http://www.w3.org/2000/svg">
<path d="M163.032 91.32H171.124V93H161.296V73.148H163.032V81.828H170.396V83.508H163.032V91.32ZM170.984 73.148V74.828H165.496V73.148H170.984ZM182.949 85.972L181.381 85.384L185.469 72.84L187.093 73.428L182.949 85.972ZM179.113 93.336L173.177 73.4L174.801 72.868L180.737 92.804L179.113 93.336ZM191.688 91.32H199.78V93H189.952V73.148H191.688V81.828H199.052V83.508H191.688V91.32ZM199.64 73.148V74.828H194.152V73.148H199.64ZM216.365 73.148H218.101V93H216.253L203.569 73.82L204.997 72.868L216.365 90.088V73.148ZM203.709 93V80.652H205.445V93H203.709ZM221.087 74.828V73.148H231.979V74.828H221.087ZM225.651 93V78.104H227.387V93H225.651ZM246.538 93.308C242.954 93.308 240.77 89.192 240.77 83.06C240.77 79.756 241.358 77.068 242.618 75.164L243.766 76.48C242.898 78.16 242.506 80.708 242.506 83.06C242.506 87.96 243.962 91.628 246.538 91.628C249.114 91.628 250.57 87.96 250.57 83.06C250.57 78.16 249.114 74.492 246.538 74.492C246.286 74.492 246.006 74.548 245.922 74.576L245.222 73.036C245.614 72.896 246.006 72.812 246.538 72.812C250.122 72.812 252.306 76.928 252.306 83.06C252.306 89.192 250.122 93.308 246.538 93.308ZM259.564 79.924L258.164 78.888L262.616 72.812L264.016 73.82L259.564 79.924ZM262.28 93.336C258.724 93.336 256.064 90.648 256.064 87.064C256.064 83.536 258.724 80.876 262.28 80.876C265.836 80.876 268.496 83.536 268.496 87.064C268.496 90.648 265.836 93.336 262.28 93.336ZM262.28 91.684C264.828 91.684 266.76 89.724 266.76 87.092C266.76 84.488 264.828 82.528 262.28 82.528C259.732 82.528 257.8 84.488 257.8 87.092C257.8 89.724 259.732 91.684 262.28 91.684Z" fill="#001FFE"/>
<path d="M67.5625 165.375V171.688H15.6875V165.375H29.5938C31.3125 159.906 31.625 155.812 31.6875 152.25H20.5625V145.875H39.5V149.875C39.5 153.875 39.5 159 37.8125 165.375H52.125C53.5 159.938 53.8125 155.719 53.9062 152.25H42.75V145.875H61.75V149.5C61.75 153.375 61.75 158.625 60.1875 165.375H67.5625ZM21.3125 199.25V177.562H29.0625V192.75C32.3125 192.531 35.625 192.031 39 191.062L39.9375 197.438C34.5625 198.938 29.75 199.25 24.5 199.25H21.3125ZM38.75 183.75V177.875H48.0625V173.938H55.8125V177.875H64.9375V183.75H38.75ZM41.5 193C41.5312 188.312 45.9688 185.188 51.9375 185.188C57.875 185.188 62.2812 188.312 62.3125 193C62.2812 197.844 57.875 200.812 51.9375 200.812C45.9688 200.812 41.5312 197.844 41.5 193ZM48.3125 193C48.2812 194.656 49.8438 195.375 51.9375 195.375C54.0312 195.375 55.5938 194.656 55.625 193C55.5938 191.375 54.0312 190.594 51.9375 190.562C49.8438 190.594 48.2812 191.375 48.3125 193ZM118.625 143.938V176.062H110.625V143.938H118.625ZM71.875 160.25C71.875 152.125 78.5625 146.5 87.4375 146.5C96.2812 146.5 102.969 152.125 103 160.25C102.969 168.062 96.2812 173.812 87.4375 173.812C78.5625 173.812 71.875 168.062 71.875 160.25ZM79.6875 160.25C79.625 164.469 82.875 167.125 87.4375 167.125C91.875 167.125 95.0938 164.469 95.125 160.25C95.0938 155.781 91.875 153.188 87.4375 153.188C82.875 153.188 79.625 155.781 79.6875 160.25ZM80.5 200.125V178.625H118.625V200.125H80.5ZM88.375 193.75H110.812V184.938H88.375V193.75ZM140 177.125V182.812H146.125V177.125H153.5V194.406C159.812 191.531 162.5 186.219 162.5 181.062V176.688H170.5V181.062C170.469 186.875 173.25 192.375 180.375 194.688L176.25 200.625C171.344 198.938 168.188 195.688 166.375 191.594C164.5 195.562 161.375 198.844 156.75 200.625L153.5 195.719V200.125H132.625V177.125H140ZM127.062 159.375C127 151.562 133.438 146.031 142.188 146C149.406 146.031 155.188 150.031 156.75 156.062H166.312V143.875H174.25V174H166.312V162.625H156.781C155.25 168.781 149.438 172.875 142.188 172.875C133.438 172.875 127 167.312 127.062 159.375ZM134.625 159.375C134.594 163.688 137.719 166.344 142.188 166.375C146.5 166.344 149.594 163.688 149.625 159.375C149.594 155.188 146.5 152.594 142.188 152.562C137.719 152.594 134.594 155.188 134.625 159.375ZM140 194.062H146.125V188.688H140V194.062ZM227.812 159.375V165.625H188.062V145.875H196V159.375H227.812ZM181.562 178V171.75H233.625V178H181.562ZM187.562 199.5V182.625H195.562V193.125H228.188V199.5H187.562ZM303.562 167V173.312H251.688V167H303.562ZM254 159.312C264.625 158.656 270.562 155.406 272.312 151.938H256.438V145.688H298.875V151.938H282.844C284.594 155.438 290.594 158.656 301.312 159.312L298.812 165.438C288.281 164.656 280.969 161.344 277.562 156.562C274.156 161.312 266.938 164.656 256.5 165.438L254 159.312ZM257.688 182.25V176.438H297.25V190.938H265.562V194.375H298.75V200.375H257.75V185.375H289.375V182.25H257.688ZM354.938 143.875V200.75H347V172.25H335.688V165.75H347V143.875H354.938ZM306.438 184.625C320.812 177.531 326.781 168.531 327.969 156.062H309.125V149.812H336C335.969 166.969 330.406 181.031 310.562 190.875L306.438 184.625ZM388.25 144.625C400.906 144.656 408.906 148.781 408.938 155.688C408.906 162.469 400.906 166.531 388.25 166.5C375.656 166.531 367.5 162.469 367.5 155.688C367.5 148.781 375.656 144.656 388.25 144.625ZM362.312 175.812V169.438H414.188V175.812H392.188V180.75H408V200.125H368.312V180.75H384.25V175.812H362.312ZM375.812 155.688C375.75 158.812 380.281 160.438 388.25 160.438C396.094 160.438 400.688 158.812 400.688 155.688C400.688 152.406 396.094 150.719 388.25 150.75C380.281 150.719 375.75 152.406 375.812 155.688ZM376.188 193.75H400.188V187.062H376.188V193.75Z" fill="#001FFE"/>
<path d="M13.3438 238.094V240.254H4.73047V252.203C8.8457 252.176 11.6484 252.025 14.875 251.41L15.1758 253.543C11.6484 254.213 8.66797 254.363 4.04688 254.363H2.10547V238.094H13.3438ZM11.9492 246.734V244.574H18.7578V235.824H21.3555V260.379H18.7578V246.734H11.9492ZM51.1875 235.824V241.211H54.7422V243.371H51.1875V248.266H48.5898V235.824H51.1875ZM32.8945 247.473V237.41H44.3516V247.473H32.8945ZM34.3984 259.668V250.398H36.9414V257.535C38.377 257.467 40.0312 257.262 41.5898 256.742L41.9727 258.793C39.6895 259.572 37.4883 259.668 35.6562 259.668H34.3984ZM35.4375 245.395H41.8086V239.488H35.4375V245.395ZM41.125 252.586V250.672H46.0742V248.621H48.6172V250.672H53.4844V252.586H41.125ZM42.6836 256.824C42.6562 254.705 44.543 253.406 47.3047 253.379C50.0117 253.406 51.9258 254.705 51.9258 256.824C51.9258 258.943 50.0117 260.27 47.3047 260.27C44.543 260.27 42.6562 258.943 42.6836 256.824ZM44.9805 256.824C44.9805 257.863 45.9512 258.492 47.3047 258.492C48.6309 258.492 49.5879 257.863 49.6016 256.824C49.5879 255.812 48.6309 255.211 47.3047 255.184C45.9512 255.211 44.9805 255.812 44.9805 256.824ZM78.4766 248.621V250.699H56.1367V248.621H78.4766ZM58.543 241.539C58.5293 238.463 61.9609 236.631 67.293 236.645C72.5977 236.631 76.0293 238.463 76.043 241.539C76.0293 244.629 72.5977 246.502 67.293 246.516C61.9609 246.502 58.5293 244.629 58.543 241.539ZM58.9531 259.805V252.695H61.5781V257.699H75.9609V259.805H58.9531ZM61.2227 241.539C61.209 243.357 63.5332 244.383 67.293 244.383C71.0391 244.383 73.377 243.357 73.3633 241.539C73.377 239.789 71.0391 238.723 67.293 238.723C63.5332 238.723 61.209 239.789 61.2227 241.539ZM93.7344 237.656C97.3984 237.67 100.01 241.006 100.023 246.242C100.01 251.533 97.3984 254.869 93.7344 254.855C90.0703 254.869 87.459 251.533 87.4727 246.242C87.459 241.006 90.0703 237.67 93.7344 237.656ZM89.9609 246.242C89.9473 250.139 91.5059 252.531 93.7344 252.531C96.0039 252.531 97.5352 250.139 97.5352 246.242C97.5352 242.4 96.0039 239.994 93.7344 239.98C91.5059 239.994 89.9473 242.4 89.9609 246.242ZM103.66 260.324V235.824H106.258V245.422H110.195V247.609H106.258V260.324H103.66ZM118.836 242.523C118.836 246.434 120.477 250.604 123.758 252.613L122.309 254.609C120.012 253.229 118.467 250.781 117.619 247.951C116.73 251.055 115.035 253.707 112.656 255.156L111.043 253.215C114.502 251.137 116.334 246.803 116.32 242.633V238.066H118.836V242.523ZM121.105 246.598V244.438H124.906V236.289H127.367V259.121H124.906V246.598H121.105ZM129.965 260.324V235.824H132.453V260.324H129.965ZM156.762 235.824V260.324H154.273V235.824H156.762ZM135.297 252.23C136.008 252.23 136.828 252.23 137.703 252.217V240.965H135.816V238.832H147.055V240.965H145.168V251.916C146.002 251.848 146.809 251.752 147.547 251.656L147.738 253.543C143.855 254.309 138.77 254.418 135.598 254.418L135.297 252.23ZM140.055 252.176C140.943 252.162 141.859 252.121 142.762 252.08V240.965H140.055V252.176ZM146.398 247.336V245.012H149.461V236.371H151.922V259.066H149.461V247.336H146.398ZM186.895 235.824V260.379H184.297V235.824H186.895ZM167.453 246.242C167.453 241.006 170.092 237.67 173.797 237.656C177.434 237.67 180.113 241.006 180.113 246.242C180.113 251.533 177.434 254.869 173.797 254.855C170.092 254.869 167.453 251.533 167.453 246.242ZM169.969 246.242C169.955 250.139 171.514 252.531 173.797 252.531C176.039 252.531 177.598 250.139 177.598 246.242C177.598 242.4 176.039 239.994 173.797 239.98C171.514 239.994 169.955 242.4 169.969 246.242ZM211.695 235.824V254.418H209.234V235.824H211.695ZM191.844 249.879V237.766H194.305V241.785H199.035V237.766H201.441V242.824H204.449V236.262H206.91V253.652H204.449V244.93H201.441V249.879H191.844ZM194.305 247.773H199.035V243.781H194.305V247.773ZM195.453 259.805V251.902H198.023V257.699H212.406V259.805H195.453ZM234.883 248.867V250.945H217.82V237.848H234.637V239.953H220.445V243.262H234.117V245.312H220.445V248.867H234.883ZM215.004 257.234V255.102H237.426V257.234H215.004ZM259.055 247.117V249.195H251.645V255.184H261.625V257.316H239.203V255.184H249.074V249.195H241.992V237.711H258.836V239.816H244.59V247.117H259.055ZM289.516 235.852V243.125H293.016V245.258H289.516V252.34H286.918V235.852H289.516ZM270.074 249.605C271.975 249.605 274.176 249.605 276.473 249.551V247.896C273.684 247.582 271.906 246.27 271.934 244.301C271.906 242.059 274.244 240.664 277.758 240.691C281.271 240.664 283.568 242.059 283.582 244.301C283.568 246.256 281.832 247.568 279.07 247.896V249.455C281.258 249.346 283.473 249.168 285.523 248.867L285.742 250.727C280.479 251.643 274.668 251.684 270.348 251.684L270.074 249.605ZM270.703 239.871V237.93H276.473V235.633H279.07V237.93H284.84V239.871H270.703ZM273.137 255.512V253.488H289.516V260.324H286.918V255.512H273.137ZM274.395 244.301C274.395 245.449 275.666 246.201 277.758 246.188C279.822 246.201 281.107 245.449 281.094 244.301C281.107 243.125 279.822 242.441 277.758 242.469C275.666 242.441 274.395 243.125 274.395 244.301ZM314.754 235.852V253.652H312.156V235.852H314.754ZM294.93 243.562C294.943 240.021 297.76 237.506 301.465 237.492C305.156 237.506 307.973 240.021 307.973 243.562C307.973 247.158 305.156 249.66 301.465 249.66C297.76 249.66 294.943 247.158 294.93 243.562ZM297.473 243.562C297.459 245.873 299.182 247.391 301.465 247.391C303.707 247.391 305.43 245.873 305.43 243.562C305.43 241.307 303.707 239.762 301.465 239.762C299.182 239.762 297.459 241.307 297.473 243.562ZM298.73 259.805V251.848H301.355V257.699H315.492V259.805H298.73ZM330.75 239.871V241.977H318.582V239.871H323.395V236.535H325.965V239.871H330.75ZM319.375 249.086C319.361 245.791 321.604 243.453 324.68 243.453C327.783 243.453 329.998 245.791 330.012 249.086C329.998 252.436 327.783 254.787 324.68 254.773C321.604 254.787 319.361 252.436 319.375 249.086ZM321.672 249.086C321.658 251.164 322.916 252.559 324.68 252.559C326.443 252.559 327.715 251.164 327.715 249.086C327.715 247.049 326.443 245.627 324.68 245.613C322.916 245.627 321.658 247.049 321.672 249.086ZM331.871 259.176V236.371H334.332V246.023H337.148V235.824H339.609V260.324H337.148V248.156H334.332V259.176H331.871ZM372.094 255.129V257.289H349.672V255.129H359.543V250.098H352.242V237.492H354.84V241.703H366.871V237.492H369.441V250.098H362.113V255.129H372.094ZM354.84 247.992H366.871V243.809H354.84V247.992ZM381.336 242.523C381.336 246.434 382.977 250.604 386.258 252.613L384.809 254.609C382.512 253.229 380.967 250.781 380.119 247.951C379.23 251.055 377.535 253.707 375.156 255.156L373.543 253.215C377.002 251.137 378.834 246.803 378.82 242.633V238.066H381.336V242.523ZM383.605 246.598V244.438H387.406V236.289H389.867V259.121H387.406V246.598H383.605ZM392.465 260.324V235.824H394.953V260.324H392.465ZM420.492 255.102V257.262H398.07V255.102H403.43V248.703C401.42 247.596 400.189 245.846 400.203 243.645C400.189 239.789 403.977 237.26 409.227 237.246C414.49 237.26 418.277 239.789 418.277 243.645C418.277 245.805 417.102 247.541 415.133 248.648V255.102H420.492ZM402.719 243.645C402.719 246.27 405.385 247.979 409.227 247.992C413.041 247.979 415.748 246.27 415.762 243.645C415.748 241.006 413.041 239.324 409.227 239.324C405.385 239.324 402.719 241.006 402.719 243.645ZM406 255.102H412.508V249.66C411.51 249.893 410.402 250.016 409.227 250.016C408.078 250.016 406.984 249.893 406 249.66V255.102ZM426.781 238.203L426.535 252.285H423.828L423.582 238.203H426.781ZM423.254 256.25C423.24 255.184 424.129 254.309 425.195 254.309C426.248 254.309 427.123 255.184 427.137 256.25C427.123 257.316 426.248 258.178 425.195 258.191C424.129 258.178 423.24 257.316 423.254 256.25Z" fill="#767676"/>
<path d="M225.997 43.3323C227.274 42.5023 227.825 42.0373 229.634 39.9312C230.861 38.5029 234.655 33.956 234.859 27.4013C234.931 25.1213 235.021 22.2315 233.019 19.459C232.554 18.8159 230.388 15.9782 226.35 15.2583C225.59 15.1236 221.097 14.1371 217.69 17.1892C217.278 17.5585 213.928 20.528 214.231 24.3594C214.551 28.395 218.786 31.9918 223.961 32.2293C223.634 33.6431 223.102 35.3726 222.219 37.2514C221.238 39.3373 220.109 40.993 219.133 42.2242L216 44.6488" fill="#4C5EF0"/>
<path d="M225.997 43.3323C227.274 42.5023 227.825 42.0374 229.634 39.9312C230.861 38.5029 234.655 33.956 234.859 27.4013C234.931 25.1213 235.021 22.2315 233.019 19.459C232.554 18.8159 230.388 15.9782 226.35 15.2583C225.59 15.1236 221.097 14.1371 217.69 17.1892C217.278 17.5585 213.928 20.528 214.231 24.3594C214.551 28.395 218.786 31.9918 223.961 32.2293C223.634 33.6431 223.102 35.3726 222.219 37.2514C221.238 39.3373 220.109 40.993 219.133 42.2242L216 44.6488" stroke="black" stroke-linecap="round" stroke-linejoin="round"/>
<path d="M216.856 44.2522C217.993 43.4048 219.249 42.1344 220.816 40.3092C222.044 38.881 225.558 33.956 225.763 27.4013C225.834 25.1213 225.924 22.2315 223.922 19.459C223.457 18.8159 221.291 15.9782 217.253 15.2583C216.493 15.1236 212 14.1371 208.594 17.1892C208.181 17.5585 204.831 20.528 205.134 24.3594C205.454 28.395 209.431 31.9758 214.606 32.2148C214.279 33.6286 213.465 35.1611 212.408 36.953C209.733 41.4956 206.351 43.5653 205 44.6488" fill="#4C5EF0"/>
<path d="M216.856 44.2522C217.993 43.4048 219.249 42.1344 220.816 40.3092C222.044 38.881 225.558 33.956 225.763 27.4013C225.834 25.1213 225.924 22.2315 223.922 19.459C223.457 18.8159 221.291 15.9782 217.253 15.2583C216.493 15.1236 212 14.1371 208.594 17.1892C208.181 17.5585 204.831 20.528 205.134 24.3594C205.454 28.395 209.431 31.9758 214.606 32.2148C214.279 33.6286 213.465 35.1612 212.408 36.953C209.733 41.4956 206.351 43.5653 205 44.6488" stroke="black" stroke-linecap="round" stroke-linejoin="round"/>
<path d="M205.247 44.2522C206.524 43.4222 208.39 42.0373 210.2 39.9312C211.427 38.5029 215.22 33.956 215.425 27.4013C215.497 25.1213 215.586 22.2315 213.584 19.459C213.12 18.8159 210.953 15.9782 206.915 15.2583C206.155 15.1236 201.663 14.1371 198.256 17.1892C197.844 17.5585 194.494 20.528 194.797 24.3594C195.116 28.395 199.352 31.9918 204.526 32.2293C204.199 33.6431 203.668 35.3726 202.784 37.2514C201.917 39.0954 200.933 40.6033 200.043 41.7795" fill="#4C5EF0"/>
<path d="M205.247 44.2522C206.524 43.4222 208.39 42.0373 210.2 39.9312C211.427 38.5029 215.22 33.956 215.425 27.4013C215.497 25.1213 215.586 22.2315 213.584 19.459C213.12 18.8159 210.953 15.9782 206.915 15.2583C206.155 15.1236 201.663 14.1371 198.256 17.1892C197.844 17.5585 194.494 20.528 194.797 24.3594C195.116 28.395 199.352 31.9918 204.526 32.2293C204.199 33.6431 203.668 35.3726 202.784 37.2514C201.917 39.0954 200.933 40.6033 200.043 41.7795" stroke="black" stroke-linecap="round" stroke-linejoin="round"/>
<path d="M203.731 24.0856C204.246 25.7138 205.485 29.6263 204.148 33.6691C202.761 37.8612 200.984 40.7583 199.839 42.046" stroke="black" stroke-linecap="round" stroke-linejoin="round"/>
<path d="M201 42.1362L203 43.1414L206 44.6492L208 44.1466L211.5 41.6336H212.5L216.5 44.6492H218.5L222.5 41.6336L227.5 44.1466L229.5 44.6492L234 42.1362V47.1622L200.5 46.6596L201 42.1362Z" fill="white"/>
<path d="M189 46.6191C190.733 48.5123 192.726 49.9333 194.778 49.7088C197.307 49.4336 197.934 46.8798 200.396 46.8117C203.122 46.7364 203.859 49.8276 206.517 49.7088C209.095 49.5929 209.579 46.6306 212.041 46.6191C214.594 46.606 215.284 49.7841 217.814 49.7088C220.059 49.6422 220.346 47.1145 222.741 46.8595C225.589 46.5568 226.675 49.9768 229.559 49.7088C231.887 49.4915 232.318 47.1579 234.685 46.8117C236.885 46.4901 238.996 48.1458 240.507 49.7088" stroke="black" stroke-linecap="round" stroke-linejoin="round"/>
<path d="M189 41.7897C190.733 43.6829 192.726 45.1039 194.778 44.8794C197.307 44.6042 197.934 42.0504 200.396 41.9823C203.122 41.907 203.859 44.9982 206.517 44.8794C209.095 44.7635 209.579 41.8012 212.041 41.7897C214.594 41.7766 215.284 44.9547 217.814 44.8794C220.059 44.8127 220.346 42.2851 222.741 42.0301C225.589 41.7274 226.675 45.1474 229.559 44.8794C231.887 44.6621 232.318 42.3285 234.685 41.9823C236.885 41.6607 238.996 43.3164 240.507 44.8794" stroke="black" stroke-linecap="round" stroke-linejoin="round"/>
</svg>
