<svg width="310" height="32" viewBox="0 0 310 32" fill="none" xmlns="http://www.w3.org/2000/svg">
<path d="M14.1875 3.34375C20.1719 3.35938 24.5312 6.3125 24.5312 10.7812C24.5312 14.9688 20.875 17.7656 15.6562 18.1875V23.6875H27.0625V26.1562H1.4375V23.6875H12.7188V18.1875C7.53125 17.7656 3.85938 14.9688 3.875 10.7812C3.85938 6.3125 8.23438 3.35938 14.1875 3.34375ZM6.75 10.7812C6.75 13.9219 9.875 15.875 14.1875 15.9062C18.5312 15.875 21.6406 13.9219 21.6562 10.7812C21.6406 7.75 18.5312 5.75 14.1875 5.78125C9.875 5.75 6.75 7.75 6.75 10.7812ZM51.6875 8.03125V10.4375H32.4688V2.0625H35.375V8.03125H51.6875ZM29.0625 15.2812V12.9062H54.6875V15.2812H29.0625ZM32.1875 19.8438V17.5312H51.4688V24.375H35.2188V26.9688H52.4375V29.3125H32.25V22.1875H48.5312V19.8438H32.1875ZM65.875 3.65625C70.2969 3.64062 73.4844 6.375 73.5 10.3125C73.4844 14.25 70.2969 16.9844 65.875 17C61.4688 16.9844 58.2344 14.25 58.25 10.3125C58.2344 6.375 61.4688 3.64062 65.875 3.65625ZM56.9062 21.2188C62 21.2188 69.0625 21.1719 75.1875 20.2812L75.4062 22.4375C69.0781 23.6562 62.2812 23.6875 57.2812 23.6875L56.9062 21.2188ZM61.1875 10.3125C61.1562 12.7969 63.1562 14.4062 65.875 14.4062C68.5938 14.4062 70.5938 12.7969 70.5938 10.3125C70.5938 7.85938 68.5938 6.21875 65.875 6.21875C63.1562 6.21875 61.1562 7.85938 61.1875 10.3125ZM76.9375 29.7188V1.65625H79.9062V29.7188H76.9375ZM114.031 1.65625V12.5938H118.531V15.0938H114.031V29.7188H111.094V1.65625H114.031ZM93.3125 6.59375V4.1875H106.125V14.4688H96.3125V20.5312C101.109 20.5156 104.688 20.3438 108.781 19.5938L109.062 22C104.688 22.8125 100.906 23 95.6562 23.0312H93.375V12.0625H103.188V6.59375H93.3125ZM143.062 1.65625V29.7188H140.094V1.65625H143.062ZM120.844 13.5625C120.844 7.57812 123.859 3.76562 128.094 3.75C132.25 3.76562 135.312 7.57812 135.312 13.5625C135.312 19.6094 132.25 23.4219 128.094 23.4062C123.859 23.4219 120.844 19.6094 120.844 13.5625ZM123.719 13.5625C123.703 18.0156 125.484 20.75 128.094 20.75C130.656 20.75 132.438 18.0156 132.438 13.5625C132.438 9.17188 130.656 6.42188 128.094 6.40625C125.484 6.42188 123.703 9.17188 123.719 13.5625ZM173.156 23.5938V26.0312H147.531V23.5938H173.156ZM150.469 18.2812V3.59375H153.438V8.625H167.188V3.59375H170.125V18.2812H150.469ZM153.438 15.9375H167.188V10.9688H153.438V15.9375ZM208.625 23.7188V26.1875H183V23.7188H194.281V17.9688H185.938V3.5625H188.906V8.375H202.656V3.5625H205.594V17.9688H197.219V23.7188H208.625ZM188.906 15.5625H202.656V10.7812H188.906V15.5625ZM233.969 1.65625V29.7188H231.031V14.6562H225.906V12.1875H231.031V1.65625H233.969ZM211.625 6.59375V4.1875H224.25V14.1875H214.656V20.5625C219.125 20.5312 222.562 20.3906 226.469 19.6875L226.719 22.125C222.531 22.8594 218.844 23.0312 213.906 23.0625H211.688V11.7812H221.375V6.59375H211.625ZM260.125 1.65625V12.8125H264.469V15.2812H260.125V29.625H257.156V1.65625H260.125ZM238.344 22.1562C245.359 18.6562 249.172 13.5938 249.781 7.0625H239.75V4.59375H252.812C252.781 12.6875 249.219 19.9219 240 24.4688L238.344 22.1562ZM289.25 1.65625V29.6562H286.25V1.65625H289.25ZM266.25 22.1562C273.688 18.6094 277.328 13.5625 277.906 7.03125H267.594V4.65625H280.906C280.906 12.8594 277.422 19.9531 267.812 24.5625L266.25 22.1562Z" fill="white"/>
<path d="M301 7L309 15L301 23" stroke="white" stroke-width="1.5" stroke-linecap="round" stroke-linejoin="round"/>
</svg>
