<svg width="183" height="64" viewBox="0 0 183 64" fill="none" xmlns="http://www.w3.org/2000/svg">
<path d="M91.264 50.9209V14.0529H94.488V50.9209H91.264ZM99.376 50.9209V47.8009H107.592V50.9209H99.376ZM113.405 50.9209V14.0529H116.629V50.9209H113.405ZM140.059 37.8689L137.147 36.7769L144.739 13.4809L147.755 14.5729L140.059 37.8689ZM132.935 51.5449L121.911 14.5209L124.927 13.5329L135.951 50.5569L132.935 51.5449ZM156.289 47.8009H171.317V50.9209H153.065V14.0529H156.289V30.1729H169.965V33.2929H156.289V47.8009ZM171.057 14.0529V17.1729H160.865V14.0529H171.057Z" fill="white"/>
<path d="M21.528 14.132V17.252H8.632V14.132H21.528ZM14.976 27.392C21.58 27.392 26.572 32.54 26.572 39.404C26.572 46.372 21.424 51.572 14.508 51.572C7.176 51.572 2.392 46.84 2.392 39.56H5.616C5.616 44.968 9.1 48.504 14.508 48.504C19.552 48.504 23.348 44.604 23.348 39.404C23.348 34.308 19.76 30.46 14.976 30.46C12.48 30.46 10.608 31.032 8.476 31.968V22.036H11.596V27.86C12.48 27.548 13.728 27.392 14.976 27.392ZM69.0117 9.86719V36.5273H64.1875V34.3438H55.3008V31.2969H64.1875V9.86719H69.0117ZM31.0781 26.625C39.8887 26.6504 51.0098 26.5488 60.8359 25.5078L61.0898 28.6055C56.7988 29.2148 52.3301 29.5703 47.9883 29.7988V36.6289H43.2148V29.9766C39.127 30.1035 35.1914 30.1035 31.6367 30.0781L31.0781 26.625ZM34.4805 17.4844C34.4551 13.3203 38.9492 10.6289 45.8555 10.6289C52.6348 10.6289 57.1797 13.3203 57.2305 17.4844C57.1797 21.7246 52.6348 24.2891 45.8555 24.2891C38.9492 24.2891 34.4551 21.7246 34.4805 17.4844ZM37.8828 41.4023V38.0508H69.0117V47.8516H42.8086V51.3555H70.3828V54.8594H38.0859V44.6523H64.2383V41.4023H37.8828ZM39 17.4844C38.9746 19.6426 41.666 21.0391 45.8555 21.0391C49.9941 21.0391 52.6602 19.6426 52.6602 17.4844C52.6602 15.3008 49.9941 13.8789 45.8555 13.8789C41.666 13.8789 38.9746 15.3008 39 17.4844Z" fill="white"/>
<circle cx="179" cy="4" r="4" fill="#FF0000"/>
</svg>
