<svg width="750" height="1356" viewBox="0 0 750 1356" fill="none" xmlns="http://www.w3.org/2000/svg">
<rect x="653.232" y="92.3988" width="13.8045" height="47.5393" transform="rotate(-118.346 653.232 92.3988)" fill="#ADE2D8" stroke="black"/>
<rect x="696.183" y="7.8395" width="7.94419" height="30.1238" transform="rotate(-64.5653 696.183 7.8395)" fill="#ADE2D8" stroke="black"/>
<rect y="255" width="750" height="1103" fill="#4C5EF0"/>
<rect x="45.6414" y="600.44" width="84" height="8" transform="rotate(-41.5673 45.6414 600.44)" fill="#ADE2D8" stroke="black"/>
<rect x="37.5363" y="436.73" width="55.6292" height="8" transform="rotate(-4.32461 37.5363 436.73)" fill="#ADE2D8" stroke="black"/>
<path fill-rule="evenodd" clip-rule="evenodd" d="M33.2084 117.935C33.2089 117.936 33.2096 117.937 39.2321 113.467C45.2546 108.997 45.2556 108.999 45.2567 109L45.2682 109.016L45.2958 109.053L45.3917 109.184C45.4735 109.295 45.5906 109.456 45.7407 109.663C46.0408 110.078 46.4726 110.681 47.017 111.456C48.1054 113.006 49.6454 115.245 51.4818 118.048C55.1495 123.645 60.0258 131.526 64.8545 140.661C73.3139 156.665 82.2318 177.618 83.3295 197.161C102.062 200.152 122.952 207.625 138.943 223.073C152.943 236.597 162.154 257.683 167.819 274.479C170.703 283.028 172.767 290.776 174.112 296.389C174.785 299.199 175.281 301.484 175.61 303.08C175.775 303.877 175.898 304.503 175.982 304.937C176.023 305.154 176.055 305.322 176.077 305.441L176.103 305.579L176.11 305.62L176.113 305.637C176.114 305.639 176.114 305.641 168.732 306.967C161.35 308.294 161.351 308.295 161.351 308.296L161.351 308.295L161.347 308.276L161.33 308.182C161.313 308.094 161.287 307.956 161.252 307.771C161.181 307.4 161.07 306.841 160.92 306.112C160.619 304.655 160.158 302.525 159.525 299.884C158.258 294.594 156.312 287.296 153.606 279.273C148.092 262.925 139.804 244.761 128.521 233.861C115.882 221.65 98.9767 215.123 82.7712 212.275C82.7711 212.278 82.7709 212.28 82.7708 212.282C82.3344 218.502 81.8983 224.718 80.2176 230.565C77.8381 238.843 73.122 246.452 63.9559 255.349C56.3793 262.703 46.8518 266.879 37.7742 267.527C28.7637 268.169 19.274 265.294 13.6125 257.303C6.04781 246.625 6.90719 233.473 11.6037 222.887C16.2977 212.308 25.393 202.821 36.7788 198.88C43.8277 196.44 55.2358 195.046 68.1768 195.62C66.7245 180.191 59.5295 162.685 51.5932 147.671C47.0371 139.051 42.4175 131.583 38.9355 126.269C37.1971 123.616 35.7488 121.511 34.7426 120.078C34.2397 119.362 33.8477 118.815 33.5857 118.453C33.4548 118.272 33.3563 118.137 33.2928 118.05L33.2241 117.957L33.2099 117.938L33.2084 117.935ZM67.8363 210.62C56.0685 210.063 46.5037 211.387 41.6854 213.055C34.8335 215.426 28.6005 221.565 25.3148 228.971C22.0316 236.37 22.26 243.561 25.8521 248.631C27.6296 251.14 31.2646 252.953 36.7068 252.565C42.0819 252.181 48.3349 249.607 53.5087 244.585C61.3425 236.982 64.3293 231.543 65.8013 226.421C67.0097 222.217 67.2986 218.159 67.7033 212.473C67.746 211.874 67.7899 211.257 67.8363 210.62Z" fill="#A5E5D7" stroke="black"/>
<mask id="path-7-inside-1_109_1171" fill="white">
<path d="M431.107 385.673C423.189 380.903 414.17 378.266 404.929 378.019C395.689 377.772 386.542 379.924 378.38 384.264C370.218 388.604 363.321 394.985 358.359 402.785C353.398 410.585 350.542 419.537 350.07 428.769L366.185 429.592C366.515 423.145 368.509 416.893 371.974 411.446C375.439 405.999 380.257 401.542 385.957 398.511C391.656 395.48 398.045 393.977 404.498 394.15C410.952 394.322 417.25 396.164 422.78 399.495L431.107 385.673Z"/>
</mask>
<path d="M431.107 385.673C423.189 380.903 414.17 378.266 404.929 378.019C395.689 377.772 386.542 379.924 378.38 384.264C370.218 388.604 363.321 394.985 358.359 402.785C353.398 410.585 350.542 419.537 350.07 428.769L366.185 429.592C366.515 423.145 368.509 416.893 371.974 411.446C375.439 405.999 380.257 401.542 385.957 398.511C391.656 395.48 398.045 393.977 404.498 394.15C410.952 394.322 417.25 396.164 422.78 399.495L431.107 385.673Z" fill="#2DC88F" stroke="black" stroke-width="2" mask="url(#path-7-inside-1_109_1171)"/>
<rect x="628.677" y="552.279" width="13.8045" height="47.5393" transform="rotate(-28.1977 628.677 552.279)" fill="#ADE2D8" stroke="black"/>
</svg>
