<svg width="470" height="342" viewBox="0 0 470 342" fill="none" xmlns="http://www.w3.org/2000/svg">
<path d="M184.032 91.32H192.124V93H182.296V73.148H184.032V81.828H191.396V83.508H184.032V91.32ZM191.984 73.148V74.828H186.496V73.148H191.984ZM203.949 85.972L202.381 85.384L206.469 72.84L208.093 73.428L203.949 85.972ZM200.113 93.336L194.177 73.4L195.801 72.868L201.737 92.804L200.113 93.336ZM212.688 91.32H220.78V93H210.952V73.148H212.688V81.828H220.052V83.508H212.688V91.32ZM220.64 73.148V74.828H215.152V73.148H220.64ZM237.365 73.148H239.101V93H237.253L224.569 73.82L225.997 72.868L237.365 90.088V73.148ZM224.709 93V80.652H226.445V93H224.709ZM242.087 74.828V73.148H252.979V74.828H242.087ZM246.651 93V78.104H248.387V93H246.651ZM267.538 93.308C263.954 93.308 261.77 89.192 261.77 83.06C261.77 79.756 262.358 77.068 263.618 75.164L264.766 76.48C263.898 78.16 263.506 80.708 263.506 83.06C263.506 87.96 264.962 91.628 267.538 91.628C270.114 91.628 271.57 87.96 271.57 83.06C271.57 78.16 270.114 74.492 267.538 74.492C267.286 74.492 267.006 74.548 266.922 74.576L266.222 73.036C266.614 72.896 267.006 72.812 267.538 72.812C271.122 72.812 273.306 76.928 273.306 83.06C273.306 89.192 271.122 93.308 267.538 93.308ZM277.428 74.828V73.148H287.984V74.828H277.428ZM279.024 93.336L277.456 92.58L285.044 77.348L286.612 78.104L279.024 93.336Z" fill="#001FFE"/>
<path d="M128.688 195L128.625 188.188L144.875 173.25C149.094 169.219 151.375 166.719 151.375 163.125C151.375 159.094 148.344 156.594 144.188 156.625C139.938 156.594 137.156 159.281 137.188 163.625H128.25C128.219 154.781 134.781 149.125 144.312 149.125C154 149.125 160.438 154.656 160.438 162.5C160.438 167.656 157.938 171.875 148.625 180.312L141.75 187V187.25H161.062V195H128.688ZM217.75 175.25V181.625H195.625V200.75H187.75V181.625H165.875V175.25H217.75ZM168.438 165.688C179.938 164.281 186.312 158.719 187.156 153.125H170.562V146.875H213.125V153.125H196.531C197.344 158.719 203.625 164.281 215.312 165.688L212.438 171.938C202.438 170.594 195.281 166.344 191.844 160.5C188.375 166.344 181.281 170.594 171.375 171.938L168.438 165.688ZM287.812 173.438V179.688H235.812V173.438H287.812ZM241.688 189.75V183.438H281.438V200.75H273.375V189.75H241.688ZM242.312 169.875V145.125H281.75V151.312H250.312V154.5H280.438V160.375H250.312V163.812H282.25V169.875H242.312ZM336.375 143.875V157.25H344.062V163.75H336.375V176.875H328.375V143.875H336.375ZM290.875 171.688C303.406 168.375 310.562 161.875 311.812 154H293.562V147.625H320.5C320.531 162.781 311 173.406 294.062 178.125L290.875 171.688ZM298.562 189.188C298.5 182.062 306.25 177.562 317.812 177.562C329.406 177.562 336.969 182.062 337 189.188C336.969 196.375 329.406 200.812 317.812 200.812C306.25 200.812 298.5 196.375 298.562 189.188ZM306.438 189.188C306.406 192.625 310.656 194.594 317.812 194.562C324.875 194.594 329.125 192.625 329.125 189.188C329.125 185.688 324.875 183.75 317.812 183.75C310.656 183.75 306.406 185.688 306.438 189.188ZM67.875 256.062V262.5H56.125V280.75H48.125V262.5H35.6875V280.75H27.5V262.5H15.8125V256.062H67.875ZM21.9375 250.688V226H29.8125V232.312H53.6875V226H61.6875V250.688H21.9375ZM29.8125 244.375H53.6875V238.562H29.8125V244.375ZM103.25 228.562V235.062H82.1875V244.438H100.875V250.688H82.1875V261.438C90.9062 261.375 97.8438 261.031 105.812 259.812L106.562 266.25C97.625 267.562 89.4688 267.812 79.1875 267.812H74.3125V228.562H103.25ZM110.938 280.75V223.875H119V280.75H110.938ZM170.375 229.25V266.875H143.062V229.25H170.375ZM150.938 260.562H162.438V235.5H150.938V260.562ZM178.125 280.75V223.875H186.125V245.312H194.5V251.938H186.125V280.75H178.125ZM226.5 231.375C226.469 239.719 233.875 248.625 246.75 250.812L243.25 257.438C233.312 255.469 225.969 249.875 222.281 242.594C218.531 249.812 211.156 255.438 201.312 257.438L197.875 250.812C210.531 248.562 217.938 239.625 218 231.375V227.25H226.5V231.375ZM196.562 273.75V267.188H248.625V273.75H196.562ZM299.875 223.875V280.875H292V250.375H282V243.938H292V223.875H299.875ZM254.5 268V228.625H281.062V235.062H262.438V244.5H279V250.75H262.438V261.5C270.344 261.438 276.656 261.156 283.688 260.062L284.5 266.438C276.188 267.688 268.75 267.969 259 268H254.5ZM324.062 275V229.75H333.438V267.25H352.938V275H324.062ZM368.375 229.75V275H359V229.75H368.375ZM383.938 229.75L394.938 264.25H395.375L406.438 229.75H416.812L401.188 275H389.125L373.438 229.75H383.938ZM421.938 275V229.75H452.312V237.5H431.312V248.5H450.75V256.25H431.312V267.25H452.375V275H421.938Z" fill="#001FFE"/>
<path d="M21.3281 331.547V340.324H18.7305V333.598H4.73047V331.547H21.3281ZM1.25781 323.098C1.24414 319.639 3.99219 317.178 7.68359 317.191C9.76172 317.178 11.5527 317.984 12.6875 319.324H18.7305V315.824H21.3281V330.262H18.7305V326.898H12.6875C11.5391 328.238 9.76172 329.045 7.68359 329.031C3.99219 329.045 1.24414 326.584 1.25781 323.098ZM3.74609 323.098C3.73242 325.34 5.38672 326.83 7.68359 326.844C9.88477 326.83 11.5664 325.34 11.5664 323.098C11.5664 320.91 9.88477 319.393 7.68359 319.379C5.38672 319.393 3.73242 320.91 3.74609 323.098ZM13.8223 324.766H18.7305V321.457H13.8359C13.9727 321.977 14.0547 322.523 14.0547 323.098C14.0547 323.686 13.9727 324.246 13.8223 324.766ZM46.1289 315.824V340.324H43.6406V327.664H40.4688V339.066H38.0898V316.316H40.4688V325.531H43.6406V315.824H46.1289ZM25.9219 334.445V318.777H35.1094V320.883H28.5195V332.23C31.5273 332.217 33.7969 332.08 36.4219 331.574L36.6133 333.707C33.6738 334.322 31.1309 334.418 27.5625 334.445H25.9219ZM54.7148 329.797V332.859H66.2812V329.797H68.8242V340.023H52.1445V329.797H54.7148ZM49.3008 327.801V325.695H65.6934C66.2812 322.893 66.3086 320.814 66.3086 319.023H52.1172V316.891H68.8789V318.75C68.8926 320.609 68.8926 322.729 68.25 325.695H71.7227V327.801H49.3008ZM54.7148 337.891H66.2812V334.883H54.7148V337.891ZM101.418 315.824V340.324H98.9297V315.824H101.418ZM80.2812 321.977V319.871H85.0117V316.453H87.6094V319.871H92.3125V321.977H80.2812ZM81.0742 329.195C81.0605 325.805 83.2617 323.467 86.2422 323.453C89.291 323.467 91.4648 325.805 91.4648 329.195C91.4648 329.346 91.4648 329.482 91.4512 329.633H94.3086V326.133H91.1094V324H94.3086V316.316H96.7148V339.148H94.3086V331.711H91C90.207 333.68 88.457 334.924 86.2422 334.938C83.2617 334.924 81.0605 332.572 81.0742 329.195ZM83.3438 329.195C83.3301 331.301 84.5469 332.709 86.2422 332.695C87.9785 332.709 89.1953 331.301 89.2227 329.195C89.1953 327.062 87.9785 325.682 86.2422 325.668C84.5469 325.682 83.3301 327.062 83.3438 329.195ZM115.117 317.574V319.68H108.035V322.414H114.844V324.41H108.035V327.391C111.316 327.363 113.463 327.24 115.992 326.762L116.238 328.895C113.367 329.428 111.029 329.537 107.133 329.523H105.547V317.574H115.117ZM108.773 334.008V331.902H125.426V340.324H122.855V334.008H108.773ZM117.523 330.535V316.289H119.957V322.086H122.965V315.852H125.426V330.727H122.965V324.191H119.957V330.535H117.523ZM139.891 317.301C145.031 317.301 148.941 320.021 148.941 324.137C148.941 328.279 145.031 330.986 139.891 330.973C134.764 330.986 130.854 328.279 130.867 324.137C130.854 320.021 134.764 317.301 139.891 317.301ZM128.734 337.152V334.992H151.156V337.152H128.734ZM133.355 324.137C133.342 326.994 136.131 328.84 139.891 328.84C143.637 328.84 146.412 326.994 146.426 324.137C146.412 321.293 143.637 319.393 139.891 319.406C136.131 319.393 133.342 321.293 133.355 324.137ZM175.355 335.211V337.398H152.934V335.211H162.805V330.918H155.668V323.125H170.051V319.68H155.613V317.547H172.621V325.203H158.238V328.785H173.195V330.918H165.375V335.211H175.355ZM196.383 317.984V329.414H184.926V317.984H196.383ZM187.469 327.363H193.84V320.09H187.469V327.363ZM187.688 339.805V332.039H190.285V337.699H204.258V339.805H187.688ZM200.621 333.762V315.797H203.219V323.125H206.773V325.312H203.219V333.762H200.621ZM231.055 325.449V327.582H227.254V340.297H224.656V315.824H227.254V325.449H231.055ZM209.098 334.145V318.203H211.668V331.984C215.086 331.971 218.654 331.684 222.551 330.891L222.852 333.078C218.654 333.912 214.799 334.158 211.121 334.145H209.098ZM252.191 322.988V325.066H235.32V316.699H237.891V322.988H252.191ZM232.34 330.234V328.156H254.762V330.234H232.34ZM235.129 339.75V332.559H237.727V337.617H252.355V339.75H235.129ZM269.965 317.656C273.629 317.67 276.24 321.006 276.254 326.242C276.24 331.533 273.629 334.869 269.965 334.855C266.301 334.869 263.689 331.533 263.703 326.242C263.689 321.006 266.301 317.67 269.965 317.656ZM266.191 326.242C266.178 330.139 267.736 332.531 269.965 332.531C272.234 332.531 273.766 330.139 273.766 326.242C273.766 322.4 272.234 319.994 269.965 319.98C267.736 319.994 266.178 322.4 266.191 326.242ZM279.891 340.324V315.824H282.488V325.422H286.426V327.609H282.488V340.324H279.891ZM310.023 335.102V337.262H287.602V335.102H297.473V329.441H290.172V317.793H307.344V329.441H300.043V335.102H310.023ZM292.688 327.391H304.801V319.871H292.688V327.391ZM321.289 318.449V327.172H315.082V332.203C317.748 332.189 320.291 332.08 323.312 331.547L323.531 333.68C320.127 334.295 317.338 334.363 314.262 334.391H312.566V325.094H318.801V320.555H312.539V318.449H321.289ZM322.438 326.598V324.492H325.336V316.371H327.797V339.066H325.336V326.598H322.438ZM330.34 340.324V315.824H332.828V340.324H330.34ZM365.23 329.988V332.121H359.734V340.324H357.137V332.121H350.93V340.324H348.277V332.121H342.809V329.988H365.23ZM345.598 327.281V316.781H348.168V319.898H359.816V316.781H362.414V327.281H345.598ZM348.168 325.203H359.816V321.949H348.168V325.203ZM380.652 317.984V320.117H371.109V324.848H379.723V326.926H371.109V332.422C375.389 332.395 378.492 332.244 382.129 331.656L382.402 333.762C378.52 334.391 375.156 334.514 370.535 334.527H368.539V317.984H380.652ZM384.781 340.324V315.824H387.406V340.324H384.781ZM417.156 315.824V325.395H421.094V327.582H417.156V340.379H414.586V315.824H417.156ZM399.027 320.145V318.039H410.238V327.035H401.652V332.34C405.85 332.326 408.98 332.176 412.562 331.52L412.809 333.625C408.98 334.336 405.672 334.5 401.078 334.527H399.082V324.93H407.668V320.145H399.027ZM442.559 315.824V340.379H439.961V315.824H442.559ZM423.117 326.242C423.117 321.006 425.756 317.67 429.461 317.656C433.098 317.67 435.777 321.006 435.777 326.242C435.777 331.533 433.098 334.869 429.461 334.855C425.756 334.869 423.117 331.533 423.117 326.242ZM425.633 326.242C425.619 330.139 427.178 332.531 429.461 332.531C431.703 332.531 433.262 330.139 433.262 326.242C433.262 322.4 431.703 319.994 429.461 319.98C427.178 319.994 425.619 322.4 425.633 326.242ZM468.891 335.02V337.152H446.469V335.02H468.891ZM449.039 330.371V317.52H451.637V321.922H463.668V317.52H466.238V330.371H449.039ZM451.637 328.32H463.668V323.973H451.637V328.32Z" fill="#767676"/>
<path fill-rule="evenodd" clip-rule="evenodd" d="M214 24.4687C214 23.9165 214.448 23.4688 215 23.4688H247.289C247.842 23.4688 248.289 23.9165 248.289 24.4687V29.8455C248.289 30.5522 249.002 31.0359 249.659 30.7747L258.493 27.2603C259.149 26.999 259.862 27.4828 259.862 28.1894V35.3741V37.7549V45.5889C259.862 46.2956 259.149 46.7793 258.493 46.5181L249.659 43.0037C249.002 42.7425 248.289 43.2262 248.289 43.9329V48.4456C248.289 48.9979 247.842 49.4456 247.289 49.4456H215C214.448 49.4456 214 48.9979 214 48.4456V24.4687Z" fill="#FF0000"/>
<path d="M249.659 43.0037L249.844 42.5391L249.659 43.0037ZM258.493 27.2603L258.308 26.7957L258.493 27.2603ZM249.659 30.7747L249.844 31.2393L249.659 30.7747ZM258.493 46.5181L258.308 46.9827L258.493 46.5181ZM247.289 22.9688H215V23.9688H247.289V22.9688ZM248.789 29.8455V24.4687H247.789V29.8455H248.789ZM258.308 26.7957L249.474 30.3101L249.844 31.2393L258.677 27.7249L258.308 26.7957ZM260.362 35.3741V28.1894H259.362V35.3741H260.362ZM260.362 37.7549V35.3741H259.362V37.7549H260.362ZM260.362 45.5889V37.7549H259.362V45.5889H260.362ZM249.474 43.4683L258.308 46.9827L258.677 46.0535L249.844 42.5391L249.474 43.4683ZM248.789 48.4456V43.9329H247.789V48.4456H248.789ZM215 49.9456H247.289V48.9456H215V49.9456ZM213.5 24.4687V48.4456H214.5V24.4687H213.5ZM215 48.9456C214.724 48.9456 214.5 48.7217 214.5 48.4456H213.5C213.5 49.274 214.172 49.9456 215 49.9456V48.9456ZM247.789 48.4456C247.789 48.7217 247.566 48.9456 247.289 48.9456V49.9456C248.118 49.9456 248.789 49.274 248.789 48.4456H247.789ZM249.844 42.5391C248.859 42.1473 247.789 42.8728 247.789 43.9329H248.789C248.789 43.5795 249.146 43.3377 249.474 43.4683L249.844 42.5391ZM258.677 27.7249C259.006 27.5942 259.362 27.8361 259.362 28.1894H260.362C260.362 27.1294 259.293 26.4038 258.308 26.7957L258.677 27.7249ZM247.789 29.8455C247.789 30.9055 248.859 31.6311 249.844 31.2393L249.474 30.3101C249.146 30.4407 248.789 30.1989 248.789 29.8455H247.789ZM259.362 45.5889C259.362 45.9423 259.006 46.1841 258.677 46.0535L258.308 46.9827C259.293 47.3745 260.362 46.6489 260.362 45.5889H259.362ZM215 22.9688C214.172 22.9688 213.5 23.6403 213.5 24.4687H214.5C214.5 24.1926 214.724 23.9688 215 23.9688V22.9688ZM247.289 23.9688C247.566 23.9688 247.789 24.1926 247.789 24.4687H248.789C248.789 23.6403 248.118 22.9688 247.289 22.9688V23.9688Z" fill="black"/>
<path d="M236.362 35.8566C237.029 36.2415 237.029 37.2038 236.362 37.5887L230.362 41.0528C229.696 41.4377 228.862 40.9566 228.862 40.1868L228.862 33.2586C228.862 32.4888 229.696 32.0076 230.362 32.3925L236.362 35.8566Z" fill="white" stroke="black" stroke-miterlimit="10" stroke-linecap="round"/>
<path d="M234.603 19.4518C234.217 19.0659 233.759 18.7597 233.255 18.5509C232.75 18.342 232.21 18.2345 231.664 18.2345C231.118 18.2345 230.578 18.342 230.074 18.5509C229.569 18.7597 229.111 19.0659 228.725 19.4518" stroke="black" stroke-miterlimit="10" stroke-linecap="round"/>
<path d="M236.073 16.9432C235.494 16.3643 234.806 15.9051 234.05 15.5918C233.294 15.2784 232.483 15.1172 231.664 15.1172C230.845 15.1172 230.035 15.2784 229.278 15.5918C228.522 15.9051 227.835 16.3643 227.256 16.9432" stroke="black" stroke-miterlimit="10" stroke-linecap="round"/>
<path d="M239.012 15.3477C238.047 14.2864 236.901 13.4444 235.641 12.87C234.38 12.2956 233.029 12 231.664 12C230.3 12 228.948 12.2956 227.688 12.87C226.427 13.4444 225.282 14.2864 224.317 15.3477" stroke="black" stroke-miterlimit="10" stroke-linecap="round"/>
</svg>
