<svg width="653" height="497" viewBox="0 0 653 497" fill="none" xmlns="http://www.w3.org/2000/svg">
<path d="M12.04 22.5C12.04 18.328 10.556 15.808 8.484 15.808C6.496 15.808 5.04 18.328 5.04 22.5C5.04 26.672 6.496 29.164 8.484 29.164C10.556 29.164 12.04 26.672 12.04 22.5ZM1.652 22.5C1.652 16.928 4.172 13.008 8.484 13.008C12.852 13.008 15.372 16.928 15.372 22.528C15.372 28.044 12.852 31.964 8.484 31.964C4.172 31.964 1.652 28.072 1.652 22.5ZM22.82 37.732H19.348V11.188H22.82V37.732ZM34.2698 23.424V19.812H30.5178V23.424H34.2698ZM48.6338 30.844H45.3298V11.188H48.6338V30.844ZM49.3058 37.088H30.5458V28.576H34.0178V34.316H49.3058V37.088ZM37.7698 26.168H27.0178V13.232H30.5178V17.124H34.2698V13.176H37.7698V18.076H40.1498V11.664H43.4538V30.144H40.1498V20.904H37.7698V26.168ZM75.2596 31.656V34.4H51.2916V31.656H75.2596ZM71.6196 21.744H57.8156V24.628H72.5156V27.372H54.3436V13.288H72.2636V16.032H57.8156V19H71.6196V21.744ZM104.721 32.664C104.721 35.744 101.361 37.732 95.5091 37.732C89.6571 37.732 86.2411 35.744 86.2411 32.664C86.2411 29.612 89.6571 27.596 95.5091 27.596C101.361 27.596 104.721 29.612 104.721 32.664ZM107.745 25.58H83.7771V22.808H92.8491V18.188H96.3491V22.808H107.745V25.58ZM86.5211 12.14H104.665C104.665 17.096 104.301 19.336 103.825 21.492L100.465 21.044C100.913 19.28 101.165 17.684 101.165 14.884H86.5211V12.14ZM101.165 32.692C101.165 31.152 98.9811 30.396 95.5091 30.396C92.0371 30.396 89.8531 31.152 89.8531 32.692C89.8531 34.204 92.0371 34.96 95.5091 34.96C98.9811 34.96 101.165 34.204 101.165 32.692ZM130.927 37.732H127.427V11.188H130.927V37.732ZM125.579 28.716L123.619 31.432C121.267 30.228 118.019 26.868 117.235 24.292C116.591 26.98 113.931 30.536 110.823 32.048L108.723 29.444C113.203 27.064 115.387 22.976 115.387 17.404V16.676H110.067V13.904H124.179V16.676H119.027V17.376C119.027 22.976 121.575 26.644 125.579 28.716ZM158.316 27.82H150.168V25.132H158.316V27.82ZM152.1 21.156V16.004H146.22V21.156H152.1ZM163.384 25.832H159.884V11.188H163.384V25.832ZM164.672 35.296L163.076 38.012C159.268 37.592 155.376 35.492 154.396 33.644C153.416 35.548 149.384 37.676 145.604 37.956L144.008 35.296C147.396 35.128 151.036 33.672 152.212 31.516H144.988V28.856H163.664V31.516H156.58C157.728 33.672 161.256 35.184 164.672 35.296ZM155.516 23.872H142.776V13.344H155.516V23.872ZM191.698 18.272C191.698 16.536 189.458 15.22 185.902 15.22C182.29 15.22 180.078 16.536 180.078 18.272C180.078 20.036 182.29 21.38 185.902 21.38C189.458 21.38 191.698 20.036 191.698 18.272ZM183.046 37.704H179.574V28.856H173.946V26.084H197.914V28.856H192.174V37.704H188.702V28.856H183.046V37.704ZM195.338 18.272C195.338 21.8 191.642 24.18 185.902 24.18C180.162 24.18 176.466 21.8 176.466 18.272C176.466 14.8 180.162 12.42 185.902 12.42C191.642 12.42 195.338 14.8 195.338 18.272ZM200.18 19.28C200.18 15.556 203.092 12.896 207.572 12.896C212.08 12.896 214.936 15.556 214.936 19.28C214.936 22.976 212.08 25.636 207.572 25.636C203.092 25.636 200.18 22.976 200.18 19.28ZM221.544 11.188V37.732H218.1V11.188H221.544ZM216.7 28.156L216.98 30.956C214.46 31.264 210.848 31.572 208.02 31.712C205.08 31.852 201.916 31.964 199.676 31.936L199.172 28.94C202.252 28.94 204.8 28.912 207.796 28.8C211.128 28.688 214.32 28.436 216.7 28.156ZM203.764 19.252C203.764 21.212 205.192 22.724 207.572 22.724C209.98 22.724 211.408 21.212 211.408 19.252C211.408 17.348 209.98 15.836 207.572 15.836C205.192 15.836 203.764 17.348 203.764 19.252ZM240.301 28.8C239.601 29.668 238.957 30.536 238.257 31.404C236.073 30.004 233.021 26.868 232.125 23.984C231.257 26.98 228.569 30.312 225.825 31.936C225.125 31.068 224.425 30.228 223.697 29.388C228.009 26.616 230.277 22.36 230.277 17.068V13.428H233.861V16.872C233.861 22.136 236.297 26.252 240.301 28.8ZM245.061 11.188V21.408H248.897V24.264H245.061V37.732H241.617V11.188H245.061ZM254.299 23.676C254.299 24.852 255.615 25.608 257.183 25.608C258.723 25.608 260.039 24.852 260.039 23.676C260.039 22.472 258.723 21.716 257.183 21.716C255.587 21.716 254.299 22.472 254.299 23.676ZM263.483 23.676C263.483 26.392 260.795 28.212 257.183 28.212C253.543 28.212 250.799 26.392 250.799 23.676C250.799 20.932 253.515 19.112 257.183 19.112C260.795 19.112 263.483 20.932 263.483 23.676ZM253.263 14.548V11.832H261.131V14.548H253.263ZM264.827 18.412H249.427V15.696H264.827V18.412ZM261.439 31.292C257.939 31.292 255.951 32.132 255.951 33.252C255.951 34.344 257.939 35.184 261.439 35.184C264.939 35.184 266.955 34.344 266.955 33.252C266.955 32.132 264.939 31.292 261.439 31.292ZM270.511 33.224C270.511 36.136 267.123 37.788 261.439 37.788C255.783 37.788 252.395 36.136 252.395 33.224C252.395 30.34 255.783 28.66 261.439 28.66C267.123 28.66 270.511 30.34 270.511 33.224ZM273.787 21.688H270.287V28.464H266.815V11.188H270.287V18.832H273.787V21.688Z" fill="#4E516F"/>
<path d="M15.596 102.99L21.778 88.822H13.792V87.26H23.824V88.448L17.664 102.99H15.596ZM42.7327 96.786H24.2527V95.29H32.5907V92.188H34.3727V95.29H42.7327V96.786ZM33.4927 99.866C30.1927 99.866 28.1467 100.614 28.1467 101.934C28.1467 103.298 30.1927 104.024 33.4927 104.024C36.8147 104.024 38.8607 103.298 38.8607 101.934C38.8607 100.614 36.8147 99.866 33.4927 99.866ZM41.8087 91.88L40.9947 93.376C37.5847 92.826 34.5047 91.022 33.4927 89.152C32.6787 91.044 29.6427 92.87 26.0347 93.398L25.2207 91.902C28.3887 91.616 31.8647 89.988 32.4807 87.59H25.9467V86.116H41.0387V87.59H34.5267C35.1867 90.01 38.9707 91.616 41.8087 91.88ZM40.6647 101.934C40.6647 104.178 38.0687 105.454 33.4927 105.454C28.9167 105.454 26.3427 104.156 26.3427 101.934C26.3427 99.756 28.9167 98.436 33.4927 98.436C38.0687 98.436 40.6647 99.668 40.6647 101.934ZM50.855 86.38H64.495C64.495 88.998 64.407 92.848 63.747 96.082H66.937V97.578H58.577V105.52H56.795V97.578H48.457V96.082H61.965C62.229 95.092 62.383 93.662 62.493 92.232L50.591 92.738L50.305 91.176L62.559 90.802C62.625 89.636 62.647 88.558 62.647 87.854H50.855V86.38ZM84.2712 87.568H69.2892V86.094H84.2712V87.568ZM83.9412 104.882H69.9052V99.382H71.6872V103.386H83.9412V104.882ZM86.0752 97.93H67.5952V96.434H75.9112V93.992H69.3112V92.54H72.6772L72.0612 88.624L73.9092 88.382L74.3712 92.54H79.1892L79.7172 88.338L81.5652 88.58L80.9052 92.54H84.2712V93.992H77.6932V96.434H86.0752V97.93ZM95.9955 87.128C92.7615 87.128 90.6495 87.986 90.6495 89.68C90.6495 91.352 92.7395 92.21 95.9735 92.21C99.2075 92.21 101.342 91.352 101.342 89.68C101.342 87.986 99.2295 87.128 95.9955 87.128ZM103.102 89.658C103.102 92.276 100.44 93.706 95.9735 93.706C91.5075 93.706 88.8675 92.276 88.8675 89.658C88.8675 87.084 91.5295 85.654 95.9955 85.654C100.44 85.654 103.102 87.084 103.102 89.658ZM103.124 104.926H89.1755V98.964H90.9575V103.43H103.124V104.926ZM105.214 97.05H86.7335V95.554H105.214V97.05ZM113.402 94.41H114.414C117.252 94.41 120.706 94.124 122.686 93.728L122.884 95.18C120.618 95.576 116.812 95.884 113.292 95.884H111.62V86.688H120.838V88.184H113.402V94.41ZM125.062 101.538C125.062 100.064 123.214 99.118 120.112 99.118C117.032 99.118 115.206 100.086 115.206 101.538C115.206 102.99 117.032 103.936 120.112 103.936C123.214 103.936 125.062 103.012 125.062 101.538ZM126.91 101.538C126.91 103.826 124.556 105.41 120.112 105.41C115.668 105.41 113.358 103.848 113.358 101.538C113.358 99.184 115.668 97.622 120.112 97.622C124.556 97.622 126.91 99.228 126.91 101.538ZM129.77 91.924H126.646V97.292H124.864V85.06H126.646V90.428H129.77V91.924ZM135.95 87.238C133.948 87.238 132.364 88.47 132.364 90.296C132.364 92.122 133.926 93.332 135.95 93.332C138.084 93.332 139.514 92.122 139.514 90.318C139.514 88.492 138.084 87.238 135.95 87.238ZM135.95 85.676C138.876 85.676 141.252 87.546 141.252 90.318C141.252 93.09 138.876 94.894 135.95 94.894C133.046 94.894 130.626 93.112 130.626 90.318C130.626 87.568 133.002 85.676 135.95 85.676ZM147.544 105.234H133.552V100.064H145.014V97.93H133.486V96.478H146.796V101.428H135.334V103.782H147.544V105.234ZM146.796 95.4H145.014V85.06H146.796V95.4ZM163.3 98.766V88.646H157.206V98.766H163.3ZM165.082 100.24H155.424V87.172H165.082V100.24ZM170.956 105.52H169.174V85.06H170.956V105.52ZM185.431 99.162L184.309 100.526C182.197 99.074 179.909 96.632 179.095 94.168C178.369 96.72 176.389 99.316 173.969 100.988L172.825 99.624C175.795 97.798 178.193 94.124 178.193 90.494V86.864H180.019V90.428C180.019 94.168 182.593 97.512 185.431 99.162ZM192.449 94.806H189.149V105.52H187.367V85.06H189.149V93.31H192.449V94.806ZM201.797 93.178C200.785 93.178 199.861 93.112 199.047 92.958V95.4H204.481V92.98C203.667 93.112 202.787 93.178 201.797 93.178ZM201.819 99.712C198.563 99.712 196.385 100.438 196.385 101.78C196.385 103.122 198.563 103.848 201.819 103.848C205.141 103.848 207.297 103.122 207.297 101.78C207.297 100.438 205.119 99.712 201.819 99.712ZM207.209 89.35C207.209 87.832 205.075 86.93 201.797 86.93C198.519 86.93 196.407 87.832 196.407 89.35C196.407 90.846 198.519 91.748 201.797 91.748C205.053 91.748 207.209 90.846 207.209 89.35ZM209.079 101.78C209.079 104.134 206.329 105.388 201.841 105.388C197.331 105.388 194.603 104.134 194.603 101.78C194.603 99.448 197.331 98.172 201.819 98.172C206.329 98.172 209.079 99.448 209.079 101.78ZM208.947 89.35C208.947 90.736 207.979 91.836 206.263 92.496V95.4H211.037V96.874H192.557V95.4H197.265V92.474C195.593 91.814 194.669 90.714 194.669 89.35C194.669 87.018 197.309 85.5 201.797 85.5C206.285 85.5 208.947 87.018 208.947 89.35ZM229.213 99.228L228.091 100.592C226.243 99.338 223.845 96.808 223.053 94.344C222.305 96.896 220.193 99.404 217.817 101.098L216.651 99.756C219.643 97.886 222.107 94.168 222.107 90.538V86.842H223.911V90.472C223.911 94.212 226.397 97.556 229.213 99.228ZM233.613 105.52H231.831V85.06H233.613V105.52ZM259.446 102.902H240.966V101.406H249.282V96.17H251.064V101.406H259.446V102.902ZM258.72 95.158L257.73 96.588C254.144 95.598 251.064 93.046 250.184 90.736C249.392 93.09 246.246 95.62 242.66 96.588L241.736 95.158C245.3 94.476 249.282 91.572 249.282 88.052V86.578H251.13V88.052C251.13 91.572 255.354 94.52 258.72 95.158ZM268.508 93.2V87.634H262.81V93.2H268.508ZM270.29 94.652H261.028V86.16H270.29V94.652ZM271.28 89.218V87.766H275.042V85.06H276.824V95.642H275.042V93.002H271.28V91.572H275.042V89.218H271.28ZM277.594 105.366H263.734V100.196H275.064V98.106H263.58V96.632H276.846V101.582H265.516V103.892H277.594V105.366ZM296.006 105.234H282.696V97.908H284.478V100.02H294.224V97.864H296.006V105.234ZM292.64 94.454L292.794 95.884C291.188 96.082 288.702 96.302 286.216 96.434C283.906 96.544 280.892 96.61 279.528 96.61L279.264 95.048C280.848 95.048 282.982 95.048 285.204 94.982V92.496H281.024V86.182H290.946V87.656H282.806V91.022H291.144V92.496H286.986V94.916C289.164 94.806 291.364 94.652 292.64 94.454ZM294.224 103.782V101.472H284.478V103.782H294.224ZM296.006 96.764H294.224V85.06H296.006V96.764ZM311.118 97.996L311.294 99.536C308.918 100.086 303.594 100.482 300.448 100.482H299.546V87.194H301.328V98.92C303.968 98.92 308.676 98.546 311.118 97.996ZM314.968 85.06V105.52H313.208V85.06H314.968ZM320.115 98.986H321.303C323.943 98.986 327.991 98.744 329.949 98.326L330.147 99.8C327.947 100.218 323.899 100.504 320.335 100.504H318.333V87.194H328.035V88.69H320.115V98.986ZM333.293 85.06V93.178H336.615V94.674H333.293V105.52H331.533V85.06H333.293ZM336.767 103.474V101.384H338.791V103.474H336.767Z" fill="#4E516F"/>
<path d="M16.476 146.986H17.664C20.304 146.986 24.352 146.744 26.31 146.326L26.508 147.8C24.308 148.218 20.26 148.504 16.696 148.504H14.694V135.194H24.396V136.69H16.476V146.986ZM29.654 133.06V141.178H32.976V142.674H29.654V153.52H27.894V133.06H29.654ZM49.4083 152.926H35.4603V146.964H37.2423V151.43H49.4083V152.926ZM43.2263 149.098H41.4443V144.94H33.0183V143.466H51.4983V144.94H43.2263V149.098ZM42.2803 135.15C39.0463 135.15 36.9343 136.008 36.9343 137.702C36.9343 139.374 39.0243 140.232 42.2583 140.232C45.4923 140.232 47.6263 139.374 47.6263 137.702C47.6263 136.008 45.5143 135.15 42.2803 135.15ZM49.3863 137.68C49.3863 140.298 46.7243 141.728 42.2583 141.728C37.7923 141.728 35.1523 140.298 35.1523 137.68C35.1523 135.106 37.8143 133.676 42.2803 133.676C46.7243 133.676 49.3863 135.106 49.3863 137.68ZM70.6366 150.902H52.1566V149.406H60.4726V145.93H54.4446V139.528H66.5666V136.25H54.4226V134.754H68.3486V141.002H56.2266V144.434H68.9206V145.93H62.2546V149.406H70.6366V150.902ZM89.7748 150.704H71.2948V149.208H89.7748V150.704ZM87.5528 144.72H73.6268V135.084H87.3548V136.558H75.4088V143.246H87.5528V144.72ZM104.057 142.19V138.846H98.0511V142.19H104.057ZM105.839 143.664H96.2691V134.226H98.0511V137.372H104.057V134.226H105.839V143.664ZM111.471 153.124H98.4031V146.216H111.273V147.69H100.207V151.65H111.471V153.124ZM114.353 139.99H111.229V144.962H109.447V133.06H111.229V138.494H114.353V139.99ZM123.899 135.128C120.665 135.128 118.553 135.986 118.553 137.68C118.553 139.352 120.643 140.21 123.877 140.21C127.111 140.21 129.245 139.352 129.245 137.68C129.245 135.986 127.133 135.128 123.899 135.128ZM131.005 137.658C131.005 140.276 128.343 141.706 123.877 141.706C119.411 141.706 116.771 140.276 116.771 137.658C116.771 135.084 119.433 133.654 123.899 133.654C128.343 133.654 131.005 135.084 131.005 137.658ZM131.027 152.926H117.079V146.964H118.861V151.43H131.027V152.926ZM133.117 145.05H114.637V143.554H133.117V145.05ZM141.24 134.38H154.88C154.88 136.998 154.792 140.848 154.132 144.082H157.322V145.578H148.962V153.52H147.18V145.578H138.842V144.082H152.35C152.614 143.092 152.768 141.662 152.878 140.232L140.976 140.738L140.69 139.176L152.944 138.802C153.01 137.636 153.032 136.558 153.032 135.854H141.24V134.38ZM174.656 135.568H159.674V134.094H174.656V135.568ZM174.326 152.882H160.29V147.382H162.072V151.386H174.326V152.882ZM176.46 145.93H157.98V144.434H166.296V141.992H159.696V140.54H163.062L162.446 136.624L164.294 136.382L164.756 140.54H169.574L170.102 136.338L171.95 136.58L171.29 140.54H174.656V141.992H168.078V144.434H176.46V145.93ZM186.38 135.128C183.146 135.128 181.034 135.986 181.034 137.68C181.034 139.352 183.124 140.21 186.358 140.21C189.592 140.21 191.726 139.352 191.726 137.68C191.726 135.986 189.614 135.128 186.38 135.128ZM193.486 137.658C193.486 140.276 190.824 141.706 186.358 141.706C181.892 141.706 179.252 140.276 179.252 137.658C179.252 135.084 181.914 133.654 186.38 133.654C190.824 133.654 193.486 135.084 193.486 137.658ZM193.508 152.926H179.56V146.964H181.342V151.43H193.508V152.926ZM195.598 145.05H177.118V143.554H195.598V145.05ZM215.777 141.398V138.318H205.349V141.398H215.777ZM207.901 153.542H206.119V146.744H201.323V145.248H219.803V146.744H214.941V153.542H213.159V146.744H207.901V153.542ZM217.559 142.872H203.567V133.852H205.349V136.866H215.777V133.852H217.559V142.872ZM237.247 153.52H235.465V133.06H237.247V153.52ZM233.177 146.37L233.375 147.844C231.153 148.262 226.643 148.57 223.387 148.57H221.627V134.996H231.153V136.47H223.409V140.76H230.757V142.212H223.409V147.03C226.621 147.118 231.153 146.788 233.177 146.37ZM252.249 146.304L252.381 147.756C250.885 147.954 248.575 148.152 246.155 148.284C243.845 148.394 241.447 148.482 239.599 148.504L239.335 146.942C240.303 146.942 241.337 146.942 242.371 146.92L241.645 138.318L243.449 138.164L243.999 146.876C244.791 146.854 245.561 146.81 246.309 146.766C246.573 146.766 246.815 146.744 247.079 146.744L247.673 138.142L249.455 138.296L248.685 146.634C250.115 146.546 251.347 146.436 252.249 146.304ZM255.307 133.06V141.222H258.651V142.718H255.307V153.52H253.525V133.06H255.307ZM251.039 136.712H239.907V135.216H251.039V136.712ZM268.857 153.542H267.075V146.414H258.825V144.918H277.305V146.414H268.857V153.542ZM267.977 135.458C264.523 135.458 262.411 136.602 262.411 138.494C262.411 140.386 264.523 141.53 267.977 141.53C271.453 141.53 273.565 140.386 273.565 138.494C273.565 136.602 271.453 135.458 267.977 135.458ZM275.303 138.494C275.303 141.2 272.553 143.07 267.977 143.07C263.401 143.07 260.651 141.222 260.651 138.494C260.651 135.766 263.401 133.918 267.977 133.918C272.553 133.918 275.303 135.766 275.303 138.494ZM287.424 135.898H281.242V134.27H287.424V135.898ZM294.728 153.52H292.946V133.06H294.728V153.52ZM290.9 148.042L289.954 149.45C287.732 148.438 285.092 145.886 284.366 143.752C283.772 145.93 281.264 148.724 279.042 149.89L277.986 148.57C280.67 147.294 283.42 144.126 283.42 140.32V139.682H278.602V138.208H289.998V139.682H285.246V140.298C285.246 144.104 288.282 147.118 290.9 148.042ZM297.344 144.104V142.542H305.066V144.104H297.344ZM308.431 134.38H322.071C322.071 136.998 321.983 140.848 321.323 144.082H324.513V145.578H316.153V153.52H314.371V145.578H306.033V144.082H319.541C319.805 143.092 319.959 141.662 320.069 140.232L308.167 140.738L307.881 139.176L320.135 138.802C320.201 137.636 320.223 136.558 320.223 135.854H308.431V134.38ZM341.847 135.568H326.865V134.094H341.847V135.568ZM341.517 152.882H327.481V147.382H329.263V151.386H341.517V152.882ZM343.651 145.93H325.171V144.434H333.487V141.992H326.887V140.54H330.253L329.637 136.624L331.485 136.382L331.947 140.54H336.765L337.293 136.338L339.141 136.58L338.481 140.54H341.847V141.992H335.269V144.434H343.651V145.93ZM353.176 142.19C353.176 140.914 351.768 140.188 350.162 140.188C348.578 140.188 347.126 140.914 347.126 142.19C347.126 143.422 348.6 144.17 350.162 144.17C351.768 144.17 353.176 143.422 353.176 142.19ZM354.914 142.19C354.914 144.214 352.868 145.556 350.162 145.556C347.456 145.556 345.41 144.236 345.41 142.19C345.41 140.078 347.434 138.802 350.162 138.802C352.868 138.802 354.914 140.078 354.914 142.19ZM356.146 137.922H344.222V136.448H356.146V137.922ZM353.044 134.996H347.324V133.5H353.044V134.996ZM358.258 151.76V148.284H348.886V151.76H358.258ZM360.04 153.234H347.104V146.832H360.04V153.234ZM363.164 140.562H360.04V145.776H358.28V133.06H360.04V139.066H363.164V140.562ZM380.718 153.52H378.958V133.06H380.718V153.52ZM371.016 141.838C371.016 138.538 369.938 136.404 368.288 136.404C366.638 136.404 365.582 138.538 365.582 141.838C365.582 145.16 366.638 147.272 368.288 147.272C369.938 147.272 371.016 145.16 371.016 141.838ZM368.288 134.842C371.104 134.842 372.622 137.438 372.776 141.156H374.976V133.456H376.714V152.53H374.976V142.63H372.776C372.578 146.326 371.082 148.834 368.288 148.834C365.296 148.834 363.778 145.952 363.778 141.838C363.778 137.746 365.296 134.842 368.288 134.842ZM394.84 147.272L393.74 148.614C391.87 147.36 389.494 144.764 388.68 142.3C387.954 144.852 385.952 147.382 383.576 149.076L382.41 147.756C385.38 145.886 387.756 142.256 387.756 138.626V134.842H389.582V138.56C389.582 142.3 392.024 145.622 394.84 147.272ZM399.372 153.52H397.59V141.86H392.816V140.364H397.59V133.06H399.372V153.52ZM419.463 144.324L419.617 145.688C418.143 145.864 415.701 146.106 413.281 146.238C410.971 146.37 408.155 146.48 406.725 146.48L406.439 145.006C407.935 145.006 410.003 144.962 412.093 144.874V143.488C409.937 143.29 408.287 142.454 408.287 140.804C408.287 138.912 410.421 138.032 413.017 138.032C415.635 138.032 417.791 138.89 417.791 140.782C417.791 142.432 416.097 143.312 413.897 143.488V144.786C416.053 144.676 418.275 144.5 419.463 144.324ZM425.667 141.332H422.565V146.656H420.783V133.06H422.565V139.836H425.667V141.332ZM409.167 147.734H422.565V153.652H420.783V149.208H409.167V147.734ZM418.935 137.35H407.165V135.92H418.935V137.35ZM416.097 140.782C416.097 139.836 414.733 139.374 413.017 139.374C411.279 139.374 409.981 139.836 409.981 140.782C409.981 141.75 411.301 142.212 413.017 142.212C414.733 142.212 416.097 141.728 416.097 140.782ZM415.855 134.798H410.245V133.324H415.855V134.798ZM431.891 135.964C429.735 135.964 428.085 137.438 428.085 139.506C428.085 141.574 429.757 143.026 431.913 143.026C434.157 143.026 435.719 141.574 435.719 139.528C435.719 137.438 434.157 135.964 431.891 135.964ZM431.891 134.402C434.993 134.402 437.413 136.47 437.413 139.506C437.413 142.564 435.015 144.588 431.913 144.588C428.789 144.588 426.391 142.586 426.391 139.528C426.391 136.492 428.789 134.402 431.891 134.402ZM443.155 152.838H429.317V146.524H431.099V151.364H443.155V152.838ZM442.649 147.998H440.867V133.06H442.649V147.998ZM454.087 141.552C454.087 140.408 452.591 139.836 450.963 139.836C449.357 139.836 447.883 140.408 447.883 141.552C447.883 142.696 449.379 143.29 450.963 143.29C452.591 143.29 454.087 142.696 454.087 141.552ZM455.803 141.552C455.803 143.554 453.779 144.654 450.963 144.654C448.301 144.654 446.167 143.554 446.167 141.552C446.167 139.55 448.257 138.472 450.963 138.472C453.713 138.472 455.803 139.55 455.803 141.552ZM456.991 137.658H444.979V136.206H456.991V137.658ZM453.933 134.908H448.037V133.412H453.933V134.908ZM461.567 153.388H447.927V148.834H459.015V147.096H447.839V145.732H460.797V150.132H449.709V152.024H461.567V153.388ZM463.921 139.968H460.797V144.676H459.037V133.06H460.797V138.472H463.921V139.968ZM487.003 140.914L486.145 142.432C483.087 141.816 479.743 139.88 478.511 137.504C477.521 139.88 474.023 141.882 470.921 142.498L470.063 140.958C473.979 140.452 477.587 137.856 477.587 135.062V133.764H479.457V135.062C479.457 137.856 483.395 140.474 487.003 140.914ZM479.369 153.542H477.587V146.106H469.271V144.61H487.751V146.106H479.369V153.542ZM499.284 135.656C497.238 135.656 495.72 137.108 495.72 139.11C495.72 141.156 497.238 142.542 499.284 142.542C501.418 142.542 502.87 141.156 502.87 139.132C502.87 137.108 501.44 135.656 499.284 135.656ZM499.284 134.204C502.188 134.204 504.586 136.162 504.586 139.11C504.586 142.124 502.188 143.994 499.284 143.994C496.38 143.994 493.982 142.124 493.982 139.132C493.982 136.162 496.38 134.204 499.284 134.204ZM503.486 150.748L502.254 151.958C501.242 151.43 500.142 150.374 499.658 149.252C499.174 150.792 497.37 152.772 495.61 153.608L494.532 152.332C496.622 151.43 498.69 149.186 498.69 146.7V145.688H500.45V146.546C500.45 148.702 501.902 150.132 503.486 150.748ZM511.076 153.564H511.054C509.668 152.882 507.82 151.1 507.314 149.626C506.808 151.166 505.092 153.014 503.442 153.828L502.32 152.64C504.52 151.562 506.412 149.34 506.412 146.854V145.622H508.172V146.788C508.172 149.318 510.218 151.562 512.154 152.288L511.076 153.564ZM510.196 144.94H508.414V133.06H510.196V144.94ZM526.958 151.76V149.318H516.772V151.76H526.958ZM528.74 153.234H514.99V145.49H516.772V147.866H526.958V145.468H528.74V153.234ZM531.094 144.038H512.614V142.542H531.094V144.038ZM530.126 139.374L529.29 140.914C526.188 140.342 522.866 138.384 521.876 136.272C520.974 138.384 517.586 140.32 514.484 140.914L513.648 139.374C516.86 139.022 520.952 136.844 520.952 133.962V133.302H522.8V133.962C522.8 136.844 526.98 139.022 530.126 139.374ZM544.49 145.996L544.666 147.536C542.29 148.086 536.966 148.482 533.82 148.482H532.918V135.194H534.7V146.92C537.34 146.92 542.048 146.546 544.49 145.996ZM548.34 133.06V153.52H546.58V133.06H548.34ZM553.487 146.986H554.675C557.315 146.986 561.363 146.744 563.321 146.326L563.519 147.8C561.319 148.218 557.271 148.504 553.707 148.504H551.705V135.194H561.407V136.69H553.487V146.986ZM566.665 133.06V141.178H569.987V142.674H566.665V153.52H564.905V133.06H566.665ZM570.139 151.474V149.384H572.163V151.474H570.139Z" fill="#4E516F"/>
<path d="M16.058 182.578H29.94C29.94 185.35 29.874 188.474 29.192 191.642H32.36V193.138H24V201.52H22.218V193.138H13.88V191.642H27.41C27.982 189.442 28.092 186.054 28.092 184.052H16.058V182.578ZM40.0803 194.568V184.778H35.4383V194.568H40.0803ZM50.2883 201.52H48.5283V190.718H46.0203V200.486H44.2823V181.544H46.0203V189.222H48.5283V181.06H50.2883V201.52ZM41.8183 196.042H33.7003V183.304H41.8183V196.042ZM74.3826 200.838H60.6106V194.546H62.3926V199.342H74.3826V200.838ZM73.9426 196.042H72.1606V188.232H68.0906V186.736H72.1606V181.06H73.9426V196.042ZM57.8166 184.36V182.864H68.8166V184.36H64.2406C64.2406 185.284 64.2406 185.724 64.2626 186.01C64.4166 188.628 66.9466 190.982 69.2786 191.752L68.2886 193.182C66.3306 192.39 64.1526 190.432 63.3166 188.584C62.7666 190.498 60.3906 192.72 58.1906 193.666L57.1566 192.28C59.7306 191.29 62.3046 188.694 62.4146 185.988C62.4366 185.724 62.4366 185.262 62.4366 184.36H57.8166ZM91.5909 195.822C90.4909 195.976 88.6869 196.152 86.8829 196.24C84.9909 196.372 83.1869 196.438 81.4489 196.438L81.1849 194.876H83.4509L82.8349 186.45L84.6169 186.208C84.7709 189.09 84.9689 191.95 85.1449 194.832L86.7729 194.766C86.9049 194.766 87.0589 194.766 87.2129 194.744C87.3889 191.906 87.5649 189.046 87.7629 186.208L89.5449 186.384C89.3029 189.134 89.0609 191.884 88.7969 194.656C89.7869 194.568 90.7109 194.48 91.4369 194.37C91.4809 194.854 91.5249 195.338 91.5909 195.822ZM94.8689 200.464H93.1309V190.388H90.3369V188.914H93.1309V181.544H94.8689V200.464ZM98.6749 201.52H96.9369V181.06H98.6749V201.52ZM90.9309 185.086H81.6909V183.612H90.9309V185.086ZM110.113 189.838C110.113 186.472 108.705 184.14 106.527 184.14C104.371 184.14 102.941 186.472 102.941 189.838C102.941 193.182 104.371 195.514 106.527 195.514C108.705 195.514 110.113 193.182 110.113 189.838ZM101.247 189.816C101.247 185.504 103.161 182.6 106.527 182.6C109.915 182.6 111.807 185.504 111.807 189.838C111.807 194.172 109.915 197.054 106.527 197.054C103.161 197.054 101.247 194.172 101.247 189.816ZM117.395 201.52H115.613V181.06H117.395V201.52ZM126.941 190.52V187.044H122.189V190.52H126.941ZM136.951 201.52H135.147V195.778H123.135V194.304H136.951V201.52ZM136.951 193.204H135.191V187.748H132.661V193.072H130.945V181.434H132.661V186.274H135.191V181.06H136.951V193.204ZM128.679 191.994H120.451V182.402H122.189V185.57H126.941V182.402H128.679V191.994ZM146.328 194.7H146.944C148.99 194.7 152.07 194.568 153.786 194.194L153.962 195.646C152.026 196.02 148.572 196.24 145.91 196.24H144.546V183.568H152.488V185.064H146.328V194.7ZM161.156 201.52H159.418V190.608H156.668V200.464H154.952V181.544H156.668V189.112H159.418V181.06H161.156V201.52ZM181.9 188.1H178.776V193.666H176.994V181.06H178.776V186.604H181.9V188.1ZM172.176 195.118C169.096 195.118 167.182 196.02 167.182 197.582C167.182 199.144 169.096 200.024 172.176 200.024C175.3 200.024 177.236 199.144 177.236 197.582C177.236 196.02 175.3 195.118 172.176 195.118ZM179.062 197.582C179.062 200.002 176.488 201.498 172.176 201.498C167.908 201.498 165.356 200.002 165.356 197.582C165.356 195.14 167.908 193.644 172.176 193.644C176.488 193.644 179.062 195.14 179.062 197.582ZM174.618 190.498L173.562 191.906C171.604 190.96 169.58 189.2 168.766 187.132C168.128 189.31 166.06 191.356 163.662 192.588L162.672 191.202C165.598 189.838 167.798 187.264 167.798 184.008V182.028H169.602V183.942C169.602 187.198 172.308 189.684 174.618 190.498ZM206.104 188.1H202.98V193.666H201.198V181.06H202.98V186.604H206.104V188.1ZM196.38 195.118C193.3 195.118 191.386 196.02 191.386 197.582C191.386 199.144 193.3 200.024 196.38 200.024C199.504 200.024 201.44 199.144 201.44 197.582C201.44 196.02 199.504 195.118 196.38 195.118ZM203.266 197.582C203.266 200.002 200.692 201.498 196.38 201.498C192.112 201.498 189.56 200.002 189.56 197.582C189.56 195.14 192.112 193.644 196.38 193.644C200.692 193.644 203.266 195.14 203.266 197.582ZM198.822 190.498L197.766 191.906C195.808 190.96 193.784 189.2 192.97 187.132C192.332 189.31 190.264 191.356 187.866 192.588L186.876 191.202C189.802 189.838 192.002 187.264 192.002 184.008V182.028H193.806V183.942C193.806 187.198 196.512 189.684 198.822 190.498ZM222.955 183.48H208.193V182.006H222.955V183.48ZM222.801 189.222H208.347V187.748H211.449L210.921 184.47L212.769 184.25L213.143 187.748H218.005L218.467 184.228L220.315 184.426L219.721 187.748H222.801V189.222ZM220.843 199.76V196.262H210.415V199.76H220.843ZM222.603 201.234H208.633V194.788H214.705V192.478H206.389V191.004H224.869V192.478H216.487V194.788H222.603V201.234ZM242.357 201.322H227.683V196.46H239.915V194.656H227.639V193.226H241.697V197.802H229.465V199.87H242.357V201.322ZM234.789 182.798C231.577 182.798 229.487 183.612 229.487 184.888C229.487 186.164 231.577 186.956 234.789 186.956C238.023 186.956 240.135 186.164 240.135 184.888C240.135 183.612 238.023 182.798 234.789 182.798ZM241.939 184.888C241.939 187.132 239.233 188.43 234.789 188.43C230.389 188.43 227.661 187.132 227.661 184.888C227.661 182.644 230.389 181.346 234.789 181.346C239.233 181.346 241.939 182.644 241.939 184.888ZM244.007 191.4H225.527V189.904H244.007V191.4ZM268.211 192.082H249.731V190.586H258.289V186.56H260.071V190.586H268.211V192.082ZM251.843 194.568H265.747V201.652H263.965V196.042H251.843V194.568ZM259.345 181.874H265.989C265.989 184.866 265.813 187.044 265.351 188.936L263.591 188.672C264.009 187.088 264.163 185.086 264.163 183.348H259.345V181.874ZM251.381 181.874H257.629C257.629 184.668 257.233 187.088 256.617 188.936L254.857 188.606C255.385 187.264 255.781 185.174 255.803 183.348H251.381V181.874ZM286.607 192.324L286.761 193.688C285.287 193.864 282.845 194.106 280.425 194.238C278.115 194.37 275.299 194.48 273.869 194.48L273.583 193.006C275.079 193.006 277.147 192.962 279.237 192.874V191.488C277.081 191.29 275.431 190.454 275.431 188.804C275.431 186.912 277.565 186.032 280.161 186.032C282.779 186.032 284.935 186.89 284.935 188.782C284.935 190.432 283.241 191.312 281.041 191.488V192.786C283.197 192.676 285.419 192.5 286.607 192.324ZM292.811 189.332H289.709V194.656H287.927V181.06H289.709V187.836H292.811V189.332ZM276.311 195.734H289.709V201.652H287.927V197.208H276.311V195.734ZM286.079 185.35H274.309V183.92H286.079V185.35ZM283.241 188.782C283.241 187.836 281.877 187.374 280.161 187.374C278.423 187.374 277.125 187.836 277.125 188.782C277.125 189.75 278.445 190.212 280.161 190.212C281.877 190.212 283.241 189.728 283.241 188.782ZM282.999 182.798H277.389V181.324H282.999V182.798ZM299.036 183.964C296.88 183.964 295.23 185.438 295.23 187.506C295.23 189.574 296.902 191.026 299.058 191.026C301.302 191.026 302.864 189.574 302.864 187.528C302.864 185.438 301.302 183.964 299.036 183.964ZM299.036 182.402C302.138 182.402 304.558 184.47 304.558 187.506C304.558 190.564 302.16 192.588 299.058 192.588C295.934 192.588 293.536 190.586 293.536 187.528C293.536 184.492 295.934 182.402 299.036 182.402ZM310.3 200.838H296.462V194.524H298.244V199.364H310.3V200.838ZM309.794 195.998H308.012V181.06H309.794V195.998ZM320.154 184.162H314.566V182.622H320.154V184.162ZM322.354 187.506H312.168V186.032H322.354V187.506ZM320.264 192.786C320.264 191.202 319.12 190.19 317.514 190.19C315.886 190.19 314.764 191.224 314.764 192.786C314.764 194.37 315.886 195.382 317.514 195.382C319.12 195.382 320.264 194.326 320.264 192.786ZM321.98 192.786C321.98 195.25 320.154 196.856 317.514 196.856C314.896 196.856 313.048 195.118 313.048 192.786C313.048 190.3 314.896 188.694 317.514 188.694C320.154 188.694 321.98 190.322 321.98 192.786ZM329.482 201.52H327.722V190.916H325.258V200.486H323.52V181.544H325.258V189.42H327.722V181.06H329.482V201.52ZM346.514 201.52H344.732V194.194H336.416V192.698H354.896V194.194H346.514V201.52ZM354.016 189.288L353.18 190.784C349.836 190.212 346.58 188.144 345.656 186.23C344.82 188.144 341.652 190.256 338.154 190.828L337.34 189.332C340.684 188.98 344.644 186.846 344.732 183.986H338.11V182.512H353.18V183.986H346.602C346.69 186.868 350.892 188.936 354.016 189.288ZM365.851 195.052L364.773 196.372C363.189 195.228 361.033 192.808 360.395 190.476C359.933 192.83 358.261 195.492 356.215 196.966L355.115 195.646C357.447 194.172 359.493 190.674 359.493 186.67V182.952H361.253V186.626C361.253 190.608 363.629 193.578 365.851 195.052ZM368.843 200.486H367.105V189.926H363.475V188.43H367.105V181.544H368.843V200.486ZM372.891 201.52H371.131V181.06H372.891V201.52ZM393.173 198.902H374.693V197.406H379.269V193.336L381.051 193.292V197.406H386.749V193.292L388.531 193.336V197.406H393.173V198.902ZM389.587 187.594C389.587 185.372 387.343 183.876 383.911 183.876C380.501 183.876 378.257 185.372 378.257 187.594C378.257 189.816 380.501 191.312 383.911 191.312C387.321 191.312 389.587 189.816 389.587 187.594ZM391.303 187.594C391.303 190.674 388.355 192.698 383.911 192.698C379.489 192.698 376.541 190.674 376.541 187.594C376.541 184.514 379.489 182.446 383.911 182.446C388.377 182.446 391.303 184.514 391.303 187.594ZM393.941 199.474V197.384H395.965V199.474H393.941Z" fill="#4E516F"/>
<path d="M24.044 243.822C22.944 243.976 21.14 244.152 19.336 244.24C17.444 244.372 15.64 244.438 13.902 244.438L13.638 242.876H15.904L15.288 234.45L17.07 234.208C17.224 237.09 17.422 239.95 17.598 242.832L19.226 242.766C19.358 242.766 19.512 242.766 19.666 242.744C19.842 239.906 20.018 237.046 20.216 234.208L21.998 234.384C21.756 237.134 21.514 239.884 21.25 242.656C22.24 242.568 23.164 242.48 23.89 242.37C23.934 242.854 23.978 243.338 24.044 243.822ZM27.322 248.464H25.584V238.388H22.79V236.914H25.584V229.544H27.322V248.464ZM31.128 249.52H29.39V229.06H31.128V249.52ZM23.384 233.086H14.144V231.612H23.384V233.086ZM42.5663 237.838C42.5663 234.472 41.1583 232.14 38.9803 232.14C36.8243 232.14 35.3943 234.472 35.3943 237.838C35.3943 241.182 36.8243 243.514 38.9803 243.514C41.1583 243.514 42.5663 241.182 42.5663 237.838ZM33.7003 237.816C33.7003 233.504 35.6143 230.6 38.9803 230.6C42.3683 230.6 44.2603 233.504 44.2603 237.838C44.2603 242.172 42.3683 245.054 38.9803 245.054C35.6143 245.054 33.7003 242.172 33.7003 237.816ZM49.8483 249.52H48.0663V229.06H49.8483V249.52ZM59.3946 238.52V235.044H54.6426V238.52H59.3946ZM69.4046 249.52H67.6006V243.778H55.5886V242.304H69.4046V249.52ZM69.4046 241.204H67.6446V235.748H65.1146V241.072H63.3986V229.434H65.1146V234.274H67.6446V229.06H69.4046V241.204ZM61.1326 239.994H52.9046V230.402H54.6426V233.57H59.3946V230.402H61.1326V239.994ZM93.0809 241.248H91.2989V235.99H87.2069V234.516H91.2989V229.06H93.0809V241.248ZM79.4629 242.326H93.1029V249.52H91.2989V243.8H79.4629V242.326ZM76.9109 232.14V230.644H87.9329V232.14H83.3789C83.3789 232.558 83.3789 233.108 83.4009 233.372C83.5549 236.144 86.0409 238.41 88.3729 239.18L87.3829 240.61C85.4249 239.818 83.2909 237.794 82.4549 235.946C81.9049 237.86 79.4409 240.324 77.2409 241.27L76.2729 239.84C78.8469 238.85 81.4429 236.254 81.5529 233.35C81.5749 233.108 81.5749 232.536 81.5749 232.14H76.9109ZM104.739 237.178C103.727 237.178 102.803 237.112 101.989 236.958V239.4H107.423V236.98C106.609 237.112 105.729 237.178 104.739 237.178ZM104.761 243.712C101.505 243.712 99.3271 244.438 99.3271 245.78C99.3271 247.122 101.505 247.848 104.761 247.848C108.083 247.848 110.239 247.122 110.239 245.78C110.239 244.438 108.061 243.712 104.761 243.712ZM110.151 233.35C110.151 231.832 108.017 230.93 104.739 230.93C101.461 230.93 99.3491 231.832 99.3491 233.35C99.3491 234.846 101.461 235.748 104.739 235.748C107.995 235.748 110.151 234.846 110.151 233.35ZM112.021 245.78C112.021 248.134 109.271 249.388 104.783 249.388C100.273 249.388 97.5451 248.134 97.5451 245.78C97.5451 243.448 100.273 242.172 104.761 242.172C109.271 242.172 112.021 243.448 112.021 245.78ZM111.889 233.35C111.889 234.736 110.921 235.836 109.205 236.496V239.4H113.979V240.874H95.4991V239.4H100.207V236.474C98.5351 235.814 97.6111 234.714 97.6111 233.35C97.6111 231.018 100.251 229.5 104.739 229.5C109.227 229.5 111.889 231.018 111.889 233.35ZM128.943 231.568C125.533 231.568 123.443 232.69 123.443 234.428C123.443 236.166 125.533 237.288 128.943 237.288C132.375 237.288 134.465 236.166 134.465 234.428C134.465 232.69 132.375 231.568 128.943 231.568ZM126.259 249.52H124.477V242.26H119.703V240.764H138.183V242.26H133.343V249.52H131.561V242.26H126.259V249.52ZM136.203 234.428C136.203 237.068 133.475 238.872 128.943 238.872C124.411 238.872 121.683 237.09 121.683 234.428C121.683 231.766 124.411 229.984 128.943 229.984C133.475 229.984 136.203 231.766 136.203 234.428ZM148.94 249.542H147.158V242.568H138.842V241.072H157.322V242.568H148.94V249.542ZM153.23 236.98V231.678H142.934V236.98H153.23ZM155.012 238.454H141.13V230.204H155.012V238.454ZM174.392 237.068H160.466V229.918H162.248V235.594H174.392V237.068ZM174.48 249.058H160.4V243.03H162.182V247.584H174.48V249.058ZM176.46 241.116H157.98V239.62H176.46V241.116ZM199.674 249.388H185.682V244.24H197.122V241.996H185.616V240.588H198.904V245.538H187.464V247.98H199.674V249.388ZM183.328 230.182H192.656C192.238 235.572 188.432 238.828 183.35 240.302L182.448 238.872C186.936 237.728 189.95 235.022 190.61 231.678H183.328V230.182ZM192.876 233.482V232.074H197.122V229.06H198.904V239.466H197.122V237.266H192.612V235.836H197.122V233.482H192.876ZM218.593 249.52H216.833V229.06H218.593V249.52ZM214.523 248.486H212.785V238.036H209.507V236.562H212.785V229.544H214.523V248.486ZM211.773 243.382L210.651 244.68C209.199 243.668 207.043 241.27 206.449 239.114C206.031 241.38 204.183 243.822 202.203 245.23L201.015 243.976C203.413 242.436 205.569 239.202 205.569 235.242V232.932H201.499V231.458H211.245V232.932H207.329V235.176C207.329 239.224 209.243 241.732 211.773 243.382ZM242.687 248.838H228.915V242.546H230.697V247.342H242.687V248.838ZM242.247 244.042H240.465V236.232H236.395V234.736H240.465V229.06H242.247V244.042ZM226.121 232.36V230.864H237.121V232.36H232.545C232.545 233.284 232.545 233.724 232.567 234.01C232.721 236.628 235.251 238.982 237.583 239.752L236.593 241.182C234.635 240.39 232.457 238.432 231.621 236.584C231.071 238.498 228.695 240.72 226.495 241.666L225.461 240.28C228.035 239.29 230.609 236.694 230.719 233.988C230.741 233.724 230.741 233.262 230.741 232.36H226.121ZM259.829 249.52H258.047V242.194H249.731V240.698H268.211V242.194H259.829V249.52ZM267.331 237.288L266.495 238.784C263.151 238.212 259.895 236.144 258.971 234.23C258.135 236.144 254.967 238.256 251.469 238.828L250.655 237.332C253.999 236.98 257.959 234.846 258.047 231.986H251.425V230.512H266.495V231.986H259.917C260.005 234.868 264.207 236.936 267.331 237.288ZM285.259 248.86H271.179V243.074H272.961V247.386H285.259V248.86ZM279.033 245.186H277.251V241.16H268.869V239.686H287.349V241.16H279.033V245.186ZM283.257 235.924V231.656H272.983V235.924H283.257ZM285.039 237.398H271.201V230.182H285.039V237.398ZM303.238 243.822C302.138 243.976 300.334 244.152 298.53 244.24C296.638 244.372 294.834 244.438 293.096 244.438L292.832 242.876H295.098L294.482 234.45L296.264 234.208C296.418 237.09 296.616 239.95 296.792 242.832L298.42 242.766C298.552 242.766 298.706 242.766 298.86 242.744C299.036 239.906 299.212 237.046 299.41 234.208L301.192 234.384C300.95 237.134 300.708 239.884 300.444 242.656C301.434 242.568 302.358 242.48 303.084 242.37C303.128 242.854 303.172 243.338 303.238 243.822ZM306.516 248.464H304.778V238.388H301.984V236.914H304.778V229.544H306.516V248.464ZM310.322 249.52H308.584V229.06H310.322V249.52ZM302.578 233.086H293.338V231.612H302.578V233.086ZM321.76 237.838C321.76 234.472 320.352 232.14 318.174 232.14C316.018 232.14 314.588 234.472 314.588 237.838C314.588 241.182 316.018 243.514 318.174 243.514C320.352 243.514 321.76 241.182 321.76 237.838ZM312.894 237.816C312.894 233.504 314.808 230.6 318.174 230.6C321.562 230.6 323.454 233.504 323.454 237.838C323.454 242.172 321.562 245.054 318.174 245.054C314.808 245.054 312.894 242.172 312.894 237.816ZM329.042 249.52H327.26V229.06H329.042V249.52ZM346.354 229.06H348.136V249.52H346.354V229.06ZM344 243.316L342.9 244.636C340.986 243.404 338.39 240.83 337.686 238.41C337.004 240.962 334.76 243.58 332.384 245.12L331.284 243.8C334.276 242.04 336.74 238.564 336.74 234.692V232.58H331.966V231.106H343.362V232.58H338.588V234.67C338.588 238.476 341.184 241.798 344 243.316ZM367.759 249.52H365.999V229.06H367.759V249.52ZM358.057 237.838C358.057 234.538 356.979 232.404 355.329 232.404C353.679 232.404 352.623 234.538 352.623 237.838C352.623 241.16 353.679 243.272 355.329 243.272C356.979 243.272 358.057 241.16 358.057 237.838ZM355.329 230.842C358.145 230.842 359.663 233.438 359.817 237.156H362.017V229.456H363.755V248.53H362.017V238.63H359.817C359.619 242.326 358.123 244.834 355.329 244.834C352.337 244.834 350.819 241.952 350.819 237.838C350.819 233.746 352.337 230.842 355.329 230.842ZM381.881 243.272L380.781 244.614C378.911 243.36 376.535 240.764 375.721 238.3C374.995 240.852 372.993 243.382 370.617 245.076L369.451 243.756C372.421 241.886 374.797 238.256 374.797 234.626V230.842H376.623V234.56C376.623 238.3 379.065 241.622 381.881 243.272ZM386.413 249.52H384.631V237.86H379.857V236.364H384.631V229.06H386.413V249.52ZM406.503 240.324L406.657 241.688C405.183 241.864 402.741 242.106 400.321 242.238C398.011 242.37 395.195 242.48 393.765 242.48L393.479 241.006C394.975 241.006 397.043 240.962 399.133 240.874V239.488C396.977 239.29 395.327 238.454 395.327 236.804C395.327 234.912 397.461 234.032 400.057 234.032C402.675 234.032 404.831 234.89 404.831 236.782C404.831 238.432 403.137 239.312 400.937 239.488V240.786C403.093 240.676 405.315 240.5 406.503 240.324ZM412.707 237.332H409.605V242.656H407.823V229.06H409.605V235.836H412.707V237.332ZM396.207 243.734H409.605V249.652H407.823V245.208H396.207V243.734ZM405.975 233.35H394.205V231.92H405.975V233.35ZM403.137 236.782C403.137 235.836 401.773 235.374 400.057 235.374C398.319 235.374 397.021 235.836 397.021 236.782C397.021 237.75 398.341 238.212 400.057 238.212C401.773 238.212 403.137 237.728 403.137 236.782ZM402.895 230.798H397.285V229.324H402.895V230.798ZM418.931 231.964C416.775 231.964 415.125 233.438 415.125 235.506C415.125 237.574 416.797 239.026 418.953 239.026C421.197 239.026 422.759 237.574 422.759 235.528C422.759 233.438 421.197 231.964 418.931 231.964ZM418.931 230.402C422.033 230.402 424.453 232.47 424.453 235.506C424.453 238.564 422.055 240.588 418.953 240.588C415.829 240.588 413.431 238.586 413.431 235.528C413.431 232.492 415.829 230.402 418.931 230.402ZM430.195 248.838H416.357V242.524H418.139V247.364H430.195V248.838ZM429.689 243.998H427.907V229.06H429.689V243.998ZM441.128 237.552C441.128 236.408 439.632 235.836 438.004 235.836C436.398 235.836 434.924 236.408 434.924 237.552C434.924 238.696 436.42 239.29 438.004 239.29C439.632 239.29 441.128 238.696 441.128 237.552ZM442.844 237.552C442.844 239.554 440.82 240.654 438.004 240.654C435.342 240.654 433.208 239.554 433.208 237.552C433.208 235.55 435.298 234.472 438.004 234.472C440.754 234.472 442.844 235.55 442.844 237.552ZM444.032 233.658H432.02V232.206H444.032V233.658ZM440.974 230.908H435.078V229.412H440.974V230.908ZM448.608 249.388H434.968V244.834H446.056V243.096H434.88V241.732H447.838V246.132H436.75V248.024H448.608V249.388ZM450.962 235.968H447.838V240.676H446.078V229.06H447.838V234.472H450.962V235.968ZM474.044 236.914L473.186 238.432C470.128 237.816 466.784 235.88 465.552 233.504C464.562 235.88 461.064 237.882 457.962 238.498L457.104 236.958C461.02 236.452 464.628 233.856 464.628 231.062V229.764H466.498V231.062C466.498 233.856 470.436 236.474 474.044 236.914ZM466.41 249.542H464.628V242.106H456.312V240.61H474.792V242.106H466.41V249.542ZM486.324 231.656C484.278 231.656 482.76 233.108 482.76 235.11C482.76 237.156 484.278 238.542 486.324 238.542C488.458 238.542 489.91 237.156 489.91 235.132C489.91 233.108 488.48 231.656 486.324 231.656ZM486.324 230.204C489.228 230.204 491.626 232.162 491.626 235.11C491.626 238.124 489.228 239.994 486.324 239.994C483.42 239.994 481.022 238.124 481.022 235.132C481.022 232.162 483.42 230.204 486.324 230.204ZM490.526 246.748L489.294 247.958C488.282 247.43 487.182 246.374 486.698 245.252C486.214 246.792 484.41 248.772 482.65 249.608L481.572 248.332C483.662 247.43 485.73 245.186 485.73 242.7V241.688H487.49V242.546C487.49 244.702 488.942 246.132 490.526 246.748ZM498.116 249.564H498.094C496.708 248.882 494.86 247.1 494.354 245.626C493.848 247.166 492.132 249.014 490.482 249.828L489.36 248.64C491.56 247.562 493.452 245.34 493.452 242.854V241.622H495.212V242.788C495.212 245.318 497.258 247.562 499.194 248.288L498.116 249.564ZM497.236 240.94H495.454V229.06H497.236V240.94ZM513.999 247.76V245.318H503.813V247.76H513.999ZM515.781 249.234H502.031V241.49H503.813V243.866H513.999V241.468H515.781V249.234ZM518.135 240.038H499.655V238.542H518.135V240.038ZM517.167 235.374L516.331 236.914C513.229 236.342 509.907 234.384 508.917 232.272C508.015 234.384 504.627 236.32 501.525 236.914L500.689 235.374C503.901 235.022 507.993 232.844 507.993 229.962V229.302H509.841V229.962C509.841 232.844 514.021 235.022 517.167 235.374ZM531.531 241.996L531.707 243.536C529.331 244.086 524.007 244.482 520.861 244.482H519.959V231.194H521.741V242.92C524.381 242.92 529.089 242.546 531.531 241.996ZM535.381 229.06V249.52H533.621V229.06H535.381ZM540.527 242.986H541.715C544.355 242.986 548.403 242.744 550.361 242.326L550.559 243.8C548.359 244.218 544.311 244.504 540.747 244.504H538.745V231.194H548.447V232.69H540.527V242.986ZM553.705 229.06V237.178H557.027V238.674H553.705V249.52H551.945V229.06H553.705ZM557.179 247.474V245.384H559.203V247.474H557.179Z" fill="#4E516F"/>
<path d="M24.044 291.822C22.944 291.976 21.14 292.152 19.336 292.24C17.444 292.372 15.64 292.438 13.902 292.438L13.638 290.876H15.904L15.288 282.45L17.07 282.208C17.224 285.09 17.422 287.95 17.598 290.832L19.226 290.766C19.358 290.766 19.512 290.766 19.666 290.744C19.842 287.906 20.018 285.046 20.216 282.208L21.998 282.384C21.756 285.134 21.514 287.884 21.25 290.656C22.24 290.568 23.164 290.48 23.89 290.37C23.934 290.854 23.978 291.338 24.044 291.822ZM27.322 296.464H25.584V286.388H22.79V284.914H25.584V277.544H27.322V296.464ZM31.128 297.52H29.39V277.06H31.128V297.52ZM23.384 281.086H14.144V279.612H23.384V281.086ZM42.5663 285.838C42.5663 282.472 41.1583 280.14 38.9803 280.14C36.8243 280.14 35.3943 282.472 35.3943 285.838C35.3943 289.182 36.8243 291.514 38.9803 291.514C41.1583 291.514 42.5663 289.182 42.5663 285.838ZM33.7003 285.816C33.7003 281.504 35.6143 278.6 38.9803 278.6C42.3683 278.6 44.2603 281.504 44.2603 285.838C44.2603 290.172 42.3683 293.054 38.9803 293.054C35.6143 293.054 33.7003 290.172 33.7003 285.816ZM49.8483 297.52H48.0663V277.06H49.8483V297.52ZM59.3946 286.52V283.044H54.6426V286.52H59.3946ZM69.4046 297.52H67.6006V291.778H55.5886V290.304H69.4046V297.52ZM69.4046 289.204H67.6446V283.748H65.1146V289.072H63.3986V277.434H65.1146V282.274H67.6446V277.06H69.4046V289.204ZM61.1326 287.994H52.9046V278.402H54.6426V281.57H59.3946V278.402H61.1326V287.994ZM80.5568 279.128C77.3228 279.128 75.2108 279.986 75.2108 281.68C75.2108 283.352 77.3008 284.21 80.5348 284.21C83.7688 284.21 85.9028 283.352 85.9028 281.68C85.9028 279.986 83.7908 279.128 80.5568 279.128ZM87.6628 281.658C87.6628 284.276 85.0008 285.706 80.5348 285.706C76.0688 285.706 73.4288 284.276 73.4288 281.658C73.4288 279.084 76.0908 277.654 80.5568 277.654C85.0008 277.654 87.6628 279.084 87.6628 281.658ZM87.6848 296.926H73.7368V290.964H75.5188V295.43H87.6848V296.926ZM89.7748 289.05H71.2948V287.554H89.7748V289.05ZM97.6771 278.578H111.559C111.559 281.35 111.493 284.474 110.811 287.642H113.979V289.138H105.619V297.52H103.837V289.138H95.4991V287.642H109.029C109.601 285.442 109.711 282.054 109.711 280.052H97.6771V278.578ZM121.699 290.568V280.778H117.057V290.568H121.699ZM131.907 297.52H130.147V286.718H127.639V296.486H125.901V277.544H127.639V285.222H130.147V277.06H131.907V297.52ZM123.437 292.042H115.319V279.304H123.437V292.042ZM146.448 288.324L146.602 289.688C145.128 289.864 142.686 290.106 140.266 290.238C137.956 290.37 135.14 290.48 133.71 290.48L133.424 289.006C134.92 289.006 136.988 288.962 139.078 288.874V287.488C136.922 287.29 135.272 286.454 135.272 284.804C135.272 282.912 137.406 282.032 140.002 282.032C142.62 282.032 144.776 282.89 144.776 284.782C144.776 286.432 143.082 287.312 140.882 287.488V288.786C143.038 288.676 145.26 288.5 146.448 288.324ZM152.652 285.332H149.55V290.656H147.768V277.06H149.55V283.836H152.652V285.332ZM136.152 291.734H149.55V297.652H147.768V293.208H136.152V291.734ZM145.92 281.35H134.15V279.92H145.92V281.35ZM143.082 284.782C143.082 283.836 141.718 283.374 140.002 283.374C138.264 283.374 136.966 283.836 136.966 284.782C136.966 285.75 138.286 286.212 140.002 286.212C141.718 286.212 143.082 285.728 143.082 284.782ZM142.84 278.798H137.23V277.324H142.84V278.798ZM167.852 283.858H163.738V282.362H167.852V277.06H169.634V289.754H167.852V283.858ZM162.924 291.206C159.778 291.206 157.886 292.086 157.886 293.626C157.886 295.144 159.778 296.024 162.924 296.024C166.114 296.024 167.984 295.144 167.984 293.626C167.984 292.086 166.114 291.206 162.924 291.206ZM153.464 280.25V278.754H164.53V280.25H159.932C159.932 280.668 159.932 281.13 159.954 281.372C160.108 284.144 162.726 286.366 165.234 287.114L164.178 288.544C162.044 287.708 159.844 285.794 159.008 283.946C158.458 285.86 155.994 288.324 153.794 289.27L152.826 287.84C155.4 286.85 157.996 284.254 158.106 281.35C158.128 281.13 158.128 280.646 158.128 280.25H153.464ZM169.788 293.626C169.788 296.024 167.324 297.52 162.924 297.52C158.546 297.52 156.082 296.024 156.082 293.626C156.082 291.206 158.546 289.71 162.924 289.71C167.324 289.71 169.788 291.206 169.788 293.626ZM189.79 278.886H182.948V277.368H189.79V278.886ZM190.824 285.948C190.824 284.694 188.426 284.276 186.38 284.276C184.356 284.276 181.936 284.694 181.936 285.948C181.936 287.136 184.356 287.576 186.38 287.576C188.426 287.576 190.824 287.136 190.824 285.948ZM194.608 281.922H178.174V280.426H194.608V281.922ZM187.238 297.542H185.456V291.69H177.118V290.194H195.598V291.69H187.238V297.542ZM192.672 285.948C192.672 288.06 190.01 289.072 186.38 289.072C182.772 289.072 180.088 288.06 180.088 285.948C180.088 283.792 182.772 282.802 186.38 282.802C190.01 282.802 192.672 283.792 192.672 285.948ZM220.375 286.85H217.053V297.52H215.271V277.06H217.053V285.354H220.375V286.85ZM213.467 291.382L212.389 292.724C210.453 291.492 207.967 288.918 207.219 286.476C206.537 288.962 204.535 291.492 202.093 293.208L200.905 291.866C203.919 290.084 206.295 286.498 206.295 282.802V280.712H201.565V279.216H212.873V280.712H208.143V282.758C208.143 286.586 210.651 289.798 213.467 291.382ZM229.701 291.822C226.489 291.822 224.509 292.614 224.509 293.934C224.509 295.298 226.489 296.046 229.701 296.046C232.935 296.046 234.915 295.298 234.915 293.934C234.915 292.614 232.935 291.822 229.701 291.822ZM236.719 284.804H230.581V287.4H238.941V288.874H220.461V287.4H228.799V284.804H222.727V278.028H236.609V279.524H224.509V283.33H236.719V284.804ZM236.741 293.934C236.741 296.222 234.189 297.52 229.701 297.52C225.213 297.52 222.683 296.2 222.683 293.934C222.683 291.712 225.213 290.37 229.701 290.37C234.189 290.37 236.741 291.624 236.741 293.934ZM253.157 285.464V282.318H247.173V285.464H253.157ZM254.939 286.938H245.391V277.852H247.173V280.844H253.157V277.852H254.939V286.938ZM261.143 297.366H247.349V292.262H258.613V290.26H247.327V288.808H260.395V293.648H249.131V295.892H261.143V297.366ZM263.519 283.132H260.395V287.642H258.613V277.06H260.395V281.636H263.519V283.132ZM280.039 297.212H266.003V288.698H267.785V291.404H278.257V288.654H280.039V297.212ZM265.981 278.094H279.885C279.885 280.822 279.665 283.506 279.181 285.574H282.261V287.048H263.781V285.574H277.399C277.817 284.034 278.059 281.284 278.059 279.568H265.981V278.094ZM278.257 295.738V292.878H267.785V295.738H278.257ZM299.706 297.234H286.396V289.908H288.178V292.02H297.924V289.864H299.706V297.234ZM296.34 286.454L296.494 287.884C294.888 288.082 292.402 288.302 289.916 288.434C287.606 288.544 284.592 288.61 283.228 288.61L282.964 287.048C284.548 287.048 286.682 287.048 288.904 286.982V284.496H284.724V278.182H294.646V279.656H286.506V283.022H294.844V284.496H290.686V286.916C292.864 286.806 295.064 286.652 296.34 286.454ZM297.924 295.782V293.472H288.178V295.782H297.924ZM299.706 288.764H297.924V277.06H299.706V288.764ZM314.818 289.996L314.994 291.536C312.618 292.086 307.294 292.482 304.148 292.482H303.246V279.194H305.028V290.92C307.668 290.92 312.376 290.546 314.818 289.996ZM318.668 277.06V297.52H316.908V277.06H318.668ZM323.814 290.986H325.002C327.642 290.986 331.69 290.744 333.648 290.326L333.846 291.8C331.646 292.218 327.598 292.504 324.034 292.504H322.032V279.194H331.734V280.69H323.814V290.986ZM336.992 277.06V285.178H340.314V286.674H336.992V297.52H335.232V277.06H336.992ZM340.467 295.474V293.384H342.491V295.474H340.467Z" fill="#4E516F"/>
<path d="M32.36 342.704H13.88V341.208H32.36V342.704ZM31.678 335.598L30.688 337.094C27.256 336.06 23.934 333.156 23.098 331.066C22.372 333.156 19.116 336.06 15.552 337.072L14.606 335.532C17.95 334.894 22.196 331.726 22.196 328.382V326.754H24.044V328.382C24.044 331.726 28.532 334.894 31.678 335.598ZM43.1823 339.822C42.0823 339.976 40.2783 340.152 38.4743 340.24C36.5823 340.372 34.7783 340.438 33.0403 340.438L32.7763 338.876H35.0423L34.4263 330.45L36.2083 330.208C36.3623 333.09 36.5603 335.95 36.7363 338.832L38.3643 338.766C38.4963 338.766 38.6503 338.766 38.8043 338.744C38.9803 335.906 39.1563 333.046 39.3543 330.208L41.1363 330.384C40.8943 333.134 40.6523 335.884 40.3883 338.656C41.3783 338.568 42.3023 338.48 43.0283 338.37C43.0723 338.854 43.1163 339.338 43.1823 339.822ZM46.4603 344.464H44.7223V334.388H41.9283V332.914H44.7223V325.544H46.4603V344.464ZM50.2663 345.52H48.5283V325.06H50.2663V345.52ZM42.5223 329.086H33.2823V327.612H42.5223V329.086ZM63.4426 332.496V331.044H67.0946V328.822H63.4426V327.37H67.0946V325.06H68.8766V335.774H67.0946V332.496H63.4426ZM69.6466 345.366H55.6766V340.328H67.1166V338.326H55.5666V336.83H68.8986V341.714H57.4586V343.892H69.6466V345.366ZM63.9926 333.926L62.9806 335.312C61.0226 334.542 59.0206 332.804 58.0526 330.692C57.4366 332.782 55.5006 334.718 53.0586 335.884L51.9586 334.542C54.6426 333.486 57.1286 331.088 57.1286 327.81V325.786H58.9326V327.744C58.9326 331.066 61.8146 333.2 63.9926 333.926ZM78.7589 326.38H92.3989C92.3989 328.998 92.3109 332.848 91.6509 336.082H94.8409V337.578H86.4809V345.52H84.6989V337.578H76.3609V336.082H89.8689C90.1329 335.092 90.2869 333.662 90.3969 332.232L78.4949 332.738L78.2089 331.176L90.4629 330.802C90.5289 329.636 90.5509 328.558 90.5509 327.854H78.7589V326.38ZM112.175 327.568H97.1931V326.094H112.175V327.568ZM111.845 344.882H97.8091V339.382H99.5911V343.386H111.845V344.882ZM113.979 337.93H95.4991V336.434H103.815V333.992H97.2151V332.54H100.581L99.9651 328.624L101.813 328.382L102.275 332.54H107.093L107.621 328.338L109.469 328.58L108.809 332.54H112.175V333.992H105.597V336.434H113.979V337.93ZM123.899 327.128C120.665 327.128 118.553 327.986 118.553 329.68C118.553 331.352 120.643 332.21 123.877 332.21C127.111 332.21 129.245 331.352 129.245 329.68C129.245 327.986 127.133 327.128 123.899 327.128ZM131.005 329.658C131.005 332.276 128.343 333.706 123.877 333.706C119.411 333.706 116.771 332.276 116.771 329.658C116.771 327.084 119.433 325.654 123.899 325.654C128.343 325.654 131.005 327.084 131.005 329.658ZM131.027 344.926H117.079V338.964H118.861V343.43H131.027V344.926ZM133.117 337.05H114.637V335.554H133.117V337.05ZM147.884 335.048C147.884 333.684 146.41 332.87 144.76 332.87C143.11 332.87 141.636 333.684 141.636 335.048C141.636 336.39 143.11 337.204 144.76 337.204C146.41 337.204 147.884 336.39 147.884 335.048ZM149.578 335.048C149.578 337.204 147.51 338.634 144.76 338.634C142.032 338.634 139.942 337.204 139.942 335.048C139.942 332.848 142.01 331.462 144.76 331.462C147.51 331.462 149.578 332.848 149.578 335.048ZM150.744 330.362H138.754V328.888H150.744V330.362ZM147.576 327.348H141.68V325.786H147.576V327.348ZM155.364 344.86H141.746V339.602H143.528V343.364H155.364V344.86ZM157.696 333.486H154.572V340.152H152.79V325.06H154.572V331.99H157.696V333.486ZM172.918 331.858H168.804V330.362H172.918V325.06H174.7V337.754H172.918V331.858ZM167.99 339.206C164.844 339.206 162.952 340.086 162.952 341.626C162.952 343.144 164.844 344.024 167.99 344.024C171.18 344.024 173.05 343.144 173.05 341.626C173.05 340.086 171.18 339.206 167.99 339.206ZM158.53 328.25V326.754H169.596V328.25H164.998C164.998 328.668 164.998 329.13 165.02 329.372C165.174 332.144 167.792 334.366 170.3 335.114L169.244 336.544C167.11 335.708 164.91 333.794 164.074 331.946C163.524 333.86 161.06 336.324 158.86 337.27L157.892 335.84C160.466 334.85 163.062 332.254 163.172 329.35C163.194 329.13 163.194 328.646 163.194 328.25H158.53ZM174.854 341.626C174.854 344.024 172.39 345.52 167.99 345.52C163.612 345.52 161.148 344.024 161.148 341.626C161.148 339.206 163.612 337.71 167.99 337.71C172.39 337.71 174.854 339.206 174.854 341.626ZM194.85 332.914L193.992 334.432C190.934 333.816 187.59 331.88 186.358 329.504C185.368 331.88 181.87 333.882 178.768 334.498L177.91 332.958C181.826 332.452 185.434 329.856 185.434 327.062V325.764H187.304V327.062C187.304 329.856 191.242 332.474 194.85 332.914ZM187.216 345.542H185.434V338.106H177.118V336.61H195.598V338.106H187.216V345.542ZM215.089 332.628V334.124H211.965V337.512H210.183V325.06H211.965V328.228H215.089V329.702H211.965V332.628H215.089ZM205.431 339.448C202.329 339.448 200.503 340.284 200.503 341.714C200.503 343.1 202.329 343.936 205.431 343.936C208.533 343.936 210.381 343.144 210.381 341.714C210.381 340.262 208.533 339.448 205.431 339.448ZM208.005 334.278L208.247 335.73C206.135 336.104 201.867 336.412 199.007 336.412H197.071V330.494H204.221V327.832H197.027V326.358H206.003V331.946H198.853V334.916H199.117C201.493 334.916 205.607 334.762 208.005 334.278ZM212.207 341.714C212.207 343.98 209.875 345.41 205.431 345.41C200.987 345.41 198.677 344.002 198.677 341.714C198.677 339.382 200.987 337.974 205.431 337.974C209.875 337.974 212.207 339.426 212.207 341.714ZM224.943 333.838C224.943 330.472 223.535 328.14 221.357 328.14C219.201 328.14 217.771 330.472 217.771 333.838C217.771 337.182 219.201 339.514 221.357 339.514C223.535 339.514 224.943 337.182 224.943 333.838ZM216.077 333.816C216.077 329.504 217.991 326.6 221.357 326.6C224.745 326.6 226.637 329.504 226.637 333.838C226.637 338.172 224.745 341.054 221.357 341.054C217.991 341.054 216.077 338.172 216.077 333.816ZM232.225 345.52H230.443V325.06H232.225V345.52ZM242.783 338.854V328.58H237.063V338.854H242.783ZM244.565 340.328H235.281V327.106H244.565V340.328ZM245.709 331.308V329.834H249.581V325.06H251.363V345.52H249.581V337.028H245.709V335.554H249.581V331.308H245.709ZM277.217 342.902H258.737V341.406H267.053V336.324H268.835V341.406H277.217V342.902ZM275.677 328.558H268.923V328.998C268.923 332.21 273.433 335.224 276.513 335.818L275.589 337.314C272.311 336.39 268.945 333.838 267.977 331.594C267.119 333.904 263.731 336.412 260.343 337.27L259.485 335.774C262.719 335.202 267.053 332.254 267.053 328.998V328.558H260.321V327.128H275.677V328.558ZM278.844 327.238H288.59C288.48 333.882 284.41 338.964 279.13 341.472L278.096 340.064C283.266 337.798 286.302 333.332 286.676 328.734H278.844V327.238ZM294.596 345.52H292.814V325.06H294.596V345.52ZM315.494 342.902H297.014V341.406H305.33V336.17H307.112V341.406H315.494V342.902ZM314.768 335.158L313.778 336.588C310.192 335.598 307.112 333.046 306.232 330.736C305.44 333.09 302.294 335.62 298.708 336.588L297.784 335.158C301.348 334.476 305.33 331.572 305.33 328.052V326.578H307.178V328.052C307.178 331.572 311.402 334.52 314.768 335.158ZM332.872 339.91H331.09V325.06H332.872V339.91ZM333.312 344.97H319.672V338.612H321.454V343.496H333.312V344.97ZM317.032 328.448V326.952H328.164V328.448H323.478C323.478 329.306 323.478 329.724 323.5 330.01C323.654 332.628 326.228 334.938 328.56 335.708L327.57 337.138C325.612 336.346 323.39 334.41 322.554 332.562C322.004 334.476 319.628 336.72 317.428 337.666L316.394 336.28C318.968 335.29 321.498 332.694 321.652 329.988C321.674 329.724 321.674 329.306 321.674 328.448H317.032ZM352.809 339.228L351.687 340.592C349.839 339.338 347.441 336.808 346.649 334.344C345.901 336.896 343.789 339.404 341.413 341.098L340.247 339.756C343.239 337.886 345.703 334.168 345.703 330.538V326.842H347.507V330.472C347.507 334.212 349.993 337.556 352.809 339.228ZM357.209 345.52H355.427V325.06H357.209V345.52ZM373.053 333.464V330.318H367.069V333.464H373.053ZM374.835 334.938H365.287V325.852H367.069V328.844H373.053V325.852H374.835V334.938ZM381.039 345.366H367.245V340.262H378.509V338.26H367.223V336.808H380.291V341.648H369.027V343.892H381.039V345.366ZM383.415 331.132H380.291V335.642H378.509V325.06H380.291V329.636H383.415V331.132ZM399.935 345.212H385.899V336.698H387.681V339.404H398.153V336.654H399.935V345.212ZM385.877 326.094H399.781C399.781 328.822 399.561 331.506 399.077 333.574H402.157V335.048H383.677V333.574H397.295C397.713 332.034 397.955 329.284 397.955 327.568H385.877V326.094ZM398.153 343.738V340.878H387.681V343.738H398.153ZM412.385 333.838C412.385 330.472 410.977 328.14 408.799 328.14C406.643 328.14 405.213 330.472 405.213 333.838C405.213 337.182 406.643 339.514 408.799 339.514C410.977 339.514 412.385 337.182 412.385 333.838ZM403.519 333.816C403.519 329.504 405.433 326.6 408.799 326.6C412.187 326.6 414.079 329.504 414.079 333.838C414.079 338.172 412.187 341.054 408.799 341.054C405.433 341.054 403.519 338.172 403.519 333.816ZM419.667 345.52H417.885V325.06H419.667V345.52ZM445.522 336.786H427.042V335.29H435.38V332.188H437.162V335.29H445.522V336.786ZM436.282 339.866C432.982 339.866 430.936 340.614 430.936 341.934C430.936 343.298 432.982 344.024 436.282 344.024C439.604 344.024 441.65 343.298 441.65 341.934C441.65 340.614 439.604 339.866 436.282 339.866ZM444.598 331.88L443.784 333.376C440.374 332.826 437.294 331.022 436.282 329.152C435.468 331.044 432.432 332.87 428.824 333.398L428.01 331.902C431.178 331.616 434.654 329.988 435.27 327.59H428.736V326.116H443.828V327.59H437.316C437.976 330.01 441.76 331.616 444.598 331.88ZM443.454 341.934C443.454 344.178 440.858 345.454 436.282 345.454C431.706 345.454 429.132 344.156 429.132 341.934C429.132 339.756 431.706 338.436 436.282 338.436C440.858 338.436 443.454 339.668 443.454 341.934ZM453.11 337.446V341.406H457.862V337.446H453.11ZM462.922 337.446H459.622V341.406H464.66V342.902H446.18V341.406H451.35V337.446H448.446V331.22H460.568V328.074H448.512V326.578H462.35V332.694H450.228V335.95H462.922V337.446ZM482.874 345.3H468.574V340.46H480.3V338.546H468.552V337.116H482.082V341.78H470.356V343.87H482.874V345.3ZM478.716 333.486L478.87 334.916C477.264 335.114 474.778 335.334 472.292 335.466C469.982 335.576 466.946 335.664 465.582 335.664L465.318 334.08C466.88 334.08 468.97 334.08 471.17 334.014V332.034H467.078V326.05H477.132V327.524H468.86V330.56H477.33V332.034H472.952V333.948C475.174 333.86 477.418 333.684 478.716 333.486ZM482.082 336.082H480.3V325.06H482.082V336.082ZM507.255 332.914L506.397 334.432C503.339 333.816 499.995 331.88 498.763 329.504C497.773 331.88 494.275 333.882 491.173 334.498L490.315 332.958C494.231 332.452 497.839 329.856 497.839 327.062V325.764H499.709V327.062C499.709 329.856 503.647 332.474 507.255 332.914ZM499.621 345.542H497.839V338.106H489.523V336.61H508.003V338.106H499.621V345.542ZM514.469 327.656C512.423 327.656 510.905 329.108 510.905 331.11C510.905 333.156 512.423 334.542 514.469 334.542C516.603 334.542 518.055 333.156 518.055 331.132C518.055 329.108 516.625 327.656 514.469 327.656ZM514.469 326.204C517.373 326.204 519.771 328.162 519.771 331.11C519.771 334.124 517.373 335.994 514.469 335.994C511.565 335.994 509.167 334.124 509.167 331.132C509.167 328.162 511.565 326.204 514.469 326.204ZM518.671 342.748L517.439 343.958C516.427 343.43 515.327 342.374 514.843 341.252C514.359 342.792 512.555 344.772 510.795 345.608L509.717 344.332C511.807 343.43 513.875 341.186 513.875 338.7V337.688H515.635V338.546C515.635 340.702 517.087 342.132 518.671 342.748ZM526.261 345.564H526.239C524.853 344.882 523.005 343.1 522.499 341.626C521.993 343.166 520.277 345.014 518.627 345.828L517.505 344.64C519.705 343.562 521.597 341.34 521.597 338.854V337.622H523.357V338.788C523.357 341.318 525.403 343.562 527.339 344.288L526.261 345.564ZM525.381 336.94H523.599V325.06H525.381V336.94ZM542.143 343.76V341.318H531.957V343.76H542.143ZM543.925 345.234H530.175V337.49H531.957V339.866H542.143V337.468H543.925V345.234ZM546.279 336.038H527.799V334.542H546.279V336.038ZM545.311 331.374L544.475 332.914C541.373 332.342 538.051 330.384 537.061 328.272C536.159 330.384 532.771 332.32 529.669 332.914L528.833 331.374C532.045 331.022 536.137 328.844 536.137 325.962V325.302H537.985V325.962C537.985 328.844 542.165 331.022 545.311 331.374ZM559.675 337.996L559.851 339.536C557.475 340.086 552.151 340.482 549.005 340.482H548.103V327.194H549.885V338.92C552.525 338.92 557.233 338.546 559.675 337.996ZM563.525 325.06V345.52H561.765V325.06H563.525ZM568.672 338.986H569.86C572.5 338.986 576.548 338.744 578.506 338.326L578.704 339.8C576.504 340.218 572.456 340.504 568.892 340.504H566.89V327.194H576.592V328.69H568.672V338.986ZM581.85 325.06V333.178H585.172V334.674H581.85V345.52H580.09V325.06H581.85ZM585.324 343.474V341.384H587.348V343.474H585.324Z" fill="#4E516F"/>
<path d="M16.476 386.986H17.664C20.304 386.986 24.352 386.744 26.31 386.326L26.508 387.8C24.308 388.218 20.26 388.504 16.696 388.504H14.694V375.194H24.396V376.69H16.476V386.986ZM29.654 373.06V381.178H32.976V382.674H29.654V393.52H27.894V373.06H29.654ZM49.4083 392.926H35.4603V386.964H37.2423V391.43H49.4083V392.926ZM43.2263 389.098H41.4443V384.94H33.0183V383.466H51.4983V384.94H43.2263V389.098ZM42.2803 375.15C39.0463 375.15 36.9343 376.008 36.9343 377.702C36.9343 379.374 39.0243 380.232 42.2583 380.232C45.4923 380.232 47.6263 379.374 47.6263 377.702C47.6263 376.008 45.5143 375.15 42.2803 375.15ZM49.3863 377.68C49.3863 380.298 46.7243 381.728 42.2583 381.728C37.7923 381.728 35.1523 380.298 35.1523 377.68C35.1523 375.106 37.8143 373.676 42.2803 373.676C46.7243 373.676 49.3863 375.106 49.3863 377.68ZM70.6366 390.902H52.1566V389.406H60.4726V385.93H54.4446V379.528H66.5666V376.25H54.4226V374.754H68.3486V381.002H56.2266V384.434H68.9206V385.93H62.2546V389.406H70.6366V390.902ZM89.7748 390.704H71.2948V389.208H89.7748V390.704ZM87.5528 384.72H73.6268V375.084H87.3548V376.558H75.4088V383.246H87.5528V384.72ZM104.057 382.19V378.846H98.0511V382.19H104.057ZM105.839 383.664H96.2691V374.226H98.0511V377.372H104.057V374.226H105.839V383.664ZM111.471 393.124H98.4031V386.216H111.273V387.69H100.207V391.65H111.471V393.124ZM114.353 379.99H111.229V384.962H109.447V373.06H111.229V378.494H114.353V379.99ZM123.899 375.128C120.665 375.128 118.553 375.986 118.553 377.68C118.553 379.352 120.643 380.21 123.877 380.21C127.111 380.21 129.245 379.352 129.245 377.68C129.245 375.986 127.133 375.128 123.899 375.128ZM131.005 377.658C131.005 380.276 128.343 381.706 123.877 381.706C119.411 381.706 116.771 380.276 116.771 377.658C116.771 375.084 119.433 373.654 123.899 373.654C128.343 373.654 131.005 375.084 131.005 377.658ZM131.027 392.926H117.079V386.964H118.861V391.43H131.027V392.926ZM133.117 385.05H114.637V383.554H133.117V385.05ZM141.24 374.38H154.88C154.88 376.998 154.792 380.848 154.132 384.082H157.322V385.578H148.962V393.52H147.18V385.578H138.842V384.082H152.35C152.614 383.092 152.768 381.662 152.878 380.232L140.976 380.738L140.69 379.176L152.944 378.802C153.01 377.636 153.032 376.558 153.032 375.854H141.24V374.38ZM174.656 375.568H159.674V374.094H174.656V375.568ZM174.326 392.882H160.29V387.382H162.072V391.386H174.326V392.882ZM176.46 385.93H157.98V384.434H166.296V381.992H159.696V380.54H163.062L162.446 376.624L164.294 376.382L164.756 380.54H169.574L170.102 376.338L171.95 376.58L171.29 380.54H174.656V381.992H168.078V384.434H176.46V385.93ZM186.38 375.128C183.146 375.128 181.034 375.986 181.034 377.68C181.034 379.352 183.124 380.21 186.358 380.21C189.592 380.21 191.726 379.352 191.726 377.68C191.726 375.986 189.614 375.128 186.38 375.128ZM193.486 377.658C193.486 380.276 190.824 381.706 186.358 381.706C181.892 381.706 179.252 380.276 179.252 377.658C179.252 375.084 181.914 373.654 186.38 373.654C190.824 373.654 193.486 375.084 193.486 377.658ZM193.508 392.926H179.56V386.964H181.342V391.43H193.508V392.926ZM195.598 385.05H177.118V383.554H195.598V385.05ZM215.777 381.398V378.318H205.349V381.398H215.777ZM207.901 393.542H206.119V386.744H201.323V385.248H219.803V386.744H214.941V393.542H213.159V386.744H207.901V393.542ZM217.559 382.872H203.567V373.852H205.349V376.866H215.777V373.852H217.559V382.872ZM237.247 393.52H235.465V373.06H237.247V393.52ZM233.177 386.37L233.375 387.844C231.153 388.262 226.643 388.57 223.387 388.57H221.627V374.996H231.153V376.47H223.409V380.76H230.757V382.212H223.409V387.03C226.621 387.118 231.153 386.788 233.177 386.37ZM252.249 386.304L252.381 387.756C250.885 387.954 248.575 388.152 246.155 388.284C243.845 388.394 241.447 388.482 239.599 388.504L239.335 386.942C240.303 386.942 241.337 386.942 242.371 386.92L241.645 378.318L243.449 378.164L243.999 386.876C244.791 386.854 245.561 386.81 246.309 386.766C246.573 386.766 246.815 386.744 247.079 386.744L247.673 378.142L249.455 378.296L248.685 386.634C250.115 386.546 251.347 386.436 252.249 386.304ZM255.307 373.06V381.222H258.651V382.718H255.307V393.52H253.525V373.06H255.307ZM251.039 376.712H239.907V375.216H251.039V376.712ZM268.857 393.542H267.075V386.414H258.825V384.918H277.305V386.414H268.857V393.542ZM267.977 375.458C264.523 375.458 262.411 376.602 262.411 378.494C262.411 380.386 264.523 381.53 267.977 381.53C271.453 381.53 273.565 380.386 273.565 378.494C273.565 376.602 271.453 375.458 267.977 375.458ZM275.303 378.494C275.303 381.2 272.553 383.07 267.977 383.07C263.401 383.07 260.651 381.222 260.651 378.494C260.651 375.766 263.401 373.918 267.977 373.918C272.553 373.918 275.303 375.766 275.303 378.494ZM287.424 375.898H281.242V374.27H287.424V375.898ZM294.728 393.52H292.946V373.06H294.728V393.52ZM290.9 388.042L289.954 389.45C287.732 388.438 285.092 385.886 284.366 383.752C283.772 385.93 281.264 388.724 279.042 389.89L277.986 388.57C280.67 387.294 283.42 384.126 283.42 380.32V379.682H278.602V378.208H289.998V379.682H285.246V380.298C285.246 384.104 288.282 387.118 290.9 388.042ZM297.344 384.104V382.542H305.066V384.104H297.344ZM308.431 374.38H322.071C322.071 376.998 321.983 380.848 321.323 384.082H324.513V385.578H316.153V393.52H314.371V385.578H306.033V384.082H319.541C319.805 383.092 319.959 381.662 320.069 380.232L308.167 380.738L307.881 379.176L320.135 378.802C320.201 377.636 320.223 376.558 320.223 375.854H308.431V374.38ZM341.847 375.568H326.865V374.094H341.847V375.568ZM341.517 392.882H327.481V387.382H329.263V391.386H341.517V392.882ZM343.651 385.93H325.171V384.434H333.487V381.992H326.887V380.54H330.253L329.637 376.624L331.485 376.382L331.947 380.54H336.765L337.293 376.338L339.141 376.58L338.481 380.54H341.847V381.992H335.269V384.434H343.651V385.93ZM353.176 382.19C353.176 380.914 351.768 380.188 350.162 380.188C348.578 380.188 347.126 380.914 347.126 382.19C347.126 383.422 348.6 384.17 350.162 384.17C351.768 384.17 353.176 383.422 353.176 382.19ZM354.914 382.19C354.914 384.214 352.868 385.556 350.162 385.556C347.456 385.556 345.41 384.236 345.41 382.19C345.41 380.078 347.434 378.802 350.162 378.802C352.868 378.802 354.914 380.078 354.914 382.19ZM356.146 377.922H344.222V376.448H356.146V377.922ZM353.044 374.996H347.324V373.5H353.044V374.996ZM358.258 391.76V388.284H348.886V391.76H358.258ZM360.04 393.234H347.104V386.832H360.04V393.234ZM363.164 380.562H360.04V385.776H358.28V373.06H360.04V379.066H363.164V380.562ZM380.718 393.52H378.958V373.06H380.718V393.52ZM371.016 381.838C371.016 378.538 369.938 376.404 368.288 376.404C366.638 376.404 365.582 378.538 365.582 381.838C365.582 385.16 366.638 387.272 368.288 387.272C369.938 387.272 371.016 385.16 371.016 381.838ZM368.288 374.842C371.104 374.842 372.622 377.438 372.776 381.156H374.976V373.456H376.714V392.53H374.976V382.63H372.776C372.578 386.326 371.082 388.834 368.288 388.834C365.296 388.834 363.778 385.952 363.778 381.838C363.778 377.746 365.296 374.842 368.288 374.842ZM394.84 387.272L393.74 388.614C391.87 387.36 389.494 384.764 388.68 382.3C387.954 384.852 385.952 387.382 383.576 389.076L382.41 387.756C385.38 385.886 387.756 382.256 387.756 378.626V374.842H389.582V378.56C389.582 382.3 392.024 385.622 394.84 387.272ZM399.372 393.52H397.59V381.86H392.816V380.364H397.59V373.06H399.372V393.52ZM419.463 384.324L419.617 385.688C418.143 385.864 415.701 386.106 413.281 386.238C410.971 386.37 408.155 386.48 406.725 386.48L406.439 385.006C407.935 385.006 410.003 384.962 412.093 384.874V383.488C409.937 383.29 408.287 382.454 408.287 380.804C408.287 378.912 410.421 378.032 413.017 378.032C415.635 378.032 417.791 378.89 417.791 380.782C417.791 382.432 416.097 383.312 413.897 383.488V384.786C416.053 384.676 418.275 384.5 419.463 384.324ZM425.667 381.332H422.565V386.656H420.783V373.06H422.565V379.836H425.667V381.332ZM409.167 387.734H422.565V393.652H420.783V389.208H409.167V387.734ZM418.935 377.35H407.165V375.92H418.935V377.35ZM416.097 380.782C416.097 379.836 414.733 379.374 413.017 379.374C411.279 379.374 409.981 379.836 409.981 380.782C409.981 381.75 411.301 382.212 413.017 382.212C414.733 382.212 416.097 381.728 416.097 380.782ZM415.855 374.798H410.245V373.324H415.855V374.798ZM431.891 375.964C429.735 375.964 428.085 377.438 428.085 379.506C428.085 381.574 429.757 383.026 431.913 383.026C434.157 383.026 435.719 381.574 435.719 379.528C435.719 377.438 434.157 375.964 431.891 375.964ZM431.891 374.402C434.993 374.402 437.413 376.47 437.413 379.506C437.413 382.564 435.015 384.588 431.913 384.588C428.789 384.588 426.391 382.586 426.391 379.528C426.391 376.492 428.789 374.402 431.891 374.402ZM443.155 392.838H429.317V386.524H431.099V391.364H443.155V392.838ZM442.649 387.998H440.867V373.06H442.649V387.998ZM454.087 381.552C454.087 380.408 452.591 379.836 450.963 379.836C449.357 379.836 447.883 380.408 447.883 381.552C447.883 382.696 449.379 383.29 450.963 383.29C452.591 383.29 454.087 382.696 454.087 381.552ZM455.803 381.552C455.803 383.554 453.779 384.654 450.963 384.654C448.301 384.654 446.167 383.554 446.167 381.552C446.167 379.55 448.257 378.472 450.963 378.472C453.713 378.472 455.803 379.55 455.803 381.552ZM456.991 377.658H444.979V376.206H456.991V377.658ZM453.933 374.908H448.037V373.412H453.933V374.908ZM461.567 393.388H447.927V388.834H459.015V387.096H447.839V385.732H460.797V390.132H449.709V392.024H461.567V393.388ZM463.921 379.968H460.797V384.676H459.037V373.06H460.797V378.472H463.921V379.968ZM487.003 380.914L486.145 382.432C483.087 381.816 479.743 379.88 478.511 377.504C477.521 379.88 474.023 381.882 470.921 382.498L470.063 380.958C473.979 380.452 477.587 377.856 477.587 375.062V373.764H479.457V375.062C479.457 377.856 483.395 380.474 487.003 380.914ZM479.369 393.542H477.587V386.106H469.271V384.61H487.751V386.106H479.369V393.542ZM499.284 375.656C497.238 375.656 495.72 377.108 495.72 379.11C495.72 381.156 497.238 382.542 499.284 382.542C501.418 382.542 502.87 381.156 502.87 379.132C502.87 377.108 501.44 375.656 499.284 375.656ZM499.284 374.204C502.188 374.204 504.586 376.162 504.586 379.11C504.586 382.124 502.188 383.994 499.284 383.994C496.38 383.994 493.982 382.124 493.982 379.132C493.982 376.162 496.38 374.204 499.284 374.204ZM503.486 390.748L502.254 391.958C501.242 391.43 500.142 390.374 499.658 389.252C499.174 390.792 497.37 392.772 495.61 393.608L494.532 392.332C496.622 391.43 498.69 389.186 498.69 386.7V385.688H500.45V386.546C500.45 388.702 501.902 390.132 503.486 390.748ZM511.076 393.564H511.054C509.668 392.882 507.82 391.1 507.314 389.626C506.808 391.166 505.092 393.014 503.442 393.828L502.32 392.64C504.52 391.562 506.412 389.34 506.412 386.854V385.622H508.172V386.788C508.172 389.318 510.218 391.562 512.154 392.288L511.076 393.564ZM510.196 384.94H508.414V373.06H510.196V384.94ZM526.958 391.76V389.318H516.772V391.76H526.958ZM528.74 393.234H514.99V385.49H516.772V387.866H526.958V385.468H528.74V393.234ZM531.094 384.038H512.614V382.542H531.094V384.038ZM530.126 379.374L529.29 380.914C526.188 380.342 522.866 378.384 521.876 376.272C520.974 378.384 517.586 380.32 514.484 380.914L513.648 379.374C516.86 379.022 520.952 376.844 520.952 373.962V373.302H522.8V373.962C522.8 376.844 526.98 379.022 530.126 379.374ZM544.49 385.996L544.666 387.536C542.29 388.086 536.966 388.482 533.82 388.482H532.918V375.194H534.7V386.92C537.34 386.92 542.048 386.546 544.49 385.996ZM548.34 373.06V393.52H546.58V373.06H548.34ZM553.487 386.986H554.675C557.315 386.986 561.363 386.744 563.321 386.326L563.519 387.8C561.319 388.218 557.271 388.504 553.707 388.504H551.705V375.194H561.407V376.69H553.487V386.986ZM566.665 373.06V381.178H569.987V382.674H566.665V393.52H564.905V373.06H566.665ZM570.139 391.474V389.384H572.163V391.474H570.139Z" fill="#4E516F"/>
<path d="M16.278 422.38H29.918C29.918 424.998 29.83 428.848 29.17 432.082H32.36V433.578H24V441.52H22.218V433.578H13.88V432.082H27.388C27.652 431.092 27.806 429.662 27.916 428.232L16.014 428.738L15.728 427.176L27.982 426.802C28.048 425.636 28.07 424.558 28.07 423.854H16.278V422.38ZM49.6943 423.568H34.7123V422.094H49.6943V423.568ZM49.3643 440.882H35.3283V435.382H37.1103V439.386H49.3643V440.882ZM51.4983 433.93H33.0183V432.434H41.3343V429.992H34.7343V428.54H38.1003L37.4843 424.624L39.3323 424.382L39.7943 428.54H44.6123L45.1403 424.338L46.9883 424.58L46.3283 428.54H49.6943V429.992H43.1163V432.434H51.4983V433.93ZM60.4946 429.816V426.582H54.7526V429.816H60.4946ZM62.2766 431.29H52.9706V421.984H54.7526V425.108H60.4946V421.984H62.2766V431.29ZM68.8766 421.06V431.818H67.0946V429.244H63.3106V427.77H67.0946V425.35H63.3106V423.898H67.0946V421.06H68.8766ZM69.6246 441.366H55.5886V436.284H67.0946V434.326H55.5666V432.874H68.8766V437.67H57.3706V439.914H69.6246V441.366ZM88.3729 435.162L87.2509 436.526C85.1389 435.074 82.8509 432.632 82.0369 430.168C81.3109 432.72 79.3309 435.316 76.9109 436.988L75.7669 435.624C78.7369 433.798 81.1349 430.124 81.1349 426.494V422.864H82.9609V426.428C82.9609 430.168 85.5349 433.512 88.3729 435.162ZM95.3909 430.806H92.0909V441.52H90.3089V421.06H92.0909V429.31H95.3909V430.806ZM104.739 429.178C103.727 429.178 102.803 429.112 101.989 428.958V431.4H107.423V428.98C106.609 429.112 105.729 429.178 104.739 429.178ZM104.761 435.712C101.505 435.712 99.3271 436.438 99.3271 437.78C99.3271 439.122 101.505 439.848 104.761 439.848C108.083 439.848 110.239 439.122 110.239 437.78C110.239 436.438 108.061 435.712 104.761 435.712ZM110.151 425.35C110.151 423.832 108.017 422.93 104.739 422.93C101.461 422.93 99.3491 423.832 99.3491 425.35C99.3491 426.846 101.461 427.748 104.739 427.748C107.995 427.748 110.151 426.846 110.151 425.35ZM112.021 437.78C112.021 440.134 109.271 441.388 104.783 441.388C100.273 441.388 97.5451 440.134 97.5451 437.78C97.5451 435.448 100.273 434.172 104.761 434.172C109.271 434.172 112.021 435.448 112.021 437.78ZM111.889 425.35C111.889 426.736 110.921 427.836 109.205 428.496V431.4H113.979V432.874H95.4991V431.4H100.207V428.474C98.5351 427.814 97.6111 426.714 97.6111 425.35C97.6111 423.018 100.251 421.5 104.739 421.5C109.227 421.5 111.889 423.018 111.889 425.35ZM133.117 438.902H114.637V437.406H122.953V432.324H124.735V437.406H133.117V438.902ZM131.577 424.558H124.823V424.998C124.823 428.21 129.333 431.224 132.413 431.818L131.489 433.314C128.211 432.39 124.845 429.838 123.877 427.594C123.019 429.904 119.631 432.412 116.243 433.27L115.385 431.774C118.619 431.202 122.953 428.254 122.953 424.998V424.558H116.221V423.128H131.577V424.558ZM134.788 422.6H144.16C143.852 428.056 140.222 431.884 134.942 433.644L134.04 432.148C138.374 431.004 141.674 427.682 142.202 424.096H134.788V422.6ZM148.714 428.54H144.226V427.044H148.714V421.06H150.496V435.91H148.714V428.54ZM150.98 441.014H137.098V434.568H138.88V439.518H150.98V441.014ZM162.462 429.838C162.462 426.472 161.054 424.14 158.876 424.14C156.72 424.14 155.29 426.472 155.29 429.838C155.29 433.182 156.72 435.514 158.876 435.514C161.054 435.514 162.462 433.182 162.462 429.838ZM153.596 429.816C153.596 425.504 155.51 422.6 158.876 422.6C162.264 422.6 164.156 425.504 164.156 429.838C164.156 434.172 162.264 437.054 158.876 437.054C155.51 437.054 153.596 434.172 153.596 429.816ZM169.744 441.52H167.962V421.06H169.744V441.52ZM179.714 434.986H180.902C183.542 434.986 187.59 434.744 189.548 434.326L189.746 435.8C187.546 436.218 183.498 436.504 179.934 436.504H177.932V423.194H187.634V424.69H179.714V434.986ZM192.892 421.06V429.178H196.214V430.674H192.892V441.52H191.132V421.06H192.892ZM214.737 438.726H196.257V437.23H214.737V438.726ZM212.955 433.776H198.589V427.374H210.645V424.162H198.523V422.666H212.427V428.848H200.371V432.28H212.955V433.776ZM233.875 438.704H215.395V437.208H233.875V438.704ZM229.695 431.048V424.536H219.597V431.048H229.695ZM231.477 432.522H217.815V423.062H231.477V432.522ZM253.013 438.902H234.533V437.406H242.849V433.93H236.821V427.528H248.943V424.25H236.799V422.754H250.725V429.002H238.603V432.434H251.297V433.93H244.631V437.406H253.013V438.902ZM277.789 430.85H274.467V441.52H272.685V421.06H274.467V429.354H277.789V430.85ZM270.881 435.382L269.803 436.724C267.867 435.492 265.381 432.918 264.633 430.476C263.951 432.962 261.949 435.492 259.507 437.208L258.319 435.866C261.333 434.084 263.709 430.498 263.709 426.802V424.712H258.979V423.216H270.287V424.712H265.557V426.758C265.557 430.586 268.065 433.798 270.881 435.382ZM288.172 435.052L287.094 436.372C285.51 435.228 283.354 432.808 282.716 430.476C282.254 432.83 280.582 435.492 278.536 436.966L277.436 435.646C279.768 434.172 281.814 430.674 281.814 426.67V422.952H283.574V426.626C283.574 430.608 285.95 433.578 288.172 435.052ZM291.164 440.486H289.426V429.926H285.796V428.43H289.426V421.544H291.164V440.486ZM295.212 441.52H293.452V421.06H295.212V441.52ZM306.056 431.048C306.056 429.684 304.582 428.87 302.932 428.87C301.282 428.87 299.808 429.684 299.808 431.048C299.808 432.39 301.282 433.204 302.932 433.204C304.582 433.204 306.056 432.39 306.056 431.048ZM307.75 431.048C307.75 433.204 305.682 434.634 302.932 434.634C300.204 434.634 298.114 433.204 298.114 431.048C298.114 428.848 300.182 427.462 302.932 427.462C305.682 427.462 307.75 428.848 307.75 431.048ZM308.916 426.362H296.926V424.888H308.916V426.362ZM305.748 423.348H299.852V421.786H305.748V423.348ZM313.536 440.86H299.918V435.602H301.7V439.364H313.536V440.86ZM315.868 429.486H312.744V436.152H310.962V421.06H312.744V427.99H315.868V429.486ZM333.23 435.162L332.108 436.526C329.996 435.074 327.708 432.632 326.894 430.168C326.168 432.72 324.188 435.316 321.768 436.988L320.624 435.624C323.594 433.798 325.992 430.124 325.992 426.494V422.864H327.818V426.428C327.818 430.168 330.392 433.512 333.23 435.162ZM340.248 430.806H336.948V441.52H335.166V421.06H336.948V429.31H340.248V430.806ZM349.597 429.178C348.585 429.178 347.661 429.112 346.847 428.958V431.4H352.281V428.98C351.467 429.112 350.587 429.178 349.597 429.178ZM349.619 435.712C346.363 435.712 344.185 436.438 344.185 437.78C344.185 439.122 346.363 439.848 349.619 439.848C352.941 439.848 355.097 439.122 355.097 437.78C355.097 436.438 352.919 435.712 349.619 435.712ZM355.009 425.35C355.009 423.832 352.875 422.93 349.597 422.93C346.319 422.93 344.207 423.832 344.207 425.35C344.207 426.846 346.319 427.748 349.597 427.748C352.853 427.748 355.009 426.846 355.009 425.35ZM356.879 437.78C356.879 440.134 354.129 441.388 349.641 441.388C345.131 441.388 342.403 440.134 342.403 437.78C342.403 435.448 345.131 434.172 349.619 434.172C354.129 434.172 356.879 435.448 356.879 437.78ZM356.747 425.35C356.747 426.736 355.779 427.836 354.063 428.496V431.4H358.837V432.874H340.357V431.4H345.065V428.474C343.393 427.814 342.469 426.714 342.469 425.35C342.469 423.018 345.109 421.5 349.597 421.5C354.085 421.5 356.747 423.018 356.747 425.35ZM377.975 438.902H359.495V437.406H367.811V432.324H369.593V437.406H377.975V438.902ZM376.435 424.558H369.681V424.998C369.681 428.21 374.191 431.224 377.271 431.818L376.347 433.314C373.069 432.39 369.703 429.838 368.735 427.594C367.877 429.904 364.489 432.412 361.101 433.27L360.243 431.774C363.477 431.202 367.811 428.254 367.811 424.998V424.558H361.079V423.128H376.435V424.558ZM379.645 422.6H389.017C388.709 428.056 385.079 431.884 379.799 433.644L378.897 432.148C383.231 431.004 386.531 427.682 387.059 424.096H379.645V422.6ZM393.571 428.54H389.083V427.044H393.571V421.06H395.353V435.91H393.571V428.54ZM395.837 441.014H381.955V434.568H383.737V439.518H395.837V441.014ZM407.033 423.128C403.799 423.128 401.687 423.986 401.687 425.68C401.687 427.352 403.777 428.21 407.011 428.21C410.245 428.21 412.379 427.352 412.379 425.68C412.379 423.986 410.267 423.128 407.033 423.128ZM414.139 425.658C414.139 428.276 411.477 429.706 407.011 429.706C402.545 429.706 399.905 428.276 399.905 425.658C399.905 423.084 402.567 421.654 407.033 421.654C411.477 421.654 414.139 423.084 414.139 425.658ZM414.161 440.926H400.213V434.964H401.995V439.43H414.161V440.926ZM416.251 433.05H397.771V431.554H416.251V433.05ZM424.374 422.38H438.014C438.014 424.998 437.926 428.848 437.266 432.082H440.456V433.578H432.096V441.52H430.314V433.578H421.976V432.082H435.484C435.748 431.092 435.902 429.662 436.012 428.232L424.11 428.738L423.824 427.176L436.078 426.802C436.144 425.636 436.166 424.558 436.166 423.854H424.374V422.38ZM457.79 423.568H442.808V422.094H457.79V423.568ZM457.46 440.882H443.424V435.382H445.206V439.386H457.46V440.882ZM459.594 433.93H441.114V432.434H449.43V429.992H442.83V428.54H446.196L445.58 424.624L447.428 424.382L447.89 428.54H452.708L453.236 424.338L455.084 424.58L454.424 428.54H457.79V429.992H451.212V432.434H459.594V433.93ZM471.016 424.074C468.948 424.074 467.386 425.592 467.386 427.704C467.386 429.816 468.97 431.312 471.038 431.312C473.194 431.312 474.668 429.816 474.668 427.726C474.668 425.592 473.194 424.074 471.016 424.074ZM471.016 422.556C474.074 422.556 476.45 424.646 476.45 427.704C476.45 430.784 474.096 432.83 471.038 432.83C467.958 432.83 465.604 430.806 465.604 427.726C465.604 424.668 467.958 422.556 471.016 422.556ZM481.796 440.816H468.222V434.458H470.004V439.342H481.796V440.816ZM484.172 428.54H481.048V435.91H479.266V421.06H481.048V427.044H484.172V428.54ZM494.159 433.93L494.357 435.426C492.663 435.822 489.517 436.108 486.921 436.108H485.359V423.304H487.141V434.568C489.253 434.612 492.663 434.326 494.159 433.93ZM501.705 441.52H499.967V430.696H497.261V440.464H495.545V421.544H497.261V429.2H499.967V421.06H501.705V441.52ZM520.183 428.958H505.949V424.734H518.005V423.128H505.927V421.742H519.787V426.01H507.731V427.638H520.183V428.958ZM520.535 441.146H505.729V436.592H518.115V434.898H505.751V433.578H519.897V437.868H507.511V439.738H520.535V441.146ZM522.075 431.972H503.595V430.586H522.075V431.972ZM540.471 432.324L540.625 433.688C539.151 433.864 536.709 434.106 534.289 434.238C531.979 434.37 529.163 434.48 527.733 434.48L527.447 433.006C528.943 433.006 531.011 432.962 533.101 432.874V431.488C530.945 431.29 529.295 430.454 529.295 428.804C529.295 426.912 531.429 426.032 534.025 426.032C536.643 426.032 538.799 426.89 538.799 428.782C538.799 430.432 537.105 431.312 534.905 431.488V432.786C537.061 432.676 539.283 432.5 540.471 432.324ZM546.675 429.332H543.573V434.656H541.791V421.06H543.573V427.836H546.675V429.332ZM530.175 435.734H543.573V441.652H541.791V437.208H530.175V435.734ZM539.943 425.35H528.173V423.92H539.943V425.35ZM537.105 428.782C537.105 427.836 535.741 427.374 534.025 427.374C532.287 427.374 530.989 427.836 530.989 428.782C530.989 429.75 532.309 430.212 534.025 430.212C535.741 430.212 537.105 429.728 537.105 428.782ZM536.863 422.798H531.253V421.324H536.863V422.798ZM552.899 423.964C550.743 423.964 549.093 425.438 549.093 427.506C549.093 429.574 550.765 431.026 552.921 431.026C555.165 431.026 556.727 429.574 556.727 427.528C556.727 425.438 555.165 423.964 552.899 423.964ZM552.899 422.402C556.001 422.402 558.421 424.47 558.421 427.506C558.421 430.564 556.023 432.588 552.921 432.588C549.797 432.588 547.399 430.586 547.399 427.528C547.399 424.492 549.797 422.402 552.899 422.402ZM564.163 440.838H550.325V434.524H552.107V439.364H564.163V440.838ZM563.657 435.998H561.875V421.06H563.657V435.998ZM574.018 424.162H568.43V422.622H574.018V424.162ZM576.218 427.506H566.032V426.032H576.218V427.506ZM574.128 432.786C574.128 431.202 572.984 430.19 571.378 430.19C569.75 430.19 568.628 431.224 568.628 432.786C568.628 434.37 569.75 435.382 571.378 435.382C572.984 435.382 574.128 434.326 574.128 432.786ZM575.844 432.786C575.844 435.25 574.018 436.856 571.378 436.856C568.76 436.856 566.912 435.118 566.912 432.786C566.912 430.3 568.76 428.694 571.378 428.694C574.018 428.694 575.844 430.322 575.844 432.786ZM583.346 441.52H581.586V430.916H579.122V440.486H577.384V421.544H579.122V429.42H581.586V421.06H583.346V441.52ZM600.378 441.52H598.596V434.194H590.28V432.698H608.76V434.194H600.378V441.52ZM607.88 429.288L607.044 430.784C603.7 430.212 600.444 428.144 599.52 426.23C598.684 428.144 595.516 430.256 592.018 430.828L591.204 429.332C594.548 428.98 598.508 426.846 598.596 423.986H591.974V422.512H607.044V423.986H600.466C600.554 426.868 604.756 428.936 607.88 429.288ZM619.714 435.052L618.636 436.372C617.052 435.228 614.896 432.808 614.258 430.476C613.796 432.83 612.124 435.492 610.078 436.966L608.978 435.646C611.31 434.172 613.356 430.674 613.356 426.67V422.952H615.116V426.626C615.116 430.608 617.492 433.578 619.714 435.052ZM622.706 440.486H620.968V429.926H617.338V428.43H620.968V421.544H622.706V440.486ZM626.754 441.52H624.994V421.06H626.754V441.52ZM647.037 438.902H628.557V437.406H633.133V433.336L634.915 433.292V437.406H640.613V433.292L642.395 433.336V437.406H647.037V438.902ZM643.451 427.594C643.451 425.372 641.207 423.876 637.775 423.876C634.365 423.876 632.121 425.372 632.121 427.594C632.121 429.816 634.365 431.312 637.775 431.312C641.185 431.312 643.451 429.816 643.451 427.594ZM645.167 427.594C645.167 430.674 642.219 432.698 637.775 432.698C633.353 432.698 630.405 430.674 630.405 427.594C630.405 424.514 633.353 422.446 637.775 422.446C642.241 422.446 645.167 424.514 645.167 427.594ZM647.805 439.474V437.384H649.829V439.474H647.805Z" fill="#4E516F"/>
<path d="M16.058 470.578H29.94C29.94 473.35 29.874 476.474 29.192 479.642H32.36V481.138H24V489.52H22.218V481.138H13.88V479.642H27.41C27.982 477.442 28.092 474.054 28.092 472.052H16.058V470.578ZM40.0803 482.568V472.778H35.4383V482.568H40.0803ZM50.2883 489.52H48.5283V478.718H46.0203V488.486H44.2823V469.544H46.0203V477.222H48.5283V469.06H50.2883V489.52ZM41.8183 484.042H33.7003V471.304H41.8183V484.042ZM70.6366 486.902H52.1566V485.406H60.4726V480.324H62.2546V485.406H70.6366V486.902ZM69.0966 472.558H62.3426V472.998C62.3426 476.21 66.8526 479.224 69.9326 479.818L69.0086 481.314C65.7306 480.39 62.3646 477.838 61.3966 475.594C60.5386 477.904 57.1506 480.412 53.7626 481.27L52.9046 479.774C56.1386 479.202 60.4726 476.254 60.4726 472.998V472.558H53.7406V471.128H69.0966V472.558ZM72.3068 470.6H81.6788C81.3708 476.056 77.7408 479.884 72.4608 481.644L71.5588 480.148C75.8928 479.004 79.1928 475.682 79.7208 472.096H72.3068V470.6ZM86.2328 476.54H81.7448V475.044H86.2328V469.06H88.0148V483.91H86.2328V476.54ZM88.4988 489.014H74.6168V482.568H76.3988V487.518H88.4988V489.014ZM107.973 470.556H101.527V469.082H107.973V470.556ZM104.739 484.064C101.439 484.064 99.3931 484.812 99.3931 486.088C99.3931 487.386 101.439 488.09 104.739 488.09C108.061 488.09 110.107 487.386 110.107 486.088C110.107 484.812 108.061 484.064 104.739 484.064ZM112.989 476.606L112.197 478.102C109.227 477.706 105.883 476.694 104.739 474.648C103.705 476.716 100.471 477.75 97.3031 478.124L96.5331 476.65C99.4811 476.496 102.869 475.528 103.683 473.592H97.4571V472.118H111.999V473.592H105.817C106.675 475.506 110.239 476.43 112.989 476.606ZM111.911 486.088C111.911 488.31 109.403 489.608 104.739 489.608C100.075 489.608 97.5891 488.266 97.5891 486.088C97.5891 484.064 99.7451 482.766 103.837 482.59V480.764H95.4991V479.29H113.979V480.764H105.619V482.59C109.711 482.744 111.911 483.976 111.911 486.088ZM116.749 482.81H130.741V489.652H128.959V484.284H116.749V482.81ZM133.117 480.676H114.637V479.18H122.931V475.968H124.713V479.18H133.117V480.676ZM132.193 475.77L131.379 477.266C127.969 476.716 124.889 474.912 123.877 473.042C123.063 474.934 120.027 476.76 116.419 477.288L115.605 475.792C118.839 475.484 122.381 473.834 122.909 471.348H116.331V469.874H131.423V471.348H124.889C125.439 473.856 129.311 475.506 132.193 475.77ZM151.294 483.228L150.172 484.592C148.324 483.338 145.926 480.808 145.134 478.344C144.386 480.896 142.274 483.404 139.898 485.098L138.732 483.756C141.724 481.886 144.188 478.168 144.188 474.538V470.842H145.992V474.472C145.992 478.212 148.478 481.556 151.294 483.228ZM155.694 489.52H153.912V469.06H155.694V489.52ZM157.54 489.938L158.42 485.362H160.532L158.816 489.938H157.54ZM176.053 477.728C176.053 474.362 174.689 472.03 172.665 472.03C170.641 472.03 169.277 474.362 169.277 477.728C169.277 481.072 170.641 483.404 172.665 483.404C174.689 483.404 176.053 481.072 176.053 477.728ZM167.495 477.706C167.495 473.394 169.365 470.49 172.665 470.49C175.767 470.49 177.571 473.042 177.791 476.914H182.169V469.06H183.951V489.52H182.169V478.432H177.791C177.615 482.37 175.789 484.944 172.665 484.944C169.365 484.944 167.495 482.062 167.495 477.706ZM204.849 486.704H186.369V485.208H204.849V486.704ZM202.627 480.72H188.701V471.084H202.429V472.558H190.483V479.246H202.627V480.72ZM212.724 478.85V475.374H208.192V478.85H212.724ZM222.756 484.306H220.996V469.06H222.756V484.306ZM223.306 488.86H209.336V482.524H211.118V487.364H223.306V488.86ZM214.462 480.324H206.454V470.578H208.192V473.9H212.724V470.578H214.462V474.648H217.168V469.478H218.884V483.756H217.168V476.122H214.462V480.324ZM243.126 486.902H224.646V485.406H243.126V486.902ZM240.31 476.98H228.694V480.17H240.926V481.666H226.912V471.018H240.706V472.514H228.694V475.484H240.31V476.98ZM266.846 489.344H252.656V484.35H264.316V482.348H252.59V480.874H266.098V485.714H254.438V487.848H266.846V489.344ZM266.098 479.818H264.338V475.308H261.742V479.642H260.026V469.434H261.742V473.812H264.338V469.06H266.098V479.818ZM250.06 470.204H257.782C257.716 475.264 255.428 478.498 250.302 480.742L249.158 479.4C251.93 478.388 253.778 476.892 254.834 475.11L249.422 475.726L249.048 474.164L255.494 473.68C255.714 473.042 255.846 472.36 255.912 471.678H250.06V470.204ZM280.221 479.312L280.375 480.764C278.263 481.116 274.919 481.336 271.289 481.358H269.023V474.956H276.701V471.898H268.935V470.424H278.483V476.386H270.805V479.862C274.017 479.862 278.109 479.752 280.221 479.312ZM285.281 489.036H271.245V483.228H273.027V487.562H285.281V489.036ZM284.709 483.91H282.927V469.06H284.709V483.91ZM298.963 482.26L299.161 483.8C296.895 484.218 293.045 484.504 289.393 484.438L287.985 484.416V471.084H297.621V472.58H289.767V482.898C292.803 483.008 296.697 482.7 298.963 482.26ZM303.825 489.52H302.043V478.036H296.015V476.518H302.043V469.06H303.825V489.52ZM323.915 470.864H317.227V469.302H323.915V470.864ZM321.429 489.542H319.647V483.03H311.331V481.534H329.811V483.03H321.429V489.542ZM328.843 478.432L328.029 479.928C324.707 479.466 321.605 477.794 320.571 475.902C319.625 477.816 316.677 479.532 313.135 479.994L312.343 478.498C315.621 478.168 319.097 476.562 319.625 474.142H313.069V472.646H328.051V474.142H321.561C322.089 476.562 325.741 478.146 328.843 478.432ZM346.199 469.06V477.574H349.543V479.092H346.199V489.52H344.417V469.06H346.199ZM331.283 471.26H340.897C340.787 477.904 336.937 482.7 331.679 485.428L330.579 484.042C335.683 481.666 338.609 477.354 338.983 472.756H331.283V471.26ZM351.786 470.578H365.668C365.668 473.35 365.602 476.474 364.92 479.642H368.088V481.138H359.728V489.52H357.946V481.138H349.608V479.642H363.138C363.71 477.442 363.82 474.054 363.82 472.052H351.786V470.578ZM375.808 482.568V472.778H371.166V482.568H375.808ZM386.016 489.52H384.256V478.718H381.748V488.486H380.01V469.544H381.748V477.222H384.256V469.06H386.016V489.52ZM377.546 484.042H369.428V471.304H377.546V484.042ZM400.474 480.764C400.474 479.268 399.396 478.256 397.9 478.256C396.382 478.256 395.304 479.29 395.304 480.764C395.304 482.282 396.382 483.272 397.9 483.272C399.396 483.272 400.474 482.238 400.474 480.764ZM402.146 480.764C402.146 483.184 400.452 484.746 397.9 484.746C395.37 484.746 393.654 483.052 393.654 480.764C393.654 478.344 395.37 476.782 397.9 476.782C400.452 476.782 402.146 478.366 402.146 480.764ZM402.718 475.484H392.928V474.01H402.718V475.484ZM400.65 472.338H395.238V470.82H400.65V472.338ZM406.502 488.486H404.764V482.744H402.454V481.292H404.764V477.794H402.3V476.342H404.764V469.544H406.502V488.486ZM410.22 489.52H408.46V469.06H410.22V489.52ZM415.543 482.37H429.337V489.52H427.555V483.866H415.543V482.37ZM414.817 478.608H415.389C417.743 478.608 420.097 478.432 421.703 478.08L421.945 479.554C419.943 479.95 417.171 480.126 414.377 480.126H413.057V470.578H420.977V472.052H414.817V474.494H420.647V475.924H414.817V478.608ZM429.337 481.292H427.577V475.924H424.981V481.182H423.265V469.434H424.981V474.428H427.577V469.06H429.337V481.292ZM449.707 486.902H431.227V485.406H439.543V480.412H433.471V470.776H447.507V472.25H435.253V478.938H447.617V480.412H441.325V485.406H449.707V486.902ZM463.989 478.19V474.846H457.983V478.19H463.989ZM465.771 479.664H456.201V470.226H457.983V473.372H463.989V470.226H465.771V479.664ZM471.403 489.124H458.335V482.216H471.205V483.69H460.139V487.65H471.403V489.124ZM474.285 475.99H471.161V480.962H469.379V469.06H471.161V474.494H474.285V475.99ZM491.399 489.322H476.725V484.46H488.957V482.656H476.681V481.226H490.739V485.802H478.507V487.87H491.399V489.322ZM483.831 470.798C480.619 470.798 478.529 471.612 478.529 472.888C478.529 474.164 480.619 474.956 483.831 474.956C487.065 474.956 489.177 474.164 489.177 472.888C489.177 471.612 487.065 470.798 483.831 470.798ZM490.981 472.888C490.981 475.132 488.275 476.43 483.831 476.43C479.431 476.43 476.703 475.132 476.703 472.888C476.703 470.644 479.431 469.346 483.831 469.346C488.275 469.346 490.981 470.644 490.981 472.888ZM493.049 479.4H474.569V477.904H493.049V479.4ZM516.506 476.914L515.648 478.432C512.59 477.816 509.246 475.88 508.014 473.504C507.024 475.88 503.526 477.882 500.424 478.498L499.566 476.958C503.482 476.452 507.09 473.856 507.09 471.062V469.764H508.96V471.062C508.96 473.856 512.898 476.474 516.506 476.914ZM508.872 489.542H507.09V482.106H498.774V480.61H517.254V482.106H508.872V489.542ZM528.786 471.656C526.74 471.656 525.222 473.108 525.222 475.11C525.222 477.156 526.74 478.542 528.786 478.542C530.92 478.542 532.372 477.156 532.372 475.132C532.372 473.108 530.942 471.656 528.786 471.656ZM528.786 470.204C531.69 470.204 534.088 472.162 534.088 475.11C534.088 478.124 531.69 479.994 528.786 479.994C525.882 479.994 523.484 478.124 523.484 475.132C523.484 472.162 525.882 470.204 528.786 470.204ZM532.988 486.748L531.756 487.958C530.744 487.43 529.644 486.374 529.16 485.252C528.676 486.792 526.872 488.772 525.112 489.608L524.034 488.332C526.124 487.43 528.192 485.186 528.192 482.7V481.688H529.952V482.546C529.952 484.702 531.404 486.132 532.988 486.748ZM540.578 489.564H540.556C539.17 488.882 537.322 487.1 536.816 485.626C536.31 487.166 534.594 489.014 532.944 489.828L531.822 488.64C534.022 487.562 535.914 485.34 535.914 482.854V481.622H537.674V482.788C537.674 485.318 539.72 487.562 541.656 488.288L540.578 489.564ZM539.698 480.94H537.916V469.06H539.698V480.94ZM556.46 487.76V485.318H546.274V487.76H556.46ZM558.242 489.234H544.492V481.49H546.274V483.866H556.46V481.468H558.242V489.234ZM560.596 480.038H542.116V478.542H560.596V480.038ZM559.628 475.374L558.792 476.914C555.69 476.342 552.368 474.384 551.378 472.272C550.476 474.384 547.088 476.32 543.986 476.914L543.15 475.374C546.362 475.022 550.454 472.844 550.454 469.962V469.302H552.302V469.962C552.302 472.844 556.482 475.022 559.628 475.374ZM573.993 481.996L574.169 483.536C571.793 484.086 566.469 484.482 563.323 484.482H562.421V471.194H564.203V482.92C566.843 482.92 571.551 482.546 573.993 481.996ZM577.843 469.06V489.52H576.083V469.06H577.843ZM582.989 482.986H584.177C586.817 482.986 590.865 482.744 592.823 482.326L593.021 483.8C590.821 484.218 586.773 484.504 583.209 484.504H581.207V471.194H590.909V472.69H582.989V482.986ZM596.167 469.06V477.178H599.489V478.674H596.167V489.52H594.407V469.06H596.167ZM599.641 487.474V485.384H601.665V487.474H599.641Z" fill="#4E516F"/>
<ellipse cx="14.9758" cy="475" rx="1.97583" ry="2" fill="white"/>
<circle cx="3" cy="95" r="3" fill="#4E516F"/>
<circle cx="3" cy="143" r="3" fill="#4E516F"/>
<circle cx="3" cy="191" r="3" fill="#4E516F"/>
<circle cx="3" cy="239" r="3" fill="#4E516F"/>
<circle cx="3" cy="287" r="3" fill="#4E516F"/>
<circle cx="3" cy="335" r="3" fill="#4E516F"/>
<circle cx="3" cy="383" r="3" fill="#4E516F"/>
<circle cx="3" cy="431" r="3" fill="#4E516F"/>
<circle cx="3" cy="479" r="3" fill="#4E516F"/>
</svg>
