<svg width="528" height="509" viewBox="0 0 528 509" fill="none" xmlns="http://www.w3.org/2000/svg">
<path d="M2.10938 38V34.5625L12.0508 24.8555C13.2878 23.6576 14.2253 22.6615 14.8633 21.8672C15.5013 21.0599 15.9375 20.3438 16.1719 19.7188C16.4193 19.0807 16.543 18.4167 16.543 17.7266V17.6875C16.543 16.8411 16.3411 16.099 15.9375 15.4609C15.5469 14.8099 15 14.3021 14.2969 13.9375C13.6068 13.5599 12.8125 13.3711 11.9141 13.3711C10.8724 13.3711 9.94792 13.5859 9.14062 14.0156C8.34635 14.4323 7.71484 15.0052 7.24609 15.7344C6.79036 16.4505 6.55599 17.2643 6.54297 18.1758V18.3125H1.81641V18.1758C1.81641 16.457 2.25911 14.9336 3.14453 13.6055C4.02995 12.2773 5.22786 11.2357 6.73828 10.4805C8.26172 9.71224 9.97396 9.32812 11.875 9.32812C13.75 9.32812 15.4102 9.67969 16.8555 10.3828C18.3008 11.0729 19.4271 12.0299 20.2344 13.2539C21.0547 14.4648 21.4648 15.8451 21.4648 17.3945V17.4336C21.4648 18.5404 21.263 19.5755 20.8594 20.5391C20.4688 21.5026 19.7982 22.5508 18.8477 23.6836C17.9102 24.8164 16.6081 26.1771 14.9414 27.7656L6.93359 35.4023L8.75 32.082V35.4023L6.95312 33.8789H21.8945V38H2.10938ZM36.2695 38.4883C33.9648 38.4883 31.9857 37.8958 30.332 36.7109C28.6784 35.526 27.4089 33.8464 26.5234 31.6719C25.638 29.4844 25.1953 26.8997 25.1953 23.918V23.8789C25.1953 20.8971 25.638 18.319 26.5234 16.1445C27.4089 13.957 28.6784 12.2773 30.332 11.1055C31.9857 9.92057 33.9648 9.32812 36.2695 9.32812C38.5612 9.32812 40.5339 9.92057 42.1875 11.1055C43.8542 12.2773 45.1302 13.957 46.0156 16.1445C46.901 18.319 47.3438 20.8971 47.3438 23.8789V23.918C47.3438 26.8997 46.901 29.4844 46.0156 31.6719C45.1302 33.8464 43.8542 35.526 42.1875 36.7109C40.5339 37.8958 38.5612 38.4883 36.2695 38.4883ZM36.2695 34.3672C37.5326 34.3672 38.6133 33.9505 39.5117 33.1172C40.4102 32.2839 41.0938 31.0859 41.5625 29.5234C42.0312 27.9609 42.2656 26.0924 42.2656 23.918V23.8789C42.2656 21.7044 42.0312 19.8424 41.5625 18.293C41.0938 16.7305 40.4102 15.5391 39.5117 14.7188C38.6133 13.8854 37.5326 13.4688 36.2695 13.4688C34.9935 13.4688 33.9062 13.8854 33.0078 14.7188C32.1224 15.5391 31.4453 16.7305 30.9766 18.293C30.5078 19.8424 30.2734 21.7044 30.2734 23.8789V23.918C30.2734 26.0924 30.5078 27.9609 30.9766 29.5234C31.4453 31.0859 32.1224 32.2839 33.0078 33.1172C33.9062 33.9505 34.9935 34.3672 36.2695 34.3672ZM50.8594 38V34.5625L60.8008 24.8555C62.0378 23.6576 62.9753 22.6615 63.6133 21.8672C64.2513 21.0599 64.6875 20.3438 64.9219 19.7188C65.1693 19.0807 65.293 18.4167 65.293 17.7266V17.6875C65.293 16.8411 65.0911 16.099 64.6875 15.4609C64.2969 14.8099 63.75 14.3021 63.0469 13.9375C62.3568 13.5599 61.5625 13.3711 60.6641 13.3711C59.6224 13.3711 58.6979 13.5859 57.8906 14.0156C57.0964 14.4323 56.4648 15.0052 55.9961 15.7344C55.5404 16.4505 55.306 17.2643 55.293 18.1758V18.3125H50.5664V18.1758C50.5664 16.457 51.0091 14.9336 51.8945 13.6055C52.7799 12.2773 53.9779 11.2357 55.4883 10.4805C57.0117 9.71224 58.724 9.32812 60.625 9.32812C62.5 9.32812 64.1602 9.67969 65.6055 10.3828C67.0508 11.0729 68.1771 12.0299 68.9844 13.2539C69.8047 14.4648 70.2148 15.8451 70.2148 17.3945V17.4336C70.2148 18.5404 70.013 19.5755 69.6094 20.5391C69.2188 21.5026 68.5482 22.5508 67.5977 23.6836C66.6602 24.8164 65.3581 26.1771 63.6914 27.7656L55.6836 35.4023L57.5 32.082V35.4023L55.7031 33.8789H70.6445V38H50.8594ZM84.5508 38.4883C82.4935 38.4883 80.6966 38.1432 79.1602 37.4531C77.6237 36.763 76.4062 35.819 75.5078 34.6211C74.6224 33.4102 74.1081 32.0234 73.9648 30.4609L73.9453 30.207H78.75L78.7891 30.4219C78.8802 31.1901 79.1732 31.8737 79.668 32.4727C80.1628 33.0586 80.8268 33.5208 81.6602 33.8594C82.4935 34.1979 83.457 34.3672 84.5508 34.3672C85.6445 34.3672 86.5951 34.1849 87.4023 33.8203C88.2227 33.4427 88.8542 32.9284 89.2969 32.2773C89.7526 31.6263 89.9805 30.8711 89.9805 30.0117V29.9727C89.9805 28.4883 89.4661 27.349 88.4375 26.5547C87.4219 25.7604 86.0091 25.3633 84.1992 25.3633H80.8594V21.6133H84.082C85.1237 21.6133 86.0286 21.431 86.7969 21.0664C87.5781 20.7018 88.1836 20.207 88.6133 19.582C89.056 18.944 89.2773 18.2148 89.2773 17.3945V17.3555C89.2773 16.4961 89.0885 15.7734 88.7109 15.1875C88.3333 14.5885 87.7865 14.1328 87.0703 13.8203C86.3672 13.4948 85.5143 13.332 84.5117 13.332C83.5221 13.332 82.6432 13.4948 81.875 13.8203C81.1198 14.1458 80.5143 14.6081 80.0586 15.207C79.6029 15.793 79.3294 16.4896 79.2383 17.2969L79.2188 17.4922H74.5508L74.5703 17.2578C74.7135 15.6693 75.2083 14.2826 76.0547 13.0977C76.9141 11.9128 78.0664 10.9883 79.5117 10.3242C80.957 9.66016 82.6237 9.32812 84.5117 9.32812C86.4518 9.32812 88.138 9.64062 89.5703 10.2656C91.0156 10.8776 92.1289 11.737 92.9102 12.8438C93.7044 13.9375 94.1016 15.2201 94.1016 16.6914V16.7305C94.1016 17.8893 93.8411 18.918 93.3203 19.8164C92.7995 20.7018 92.0898 21.4375 91.1914 22.0234C90.306 22.6094 89.3034 23.0195 88.1836 23.2539V23.3516C90.2669 23.5469 91.9401 24.237 93.2031 25.4219C94.4661 26.5938 95.0977 28.1562 95.0977 30.1094V30.1484C95.0977 31.776 94.6484 33.2214 93.75 34.4844C92.8646 35.7344 91.6341 36.7174 90.0586 37.4336C88.4831 38.1367 86.6471 38.4883 84.5508 38.4883Z" fill="#FEF9ED"/>
<path d="M2 339.1V333.45L6.85 328.15C11.85 322.8 16.85 317.35 16.85 313.6C16.85 309.65 14.25 308.8 10.15 308.8C8.35 308.8 5.2 309.65 3.25 310.5L2.45 303.65C5.25 302.2 9 301.5 13.45 301.5C22.65 301.5 27 305.15 27 312.1C27 319 18.9 327 16.85 329.25L14.4 331.85H26.6V339.1H2ZM53.1133 345.7H44.8133V330.35H27.4633V323.75H70.7633V330.35H53.1133V345.7ZM66.9133 306.35H54.0633C55.2133 311.45 61.4633 314.6 69.0133 315.3L65.7633 321.65C60.2133 321.25 52.1633 318.35 49.1133 313.05C46.1633 318.35 38.3633 321.3 32.3133 321.75L29.2633 315.4C37.1633 314.7 43.0133 311.5 44.1133 306.35H31.2633V299.95H66.9133V306.35ZM114.859 317.4H108.909V331.7H100.559V297.8H108.909V310.55H114.859V317.4ZM109.909 344.55H77.5094V328.1H85.9094V337.8H109.909V344.55ZM72.5094 301.35H96.0594C95.5594 317.15 83.9094 325.65 73.7094 327.65L70.3594 321.05C77.9594 319.7 85.3594 314.6 86.9094 308.15H72.5094V301.35ZM163.969 297.8V315.35H169.819V322.15H163.969V345.7H155.619V297.8H163.969ZM125.769 318.05C125.769 308.05 130.769 300.55 138.819 300.55C147.019 300.55 151.869 307.95 151.869 318.05C151.869 328 147.019 335.55 138.819 335.55C130.769 335.55 125.769 328.1 125.769 318.05ZM143.769 318.05C143.769 311.15 141.569 308.1 138.819 308.1C136.169 308.1 134.019 311.15 134.019 318.05C134.019 324.95 136.169 328.05 138.819 328.05C141.569 328.05 143.769 324.95 143.769 318.05ZM200.065 318.6V307.6H182.065V318.6H200.065ZM208.465 325.05H195.215V333.8H212.765V340.3H169.465V333.8H186.915V325.05H173.715V301.15H208.465V325.05ZM254.311 345.7H246.461V297.8H254.311V345.7ZM244.211 343.65H236.561V319.7H232.511V321.75H222.561V328C225.611 328.15 231.661 327.6 234.211 327L234.861 333.5C231.261 334.45 223.511 334.9 218.461 334.9C217.311 334.9 215.461 334.85 214.361 334.8V314.85H224.261V309.05H214.411V302.25H232.511V313.1H236.561V298.6H244.211V343.65ZM284.457 307.75H257.507V301.3H284.457V307.75ZM288.657 321.85H282.957V314.8H288.657V297.8H297.057V345.7H288.657V321.85ZM284.707 328.05L285.157 334.3C278.057 335.4 265.407 336 257.207 335.85L256.357 329.2H261.657L260.507 310.15L268.707 309.75L269.107 329.1L272.357 329L273.107 309.75L281.207 310.35L279.707 328.55C281.307 328.4 283.007 328.25 284.707 328.05ZM340.554 345.7H332.154V297.8H340.554V345.7ZM330.704 329L325.854 335.5C322.054 333.65 317.004 328.45 315.404 324.15C314.004 328.8 309.354 333.75 304.254 336.45L299.154 330C307.804 325.55 311.204 318.4 311.204 307.75V301.45H319.454V307.6C319.454 318.05 322.604 325.15 330.704 329ZM371.3 307.25H345.4V300.7H371.3V307.25ZM383.45 327.55H375.1V297.95H383.45V327.55ZM383.45 345.75H375.2V335.65H349.75V329.2H383.45V345.75ZM356.25 308.8L356.45 319.8C357.6 319.8 358.75 319.75 359.95 319.7L360.35 308.8L368.25 309.3L367.3 319.2C369.15 319.05 371 318.9 372.85 318.65L373.35 324.85C366.2 325.95 353.85 326.6 345.1 326.5L344.3 319.9C345.9 319.95 347.6 319.95 349.3 319.95L348.35 309.4L356.25 308.8ZM21.9 402.8L22.5 409.45C18.75 410.4 10.85 410.75 6.35 410.7L2.5 410.65L2.5 378.2H20.8V384.8H10.8V403.8C14.95 403.8 19.3 403.4 21.9 402.8ZM42.75 420.7H34.9L34.9 397.3H31.95V418.65H24.25V373.5H31.95V390.35H34.9V372.8H42.75L42.75 420.7ZM84.2461 382.05H48.4461V375.65H84.2461V382.05ZM84.0461 399.4H48.6461V392.95H54.4961L53.4961 384.55L61.7461 383.95L62.2961 392.95H70.7961L71.4961 383.95L79.7961 384.8L78.4461 392.95H84.0461V399.4ZM88.1461 415.3H44.8461L44.8461 408.95H54.2461V401.35H62.5961V408.95H70.1461V401.35H78.5961V408.95H88.1461V415.3ZM143.756 391.05H137.906V400.85H129.556V372.8H137.906V384.3H143.756V391.05ZM138.606 410.7C138.606 416.55 131.906 420.05 121.406 420.05C110.906 420.05 104.256 416.5 104.256 410.7C104.256 404.7 110.906 401.15 121.406 401.15C131.906 401.15 138.606 404.65 138.606 410.7ZM121.406 407.25C116.006 407.25 113.006 408.65 113.006 410.7C113.006 412.6 116.006 413.9 121.406 413.9C126.956 413.9 129.806 412.55 129.806 410.7C129.806 408.7 126.956 407.25 121.406 407.25ZM128.306 393.1L123.806 399.75C120.306 398.65 115.756 395.25 113.956 391.35C112.556 395.65 107.456 399.9 103.356 401.25L98.8059 394.5C105.956 392.3 109.706 386.6 109.706 379.8V374.9H118.156V379.35C118.156 386.95 122.206 391.1 128.306 393.1ZM173.402 413.85V411.15H156.652V413.85H173.402ZM183.152 380.65H147.102V374.2H183.152V380.65ZM182.502 393.75H147.402V387.35H153.102L152.452 382.55L160.352 381.95L160.952 387.35H169.002L169.802 382.05L177.802 382.7L176.752 387.35H182.502V393.75ZM181.652 420.1H148.202V404.9H160.852V402.5H143.352V395.95H186.652V402.5H169.102V404.9H181.652V420.1ZM230.148 398.25H186.848V391.6H230.148V398.25ZM226.398 420.25H191.498V407.35H216.998V405.75H191.498V399.85H225.398V412.4H199.848V414H226.398V420.25ZM226.098 382.15C226.098 386.95 219.498 390.55 208.448 390.55C197.398 390.55 190.898 386.95 190.898 382.15C190.898 377.35 197.398 373.75 208.448 373.75C219.498 373.75 226.098 377.35 226.098 382.15ZM208.448 379.85C202.898 379.85 199.948 381 199.948 382.2C199.948 383.5 202.898 384.65 208.448 384.65C214.048 384.65 216.998 383.5 216.998 382.2C216.998 381 214.048 379.85 208.448 379.85ZM249.908 381.35V374.9H264.908V381.35H249.908ZM272.458 405.3L273.108 411.75C267.808 412.55 260.258 413.2 255.058 413.35C250.558 413.5 245.958 413.65 242.558 413.65L241.708 406.6C246.508 406.6 250.108 406.6 253.608 406.55V401H261.958V406.2C265.858 406 269.158 405.75 272.458 405.3ZM244.508 390.3V383.7H270.358V390.3H262.258C263.508 393.45 267.708 395.7 271.808 396.05L268.508 402.65C264.858 402.3 259.158 399.6 257.558 396.5C255.358 400.1 250.308 403 246.408 403.7L242.858 397.1C247.758 396.15 251.758 393.8 252.808 390.3H244.508ZM274.458 372.8H282.708V420.7H274.458V372.8ZM305.904 402.8L306.504 409.45C302.754 410.4 294.854 410.75 290.354 410.7L286.504 410.65V378.2H304.804V384.8H294.804V403.8C298.954 403.8 303.304 403.4 305.904 402.8ZM326.754 420.7H318.904V397.3H315.954V418.65H308.254V373.5H315.954V390.35H318.904V372.8H326.754V420.7ZM348.864 402.05C348.864 404.35 350.114 405.95 352.214 405.95C354.264 405.95 355.564 404.35 355.564 402.05C355.564 399.8 354.264 398.25 352.214 398.25C350.114 398.25 348.864 399.8 348.864 402.05ZM358.264 382.55H345.914V376.1H358.264V382.55ZM381.814 420.7H374.014V372.8H381.814V420.7ZM372.314 418.75H364.664V405.9H362.064C360.614 409.55 357.014 412.05 352.214 412.05C345.664 412.05 341.614 407.7 341.614 402.05C341.614 396.4 345.964 392.2 352.214 392.2C357.514 392.2 361.364 395.25 362.464 399.45H364.664V395.05H360.414V391.05H340.514V384.6H362.464V388.5H364.664V373.6H372.314V418.75ZM425.31 401.8H417.51V391.25H415.26V401.7H407.41V373.7H415.26V384.7H417.51V372.8H425.31V401.8ZM404.06 385.7V391.7H393.46V394.9H395.31C398.26 394.9 403.41 394.55 405.26 394.1L405.86 400.15C402.11 400.9 393.81 401.5 385.51 401.2V376.2H404.46V382.65H393.46V385.7H404.06ZM425.31 420.75H417.06V410.05H390.91V403.6H425.31V420.75ZM470.656 415.25H427.356V408.1H470.656V415.25ZM467.206 388.9C467.206 396.8 460.056 402.5 449.006 402.5C438.056 402.5 430.806 396.8 430.806 388.9C430.806 381.1 438.056 375.45 449.006 375.45C460.006 375.45 467.206 381.1 467.206 388.9ZM458.506 389C458.506 384.9 454.756 382.3 449.006 382.3C443.256 382.3 439.506 384.9 439.506 389C439.506 393.15 443.256 395.75 449.006 395.75C454.706 395.75 458.506 393.15 458.506 389ZM510.652 403.35H496.652V408.75H514.152V415.3H470.852V408.75H488.352V403.35H475.602V385.95H501.252V382.55H475.602V375.65H509.652V392.85H484.002V396.45H510.652V403.35ZM26.05 475.1H2.25L2.25 451.5H26.05V475.1ZM17.8 468.65V457.85H10.55V468.65H17.8ZM45.2 467.6H39.3V482.55H30.95L30.95 447.8H39.3V460.8H45.2V467.6ZM39.9 494.7H6.75L6.75 479.25H15.1V488.2H39.9V494.7ZM88.7461 472.1H82.7961V495.7H74.3961V447.8H82.7961V465.2H88.7461V472.1ZM72.0961 475.65L72.9461 482.6C66.2961 484.2 55.8461 484.7 49.8461 484.7C48.6461 484.7 47.2961 484.65 46.0461 484.65V452.3H54.2461V477.2C60.3961 477.35 67.9461 476.4 72.0961 475.65ZM131.642 477.05H88.3422V470.45H131.642V477.05ZM127.142 494.1H92.8922V480.25H101.342V487.45H127.142V494.1ZM126.942 466.65H93.3922V449.5H101.792V459.95H126.942V466.65ZM174.802 493.75H167.302V470.4H162.302V463.4H167.302V448.6H174.802V493.75ZM167.202 478.25L162.752 484.85C160.202 483.45 156.302 479.25 155.252 475.7C154.202 479.55 151.052 483.8 147.002 486.3L142.202 480.15C148.702 476.15 151.402 469.05 151.402 459.35V451.85H159.452V458.9C159.452 469.25 161.852 475.05 167.202 478.25ZM184.802 495.7H176.952V447.8H184.802V495.7ZM226.998 471.2H218.598V447.8H226.998V471.2ZM227.798 495.15H194.048V481.1H218.648V479.3H193.998V473H226.998V486.75H202.398V488.55H227.798V495.15ZM187.748 460.3C187.748 453.75 193.298 449.05 200.698 449.05C208.148 449.05 213.698 453.75 213.698 460.35C213.698 466.95 208.148 471.65 200.698 471.65C193.298 471.65 187.748 466.95 187.748 460.3ZM195.898 460.35C195.898 463.15 197.848 464.9 200.698 464.9C203.398 464.9 205.598 463.15 205.598 460.3C205.598 457.55 203.398 455.75 200.698 455.75C197.848 455.75 195.898 457.55 195.898 460.35ZM263.808 459.65H242.008V453.15H263.808V459.65ZM274.008 493.65H266.308V472.35H262.908V464.8H266.308V448.6H274.008V493.65ZM283.908 495.7H276.108V447.8H283.908V495.7ZM263.858 477.45L264.408 483.85C258.008 484.75 248.458 485.45 242.408 485.25L241.508 478.6C242.558 478.6 243.758 478.6 245.058 478.55L243.908 462L251.608 461.4L251.808 478.35L253.808 478.25L254.158 461.35L261.908 461.9L260.708 477.8C261.908 477.7 262.958 477.6 263.858 477.45ZM327.754 469.25L324.104 476.1C316.354 474.9 309.304 470.25 307.004 464.2C304.854 470.25 297.154 474.95 289.754 476.1L286.154 469.3C293.954 468.35 302.404 463.15 302.404 454V450.95H311.604V454C311.604 463.15 319.754 468.5 327.754 469.25ZM328.654 490.25H285.354V483.6H328.654V490.25ZM352.7 464.8V471.4H338.95V478.7C343.85 478.8 350.9 478.4 355.7 477.6L356.45 484.05C349.95 485.2 340.45 485.4 334.05 485.4H330.65V451.65H353.25V458.1H338.95V464.8H352.7ZM372.8 471.8H366.8V495.7H358.55V447.8H366.8V465H372.8V471.8Z" fill="#FEF9ED"/>
<path d="M131.305 182.187C136.534 182.187 140.772 177.938 140.772 172.697C140.772 167.456 136.534 163.207 131.305 163.207C126.076 163.207 121.838 167.456 121.838 172.697C121.838 177.938 126.076 182.187 131.305 182.187Z" fill="white"/>
<path d="M240.795 182.187C246.024 182.187 250.262 177.938 250.262 172.697C250.262 167.456 246.024 163.207 240.795 163.207C235.567 163.207 231.328 167.456 231.328 172.697C231.328 177.938 235.567 182.187 240.795 182.187Z" fill="white"/>
<path d="M360.164 182.187C365.393 182.187 369.632 177.938 369.632 172.697C369.632 167.456 365.393 163.207 360.164 163.207C354.936 163.207 350.697 167.456 350.697 172.697C350.697 177.938 354.936 182.187 360.164 182.187Z" fill="white"/>
<path d="M393.094 182.187C398.323 182.187 402.561 177.938 402.561 172.697C402.561 167.456 398.323 163.207 393.094 163.207C387.866 163.207 383.627 167.456 383.627 172.697C383.627 177.938 387.866 182.187 393.094 182.187Z" fill="white"/>
<path d="M430.139 182.187C435.368 182.187 439.606 177.938 439.606 172.697C439.606 167.456 435.368 163.207 430.139 163.207C424.91 163.207 420.672 167.456 420.672 172.697C420.672 177.938 424.91 182.187 430.139 182.187Z" fill="white"/>
<path d="M96.7305 135.886C96.7305 130.655 100.978 126.396 106.198 126.396C111.417 126.396 115.665 130.655 115.665 135.886V196.968C115.665 208.133 107.432 217.408 96.7305 219V135.886Z" fill="white"/>
<path d="M167.297 214.132C164.77 214.132 162.39 213.142 160.604 211.351C156.916 207.654 156.916 201.63 160.604 197.934L192.364 166.097C194.151 164.307 196.53 163.316 199.057 163.316C201.584 163.316 203.964 164.307 205.75 166.097C209.438 169.794 209.438 175.818 205.75 179.515L173.99 211.351C172.203 213.142 169.824 214.132 167.297 214.132Z" fill="white"/>
<path d="M230.333 213.472C227.805 213.472 225.426 212.481 223.64 210.691L192.612 179.597C190.826 177.806 189.838 175.422 189.838 172.888C189.838 170.355 190.826 167.97 192.612 166.179C194.399 164.389 196.778 163.398 199.305 163.398C201.832 163.398 204.212 164.389 205.998 166.179L237.017 197.273C238.804 199.064 239.792 201.448 239.792 203.982C239.792 206.515 238.804 208.9 237.017 210.691C235.231 212.481 232.852 213.472 230.324 213.472H230.333Z" fill="white"/>
<path d="M342.053 149.931C336.834 149.931 332.586 145.673 332.586 140.441C332.586 135.209 336.834 130.951 342.053 130.951H411.205C416.424 130.951 420.672 135.209 420.672 140.441C420.672 145.673 416.424 149.931 411.205 149.931H342.053Z" fill="white"/>
<path d="M342.053 213.472C336.834 213.472 332.586 209.214 332.586 203.982C332.586 198.75 336.834 194.492 342.053 194.492H411.205C416.424 194.492 420.672 198.75 420.672 203.982C420.672 209.214 416.424 213.472 411.205 213.472H342.053Z" fill="white"/>
<path d="M445.369 135.49C445.369 130.258 449.617 126 454.836 126C460.056 126 464.303 130.258 464.303 135.49V196.967C464.303 208.132 456.071 217.407 445.369 219V135.49Z" fill="white"/>
<path d="M470.066 135.49C470.066 130.258 474.314 126 479.534 126C484.753 126 489.001 130.258 489.001 135.49V196.183C489.001 207.348 480.768 216.623 470.066 218.216V135.49Z" fill="white"/>
<path d="M256.025 135.49C256.025 130.258 260.273 126 265.493 126C270.712 126 274.96 130.258 274.96 135.49V196.967C274.96 208.132 266.727 217.407 256.025 219V135.49Z" fill="white"/>
<path d="M280.723 135.49C280.723 130.258 284.971 126 290.19 126C295.409 126 299.657 130.258 299.657 135.49V196.183C299.657 207.348 291.425 216.623 280.723 218.216V135.49Z" fill="white"/>
<path d="M41.1616 213.471C18.4651 213.471 0 194.962 0 172.211C0 149.46 18.4651 130.951 41.1616 130.951H43.6313C66.3278 130.951 84.7929 149.46 84.7929 172.211C84.7929 194.962 66.3278 213.471 43.6313 213.471H41.1616Z" fill="white"/>
<path d="M199.633 186.24C194.414 186.24 190.166 181.982 190.166 176.75V140.441C190.166 135.209 194.414 130.951 199.633 130.951C204.852 130.951 209.1 135.209 209.1 140.441V176.75C209.1 181.982 204.852 186.24 199.633 186.24Z" fill="white"/>
</svg>
