<svg width="23" height="216" viewBox="0 0 23 216" fill="none" xmlns="http://www.w3.org/2000/svg">
<path d="M16.99 7.524L11.864 5.896L11.864 9.174L16.99 7.524ZM5.308 0.175999L21.478 6.072L21.478 9.284L5.308 15.092L5.308 11.374L9.026 10.12L9.026 4.972L5.308 3.828L5.308 0.175999ZM5.308 22.8919L21.478 22.8919L21.478 27.9519L9.774 30.7679L21.478 33.8259L21.478 38.8419L5.308 38.8419L5.308 35.6079L17.21 35.6079L5.308 32.4839L5.308 29.0079L17.144 26.0379L5.308 26.0379L5.308 22.8919ZM8.014 48.4232C8.014 50.3812 9.818 52.2072 12.986 52.2072L13.844 52.2072C17.122 52.2072 18.772 50.4692 18.772 48.3132C18.772 46.3552 17.078 44.5512 13.91 44.5512L13.074 44.5512C9.708 44.5512 8.014 46.3552 8.014 48.4232ZM5.066 48.3352C5.066 44.7052 7.86 41.1852 13.294 41.1852L13.646 41.1852C18.904 41.1852 21.72 44.6172 21.72 48.4012C21.72 52.0752 19.146 55.5952 13.668 55.5952L13.294 55.5952C7.992 55.5952 5.066 52.0532 5.066 48.3352ZM14.042 61.2544L14.042 63.0584C14.042 64.6644 14.812 65.9184 16.418 65.9184C17.826 65.9184 18.64 64.8404 18.64 63.0584L18.64 61.2544L14.042 61.2544ZM5.308 57.9984L21.478 57.9984L21.478 63.4544C21.478 67.0844 19.586 69.1744 16.528 69.1744C14.35 69.1744 12.656 67.9204 11.974 66.3584L5.308 70.4724L5.308 66.6664L11.27 63.4104L11.27 61.2544L5.308 61.2544L5.308 57.9984ZM5.308 72.3704L21.478 72.3704L21.478 82.1384L18.53 82.1384L18.53 75.6484L15.164 75.6484L15.164 81.3684L12.37 81.3684L12.37 75.6484L8.234 75.6484L8.234 82.2924L5.308 82.2924L5.308 72.3704ZM5.044 96.0982C5.044 93.9202 5.836 91.6762 6.474 90.5542L9.554 91.4342C8.872 92.4242 8.124 94.3162 8.124 95.8562C8.124 97.7702 8.872 98.6722 9.884 98.6722C11.05 98.6722 11.49 98.0782 11.908 96.3622L12.392 94.5582C12.92 92.4462 14.218 90.7742 16.99 90.7742C19.564 90.7742 21.676 92.8202 21.676 96.5602C21.676 98.7162 20.994 100.608 20.488 101.378L17.584 100.476C18.09 99.6402 18.728 98.2982 18.728 96.6482C18.728 95.1522 18.134 94.1402 17.188 94.1402C16.286 94.1402 15.692 94.4702 15.296 95.9882L14.878 97.7482C14.24 100.19 13.162 101.994 10.28 101.994C7.266 101.994 5.044 99.8602 5.044 96.0982ZM16.99 110.09L11.864 108.462L11.864 111.74L16.99 110.09ZM5.308 102.742L21.478 108.638L21.478 111.85L5.30799 117.658L5.308 113.94L9.026 112.686L9.026 107.538L5.308 106.394L5.308 102.742ZM5.30799 119.292L21.478 119.292L21.478 122.592L8.23399 122.592L8.23399 129.588L5.30799 129.588L5.30799 119.292ZM5.30799 132.14L21.478 132.14L21.478 141.908L18.53 141.908L18.53 135.418L15.164 135.418L15.164 141.138L12.37 141.138L12.37 135.418L8.23399 135.418L8.23399 142.062L5.30799 142.062L5.30799 132.14ZM5.30799 150.896L21.478 150.896L21.478 160.752L18.53 160.752L18.53 154.174L15.164 154.174L15.164 159.96L12.37 159.96L12.37 154.174L5.30799 154.174L5.30799 150.896ZM5.30799 163.314L21.478 163.314L21.478 173.082L18.53 173.082L18.53 166.592L15.164 166.592L15.164 172.312L12.37 172.312L12.37 166.592L8.23399 166.592L8.23399 173.236L5.30799 173.236L5.30799 163.314ZM5.04399 180.876C5.04399 178.698 5.83599 176.454 6.47399 175.332L9.55399 176.212C8.87199 177.202 8.12399 179.094 8.12399 180.634C8.12399 182.548 8.87199 183.45 9.88399 183.45C11.05 183.45 11.49 182.856 11.908 181.14L12.392 179.336C12.92 177.224 14.218 175.552 16.99 175.552C19.564 175.552 21.676 177.598 21.676 181.338C21.676 183.494 20.994 185.386 20.488 186.156L17.584 185.254C18.09 184.418 18.728 183.076 18.728 181.426C18.728 179.93 18.134 178.918 17.188 178.918C16.286 178.918 15.692 179.248 15.296 180.766L14.878 182.526C14.24 184.968 13.162 186.772 10.28 186.772C7.26599 186.772 5.04399 184.638 5.04399 180.876ZM18.442 196.139L5.30799 196.139L5.30799 192.795L18.442 192.795L18.442 188.351L21.478 188.351L21.478 200.605L18.442 200.605L18.442 196.139ZM16.99 207.243L11.864 205.615L11.864 208.893L16.99 207.243ZM5.30799 199.895L21.478 205.791L21.478 209.003L5.30799 214.811L5.30799 211.093L9.02599 209.839L9.02599 204.691L5.30799 203.547L5.30799 199.895Z" fill="white"/>
</svg>
