<svg width="580" height="71" viewBox="0 0 580 71" fill="none" xmlns="http://www.w3.org/2000/svg">
<path d="M3.132 30.44V4.736H18.468V7.616H6.516V15.752H15.732V18.596H6.516V27.596H18.576V30.44H3.132ZM27.0048 30.44L19.9848 11.432H23.5128L28.6608 26.336H28.8048L34.0968 11.432H37.2648L30.2808 30.44H27.0048ZM47.6168 13.664C45.4928 13.664 43.0448 14.852 42.7568 19.244H52.0088C52.0088 15.248 50.4968 13.664 47.6168 13.664ZM48.4448 30.8C42.4328 30.8 39.3728 27.092 39.3728 21.224V20.648C39.3728 14.024 43.3328 11.036 47.7608 11.036C52.9808 11.036 55.4648 14.06 55.4648 20.036V21.872H42.7568C42.9728 26.408 45.2048 27.992 48.9848 27.992C51.5408 27.992 53.1608 27.452 54.8888 26.552V28.964C53.7728 29.792 51.6128 30.8 48.4448 30.8ZM59.4748 30.44V11.432H62.5708V13.052H62.7868C64.3708 11.936 66.8548 11.036 69.1948 11.036C72.9388 11.036 74.7028 12.62 74.7028 16.292V30.44H71.4628V16.976C71.4628 14.78 70.7428 13.88 67.7548 13.88C66.0628 13.88 64.1188 14.492 62.7508 15.14V30.44H59.4748ZM85.9511 30.656C82.8911 30.656 80.8031 29.36 80.8031 25.976V14.132H78.1031V11.432H80.8031V6.896H84.0431V11.432H88.8311V14.132H84.0431V25.508C84.0431 27.308 84.6551 27.992 86.8151 27.992C87.5711 27.992 88.4711 27.884 89.2271 27.704V29.9C88.4351 30.26 87.6431 30.656 85.9511 30.656ZM102.519 28.172C106.371 28.172 108.423 25.544 108.423 18.992V16.364C108.423 9.92 106.407 7.004 102.555 7.004C98.6667 7.004 96.5427 9.776 96.5427 16.112V18.812C96.5427 25.148 98.5947 28.172 102.519 28.172ZM102.519 30.908C97.1187 30.908 92.9427 27.308 92.9427 18.56V16.508C92.9427 7.4 97.4427 4.268 102.555 4.268C107.667 4.268 111.915 7.4 111.915 16.364V18.596C111.915 27.38 107.775 30.908 102.519 30.908ZM117.624 30.584L127.632 7.58H114.816V4.772H131.34V6.896L121.404 30.584H117.624Z" fill="white"/>
<path d="M166.06 30.44V4.232H170.02V27.164H181.396V30.44H166.06ZM185.645 30.44V4.232H189.641V30.44H185.645ZM202.713 30.44L193.317 4.232H197.421L204.729 25.292H204.837L212.109 4.232H215.853L206.493 30.44H202.713ZM219.462 30.44V4.232H235.41V7.508H223.422V15.32H232.71V18.596H223.422V27.164H235.554V30.44H219.462ZM271.88 28.316C271.88 26.048 269.144 24.68 264.392 24.68C259.676 24.68 256.976 26.084 256.976 28.316C256.976 30.548 259.712 31.916 264.392 31.916C269.144 31.916 271.88 30.548 271.88 28.316ZM275.912 28.316C275.912 32.384 271.736 35.048 264.392 35.048C257.084 35.048 252.908 32.384 252.908 28.316C252.908 24.212 257.084 21.512 264.392 21.512C271.772 21.512 275.912 24.212 275.912 28.316ZM280.448 12.584H275.48V21.008H271.52V0.955998H275.48V9.308H280.448V12.584ZM261.908 15.32V10.748H253.88V15.32H261.908ZM265.832 18.452H249.956V2.72H253.88V7.652H261.908V2.648H265.832V18.452ZM305.321 28.892C305.321 26.948 302.333 25.76 297.509 25.76C292.721 25.76 289.733 26.948 289.733 28.892C289.733 30.872 292.721 32.024 297.509 32.024C302.333 32.024 305.321 30.872 305.321 28.892ZM311.621 11.324L309.893 14.42C304.997 13.628 299.201 10.532 297.545 6.824C295.925 10.532 290.489 13.52 285.197 14.384L283.505 11.324C289.193 10.712 295.529 7.328 295.529 2.288V1.244H299.597V2.288C299.597 7.328 306.797 11 311.621 11.324ZM312.917 20.252H282.101V17.084H295.529V12.404H299.453V17.084H312.917V20.252ZM309.353 28.892C309.353 32.708 305.033 35.12 297.545 35.12C289.985 35.12 285.701 32.708 285.701 28.892C285.701 25.04 289.985 22.592 297.509 22.592C305.033 22.592 309.353 25.04 309.353 28.892Z" fill="white"/>
<rect opacity="0.3" y="69" width="580" height="2" fill="#D9D9D9"/>
<circle cx="558" cy="18" r="13" fill="white"/>
</svg>
