<svg width="580" height="71" viewBox="0 0 580 71" fill="none" xmlns="http://www.w3.org/2000/svg">
<path d="M3.132 30.44V4.736H18.468V7.616H6.516V15.752H15.732V18.596H6.516V27.596H18.576V30.44H3.132ZM27.0048 30.44L19.9848 11.432H23.5128L28.6608 26.336H28.8048L34.0968 11.432H37.2648L30.2808 30.44H27.0048ZM47.6168 13.664C45.4928 13.664 43.0448 14.852 42.7568 19.244H52.0088C52.0088 15.248 50.4968 13.664 47.6168 13.664ZM48.4448 30.8C42.4328 30.8 39.3728 27.092 39.3728 21.224V20.648C39.3728 14.024 43.3328 11.036 47.7608 11.036C52.9808 11.036 55.4648 14.06 55.4648 20.036V21.872H42.7568C42.9728 26.408 45.2048 27.992 48.9848 27.992C51.5408 27.992 53.1608 27.452 54.8888 26.552V28.964C53.7728 29.792 51.6128 30.8 48.4448 30.8ZM59.4748 30.44V11.432H62.5708V13.052H62.7868C64.3708 11.936 66.8548 11.036 69.1948 11.036C72.9388 11.036 74.7028 12.62 74.7028 16.292V30.44H71.4628V16.976C71.4628 14.78 70.7428 13.88 67.7548 13.88C66.0628 13.88 64.1188 14.492 62.7508 15.14V30.44H59.4748ZM85.9511 30.656C82.8911 30.656 80.8031 29.36 80.8031 25.976V14.132H78.1031V11.432H80.8031V6.896H84.0431V11.432H88.8311V14.132H84.0431V25.508C84.0431 27.308 84.6551 27.992 86.8151 27.992C87.5711 27.992 88.4711 27.884 89.2271 27.704V29.9C88.4351 30.26 87.6431 30.656 85.9511 30.656ZM102.519 28.172C106.371 28.172 108.423 25.544 108.423 18.992V16.364C108.423 9.92 106.407 7.004 102.555 7.004C98.6667 7.004 96.5427 9.776 96.5427 16.112V18.812C96.5427 25.148 98.5947 28.172 102.519 28.172ZM102.519 30.908C97.1187 30.908 92.9427 27.308 92.9427 18.56V16.508C92.9427 7.4 97.4427 4.268 102.555 4.268C107.667 4.268 111.915 7.4 111.915 16.364V18.596C111.915 27.38 107.775 30.908 102.519 30.908ZM116.386 30.44V28.46L122.29 22.34C125.926 18.56 128.446 15.644 128.446 12.044C128.446 8.696 126.826 7.076 123.226 7.076C121.102 7.076 119.014 8.12 117.538 9.128L116.71 6.5C118.33 5.456 120.958 4.232 123.874 4.232C129.166 4.232 132.01 7.076 132.01 11.684C132.01 16.22 129.058 19.496 124.846 23.744L121.03 27.632H132.514V30.44H116.386Z" fill="#A8D0FF"/>
<path d="M168.04 2.936H190.9C190.9 8.624 190.576 13.412 189.748 17.48H194.968V20.648H181.468V35.084H177.544V20.648H164.152V17.48H185.968C186.616 14.456 186.904 10.1 186.94 6.14H168.04V2.936ZM208.321 22.988V8.192H202.093V22.988H208.321ZM226.033 35.084H222.253V17.804H219.013V33.464H215.305V1.64H219.013V14.528H222.253V0.955998H226.033V35.084ZM212.029 5.096V26.048H198.385V5.096H212.029ZM251.816 20.792C251.816 18.596 250.448 17.048 248.216 17.048C246.056 17.048 244.652 18.596 244.652 20.792C244.652 22.988 246.056 24.464 248.216 24.464C250.448 24.464 251.816 22.916 251.816 20.792ZM255.38 20.792C255.38 24.752 252.464 27.632 248.216 27.632C244.076 27.632 241.088 24.536 241.088 20.792C241.088 16.76 244.076 13.916 248.216 13.916C252.464 13.916 255.38 16.832 255.38 20.792ZM256.748 12.368H240.26V9.2H256.748V12.368ZM253.004 6.86H244.184V3.692H253.004V6.86ZM262.796 33.464H259.088V24.86H255.884V21.764H259.088V16.652H255.704V13.592H259.088V1.64H262.796V33.464ZM269.24 35.084H265.496V0.955998H269.24V35.084ZM302.321 35.084H298.397V25.94H279.065V22.808H302.321V35.084ZM287.561 9.92V12.98H278.813V16.508C283.241 16.508 286.697 16.256 289.325 15.68L289.829 18.74C286.913 19.352 282.305 19.64 278.093 19.676L274.925 19.64V3.404H288.065V6.572H278.813V9.92H287.561ZM302.321 21.008H298.577V12.512H295.193V20.684H291.485V1.568H295.193V9.236H298.577V0.955998H302.321V21.008Z" fill="#A8D0FF"/>
<rect opacity="0.3" y="69" width="580" height="2" fill="#D9D9D9"/>
</svg>
