<svg width="580" height="71" viewBox="0 0 580 71" fill="none" xmlns="http://www.w3.org/2000/svg">
<path d="M3.53239 30.44V4.736H18.8684V7.616H6.91639V15.752H16.1324V18.596H6.91639V27.596H18.9764V30.44H3.53239ZM27.4052 30.44L20.3852 11.432H23.9132L29.0612 26.336H29.2052L34.4972 11.432H37.6652L30.6812 30.44H27.4052ZM48.0171 13.664C45.8931 13.664 43.4451 14.852 43.1571 19.244H52.4091C52.4091 15.248 50.8971 13.664 48.0171 13.664ZM48.8451 30.8C42.8331 30.8 39.7731 27.092 39.7731 21.224V20.648C39.7731 14.024 43.7331 11.036 48.1611 11.036C53.3811 11.036 55.8651 14.06 55.8651 20.036V21.872H43.1571C43.3731 26.408 45.6051 27.992 49.3851 27.992C51.9411 27.992 53.5611 27.452 55.2891 26.552V28.964C54.1731 29.792 52.0131 30.8 48.8451 30.8ZM59.8752 30.44V11.432H62.9712V13.052H63.1872C64.7712 11.936 67.2552 11.036 69.5952 11.036C73.3392 11.036 75.1032 12.62 75.1032 16.292V30.44H71.8632V16.976C71.8632 14.78 71.1432 13.88 68.1552 13.88C66.4632 13.88 64.5192 14.492 63.1512 15.14V30.44H59.8752ZM86.3515 30.656C83.2915 30.656 81.2035 29.36 81.2035 25.976V14.132H78.5035V11.432H81.2035V6.896H84.4435V11.432H89.2315V14.132H84.4435V25.508C84.4435 27.308 85.0555 27.992 87.2155 27.992C87.9715 27.992 88.8715 27.884 89.6275 27.704V29.9C88.8355 30.26 88.0435 30.656 86.3515 30.656ZM102.919 28.172C106.771 28.172 108.823 25.544 108.823 18.992V16.364C108.823 9.92 106.807 7.004 102.955 7.004C99.0671 7.004 96.9431 9.776 96.9431 16.112V18.812C96.9431 25.148 98.9951 28.172 102.919 28.172ZM102.919 30.908C97.5191 30.908 93.3431 27.308 93.3431 18.56V16.508C93.3431 7.4 97.8431 4.268 102.955 4.268C108.067 4.268 112.315 7.4 112.315 16.364V18.596C112.315 27.38 108.175 30.908 102.919 30.908ZM121.318 30.62V8.084L116.638 9.128V7.184L122.83 4.304H124.666V30.62H121.318Z" fill="white"/>
<path d="M162.78 30.512L172.356 8.12H160.44V4.412H177.468V7.22L168 30.512H162.78ZM202.591 28.784C202.591 27.056 199.711 25.976 195.283 25.976C190.855 25.976 188.011 27.056 188.011 28.784C188.011 30.512 190.855 31.556 195.283 31.556C199.711 31.556 202.591 30.512 202.591 28.784ZM210.691 20.936H179.875V17.336H192.979V13.016H197.443V17.336H210.691V20.936ZM209.251 11.612L207.343 15.14C202.555 14.708 197.227 12.08 195.319 8.66C193.627 12.152 188.659 14.744 183.259 15.176L181.423 11.684C186.571 11.432 191.251 9.128 192.583 5.78H182.971V2.252H207.667V5.78H198.091C199.603 9.164 204.859 11.468 209.251 11.612ZM207.163 28.748C207.163 32.672 202.843 35.084 195.319 35.084C187.759 35.084 183.403 32.672 183.403 28.748C183.403 24.86 187.759 22.448 195.283 22.448C202.843 22.448 207.163 24.86 207.163 28.748ZM226.502 2.792H250.19C250.19 7.724 249.83 14.096 249.038 18.416H253.898V22.016H240.65V35.084H236.186V22.016H223.082V18.416H244.754C245.042 17.12 245.258 15.212 245.438 13.196L226.034 14.168L225.494 10.604L245.654 9.812C245.69 8.516 245.726 7.328 245.726 6.32H226.502V2.792ZM283.919 5.78H259.151V2.252H283.919V5.78ZM283.451 34.184H260.087V24.608H264.551V30.656H283.451V34.184ZM283.847 16.292H273.767V19.244H287.015V22.808H256.199V19.244H269.303V16.292H259.259V12.728H263.939L263.075 7.436L267.395 6.788L268.151 12.728H274.955L275.855 6.788L280.211 7.436L279.167 12.728H283.847V16.292ZM305.48 7.292H289.748V3.728H305.48V7.292ZM294.644 23.276H318.332V35.12H313.868V26.804H294.644V23.276ZM306.02 16.544L306.344 19.928C302.564 20.504 294.788 20.972 289.46 21.08L288.884 17.408C290.144 17.408 291.368 17.408 292.556 17.372C292.268 14.708 292.052 11.72 291.8 9.164L296.084 8.66C296.192 11.324 296.372 14.456 296.48 17.264L298.892 17.156C299.108 14.384 299.36 11.324 299.54 8.696L303.608 9.092C303.32 11.504 303.032 14.312 302.744 16.904C304.076 16.796 305.192 16.652 306.02 16.544ZM318.332 21.728H314.084V12.872H311.492V21.368H307.316V1.568H311.492V9.236H314.084V0.955998H318.332V21.728Z" fill="white"/>
<rect opacity="0.3" y="69" width="580" height="2" fill="#D9D9D9"/>
<circle cx="558" cy="19" r="13" fill="white"/>
</svg>
