<svg width="580" height="71" viewBox="0 0 580 71" fill="none" xmlns="http://www.w3.org/2000/svg">
<path d="M3.132 30.44V4.736H18.468V7.616H6.516V15.752H15.732V18.596H6.516V27.596H18.576V30.44H3.132ZM27.0048 30.44L19.9848 11.432H23.5128L28.6608 26.336H28.8048L34.0968 11.432H37.2648L30.2808 30.44H27.0048ZM47.6168 13.664C45.4928 13.664 43.0448 14.852 42.7568 19.244H52.0088C52.0088 15.248 50.4968 13.664 47.6168 13.664ZM48.4448 30.8C42.4328 30.8 39.3728 27.092 39.3728 21.224V20.648C39.3728 14.024 43.3328 11.036 47.7608 11.036C52.9808 11.036 55.4648 14.06 55.4648 20.036V21.872H42.7568C42.9728 26.408 45.2048 27.992 48.9848 27.992C51.5408 27.992 53.1608 27.452 54.8888 26.552V28.964C53.7728 29.792 51.6128 30.8 48.4448 30.8ZM59.4748 30.44V11.432H62.5708V13.052H62.7868C64.3708 11.936 66.8548 11.036 69.1948 11.036C72.9388 11.036 74.7028 12.62 74.7028 16.292V30.44H71.4628V16.976C71.4628 14.78 70.7428 13.88 67.7548 13.88C66.0628 13.88 64.1188 14.492 62.7508 15.14V30.44H59.4748ZM85.9511 30.656C82.8911 30.656 80.8031 29.36 80.8031 25.976V14.132H78.1031V11.432H80.8031V6.896H84.0431V11.432H88.8311V14.132H84.0431V25.508C84.0431 27.308 84.6551 27.992 86.8151 27.992C87.5711 27.992 88.4711 27.884 89.2271 27.704V29.9C88.4351 30.26 87.6431 30.656 85.9511 30.656ZM102.519 28.172C106.371 28.172 108.423 25.544 108.423 18.992V16.364C108.423 9.92 106.407 7.004 102.555 7.004C98.6667 7.004 96.5427 9.776 96.5427 16.112V18.812C96.5427 25.148 98.5947 28.172 102.519 28.172ZM102.519 30.908C97.1187 30.908 92.9427 27.308 92.9427 18.56V16.508C92.9427 7.4 97.4427 4.268 102.555 4.268C107.667 4.268 111.915 7.4 111.915 16.364V18.596C111.915 27.38 107.775 30.908 102.519 30.908ZM122.8 30.836C119.776 30.836 117.184 30.008 115.708 29L116.392 26.408C117.832 27.344 120.424 28.064 122.332 28.064C126.436 28.064 128.74 26.264 128.74 23.096C128.74 19.928 126.328 18.416 122.548 18.416H120.028V15.644H122.296C125.572 15.608 127.768 13.988 127.768 11.216C127.768 8.156 125.788 7.076 122.728 7.076C120.64 7.076 118.66 7.976 117.076 8.84L116.608 6.176C118.156 5.168 121.144 4.268 123.448 4.268C128.128 4.268 131.26 6.608 131.26 10.676C131.26 13.808 129.316 15.716 126.4 16.688C129.712 17.336 132.196 19.208 132.196 23.168C132.196 27.74 128.56 30.836 122.8 30.836Z" fill="white"/>
<path d="M191.656 34.184H168.832V25.004H172.756V31.016H191.656V34.184ZM190.648 0.955998V11.648H195.688V14.924H190.648V26.192H186.724V0.955998H190.648ZM168.832 4.88V1.748H178.804V4.88H168.832ZM178.084 17.336C178.084 15.5 176.14 14.384 173.836 14.384C171.424 14.384 169.516 15.5 169.516 17.336C169.516 19.172 171.424 20.216 173.836 20.216C176.14 20.216 178.084 19.172 178.084 17.336ZM181.828 17.336C181.828 20.9 178.408 23.24 173.836 23.24C169.228 23.24 165.772 20.9 165.772 17.336C165.772 13.808 169.192 11.396 173.836 11.396C178.408 11.396 181.828 13.808 181.828 17.336ZM183.628 10.064H163.9V6.968H183.628V10.064ZM214.009 24.824C209.293 24.824 206.485 26.12 206.485 28.388C206.485 30.62 209.293 31.916 214.009 31.916C218.833 31.916 221.605 30.62 221.605 28.388C221.605 26.12 218.833 24.824 214.009 24.824ZM215.881 12.512V9.236H221.425V0.955998H225.385V21.476H221.425V12.512H215.881ZM198.457 6.392V3.152H216.421V6.392H209.581V6.536C209.581 11.612 213.397 15.356 217.357 16.58L215.197 19.712C212.389 18.596 209.041 15.896 207.565 12.728C206.557 16.04 202.885 19.388 199.501 20.684L197.125 17.624C201.913 15.86 205.549 11.756 205.549 6.716V6.392H198.457ZM225.637 28.388C225.637 32.42 221.389 35.084 214.009 35.084C206.665 35.084 202.453 32.42 202.453 28.388C202.453 24.284 206.665 21.62 214.009 21.62C221.389 21.62 225.637 24.284 225.637 28.388ZM260.888 23.78L258.548 26.732C255.632 24.86 251.672 20.504 250.412 16.76C249.26 20.792 245.84 25.076 242.096 27.344L239.684 24.464C244.976 21.044 248.36 15.392 248.36 8.876V3.908H252.392V8.66C252.392 15.212 255.884 20.648 260.888 23.78ZM266.972 0.955998V14.312H272.12V17.588H266.972V35.084H263.048V0.955998H266.972ZM296.777 8.552C296.777 6.248 293.789 4.88 289.001 4.88C284.285 4.88 281.261 6.248 281.261 8.552C281.261 10.82 284.249 12.188 289.001 12.188C293.789 12.188 296.777 10.82 296.777 8.552ZM300.809 8.516C300.809 12.512 296.417 15.284 289.037 15.284C281.585 15.284 277.229 12.512 277.229 8.516C277.229 4.556 281.585 1.784 289.001 1.784C296.417 1.784 300.809 4.556 300.809 8.516ZM300.809 34.148H277.553V24.248H281.477V30.98H300.809V34.148ZM304.409 21.512H273.593V18.344H304.409V21.512ZM329.643 31.52V26.516H314.559V31.52H329.643ZM334.395 4.916H309.663V1.748H334.395V4.916ZM334.359 14.636H309.735V11.468H314.847L313.947 6.212L317.799 5.996L318.555 11.468H325.539L326.403 5.96L330.255 6.356L329.247 11.468H334.359V14.636ZM333.567 34.652H310.635V23.456H320.103V20.36H306.711V17.192H337.527V20.36H324.027V23.456H333.567V34.652Z" fill="white"/>
<rect opacity="0.3" y="69" width="580" height="2" fill="#D9D9D9"/>
<circle cx="558" cy="19" r="13" fill="white"/>
</svg>
