<svg width="580" height="71" viewBox="0 0 580 71" fill="none" xmlns="http://www.w3.org/2000/svg">
<path d="M3.132 30.44V4.736H18.468V7.616H6.516V15.752H15.732V18.596H6.516V27.596H18.576V30.44H3.132ZM27.0048 30.44L19.9848 11.432H23.5128L28.6608 26.336H28.8048L34.0968 11.432H37.2648L30.2808 30.44H27.0048ZM47.6168 13.664C45.4928 13.664 43.0448 14.852 42.7568 19.244H52.0088C52.0088 15.248 50.4968 13.664 47.6168 13.664ZM48.4448 30.8C42.4328 30.8 39.3728 27.092 39.3728 21.224V20.648C39.3728 14.024 43.3328 11.036 47.7608 11.036C52.9808 11.036 55.4648 14.06 55.4648 20.036V21.872H42.7568C42.9728 26.408 45.2048 27.992 48.9848 27.992C51.5408 27.992 53.1608 27.452 54.8888 26.552V28.964C53.7728 29.792 51.6128 30.8 48.4448 30.8ZM59.4748 30.44V11.432H62.5708V13.052H62.7868C64.3708 11.936 66.8548 11.036 69.1948 11.036C72.9388 11.036 74.7028 12.62 74.7028 16.292V30.44H71.4628V16.976C71.4628 14.78 70.7428 13.88 67.7548 13.88C66.0628 13.88 64.1188 14.492 62.7508 15.14V30.44H59.4748ZM85.9511 30.656C82.8911 30.656 80.8031 29.36 80.8031 25.976V14.132H78.1031V11.432H80.8031V6.896H84.0431V11.432H88.8311V14.132H84.0431V25.508C84.0431 27.308 84.6551 27.992 86.8151 27.992C87.5711 27.992 88.4711 27.884 89.2271 27.704V29.9C88.4351 30.26 87.6431 30.656 85.9511 30.656ZM102.519 28.172C106.371 28.172 108.423 25.544 108.423 18.992V16.364C108.423 9.92 106.407 7.004 102.555 7.004C98.6667 7.004 96.5427 9.776 96.5427 16.112V18.812C96.5427 25.148 98.5947 28.172 102.519 28.172ZM102.519 30.908C97.1187 30.908 92.9427 27.308 92.9427 18.56V16.508C92.9427 7.4 97.4427 4.268 102.555 4.268C107.667 4.268 111.915 7.4 111.915 16.364V18.596C111.915 27.38 107.775 30.908 102.519 30.908ZM125.625 28.208C128.865 28.208 130.809 26.084 130.809 22.484C130.809 18.56 128.649 17.048 125.661 17.048C123.321 17.048 121.161 18.704 120.117 20.144V20.432C120.117 25.148 121.665 28.208 125.625 28.208ZM125.697 30.908C119.829 30.908 116.733 26.66 116.733 19.388V17.408C116.733 8.156 120.945 4.268 126.921 4.268C129.513 4.268 131.925 5.132 132.969 5.78L132.105 8.264C131.133 7.724 128.901 7.076 127.245 7.076C122.961 7.076 120.477 9.236 120.117 16.976C121.485 15.608 123.609 14.312 126.417 14.312C130.773 14.312 134.157 17.264 134.157 22.16C134.157 27.092 131.025 30.908 125.697 30.908Z" fill="#A8D0FF"/>
<path d="M178.192 15.572C178.192 10.1 176.176 6.824 173.26 6.824C170.38 6.824 168.4 10.1 168.4 15.572C168.4 21.044 170.38 24.32 173.26 24.32C176.176 24.32 178.192 21.044 178.192 15.572ZM164.548 15.572C164.548 8.372 167.788 3.62 173.26 3.62C178.732 3.62 181.936 8.372 181.936 15.608C181.936 22.772 178.732 27.488 173.26 27.488C167.788 27.488 164.548 22.772 164.548 15.572ZM190.648 0.955998V14.276H195.94V17.552H190.648V35.084H186.724V0.955998H190.648ZM214.549 23.888L212.281 26.624C209.869 25.076 206.809 21.476 205.801 17.948C204.973 21.656 202.237 25.436 198.961 27.524L196.585 24.824C200.725 22.124 203.893 16.724 203.893 9.704V4.34H207.673V9.668C207.673 16.184 210.553 21.44 214.549 23.888ZM219.301 33.464H215.593V16.148H210.697V12.872H215.593V1.64H219.301V33.464ZM226.033 35.084H222.289V0.955998H226.033V35.084ZM246.334 8.12H230.602V4.988H246.334V8.12ZM259.15 35.084H255.406V0.955998H259.15V35.084ZM252.814 33.428H249.07V17.516H245.254V14.24H249.07V1.676H252.814V33.428ZM244.102 10.352L243.058 23.348C244.606 23.24 245.974 23.096 246.946 22.952L247.306 26.012C241.87 26.768 236.326 27.092 230.386 27.128L229.846 23.852C230.962 23.852 232.258 23.852 233.59 23.816L232.726 10.424L236.434 9.992L237.046 23.708L239.422 23.6H239.53L240.25 10.064L244.102 10.352ZM288.245 15.572C288.245 10.1 286.229 6.824 283.313 6.824C280.433 6.824 278.453 10.1 278.453 15.572C278.453 21.044 280.433 24.32 283.313 24.32C286.229 24.32 288.245 21.044 288.245 15.572ZM274.601 15.572C274.601 8.372 277.841 3.62 283.313 3.62C288.785 3.62 291.989 8.372 291.989 15.608C291.989 22.772 288.785 27.488 283.313 27.488C277.841 27.488 274.601 22.772 274.601 15.572ZM301.673 35.084H297.749V0.955998H301.673V35.084ZM317.727 16.616V11.792H311.967V16.616H317.727ZM335.439 26.3H331.695V0.955998H335.439V26.3ZM336.339 34.184H312.831V23.348H316.755V31.016H336.339V34.184ZM321.651 19.784H308.043V3.512H311.967V8.696H317.727V3.44H321.651V9.884H325.215V1.604H328.923V25.364H325.215V13.16H321.651V19.784ZM370.644 27.632V30.764H339.828V27.632H370.644ZM365.532 13.952H347.712V18.308H367.008V21.404H343.788V3.584H366.684V6.716H347.712V10.856H365.532V13.952Z" fill="#A8D0FF"/>
<rect opacity="0.3" y="69" width="580" height="2" fill="#D9D9D9"/>
</svg>
