<svg width="580" height="71" viewBox="0 0 580 71" fill="none" xmlns="http://www.w3.org/2000/svg">
<path d="M3.132 30.44V4.736H18.468V7.616H6.516V15.752H15.732V18.596H6.516V27.596H18.576V30.44H3.132ZM27.0048 30.44L19.9848 11.432H23.5128L28.6608 26.336H28.8048L34.0968 11.432H37.2648L30.2808 30.44H27.0048ZM47.6168 13.664C45.4928 13.664 43.0448 14.852 42.7568 19.244H52.0088C52.0088 15.248 50.4968 13.664 47.6168 13.664ZM48.4448 30.8C42.4328 30.8 39.3728 27.092 39.3728 21.224V20.648C39.3728 14.024 43.3328 11.036 47.7608 11.036C52.9808 11.036 55.4648 14.06 55.4648 20.036V21.872H42.7568C42.9728 26.408 45.2048 27.992 48.9848 27.992C51.5408 27.992 53.1608 27.452 54.8888 26.552V28.964C53.7728 29.792 51.6128 30.8 48.4448 30.8ZM59.4748 30.44V11.432H62.5708V13.052H62.7868C64.3708 11.936 66.8548 11.036 69.1948 11.036C72.9388 11.036 74.7028 12.62 74.7028 16.292V30.44H71.4628V16.976C71.4628 14.78 70.7428 13.88 67.7548 13.88C66.0628 13.88 64.1188 14.492 62.7508 15.14V30.44H59.4748ZM85.9511 30.656C82.8911 30.656 80.8031 29.36 80.8031 25.976V14.132H78.1031V11.432H80.8031V6.896H84.0431V11.432H88.8311V14.132H84.0431V25.508C84.0431 27.308 84.6551 27.992 86.8151 27.992C87.5711 27.992 88.4711 27.884 89.2271 27.704V29.9C88.4351 30.26 87.6431 30.656 85.9511 30.656ZM102.519 28.172C106.371 28.172 108.423 25.544 108.423 18.992V16.364C108.423 9.92 106.407 7.004 102.555 7.004C98.6667 7.004 96.5427 9.776 96.5427 16.112V18.812C96.5427 25.148 98.5947 28.172 102.519 28.172ZM102.519 30.908C97.1187 30.908 92.9427 27.308 92.9427 18.56V16.508C92.9427 7.4 97.4427 4.268 102.555 4.268C107.667 4.268 111.915 7.4 111.915 16.364V18.596C111.915 27.38 107.775 30.908 102.519 30.908ZM119.001 22.808H127.857V9.92L119.001 22.808ZM127.821 31.016V25.472H115.509V23.132L128.433 4.304H130.989V22.808H135.273V25.472H130.989V31.016H127.821Z" fill="white"/>
<path d="M178.192 15.572C178.192 10.1 176.176 6.824 173.26 6.824C170.38 6.824 168.4 10.1 168.4 15.572C168.4 21.044 170.38 24.32 173.26 24.32C176.176 24.32 178.192 21.044 178.192 15.572ZM164.548 15.572C164.548 8.372 167.788 3.62 173.26 3.62C178.732 3.62 181.936 8.372 181.936 15.608C181.936 22.772 178.732 27.488 173.26 27.488C167.788 27.488 164.548 22.772 164.548 15.572ZM190.648 0.955998V14.276H195.94V17.552H190.648V35.084H186.724V0.955998H190.648ZM214.549 23.888L212.281 26.624C209.869 25.076 206.809 21.476 205.801 17.948C204.973 21.656 202.237 25.436 198.961 27.524L196.585 24.824C200.725 22.124 203.893 16.724 203.893 9.704V4.34H207.673V9.668C207.673 16.184 210.553 21.44 214.549 23.888ZM219.301 33.464H215.593V16.148H210.697V12.872H215.593V1.64H219.301V33.464ZM226.033 35.084H222.289V0.955998H226.033V35.084ZM246.334 8.12H230.602V4.988H246.334V8.12ZM259.15 35.084H255.406V0.955998H259.15V35.084ZM252.814 33.428H249.07V17.516H245.254V14.24H249.07V1.676H252.814V33.428ZM244.102 10.352L243.058 23.348C244.606 23.24 245.974 23.096 246.946 22.952L247.306 26.012C241.87 26.768 236.326 27.092 230.386 27.128L229.846 23.852C230.962 23.852 232.258 23.852 233.59 23.816L232.726 10.424L236.434 9.992L237.046 23.708L239.422 23.6H239.53L240.25 10.064L244.102 10.352ZM304.409 30.8H273.593V27.632H286.985V19.244H290.909V27.632H304.409V30.8ZM303.437 16.436L301.385 19.46C296.309 18.164 290.765 14.276 289.001 10.1C287.417 14.348 281.729 18.236 276.581 19.46L274.673 16.292C280.253 15.392 286.985 10.82 286.985 4.952V2.9H291.089V4.952C291.089 10.748 298.289 15.464 303.437 16.436ZM329.499 11.792V5.924H314.703V11.792H329.499ZM333.927 34.112H310.707V24.428H314.631V30.98H333.927V34.112ZM324.171 27.74H320.247V21.44H306.711V18.272H337.527V21.44H324.171V27.74ZM333.423 2.756V14.96H310.779V2.756H333.423ZM355.308 21.728L355.848 24.896C353.544 25.472 348.9 25.94 344.796 25.976H341.448V5.024H345.336V22.736C348.756 22.736 353.076 22.376 355.308 21.728ZM368.556 35.084H364.812V17.804H361.176V33.428H357.468V1.64H361.176V14.528H364.812V0.955998H368.556V35.084ZM374.781 4.556H390.585C390.369 15.14 385.077 23.312 375.249 28.676L372.801 25.688C380.649 22.124 385.725 14.96 386.373 7.796H374.781V4.556ZM401.061 35.084H397.137V0.955998H401.061V35.084Z" fill="white"/>
<rect opacity="0.3" y="69" width="580" height="2" fill="#D9D9D9"/>
<circle cx="558" cy="19" r="13" fill="white"/>
</svg>
