<svg width="124" height="124" viewBox="0 0 124 124" fill="none" xmlns="http://www.w3.org/2000/svg">
<g filter="url(#filter0_d_62_6628)">
<path d="M12 50C12 22.3858 34.3858 0 62 0C89.6142 0 112 22.3858 112 50C112 77.6142 89.6142 100 62 100H12V50Z" fill="#0E1F96"/>
<path d="M12.5 50C12.5 22.6619 34.6619 0.5 62 0.5C89.3381 0.5 111.5 22.6619 111.5 50C111.5 77.3381 89.3381 99.5 62 99.5H12.5V50Z" stroke="#000D6A"/>
</g>
<rect x="37" y="30" width="48" height="8" rx="4" fill="#D9D9D9"/>
<rect x="37" y="46" width="48" height="8" rx="4" fill="#D9D9D9"/>
<rect x="37" y="62" width="48" height="8" rx="4" fill="#D9D9D9"/>
<defs>
<filter id="filter0_d_62_6628" x="0" y="0" width="124" height="124" filterUnits="userSpaceOnUse" color-interpolation-filters="sRGB">
<feFlood flood-opacity="0" result="BackgroundImageFix"/>
<feColorMatrix in="SourceAlpha" type="matrix" values="0 0 0 0 0 0 0 0 0 0 0 0 0 0 0 0 0 0 127 0" result="hardAlpha"/>
<feOffset dy="12"/>
<feGaussianBlur stdDeviation="6"/>
<feComposite in2="hardAlpha" operator="out"/>
<feColorMatrix type="matrix" values="0 0 0 0 0.054902 0 0 0 0 0.121569 0 0 0 0 0.588235 0 0 0 0.37 0"/>
<feBlend mode="normal" in2="BackgroundImageFix" result="effect1_dropShadow_62_6628"/>
<feBlend mode="normal" in="SourceGraphic" in2="effect1_dropShadow_62_6628" result="shape"/>
</filter>
</defs>
</svg>
