<svg width="23" height="321" viewBox="0 0 23 321" fill="none" xmlns="http://www.w3.org/2000/svg">
<path d="M4.83 1.57499L20.89 1.57499L20.89 11.299L18.404 11.299L18.404 4.32499L14.444 4.32499L14.444 10.551L12.046 10.551L12.046 4.32499L7.294 4.32499L7.294 11.431L4.83 11.431L4.83 1.57499ZM4.808 18.6324L20.89 12.9564L20.89 16.0364L8.02 20.3264L20.89 24.6604L20.89 27.6744L4.808 21.9324L4.808 18.6324ZM4.83 29.2898L20.89 29.2898L20.89 39.0138L18.404 39.0138L18.404 32.0398L14.444 32.0398L14.444 38.2658L12.046 38.2658L12.046 32.0398L7.294 32.0398L7.294 39.1458L4.83 39.1458L4.83 29.2898ZM4.83 41.8152L20.89 41.8152L20.89 45.1812L9.318 51.2972L20.89 51.2972L20.89 54.0252L4.83 54.0252L4.83 50.7912L16.666 44.5212L4.83 44.5212L4.83 41.8152ZM18.338 63.8047L4.808 63.8047L4.808 60.9887L18.338 60.9887L18.338 56.2807L20.868 56.2807L20.868 68.5347L18.338 68.5347L18.338 63.8047ZM7.03 82.5951C7.03 84.4651 8.658 85.5871 12.31 85.5871L13.322 85.5871C17.084 85.5871 18.69 84.4431 18.69 82.6171C18.69 80.7251 17.084 79.6031 13.432 79.6031L12.398 79.6031C8.746 79.6031 7.03 80.6591 7.03 82.5951ZM4.588 82.5731C4.588 79.3391 6.81 76.6331 12.332 76.6331L13.212 76.6331C19.02 76.6331 21.154 79.5811 21.154 82.6171C21.154 85.6751 18.976 88.5131 13.3 88.5131L12.442 88.5131C6.678 88.5131 4.588 85.6311 4.588 82.5731ZM4.742 93.8659L17.744 93.8659L17.238 91.4019L19.174 91.4019L21.066 95.2739L21.066 96.7259L4.742 96.7259L4.742 93.8659Z" fill="#0075FF"/>
<path d="M16.99 139.524L11.864 137.896L11.864 141.174L16.99 139.524ZM5.308 132.176L21.478 138.072L21.478 141.284L5.308 147.092L5.308 143.374L9.026 142.12L9.026 136.972L5.308 135.828L5.308 132.176ZM5.308 154.892L21.478 154.892L21.478 159.952L9.774 162.768L21.478 165.826L21.478 170.842L5.308 170.842L5.308 167.608L17.21 167.608L5.308 164.484L5.308 161.008L17.144 158.038L5.308 158.038L5.308 154.892ZM8.014 180.423C8.014 182.381 9.818 184.207 12.986 184.207L13.844 184.207C17.122 184.207 18.772 182.469 18.772 180.313C18.772 178.355 17.078 176.551 13.91 176.551L13.074 176.551C9.708 176.551 8.014 178.355 8.014 180.423ZM5.066 180.335C5.066 176.705 7.86 173.185 13.294 173.185L13.646 173.185C18.904 173.185 21.72 176.617 21.72 180.401C21.72 184.075 19.146 187.595 13.668 187.595L13.294 187.595C7.992 187.595 5.066 184.053 5.066 180.335ZM14.042 193.254L14.042 195.058C14.042 196.664 14.812 197.918 16.418 197.918C17.826 197.918 18.64 196.84 18.64 195.058L18.64 193.254L14.042 193.254ZM5.308 189.998L21.478 189.998L21.478 195.454C21.478 199.084 19.586 201.174 16.528 201.174C14.35 201.174 12.656 199.92 11.974 198.358L5.308 202.472L5.308 198.666L11.27 195.41L11.27 193.254L5.308 193.254L5.308 189.998ZM5.308 204.37L21.478 204.37L21.478 214.138L18.53 214.138L18.53 207.648L15.164 207.648L15.164 213.368L12.37 213.368L12.37 207.648L8.234 207.648L8.234 214.292L5.308 214.292L5.308 204.37ZM5.044 230.166C5.044 225.876 8.344 222.598 13.228 222.598L13.932 222.598C19.322 222.598 21.764 226.338 21.764 230.386C21.764 231.948 21.258 233.95 20.554 234.94L17.738 233.972C18.398 233.136 18.772 231.794 18.772 230.628C18.772 228.186 17.276 226.008 14.042 226.008L13.338 226.008C10.412 226.008 8.19 227.944 8.19 230.584C8.19 231.662 8.674 233.554 9.4 234.412L6.496 235.336C5.682 234.346 5.044 232.168 5.044 230.166ZM8.014 244.275C8.014 246.233 9.818 248.059 12.986 248.059L13.844 248.059C17.122 248.059 18.772 246.321 18.772 244.165C18.772 242.207 17.078 240.403 13.91 240.403L13.074 240.403C9.708 240.403 8.014 242.207 8.014 244.275ZM5.066 244.187C5.066 240.557 7.86 237.037 13.294 237.037L13.646 237.037C18.904 237.037 21.72 240.469 21.72 244.253C21.72 247.927 19.146 251.447 13.668 251.447L13.294 251.447C7.99199 251.447 5.06599 247.905 5.066 244.187ZM5.10999 260.164C5.10999 256.336 7.41999 253.828 11.776 253.828L21.478 253.828L21.478 257.128L12.37 257.128C9.09199 257.128 8.18999 258.36 8.18999 260.164C8.18999 261.88 9.06999 262.98 12.348 262.98L21.478 262.98L21.478 266.302L11.908 266.302C7.41999 266.302 5.10999 263.926 5.10999 260.164ZM13.668 272.617L13.668 274.333C13.668 276.313 14.768 277.435 16.242 277.435C17.892 277.435 18.64 276.313 18.64 274.399L18.64 272.617L13.668 272.617ZM5.30799 269.361L21.478 269.361L21.478 274.949C21.478 278.579 19.74 280.735 16.374 280.735C12.81 280.735 10.896 278.293 10.896 275.103L10.896 272.617L5.30799 272.617L5.30799 269.361ZM8.01399 290.058C8.01399 292.016 9.81799 293.842 12.986 293.842L13.844 293.842C17.122 293.842 18.772 292.104 18.772 289.948C18.772 287.99 17.078 286.186 13.91 286.186L13.074 286.186C9.70799 286.186 8.01399 287.99 8.01399 290.058ZM5.06599 289.97C5.06599 286.34 7.85999 282.82 13.294 282.82L13.646 282.82C18.904 282.82 21.72 286.252 21.72 290.036C21.72 293.71 19.146 297.23 13.668 297.23L13.294 297.23C7.99199 297.23 5.06599 293.688 5.06599 289.97ZM5.30799 299.589L21.478 299.589L21.478 303.527L10.742 308.851L21.478 308.851L21.478 312.063L5.30799 312.063L5.30799 308.279L16.286 302.801L5.30799 302.801L5.30799 299.589ZM3.83399 315.083L7.17799 315.083L7.17799 318.625L3.83399 318.625L3.83399 315.083ZM9.92799 315.567L22.006 315.193L22.006 318.625L9.92799 318.229L9.92799 315.567Z" fill="#0E1B92"/>
</svg>
