<svg width="500" height="338" viewBox="0 0 500 338" fill="none" xmlns="http://www.w3.org/2000/svg">
<path d="M0 8C0 3.58172 3.58172 0 8 0H492C496.418 0 500 3.58172 500 8V230H0V8Z" fill="#0E1B92"/>
<path d="M262.751 135.854C260.52 134.455 258.817 132.564 257.623 130.162C256.429 127.778 255.823 124.154 255.823 121.16C255.823 118.166 256.429 114.562 257.623 112.159C258.817 109.776 260.539 107.865 262.751 106.467C264.982 105.068 267.604 104.359 270.657 104.359C273.71 104.359 276.333 105.068 278.583 106.467C280.834 107.865 282.556 109.756 283.75 112.159C284.944 114.542 285.55 118.186 285.55 121.16C285.55 124.134 284.944 127.759 283.75 130.162C282.556 132.564 280.834 134.455 278.583 135.854C276.333 137.252 273.691 137.961 270.657 137.961C267.624 137.961 264.982 137.252 262.751 135.854ZM276.489 131.048C277.8 128.606 278.446 125.001 278.446 121.18C278.446 117.359 277.8 113.735 276.489 111.312C275.178 108.87 272.927 107.649 270.657 107.649C268.387 107.649 266.136 108.87 264.864 111.312C263.573 113.755 262.946 117.359 262.946 121.18C262.946 125.001 263.592 128.625 264.864 131.048C266.156 133.49 268.407 134.692 270.657 134.692C272.908 134.692 275.178 133.47 276.489 131.048Z" fill="white"/>
<path d="M317.116 107.154C315.08 105.322 312.223 104.396 308.544 104.396C304.865 104.396 301.303 105.44 298.954 107.489C298.524 106.622 298.035 105.027 294.023 105.027H290.03V106.819C291.146 107.016 291.909 107.508 292.359 108.296C292.966 109.36 293.259 110.975 293.259 113.181V137.309H300.05V110.305C301.753 108.749 304.199 107.981 306.43 107.981C308.368 107.981 310.384 108.69 311.597 110.089C312.791 111.487 313.397 113.673 313.397 116.648V137.329H320.188V116.175C320.188 111.999 319.171 108.986 317.135 107.154" fill="white"/>
<path d="M212.983 107.451C211.907 105.934 210.165 105.048 207.699 105.048H203.589V106.84C204.705 107.037 205.468 107.53 205.918 108.318C206.525 109.381 206.818 110.996 206.818 113.202V137.33H213.609V110.642C215.312 109.263 217.68 108.003 219.402 108.003C222.827 108.003 225.019 110.898 225.019 116.669V137.35H231.34V116.669C231.34 114.601 231.399 112.966 231.105 111.174C231.869 110.031 234.256 108.003 237.153 108.003C240.577 108.003 242.75 110.898 242.75 116.669V137.35H249.541V116.196C249.541 108.495 246.409 104.438 239.266 104.438C235.372 104.438 232.24 105.777 229.892 108.436C229.148 107.116 226.839 104.438 221.535 104.438C217.778 104.438 214.901 106.092 212.983 107.49" fill="white"/>
<path d="M367.373 135.891C365.22 134.512 363.596 132.621 362.46 130.238C361.325 127.835 360.758 124.191 360.758 121.178C360.758 117.987 361.325 114.245 362.5 111.861C363.654 109.478 365.259 107.627 367.314 106.327C369.369 105.027 371.717 104.396 374.379 104.396C378.528 104.396 381.835 105.598 384.301 108.021C386.767 110.443 388 114.658 388 118.794C388 121 387.804 122.281 387.804 122.281H367.47C367.47 126.161 368.625 129.588 369.995 131.636C371.365 133.685 373.596 134.709 376.121 134.709C380.974 134.709 384.008 131.617 385.24 129.883L386.904 131.183C385.651 133.291 384.086 134.965 382.187 136.167C380.289 137.368 377.902 137.979 375.025 137.979C372.148 137.979 369.525 137.289 367.392 135.911M381.776 119.051C381.776 115.092 381.268 112.196 380.27 110.384C379.271 108.572 377.314 107.193 374.868 107.193C372.422 107.193 370.269 108.631 369.154 110.542C368.038 112.452 367.49 115.289 367.49 119.031H381.796L381.776 119.051Z" fill="white"/>
<path d="M347.352 98.1543C347.352 96.1255 347.058 94.3332 346.452 93.2696C346.002 92.4817 345.219 91.9893 344.123 91.7924V90H348.428C350.053 90 351.149 90.2364 351.971 90.7091C352.792 91.1818 353.36 91.9893 353.712 93.1317C354.045 94.2741 354.221 96.3816 354.221 99.0997V137.31H349.661L347.88 134.395H347.567C346.393 135.676 343.966 137.96 339.191 137.96C335.101 137.96 331.989 136.483 329.778 133.489C327.566 130.515 326.47 125.788 326.47 121.179C326.47 116.57 327.586 111.961 329.836 109.007C332.087 106.052 335.355 104.575 339.641 104.575C342.166 104.575 345.062 105.127 347.371 106.427V98.1543H347.352ZM347.352 109.854C345.16 108.554 342.792 107.904 341.168 107.904C338.682 107.904 336.412 109.086 335.296 111.43C334.181 113.773 333.633 117.161 333.633 121.179C333.633 125.197 334.161 128.782 335.238 131.146C336.314 133.509 338.447 134.356 340.717 134.356C343.79 134.356 346.002 132.268 347.352 130.456V109.854Z" fill="white"/>
<path d="M151.57 93.1115L137.205 126.162C137.205 126.162 123.701 96.1053 123.408 95.4947C123.114 94.8842 122.136 93.0918 117.987 93.0918H111V94.7857C111 94.7857 112.781 95.3175 113.388 96.3811C113.994 97.4447 114.288 98.7643 114.288 100.99V137.448H119.141V101.01L135.306 137.468H137.518L152.959 101.916V137.468H159.378V93.1115H151.55H151.57Z" fill="white"/>
<path d="M198.422 135.261C196.524 134.611 196.094 132.011 196.094 129.155V104.692H194.391C192.708 104.692 190.77 105.362 189.675 106.642C186.817 104.79 183.823 104.396 181.514 104.396C178.48 104.396 175.838 105.106 173.607 106.504C171.376 107.902 169.674 109.793 168.46 112.196C167.266 114.579 166.66 118.223 166.66 121.197C166.66 124.172 167.266 127.796 168.46 130.199C169.654 132.602 171.376 134.492 173.607 135.891C175.838 137.289 178.421 137.998 181.514 137.998C185.349 137.998 188.5 136.876 191.044 134.729C192.454 136.285 194.352 137.348 195.917 137.348H198.422V135.3V135.261ZM187.815 131.046C186.504 133.488 183.784 134.689 181.514 134.689C179.243 134.689 176.523 133.468 175.232 131.046C173.94 128.603 173.314 124.999 173.314 121.178C173.314 117.357 173.959 113.733 175.232 111.31C176.523 108.868 179.243 107.646 181.514 107.646C183.784 107.646 186.504 108.868 187.815 111.31C189.127 113.752 189.772 117.357 189.772 121.178C189.772 124.999 189.127 128.623 187.815 131.046Z" fill="white"/>
<path d="M0 230H500V330C500 334.418 496.418 338 492 338H7.99999C3.58171 338 0 334.418 0 330V230Z" fill="#0075FF"/>
<path d="M173.856 276.692H192.112L192.336 273.388H173.576V270.112H196.424L195.528 283.412H191.664L191.888 279.884H173.856V276.692ZM172.232 288.06V284.616H197.768V288.06H186.988V295.816H183.012V288.06H172.232ZM201.548 270.028H224.452V273.024H201.548V270.028ZM214.904 280.556V283.524H225.768V286.632H200.232V283.524H211.068V280.556H201.268V277.56H205.776L205.132 273.584H208.912L209.528 277.56H216.36L217.004 273.584H220.784L220.112 277.56H224.732V280.556H214.904ZM201.716 288.228H205.608V292.54H224.704V295.536H201.716V288.228ZM260.483 284.784H256.563V269.804H260.483V275.068H263.843V278.456H260.483V284.784ZM251.719 283.776H237.411V270.196H241.247V273.696H247.911V270.196H251.719V283.776ZM241.247 276.748V280.724H247.911V276.748H241.247ZM261.043 295.536H238.587V285.82H260.623V288.956H242.535V292.372H261.043V295.536ZM289.295 295.536H285.319V269.804H289.295V295.536ZM265.131 294.78V291.14C272.551 289.376 277.059 284.028 277.031 274.284H265.271V270.84H280.839V273.724C280.839 286.296 274.595 293.044 265.131 294.78Z" fill="white"/>
<path d="M304.5 291.715C304.098 291.715 303.762 291.579 303.49 291.307C303.218 291.035 303.082 290.699 303.083 290.298C303.083 289.897 303.219 289.56 303.491 289.288C303.763 289.016 304.099 288.881 304.5 288.882H321.5C321.901 288.882 322.238 289.018 322.51 289.29C322.782 289.562 322.917 289.898 322.917 290.298C322.917 290.7 322.781 291.036 322.509 291.308C322.237 291.58 321.9 291.716 321.5 291.715H304.5ZM309.529 285.446C309.34 285.446 309.163 285.416 308.998 285.357C308.833 285.297 308.679 285.197 308.537 285.057L302.517 279.036C302.257 278.776 302.127 278.434 302.127 278.009C302.127 277.584 302.257 277.241 302.517 276.982C302.776 276.722 303.107 276.592 303.508 276.592C303.91 276.592 304.24 276.722 304.5 276.982L309.529 282.011L321.5 270.04C321.76 269.78 322.096 269.65 322.51 269.65C322.924 269.65 323.26 269.78 323.519 270.04C323.778 270.3 323.908 270.636 323.908 271.05C323.908 271.464 323.778 271.8 323.519 272.059L310.521 285.057C310.379 285.198 310.226 285.299 310.06 285.358C309.895 285.418 309.718 285.447 309.529 285.446Z" fill="white"/>
<circle cx="5" cy="231" r="3" fill="#F5F0E2"/>
<circle cx="19" cy="231" r="3" fill="#F5F0E2"/>
<circle cx="33" cy="231" r="3" fill="#F5F0E2"/>
<circle cx="47" cy="231" r="3" fill="#F5F0E2"/>
<circle cx="61" cy="231" r="3" fill="#F5F0E2"/>
<circle cx="75" cy="231" r="3" fill="#F5F0E2"/>
<circle cx="89" cy="231" r="3" fill="#F5F0E2"/>
<circle cx="103" cy="231" r="3" fill="#F5F0E2"/>
<circle cx="117" cy="231" r="3" fill="#F5F0E2"/>
<circle cx="131" cy="231" r="3" fill="#F5F0E2"/>
<circle cx="145" cy="231" r="3" fill="#F5F0E2"/>
<circle cx="159" cy="231" r="3" fill="#F5F0E2"/>
<circle cx="173" cy="231" r="3" fill="#F5F0E2"/>
<circle cx="187" cy="231" r="3" fill="#F5F0E2"/>
<circle cx="201" cy="231" r="3" fill="#F5F0E2"/>
<circle cx="215" cy="231" r="3" fill="#F5F0E2"/>
<circle cx="229" cy="231" r="3" fill="#F5F0E2"/>
<circle cx="243" cy="231" r="3" fill="#F5F0E2"/>
<circle cx="257" cy="231" r="3" fill="#F5F0E2"/>
<circle cx="271" cy="231" r="3" fill="#F5F0E2"/>
<circle cx="285" cy="231" r="3" fill="#F5F0E2"/>
<circle cx="299" cy="231" r="3" fill="#F5F0E2"/>
<circle cx="313" cy="231" r="3" fill="#F5F0E2"/>
<circle cx="327" cy="231" r="3" fill="#F5F0E2"/>
<circle cx="341" cy="231" r="3" fill="#F5F0E2"/>
<circle cx="355" cy="231" r="3" fill="#F5F0E2"/>
<circle cx="369" cy="231" r="3" fill="#F5F0E2"/>
<circle cx="383" cy="231" r="3" fill="#F5F0E2"/>
<circle cx="397" cy="231" r="3" fill="#F5F0E2"/>
<circle cx="411" cy="231" r="3" fill="#F5F0E2"/>
<circle cx="425" cy="231" r="3" fill="#F5F0E2"/>
<circle cx="439" cy="231" r="3" fill="#F5F0E2"/>
<circle cx="453" cy="231" r="3" fill="#F5F0E2"/>
<circle cx="467" cy="231" r="3" fill="#F5F0E2"/>
<circle cx="481" cy="231" r="3" fill="#F5F0E2"/>
<circle cx="495" cy="231" r="3" fill="#F5F0E2"/>
</svg>
