<svg width="532" height="449" viewBox="0 0 532 449" fill="none" xmlns="http://www.w3.org/2000/svg">
<g filter="url(#filter0_b_85_310)">
<path d="M251.301 123.553L110.225 140.566L153.715 276.672L249.18 306.446L382.83 274.546L427.381 129.933L251.301 123.553Z" fill="#A9A9A9"/>
</g>
<g opacity="0.7" filter="url(#filter1_b_85_310)">
<path d="M251.258 123.531L110.183 140.545L153.672 276.651L249.137 306.424L382.788 274.524L427.338 129.911L251.258 123.531Z" stroke="white" stroke-linejoin="round"/>
</g>
<path d="M249.033 306.346L153.564 276.971L271.064 259.137L382.269 274.873L249.033 306.346Z" fill="white" fill-opacity="0.4"/>
<path d="M252.644 201.315C255.537 205.58 254.848 211.233 251.262 214.722C250.487 215.476 250.37 216.679 250.974 217.57L269.547 244.951C270.931 246.991 273.709 247.515 275.755 246.121L404.679 158.285C406.725 156.891 407.261 154.109 405.877 152.069L387.304 124.688C386.7 123.798 385.542 123.463 384.555 123.909C379.999 125.967 374.5 124.531 371.607 120.266C368.713 116.001 369.403 110.347 372.988 106.856C373.762 106.102 373.88 104.898 373.275 104.008L354.702 76.627C353.318 74.5868 350.54 74.0634 348.494 75.4573L219.57 163.293C217.524 164.687 216.988 167.469 218.372 169.509L236.945 196.889C237.55 197.78 238.707 198.115 239.694 197.669C244.251 195.611 249.75 197.047 252.644 201.315Z" fill="#0066FF"/>
<path d="M310.937 136.903L335.435 120.212L340.848 128.191L332.764 133.699L345.025 151.774L353.518 145.987L354.031 157.306L341.334 165.956L323.66 139.901L316.352 144.881L310.939 136.901L310.937 136.903Z" fill="white"/>
<path d="M299.639 166.86C302.253 165.08 303.66 163.108 303.685 160.59L313.116 154.165L327.503 175.375L298.924 194.845L293.512 186.866L312.66 173.821L309.65 169.384C308.464 171.681 306.767 173.671 303.543 175.868C295.256 181.514 286.965 180.733 281.802 173.121C276.638 165.509 278.514 157.801 288.762 150.82C299.009 143.838 306.988 145.128 310.91 150.909L301.48 157.334C300.21 155.463 297.89 156.268 294.174 158.799C290.744 161.136 289.189 163.684 291.232 166.696C293.275 169.708 296.211 169.196 299.642 166.859L299.639 166.86Z" fill="white"/>
<path d="M280.436 181.99C278.51 183.302 276.726 182.617 275.113 180.24C273.5 177.863 273.52 175.946 275.446 174.634C277.372 173.322 279.156 174.006 280.77 176.386C282.384 178.765 282.361 180.678 280.436 181.99ZM272.447 168.426L274.69 185.688L271.535 187.838L269.292 170.576L272.447 168.426ZM278.972 179.832C279.402 179.538 279.394 179.112 278.563 177.886C277.731 176.661 277.339 176.496 276.908 176.79C276.478 177.083 276.486 177.509 277.317 178.735C278.149 179.96 278.541 180.125 278.972 179.832ZM268.538 181.629C266.612 182.941 264.828 182.256 263.214 179.877C261.6 177.497 261.623 175.585 263.548 174.273C265.474 172.961 267.258 173.645 268.871 176.022C270.484 178.4 270.464 180.316 268.538 181.629ZM267.076 179.473C267.506 179.179 267.498 178.753 266.667 177.528C265.835 176.302 265.443 176.138 265.012 176.431C264.582 176.724 264.59 177.15 265.421 178.376C266.253 179.602 266.645 179.766 267.076 179.473Z" fill="white"/>
<path d="M258.614 198.278C263.942 199.411 267.552 204.229 267.369 209.519C267.329 210.661 268.12 211.666 269.233 211.902L303.439 219.173C305.988 219.715 308.49 218.078 309.032 215.515L343.143 54.0082C343.687 51.4457 342.061 48.9309 339.512 48.3892L305.307 41.1182C304.194 40.8816 303.065 41.4749 302.639 42.5385C300.668 47.4486 295.421 50.3838 290.093 49.2512C284.765 48.1186 281.155 43.3008 281.335 38.0101C281.373 36.8637 280.581 35.8623 279.468 35.6257L245.263 28.3547C242.714 27.813 240.211 29.4501 239.67 32.0132L205.559 193.52C205.017 196.083 206.643 198.598 209.192 199.14L243.397 206.411C244.51 206.647 245.639 206.054 246.065 204.99C248.036 200.08 253.283 197.145 258.614 198.278Z" fill="#2E2F3E"/>
<path d="M286.959 104.381C289.908 105.009 291.62 103.45 292.77 98.2459C293.943 92.9413 293.06 90.8304 290.111 90.203L288.687 89.9L291.179 78.0919L292.502 78.3734C302.417 80.4824 305.565 86.976 302.587 101.085C299.847 114.07 293.925 118.204 284.368 116.172C274.811 114.139 271.985 107.874 274.653 94.2347C275.701 89.0094 274.96 86.9832 271.555 86.2589L270.69 86.0749L265.414 111.074L255.447 108.954L263.216 72.1468L274.047 74.4508C284.066 76.5819 286.993 82.5983 284.252 95.5831C283.011 101.461 283.862 103.726 286.964 104.385L286.959 104.381Z" fill="white"/>
<path d="M249.278 133.037C252.138 119.489 261.881 114.617 275.812 117.581C289.743 120.544 296.681 128.965 293.822 142.512C290.963 156.059 281.219 160.931 267.288 157.968C253.357 155.005 246.419 146.584 249.278 133.037ZM283.858 140.392C285.066 134.668 282.053 130.82 273.409 128.981C264.766 127.142 260.457 129.43 259.248 135.158C258.039 140.885 261.054 144.73 269.697 146.569C278.34 148.407 282.649 146.12 283.858 140.392Z" fill="white"/>
<path d="M265.676 163.193C265.167 165.604 263.305 166.389 260.335 165.758C257.365 165.126 255.978 163.65 256.487 161.238C256.996 158.826 258.858 158.041 261.83 158.673C264.803 159.306 266.185 160.781 265.676 163.193ZM249.656 158.701L263.999 170.223L263.165 174.174L248.822 162.651L249.656 158.701ZM262.98 162.619C263.094 162.08 262.775 161.761 261.244 161.435C259.713 161.109 259.294 161.272 259.18 161.811C259.066 162.35 259.384 162.669 260.915 162.995C262.446 163.32 262.866 163.158 262.98 162.619ZM256.335 171.634C255.826 174.045 253.964 174.831 250.992 174.198C248.019 173.566 246.637 172.091 247.146 169.679C247.655 167.267 249.517 166.482 252.487 167.114C255.457 167.746 256.844 169.222 256.335 171.634ZM253.642 171.061C253.756 170.522 253.438 170.203 251.907 169.877C250.376 169.551 249.956 169.713 249.842 170.253C249.728 170.792 250.047 171.111 251.578 171.436C253.109 171.762 253.529 171.6 253.642 171.061Z" fill="white"/>
<path d="M257.882 169.872C261.921 165.329 268.573 164.494 273.586 167.601C274.669 168.273 276.078 168.061 276.921 167.112L302.854 137.94C304.786 135.767 304.587 132.431 302.408 130.486L165.114 7.93421C162.936 5.98933 159.606 6.17447 157.674 8.34793L131.743 37.5176C130.899 38.4666 130.849 39.8904 131.642 40.8933C135.3 45.5255 135.238 52.2435 131.199 56.7871C127.16 61.3308 120.507 62.1657 115.492 59.0604C114.406 58.3869 112.999 58.6031 112.155 59.5521L86.2241 88.7218C84.292 90.8952 84.4918 94.2309 86.6706 96.1758L223.964 218.728C226.143 220.673 229.472 220.487 231.405 218.314L257.335 189.144C258.179 188.195 258.229 186.771 257.436 185.769C253.779 181.136 253.84 174.418 257.882 169.872Z" fill="#0075FF"/>
<path d="M147.638 84.3733L149.066 82.7677L159.107 91.7313L157.604 93.4229C155.636 95.6358 156.563 98.015 161.562 102.477C166.213 106.629 168.594 107.197 170.714 104.812C172.834 102.427 171.871 100.09 166.914 95.6655L161.915 91.2035L169.087 83.1363L174.085 87.5983C179.084 92.0603 181.431 92.7572 183.59 90.3279C185.75 87.8986 184.872 85.6383 180.221 81.4865C175.223 77.0246 172.755 76.3788 170.79 78.5892L169.286 80.2808L159.245 71.3173L160.672 69.7117C166.956 62.6428 175.653 62.1593 187.346 72.5969C199.039 83.0345 200.076 92.0477 193.713 99.2051C191.092 102.153 187.298 104.755 182.894 102.693C185.447 106.838 183.265 110.958 180.682 113.864C174.398 120.933 165.659 121.379 154.008 110.979C142.357 100.579 141.278 91.5283 147.641 84.3708L147.638 84.3733Z" fill="white"/>
<path d="M189.648 142.797C178.128 132.513 178.799 120.355 189.361 108.474C199.922 96.5936 211.897 94.5255 223.418 104.809C234.939 115.093 234.267 127.251 223.706 139.132C213.144 151.012 201.169 153.08 189.648 142.797ZM215.864 113.307C210.996 108.961 205.61 109.754 199.057 117.125C192.504 124.496 192.336 129.947 197.207 134.294C202.077 138.642 207.461 137.847 214.014 130.476C220.566 123.104 220.735 117.654 215.864 113.307Z" fill="white"/>
<path d="M227.85 143.567C229.901 145.398 229.631 147.64 227.38 150.173C225.129 152.705 222.935 153.234 220.884 151.403C218.833 149.573 219.103 147.331 221.356 144.796C223.61 142.261 225.799 141.737 227.85 143.567ZM214.657 156.627L233.722 149.091L237.081 152.09L218.017 159.626L214.657 156.627ZM225.806 145.866C225.348 145.457 224.863 145.589 223.703 146.895C222.542 148.2 222.467 148.698 222.925 149.107C223.384 149.516 223.868 149.384 225.029 148.079C226.189 146.773 226.265 146.276 225.806 145.866ZM230.852 157.312C232.903 159.142 232.634 161.384 230.38 163.919C228.127 166.454 225.937 166.978 223.886 165.148C221.836 163.317 222.105 161.075 224.356 158.542C226.607 156.01 228.801 155.481 230.852 157.312ZM228.811 159.608C228.352 159.199 227.868 159.331 226.707 160.637C225.547 161.942 225.471 162.439 225.93 162.849C226.388 163.258 226.873 163.126 228.033 161.82C229.194 160.515 229.269 160.017 228.811 159.608Z" fill="white"/>
<g filter="url(#filter2_b_85_310)">
<path d="M110.225 140.467L239.202 168.13L248.716 306.445L153.57 276.654L110.225 140.467Z" fill="#DEDEDE" fill-opacity="0.7"/>
</g>
<g filter="url(#filter3_b_85_310)">
<path d="M248.867 306.163L239.298 167.901L427.477 129.613L382.825 274.257L248.867 306.163Z" fill="white" fill-opacity="0.7"/>
</g>
<g filter="url(#filter4_b_85_310)">
<path d="M110.183 140.445L239.159 168.108L248.674 306.423L153.527 276.632L110.183 140.445Z" stroke="white" stroke-linejoin="round"/>
</g>
<g filter="url(#filter5_b_85_310)">
<path d="M248.867 306.163L239.298 167.901L427.477 129.613L382.825 274.257L248.867 306.163Z" stroke="white" stroke-linejoin="round"/>
</g>
<g opacity="0.5" filter="url(#filter6_f_85_310)">
<rect x="36" y="307" width="460" height="106" rx="16" fill="#0075FF"/>
</g>
<rect x="16.5" y="269.5" width="499" height="119" rx="7.5" fill="#0075FF" stroke="#005ECD"/>
<g filter="url(#filter7_d_85_310)">
<path d="M144.86 313.504H168.332C168.368 314.224 168.368 314.98 168.368 315.736C168.368 320.596 167.756 326.104 166.892 329.668H171.968V333.7H159.044V346.084H154.004V333.7H141.152V329.668H162.284C162.608 328.408 162.896 326.716 163.076 324.916L144.176 325.852L143.6 321.532C150.224 321.424 156.812 321.28 163.4 321.136C163.472 320.128 163.508 319.192 163.508 318.292V317.572H144.86V313.504ZM202.133 317.608H177.221V313.648H202.133V317.608ZM201.521 345.22H177.905V335.968H182.981V341.26H201.521V345.22ZM201.773 327.724H192.089V330.244H205.085V334.312H174.269V330.244H187.013V327.724H177.473V323.8H181.829L181.073 319.192L185.861 318.688L186.545 323.8H192.809L193.601 318.724L198.461 319.228L197.381 323.8H201.773V327.724ZM224.028 328.948C224.028 330.352 225.324 331.612 227.232 331.612C229.176 331.612 230.508 330.352 230.508 328.948C230.508 327.58 229.176 326.176 227.232 326.176C225.324 326.176 224.028 327.58 224.028 328.948ZM244.98 345.508H221.508V336.436H226.692V341.476H244.98V345.508ZM244.296 311.956V323.44H248.868V327.58H244.296V337.66H239.256V311.956H244.296ZM222.156 316.636V312.928H232.416V316.636H222.156ZM235.476 328.948C235.476 332.584 232.128 335.356 227.232 335.356C222.336 335.356 218.988 332.584 218.988 328.948C218.988 325.348 222.3 322.504 227.232 322.504C232.128 322.504 235.476 325.348 235.476 328.948ZM237.132 321.928H217.224V318.04H237.132V321.928ZM262.689 327.328V323.044H256.929V327.328H262.689ZM267.801 331.288H251.853V313.9H256.929V319.156H262.689V313.936H267.801V331.288ZM279.609 345.256H255.921V334.384H260.961V341.296H279.609V345.256ZM273.777 324.916H269.493V320.812H273.777V311.956H278.925V336.688H273.777V324.916ZM294.367 326.824C294.367 322.792 293.719 319.12 291.595 319.12C289.543 319.12 288.895 322.792 288.895 326.824C288.895 330.892 289.543 334.492 291.595 334.492C293.719 334.492 294.367 330.892 294.367 326.824ZM312.799 346.084H308.083V311.956H312.799V346.084ZM305.779 344.536H301.099V328.768H298.975C298.579 334.132 296.455 339.352 291.559 339.352C286.087 339.352 284.071 332.8 284.071 326.752C284.071 320.848 286.087 314.404 291.559 314.404C296.311 314.404 298.399 319.192 298.903 324.34H301.099V312.604H305.779V344.536ZM338.906 325.888V322.108H332.606V325.888H338.906ZM344.054 329.884H327.602V313.576H332.606V318.22H338.906V313.576H344.054V329.884ZM354.242 345.688H331.598V332.728H353.918V336.796H336.638V341.692H354.242V345.688ZM358.454 323.944H353.738V331H348.662V311.956H353.738V319.804H358.454V323.944ZM361.907 315.484H378.107C377.819 325.456 373.751 334.096 362.663 340.18L359.819 336.22C367.271 332.728 372.059 326.176 372.743 319.624H361.907V315.484ZM388.403 346.084H383.327V311.956H388.403V346.084Z" fill="white"/>
</g>
<defs>
<filter id="filter0_b_85_310" x="60.2251" y="73.5527" width="417.155" height="282.893" filterUnits="userSpaceOnUse" color-interpolation-filters="sRGB">
<feFlood flood-opacity="0" result="BackgroundImageFix"/>
<feGaussianBlur in="BackgroundImageFix" stdDeviation="25"/>
<feComposite in2="SourceAlpha" operator="in" result="effect1_backgroundBlur_85_310"/>
<feBlend mode="normal" in="SourceGraphic" in2="effect1_backgroundBlur_85_310" result="shape"/>
</filter>
<filter id="filter1_b_85_310" x="59.6826" y="73.0312" width="418.155" height="283.893" filterUnits="userSpaceOnUse" color-interpolation-filters="sRGB">
<feFlood flood-opacity="0" result="BackgroundImageFix"/>
<feGaussianBlur in="BackgroundImageFix" stdDeviation="25"/>
<feComposite in2="SourceAlpha" operator="in" result="effect1_backgroundBlur_85_310"/>
<feBlend mode="normal" in="SourceGraphic" in2="effect1_backgroundBlur_85_310" result="shape"/>
</filter>
<filter id="filter2_b_85_310" x="102.225" y="132.467" width="154.491" height="181.978" filterUnits="userSpaceOnUse" color-interpolation-filters="sRGB">
<feFlood flood-opacity="0" result="BackgroundImageFix"/>
<feGaussianBlur in="BackgroundImageFix" stdDeviation="4"/>
<feComposite in2="SourceAlpha" operator="in" result="effect1_backgroundBlur_85_310"/>
<feBlend mode="normal" in="SourceGraphic" in2="effect1_backgroundBlur_85_310" result="shape"/>
</filter>
<filter id="filter3_b_85_310" x="231.298" y="121.613" width="204.179" height="192.55" filterUnits="userSpaceOnUse" color-interpolation-filters="sRGB">
<feFlood flood-opacity="0" result="BackgroundImageFix"/>
<feGaussianBlur in="BackgroundImageFix" stdDeviation="4"/>
<feComposite in2="SourceAlpha" operator="in" result="effect1_backgroundBlur_85_310"/>
<feBlend mode="normal" in="SourceGraphic" in2="effect1_backgroundBlur_85_310" result="shape"/>
</filter>
<filter id="filter4_b_85_310" x="101.683" y="131.945" width="155.491" height="182.978" filterUnits="userSpaceOnUse" color-interpolation-filters="sRGB">
<feFlood flood-opacity="0" result="BackgroundImageFix"/>
<feGaussianBlur in="BackgroundImageFix" stdDeviation="4"/>
<feComposite in2="SourceAlpha" operator="in" result="effect1_backgroundBlur_85_310"/>
<feBlend mode="normal" in="SourceGraphic" in2="effect1_backgroundBlur_85_310" result="shape"/>
</filter>
<filter id="filter5_b_85_310" x="230.798" y="121.113" width="205.179" height="193.55" filterUnits="userSpaceOnUse" color-interpolation-filters="sRGB">
<feFlood flood-opacity="0" result="BackgroundImageFix"/>
<feGaussianBlur in="BackgroundImageFix" stdDeviation="4"/>
<feComposite in2="SourceAlpha" operator="in" result="effect1_backgroundBlur_85_310"/>
<feBlend mode="normal" in="SourceGraphic" in2="effect1_backgroundBlur_85_310" result="shape"/>
</filter>
<filter id="filter6_f_85_310" x="0" y="271" width="532" height="178" filterUnits="userSpaceOnUse" color-interpolation-filters="sRGB">
<feFlood flood-opacity="0" result="BackgroundImageFix"/>
<feBlend mode="normal" in="SourceGraphic" in2="BackgroundImageFix" result="shape"/>
<feGaussianBlur stdDeviation="18" result="effect1_foregroundBlur_85_310"/>
</filter>
<filter id="filter7_d_85_310" x="139.152" y="311.956" width="251.251" height="38.1279" filterUnits="userSpaceOnUse" color-interpolation-filters="sRGB">
<feFlood flood-opacity="0" result="BackgroundImageFix"/>
<feColorMatrix in="SourceAlpha" type="matrix" values="0 0 0 0 0 0 0 0 0 0 0 0 0 0 0 0 0 0 127 0" result="hardAlpha"/>
<feOffset dy="2"/>
<feGaussianBlur stdDeviation="1"/>
<feComposite in2="hardAlpha" operator="out"/>
<feColorMatrix type="matrix" values="0 0 0 0 0 0 0 0 0 0 0 0 0 0 0 0 0 0 0.2 0"/>
<feBlend mode="normal" in2="BackgroundImageFix" result="effect1_dropShadow_85_310"/>
<feBlend mode="normal" in="SourceGraphic" in2="effect1_dropShadow_85_310" result="shape"/>
</filter>
</defs>
</svg>
