<svg width="338" height="214" viewBox="0 0 338 214" fill="none" xmlns="http://www.w3.org/2000/svg">
<path d="M13.056 46.912C8.072 46.912 2.864 45.568 0.512 44.056L1.8 38.12C3.816 39.352 8.408 40.36 11.544 40.36C16.584 40.36 19.272 38.288 19.272 33.976C19.272 29.888 16.528 28.376 11.712 28.264L7.232 28.152V22.272L11.208 22.16C15.688 21.992 18.432 20.088 18.432 16.504C18.432 12.752 16.024 11.352 11.768 11.352C8.856 11.352 5.44 12.248 3.032 13.256L2.136 7.152C4.768 5.752 9.864 4.8 14.064 4.8C21.792 4.8 26.776 8.328 26.776 14.992C26.776 19.864 24.032 23.056 19.552 24.624C24.648 25.576 28.12 28.544 28.12 34.592C28.12 42.264 22.52 46.912 13.056 46.912ZM47.2895 40.696C52.4415 40.696 54.9615 36.944 54.9615 27.424V24.848C54.9615 15.384 52.3855 11.128 47.3455 11.128C42.1935 11.128 39.7295 15.16 39.7295 24.456V27.032C39.7295 36.272 42.0815 40.696 47.2895 40.696ZM47.2335 47.024C38.1055 47.024 30.8815 41.312 30.8815 27.2V25.072C30.8815 10.232 38.7775 4.8 47.4015 4.8C56.1375 4.8 63.6975 10.344 63.6975 24.848V26.976C63.6975 41.648 56.0255 47.024 47.2335 47.024ZM105.156 42.208C107.788 42.208 109.02 40.472 109.02 35.936V34.592C109.02 30.112 107.676 28.208 105.156 28.208C102.468 28.208 101.236 30.056 101.236 34.536V35.88C101.236 40.36 102.412 42.208 105.156 42.208ZM105.044 46.744C98.8843 46.744 94.6843 42.824 94.6843 35.824V34.984C94.6843 27.928 98.9963 23.728 105.156 23.728C111.204 23.728 115.516 27.592 115.516 34.592V35.488C115.516 42.488 111.26 46.744 105.044 46.744ZM76.4283 23.168C79.1723 23.168 80.3483 21.544 80.3483 16.896V15.664C80.3483 11.128 79.0603 9.28 76.4283 9.28C73.9083 9.28 72.6203 11.072 72.6203 15.608V16.84C72.6203 21.488 73.8523 23.168 76.4283 23.168ZM76.4283 27.816C70.2683 27.816 66.0683 23.952 66.0683 16.84V16.056C66.0683 8.888 70.3243 4.744 76.4283 4.744C82.4763 4.744 87.0123 8.664 87.0123 15.664V16.504C87.0123 23.616 82.5883 27.816 76.4283 27.816ZM73.6283 48.536L101.348 4.296H107.34L79.6763 48.536H73.6283ZM139.847 23.112C139.847 24.848 141.863 26.08 144.775 26.08C147.743 26.08 149.815 24.848 149.815 23.112C149.815 21.32 147.743 20.088 144.775 20.088C141.863 20.088 139.847 21.32 139.847 23.112ZM157.599 23.112C157.599 27.704 152.335 31.512 144.775 31.512C137.159 31.512 131.951 27.704 131.951 23.112C131.951 18.464 137.103 14.768 144.775 14.768C152.335 14.768 157.599 18.464 157.599 23.112ZM172.047 53.576H135.815V41.088H163.143V39.072H135.815V33.36H171.039V46.072H143.711V47.752H172.047V53.576ZM178.207 21.04H171.039V31.344H163.199V0.375998H171.039V14.544H178.207V21.04ZM136.991 5.976V0.599998H152.671V5.976H136.991ZM160.063 13.984H129.207V8.216H160.063V13.984ZM187.106 17.68C187.106 21.656 190.13 24.12 194.05 24.12C197.97 24.12 201.106 21.656 201.106 17.68C201.106 13.592 197.97 11.072 194.05 11.072C190.13 11.072 187.106 13.592 187.106 17.68ZM179.378 17.68C179.378 9.84 185.818 4.576 194.05 4.576C202.282 4.576 208.778 9.84 208.778 17.68C208.778 25.408 202.282 30.728 194.05 30.728C185.818 30.728 179.378 25.408 179.378 17.68ZM223.17 52.176H185.93V34.928H193.882V46.016H223.17V52.176ZM222.106 38.904H214.154V0.375998H222.106V38.904ZM283.157 10.736H243.845V4.52H283.157V10.736ZM287.581 46.856H239.645V40.696H259.693V31.176H243.957V25.016H251.461L249.781 13.536L257.565 12.808L258.629 25.016H268.653L269.829 12.864L277.669 13.704L275.653 25.016H282.989V31.176H267.533V40.696H287.581V46.856ZM298.665 25.072C298.665 27.088 300.681 28.6 303.649 28.6C306.561 28.6 308.633 27.088 308.633 25.072C308.633 23.112 306.561 21.544 303.649 21.544C300.681 21.544 298.665 23.112 298.665 25.072ZM316.417 25.072C316.417 30.168 311.209 34.144 303.649 34.144C295.977 34.144 290.769 30.168 290.769 25.072C290.769 20.144 295.921 16.112 303.649 16.112C311.209 16.112 316.417 20.144 316.417 25.072ZM295.977 7.04V1.048H311.937V7.04H295.977ZM318.993 15.048H288.025V9H318.993V15.048ZM322.185 46.912V42.096H302.753V46.912H322.185ZM330.081 53.016H294.801V36.104H330.081V53.016ZM337.137 22.16H330.081V33.976H322.241V0.375998H330.081V15.72H337.137V22.16ZM17.032 113.64V92.416H9.92V113.64H17.032ZM24.48 86.48V119.576H2.64V86.48H24.48ZM46.04 133.464H38.592V107.144H35.232V131.112H27.784V81.216H35.232V100.928H38.592V80.376H46.04V133.464ZM58.6916 94.544C58.6916 98.296 61.5476 100.648 65.3556 100.648C69.1636 100.648 72.1316 98.352 72.1316 94.544C72.1316 90.792 69.1636 88.44 65.3556 88.44C61.4916 88.44 58.6916 90.792 58.6916 94.544ZM50.9636 94.544C50.9636 87.208 57.2356 82.224 65.3556 82.224C73.5316 82.224 79.8596 87.264 79.8596 94.544C79.8596 101.824 73.5316 106.92 65.3556 106.92C57.1236 106.92 50.9636 101.768 50.9636 94.544ZM93.5796 107.48H85.6276V80.376H93.5796V107.48ZM95.0916 133.072H58.0196V118.288H85.6276V115.712H58.1316V109.552H93.5796V123.944H65.9716V126.856H95.0916V133.072ZM135.199 93.088L130.607 99.472C128.647 98.688 125.399 96.168 124.335 93.816C123.159 96.952 118.903 100.704 115.543 101.656L111.567 95.216C117.279 93.032 120.751 89.28 120.751 83.904V81.496H128.367V83.904C128.367 88.496 131.055 91.24 135.199 93.088ZM153.567 132.792H117.223V115.376H153.063V121.648H125.063V126.632H153.567V132.792ZM159.167 94.264L155.415 100.704C151.943 99.696 147.855 96.784 146.623 93.816C145.223 96.784 141.415 99.36 138.839 100.368V105.688H159.055V112.016H111.119V105.688H130.999V99.584H137.831L134.751 94.376C140.519 92.696 142.927 88.608 142.927 83.68V81.496H150.487V83.68C150.487 89 153.511 92.864 159.167 94.264ZM180.554 102.944C180.554 94.88 177.81 90.736 174.002 90.736C170.362 90.736 167.618 94.88 167.618 102.944C167.618 110.952 170.362 115.096 174.002 115.096C177.81 115.096 180.554 110.952 180.554 102.944ZM160.002 102.944C160.002 91.856 165.322 83.792 174.002 83.792C182.794 83.792 188.002 91.8 188.002 102.944C188.002 113.864 182.794 121.984 174.002 121.984C165.322 121.984 160.002 113.92 160.002 102.944ZM201.554 80.376V100.424H208.946V106.864H201.554V133.464H193.658V80.376H201.554ZM252.678 133.464H244.67V80.376H252.678V133.464ZM241.534 114.872L237.166 121.088C232.91 118.568 226.694 112.296 225.014 107.088C223.446 112.856 217.566 119.744 212.638 122.376L207.99 116.328C216.95 111.064 220.758 103.28 220.814 91.856H210.622V85.304H239.182V91.856H228.99C229.102 103.112 233.358 110.448 241.534 114.872ZM299.657 132.064H263.145V116.328H271.097V125.904H299.657V132.064ZM299.433 101.488H263.593V82.112H271.545V95.328H299.433V101.488ZM305.201 112.296H257.265V106.024H305.201V112.296ZM4.6 206.296L19.104 171.968H1.296V165.472H28.232V170.344L13.896 206.296H4.6ZM63.8239 203.44C63.8239 201.256 59.6239 199.632 53.2399 199.632C46.9679 199.632 42.7679 201.256 42.7679 203.44C42.7679 205.4 46.9679 207.08 53.2399 207.08C59.6239 207.08 63.8239 205.4 63.8239 203.44ZM77.2639 191.68H29.3279V185.52H49.3199V179.64H57.2159V185.52H77.2639V191.68ZM75.3599 176.672L72.2799 182.832C65.2239 182.44 56.5999 178.8 53.2959 173.312C50.4959 178.968 41.9279 182.44 34.2559 182.832L31.1759 176.784C39.4079 176.448 46.2399 172.864 48.1999 168.384H34.0879V162.168H72.7839V168.384H58.3359C60.6319 172.92 68.5839 176.616 75.3599 176.672ZM71.9999 203.328C71.9999 209.152 64.9999 213.072 53.3519 213.072C41.5359 213.072 34.5919 209.152 34.5919 203.328C34.5919 197.336 41.5359 193.584 53.2399 193.584C64.9999 193.584 71.9999 197.336 71.9999 203.328ZM96.7069 162.784H133.219C133.275 163.904 133.275 165.08 133.275 166.256C133.275 173.816 132.323 182.384 130.979 187.928H138.875V194.2H118.771V213.464H110.931V194.2H90.9389V187.928H123.811C124.315 185.968 124.763 183.336 125.043 180.536L95.6429 181.992L94.7469 175.272C105.051 175.104 115.299 174.88 125.547 174.656C125.659 173.088 125.715 171.632 125.715 170.232V169.112H96.7069V162.784ZM182.999 169.168H144.247V163.008H182.999V169.168ZM182.047 212.12H145.311V197.728H153.207V205.96H182.047V212.12ZM182.439 184.904H167.375V188.824H187.591V195.152H139.655V188.824H159.479V184.904H144.639V178.8H151.415L150.239 171.632L157.687 170.848L158.751 178.8H168.495L169.727 170.904L177.287 171.688L175.607 178.8H182.439V184.904ZM233.618 193.696H226.114V180.312H223.09V193.304H215.866V161.328H223.09V173.536H226.114V160.376H233.618V193.696ZM196.378 195.656H233.618V213.52H225.778V201.872H196.378V195.656ZM213.57 184.96L214.074 190.896C204.778 191.904 196.994 192.352 190.106 192.352H188.594L187.754 186.08H192.626L191.45 174.488L198.618 173.704C198.674 177.792 198.674 181.88 198.786 185.968C199.962 185.968 201.194 185.912 202.37 185.856L203.042 173.704L210.098 174.432L208.754 185.52C210.49 185.352 212.114 185.184 213.57 184.96ZM212.842 171.52H188.986V165.416H212.842V171.52Z" fill="#0E1B92"/>
</svg>
