<svg width="500" height="338" viewBox="0 0 500 338" fill="none" xmlns="http://www.w3.org/2000/svg">
<path d="M0 8C0 3.58172 3.58172 0 8 0H492C496.418 0 500 3.58172 500 8V230H0V8Z" fill="#0E1B92"/>
<path d="M0 230H500V330C500 334.418 496.418 338 492 338H7.99999C3.58171 338 0 334.418 0 330V230Z" fill="#0075FF"/>
<path d="M135.405 105.142C135.405 97.2576 141.963 94.4316 149.24 94.4316C150.444 94.4316 152.762 94.5756 153.966 94.7196C153.93 95.2596 153.427 96.6456 151.684 96.5916C148.037 96.4296 139.664 95.8356 139.664 103.306C139.664 106.852 142.592 109.354 144.838 110.794L149.707 113.872C153.553 116.248 157.326 119.794 157.326 125.572C157.326 132.286 152.259 136.876 144.353 136.876C139.232 136.876 135.351 134.554 133.968 132.304C131.776 128.812 133.77 125.716 135.387 124.42C136.358 129.424 139.61 134.986 145.162 134.986C150.282 134.986 152.78 131.62 152.78 127.966C152.78 125.266 152.241 122.296 147.785 119.434L141.999 115.654C138.945 113.638 135.423 110.164 135.423 105.16" fill="white"/>
<path d="M195.184 92C193.009 92.612 190.296 95.258 190.296 99.776V135.992H194.788V105.554C194.788 99.02 194.806 95.384 195.166 92" fill="white"/>
<path d="M179.014 127.945C179.014 132.697 175.115 133.723 172.797 133.723C168.646 133.723 167.191 131.851 167.191 127.639V110.629C164.981 111.223 162.645 114.049 162.681 117.019V129.115C162.681 133.201 165.412 136.675 170.174 136.675C173.102 136.675 176.444 135.451 178.762 133.561C179.373 133.057 183.505 129.781 183.505 122.653V111.295V110.647C181.295 111.241 178.96 114.067 178.996 117.037V127.963L179.014 127.945Z" fill="white"/>
<path d="M246.497 117.074C246.497 116.696 246.551 116.426 246.659 116.228C246.659 116.228 246.964 115.868 247.396 115.544C248.6 114.77 250.432 113.78 252.499 113.78C256.397 113.78 258.284 116.408 258.284 120.314V136.046H262.704L262.776 118.838C262.776 114.572 260.71 110.99 254.924 110.99C251.798 110.99 248.761 112.826 246.569 114.41C246.479 114.464 246.461 114.23 246.461 114.068V101.882C246.461 97.544 246.551 94.682 246.839 92C245.707 92.306 244.395 93.206 243.425 94.628C242.544 95.798 241.934 97.256 241.934 98.75V136.028H246.461V117.074H246.497Z" fill="white"/>
<path d="M311.452 124.166C311.452 131.798 316.932 136.748 323.939 136.748C331.557 136.748 336.804 131.258 336.804 123.626C336.804 115.994 331.27 111.008 324.442 111.008C317.255 111.008 311.47 116.498 311.47 124.166M316.716 123.374C316.716 116.66 319.699 112.322 323.706 112.322C329.509 112.322 331.575 119.414 331.575 124.598C331.575 129.296 329.922 135.398 324.568 135.398C319.214 135.398 316.716 128.918 316.716 123.374Z" fill="white"/>
<path d="M340.684 124.166C340.684 131.798 346.164 136.748 353.171 136.748C360.772 136.748 366 131.258 366 123.626C366 115.994 360.466 111.008 353.639 111.008C346.452 111.008 340.666 116.498 340.666 124.166M345.913 123.374C345.913 116.66 348.895 112.322 352.902 112.322C358.687 112.322 360.772 119.414 360.772 124.598C360.772 129.296 359.119 135.398 353.764 135.398C348.41 135.398 345.913 128.918 345.913 123.374Z" fill="white"/>
<path d="M293.305 117.938C293.305 112.016 298.425 110.936 302.899 110.936C303.528 110.936 305.469 111.08 306.062 111.116C306.062 111.8 305.397 112.88 304.175 112.88C302.163 112.88 297.168 111.89 297.168 116.48C297.168 118.982 299.737 120.314 301.857 121.538C305.091 123.374 308.092 125.444 308.092 129.782C308.092 134.408 303.816 136.73 299.324 136.73C296.449 136.73 294.023 135.956 292.927 134.336C291.688 132.464 292.694 130.772 293.556 129.746C294.401 132.986 296.485 134.966 299.917 134.966C302.127 134.966 304.013 133.688 304.013 131.078C304.013 128.252 301.57 126.74 299.324 125.462C295.784 123.446 293.287 121.304 293.287 117.956" fill="white"/>
<path d="M270.63 116.444H274.888C274.888 116.444 275.319 113.528 277.691 112.862C281.464 112.016 282.434 115.904 282.434 119V121.538C281.159 122.438 279.883 122.798 276.253 123.392C270.845 124.238 268.527 126.398 268.527 130.646C268.527 134.588 271.079 137 275.229 137C277.906 137 280.296 135.812 282.434 133.472V136.244H286.872V118.352C286.872 112.142 281.931 111.242 279.631 111.242C276.9 111.242 272.157 112.322 270.63 116.462M272.516 130.178C272.516 127.964 273.307 126.56 274.978 125.66C275.714 125.3 276.397 125.102 280.26 124.148C281.985 123.752 282.237 123.698 282.434 123.644V128.126C282.434 131.51 280.44 134.822 276.9 134.822C274.331 134.822 272.498 132.86 272.498 130.178" fill="white"/>
<path d="M236.887 111.836C235.773 111.62 233.599 112.088 232.143 115.832L226.879 129.314L220.824 111.746H217.697L211.948 129.368L205.012 111.854H200.143L209.953 136.388H211.247L218.29 117.038L225.136 136.388H226.573L233.581 118.91C234.82 115.814 236.078 112.88 236.887 111.836Z" fill="white"/>
<path d="M173.856 276.692H192.112L192.336 273.388H173.576V270.112H196.424L195.528 283.412H191.664L191.888 279.884H173.856V276.692ZM172.232 288.06V284.616H197.768V288.06H186.988V295.816H183.012V288.06H172.232ZM201.548 270.028H224.452V273.024H201.548V270.028ZM214.904 280.556V283.524H225.768V286.632H200.232V283.524H211.068V280.556H201.268V277.56H205.776L205.132 273.584H208.912L209.528 277.56H216.36L217.004 273.584H220.784L220.112 277.56H224.732V280.556H214.904ZM201.716 288.228H205.608V292.54H224.704V295.536H201.716V288.228ZM260.483 284.784H256.563V269.804H260.483V275.068H263.843V278.456H260.483V284.784ZM251.719 283.776H237.411V270.196H241.247V273.696H247.911V270.196H251.719V283.776ZM241.247 276.748V280.724H247.911V276.748H241.247ZM261.043 295.536H238.587V285.82H260.623V288.956H242.535V292.372H261.043V295.536ZM289.295 295.536H285.319V269.804H289.295V295.536ZM265.131 294.78V291.14C272.551 289.376 277.059 284.028 277.031 274.284H265.271V270.84H280.839V273.724C280.839 286.296 274.595 293.044 265.131 294.78Z" fill="white"/>
<path d="M304.5 291.715C304.098 291.715 303.762 291.579 303.49 291.307C303.218 291.035 303.082 290.699 303.083 290.298C303.083 289.897 303.219 289.56 303.491 289.288C303.763 289.016 304.099 288.881 304.5 288.882H321.5C321.901 288.882 322.238 289.018 322.51 289.29C322.782 289.562 322.917 289.898 322.917 290.298C322.917 290.7 322.781 291.036 322.509 291.308C322.237 291.58 321.9 291.716 321.5 291.715H304.5ZM309.529 285.446C309.34 285.446 309.163 285.416 308.998 285.357C308.833 285.297 308.679 285.197 308.537 285.057L302.517 279.036C302.257 278.776 302.127 278.434 302.127 278.009C302.127 277.584 302.257 277.241 302.517 276.982C302.776 276.722 303.107 276.592 303.508 276.592C303.91 276.592 304.24 276.722 304.5 276.982L309.529 282.011L321.5 270.04C321.76 269.78 322.096 269.65 322.51 269.65C322.924 269.65 323.26 269.78 323.519 270.04C323.778 270.3 323.908 270.636 323.908 271.05C323.908 271.464 323.778 271.8 323.519 272.059L310.521 285.057C310.379 285.198 310.226 285.299 310.06 285.358C309.895 285.418 309.718 285.447 309.529 285.446Z" fill="white"/>
<circle cx="5" cy="231" r="3" fill="#F5F0E2"/>
<circle cx="19" cy="231" r="3" fill="#F5F0E2"/>
<circle cx="33" cy="231" r="3" fill="#F5F0E2"/>
<circle cx="47" cy="231" r="3" fill="#F5F0E2"/>
<circle cx="61" cy="231" r="3" fill="#F5F0E2"/>
<circle cx="75" cy="231" r="3" fill="#F5F0E2"/>
<circle cx="89" cy="231" r="3" fill="#F5F0E2"/>
<circle cx="103" cy="231" r="3" fill="#F5F0E2"/>
<circle cx="117" cy="231" r="3" fill="#F5F0E2"/>
<circle cx="131" cy="231" r="3" fill="#F5F0E2"/>
<circle cx="145" cy="231" r="3" fill="#F5F0E2"/>
<circle cx="159" cy="231" r="3" fill="#F5F0E2"/>
<circle cx="173" cy="231" r="3" fill="#F5F0E2"/>
<circle cx="187" cy="231" r="3" fill="#F5F0E2"/>
<circle cx="201" cy="231" r="3" fill="#F5F0E2"/>
<circle cx="215" cy="231" r="3" fill="#F5F0E2"/>
<circle cx="229" cy="231" r="3" fill="#F5F0E2"/>
<circle cx="243" cy="231" r="3" fill="#F5F0E2"/>
<circle cx="257" cy="231" r="3" fill="#F5F0E2"/>
<circle cx="271" cy="231" r="3" fill="#F5F0E2"/>
<circle cx="285" cy="231" r="3" fill="#F5F0E2"/>
<circle cx="299" cy="231" r="3" fill="#F5F0E2"/>
<circle cx="313" cy="231" r="3" fill="#F5F0E2"/>
<circle cx="327" cy="231" r="3" fill="#F5F0E2"/>
<circle cx="341" cy="231" r="3" fill="#F5F0E2"/>
<circle cx="355" cy="231" r="3" fill="#F5F0E2"/>
<circle cx="369" cy="231" r="3" fill="#F5F0E2"/>
<circle cx="383" cy="231" r="3" fill="#F5F0E2"/>
<circle cx="397" cy="231" r="3" fill="#F5F0E2"/>
<circle cx="411" cy="231" r="3" fill="#F5F0E2"/>
<circle cx="425" cy="231" r="3" fill="#F5F0E2"/>
<circle cx="439" cy="231" r="3" fill="#F5F0E2"/>
<circle cx="453" cy="231" r="3" fill="#F5F0E2"/>
<circle cx="467" cy="231" r="3" fill="#F5F0E2"/>
<circle cx="481" cy="231" r="3" fill="#F5F0E2"/>
<circle cx="495" cy="231" r="3" fill="#F5F0E2"/>
</svg>
