<svg width="500" height="338" viewBox="0 0 500 338" fill="none" xmlns="http://www.w3.org/2000/svg">
<path d="M0 8C0 3.58172 3.58172 0 8 0H492C496.418 0 500 3.58172 500 8V230H0V8Z" fill="#0E1B92"/>
<path d="M289.338 94.6387H284.7V133.034H289.338V94.6387Z" fill="white"/>
<path d="M152.331 128.889C152.331 128.889 151.762 130.141 150.958 131.302C150.152 132.463 149.612 133.072 147.979 133.072C146.346 133.072 129 133.072 129 133.072V96.3958C129 95.4673 129.755 94.7148 130.684 94.7148H133.644V128.858L152.333 128.889H152.331Z" fill="white"/>
<path d="M204.915 94.6992V133.067H209.525V105.887C209.525 105.887 230.086 132.245 230.137 132.314C230.188 132.383 230.736 133.041 231.903 133.041H232.413V94.7094H227.92V123.259L205.813 94.3855C205.514 94.0131 204.912 94.2248 204.912 94.6992H204.915Z" fill="white"/>
<path d="M177.069 104.109C177.069 104.109 188.471 131.376 188.724 131.983C188.978 132.59 189.62 133.031 190.286 133.031C190.951 133.031 193.652 133.031 193.652 133.031L177.568 94.5282C177.384 94.0844 176.754 94.0844 176.572 94.5282L160.486 133.031H163.853C164.518 133.031 165.161 132.59 165.414 131.983C165.667 131.376 177.069 104.109 177.069 104.109Z" fill="white"/>
<path d="M246.298 94.7148H270.762C270.762 94.7148 270.194 95.9672 269.39 97.1278C268.586 98.2884 268.044 98.898 266.41 98.898C264.777 98.898 250.921 98.898 250.921 98.898V111.567H268.415V115.154H250.921V128.889C250.921 128.889 264.698 128.889 266.331 128.889C267.964 128.889 268.504 129.499 269.311 130.659C270.117 131.82 270.683 133.072 270.683 133.072H246.218V94.7148H270.762" fill="white"/>
<path d="M333.265 104.323C332.607 101.667 330.905 99.109 328.719 97.3134C326.039 95.1147 322.68 94 318.733 94C313.859 94 309.891 95.8493 306.94 99.4942C304.003 103.121 302.516 107.998 302.516 113.987C302.516 119.976 303.991 124.942 306.901 128.544C309.827 132.166 313.808 134 318.73 134C323.287 134 327.004 132.544 329.776 129.671C332.543 126.802 333.949 123.086 333.949 118.265V113.283C333.949 113.283 325.314 113.283 323.717 113.283C322.12 113.283 321.569 113.913 320.737 115.053C319.933 116.155 319.37 116.908 319.37 116.908H329.341V118.265C329.341 121.787 328.396 124.478 326.456 126.491C324.562 128.455 322.032 129.409 318.73 129.409C315.221 129.409 312.525 128.184 310.49 125.664C308.255 122.899 307.124 118.971 307.124 113.987C307.124 109.003 308.268 105.167 310.526 102.376C312.587 99.8283 315.272 98.5913 318.733 98.5913C321.623 98.5913 323.932 99.3335 325.79 100.859C326.581 101.507 327.608 102.92 327.756 103.111C328.353 103.864 329.006 104.325 329.896 104.325H333.265V104.323Z" fill="white"/>
<path d="M346.536 94.7148H371.001C371.001 94.7148 370.433 95.9672 369.629 97.1278C368.825 98.2884 368.282 98.898 366.649 98.898C365.016 98.898 351.159 98.898 351.159 98.898V111.567H368.654V115.154H351.159V128.889C351.159 128.889 364.937 128.889 366.57 128.889C368.203 128.889 368.743 129.499 369.55 130.659C370.356 131.82 370.922 133.072 370.922 133.072H346.457V94.7148H371.001" fill="white"/>
<path d="M0 230H500V330C500 334.418 496.418 338 492 338H7.99999C3.58171 338 0 334.418 0 330V230Z" fill="#0075FF"/>
<path d="M173.856 276.692H192.112L192.336 273.388H173.576V270.112H196.424L195.528 283.412H191.664L191.888 279.884H173.856V276.692ZM172.232 288.06V284.616H197.768V288.06H186.988V295.816H183.012V288.06H172.232ZM201.548 270.028H224.452V273.024H201.548V270.028ZM214.904 280.556V283.524H225.768V286.632H200.232V283.524H211.068V280.556H201.268V277.56H205.776L205.132 273.584H208.912L209.528 277.56H216.36L217.004 273.584H220.784L220.112 277.56H224.732V280.556H214.904ZM201.716 288.228H205.608V292.54H224.704V295.536H201.716V288.228ZM260.483 284.784H256.563V269.804H260.483V275.068H263.843V278.456H260.483V284.784ZM251.719 283.776H237.411V270.196H241.247V273.696H247.911V270.196H251.719V283.776ZM241.247 276.748V280.724H247.911V276.748H241.247ZM261.043 295.536H238.587V285.82H260.623V288.956H242.535V292.372H261.043V295.536ZM289.295 295.536H285.319V269.804H289.295V295.536ZM265.131 294.78V291.14C272.551 289.376 277.059 284.028 277.031 274.284H265.271V270.84H280.839V273.724C280.839 286.296 274.595 293.044 265.131 294.78Z" fill="white"/>
<path d="M304.5 291.715C304.098 291.715 303.762 291.579 303.49 291.307C303.218 291.035 303.082 290.699 303.083 290.298C303.083 289.897 303.219 289.56 303.491 289.288C303.763 289.016 304.099 288.881 304.5 288.882H321.5C321.901 288.882 322.238 289.018 322.51 289.29C322.782 289.562 322.917 289.898 322.917 290.298C322.917 290.7 322.781 291.036 322.509 291.308C322.237 291.58 321.9 291.716 321.5 291.715H304.5ZM309.529 285.446C309.34 285.446 309.163 285.416 308.998 285.357C308.833 285.297 308.679 285.197 308.537 285.057L302.517 279.036C302.257 278.776 302.127 278.434 302.127 278.009C302.127 277.584 302.257 277.241 302.517 276.982C302.776 276.722 303.107 276.592 303.508 276.592C303.91 276.592 304.24 276.722 304.5 276.982L309.529 282.011L321.5 270.04C321.76 269.78 322.096 269.65 322.51 269.65C322.924 269.65 323.26 269.78 323.519 270.04C323.778 270.3 323.908 270.636 323.908 271.05C323.908 271.464 323.778 271.8 323.519 272.059L310.521 285.057C310.379 285.198 310.226 285.299 310.06 285.358C309.895 285.418 309.718 285.447 309.529 285.446Z" fill="white"/>
<circle cx="5" cy="231" r="3" fill="#F5F0E2"/>
<circle cx="19" cy="231" r="3" fill="#F5F0E2"/>
<circle cx="33" cy="231" r="3" fill="#F5F0E2"/>
<circle cx="47" cy="231" r="3" fill="#F5F0E2"/>
<circle cx="61" cy="231" r="3" fill="#F5F0E2"/>
<circle cx="75" cy="231" r="3" fill="#F5F0E2"/>
<circle cx="89" cy="231" r="3" fill="#F5F0E2"/>
<circle cx="103" cy="231" r="3" fill="#F5F0E2"/>
<circle cx="117" cy="231" r="3" fill="#F5F0E2"/>
<circle cx="131" cy="231" r="3" fill="#F5F0E2"/>
<circle cx="145" cy="231" r="3" fill="#F5F0E2"/>
<circle cx="159" cy="231" r="3" fill="#F5F0E2"/>
<circle cx="173" cy="231" r="3" fill="#F5F0E2"/>
<circle cx="187" cy="231" r="3" fill="#F5F0E2"/>
<circle cx="201" cy="231" r="3" fill="#F5F0E2"/>
<circle cx="215" cy="231" r="3" fill="#F5F0E2"/>
<circle cx="229" cy="231" r="3" fill="#F5F0E2"/>
<circle cx="243" cy="231" r="3" fill="#F5F0E2"/>
<circle cx="257" cy="231" r="3" fill="#F5F0E2"/>
<circle cx="271" cy="231" r="3" fill="#F5F0E2"/>
<circle cx="285" cy="231" r="3" fill="#F5F0E2"/>
<circle cx="299" cy="231" r="3" fill="#F5F0E2"/>
<circle cx="313" cy="231" r="3" fill="#F5F0E2"/>
<circle cx="327" cy="231" r="3" fill="#F5F0E2"/>
<circle cx="341" cy="231" r="3" fill="#F5F0E2"/>
<circle cx="355" cy="231" r="3" fill="#F5F0E2"/>
<circle cx="369" cy="231" r="3" fill="#F5F0E2"/>
<circle cx="383" cy="231" r="3" fill="#F5F0E2"/>
<circle cx="397" cy="231" r="3" fill="#F5F0E2"/>
<circle cx="411" cy="231" r="3" fill="#F5F0E2"/>
<circle cx="425" cy="231" r="3" fill="#F5F0E2"/>
<circle cx="439" cy="231" r="3" fill="#F5F0E2"/>
<circle cx="453" cy="231" r="3" fill="#F5F0E2"/>
<circle cx="467" cy="231" r="3" fill="#F5F0E2"/>
<circle cx="481" cy="231" r="3" fill="#F5F0E2"/>
<circle cx="495" cy="231" r="3" fill="#F5F0E2"/>
</svg>
