<svg width="500" height="338" viewBox="0 0 500 338" fill="none" xmlns="http://www.w3.org/2000/svg">
<path d="M0 8C0 3.58172 3.58172 0 8 0H492C496.418 0 500 3.58172 500 8V230H0V8Z" fill="#0E1B92"/>
<path d="M370.528 105.984L370.647 126.046L354.885 105.984H348.934V137.279H355.398L355.278 117.261L355.714 117.809L371.091 137.279H377V105.984H370.528Z" fill="white"/>
<path d="M328.024 105.266C321.834 105.266 316.66 108.383 313.833 113.221C306.149 125.08 293.222 132.863 282.83 133.565C280.158 133.745 277.494 133.034 276.435 130.525C288.303 124.806 299.327 116.963 299.685 111.371C299.907 107.946 297.175 105.703 292.308 105.703C284.461 105.703 273.899 112.245 269.493 120.045C268.622 121.595 267.965 123.187 267.615 124.814C267.615 124.814 267.094 126.955 267.401 128.89C267.461 129.455 267.572 129.994 267.7 130.517C267.7 130.517 264.421 132.066 260.929 132.923C257.736 133.719 255.507 133.642 254.952 132.888C254.303 132.006 255.029 131.15 255.43 129.857C256.079 127.777 257.471 121.715 250.094 121.064C261.544 119.942 270.97 113.144 272.14 105.712L263.542 105.746C262.594 113.726 252.374 118.752 245.645 118.615C248.309 114.334 251.042 109.959 263.422 90H254.525L239.259 114.848C234.468 123.341 222.831 133.642 219.415 133.642C218.262 133.642 217.733 133.111 217.733 131.955C217.733 128.128 222.404 121.834 226.69 115.464C228.807 112.305 230.643 109.582 231.617 107.698L232.752 105.703H223.804L220.858 110.532C219.364 107.279 217.17 105.874 213.626 105.874C206.377 105.874 199.196 110.464 193.732 118.435C191.153 122.194 183.443 133.796 178.832 134.215C177.611 134.327 176.646 134.087 176.424 132.914C175.912 130.251 178.798 127.451 181.496 123.898C184.595 119.822 187.806 115.61 187.806 111.62C187.806 108.794 185.509 105.874 181.667 105.874C176.245 105.874 172.42 107.741 166.912 113.169C167.1 112.425 167.203 111.748 167.203 111.123C167.203 107.938 164.496 105.866 160.969 105.866C158.177 105.866 154.984 106.131 150.057 109.428C149.767 109.616 149.477 109.822 149.178 110.036L146.36 111.928L150.681 105.695H125.97L124.929 108.486H140.11C134.97 117.322 127.892 128.513 122.623 136.998L122 138H130.931L131.452 137.024C137.796 125.687 152.337 109.453 157.972 109.453C159.458 109.453 159.526 110.678 159.526 111.722C159.526 114.616 155.889 119.925 150.689 127.802C148.939 130.448 146.497 134.096 144.661 136.998L144.004 137.991H153.31L153.891 137.032C157.802 129.96 171.523 109.453 178.277 109.453C179.199 109.453 180.121 110.078 180.121 111.474C180.121 113.169 178.354 115.156 175.989 118.247C172.718 122.519 169.269 127.862 169.269 131.955C169.269 135.594 171.771 137.94 175.647 137.94C180.138 137.94 183.033 136.356 190.231 128.607C189.829 132.4 191.597 135.423 193.723 136.81C194.85 137.538 196.225 137.94 197.813 137.94C201.852 137.94 206.112 135.782 209.895 131.827C209.852 132.203 209.835 132.589 209.835 132.931C209.835 135.885 212.226 137.94 215.65 137.94C220.482 137.94 224.965 135.859 230.455 130.397L225.546 137.991H234.007L234.989 136.193C236.219 133.882 238.541 130.003 242.939 122.922C249.897 122.905 246.832 130.088 246.832 132.52C246.832 135.859 248.933 137.94 252.314 137.94C256.455 137.94 262.586 136.296 269.066 133.736C269.066 133.736 269.117 133.813 269.211 133.95C269.749 134.661 271.952 137.075 277.536 137.76C277.912 137.803 278.313 137.846 278.723 137.88C278.885 137.889 279.056 137.897 279.227 137.906C291.744 138.514 303.886 130.568 311.511 121.638C311.511 121.732 311.494 121.826 311.494 121.92C311.494 130.936 318.726 138 327.947 138C337.169 138 344.521 130.808 344.521 121.629C344.521 112.45 337.263 105.258 327.99 105.258L328.024 105.266ZM202.202 133.12C202.125 133.12 202.048 133.12 201.971 133.12C199.708 133.12 198.65 131.904 198.65 128.282C198.65 121.501 206.65 108.709 213.626 108.709C216.136 108.709 217.11 109.864 217.11 112.836C217.11 118.452 208.657 132.803 202.193 133.111L202.202 133.12ZM276.17 124.258C276.17 124.258 276.956 120.054 280.235 115.721C283.283 111.44 287.142 109.111 290.31 109.111C291.531 109.111 292.308 109.873 292.316 111.055C292.376 116.671 284.854 122.597 275.854 126.895C275.88 126.184 275.974 125.114 276.179 124.258H276.17ZM328.101 132.032C322.483 132.032 318.248 127.545 318.248 121.603C318.248 116.586 321.689 111.26 328.058 111.26C334.428 111.26 337.835 116.56 337.835 121.68C337.835 126.801 334.198 132.032 328.11 132.032H328.101Z" fill="white"/>
<path d="M0 230H500V330C500 334.418 496.418 338 492 338H7.99999C3.58171 338 0 334.418 0 330V230Z" fill="#0075FF"/>
<path d="M173.856 276.692H192.112L192.336 273.388H173.576V270.112H196.424L195.528 283.412H191.664L191.888 279.884H173.856V276.692ZM172.232 288.06V284.616H197.768V288.06H186.988V295.816H183.012V288.06H172.232ZM201.548 270.028H224.452V273.024H201.548V270.028ZM214.904 280.556V283.524H225.768V286.632H200.232V283.524H211.068V280.556H201.268V277.56H205.776L205.132 273.584H208.912L209.528 277.56H216.36L217.004 273.584H220.784L220.112 277.56H224.732V280.556H214.904ZM201.716 288.228H205.608V292.54H224.704V295.536H201.716V288.228ZM260.483 284.784H256.563V269.804H260.483V275.068H263.843V278.456H260.483V284.784ZM251.719 283.776H237.411V270.196H241.247V273.696H247.911V270.196H251.719V283.776ZM241.247 276.748V280.724H247.911V276.748H241.247ZM261.043 295.536H238.587V285.82H260.623V288.956H242.535V292.372H261.043V295.536ZM289.295 295.536H285.319V269.804H289.295V295.536ZM265.131 294.78V291.14C272.551 289.376 277.059 284.028 277.031 274.284H265.271V270.84H280.839V273.724C280.839 286.296 274.595 293.044 265.131 294.78Z" fill="white"/>
<path d="M304.5 291.715C304.098 291.715 303.762 291.579 303.49 291.307C303.218 291.035 303.082 290.699 303.083 290.298C303.083 289.897 303.219 289.56 303.491 289.288C303.763 289.016 304.099 288.881 304.5 288.882H321.5C321.901 288.882 322.238 289.018 322.51 289.29C322.782 289.562 322.917 289.898 322.917 290.298C322.917 290.7 322.781 291.036 322.509 291.308C322.237 291.58 321.9 291.716 321.5 291.715H304.5ZM309.529 285.446C309.34 285.446 309.163 285.416 308.998 285.357C308.833 285.297 308.679 285.197 308.537 285.057L302.517 279.036C302.257 278.776 302.127 278.434 302.127 278.009C302.127 277.584 302.257 277.241 302.517 276.982C302.776 276.722 303.107 276.592 303.508 276.592C303.91 276.592 304.24 276.722 304.5 276.982L309.529 282.011L321.5 270.04C321.76 269.78 322.096 269.65 322.51 269.65C322.924 269.65 323.26 269.78 323.519 270.04C323.778 270.3 323.908 270.636 323.908 271.05C323.908 271.464 323.778 271.8 323.519 272.059L310.521 285.057C310.379 285.198 310.226 285.299 310.06 285.358C309.895 285.418 309.718 285.447 309.529 285.446Z" fill="white"/>
<circle cx="5" cy="231" r="3" fill="#F5F0E2"/>
<circle cx="19" cy="231" r="3" fill="#F5F0E2"/>
<circle cx="33" cy="231" r="3" fill="#F5F0E2"/>
<circle cx="47" cy="231" r="3" fill="#F5F0E2"/>
<circle cx="61" cy="231" r="3" fill="#F5F0E2"/>
<circle cx="75" cy="231" r="3" fill="#F5F0E2"/>
<circle cx="89" cy="231" r="3" fill="#F5F0E2"/>
<circle cx="103" cy="231" r="3" fill="#F5F0E2"/>
<circle cx="117" cy="231" r="3" fill="#F5F0E2"/>
<circle cx="131" cy="231" r="3" fill="#F5F0E2"/>
<circle cx="145" cy="231" r="3" fill="#F5F0E2"/>
<circle cx="159" cy="231" r="3" fill="#F5F0E2"/>
<circle cx="173" cy="231" r="3" fill="#F5F0E2"/>
<circle cx="187" cy="231" r="3" fill="#F5F0E2"/>
<circle cx="201" cy="231" r="3" fill="#F5F0E2"/>
<circle cx="215" cy="231" r="3" fill="#F5F0E2"/>
<circle cx="229" cy="231" r="3" fill="#F5F0E2"/>
<circle cx="243" cy="231" r="3" fill="#F5F0E2"/>
<circle cx="257" cy="231" r="3" fill="#F5F0E2"/>
<circle cx="271" cy="231" r="3" fill="#F5F0E2"/>
<circle cx="285" cy="231" r="3" fill="#F5F0E2"/>
<circle cx="299" cy="231" r="3" fill="#F5F0E2"/>
<circle cx="313" cy="231" r="3" fill="#F5F0E2"/>
<circle cx="327" cy="231" r="3" fill="#F5F0E2"/>
<circle cx="341" cy="231" r="3" fill="#F5F0E2"/>
<circle cx="355" cy="231" r="3" fill="#F5F0E2"/>
<circle cx="369" cy="231" r="3" fill="#F5F0E2"/>
<circle cx="383" cy="231" r="3" fill="#F5F0E2"/>
<circle cx="397" cy="231" r="3" fill="#F5F0E2"/>
<circle cx="411" cy="231" r="3" fill="#F5F0E2"/>
<circle cx="425" cy="231" r="3" fill="#F5F0E2"/>
<circle cx="439" cy="231" r="3" fill="#F5F0E2"/>
<circle cx="453" cy="231" r="3" fill="#F5F0E2"/>
<circle cx="467" cy="231" r="3" fill="#F5F0E2"/>
<circle cx="481" cy="231" r="3" fill="#F5F0E2"/>
<circle cx="495" cy="231" r="3" fill="#F5F0E2"/>
</svg>
