<svg width="279" height="33" viewBox="0 0 279 33" fill="none" xmlns="http://www.w3.org/2000/svg">
<path d="M5.018 28.53V7.654L0.7 8.606V6.396L6.786 3.642H8.792V28.53H5.018ZM18.2034 5.308V2.35H27.8254V5.308H18.2034ZM38.8754 0.513999V13.366H43.7374V16.46H38.8754V32.746H35.1694V0.513999H38.8754ZM33.0614 23.736L31.0894 26.49C27.8934 25.062 24.1874 21.288 23.1334 18.126C22.2834 21.424 18.9854 25.402 15.2114 27.272L12.8994 24.586C17.7954 22.002 21.1614 17.582 21.1614 11.088V10.952H14.4974V7.994H31.5654V10.952H25.0034V11.088C25.0034 17.582 28.5734 21.594 33.0614 23.736ZM81.178 11.904L79.478 14.964C74.718 14.114 69.482 10.986 67.884 7.382C66.456 10.986 61.22 14.114 56.324 14.964L54.692 11.938C60.404 11.258 65.946 7.45 65.946 2.86V1.262H69.856V2.86C69.856 7.45 75.976 11.462 81.178 11.904ZM64.076 32.78H60.37V21.05H53.298V18.092H82.402V21.05H75.194V32.78H71.488V21.05H64.076V32.78ZM102.221 6.396H84.3713V3.404H102.221V6.396ZM106.743 15.984H101.473V12.89H106.743V0.513999H110.449V32.746H106.743V15.984ZM103.309 21.186L103.581 24.076C101.371 24.484 97.6653 24.79 93.6533 24.994C90.4233 25.164 86.9553 25.266 83.8273 25.266L83.3513 22.104H88.0093L86.9213 9.014L90.5933 8.606L91.3753 22.036C92.3953 22.002 93.4493 21.968 94.5033 21.9H94.9113L95.6933 8.538L99.3313 8.776L98.2433 21.696C100.317 21.56 102.017 21.39 103.309 21.186ZM117.893 2.384H139.755C139.755 6.838 139.483 12.652 138.701 16.97H143.597V19.928H130.847V32.746H127.141V19.928H114.493V16.97H135.131C135.403 15.61 135.607 13.706 135.743 11.802L117.451 12.72L116.975 9.728L135.913 8.946C135.981 7.586 136.015 6.328 136.015 5.342H117.893V2.384ZM171.236 4.764H147.878V1.806H171.236V4.764ZM170.828 31.828H148.83V22.92H152.536V28.836H170.828V31.828ZM174.194 20.914H145.09V17.956H157.704V14.76H147.946V11.768H152.808L151.924 6.226L155.562 5.818L156.276 11.768H162.838L163.654 5.784L167.326 6.328L166.306 11.768H171.202V14.76H161.41V17.956H174.194V20.914ZM196.063 25.81C200.823 25.81 203.067 22.036 203.067 16.868V15.678C203.067 9.966 201.197 6.192 195.927 6.158C191.201 6.158 188.991 9.932 188.991 15.032V16.29C188.991 21.968 190.895 25.81 196.063 25.81ZM195.961 28.768C189.229 28.768 184.979 24.484 184.979 16.324V15.61C184.979 7.79 189.297 3.166 196.097 3.166C202.829 3.166 207.079 7.484 207.079 15.644V16.358C207.079 24.178 202.761 28.768 195.961 28.768ZM214.567 15.882H218.613C222.183 15.882 223.543 14.386 223.543 11.326C223.543 7.96 222.217 6.634 218.681 6.634H214.567V15.882ZM210.827 28.36V3.608H219.021C224.699 3.608 227.487 6.26 227.487 11.054C227.487 16.154 224.223 18.84 219.327 18.84H214.567V28.36H210.827ZM230.799 28.36V3.608H245.861V6.702H234.539V14.08H243.311V17.174H234.539V25.266H245.997V28.36H230.799ZM250.273 28.36V3.608H254.591L265.505 22.138H265.607V3.608H268.973V28.36H265.199L253.775 8.742H253.639V28.36H250.273ZM274.2 28.768V24.858H278.178V28.768H274.2ZM274.574 21.22L274.098 2.758H278.246L277.804 21.22H274.574Z" fill="#4E59B9"/>
</svg>
