<svg width="507" height="151" viewBox="0 0 507 151" fill="none" xmlns="http://www.w3.org/2000/svg">
<path d="M8.568 37.234C5.644 37.234 3.06 36.452 1.7 35.5L2.38 32.712C3.706 33.562 6.12 34.208 7.956 34.208C11.594 34.208 13.6 32.644 13.6 29.788C13.6 26.932 11.492 25.674 8.126 25.64L5.746 25.606V22.716L7.888 22.682C10.88 22.648 12.818 21.22 12.818 18.738C12.818 16.052 11.084 15.066 8.262 15.066C6.358 15.066 4.522 15.814 3.026 16.562L2.584 13.706C4.08 12.754 6.868 12.006 9.18 12.006C13.668 12.006 16.626 14.182 16.626 18.092C16.626 21.084 14.858 22.92 12.104 23.838C15.232 24.45 17.51 26.218 17.51 29.924C17.51 34.344 14.076 37.234 8.568 37.234ZM30.2026 34.344C33.7046 34.344 35.5406 31.93 35.5406 25.878V23.634C35.5406 17.684 33.7046 14.964 30.2366 14.964C26.7346 14.964 24.8986 17.548 24.8986 23.43V25.674C24.8986 31.556 26.7006 34.344 30.2026 34.344ZM30.2026 37.302C25.0006 37.302 20.9206 33.902 20.9206 25.538V23.804C20.9206 15.066 25.3066 12.006 30.2706 12.006C35.2346 12.006 39.4166 15.1 39.4166 23.668V25.504C39.4166 34.004 35.3026 37.302 30.2026 37.302ZM48.416 23.192C50.286 23.192 51.17 21.9 51.17 19.01V18.126C51.17 15.304 50.218 13.978 48.416 13.978C46.648 13.978 45.696 15.27 45.696 18.092V18.976C45.696 21.9 46.614 23.192 48.416 23.192ZM64.974 34.888C66.844 34.888 67.694 33.63 67.694 30.706V29.89C67.694 27 66.776 25.708 64.974 25.708C63.206 25.708 62.22 26.966 62.22 29.856V30.672C62.22 33.63 63.138 34.888 64.974 34.888ZM46.478 38.288L63.58 11.394H66.538L49.47 38.288H46.478ZM64.974 37.166C61.336 37.166 59.024 34.752 59.024 30.672V30.094C59.024 26.15 61.37 23.396 64.974 23.396C68.578 23.396 70.89 25.878 70.89 29.89V30.434C70.89 34.48 68.612 37.166 64.974 37.166ZM48.416 25.436C44.778 25.436 42.5 22.988 42.5 18.976V18.364C42.5 14.386 44.812 11.666 48.416 11.666C52.02 11.666 54.366 14.148 54.366 18.126V18.738C54.366 22.75 52.054 25.436 48.416 25.436ZM92.1854 27.748C92.1854 25.674 90.8934 24.212 88.7854 24.212C86.7454 24.212 85.4194 25.674 85.4194 27.748C85.4194 29.822 86.7454 31.216 88.7854 31.216C90.8934 31.216 92.1854 29.754 92.1854 27.748ZM95.5514 27.748C95.5514 31.488 92.7974 34.208 88.7854 34.208C84.8754 34.208 82.0534 31.284 82.0534 27.748C82.0534 23.94 84.8754 21.254 88.7854 21.254C92.7974 21.254 95.5514 24.008 95.5514 27.748ZM96.8434 19.792H81.2714V16.8H96.8434V19.792ZM93.3074 14.59H84.9774V11.598H93.3074V14.59ZM102.555 39.716H99.0534V31.59H96.0274V28.666H99.0534V23.838H95.8574V20.948H99.0534V9.66H102.555V39.716ZM108.641 41.246H105.105V9.014H108.641V41.246ZM139.205 41.246H135.499V32.61H117.241V29.652H139.205V41.246ZM125.265 17.48V20.37H117.003V23.702C121.185 23.702 124.449 23.464 126.931 22.92L127.407 25.81C124.653 26.388 120.301 26.66 116.323 26.694L113.331 26.66V11.326H125.741V14.318H117.003V17.48H125.265ZM139.205 27.952H135.669V19.928H132.473V27.646H128.971V9.592H132.473V16.834H135.669V9.014H139.205V27.952ZM153.414 22.988C153.414 18.33 152.326 14.896 150.014 14.896C147.736 14.896 146.614 18.33 146.614 22.988C146.614 27.646 147.736 31.012 150.014 31.012C152.326 31.012 153.414 27.646 153.414 22.988ZM169.836 41.246H166.3V9.014H169.836V41.246ZM163.58 39.716H160.078V24.586H156.848C156.508 29.958 154.366 34.276 149.98 34.276C145.152 34.276 143.044 29.074 143.044 22.954C143.044 16.868 145.152 11.7 149.98 11.7C154.4 11.7 156.542 16.052 156.848 21.492H160.078V9.626H163.58V39.716ZM27.064 90.396H5.508V81.726H9.214V87.404H27.064V90.396ZM26.112 59.014V69.112H30.872V72.206H26.112V82.848H22.406V59.014H26.112ZM5.508 62.72V59.762H14.926V62.72H5.508ZM14.246 74.484C14.246 72.75 12.41 71.696 10.234 71.696C7.956 71.696 6.154 72.75 6.154 74.484C6.154 76.218 7.956 77.204 10.234 77.204C12.41 77.204 14.246 76.218 14.246 74.484ZM17.782 74.484C17.782 77.85 14.552 80.06 10.234 80.06C5.882 80.06 2.618 77.85 2.618 74.484C2.618 71.152 5.848 68.874 10.234 68.874C14.552 68.874 17.782 71.152 17.782 74.484ZM19.482 67.616H0.85V64.692H19.482V67.616ZM52.9446 74.178V69.214H45.4306V74.178H52.9446ZM56.6506 77.102H41.6906V61.054H45.4306V66.29H52.9446V61.02H56.6506V77.102ZM67.8026 90.328H46.0426V80.264H49.7486V87.336H67.8026V90.328ZM63.3486 70.914H58.3166V67.82H63.3486V59.014H67.0546V82.44H63.3486V70.914ZM98.1713 79.312L98.7153 82.304C95.3833 83.12 91.0313 83.358 85.0473 83.392H81.4433V62.04H95.9613V65.066H85.1153V80.332C90.0793 80.332 94.3973 80.094 98.1713 79.312ZM102.795 73.328H94.6693V70.234H102.795V59.014H106.501V91.246H102.795V73.328ZM124.358 87.03V66.154L120.04 67.106V64.896L126.126 62.142H128.132V87.03H124.358ZM140.161 87.302C137.305 87.302 134.755 86.52 133.191 85.534L133.871 82.61C135.231 83.426 137.339 84.208 139.277 84.208C142.881 84.208 145.057 82.304 145.057 79.142C145.057 75.742 143.017 74.382 139.413 74.382C137.815 74.382 135.537 75.096 134.381 75.64L135.299 62.38H147.913V65.406H138.189L137.747 72.036C138.631 71.798 140.025 71.56 140.977 71.56C145.941 71.56 148.933 74.008 148.933 79.176C148.933 83.664 145.669 87.302 140.161 87.302ZM156.529 73.192C158.399 73.192 159.283 71.9 159.283 69.01V68.126C159.283 65.304 158.331 63.978 156.529 63.978C154.761 63.978 153.809 65.27 153.809 68.092V68.976C153.809 71.9 154.727 73.192 156.529 73.192ZM173.087 84.888C174.957 84.888 175.807 83.63 175.807 80.706V79.89C175.807 77 174.889 75.708 173.087 75.708C171.319 75.708 170.333 76.966 170.333 79.856V80.672C170.333 83.63 171.251 84.888 173.087 84.888ZM154.591 88.288L171.693 61.394H174.651L157.583 88.288H154.591ZM173.087 87.166C169.449 87.166 167.137 84.752 167.137 80.672V80.094C167.137 76.15 169.483 73.396 173.087 73.396C176.691 73.396 179.003 75.878 179.003 79.89V80.434C179.003 84.48 176.725 87.166 173.087 87.166ZM156.529 75.436C152.891 75.436 150.613 72.988 150.613 68.976V68.364C150.613 64.386 152.925 61.666 156.529 61.666C160.133 61.666 162.479 64.148 162.479 68.126V68.738C162.479 72.75 160.167 75.436 156.529 75.436ZM23.018 135.84C23.018 134.174 20.23 133.154 15.64 133.154C11.118 133.154 8.296 134.174 8.296 135.84C8.296 137.54 11.118 138.526 15.64 138.526C20.23 138.526 23.018 137.54 23.018 135.84ZM26.826 135.84C26.826 139.172 23.222 141.518 15.674 141.518C8.092 141.518 4.488 139.172 4.488 135.84C4.488 132.508 8.092 130.196 15.64 130.196C23.222 130.196 26.826 132.508 26.826 135.84ZM26.69 122.92H17.442V125.504H30.192V128.496H1.088V125.504H13.736V122.92H4.964V109.932H26.452V112.89H8.67V114.998H25.33V117.786H8.67V120.03H26.69V122.92ZM44.0366 110.646H65.8306C65.8306 115.95 65.4906 121.22 64.7086 124.62H69.6386V127.578H40.5346V124.62H61.1046C61.4446 123.294 61.6826 121.56 61.8526 119.758L43.5946 120.642L43.1186 117.786L62.0226 117.004C62.0906 115.814 62.1246 114.658 62.1246 113.604H44.0366V110.646ZM66.3066 140.294H44.2746V130.366H47.9806V137.302H66.3066V140.294ZM95.0433 115.78H80.1853V112.822H95.0433V115.78ZM107.147 141.246H103.611V109.014H107.147V141.246ZM101.163 139.682H97.6273V124.654H94.0233V121.56H97.6273V109.694H101.163V139.682ZM92.9353 117.888L91.9493 130.162C93.4113 130.06 94.7033 129.924 95.6213 129.788L95.9613 132.678C90.8273 133.392 85.5913 133.698 79.9813 133.732L79.4713 130.638C80.5253 130.638 81.7493 130.638 83.0073 130.604L82.1913 117.956L85.6933 117.548L86.2713 130.502L88.5153 130.4H88.6173L89.2973 117.616L92.9353 117.888ZM124.417 122.818C124.417 117.65 122.513 114.556 119.759 114.556C117.039 114.556 115.169 117.65 115.169 122.818C115.169 127.986 117.039 131.08 119.759 131.08C122.513 131.08 124.417 127.986 124.417 122.818ZM111.531 122.818C111.531 116.018 114.591 111.53 119.759 111.53C124.927 111.53 127.953 116.018 127.953 122.852C127.953 129.618 124.927 134.072 119.759 134.072C114.591 134.072 111.531 129.618 111.531 122.818ZM137.099 141.246H133.393V109.014H137.099V141.246ZM151.614 122.784V118.5H146.14V122.784H151.614ZM146.378 129.584H168.308V141.28H164.636V132.542H146.378V129.584ZM168.308 127.884H164.772V119.86H161.882V127.51H158.38V109.592H161.882V116.766H164.772V109.014H168.308V127.884ZM155.32 125.742H142.434V111.088H146.14V115.576H151.614V111.02H155.32V125.742Z" fill="#4E59B9"/>
<rect x="274" y="8" width="233" height="136" rx="20" fill="#0E1B92"/>
<path d="M335 53.3254V60.2002L354.149 47.2992H354.317V111.804H360.813V40H354.233L335 53.3254Z" fill="white"/>
<path d="M444.492 40.2546L418.005 81.8433C417.499 79.8912 416.74 78.1088 415.812 76.4113C413.787 72.8466 411.004 70.0457 407.461 68.0087C403.833 65.9717 399.869 64.8683 395.314 64.8683C391.686 64.8683 388.312 65.6322 385.275 67.0751C382.154 68.4331 379.708 70.4701 377.937 73.1012H377.768L380.636 46.111H414.631V40H375.068L371.188 80.2307H377.262C377.683 79.5517 378.105 78.9576 378.611 78.3634C379.033 77.7693 379.539 77.1752 380.045 76.6659C381.817 74.7138 383.926 73.2709 386.372 72.2524C388.734 71.234 391.433 70.8096 394.217 70.8096C397.676 70.8096 400.712 71.5735 403.412 73.1012C406.111 74.6289 408.22 76.8357 409.823 79.5517C411.341 82.2677 412.1 85.3232 412.1 88.8031C412.1 89.7367 412.016 90.5854 411.932 91.3493L403.58 104.505C403.496 104.59 403.412 104.59 403.327 104.675C400.628 106.202 397.422 106.966 393.964 106.966C390.843 106.966 388.059 106.372 385.613 105.184C383.082 103.996 381.058 102.383 379.455 100.346C377.852 98.309 376.924 96.0174 376.587 93.4712V93.1317H369.923V93.556C370.345 97.2905 371.61 100.601 373.719 103.486C375.828 106.372 378.696 108.749 382.154 110.446C385.613 112.059 389.493 112.908 393.795 112.908C395.398 112.908 397.001 112.908 398.435 112.568L394.976 118H398.435L402.484 111.634L418.68 86.1719L447.951 40.2546H444.492Z" fill="white"/>
<path d="M450.566 54.3429C449.554 53.1547 448.289 52.5605 446.517 52.5605C444.746 52.5605 443.48 53.1547 442.468 54.3429C441.54 55.4463 441.034 57.0589 441.034 59.011C441.034 60.9632 441.54 62.5758 442.468 63.764C443.48 64.8674 444.83 65.4615 446.517 65.4615C448.289 65.4615 449.554 64.8674 450.566 63.764C451.494 62.5758 452 60.9632 452 59.011C452 57.0589 451.494 55.4463 450.566 54.3429ZM448.289 61.8968C447.867 62.5758 447.276 62.9153 446.517 62.9153C445.758 62.9153 445.168 62.5758 444.83 61.8968C444.408 61.2178 444.24 60.2842 444.24 59.011C444.24 57.7379 444.408 56.8043 444.83 56.1253C445.168 55.5312 445.758 55.1917 446.517 55.1917C447.276 55.1917 447.867 55.5312 448.289 56.1253C448.626 56.8043 448.879 57.7379 448.879 59.011C448.879 60.2842 448.626 61.2178 448.289 61.8968Z" fill="white"/>
<path d="M430.152 52.901C431.923 52.901 433.189 52.3917 434.201 51.2035C435.129 50.0152 435.635 48.4875 435.635 46.4505C435.635 44.4135 435.129 42.8857 434.201 41.7824C433.189 40.5941 431.923 40 430.152 40C428.381 40 427.115 40.5941 426.187 41.7824C425.175 42.8857 424.669 44.4984 424.669 46.4505C424.669 48.4026 425.175 50.0152 426.187 51.2035C427.115 52.3917 428.465 52.901 430.152 52.901ZM427.874 46.4505C427.874 45.2622 428.043 44.3286 428.465 43.6496C428.887 42.9706 429.393 42.6311 430.152 42.6311C430.911 42.6311 431.502 42.9706 431.923 43.6496C432.261 44.3286 432.514 45.2622 432.514 46.4505C432.514 47.7236 432.261 48.6572 431.923 49.3362C431.502 50.0152 430.911 50.3547 430.152 50.3547C429.393 50.3547 428.887 50.0152 428.465 49.3362C428.043 48.6572 427.874 47.7236 427.874 46.5354V46.4505Z" fill="white"/>
</svg>
