<svg width="62" height="37" viewBox="0 0 62 37" fill="none" xmlns="http://www.w3.org/2000/svg">
<path d="M16.6514 36.6348C13.3962 36.6348 10.5885 35.8942 8.22852 34.4131C5.86849 32.932 4.04557 30.8324 2.75977 28.1143C1.49023 25.3799 0.855469 22.141 0.855469 18.3975V18.3486C0.855469 14.6051 1.49023 11.3743 2.75977 8.65625C4.04557 5.92188 5.86849 3.82227 8.22852 2.35742C10.5885 0.876302 13.3962 0.135742 16.6514 0.135742C19.9066 0.135742 22.7061 0.876302 25.0498 2.35742C27.4098 3.82227 29.2246 5.92188 30.4941 8.65625C31.7637 11.3743 32.3984 14.6051 32.3984 18.3486V18.3975C32.3984 22.141 31.7637 25.3799 30.4941 28.1143C29.2246 30.8324 27.4098 32.932 25.0498 34.4131C22.7061 35.8942 19.9066 36.6348 16.6514 36.6348ZM16.6514 28.6758C17.7907 28.6758 18.751 28.2852 19.5322 27.5039C20.3135 26.7064 20.9076 25.5426 21.3145 24.0127C21.7214 22.4827 21.9248 20.611 21.9248 18.3975V18.3486C21.9248 16.1351 21.7214 14.2715 21.3145 12.7578C20.9076 11.2279 20.3135 10.0723 19.5322 9.29102C18.751 8.49349 17.7907 8.09473 16.6514 8.09473C15.512 8.09473 14.5436 8.49349 13.7461 9.29102C12.9648 10.0723 12.3708 11.2279 11.9639 12.7578C11.557 14.2715 11.3535 16.1351 11.3535 18.3486V18.3975C11.3535 20.611 11.557 22.4827 11.9639 24.0127C12.3708 25.5426 12.9648 26.7064 13.7461 27.5039C14.5436 28.2852 15.512 28.6758 16.6514 28.6758ZM33.8779 36V28.9443L46.3779 18.5928C47.8265 17.4046 48.9089 16.4118 49.625 15.6143C50.3574 14.8005 50.8457 14.0843 51.0898 13.4658C51.3503 12.8311 51.4805 12.1882 51.4805 11.5371V11.4883C51.4805 10.7559 51.3014 10.113 50.9434 9.55957C50.6016 9.00618 50.1214 8.57487 49.5029 8.26562C48.8844 7.9401 48.1683 7.77734 47.3545 7.77734C46.4268 7.77734 45.6211 7.95638 44.9375 8.31445C44.2702 8.67253 43.7493 9.17708 43.375 9.82812C43.0007 10.4629 42.7809 11.2035 42.7158 12.0498L42.6914 12.3672H33.2676V12.123C33.2676 9.73047 33.8617 7.639 35.0498 5.84863C36.238 4.04199 37.89 2.64225 40.0059 1.64941C42.1217 0.640299 44.5713 0.135742 47.3545 0.135742C50.2028 0.135742 52.6768 0.583333 54.7764 1.47852C56.8923 2.35742 58.528 3.60254 59.6836 5.21387C60.8555 6.80892 61.4414 8.6888 61.4414 10.8535V10.9023C61.4414 12.4648 61.1729 13.8564 60.6357 15.0771C60.0986 16.2979 59.2441 17.5104 58.0723 18.7148C56.9167 19.9193 55.3949 21.2865 53.5068 22.8164L42.7646 31.5078L47.1104 24.3057V31.5078L42.7891 28.1875H61.8564V36H33.8779Z" fill="#F5F0E2"/>
</svg>
