<svg width="23" height="279" viewBox="0 0 23 279" fill="none" xmlns="http://www.w3.org/2000/svg">
<path d="M4.83 1.88749L20.89 1.88749L20.89 11.6115L18.404 11.6115L18.404 4.63749L14.444 4.63749L14.444 10.8635L12.046 10.8635L12.046 4.63749L7.294 4.63749L7.294 11.7435L4.83 11.7435L4.83 1.88749ZM4.808 18.9449L20.89 13.2689L20.89 16.3489L8.02 20.6389L20.89 24.9729L20.89 27.9869L4.808 22.2449L4.808 18.9449ZM4.83 29.6023L20.89 29.6023L20.89 39.3263L18.404 39.3263L18.404 32.3523L14.444 32.3523L14.444 38.5783L12.046 38.5783L12.046 32.3523L7.294 32.3523L7.294 39.4583L4.83 39.4583L4.83 29.6023ZM4.83 42.1277L20.89 42.1277L20.89 45.4937L9.318 51.6097L20.89 51.6097L20.89 54.3377L4.83 54.3377L4.83 51.1037L16.666 44.8337L4.83 44.8337L4.83 42.1277ZM18.338 64.1172L4.808 64.1172L4.808 61.3012L18.338 61.3012L18.338 56.5932L20.868 56.5932L20.868 68.8472L18.338 68.8472L18.338 64.1172ZM7.03 82.9076C7.03 84.7776 8.658 85.8996 12.31 85.8996L13.322 85.8996C17.084 85.8996 18.69 84.7556 18.69 82.9296C18.69 81.0376 17.084 79.9156 13.432 79.9156L12.398 79.9156C8.746 79.9156 7.03 80.9716 7.03 82.9076ZM4.588 82.8856C4.588 79.6516 6.81 76.9456 12.332 76.9456L13.212 76.9456C19.02 76.9456 21.154 79.8936 21.154 82.9296C21.154 85.9876 18.976 88.8256 13.3 88.8256L12.442 88.8256C6.678 88.8256 4.588 85.9436 4.588 82.8856ZM4.852 90.5688L6.7 90.5688L10.154 93.8248C12.178 95.7388 14.07 97.2568 16.072 97.2568C17.92 97.2568 18.602 96.2228 18.602 94.6388C18.602 93.7148 18.052 92.1968 17.502 91.3168L19.878 90.6128C20.538 91.6688 21.154 93.3408 21.154 95.1008C21.154 98.4008 19.548 100.337 16.512 100.337C13.586 100.337 10.99 98.2688 8.966 96.2668L7.36 94.6608L7.36 100.315L4.852 100.315L4.852 90.5688Z" fill="white"/>
<path d="M16.99 141.524L11.864 139.896L11.864 143.174L16.99 141.524ZM5.308 134.176L21.478 140.072L21.478 143.284L5.308 149.092L5.308 145.374L9.026 144.12L9.026 138.972L5.308 137.828L5.308 134.176ZM5.308 156.892L21.478 156.892L21.478 161.952L9.774 164.768L21.478 167.826L21.478 172.842L5.308 172.842L5.308 169.608L17.21 169.608L5.308 166.484L5.308 163.008L17.144 160.038L5.308 160.038L5.308 156.892ZM8.014 182.423C8.014 184.381 9.818 186.207 12.986 186.207L13.844 186.207C17.122 186.207 18.772 184.469 18.772 182.313C18.772 180.355 17.078 178.551 13.91 178.551L13.074 178.551C9.708 178.551 8.014 180.355 8.014 182.423ZM5.066 182.335C5.066 178.705 7.86 175.185 13.294 175.185L13.646 175.185C18.904 175.185 21.72 178.617 21.72 182.401C21.72 186.075 19.146 189.595 13.668 189.595L13.294 189.595C7.992 189.595 5.066 186.053 5.066 182.335ZM14.042 195.254L14.042 197.058C14.042 198.664 14.812 199.918 16.418 199.918C17.826 199.918 18.64 198.84 18.64 197.058L18.64 195.254L14.042 195.254ZM5.308 191.998L21.478 191.998L21.478 197.454C21.478 201.084 19.586 203.174 16.528 203.174C14.35 203.174 12.656 201.92 11.974 200.358L5.308 204.472L5.308 200.666L11.27 197.41L11.27 195.254L5.308 195.254L5.308 191.998ZM5.308 206.37L21.478 206.37L21.478 216.138L18.53 216.138L18.53 209.648L15.164 209.648L15.164 215.368L12.37 215.368L12.37 209.648L8.234 209.648L8.234 216.292L5.308 216.292L5.308 206.37ZM14.328 237.82L6.914 237.82C5.814 236.896 5.066 234.608 5.066 232.276C5.066 228.008 7.992 224.686 13.25 224.686L13.778 224.686C19.41 224.686 21.764 228.404 21.764 232.452C21.764 234.08 21.258 236.104 20.554 237.094L17.738 236.06C18.42 235.18 18.772 233.816 18.772 232.65C18.772 230.648 17.54 228.096 13.976 228.096L13.294 228.096C10.368 228.096 8.19 229.9 8.19 232.65C8.19 233.354 8.454 234.3 8.696 234.674L11.82 234.674L11.82 232.254L14.328 232.254L14.328 237.82ZM5.308 240.616L21.478 240.616L21.478 243.96L5.308 243.96L5.308 240.616ZM5.308 246.933L21.478 246.933L21.478 256.789L18.53 256.789L18.53 250.211L15.164 250.211L15.164 255.997L12.37 255.997L12.37 250.211L5.30799 250.211L5.308 246.933ZM18.442 266.652L5.30799 266.652L5.30799 263.308L18.442 263.308L18.442 258.864L21.478 258.864L21.478 271.118L18.442 271.118L18.442 266.652ZM3.83399 273.556L7.17799 273.556L7.17799 277.098L3.83399 277.098L3.83399 273.556ZM9.92799 274.04L22.006 273.666L22.006 277.098L9.92799 276.702L9.92799 274.04Z" fill="white"/>
</svg>
