<svg width="441" height="134" viewBox="0 0 441 134" fill="none" xmlns="http://www.w3.org/2000/svg">
<path d="M42.96 3.008C42.9973 5.06133 42.9787 7.152 42.904 9.28C42.8667 11.408 42.7547 13.48 42.568 15.496C42.4187 17.512 42.2133 19.4347 41.952 21.264C41.728 23.0933 41.4667 24.7173 41.168 26.136H48.728V32.296H28.512V53.464H20.672V32.296H0.792V26.136H33.832C34.0933 25.016 34.3173 23.7653 34.504 22.384C34.728 20.9653 34.896 19.5093 35.008 18.016C35.1573 16.4853 35.2507 14.992 35.288 13.536C35.3253 12.0427 35.3253 10.6427 35.288 9.336H6.448V3.008H42.96ZM65.7476 12.416H58.6356V33.64H65.7476V12.416ZM73.1956 39.576H51.3556V6.48H73.1956V39.576ZM87.3076 53.464V27.144H83.9476V51.112H76.4996V1.216H83.9476V20.928H87.3076V0.375998H94.7556V53.464H87.3076ZM121.647 23.112C121.647 23.9707 122.095 24.68 122.991 25.24C123.924 25.8 125.119 26.08 126.575 26.08C128.068 26.08 129.281 25.8 130.215 25.24C131.148 24.68 131.615 23.9707 131.615 23.112C131.615 22.216 131.148 21.488 130.215 20.928C129.281 20.368 128.068 20.088 126.575 20.088C125.119 20.088 123.924 20.368 122.991 20.928C122.095 21.488 121.647 22.216 121.647 23.112ZM139.399 23.112C139.399 24.2693 139.081 25.352 138.447 26.36C137.812 27.368 136.935 28.264 135.815 29.048C134.695 29.7947 133.351 30.392 131.783 30.84C130.215 31.288 128.479 31.512 126.575 31.512C124.671 31.512 122.935 31.288 121.367 30.84C119.799 30.392 118.436 29.7947 117.279 29.048C116.159 28.264 115.281 27.368 114.647 26.36C114.049 25.352 113.751 24.2693 113.751 23.112C113.751 21.9547 114.049 20.872 114.647 19.864C115.281 18.856 116.159 17.9787 117.279 17.232C118.399 16.448 119.743 15.8507 121.311 15.44C122.916 14.992 124.671 14.768 126.575 14.768C128.479 14.768 130.215 14.992 131.783 15.44C133.351 15.8507 134.695 16.448 135.815 17.232C136.935 17.9787 137.812 18.856 138.447 19.864C139.081 20.872 139.399 21.9547 139.399 23.112ZM117.615 53.576V41.088H144.943V39.072H117.615V33.36H152.839V46.072H125.511V47.752H153.847V53.576H117.615ZM152.839 21.04V31.344H144.999V0.375998H152.839V14.544H160.007V21.04H152.839ZM118.791 0.599998H134.471V5.976H118.791V0.599998ZM111.007 13.984V8.216H141.863V13.984H111.007ZM215.57 24.848C213.554 24.5493 211.556 24.0453 209.578 23.336C207.636 22.6267 205.826 21.768 204.146 20.76C202.466 19.752 200.972 18.6133 199.666 17.344C198.396 16.0373 197.426 14.656 196.754 13.2C196.044 14.656 195.036 16.0373 193.73 17.344C192.46 18.6133 190.986 19.7707 189.306 20.816C187.626 21.8613 185.815 22.7387 183.874 23.448C181.932 24.1573 179.954 24.6613 177.938 24.96L174.858 18.632C177.135 18.408 179.338 17.904 181.466 17.12C183.594 16.336 185.479 15.3093 187.122 14.04C188.764 12.7707 190.09 11.296 191.098 9.616C192.106 7.89867 192.61 6.01333 192.61 3.96V1.552H200.842V3.96C200.842 6.01333 201.327 7.88 202.298 9.56C203.306 11.24 204.631 12.696 206.274 13.928C207.954 15.16 209.858 16.168 211.986 16.952C214.114 17.6987 216.316 18.2027 218.594 18.464L215.57 24.848ZM192.61 53.52V35.04H172.73V28.824H220.666V35.04H200.45V53.52H192.61ZM263.333 36.664V53.576H255.493V42.824H227.157V36.664H263.333ZM249.165 24.064V27.928H269.381V34.2H221.445V27.928H241.325V24.064H227.773V10.064H255.101V7.712H227.829V1.888H263.053V15.664H235.669V18.184H264.453V24.064H249.165ZM30.248 119.128C29.0533 119.352 27.616 119.576 25.936 119.8C24.256 120.024 22.4267 120.229 20.448 120.416C18.5067 120.565 16.4533 120.696 14.288 120.808C12.1227 120.883 9.93867 120.92 7.736 120.92H3.088V85.136H27.056V91.52H10.872V114.48C11.1707 114.48 11.488 114.499 11.824 114.536C12.16 114.536 12.496 114.536 12.832 114.536C15.632 114.536 18.488 114.405 21.4 114.144C24.3493 113.845 27.056 113.435 29.52 112.912C29.6693 113.957 29.7813 115.003 29.856 116.048C29.968 117.056 30.0987 118.083 30.248 119.128ZM36.912 133.464V104.736H25.04V98.072H36.912V80.376H44.808V133.464H36.912ZM89.5069 85.64C89.5069 90.1947 89.1336 94.432 88.3869 98.352C87.6403 102.235 86.3896 105.837 84.6349 109.16C82.8803 112.445 80.5096 115.488 77.5229 118.288C74.5363 121.051 70.8029 123.608 66.3229 125.96C65.5763 124.952 64.8483 123.925 64.1389 122.88C63.4296 121.835 62.7016 120.789 61.9549 119.744C70.0189 116.235 75.5256 111.12 78.4749 104.4C75.9363 104.699 73.4163 104.96 70.9149 105.184C68.4509 105.408 65.9496 105.669 63.4109 105.968L62.4029 99.248C65.4269 99.0613 68.4323 98.8933 71.4189 98.744C74.4056 98.5573 77.4109 98.3707 80.4349 98.184C80.6216 97.2133 80.7709 96.2427 80.8829 95.272C80.9949 94.264 81.0883 93.2187 81.1629 92.136H64.9789V85.64H89.5069ZM98.5789 133.464V107.256H89.2269V100.592H98.5789V80.376H106.475V133.464H98.5789ZM147.239 133.464V80.376H155.247V133.464H147.239ZM139.735 121.088C138.652 120.453 137.495 119.613 136.263 118.568C135.031 117.523 133.836 116.365 132.679 115.096C131.521 113.827 130.476 112.501 129.543 111.12C128.647 109.739 127.993 108.395 127.583 107.088C127.172 108.544 126.537 110.037 125.679 111.568C124.82 113.061 123.812 114.517 122.655 115.936C121.497 117.317 120.265 118.568 118.959 119.688C117.689 120.808 116.439 121.704 115.207 122.376L110.559 116.328C115.039 113.715 118.287 110.411 120.303 106.416C122.319 102.421 123.345 97.568 123.383 91.856H113.191V85.304H141.751V91.856H131.559C131.633 97.5307 132.716 102.235 134.807 105.968C136.897 109.664 139.996 112.632 144.103 114.872L139.735 121.088ZM165.714 132.064V116.328H173.666V125.904H202.226V132.064H165.714ZM166.162 101.488V82.112H174.114V95.328H202.002V101.488H166.162ZM159.834 112.296V106.024H207.77V112.296H159.834ZM256.333 123.44C256.333 122.88 256.072 122.376 255.549 121.928C255.026 121.443 254.28 121.032 253.309 120.696C252.376 120.36 251.218 120.099 249.837 119.912C248.493 119.725 247 119.632 245.357 119.632C243.714 119.632 242.221 119.725 240.877 119.912C239.57 120.099 238.432 120.36 237.461 120.696C236.49 121.032 235.744 121.443 235.221 121.928C234.698 122.376 234.437 122.88 234.437 123.44C234.437 123.925 234.698 124.392 235.221 124.84C235.744 125.288 236.49 125.68 237.461 126.016C238.432 126.352 239.57 126.613 240.877 126.8C242.221 126.987 243.714 127.08 245.357 127.08C247 127.08 248.493 126.987 249.837 126.8C251.218 126.613 252.376 126.352 253.309 126.016C254.28 125.68 255.026 125.288 255.549 124.84C256.072 124.392 256.333 123.925 256.333 123.44ZM269.381 111.456H221.445V105.24H269.381V111.456ZM264.061 103.336C262.306 103.224 260.496 102.925 258.629 102.44C256.8 101.955 255.045 101.301 253.365 100.48C251.685 99.6213 250.136 98.632 248.717 97.512C247.336 96.392 246.234 95.1413 245.413 93.76C244.741 95.1787 243.733 96.4667 242.389 97.624C241.082 98.744 239.57 99.7147 237.853 100.536C236.173 101.357 234.362 102.011 232.421 102.496C230.48 102.944 228.538 103.224 226.597 103.336L223.517 97.288C225.57 97.2133 227.512 96.952 229.341 96.504C231.17 96.0187 232.813 95.4027 234.269 94.656C235.725 93.872 236.957 92.9947 237.965 92.024C239.01 91.0533 239.776 90.008 240.261 88.888H226.093V82.728H265.125V88.888H250.453C251.013 90.008 251.89 91.072 253.085 92.08C254.28 93.0507 255.642 93.9093 257.173 94.656C258.704 95.4027 260.328 96 262.045 96.448C263.8 96.896 265.517 97.1387 267.197 97.176L264.061 103.336ZM264.509 123.328C264.509 124.784 264.08 126.109 263.221 127.304C262.362 128.499 261.112 129.525 259.469 130.384C257.826 131.243 255.829 131.896 253.477 132.344C251.125 132.829 248.456 133.072 245.469 133.072C242.445 133.072 239.738 132.829 237.349 132.344C234.997 131.896 233 131.243 231.357 130.384C229.714 129.525 228.464 128.499 227.605 127.304C226.746 126.109 226.317 124.784 226.317 123.328C226.317 120.304 227.978 117.933 231.301 116.216C234.661 114.461 239.346 113.584 245.357 113.584C248.381 113.584 251.069 113.808 253.421 114.256C255.81 114.704 257.826 115.357 259.469 116.216C261.112 117.037 262.362 118.064 263.221 119.296C264.08 120.491 264.509 121.835 264.509 123.328ZM295.753 118.288C292.355 118.288 289.723 118.68 287.857 119.464C285.99 120.211 285.057 121.237 285.057 122.544C285.057 123.851 285.99 124.877 287.857 125.624C289.723 126.371 292.355 126.744 295.753 126.744C299.262 126.744 301.931 126.371 303.761 125.624C305.627 124.877 306.561 123.851 306.561 122.544C306.561 121.237 305.627 120.211 303.761 119.464C301.931 118.68 299.262 118.288 295.753 118.288ZM299.001 92.752H306.281V80.376H314.233V112.184H306.281V99.08H299.001V92.752ZM272.177 83.792H300.177V90.232H290.433C290.619 92.0613 291.049 93.7227 291.721 95.216C292.393 96.672 293.251 97.96 294.297 99.08C295.379 100.2 296.593 101.171 297.937 101.992C299.318 102.776 300.793 103.429 302.361 103.952L298.105 110.112C297.059 109.776 295.958 109.272 294.801 108.6C293.643 107.928 292.523 107.144 291.441 106.248C290.358 105.352 289.369 104.363 288.473 103.28C287.577 102.197 286.886 101.096 286.401 99.976C286.065 101.171 285.449 102.384 284.553 103.616C283.694 104.811 282.667 105.931 281.473 106.976C280.315 108.021 279.046 108.955 277.665 109.776C276.321 110.597 275.014 111.213 273.745 111.624L269.713 105.352C273.446 104.083 276.377 102.179 278.505 99.64C280.633 97.1013 281.846 93.9653 282.145 90.232H272.177V83.792ZM314.569 122.544C314.569 124.149 314.139 125.587 313.281 126.856C312.422 128.163 311.171 129.264 309.529 130.16C307.923 131.056 305.963 131.747 303.649 132.232C301.334 132.717 298.702 132.96 295.753 132.96C292.841 132.96 290.227 132.717 287.913 132.232C285.598 131.747 283.638 131.056 282.033 130.16C280.427 129.264 279.195 128.163 278.337 126.856C277.478 125.587 277.049 124.149 277.049 122.544C277.049 120.939 277.478 119.483 278.337 118.176C279.195 116.869 280.427 115.768 282.033 114.872C283.638 113.939 285.598 113.229 287.913 112.744C290.227 112.259 292.841 112.016 295.753 112.016C298.702 112.016 301.334 112.259 303.649 112.744C305.963 113.229 307.923 113.939 309.529 114.872C311.171 115.768 312.422 116.869 313.281 118.176C314.139 119.483 314.569 120.939 314.569 122.544ZM347.956 111.568C347.956 110.859 347.825 110.205 347.564 109.608C347.34 108.973 347.022 108.432 346.612 107.984C346.201 107.499 345.716 107.125 345.156 106.864C344.596 106.603 343.998 106.472 343.364 106.472C342.057 106.472 340.974 106.957 340.116 107.928C339.257 108.899 338.828 110.112 338.828 111.568C338.828 113.061 339.257 114.293 340.116 115.264C340.974 116.197 342.057 116.664 343.364 116.664C343.998 116.664 344.596 116.533 345.156 116.272C345.716 116.011 346.201 115.656 346.612 115.208C347.022 114.723 347.34 114.181 347.564 113.584C347.825 112.949 347.956 112.277 347.956 111.568ZM337.316 90.4V84.184H350.756V90.4H337.316ZM354.564 111.568C354.564 113.136 354.284 114.592 353.724 115.936C353.201 117.243 352.436 118.381 351.428 119.352C350.457 120.323 349.281 121.088 347.9 121.648C346.556 122.208 345.044 122.488 343.364 122.488C341.684 122.488 340.153 122.208 338.772 121.648C337.39 121.088 336.196 120.323 335.188 119.352C334.217 118.381 333.47 117.224 332.948 115.88C332.425 114.536 332.164 113.099 332.164 111.568C332.164 109.963 332.444 108.507 333.004 107.2C333.564 105.856 334.329 104.699 335.3 103.728C336.308 102.757 337.484 102.011 338.828 101.488C340.209 100.928 341.721 100.648 343.364 100.648C345.044 100.648 346.556 100.928 347.9 101.488C349.281 102.011 350.457 102.776 351.428 103.784C352.436 104.755 353.201 105.912 353.724 107.256C354.284 108.563 354.564 110 354.564 111.568ZM369.516 133.464V80.376H377.02V133.464H369.516ZM359.436 131.112V115.824H355.628V108.824H359.436V103.672H355.516V99.36H331.324V93.2H355.908V96.728H359.436V81.328H366.66V131.112H359.436ZM418.287 112.632V100.48H414.759V112.632H407.367V81.328H414.759V94.264H418.287V80.376H425.735V112.632H418.287ZM389.783 105.352C390.082 105.352 390.362 105.371 390.623 105.408C390.885 105.408 391.165 105.408 391.463 105.408C392.658 105.408 393.871 105.371 395.103 105.296C396.373 105.221 397.567 105.128 398.687 105.016C399.845 104.904 400.927 104.792 401.935 104.68C402.943 104.531 403.783 104.381 404.455 104.232C404.567 105.24 404.661 106.229 404.735 107.2C404.81 108.171 404.903 109.16 405.015 110.168C404.194 110.355 403.018 110.541 401.487 110.728C399.957 110.877 398.183 111.008 396.167 111.12C394.151 111.232 391.949 111.325 389.559 111.4C387.207 111.475 384.781 111.512 382.279 111.512V84.576H402.999V90.736H389.783V94.824H402.383V100.984H389.783V105.352ZM425.735 114.928V133.52H417.895V121.144H388.495V114.928H425.735ZM431.891 119.576H439.843V127.136H431.891V119.576ZM431.275 83.904H440.179L439.227 114.2H432.507L431.275 83.904Z" fill="#F5F0E2"/>
</svg>
