<svg width="279" height="134" viewBox="0 0 279 134" fill="none" xmlns="http://www.w3.org/2000/svg">
<path d="M7.058 28.802C4.202 28.802 1.652 28.02 0.0880001 27.034L0.768 24.11C2.128 24.926 4.236 25.708 6.174 25.708C9.778 25.708 11.954 23.804 11.954 20.642C11.954 17.242 9.914 15.882 6.31 15.882C4.712 15.882 2.434 16.596 1.278 17.14L2.196 3.88H14.81V6.906H5.086L4.644 13.536C5.528 13.298 6.922 13.06 7.874 13.06C12.838 13.06 15.83 15.508 15.83 20.676C15.83 25.164 12.566 28.802 7.058 28.802ZM30.0101 15.202V6.022H22.4621V15.202H30.0101ZM33.7161 18.126H18.7561V3.098H33.7161V18.126ZM43.7121 31.76H22.1561V21.526H25.8621V28.768H43.7121V31.76ZM42.7601 0.513999V9.864H47.4861V12.958H42.7601V23.872H39.0201V0.513999H42.7601ZM62.6475 7.246C62.6475 5.546 60.9815 4.118 58.3295 4.118C55.6435 4.118 53.9435 5.546 53.9435 7.246C53.9435 8.912 55.6435 10.306 58.3295 10.306C60.9815 10.306 62.6475 8.912 62.6475 7.246ZM61.1855 23.736H57.4455V17.888C54.4535 18.024 51.4615 18.092 48.4695 18.126L47.9595 15.066C51.6315 15.066 55.1335 15.032 58.6695 14.896C63.0215 14.726 66.4215 14.488 69.2775 14.148L69.5155 16.902C66.7615 17.242 63.9735 17.48 61.1855 17.684V23.736ZM75.8735 31.93H52.5155V22.444H56.2215V28.938H75.8735V31.93ZM65.2995 21.934V19.214H71.5895V0.513999H75.2955V25.368H71.5895V21.934H65.2995ZM66.3195 7.246C66.3195 10.748 62.9875 13.128 58.3295 13.128C53.6715 13.128 50.2375 10.782 50.2375 7.178C50.2375 3.744 53.6715 1.262 58.3295 1.262C62.9875 1.262 66.3195 3.744 66.3195 7.246ZM101.618 14.318C101.618 9.15 99.7141 6.056 96.9601 6.056C94.2401 6.056 92.3701 9.15 92.3701 14.318C92.3701 19.486 94.2401 22.58 96.9601 22.58C99.7141 22.58 101.618 19.486 101.618 14.318ZM88.7321 14.318C88.7321 7.518 91.7921 3.03 96.9601 3.03C102.128 3.03 105.154 7.518 105.154 14.352C105.154 21.118 102.128 25.572 96.9601 25.572C91.7921 25.572 88.7321 21.118 88.7321 14.318ZM114.3 32.746H110.594V0.513999H114.3V32.746ZM137.043 14.862L134.901 17.752C132.249 16.63 128.951 13.944 127.557 10.884C126.571 14.25 123.205 17.242 119.975 18.602L117.697 15.678C122.321 13.808 125.619 9.966 125.619 5.002V1.942H129.427V4.832C129.427 9.864 133.371 13.638 137.043 14.862ZM140.035 26.354C140.035 24.178 137.383 22.92 132.861 22.92C128.407 22.92 125.789 24.178 125.789 26.354C125.789 28.496 128.407 29.754 132.861 29.754C137.383 29.754 140.035 28.496 140.035 26.354ZM143.843 26.354C143.843 30.196 139.797 32.746 132.861 32.746C125.993 32.746 121.981 30.196 121.981 26.354C121.981 22.444 125.993 19.894 132.861 19.894C139.797 19.894 143.843 22.444 143.843 26.354ZM148.127 11.428H143.401V19.588H139.695V0.513999H143.401V8.334H148.127V11.428ZM161.496 2.384H183.086C183.086 7.756 182.78 12.278 181.998 16.12H186.928V19.112H174.178V32.746H170.472V19.112H157.824V16.12H178.428C179.04 13.264 179.312 9.15 179.346 5.41H161.496V2.384ZM198.859 21.322V7.348H192.977V21.322H198.859ZM215.587 32.746H212.017V16.426H208.957V31.216H205.455V1.16H208.957V13.332H212.017V0.513999H215.587V32.746ZM202.361 4.424V24.212H189.475V4.424H202.361ZM244.043 0.513999V13.774H249.041V16.868H244.043V32.746H240.337V0.513999H244.043ZM223.303 5.444V2.418H233.095V5.444H223.303ZM237.515 11.054H218.781V8.062H237.515V11.054ZM232.211 19.486C232.211 17.208 230.511 15.644 228.199 15.644C225.853 15.644 224.187 17.208 224.187 19.486C224.187 21.73 225.853 23.294 228.199 23.294C230.715 23.294 232.211 21.73 232.211 19.486ZM235.883 19.486C235.883 23.362 232.789 26.354 228.199 26.354C223.575 26.354 220.481 23.464 220.481 19.486C220.481 15.644 223.575 12.618 228.199 12.618C232.789 12.618 235.883 15.542 235.883 19.486ZM278.72 28.054H249.616V25.062H260.496V14.012H264.202V25.062H278.72V28.054ZM252.982 3.608H275.116C275.116 9.184 275.014 16.324 273.688 21.696L270.152 21.152C271.104 16.936 271.376 10.952 271.376 6.6H252.982V3.608ZM13.212 64.25C13.212 59.082 11.308 55.75 8.554 55.75C5.902 55.75 3.998 59.082 3.998 64.25C3.998 69.384 5.902 72.716 8.554 72.716C11.308 72.716 13.212 69.384 13.212 64.25ZM0.36 64.216C0.36 57.45 3.386 52.758 8.554 52.758C13.79 52.758 16.782 57.45 16.782 64.25C16.782 71.016 13.79 75.674 8.554 75.674C3.386 75.674 0.36 71.016 0.36 64.216ZM26.642 82.746H22.902V65.61H17.972V62.55H22.902V50.514H26.642V82.746ZM56.3893 68.194H34.4253V53.404H56.0833V56.362H38.1313V65.236H56.3893V68.194ZM59.7893 75.504V78.462H30.6853V75.504H59.7893ZM71.6867 65.304V60.748H66.2467V65.304H71.6867ZM88.4147 74.45H84.8787V50.514H88.4147V74.45ZM89.2647 81.896H67.0627V71.662H70.7687V78.904H89.2647V81.896ZM75.3927 68.296H62.5407V52.928H66.2467V57.824H71.6867V52.86H75.3927V58.946H78.7587V51.126H82.2607V73.566H78.7587V62.04H75.3927V68.296ZM120.984 75.708V78.666H91.88V75.708H120.984ZM116.156 62.788H99.326V66.902H117.55V69.826H95.62V52.996H117.244V55.954H99.326V59.864H116.156V62.788ZM159.547 82.372H137.141V74.042H154.753V71.662H137.005V68.67H158.459V76.796H140.847V79.38H159.547V82.372ZM158.459 67.174H154.923V60.612H151.625V66.97H148.123V51.092H151.625V57.518H154.923V50.514H158.459V67.174ZM132.993 52.35H145.369C145.199 60.17 141.459 65.202 133.775 68.738L131.633 65.95C134.931 64.794 137.515 62.958 139.181 60.714L132.245 61.598L131.633 58.572L140.847 57.756C141.119 56.974 141.323 56.192 141.459 55.376H132.993V52.35ZM180.828 65.882L181.304 68.772C177.938 69.554 172.294 69.826 167.602 69.86H163.556V59.626H174.266V55.716H163.386V52.724H177.972V62.482H167.262V66.868C171.206 66.868 177.87 66.562 180.828 65.882ZM189.294 82.032H167.092V72.512H170.798V79.04H189.294V82.032ZM188.444 73.906H184.738V50.514H188.444V73.906ZM210.711 70.812L211.255 73.804C207.923 74.62 203.571 74.858 197.587 74.892H193.983V53.54H208.501V56.566H197.655V71.832C202.619 71.832 206.937 71.594 210.711 70.812ZM215.335 64.828H207.209V61.734H215.335V50.514H219.041V82.746H215.335V64.828ZM249.027 63.366H226.961V56.124H244.607V54.084H226.893V51.364H248.313V58.64H230.667V60.646H249.027V63.366ZM249.367 82.508H226.825V75.062H244.811V72.886H226.723V70.2H248.517V77.646H230.531V79.856H249.367V82.508ZM252.223 68.092H223.119V65.304H252.223V68.092ZM4.236 120.642H11.546V109.932L4.236 120.642ZM11.512 128.564V123.532H0.36V121.152L12.362 103.676H15.082V120.642H18.924V123.532H15.082V128.564H11.512ZM20.4179 133.018L20.9619 124.926H25.0079L23.4099 133.018H20.4179ZM34.8894 106.43C32.0334 106.43 30.3674 108.572 30.3674 111.734C30.3674 115.27 32.4074 116.834 35.0934 116.834C37.1334 116.834 39.0714 115.406 39.9894 114.148V113.502C39.9894 109.218 38.4594 106.43 34.8894 106.43ZM34.8214 103.506C40.5674 103.506 43.7634 107.348 43.7634 114.284V115.916C43.7634 124.994 39.7514 128.802 33.8014 128.802C31.3194 128.802 28.9734 128.02 27.8514 127.272L28.5994 124.518C29.6534 125.13 31.7614 125.742 33.6314 125.742C37.3714 125.742 39.7514 123.804 39.9894 117.31C38.6974 118.602 36.7254 119.69 34.1074 119.69C29.9254 119.69 26.7294 116.766 26.7294 112.074C26.7294 107.348 29.5514 103.506 34.8214 103.506ZM56.4637 125.844C59.9657 125.844 61.8017 123.43 61.8017 117.378V115.134C61.8017 109.184 59.9657 106.464 56.4977 106.464C52.9957 106.464 51.1597 109.048 51.1597 114.93V117.174C51.1597 123.056 52.9617 125.844 56.4637 125.844ZM56.4637 128.802C51.2617 128.802 47.1817 125.402 47.1817 117.038V115.304C47.1817 106.566 51.5677 103.506 56.5317 103.506C61.4957 103.506 65.6777 106.6 65.6777 115.168V117.004C65.6777 125.504 61.5637 128.802 56.4637 128.802ZM78.8931 125.844C82.3951 125.844 84.2311 123.43 84.2311 117.378V115.134C84.2311 109.184 82.3951 106.464 78.9271 106.464C75.4251 106.464 73.5891 109.048 73.5891 114.93V117.174C73.5891 123.056 75.3911 125.844 78.8931 125.844ZM78.8931 128.802C73.6911 128.802 69.6111 125.402 69.6111 117.038V115.304C69.6111 106.566 73.9971 103.506 78.9611 103.506C83.9251 103.506 88.1071 106.6 88.1071 115.168V117.004C88.1071 125.504 83.9931 128.802 78.8931 128.802ZM105.232 107.246C105.232 105.546 103.566 104.118 100.914 104.118C98.2285 104.118 96.5285 105.546 96.5285 107.246C96.5285 108.912 98.2285 110.306 100.914 110.306C103.566 110.306 105.232 108.912 105.232 107.246ZM103.77 123.736H100.03V117.888C97.0385 118.024 94.0465 118.092 91.0545 118.126L90.5445 115.066C94.2165 115.066 97.7185 115.032 101.254 114.896C105.606 114.726 109.006 114.488 111.862 114.148L112.1 116.902C109.346 117.242 106.558 117.48 103.77 117.684V123.736ZM118.458 131.93H95.1005V122.444H98.8065V128.938H118.458V131.93ZM107.884 121.934V119.214H114.174V100.514H117.88V125.368H114.174V121.934H107.884ZM108.904 107.246C108.904 110.748 105.572 113.128 100.914 113.128C96.2565 113.128 92.8225 110.782 92.8225 107.178C92.8225 103.744 96.2565 101.262 100.914 101.262C105.572 101.262 108.904 103.744 108.904 107.246ZM132.26 114.488C132.26 109.83 131.172 106.396 128.86 106.396C126.582 106.396 125.46 109.83 125.46 114.488C125.46 119.146 126.582 122.512 128.86 122.512C131.172 122.512 132.26 119.146 132.26 114.488ZM148.682 132.746H145.146V100.514H148.682V132.746ZM142.426 131.216H138.924V116.086H135.694C135.354 121.458 133.212 125.776 128.826 125.776C123.998 125.776 121.89 120.574 121.89 114.454C121.89 108.368 123.998 103.2 128.826 103.2C133.246 103.2 135.388 107.552 135.694 112.992H138.924V101.126H142.426V131.216ZM173.066 128.768C165.994 128.768 161.404 125.13 161.404 116.528V115.78C161.404 106.294 167.082 103.166 173.338 103.166C176.466 103.166 178.506 103.88 179.968 104.662V107.756C178.472 107.11 176.568 106.26 173.27 106.26C167.286 106.26 165.382 110.578 165.382 115.304V116.46C165.382 121.832 166.912 125.708 173.1 125.708C174.664 125.708 176.296 125.47 177.282 125.096V119.01H172.352V116.052H180.988V127.306C179.084 128.088 176.33 128.768 173.066 128.768ZM185.293 128.36V103.608H200.355V106.702H189.033V114.08H197.805V117.174H189.033V125.266H200.491V128.36H185.293ZM209.97 128.36V106.702H202.728V103.608H220.918V106.702H213.71V128.36H209.97ZM224.079 128.768V124.858H228.057V128.768H224.079ZM224.453 121.22L223.977 102.758H228.125L227.683 121.22H224.453Z" fill="#F5F0E2"/>
</svg>
