<svg width="410" height="133" viewBox="0 0 410 133" fill="none" xmlns="http://www.w3.org/2000/svg">
<path d="M5.018 28.53V7.654L0.7 8.606V6.396L6.786 3.642H8.792V28.53H5.018ZM20.8214 28.802C17.9654 28.802 15.4154 28.02 13.8514 27.034L14.5314 24.11C15.8914 24.926 17.9994 25.708 19.9374 25.708C23.5414 25.708 25.7174 23.804 25.7174 20.642C25.7174 17.242 23.6774 15.882 20.0734 15.882C18.4754 15.882 16.1974 16.596 15.0414 17.14L15.9594 3.88H28.5734V6.906H18.8494L18.4074 13.536C19.2914 13.298 20.6854 13.06 21.6374 13.06C26.6014 13.06 29.5934 15.508 29.5934 20.676C29.5934 25.164 26.3294 28.802 20.8214 28.802ZM43.7735 15.202V6.022H36.2255V15.202H43.7735ZM47.4795 18.126H32.5195V3.098H47.4795V18.126ZM57.4755 31.76H35.9195V21.526H39.6255V28.768H57.4755V31.76ZM56.5235 0.513999V9.864H61.2495V12.958H56.5235V23.872H52.7835V0.513999H56.5235ZM76.4108 7.246C76.4108 5.546 74.7448 4.118 72.0928 4.118C69.4068 4.118 67.7068 5.546 67.7068 7.246C67.7068 8.912 69.4068 10.306 72.0928 10.306C74.7448 10.306 76.4108 8.912 76.4108 7.246ZM74.9488 23.736H71.2088V17.888C68.2168 18.024 65.2248 18.092 62.2328 18.126L61.7228 15.066C65.3948 15.066 68.8968 15.032 72.4328 14.896C76.7848 14.726 80.1848 14.488 83.0408 14.148L83.2788 16.902C80.5248 17.242 77.7368 17.48 74.9488 17.684V23.736ZM89.6368 31.93H66.2788V22.444H69.9848V28.938H89.6368V31.93ZM79.0628 21.934V19.214H85.3528V0.513999H89.0588V25.368H85.3528V21.934H79.0628ZM80.0828 7.246C80.0828 10.748 76.7508 13.128 72.0928 13.128C67.4348 13.128 64.0008 10.782 64.0008 7.178C64.0008 3.744 67.4348 1.262 72.0928 1.262C76.7508 1.262 80.0828 3.744 80.0828 7.246ZM115.381 14.318C115.381 9.15 113.477 6.056 110.723 6.056C108.003 6.056 106.133 9.15 106.133 14.318C106.133 19.486 108.003 22.58 110.723 22.58C113.477 22.58 115.381 19.486 115.381 14.318ZM102.495 14.318C102.495 7.518 105.555 3.03 110.723 3.03C115.891 3.03 118.917 7.518 118.917 14.352C118.917 21.118 115.891 25.572 110.723 25.572C105.555 25.572 102.495 21.118 102.495 14.318ZM128.063 32.746H124.357V0.513999H128.063V32.746ZM150.807 14.862L148.665 17.752C146.013 16.63 142.715 13.944 141.321 10.884C140.335 14.25 136.969 17.242 133.739 18.602L131.461 15.678C136.085 13.808 139.383 9.966 139.383 5.002V1.942H143.191V4.832C143.191 9.864 147.135 13.638 150.807 14.862ZM153.799 26.354C153.799 24.178 151.147 22.92 146.625 22.92C142.171 22.92 139.553 24.178 139.553 26.354C139.553 28.496 142.171 29.754 146.625 29.754C151.147 29.754 153.799 28.496 153.799 26.354ZM157.607 26.354C157.607 30.196 153.561 32.746 146.625 32.746C139.757 32.746 135.745 30.196 135.745 26.354C135.745 22.444 139.757 19.894 146.625 19.894C153.561 19.894 157.607 22.444 157.607 26.354ZM161.891 11.428H157.165V19.588H153.459V0.513999H157.165V8.334H161.891V11.428ZM175.259 2.384H196.849C196.849 7.756 196.543 12.278 195.761 16.12H200.691V19.112H187.941V32.746H184.235V19.112H171.587V16.12H192.191C192.803 13.264 193.075 9.15 193.109 5.41H175.259V2.384ZM212.623 21.322V7.348H206.741V21.322H212.623ZM229.351 32.746H225.781V16.426H222.721V31.216H219.219V1.16H222.721V13.332H225.781V0.513999H229.351V32.746ZM216.125 4.424V24.212H203.239V4.424H216.125ZM257.806 0.513999V13.774H262.804V16.868H257.806V32.746H254.1V0.513999H257.806ZM237.066 5.444V2.418H246.858V5.444H237.066ZM251.278 11.054H232.544V8.062H251.278V11.054ZM245.974 19.486C245.974 17.208 244.274 15.644 241.962 15.644C239.616 15.644 237.95 17.208 237.95 19.486C237.95 21.73 239.616 23.294 241.962 23.294C244.478 23.294 245.974 21.73 245.974 19.486ZM249.646 19.486C249.646 23.362 246.552 26.354 241.962 26.354C237.338 26.354 234.244 23.464 234.244 19.486C234.244 15.644 237.338 12.618 241.962 12.618C246.552 12.618 249.646 15.542 249.646 19.486ZM275.789 15.338V6.192H268.479V15.338H275.789ZM279.495 18.228H264.773V3.302H279.495V18.228ZM290.579 31.828H268.887V21.866H272.593V28.836H290.579V31.828ZM281.161 8.674V5.648H286.193V0.513999H289.899V23.906H286.193V15.78H281.161V12.754H286.193V8.674H281.161ZM13.484 60.85C13.484 58.028 11.75 56.056 8.928 56.056C6.174 56.056 4.338 58.13 4.338 60.85C4.338 63.502 6.174 65.61 8.928 65.61C11.75 65.61 13.484 63.502 13.484 60.85ZM17.19 60.85C17.19 65.44 13.858 68.738 8.928 68.738C3.998 68.738 0.632 65.474 0.632 60.884C0.632 56.294 3.964 52.962 8.928 52.962C13.858 52.962 17.19 56.26 17.19 60.85ZM27.254 81.828H5.392V71.764H9.098V78.836H27.254V81.828ZM17.836 66.086L17.904 63.06H22.902V58.028H17.904L17.836 55.002H22.902V50.514H26.608V73.906H22.902V66.086H17.836ZM42.9593 62.686V55.138H35.4113V62.686H42.9593ZM46.6653 65.576H31.7053V52.248H46.6653V65.576ZM56.7633 82.508H34.9693V74.008H51.9693V71.424H34.8333V68.432H55.7093V76.762H38.6753V79.55H56.7633V82.508ZM60.4013 60.34H55.7093V66.732H51.9693V50.514H55.7093V57.28H60.4013V60.34ZM88.39 56.464H70.54V53.472H88.39V56.464ZM100.154 66.188H95.156V82.746H91.45V50.514H95.156V63.094H100.154V66.188ZM89.716 70.982L89.988 73.906C87.744 74.246 83.868 74.62 79.754 74.824C76.524 74.994 73.022 75.096 69.996 75.096L69.486 71.968C71.016 71.968 72.546 71.968 74.076 71.934L72.988 59.15L76.66 58.674L77.442 71.866C78.768 71.832 80.128 71.764 81.454 71.696L82.27 58.64L85.84 59.048L84.718 71.492C86.384 71.356 88.05 71.186 89.716 70.982ZM127.079 50.514V82.746H123.373V50.514H127.079ZM119.905 71.254L120.415 74.178C116.947 74.892 112.085 75.232 105.999 75.266L102.599 75.3V53.404H117.355V56.362H106.271V62.618H116.675V65.542H106.271V72.24C111.065 72.24 116.131 72.036 119.905 71.254ZM159.148 55.342H141.366V52.384H159.148V55.342ZM166.696 67.174H162.99V50.514H166.696V67.174ZM147.588 56.804L148.064 63.74C149.458 63.706 150.852 63.672 152.246 63.604L152.654 56.77L156.224 57.144L155.544 63.4C157.278 63.298 158.876 63.128 160.202 62.958L160.508 65.78C158.162 66.188 154.15 66.528 150.342 66.698C147.18 66.868 143.78 66.97 140.822 66.97L140.312 63.876C141.672 63.876 143.168 63.842 144.732 63.808L143.984 57.144L147.588 56.804ZM167.784 82.508H145.752V74.28H162.99V71.798H145.616V68.84H166.696V77.034H149.458V79.584H167.784V82.508ZM198.653 61.938L196.953 64.964C192.193 64.148 186.957 61.02 185.359 57.416C183.931 61.02 178.695 64.114 173.799 64.998L172.167 61.938C177.879 61.292 183.421 57.518 183.421 52.86V51.262H187.331V52.86C187.331 57.518 193.451 61.462 198.653 61.938ZM187.127 82.78H183.421V71.084H170.773V68.126H199.877V71.084H187.127V82.78ZM223.029 79.38V74.654H208.783V79.38H223.029ZM227.517 54.254H204.159V51.262H227.517V54.254ZM227.483 63.434H204.227V60.442H209.055L208.205 55.478L211.843 55.274L212.557 60.442H219.153L219.969 55.24L223.607 55.614L222.655 60.442H227.483V63.434ZM226.735 82.338H205.077V71.764H214.019V68.84H201.371V65.848H230.475V68.84H217.725V71.764H226.735V82.338ZM233.056 83.018L233.6 74.926H237.646L236.048 83.018H233.056ZM268.243 66.256L266.101 69.18C263.381 68.058 260.083 65.1 258.655 62.006C257.669 65.372 254.201 68.806 251.039 70.064L248.761 67.14C253.317 65.372 256.717 61.054 256.717 56.056V52.316H260.525V55.886C260.525 60.986 264.503 64.998 268.243 66.256ZM276.403 81.828H254.677V71.798H258.383V78.836H276.403V81.828ZM271.983 61.088H266.135V57.994H271.983V50.514H275.723V73.906H271.983V61.088ZM308.394 80.162L306.592 83.086C302.206 82.236 297.48 78.972 295.984 76.048C294.76 79.04 290.034 82.304 285.376 83.052L283.608 80.128C288.81 79.55 294.148 75.81 294.148 71.22V70.2H297.99V71.22C297.99 75.81 303.464 79.346 308.394 80.162ZM295.95 65.848L294.08 68.534C291.87 67.48 288.878 64.828 288.062 62.618C287.178 65.134 284.628 68.228 281.704 69.724L279.596 67.14C283.472 65.032 286.124 61.224 286.124 56.6V52.894H289.728V56.532C289.728 61.122 292.754 64.318 295.95 65.848ZM300.778 68.738H297.276V60.782H293.332V57.688H297.276V51.092H300.778V68.738ZM306.898 71.662H303.362V50.514H306.898V71.662ZM340.871 61.598V54.866H326.659V61.598H340.871ZM335.567 82.78H331.861V71.934H319.213V68.942H348.317V71.934H335.567V82.78ZM344.577 51.874V64.59H322.953V51.874H344.577ZM375.514 68.194H353.55V53.404H375.208V56.362H357.256V65.236H375.514V68.194ZM378.914 75.504V78.462H349.81V75.504H378.914ZM402.337 76.898C402.337 75.062 399.515 73.94 394.959 73.94C390.437 73.94 387.615 75.062 387.615 76.898C387.615 78.734 390.437 79.754 394.959 79.754C399.515 79.754 402.337 78.734 402.337 76.898ZM406.145 76.864C406.145 80.468 402.065 82.746 394.993 82.746C387.853 82.746 383.807 80.468 383.807 76.864C383.807 73.294 387.853 70.948 394.959 70.948C402.065 70.948 406.145 73.26 406.145 76.864ZM406.043 62.414H384.249V51.398H405.805V54.39H387.955V59.456H406.043V62.414ZM409.511 65.44V68.398H380.407V65.44H409.511ZM12.668 121.798V113.978H4.984V121.798H12.668ZM16.374 124.79H1.278V103.166H4.984V111.088H12.668V103.132H16.374V124.79ZM25.078 100.514V112.89H30.076V115.984H25.078V132.746H21.372V100.514H25.078ZM56.9673 120.302H47.0393V125.708H59.7893V128.666H30.6853V125.708H43.3333V120.302H34.4253V109.898H52.3433V105.716H34.2893V102.758H56.0493V112.89H38.1313V117.31H56.9673V120.302ZM82.712 121.798V113.978H75.028V121.798H82.712ZM86.418 124.79H71.322V103.166H75.028V111.088H82.712V103.132H86.418V124.79ZM95.122 100.514V112.89H100.12V115.984H95.122V132.746H91.416V100.514H95.122ZM127.011 120.302H117.083V125.708H129.833V128.666H100.729V125.708H113.377V120.302H104.469V109.898H122.387V105.716H104.333V102.758H126.093V112.89H108.175V117.31H127.011V120.302ZM162.106 126.762C162.106 124.926 159.284 123.838 154.728 123.838C150.206 123.838 147.384 124.926 147.384 126.762C147.384 128.632 150.206 129.652 154.728 129.652C159.284 129.652 162.106 128.632 162.106 126.762ZM169.28 115.882V118.874H140.176V115.882H169.28ZM167.852 110.918L166.22 113.842C161.392 113.264 156.496 110.544 154.762 107.484C153.266 110.646 148.642 113.298 143.304 113.876L141.706 110.952C146.772 110.646 151.6 108.368 152.654 104.798H143.1V101.806H166.424V104.798H156.938C158.128 108.368 163.5 110.646 167.852 110.918ZM165.914 126.762C165.914 130.298 161.834 132.644 154.762 132.644C147.622 132.644 143.576 130.298 143.576 126.762C143.576 123.226 147.622 120.846 154.728 120.846C161.834 120.846 165.914 123.226 165.914 126.762ZM186.583 123.056C182.129 123.056 179.477 124.28 179.477 126.422C179.477 128.53 182.129 129.754 186.583 129.754C191.139 129.754 193.757 128.53 193.757 126.422C193.757 124.28 191.139 123.056 186.583 123.056ZM188.351 111.428V108.334H193.587V100.514H197.327V119.894H193.587V111.428H188.351ZM171.895 105.648V102.588H188.861V105.648H182.401V105.784C182.401 110.578 186.005 114.114 189.745 115.27L187.705 118.228C185.053 117.174 181.891 114.624 180.497 111.632C179.545 114.76 176.077 117.922 172.881 119.146L170.637 116.256C175.159 114.59 178.593 110.714 178.593 105.954V105.648H171.895ZM197.565 126.422C197.565 130.23 193.553 132.746 186.583 132.746C179.647 132.746 175.669 130.23 175.669 126.422C175.669 122.546 179.647 120.03 186.583 120.03C193.553 120.03 197.565 122.546 197.565 126.422ZM203.309 128.768V124.858H207.287V128.768H203.309ZM203.683 121.22L203.207 102.758H207.355L206.913 121.22H203.683Z" fill="#F5F0E2"/>
</svg>
