<svg width="64" height="37" viewBox="0 0 64 37" fill="none" xmlns="http://www.w3.org/2000/svg">
<path d="M16.6514 36.6348C13.3962 36.6348 10.5885 35.8942 8.22852 34.4131C5.86849 32.932 4.04557 30.8324 2.75977 28.1143C1.49023 25.3799 0.855469 22.141 0.855469 18.3975V18.3486C0.855469 14.6051 1.49023 11.3743 2.75977 8.65625C4.04557 5.92188 5.86849 3.82227 8.22852 2.35742C10.5885 0.876302 13.3962 0.135742 16.6514 0.135742C19.9066 0.135742 22.7061 0.876302 25.0498 2.35742C27.4098 3.82227 29.2246 5.92188 30.4941 8.65625C31.7637 11.3743 32.3984 14.6051 32.3984 18.3486V18.3975C32.3984 22.141 31.7637 25.3799 30.4941 28.1143C29.2246 30.8324 27.4098 32.932 25.0498 34.4131C22.7061 35.8942 19.9066 36.6348 16.6514 36.6348ZM16.6514 28.6758C17.7907 28.6758 18.751 28.2852 19.5322 27.5039C20.3135 26.7064 20.9076 25.5426 21.3145 24.0127C21.7214 22.4827 21.9248 20.611 21.9248 18.3975V18.3486C21.9248 16.1351 21.7214 14.2715 21.3145 12.7578C20.9076 11.2279 20.3135 10.0723 19.5322 9.29102C18.751 8.49349 17.7907 8.09473 16.6514 8.09473C15.512 8.09473 14.5436 8.49349 13.7461 9.29102C12.9648 10.0723 12.3708 11.2279 11.9639 12.7578C11.557 14.2715 11.3535 16.1351 11.3535 18.3486V18.3975C11.3535 20.611 11.557 22.4827 11.9639 24.0127C12.3708 25.5426 12.9648 26.7064 13.7461 27.5039C14.5436 28.2852 15.512 28.6758 16.6514 28.6758ZM48.209 36.6348C45.3118 36.6348 42.7728 36.179 40.5918 35.2676C38.4271 34.3561 36.71 33.0866 35.4404 31.459C34.1709 29.8151 33.4466 27.8945 33.2676 25.6973L33.2432 25.3799H43.1064L43.1553 25.6729C43.2855 26.4541 43.79 27.1377 44.6689 27.7236C45.5479 28.3096 46.7197 28.6025 48.1846 28.6025C49.1611 28.6025 49.9993 28.4561 50.6992 28.1631C51.3991 27.8538 51.9362 27.4388 52.3105 26.918C52.6849 26.3809 52.8721 25.7705 52.8721 25.0869V25.0381C52.8721 23.8337 52.4001 22.9222 51.4561 22.3037C50.512 21.6689 49.1449 21.3516 47.3545 21.3516H43.7168V14.54H47.3545C48.4287 14.54 49.3402 14.4017 50.0889 14.125C50.8376 13.8483 51.4072 13.4495 51.7979 12.9287C52.2048 12.3916 52.4082 11.765 52.4082 11.0488V11C52.4082 10.3164 52.2373 9.73047 51.8955 9.24219C51.5537 8.73763 51.0573 8.35514 50.4062 8.09473C49.7715 7.81803 49.0146 7.67969 48.1357 7.67969C47.2243 7.67969 46.4268 7.81803 45.7432 8.09473C45.0758 8.37142 44.5469 8.75391 44.1562 9.24219C43.7656 9.73047 43.5296 10.292 43.4482 10.9268L43.4238 11.1465H34.0977L34.1221 10.7803C34.2686 8.61556 34.9277 6.74382 36.0996 5.16504C37.2878 3.56999 38.9072 2.33301 40.958 1.4541C43.0088 0.575195 45.4014 0.135742 48.1357 0.135742C50.9515 0.135742 53.3929 0.526367 55.46 1.30762C57.527 2.07259 59.1221 3.16309 60.2451 4.5791C61.3682 5.97884 61.9297 7.639 61.9297 9.55957V9.6084C61.9297 11.0895 61.596 12.3835 60.9287 13.4902C60.2614 14.5807 59.3743 15.4678 58.2676 16.1514C57.1771 16.835 55.9889 17.307 54.7031 17.5674V17.7627C57.3724 18.0394 59.4883 18.8695 61.0508 20.2529C62.6133 21.6364 63.3945 23.4674 63.3945 25.7461V25.7949C63.3945 28.0247 62.776 29.9535 61.5391 31.5811C60.3184 33.1924 58.5768 34.4375 56.3145 35.3164C54.0521 36.1953 51.3503 36.6348 48.209 36.6348Z" fill="#0075FF"/>
</svg>
