<svg width="256" height="133" viewBox="0 0 256 133" fill="none" xmlns="http://www.w3.org/2000/svg">
<path d="M1.04 28.36V26.184L6.242 20.744C9.642 17.174 12.226 14.25 12.226 11.02C12.226 7.892 10.628 6.566 7.364 6.566C5.494 6.566 3.488 7.45 2.094 8.368L1.346 5.512C2.944 4.526 5.426 3.472 8.214 3.472C13.45 3.472 16.17 6.158 16.17 10.578C16.17 14.896 12.906 18.364 9.404 22.002L6.072 25.334H16.51V28.36H1.04ZM31.0062 15.202V6.022H23.4582V15.202H31.0062ZM34.7122 18.126H19.7522V3.098H34.7122V18.126ZM44.7082 31.76H23.1522V21.526H26.8582V28.768H44.7082V31.76ZM43.7562 0.513999V9.864H48.4822V12.958H43.7562V23.872H40.0162V0.513999H43.7562ZM63.6436 7.246C63.6436 5.546 61.9776 4.118 59.3256 4.118C56.6396 4.118 54.9396 5.546 54.9396 7.246C54.9396 8.912 56.6396 10.306 59.3256 10.306C61.9776 10.306 63.6436 8.912 63.6436 7.246ZM62.1816 23.736H58.4416V17.888C55.4496 18.024 52.4576 18.092 49.4656 18.126L48.9556 15.066C52.6276 15.066 56.1296 15.032 59.6656 14.896C64.0176 14.726 67.4176 14.488 70.2736 14.148L70.5116 16.902C67.7576 17.242 64.9696 17.48 62.1816 17.684V23.736ZM76.8696 31.93H53.5116V22.444H57.2176V28.938H76.8696V31.93ZM66.2956 21.934V19.214H72.5856V0.513999H76.2916V25.368H72.5856V21.934H66.2956ZM67.3156 7.246C67.3156 10.748 63.9836 13.128 59.3256 13.128C54.6676 13.128 51.2336 10.782 51.2336 7.178C51.2336 3.744 54.6676 1.262 59.3256 1.262C63.9836 1.262 67.3156 3.744 67.3156 7.246ZM102.614 14.318C102.614 9.15 100.71 6.056 97.9562 6.056C95.2362 6.056 93.3662 9.15 93.3662 14.318C93.3662 19.486 95.2362 22.58 97.9562 22.58C100.71 22.58 102.614 19.486 102.614 14.318ZM89.7282 14.318C89.7282 7.518 92.7882 3.03 97.9562 3.03C103.124 3.03 106.15 7.518 106.15 14.352C106.15 21.118 103.124 25.572 97.9562 25.572C92.7882 25.572 89.7282 21.118 89.7282 14.318ZM115.296 32.746H111.59V0.513999H115.296V32.746ZM138.04 14.862L135.898 17.752C133.246 16.63 129.948 13.944 128.554 10.884C127.568 14.25 124.202 17.242 120.972 18.602L118.694 15.678C123.318 13.808 126.616 9.966 126.616 5.002V1.942H130.424V4.832C130.424 9.864 134.368 13.638 138.04 14.862ZM141.032 26.354C141.032 24.178 138.38 22.92 133.858 22.92C129.404 22.92 126.786 24.178 126.786 26.354C126.786 28.496 129.404 29.754 133.858 29.754C138.38 29.754 141.032 28.496 141.032 26.354ZM144.84 26.354C144.84 30.196 140.794 32.746 133.858 32.746C126.99 32.746 122.978 30.196 122.978 26.354C122.978 22.444 126.99 19.894 133.858 19.894C140.794 19.894 144.84 22.444 144.84 26.354ZM149.124 11.428H144.398V19.588H140.692V0.513999H144.398V8.334H149.124V11.428ZM162.492 2.384H184.082C184.082 7.756 183.776 12.278 182.994 16.12H187.924V19.112H175.174V32.746H171.468V19.112H158.82V16.12H179.424C180.036 13.264 180.308 9.15 180.342 5.41H162.492V2.384ZM199.856 21.322V7.348H193.974V21.322H199.856ZM216.584 32.746H213.014V16.426H209.954V31.216H206.452V1.16H209.954V13.332H213.014V0.513999H216.584V32.746ZM203.358 4.424V24.212H190.472V4.424H203.358ZM248.516 22.512L246.306 25.3C243.552 23.532 240.118 19.554 238.928 16.018C237.84 19.826 234.61 23.872 231.074 26.014L228.796 23.294C233.794 20.064 236.956 14.726 236.956 8.572V3.302H240.798V8.368C240.798 14.556 243.79 19.554 248.516 22.512ZM255.418 32.746H251.712V0.513999H255.418V32.746ZM26.54 82.542H3.828V74.484H21.644V72.206H3.692V69.214H25.35V77.204H7.534V79.55H26.54V82.542ZM25.69 61.36H16.442V63.944H29.192V66.936H0.0880001V63.944H12.736V61.36H3.93V51.194H25.486V54.186H7.636V58.368H25.69V61.36ZM52.6153 77C52.6153 75.13 49.7933 74.076 45.2373 74.076C40.7153 74.076 37.8933 75.13 37.8933 77C37.8933 78.802 40.7153 79.788 45.2373 79.788C49.7933 79.788 52.6153 78.802 52.6153 77ZM56.8313 54.322H33.4733V51.33H56.8313V54.322ZM56.7973 63.536H33.5413V60.544H38.3353L37.4853 55.682L41.1233 55.308L41.8373 60.544H48.4673L49.2833 55.308L52.9213 55.682L51.9693 60.544H56.7973V63.536ZM56.4233 76.966C56.4233 80.536 52.3433 82.78 45.2713 82.78C38.1313 82.78 34.0853 80.536 34.0853 76.966C34.0853 73.702 37.4173 71.526 43.3333 71.152V68.704H30.6853V65.712H59.7893V68.704H47.0393V71.152C53.0233 71.492 56.4233 73.702 56.4233 76.966ZM75.1207 64.318C75.1207 59.15 73.2167 56.056 70.4627 56.056C67.7427 56.056 65.8727 59.15 65.8727 64.318C65.8727 69.486 67.7427 72.58 70.4627 72.58C73.2167 72.58 75.1207 69.486 75.1207 64.318ZM62.2347 64.318C62.2347 57.518 65.2947 53.03 70.4627 53.03C75.6307 53.03 78.6567 57.518 78.6567 64.352C78.6567 71.118 75.6307 75.572 70.4627 75.572C65.2947 75.572 62.2347 71.118 62.2347 64.318ZM87.8027 82.746H84.0967V50.514H87.8027V82.746ZM126.467 81.862H104.503V72.444H108.209V78.87H126.467V81.862ZM126.331 62.482H104.639V51.738H108.345V59.49H126.331V62.482ZM117.355 75.368H113.649V69.214H100.729V66.256H129.833V69.214H117.355V75.368ZM150.605 72.07L148.395 74.858C145.641 73.09 141.901 68.976 140.711 65.44C139.623 69.248 136.393 73.294 132.857 75.436L130.579 72.716C135.577 69.486 138.773 64.148 138.773 57.994V53.302H142.581V57.79C142.581 63.978 145.879 69.112 150.605 72.07ZM156.351 50.514V63.128H161.213V66.222H156.351V82.746H152.645V50.514H156.351ZM180.046 64.284L180.522 67.174C177.292 67.888 171.92 68.296 167.194 68.296H163.114V58.538H173.62V55.172H162.978V52.18H177.326V61.394H166.82V65.304C171.07 65.304 175.66 65.27 180.046 64.284ZM183.208 79.38V74.11H169.914V79.38H183.208ZM186.948 82.304H166.208V71.22H186.948V82.304ZM191.64 61.734H186.948V69.486H183.208V50.514H186.948V58.674H191.64V61.734ZM10.526 121.254V107.314H4.644V121.254H10.526ZM27.254 132.746H23.684V100.514H27.254V132.746ZM14.028 104.39V112.312H17.496V101.16H20.998V131.216H17.496V115.372H14.028V124.144H1.142V104.39H14.028ZM44.5233 114.318C44.5233 109.15 42.6193 106.056 39.8653 106.056C37.1453 106.056 35.2753 109.15 35.2753 114.318C35.2753 119.486 37.1453 122.58 39.8653 122.58C42.6193 122.58 44.5233 119.486 44.5233 114.318ZM31.6373 114.318C31.6373 107.518 34.6973 103.03 39.8653 103.03C45.0333 103.03 48.0593 107.518 48.0593 114.352C48.0593 121.118 45.0333 125.572 39.8653 125.572C34.6973 125.572 31.6373 121.118 31.6373 114.318ZM57.2053 132.746H53.4993V100.514H57.2053V132.746ZM63.0507 103.88H77.4327C77.3987 114.93 72.3667 122.308 63.1187 127.136L60.7387 124.484C65.4307 122.342 69.3067 118.908 71.5167 114.454L62.0307 115.474L61.4527 112.244L72.7407 111.36C73.1487 109.966 73.4547 108.47 73.5567 106.906H63.0507V103.88ZM87.8367 132.746H84.1307V116.324H77.5687V113.23H84.1307V100.514H87.8367V132.746ZM122.659 126.762C122.659 124.926 119.837 123.838 115.281 123.838C110.759 123.838 107.937 124.926 107.937 126.762C107.937 128.632 110.759 129.652 115.281 129.652C119.837 129.652 122.659 128.632 122.659 126.762ZM129.833 115.882V118.874H100.729V115.882H129.833ZM128.405 110.918L126.773 113.842C121.945 113.264 117.049 110.544 115.315 107.484C113.819 110.646 109.195 113.298 103.857 113.876L102.259 110.952C107.325 110.646 112.153 108.368 113.207 104.798H103.653V101.806H126.977V104.798H117.491C118.681 108.368 124.053 110.646 128.405 110.918ZM126.467 126.762C126.467 130.298 122.387 132.644 115.315 132.644C108.175 132.644 104.129 130.298 104.129 126.762C104.129 123.226 108.175 120.846 115.281 120.846C122.387 120.846 126.467 123.226 126.467 126.762ZM147.137 123.056C142.683 123.056 140.031 124.28 140.031 126.422C140.031 128.53 142.683 129.754 147.137 129.754C151.693 129.754 154.311 128.53 154.311 126.422C154.311 124.28 151.693 123.056 147.137 123.056ZM148.905 111.428V108.334H154.141V100.514H157.881V119.894H154.141V111.428H148.905ZM132.449 105.648V102.588H149.415V105.648H142.955V105.784C142.955 110.578 146.559 114.114 150.299 115.27L148.259 118.228C145.607 117.174 142.445 114.624 141.051 111.632C140.099 114.76 136.631 117.922 133.435 119.146L131.191 116.256C135.713 114.59 139.147 110.714 139.147 105.954V105.648H132.449ZM158.119 126.422C158.119 130.23 154.107 132.746 147.137 132.746C140.201 132.746 136.223 130.23 136.223 126.422C136.223 122.546 140.201 120.03 147.137 120.03C154.107 120.03 158.119 122.546 158.119 126.422ZM163.862 128.768V124.858H167.84V128.768H163.862ZM164.236 121.22L163.76 102.758H167.908L167.466 121.22H164.236Z" fill="#4E59B9"/>
</svg>
