<svg width="425" height="214" viewBox="0 0 425 214" fill="none" xmlns="http://www.w3.org/2000/svg">
<path d="M8.968 8.272V2.616H24.368V8.272H8.968ZM44.808 36.552H36.912V23.672H29.576V17.456H36.912V0.375998H44.808V36.552ZM47.272 47.584L43.688 53.744C36.296 52.848 29.184 48.312 26.776 43.888C24.648 48.312 16.976 52.848 9.304 53.744L6.056 47.416C14.792 46.688 22.912 41.48 22.912 34.368V33.696H30.92V34.368C30.92 41.536 38.48 46.632 47.272 47.584ZM2.416 16.616V10.624H30.304V16.616H20.728C21.12 22.104 27 25.912 31.984 27.088C30.864 29.048 29.856 31.064 28.736 33.08C24.592 32.072 18.656 28.208 16.752 24.344C15.184 28.32 9.752 32.912 4.488 34.368L0.792 28.376C7.008 26.752 12.104 22.16 12.44 16.616H2.416ZM55.1636 3.008H91.6756C91.8996 11.24 91.1156 20.424 89.8836 26.136H97.4436V32.296H77.2276V53.464H69.3876V32.296H49.5076V26.136H82.5476C83.6116 21.656 84.1716 14.488 84.0036 9.336H55.1636V3.008ZM114.463 33.64V12.416H107.351V33.64H114.463ZM121.911 6.48V39.576H100.071V6.48H121.911ZM143.471 53.464H136.023V27.144H132.663V51.112H125.215V1.216H132.663V20.928H136.023V0.375998H143.471V53.464ZM188.603 0.375998V20.424H195.883V26.92H188.603V53.464H180.763V0.375998H188.603ZM178.019 39.688C173.203 40.584 164.635 41.368 156.739 41.368C154.163 41.368 151.699 41.256 149.067 41.256V18.632H165.643V10.96H149.011V4.8H173.539V24.792H157.075V34.816H158.475C163.571 34.816 171.019 34.536 177.179 33.36C177.459 35.488 177.683 37.56 178.019 39.688ZM214.639 24.176V11.52H205.343V24.176H214.639ZM240.455 52.176H203.887V35.544H211.895V46.016H240.455V52.176ZM231.775 15.216H225.615V9.112H231.775V0.375998H239.671V38.904H231.775V26.864H225.615V20.704H231.775V15.216ZM222.423 30.392H197.559V5.304H222.423V30.392ZM10.984 106.808C10.984 108.992 13 110.952 15.968 110.952C18.992 110.952 21.064 108.992 21.064 106.808C21.064 104.68 18.992 102.496 15.968 102.496C13 102.496 10.984 104.68 10.984 106.808ZM43.576 132.568H7.064V118.456H15.128V126.296H43.576V132.568ZM42.512 80.376V98.24H49.624V104.68H42.512V120.36H34.672V80.376H42.512ZM8.072 87.656V81.888H24.032V87.656H8.072ZM28.792 106.808C28.792 112.464 23.584 116.776 15.968 116.776C8.352 116.776 3.144 112.464 3.144 106.808C3.144 101.208 8.296 96.784 15.968 96.784C23.584 96.784 28.792 101.208 28.792 106.808ZM31.368 95.888H0.4V89.84H31.368V95.888ZM75.0996 118.288C68.3796 118.288 64.4036 119.912 64.4036 122.544C64.4036 125.12 68.3796 126.744 75.0996 126.744C82.0436 126.744 85.9076 125.12 85.9076 122.544C85.9076 119.912 82.0436 118.288 75.0996 118.288ZM78.3476 99.08V92.752H85.6276V80.376H93.5796V112.184H85.6276V99.08H78.3476ZM51.5236 90.232V83.792H79.5236V90.232H69.7796C70.5076 97.568 75.4916 101.88 81.7076 103.952L77.4516 110.112C73.3076 108.824 67.7076 104.456 65.7476 99.976C64.4036 104.736 58.1876 110 53.0916 111.624L49.0596 105.352C56.5076 102.832 60.9316 97.624 61.4916 90.232H51.5236ZM93.9156 122.544C93.9156 128.928 86.8596 132.96 75.0996 132.96C63.4516 132.96 56.3956 128.928 56.3956 122.544C56.3956 116.048 63.4516 112.016 75.0996 112.016C86.8596 112.016 93.9156 116.048 93.9156 122.544ZM127.343 91.632H99.1753V85.36H127.343V91.632ZM140.895 131.952H104.495V116.72H112.503V125.792H140.895V131.952ZM139.887 80.376V95.216H146.775V101.768H139.887V118.848H132.047V80.376H139.887ZM128.967 105.352L129.639 111.288C122.583 112.352 108.975 113.08 98.4473 113.08L97.4953 106.584C99.5113 106.696 101.751 106.696 103.991 106.696L102.759 94.432L110.319 93.76C110.431 98.072 110.655 102.328 110.767 106.528L115.471 106.36C115.695 102.16 115.863 98.016 116.143 93.816L123.647 94.376L122.415 105.912C124.879 105.744 127.119 105.52 128.967 105.352ZM203.066 133.128H165.826V118.848H193.546V116.328H165.77V110.168H201.498V124.336H173.722V126.744H203.066V133.128ZM201.554 97.736H187.778V101.376H207.77V107.592H159.834V101.376H179.938V97.736H166.106V81.776H201.33V87.992H173.946V91.576H201.554V97.736ZM243.326 123.776C243.326 121.48 238.958 119.968 232.406 119.968C226.022 119.968 221.654 121.48 221.654 123.776C221.654 125.96 226.022 127.472 232.406 127.472C238.958 127.472 243.326 125.96 243.326 123.776ZM251.838 88.384H213.142V82.224H251.838V88.384ZM251.39 102.776H213.478V96.672H220.254C219.862 94.768 219.526 92.864 219.246 90.904L226.694 90.064L227.646 96.672H237.166L238.342 90.12L245.902 90.96L244.446 96.672H251.39V102.776ZM251.446 123.72C251.446 129.544 244.278 133.408 232.462 133.408C220.534 133.408 213.534 129.544 213.534 123.72C213.534 118.456 219.078 114.76 228.542 114.032V111.68H208.55V105.352H256.486V111.68H236.382V114.032C245.902 114.816 251.446 118.456 251.446 123.72ZM279.161 102.944C279.161 94.88 276.361 90.736 272.553 90.736C268.969 90.736 266.169 94.88 266.169 102.944C266.169 110.952 268.969 115.096 272.553 115.096C276.361 115.096 279.161 110.952 279.161 102.944ZM258.665 102.944C258.665 91.856 263.873 83.792 272.553 83.792C281.401 83.792 286.553 91.8 286.553 102.944C286.553 113.864 281.401 121.984 272.553 121.984C263.873 121.984 258.665 113.92 258.665 102.944ZM301.337 133.464H293.497V80.376H301.337V133.464ZM43.184 212.176H6.896V196.776H14.736V206.016H43.184V212.176ZM42.96 181.096H7.232V162.504H15.184V174.936H42.96V181.096ZM29.24 200.472H21.232V191.904H0.792V185.632H48.728V191.904H29.24V200.472ZM81.6516 194.424C80.1396 196.552 78.6276 198.568 77.1156 200.64C72.6916 198.232 66.6436 192.408 65.0756 187.256C63.7316 192.744 57.5716 199.576 52.8116 201.984C51.2436 200.024 49.5636 198.008 47.9396 196.048C57.1236 190.616 60.8756 182.776 60.8756 171.632V164.744H69.0516V171.352C69.0516 182.44 73.3076 189.776 81.6516 194.424ZM91.1156 160.376V180.088H98.4516V186.528H91.1156V213.464H83.3316V160.376H91.1156ZM128.855 188.096C125.159 189.16 115.191 190 108.639 190C105.727 190 102.871 189.944 99.9593 189.888V173.256H115.695V169.168H100.015V162.952H123.703V179.024H107.855V183.616C108.919 183.672 110.095 183.728 111.327 183.728C116.927 183.728 123.927 183.112 128.183 182.104C128.407 184.064 128.687 186.08 128.855 188.096ZM131.935 206.8V200.528H112.615V206.8H131.935ZM139.887 212.792H104.775V194.592H139.887V212.792ZM147.223 179.584H139.887V191.792H132.047V160.376H139.887V173.088H147.223V179.584ZM162.563 193.696V172.416H155.731V193.696H162.563ZM192.187 213.464H184.739V160.376H192.187V213.464ZM170.011 166.48V179.248H174.099V161.328H181.435V211.112H174.099V185.464H170.011V199.632H148.451V166.48H170.011ZM217.551 182.944C217.551 174.88 214.751 170.736 210.943 170.736C207.359 170.736 204.559 174.88 204.559 182.944C204.559 190.952 207.359 195.096 210.943 195.096C214.751 195.096 217.551 190.952 217.551 182.944ZM197.055 182.944C197.055 171.856 202.263 163.792 210.943 163.792C219.791 163.792 224.943 171.8 224.943 182.944C224.943 193.864 219.791 201.984 210.943 201.984C202.263 201.984 197.055 193.92 197.055 182.944ZM239.727 213.464H231.887V160.376H239.727V213.464ZM246.946 165.64H271.474C271.418 183.896 266.266 196.608 248.29 205.96C246.834 203.944 245.378 201.816 243.922 199.744C252.042 196.216 257.53 191.064 260.442 184.4C255.402 184.96 250.418 185.408 245.378 185.968L244.37 179.248C250.362 178.856 256.41 178.576 262.402 178.184C262.794 176.28 263.018 174.264 263.13 172.136H246.946V165.64ZM288.442 213.464H280.546V187.256H271.194V180.592H280.546V160.376H288.442V213.464ZM334.918 160.376V181.152H342.31V187.592H334.918V213.464H327.246V160.376H334.918ZM311.286 165.808H323.27C323.662 181.656 321.422 194.368 312.966 205.456L306.638 201.2C313.414 193.36 315.878 181.488 315.766 172.472H311.286V165.808ZM294.598 165.808H308.766C309.046 181.544 306.078 192.912 297.846 201.648L291.854 197.224C299.078 190.392 301.206 180.032 301.15 172.472H294.598V165.808ZM385.929 213.464H377.921V160.376H385.929V213.464ZM374.785 194.872L370.417 201.088C366.161 198.568 359.945 192.296 358.265 187.088C356.697 192.856 350.817 199.744 345.889 202.376L341.241 196.328C350.201 191.064 354.009 183.28 354.065 171.856H343.873V165.304H372.433V171.856H362.241C362.353 183.112 366.609 190.448 374.785 194.872ZM395.109 207.472V199.912H403.117V207.472H395.109ZM395.501 194.536V189.944C395.501 185.856 397.405 184.176 401.213 181.152C403.621 179.248 404.685 177.904 404.685 174.992C404.685 171.52 402.501 170.232 398.077 170.232C394.773 170.232 392.757 170.736 390.461 171.576V165.752C393.205 164.576 396.285 163.96 400.429 163.96C407.485 163.96 413.029 166.872 413.029 174.264C413.029 179.472 411.293 181.376 407.093 184.568C403.845 186.976 402.501 187.928 402.501 190.56V194.536H395.501ZM416.71 207.136V199.576H424.662V207.136H416.71ZM417.326 194.2L416.094 163.904H424.998L424.046 194.2H417.326Z" fill="#0E1B92"/>
</svg>
