<svg width="200" height="72" viewBox="0 0 200 72" fill="none" xmlns="http://www.w3.org/2000/svg">
<rect width="200" height="72" fill="#0075FF"/>
<path d="M39.4875 48V46.124C45.5635 40.748 48.6995 36.744 48.6995 33.356C48.6995 31.116 47.5235 29.576 45.1995 29.576C43.5755 29.576 42.2315 30.612 41.1395 31.872L39.3195 30.08C41.0835 28.148 42.9035 27 45.5915 27C49.3715 27 51.8075 29.464 51.8075 33.188C51.8075 37.164 48.6435 41.28 44.2755 45.452C45.3395 45.34 46.6275 45.256 47.6355 45.256H52.7875V48H39.4875ZM64.9762 36.66V29.352H58.8162V36.66H64.9762ZM67.8042 27.028V38.984H55.9602V27.028H67.8042ZM61.7282 41.588V47.328H75.8402V49.68H58.8162V41.588H61.7282ZM74.8322 32.376H78.4162V34.756H74.8322V43.38H71.9482V24.844H74.8322V32.376ZM93.394 39.712H98.35V24.844H101.234V44.08H98.35V41.728H93.394V39.712ZM88.354 27.952C86.254 27.952 84.826 28.848 84.826 30.276C84.826 31.704 86.254 32.6 88.354 32.6C90.426 32.6 91.854 31.704 91.854 30.276C91.854 28.848 90.426 27.952 88.354 27.952ZM88.354 34.728C84.63 34.728 82.082 32.964 82.082 30.276C82.082 27.588 84.63 25.824 88.354 25.824C92.05 25.824 94.598 27.588 94.598 30.276C94.598 32.964 92.05 34.728 88.354 34.728ZM87.206 43.268V38.564C84.798 38.676 82.53 38.704 80.514 38.704L80.15 36.352C84.798 36.324 91.014 36.268 96.362 35.596L96.586 37.668C94.458 38.032 92.246 38.256 90.09 38.396V43.268H87.206ZM86.45 47.328H101.822V49.68H83.566V42.204H86.45V47.328ZM129.109 24.844H132.021V50.212H129.109V24.844ZM118.553 26.72C122.333 26.72 125.077 30.192 125.077 35.624C125.077 41.112 122.333 44.556 118.553 44.556C114.801 44.556 112.057 41.112 112.057 35.624C112.057 30.192 114.801 26.72 118.553 26.72ZM118.553 29.324C116.369 29.324 114.829 31.704 114.829 35.624C114.829 39.6 116.369 41.98 118.553 41.98C120.765 41.98 122.305 39.6 122.305 35.624C122.305 31.704 120.765 29.324 118.553 29.324ZM151.115 36.436L149.603 38.704C146.887 37.724 144.871 35.792 143.807 33.412C142.687 36.156 140.615 38.34 137.703 39.404L136.163 37.108C140.139 35.736 142.295 32.292 142.295 28.652V26.16H145.207V28.876C145.207 32.124 147.363 35.204 151.115 36.436ZM148.007 47.888C151.535 47.888 153.579 47.02 153.579 45.396C153.579 43.828 151.535 42.932 148.007 42.932C144.479 42.932 142.435 43.828 142.435 45.396C142.435 47.02 144.479 47.888 148.007 47.888ZM148.007 40.664C153.243 40.664 156.435 42.428 156.435 45.396C156.435 48.392 153.243 50.156 148.007 50.156C142.799 50.156 139.579 48.392 139.579 45.396C139.579 42.428 142.799 40.664 148.007 40.664ZM156.155 31.116H159.739V33.496H156.155V40.048H153.271V24.844H156.155V31.116Z" fill="white"/>
</svg>
