<svg width="413" height="214" viewBox="0 0 413 214" fill="none" xmlns="http://www.w3.org/2000/svg">
<path d="M21.512 22.944C21.512 14.88 18.768 10.736 14.96 10.736C11.32 10.736 8.576 14.88 8.576 22.944C8.576 30.952 11.32 35.096 14.96 35.096C18.768 35.096 21.512 30.952 21.512 22.944ZM0.96 22.944C0.96 11.856 6.28 3.792 14.96 3.792C23.752 3.792 28.96 11.8 28.96 22.944C28.96 33.864 23.752 41.984 14.96 41.984C6.28 41.984 0.96 33.92 0.96 22.944ZM42.512 0.375998V20.424H49.904V26.864H42.512V53.464H34.616V0.375998H42.512ZM84.2276 24.12V10.568H62.6116V24.12H84.2276ZM97.4436 46.856H49.5076V40.64H69.5556V30.336H54.7716V4.352H92.1236V30.336H77.3956V40.64H97.4436V46.856ZM121.743 39.912C118.047 40.808 111.215 41.368 105.615 41.368C103.599 41.368 101.695 41.312 99.7913 41.312V19.192H110.767V11.968H100.015V5.472H118.607V25.8H107.575V34.872H108.807C112.223 34.872 117.991 34.536 121.183 33.752C121.351 35.824 121.519 37.84 121.743 39.912ZM132.999 51.056H125.663V25.744H120.679V19.36H125.663V1.328H132.999V51.056ZM143.471 53.464H135.967V0.375998H143.471V53.464ZM180.483 12.528V7.88H161.219V12.528H180.483ZM190.115 53.184H152.483V39.016H180.819V36.776H152.483V30.56H188.771V44.504H160.323V46.744H190.115V53.184ZM188.491 18.52H174.827V22.104H194.875V28.32H146.939V22.104H166.987V18.52H153.323V1.832H188.491V18.52ZM212.231 23.504C212.231 17.232 211.223 11.52 207.919 11.52C204.727 11.52 203.719 17.232 203.719 23.504C203.719 29.832 204.727 35.432 207.919 35.432C211.223 35.432 212.231 29.832 212.231 23.504ZM240.903 53.464H233.567V0.375998H240.903V53.464ZM229.983 51.056H222.703V26.528H219.399C218.783 34.872 215.479 42.992 207.863 42.992C199.351 42.992 196.215 32.8 196.215 23.392C196.215 14.208 199.351 4.184 207.863 4.184C215.255 4.184 218.503 11.632 219.287 19.64H222.703V1.384H229.983V51.056ZM276.738 34.928L272.258 41.312C267.778 38.904 261.674 33.248 260.106 28.04C258.762 33.528 252.658 40.136 247.898 42.656L243.026 36.552C251.874 31.12 255.962 23.224 255.962 12.08V4.744H264.138V11.8C264.138 22.888 268.394 30.224 276.738 34.928ZM288.666 53.464H280.714V24.904H271.026V18.296H280.714V0.375998H288.666V53.464ZM8.968 88.272V82.616H24.368V88.272H8.968ZM44.808 116.552H36.912V103.672H29.576V97.456H36.912V80.376H44.808V116.552ZM47.272 127.584L43.688 133.744C36.296 132.848 29.184 128.312 26.776 123.888C24.648 128.312 16.976 132.848 9.304 133.744L6.056 127.416C14.792 126.688 22.912 121.48 22.912 114.368V113.696H30.92V114.368C30.92 121.536 38.48 126.632 47.272 127.584ZM2.416 96.616V90.624H30.304V96.616H20.728C21.12 102.104 27 105.912 31.984 107.088C30.864 109.048 29.856 111.064 28.736 113.08C24.592 112.072 18.656 108.208 16.752 104.344C15.184 108.32 9.752 112.912 4.488 114.368L0.792 108.376C7.008 106.752 12.104 102.16 12.44 96.616H2.416ZM55.1636 83.008H91.6756C91.8996 91.24 91.1156 100.424 89.8836 106.136H97.4436V112.296H77.2276V133.464H69.3876V112.296H49.5076V106.136H82.5476C83.6116 101.656 84.1716 94.488 84.0036 89.336H55.1636V83.008ZM114.463 113.64V92.416H107.351V113.64H114.463ZM121.911 86.48V119.576H100.071V86.48H121.911ZM143.471 133.464H136.023V107.144H132.663V131.112H125.215V81.216H132.663V100.928H136.023V80.376H143.471V133.464ZM188.603 80.376V100.424H195.883V106.92H188.603V133.464H180.763V80.376H188.603ZM178.019 119.688C173.203 120.584 164.635 121.368 156.739 121.368C154.163 121.368 151.699 121.256 149.067 121.256V98.632H165.643V90.96H149.011V84.8H173.539V104.792H157.075V114.816H158.475C163.571 114.816 171.019 114.536 177.179 113.36C177.459 115.488 177.683 117.56 178.019 119.688ZM214.639 104.176V91.52H205.343V104.176H214.639ZM240.455 132.176H203.887V115.544H211.895V126.016H240.455V132.176ZM231.775 95.216H225.615V89.112H231.775V80.376H239.671V118.904H231.775V106.864H225.615V100.704H231.775V95.216ZM222.423 110.392H197.559V85.304H222.423V110.392ZM265.441 88.272V82.616H280.841V88.272H265.441ZM301.281 116.552H293.385V103.672H286.049V97.456H293.385V80.376H301.281V116.552ZM303.745 127.584L300.161 133.744C292.769 132.848 285.657 128.312 283.249 123.888C281.121 128.312 273.449 132.848 265.777 133.744L262.529 127.416C271.265 126.688 279.385 121.48 279.385 114.368V113.696H287.393V114.368C287.393 121.536 294.953 126.632 303.745 127.584ZM258.889 96.616V90.624H286.777V96.616H277.201C277.593 102.104 283.473 105.912 288.457 107.088C287.337 109.048 286.329 111.064 285.209 113.08C281.065 112.072 275.129 108.208 273.225 104.344C271.657 108.32 266.225 112.912 260.961 114.368L257.265 108.376C263.481 106.752 268.577 102.16 268.913 96.616H258.889ZM324.532 83.008H361.044C361.268 91.24 360.484 100.424 359.252 106.136H366.812V112.296H346.596V133.464H338.756V112.296H318.876V106.136H351.916C352.98 101.656 353.54 94.488 353.372 89.336H324.532V83.008ZM383.832 113.64V92.416H376.72V113.64H383.832ZM391.28 86.48V119.576H369.44V86.48H391.28ZM412.84 133.464H405.392V107.144H402.032V131.112H394.584V81.216H402.032V100.928H405.392V80.376H412.84V133.464ZM36.184 206.296H26.552L11.88 185.632C16.752 178.856 21.736 172.136 26.608 165.416C29.576 165.416 32.432 165.472 35.344 165.472C30.584 171.912 25.824 178.352 21.008 184.792C26.104 191.96 31.144 199.128 36.184 206.296ZM3.144 206.296V165.472H11.6V206.296H3.144ZM38.4664 206.296V165.472H46.9784V206.296H38.4664ZM61.2357 206.296V171.856H49.8117V165.472H81.1157V171.856H69.6357V206.296H61.2357ZM136.041 160.376V181.152H143.433V187.592H136.041V213.464H128.369V160.376H136.041ZM112.409 165.808H124.393C124.785 181.656 122.545 194.368 114.089 205.456L107.761 201.2C114.537 193.36 117.001 181.488 116.889 172.472H112.409V165.808ZM95.7212 165.808H109.889C110.169 181.544 107.201 192.912 98.9692 201.648L92.9772 197.224C100.201 190.392 102.329 180.032 102.273 172.472H95.7212V165.808ZM187.053 213.464H179.045V160.376H187.053V213.464ZM175.909 194.872L171.541 201.088C167.285 198.568 161.069 192.296 159.389 187.088C157.821 192.856 151.941 199.744 147.013 202.376L142.365 196.328C151.325 191.064 155.133 183.28 155.189 171.856H144.997V165.304H173.557V171.856H163.365C163.477 183.112 167.733 190.448 175.909 194.872ZM196.232 207.472V199.912H204.24V207.472H196.232ZM196.624 194.536V189.944C196.624 185.856 198.528 184.176 202.336 181.152C204.744 179.248 205.808 177.904 205.808 174.992C205.808 171.52 203.624 170.232 199.2 170.232C195.896 170.232 193.88 170.736 191.584 171.576V165.752C194.328 164.576 197.408 163.96 201.552 163.96C208.608 163.96 214.152 166.872 214.152 174.264C214.152 179.472 212.416 181.376 208.216 184.568C204.968 186.976 203.624 187.928 203.624 190.56V194.536H196.624ZM217.833 207.136V199.576H225.785V207.136H217.833ZM218.449 194.2L217.217 163.904H226.121L225.169 194.2H218.449Z" fill="#0E1B92"/>
</svg>
