<svg width="258" height="84" viewBox="0 0 258 84" fill="none" xmlns="http://www.w3.org/2000/svg">
<path d="M5.236 20.642H12.546V9.932L5.236 20.642ZM12.512 28.564V23.532H1.36V21.152L13.362 3.676H16.082V20.642H19.924V23.532H16.082V28.564H12.512ZM33.434 15.202V6.022H25.886V15.202H33.434ZM37.14 18.126H22.18V3.098H37.14V18.126ZM47.136 31.76H25.58V21.526H29.286V28.768H47.136V31.76ZM46.184 0.513999V9.864H50.91V12.958H46.184V23.872H42.444V0.513999H46.184ZM66.0713 7.246C66.0713 5.546 64.4053 4.118 61.7533 4.118C59.0673 4.118 57.3673 5.546 57.3673 7.246C57.3673 8.912 59.0673 10.306 61.7533 10.306C64.4053 10.306 66.0713 8.912 66.0713 7.246ZM64.6093 23.736H60.8693V17.888C57.8773 18.024 54.8853 18.092 51.8933 18.126L51.3833 15.066C55.0553 15.066 58.5573 15.032 62.0933 14.896C66.4453 14.726 69.8453 14.488 72.7013 14.148L72.9393 16.902C70.1853 17.242 67.3973 17.48 64.6093 17.684V23.736ZM79.2973 31.93H55.9393V22.444H59.6453V28.938H79.2973V31.93ZM68.7233 21.934V19.214H75.0133V0.513999H78.7193V25.368H75.0133V21.934H68.7233ZM69.7433 7.246C69.7433 10.748 66.4113 13.128 61.7533 13.128C57.0953 13.128 53.6613 10.782 53.6613 7.178C53.6613 3.744 57.0953 1.262 61.7533 1.262C66.4113 1.262 69.7433 3.744 69.7433 7.246ZM105.042 14.318C105.042 9.15 103.138 6.056 100.384 6.056C97.6639 6.056 95.7939 9.15 95.7939 14.318C95.7939 19.486 97.6639 22.58 100.384 22.58C103.138 22.58 105.042 19.486 105.042 14.318ZM92.1559 14.318C92.1559 7.518 95.2159 3.03 100.384 3.03C105.552 3.03 108.578 7.518 108.578 14.352C108.578 21.118 105.552 25.572 100.384 25.572C95.2159 25.572 92.1559 21.118 92.1559 14.318ZM117.724 32.746H114.018V0.513999H117.724V32.746ZM140.467 14.862L138.325 17.752C135.673 16.63 132.375 13.944 130.981 10.884C129.995 14.25 126.629 17.242 123.399 18.602L121.121 15.678C125.745 13.808 129.043 9.966 129.043 5.002V1.942H132.851V4.832C132.851 9.864 136.795 13.638 140.467 14.862ZM143.459 26.354C143.459 24.178 140.807 22.92 136.285 22.92C131.831 22.92 129.213 24.178 129.213 26.354C129.213 28.496 131.831 29.754 136.285 29.754C140.807 29.754 143.459 28.496 143.459 26.354ZM147.267 26.354C147.267 30.196 143.221 32.746 136.285 32.746C129.417 32.746 125.405 30.196 125.405 26.354C125.405 22.444 129.417 19.894 136.285 19.894C143.221 19.894 147.267 22.444 147.267 26.354ZM151.551 11.428H146.825V19.588H143.119V0.513999H146.825V8.334H151.551V11.428ZM164.92 2.384H186.51C186.51 7.756 186.204 12.278 185.422 16.12H190.352V19.112H177.602V32.746H173.896V19.112H161.248V16.12H181.852C182.464 13.264 182.736 9.15 182.77 5.41H164.92V2.384ZM202.283 21.322V7.348H196.401V21.322H202.283ZM219.011 32.746H215.441V16.426H212.381V31.216H208.879V1.16H212.381V13.332H215.441V0.513999H219.011V32.746ZM205.785 4.424V24.212H192.899V4.424H205.785ZM250.944 22.512L248.734 25.3C245.98 23.532 242.546 19.554 241.356 16.018C240.268 19.826 237.038 23.872 233.502 26.014L231.224 23.294C236.222 20.064 239.384 14.726 239.384 8.572V3.302H243.226V8.368C243.226 14.556 246.218 19.554 250.944 22.512ZM257.846 32.746H254.14V0.513999H257.846V32.746ZM6.086 54.152V51.16H15.232V54.152H6.086ZM27.608 71.934H23.902V63.91H18.632V60.85H23.902V50.514H27.608V71.934ZM29.342 80.196L27.54 83.12C23.154 82.27 18.428 79.108 16.932 76.184C15.708 79.176 10.982 82.338 6.324 83.086L4.556 80.162C9.758 79.584 15.096 76.218 15.096 71.628V70.71H18.938V71.628C18.938 76.218 24.412 79.38 29.342 80.196ZM2.21 59.15V56.192H19.074V59.15H12.648C13.158 63.196 16.456 65.542 19.89 66.46L18.02 69.35C15.402 68.534 12.07 66.222 10.642 63.366C9.554 66.324 6.256 69.146 2.924 70.268L0.85 67.412C5.066 66.018 8.262 63.23 8.67 59.15H2.21ZM44.2066 52.384H65.7966C65.7966 57.756 65.4906 62.278 64.7086 66.12H69.6386V69.112H56.8886V82.746H53.1826V69.112H40.5346V66.12H61.1386C61.7506 63.264 62.0226 59.15 62.0566 55.41H44.2066V52.384ZM81.57 71.322V57.348H75.688V71.322H81.57ZM98.298 82.746H94.728V66.426H91.668V81.216H88.166V51.16H91.668V63.332H94.728V50.514H98.298V82.746ZM85.072 54.424V74.212H72.186V54.424H85.072ZM112.381 78.36V53.608H116.121V78.36H112.381ZM126.355 78.36L116.801 65.746L126.287 53.608H130.197L121.017 65.372L130.707 78.36H126.355ZM133.617 78.36V53.608H137.391V78.36H133.617ZM147.799 78.36V56.702H140.557V53.608H158.747V56.702H151.539V78.36H147.799ZM190.75 76.762C190.75 74.926 187.928 73.838 183.372 73.838C178.85 73.838 176.028 74.926 176.028 76.762C176.028 78.632 178.85 79.652 183.372 79.652C187.928 79.652 190.75 78.632 190.75 76.762ZM197.924 65.882V68.874H168.82V65.882H197.924ZM196.496 60.918L194.864 63.842C190.036 63.264 185.14 60.544 183.406 57.484C181.91 60.646 177.286 63.298 171.948 63.876L170.35 60.952C175.416 60.646 180.244 58.368 181.298 54.798H171.744V51.806H195.068V54.798H185.582C186.772 58.368 192.144 60.646 196.496 60.918ZM194.558 76.762C194.558 80.298 190.478 82.644 183.406 82.644C176.266 82.644 172.22 80.298 172.22 76.762C172.22 73.226 176.266 70.846 183.372 70.846C190.478 70.846 194.558 73.226 194.558 76.762ZM215.227 73.056C210.773 73.056 208.121 74.28 208.121 76.422C208.121 78.53 210.773 79.754 215.227 79.754C219.783 79.754 222.401 78.53 222.401 76.422C222.401 74.28 219.783 73.056 215.227 73.056ZM216.995 61.428V58.334H222.231V50.514H225.971V69.894H222.231V61.428H216.995ZM200.539 55.648V52.588H217.505V55.648H211.045V55.784C211.045 60.578 214.649 64.114 218.389 65.27L216.349 68.228C213.697 67.174 210.535 64.624 209.141 61.632C208.189 64.76 204.721 67.922 201.525 69.146L199.281 66.256C203.803 64.59 207.237 60.714 207.237 55.954V55.648H200.539ZM226.209 76.422C226.209 80.23 222.197 82.746 215.227 82.746C208.291 82.746 204.313 80.23 204.313 76.422C204.313 72.546 208.291 70.03 215.227 70.03C222.197 70.03 226.209 72.546 226.209 76.422ZM231.952 78.768V74.858H235.93V78.768H231.952ZM232.326 71.22L231.85 52.758H235.998L235.556 71.22H232.326Z" fill="#4E59B9"/>
</svg>
