<svg width="532" height="180" viewBox="0 0 532 180" fill="none" xmlns="http://www.w3.org/2000/svg">
<g opacity="0.5" filter="url(#filter0_f_97_139)">
<rect x="36" y="38" width="460" height="106" rx="16" fill="#0075FF"/>
</g>
<rect x="16.5" y="0.5" width="499" height="119" rx="7.5" fill="#0075FF" stroke="#005ECD"/>
<g filter="url(#filter1_d_97_139)">
<path d="M145.545 58.76L142.845 62.792C140.217 61.892 136.617 58.904 135.357 56.096C134.349 59.264 130.425 62.72 127.185 63.764L124.593 59.84C129.705 58.076 132.657 53.9 132.657 48.896V45.296H137.877V48.644C137.877 54.116 141.261 57.356 145.545 58.76ZM153.681 76.256H129.525V65.528H134.601V72.26H153.681V76.256ZM152.961 67.724H147.813V42.956H152.961V67.724ZM161.455 44.648H184.819C184.963 50.192 184.423 55.7 183.631 59.336H188.527V63.332H181.543V77.156H176.395V63.332H169.627V77.156H164.515V63.332H157.711V59.336H178.879C179.635 56.348 179.995 52.388 179.887 48.716H161.455V44.648ZM211.322 63.008C211.322 61.172 210.026 59.732 208.37 59.732C206.714 59.732 205.454 61.136 205.454 63.008C205.454 64.916 206.714 66.284 208.37 66.284C210.026 66.284 211.322 64.844 211.322 63.008ZM213.122 49.4H204.482V45.404H213.122V49.4ZM215.57 63.008C215.57 67.004 212.654 70.028 208.37 70.028C204.014 70.028 201.17 66.968 201.17 63.008C201.17 58.904 204.194 55.988 208.37 55.988C212.654 55.988 215.57 58.976 215.57 63.008ZM230.006 77.084H225.182V42.956H230.006V77.084ZM223.346 75.572H218.702V65.744H216.254V61.244H218.702V57.932H216.182V55.16H200.63V51.2H216.434V53.468H218.702V43.568H223.346V75.572ZM263.123 63.692H258.335V55.88H256.067V63.692H251.315V43.568H256.067V51.884H258.335V42.956H263.123V63.692ZM240.011 56.204V59.012C240.371 59.012 240.731 59.048 241.091 59.048C244.151 59.048 247.679 58.652 249.443 58.292C249.587 59.588 249.659 60.812 249.803 62.108C247.679 62.576 241.631 62.972 235.187 62.972V45.656H248.507V49.616H240.011V52.244H248.111V56.204H240.011ZM239.183 65.168H263.123V77.12H258.083V69.164H239.183V65.168ZM299.382 58.832V54.116H285.846V58.832H299.382ZM308.058 72.872H277.242V68.84H290.13V62.792H280.806V45.152H285.846V50.228H299.382V45.152H304.458V62.792H295.17V68.84H308.058V72.872ZM329.007 64.16L329.439 68.228C326.019 69.02 320.367 69.272 314.715 69.272C313.599 69.272 312.375 69.236 311.331 69.2V54.692H321.807V49.76H311.259V45.8H326.919V58.652H316.443V65.06C319.503 65.204 325.047 64.844 329.007 64.16ZM338.655 77.084H333.579V59.372H328.899V55.088H333.579V42.956H338.655V77.084ZM375.048 60.02H370.116V77.084H365.076V42.956H370.116V55.844H375.048V60.02ZM345.096 46.484H361.296C361.008 56.492 356.94 65.096 345.852 71.18L343.008 67.22C350.46 63.728 355.248 57.176 355.932 50.66H345.096V46.484ZM378.465 46.484H394.665C394.377 56.456 390.309 65.096 379.221 71.18L376.377 67.22C383.829 63.728 388.617 57.176 389.301 50.624H378.465V46.484ZM404.961 77.084H399.885V42.956H404.961V77.084Z" fill="white"/>
</g>
<defs>
<filter id="filter0_f_97_139" x="0" y="2" width="532" height="178" filterUnits="userSpaceOnUse" color-interpolation-filters="sRGB">
<feFlood flood-opacity="0" result="BackgroundImageFix"/>
<feBlend mode="normal" in="SourceGraphic" in2="BackgroundImageFix" result="shape"/>
<feGaussianBlur stdDeviation="18" result="effect1_foregroundBlur_97_139"/>
</filter>
<filter id="filter1_d_97_139" x="122.593" y="42.956" width="284.368" height="38.2" filterUnits="userSpaceOnUse" color-interpolation-filters="sRGB">
<feFlood flood-opacity="0" result="BackgroundImageFix"/>
<feColorMatrix in="SourceAlpha" type="matrix" values="0 0 0 0 0 0 0 0 0 0 0 0 0 0 0 0 0 0 127 0" result="hardAlpha"/>
<feOffset dy="2"/>
<feGaussianBlur stdDeviation="1"/>
<feComposite in2="hardAlpha" operator="out"/>
<feColorMatrix type="matrix" values="0 0 0 0 0 0 0 0 0 0 0 0 0 0 0 0 0 0 0.2 0"/>
<feBlend mode="normal" in2="BackgroundImageFix" result="effect1_dropShadow_97_139"/>
<feBlend mode="normal" in="SourceGraphic" in2="effect1_dropShadow_97_139" result="shape"/>
</filter>
</defs>
</svg>
