<svg width="23" height="319" viewBox="0 0 23 319" fill="none" xmlns="http://www.w3.org/2000/svg">
<path d="M4.83 1.72636L20.89 1.72636L20.89 11.4504L18.404 11.4504L18.404 4.47636L14.444 4.47636L14.444 10.7024L12.046 10.7024L12.046 4.47636L7.294 4.47636L7.294 11.5824L4.83 11.5824L4.83 1.72636ZM4.808 18.7837L20.89 13.1077L20.89 16.1878L8.02 20.4777L20.89 24.8118L20.89 27.8258L4.808 22.0837L4.808 18.7837ZM4.83 29.4412L20.89 29.4412L20.89 39.1652L18.404 39.1652L18.404 32.1912L14.444 32.1912L14.444 38.4172L12.046 38.4172L12.046 32.1912L7.294 32.1912L7.294 39.2972L4.83 39.2972L4.83 29.4412ZM4.83 41.9666L20.89 41.9666L20.89 45.3326L9.318 51.4486L20.89 51.4486L20.89 54.1766L4.83 54.1766L4.83 50.9426L16.666 44.6726L4.83 44.6726L4.83 41.9666ZM18.338 63.9561L4.808 63.9561L4.808 61.1401L18.338 61.1401L18.338 56.4321L20.868 56.4321L20.868 68.6861L18.338 68.6861L18.338 63.9561ZM7.03 82.7465C7.03 84.6165 8.658 85.7385 12.31 85.7385L13.322 85.7385C17.084 85.7385 18.69 84.5945 18.69 82.7685C18.69 80.8765 17.084 79.7545 13.432 79.7545L12.398 79.7545C8.746 79.7545 7.03 80.8105 7.03 82.7465ZM4.588 82.7245C4.588 79.4905 6.81 76.7845 12.332 76.7845L13.212 76.7845C19.02 76.7845 21.154 79.7325 21.154 82.7685C21.154 85.8265 18.976 88.6645 13.3 88.6645L12.442 88.6645C6.678 88.6645 4.588 85.7825 4.588 82.7245ZM4.588 94.9837C4.588 93.2237 5.116 91.1337 5.688 90.3197L8.13 90.9577C7.646 91.6617 7.14 93.4657 7.14 94.5217C7.14 96.2597 7.91 97.3597 9.648 97.3597C11.232 97.3597 11.87 96.0837 11.98 94.4997L11.98 92.6517L14.334 92.6517L14.334 94.2797C14.334 95.8417 15.17 97.0737 16.578 97.0737C18.096 97.0737 18.58 95.9737 18.58 94.5437C18.58 93.5537 18.162 92.2557 17.678 91.3757L20.032 90.7377C20.67 91.7717 21.132 93.7737 21.132 95.3357C21.132 98.0197 19.746 100.044 17.128 100.044C15.214 100.044 13.982 99.1417 13.388 97.5137C12.948 99.2957 11.628 100.528 9.428 100.528C6.392 100.528 4.588 98.2617 4.588 94.9837Z" fill="#0075FF"/>
<path d="M16.99 141.524L11.864 139.896L11.864 143.174L16.99 141.524ZM5.308 134.176L21.478 140.072L21.478 143.284L5.308 149.092L5.308 145.374L9.026 144.12L9.026 138.972L5.308 137.828L5.308 134.176ZM5.308 156.892L21.478 156.892L21.478 161.952L9.774 164.768L21.478 167.826L21.478 172.842L5.308 172.842L5.308 169.608L17.21 169.608L5.308 166.484L5.308 163.008L17.144 160.038L5.308 160.038L5.308 156.892ZM8.014 182.423C8.014 184.381 9.818 186.207 12.986 186.207L13.844 186.207C17.122 186.207 18.772 184.469 18.772 182.313C18.772 180.355 17.078 178.551 13.91 178.551L13.074 178.551C9.708 178.551 8.014 180.355 8.014 182.423ZM5.066 182.335C5.066 178.705 7.86 175.185 13.294 175.185L13.646 175.185C18.904 175.185 21.72 178.617 21.72 182.401C21.72 186.075 19.146 189.595 13.668 189.595L13.294 189.595C7.992 189.595 5.066 186.053 5.066 182.335ZM14.042 195.254L14.042 197.058C14.042 198.664 14.812 199.918 16.418 199.918C17.826 199.918 18.64 198.84 18.64 197.058L18.64 195.254L14.042 195.254ZM5.308 191.998L21.478 191.998L21.478 197.454C21.478 201.084 19.586 203.174 16.528 203.174C14.35 203.174 12.656 201.92 11.974 200.358L5.308 204.472L5.308 200.666L11.27 197.41L11.27 195.254L5.308 195.254L5.308 191.998ZM5.308 206.37L21.478 206.37L21.478 216.138L18.53 216.138L18.53 209.648L15.164 209.648L15.164 215.368L12.37 215.368L12.37 209.648L8.234 209.648L8.234 216.292L5.308 216.292L5.308 206.37ZM14.944 228.382L14.944 230.714C14.944 231.924 15.34 233.068 16.924 233.068C18.134 233.068 18.64 232.188 18.64 230.824L18.64 228.382L14.944 228.382ZM8.124 228.382L8.124 231.11C8.124 232.54 8.828 233.486 10.236 233.486C11.71 233.486 12.392 232.584 12.392 231.066L12.392 228.382L8.124 228.382ZM5.308 225.126L21.478 225.126L21.478 231.286C21.478 234.762 20.048 236.28 17.452 236.28C15.978 236.28 14.416 235.554 13.932 233.816C13.514 235.686 12.216 236.94 10.016 236.94C7.244 236.94 5.308 235.202 5.308 231.616L5.308 225.126ZM5.308 239.521L21.478 239.521L21.478 249.289L18.53 249.289L18.53 242.799L15.164 242.799L15.164 248.519L12.37 248.519L12.37 242.799L8.234 242.799L8.23399 249.443L5.30799 249.443L5.308 239.521ZM5.30799 252.111L21.478 252.111L21.478 256.049L10.742 261.373L21.478 261.373L21.478 264.585L5.30799 264.585L5.30799 260.801L16.286 255.323L5.30799 255.323L5.30799 252.111ZM5.30799 267.45L21.478 267.45L21.478 277.218L18.53 277.218L18.53 270.728L15.164 270.728L15.164 276.448L12.37 276.448L12.37 270.728L8.23399 270.728L8.23399 277.372L5.30799 277.372L5.30799 267.45ZM5.30799 280.04L21.478 280.04L21.478 289.896L18.53 289.896L18.53 283.318L15.164 283.318L15.164 289.104L12.37 289.104L12.37 283.318L5.30799 283.318L5.30799 280.04ZM5.30799 292.458L21.478 292.458L21.478 295.802L5.30799 295.802L5.30799 292.458ZM18.442 305.969L5.30799 305.969L5.30799 302.625L18.442 302.625L18.442 298.181L21.478 298.181L21.478 310.435L18.442 310.435L18.442 305.969ZM3.83399 312.872L7.17799 312.872L7.17799 316.414L3.83399 316.414L3.83399 312.872ZM9.92799 313.356L22.006 312.982L22.006 316.414L9.92799 316.018L9.92799 313.356Z" fill="#0E1B92"/>
</svg>
