<svg width="23" height="321" viewBox="0 0 23 321" fill="none" xmlns="http://www.w3.org/2000/svg">
<path d="M4.83 1.69999L20.89 1.69999L20.89 11.424L18.404 11.424L18.404 4.44999L14.444 4.44999L14.444 10.676L12.046 10.676L12.046 4.44999L7.294 4.44999L7.294 11.556L4.83 11.556L4.83 1.69999ZM4.808 18.7574L20.89 13.0814L20.89 16.1614L8.02 20.4514L20.89 24.7854L20.89 27.7994L4.808 22.0574L4.808 18.7574ZM4.83 29.4148L20.89 29.4148L20.89 39.1388L18.404 39.1388L18.404 32.1648L14.444 32.1648L14.444 38.3908L12.046 38.3908L12.046 32.1648L7.294 32.1648L7.294 39.2708L4.83 39.2708L4.83 29.4148ZM4.83 41.9402L20.89 41.9402L20.89 45.3062L9.318 51.4222L20.89 51.4222L20.89 54.1502L4.83 54.1502L4.83 50.9162L16.666 44.6462L4.83 44.6462L4.83 41.9402ZM18.338 63.9297L4.808 63.9297L4.808 61.1137L18.338 61.1137L18.338 56.4057L20.868 56.4057L20.868 68.6597L18.338 68.6597L18.338 63.9297ZM7.03 82.7201C7.03 84.5901 8.658 85.7121 12.31 85.7121L13.322 85.7121C17.084 85.7121 18.69 84.5681 18.69 82.7421C18.69 80.8501 17.084 79.7281 13.432 79.7281L12.398 79.7281C8.746 79.7281 7.03 80.7841 7.03 82.7201ZM4.588 82.6981C4.588 79.4641 6.81 76.7581 12.332 76.7581L13.212 76.7581C19.02 76.7581 21.154 79.7061 21.154 82.7421C21.154 85.8001 18.976 88.6381 13.3 88.6381L12.442 88.6381C6.678 88.6381 4.588 85.7561 4.588 82.6981ZM10.154 93.891L10.154 97.301L15.522 97.301L10.154 93.891ZM4.786 97.257L7.712 97.257L7.712 90.591L9.582 90.591L21 97.851L21 99.985L10.154 99.985L10.154 102.163L7.712 102.163L7.712 99.985L4.786 99.985L4.786 97.257Z" fill="#0075FF"/>
<path d="M16.99 142.524L11.864 140.896L11.864 144.174L16.99 142.524ZM5.308 135.176L21.478 141.072L21.478 144.284L5.308 150.092L5.308 146.374L9.026 145.12L9.026 139.972L5.308 138.828L5.308 135.176ZM5.308 157.892L21.478 157.892L21.478 162.952L9.774 165.768L21.478 168.826L21.478 173.842L5.308 173.842L5.308 170.608L17.21 170.608L5.308 167.484L5.308 164.008L17.144 161.038L5.308 161.038L5.308 157.892ZM8.014 183.423C8.014 185.381 9.818 187.207 12.986 187.207L13.844 187.207C17.122 187.207 18.772 185.469 18.772 183.313C18.772 181.355 17.078 179.551 13.91 179.551L13.074 179.551C9.708 179.551 8.014 181.355 8.014 183.423ZM5.066 183.335C5.066 179.705 7.86 176.185 13.294 176.185L13.646 176.185C18.904 176.185 21.72 179.617 21.72 183.401C21.72 187.075 19.146 190.595 13.668 190.595L13.294 190.595C7.992 190.595 5.066 187.053 5.066 183.335ZM14.042 196.254L14.042 198.058C14.042 199.664 14.812 200.918 16.418 200.918C17.826 200.918 18.64 199.84 18.64 198.058L18.64 196.254L14.042 196.254ZM5.308 192.998L21.478 192.998L21.478 198.454C21.478 202.084 19.586 204.174 16.528 204.174C14.35 204.174 12.656 202.92 11.974 201.358L5.308 205.472L5.308 201.666L11.27 198.41L11.27 196.254L5.308 196.254L5.308 192.998ZM5.308 207.37L21.478 207.37L21.478 217.138L18.53 217.138L18.53 210.648L15.164 210.648L15.164 216.368L12.37 216.368L12.37 210.648L8.234 210.648L8.234 217.292L5.308 217.292L5.308 207.37ZM5.308 226.126L21.478 226.126L21.478 235.982L18.53 235.982L18.53 229.404L15.164 229.404L15.164 235.19L12.37 235.19L12.37 229.404L5.308 229.404L5.308 226.126ZM14.042 241.844L14.042 243.648C14.042 245.254 14.812 246.508 16.418 246.508C17.826 246.508 18.64 245.43 18.64 243.648L18.64 241.844L14.042 241.844ZM5.308 238.588L21.478 238.588L21.478 244.044C21.478 247.674 19.586 249.764 16.528 249.764C14.35 249.764 12.656 248.51 11.974 246.948L5.30799 251.062L5.308 247.256L11.27 244L11.27 241.844L5.308 241.844L5.308 238.588ZM5.30799 252.96L21.478 252.96L21.478 256.304L5.30799 256.304L5.30799 252.96ZM5.30799 259.277L21.478 259.277L21.478 269.045L18.53 269.045L18.53 262.555L15.164 262.555L15.164 268.275L12.37 268.275L12.37 262.555L8.23399 262.555L8.23399 269.199L5.30799 269.199L5.30799 259.277ZM5.30799 271.866L21.478 271.866L21.478 275.804L10.742 281.128L21.478 281.128L21.478 284.34L5.30799 284.34L5.30799 280.556L16.286 275.078L5.30799 275.078L5.30799 271.866ZM8.05799 290.506L8.05799 292.552C8.05799 294.884 10.192 296.468 13.624 296.468L14.042 296.468C17.254 296.468 18.706 294.84 18.706 292.288L18.706 290.506L8.05799 290.506ZM5.30799 287.206L21.478 287.206L21.478 292.464C21.478 297.15 19.212 299.724 14.02 299.724L13.58 299.724C8.60799 299.724 5.30799 297.106 5.30799 292.464L5.30799 287.206ZM5.04399 307.045C5.04399 304.867 5.83599 302.623 6.47399 301.501L9.55399 302.381C8.87199 303.371 8.12399 305.263 8.12399 306.803C8.12399 308.717 8.87199 309.619 9.88399 309.619C11.05 309.619 11.49 309.025 11.908 307.31L12.392 305.505C12.92 303.393 14.218 301.721 16.99 301.721C19.564 301.721 21.676 303.767 21.676 307.507C21.676 309.664 20.994 311.556 20.488 312.326L17.584 311.424C18.09 310.588 18.728 309.246 18.728 307.596C18.728 306.099 18.134 305.087 17.188 305.087C16.286 305.087 15.692 305.417 15.296 306.935L14.878 308.696C14.24 311.138 13.162 312.942 10.28 312.942C7.26599 312.942 5.04399 310.807 5.04399 307.045ZM3.83399 315.269L7.17799 315.269L7.17799 318.811L3.83399 318.811L3.83399 315.269ZM9.92799 315.753L22.006 315.379L22.006 318.811L9.92799 318.415L9.92799 315.753Z" fill="#0E1B92"/>
</svg>
