<svg width="532" height="180" viewBox="0 0 532 180" fill="none" xmlns="http://www.w3.org/2000/svg">
<g opacity="0.3" filter="url(#filter0_f_62_6409)">
<rect x="36" y="38" width="460" height="106" rx="16" fill="#0075FF"/>
</g>
<rect x="16.5" y="0.5" width="499" height="119" rx="7.5" fill="#0075FF" stroke="#005ECD"/>
<g filter="url(#filter1_d_62_6409)">
<path d="M159.517 57.464C159.517 52.28 157.753 49.616 155.305 49.616C152.965 49.616 151.201 52.28 151.201 57.464C151.201 62.612 152.965 65.276 155.305 65.276C157.753 65.276 159.517 62.612 159.517 57.464ZM146.305 57.464C146.305 50.336 149.725 45.152 155.305 45.152C160.957 45.152 164.305 50.3 164.305 57.464C164.305 64.484 160.957 69.704 155.305 69.704C149.725 69.704 146.305 64.52 146.305 57.464ZM173.017 42.956V55.844H177.769V59.984H173.017V77.084H167.941V42.956H173.017ZM196.702 64.988L193.678 68.948C191.626 67.616 188.566 64.232 187.774 61.172C186.946 64.34 184.138 68.048 181.15 69.776L178.27 65.996C182.842 63.224 185.254 58.616 185.254 50.912V46.268H190.294V50.804C190.294 58.76 192.742 62.504 196.702 64.988ZM201.526 75.572H196.918V58.76H192.886V54.512H196.918V43.568H201.526V75.572ZM208.402 77.084H203.65V42.956H208.402V77.084ZM227.767 51.164H212.575V47.204H227.767V51.164ZM241.519 77.084H236.695V42.956H241.519V77.084ZM235.039 75.536H230.251V59.66H227.155V55.412H230.251V43.568H235.039V75.536ZM227.767 64.16L228.019 68.264C223.123 68.984 218.155 69.344 212.503 69.344L211.927 64.988C212.719 64.988 213.763 64.952 214.915 64.952C214.663 60.956 214.339 57.032 214.087 53.072L218.875 52.604L219.091 64.808C219.775 64.808 220.423 64.772 221.071 64.736L221.575 52.604L226.219 53.072C225.967 56.852 225.607 60.668 225.319 64.448C226.255 64.376 227.083 64.268 227.767 64.16ZM286.454 72.872H255.638V68.912H268.418V61.172H273.458V68.912H286.454V72.872ZM285.662 57.788L283.394 62.036C279.182 61.244 272.918 57.896 271.01 52.928C269.174 57.896 263.018 61.208 258.662 62.036L256.394 57.824C261.974 57.176 268.31 52.928 268.31 46.664V44.864H273.746V46.664C273.746 52.964 279.974 57.14 285.662 57.788ZM310.5 53.252V48.716H297.936V53.252H310.5ZM315.972 76.256H292.68V66.356H297.72V72.296H315.972V76.256ZM306.9 69.56H301.788V63.512H288.756V59.552H319.572V63.512H306.9V69.56ZM315.648 44.756V57.212H292.824V44.756H315.648ZM337.029 63.152L337.605 67.148C335.697 67.688 329.973 68.12 325.905 68.12H323.169V46.88H328.209V63.944H328.929C331.701 63.944 335.085 63.584 337.029 63.152ZM350.961 77.084H346.137V60.272H343.401V75.536H338.685V43.532H343.401V56.204H346.137V42.956H350.961V77.084ZM356.862 46.484H373.062C372.774 56.456 368.706 65.096 357.618 71.18L354.774 67.22C362.226 63.728 367.014 57.176 367.698 50.624H356.862V46.484ZM383.358 77.084H378.282V42.956H383.358V77.084Z" fill="white"/>
</g>
<defs>
<filter id="filter0_f_62_6409" x="0" y="2" width="532" height="178" filterUnits="userSpaceOnUse" color-interpolation-filters="sRGB">
<feFlood flood-opacity="0" result="BackgroundImageFix"/>
<feBlend mode="normal" in="SourceGraphic" in2="BackgroundImageFix" result="shape"/>
<feGaussianBlur stdDeviation="18" result="effect1_foregroundBlur_62_6409"/>
</filter>
<filter id="filter1_d_62_6409" x="144.305" y="42.9561" width="241.053" height="38.1279" filterUnits="userSpaceOnUse" color-interpolation-filters="sRGB">
<feFlood flood-opacity="0" result="BackgroundImageFix"/>
<feColorMatrix in="SourceAlpha" type="matrix" values="0 0 0 0 0 0 0 0 0 0 0 0 0 0 0 0 0 0 127 0" result="hardAlpha"/>
<feOffset dy="2"/>
<feGaussianBlur stdDeviation="1"/>
<feComposite in2="hardAlpha" operator="out"/>
<feColorMatrix type="matrix" values="0 0 0 0 0 0 0 0 0 0 0 0 0 0 0 0 0 0 0.2 0"/>
<feBlend mode="normal" in2="BackgroundImageFix" result="effect1_dropShadow_62_6409"/>
<feBlend mode="normal" in="SourceGraphic" in2="effect1_dropShadow_62_6409" result="shape"/>
</filter>
</defs>
</svg>
