<svg width="379" height="214" viewBox="0 0 379 214" fill="none" xmlns="http://www.w3.org/2000/svg">
<path d="M43.016 42.936C43.016 49.096 36.128 53.24 24.592 53.24C12.944 53.24 5.944 49.096 5.944 42.936C5.944 36.832 12.944 32.744 24.592 32.744C36.128 32.744 43.016 36.832 43.016 42.936ZM48.728 30H0.792V23.84H18.768V14.32H26.72V23.84H48.728V30ZM6.224 2.056H42.568C42.568 13.144 41.672 16.672 40.832 20.816L33.384 19.92C34.168 16.728 34.728 12.752 34.728 9.112V8.16H6.224V2.056ZM34.896 42.992C34.896 40.304 30.92 39.016 24.592 39.016C18.208 39.016 14.12 40.304 14.12 42.992C14.12 45.624 18.208 46.968 24.592 46.968C30.92 46.968 34.896 45.624 34.896 42.992ZM84.2276 14.096C84.2276 11.016 80.0276 8.44 73.4756 8.44C66.8116 8.44 62.6116 11.016 62.6116 14.096C62.6116 17.288 66.8116 19.864 73.4756 19.864C80.0276 19.864 84.2276 17.288 84.2276 14.096ZM68.2116 53.408H60.2036V35.992H49.5076V29.776H97.4436V35.992H86.3556V53.408H78.5156V35.992H68.2116V53.408ZM92.5156 14.096C92.5156 21.264 84.9556 26.024 73.4756 26.024C61.9956 26.024 54.3236 21.264 54.3236 14.096C54.3236 7.096 61.9956 2.28 73.4756 2.28C84.9556 2.28 92.5156 7.096 92.5156 14.096ZM116.927 23.448V10.96H107.351V23.448H116.927ZM124.711 29.664H99.5673V4.744H124.711V29.664ZM141.007 52.008H105.111V35.152H112.951V45.792H141.007V52.008ZM139.943 0.375998V15.328H147.335V21.824H139.943V38.848H132.047V0.375998H139.943ZM164.411 32.016C164.411 29.216 162.339 26.976 159.595 26.976C156.851 26.976 154.667 29.16 154.667 32.016C154.667 34.984 156.851 37.112 159.595 37.112C162.339 37.112 164.411 34.872 164.411 32.016ZM152.707 10.624V4.464H166.931V10.624H152.707ZM146.715 19.584V13.424H172.195V19.584H146.715ZM171.355 32.016C171.355 38.232 166.595 42.936 159.595 42.936C152.371 42.936 147.779 38.176 147.779 32.016C147.779 25.744 152.595 21.152 159.595 21.152C166.595 21.152 171.355 25.856 171.355 32.016ZM192.187 53.464H184.683V28.208H181.099V51.112H173.931V1.216H181.099V21.88H184.683V0.375998H192.187V53.464ZM237.823 29.44H223.543V40.696H243.591V46.912H195.655V40.696H215.703V29.44H201.815V4.016H237.543V10.344H209.711V23.28H237.823V29.44ZM7.904 126.576V93.76L1.24 94.992V90.064L12.048 85.304H16.416V126.576H7.904ZM39.0864 120.696C44.2384 120.696 46.7584 116.944 46.7584 107.424V104.848C46.7584 95.384 44.1824 91.128 39.1424 91.128C33.9904 91.128 31.5264 95.16 31.5264 104.456V107.032C31.5264 116.272 33.8784 120.696 39.0864 120.696ZM39.0304 127.024C29.9024 127.024 22.6784 121.312 22.6784 107.2V105.072C22.6784 90.232 30.5744 84.8 39.1984 84.8C47.9344 84.8 55.4944 90.344 55.4944 104.848V106.976C55.4944 121.648 47.8224 127.024 39.0304 127.024ZM75.1692 120.696C80.3212 120.696 82.8412 116.944 82.8412 107.424V104.848C82.8412 95.384 80.2652 91.128 75.2252 91.128C70.0732 91.128 67.6092 95.16 67.6092 104.456V107.032C67.6092 116.272 69.9612 120.696 75.1692 120.696ZM75.1132 127.024C65.9852 127.024 58.7612 121.312 58.7612 107.2V105.072C58.7612 90.232 66.6572 84.8 75.2812 84.8C84.0172 84.8 91.5772 90.344 91.5772 104.848V106.976C91.5772 121.648 83.9052 127.024 75.1132 127.024ZM133.036 122.208C135.668 122.208 136.9 120.472 136.9 115.936V114.592C136.9 110.112 135.556 108.208 133.036 108.208C130.348 108.208 129.116 110.056 129.116 114.536V115.88C129.116 120.36 130.292 122.208 133.036 122.208ZM132.924 126.744C126.764 126.744 122.564 122.824 122.564 115.824V114.984C122.564 107.928 126.876 103.728 133.036 103.728C139.084 103.728 143.396 107.592 143.396 114.592V115.488C143.396 122.488 139.14 126.744 132.924 126.744ZM104.308 103.168C107.052 103.168 108.228 101.544 108.228 96.896V95.664C108.228 91.128 106.94 89.28 104.308 89.28C101.788 89.28 100.5 91.072 100.5 95.608V96.84C100.5 101.488 101.732 103.168 104.308 103.168ZM104.308 107.816C98.148 107.816 93.948 103.952 93.948 96.84V96.056C93.948 88.888 98.204 84.744 104.308 84.744C110.356 84.744 114.892 88.664 114.892 95.664V96.504C114.892 103.616 110.468 107.816 104.308 107.816ZM101.508 128.536L129.228 84.296H135.22L107.556 128.536H101.508ZM188.838 105.912C187.382 108.04 186.038 110.112 184.638 112.24C180.606 110.952 175.118 106.528 173.27 102.216C171.702 106.864 165.822 112.24 160.726 113.976L156.638 107.536C164.59 104.512 169.182 98.296 169.182 90.96V83.96H177.302V90.568C177.302 98.184 182.174 103.616 188.838 105.912ZM202.278 132.12H165.43V115.768H173.27V125.96H202.278V132.12ZM201.27 118.904H193.318V98.968H184.918V92.752H193.318V80.376H201.27V118.904ZM239.458 92.864V88.16H220.194V92.864H239.458ZM247.466 98.856H212.298V82.056H247.466V98.856ZM249.202 133.352H211.626V119.072H239.962V116.664H211.682V110.504H225.962V107.2H205.914V101.32H253.85V107.2H233.802V110.504H247.914V124.56H219.466V126.968H249.202V133.352ZM271.205 103.504C271.205 97.232 270.197 91.52 266.893 91.52C263.701 91.52 262.693 97.232 262.693 103.504C262.693 109.832 263.701 115.432 266.893 115.432C270.197 115.432 271.205 109.832 271.205 103.504ZM299.877 133.464H292.541V80.376H299.877V133.464ZM288.957 131.056H281.677V106.528H278.373C277.757 114.872 274.453 122.992 266.837 122.992C258.325 122.992 255.189 112.8 255.189 103.392C255.189 94.208 258.325 84.184 266.837 84.184C274.229 84.184 277.477 91.632 278.261 99.64H281.677V81.384H288.957V131.056ZM17.368 183.504C17.368 177.232 16.36 171.52 13.056 171.52C9.864 171.52 8.856 177.232 8.856 183.504C8.856 189.832 9.864 195.432 13.056 195.432C16.36 195.432 17.368 189.832 17.368 183.504ZM46.04 213.464H38.704V160.376H46.04V213.464ZM35.12 211.056H27.84V186.528H24.536C23.92 194.872 20.616 202.992 13 202.992C4.488 202.992 1.352 192.8 1.352 183.392C1.352 174.208 4.488 164.184 13 164.184C20.392 164.184 23.64 171.632 24.424 179.64H27.84V161.384H35.12V211.056ZM70.2276 182.944C70.2276 174.88 67.4276 170.736 63.8996 170.736C60.4836 170.736 57.7396 174.88 57.7396 182.944C57.7396 190.952 60.4836 195.096 63.8996 195.096C67.4276 195.096 70.2276 190.952 70.2276 182.944ZM50.1796 182.944C50.1796 171.856 55.4436 163.792 63.8996 163.792C71.4596 163.792 76.3876 170.064 77.3956 179.248H85.6276V160.376H93.6356V213.464H85.6276V185.968H77.4516C76.6116 195.32 71.6276 201.984 63.8996 201.984C55.4436 201.984 50.1796 193.92 50.1796 182.944ZM135.519 206.52V202.712H115.191V206.52H135.519ZM122.471 182.608L123.143 188.488C119.223 189.552 110.151 189.776 104.215 189.776C102.927 189.776 101.527 189.72 100.239 189.72V173.032H112.615V169.28H100.183V163.12H120.623V179.08H108.191V183.616C108.639 183.672 109.199 183.672 109.815 183.672C113.623 183.672 120.175 183.224 122.471 182.608ZM143.471 189.944H135.967V178.184H132.607V189.664H125.215V161.328H132.607V171.856H135.967V160.376H143.471V189.944ZM143.471 212.792H107.239V192.016H115.191V196.664H135.519V192.016H143.471V212.792ZM177.418 186.024C177.418 184.792 175.906 183.056 172.882 183.056C169.914 183.056 168.458 184.792 168.458 186.024C168.458 187.424 169.914 189.048 172.882 189.048C175.906 189.048 177.418 187.424 177.418 186.024ZM165.77 168.328V162.56H180.05V168.328H165.77ZM197.018 204.56C197.018 202.712 192.874 201.312 186.266 201.312C179.882 201.312 175.794 202.712 175.794 204.56C175.794 206.464 179.882 207.752 186.266 207.752C192.874 207.752 197.018 206.464 197.018 204.56ZM159.666 176.504V170.512H184.866V176.504H159.666ZM184.53 186.024C184.53 190.672 180.162 194.48 172.882 194.48C165.714 194.48 161.346 190.672 161.346 186.024C161.346 181.432 165.714 177.736 172.882 177.736C180.162 177.736 184.53 181.432 184.53 186.024ZM205.082 195.656H197.69V181.6H194.162V193.92H186.994V161.328H194.162V175.104H197.69V160.376H205.082V195.656ZM205.306 204.56C205.306 210.048 198.138 213.688 186.266 213.688C174.618 213.688 167.394 210.048 167.394 204.56C167.394 199.072 174.618 195.376 186.266 195.376C198.138 195.376 205.306 199.072 205.306 204.56ZM243.102 172.696C243.102 169.84 239.182 167.712 232.574 167.712C226.19 167.712 222.046 169.84 222.046 172.696C222.046 175.384 226.19 177.456 232.574 177.456C239.182 177.456 243.102 175.384 243.102 172.696ZM251.054 212.176H214.318V196.832H222.158V206.016H251.054V212.176ZM236.998 201.536H228.99V192.128H208.55V185.968H256.486V192.128H236.998V201.536ZM251.278 172.584C251.278 178.576 244.39 183.448 232.686 183.448C220.814 183.448 214.038 178.576 214.038 172.584C214.038 166.648 220.814 161.776 232.574 161.776C244.39 161.776 251.278 166.648 251.278 172.584ZM291.817 173.256C291.817 170.4 287.897 168.272 281.289 168.272C274.905 168.272 270.761 170.4 270.761 173.256C270.761 176 274.905 178.072 281.289 178.072C287.897 178.072 291.817 176 291.817 173.256ZM299.993 173.144C299.993 179.136 293.105 184.064 281.401 184.064C269.529 184.064 262.753 179.136 262.753 173.144C262.753 167.264 269.529 162.336 281.289 162.336C293.105 162.336 299.993 167.264 299.993 173.144ZM299.713 212.176H263.257V196.272H271.209V206.016H299.713V212.176ZM305.201 192.968H257.265V186.752H305.201V192.968ZM355.052 206.8V199.24H334.892V206.8H355.052ZM362.892 190.616H354.996V179.024H342.564V172.752H354.996V160.376H362.892V190.616ZM347.828 182.496L348.668 188.432C342.396 189.44 333.94 190 326.1 190H321.452V163.512H345.476V169.672H329.348V183.728C329.908 183.728 330.468 183.784 331.084 183.784C336.068 183.784 343.516 183.224 347.828 182.496ZM362.892 212.792H326.996V193.304H362.892V212.792ZM370.28 207.136V199.576H378.232V207.136H370.28ZM370.896 194.2L369.664 163.904H378.568L377.616 194.2H370.896Z" fill="#0E1B92"/>
</svg>
