<svg width="65" height="37" viewBox="0 0 65 37" fill="none" xmlns="http://www.w3.org/2000/svg">
<path d="M16.6514 36.6348C13.3962 36.6348 10.5885 35.8942 8.22852 34.4131C5.86849 32.932 4.04557 30.8324 2.75977 28.1143C1.49023 25.3799 0.855469 22.141 0.855469 18.3975V18.3486C0.855469 14.6051 1.49023 11.3743 2.75977 8.65625C4.04557 5.92188 5.86849 3.82227 8.22852 2.35742C10.5885 0.876302 13.3962 0.135742 16.6514 0.135742C19.9066 0.135742 22.7061 0.876302 25.0498 2.35742C27.4098 3.82227 29.2246 5.92188 30.4941 8.65625C31.7637 11.3743 32.3984 14.6051 32.3984 18.3486V18.3975C32.3984 22.141 31.7637 25.3799 30.4941 28.1143C29.2246 30.8324 27.4098 32.932 25.0498 34.4131C22.7061 35.8942 19.9066 36.6348 16.6514 36.6348ZM16.6514 28.6758C17.7907 28.6758 18.751 28.2852 19.5322 27.5039C20.3135 26.7064 20.9076 25.5426 21.3145 24.0127C21.7214 22.4827 21.9248 20.611 21.9248 18.3975V18.3486C21.9248 16.1351 21.7214 14.2715 21.3145 12.7578C20.9076 11.2279 20.3135 10.0723 19.5322 9.29102C18.751 8.49349 17.7907 8.09473 16.6514 8.09473C15.512 8.09473 14.5436 8.49349 13.7461 9.29102C12.9648 10.0723 12.3708 11.2279 11.9639 12.7578C11.557 14.2715 11.3535 16.1351 11.3535 18.3486V18.3975C11.3535 20.611 11.557 22.4827 11.9639 24.0127C12.3708 25.5426 12.9648 26.7064 13.7461 27.5039C14.5436 28.2852 15.512 28.6758 16.6514 28.6758ZM50.6992 36V30.4092H33.3652V22.084C34.2116 20.668 35.0579 19.252 35.9043 17.8359C36.7669 16.4036 37.6214 14.9795 38.4678 13.5635C39.3304 12.1475 40.1849 10.7314 41.0312 9.31543C41.8939 7.88314 42.7484 6.45898 43.5947 5.04297C44.4574 3.61068 45.3118 2.18652 46.1582 0.770508H60.4648V22.4746H64.7861V30.4092H60.4648V36H50.6992ZM41.8369 22.8896H50.9922V7.67969H50.7969C50.1947 8.67253 49.5924 9.66536 48.9902 10.6582C48.4043 11.651 47.8102 12.6439 47.208 13.6367C46.6221 14.6296 46.028 15.6305 45.4258 16.6396C44.8236 17.6325 44.2214 18.6253 43.6191 19.6182C43.0332 20.611 42.4391 21.6038 41.8369 22.5967V22.8896Z" fill="#0075FF"/>
</svg>
