<svg width="64" height="37" viewBox="0 0 64 37" fill="none" xmlns="http://www.w3.org/2000/svg">
<path d="M16.6514 36.6348C13.3962 36.6348 10.5885 35.8942 8.22852 34.4131C5.86849 32.932 4.04557 30.8324 2.75977 28.1143C1.49023 25.3799 0.855469 22.141 0.855469 18.3975V18.3486C0.855469 14.6051 1.49023 11.3743 2.75977 8.65625C4.04557 5.92188 5.86849 3.82227 8.22852 2.35742C10.5885 0.876302 13.3962 0.135742 16.6514 0.135742C19.9066 0.135742 22.7061 0.876302 25.0498 2.35742C27.4098 3.82227 29.2246 5.92188 30.4941 8.65625C31.7637 11.3743 32.3984 14.6051 32.3984 18.3486V18.3975C32.3984 22.141 31.7637 25.3799 30.4941 28.1143C29.2246 30.8324 27.4098 32.932 25.0498 34.4131C22.7061 35.8942 19.9066 36.6348 16.6514 36.6348ZM16.6514 28.6758C17.7907 28.6758 18.751 28.2852 19.5322 27.5039C20.3135 26.7064 20.9076 25.5426 21.3145 24.0127C21.7214 22.4827 21.9248 20.611 21.9248 18.3975V18.3486C21.9248 16.1351 21.7214 14.2715 21.3145 12.7578C20.9076 11.2279 20.3135 10.0723 19.5322 9.29102C18.751 8.49349 17.7907 8.09473 16.6514 8.09473C15.512 8.09473 14.5436 8.49349 13.7461 9.29102C12.9648 10.0723 12.3708 11.2279 11.9639 12.7578C11.557 14.2715 11.3535 16.1351 11.3535 18.3486V18.3975C11.3535 20.611 11.557 22.4827 11.9639 24.0127C12.3708 25.5426 12.9648 26.7064 13.7461 27.5039C14.5436 28.2852 15.512 28.6758 16.6514 28.6758ZM48.3311 36.6348C45.4665 36.6348 42.9844 36.1628 40.8848 35.2188C38.7852 34.2585 37.1413 32.9645 35.9531 31.3369C34.7812 29.7093 34.1383 27.8864 34.0244 25.8682L34 25.4287H43.3018L43.3506 25.5752C43.5622 26.1774 43.8958 26.7227 44.3516 27.2109C44.8073 27.6992 45.3688 28.0898 46.0361 28.3828C46.7197 28.6758 47.4847 28.8223 48.3311 28.8223C49.3076 28.8223 50.1702 28.627 50.9189 28.2363C51.6676 27.8294 52.2536 27.2679 52.6768 26.5518C53.1162 25.8356 53.3359 25.0137 53.3359 24.0859V24.0371C53.3359 23.1094 53.1162 22.2956 52.6768 21.5957C52.2536 20.8958 51.6595 20.3506 50.8945 19.96C50.1458 19.5693 49.2832 19.374 48.3066 19.374C47.7044 19.374 47.1429 19.4554 46.6221 19.6182C46.1012 19.7646 45.6292 19.9681 45.2061 20.2285C44.8317 20.4727 44.498 20.7575 44.2051 21.083C43.9121 21.3923 43.6761 21.7178 43.4971 22.0596H34.5615L35.9775 0.770508H60.7578V8.58301H44.083L43.5459 16.5908H43.7412C44.3923 15.4027 45.4014 14.4424 46.7686 13.71C48.1357 12.9613 49.7552 12.5869 51.627 12.5869C53.8405 12.5869 55.8018 13.0752 57.5107 14.0518C59.2197 15.012 60.5625 16.3385 61.5391 18.0312C62.5319 19.724 63.0283 21.6608 63.0283 23.8418V23.8906C63.0283 26.446 62.4098 28.6839 61.1729 30.6045C59.9521 32.5088 58.235 33.9899 56.0215 35.0479C53.8242 36.1058 51.2607 36.6348 48.3311 36.6348Z" fill="#0075FF"/>
</svg>
