<svg width="329" height="214" viewBox="0 0 329 214" fill="none" xmlns="http://www.w3.org/2000/svg">
<path d="M9.76 9.392V3.176H25.216V9.392H9.76ZM34.232 35.768L34.792 41.984C23.76 43.496 10.544 44.112 1.08 44.112L0.072 37.448C5 37.448 9.704 37.392 14.016 37.28V29.664H21.912V36.888C26.952 36.608 31.208 36.216 34.232 35.768ZM3.208 18.016V11.744H31.488V18.016H21.968C23.2 22.104 28.52 25.184 33.448 25.912L30.256 32.128C25.72 31.4 19.448 28.264 17.656 24.456C15.528 28.544 9.928 31.848 4.944 32.856L1.528 26.64C7.52 25.296 12.336 22.44 13.288 18.016H3.208ZM44.256 0.375998V53.464H36.248V0.375998H44.256ZM93.7556 53.464H86.2516V27.256H82.3316V51.056H74.9396V1.272H82.3316V20.928H86.2516V0.375998H93.7556V53.464ZM57.7476 12.752V35.096C58.0276 35.096 58.4196 35.152 58.9236 35.152C62.0036 35.152 69.0036 34.816 72.4196 34.032L73.1476 40.024C68.7796 40.976 60.3236 41.424 55.6196 41.424H49.8516V6.592H70.0116V12.752H57.7476ZM155.703 53.128H118.799V38.456H146.239V35.544H118.799V29.384H154.191V44.112H126.751V46.856H155.703V53.128ZM112.471 2.616H137.727C137.615 17.736 126.751 26.752 112.975 28.936L110.119 22.44C119.695 20.984 127.479 15.944 128.823 9.112H112.471V2.616ZM154.191 26.752H146.239V22.832H137.671V16.952H146.239V13.032H138.119V7.208H146.239V0.375998H154.191V26.752ZM204.362 53.464H197.082V0.375998H204.362V53.464ZM193.442 51.056H186.218V24.96H180.226V18.072H186.218V1.384H193.442V51.056ZM185.602 35.264L181.346 40.976C177.874 38.792 173.338 33.36 172.05 28.656C171.042 33.192 165.946 39.856 161.858 42.152L157.602 36.72C166.058 30.952 168.186 23.728 168.186 14.096V11.856H159.786V5.696H183.474V11.856H175.802V14.096C175.802 23.952 177.762 30.336 185.602 35.264ZM236.629 31.568C236.629 28.712 234.613 26.472 232.037 26.472C229.461 26.472 227.501 28.656 227.501 31.568C227.501 34.536 229.461 36.664 232.037 36.664C234.613 36.664 236.629 34.424 236.629 31.568ZM239.429 10.4H225.989V4.184H239.429V10.4ZM243.237 31.568C243.237 37.784 238.701 42.488 232.037 42.488C225.261 42.488 220.837 37.728 220.837 31.568C220.837 25.184 225.541 20.648 232.037 20.648C238.701 20.648 243.237 25.296 243.237 31.568ZM265.693 53.464H258.189V0.375998H265.693V53.464ZM255.333 51.112H248.109V35.824H244.301V28.824H248.109V23.672H244.189V19.36H219.997V13.2H244.581V16.728H248.109V1.328H255.333V51.112ZM314.409 32.632H306.961V20.48H303.433V32.632H296.041V1.328H303.433V14.264H306.961V0.375998H314.409V32.632ZM278.457 20.984V25.352C279.017 25.352 279.577 25.408 280.137 25.408C284.897 25.408 290.385 24.792 293.129 24.232C293.353 26.248 293.465 28.152 293.689 30.168C290.385 30.896 280.977 31.512 270.953 31.512V4.576H291.673V10.736H278.457V14.824H291.057V20.984H278.457ZM277.169 34.928H314.409V53.52H306.569V41.144H277.169V34.928ZM320.564 47.136V39.576H328.516V47.136H320.564ZM321.18 34.2L319.948 3.904H328.852L327.9 34.2H321.18ZM6.904 126.576V93.76L0.24 94.992V90.064L11.048 85.304H15.416V126.576H6.904ZM39.4304 103.448V90.96H29.8544V103.448H39.4304ZM47.2144 109.664H22.0704V84.744H47.2144V109.664ZM63.5104 132.008H27.6144V115.152H35.4544V125.792H63.5104V132.008ZM62.4464 80.376V95.328H69.8384V101.824H62.4464V118.848H54.5504V80.376H62.4464ZM92.178 92.584C92.178 90.12 89.77 88.384 86.634 88.384C83.498 88.384 81.09 90.12 81.09 92.584C81.09 95.104 83.498 96.728 86.634 96.728C89.77 96.728 92.178 95.104 92.178 92.584ZM97.162 117.056V111.624H106.794V80.376H114.634V121.256H106.794V117.056H97.162ZM100.13 92.584C100.13 98.52 94.642 102.552 86.634 102.552C78.626 102.552 73.194 98.52 73.194 92.64C73.194 86.704 78.626 82.56 86.634 82.56C94.642 82.56 100.13 86.704 100.13 92.584ZM90.106 119.632H83.61V126.016H115.306V132.176H75.658V116.664H82.266V110.616C77.618 110.784 73.194 110.84 69.722 110.84L68.77 104.568C82.658 104.568 96.49 103.784 103.434 102.832C103.602 104.848 103.658 106.864 103.826 108.88C99.85 109.496 95.034 109.888 90.106 110.224V119.632ZM141.581 103.112C141.581 104.848 143.597 106.08 146.509 106.08C149.477 106.08 151.549 104.848 151.549 103.112C151.549 101.32 149.477 100.088 146.509 100.088C143.597 100.088 141.581 101.32 141.581 103.112ZM159.333 103.112C159.333 107.704 154.069 111.512 146.509 111.512C138.893 111.512 133.685 107.704 133.685 103.112C133.685 98.464 138.837 94.768 146.509 94.768C154.069 94.768 159.333 98.464 159.333 103.112ZM173.781 133.576H137.549V121.088H164.877V119.072H137.549V113.36H172.773V126.072H145.445V127.752H173.781V133.576ZM179.941 101.04H172.773V111.344H164.933V80.376H172.773V94.544H179.941V101.04ZM138.725 85.976V80.6H154.405V85.976H138.725ZM161.797 93.984H130.941V88.216H161.797V93.984ZM188.841 97.68C188.841 101.656 191.865 104.12 195.785 104.12C199.705 104.12 202.841 101.656 202.841 97.68C202.841 93.592 199.705 91.072 195.785 91.072C191.865 91.072 188.841 93.592 188.841 97.68ZM181.113 97.68C181.113 89.84 187.553 84.576 195.785 84.576C204.017 84.576 210.513 89.84 210.513 97.68C210.513 105.408 204.017 110.728 195.785 110.728C187.553 110.728 181.113 105.408 181.113 97.68ZM224.905 132.176H187.665V114.928H195.617V126.016H224.905V132.176ZM223.841 118.904H215.889V80.376H223.841V118.904ZM256.443 121.144C260.755 121.144 263.219 118.288 263.219 111.792V110.336C263.219 102.552 260.195 100.648 256.275 100.648C251.963 100.648 249.499 103.504 249.499 110.112V111.4C249.499 119.128 252.523 121.144 256.443 121.144ZM256.331 126.856C246.699 126.856 241.435 121.2 241.435 111.4V110.616C241.435 100.536 247.651 94.88 256.387 94.88C265.907 94.88 271.283 100.424 271.283 110.336V111.176C271.283 121.312 265.067 126.856 256.331 126.856ZM273.838 126.296V95.44H281.342V99.08H281.622C283.246 96.784 286.326 95.16 289.63 95.16C290.414 95.16 291.142 95.216 291.422 95.384V102.328C290.75 102.216 289.742 102.104 288.958 102.104C286.214 102.104 283.526 102.832 281.622 104.008V126.296H273.838ZM6.904 206.576V173.76L0.24 174.992V170.064L11.048 165.304H15.416V206.576H6.904ZM39.4304 183.448V170.96H29.8544V183.448H39.4304ZM47.2144 189.664H22.0704V164.744H47.2144V189.664ZM63.5104 212.008H27.6144V195.152H35.4544V205.792H63.5104V212.008ZM62.4464 160.376V175.328H69.8384V181.824H62.4464V198.848H54.5504V160.376H62.4464ZM92.178 172.584C92.178 170.12 89.77 168.384 86.634 168.384C83.498 168.384 81.09 170.12 81.09 172.584C81.09 175.104 83.498 176.728 86.634 176.728C89.77 176.728 92.178 175.104 92.178 172.584ZM97.162 197.056V191.624H106.794V160.376H114.634V201.256H106.794V197.056H97.162ZM100.13 172.584C100.13 178.52 94.642 182.552 86.634 182.552C78.626 182.552 73.194 178.52 73.194 172.64C73.194 166.704 78.626 162.56 86.634 162.56C94.642 162.56 100.13 166.704 100.13 172.584ZM90.106 199.632H83.61V206.016H115.306V212.176H75.658V196.664H82.266V190.616C77.618 190.784 73.194 190.84 69.722 190.84L68.77 184.568C82.658 184.568 96.49 183.784 103.434 182.832C103.602 184.848 103.658 186.864 103.826 188.88C99.85 189.496 95.034 189.888 90.106 190.224V199.632ZM176.301 213.464H168.909V186.416H164.597V211.112H157.205V161.216H164.597V180.2H168.909V160.376H176.301V213.464ZM133.293 166.424H154.181C154.293 184.064 148.189 195.6 134.693 203.496L130.045 197.56C136.709 194.088 140.965 189.72 143.485 184.568L131.781 185.968L130.829 179.472L145.557 178.688C146.005 176.728 146.285 174.768 146.453 172.64H133.293V166.424ZM213.593 195.04L209.001 201.368C204.577 198.96 198.417 193.136 196.849 187.928C195.505 193.416 189.401 200.192 184.585 202.656L179.657 196.552C188.841 191.12 192.649 183.224 192.649 172.08V164.744H200.881V171.8C200.881 182.888 205.249 190.392 213.593 195.04ZM223.897 213.464H215.889V160.376H223.897V213.464ZM244.22 183.056V177.008H238.508V183.056H244.22ZM236.716 194.256H273.732V213.52H265.892V200.584H236.716V194.256ZM273.732 191.904H266.34V179.304H263.036V191.624H255.644V161.328H263.036V173.088H266.34V160.376H273.732V191.904ZM252.172 189.272H230.612V164.016H238.508V170.96H244.22V164.072H252.172V189.272Z" fill="#0E1B92"/>
</svg>
