<svg width="23" height="438" viewBox="0 0 23 438" fill="none" xmlns="http://www.w3.org/2000/svg">
<path d="M4.83 1.66191L20.89 1.66191L20.89 11.3859L18.404 11.3859L18.404 4.41191L14.444 4.41191L14.444 10.6379L12.046 10.6379L12.046 4.41191L7.294 4.41191L7.294 11.5179L4.83 11.5179L4.83 1.66191ZM4.808 18.7193L20.89 13.0433L20.89 16.1233L8.02 20.4133L20.89 24.7473L20.89 27.7613L4.808 22.0193L4.808 18.7193ZM4.83 29.3767L20.89 29.3768L20.89 39.1008L18.404 39.1008L18.404 32.1268L14.444 32.1267L14.444 38.3528L12.046 38.3528L12.046 32.1267L7.294 32.1267L7.294 39.2327L4.83 39.2327L4.83 29.3767ZM4.83 41.9021L20.89 41.9021L20.89 45.2681L9.318 51.3841L20.89 51.3841L20.89 54.1121L4.83 54.1121L4.83 50.8781L16.666 44.6081L4.83 44.6081L4.83 41.9021ZM18.338 63.8917L4.808 63.8917L4.808 61.0757L18.338 61.0757L18.338 56.3677L20.868 56.3677L20.868 68.6217L18.338 68.6217L18.338 63.8917ZM7.03 82.6821C7.03 84.5521 8.658 85.6741 12.31 85.6741L13.322 85.6741C17.084 85.6741 18.69 84.5301 18.69 82.7041C18.69 80.8121 17.084 79.6901 13.432 79.6901L12.398 79.6901C8.746 79.6901 7.03 80.7461 7.03 82.6821ZM4.588 82.6601C4.588 79.4261 6.81 76.7201 12.332 76.7201L13.212 76.7201C19.02 76.7201 21.154 79.6681 21.154 82.7041C21.154 85.7621 18.976 88.6001 13.3 88.6001L12.442 88.6001C6.678 88.6001 4.588 85.7181 4.588 82.6601ZM4.61 95.1509C4.61 93.3909 5.182 91.6969 5.842 90.7289L8.262 91.4989C7.756 92.2689 7.25 93.6109 7.25 94.6449C7.25 96.5369 8.174 97.7249 9.978 97.7249C11.936 97.7249 12.64 96.3829 12.64 94.4909C12.64 93.6329 12.2 92.0049 11.804 91.3009L20.89 91.8509L20.89 100.013L18.382 100.013L18.382 94.2269L14.796 94.0289C14.928 94.4469 15.06 95.3049 15.06 95.8329C15.06 98.6489 13.388 100.673 9.956 100.673C6.898 100.673 4.61 98.4289 4.61 95.1509Z" fill="#0075FF"/>
<path d="M16.99 141.524L11.864 139.896L11.864 143.174L16.99 141.524ZM5.308 134.176L21.478 140.072L21.478 143.284L5.308 149.092L5.308 145.374L9.026 144.12L9.026 138.972L5.308 137.828L5.308 134.176ZM5.308 156.892L21.478 156.892L21.478 161.952L9.774 164.768L21.478 167.826L21.478 172.842L5.308 172.842L5.308 169.608L17.21 169.608L5.308 166.484L5.308 163.008L17.144 160.038L5.308 160.038L5.308 156.892ZM8.014 182.423C8.014 184.381 9.818 186.207 12.986 186.207L13.844 186.207C17.122 186.207 18.772 184.469 18.772 182.313C18.772 180.355 17.078 178.551 13.91 178.551L13.074 178.551C9.708 178.551 8.014 180.355 8.014 182.423ZM5.066 182.335C5.066 178.705 7.86 175.185 13.294 175.185L13.646 175.185C18.904 175.185 21.72 178.617 21.72 182.401C21.72 186.075 19.146 189.595 13.668 189.595L13.294 189.595C7.992 189.595 5.066 186.053 5.066 182.335ZM14.042 195.254L14.042 197.058C14.042 198.664 14.812 199.918 16.418 199.918C17.826 199.918 18.64 198.84 18.64 197.058L18.64 195.254L14.042 195.254ZM5.308 191.998L21.478 191.998L21.478 197.454C21.478 201.084 19.586 203.174 16.528 203.174C14.35 203.174 12.656 201.92 11.974 200.358L5.308 204.472L5.308 200.666L11.27 197.41L11.27 195.254L5.308 195.254L5.308 191.998ZM5.308 206.37L21.478 206.37L21.478 216.138L18.53 216.138L18.53 209.648L15.164 209.648L15.164 215.368L12.37 215.368L12.37 209.648L8.234 209.648L8.234 216.292L5.308 216.292L5.308 206.37ZM13.668 228.382L13.668 230.098C13.668 232.078 14.768 233.2 16.242 233.2C17.892 233.2 18.64 232.078 18.64 230.164L18.64 228.382L13.668 228.382ZM5.308 225.126L21.478 225.126L21.478 230.714C21.478 234.344 19.74 236.5 16.374 236.5C12.81 236.5 10.896 234.058 10.896 230.868L10.896 228.382L5.308 228.382L5.308 225.126ZM16.99 242.995L11.864 241.367L11.864 244.645L16.99 242.995ZM5.308 235.647L21.478 241.543L21.478 244.755L5.30799 250.563L5.308 246.845L9.026 245.591L9.026 240.443L5.308 239.299L5.308 235.647ZM5.30799 254.615L11.402 254.615L21.478 249.159L21.478 252.723L14.416 256.353L21.478 259.829L21.478 263.305L11.402 257.937L5.30799 257.937L5.30799 254.615ZM5.30799 264.808L21.478 264.808L21.478 269.868L9.77399 272.684L21.478 275.742L21.478 280.758L5.30799 280.758L5.30799 277.524L17.21 277.524L5.30799 274.4L5.30799 270.924L17.144 267.954L5.30799 267.954L5.30799 264.808ZM5.30799 283.585L21.478 283.585L21.478 293.353L18.53 293.353L18.53 286.863L15.164 286.863L15.164 292.583L12.37 292.583L12.37 286.863L8.23399 286.863L8.23399 293.507L5.30799 293.507L5.30799 283.585ZM5.30799 296.175L21.478 296.175L21.478 300.113L10.742 305.437L21.478 305.437L21.478 308.649L5.30799 308.649L5.30799 304.865L16.286 299.387L5.30799 299.387L5.30799 296.175ZM18.442 318.709L5.30799 318.709L5.30799 315.365L18.442 315.365L18.442 310.921L21.478 310.921L21.478 323.175L18.442 323.175L18.442 318.709ZM14.944 334.88L14.944 337.212C14.944 338.422 15.34 339.566 16.924 339.566C18.134 339.566 18.64 338.686 18.64 337.322L18.64 334.88L14.944 334.88ZM8.12399 334.88L8.12399 337.608C8.12399 339.038 8.82799 339.984 10.236 339.984C11.71 339.984 12.392 339.082 12.392 337.564L12.392 334.88L8.12399 334.88ZM5.30799 331.624L21.478 331.624L21.478 337.784C21.478 341.26 20.048 342.778 17.452 342.778C15.978 342.778 14.416 342.052 13.932 340.314C13.514 342.184 12.216 343.438 10.016 343.438C7.24399 343.438 5.30799 341.7 5.30799 338.114L5.30799 331.624ZM5.30799 346.019L21.478 346.019L21.478 355.787L18.53 355.787L18.53 349.297L15.164 349.297L15.164 355.017L12.37 355.017L12.37 349.297L8.23399 349.297L8.23399 355.941L5.30799 355.941L5.30799 346.019ZM5.30799 358.609L21.478 358.609L21.478 362.547L10.742 367.871L21.478 367.871L21.478 371.083L5.30799 371.083L5.30799 367.299L16.286 361.821L5.30799 361.821L5.30799 358.609ZM5.30799 373.948L21.478 373.948L21.478 383.717L18.53 383.717L18.53 377.227L15.164 377.226L15.164 382.947L12.37 382.947L12.37 377.226L8.23399 377.226L8.23399 383.87L5.30799 383.87L5.30799 373.948ZM5.30799 386.538L21.478 386.538L21.478 396.394L18.53 396.394L18.53 389.816L15.164 389.816L15.164 395.602L12.37 395.602L12.37 389.816L5.30799 389.816L5.30799 386.538ZM5.30799 398.956L21.478 398.956L21.478 402.3L5.30799 402.3L5.30799 398.956ZM18.442 412.467L5.30799 412.467L5.30799 409.123L18.442 409.123L18.442 404.679L21.478 404.679L21.478 416.933L18.442 416.933L18.442 412.467ZM5.04399 424.188C5.04399 422.01 5.83599 419.766 6.47399 418.644L9.55399 419.524C8.87199 420.514 8.12399 422.406 8.12399 423.946C8.12399 425.86 8.87199 426.762 9.88399 426.762C11.05 426.762 11.49 426.168 11.908 424.452L12.392 422.648C12.92 420.536 14.218 418.864 16.99 418.864C19.564 418.864 21.676 420.91 21.676 424.65C21.676 426.806 20.994 428.698 20.488 429.468L17.584 428.566C18.09 427.73 18.728 426.388 18.728 424.738C18.728 423.242 18.134 422.23 17.188 422.23C16.286 422.23 15.692 422.56 15.296 424.078L14.878 425.838C14.24 428.28 13.162 430.084 10.28 430.084C7.26599 430.084 5.04399 427.95 5.04399 424.188ZM3.83399 432.411L7.17799 432.411L7.17799 435.953L3.83399 435.953L3.83399 432.411ZM9.92799 432.895L22.006 432.521L22.006 435.953L9.92799 435.557L9.92799 432.895Z" fill="#0E1B92"/>
</svg>
