<svg width="532" height="180" viewBox="0 0 532 180" fill="none" xmlns="http://www.w3.org/2000/svg">
<g opacity="0.5" filter="url(#filter0_f_62_6415)">
<rect x="36" y="38" width="460" height="106" rx="16" fill="#0075FF"/>
</g>
<rect x="16.5" y="0.5" width="499" height="119" rx="7.5" fill="#0075FF" stroke="#005ECD"/>
<g filter="url(#filter1_d_62_6415)">
<path d="M159.903 46.16H175.707C175.635 57.932 172.323 66.248 160.803 72.26C159.867 70.964 158.931 69.596 157.995 68.264C163.179 65.996 166.671 62.612 168.579 58.328L158.931 59.408L158.247 55.088C162.099 54.836 165.987 54.548 169.839 54.332C170.091 53.072 170.271 51.74 170.307 50.372H159.903V46.16ZM184.995 42.956V55.736H189.639V59.876H184.995V77.084H179.955V42.956H184.995ZM218.508 62.288H195.216V45.692H218.256V49.688H200.256V58.292H218.508V62.288ZM222.144 68.696V72.692H191.328V68.696H222.144ZM244.939 63.008C244.939 61.172 243.643 59.732 241.987 59.732C240.331 59.732 239.071 61.136 239.071 63.008C239.071 64.916 240.331 66.284 241.987 66.284C243.643 66.284 244.939 64.844 244.939 63.008ZM246.739 49.4H238.099V45.404H246.739V49.4ZM249.187 63.008C249.187 67.004 246.271 70.028 241.987 70.028C237.631 70.028 234.787 66.968 234.787 63.008C234.787 58.904 237.811 55.988 241.987 55.988C246.271 55.988 249.187 58.976 249.187 63.008ZM263.623 77.084H258.799V42.956H263.623V77.084ZM256.963 75.572H252.319V65.744H249.871V61.244H252.319V57.932H249.799V55.16H234.247V51.2H250.051V53.468H252.319V43.568H256.963V75.572ZM296.74 63.692H291.952V55.88H289.684V63.692H284.932V43.568H289.684V51.884H291.952V42.956H296.74V63.692ZM273.628 56.204V59.012C273.988 59.012 274.348 59.048 274.708 59.048C277.768 59.048 281.296 58.652 283.06 58.292C283.204 59.588 283.276 60.812 283.42 62.108C281.296 62.576 275.248 62.972 268.804 62.972V45.656H282.124V49.616H273.628V52.244H281.728V56.204H273.628ZM272.8 65.168H296.74V77.12H291.7V69.164H272.8V65.168ZM332.999 58.832V54.116H319.463V58.832H332.999ZM341.675 72.872H310.859V68.84H323.747V62.792H314.423V45.152H319.463V50.228H332.999V45.152H338.075V62.792H328.787V68.84H341.675V72.872ZM345.848 46.484H362.048C361.76 56.456 357.692 65.096 346.604 71.18L343.76 67.22C351.212 63.728 356 57.176 356.684 50.624H345.848V46.484ZM372.344 77.084H367.268V42.956H372.344V77.084Z" fill="white"/>
</g>
<defs>
<filter id="filter0_f_62_6415" x="0" y="2" width="532" height="178" filterUnits="userSpaceOnUse" color-interpolation-filters="sRGB">
<feFlood flood-opacity="0" result="BackgroundImageFix"/>
<feBlend mode="normal" in="SourceGraphic" in2="BackgroundImageFix" result="shape"/>
<feGaussianBlur stdDeviation="18" result="effect1_foregroundBlur_62_6415"/>
</filter>
<filter id="filter1_d_62_6415" x="155.995" y="42.9561" width="218.35" height="38.1641" filterUnits="userSpaceOnUse" color-interpolation-filters="sRGB">
<feFlood flood-opacity="0" result="BackgroundImageFix"/>
<feColorMatrix in="SourceAlpha" type="matrix" values="0 0 0 0 0 0 0 0 0 0 0 0 0 0 0 0 0 0 127 0" result="hardAlpha"/>
<feOffset dy="2"/>
<feGaussianBlur stdDeviation="1"/>
<feComposite in2="hardAlpha" operator="out"/>
<feColorMatrix type="matrix" values="0 0 0 0 0 0 0 0 0 0 0 0 0 0 0 0 0 0 0.2 0"/>
<feBlend mode="normal" in2="BackgroundImageFix" result="effect1_dropShadow_62_6415"/>
<feBlend mode="normal" in="SourceGraphic" in2="effect1_dropShadow_62_6415" result="shape"/>
</filter>
</defs>
</svg>
