<svg width="306" height="214" viewBox="0 0 306 214" fill="none" xmlns="http://www.w3.org/2000/svg">
<path d="M33.216 20.368L28.96 26.64C24.816 25.24 19.384 20.928 17.48 16.504C15.912 21.432 9.808 26.528 4.712 28.152L0.792 21.936C8.688 19.192 13.28 13.032 13.28 5.248V2.504H21.4V4.8C21.4 13.368 26.552 18.072 33.216 20.368ZM46.208 53.072H9.08V38.568H37.024V35.992H9.024V29.72H44.864V44.224H17.032V46.856H46.208V53.072ZM44.864 27.648H36.912V0.375998H44.864V27.648ZM83.3316 35.04L78.7396 41.368C74.3156 38.96 68.1556 33.136 66.5876 27.928C65.2436 33.416 59.1396 40.192 54.3236 42.656L49.3956 36.552C58.5796 31.12 62.3876 23.224 62.3876 12.08V4.744H70.6196V11.8C70.6196 22.888 74.9876 30.392 83.3316 35.04ZM93.6356 53.464H85.6276V0.375998H93.6356V53.464ZM100.071 4.408H125.551C124.767 21.152 112.615 30.448 100.855 33.248L97.6073 26.976C107.295 24.848 115.191 18.24 116.815 10.904H100.071V4.408ZM147.391 21.488H139.943V38.456H132.047V0.375998H139.943V14.936H147.391V21.488ZM141.175 52.232H105.559V34.48H113.511V45.792H141.175V52.232ZM182.667 18.24C182.667 13.2 178.075 10.008 170.907 10.008C163.739 10.008 159.147 13.2 159.147 18.24C159.147 23.168 163.739 26.416 170.907 26.416C177.907 26.416 182.667 23.168 182.667 18.24ZM190.675 18.184C190.675 26.584 182.835 32.632 170.907 32.632C158.979 32.632 151.139 26.584 151.139 18.184C151.139 9.728 158.979 3.792 170.907 3.792C182.835 3.792 190.675 9.728 190.675 18.184ZM194.875 46.744H146.939V40.416H194.875V46.744ZM238.999 32.968H223.543V40.696H243.591V46.912H195.655V40.696H215.703V32.968H201.647V14.88H229.759V9.728H201.591V3.456H237.655V21.208H209.543V26.752H238.999V32.968ZM43.576 103.84H7.232V82.952H15.072V97.568H43.576V103.84ZM28.512 133.52H20.672V115.32H0.792V108.992H48.728V115.32H28.512V133.52ZM81.3716 113.304L82.2116 119.576C76.8916 120.864 66.6436 121.312 57.9076 121.312C56.1156 121.312 53.9316 121.256 52.5876 121.256V98.632H68.9396V90.96H52.4756V84.8H76.8356V104.792H60.5396V114.816C65.5796 114.984 75.3236 114.704 81.3716 113.304ZM85.6276 80.376H93.5236V133.464H85.6276V80.376ZM140.615 132.064H104.103V116.328H112.055V125.904H140.615V132.064ZM140.391 101.488H104.551V82.112H112.503V95.328H140.391V101.488ZM146.159 112.296H98.2233V106.024H146.159V112.296ZM167.674 96.672C167.674 100.76 170.362 103 173.89 103C177.418 103 180.162 100.76 180.162 96.672C180.162 92.64 177.362 90.288 173.89 90.288C170.362 90.288 167.674 92.584 167.674 96.672ZM160.282 96.672C160.282 88.944 166.162 83.736 173.89 83.736C181.618 83.736 187.554 88.944 187.554 96.672C187.554 104.4 181.618 109.776 173.89 109.776C166.106 109.776 160.282 104.4 160.282 96.672ZM189.178 105.352L189.402 98.632H195.954V93.536H189.402L189.178 86.872H195.954V80.376H203.962V111.4H195.954V105.352H189.178ZM166.386 113.528H203.962V133.52H195.954V119.688H166.386V113.528ZM253.798 133.464H246.294V107.256H242.374V131.056H234.982V81.272H242.374V100.928H246.294V80.376H253.798V133.464ZM217.79 92.752V115.096C218.07 115.096 218.462 115.152 218.966 115.152C222.046 115.152 229.046 114.816 232.462 114.032L233.19 120.024C228.822 120.976 220.366 121.424 215.662 121.424H209.894V86.592H230.054V92.752H217.79ZM298.985 132.848H263.201V110.728H271.097V116.328H291.089V110.616H298.985V132.848ZM263.705 82.336H299.377C299.489 88.44 298.761 95.44 297.585 100.592H305.033V106.808H257.097V100.592H290.249C290.977 97.736 291.593 92.024 291.537 88.608H263.705V82.336ZM291.089 126.744V122.208H271.097V126.744H291.089ZM16.976 191.568C16.976 188.712 14.96 186.472 12.384 186.472C9.808 186.472 7.848 188.656 7.848 191.568C7.848 194.536 9.808 196.664 12.384 196.664C14.96 196.664 16.976 194.424 16.976 191.568ZM19.776 170.4H6.336V164.184H19.776V170.4ZM23.584 191.568C23.584 197.784 19.048 202.488 12.384 202.488C5.608 202.488 1.184 197.728 1.184 191.568C1.184 185.184 5.888 180.648 12.384 180.648C19.048 180.648 23.584 185.296 23.584 191.568ZM46.04 213.464H38.536V160.376H46.04V213.464ZM35.68 211.112H28.456V195.824H24.648V188.824H28.456V183.672H24.536V179.36H0.344V173.2H24.928V176.728H28.456V161.328H35.68V211.112ZM94.7556 192.632H87.3076V180.48H83.7796V192.632H76.3876V161.328H83.7796V174.264H87.3076V160.376H94.7556V192.632ZM58.8036 180.984V185.352C59.3636 185.352 59.9236 185.408 60.4836 185.408C65.2436 185.408 70.7316 184.792 73.4756 184.232C73.6996 186.248 73.8116 188.152 74.0356 190.168C70.7316 190.896 61.3236 191.512 51.2996 191.512V164.576H72.0196V170.736H58.8036V174.824H71.4036V180.984H58.8036ZM57.5156 194.928H94.7556V213.52H86.9156V201.144H57.5156V194.928ZM152.783 160.376V180.424H160.063V186.92H152.783V213.464H144.943V160.376H152.783ZM142.199 199.688C137.383 200.584 128.815 201.368 120.919 201.368C118.343 201.368 115.879 201.256 113.247 201.256V178.632H129.823V170.96H113.191V164.8H137.719V184.792H121.255V194.816H122.655C127.751 194.816 135.199 194.536 141.359 193.36C141.639 195.488 141.863 197.56 142.199 199.688ZM181.73 182.944C181.73 174.88 178.93 170.736 175.122 170.736C171.538 170.736 168.738 174.88 168.738 182.944C168.738 190.952 171.538 195.096 175.122 195.096C178.93 195.096 181.73 190.952 181.73 182.944ZM161.234 182.944C161.234 171.856 166.442 163.792 175.122 163.792C183.97 163.792 189.122 171.8 189.122 182.944C189.122 193.864 183.97 201.984 175.122 201.984C166.442 201.984 161.234 193.92 161.234 182.944ZM203.906 213.464H196.066V160.376H203.906V213.464ZM242.99 185.408V178.464H221.934V185.408H242.99ZM250.886 191.568H214.094V164.464H221.934V172.304H242.99V164.52H250.886V191.568ZM256.486 206.408H208.55V200.136H256.486V206.408Z" fill="#FEF9ED"/>
</svg>
