<svg width="108" height="108" viewBox="0 0 108 108" fill="none" xmlns="http://www.w3.org/2000/svg">
<circle cx="54" cy="54" r="54" fill="#FF0000"/>
<path d="M35.0869 72.6348C31.8317 72.6348 29.0241 71.8942 26.6641 70.4131C24.304 68.932 22.4811 66.8324 21.1953 64.1143C19.9258 61.3799 19.291 58.141 19.291 54.3975V54.3486C19.291 50.6051 19.9258 47.3743 21.1953 44.6562C22.4811 41.9219 24.304 39.8223 26.6641 38.3574C29.0241 36.8763 31.8317 36.1357 35.0869 36.1357C38.3421 36.1357 41.1416 36.8763 43.4854 38.3574C45.8454 39.8223 47.6602 41.9219 48.9297 44.6562C50.1992 47.3743 50.834 50.6051 50.834 54.3486V54.3975C50.834 58.141 50.1992 61.3799 48.9297 64.1143C47.6602 66.8324 45.8454 68.932 43.4854 70.4131C41.1416 71.8942 38.3421 72.6348 35.0869 72.6348ZM35.0869 64.6758C36.2262 64.6758 37.1865 64.2852 37.9678 63.5039C38.749 62.7064 39.3431 61.5426 39.75 60.0127C40.1569 58.4827 40.3604 56.611 40.3604 54.3975V54.3486C40.3604 52.1351 40.1569 50.2715 39.75 48.7578C39.3431 47.2279 38.749 46.0723 37.9678 45.291C37.1865 44.4935 36.2262 44.0947 35.0869 44.0947C33.9476 44.0947 32.9792 44.4935 32.1816 45.291C31.4004 46.0723 30.8063 47.2279 30.3994 48.7578C29.9925 50.2715 29.7891 52.1351 29.7891 54.3486V54.3975C29.7891 56.611 29.9925 58.4827 30.3994 60.0127C30.8063 61.5426 31.4004 62.7064 32.1816 63.5039C32.9792 64.2852 33.9476 64.6758 35.0869 64.6758ZM67.9873 72.6348C65.3506 72.6348 63.0312 72.1953 61.0293 71.3164C59.0436 70.4375 57.3753 69.1924 56.0244 67.5811C54.6735 65.9535 53.6562 64.0247 52.9727 61.7949C52.2891 59.5488 51.9473 57.0749 51.9473 54.373V54.3242C51.9473 50.5807 52.5902 47.3499 53.876 44.6318C55.1781 41.9137 57.0173 39.8223 59.3936 38.3574C61.7699 36.8763 64.5775 36.1357 67.8164 36.1357C70.3717 36.1357 72.6748 36.5915 74.7256 37.5029C76.7764 38.3981 78.4528 39.6188 79.7549 41.165C81.0732 42.7113 81.887 44.4447 82.1963 46.3652L82.2207 46.5117H72.1377L72.0645 46.3652C71.8366 45.9095 71.5273 45.5026 71.1367 45.1445C70.7461 44.7865 70.2741 44.5016 69.7207 44.29C69.1836 44.0622 68.5488 43.9482 67.8164 43.9482C66.5794 43.9482 65.5378 44.3063 64.6914 45.0225C63.8451 45.7386 63.1859 46.7314 62.7139 48.001C62.2581 49.2705 61.9652 50.7516 61.835 52.4443C61.8187 52.7536 61.8024 53.0791 61.7861 53.4209C61.7861 53.7464 61.7861 54.0719 61.7861 54.3975L62.958 60.3301C62.958 61.1927 63.1696 61.9658 63.5928 62.6494C64.0322 63.3167 64.6182 63.8457 65.3506 64.2363C66.0993 64.627 66.9294 64.8223 67.8408 64.8223C68.736 64.8223 69.5498 64.627 70.2822 64.2363C71.0309 63.8457 71.625 63.3167 72.0645 62.6494C72.5202 61.9658 72.748 61.209 72.748 60.3789V60.3301C72.748 59.4186 72.5283 58.6211 72.0889 57.9375C71.6494 57.2376 71.0635 56.7005 70.3311 56.3262C69.6149 55.9355 68.8092 55.7402 67.9141 55.7402C66.9863 55.7402 66.1481 55.9355 65.3994 56.3262C64.6507 56.7005 64.0566 57.2295 63.6172 57.9131C63.1777 58.5967 62.958 59.3861 62.958 60.2812V60.3301H61.4443V54.373H61.9814C62.4372 53.2337 63.0964 52.2409 63.959 51.3945C64.8379 50.5482 65.904 49.889 67.1572 49.417C68.4105 48.945 69.8265 48.709 71.4053 48.709C73.7165 48.709 75.7103 49.1891 77.3867 50.1494C79.0632 51.1097 80.3571 52.4362 81.2686 54.1289C82.1963 55.8053 82.6602 57.734 82.6602 59.915V59.9639C82.6602 62.4541 82.0254 64.6514 80.7559 66.5557C79.4863 68.46 77.7448 69.9492 75.5312 71.0234C73.3177 72.0977 70.8031 72.6348 67.9873 72.6348Z" fill="#EBF5FF"/>
</svg>
