<svg width="23" height="279" viewBox="0 0 23 279" fill="none" xmlns="http://www.w3.org/2000/svg">
<path d="M4.83 1.73222L20.89 1.73222L20.89 11.4562L18.404 11.4562L18.404 4.48222L14.444 4.48222L14.444 10.7082L12.046 10.7082L12.046 4.48222L7.294 4.48222L7.294 11.5882L4.83 11.5882L4.83 1.73222ZM4.808 18.7896L20.89 13.1136L20.89 16.1936L8.02 20.4836L20.89 24.8176L20.89 27.8316L4.808 22.0896L4.808 18.7896ZM4.83 29.4471L20.89 29.4471L20.89 39.1711L18.404 39.1711L18.404 32.1971L14.444 32.1971L14.444 38.4231L12.046 38.4231L12.046 32.1971L7.294 32.1971L7.294 39.3031L4.83 39.3031L4.83 29.4471ZM4.83 41.9725L20.89 41.9725L20.89 45.3385L9.318 51.4545L20.89 51.4545L20.89 54.1825L4.83 54.1825L4.83 50.9485L16.666 44.6785L4.83 44.6785L4.83 41.9725ZM18.338 63.962L4.808 63.962L4.808 61.146L18.338 61.146L18.338 56.438L20.868 56.438L20.868 68.692L18.338 68.692L18.338 63.962ZM7.03 82.7524C7.03 84.6224 8.658 85.7444 12.31 85.7444L13.322 85.7444C17.084 85.7444 18.69 84.6004 18.69 82.7744C18.69 80.8824 17.084 79.7604 13.432 79.7604L12.398 79.7604C8.746 79.7604 7.03 80.8164 7.03 82.7524ZM4.588 82.7304C4.588 79.4964 6.81 76.7904 12.332 76.7904L13.212 76.7904C19.02 76.7904 21.154 79.7384 21.154 82.7744C21.154 85.8324 18.976 88.6704 13.3 88.6704L12.442 88.6704C6.678 88.6704 4.588 85.7884 4.588 82.7304ZM6.986 96.2552C6.986 97.6852 7.998 98.7412 9.934 98.7412C11.936 98.7412 12.75 97.6412 12.75 96.1892C12.75 95.2432 11.936 94.0992 11.144 93.6372L11.034 93.6372C8.504 93.6372 6.986 94.4952 6.986 96.2552ZM4.588 96.3872C4.588 92.6692 7.228 90.7772 11.782 90.7772L12.816 90.7772C18.712 90.7772 21.088 93.6812 21.088 97.2892C21.088 98.6532 20.582 100.259 20.12 100.963L17.876 100.193C18.272 99.6432 18.668 98.3232 18.668 97.3772C18.668 95.3752 17.304 93.8132 13.784 93.6152C14.466 94.3192 15.038 95.6392 15.038 97.0912C15.038 99.6432 13.212 101.601 10.176 101.601C7.03 101.601 4.588 99.7532 4.588 96.3872Z" fill="#FEF9ED"/>
<path d="M16.99 142.524L11.864 140.896L11.864 144.174L16.99 142.524ZM5.308 135.176L21.478 141.072L21.478 144.284L5.308 150.092L5.308 146.374L9.026 145.12L9.026 139.972L5.308 138.828L5.308 135.176ZM5.308 157.892L21.478 157.892L21.478 162.952L9.774 165.768L21.478 168.826L21.478 173.842L5.308 173.842L5.308 170.608L17.21 170.608L5.308 167.484L5.308 164.008L17.144 161.038L5.308 161.038L5.308 157.892ZM8.014 183.423C8.014 185.381 9.818 187.207 12.986 187.207L13.844 187.207C17.122 187.207 18.772 185.469 18.772 183.313C18.772 181.355 17.078 179.551 13.91 179.551L13.074 179.551C9.708 179.551 8.014 181.355 8.014 183.423ZM5.066 183.335C5.066 179.705 7.86 176.185 13.294 176.185L13.646 176.185C18.904 176.185 21.72 179.617 21.72 183.401C21.72 187.075 19.146 190.595 13.668 190.595L13.294 190.595C7.992 190.595 5.066 187.053 5.066 183.335ZM14.042 196.254L14.042 198.058C14.042 199.664 14.812 200.918 16.418 200.918C17.826 200.918 18.64 199.84 18.64 198.058L18.64 196.254L14.042 196.254ZM5.308 192.998L21.478 192.998L21.478 198.454C21.478 202.084 19.586 204.174 16.528 204.174C14.35 204.174 12.656 202.92 11.974 201.358L5.308 205.472L5.308 201.666L11.27 198.41L11.27 196.254L5.308 196.254L5.308 192.998ZM5.308 207.37L21.478 207.37L21.478 217.138L18.53 217.138L18.53 210.648L15.164 210.648L15.164 216.368L12.37 216.368L12.37 210.648L8.234 210.648L8.234 217.292L5.308 217.292L5.308 207.37ZM5.308 226.126L21.478 226.126L21.478 229.426L8.234 229.426L8.234 236.422L5.308 236.422L5.308 226.126ZM5.308 238.974L21.478 238.974L21.478 242.318L5.308 242.318L5.308 238.974ZM5.28599 249.646L21.478 244.036L21.478 247.644L9.06999 251.67L21.478 255.74L21.478 259.26L5.28599 253.606L5.28599 249.646ZM5.30799 260.738L21.478 260.738L21.478 270.506L18.53 270.506L18.53 264.016L15.164 264.016L15.164 269.736L12.37 269.736L12.37 264.016L8.23399 264.016L8.23399 270.66L5.30799 270.66L5.30799 260.738ZM3.83399 273.481L7.17799 273.481L7.17799 277.023L3.83399 277.023L3.83399 273.481ZM9.92799 273.965L22.006 273.591L22.006 277.023L9.92799 276.627L9.92799 273.965Z" fill="#FEF9ED"/>
</svg>
