<svg width="532" height="180" viewBox="0 0 532 180" fill="none" xmlns="http://www.w3.org/2000/svg">
<g opacity="0.5" filter="url(#filter0_f_62_6946)">
<rect x="36" y="38" width="460" height="106" rx="16" fill="black"/>
</g>
<rect x="16.5" y="0.5" width="499" height="119" rx="7.5" fill="#0075FF" stroke="#005ECD"/>
<path d="M206.098 42.956V55.844H210.778V60.02H206.098V77.084H201.058V42.956H206.098ZM199.294 68.228C196.198 68.804 190.69 69.308 185.614 69.308C183.958 69.308 182.374 69.236 180.682 69.236V54.692H191.338V49.76H180.646V45.8H196.414V58.652H185.83V65.096H186.73C190.006 65.096 194.794 64.916 198.754 64.16C198.934 65.528 199.078 66.86 199.294 68.228ZM226.507 57.464C226.507 52.28 224.707 49.616 222.259 49.616C219.955 49.616 218.155 52.28 218.155 57.464C218.155 62.612 219.955 65.276 222.259 65.276C224.707 65.276 226.507 62.612 226.507 57.464ZM213.331 57.464C213.331 50.336 216.679 45.152 222.259 45.152C227.947 45.152 231.259 50.3 231.259 57.464C231.259 64.484 227.947 69.704 222.259 69.704C216.679 69.704 213.331 64.52 213.331 57.464ZM240.763 77.084H235.723V42.956H240.763V77.084ZM267.688 59.048V54.584H254.152V59.048H267.688ZM272.764 63.008H249.112V45.584H254.152V50.624H267.688V45.62H272.764V63.008ZM276.364 72.548H245.548V68.516H276.364V72.548ZM310.896 58.832V54.116H297.36V58.832H310.896ZM319.572 72.872H288.756V68.84H301.644V62.792H292.32V45.152H297.36V50.228H310.896V45.152H315.972V62.792H306.684V68.84H319.572V72.872ZM323.745 46.484H339.945C339.657 56.456 335.589 65.096 324.501 71.18L321.657 67.22C329.109 63.728 333.897 57.176 334.581 50.624H323.745V46.484ZM350.241 77.084H345.165V42.956H350.241V77.084Z" fill="white"/>
<defs>
<filter id="filter0_f_62_6946" x="0" y="2" width="532" height="178" filterUnits="userSpaceOnUse" color-interpolation-filters="sRGB">
<feFlood flood-opacity="0" result="BackgroundImageFix"/>
<feBlend mode="normal" in="SourceGraphic" in2="BackgroundImageFix" result="shape"/>
<feGaussianBlur stdDeviation="18" result="effect1_foregroundBlur_62_6946"/>
</filter>
</defs>
</svg>
