<svg width="308" height="231" viewBox="0 0 308 231" fill="none" xmlns="http://www.w3.org/2000/svg">
<path d="M43.4 13.376V33.2H50.736V39.64H43.4V66.464H35.56V13.376H43.4ZM11.536 47.928H12.936C18.816 47.928 27.104 47.368 32.088 46.36L32.872 52.744C28 53.696 17.92 54.536 8.4 54.536H3.752V18.136H28.168V24.52H11.536V47.928ZM58.5716 29.056C58.5716 32.808 61.2596 35.104 64.8436 35.104C68.5396 35.104 71.2836 32.864 71.2836 29.056C71.2836 25.36 68.4836 22.952 64.8436 22.952C61.3156 22.952 58.5716 25.304 58.5716 29.056ZM50.9556 29C50.9556 21.608 57.0036 16.568 64.8436 16.568C72.7956 16.568 78.8436 21.608 78.8436 29C78.8436 36.448 72.7956 41.6 64.8436 41.6C56.9476 41.6 50.9556 36.448 50.9556 29ZM74.0836 50.84C67.4196 50.84 63.4996 52.576 63.4996 55.376C63.4996 58.064 67.4196 59.856 74.0836 59.856C80.9156 59.856 84.7236 58.064 84.7236 55.376C84.7236 52.688 80.9156 50.84 74.0836 50.84ZM92.6756 55.376C92.6756 61.928 85.6756 66.072 74.0836 66.072C62.4916 66.072 55.6036 61.928 55.6036 55.376C55.6036 48.712 62.4916 44.568 74.0836 44.568C85.6756 44.568 92.6756 48.712 92.6756 55.376ZM98.5556 27.096H92.2276V31.632H98.5556V38.016H92.2276V44.568H84.3316V13.376H92.2276V20.656H98.5556V27.096ZM109.415 39.808C109.415 41.992 111.431 43.952 114.399 43.952C117.423 43.952 119.495 41.992 119.495 39.808C119.495 37.68 117.423 35.496 114.399 35.496C111.431 35.496 109.415 37.68 109.415 39.808ZM142.007 65.568H105.495V51.456H113.559V59.296H142.007V65.568ZM140.943 13.376V31.24H148.055V37.68H140.943V53.36H133.103V13.376H140.943ZM106.503 20.656V14.888H122.463V20.656H106.503ZM127.223 39.808C127.223 45.464 122.015 49.776 114.399 49.776C106.783 49.776 101.575 45.464 101.575 39.808C101.575 34.208 106.727 29.784 114.399 29.784C122.015 29.784 127.223 34.208 127.223 39.808ZM129.799 28.888H98.8313V22.84H129.799V28.888ZM17.976 124.568C17.976 121.712 15.96 119.472 13.384 119.472C10.808 119.472 8.848 121.656 8.848 124.568C8.848 127.536 10.808 129.664 13.384 129.664C15.96 129.664 17.976 127.424 17.976 124.568ZM20.776 103.4H7.336V97.184H20.776V103.4ZM24.584 124.568C24.584 130.784 20.048 135.488 13.384 135.488C6.608 135.488 2.184 130.728 2.184 124.568C2.184 118.184 6.888 113.648 13.384 113.648C20.048 113.648 24.584 118.296 24.584 124.568ZM47.04 146.464H39.536V93.376H47.04V146.464ZM36.68 144.112H29.456V128.824H25.648V121.824H29.456V116.672H25.536V112.36H1.344V106.2H25.928V109.728H29.456V94.328H36.68V144.112ZM95.7556 125.632H88.3076V113.48H84.7796V125.632H77.3876V94.328H84.7796V107.264H88.3076V93.376H95.7556V125.632ZM59.8036 113.984V118.352C60.3636 118.352 60.9236 118.408 61.4836 118.408C66.2436 118.408 71.7316 117.792 74.4756 117.232C74.6996 119.248 74.8116 121.152 75.0356 123.168C71.7316 123.896 62.3236 124.512 52.2996 124.512V97.576H73.0196V103.736H59.8036V107.824H72.4036V113.984H59.8036ZM58.5156 127.928H95.7556V146.52H87.9156V134.144H58.5156V127.928ZM102.359 109.392C102.359 101.776 108.575 96.736 116.751 96.736C124.983 96.736 131.311 101.776 131.311 109.392C131.311 117.12 124.983 122.104 116.751 122.104C108.575 122.104 102.359 117.12 102.359 109.392ZM144.415 93.376V146.464H136.575V93.376H144.415ZM134.111 127.088L134.671 133.304C130.695 133.864 122.967 134.536 117.479 134.816C111.655 135.096 105.159 135.32 100.399 135.264L99.5033 128.376C105.663 128.376 111.151 128.376 116.415 128.208C123.583 127.984 130.079 127.48 134.111 127.088ZM110.031 109.392C110.031 113.256 113.055 115.832 116.751 115.832C120.447 115.832 123.583 113.256 123.583 109.392C123.583 105.528 120.447 103.008 116.751 103.008C113.055 103.008 110.031 105.528 110.031 109.392ZM182.73 115.944C182.73 107.88 179.93 103.736 176.122 103.736C172.538 103.736 169.738 107.88 169.738 115.944C169.738 123.952 172.538 128.096 176.122 128.096C179.93 128.096 182.73 123.952 182.73 115.944ZM162.234 115.944C162.234 104.856 167.442 96.792 176.122 96.792C184.97 96.792 190.122 104.8 190.122 115.944C190.122 126.864 184.97 134.984 176.122 134.984C167.442 134.984 162.234 126.92 162.234 115.944ZM204.906 146.464H197.066V93.376H204.906V146.464ZM225.23 117.736V111.352H219.518V117.736H225.23ZM254.742 132.576H247.35V93.376H254.742V132.576ZM256.03 145.344H218.006V127.816H225.846V139.184H256.03V145.344ZM233.238 123.952H211.622V97.856H219.518V105.304H225.23V97.856H233.238V107.152H236.878V94.272H244.27V131.232H236.878V113.648H233.238V123.952ZM306.201 133.696V139.856H258.265V133.696H306.201ZM298.977 115.16H272.265V120.536H300.993V126.752H264.369V97.744H300.321V103.96H272.265V109H298.977V115.16Z" fill="#0E1B92"/>
<path d="M28.608 212.906H24.902V189.514H28.608V212.906ZM29.322 220.862H7.392V210.696H11.098V217.87H29.322V220.862ZM3.55 194.852V191.86H20.516V194.852H14.09V195.498C14.09 200.292 17.66 204.032 21.434 205.256L19.394 208.214C16.742 207.16 13.58 204.406 12.186 201.414C11.234 204.542 7.732 207.908 4.502 209.098L2.292 206.208C6.814 204.542 10.282 200.428 10.282 195.702V194.852H3.55ZM43.1233 204.27C43.1233 202.978 41.6273 202.094 39.6213 202.094C37.6153 202.094 36.1873 202.978 36.1873 204.27C36.1873 205.528 37.6153 206.446 39.6213 206.446C41.6613 206.446 43.1233 205.528 43.1233 204.27ZM35.2353 193.458V190.5H43.8373V193.458H35.2353ZM31.4613 198.082V195.158H47.1693V198.082H31.4613ZM48.0193 213.246C43.4973 213.246 40.7433 214.334 40.7433 216.136C40.7433 217.904 43.4973 218.992 48.0193 218.992C52.4733 218.992 55.2613 217.904 55.2613 216.136C55.2613 214.334 52.4733 213.246 48.0193 213.246ZM46.3533 204.27C46.3533 206.956 43.6673 209.2 39.6213 209.2C35.6093 209.2 32.9233 206.956 32.9233 204.27C32.9233 201.618 35.6093 199.306 39.6213 199.306C43.6673 199.306 46.3533 201.584 46.3533 204.27ZM58.8313 210.084H55.2953V201.448H52.1673V208.962H48.6653V190.092H52.1673V198.354H55.2953V189.514H58.8313V210.084ZM59.0693 216.102C59.0693 219.672 54.8873 221.814 48.0533 221.814C41.1513 221.814 36.9353 219.672 36.9353 216.102C36.9353 212.566 41.1513 210.424 48.0533 210.424C54.8873 210.424 59.0693 212.566 59.0693 216.102ZM83.1727 215.864C83.1727 213.96 80.2827 212.94 75.7947 212.94C71.3067 212.94 68.4507 213.96 68.4507 215.864C68.4507 217.802 71.3067 218.754 75.7947 218.754C80.3167 218.754 83.1727 217.802 83.1727 215.864ZM88.8507 199.68L87.2187 202.57C82.3907 201.992 77.5627 199.272 75.8287 196.178C74.2647 199.51 69.7427 201.992 64.4047 202.57L62.8067 199.68C67.9067 199.34 72.7007 197.062 73.7207 193.458H64.2347V190.466H87.4227V193.458H77.9707C79.1267 197.062 84.4987 199.408 88.8507 199.68ZM86.9807 215.864C86.9807 219.468 82.8667 221.746 75.8287 221.746C68.7567 221.746 64.6427 219.468 64.6427 215.864C64.6427 212.6 68.0087 210.424 73.8907 210.016V207.296H61.2427V204.304H90.3467V207.296H77.5967V210.016C83.5467 210.356 86.9807 212.6 86.9807 215.864ZM104.59 199.782C104.59 196.96 102.856 194.988 100.034 194.988C97.28 194.988 95.444 197.062 95.444 199.782C95.444 202.434 97.28 204.542 100.034 204.542C102.856 204.542 104.59 202.434 104.59 199.782ZM108.296 199.782C108.296 204.372 104.964 207.67 100.034 207.67C95.104 207.67 91.738 204.406 91.738 199.816C91.738 195.226 95.07 191.894 100.034 191.894C104.964 191.894 108.296 195.192 108.296 199.782ZM118.088 220.828H96.022V210.696H99.728V217.836H118.088V220.828ZM117.34 212.906H113.634V189.514H117.34V212.906ZM142.065 203.318C142.065 198.15 140.161 195.056 137.407 195.056C134.687 195.056 132.817 198.15 132.817 203.318C132.817 208.486 134.687 211.58 137.407 211.58C140.161 211.58 142.065 208.486 142.065 203.318ZM129.179 203.318C129.179 196.518 132.239 192.03 137.407 192.03C142.575 192.03 145.601 196.518 145.601 203.352C145.601 210.118 142.575 214.572 137.407 214.572C132.239 214.572 129.179 210.118 129.179 203.318ZM154.747 221.746H151.041V189.514H154.747V221.746ZM168.208 204.304V199.748H162.768V204.304H168.208ZM184.936 213.45H181.4V189.514H184.936V213.45ZM185.786 220.896H163.584V210.662H167.29V217.904H185.786V220.896ZM171.914 207.296H159.062V191.928H162.768V196.824H168.208V191.86H171.914V197.946H175.28V190.126H178.782V212.566H175.28V201.04H171.914V207.296ZM216.485 214.708V217.666H187.381V214.708H216.485ZM211.657 201.788H194.827V205.902H213.051V208.826H191.121V191.996H212.745V194.954H194.827V198.864H211.657V201.788ZM225.74 217.36V215.184L230.942 209.744C234.342 206.174 236.926 203.25 236.926 200.02C236.926 196.892 235.328 195.566 232.064 195.566C230.194 195.566 228.188 196.45 226.794 197.368L226.046 194.512C227.644 193.526 230.126 192.472 232.914 192.472C238.15 192.472 240.87 195.158 240.87 199.578C240.87 203.896 237.606 207.364 234.104 211.002L230.772 214.334H241.21V217.36H225.74ZM246.062 209.642H253.372V198.932L246.062 209.642ZM253.338 217.564V212.532H242.186V210.152L254.188 192.676H256.908V209.642H260.75V212.532H256.908V217.564H253.338Z" fill="#4E59B9"/>
</svg>
