<svg width="23" height="300" viewBox="0 0 23 300" fill="none" xmlns="http://www.w3.org/2000/svg">
<path d="M4.83 1.54862L20.89 1.54863L20.89 11.2726L18.404 11.2726L18.404 4.29863L14.444 4.29862L14.444 10.5246L12.046 10.5246L12.046 4.29862L7.294 4.29862L7.294 11.4046L4.83 11.4046L4.83 1.54862ZM4.808 18.606L20.89 12.93L20.89 16.01L8.02 20.3L20.89 24.634L20.89 27.648L4.808 21.906L4.808 18.606ZM4.83 29.2635L20.89 29.2635L20.89 38.9875L18.404 38.9875L18.404 32.0135L14.444 32.0135L14.444 38.2395L12.046 38.2395L12.046 32.0135L7.294 32.0135L7.294 39.1195L4.83 39.1195L4.83 29.2635ZM4.83 41.7889L20.89 41.7889L20.89 45.1549L9.318 51.2709L20.89 51.2709L20.89 53.9989L4.83 53.9989L4.83 50.7649L16.666 44.4949L4.83 44.4949L4.83 41.7889ZM18.338 63.7784L4.808 63.7784L4.808 60.9624L18.338 60.9624L18.338 56.2544L20.868 56.2544L20.868 68.5084L18.338 68.5084L18.338 63.7784ZM7.03 82.5688C7.03 84.4388 8.658 85.5608 12.31 85.5608L13.322 85.5608C17.084 85.5608 18.69 84.4168 18.69 82.5908C18.69 80.6988 17.084 79.5768 13.432 79.5768L12.398 79.5768C8.746 79.5768 7.03 80.6328 7.03 82.5688ZM4.588 82.5468C4.588 79.3128 6.81 76.6068 12.332 76.6068L13.212 76.6068C19.02 76.6068 21.154 79.5548 21.154 82.5908C21.154 85.6488 18.976 88.4868 13.3 88.4868L12.442 88.4868C6.678 88.4868 4.588 85.6048 4.588 82.5468ZM4.83 91.2287L18.338 96.5747L18.338 89.6667L20.89 89.6667L20.89 99.7867L18.976 99.7867L4.83 94.3967L4.83 91.2287Z" fill="#0075FF"/>
<path d="M16.99 140.524L11.864 138.896L11.864 142.174L16.99 140.524ZM5.308 133.176L21.478 139.072L21.478 142.284L5.308 148.092L5.308 144.374L9.026 143.12L9.026 137.972L5.308 136.828L5.308 133.176ZM5.308 155.892L21.478 155.892L21.478 160.952L9.774 163.768L21.478 166.826L21.478 171.842L5.308 171.842L5.308 168.608L17.21 168.608L5.308 165.484L5.308 162.008L17.144 159.038L5.308 159.038L5.308 155.892ZM8.014 181.423C8.014 183.381 9.818 185.207 12.986 185.207L13.844 185.207C17.122 185.207 18.772 183.469 18.772 181.313C18.772 179.355 17.078 177.551 13.91 177.551L13.074 177.551C9.708 177.551 8.014 179.355 8.014 181.423ZM5.066 181.335C5.066 177.705 7.86 174.185 13.294 174.185L13.646 174.185C18.904 174.185 21.72 177.617 21.72 181.401C21.72 185.075 19.146 188.595 13.668 188.595L13.294 188.595C7.992 188.595 5.066 185.053 5.066 181.335ZM14.042 194.254L14.042 196.058C14.042 197.664 14.812 198.918 16.418 198.918C17.826 198.918 18.64 197.84 18.64 196.058L18.64 194.254L14.042 194.254ZM5.308 190.998L21.478 190.998L21.478 196.454C21.478 200.084 19.586 202.174 16.528 202.174C14.35 202.174 12.656 200.92 11.974 199.358L5.308 203.472L5.308 199.666L11.27 196.41L11.27 194.254L5.308 194.254L5.308 190.998ZM5.308 205.37L21.478 205.37L21.478 215.138L18.53 215.138L18.53 208.648L15.164 208.648L15.164 214.368L12.37 214.368L12.37 208.648L8.234 208.648L8.234 215.292L5.308 215.292L5.308 205.37ZM5.308 224.126L21.478 224.126L21.478 233.894L18.53 233.894L18.53 227.404L15.164 227.404L15.164 233.124L12.37 233.124L12.37 227.404L8.234 227.404L8.234 234.048L5.308 234.048L5.308 224.126ZM5.286 241.072L21.478 235.462L21.478 239.07L9.07 243.096L21.478 247.166L21.478 250.686L5.286 245.032L5.286 241.072ZM5.30799 252.163L21.478 252.163L21.478 261.931L18.53 261.931L18.53 255.441L15.164 255.441L15.164 261.161L12.37 261.161L12.37 255.441L8.23399 255.441L8.23399 262.085L5.30799 262.085L5.30799 252.163ZM5.30799 264.753L21.478 264.753L21.478 268.691L10.742 274.015L21.478 274.015L21.478 277.227L5.30799 277.227L5.30799 273.443L16.286 267.965L5.30799 267.965L5.30799 264.753ZM18.442 287.287L5.30799 287.287L5.30799 283.943L18.442 283.943L18.442 279.499L21.478 279.499L21.478 291.753L18.442 291.753L18.442 287.287ZM3.83399 294.19L7.17799 294.19L7.17799 297.732L3.83399 297.732L3.83399 294.19ZM9.92799 294.674L22.006 294.3L22.006 297.732L9.92799 297.336L9.92799 294.674Z" fill="#0E1B92"/>
</svg>
