<svg width="60" height="37" viewBox="0 0 60 37" fill="none" xmlns="http://www.w3.org/2000/svg">
<path d="M16.6514 36.6348C13.3962 36.6348 10.5885 35.8942 8.22852 34.4131C5.86849 32.932 4.04557 30.8324 2.75977 28.1143C1.49023 25.3799 0.855469 22.141 0.855469 18.3975V18.3486C0.855469 14.6051 1.49023 11.3743 2.75977 8.65625C4.04557 5.92188 5.86849 3.82227 8.22852 2.35742C10.5885 0.876302 13.3962 0.135742 16.6514 0.135742C19.9066 0.135742 22.7061 0.876302 25.0498 2.35742C27.4098 3.82227 29.2246 5.92188 30.4941 8.65625C31.7637 11.3743 32.3984 14.6051 32.3984 18.3486V18.3975C32.3984 22.141 31.7637 25.3799 30.4941 28.1143C29.2246 30.8324 27.4098 32.932 25.0498 34.4131C22.7061 35.8942 19.9066 36.6348 16.6514 36.6348ZM16.6514 28.6758C17.7907 28.6758 18.751 28.2852 19.5322 27.5039C20.3135 26.7064 20.9076 25.5426 21.3145 24.0127C21.7214 22.4827 21.9248 20.611 21.9248 18.3975V18.3486C21.9248 16.1351 21.7214 14.2715 21.3145 12.7578C20.9076 11.2279 20.3135 10.0723 19.5322 9.29102C18.751 8.49349 17.7907 8.09473 16.6514 8.09473C15.512 8.09473 14.5436 8.49349 13.7461 9.29102C12.9648 10.0723 12.3708 11.2279 11.9639 12.7578C11.557 14.2715 11.3535 16.1351 11.3535 18.3486V18.3975C11.3535 20.611 11.557 22.4827 11.9639 24.0127C12.3708 25.5426 12.9648 26.7064 13.7461 27.5039C14.5436 28.2852 15.512 28.6758 16.6514 28.6758ZM34.7812 36L49.1611 8.77832V8.58301H32.2666V0.770508H59.3662V8.55859L45.6211 36H34.7812Z" fill="#0075FF"/>
</svg>
