<svg width="421" height="456" viewBox="0 0 421 456" fill="none" xmlns="http://www.w3.org/2000/svg">
<path d="M84.8172 255.26V251.87L87.7272 248.69C90.7272 245.48 93.7272 242.21 93.7272 239.96C93.7272 237.59 92.1672 237.08 89.7072 237.08C88.6272 237.08 86.7372 237.59 85.5672 238.1L85.0872 233.99C86.7672 233.12 89.0172 232.7 91.6872 232.7C97.2072 232.7 99.8172 234.89 99.8172 239.06C99.8172 243.2 94.9572 248 93.7272 249.35L92.2572 250.91H99.5772V255.26H84.8172ZM116.985 259.22H112.005V250.01H101.595V246.05H127.575V250.01H116.985V259.22ZM125.265 235.61H117.555C118.245 238.67 121.995 240.56 126.525 240.98L124.575 244.79C121.245 244.55 116.415 242.81 114.585 239.63C112.815 242.81 108.135 244.58 104.505 244.85L102.675 241.04C107.415 240.62 110.925 238.7 111.585 235.61H103.875V231.77H125.265V235.61ZM155.533 242.24H151.963V250.82H146.953V230.48H151.963V238.13H155.533V242.24ZM152.563 258.53H133.123V248.66H138.163V254.48H152.563V258.53ZM130.123 232.61H144.253C143.953 242.09 136.963 247.19 130.843 248.39L128.833 244.43C133.393 243.62 137.833 240.56 138.763 236.69H130.123V232.61ZM187.999 230.48V241.01H191.509V245.09H187.999V259.22H182.989V230.48H187.999ZM165.079 242.63C165.079 236.63 168.079 232.13 172.909 232.13C177.829 232.13 180.739 236.57 180.739 242.63C180.739 248.6 177.829 253.13 172.909 253.13C168.079 253.13 165.079 248.66 165.079 242.63ZM175.879 242.63C175.879 238.49 174.559 236.66 172.909 236.66C171.319 236.66 170.029 238.49 170.029 242.63C170.029 246.77 171.319 248.63 172.909 248.63C174.559 248.63 175.879 246.77 175.879 242.63ZM211.156 242.96V236.36H200.356V242.96H211.156ZM216.196 246.83H208.246V252.08H218.776V255.98H192.796V252.08H203.266V246.83H195.346V232.49H216.196V246.83ZM245.204 259.22H240.494V230.48H245.204V259.22ZM239.144 257.99H234.554V243.62H232.124V244.85H226.154V248.6C227.984 248.69 231.614 248.36 233.144 248L233.534 251.9C231.374 252.47 226.724 252.74 223.694 252.74C223.004 252.74 221.894 252.71 221.234 252.68V240.71H227.174V237.23H221.264V233.15H232.124V239.66H234.554V230.96H239.144V257.99ZM264.792 236.45H248.622V232.58H264.792V236.45ZM267.312 244.91H263.892V240.68H267.312V230.48H272.352V259.22H267.312V244.91ZM264.942 248.63L265.212 252.38C260.952 253.04 253.362 253.4 248.442 253.31L247.932 249.32H251.112L250.422 237.89L255.342 237.65L255.582 249.26L257.532 249.2L257.982 237.65L262.842 238.01L261.942 248.93C262.902 248.84 263.922 248.75 264.942 248.63ZM299.949 259.22H294.909V230.48H299.949V259.22ZM294.039 249.2L291.129 253.1C288.849 251.99 285.819 248.87 284.859 246.29C284.019 249.08 281.229 252.05 278.169 253.67L275.109 249.8C280.299 247.13 282.339 242.84 282.339 236.45V232.67H287.289V236.36C287.289 242.63 289.179 246.89 294.039 249.2ZM319.897 236.15H304.357V232.22H319.897V236.15ZM327.187 248.33H322.177V230.57H327.187V248.33ZM327.187 259.25H322.237V253.19H306.967V249.32H327.187V259.25ZM310.867 237.08L310.987 243.68C311.677 243.68 312.367 243.65 313.087 243.62L313.327 237.08L318.067 237.38L317.497 243.32C318.607 243.23 319.717 243.14 320.827 242.99L321.127 246.71C316.837 247.37 309.427 247.76 304.177 247.7L303.697 243.74C304.657 243.77 305.677 243.77 306.697 243.77L306.127 237.44L310.867 237.08ZM55.5365 298.48L55.8965 302.47C53.6465 303.04 48.9065 303.25 46.2065 303.22L43.8965 303.19V283.72H54.8765V287.68H48.8765V299.08C51.3665 299.08 53.9765 298.84 55.5365 298.48ZM68.0465 309.22H63.3365V295.18H61.5665V307.99H56.9465V280.9H61.5665V291.01H63.3365V280.48H68.0465V309.22ZM94.4441 286.03H72.9641V282.19H94.4441V286.03ZM94.3241 296.44H73.0841V292.57H76.5941L75.9941 287.53L80.9441 287.17L81.2741 292.57H86.3741L86.7941 287.17L91.7741 287.68L90.9641 292.57H94.3241V296.44ZM96.7841 305.98H70.8041V302.17H76.4441V297.61H81.4541V302.17H85.9841V297.61H91.0541V302.17H96.7841V305.98ZM133.15 291.43H129.64V297.31H124.63V280.48H129.64V287.38H133.15V291.43ZM130.06 303.22C130.06 306.73 126.04 308.83 119.74 308.83C113.44 308.83 109.45 306.7 109.45 303.22C109.45 299.62 113.44 297.49 119.74 297.49C126.04 297.49 130.06 299.59 130.06 303.22ZM119.74 301.15C116.5 301.15 114.7 301.99 114.7 303.22C114.7 304.36 116.5 305.14 119.74 305.14C123.07 305.14 124.78 304.33 124.78 303.22C124.78 302.02 123.07 301.15 119.74 301.15ZM123.88 292.66L121.18 296.65C119.08 295.99 116.35 293.95 115.27 291.61C114.43 294.19 111.37 296.74 108.91 297.55L106.18 293.5C110.47 292.18 112.72 288.76 112.72 284.68V281.74H117.79V284.41C117.79 288.97 120.22 291.46 123.88 292.66ZM152.438 305.11V303.49H142.388V305.11H152.438ZM158.288 285.19H136.658V281.32H158.288V285.19ZM157.898 293.05H136.838V289.21H140.258L139.868 286.33L144.608 285.97L144.968 289.21H149.798L150.278 286.03L155.078 286.42L154.448 289.21H157.898V293.05ZM157.388 308.86H137.318V299.74H144.908V298.3H134.408V294.37H160.388V298.3H149.858V299.74H157.388V308.86ZM187.985 295.75H162.005V291.76H187.985V295.75ZM185.735 308.95H164.795V301.21H180.095V300.25H164.795V296.71H185.135V304.24H169.805V305.2H185.735V308.95ZM185.555 286.09C185.555 288.97 181.595 291.13 174.965 291.13C168.335 291.13 164.435 288.97 164.435 286.09C164.435 283.21 168.335 281.05 174.965 281.05C181.595 281.05 185.555 283.21 185.555 286.09ZM174.965 284.71C171.635 284.71 169.865 285.4 169.865 286.12C169.865 286.9 171.635 287.59 174.965 287.59C178.325 287.59 180.095 286.9 180.095 286.12C180.095 285.4 178.325 284.71 174.965 284.71ZM202.841 285.61V281.74H211.841V285.61H202.841ZM216.371 299.98L216.761 303.85C213.581 304.33 209.051 304.72 205.931 304.81C203.231 304.9 200.471 304.99 198.431 304.99L197.921 300.76C200.801 300.76 202.961 300.76 205.061 300.73V297.4H210.071V300.52C212.411 300.4 214.391 300.25 216.371 299.98ZM199.601 290.98V287.02H215.111V290.98H210.251C211.001 292.87 213.521 294.22 215.981 294.43L214.001 298.39C211.811 298.18 208.391 296.56 207.431 294.7C206.111 296.86 203.081 298.6 200.741 299.02L198.611 295.06C201.551 294.49 203.951 293.08 204.581 290.98H199.601ZM217.571 280.48H222.521V309.22H217.571V280.48ZM237.939 298.48L238.299 302.47C236.049 303.04 231.309 303.25 228.609 303.22L226.299 303.19V283.72H237.279V287.68H231.279V299.08C233.769 299.08 236.379 298.84 237.939 298.48ZM250.449 309.22H245.739V295.18H243.969V307.99H239.349V280.9H243.969V291.01H245.739V280.48H250.449V309.22ZM266.715 298.03C266.715 299.41 267.465 300.37 268.725 300.37C269.955 300.37 270.735 299.41 270.735 298.03C270.735 296.68 269.955 295.75 268.725 295.75C267.465 295.75 266.715 296.68 266.715 298.03ZM272.355 286.33H264.945V282.46H272.355V286.33ZM286.485 309.22H281.805V280.48H286.485V309.22ZM280.785 308.05H276.195V300.34H274.635C273.765 302.53 271.605 304.03 268.725 304.03C264.795 304.03 262.365 301.42 262.365 298.03C262.365 294.64 264.975 292.12 268.725 292.12C271.905 292.12 274.215 293.95 274.875 296.47H276.195V293.83H273.645V291.43H261.705V287.56H274.875V289.9H276.195V280.96H280.785V308.05ZM314.082 297.88H309.402V291.55H308.052V297.82H303.342V281.02H308.052V287.62H309.402V280.48H314.082V297.88ZM301.332 288.22V291.82H294.972V293.74H296.082C297.852 293.74 300.942 293.53 302.052 293.26L302.412 296.89C300.162 297.34 295.182 297.7 290.202 297.52V282.52H301.572V286.39H294.972V288.22H301.332ZM314.082 309.25H309.132V302.83H293.442V298.96H314.082V309.25ZM342.79 305.95H316.81V301.66H342.79V305.95ZM340.72 290.14C340.72 294.88 336.43 298.3 329.8 298.3C323.23 298.3 318.88 294.88 318.88 290.14C318.88 285.46 323.23 282.07 329.8 282.07C336.4 282.07 340.72 285.46 340.72 290.14ZM335.5 290.2C335.5 287.74 333.25 286.18 329.8 286.18C326.35 286.18 324.1 287.74 324.1 290.2C324.1 292.69 326.35 294.25 329.8 294.25C333.22 294.25 335.5 292.69 335.5 290.2ZM368.288 298.81H359.888V302.05H370.388V305.98H344.408V302.05H354.908V298.81H347.258V288.37H362.648V286.33H347.258V282.19H367.688V292.51H352.298V294.67H368.288V298.81ZM107.831 346.86H93.5512V332.7H107.831V346.86ZM102.881 342.99V336.51H98.5312V342.99H102.881ZM119.321 342.36H115.781V351.33H110.771V330.48H115.781V338.28H119.321V342.36ZM116.141 358.62H96.2512V349.35H101.261V354.72H116.141V358.62ZM146.949 345.06H143.379V359.22H138.339V330.48H143.379V340.92H146.949V345.06ZM136.959 347.19L137.469 351.36C133.479 352.32 127.209 352.62 123.609 352.62C122.889 352.62 122.079 352.59 121.329 352.59V333.18H126.249V348.12C129.939 348.21 134.469 347.64 136.959 347.19ZM174.186 348.03H148.206V344.07H174.186V348.03ZM171.486 358.26H150.936V349.95H156.006V354.27H171.486V358.26ZM171.366 341.79H151.236V331.5H156.276V337.77H171.366V341.79ZM203.082 358.05H198.582V344.04H195.582V339.84H198.582V330.96H203.082V358.05ZM198.522 348.75L195.852 352.71C194.322 351.87 191.982 349.35 191.352 347.22C190.722 349.53 188.832 352.08 186.402 353.58L183.522 349.89C187.422 347.49 189.042 343.23 189.042 337.41V332.91H193.872V337.14C193.872 343.35 195.312 346.83 198.522 348.75ZM209.082 359.22H204.372V330.48H209.082V359.22ZM235.9 344.52H230.86V330.48H235.9V344.52ZM236.38 358.89H216.13V350.46H230.89V349.38H216.1V345.6H235.9V353.85H221.14V354.93H236.38V358.89ZM212.35 337.98C212.35 334.05 215.68 331.23 220.12 331.23C224.59 331.23 227.92 334.05 227.92 338.01C227.92 341.97 224.59 344.79 220.12 344.79C215.68 344.79 212.35 341.97 212.35 337.98ZM217.24 338.01C217.24 339.69 218.41 340.74 220.12 340.74C221.74 340.74 223.06 339.69 223.06 337.98C223.06 336.33 221.74 335.25 220.12 335.25C218.41 335.25 217.24 336.33 217.24 338.01ZM260.986 337.59H247.906V333.69H260.986V337.59ZM267.106 357.99H262.486V345.21H260.446V340.68H262.486V330.96H267.106V357.99ZM273.046 359.22H268.366V330.48H273.046V359.22ZM261.016 348.27L261.346 352.11C257.506 352.65 251.776 353.07 248.146 352.95L247.606 348.96C248.236 348.96 248.956 348.96 249.736 348.93L249.046 339L253.666 338.64L253.786 348.81L254.986 348.75L255.196 338.61L259.846 338.94L259.126 348.48C259.846 348.42 260.476 348.36 261.016 348.27ZM300.854 343.35L298.664 347.46C294.014 346.74 289.784 343.95 288.404 340.32C287.114 343.95 282.494 346.77 278.054 347.46L275.894 343.38C280.574 342.81 285.644 339.69 285.644 334.2V332.37H291.164V334.2C291.164 339.69 296.054 342.9 300.854 343.35ZM301.394 355.95H275.414V351.96H301.394V355.95ZM317.321 340.68V344.64H309.071V349.02C312.011 349.08 316.241 348.84 319.121 348.36L319.571 352.23C315.671 352.92 309.971 353.04 306.131 353.04H304.091V332.79H317.651V336.66H309.071V340.68H317.321ZM329.381 344.88H325.781V359.22H320.831V330.48H325.781V340.8H329.381V344.88Z" fill="#FEF9ED"/>
<path d="M113.045 140.332C117.547 140.332 121.196 136.678 121.196 132.169C121.196 127.661 117.547 124.006 113.045 124.006C108.544 124.006 104.895 127.661 104.895 132.169C104.895 136.678 108.544 140.332 113.045 140.332Z" fill="white"/>
<path d="M207.311 140.332C211.812 140.332 215.462 136.678 215.462 132.169C215.462 127.661 211.812 124.006 207.311 124.006C202.809 124.006 199.16 127.661 199.16 132.169C199.16 136.678 202.809 140.332 207.311 140.332Z" fill="white"/>
<path d="M310.08 140.332C314.582 140.332 318.231 136.678 318.231 132.169C318.231 127.661 314.582 124.006 310.08 124.006C305.579 124.006 301.93 127.661 301.93 132.169C301.93 136.678 305.579 140.332 310.08 140.332Z" fill="white"/>
<path d="M338.432 140.332C342.933 140.332 346.583 136.678 346.583 132.169C346.583 127.661 342.933 124.006 338.432 124.006C333.93 124.006 330.281 127.661 330.281 132.169C330.281 136.678 333.93 140.332 338.432 140.332Z" fill="white"/>
<path d="M370.323 140.332C374.824 140.332 378.473 136.678 378.473 132.169C378.473 127.661 374.824 124.006 370.323 124.006C365.821 124.006 362.172 127.661 362.172 132.169C362.172 136.678 365.821 140.332 370.323 140.332Z" fill="white"/>
<path d="M83.2773 100.504C83.2773 96.0036 86.9345 92.3408 91.428 92.3408C95.9215 92.3408 99.5787 96.0036 99.5787 100.504V153.047C99.5787 162.651 92.4911 170.63 83.2773 172V100.504Z" fill="white"/>
<path d="M144.034 167.813C141.858 167.813 139.81 166.961 138.272 165.42C135.097 162.24 135.097 157.058 138.272 153.878L165.616 126.492C167.154 124.952 169.202 124.1 171.378 124.1C173.554 124.1 175.602 124.952 177.14 126.492C180.315 129.672 180.315 134.854 177.14 138.034L149.796 165.42C148.258 166.961 146.21 167.813 144.034 167.813Z" fill="white"/>
<path d="M198.301 167.245C196.125 167.245 194.077 166.393 192.539 164.852L165.826 138.105C164.288 136.565 163.438 134.513 163.438 132.334C163.438 130.155 164.288 128.103 165.826 126.563C167.364 125.023 169.412 124.171 171.588 124.171C173.764 124.171 175.812 125.023 177.35 126.563L204.056 153.31C205.594 154.851 206.445 156.902 206.445 159.081C206.445 161.261 205.594 163.312 204.056 164.852C202.518 166.393 200.47 167.245 198.294 167.245H198.301Z" fill="white"/>
<path d="M294.487 112.585C289.993 112.585 286.336 108.922 286.336 104.422C286.336 99.9216 289.993 96.2588 294.487 96.2588H354.022C358.515 96.2588 362.173 99.9216 362.173 104.422C362.173 108.922 358.515 112.585 354.022 112.585H294.487Z" fill="white"/>
<path d="M294.487 167.245C289.993 167.245 286.336 163.582 286.336 159.081C286.336 154.581 289.993 150.918 294.487 150.918H354.022C358.515 150.918 362.173 154.581 362.173 159.081C362.173 163.582 358.515 167.245 354.022 167.245H294.487Z" fill="white"/>
<path d="M383.438 100.163C383.438 95.6628 387.095 92 391.588 92C396.082 92 399.739 95.6628 399.739 100.163V153.047C399.739 162.651 392.651 170.63 383.438 172V100.163Z" fill="white"/>
<path d="M404.699 100.163C404.699 95.6628 408.356 92 412.85 92C417.343 92 421.001 95.6628 421.001 100.163V152.373C421.001 161.977 413.913 169.956 404.699 171.326V100.163Z" fill="white"/>
<path d="M220.422 100.163C220.422 95.6628 224.079 92 228.573 92C233.066 92 236.723 95.6628 236.723 100.163V153.047C236.723 162.651 229.636 170.63 220.422 172V100.163Z" fill="white"/>
<path d="M241.688 100.163C241.688 95.6628 245.345 92 249.838 92C254.332 92 257.989 95.6628 257.989 100.163V152.373C257.989 161.977 250.901 169.956 241.688 171.326V100.163Z" fill="white"/>
<path d="M35.4377 167.244C15.8974 167.244 0 151.322 0 131.751C0 112.181 15.8974 96.2588 35.4377 96.2588H37.564C57.1043 96.2588 73.0017 112.181 73.0017 131.751C73.0017 151.322 57.1043 167.244 37.564 167.244H35.4377Z" fill="white"/>
<path d="M171.873 143.819C167.38 143.819 163.723 140.156 163.723 135.655V104.422C163.723 99.9216 167.38 96.2588 171.873 96.2588C176.367 96.2588 180.024 99.9216 180.024 104.422V135.655C180.024 140.156 176.367 143.819 171.873 143.819Z" fill="white"/>
<path d="M166.171 44V40.1592L175.634 31.3086C176.797 30.2324 177.675 29.3356 178.269 28.6182C178.862 27.9007 179.264 27.2575 179.475 26.6885C179.697 26.1195 179.809 25.5257 179.809 24.9072V24.8701C179.809 24.1403 179.635 23.4971 179.289 22.9404C178.943 22.3714 178.46 21.9261 177.842 21.6045C177.236 21.2829 176.537 21.1221 175.745 21.1221C174.83 21.1221 174.026 21.3076 173.333 21.6787C172.64 22.0374 172.096 22.5384 171.7 23.1816C171.304 23.8125 171.094 24.5299 171.069 25.334L171.051 25.501H165.855V25.3525C165.855 23.6702 166.282 22.1859 167.136 20.8994C167.989 19.6006 169.158 18.5863 170.643 17.8564C172.139 17.1266 173.828 16.7617 175.708 16.7617C177.601 16.7617 179.264 17.0957 180.699 17.7637C182.134 18.4193 183.254 19.3346 184.058 20.5098C184.862 21.6849 185.264 23.0332 185.264 24.5547V24.5918C185.264 25.668 185.066 26.6699 184.67 27.5977C184.286 28.513 183.649 29.4902 182.759 30.5293C181.868 31.556 180.65 32.7806 179.104 34.2031L171.348 41.2725L173.5 37.5059V41.2725L171.366 39.5469H185.635V44H166.171ZM199.569 44.4639C197.306 44.4639 195.357 43.901 193.725 42.7754C192.092 41.6497 190.836 40.054 189.958 37.9883C189.092 35.9102 188.659 33.4548 188.659 30.6221V30.585C188.659 27.7399 189.092 25.2845 189.958 23.2188C190.836 21.153 192.092 19.5635 193.725 18.4502C195.357 17.3245 197.306 16.7617 199.569 16.7617C201.833 16.7617 203.775 17.3245 205.396 18.4502C207.028 19.5635 208.284 21.153 209.162 23.2188C210.04 25.2845 210.479 27.7399 210.479 30.585V30.6221C210.479 33.4548 210.04 35.9102 209.162 37.9883C208.284 40.054 207.028 41.6497 205.396 42.7754C203.775 43.901 201.833 44.4639 199.569 44.4639ZM199.569 39.9736C200.683 39.9736 201.629 39.6025 202.408 38.8604C203.188 38.1182 203.781 37.0482 204.189 35.6504C204.61 34.2526 204.82 32.5765 204.82 30.6221V30.585C204.82 28.6182 204.61 26.9421 204.189 25.5566C203.781 24.1589 203.188 23.0951 202.408 22.3652C201.629 21.623 200.683 21.252 199.569 21.252C198.456 21.252 197.504 21.623 196.712 22.3652C195.933 23.0951 195.339 24.1589 194.931 25.5566C194.522 26.9421 194.318 28.6182 194.318 30.585V30.6221C194.318 32.5765 194.522 34.2526 194.931 35.6504C195.339 37.0482 195.933 38.1182 196.712 38.8604C197.504 39.6025 198.456 39.9736 199.569 39.9736ZM213.745 44V40.1592L223.208 31.3086C224.371 30.2324 225.249 29.3356 225.843 28.6182C226.437 27.9007 226.839 27.2575 227.049 26.6885C227.271 26.1195 227.383 25.5257 227.383 24.9072V24.8701C227.383 24.1403 227.21 23.4971 226.863 22.9404C226.517 22.3714 226.035 21.9261 225.416 21.6045C224.81 21.2829 224.111 21.1221 223.319 21.1221C222.404 21.1221 221.6 21.3076 220.907 21.6787C220.215 22.0374 219.67 22.5384 219.274 23.1816C218.879 23.8125 218.668 24.5299 218.644 25.334L218.625 25.501H213.43V25.3525C213.43 23.6702 213.856 22.1859 214.71 20.8994C215.563 19.6006 216.732 18.5863 218.217 17.8564C219.714 17.1266 221.402 16.7617 223.282 16.7617C225.175 16.7617 226.839 17.0957 228.273 17.7637C229.708 18.4193 230.828 19.3346 231.632 20.5098C232.436 21.6849 232.838 23.0332 232.838 24.5547V24.5918C232.838 25.668 232.64 26.6699 232.244 27.5977C231.861 28.513 231.224 29.4902 230.333 30.5293C229.442 31.556 228.224 32.7806 226.678 34.2031L218.922 41.2725L221.074 37.5059V41.2725L218.94 39.5469H233.209V44H213.745ZM246.643 44.4639C244.614 44.4639 242.845 44.1361 241.336 43.4805C239.827 42.8125 238.627 41.891 237.736 40.7158C236.858 39.5407 236.357 38.1862 236.233 36.6523L236.215 36.4111H241.559L241.596 36.6152C241.682 37.2585 241.936 37.8337 242.356 38.3408C242.789 38.8356 243.365 39.2314 244.082 39.5283C244.812 39.8128 245.659 39.9551 246.624 39.9551C247.589 39.9551 248.424 39.8005 249.129 39.4912C249.834 39.1696 250.378 38.7305 250.762 38.1738C251.158 37.6048 251.355 36.9554 251.355 36.2256V36.1885C251.355 34.902 250.904 33.9186 250.001 33.2383C249.098 32.5579 247.836 32.2178 246.216 32.2178H243.154V28.2285H246.142C247.082 28.2285 247.898 28.0739 248.591 27.7646C249.284 27.4554 249.815 27.0286 250.187 26.4844C250.57 25.9277 250.762 25.2907 250.762 24.5732V24.5361C250.762 23.8063 250.595 23.1878 250.261 22.6807C249.939 22.1611 249.463 21.7653 248.832 21.4932C248.214 21.2087 247.465 21.0664 246.587 21.0664C245.721 21.0664 244.954 21.2087 244.286 21.4932C243.618 21.7777 243.086 22.1797 242.69 22.6992C242.295 23.2064 242.053 23.8063 241.967 24.499L241.948 24.666H236.809L236.827 24.4434C236.951 22.8848 237.427 21.5365 238.256 20.3984C239.097 19.248 240.229 18.3574 241.651 17.7266C243.074 17.0833 244.719 16.7617 246.587 16.7617C248.517 16.7617 250.187 17.0586 251.597 17.6523C253.019 18.2337 254.12 19.0501 254.899 20.1016C255.679 21.153 256.068 22.3838 256.068 23.7939V23.8311C256.068 24.9443 255.821 25.9215 255.326 26.7627C254.831 27.6038 254.157 28.2965 253.304 28.8408C252.463 29.3851 251.522 29.7686 250.483 29.9912V30.1025C252.475 30.2881 254.064 30.9313 255.252 32.0322C256.452 33.1331 257.052 34.5928 257.052 36.4111V36.4482C257.052 38.0439 256.619 39.4417 255.753 40.6416C254.887 41.8415 253.675 42.7816 252.116 43.4619C250.558 44.1299 248.733 44.4639 246.643 44.4639Z" fill="#FEF9ED"/>
<path d="M143.391 430.28L144.899 430.8L141.597 439.978H144.899V441.538H141.051L138.269 449.26L136.787 448.688L143.391 430.28ZM146.693 434.362L151.763 448.714L150.281 449.312L145.211 434.96L146.693 434.362ZM156.429 430.566H158.145L164.047 443.332L162.643 444.06L157.573 433.088L154.505 449.208L152.945 448.896L156.429 430.566ZM173.199 448.922L171.639 449.234L168.155 433.192L165.763 439.016L164.307 438.418L167.531 430.566H169.221L173.199 448.922ZM183.674 449.312C178.734 449.312 175.016 445.334 175.016 440.03C175.016 437.404 175.822 435.09 177.174 433.374L178.266 434.57C177.226 435.896 176.628 437.716 176.628 439.77C176.628 444.32 179.644 447.752 183.674 447.752C187.704 447.752 190.72 444.32 190.72 439.77C190.72 435.22 187.704 431.814 183.674 431.814C182.712 431.814 181.776 431.996 180.944 432.386L180.164 431.008C181.308 430.462 182.556 430.254 183.674 430.254C188.614 430.254 192.332 434.232 192.332 439.51C192.332 445.1 188.614 449.312 183.674 449.312ZM204.996 435.844C204.996 439.042 202.734 441.122 199.224 441.122H197.118V449H195.506V430.566H197.118V439.588H199.25C201.772 439.588 203.384 438.106 203.384 435.844C203.384 433.582 201.772 432.126 199.25 432.126H199.198V430.566H199.25C202.734 430.566 204.996 432.646 204.996 435.844ZM200.914 443.02L205.464 448.038L204.346 449.13L199.718 444.034L200.914 443.02ZM210.042 447.44H217.556V449H208.43V430.566H210.042V438.626H216.88V440.186H210.042V447.44ZM217.426 430.566V432.126H212.33V430.566H217.426ZM229.148 430.566H230.864L236.766 443.332L235.362 444.06L230.292 433.088L227.224 449.208L225.664 448.896L229.148 430.566ZM245.918 448.922L244.358 449.234L240.874 433.192L238.482 439.016L237.026 438.418L240.25 430.566H241.94L245.918 448.922ZM253.688 430.28L255.196 430.8L251.894 439.978H255.196V441.538H251.348L248.566 449.26L247.084 448.688L253.688 430.28ZM256.99 434.362L262.06 448.714L260.578 449.312L255.508 434.96L256.99 434.362ZM264.594 449V430.566H266.206V449H264.594ZM268.65 449V447.44H272.758V449H268.65ZM275.664 449V430.566H277.276V449H275.664ZM279.72 449V447.44H283.828V449H279.72Z" fill="white"/>
</svg>
