<svg width="48" height="48" viewBox="0 0 48 48" fill="none" xmlns="http://www.w3.org/2000/svg">
<path fill-rule="evenodd" clip-rule="evenodd" d="M42.3686 24.7652H29.9842V22.9306H44.1839C44.2032 23.2859 44.2129 23.6412 44.2129 24.0007C44.2129 35.0469 35.21 44 24.1071 44C13.0042 44 4 35.051 4 23.9993C4 12.9476 13.0015 4 24.1058 4C24.3988 4 24.6906 4.00599 24.9809 4.01797V5.83873C24.6906 5.82583 24.3998 5.81938 24.1085 5.81938C14.0162 5.81938 5.83182 13.9596 5.83182 23.9993C5.83182 34.0391 14.0149 42.1806 24.1085 42.1806C33.9243 42.1806 41.9428 34.4787 42.3673 24.8164L42.3686 24.7652ZM29.927 32.4071H24.95V13.7073H23.1099V34.2527H24.9541V34.2403H29.9312L29.927 32.4071ZM18.1324 18.7606C17.672 19.0711 17.13 19.2382 16.5747 19.241C16.2047 19.2419 15.8381 19.1699 15.4959 19.0291C15.1538 18.8884 14.8426 18.6816 14.5804 18.4206C14.3181 18.1596 14.1098 17.8495 13.9674 17.508C13.8249 17.1665 13.7511 16.8003 13.7502 16.4303C13.7502 15.875 13.9147 15.3322 14.223 14.8703C14.5312 14.4084 14.9693 14.0481 15.4821 13.835C15.9949 13.6219 16.5593 13.5654 17.1041 13.6727C17.649 13.7801 18.1498 14.0464 18.5434 14.4381C18.937 14.8298 19.2058 15.3293 19.3158 15.8736C19.4258 16.4179 19.3721 16.9826 19.1615 17.4964C18.9509 18.0102 18.5928 18.4501 18.1324 18.7606Z" fill="white"/>
</svg>
