<svg width="145" height="145" viewBox="0 0 145 145" fill="none" xmlns="http://www.w3.org/2000/svg">
<circle cx="72.5" cy="72.5" r="72" fill="#0C4134" stroke="white"/>
<path d="M67.2968 41.656V49.272H70.6568V52.128H67.2968V60.248H63.7688V41.656H67.2968ZM47.5288 47.032V44.288H53.1848V41.6H56.6568V44.288H62.3128V47.032H47.5288ZM48.7608 52.744C48.7608 49.832 51.2808 47.9 54.9208 47.872C58.5328 47.9 61.0528 49.832 61.0808 52.744C61.0528 55.572 58.5328 57.476 54.9208 57.448C51.2808 57.476 48.7608 55.572 48.7608 52.744ZM51.1128 66.072V58.792H54.6408V63.272H68.1928V66.072H51.1128ZM52.1768 52.744C52.1488 54.088 53.2688 54.816 54.9208 54.816C56.6008 54.816 57.7208 54.088 57.7208 52.744C57.7208 51.316 56.6008 50.56 54.9208 50.56C53.2688 50.56 52.1488 51.316 52.1768 52.744ZM92.728 41.6V56.384H89.256V50.504H85.336V47.704H89.256V41.6H92.728ZM71.56 53.64C75.648 52.296 77.524 49.048 77.608 45.912H72.568V43.112H86.064V45.912H81.136C81.192 48.796 82.984 51.736 86.848 53.024L85.112 55.768C82.396 54.872 80.492 53.08 79.4 50.84C78.308 53.388 76.348 55.404 73.408 56.44L71.56 53.64ZM75.648 61.76C75.648 58.736 78.896 56.972 84.216 56.944C89.536 56.972 92.784 58.736 92.784 61.76C92.784 64.784 89.536 66.548 84.216 66.576C78.896 66.548 75.648 64.784 75.648 61.76ZM79.12 61.76C79.12 63.188 80.912 63.888 84.216 63.888C87.52 63.888 89.312 63.188 89.312 61.76C89.312 60.332 87.52 59.604 84.216 59.632C80.912 59.604 79.12 60.332 79.12 61.76ZM60.7448 78.56C60.7448 81.5 63.7408 84.748 69.4248 85.448L68.0808 88.304C63.7128 87.66 60.5208 85.644 58.9248 82.928C57.3008 85.644 54.1088 87.66 49.7688 88.304L48.4248 85.448C54.0808 84.748 57.0768 81.5 57.0488 78.56V77.384H60.7448V78.56ZM47.5288 93.008V90.152H70.2648V93.008H60.5768V101.52H57.1048V93.008H47.5288ZM94.856 79.96V82.872H91.496V85.224H94.856V88.136H91.496V91.664H87.968V76.656H91.496V79.96H94.856ZM72.624 90.6V82.928H80.632V80.856H72.624V78.112H84.048V85.56H76.152V87.744C80.24 87.716 83.012 87.548 86.176 87.016L86.568 89.76C82.984 90.46 79.792 90.572 74.752 90.6H72.624ZM74.752 96.816C74.752 93.848 78 92.056 83.264 92.056C88.444 92.056 91.72 93.848 91.72 96.816C91.72 99.784 88.444 101.492 83.264 101.464C78 101.492 74.752 99.784 74.752 96.816ZM78.168 96.816C78.168 98.188 79.96 98.888 83.264 98.888C86.54 98.888 88.276 98.188 88.248 96.816C88.276 95.444 86.54 94.744 83.264 94.744C79.96 94.744 78.168 95.444 78.168 96.816Z" fill="white"/>
</svg>
