<svg width="526" height="60" viewBox="0 0 526 60" fill="none" xmlns="http://www.w3.org/2000/svg">
<path d="M169.056 7.875L165.156 6.6L165.656 5.15L169.581 6.375V2.275H171.131V6.375L175.031 5.15L175.531 6.625L171.631 7.9L174.031 11.2L172.756 12.125L170.331 8.8L167.931 12.125L166.631 11.2L169.056 7.875ZM204.817 10.325C205.167 7.8 205.317 5.45 205.317 3.3H191.117V1.825H207.042C207.017 3.55 206.917 7.175 206.492 10.35L204.817 10.325ZM188.792 11.35H209.067V12.825H188.792V11.35ZM199.792 22.05H198.092V13.825H199.792V22.05ZM231.034 0.849999V21.8H229.359V10.225H224.359V1.1H226.034V8.8H229.359V0.849999H231.034ZM212.709 2.575H214.309V16.975H212.709V2.575ZM215.309 2.575H221.534V14.5L219.884 14.525V4H215.309V2.575ZM224.359 11.225H226.084V21.45H224.359V11.225ZM215.309 15.525H221.534V16.975H215.309V15.525ZM235.99 11.55C242.615 9.55 244.015 6.475 244.14 3.775H236.64V2.325H253.24V3.775H245.74C245.54 8.375 242.165 11.1 236.865 12.85L235.99 11.55ZM253.04 12.5C249.465 11.525 246.74 9.925 245.615 7.9L246.79 7C247.715 8.7 250.465 10.325 253.915 11.175L253.04 12.5ZM244.115 12.9H245.74V17.225H244.115V12.9ZM255.19 18.1V19.55H234.69V18.1H255.19ZM274.976 0.849999V17.65H273.301V0.849999H274.976ZM265.926 8.725C265.451 10.85 264.776 12.9 263.976 14.6L262.376 14.025C264.051 10.825 264.901 6.175 264.976 3.525H256.426V2.075H266.701C266.701 3.75 266.501 5.525 266.201 7.275C266.126 7.75 266.051 8.25 265.926 8.725ZM272.301 7.275V8.725H267.526V7.275H272.301ZM261.951 20.75H275.451V22.2H260.276V16.2H261.951V20.75ZM299.499 2.7C296.249 2.825 292.249 2.7 290.274 1.975L290.599 0.599999C293.099 1.425 296.049 1.35 299.499 1.275V2.7ZM286.174 9.6C290.624 9.1 293.724 7.55 293.874 5.875H286.749V4.425H302.699V5.875H295.449C295.474 8.625 290.974 10.5 286.924 11L286.174 9.6ZM296.774 7.525C298.099 8.4 300.424 9.125 303.249 9.375L302.524 10.8C298.824 10.3 296.424 9.325 295.499 8.45L296.774 7.525ZM295.549 13.85V15.85C300.374 15.975 302.824 17.225 302.824 19.325C302.824 21.775 300.124 22.925 294.724 22.925C289.274 22.925 286.624 21.8 286.624 19.3C286.624 18 287.549 17.05 289.424 16.425L290.274 17.65C289.024 18.025 288.324 18.6 288.324 19.35C288.324 21 290.774 21.575 294.724 21.575C298.624 21.575 301.124 21.025 301.124 19.325C301.124 17.85 298.624 17.225 294.724 17.225C293.574 17.225 292.549 17.25 291.674 17.4L290.824 16.125C291.699 15.975 292.724 15.875 293.874 15.85V13.85H284.349V12.4H305.099V13.85H295.549ZM308.729 8.175C313.904 6.975 316.429 4.825 316.579 3.025H309.454V1.6H325.429V3.025H318.304C318.179 5.975 314.329 8.525 309.504 9.475L308.729 8.175ZM325.354 9.2C322.554 8.675 319.754 7.65 318.179 5.975L319.379 5.05C320.654 6.25 322.929 7.375 326.104 7.875L325.354 9.2ZM316.629 8.3H318.229V11.15H316.629V8.3ZM327.804 12.025V13.475H307.054V12.025H327.804ZM309.504 15.725H325.129V22.575H323.429V17.175H309.504V15.725ZM351.622 0.849999H353.297V21.8H351.622V0.849999ZM334.497 16.825C338.772 13.675 341.197 9.625 341.197 5.05V2.325H342.747V5.05C342.722 10.6 340.047 14.35 335.647 17.9L334.497 16.825ZM343.772 9.85C344.747 12.225 346.822 14.75 349.097 16.375L347.897 17.5C344.872 14.925 343.147 12.425 342.597 10.75L343.772 9.85ZM18.9078 37.85V58.8H17.2078V47.725H13.5328V46.275H17.2328L17.2078 43.25V37.85H18.9078ZM6.65781 39.3C10.1828 39.3 12.2078 42.075 12.4078 46.275V47.725C12.2078 51.95 10.2078 54.7 6.65781 54.7C2.83281 54.7 0.832813 51.625 0.832813 47.025C0.832813 44.675 1.35781 42.725 2.35781 41.375L3.40781 42.525C2.75781 43.625 2.45781 45.15 2.45781 47.025C2.45781 50.775 3.70781 53.275 6.65781 53.275C9.53281 53.275 10.8328 50.775 10.8328 47.025C10.8328 43.225 9.53281 40.775 6.65781 40.775C5.70781 40.775 4.95781 41 4.35781 41.475L3.40781 40.325C4.25781 39.65 5.33281 39.3 6.65781 39.3ZM25.1438 39.575H40.5188V41.025H25.1438V39.575ZM26.8188 48.925H33.1438C36.4938 48.925 38.4938 48.825 40.9688 48.275L41.1938 49.725C39.1938 50.225 36.8938 50.375 33.1188 50.375H25.1438V42.275H26.8188V48.925ZM22.5688 55.1H43.0688V56.55H22.5688V55.1ZM62.8297 37.85H64.4297V54.65H62.8297V37.85ZM56.5297 44.175H58.6797V38.125H60.2797V45.625H56.5297V44.175ZM46.8547 50.825V39.075H48.5047V43.925H52.8047V45.375H48.5047V50.825H46.8547ZM53.8047 39.075H55.4297V48.4H53.8047V39.075ZM60.2797 54.4H58.7047V46.5H60.2797V54.4ZM55.4547 50.825H49.5047V49.4H55.4547V50.825ZM51.3047 57.75H64.9297V59.2H49.6297V53.675H51.3047V57.75ZM70.676 39.575H86.051V40.975H70.676V39.575ZM78.426 49.875C81.776 49.875 83.776 49.775 86.276 49.225L86.476 50.625C84.476 51.15 82.201 51.275 78.401 51.275H70.676V42.1H72.351V49.875H78.426ZM85.801 44.75V46.125H73.351V44.75H85.801ZM68.101 55.1H88.601V56.55H68.101V55.1ZM104.937 49.525H103.337V38.125H104.937V43.125H108.237V37.85H109.862V49.525H108.237V44.575H104.937V49.525ZM96.5369 48.95C97.7619 46.725 98.6869 42.35 98.6869 40.275H91.5369V38.825H100.487C100.487 41.7 99.7369 46.1 98.1869 49.475L96.5369 48.95ZM97.4619 43.375C97.3619 43.825 97.2619 44.325 97.1119 44.825C95.4369 45.025 93.5369 45.125 91.2869 45.1V43.75C93.8619 43.75 95.8119 43.6 97.4619 43.375ZM108.012 53.55V52.3H94.7869V50.875H109.787V53.55H108.012ZM94.7869 54.45H109.787V55.875H94.7869V54.45ZM110.537 58.125V59.575H94.7869V56.75H96.5619V58.125H110.537ZM131.111 37.85H132.811V54.9H131.111V37.85ZM115.336 40.4V38.95H125.711V46.075H124.036V40.4H115.336ZM115.336 44.65H123.036V46.075H115.336V44.65ZM130.111 50.725C127.986 51.25 125.336 51.65 121.736 51.675L115.336 51.7V47.075H117.036V50.275L121.261 50.25C124.486 50.25 127.886 49.9 130.111 49.3V50.725ZM119.661 57.75H133.286V59.2H117.986V53.55H119.661V57.75ZM155.26 37.85V58.8H153.56V37.85H155.26ZM148.835 40.875H138.16V39.45H148.835V40.875ZM142.285 53.025C145.01 53.025 147.51 52.95 149.86 52.525L150.135 53.925C147.91 54.325 145.21 54.45 142.26 54.45H138.16V41.875H139.86V53.025H142.285ZM147.76 45.8H152.81V47.225H147.76V45.8ZM170.778 37.475C173.278 38.3 176.228 38.225 179.678 38.15V39.475C176.428 39.6 172.453 39.5 170.478 38.775L170.778 37.475ZM166.953 47.65C171.403 47 174.203 45.175 174.203 43.45V43.2H167.553V41.775H182.428V43.2H175.803V43.45C175.803 46.35 171.553 48.35 167.678 49.025L166.953 47.65ZM176.753 45.2C177.878 46.175 180.028 47 183.053 47.325L182.303 48.75C179.628 48.275 176.753 47.425 175.603 46.05L176.753 45.2ZM164.878 50.725H185.153V52.2H164.878V50.725ZM175.853 59.05H174.153V53.2H175.853V59.05ZM202.495 37.85H204.17V58.8H202.495V37.85ZM193.345 54.975C195.045 50.225 195.67 43.575 195.67 40.775H186.62V39.325H197.32C197.32 43.475 196.62 50.475 195.02 55.325L193.345 54.975ZM208.445 45.8V47.225H205.045V45.8H208.445ZM225.459 47.325C225.809 44.8 225.959 42.45 225.959 40.3H211.759V38.825H227.684C227.659 40.55 227.559 44.175 227.134 47.35L225.459 47.325ZM209.434 48.35H229.709V49.825H209.434V48.35ZM220.434 59.05H218.734V50.825H220.434V59.05ZM251.676 37.85V58.8H250.001V47.225H245.001V38.1H246.676V45.8H250.001V37.85H251.676ZM233.351 39.575H234.951V53.975H233.351V39.575ZM235.951 39.575H242.176V51.5L240.526 51.525V41H235.951V39.575ZM245.001 48.225H246.726V58.45H245.001V48.225ZM235.951 52.525H242.176V53.975H235.951V52.525ZM271.832 37.85H273.532V58.8H271.832V37.85ZM262.607 49.575C258.732 49.575 256.582 47.425 256.582 44.175C256.582 42.65 257.032 41.45 257.957 40.5L259.007 41.6C258.407 42.275 258.107 43.1 258.107 44.175C258.107 46.7 259.782 48.075 262.607 48.075C265.382 48.075 267.107 46.7 267.107 44.175C267.107 41.725 265.382 40.25 262.607 40.25C261.657 40.25 260.807 40.4 260.132 40.75L259.132 39.6C260.057 39.075 261.232 38.825 262.607 38.825C266.407 38.825 268.632 40.95 268.632 44.175C268.632 47.375 266.457 49.575 262.607 49.575ZM277.782 46.775V48.2H274.407V46.775H277.782ZM263.457 54.2C265.957 54.15 268.557 54 270.707 53.625V55.075C268.157 55.475 264.857 55.65 261.407 55.65H255.332V54.2H261.782V50.775H263.457V54.2ZM302.608 40.025H287.108V38.6H302.608V40.025ZM305.208 49V50.475H284.458V49H293.983V46.375H287.108V40.9H288.783V44.925H296.308C299.058 44.925 300.908 44.85 302.883 44.525L303.033 46C301.308 46.275 299.283 46.375 296.283 46.375H295.683V49H305.208ZM294.833 52.35C300.208 52.35 302.933 53.65 302.933 56.15C302.933 58.625 300.208 59.925 294.833 59.925C289.383 59.925 286.733 58.625 286.733 56.15C286.733 54.675 287.658 53.625 289.533 53L290.383 54.225C289.133 54.6 288.433 55.225 288.433 56.15C288.433 57.85 290.908 58.575 294.833 58.575C298.733 58.575 301.233 57.85 301.233 56.15C301.233 54.425 298.733 53.725 294.833 53.725C293.683 53.725 292.658 53.775 291.783 53.925L290.933 52.65C292.033 52.45 293.333 52.35 294.833 52.35ZM323.313 37.85H324.988V58.8H323.313V37.85ZM306.188 53.825C310.463 50.675 312.888 46.625 312.888 42.05V39.325H314.438V42.05C314.413 47.6 311.738 51.35 307.338 54.9L306.188 53.825ZM315.463 46.85C316.438 49.225 318.513 51.75 320.788 53.375L319.588 54.5C316.563 51.925 314.838 49.425 314.288 47.75L315.463 46.85ZM348.673 37.85V58.8H346.973V37.85H348.673ZM340.448 46.175H342.473V38.1H344.148V47.625H340.448V46.175ZM331.873 40.15C332.573 39.6 333.473 39.3 334.548 39.3C338.123 39.3 339.448 42.6 339.448 46.9C339.448 51.2 338.073 54.45 334.548 54.45C331.173 54.45 329.623 51.5 329.623 46.9C329.623 44.55 330.023 42.625 330.873 41.3L331.948 42.475C331.423 43.55 331.198 45.075 331.198 46.9C331.198 50.575 332.173 53.025 334.548 53.025C336.873 53.025 337.898 50.575 337.898 46.9C337.898 43.175 336.873 40.775 334.548 40.775C333.873 40.775 333.298 40.975 332.823 41.325L331.873 40.15ZM344.148 58.45H342.473V48.5H344.148V58.45ZM376.592 37.85V50.5H374.917V37.85H376.592ZM358.042 49.575C363.617 46.9 364.142 43.075 364.142 40.65V40.525H358.792V39.075H371.017V40.525H365.842V40.65C365.842 45.325 363.542 48.6 359.192 50.775L358.042 49.575ZM369.692 44.625V43.225H374.042V44.625H369.692ZM366.842 44.775C367.617 46.05 369.192 47.475 371.667 48.4L370.517 49.725C368.217 48.8 366.317 47.2 365.567 45.775L366.842 44.775ZM374.917 53.5H361.542V52.075H376.592V59.325H374.917V53.5ZM386.759 38.575C387.809 38.35 389.134 38.225 390.634 38.225C396.009 38.225 398.734 39.7 398.734 42.25C398.734 44.825 396.009 46.275 390.634 46.275C385.184 46.275 382.534 44.825 382.534 42.25C382.534 40.775 383.434 39.65 385.209 38.975L386.059 40.2C384.909 40.65 384.234 41.325 384.234 42.25C384.234 44.025 386.709 44.925 390.634 44.925C394.534 44.925 397.034 44.025 397.034 42.25C397.034 40.475 394.534 39.6 390.634 39.6C389.459 39.6 388.434 39.675 387.559 39.85L386.759 38.575ZM380.259 49.25H385.559V47.15H387.159V49.25H394.109V47.15H395.709V49.25H401.009V50.725H380.259V49.25ZM386.034 54.25C384.884 54.65 384.234 55.275 384.234 56.15C384.234 57.85 386.709 58.575 390.634 58.575C394.534 58.575 397.034 57.85 397.034 56.15C397.034 54.425 394.534 53.725 390.634 53.725C389.484 53.725 388.484 53.8 387.609 53.9L386.809 52.625C387.884 52.45 389.134 52.35 390.634 52.35C396.009 52.35 398.734 53.65 398.734 56.15C398.734 58.625 396.009 59.925 390.634 59.925C385.184 59.925 382.534 58.625 382.534 56.15C382.534 54.7 383.409 53.65 385.234 53.025L386.034 54.25ZM424.077 37.85H425.752V58.8H424.077V37.85ZM414.927 54.975C416.627 50.225 417.252 43.575 417.252 40.775H408.202V39.325H418.902C418.902 43.475 418.202 50.475 416.602 55.325L414.927 54.975ZM430.027 45.8V47.225H426.627V45.8H430.027ZM449.541 45.175C447.541 45.7 445.241 45.85 441.466 45.85H433.666V38.475H435.341V44.375H441.491C444.841 44.375 446.841 44.275 449.316 43.75L449.541 45.175ZM431.016 48.65H451.766V50.15H431.016V48.65ZM437.491 52.425C438.591 52.225 439.891 52.125 441.391 52.125C446.766 52.125 449.491 53.5 449.491 56.025C449.491 58.5 446.766 59.925 441.391 59.925C435.941 59.925 433.291 58.5 433.291 56.025C433.291 54.525 434.216 53.45 436.091 52.825L436.941 54.05C435.691 54.425 434.991 55.075 434.991 56.025C434.991 57.725 437.466 58.575 441.391 58.575C445.291 58.575 447.791 57.725 447.791 56.025C447.791 54.275 445.291 53.5 441.391 53.5C440.241 53.5 439.216 53.55 438.341 53.7L437.491 52.425ZM464.871 39.675C462.121 39.725 458.871 39.8 456.896 39.075L457.221 37.725C459.696 38.55 462.421 38.275 464.871 38.275V39.675ZM470.446 50.65V37.85H472.121V50.65H470.446ZM467.421 42.85H454.321V41.475H467.421V42.85ZM466.546 47.55C466.546 49.525 464.421 50.825 460.946 50.825C457.471 50.825 455.371 49.525 455.371 47.55C455.371 46.325 456.046 45.5 457.246 44.925L458.046 46.075C457.396 46.425 456.996 46.825 456.996 47.55C456.996 48.925 458.821 49.525 460.946 49.525C463.096 49.525 464.896 48.925 464.896 47.55C464.896 46 463.096 45.55 460.946 45.55C460.371 45.55 459.796 45.6 459.296 45.675L458.521 44.475C459.221 44.325 460.046 44.225 460.946 44.225C464.421 44.225 466.546 45.4 466.546 47.55ZM476.171 44.95V46.4H472.996V44.95H476.171ZM469.471 55.625H458.996V59.325H457.346V51.8H458.996V54.2H469.471V55.625ZM470.471 51.8H472.146V57H470.471V51.8ZM459.996 57.875H472.171V59.325H459.996V57.875ZM496.081 37.85V58.8H494.406V37.85H496.081ZM493.156 53.475C491.081 53.9 488.506 54.175 484.656 54.2L478.981 54.225V39.325H480.681V52.775L484.681 52.75C488.356 52.725 490.981 52.45 493.156 52V53.475ZM516.367 58.8V37.85H518.042V58.8H516.367ZM501.442 39.45H511.392V40.95H501.442V39.45ZM503.117 53.025H504.867C508.642 53.025 512.167 52.975 515.242 52.25V53.7C512.367 54.325 508.992 54.45 504.842 54.45H501.467V42.075H503.117V53.025ZM522.317 46.275V47.725H518.917V46.275H522.317ZM524.601 57.8C523.976 57.8 523.476 57.3 523.476 56.675C523.476 56.075 524.001 55.55 524.601 55.55C525.226 55.55 525.726 56.05 525.726 56.675C525.726 57.3 525.226 57.8 524.601 57.8Z" fill="#D9D9D9"/>
</svg>
