<svg width="274" height="42" viewBox="0 0 274 42" fill="none" xmlns="http://www.w3.org/2000/svg">
<path d="M18.9156 21.13H13.4816V19.674H18.9156V14.084H20.6576V27.37H18.9156V21.13ZM1.36556 26.278C7.21556 23.392 7.70956 19.622 7.70956 16.996V16.866H2.14556V15.358H14.8596V16.866H9.47756V16.996C9.47756 22.04 7.03356 25.16 2.56156 27.526L1.36556 26.278ZM10.5176 21.286C11.3236 22.664 12.9876 24.094 15.5616 25.004L14.3656 26.408C11.9736 25.498 9.97156 23.86 9.19156 22.326L10.5176 21.286ZM9.00956 28.722C10.1016 28.488 11.4276 28.358 13.0136 28.358C18.4996 28.358 21.0476 29.866 21.0476 32.44C21.0476 35.04 18.4996 36.548 13.0136 36.548C7.47556 36.548 5.00556 35.04 5.00556 32.44C5.00556 31.01 5.75956 29.892 7.42356 29.216L8.25556 30.464C7.24156 30.88 6.66956 31.53 6.66956 32.44C6.66956 34.338 9.00956 35.092 13.0136 35.092C17.0176 35.092 19.3576 34.338 19.3576 32.44C19.3576 30.568 17.0176 29.814 13.0136 29.814C11.7916 29.814 10.7256 29.892 9.84156 30.022L9.00956 28.722ZM40.487 14.084H42.229V35.872H40.487V14.084ZM30.971 31.894C32.739 26.954 33.389 20.038 33.389 17.126H23.977V15.618H35.105C35.105 19.934 34.377 27.214 32.713 32.258L30.971 31.894ZM46.675 22.352V23.834H43.139V22.352H46.675ZM61.9129 22.534C62.5889 21.676 63.0309 20.948 63.0309 20.012C63.0309 18.192 61.6269 16.814 59.7809 16.814C57.9349 16.814 56.5569 18.14 56.5569 19.908C56.5569 21.104 57.1289 21.936 57.9089 22.638L56.8169 23.73C55.6989 22.898 54.9449 21.52 54.9449 19.908C54.9449 17.256 57.0249 15.254 59.7809 15.254C62.5629 15.254 64.6429 17.282 64.6429 20.012C64.6429 21 64.2269 22.248 63.2389 23.47L58.0129 30.074L56.7389 29.086L61.9129 22.534ZM65.3449 32.44V34H54.6329V32.44H65.3449ZM73.6313 25.186C70.7713 25.186 68.6133 23.054 68.6133 20.22C68.6133 17.386 70.7713 15.254 73.6313 15.254C76.4913 15.254 78.6493 17.386 78.6493 20.22C78.6493 23.054 76.4913 25.186 73.6313 25.186ZM73.6313 23.652C75.5813 23.652 77.0373 22.17 77.0373 20.22C77.0373 18.27 75.5813 16.788 73.6313 16.788C71.6813 16.788 70.2253 18.27 70.2253 20.22C70.2253 22.17 71.6813 23.652 73.6313 23.652ZM75.5813 26.408L76.9853 27.214L72.9553 34.312L71.5253 33.558L75.5813 26.408ZM82.3032 31.556L83.9412 31.79L83.2132 36.626L81.5752 36.366L82.3032 31.556ZM92.0723 34.286C88.7443 34.286 86.7163 30.464 86.7163 24.77C86.7163 21.702 87.2623 19.206 88.4323 17.438L89.4983 18.66C88.6923 20.22 88.3283 22.586 88.3283 24.77C88.3283 29.32 89.6803 32.726 92.0723 32.726C94.4643 32.726 95.8163 29.32 95.8163 24.77C95.8163 20.22 94.4643 16.814 92.0723 16.814C91.8382 16.814 91.5783 16.866 91.5003 16.892L90.8503 15.462C91.2143 15.332 91.5783 15.254 92.0723 15.254C95.4003 15.254 97.4283 19.076 97.4283 24.77C97.4283 30.464 95.4003 34.286 92.0723 34.286ZM105.91 34.286C102.582 34.286 100.554 30.464 100.554 24.77C100.554 21.702 101.1 19.206 102.27 17.438L103.336 18.66C102.53 20.22 102.166 22.586 102.166 24.77C102.166 29.32 103.518 32.726 105.91 32.726C108.302 32.726 109.654 29.32 109.654 24.77C109.654 20.22 108.302 16.814 105.91 16.814C105.676 16.814 105.416 16.866 105.338 16.892L104.688 15.462C105.052 15.332 105.416 15.254 105.91 15.254C109.238 15.254 111.266 19.076 111.266 24.77C111.266 30.464 109.238 34.286 105.91 34.286ZM119.748 34.286C116.42 34.286 114.392 30.464 114.392 24.77C114.392 21.702 114.938 19.206 116.108 17.438L117.174 18.66C116.368 20.22 116.004 22.586 116.004 24.77C116.004 29.32 117.356 32.726 119.748 32.726C122.14 32.726 123.492 29.32 123.492 24.77C123.492 20.22 122.14 16.814 119.748 16.814C119.514 16.814 119.254 16.866 119.176 16.892L118.526 15.462C118.89 15.332 119.254 15.254 119.748 15.254C123.076 15.254 125.104 19.076 125.104 24.77C125.104 30.464 123.076 34.286 119.748 34.286ZM146.846 14.084V32.336H145.104V14.084H146.846ZM132.338 16.97C131.532 17.412 131.038 18.088 131.038 18.998C131.038 20.792 132.962 21.65 135.406 21.65C137.85 21.65 139.748 20.792 139.748 18.998C139.748 17.178 137.85 16.32 135.406 16.32C134.756 16.32 134.132 16.372 133.586 16.502L132.806 15.254C133.586 15.046 134.47 14.942 135.406 14.942C138.656 14.942 141.308 16.164 141.308 18.998C141.308 21.65 138.656 23.002 135.406 23.002C132.156 23.002 129.478 21.65 129.478 18.998C129.478 17.438 130.258 16.372 131.532 15.722L132.338 16.97ZM133.95 30.386C134.054 29.684 134.106 29.008 134.106 28.202V26.746H127.684V25.264H133.508C136.914 25.264 140.32 25.16 143.232 24.64L143.466 26.07C141.282 26.486 138.708 26.668 135.874 26.72V28.202C135.874 29.034 135.848 29.736 135.744 30.49L133.95 30.386ZM138.968 29.918V28.41H144.324V29.918H138.968ZM132.936 34.78H147.366V36.288H131.194V31.192H132.936V34.78Z" fill="#858585"/>
<path d="M0.351562 26.2H149.654V27.5H0.351562V26.2Z" fill="#858585"/>
<path d="M165.077 18.27L171.447 9.835L173.162 11.165L166.827 19.53L165.077 18.27ZM174.282 24.5V35H172.112V24.5H162.697V22.4H172.112V16.8H174.282V22.4H180.267V24.5H174.282ZM183.735 31.71L185.94 32.025L184.96 38.535L182.755 38.185L183.735 31.71ZM196.466 23.135C192.616 23.135 189.711 20.265 189.711 16.45C189.711 12.635 192.616 9.765 196.466 9.765C200.316 9.765 203.221 12.635 203.221 16.45C203.221 20.265 200.316 23.135 196.466 23.135ZM196.466 21.07C199.091 21.07 201.051 19.075 201.051 16.45C201.051 13.825 199.091 11.83 196.466 11.83C193.841 11.83 191.881 13.825 191.881 16.45C191.881 19.075 193.841 21.07 196.466 21.07ZM199.091 24.78L200.981 25.865L195.556 35.42L193.631 34.405L199.091 24.78ZM215.069 35.385C210.589 35.385 207.859 30.24 207.859 22.575C207.859 18.445 208.594 15.085 210.169 12.705L211.604 14.35C210.519 16.45 210.029 19.635 210.029 22.575C210.029 28.7 211.849 33.285 215.069 33.285C218.289 33.285 220.109 28.7 220.109 22.575C220.109 16.45 218.289 11.865 215.069 11.865C214.754 11.865 214.404 11.935 214.299 11.97L213.424 10.045C213.914 9.87 214.404 9.765 215.069 9.765C219.549 9.765 222.279 14.91 222.279 22.575C222.279 30.24 219.549 35.385 215.069 35.385ZM233.697 35.385C229.217 35.385 226.487 30.24 226.487 22.575C226.487 18.445 227.222 15.085 228.797 12.705L230.232 14.35C229.147 16.45 228.657 19.635 228.657 22.575C228.657 28.7 230.477 33.285 233.697 33.285C236.917 33.285 238.737 28.7 238.737 22.575C238.737 16.45 236.917 11.865 233.697 11.865C233.382 11.865 233.032 11.935 232.927 11.97L232.052 10.045C232.542 9.87 233.032 9.765 233.697 9.765C238.177 9.765 240.907 14.91 240.907 22.575C240.907 30.24 238.177 35.385 233.697 35.385ZM270.175 8.19V32.76H267.83V8.19H270.175ZM250.645 12.075C249.56 12.67 248.895 13.58 248.895 14.805C248.895 17.22 251.485 18.375 254.775 18.375C258.065 18.375 260.62 17.22 260.62 14.805C260.62 12.355 258.065 11.2 254.775 11.2C253.9 11.2 253.06 11.27 252.325 11.445L251.275 9.765C252.325 9.485 253.515 9.345 254.775 9.345C259.15 9.345 262.72 10.99 262.72 14.805C262.72 18.375 259.15 20.195 254.775 20.195C250.4 20.195 246.795 18.375 246.795 14.805C246.795 12.705 247.845 11.27 249.56 10.395L250.645 12.075ZM252.815 30.135C252.955 29.19 253.025 28.28 253.025 27.195V25.235H244.38V23.24H252.22C256.805 23.24 261.39 23.1 265.31 22.4L265.625 24.325C262.685 24.885 259.22 25.13 255.405 25.2V27.195C255.405 28.315 255.37 29.26 255.23 30.275L252.815 30.135ZM259.57 29.505V27.475H266.78V29.505H259.57ZM251.45 36.05H270.875V38.08H249.105V31.22H251.45V36.05Z" fill="white"/>
</svg>
