<svg width="145" height="145" viewBox="0 0 145 145" fill="none" xmlns="http://www.w3.org/2000/svg">
<circle cx="72.5" cy="72.5" r="72" fill="#601313" stroke="white"/>
<path d="M67.2968 42.656V50.272H70.6568V53.128H67.2968V61.248H63.7688V42.656H67.2968ZM47.5288 48.032V45.288H53.1848V42.6H56.6568V45.288H62.3128V48.032H47.5288ZM48.7608 53.744C48.7608 50.832 51.2808 48.9 54.9208 48.872C58.5328 48.9 61.0528 50.832 61.0808 53.744C61.0528 56.572 58.5328 58.476 54.9208 58.448C51.2808 58.476 48.7608 56.572 48.7608 53.744ZM51.1128 67.072V59.792H54.6408V64.272H68.1928V67.072H51.1128ZM52.1768 53.744C52.1488 55.088 53.2688 55.816 54.9208 55.816C56.6008 55.816 57.7208 55.088 57.7208 53.744C57.7208 52.316 56.6008 51.56 54.9208 51.56C53.2688 51.56 52.1488 52.316 52.1768 53.744ZM92.728 42.6V57.384H89.256V51.504H85.336V48.704H89.256V42.6H92.728ZM71.56 54.64C75.648 53.296 77.524 50.048 77.608 46.912H72.568V44.112H86.064V46.912H81.136C81.192 49.796 82.984 52.736 86.848 54.024L85.112 56.768C82.396 55.872 80.492 54.08 79.4 51.84C78.308 54.388 76.348 56.404 73.408 57.44L71.56 54.64ZM75.648 62.76C75.648 59.736 78.896 57.972 84.216 57.944C89.536 57.972 92.784 59.736 92.784 62.76C92.784 65.784 89.536 67.548 84.216 67.576C78.896 67.548 75.648 65.784 75.648 62.76ZM79.12 62.76C79.12 64.188 80.912 64.888 84.216 64.888C87.52 64.888 89.312 64.188 89.312 62.76C89.312 61.332 87.52 60.604 84.216 60.632C80.912 60.604 79.12 61.332 79.12 62.76ZM60.7448 79.56C60.7448 82.5 63.7408 85.748 69.4248 86.448L68.0808 89.304C63.7128 88.66 60.5208 86.644 58.9248 83.928C57.3008 86.644 54.1088 88.66 49.7688 89.304L48.4248 86.448C54.0808 85.748 57.0768 82.5 57.0488 79.56V78.384H60.7448V79.56ZM47.5288 94.008V91.152H70.2648V94.008H60.5768V102.52H57.1048V94.008H47.5288ZM94.856 80.96V83.872H91.496V86.224H94.856V89.136H91.496V92.664H87.968V77.656H91.496V80.96H94.856ZM72.624 91.6V83.928H80.632V81.856H72.624V79.112H84.048V86.56H76.152V88.744C80.24 88.716 83.012 88.548 86.176 88.016L86.568 90.76C82.984 91.46 79.792 91.572 74.752 91.6H72.624ZM74.752 97.816C74.752 94.848 78 93.056 83.264 93.056C88.444 93.056 91.72 94.848 91.72 97.816C91.72 100.784 88.444 102.492 83.264 102.464C78 102.492 74.752 100.784 74.752 97.816ZM78.168 97.816C78.168 99.188 79.96 99.888 83.264 99.888C86.54 99.888 88.276 99.188 88.248 97.816C88.276 96.444 86.54 95.744 83.264 95.744C79.96 95.744 78.168 96.444 78.168 97.816Z" fill="white"/>
</svg>
