<svg width="228" height="118" viewBox="0 0 228 118" fill="none" xmlns="http://www.w3.org/2000/svg">
<path d="M9.57123 53.468V74H7.01923V56.136H6.90323L1.91523 59.442V56.89L7.01923 53.468H9.57123ZM21.707 74.29C18.024 74.29 15.24 71.999 15.037 68.838H17.531C17.734 70.665 19.503 72.028 21.707 72.028C24.404 72.028 26.318 70.085 26.347 67.504C26.318 64.836 24.317 62.893 21.533 62.864C19.822 62.835 18.488 63.386 17.705 64.72H15.269L16.719 53.468H27.797V55.73H18.807L18.053 61.762H18.285C19.184 61.066 20.576 60.573 21.997 60.602C25.912 60.573 28.812 63.473 28.783 67.446C28.812 71.419 25.825 74.29 21.707 74.29ZM44.1444 53.41V65.01H32.4864V53.41H44.1444ZM34.6904 63.212H41.9984V55.208H34.6904V63.212ZM35.3284 75.74V67.852H37.5324V73.884H52.2644V75.74H35.3284ZM48.9004 69.592V51.09H51.1044V58.804H54.8744V60.66H51.1044V69.592H48.9004ZM77.2119 51.148V70.288H75.0079V67.678H69.7879V66.054H75.0079V51.148H77.2119ZM56.3319 62.806C61.0299 62.777 67.3519 62.748 72.7459 62.052L72.8619 63.676C70.6289 64.053 68.2799 64.285 65.9599 64.401V69.418H63.7559V64.517C61.2039 64.604 58.7389 64.604 56.6219 64.604L56.3319 62.806ZM58.3619 56.542C58.3619 53.903 60.8849 52.163 64.6259 52.192C68.3089 52.163 70.8319 53.903 70.8319 56.542C70.8319 59.239 68.3089 60.921 64.6259 60.95C60.8849 60.921 58.3619 59.239 58.3619 56.542ZM59.9859 75.74V68.374H62.1899V73.884H77.8499V75.74H59.9859ZM60.5079 56.542C60.4789 58.195 62.1609 59.268 64.6259 59.268C67.0039 59.268 68.6859 58.195 68.7439 56.542C68.6859 54.947 67.0039 53.845 64.6259 53.874C62.1609 53.845 60.4789 54.947 60.5079 56.542ZM109.525 51.148V76.32H107.321V51.148H109.525ZM89.7474 61.82C89.7474 56.484 92.4154 53.091 96.1854 53.062C99.8974 53.091 102.594 56.484 102.623 61.82C102.594 67.214 99.8974 70.607 96.1854 70.636C92.4154 70.607 89.7474 67.214 89.7474 61.82ZM91.8934 61.82C91.8934 65.938 93.6334 68.635 96.1854 68.606C98.6794 68.635 100.419 65.938 100.419 61.82C100.419 57.76 98.6794 55.063 96.1854 55.034C93.6334 55.063 91.8934 57.76 91.8934 61.82ZM122.293 55.208C122.264 58.63 124.874 61.762 128.499 62.98L127.339 64.778C124.555 63.763 122.322 61.675 121.249 59.036C120.176 62.023 117.914 64.343 114.985 65.474L113.767 63.676C117.537 62.284 120.06 58.92 120.089 55.034V52.424H122.293V55.208ZM117.131 71.68C117.131 68.78 120.292 67.098 125.483 67.098C130.645 67.098 133.777 68.78 133.777 71.68C133.777 74.58 130.645 76.233 125.483 76.262C120.292 76.233 117.131 74.58 117.131 71.68ZM119.335 71.68C119.335 73.449 121.684 74.464 125.483 74.464C129.282 74.464 131.602 73.449 131.631 71.68C131.602 69.94 129.282 68.867 125.483 68.896C121.684 68.867 119.335 69.94 119.335 71.68ZM131.341 66.46V51.148H133.545V57.702H137.315V59.558H133.545V66.46H131.341ZM166.09 52.772V54.976C166.09 57.325 166.09 59.964 165.365 63.56H169.106V65.416H158.724V76.32H156.462V65.416H146.196V63.56H163.103C163.886 59.964 163.886 57.325 163.886 54.976V54.628H149.038V52.772H166.09ZM192.836 51.148V76.32H190.69V62.98H187.152V75.044H185.006V51.67H187.152V61.124H190.69V51.148H192.836ZM172.13 69.534V54.048H181.816V69.534H172.13ZM174.276 67.736H179.728V55.846H174.276V67.736ZM212.505 57.876C212.476 62.487 215.608 67.098 219.291 68.78L217.957 70.578C215.086 69.157 212.592 66.17 211.403 62.545C210.243 66.373 207.749 69.563 204.791 71.042L203.399 69.186C207.169 67.475 210.272 62.661 210.301 57.876V53.294H212.505V57.876ZM222.075 76.32V51.148H224.279V76.32H222.075ZM30.0161 91.252C30.0161 94.5796 31.8003 97.8931 35.9067 99.2666L33.9526 102.099C31.2197 101.093 29.3364 99.1958 28.2461 96.8027C27.1416 99.5073 25.1309 101.617 22.1431 102.693L20.189 99.8613C24.4937 98.4453 26.3486 94.9194 26.3628 91.2236V88.4199H30.0161V91.252ZM24.9185 112.152V103.883H28.5718V109.264H42.6187V112.152H24.9185ZM33.6411 95.2451V92.3281H38.4839V86.8623H42.0806V105.894H38.4839V95.2451H33.6411ZM67.5688 86.834V104.364H64.1421V86.834H67.5688ZM45.0542 99.04C48.5801 97.4824 50.0386 94.353 50.0386 91.4219V88.4482H53.5503V91.4219C53.5361 94.353 54.8672 97.1851 58.1382 98.6436L56.1841 101.419C54.0601 100.484 52.644 98.8701 51.7944 96.8877C50.8599 99.0259 49.3022 100.81 46.98 101.787L45.0542 99.04ZM48.6792 109.717C54.2583 109.009 57.0337 106.248 57.0337 103.6V103.005H60.6304V103.6C60.6445 106.248 63.4058 109.009 68.9849 109.717L67.5972 112.492C63.4341 111.94 60.418 110.212 58.832 107.833C57.2319 110.212 54.1875 111.94 50.0103 112.492L48.6792 109.717ZM55.7876 95.0186V92.1299H58.9312V87.3438H62.3579V101.929H58.9312V95.0186H55.7876ZM100.732 101.249V104.138H90.6499V112.577H87.0815V104.138H77.1411V101.249H100.732ZM79.9165 98.4736V88.0801H97.8999V98.4736H79.9165ZM83.4849 95.6416H94.3032V90.9404H83.4849V95.6416ZM123.247 98.7568V101.646H105.008V88.9863H123.048V91.9033H108.577V98.7568H123.247ZM102.233 109.462V106.488H125.824V109.462H102.233ZM150.859 98.6152V101.561H127.296V98.6152H150.859ZM129.987 107.848C129.987 104.817 133.385 103.104 139.021 103.118C144.614 103.104 147.97 104.817 147.999 107.848C147.97 110.892 144.614 112.62 139.021 112.605C133.385 112.62 129.987 110.892 129.987 107.848ZM130.157 96.8027V87.5137H148.027V90.4307H133.753V93.9424H148.168V96.8027H130.157ZM133.668 107.848C133.654 109.207 135.453 109.858 139.021 109.858C142.519 109.858 144.359 109.207 144.374 107.848C144.359 106.545 142.519 105.865 139.021 105.865C135.453 105.865 133.654 106.545 133.668 107.848ZM182.549 98.7002V101.617H159.043V98.7002H182.549ZM160.091 94.9336C164.934 94.4946 167.582 92.7246 168.177 90.9121H161.196V88.0234H180.425V90.9121H173.388C173.968 92.7104 176.602 94.4946 181.558 94.9336L180.284 97.7656C175.413 97.2983 172.142 95.4575 170.768 92.9653C169.409 95.4575 166.166 97.2983 161.281 97.7656L160.091 94.9336ZM161.734 107.848C161.734 104.817 165.132 103.062 170.768 103.062C176.361 103.062 179.717 104.817 179.746 107.848C179.717 110.892 176.361 112.62 170.768 112.605C165.132 112.62 161.734 110.892 161.734 107.848ZM165.416 107.848C165.401 109.179 167.2 109.802 170.768 109.802C174.266 109.802 176.106 109.179 176.121 107.848C176.106 106.502 174.266 105.865 170.768 105.865C167.2 105.865 165.401 106.502 165.416 107.848ZM205.829 86.834V102.127H202.232V96.0381H198.21V93.1211H202.232V86.834H205.829ZM183.937 99.2949C188.157 97.8789 190.083 94.5088 190.167 91.2803H184.985V88.3916H198.975V91.2803H193.849C193.92 94.2822 195.761 97.3125 199.768 98.6436L197.984 101.476C195.152 100.555 193.184 98.686 192.065 96.3779C190.932 98.9976 188.865 101.107 185.806 102.155L183.937 99.2949ZM188.157 107.678C188.157 104.548 191.527 102.708 197.021 102.693C202.529 102.708 205.899 104.548 205.914 107.678C205.899 110.807 202.529 112.634 197.021 112.634C191.527 112.634 188.157 110.807 188.157 107.678ZM191.753 107.678C191.753 109.15 193.608 109.887 197.021 109.887C200.448 109.887 202.303 109.15 202.317 107.678C202.303 106.191 200.448 105.455 197.021 105.469C193.608 105.455 191.753 106.191 191.753 107.678Z" fill="white"/>
<path d="M108.684 20.323C104.797 20.323 101.876 17.126 101.876 10.686C101.876 4.246 104.797 1.049 108.684 1.049C112.548 1.049 115.469 4.246 115.469 10.686C115.469 17.126 112.548 20.323 108.684 20.323ZM108.684 18.184C111.168 18.184 113.146 15.7 113.146 10.686C113.146 5.695 111.168 3.188 108.684 3.188C106.177 3.188 104.199 5.695 104.199 10.686C104.199 15.7 106.177 18.184 108.684 18.184ZM117.777 19.909V18.345L124.309 11.79C126.655 9.421 127.575 7.926 127.575 6.615C127.575 4.453 126.103 3.188 123.803 3.188C121.319 3.188 119.985 5.074 119.985 7.121H117.57C117.57 3.786 119.985 1.049 123.826 1.049C127.529 1.049 129.967 3.28 129.967 6.592C129.967 8.57 128.84 10.249 126.08 13.078L121.25 17.816H130.588V19.909H117.777Z" fill="white"/>
<path d="M108.684 20.023C106.831 20.023 105.219 19.2652 104.061 17.7383C102.897 16.2027 102.176 13.865 102.176 10.686H101.576C101.576 13.947 102.315 16.4278 103.583 18.1007C104.858 19.7823 106.649 20.623 108.684 20.623V20.023ZM102.176 10.686C102.176 7.50705 102.897 5.16926 104.061 3.63373C105.219 2.10681 106.831 1.349 108.684 1.349V0.748999C106.649 0.748999 104.858 1.58969 103.583 3.27127C102.315 4.94423 101.576 7.42495 101.576 10.686H102.176ZM108.684 1.349C110.524 1.349 112.131 2.10635 113.286 3.63346C114.447 5.16911 115.169 7.50707 115.169 10.686H115.769C115.769 7.42492 115.03 4.94438 113.764 3.27154C112.493 1.59014 110.707 0.748999 108.684 0.748999V1.349ZM115.169 10.686C115.169 13.8649 114.447 16.2029 113.286 17.7385C112.131 19.2656 110.524 20.023 108.684 20.023V20.623C110.707 20.623 112.493 19.7819 113.764 18.1005C115.03 16.4276 115.769 13.9471 115.769 10.686H115.169ZM108.684 18.484C110.04 18.484 111.245 17.8002 112.098 16.4779C112.945 15.1651 113.446 13.2272 113.446 10.686H112.846C112.846 13.1588 112.357 14.9699 111.594 16.1526C110.837 17.3258 109.811 17.884 108.684 17.884V18.484ZM113.446 10.686C113.446 8.15602 112.945 6.21837 112.098 4.903C111.246 3.57846 110.041 2.888 108.684 2.888V3.488C109.81 3.488 110.836 4.05104 111.594 5.22775C112.357 6.41362 112.846 8.22497 112.846 10.686H113.446ZM108.684 2.888C107.316 2.888 106.105 3.57753 105.249 4.90259C104.399 6.21818 103.899 8.15608 103.899 10.686H104.499C104.499 8.22492 104.987 6.41382 105.753 5.22816C106.513 4.05196 107.545 3.488 108.684 3.488V2.888ZM103.899 10.686C103.899 13.2271 104.399 15.1653 105.249 16.4783C106.106 17.8011 107.317 18.484 108.684 18.484V17.884C107.544 17.884 106.512 17.3249 105.753 16.1522C104.987 14.9697 104.499 13.1589 104.499 10.686H103.899ZM117.777 19.909H117.477V20.209H117.777V19.909ZM117.777 18.345L117.564 18.1332L117.477 18.221V18.345H117.777ZM124.309 11.79L124.521 12.0018L124.522 12.0011L124.309 11.79ZM119.985 7.121V7.421H120.285V7.121H119.985ZM117.57 7.121H117.27V7.421H117.57V7.121ZM126.08 13.078L126.29 13.2922L126.295 13.2875L126.08 13.078ZM121.25 17.816L121.04 17.6018L120.516 18.116H121.25V17.816ZM130.588 17.816H130.888V17.516H130.588V17.816ZM130.588 19.909V20.209H130.888V19.909H130.588ZM118.077 19.909V18.345H117.477V19.909H118.077ZM117.989 18.5568L124.521 12.0018L124.096 11.5782L117.564 18.1332L117.989 18.5568ZM124.522 12.0011C125.701 10.8106 126.535 9.82642 127.076 8.96522C127.618 8.1018 127.875 7.34504 127.875 6.615H127.275C127.275 7.19596 127.072 7.8422 126.568 8.64628C126.062 9.45258 125.263 10.4004 124.096 11.5789L124.522 12.0011ZM127.875 6.615C127.875 5.46224 127.48 4.51906 126.751 3.86718C126.027 3.21912 125.006 2.888 123.803 2.888V3.488C124.9 3.488 125.765 3.78938 126.351 4.31432C126.934 4.83544 127.275 5.60576 127.275 6.615H127.875ZM123.803 2.888C122.479 2.888 121.441 3.39358 120.738 4.18801C120.039 4.97747 119.685 6.0345 119.685 7.121H120.285C120.285 6.1605 120.598 5.25103 121.187 4.58574C121.772 3.92542 122.643 3.488 123.803 3.488V2.888ZM119.985 6.821H117.57V7.421H119.985V6.821ZM117.87 7.121C117.87 3.9472 120.155 1.349 123.826 1.349V0.748999C119.815 0.748999 117.27 3.6248 117.27 7.121H117.87ZM123.826 1.349C125.618 1.349 127.076 1.88816 128.084 2.8008C129.088 3.71109 129.667 5.01359 129.667 6.592H130.267C130.267 4.85841 129.627 3.38941 128.486 2.35619C127.349 1.32534 125.737 0.748999 123.826 0.748999V1.349ZM129.667 6.592C129.667 8.4354 128.63 10.0348 125.865 12.8685L126.295 13.2875C129.05 10.4632 130.267 8.7046 130.267 6.592H129.667ZM125.87 12.8638L121.04 17.6018L121.46 18.0302L126.29 13.2922L125.87 12.8638ZM121.25 18.116H130.588V17.516H121.25V18.116ZM130.288 17.816V19.909H130.888V17.816H130.288ZM130.588 19.609H117.777V20.209H130.588V19.609Z" fill="#144462"/>
</svg>
