<svg width="750" height="2029" viewBox="0 0 750 2029" fill="none" xmlns="http://www.w3.org/2000/svg">
<rect x="-0.000488281" width="750" height="2029" fill="url(#paint0_linear_65_324)"/>
<path opacity="0.8" d="M-89.2759 1279.11C-130.163 1320.07 -102.134 1390.05 -44.2826 1391.46C-29.2617 1447.34 45.3732 1458.06 75.5157 1408.66C131.423 1423.6 178.028 1364.33 150.31 1313.52C191.198 1272.57 163.168 1202.58 105.317 1201.18C90.2962 1145.3 15.6613 1134.58 -14.4811 1183.97C-70.3881 1169.03 -116.995 1228.31 -89.2759 1279.11Z" fill="url(#paint1_linear_65_324)"/>
<path d="M697.462 579.883C742.111 533.35 709.336 455.994 644.852 455.711C626.882 393.781 543.492 383.487 511.001 439.186C448.384 423.779 397.769 490.84 429.772 546.836C385.123 593.369 417.898 670.725 482.382 671.008C500.352 732.938 583.742 743.232 616.233 687.532C678.85 702.94 729.466 635.867 697.462 579.883Z" fill="url(#paint2_linear_65_324)"/>
<path opacity="0.8" d="M681.268 1502.99C711.62 1482.83 703.074 1436.14 667.55 1428.04C665.268 1391.68 620.553 1375.73 595.776 1402.44C563.144 1386.23 526.974 1416.98 537.725 1451.8C507.372 1471.96 515.918 1518.65 551.442 1526.75C553.724 1563.12 598.44 1579.06 623.217 1552.35C655.848 1568.56 692.021 1537.81 681.268 1502.99Z" fill="url(#paint3_linear_65_324)"/>
<defs>
<linearGradient id="paint0_linear_65_324" x1="375" y1="24.6394" x2="375" y2="2029" gradientUnits="userSpaceOnUse">
<stop stop-color="#FE5A38"/>
<stop offset="0.520833" stop-color="#FC5D3A"/>
<stop offset="0.9999" stop-color="#7CDFA9"/>
<stop offset="1" stop-color="#7CDFA9"/>
</linearGradient>
<linearGradient id="paint1_linear_65_324" x1="9.94598" y1="1439.54" x2="51.0886" y2="1153.1" gradientUnits="userSpaceOnUse">
<stop offset="0.0729167" stop-color="#93C896" stop-opacity="0.58"/>
<stop offset="0.651042" stop-color="#E62E2E" stop-opacity="0"/>
</linearGradient>
<linearGradient id="paint2_linear_65_324" x1="574" y1="385.031" x2="543.862" y2="723.381" gradientUnits="userSpaceOnUse">
<stop stop-color="#FD3407" stop-opacity="0.75"/>
<stop offset="0.505208" stop-color="#E62E2E" stop-opacity="0"/>
</linearGradient>
<linearGradient id="paint3_linear_65_324" x1="640.099" y1="1391.59" x2="578.894" y2="1563.21" gradientUnits="userSpaceOnUse">
<stop offset="0.0729167" stop-color="#93C896" stop-opacity="0.58"/>
<stop offset="0.651042" stop-color="#E62E2E" stop-opacity="0"/>
</linearGradient>
</defs>
</svg>
