<svg width="750" height="3679" viewBox="0 0 750 3679" fill="none" xmlns="http://www.w3.org/2000/svg">
<g clip-path="url(#clip0_36_3373)">
<rect width="750" height="3679" fill="white"/>
<g clip-path="url(#clip1_36_3373)">
<rect width="750" height="5685" transform="translate(0.000976562 -9)" fill="url(#paint0_linear_36_3373)"/>
<path d="M691.176 3051H678.984V3063.19H691.176V3051Z" fill="#3EBBC3"/>
<path d="M651.204 3056.89L640.066 3061.85L645.025 3072.98L656.163 3068.02L651.204 3056.89Z" fill="#3EBBC3"/>
<path d="M617.125 3078.54L608.967 3087.6L618.027 3095.76L626.185 3086.7L617.125 3078.54Z" fill="#3EBBC3"/>
<path d="M594.739 3112.2L590.971 3123.8L602.567 3127.57L606.334 3115.97L594.739 3112.2Z" fill="#3EBBC3"/>
<path d="M588.001 3152.02L589.275 3164.15L601.401 3162.87L600.126 3150.75L588.001 3152.02Z" fill="#3EBBC3"/>
<path d="M598.042 3191.14L604.138 3201.7L614.696 3195.61L608.6 3185.05L598.042 3191.14Z" fill="#3EBBC3"/>
<path d="M623.132 3222.79L632.996 3229.96L640.163 3220.09L630.299 3212.93L623.132 3222.79Z" fill="#3EBBC3"/>
<path d="M658.944 3241.5L670.87 3244.03L673.405 3232.11L661.479 3229.57L658.944 3241.5Z" fill="#3EBBC3"/>
<path d="M699.273 3244.04L711.199 3241.51L708.664 3229.58L696.738 3232.12L699.273 3244.04Z" fill="#3EBBC3"/>
<path d="M737.112 3229.97L746.975 3222.8L739.809 3212.94L729.945 3220.11L737.112 3229.97Z" fill="#3EBBC3"/>
<path d="M761.186 3087.61L753.027 3078.55L743.967 3086.7L752.125 3095.77L761.186 3087.61Z" fill="#3EBBC3"/>
<path d="M730.076 3061.87L718.938 3056.91L713.979 3068.05L725.117 3073.01L730.076 3061.87Z" fill="#3EBBC3"/>
<circle cx="316.501" cy="1646.5" r="1.5" fill="#FFA2D1"/>
<circle cx="264.001" cy="1735" r="2" fill="#FFA2D1"/>
<circle cx="340.501" cy="1815.5" r="1.5" fill="#FFA2D1"/>
<circle cx="500.001" cy="1771" r="2" fill="#FFA2D1"/>
<circle cx="613.001" cy="1985" r="2" fill="#FFA2D1"/>
<circle cx="518.001" cy="2610" r="2" fill="#FFA2D1"/>
<circle cx="351.001" cy="2898" r="2" fill="#FFA2D1"/>
<circle cx="550.001" cy="2911" r="2" fill="#FFA2D1"/>
<circle cx="647.001" cy="1897" r="2" fill="#FFA2D1"/>
<circle cx="290.001" cy="1852" r="2" fill="#FFA2D1"/>
<circle cx="111.001" cy="1751" r="2" fill="#FFA2D1"/>
<circle cx="462.501" cy="1692.5" r="1.5" fill="#FFA2D1"/>
<circle cx="240.001" cy="2174" r="2" fill="#FFA2D1"/>
<circle cx="552.501" cy="2040.5" r="1.5" fill="#FFA2D1"/>
<circle cx="686.501" cy="1979.5" r="1.5" fill="#FFA2D1"/>
<circle cx="195.501" cy="3006.5" r="1.5" fill="#FFA2D1"/>
<circle cx="209.001" cy="2237" r="2" fill="#FFA2D1"/>
<circle cx="195.501" cy="2388.5" r="1.5" fill="#FFA2D1"/>
<circle cx="140.501" cy="2552.5" r="1.5" fill="#FFA2D1"/>
<circle cx="281.501" cy="2638.5" r="1.5" fill="#FFA2D1"/>
<circle cx="646.501" cy="2491.5" r="1.5" fill="#FFA2D1"/>
<circle cx="159.501" cy="2867.5" r="1.5" fill="#FFA2D1"/>
<circle cx="19.501" cy="2682.5" r="1.5" fill="#FFA2D1"/>
<circle cx="259.001" cy="3007" r="2" fill="#FFA2D1"/>
<circle cx="606.501" cy="3023.5" r="1.5" fill="#FFA2D1"/>
<circle cx="314.501" cy="2975.5" r="1.5" fill="#FFA2D1"/>
<circle cx="28.001" cy="2381" r="2" fill="#FFA2D1"/>
<circle cx="306.501" cy="2207.5" r="1.5" fill="#FFA2D1"/>
<circle cx="604.501" cy="1696.5" r="1.5" fill="#FFA2D1"/>
<circle cx="730.501" cy="1762.5" r="1.5" fill="#FFA2D1"/>
<circle cx="198.501" cy="1678.5" r="1.5" fill="#FFA2D1"/>
<circle cx="316.501" cy="3137.5" r="1.5" fill="#FFA2D1"/>
<circle cx="264.001" cy="3226" r="2" fill="#FFA2D1"/>
<circle cx="340.501" cy="3306.5" r="1.5" fill="#FFA2D1"/>
<circle cx="500.001" cy="3262" r="2" fill="#FFA2D1"/>
<circle cx="613.001" cy="3476" r="2" fill="#FFA2D1"/>
<circle cx="647.001" cy="3388" r="2" fill="#FFA2D1"/>
<circle cx="290.001" cy="3343" r="2" fill="#FFA2D1"/>
<circle cx="111.001" cy="3242" r="2" fill="#FFA2D1"/>
<circle cx="462.501" cy="3183.5" r="1.5" fill="#FFA2D1"/>
<circle cx="240.001" cy="3665" r="2" fill="#FFA2D1"/>
<circle cx="552.501" cy="3531.5" r="1.5" fill="#FFA2D1"/>
<circle cx="686.501" cy="3470.5" r="1.5" fill="#FFA2D1"/>
<circle cx="604.501" cy="3187.5" r="1.5" fill="#FFA2D1"/>
<circle cx="730.501" cy="3253.5" r="1.5" fill="#FFA2D1"/>
<circle cx="198.501" cy="3169.5" r="1.5" fill="#FFA2D1"/>
<circle cx="316.501" cy="53.5" r="1.5" fill="#FFA2D1"/>
<circle cx="264.001" cy="142" r="2" fill="#FFA2D1"/>
<circle cx="340.501" cy="222.5" r="1.5" fill="#FFA2D1"/>
<circle cx="500.001" cy="178" r="2" fill="#FFA2D1"/>
<circle cx="613.001" cy="392" r="2" fill="#FFA2D1"/>
<circle cx="518.001" cy="1017" r="2" fill="#FFA2D1"/>
<circle cx="351.001" cy="1305" r="2" fill="#FFA2D1"/>
<circle cx="550.001" cy="1318" r="2" fill="#FFA2D1"/>
<circle cx="647.001" cy="304" r="2" fill="#FFA2D1"/>
<circle cx="290.001" cy="259" r="2" fill="#FFA2D1"/>
<circle cx="111.001" cy="158" r="2" fill="#FFA2D1"/>
<circle cx="462.501" cy="99.5" r="1.5" fill="#FFA2D1"/>
<circle cx="240.001" cy="581" r="2" fill="#FFA2D1"/>
<circle cx="552.501" cy="447.5" r="1.5" fill="#FFA2D1"/>
<circle cx="686.501" cy="386.5" r="1.5" fill="#FFA2D1"/>
<circle cx="195.501" cy="1413.5" r="1.5" fill="#FFA2D1"/>
<circle cx="209.001" cy="644" r="2" fill="#FFA2D1"/>
<circle cx="195.501" cy="795.5" r="1.5" fill="#FFA2D1"/>
<circle cx="140.501" cy="959.5" r="1.5" fill="#FFA2D1"/>
<circle cx="281.501" cy="1045.5" r="1.5" fill="#FFA2D1"/>
<circle cx="646.501" cy="898.5" r="1.5" fill="#FFA2D1"/>
<circle cx="159.501" cy="1274.5" r="1.5" fill="#FFA2D1"/>
<circle cx="19.501" cy="1089.5" r="1.5" fill="#FFA2D1"/>
<circle cx="259.001" cy="1414" r="2" fill="#FFA2D1"/>
<circle cx="606.501" cy="1430.5" r="1.5" fill="#FFA2D1"/>
<circle cx="314.501" cy="1382.5" r="1.5" fill="#FFA2D1"/>
<circle cx="28.001" cy="788" r="2" fill="#FFA2D1"/>
<circle cx="306.501" cy="614.5" r="1.5" fill="#FFA2D1"/>
<circle cx="604.501" cy="103.5" r="1.5" fill="#FFA2D1"/>
<circle cx="730.501" cy="169.5" r="1.5" fill="#FFA2D1"/>
<circle cx="198.501" cy="85.5" r="1.5" fill="#FFA2D1"/>
<path d="M506.81 3548.53C507.981 3548.53 508.93 3547.58 508.93 3546.41C508.93 3545.24 507.981 3544.29 506.81 3544.29C505.64 3544.29 504.691 3545.24 504.691 3546.41C504.691 3547.58 505.64 3548.53 506.81 3548.53Z" fill="#FF8F9C"/>
<path d="M505.428 3555C506.599 3555 507.548 3554.06 507.548 3552.89C507.548 3551.71 506.599 3550.77 505.428 3550.77C504.257 3550.77 503.309 3551.71 503.309 3552.89C503.309 3554.06 504.257 3555 505.428 3555Z" fill="#FF8F9C"/>
<path d="M504.691 3562.4C505.862 3562.4 506.811 3561.45 506.811 3560.28C506.811 3559.11 505.862 3558.16 504.691 3558.16C503.521 3558.16 502.572 3559.11 502.572 3560.28C502.572 3561.45 503.521 3562.4 504.691 3562.4Z" fill="#FF8F9C"/>
<path d="M506.81 3569.81C507.981 3569.81 508.93 3568.86 508.93 3567.69C508.93 3566.52 507.981 3565.57 506.81 3565.57C505.64 3565.57 504.691 3566.52 504.691 3567.69C504.691 3568.86 505.64 3569.81 506.81 3569.81Z" fill="#FF8F9C"/>
<path d="M511.041 3576.1C512.212 3576.1 513.16 3575.15 513.16 3573.98C513.16 3572.81 512.212 3571.86 511.041 3571.86C509.87 3571.86 508.922 3572.81 508.922 3573.98C508.922 3575.15 509.87 3576.1 511.041 3576.1Z" fill="#FF8F9C"/>
<path d="M516.497 3579.52C517.668 3579.52 518.617 3578.57 518.617 3577.4C518.617 3576.23 517.668 3575.28 516.497 3575.28C515.327 3575.28 514.378 3576.23 514.378 3577.4C514.378 3578.57 515.327 3579.52 516.497 3579.52Z" fill="#FF8F9C"/>
<path d="M522.515 3581.63C523.685 3581.63 524.634 3580.68 524.634 3579.51C524.634 3578.34 523.685 3577.39 522.515 3577.39C521.344 3577.39 520.395 3578.34 520.395 3579.51C520.395 3580.68 521.344 3581.63 522.515 3581.63Z" fill="#FF8F9C"/>
<path d="M528.603 3584.96C529.774 3584.96 530.723 3584.01 530.723 3582.84C530.723 3581.67 529.774 3580.72 528.603 3580.72C527.433 3580.72 526.484 3581.67 526.484 3582.84C526.484 3584.01 527.433 3584.96 528.603 3584.96Z" fill="#FF8F9C"/>
<path d="M533.232 3586.35C534.403 3586.35 535.351 3585.4 535.351 3584.23C535.351 3583.06 534.403 3582.11 533.232 3582.11C532.061 3582.11 531.112 3583.06 531.112 3584.23C531.112 3585.4 532.061 3586.35 533.232 3586.35Z" fill="#FF8F9C"/>
<path d="M538.506 3588.01C539.676 3588.01 540.625 3587.07 540.625 3585.89C540.625 3584.72 539.676 3583.77 538.506 3583.77C537.335 3583.77 536.386 3584.72 536.386 3585.89C536.386 3587.07 537.335 3588.01 538.506 3588.01Z" fill="#FF8F9C"/>
<path d="M544.145 3590.13C545.315 3590.13 546.264 3589.18 546.264 3588.01C546.264 3586.84 545.315 3585.89 544.145 3585.89C542.974 3585.89 542.025 3586.84 542.025 3588.01C542.025 3589.18 542.974 3590.13 544.145 3590.13Z" fill="#FF8F9C"/>
<path d="M548.956 3592.81C550.127 3592.81 551.075 3591.86 551.075 3590.69C551.075 3589.52 550.127 3588.57 548.956 3588.57C547.785 3588.57 546.836 3589.52 546.836 3590.69C546.836 3591.86 547.785 3592.81 548.956 3592.81Z" fill="#FF8F9C"/>
<path d="M552.379 3596.14C553.549 3596.14 554.498 3595.19 554.498 3594.02C554.498 3592.85 553.549 3591.9 552.379 3591.9C551.208 3591.9 550.259 3592.85 550.259 3594.02C550.259 3595.19 551.208 3596.14 552.379 3596.14Z" fill="#FF8F9C"/>
<path d="M555.71 3600.37C556.88 3600.37 557.829 3599.42 557.829 3598.25C557.829 3597.08 556.88 3596.13 555.71 3596.13C554.539 3596.13 553.59 3597.08 553.59 3598.25C553.59 3599.42 554.539 3600.37 555.71 3600.37Z" fill="#FF8F9C"/>
<path d="M556.609 3605.25C557.78 3605.25 558.729 3604.3 558.729 3603.13C558.729 3601.96 557.78 3601.01 556.609 3601.01C555.439 3601.01 554.49 3601.96 554.49 3603.13C554.49 3604.3 555.439 3605.25 556.609 3605.25Z" fill="#FF8F9C"/>
<path d="M559.367 3610.13C560.538 3610.13 561.486 3609.18 561.486 3608.01C561.486 3606.84 560.538 3605.89 559.367 3605.89C558.196 3605.89 557.247 3606.84 557.247 3608.01C557.247 3609.18 558.196 3610.13 559.367 3610.13Z" fill="#FF8F9C"/>
<path d="M564.999 3610.13C566.17 3610.13 567.119 3609.18 567.119 3608.01C567.119 3606.84 566.17 3605.89 564.999 3605.89C563.829 3605.89 562.88 3606.84 562.88 3608.01C562.88 3609.18 563.829 3610.13 564.999 3610.13Z" fill="#FF8F9C"/>
<path d="M563.598 3603.64C564.768 3603.64 565.717 3602.69 565.717 3601.52C565.717 3600.35 564.768 3599.4 563.598 3599.4C562.427 3599.4 561.478 3600.35 561.478 3601.52C561.478 3602.69 562.427 3603.64 563.598 3603.64Z" fill="#FF8F9C"/>
<path d="M560.84 3598.93C562.011 3598.93 562.96 3597.98 562.96 3596.81C562.96 3595.64 562.011 3594.69 560.84 3594.69C559.67 3594.69 558.721 3595.64 558.721 3596.81C558.721 3597.98 559.67 3598.93 560.84 3598.93Z" fill="#FF8F9C"/>
<path d="M557.822 3594.21C558.992 3594.21 559.941 3593.26 559.941 3592.09C559.941 3590.92 558.992 3589.97 557.822 3589.97C556.651 3589.97 555.702 3590.92 555.702 3592.09C555.702 3593.26 556.651 3594.21 557.822 3594.21Z" fill="#FF8F9C"/>
<path d="M553.591 3590.13C554.762 3590.13 555.711 3589.18 555.711 3588.01C555.711 3586.84 554.762 3585.89 553.591 3585.89C552.42 3585.89 551.472 3586.84 551.472 3588.01C551.472 3589.18 552.42 3590.13 553.591 3590.13Z" fill="#FF8F9C"/>
<path d="M549.36 3586.35C550.531 3586.35 551.48 3585.4 551.48 3584.23C551.48 3583.06 550.531 3582.11 549.36 3582.11C548.19 3582.11 547.241 3583.06 547.241 3584.23C547.241 3585.4 548.19 3586.35 549.36 3586.35Z" fill="#FF8F9C"/>
<path d="M544.725 3582.85C545.896 3582.85 546.845 3581.9 546.845 3580.73C546.845 3579.56 545.896 3578.61 544.725 3578.61C543.555 3578.61 542.606 3579.56 542.606 3580.73C542.606 3581.9 543.555 3582.85 544.725 3582.85Z" fill="#FF8F9C"/>
<path d="M540.625 3578.62C541.795 3578.62 542.744 3577.67 542.744 3576.5C542.744 3575.33 541.795 3574.38 540.625 3574.38C539.454 3574.38 538.505 3575.33 538.505 3576.5C538.505 3577.67 539.454 3578.62 540.625 3578.62Z" fill="#FF8F9C"/>
<path d="M537.463 3573.98C538.633 3573.98 539.582 3573.03 539.582 3571.86C539.582 3570.69 538.633 3569.74 537.463 3569.74C536.292 3569.74 535.343 3570.69 535.343 3571.86C535.343 3573.03 536.292 3573.98 537.463 3573.98Z" fill="#FF8F9C"/>
<path d="M534.484 3569.34C535.654 3569.34 536.603 3568.39 536.603 3567.22C536.603 3566.05 535.654 3565.1 534.484 3565.1C533.313 3565.1 532.364 3566.05 532.364 3567.22C532.364 3568.39 533.313 3569.34 534.484 3569.34Z" fill="#FF8F9C"/>
<path d="M529.001 3568.66C530.172 3568.66 531.121 3567.71 531.121 3566.54C531.121 3565.37 530.172 3564.42 529.001 3564.42C527.831 3564.42 526.882 3565.37 526.882 3566.54C526.882 3567.71 527.831 3568.66 529.001 3568.66Z" fill="#FF8F9C"/>
<path d="M523.297 3567.23C524.467 3567.23 525.416 3566.28 525.416 3565.11C525.416 3563.94 524.467 3562.99 523.297 3562.99C522.126 3562.99 521.177 3563.94 521.177 3565.11C521.177 3566.28 522.126 3567.23 523.297 3567.23Z" fill="#FF8F9C"/>
<path d="M520.396 3561.48C521.566 3561.48 522.515 3560.53 522.515 3559.36C522.515 3558.19 521.566 3557.24 520.396 3557.24C519.225 3557.24 518.276 3558.19 518.276 3559.36C518.276 3560.53 519.225 3561.48 520.396 3561.48Z" fill="#FF8F9C"/>
<path d="M523.297 3555.7C524.467 3555.7 525.416 3554.75 525.416 3553.58C525.416 3552.41 524.467 3551.46 523.297 3551.46C522.126 3551.46 521.177 3552.41 521.177 3553.58C521.177 3554.75 522.126 3555.7 523.297 3555.7Z" fill="#FF8F9C"/>
<path d="M526.889 3550.65C528.059 3550.65 529.008 3549.7 529.008 3548.53C529.008 3547.36 528.059 3546.41 526.889 3546.41C525.718 3546.41 524.769 3547.36 524.769 3548.53C524.769 3549.7 525.718 3550.65 526.889 3550.65Z" fill="#FF8F9C"/>
<path d="M528.173 3544.3C529.344 3544.3 530.293 3543.35 530.293 3542.18C530.293 3541.01 529.344 3540.06 528.173 3540.06C527.003 3540.06 526.054 3541.01 526.054 3542.18C526.054 3543.35 527.003 3544.3 528.173 3544.3Z" fill="#FF8F9C"/>
<path d="M526.498 3539.22C527.668 3539.22 528.617 3538.27 528.617 3537.1C528.617 3535.93 527.668 3534.98 526.498 3534.98C525.327 3534.98 524.378 3535.93 524.378 3537.1C524.378 3538.27 525.327 3539.22 526.498 3539.22Z" fill="#FF8F9C"/>
<path d="M522.86 3536.58C528.459 3531.14 531.939 3523.53 531.939 3515.1C531.939 3498.55 518.521 3485.13 501.966 3485.13C485.41 3485.13 472.001 3498.55 472.001 3515.1C472.001 3531.64 485.419 3545.06 501.966 3545.06C503.693 3545.06 505.387 3544.9 507.031 3544.63L510.077 3550.13C510.561 3551 511.512 3551.52 512.513 3551.45C515.742 3551.21 522.668 3549.82 524.88 3542.43C525.072 3541.8 525.03 3541.12 524.746 3540.53L522.852 3536.58H522.86Z" fill="#FF377A"/>
<path d="M500.9 3543.44C515.039 3543.44 526.501 3531.98 526.501 3517.84C526.501 3503.7 515.039 3492.24 500.9 3492.24C486.761 3492.24 475.3 3503.7 475.3 3517.84C475.3 3531.98 486.761 3543.44 500.9 3543.44Z" fill="#FEF8F1"/>
<path d="M495.867 3499.56L499.614 3520.2L511.68 3529.95" stroke="#FF377A" stroke-width="2" stroke-miterlimit="10" stroke-linecap="round"/>
<path d="M499.611 3522.57C500.915 3522.57 501.972 3521.51 501.972 3520.2C501.972 3518.9 500.915 3517.84 499.611 3517.84C498.307 3517.84 497.249 3518.9 497.249 3520.2C497.249 3521.51 498.307 3522.57 499.611 3522.57Z" fill="#05038B"/>
<path d="M509.786 3543.91L512.656 3549.84" stroke="#B72858" stroke-width="2" stroke-linecap="round" stroke-linejoin="round"/>
<path d="M512.954 3543.45L515.816 3549.37" stroke="#B72858" stroke-width="2" stroke-linecap="round" stroke-linejoin="round"/>
<path d="M516.116 3542.52L518.986 3548.44" stroke="#B72858" stroke-width="2" stroke-linecap="round" stroke-linejoin="round"/>
<path d="M518.619 3540.06L521.481 3545.98" stroke="#B72858" stroke-width="2" stroke-linecap="round" stroke-linejoin="round"/>
<path d="M520.431 3537.1L523.302 3543.02" stroke="#B72858" stroke-width="2" stroke-linecap="round" stroke-linejoin="round"/>
<path d="M568.224 3423.58C568.224 3423.58 531.701 3410.24 527.211 3422.15C522.721 3434.06 572.073 3467.98 587.244 3475.54C602.416 3483.11 639.535 3500.93 647.161 3488.58C654.787 3476.22 615.781 3445.95 615.781 3445.95L568.189 3423.58L568.224 3423.58Z" fill="white"/>
<path d="M632.514 3460.81C604.872 3459.53 579.424 3437.7 564.368 3421.69C571.124 3412.11 582.38 3393.96 582.77 3378.93C582.77 3378.93 629.204 3380.72 664.614 3425.51C664.614 3425.51 640.183 3447.03 632.514 3460.81Z" fill="white"/>
<path d="M604.609 3458.56C604.609 3458.56 610.32 3435.61 610.394 3428.81L634.464 3432.52C634.464 3432.52 632.467 3451.23 623.399 3462.49L604.592 3458.54L604.609 3458.56Z" fill="#FF377A"/>
<path d="M630.795 3468.53C630.795 3468.53 590.211 3465.11 560.015 3427.93C560.015 3427.93 562.036 3425.46 564.855 3421.39C579.994 3437.44 605.501 3459.39 632.866 3461.06C631.259 3464 630.445 3466.57 630.795 3468.53Z" fill="#05038B"/>
<path d="M586.894 3385.73C598.351 3398.8 628.581 3425.12 657.841 3425.83" stroke="#05038B" stroke-width="2" stroke-linecap="round"/>
<path d="M100.649 3522.32C100.649 3522.32 93.9566 3540.41 95.1416 3544.13C96.3266 3547.85 109.687 3556.65 113.237 3552.25C116.787 3547.85 113.237 3542.1 113.237 3542.1C113.237 3542.1 118.053 3547.51 119.96 3545.99C121.867 3544.47 114.422 3531.79 114.422 3531.79L100.649 3522.32Z" fill="white"/>
<path d="M226.896 3368.25C226.896 3368.25 230.955 3322.17 222.838 3305.13C222.838 3305.13 222.161 3261.19 229.093 3243.44C229.093 3243.44 252.6 3227.71 248.373 3217.56C244.147 3207.41 236.025 3222.13 232.984 3222.64C229.943 3223.14 216.242 3222.13 217.254 3237.86C217.254 3237.86 181.74 3287.83 178.694 3293.04C178.694 3293.04 169.9 3293.55 160.09 3296.15C160.09 3296.15 158.381 3289.61 149.003 3280.98C149.003 3280.98 149.756 3243.94 149.003 3239.38C148.25 3234.81 135.566 3216.54 128.467 3221.1C121.367 3225.67 131.513 3242.92 131.513 3242.92C131.513 3242.92 111.363 3292.74 107.483 3307.16C103.602 3321.57 90.9186 3376.92 154.846 3444.12L229.093 3428.12L226.896 3368.25Z" fill="#FF377A"/>
<path d="M310.098 3359.79C310.098 3359.79 313.312 3350.32 315 3346.93C316.689 3343.55 328.193 3329.35 319.227 3348.12C319.227 3348.12 329.205 3336.94 330.558 3338.6C331.911 3340.27 323.453 3351.51 323.453 3351.51C323.453 3351.51 335.801 3338.54 337.83 3340.54C339.86 3342.54 328.193 3355.4 328.193 3355.4C328.193 3355.4 341.217 3348.46 342.57 3351.17C343.923 3353.88 328.025 3363.85 328.025 3363.85C328.025 3363.85 336.483 3367.4 336.65 3369.27C336.818 3371.13 313.144 3369.27 313.144 3369.27L310.098 3359.8V3359.79Z" fill="white"/>
<path d="M265.641 3377.36C265.641 3377.36 296.308 3359.27 311.529 3355.68C311.529 3355.68 319.224 3356.27 316.183 3369.61C316.183 3369.61 280.16 3394.88 276.61 3398.56L265.646 3377.36H265.641Z" fill="#05038B"/>
<path d="M116.019 3467.91C116.019 3467.91 102.903 3502.16 99.3534 3526.02C99.3534 3526.02 106.621 3536.62 116.019 3533.86C116.019 3533.86 134.547 3492.55 139.877 3486.46L116.019 3467.91Z" fill="#05038B"/>
<path d="M147.241 3426.02C147.241 3426.02 121.874 3433.22 115.277 3471.76C115.277 3471.76 113.747 3494.58 139.882 3495.08C139.882 3495.08 161.451 3487.98 182.76 3465.66L147.246 3426.02H147.241Z" fill="#FF377A"/>
<path d="M229.072 3381.04C229.072 3381.04 246.155 3371.77 271.523 3375.33C271.523 3375.33 281.16 3384.47 281.669 3395.63C281.669 3395.63 260.36 3438.3 242.6 3444.11L229.072 3381.04Z" fill="#FF377A"/>
<path d="M160.073 3395.8C160.073 3395.8 169.543 3385.85 174.278 3385.58C179.013 3385.32 184.765 3390.39 190.176 3381.93C195.587 3373.48 197.957 3375.17 200.663 3376.18C203.368 3377.19 201.68 3380.92 221.972 3378.55C242.264 3376.19 238.206 3385.58 238.206 3385.58C238.206 3385.58 243.617 3386.33 246.663 3390.73C249.71 3395.13 253.092 3399.36 252.415 3402.32C251.739 3405.28 247.34 3409.68 254.785 3413.39C262.231 3417.11 260.197 3425.57 257.491 3428.27C254.785 3430.98 253.946 3435.71 259.947 3438.42C265.949 3441.13 267.978 3449.92 262.226 3453.3C256.474 3456.68 257.15 3460.06 258.503 3462.77C259.856 3465.48 260.532 3471.23 253.768 3471.9C247.004 3472.58 247.681 3478.33 246.663 3482.39C245.646 3486.45 239.899 3487.8 233.471 3485.1C227.043 3482.39 226.366 3498.63 222.308 3498.63C218.249 3498.63 212.162 3486.79 202.692 3496.93C193.222 3507.08 191.529 3501.67 189.164 3495.24C186.799 3488.81 182.059 3487.46 177.324 3490.16C172.589 3492.87 167.178 3496.93 167.178 3483.06C167.178 3469.19 160.414 3473.59 157.709 3475.28C155.003 3476.96 149.592 3474.6 151.621 3469.87C153.65 3465.13 152.297 3459.38 145.533 3459.04C138.769 3458.71 132.682 3450.93 141.475 3444.84C150.268 3438.75 149.256 3438.75 144.521 3435.54C139.786 3432.32 134.375 3415.75 153.314 3416.76L160.078 3395.79L160.073 3395.8Z" fill="#FF8F9C"/>
<path d="M204.233 3478.68C228.61 3478.68 248.372 3459.37 248.372 3435.55C248.372 3411.73 228.61 3392.42 204.233 3392.42C179.855 3392.42 160.094 3411.73 160.094 3435.55C160.094 3459.37 179.855 3478.68 204.233 3478.68Z" fill="white"/>
<path d="M227.057 3411.03C227.057 3411.03 252.424 3369.09 258.176 3350.15C263.928 3331.21 276.439 3292.31 246.001 3326.47C215.563 3360.63 215.222 3388.37 214.881 3404.6L227.057 3411.03Z" fill="white"/>
<path d="M164.485 3430.66C164.485 3430.66 146.222 3419.83 130.66 3397.85C115.097 3375.86 104.275 3343.39 108.333 3340.68C112.392 3337.98 172.938 3374.51 172.261 3417.8L164.48 3430.66H164.485Z" fill="white"/>
<path d="M178.712 3341.82C186.694 3341.82 193.166 3335.35 193.166 3327.37C193.166 3319.38 186.694 3312.91 178.712 3312.91C170.729 3312.91 164.258 3319.38 164.258 3327.37C164.258 3335.35 170.729 3341.82 178.712 3341.82Z" fill="white"/>
<path d="M197.113 3468.79C199.027 3468.07 199.766 3465.34 198.763 3462.7C197.761 3460.06 195.397 3458.51 193.482 3459.24C191.568 3459.97 190.829 3462.69 191.832 3465.33C192.834 3467.97 195.198 3469.52 197.113 3468.79Z" fill="#05038B"/>
<path d="M236.939 3453.66C238.853 3452.94 239.592 3450.21 238.59 3447.57C237.587 3444.93 235.223 3443.38 233.309 3444.11C231.395 3444.84 230.656 3447.56 231.658 3450.2C232.66 3452.84 235.025 3454.39 236.939 3453.66Z" fill="#05038B"/>
<path d="M225.861 3475.41C228.928 3474 230.916 3471.78 230.302 3470.44C229.689 3469.11 226.706 3469.18 223.639 3470.59C220.573 3472 218.585 3474.23 219.198 3475.56C219.812 3476.89 222.795 3476.83 225.861 3475.41Z" fill="#05038B"/>
<path d="M222.233 3412.37C222.233 3412.37 230.69 3346.42 261.128 3325.44C261.128 3325.44 245.571 3383.96 222.233 3412.37Z" fill="#05038B"/>
<path d="M114.613 3355.68C114.613 3355.68 152.832 3383.62 172.789 3428.95C172.789 3428.95 127.124 3400.45 114.613 3355.68Z" fill="#05038B"/>
<path d="M148.966 3301.03C148.966 3301.03 172.757 3288.85 189.342 3295.61" stroke="white" stroke-width="2" stroke-linecap="round" stroke-linejoin="round"/>
<path d="M131.874 3278.77C131.874 3278.77 139.314 3283.84 146.078 3281.14" stroke="white" stroke-width="2" stroke-linecap="round" stroke-linejoin="round"/>
<path d="M128.583 3221.95C128.583 3221.95 126.213 3226.1 130.78 3232.02C135.347 3237.94 141.18 3242.59 147.268 3238.87" stroke="white" stroke-width="2" stroke-linecap="round" stroke-linejoin="round"/>
<path d="M219.713 3231.07C219.713 3231.07 233.918 3232.55 237.752 3228.94C241.587 3225.33 247.044 3218.63 245.869 3216.31" stroke="white" stroke-width="2" stroke-linecap="round" stroke-linejoin="round"/>
<path d="M79.9601 2155.89C81.1555 2155.89 82.1246 2144.93 82.1246 2131.4C82.1246 2117.87 81.1555 2106.91 79.9601 2106.91C78.7646 2106.91 77.7955 2117.87 77.7955 2131.4C77.7955 2144.93 78.7646 2155.89 79.9601 2155.89Z" fill="#FF377A"/>
<path d="M117.881 2147.84C118.973 2147.35 115.398 2136.94 109.897 2124.58C104.395 2112.22 99.05 2102.6 97.9579 2103.09C96.8658 2103.57 100.44 2113.98 105.942 2126.34C111.444 2138.7 116.789 2148.32 117.881 2147.84Z" fill="#FF377A"/>
<path d="M149.241 2125.04C150.041 2124.15 142.541 2116.1 132.489 2107.05C122.437 2097.99 113.64 2091.38 112.84 2092.27C112.04 2093.15 119.54 2101.21 129.592 2110.26C139.644 2119.31 148.441 2125.93 149.241 2125.04Z" fill="#FF377A"/>
<path d="M168.632 2091.46C169.001 2090.32 158.872 2086.01 146.008 2081.83C133.144 2077.65 122.416 2075.19 122.047 2076.32C121.677 2077.46 131.806 2081.77 144.67 2085.95C157.535 2090.13 168.263 2092.6 168.632 2091.46Z" fill="#FF377A"/>
<path d="M148.557 2057.62C162.01 2056.21 172.813 2054.1 172.688 2052.91C172.563 2051.72 161.557 2051.9 148.105 2053.31C134.653 2054.73 123.849 2056.84 123.974 2058.03C124.099 2059.22 135.105 2059.03 148.557 2057.62Z" fill="#FF377A"/>
<path d="M140.574 2030.16C152.289 2023.39 161.3 2017.07 160.702 2016.04C160.105 2015 150.124 2019.64 138.41 2026.41C126.696 2033.17 117.684 2039.49 118.282 2040.53C118.88 2041.56 128.86 2036.92 140.574 2030.16Z" fill="#FF377A"/>
<path d="M122.125 2008.31C130.076 1997.37 135.737 1987.93 134.77 1987.22C133.803 1986.52 126.573 1994.82 118.623 2005.77C110.672 2016.71 105.011 2026.15 105.978 2026.85C106.945 2027.56 114.175 2019.25 122.125 2008.31Z" fill="#FF377A"/>
<path d="M96.3618 1995.86C99.1741 1982.63 100.506 1971.7 99.3366 1971.45C98.1673 1971.2 94.9396 1981.73 92.1273 1994.96C89.3151 2008.19 87.9832 2019.11 89.1525 2019.36C90.3218 2019.61 93.5496 2009.09 96.3618 1995.86Z" fill="#FF377A"/>
<path d="M70.7545 2019.37C71.9238 2019.12 70.5919 2008.19 67.7797 1994.96C64.9674 1981.73 61.7397 1971.21 60.5704 1971.46C59.401 1971.7 60.7329 1982.63 63.5452 1995.86C66.3574 2009.09 69.5852 2019.62 70.7545 2019.37Z" fill="#FF377A"/>
<path d="M53.9408 2026.85C54.9079 2026.15 49.2467 2016.71 41.2962 2005.76C33.3457 1994.82 26.1165 1986.52 25.1493 1987.22C24.1822 1987.93 29.8434 1997.37 37.7939 2008.31C45.7444 2019.25 52.9736 2027.55 53.9408 2026.85Z" fill="#FF377A"/>
<path d="M41.627 2040.53C42.2247 2039.49 33.2131 2033.17 21.499 2026.41C9.78496 2019.64 -0.195736 2015 -0.793459 2016.03C-1.39118 2017.07 7.62041 2023.39 19.3345 2030.15C31.0486 2036.92 41.0293 2041.56 41.627 2040.53Z" fill="#FF377A"/>
<path d="M35.9418 2058.03C36.0668 2056.84 25.2629 2054.73 11.8108 2053.32C-1.64138 2051.9 -12.6478 2051.72 -12.7728 2052.91C-12.8977 2054.1 -2.0939 2056.21 11.3583 2057.62C24.8104 2059.04 35.8168 2059.22 35.9418 2058.03Z" fill="#FF377A"/>
<path d="M15.248 2085.96C28.1122 2081.78 38.2412 2077.47 37.8718 2076.33C37.5024 2075.2 26.7744 2077.66 13.9102 2081.84C1.04595 2086.02 -9.0831 2090.33 -8.71369 2091.47C-8.34427 2092.61 2.38372 2090.14 15.248 2085.96Z" fill="#FF377A"/>
<path d="M30.3038 2110.27C40.3558 2101.22 47.8561 2093.16 47.0562 2092.27C46.2563 2091.38 37.4591 2098 27.4071 2107.05C17.3551 2116.1 9.85488 2124.16 10.6548 2125.05C11.4547 2125.94 20.2519 2119.32 30.3038 2110.27Z" fill="#FF377A"/>
<path d="M53.9654 2126.35C59.467 2113.99 63.0416 2103.58 61.9495 2103.09C60.8574 2102.61 55.5121 2112.23 50.0105 2124.59C44.5089 2136.94 40.9343 2147.35 42.0264 2147.84C43.1185 2148.33 48.4637 2138.7 53.9654 2126.35Z" fill="#FF377A"/>
<path d="M503.547 3369.21C504.569 3369.21 505.399 3359.82 505.399 3348.25C505.399 3336.68 504.569 3327.29 503.547 3327.29C502.524 3327.29 501.694 3336.68 501.694 3348.25C501.694 3359.82 502.524 3369.21 503.547 3369.21Z" fill="#FF377A"/>
<path d="M535.989 3362.31C536.923 3361.89 533.865 3352.99 529.157 3342.41C524.449 3331.84 519.876 3323.6 518.941 3324.02C518.007 3324.44 521.065 3333.35 525.773 3343.92C530.481 3354.49 535.055 3362.73 535.989 3362.31Z" fill="#FF377A"/>
<path d="M562.827 3342.81C563.512 3342.05 557.094 3335.15 548.493 3327.41C539.891 3319.67 532.364 3314 531.679 3314.76C530.995 3315.52 537.413 3322.42 546.014 3330.16C554.615 3337.91 562.143 3343.57 562.827 3342.81Z" fill="#FF377A"/>
<path d="M579.418 3314.07C579.734 3313.1 571.067 3309.41 560.059 3305.84C549.052 3302.26 539.872 3300.15 539.556 3301.12C539.24 3302.1 547.907 3305.78 558.915 3309.36C569.922 3312.94 579.102 3315.05 579.418 3314.07Z" fill="#FF377A"/>
<path d="M562.246 3285.12C573.757 3283.91 583.002 3282.1 582.895 3281.08C582.788 3280.07 573.37 3280.22 561.859 3281.43C550.348 3282.64 541.103 3284.45 541.21 3285.47C541.317 3286.48 550.735 3286.33 562.246 3285.12Z" fill="#FF377A"/>
<path d="M555.409 3261.61C565.433 3255.83 573.144 3250.42 572.632 3249.53C572.121 3248.65 563.581 3252.62 553.557 3258.41C543.534 3264.19 535.823 3269.6 536.334 3270.49C536.845 3271.37 545.386 3267.4 555.409 3261.61Z" fill="#FF377A"/>
<path d="M539.625 3242.92C546.428 3233.56 551.273 3225.48 550.445 3224.88C549.617 3224.28 543.432 3231.38 536.628 3240.75C529.825 3250.11 524.981 3258.19 525.809 3258.79C526.636 3259.39 532.822 3252.29 539.625 3242.92Z" fill="#FF377A"/>
<path d="M517.577 3232.27C519.984 3220.95 521.124 3211.6 520.123 3211.39C519.122 3211.17 516.361 3220.18 513.954 3231.5C511.548 3242.82 510.408 3252.17 511.409 3252.38C512.409 3252.6 515.171 3243.59 517.577 3232.27Z" fill="#FF377A"/>
<path d="M495.664 3252.39C496.665 3252.17 495.525 3242.82 493.119 3231.5C490.712 3220.18 487.95 3211.18 486.95 3211.39C485.949 3211.6 487.089 3220.95 489.495 3232.27C491.902 3243.59 494.664 3252.6 495.664 3252.39Z" fill="#FF377A"/>
<path d="M481.285 3258.79C482.113 3258.19 477.269 3250.11 470.465 3240.74C463.662 3231.38 457.476 3224.28 456.649 3224.88C455.821 3225.48 460.665 3233.56 467.469 3242.92C474.272 3252.28 480.458 3259.39 481.285 3258.79Z" fill="#FF377A"/>
<path d="M470.741 3270.49C471.252 3269.6 463.541 3264.19 453.517 3258.41C443.494 3252.62 434.954 3248.65 434.442 3249.53C433.931 3250.42 441.642 3255.83 451.665 3261.61C461.689 3267.4 470.229 3271.38 470.741 3270.49Z" fill="#FF377A"/>
<path d="M465.879 3285.47C465.986 3284.45 456.741 3282.64 445.23 3281.43C433.72 3280.22 424.302 3280.07 424.195 3281.08C424.088 3282.1 433.332 3283.91 444.843 3285.12C456.354 3286.33 465.772 3286.48 465.879 3285.47Z" fill="#FF377A"/>
<path d="M448.172 3309.37C459.179 3305.79 467.847 3302.11 467.531 3301.13C467.215 3300.16 458.035 3302.27 447.027 3305.85C436.019 3309.42 427.352 3313.11 427.668 3314.09C427.984 3315.06 437.164 3312.95 448.172 3309.37Z" fill="#FF377A"/>
<path d="M461.054 3330.17C469.655 3322.43 476.073 3315.53 475.389 3314.77C474.704 3314.01 467.176 3319.67 458.575 3327.42C449.974 3335.16 443.556 3342.06 444.241 3342.82C444.925 3343.58 452.453 3337.91 461.054 3330.17Z" fill="#FF377A"/>
<path d="M481.301 3343.92C486.009 3333.35 489.067 3324.44 488.133 3324.03C487.198 3323.61 482.625 3331.84 477.917 3342.42C473.209 3352.99 470.151 3361.9 471.085 3362.32C472.02 3362.73 476.593 3354.5 481.301 3343.92Z" fill="#FF377A"/>
</g>
<path d="M38.0514 -34.7992C38.0514 -34.7992 50.9917 -16.0349 62.6059 -11.2993L47.5827 -1.26682C47.5827 -1.26682 36.8071 -8.10752 33.5979 -17.8537L38.0472 -34.8113L38.0514 -34.7992Z" fill="white"/>
<path d="M75.0975 -0.964222C75.0975 -0.964222 52.3177 -11.056 45.266 -18.8795L39.4336 -1.32665C39.4336 -1.32665 59.4627 13.135 68.759 16.4264L75.0854 -0.959959L75.0975 -0.964222Z" fill="white"/>
<path d="M138.688 9.26815C138.688 9.26815 145.623 20.6305 174.631 27.1849L154.444 43.7829C154.444 43.7829 125.041 37.3811 116.934 16.9174L138.688 9.26815Z" fill="#FF377A"/>
<path d="M200.32 50.7265C200.32 50.7265 224.4 73.4952 224.462 77.5428C224.462 77.5428 205.968 77.7033 187.868 86.109L176.68 54.289C176.68 54.289 190.844 48.8593 200.32 50.7265Z" fill="white"/>
<path d="M239.616 33.7428C239.616 33.7428 244.795 52.963 242.321 58.8145C242.321 58.8145 276.377 64.9412 302.251 52.9038C302.251 52.9038 304.648 34.6397 296.54 17.3475C296.54 17.3475 255.235 35.0424 239.616 33.7428Z" fill="#FF377A"/>
<path d="M393.519 44.7906C393.519 44.7906 421.643 51.4245 462.856 36.0214L480.93 79.6837C480.93 79.6837 425.535 86.2593 409.74 81.8642L393.531 44.7863L393.519 44.7906Z" fill="white"/>
<path d="M197.526 56.3522L197.884 55.9487C199.157 54.5199 199.996 53.5749 199.801 52.6927C199.64 51.9697 198.803 51.5636 197.897 51.7646C197.385 51.8781 196.936 52.1767 196.681 52.545C196.295 52.3189 195.419 52.1177 194.907 52.2312C194.001 52.4322 193.414 53.1541 193.575 53.8771C193.77 54.7593 194.931 55.2606 196.688 56.0173L197.526 56.3522Z" fill="#FF377A"/>
<path d="M194.778 75.3867L195.375 74.6067C197.5 71.844 198.903 70.0171 198.432 68.4398C198.045 67.147 196.472 66.5187 194.852 67.0024C193.937 67.2757 193.159 67.8769 192.745 68.5795C192.013 68.2193 190.395 67.9683 189.48 68.2415C187.86 68.7253 186.888 70.1137 187.274 71.4065C187.745 72.9839 189.92 73.7427 193.212 74.8878L194.778 75.3867Z" fill="#FF377A"/>
<path d="M423.355 61.4203C428.884 56.9694 431.395 53.0989 437.635 51.5912C440.131 50.9882 443.101 52.3472 443.575 54.3092C443.812 55.2903 444.049 56.2713 443.038 57.5539C443.038 57.5539 445.61 57.2647 448.804 54.0841L450.227 59.9704C446.008 58.9129 443.512 59.516 443.512 59.516C444.997 60.1955 445.234 61.1765 445.471 62.1576C445.945 64.1196 443.923 66.6848 441.427 67.2879C435.187 68.7956 430.306 62.8557 423.355 61.4203Z" fill="#3645FF"/>
<path d="M50.3143 -1.7325C52.5881 -1.6126 53.9718 -1.96358 55.8705 -1.05758C56.63 -0.69518 57.1395 0.191288 56.8894 0.715356C56.7644 0.97739 56.6393 1.23942 56.1346 1.32026C56.1346 1.32026 56.854 1.76651 58.2834 1.70219L57.5332 3.27439C56.644 2.20673 55.8845 1.84433 55.8845 1.84433C56.1392 2.28756 56.0142 2.54959 55.8892 2.81163C55.6391 3.3357 54.6295 3.49736 53.87 3.13496C51.9713 2.22896 51.8379 -0.0403947 50.3143 -1.7325Z" fill="#3645FF"/>
<path d="M660.699 219.015C660.781 222.518 660.479 226.171 659.93 229.824C659.394 233.382 658.625 236.939 657.705 240.372C655.068 250.44 651.277 259.518 648.956 264.531C648.599 265.3 648.283 265.987 647.995 266.55H617.202C617.202 266.55 615.087 261.839 612.711 254.78C612.107 253.008 611.489 251.072 610.885 249.039C608.687 241.718 606.654 232.942 606.132 224.523C605.734 218.205 606.201 212.066 608.069 206.847C610.266 200.749 614.428 195.928 621.446 193.579C622.147 193.346 622.861 193.126 623.616 192.948C626.157 192.33 629.014 192 632.241 192C632.626 192 633.011 192 633.395 192.027C633.89 192.027 634.384 192.041 634.865 192.069C640.029 192.316 644.245 193.346 647.679 194.994C650.453 196.299 652.719 198.016 654.519 200.062C658.845 204.965 660.575 211.681 660.699 219.015Z" fill="#8555F8"/>
<path d="M621.202 287.151H645.512L642.971 302.89H624.677L621.202 287.151Z" fill="#60B860"/>
<path d="M631.765 266.55H617.193C617.193 266.55 615.078 261.839 612.702 254.78C612.098 253.008 611.48 251.072 610.875 249.039C609.749 232.338 610.848 210.019 621.437 193.579C622.138 193.346 622.852 193.126 623.607 192.948C626.148 192.33 629.005 192 632.232 192C632.617 192 633.002 192 633.386 192.027C629.279 203.578 618.924 238.477 631.765 266.55Z" fill="#3EBBC3"/>
<path d="M631.765 266.55H617.193C617.193 266.55 615.078 261.839 612.702 254.78C612.098 253.008 611.48 251.072 610.875 249.039C609.749 232.338 610.848 210.019 621.437 193.579C622.138 193.346 622.852 193.126 623.607 192.948C626.148 192.33 629.005 192 632.232 192C632.617 192 633.002 192 633.386 192.027C629.279 203.578 618.924 238.477 631.765 266.55Z" fill="#FDBD1F"/>
<path d="M657.703 240.369C655.066 250.436 651.275 259.514 648.954 264.527C648.597 265.297 648.281 265.983 647.992 266.546H636.469C649.297 238.515 638.983 203.657 634.862 192.065C640.026 192.312 644.243 193.342 647.677 194.99C655.78 208.519 657.867 225.659 657.703 240.369Z" fill="#FDBD1F"/>
</g>
<defs>
<linearGradient id="paint0_linear_36_3373" x1="375" y1="0" x2="375" y2="5685" gradientUnits="userSpaceOnUse">
<stop stop-color="#05038B"/>
<stop offset="1" stop-color="#5939A3"/>
</linearGradient>
<clipPath id="clip0_36_3373">
<rect width="750" height="3679" fill="white"/>
</clipPath>
<clipPath id="clip1_36_3373">
<rect width="750" height="5685" fill="white" transform="translate(0.000976562 -9)"/>
</clipPath>
</defs>
</svg>
