<svg width="750" height="2223" viewBox="0 0 750 2223" fill="none" xmlns="http://www.w3.org/2000/svg">
<g clip-path="url(#clip0_62_641)">
<rect width="750" height="2223" fill="white"/>
<g clip-path="url(#clip1_62_641)">
<rect width="750" height="4415" transform="translate(0 -1)" fill="url(#paint0_linear_62_641)"/>
<circle cx="316.5" cy="53.5" r="1.5" fill="#FFA2D1"/>
<circle cx="264" cy="142" r="2" fill="#FFA2D1"/>
<circle cx="340.5" cy="222.5" r="1.5" fill="#FFA2D1"/>
<circle cx="500" cy="178" r="2" fill="#FFA2D1"/>
<circle cx="613" cy="392" r="2" fill="#FFA2D1"/>
<circle cx="518" cy="1017" r="2" fill="#FFA2D1"/>
<circle cx="351" cy="1305" r="2" fill="#FFA2D1"/>
<circle cx="550" cy="1318" r="2" fill="#FFA2D1"/>
<circle cx="647" cy="304" r="2" fill="#FFA2D1"/>
<circle cx="290" cy="259" r="2" fill="#FFA2D1"/>
<circle cx="111" cy="158" r="2" fill="#FFA2D1"/>
<circle cx="462.5" cy="99.5" r="1.5" fill="#FFA2D1"/>
<circle cx="240" cy="581" r="2" fill="#FFA2D1"/>
<circle cx="552.5" cy="447.5" r="1.5" fill="#FFA2D1"/>
<circle cx="686.5" cy="386.5" r="1.5" fill="#FFA2D1"/>
<circle cx="195.5" cy="1413.5" r="1.5" fill="#FFA2D1"/>
<circle cx="209" cy="644" r="2" fill="#FFA2D1"/>
<circle cx="195.5" cy="795.5" r="1.5" fill="#FFA2D1"/>
<circle cx="140.5" cy="959.5" r="1.5" fill="#FFA2D1"/>
<circle cx="281.5" cy="1045.5" r="1.5" fill="#FFA2D1"/>
<circle cx="646.5" cy="898.5" r="1.5" fill="#FFA2D1"/>
<circle cx="159.5" cy="1274.5" r="1.5" fill="#FFA2D1"/>
<circle cx="19.5" cy="1089.5" r="1.5" fill="#FFA2D1"/>
<circle cx="259" cy="1414" r="2" fill="#FFA2D1"/>
<circle cx="606.5" cy="1430.5" r="1.5" fill="#FFA2D1"/>
<circle cx="314.5" cy="1382.5" r="1.5" fill="#FFA2D1"/>
<circle cx="28" cy="788" r="2" fill="#FFA2D1"/>
<circle cx="306.5" cy="614.5" r="1.5" fill="#FFA2D1"/>
<circle cx="604.5" cy="103.5" r="1.5" fill="#FFA2D1"/>
<circle cx="730.5" cy="169.5" r="1.5" fill="#FFA2D1"/>
<circle cx="198.5" cy="85.5" r="1.5" fill="#FFA2D1"/>
<circle cx="316.5" cy="1496.5" r="1.5" fill="#FFA2D1"/>
<circle cx="264" cy="1585" r="2" fill="#FFA2D1"/>
<circle cx="340.5" cy="1665.5" r="1.5" fill="#FFA2D1"/>
<circle cx="500" cy="1621" r="2" fill="#FFA2D1"/>
<circle cx="613" cy="1835" r="2" fill="#FFA2D1"/>
<circle cx="647" cy="1747" r="2" fill="#FFA2D1"/>
<circle cx="290" cy="1702" r="2" fill="#FFA2D1"/>
<circle cx="111" cy="1601" r="2" fill="#FFA2D1"/>
<circle cx="462.5" cy="1542.5" r="1.5" fill="#FFA2D1"/>
<circle cx="240" cy="2024" r="2" fill="#FFA2D1"/>
<circle cx="552.5" cy="1890.5" r="1.5" fill="#FFA2D1"/>
<circle cx="686.5" cy="1829.5" r="1.5" fill="#FFA2D1"/>
<circle cx="209" cy="2087" r="2" fill="#FFA2D1"/>
<circle cx="306.5" cy="2057.5" r="1.5" fill="#FFA2D1"/>
<circle cx="604.5" cy="1546.5" r="1.5" fill="#FFA2D1"/>
<circle cx="730.5" cy="1612.5" r="1.5" fill="#FFA2D1"/>
<circle cx="198.5" cy="1528.5" r="1.5" fill="#FFA2D1"/>
<path d="M377.706 2247.38C350.286 2294.87 326.111 2253 380.952 2253C326.116 2253 350.291 2211.13 377.706 2258.62C350.286 2211.13 398.635 2211.13 371.22 2258.62C398.64 2211.13 422.814 2253 367.974 2253C422.81 2253 398.635 2294.87 371.22 2247.38C398.64 2294.87 350.291 2294.87 377.706 2247.38Z" fill="white"/>
<path d="M128.373 2004.6C134.402 2004.6 139.295 2009.5 139.295 2015.53V2081.02H117.451V2015.53C117.451 2009.5 122.343 2004.6 128.373 2004.6Z" fill="#6B45A8"/>
<path d="M101.478 2004.6C107.508 2004.6 112.4 2009.5 112.4 2015.53V2081.02H90.5562V2015.53C90.5562 2009.5 95.4487 2004.6 101.478 2004.6Z" fill="#6B45A8"/>
<path d="M155.26 2004.6C161.29 2004.6 166.182 2009.5 166.182 2015.53V2081.02H144.338V2015.53C144.338 2009.5 149.231 2004.6 155.26 2004.6Z" fill="#6B45A8"/>
<circle opacity="0.5" cx="88.736" cy="151.868" r="30.0292" fill="#FDBD1F"/>
<circle cx="88.7358" cy="151.868" r="15.2607" fill="#FDBD1F"/>
<path d="M135.94 86.7739V194.858H131.688V121.792C131.688 118.429 130.322 115.388 128.118 113.184C125.914 110.98 122.867 109.614 119.504 109.614C112.778 109.614 107.321 115.066 107.321 121.792V194.858H101.685V121.792C101.685 118.429 100.325 115.388 98.1156 113.184C95.9119 110.98 92.8646 109.614 89.5017 109.614C82.7758 109.614 77.324 115.066 77.324 121.792V194.858H71.6827V121.792C71.6827 118.429 70.3226 115.388 68.1189 113.184C65.9152 110.98 62.8679 109.614 59.505 109.614C52.7734 109.614 47.3215 115.066 47.3215 121.792V194.858H43.0691V86.7739H135.94Z" fill="#070142"/>
<path d="M72.3542 42.3687H106.661C122.821 42.3687 135.94 55.4875 135.94 71.648V80.6464H43.0691V71.648C43.0691 55.4875 56.188 42.3687 72.3484 42.3687H72.3542Z" fill="#070142"/>
<path d="M110.185 220.056H68.814C58.289 220.056 49.744 211.511 49.744 200.986H129.249C129.249 211.511 120.704 220.056 110.179 220.056H110.185Z" fill="#070142"/>
<path d="M135.97 80.6821H43.0301C41.3566 80.6821 40 82.0387 40 83.7122C40 85.3857 41.3566 86.7423 43.0301 86.7423H135.97C137.643 86.7423 139 85.3857 139 83.7122C139 82.0387 137.643 80.6821 135.97 80.6821Z" fill="#070142"/>
<path d="M135.97 194.896H43.0301C41.3566 194.896 40 196.252 40 197.926C40 199.599 41.3566 200.956 43.0301 200.956H135.97C137.643 200.956 139 199.599 139 197.926C139 196.252 137.643 194.896 135.97 194.896Z" fill="#070142"/>
<path d="M89.5034 50.7573C94.1371 50.7573 97.8935 47.0009 97.8935 42.3672C97.8935 37.7334 94.1371 33.9771 89.5034 33.9771C84.8697 33.9771 81.1133 37.7334 81.1133 42.3672C81.1133 47.0009 84.8697 50.7573 89.5034 50.7573Z" fill="#070142"/>
<path d="M89.5035 226.491C93.5128 226.491 96.7631 223.241 96.7631 219.231C96.7631 215.222 93.5128 211.972 89.5035 211.972C85.4941 211.972 82.2439 215.222 82.2439 219.231C82.2439 223.241 85.4941 226.491 89.5035 226.491Z" fill="#070142"/>
<path d="M91.2003 19.6554C90.6551 19.5235 90.0813 19.4546 89.4959 19.4546C88.9106 19.4546 88.3367 19.5235 87.7915 19.6612C84.6065 20.4244 82.2363 23.2938 82.2363 26.7142C82.2363 30.7256 85.4902 33.9795 89.4959 33.9795C93.5016 33.9795 96.7612 30.7256 96.7612 26.7142C96.7612 23.2938 94.3911 20.4244 91.2003 19.6554ZM89.4959 30.2148C87.5677 30.2148 86.001 28.6481 86.001 26.7142C86.001 25.4057 86.7241 24.2637 87.7915 23.6669V24.0227C87.7915 24.9696 88.5547 25.7328 89.4959 25.7328C90.4371 25.7328 91.2003 24.9696 91.2003 24.0227V23.6669C92.2735 24.258 92.9966 25.4057 92.9966 26.7142C92.9966 28.6481 91.4299 30.2148 89.4959 30.2148Z" fill="#070142"/>
<path d="M91.1986 23.6674V24.0232C91.1986 24.9701 90.4354 25.7333 89.4942 25.7333C88.5531 25.7333 87.7898 24.9701 87.7898 24.0232V23.6674C88.2948 23.3804 88.8744 23.2197 89.4942 23.2197C90.114 23.2197 90.6936 23.3804 91.1986 23.6674Z" fill="#070142"/>
<path d="M93.6561 222.641L89.5012 221.275L85.3463 222.641L82.8901 228.776L88.7437 243.513C89.0134 244.196 89.9833 244.196 90.253 243.513L96.1066 228.776L93.6504 222.641H93.6561Z" fill="#070142"/>
<path d="M91.1986 -16V24.0224C91.1986 24.9693 90.4354 25.7325 89.4942 25.7325C88.5531 25.7325 87.7898 24.9693 87.7898 24.0224V-16H91.1986Z" fill="#070142"/>
<circle opacity="0.5" cx="232.335" cy="2092.63" r="23.009" fill="#FDBD1F"/>
<circle cx="232.339" cy="2092.63" r="11.6931" fill="#FDBD1F"/>
<path d="M268.512 2042.75V2125.56H265.254V2069.58C265.254 2067 264.207 2064.67 262.519 2062.98C260.83 2061.29 258.495 2060.25 255.919 2060.25C250.765 2060.25 246.584 2064.43 246.584 2069.58V2125.56H242.265V2069.58C242.265 2067 241.223 2064.67 239.53 2062.98C237.842 2061.29 235.507 2060.25 232.93 2060.25C227.777 2060.25 223.599 2064.43 223.599 2069.58V2125.56H219.277V2069.58C219.277 2067 218.235 2064.67 216.546 2062.98C214.858 2061.29 212.523 2060.25 209.946 2060.25C204.788 2060.25 200.611 2064.43 200.611 2069.58V2125.56H197.353V2042.75H268.512Z" fill="#070142"/>
<path d="M219.791 2008.72H246.078C258.46 2008.72 268.512 2018.77 268.512 2031.16V2038.05H197.353V2031.16C197.353 2018.77 207.405 2008.72 219.787 2008.72H219.791Z" fill="#070142"/>
<path d="M248.778 2144.87H217.078C209.014 2144.87 202.467 2138.32 202.467 2130.26H263.385C263.385 2138.32 256.838 2144.87 248.773 2144.87H248.778Z" fill="#070142"/>
<path d="M268.534 2038.08H197.322C196.039 2038.08 195 2039.12 195 2040.4C195 2041.68 196.039 2042.72 197.322 2042.72H268.534C269.816 2042.72 270.856 2041.68 270.856 2040.4C270.856 2039.12 269.816 2038.08 268.534 2038.08Z" fill="#070142"/>
<path d="M268.534 2125.59H197.322C196.039 2125.59 195 2126.63 195 2127.91C195 2129.2 196.039 2130.24 197.322 2130.24H268.534C269.816 2130.24 270.856 2129.2 270.856 2127.91C270.856 2126.63 269.816 2125.59 268.534 2125.59Z" fill="#070142"/>
<path d="M232.927 2015.15C236.478 2015.15 239.356 2012.27 239.356 2008.72C239.356 2005.17 236.478 2002.29 232.927 2002.29C229.377 2002.29 226.499 2005.17 226.499 2008.72C226.499 2012.27 229.377 2015.15 232.927 2015.15Z" fill="#070142"/>
<path d="M232.929 2149.8C236.001 2149.8 238.492 2147.31 238.492 2144.24C238.492 2141.17 236.001 2138.67 232.929 2138.67C229.857 2138.67 227.367 2141.17 227.367 2144.24C227.367 2147.31 229.857 2149.8 232.929 2149.8Z" fill="#070142"/>
<path d="M234.229 1991.32C233.812 1991.22 233.372 1991.17 232.923 1991.17C232.475 1991.17 232.035 1991.22 231.617 1991.32C229.177 1991.91 227.361 1994.11 227.361 1996.73C227.361 1999.8 229.854 2002.29 232.923 2002.29C235.993 2002.29 238.49 1999.8 238.49 1996.73C238.49 1994.11 236.674 1991.91 234.229 1991.32ZM232.923 1999.41C231.446 1999.41 230.245 1998.21 230.245 1996.73C230.245 1995.72 230.799 1994.85 231.617 1994.39V1994.67C231.617 1995.39 232.202 1995.98 232.923 1995.98C233.644 1995.98 234.229 1995.39 234.229 1994.67V1994.39C235.052 1994.85 235.606 1995.72 235.606 1996.73C235.606 1998.21 234.405 1999.41 232.923 1999.41Z" fill="#070142"/>
<path d="M234.229 1994.39V1994.67C234.229 1995.39 233.644 1995.98 232.923 1995.98C232.202 1995.98 231.617 1995.39 231.617 1994.67V1994.39C232.004 1994.17 232.448 1994.05 232.923 1994.05C233.398 1994.05 233.842 1994.17 234.229 1994.39Z" fill="#070142"/>
<path d="M236.113 2146.85L232.929 2145.8L229.746 2146.85L227.864 2151.55L232.349 2162.84C232.556 2163.37 233.299 2163.37 233.505 2162.84L237.991 2151.55L236.109 2146.85H236.113Z" fill="#070142"/>
<path d="M234.227 1964V1994.67C234.227 1995.39 233.642 1995.98 232.921 1995.98C232.2 1995.98 231.615 1995.39 231.615 1994.67V1964H234.227Z" fill="#070142"/>
<circle opacity="0.5" cx="103.34" cy="1968.63" r="23.009" fill="#FDBD1F"/>
<circle cx="103.344" cy="1968.63" r="11.6931" fill="#FDBD1F"/>
<path d="M139.512 1918.75V2001.56H136.254V1945.58C136.254 1943 135.207 1940.67 133.519 1938.98C131.83 1937.3 129.495 1936.25 126.919 1936.25C121.765 1936.25 117.584 1940.43 117.584 1945.58V2001.56H113.265V1945.58C113.265 1943 112.223 1940.67 110.53 1938.98C108.842 1937.3 106.507 1936.25 103.93 1936.25C98.7767 1936.25 94.5994 1940.43 94.5994 1945.58V2001.56H90.2769V1945.58C90.2769 1943 89.2348 1940.67 87.5463 1938.98C85.8578 1937.3 83.5229 1936.25 80.9461 1936.25C75.7882 1936.25 71.6109 1940.43 71.6109 1945.58V2001.56H68.3525V1918.75H139.512Z" fill="#070142"/>
<path d="M90.7914 1884.72H117.078C129.46 1884.72 139.512 1894.78 139.512 1907.16V1914.05H68.3525V1907.16C68.3525 1894.78 78.4045 1884.72 90.787 1884.72H90.7914Z" fill="#070142"/>
<path d="M119.778 2020.87H88.0784C80.014 2020.87 73.4666 2014.32 73.4666 2006.26H134.385C134.385 2014.32 127.838 2020.87 119.773 2020.87H119.778Z" fill="#070142"/>
<path d="M139.534 1914.08H68.3217C67.0395 1914.08 66 1915.12 66 1916.4C66 1917.68 67.0395 1918.72 68.3217 1918.72H139.534C140.816 1918.72 141.856 1917.68 141.856 1916.4C141.856 1915.12 140.816 1914.08 139.534 1914.08Z" fill="#070142"/>
<path d="M139.534 2001.59H68.3217C67.0395 2001.59 66 2002.63 66 2003.91C66 2005.2 67.0395 2006.24 68.3217 2006.24H139.534C140.816 2006.24 141.856 2005.2 141.856 2003.91C141.856 2002.63 140.816 2001.59 139.534 2001.59Z" fill="#070142"/>
<path d="M103.927 1891.15C107.478 1891.15 110.356 1888.27 110.356 1884.72C110.356 1881.17 107.478 1878.29 103.927 1878.29C100.377 1878.29 97.4988 1881.17 97.4988 1884.72C97.4988 1888.27 100.377 1891.15 103.927 1891.15Z" fill="#070142"/>
<path d="M103.929 2025.8C107.001 2025.8 109.492 2023.31 109.492 2020.24C109.492 2017.17 107.001 2014.68 103.929 2014.68C100.857 2014.68 98.3669 2017.17 98.3669 2020.24C98.3669 2023.31 100.857 2025.8 103.929 2025.8Z" fill="#070142"/>
<path d="M105.229 1867.32C104.812 1867.22 104.372 1867.17 103.923 1867.17C103.475 1867.17 103.035 1867.22 102.617 1867.32C100.177 1867.91 98.3608 1870.11 98.3608 1872.73C98.3608 1875.8 100.854 1878.3 103.923 1878.3C106.993 1878.3 109.49 1875.8 109.49 1872.73C109.49 1870.11 107.674 1867.91 105.229 1867.32ZM103.923 1875.41C102.446 1875.41 101.245 1874.21 101.245 1872.73C101.245 1871.73 101.799 1870.85 102.617 1870.39V1870.67C102.617 1871.39 103.202 1871.98 103.923 1871.98C104.644 1871.98 105.229 1871.39 105.229 1870.67V1870.39C106.052 1870.85 106.606 1871.73 106.606 1872.73C106.606 1874.21 105.405 1875.41 103.923 1875.41Z" fill="#070142"/>
<path d="M105.229 1870.39V1870.67C105.229 1871.39 104.644 1871.98 103.923 1871.98C103.202 1871.98 102.617 1871.39 102.617 1870.67V1870.39C103.004 1870.17 103.448 1870.05 103.923 1870.05C104.398 1870.05 104.842 1870.17 105.229 1870.39Z" fill="#070142"/>
<path d="M107.113 2022.85L103.929 2021.8L100.746 2022.85L98.8638 2027.55L103.349 2038.84C103.556 2039.37 104.299 2039.37 104.505 2038.84L108.991 2027.55L107.109 2022.85H107.113Z" fill="#070142"/>
<path d="M105.229 1840V1870.67C105.229 1871.39 104.644 1871.98 103.923 1871.98C103.202 1871.98 102.617 1871.39 102.617 1870.67V1840H105.229Z" fill="#070142"/>
<path d="M762.188 1862.67C762.188 1862.67 772.945 1864.27 777.829 1862.89C777.829 1862.89 786.147 1877.34 792.571 1879.91C792.571 1879.91 753.169 1891.79 719.402 1863.86L747.531 1845.17C747.531 1845.17 753.602 1856.01 762.19 1862.66L762.188 1862.67Z" fill="#FF377A"/>
<path d="M655.032 1888.06C655.032 1888.06 620.882 1900.12 603.443 1911.74L593.478 1958.2C593.478 1958.2 634.121 1924.02 640.855 1920.96C640.855 1920.96 646.648 1902.78 655.032 1888.06Z" fill="white"/>
<path d="M622.981 1965.15C622.981 1965.15 660.68 1947.53 680.451 1950.4C680.451 1950.4 665.819 2006.26 678.057 2040.67L628.564 2056.19C628.564 2056.19 594.095 2030.42 622.99 1965.15L622.981 1965.15Z" fill="white"/>
<path d="M560.218 2042.12C560.218 2042.12 606.675 2035.66 641.063 2043.7L605.024 2169.38C605.024 2169.38 542.084 2163.31 508.999 2169.38C508.999 2169.38 534.392 2079.36 560.225 2042.13L560.218 2042.12Z" fill="#FF377A"/>
<path d="M639.216 2004.55L638.142 2003.46C634.33 1999.59 631.813 1997.03 631.575 1993.71C631.38 1990.99 632.88 1988.74 634.984 1988.59C636.173 1988.51 637.364 1989.14 638.189 1990.21C638.853 1989.03 640.592 1987.48 641.78 1987.4C643.884 1987.25 645.689 1989.25 645.884 1991.98C646.122 1995.3 643.994 1998.19 640.772 2002.56L639.216 2004.55Z" fill="#FF377A"/>
<path d="M627.227 1907.66L619.037 1915.83L615.17 1913.22L623.361 1905.05" fill="#3645FF"/>
<path d="M621.781 1922.09L613.59 1930.26L609.723 1927.64L617.914 1919.47" fill="#3645FF"/>
</g>
<path d="M205.279 -39.6623C205.279 -39.6623 170.135 -43.3477 155.063 -35.5598C155.063 -35.5598 182.301 5.21866 182.021 36.225L226.05 34.956C226.05 34.956 246.568 4.71555 205.272 -39.6583L205.279 -39.6623Z" fill="white"/>
<path d="M277 4.70798C277 4.70798 237.92 12.4044 212.551 28.3953L276.335 119.274C276.335 119.274 325.167 96.9432 353.406 92.6396C353.406 92.6396 308.057 27.4341 276.997 4.71891L277 4.70798Z" fill="#FF377A"/>
<path d="M687.698 225.015C687.781 228.518 687.478 232.171 686.929 235.824C686.393 239.382 685.624 242.939 684.704 246.372C682.067 256.44 678.276 265.518 675.955 270.531C675.598 271.3 675.282 271.987 674.994 272.55H644.201C644.201 272.55 642.086 267.839 639.71 260.78C639.106 259.008 638.488 257.072 637.884 255.039C635.686 247.718 633.653 238.942 633.132 230.523C632.733 224.205 633.2 218.066 635.068 212.847C637.266 206.749 641.427 201.928 648.445 199.579C649.146 199.346 649.86 199.126 650.615 198.948C653.156 198.33 656.013 198 659.241 198C659.625 198 660.01 198 660.394 198.027C660.889 198.027 661.383 198.041 661.864 198.069C667.028 198.316 671.244 199.346 674.678 200.994C677.452 202.299 679.719 204.016 681.518 206.062C685.844 210.965 687.575 217.681 687.698 225.015Z" fill="#8555F8"/>
<path d="M648.201 293.151H672.511L669.97 308.89H651.676L648.201 293.151Z" fill="#60B860"/>
<path d="M658.765 272.55H644.192C644.192 272.55 642.077 267.839 639.701 260.78C639.097 259.008 638.479 257.072 637.875 255.039C636.748 238.338 637.847 216.019 648.436 199.579C649.137 199.346 649.851 199.126 650.606 198.948C653.147 198.33 656.004 198 659.232 198C659.616 198 660.001 198 660.385 198.027C656.279 209.578 645.923 244.477 658.765 272.55Z" fill="#3EBBC3"/>
<path d="M658.765 272.55H644.192C644.192 272.55 642.077 267.839 639.701 260.78C639.097 259.008 638.479 257.072 637.875 255.039C636.748 238.338 637.847 216.019 648.436 199.579C649.137 199.346 649.851 199.126 650.606 198.948C653.147 198.33 656.004 198 659.232 198C659.616 198 660.001 198 660.385 198.027C656.279 209.578 645.923 244.477 658.765 272.55Z" fill="#FDBD1F"/>
<path d="M684.702 246.369C682.065 256.436 678.274 265.514 675.953 270.527C675.596 271.297 675.28 271.983 674.992 272.546H663.468C676.296 244.515 665.982 209.657 661.862 198.065C667.026 198.312 671.242 199.342 674.676 200.99C682.779 214.519 684.867 231.659 684.702 246.369Z" fill="#FDBD1F"/>
</g>
<defs>
<linearGradient id="paint0_linear_62_641" x1="375" y1="0" x2="375" y2="14930.2" gradientUnits="userSpaceOnUse">
<stop stop-color="#5939A3"/>
<stop offset="1" stop-color="#FFA2D1"/>
</linearGradient>
<clipPath id="clip0_62_641">
<rect width="750" height="2223" fill="white"/>
</clipPath>
<clipPath id="clip1_62_641">
<rect width="750" height="4415" fill="white" transform="translate(0 -1)"/>
</clipPath>
</defs>
</svg>
