<svg width="482" height="432" viewBox="0 0 482 432" fill="none" xmlns="http://www.w3.org/2000/svg">
<path d="M64.5293 101.824V108.031H68.0566V110.164H64.5293V116.289H61.9043V101.824H64.5293ZM46.291 114.512V103.629H57.2285V105.734H48.8613V112.406C53.6875 112.379 56.4082 112.242 59.498 111.613L59.7441 113.719C56.4629 114.389 53.5371 114.512 48.2324 114.512H46.291ZM48.3691 121.512C48.3691 118.518 51.541 116.768 56.5996 116.754C61.6035 116.768 64.7207 118.518 64.7207 121.512C64.7207 124.533 61.6035 126.283 56.5996 126.27C51.541 126.283 48.3691 124.533 48.3691 121.512ZM50.9395 121.512C50.9258 123.207 53.0586 124.205 56.5996 124.191C60.0723 124.205 62.2188 123.207 62.2324 121.512C62.2188 119.816 60.0723 118.846 56.5996 118.859C53.0586 118.846 50.9258 119.816 50.9395 121.512ZM103.768 101.852V119.789H101.17V101.852H103.768ZM83.5879 114.266C87.4297 112.844 89.6992 109.316 89.7129 105.625V103.191H92.3652V105.625C92.3516 109.207 94.6211 112.488 98.4082 113.801L97.0684 115.879C94.2383 114.826 92.1465 112.748 91.0527 110.096C89.9727 112.939 87.8535 115.209 84.9824 116.316L83.5879 114.266ZM87.7441 125.805V118.094H90.3691V123.699H104.506V125.805H87.7441ZM129.635 103.574C133.504 103.561 136.293 105.953 136.307 109.398C136.293 112.844 133.504 115.236 129.635 115.25C125.779 115.236 122.949 112.844 122.963 109.398C122.949 105.953 125.779 103.561 129.635 103.574ZM121.787 118.941C126.244 118.941 132.424 118.9 137.783 118.121L137.975 120.008C132.438 121.074 126.49 121.102 122.115 121.102L121.787 118.941ZM125.533 109.398C125.506 111.572 127.256 112.98 129.635 112.98C132.014 112.98 133.764 111.572 133.764 109.398C133.764 107.252 132.014 105.816 129.635 105.816C127.256 105.816 125.506 107.252 125.533 109.398ZM139.314 126.379V101.824H141.912V126.379H139.314ZM187.33 103.656C189.572 103.67 191.404 104.941 192.484 107.156H198.541V101.824H201.111V126.379H198.541V116.973H192.662C191.609 119.434 189.695 120.869 187.33 120.855C183.68 120.869 181.096 117.533 181.123 112.242C181.096 107.006 183.68 103.67 187.33 103.656ZM183.584 112.242C183.598 116.139 185.115 118.531 187.33 118.531C189.545 118.531 191.062 116.139 191.076 112.242C191.062 108.4 189.545 105.994 187.33 105.98C185.115 105.994 183.598 108.4 183.584 112.242ZM193.223 109.289C193.414 110.191 193.537 111.176 193.537 112.242C193.537 113.172 193.455 114.033 193.291 114.84H198.541V109.289H193.223ZM239.311 101.824V118.777H236.713V108.797H231.545V106.664H236.713V101.824H239.311ZM218.857 113.828C222.686 112.475 224.914 109.221 224.928 105.543V103.027H227.498V105.734C227.498 108.988 229.713 112.051 233.377 113.309L232.01 115.332C229.33 114.348 227.32 112.42 226.24 109.986C225.188 112.707 223.109 114.826 220.252 115.879L218.857 113.828ZM221.756 124.191C226.322 123.494 229.945 120.801 229.959 117.793V117.109H232.611V117.793C232.598 120.91 236.125 123.494 240.814 124.191L239.803 126.215C235.947 125.586 232.734 123.768 231.271 121.129C229.768 123.727 226.568 125.6 222.74 126.215L221.756 124.191ZM298.346 101.852V119.953H295.748V110.711H290.389V115.879H279.096V103.465H281.693V107.621H287.818V103.465H290.389V108.605H295.748V101.852H298.346ZM281.693 113.773H287.818V109.617H281.693V113.773ZM282.35 125.805V118.176H284.975V123.699H298.893V125.805H282.35ZM337.557 101.824V126.324H335.068V113.801H332.717V125.121H330.311V102.289H332.717V111.668H335.068V101.824H337.557ZM315.572 118.777C318.416 116.535 318.867 112.174 318.881 109.016V106.801H316.447V104.723H322.49V106.801H321.15V109.016C321.123 111.189 321.232 114.785 322.859 117.451C324.445 114.895 324.527 111.449 324.541 109.016V106.801H323.201V104.723H329.025V106.801H326.811V109.016C326.783 112.256 327.275 116.549 330.119 118.777L328.643 120.582C327.152 119.379 326.236 117.547 325.717 115.51C325.238 117.602 324.391 119.557 322.846 120.828C321.301 119.529 320.439 117.547 319.961 115.441C319.441 117.492 318.553 119.365 317.076 120.582L315.572 118.777ZM397.576 121.074V123.207H375.154V121.074H384.971V115.25H387.541V121.074H397.576ZM375.92 113.555C380.637 112.762 384.848 109.125 384.861 105.242V103.383H387.596V105.242C387.596 109.125 391.861 112.762 396.592 113.555L395.471 115.688C391.492 114.908 387.855 112.447 386.242 109.098C384.629 112.434 381.02 114.908 377.068 115.688L375.92 113.555ZM433.725 101.852V120.418H431.127V118.066H426.205V116.234H431.127V101.852H433.725ZM413.244 113.035C417.77 112.994 423.881 112.953 429.104 112.297L429.268 114.156C427.176 114.512 424.975 114.73 422.814 114.881V119.652H420.217V115.018C417.838 115.113 415.555 115.113 413.572 115.113L413.244 113.035ZM415.158 107.102C415.145 104.504 417.619 102.781 421.256 102.781C424.838 102.781 427.326 104.504 427.326 107.102C427.326 109.713 424.838 111.367 421.256 111.367C417.633 111.367 415.145 109.713 415.158 107.102ZM416.635 125.805V118.613H419.205V123.699H434.326V125.805H416.635ZM417.619 107.102C417.605 108.551 419.082 109.453 421.256 109.453C423.348 109.453 424.852 108.551 424.865 107.102C424.852 105.639 423.348 104.695 421.256 104.723C419.082 104.695 417.605 105.639 417.619 107.102Z" fill="white"/>
<path opacity="0.8" d="M15.2812 394.406V396.469H5V410.625C10.0156 410.641 13.3125 410.469 17.1562 409.719L17.4688 411.75C13.375 412.531 9.98438 412.719 4.65625 412.719H2.53125V394.406H15.2812ZM13.625 403.906V401.875H21.7188V391.75H24.1875V419.594H21.7188V403.906H13.625ZM58.5312 391.75V398.031H62.7188V400.094H58.5312V406H56.0938V391.75H58.5312ZM38 404.906V393.594H50.8438V404.906H38ZM39.7812 418.781V408.5H42.1562V416.766C43.7656 416.703 45.9062 416.469 47.875 415.812L48.25 417.781C45.5469 418.672 42.9062 418.797 41.0938 418.781H39.7812ZM40.4062 402.938H48.4688V395.594H40.4062V402.938ZM47.2812 410.656V408.781H53.125V406.312H55.5312V408.781H61.3125V410.656H47.2812ZM49.125 415.562C49.1094 413.156 51.2188 411.672 54.2812 411.656C57.3281 411.672 59.4688 413.156 59.5 415.562C59.4688 417.969 57.3281 419.469 54.2812 419.469C51.2188 419.469 49.1094 417.969 49.125 415.562ZM51.3125 415.562C51.3125 416.891 52.5469 417.75 54.2812 417.719C56.0156 417.75 57.25 416.891 57.25 415.562C57.25 414.266 56.0156 413.422 54.2812 413.406C52.5469 413.422 51.3125 414.266 51.3125 415.562ZM89.7812 406.406V408.406H64.4688V406.406H89.7812ZM67.2812 398.25C67.2812 394.766 71.0938 392.719 77.125 392.75C83.0938 392.719 86.9219 394.766 86.9375 398.25C86.9219 401.703 83.0938 403.781 77.125 403.781C71.0938 403.781 67.2812 401.703 67.2812 398.25ZM67.75 418.938V410.844H70.2188V416.875H86.9688V418.938H67.75ZM69.8125 398.25C69.7969 400.453 72.6406 401.781 77.125 401.781C81.5781 401.781 84.4219 400.453 84.4375 398.25C84.4219 396.078 81.5781 394.719 77.125 394.719C72.6406 394.719 69.7969 396.078 69.8125 398.25ZM107.531 393.438C111.875 393.438 115.016 397.359 115.031 403.562C115.016 409.812 111.875 413.719 107.531 413.719C103.172 413.719 100.016 409.812 100.031 403.562C100.016 397.359 103.172 393.438 107.531 393.438ZM103.875 403.562C103.875 407.797 105.359 410.109 107.531 410.094C109.75 410.109 111.203 407.797 111.219 403.562C111.203 399.344 109.75 397.031 107.531 397.031C105.359 397.031 103.875 399.344 103.875 403.562ZM118.312 419.875V391.438H122.312V402.156H126.5V405.469H122.312V419.875H118.312ZM136.656 398.594C136.641 403.203 137.922 407.953 141.812 410.438L139.656 413.531C137.188 412.047 135.641 409.578 134.734 406.672C133.719 409.891 132.016 412.594 129.438 414.156L127 411.219C131.219 408.609 132.781 403.594 132.781 398.781V393.875H136.656V398.594ZM138.812 404.281V401.031H142.5V391.844H146.219V418.562H142.5V404.281H138.812ZM148.375 419.875V391.438H152.188V419.875H148.375ZM180.062 391.438V419.875H176.219V391.438H180.062ZM154.875 410.094H157.25V397.875H155.406V394.656H168.438V397.875H166.625V409.703C167.422 409.625 168.188 409.547 168.906 409.438L169.188 412.312C164.688 413.266 158.875 413.375 155.312 413.375L154.875 410.094ZM160.781 410.031C161.516 410.016 162.25 409.984 163 409.953V397.875H160.781V410.031ZM167.781 405.344V401.781H170.531V392H174.312V418.531H170.531V405.344H167.781ZM214.031 391.438V419.938H210V391.438H214.031ZM191.062 403.562C191.047 397.359 194.219 393.438 198.594 393.438C202.875 393.438 206.062 397.359 206.062 403.562C206.062 409.812 202.875 413.719 198.594 413.719C194.219 413.719 191.047 409.812 191.062 403.562ZM194.906 403.562C194.891 407.797 196.375 410.109 198.594 410.094C200.75 410.109 202.203 407.797 202.219 403.562C202.203 399.344 200.75 397.031 198.594 397.031C196.375 397.031 194.891 399.344 194.906 403.562ZM242.312 391.438V412.938H238.531V391.438H242.312ZM218.875 408V393.625H222.656V397.969H226.531V393.625H230.219V399.312H232.781V391.875H236.531V412.031H232.781V402.5H230.219V408H218.875ZM222.656 404.781H226.531V401H222.656V404.781ZM223.031 419.375V410.094H227.031V416.188H243.031V419.375H223.031ZM268.719 406.125V409.281H248.594V393.531H268.5V396.75H252.656V399.75H267.844V402.875H252.656V406.125H268.719ZM245.531 416.562V413.312H271.562V416.562H245.531ZM295.906 404.781V406.781H287.312V413.969H298.906V416.031H273.469V413.969H284.906V406.781H276.719V394.031H295.625V396.031H279.188V404.781H295.906ZM330.844 391.781V400.188H335V402.25H330.844V410.406H328.375V391.781H330.844ZM309.031 407.562C311.25 407.562 313.844 407.562 316.562 407.484V405.438C313.328 405.141 311.234 403.656 311.25 401.344C311.234 398.812 313.844 397.25 317.75 397.25C321.688 397.25 324.25 398.812 324.281 401.344C324.25 403.641 322.219 405.125 319 405.438V407.391C321.594 407.266 324.219 407.047 326.656 406.688L326.875 408.469C320.844 409.531 314.203 409.578 309.312 409.562L309.031 407.562ZM309.719 396.188V394.312H316.562V391.531H319V394.312H325.812V396.188H309.719ZM312.438 413.75V411.781H330.844V419.531H328.375V413.75H312.438ZM313.594 401.344C313.578 402.797 315.188 403.781 317.75 403.75C320.312 403.781 321.938 402.797 321.938 401.344C321.938 399.875 320.312 398.969 317.75 399C315.188 398.969 313.578 399.875 313.594 401.344ZM359.75 391.781V412.094H357.312V391.781H359.75ZM337.469 400.531C337.453 396.531 340.594 393.734 344.75 393.719C348.906 393.734 352.016 396.531 352.031 400.531C352.016 404.578 348.906 407.391 344.75 407.375C340.594 407.391 337.453 404.578 337.469 400.531ZM339.875 400.531C339.844 403.297 341.938 405.219 344.75 405.219C347.516 405.219 349.625 403.297 349.625 400.531C349.625 397.812 347.516 395.875 344.75 395.875C341.938 395.875 339.844 397.812 339.875 400.531ZM341.812 418.938V410.031H344.25V416.875H360.625V418.938H341.812ZM378.344 396.562V398.562H364.406V396.562H370.188V392.594H372.625V396.562H378.344ZM365.406 406.75C365.406 403.062 367.922 400.453 371.375 400.438C374.875 400.453 377.375 403.062 377.406 406.75C377.375 410.484 374.875 413.109 371.375 413.125C367.922 413.109 365.406 410.484 365.406 406.75ZM367.594 406.75C367.594 409.219 369.172 410.984 371.375 410.969C373.594 410.984 375.219 409.219 375.219 406.75C375.219 404.312 373.594 402.531 371.375 402.5C369.172 402.531 367.594 404.312 367.594 406.75ZM379.781 418.156V392.438H382.094V403.469H385.781V391.75H388.125V419.531H385.781V405.5H382.094V418.156H379.781ZM425.594 413.938V415.969H400.156V413.938H411.594V407.938H403.156V393.719H405.625V398.75H420.062V393.719H422.469V407.938H414V413.938H425.594ZM405.625 405.938H420.062V400.75H405.625V405.938ZM436.062 399.656C436.062 404.078 438.219 408.844 441.906 411.031L440.5 412.938C437.812 411.312 435.891 408.344 434.922 404.953C433.906 408.656 431.844 411.844 429.062 413.531L427.5 411.688C431.344 409.438 433.688 404.516 433.688 399.75V394.375H436.062V399.656ZM438.844 403.812V401.719H443.562V392.344H445.875V418.125H443.562V403.812H438.844ZM449.25 419.531V391.75H451.625V419.531H449.25ZM480.906 413.906V415.969H455.469V413.906H461.781V406.422C459.406 405.188 457.969 403.188 457.969 400.656C457.969 396.359 462.188 393.531 468.125 393.5C474.062 393.531 478.281 396.359 478.281 400.656C478.281 403.141 476.891 405.109 474.594 406.344V413.906H480.906ZM460.344 400.656C460.328 403.766 463.562 405.844 468.125 405.844C472.641 405.844 475.906 403.766 475.906 400.656C475.906 397.547 472.641 395.5 468.125 395.531C463.562 395.5 460.328 397.547 460.344 400.656ZM464.188 413.906H472.125V407.297C470.922 407.609 469.578 407.781 468.125 407.781C466.703 407.781 465.375 407.625 464.188 407.312V413.906Z" fill="white"/>
<path d="M82.8853 183.68H106.165V186.16H102.005V242.64C102.005 243.387 102.219 243.867 102.645 244.08C103.072 244.293 103.579 244.4 104.165 244.4H106.725V246.88H82.8853V244.4H85.6053C86.352 244.4 86.8053 244.187 86.9653 243.76C87.1786 243.333 87.2853 242.933 87.2853 242.56V222.32H77.5253C77.2586 227.6 76.6186 231.867 75.6053 235.12C74.6453 238.32 73.2586 240.773 71.4453 242.48C69.632 244.24 67.392 245.413 64.7253 246C62.112 246.587 58.992 246.88 55.3653 246.88C51.472 246.88 48.0586 246.507 45.1253 245.76C42.2453 245.067 39.872 243.627 38.0053 241.44C36.1386 239.253 34.7253 236.107 33.7653 232C32.8586 227.893 32.4053 222.453 32.4053 215.68C32.4053 208.907 32.8586 203.467 33.7653 199.36C34.672 195.253 36.0586 192.107 37.9253 189.92C39.8453 187.68 42.2453 186.213 45.1253 185.52C48.0053 184.773 51.4186 184.4 55.3653 184.4C58.352 184.4 60.992 184.587 63.2853 184.96C65.632 185.333 67.6586 186.08 69.3653 187.2C71.1253 188.32 72.592 189.893 73.7653 191.92C74.9386 193.947 75.8453 196.587 76.4853 199.84H87.2853V186.16H82.8853V183.68ZM57.5253 244C58.6986 244 59.6586 243.813 60.4053 243.44C61.2053 243.067 61.8453 242.56 62.3253 241.92C62.8053 241.28 63.152 240.587 63.3653 239.84C63.5786 239.04 63.6853 238.24 63.6853 237.44V193.84C63.6853 193.04 63.5786 192.267 63.3653 191.52C63.152 190.72 62.8053 190 62.3253 189.36C61.8453 188.72 61.2053 188.213 60.4053 187.84C59.6586 187.467 58.6986 187.28 57.5253 187.28H53.1253C51.952 187.28 50.9653 187.467 50.1653 187.84C49.4186 188.213 48.8053 188.72 48.3253 189.36C47.8453 190 47.4986 190.72 47.2853 191.52C47.072 192.267 46.9653 193.04 46.9653 193.84V237.44C46.9653 238.24 47.072 239.04 47.2853 239.84C47.4986 240.587 47.8453 241.28 48.3253 241.92C48.8053 242.56 49.4186 243.067 50.1653 243.44C50.9653 243.813 51.952 244 53.1253 244H57.5253ZM77.6853 215.68C77.6853 216.267 77.6853 216.853 77.6853 217.44C77.6853 217.973 77.6586 218.507 77.6053 219.04H87.2853V203.12H77.0453C77.2586 204.88 77.4186 206.8 77.5253 208.88C77.632 210.96 77.6853 213.227 77.6853 215.68ZM162.885 183.68H186.165V186.16H182.005V242.64C182.005 243.387 182.219 243.867 182.645 244.08C183.072 244.293 183.579 244.4 184.165 244.4H186.725V246.88H162.885V244.4H165.605C166.352 244.4 166.805 244.187 166.965 243.76C167.179 243.333 167.285 242.933 167.285 242.56V186.16H162.885V183.68ZM110.805 239.28C110.805 238.267 110.992 237.307 111.365 236.4C111.739 235.493 112.245 234.72 112.885 234.08C113.579 233.387 114.379 232.853 115.285 232.48C116.192 232.107 117.152 231.92 118.165 231.92C119.179 231.92 120.139 232.107 121.045 232.48C121.952 232.853 122.725 233.387 123.365 234.08C124.059 234.72 124.592 235.493 124.965 236.4C125.339 237.307 125.525 238.267 125.525 239.28C125.525 240.613 125.179 241.893 124.485 243.12C128.379 242.427 131.339 240.987 133.365 238.8C135.445 236.56 136.939 233.867 137.845 230.72C138.752 227.573 139.259 224.107 139.365 220.32C139.472 216.48 139.525 212.613 139.525 208.72V188.64H123.205C122.192 188.64 121.339 188.853 120.645 189.28C119.952 189.707 119.712 190.56 119.925 191.84C120.139 193.067 119.819 194.133 118.965 195.04C118.112 195.947 116.832 196.4 115.125 196.4C113.419 196.4 112.219 195.92 111.525 194.96C110.832 193.947 110.485 192.747 110.485 191.36C110.485 189.973 111.099 188.693 112.325 187.52C113.605 186.293 115.552 185.68 118.165 185.68H154.965V213.28C154.965 218.293 154.005 222.827 152.085 226.88C150.165 230.933 147.552 234.4 144.245 237.28C140.992 240.16 137.152 242.4 132.725 244C128.352 245.6 123.712 246.427 118.805 246.48C117.685 246.48 116.619 246.293 115.605 245.92C114.645 245.547 113.792 245.04 113.045 244.4C112.352 243.76 111.792 242.987 111.365 242.08C110.992 241.227 110.805 240.293 110.805 239.28ZM242.085 183.68H265.365V186.16H261.205V203.44H271.765V206.72H261.205V242.64C261.205 243.387 261.419 243.867 261.845 244.08C262.272 244.293 262.779 244.4 263.365 244.4H265.925V246.88H242.085V244.4H244.805C245.552 244.4 246.005 244.187 246.165 243.76C246.379 243.333 246.485 242.933 246.485 242.56V186.16H242.085V183.68ZM190.805 239.28C190.805 238.267 190.992 237.307 191.365 236.4C191.739 235.493 192.245 234.72 192.885 234.08C193.579 233.387 194.379 232.853 195.285 232.48C196.192 232.107 197.152 231.92 198.165 231.92C199.179 231.92 200.139 232.107 201.045 232.48C201.952 232.853 202.725 233.387 203.365 234.08C204.059 234.72 204.592 235.493 204.965 236.4C205.339 237.307 205.525 238.267 205.525 239.28C205.525 240.613 205.179 241.893 204.485 243.12C208.379 242.427 211.339 240.987 213.365 238.8C215.445 236.56 216.939 233.867 217.845 230.72C218.752 227.573 219.259 224.107 219.365 220.32C219.472 216.48 219.525 212.613 219.525 208.72V188.64H203.205C202.192 188.64 201.339 188.853 200.645 189.28C199.952 189.707 199.712 190.56 199.925 191.84C200.139 193.067 199.819 194.133 198.965 195.04C198.112 195.947 196.832 196.4 195.125 196.4C193.419 196.4 192.219 195.92 191.525 194.96C190.832 193.947 190.485 192.747 190.485 191.36C190.485 189.973 191.099 188.693 192.325 187.52C193.605 186.293 195.552 185.68 198.165 185.68H234.965V213.28C234.965 218.293 234.005 222.827 232.085 226.88C230.165 230.933 227.552 234.4 224.245 237.28C220.992 240.16 217.152 242.4 212.725 244C208.352 245.6 203.712 246.427 198.805 246.48C197.685 246.48 196.619 246.293 195.605 245.92C194.645 245.547 193.792 245.04 193.045 244.4C192.352 243.76 191.792 242.987 191.365 242.08C190.992 241.227 190.805 240.293 190.805 239.28ZM344.195 183.68H367.475V186.16H363.315V204.64H373.875V208.32H363.315V242.64C363.315 243.387 363.528 243.867 363.955 244.08C364.381 244.293 364.888 244.4 365.475 244.4H368.035V246.88H344.195V244.4H346.915C347.661 244.4 348.115 244.187 348.275 243.76C348.488 243.333 348.595 242.933 348.595 242.56V186.16H344.195V183.68ZM293.875 185.76H312.675V205.04H324.995V185.76H339.235V239.68C336.621 240.32 333.821 240.96 330.835 241.6C327.901 242.24 324.888 242.8 321.795 243.28C318.755 243.76 315.741 244.133 312.755 244.4C309.768 244.72 306.941 244.88 304.275 244.88C301.981 244.88 300.381 244.267 299.475 243.04C298.621 241.813 298.195 240.16 298.195 238.08V188.08H293.875V185.76ZM314.675 240.72C316.008 240.667 317.555 240.533 319.315 240.32C321.075 240.107 322.968 239.813 324.995 239.44V208.4H312.675V238.72C312.675 239.253 312.835 239.733 313.155 240.16C313.475 240.533 313.981 240.72 314.675 240.72ZM448.435 247.04H374.675V244.08H404.995V227.6H380.275V204.48H425.875V188.64H380.275V185.68H442.435V207.44H396.835V224.64H443.155V227.6H419.715V244.08H448.435V247.04Z" fill="white"/>
<path d="M82.8853 273.68H106.165V276.16H102.005V332.64C102.005 333.387 102.219 333.867 102.645 334.08C103.072 334.293 103.579 334.4 104.165 334.4H106.725V336.88H82.8853V334.4H85.6053C86.352 334.4 86.8053 334.187 86.9653 333.76C87.1786 333.333 87.2853 332.933 87.2853 332.56V276.16H82.8853V273.68ZM32.4053 305.68C32.4053 298.907 32.8586 293.467 33.7653 289.36C34.672 285.253 36.0586 282.107 37.9253 279.92C39.8453 277.68 42.2453 276.213 45.1253 275.52C48.0053 274.773 51.4186 274.4 55.3653 274.4C59.312 274.4 62.6986 274.773 65.5253 275.52C68.352 276.213 70.6453 277.68 72.4053 279.92C74.2186 282.107 75.552 285.253 76.4053 289.36C77.2586 293.467 77.6853 298.907 77.6853 305.68C77.6853 312.453 77.2586 317.893 76.4053 322C75.6053 326.107 74.2986 329.253 72.4853 331.44C70.672 333.627 68.352 335.067 65.5253 335.76C62.6986 336.507 59.312 336.88 55.3653 336.88C51.472 336.88 48.0586 336.507 45.1253 335.76C42.2453 335.067 39.872 333.627 38.0053 331.44C36.1386 329.253 34.7253 326.107 33.7653 322C32.8586 317.893 32.4053 312.453 32.4053 305.68ZM57.5253 334C58.6986 334 59.6586 333.813 60.4053 333.44C61.2053 333.067 61.8453 332.56 62.3253 331.92C62.8053 331.28 63.152 330.587 63.3653 329.84C63.5786 329.04 63.6853 328.24 63.6853 327.44V283.84C63.6853 283.04 63.5786 282.267 63.3653 281.52C63.152 280.72 62.8053 280 62.3253 279.36C61.8453 278.72 61.2053 278.213 60.4053 277.84C59.6586 277.467 58.6986 277.28 57.5253 277.28H53.1253C51.952 277.28 50.9653 277.467 50.1653 277.84C49.4186 278.213 48.8053 278.72 48.3253 279.36C47.8453 280 47.4986 280.72 47.2853 281.52C47.072 282.267 46.9653 283.04 46.9653 283.84V327.44C46.9653 328.24 47.072 329.04 47.2853 329.84C47.4986 330.587 47.8453 331.28 48.3253 331.92C48.8053 332.56 49.4186 333.067 50.1653 333.44C50.9653 333.813 51.952 334 53.1253 334H57.5253ZM146.965 276V291.44H153.525V276H150.565V273.68H166.165V317.92H153.525V295.12H146.965V312.8H114.485V278.32H111.445V276H127.605V290.64H134.325V276H146.965ZM167.925 273.68H186.645V276H183.525V317.92H170.885V276H167.925V273.68ZM134.325 309.68V294H127.605V309.68H134.325ZM116.565 318H140.885V320.32H136.325V334.4C136.325 334.72 136.405 335.067 136.565 335.44C136.725 335.813 137.152 336 137.845 336H172.245C173.792 336 174.779 335.44 175.205 334.32C175.632 333.253 175.739 332.107 175.525 330.88C175.472 330.4 175.472 329.813 175.525 329.12C175.632 328.373 175.845 327.68 176.165 327.04C176.539 326.4 177.045 325.867 177.685 325.44C178.379 324.96 179.259 324.72 180.325 324.72C182.459 324.72 183.925 325.333 184.725 326.56C185.525 327.733 185.952 329.2 186.005 330.96C186.005 331.813 185.819 332.693 185.445 333.6C185.125 334.56 184.485 335.44 183.525 336.24C182.619 337.04 181.365 337.68 179.765 338.16C178.165 338.693 176.139 338.96 173.685 338.96H124.805C121.712 338.96 120.165 337.467 120.165 334.48V320.32H116.565V318ZM195.525 275.68H259.765V278.64H215.125V295.28H259.765V298.24H215.125V315.52H260.245V318.48H198.565V278H195.525V275.68ZM266.325 337.04H192.565V334.08H266.325V337.04ZM344.195 273.68H367.475V276.16H363.315V289.44H373.875V293.12H363.315V314.08H348.595V276.16H344.195V273.68ZM294.515 276H339.555V308.72H298.195V278.32H294.515V276ZM312.675 305.76H325.075V278.96H312.675V305.76ZM320.595 314.64H341.635V318C341.635 320.667 341.741 323.12 341.955 325.36C342.168 327.547 342.675 329.44 343.475 331.04C344.275 332.64 345.475 333.867 347.075 334.72C348.675 335.627 350.861 336.08 353.635 336.08C354.275 336.08 354.915 336 355.555 335.84C356.248 335.733 356.835 335.493 357.315 335.12C357.848 334.8 358.248 334.32 358.515 333.68C358.781 333.04 358.835 332.24 358.675 331.28C358.621 330.8 358.621 330.213 358.675 329.52C358.781 328.773 359.021 328.08 359.395 327.44C359.768 326.8 360.301 326.267 360.995 325.84C361.741 325.36 362.675 325.12 363.795 325.12C365.715 325.12 367.048 325.6 367.795 326.56C368.595 327.52 369.021 328.88 369.075 330.64C369.075 331.493 368.861 332.4 368.435 333.36C368.061 334.32 367.315 335.2 366.195 336C365.128 336.853 363.688 337.547 361.875 338.08C360.061 338.667 357.768 338.96 354.995 338.96C349.768 338.96 345.181 337.867 341.235 335.68C337.341 333.493 334.568 330.293 332.915 326.08C332.168 328.48 330.835 330.507 328.915 332.16C326.995 333.813 324.728 335.147 322.115 336.16C319.555 337.173 316.755 337.893 313.715 338.32C310.728 338.8 307.741 339.04 304.755 339.04C303.848 339.04 302.808 339.04 301.635 339.04C300.515 339.04 299.528 338.987 298.675 338.88V335.84C299.581 335.893 300.595 335.92 301.715 335.92C302.888 335.973 303.901 335.973 304.755 335.92C307.688 335.813 310.408 335.44 312.915 334.8C315.421 334.16 317.608 333.2 319.475 331.92C321.341 330.587 322.808 328.853 323.875 326.72C324.941 324.587 325.475 321.947 325.475 318.8V316.96H320.595V314.64ZM425.395 273.68H448.675V276.16H444.515V308.4H429.795V276.16H425.395V273.68ZM419.875 278.48H406.915V284.88C406.915 288.933 407.368 292.213 408.275 294.72C409.181 297.227 410.408 299.2 411.955 300.64C413.501 302.08 415.315 303.067 417.395 303.6C419.528 304.133 421.795 304.48 424.195 304.64V307.6C421.208 307.6 418.381 307.333 415.715 306.8C413.101 306.267 410.728 305.36 408.595 304.08C406.461 302.747 404.621 301.013 403.075 298.88C401.528 296.747 400.355 294.08 399.555 290.88C398.861 294.187 397.608 296.96 395.795 299.2C393.981 301.44 391.901 303.253 389.555 304.64C387.208 305.973 384.728 306.933 382.115 307.52C379.501 308.053 377.021 308.293 374.675 308.24V305.28C377.928 305.28 380.621 304.72 382.755 303.6C384.941 302.48 386.675 300.987 387.955 299.12C389.235 297.253 390.141 295.12 390.675 292.72C391.208 290.267 391.475 287.68 391.475 284.96V278.48H377.235V275.6H419.875V278.48ZM397.555 323.04H429.635V313.6H444.595V338.96H429.635V336.8C426.221 337.227 422.675 337.573 418.995 337.84C415.368 338.16 411.741 338.4 408.115 338.56C404.488 338.72 400.888 338.827 397.315 338.88C393.795 338.933 390.408 338.96 387.155 338.96C384.061 338.96 382.515 337.467 382.515 334.48V315.92H378.835V313.6H397.555V323.04ZM399.315 335.68C401.341 335.733 403.608 335.707 406.115 335.6C408.675 335.547 411.288 335.44 413.955 335.28C416.621 335.12 419.288 334.907 421.955 334.64C424.675 334.427 427.235 334.16 429.635 333.84V326.16H397.555V334.08C397.555 334.773 397.715 335.2 398.035 335.36C398.408 335.573 398.835 335.68 399.315 335.68Z" fill="#FFA2D1"/>
<path d="M244.706 24.3817C217.286 71.8728 193.111 30 247.952 30C193.116 30 217.291 -11.8728 244.706 35.6183C217.286 -11.8728 265.635 -11.8728 238.22 35.6183C265.64 -11.8728 289.814 30 234.974 30C289.81 30 265.635 71.8728 238.22 24.3817C265.64 71.8728 217.291 71.8728 244.706 24.3817Z" fill="white"/>
</svg>
