<svg width="627" height="432" viewBox="0 0 627 432" fill="none" xmlns="http://www.w3.org/2000/svg">
<path d="M137.529 101.824V108.031H141.057V110.164H137.529V116.289H134.904V101.824H137.529ZM119.291 114.512V103.629H130.229V105.734H121.861V112.406C126.688 112.379 129.408 112.242 132.498 111.613L132.744 113.719C129.463 114.389 126.537 114.512 121.232 114.512H119.291ZM121.369 121.512C121.369 118.518 124.541 116.768 129.6 116.754C134.604 116.768 137.721 118.518 137.721 121.512C137.721 124.533 134.604 126.283 129.6 126.27C124.541 126.283 121.369 124.533 121.369 121.512ZM123.939 121.512C123.926 123.207 126.059 124.205 129.6 124.191C133.072 124.205 135.219 123.207 135.232 121.512C135.219 119.816 133.072 118.846 129.6 118.859C126.059 118.846 123.926 119.816 123.939 121.512ZM176.768 101.852V119.789H174.17V101.852H176.768ZM156.588 114.266C160.43 112.844 162.699 109.316 162.713 105.625V103.191H165.365V105.625C165.352 109.207 167.621 112.488 171.408 113.801L170.068 115.879C167.238 114.826 165.146 112.748 164.053 110.096C162.973 112.939 160.854 115.209 157.982 116.316L156.588 114.266ZM160.744 125.805V118.094H163.369V123.699H177.506V125.805H160.744ZM202.635 103.574C206.504 103.561 209.293 105.953 209.307 109.398C209.293 112.844 206.504 115.236 202.635 115.25C198.779 115.236 195.949 112.844 195.963 109.398C195.949 105.953 198.779 103.561 202.635 103.574ZM194.787 118.941C199.244 118.941 205.424 118.9 210.783 118.121L210.975 120.008C205.438 121.074 199.49 121.102 195.115 121.102L194.787 118.941ZM198.533 109.398C198.506 111.572 200.256 112.98 202.635 112.98C205.014 112.98 206.764 111.572 206.764 109.398C206.764 107.252 205.014 105.816 202.635 105.816C200.256 105.816 198.506 107.252 198.533 109.398ZM212.314 126.379V101.824H214.912V126.379H212.314ZM272.771 101.824V111.312H276.709V113.445H272.771V126.379H270.174V101.824H272.771ZM254.725 120.281V104.176H266.182V106.281H257.322V118.121C261.438 118.107 264.514 117.93 268.014 117.301L268.342 119.488C264.5 120.172 261.246 120.295 256.693 120.281H254.725ZM312.311 101.824V118.777H309.713V108.797H304.545V106.664H309.713V101.824H312.311ZM291.857 113.828C295.686 112.475 297.914 109.221 297.928 105.543V103.027H300.498V105.734C300.498 108.988 302.713 112.051 306.377 113.309L305.01 115.332C302.33 114.348 300.32 112.42 299.24 109.986C298.188 112.707 296.109 114.826 293.252 115.879L291.857 113.828ZM294.756 124.191C299.322 123.494 302.945 120.801 302.959 117.793V117.109H305.611V117.793C305.598 120.91 309.125 123.494 313.814 124.191L312.803 126.215C308.947 125.586 305.734 123.768 304.271 121.129C302.768 123.727 299.568 125.6 295.74 126.215L294.756 124.191ZM371.346 101.852V119.953H368.748V110.711H363.389V115.879H352.096V103.465H354.693V107.621H360.818V103.465H363.389V108.605H368.748V101.852H371.346ZM354.693 113.773H360.818V109.617H354.693V113.773ZM355.35 125.805V118.176H357.975V123.699H371.893V125.805H355.35ZM410.557 101.824V126.324H408.068V113.801H405.717V125.121H403.311V102.289H405.717V111.668H408.068V101.824H410.557ZM388.572 118.777C391.416 116.535 391.867 112.174 391.881 109.016V106.801H389.447V104.723H395.49V106.801H394.15V109.016C394.123 111.189 394.232 114.785 395.859 117.451C397.445 114.895 397.527 111.449 397.541 109.016V106.801H396.201V104.723H402.025V106.801H399.811V109.016C399.783 112.256 400.275 116.549 403.119 118.777L401.643 120.582C400.152 119.379 399.236 117.547 398.717 115.51C398.238 117.602 397.391 119.557 395.846 120.828C394.301 119.529 393.439 117.547 392.961 115.441C392.441 117.492 391.553 119.365 390.076 120.582L388.572 118.777ZM470.576 121.074V123.207H448.154V121.074H457.971V115.25H460.541V121.074H470.576ZM448.92 113.555C453.637 112.762 457.848 109.125 457.861 105.242V103.383H460.596V105.242C460.596 109.125 464.861 112.762 469.592 113.555L468.471 115.688C464.492 114.908 460.855 112.447 459.242 109.098C457.629 112.434 454.02 114.908 450.068 115.688L448.92 113.555ZM506.725 101.852V120.418H504.127V118.066H499.205V116.234H504.127V101.852H506.725ZM486.244 113.035C490.77 112.994 496.881 112.953 502.104 112.297L502.268 114.156C500.176 114.512 497.975 114.73 495.814 114.881V119.652H493.217V115.018C490.838 115.113 488.555 115.113 486.572 115.113L486.244 113.035ZM488.158 107.102C488.145 104.504 490.619 102.781 494.256 102.781C497.838 102.781 500.326 104.504 500.326 107.102C500.326 109.713 497.838 111.367 494.256 111.367C490.633 111.367 488.145 109.713 488.158 107.102ZM489.635 125.805V118.613H492.205V123.699H507.326V125.805H489.635ZM490.619 107.102C490.605 108.551 492.082 109.453 494.256 109.453C496.348 109.453 497.852 108.551 497.865 107.102C497.852 105.639 496.348 104.695 494.256 104.723C492.082 104.695 490.605 105.639 490.619 107.102Z" fill="white"/>
<path opacity="0.8" d="M85.2188 400.281C85.2344 405 88.6562 409.797 92.75 411.562L91.375 413.5C88.125 412.031 85.3281 408.828 84.0312 404.984C82.7344 409.062 79.9219 412.594 76.75 414.188L75.2812 412.25C79.2656 410.344 82.7344 405.094 82.75 400.281V396.656H76.1875V394.625H91.8438V396.656H85.2188V400.281ZM95.7188 419.531V391.75H98.1875V419.531H95.7188ZM125.031 393.25V395.312C125.031 397.469 125.031 400 124.297 403.469H128.375V405.5H102.938V403.469H121.828C122.609 399.969 122.609 397.469 122.594 395.312V395.281H106.156V393.25H125.031ZM106.062 419.156V409.344H125.156V419.156H106.062ZM108.5 417.156H122.719V411.281H108.5V417.156ZM160.781 391.438V402.344H164.812V405.625H160.781V419.812H156.781V391.438H160.781ZM138.031 411.844C144.766 408.469 148.391 403.938 149.141 397.594H139.656V394.344H153.188C153.156 402.844 149.844 410.203 140.281 414.906L138.031 411.844ZM182.156 393.344V396.531H176.5C176.516 399.844 178.531 403.047 183.062 404.375L181.156 407.5C178.016 406.547 175.828 404.625 174.578 402.203C173.312 405.062 171 407.344 167.594 408.469L165.562 405.312C170.281 403.828 172.422 400.141 172.469 396.531H166.656V393.344H182.156ZM169.5 414.344C169.484 410.875 173.234 408.859 179.25 408.875C185.172 408.859 188.828 410.875 188.844 414.344C188.828 417.828 185.172 419.891 179.25 419.875C173.234 419.891 169.484 417.828 169.5 414.344ZM173.5 414.344C173.469 415.969 175.516 416.781 179.25 416.781C182.938 416.781 184.906 415.969 184.906 414.344C184.906 412.75 182.938 411.953 179.25 411.969C175.516 411.953 173.469 412.75 173.5 414.344ZM184.562 408.312V391.438H188.562V398.031H192.406V401.281H188.562V408.312H184.562ZM223.969 392.719V395.375C223.984 398.172 223.984 401.062 223.234 405.031H226.969V408.219H201.031V405.031H219.188C219.453 403.734 219.625 402.547 219.75 401.438L203.875 402.062L203.438 398.812L219.953 398.469C219.984 397.578 220 396.734 220 395.906H204.219V392.719H223.969ZM204.062 419.375V410.312H208.031V416.188H224.406V419.375H204.062ZM260.031 391.438V405.75H256.062V403.562H249.562V400.531H256.062V398.031H249.875C248.109 402.297 244.047 405.031 237.75 406.406L236.406 403.156C242.922 401.875 245.922 399.172 246.453 395.75H238V392.531H250.875C250.875 393.391 250.812 394.219 250.688 395H256.062V391.438H260.031ZM241.125 409.906V406.781H260.031V414.562H245.156V416.438H260.656V419.594H241.156V411.625H256.031V409.906H241.125ZM288.312 391.438V419.875H284.531V391.438H288.312ZM263.125 411.562C267.312 408.984 268.875 403.891 268.875 399.062V397.531H264.219V394.344H277.031V397.531H272.719V399.062C272.703 403.781 274.188 408.562 278.344 410.938L276 413.875C273.453 412.375 271.797 409.844 270.828 406.781C269.859 410.094 268.141 412.906 265.531 414.5L263.125 411.562ZM275 404.406V401.188H278.75V391.906H282.5V418.562H278.75V404.406H275ZM323.406 391.438V419.875H319.594V391.438H323.406ZM298.719 398.906V395.75H303.531V392.125H307.5V395.75H312.25V398.906H298.719ZM299.344 407.062C299.328 403.031 301.922 400.219 305.406 400.219C308.969 400.219 311.531 403.031 311.531 407.062V407.281H314.062V403.875H310.938V400.625H314.062V391.906H317.781V418.625H314.062V410.406H310.844C309.844 412.562 307.859 413.906 305.406 413.906C301.922 413.906 299.328 411.094 299.344 407.062ZM302.812 407.062C302.797 409.25 303.844 410.516 305.406 410.531C307 410.516 308.078 409.25 308.094 407.062C308.078 404.828 307 403.594 305.406 403.594C303.844 403.594 302.797 404.828 302.812 407.062ZM338.656 393.344V396.531H331.219V398.875H338.375V401.906H331.219V404.422C334.375 404.391 336.703 404.266 339.344 403.812L339.75 407C336.422 407.594 333.641 407.703 329.344 407.688H327.406V393.344H338.656ZM331.188 413.188V410H350.844V419.875H346.875V413.188H331.188ZM340.875 408.594V391.969H344.594V398.406H347.062V391.469H350.844V408.812H347.062V401.594H344.594V408.594H340.875ZM367 392.25C373.172 392.25 376.797 393.953 376.812 397.031C376.797 400.188 373.172 401.891 367 401.906C360.797 401.891 357.156 400.188 357.156 397.031C357.156 393.953 360.797 392.25 367 392.25ZM354.344 405.781V403.781H379.656V405.781H354.344ZM357.406 410.062V408.188H376.406V414.406H359.906V417.281H377.25V419.219H357.469V412.594H374V410.062H357.406ZM359.719 397.031C359.688 398.969 362.391 400.031 367 400.031C371.609 400.031 374.297 398.969 374.312 397.031C374.297 395.203 371.609 394.109 367 394.094C362.391 394.109 359.688 395.203 359.719 397.031ZM411.75 391.75V397.781H415.938V399.844H411.75V405.906H409.312V391.75H411.75ZM390.562 398.938C390.547 395.297 393.609 392.797 397.781 392.781C401.969 392.797 405 395.297 405 398.938C405 402.594 401.969 405.109 397.781 405.125C393.609 405.109 390.547 402.594 390.562 398.938ZM392.969 398.938C392.953 401.375 395 403.125 397.781 403.125C400.547 403.125 402.609 401.375 402.594 398.938C402.609 396.531 400.547 394.812 397.781 394.844C395 394.812 392.953 396.531 392.969 398.938ZM394.031 409.188V407.219H411.75V414H396.5V417.188H412.781V419.156H394.094V412.125H409.312V409.188H394.031ZM440.688 391.75V419.594H438.25V407.75H432.469V405.688H438.25V400.156H432.688V398.094H438.25V391.75H440.688ZM418.656 396.312V394.281H430.875V404.156H421.188V411C425.359 411 428.812 410.844 433.031 410.188L433.25 412.25C428.812 412.938 425.25 413.094 420.812 413.094H418.75V402.156H428.469V396.312H418.656ZM467.781 405.125V407.156H448.594V394.344H467.5V396.375H451.031V405.125H467.781ZM445.344 415.75V413.688H470.781V415.75H445.344ZM487.156 393.125V399.906H476.844V403.344C482.125 403.344 485.672 403.188 490.031 402.531L490.25 404.438C485.781 405.156 482.125 405.312 476.656 405.312H474.406V398.094H484.75V395.031H474.312V393.125H487.156ZM477.875 409.562V407.625H495.938V414.156H480.375V417.25H496.938V419.219H477.938V412.312H493.438V409.562H477.875ZM493.5 406.406V391.75H495.938V406.406H493.5ZM524.438 391.75V419.531H522.094V391.75H524.438ZM500.688 411.75C506.719 408.172 509.75 403.156 510.219 397.344H501.875V395.312H512.656C512.656 398.047 512.219 400.688 511.266 403.156H516.25V392.5H518.594V418.125H516.25V405.156H510.359C508.688 408.391 506 411.25 502.125 413.531L500.688 411.75ZM553.75 413.906V415.969H528.312V413.906H534.625V406.422C532.25 405.188 530.812 403.188 530.812 400.656C530.812 396.359 535.031 393.531 540.969 393.5C546.906 393.531 551.125 396.359 551.125 400.656C551.125 403.141 549.734 405.109 547.438 406.344V413.906H553.75ZM533.188 400.656C533.172 403.766 536.406 405.844 540.969 405.844C545.484 405.844 548.75 403.766 548.75 400.656C548.75 397.547 545.484 395.5 540.969 395.531C536.406 395.5 533.172 397.547 533.188 400.656ZM537.031 413.906H544.969V407.297C543.766 407.609 542.422 407.781 540.969 407.781C539.547 407.781 538.219 407.625 537.031 407.312V413.906Z" fill="white"/>
<path d="M144.591 183.68H167.871V186.16H163.711V242.64C163.711 243.387 163.924 243.867 164.351 244.08C164.777 244.293 165.284 244.4 165.871 244.4H168.431V246.88H144.591V244.4H147.311C148.057 244.4 148.511 244.187 148.671 243.76C148.884 243.333 148.991 242.933 148.991 242.56V186.16H144.591V183.68ZM88.6706 239.2C88.6706 237.12 89.3906 235.36 90.8306 233.92C92.2173 232.48 93.9773 231.76 96.1106 231.76C98.1906 231.76 99.9506 232.48 101.391 233.92C102.831 235.36 103.551 237.12 103.551 239.2C103.551 240.213 103.337 241.2 102.911 242.16C104.937 241.04 106.511 239.413 107.631 237.28C108.804 235.093 109.657 232.56 110.191 229.68C110.724 226.747 111.044 223.52 111.151 220C111.257 216.48 111.311 212.8 111.311 208.96V188.64H97.0706V185.76H139.711V188.64H126.751V210.48C126.751 216.4 126.884 221.387 127.151 225.44C127.471 229.44 128.164 232.693 129.231 235.2C130.297 237.707 131.871 239.547 133.951 240.72C136.031 241.84 138.857 242.507 142.431 242.72V246C139.071 246 136.084 245.467 133.471 244.4C130.911 243.333 128.697 241.84 126.831 239.92C124.964 238 123.417 235.733 122.191 233.12C120.964 230.453 120.031 227.573 119.391 224.48C118.697 227.733 117.524 230.72 115.871 233.44C114.271 236.16 112.404 238.507 110.271 240.48C108.191 242.4 105.951 243.893 103.551 244.96C101.151 246.08 98.7773 246.64 96.4306 246.64H96.1106C93.9773 246.64 92.2173 245.92 90.8306 244.48C89.3906 243.093 88.6706 241.333 88.6706 239.2ZM181.231 184.64H241.471V207.6H224.911V187.6H181.231V184.64ZM248.271 216.72H174.511V213.76H248.271V216.72ZM178.111 225.2H241.551V248.96H226.591V247.04C223.337 247.413 219.951 247.707 216.431 247.92C212.964 248.187 209.497 248.4 206.031 248.56C202.617 248.72 199.231 248.827 195.871 248.88C192.564 248.933 189.417 248.96 186.431 248.96C183.337 248.96 181.791 247.467 181.791 244.48V227.52H178.111V225.2ZM198.591 245.68C200.404 245.68 202.431 245.653 204.671 245.6C206.964 245.547 209.337 245.44 211.791 245.28C214.244 245.173 216.724 245.013 219.231 244.8C221.791 244.587 224.244 244.347 226.591 244.08V228.32H196.831V244.08C196.831 244.773 196.991 245.2 197.311 245.36C197.684 245.573 198.111 245.68 198.591 245.68ZM326.94 183.68H350.22V186.16H346.06V242.64C346.06 243.387 346.273 243.867 346.7 244.08C347.127 244.293 347.633 244.4 348.22 244.4H350.78V246.88H326.94V244.4H329.66C330.407 244.4 330.86 244.187 331.02 243.76C331.233 243.333 331.34 242.933 331.34 242.56V186.16H326.94V183.68ZM276.46 215.68C276.46 208.907 276.913 203.467 277.82 199.36C278.727 195.253 280.113 192.107 281.98 189.92C283.9 187.68 286.3 186.213 289.18 185.52C292.06 184.773 295.473 184.4 299.42 184.4C303.367 184.4 306.753 184.773 309.58 185.52C312.407 186.213 314.7 187.68 316.46 189.92C318.273 192.107 319.607 195.253 320.46 199.36C321.313 203.467 321.74 208.907 321.74 215.68C321.74 222.453 321.313 227.893 320.46 232C319.66 236.107 318.353 239.253 316.54 241.44C314.727 243.627 312.407 245.067 309.58 245.76C306.753 246.507 303.367 246.88 299.42 246.88C295.527 246.88 292.113 246.507 289.18 245.76C286.3 245.067 283.927 243.627 282.06 241.44C280.193 239.253 278.78 236.107 277.82 232C276.913 227.893 276.46 222.453 276.46 215.68ZM301.58 244C302.753 244 303.713 243.813 304.46 243.44C305.26 243.067 305.9 242.56 306.38 241.92C306.86 241.28 307.207 240.587 307.42 239.84C307.633 239.04 307.74 238.24 307.74 237.44V193.84C307.74 193.04 307.633 192.267 307.42 191.52C307.207 190.72 306.86 190 306.38 189.36C305.9 188.72 305.26 188.213 304.46 187.84C303.713 187.467 302.753 187.28 301.58 187.28H297.18C296.007 187.28 295.02 187.467 294.22 187.84C293.473 188.213 292.86 188.72 292.38 189.36C291.9 190 291.553 190.72 291.34 191.52C291.127 192.267 291.02 193.04 291.02 193.84V237.44C291.02 238.24 291.127 239.04 291.34 239.84C291.553 240.587 291.9 241.28 292.38 241.92C292.86 242.56 293.473 243.067 294.22 243.44C295.02 243.813 296.007 244 297.18 244H301.58ZM423.289 187.6C423.289 192.133 423.903 195.867 425.129 198.8C426.356 201.733 428.089 204.053 430.329 205.76C432.569 207.467 435.209 208.667 438.249 209.36C441.343 210.053 444.729 210.427 448.409 210.48V213.44C444.889 213.44 441.369 213.173 437.849 212.64C434.329 212.053 431.049 211.147 428.009 209.92C425.023 208.64 422.436 207.013 420.249 205.04C418.063 203.013 416.516 200.587 415.609 197.76C414.756 200.587 413.209 203.013 410.969 205.04C408.783 207.013 406.169 208.64 403.129 209.92C400.143 211.147 396.863 212.053 393.289 212.64C389.769 213.173 386.249 213.44 382.729 213.44V210.48C386.356 210.427 389.689 210.08 392.729 209.44C395.823 208.747 398.489 207.573 400.729 205.92C402.969 204.267 404.703 202.053 405.929 199.28C407.209 196.453 407.849 192.853 407.849 188.48V186.32H403.529V184H423.289V187.6ZM410.649 236V222.56H378.729V219.6H452.489V222.56H425.369V236H410.649ZM381.929 229.92H402.329V244.4C402.329 244.72 402.409 245.067 402.569 245.44C402.729 245.813 403.156 246 403.849 246H436.329C437.716 246 438.649 245.493 439.129 244.48C439.663 243.52 439.823 242.427 439.609 241.2C439.556 240.72 439.556 240.107 439.609 239.36C439.716 238.613 439.929 237.893 440.249 237.2C440.623 236.507 441.129 235.92 441.769 235.44C442.463 234.96 443.343 234.72 444.409 234.72C446.543 234.72 448.009 235.333 448.809 236.56C449.609 237.733 450.036 239.2 450.089 240.96C450.089 241.813 449.903 242.693 449.529 243.6C449.209 244.56 448.569 245.44 447.609 246.24C446.703 247.04 445.449 247.68 443.849 248.16C442.249 248.693 440.223 248.96 437.769 248.96H390.329C387.236 248.96 385.689 247.467 385.689 244.48V232.24H381.929V229.92ZM508.249 183.68H531.529V186.16H527.369V200.48H537.929V204.16H527.369V226.8H512.649V186.16H508.249V183.68ZM461.689 185.68H502.729V192.32C502.729 196.373 502.089 200.16 500.809 203.68C499.583 207.2 497.689 210.187 495.129 212.64C493.156 214.56 490.756 216.187 487.929 217.52C485.103 218.8 482.089 219.84 478.889 220.64C475.689 221.44 472.409 222 469.049 222.32C465.743 222.587 462.596 222.693 459.609 222.64V219.76C462.276 219.707 464.809 219.493 467.209 219.12C469.663 218.693 471.929 218.053 474.009 217.2C476.089 216.347 477.956 215.227 479.609 213.84C481.316 212.453 482.756 210.72 483.929 208.64C484.409 207.84 484.836 206.907 485.209 205.84C485.583 204.773 485.903 203.467 486.169 201.92C486.489 200.373 486.703 198.533 486.809 196.4C486.969 194.267 487.049 191.68 487.049 188.64H461.689V185.68ZM461.689 226.8H486.009V229.12H481.449V244.4C481.449 244.72 481.529 245.067 481.689 245.44C481.849 245.813 482.276 246 482.969 246H517.129C518.676 246 519.663 245.44 520.089 244.32C520.516 243.253 520.623 242.107 520.409 240.88C520.356 240.4 520.356 239.813 520.409 239.12C520.516 238.373 520.729 237.68 521.049 237.04C521.423 236.4 521.929 235.867 522.569 235.44C523.263 234.96 524.143 234.72 525.209 234.72C527.343 234.72 528.809 235.333 529.609 236.56C530.409 237.733 530.836 239.2 530.889 240.96C530.889 241.813 530.703 242.693 530.329 243.6C530.009 244.56 529.369 245.44 528.409 246.24C527.503 247.04 526.249 247.68 524.649 248.16C523.049 248.693 521.023 248.96 518.569 248.96H469.929C466.836 248.96 465.289 247.467 465.289 244.48V229.12H461.689V226.8Z" fill="white"/>
<path d="M52.9759 273.68H76.2559V276.16H72.0959V293.44H82.6559V296.72H72.0959V332.64C72.0959 333.387 72.3093 333.867 72.7359 334.08C73.1626 334.293 73.6693 334.4 74.2559 334.4H76.8159V336.88H52.9759V334.4H55.6959C56.4426 334.4 56.8959 334.187 57.0559 333.76C57.2693 333.333 57.3759 332.933 57.3759 332.56V276.16H52.9759V273.68ZM1.69594 329.28C1.69594 328.267 1.8826 327.307 2.25594 326.4C2.62927 325.493 3.13594 324.72 3.77594 324.08C4.46927 323.387 5.26927 322.853 6.17594 322.48C7.0826 322.107 8.0426 321.92 9.05594 321.92C10.0693 321.92 11.0293 322.107 11.9359 322.48C12.8426 322.853 13.6159 323.387 14.2559 324.08C14.9493 324.72 15.4826 325.493 15.8559 326.4C16.2293 327.307 16.4159 328.267 16.4159 329.28C16.4159 330.613 16.0693 331.893 15.3759 333.12C19.2693 332.427 22.2293 330.987 24.2559 328.8C26.3359 326.56 27.8293 323.867 28.7359 320.72C29.6426 317.573 30.1493 314.107 30.2559 310.32C30.3626 306.48 30.4159 302.613 30.4159 298.72V278.64H14.0959C13.0826 278.64 12.2293 278.853 11.5359 279.28C10.8426 279.707 10.6026 280.56 10.8159 281.84C11.0293 283.067 10.7093 284.133 9.85594 285.04C9.0026 285.947 7.7226 286.4 6.01594 286.4C4.30927 286.4 3.10927 285.92 2.41594 284.96C1.7226 283.947 1.37594 282.747 1.37594 281.36C1.37594 279.973 1.98927 278.693 3.21594 277.52C4.49594 276.293 6.4426 275.68 9.05594 275.68H45.8559V303.28C45.8559 308.293 44.8959 312.827 42.9759 316.88C41.0559 320.933 38.4426 324.4 35.1359 327.28C31.8826 330.16 28.0426 332.4 23.6159 334C19.2426 335.6 14.6026 336.427 9.69594 336.48C8.57594 336.48 7.50927 336.293 6.49594 335.92C5.53594 335.547 4.6826 335.04 3.93594 334.4C3.2426 333.76 2.6826 332.987 2.25594 332.08C1.8826 331.227 1.69594 330.293 1.69594 329.28ZM132.976 273.68H156.256V276.16H152.096V288.08H162.656V291.76H152.096V308.8H137.376V276.16H132.976V273.68ZM128.656 278.88H115.696V285.04C115.696 289.093 116.149 292.373 117.056 294.88C117.963 297.387 119.189 299.36 120.736 300.8C122.283 302.24 124.096 303.227 126.176 303.76C128.309 304.293 130.576 304.64 132.976 304.8V307.76C129.989 307.76 127.163 307.493 124.496 306.96C121.883 306.427 119.509 305.52 117.376 304.24C115.243 302.907 113.403 301.173 111.856 299.04C110.309 296.907 109.136 294.24 108.336 291.04C107.643 294.347 106.389 297.12 104.576 299.36C102.763 301.6 100.683 303.413 98.3359 304.8C95.9893 306.133 93.5093 307.093 90.8959 307.68C88.2826 308.213 85.8026 308.453 83.4559 308.4V305.44C86.7093 305.44 89.4026 304.88 91.5359 303.76C93.7226 302.64 95.4559 301.147 96.7359 299.28C98.0159 297.413 98.9226 295.28 99.4559 292.88C99.9893 290.427 100.256 287.84 100.256 285.12V278.88H86.0159V276H128.656V278.88ZM89.7759 325.68C89.7759 322.64 90.7893 320.187 92.8159 318.32C94.8959 316.453 97.5359 315.013 100.736 314C103.989 312.987 107.563 312.32 111.456 312C115.349 311.627 119.136 311.44 122.816 311.44C126.496 311.44 130.203 311.627 133.936 312C137.669 312.32 141.029 312.987 144.016 314C147.056 315.013 149.509 316.453 151.376 318.32C153.296 320.187 154.256 322.64 154.256 325.68C154.256 328.72 153.296 331.147 151.376 332.96C149.509 334.827 147.056 336.24 144.016 337.2C141.029 338.213 137.669 338.88 133.936 339.2C130.203 339.52 126.496 339.68 122.816 339.68C119.136 339.68 115.349 339.52 111.456 339.2C107.563 338.88 103.989 338.213 100.736 337.2C97.5359 336.24 94.8959 334.827 92.8159 332.96C90.7893 331.147 89.7759 328.72 89.7759 325.68ZM104.656 325.68C104.656 327.813 105.136 329.6 106.096 331.04C107.056 332.427 108.336 333.547 109.936 334.4C111.589 335.253 113.509 335.84 115.696 336.16C117.936 336.533 120.309 336.72 122.816 336.72C125.323 336.72 127.589 336.533 129.616 336.16C131.643 335.84 133.376 335.253 134.816 334.4C136.256 333.547 137.376 332.427 138.176 331.04C138.976 329.6 139.376 327.813 139.376 325.68C139.376 323.493 138.976 321.68 138.176 320.24C137.376 318.8 136.256 317.653 134.816 316.8C133.376 315.893 131.643 315.28 129.616 314.96C127.589 314.587 125.323 314.4 122.816 314.4C120.309 314.4 117.936 314.587 115.696 314.96C113.509 315.28 111.589 315.893 109.936 316.8C108.336 317.653 107.056 318.8 106.096 320.24C105.136 321.68 104.656 323.493 104.656 325.68ZM191.885 274.64H252.045V303.68H235.485V293.44H191.885V290.48H235.485V277.6H191.885V274.64ZM259.325 312H185.565V309.04H259.325V312ZM188.765 318.48H209.165V334.4C209.165 334.72 209.245 335.067 209.405 335.44C209.565 335.813 209.992 336 210.685 336H241.565C242.952 336 243.885 335.493 244.365 334.48C244.899 333.52 245.059 332.427 244.845 331.2C244.792 330.72 244.792 330.107 244.845 329.36C244.952 328.613 245.165 327.893 245.485 327.2C245.859 326.507 246.365 325.92 247.005 325.44C247.699 324.96 248.579 324.72 249.645 324.72C251.779 324.72 253.245 325.333 254.045 326.56C254.845 327.733 255.272 329.2 255.325 330.96C255.325 331.813 255.139 332.693 254.765 333.6C254.445 334.56 253.805 335.44 252.845 336.24C251.939 337.04 250.685 337.68 249.085 338.16C247.485 338.693 245.459 338.96 243.005 338.96H197.165C194.072 338.96 192.525 337.467 192.525 334.48V320.8H188.765V318.48ZM338.395 273.68H361.675V276.16H357.515V307.52H342.795V298.32H327.515V295.04H342.795V285.44H330.635C330.048 287.733 329.195 289.867 328.075 291.84C327.008 293.76 325.675 295.493 324.075 297.04C322.101 298.96 319.701 300.587 316.875 301.92C314.048 303.2 311.035 304.24 307.835 305.04C304.635 305.84 301.355 306.4 297.995 306.72C294.688 306.987 291.541 307.093 288.555 307.04V304.16C294.901 303.947 300.021 302.933 303.915 301.12C307.861 299.307 310.901 296.747 313.035 293.44C313.568 292.64 314.021 291.787 314.395 290.88C314.768 289.973 315.061 288.96 315.275 287.84C315.541 286.667 315.728 285.333 315.835 283.84C315.941 282.347 315.995 280.613 315.995 278.64H290.635V275.68H331.675V276.72C331.675 277.68 331.621 278.613 331.515 279.52C331.461 280.373 331.381 281.253 331.275 282.16H342.795V276.16H338.395V273.68ZM354.795 324.8C356.928 324.8 358.395 325.413 359.195 326.64C359.995 327.813 360.421 329.28 360.475 331.04C360.475 331.893 360.288 332.773 359.915 333.68C359.595 334.64 358.955 335.493 357.995 336.24C357.088 337.04 355.835 337.68 354.235 338.16C352.635 338.693 350.608 338.96 348.155 338.96H300.075C296.981 338.96 295.435 337.467 295.435 334.48V322.48H341.995V314H295.195V311.04H357.515V322.4C356.555 322.08 355.568 321.92 354.555 321.92C353.328 321.92 352.181 322.213 351.115 322.8C350.101 323.333 349.328 324.213 348.795 325.44H310.955V334.4C310.955 334.72 311.035 335.067 311.195 335.44C311.355 335.813 311.781 336 312.475 336H346.715C348.261 336 349.248 335.467 349.675 334.4C350.101 333.333 350.208 332.187 349.995 330.96C349.941 330.48 349.941 329.893 349.995 329.2C350.101 328.453 350.315 327.76 350.635 327.12C351.008 326.48 351.515 325.947 352.155 325.52C352.848 325.04 353.728 324.8 354.795 324.8ZM399.115 297.6H407.835V276H404.715V273.68H420.475V332.96C420.528 333.547 420.768 333.92 421.195 334.08C421.621 334.293 422.101 334.4 422.635 334.4H423.755C424.395 334.293 424.795 334.027 424.955 333.6C425.115 333.227 425.195 332.88 425.195 332.56V276H422.555V273.68H441.275V276H437.835V332.64C437.835 333.387 438.048 333.867 438.475 334.08C438.901 334.293 439.408 334.4 439.995 334.4H441.755V336.88H404.235V334.4H406.155C406.901 334.4 407.355 334.187 407.515 333.76C407.728 333.333 407.835 332.933 407.835 332.56V301.28H399.115V297.6ZM364.795 330.88C364.795 329.28 365.328 327.92 366.395 326.8C367.515 325.68 368.901 325.12 370.555 325.12C372.155 325.12 373.515 325.68 374.635 326.8C375.755 327.92 376.315 329.28 376.315 330.88V331.36C377.381 329.92 378.181 328.16 378.715 326.08C379.248 323.947 379.621 321.6 379.835 319.04C380.048 316.427 380.128 313.627 380.075 310.64C380.075 307.653 380.075 304.56 380.075 301.36V278.64H370.235V275.76H403.275V278.64H394.795V305.28C394.795 306.293 394.768 307.6 394.715 309.2C394.715 310.747 394.768 312.453 394.875 314.32C394.981 316.133 395.168 318.027 395.435 320C395.701 321.92 396.128 323.76 396.715 325.52C397.301 327.28 398.075 328.88 399.035 330.32C400.048 331.707 401.301 332.8 402.795 333.6V336.64C400.608 336.107 398.688 335.067 397.035 333.52C395.381 332.027 393.941 330.24 392.715 328.16C391.488 326.08 390.475 323.787 389.675 321.28C388.875 318.773 388.235 316.24 387.755 313.68C387.061 316.88 386.101 319.867 384.875 322.64C383.701 325.36 382.368 327.76 380.875 329.84C379.381 331.867 377.781 333.467 376.075 334.64C374.368 335.867 372.661 336.533 370.955 336.64H370.475C368.875 336.64 367.515 336.08 366.395 334.96C365.328 333.893 364.795 332.533 364.795 330.88ZM499.384 276.48H475.784V273.6H499.384V276.48ZM525.064 273.68H544.184V276H540.744V332.64C540.744 333.387 540.957 333.867 541.384 334.08C541.811 334.293 542.317 334.4 542.904 334.4H544.664V336.88H506.904V334.4H508.824C509.571 334.4 510.024 334.187 510.184 333.76C510.397 333.333 510.504 332.933 510.504 332.56V315.12H505.624C505.517 319.813 505.037 323.6 504.184 326.48C503.384 329.307 502.237 331.493 500.744 333.04C499.304 334.587 497.517 335.6 495.384 336.08C493.251 336.613 490.851 336.88 488.184 336.88C485.464 336.88 482.984 336.587 480.744 336C478.504 335.467 476.611 334.347 475.064 332.64C473.517 330.933 472.317 328.507 471.464 325.36C470.611 322.213 470.184 318.053 470.184 312.88C470.184 307.707 470.611 303.547 471.464 300.4C472.317 297.2 473.517 294.747 475.064 293.04C476.611 291.28 478.504 290.107 480.744 289.52C482.984 288.933 485.464 288.64 488.184 288.64C489.997 288.64 491.677 288.773 493.224 289.04C494.771 289.253 496.184 289.68 497.464 290.32C498.797 290.907 499.944 291.76 500.904 292.88C501.917 293.947 502.771 295.333 503.464 297.04H510.504V276H507.384V273.68H523.144V332.96C523.197 333.493 523.384 333.84 523.704 334C524.024 334.213 524.397 334.347 524.824 334.4H526.664C527.304 334.293 527.704 334.027 527.864 333.6C528.024 333.227 528.104 332.88 528.104 332.56V276H525.064V273.68ZM505.224 284.88H469.224V282H505.224V284.88ZM489.064 334C490.557 334 491.597 333.493 492.184 332.48C492.771 331.52 493.064 330.24 493.064 328.64V296.88C493.064 295.28 492.771 294 492.184 293.04C491.597 292.027 490.557 291.52 489.064 291.52H487.304C485.757 291.52 484.691 292.027 484.104 293.04C483.571 294 483.304 295.28 483.304 296.88V328.64C483.304 330.24 483.571 331.52 484.104 332.48C484.691 333.493 485.757 334 487.304 334H489.064ZM504.584 300.72C504.904 302.16 505.144 303.76 505.304 305.52C505.517 307.28 505.651 309.253 505.704 311.44H510.504V300.72H504.584ZM604.664 273.68H623.384V276H620.264V312.32H607.624V292.64H602.184V312.32H589.544V276H586.584V273.68H602.184V288.96H607.624V276H604.664V273.68ZM550.504 276H583.544V278.96H568.104V291.28H583.144V294.24H568.104V307.28H585.384V310.24H553.544V278.32H550.504V276ZM604.104 339.2V319.84H554.504V316.88H620.264V339.2H604.104Z" fill="#FFA2D1"/>
<path d="M317.706 24.3817C290.286 71.8728 266.111 30 320.952 30C266.116 30 290.291 -11.8728 317.706 35.6183C290.286 -11.8728 338.635 -11.8728 311.22 35.6183C338.64 -11.8728 362.814 30 307.974 30C362.81 30 338.635 71.8728 311.22 24.3817C338.64 71.8728 290.291 71.8728 317.706 24.3817Z" fill="white"/>
</svg>
