<svg width="415" height="100" viewBox="0 0 415 100" fill="none" xmlns="http://www.w3.org/2000/svg">
<path d="M56.1064 34L56.0654 31.293L66.1963 20.6289C69.7031 16.8965 71.3848 14.8867 71.4053 12.1387C71.3848 9.08301 68.8418 7.11426 65.499 7.09375C61.9512 7.11426 59.7363 9.34961 59.7158 12.6719H56.2295C56.1885 7.42188 60.249 3.89453 65.6221 3.89453C71.0156 3.89453 74.8301 7.52441 74.8506 12.1387C74.8301 15.4609 73.292 18.0449 68.042 23.459L61.2334 30.4727V30.7188H75.3838V34H56.1064ZM97.8604 4.18164V20.957H81.0029V4.18164H97.8604ZM84.1611 18.373H94.7432V6.80664H84.1611V18.373ZM85.1455 36.543V25.0586H88.3037V33.8359H109.632V36.543H85.1455ZM104.751 27.6016V0.859375H107.95V11.9746H113.446V14.6816H107.95V27.6016H104.751ZM145.808 0.900391V28.5859H142.567V24.8125H135.021V22.4746H142.567V0.900391H145.808ZM115.538 17.7988C122.326 17.7578 131.473 17.6963 139.286 16.7324L139.491 19.0703C136.251 19.583 132.826 19.9111 129.483 20.1162V27.3145H126.243V20.2803C122.552 20.4238 119.045 20.4238 115.989 20.4238L115.538 17.7988ZM118.491 8.73438C118.471 4.89941 122.121 2.37695 127.515 2.37695C132.867 2.37695 136.518 4.89941 136.538 8.73438C136.518 12.6309 132.867 15.0508 127.515 15.0508C122.121 15.0508 118.471 12.6309 118.491 8.73438ZM120.788 36.543V25.8789H124.028V33.8359H146.71V36.543H120.788ZM121.567 8.73438C121.526 11.1133 123.946 12.6514 127.515 12.6719C130.98 12.6514 133.441 11.1133 133.462 8.73438C133.441 6.39648 130.98 4.79688 127.515 4.83789C123.946 4.79688 121.526 6.39648 121.567 8.73438ZM192.647 0.859375V37.4043H189.407V0.859375H192.647ZM163.937 16.4043C163.957 8.65234 167.812 3.70996 173.247 3.68945C178.661 3.70996 182.578 8.65234 182.558 16.4043C182.578 24.1768 178.661 29.0986 173.247 29.0781C167.812 29.0986 163.957 24.1768 163.937 16.4043ZM167.054 16.4043C167.054 22.3311 169.597 26.2275 173.247 26.207C176.918 26.2275 179.44 22.3311 179.44 16.4043C179.44 10.4775 176.918 6.58105 173.247 6.56055C169.597 6.58105 167.054 10.4775 167.054 16.4043ZM211.063 6.76562C211.063 11.7285 214.837 16.2812 220.128 18.0859L218.364 20.6289C214.345 19.1523 211.166 16.1377 209.566 12.3232C208.008 16.6504 204.747 19.9932 200.481 21.6543L198.759 19.0703C204.214 17.04 207.885 12.1592 207.905 6.51953V2.74609H211.063V6.76562ZM203.599 30.5957C203.619 26.4326 208.192 23.9922 215.698 23.9922C223.184 23.9922 227.716 26.4326 227.716 30.5957C227.716 34.8408 223.184 37.2402 215.698 37.2402C208.192 37.2402 203.619 34.8408 203.599 30.5957ZM206.839 30.5957C206.798 33.1797 210.202 34.6768 215.698 34.6973C221.215 34.6768 224.578 33.1797 224.599 30.5957C224.578 28.1143 221.215 26.5762 215.698 26.5762C210.202 26.5762 206.798 28.1143 206.839 30.5957ZM224.188 23.0488V0.859375H227.388V10.375H232.884V13.082H227.388V23.0488H224.188ZM274.556 3.23828V6.4375C274.556 9.88281 274.556 13.6768 273.51 18.9062H278.944V21.5723H263.892V37.4043H260.651V21.5723H245.722V18.9062H270.249C271.356 13.6562 271.356 9.8418 271.356 6.4375V5.9043H249.905V3.23828H274.556ZM313.274 0.859375V37.3223H310.157V18.0039H305.071V35.4766H301.995V1.63867H305.071V15.3379H310.157V0.859375H313.274ZM283.374 27.5195V5.125H297.319V27.5195H283.374ZM286.409 24.9355H294.284V7.70898H286.409V24.9355ZM341.821 10.6621C341.801 17.3271 346.333 24.0127 351.706 26.4531L349.737 28.9961C345.574 26.9863 341.985 22.6592 340.242 17.4707C338.561 22.9668 334.972 27.5811 330.706 29.7344L328.655 27.0273C334.09 24.5459 338.581 17.5732 338.622 10.6621V4.01758H341.821V10.6621ZM355.685 37.4043V0.859375H358.925V37.4043H355.685ZM30.3486 71.0625V75.1641H19.9307V77.625H34.3271V81.7676H0.28418V77.625H14.6807V75.1641H4.5498V63.6797H30.0615V67.8633H9.75879V71.0625H30.3486ZM4.22168 87.6328V83.7773H30.1846V93.293H9.38965V95.5078H31.1689V99.4863H4.2627V89.6426H25.0166V87.6328H4.22168ZM70.626 80.127V84.2695H56.1885V86.7715C62.7305 87.2227 66.5654 89.4785 66.5654 93.252C66.5654 97.4561 61.6846 99.7939 53.5635 99.7734C45.3809 99.7939 40.5205 97.4561 40.5205 93.252C40.5205 89.4785 44.376 87.2021 50.9795 86.7715V84.2695H36.583V80.127H70.626ZM39.5771 67.8633V63.6797H67.5908V67.8633H62.71V73.5645H67.3447V77.748H39.8232V73.5645H44.417V67.8633H39.5771ZM45.7705 93.252C45.75 95.0566 48.3955 95.918 53.5635 95.918C58.6289 95.918 61.2539 95.0566 61.2744 93.252C61.2539 91.4678 58.6289 90.6064 53.5635 90.5859C48.3955 90.6064 45.75 91.4678 45.7705 93.252ZM49.667 73.5645H57.46V67.8633H49.667V73.5645ZM104.136 62.4492V99.8555H98.8447V62.4492H104.136ZM73.9893 78.3633C73.9688 70.2217 78.1318 65.0742 83.874 65.0742C89.4932 65.0742 93.6768 70.2217 93.6768 78.3633C93.6768 86.5664 89.4932 91.6934 83.874 91.6934C78.1318 91.6934 73.9688 86.5664 73.9893 78.3633ZM79.0342 78.3633C79.0137 83.9209 80.9619 86.9561 83.874 86.9355C86.7041 86.9561 88.6113 83.9209 88.6318 78.3633C88.6113 72.8262 86.7041 69.791 83.874 69.791C80.9619 69.791 79.0137 72.8262 79.0342 78.3633ZM149.171 72.5391V76.6816H123.249V63.4336H128.499V72.5391H149.171ZM118.86 84.1465V80.0449H152.985V84.1465H138.917V90.75H133.708V84.1465H118.86ZM122.88 99.1172V87.8789H128.089V94.9336H149.458V99.1172H122.88ZM168.899 70.8984C168.879 77.584 171.729 84.3311 177.718 87.2227L174.56 91.4062C170.561 89.417 167.854 85.7256 166.315 81.2344C164.675 86.0537 161.804 90.0117 157.579 92.1035L154.339 87.8789C160.676 84.9668 163.649 77.8301 163.649 70.8984V65.3203H168.899V70.8984ZM179.358 99.7734V62.4492H184.608V76.8457H190.104V81.2754H184.608V99.7734H179.358ZM221.071 62.4902V71.3086H226.116V75.6562H221.071V84.6387H215.821V62.4902H221.071ZM192.771 68.4785V64.2949H209.915V75.6562H198.021V79.0195C204.173 78.9785 208.356 78.7939 213.114 77.9531L213.688 82.0547C208.336 83.1006 203.537 83.2852 195.97 83.2852H192.812V71.7188H204.829V68.4785H192.771ZM196.626 99.3633V86.1973H221.071V99.3633H196.626ZM201.753 95.1797H215.944V90.2988H201.753V95.1797ZM243.671 66.3047V76.0254H247.403V62.9824H252.325V98.0508H247.403V80.209H243.671V90.3809H228.823V66.3047H243.671ZM233.704 86.2793H238.79V70.4473H233.704V86.2793ZM255.114 99.7734V62.4492H260.118V99.7734H255.114ZM295.31 62.4492V99.8555H290.019V62.4492H295.31ZM265.163 78.3633C265.143 70.2217 269.306 65.0742 275.048 65.0742C280.667 65.0742 284.851 70.2217 284.851 78.3633C284.851 86.5664 280.667 91.6934 275.048 91.6934C269.306 91.6934 265.143 86.5664 265.163 78.3633ZM270.208 78.3633C270.188 83.9209 272.136 86.9561 275.048 86.9355C277.878 86.9561 279.785 83.9209 279.806 78.3633C279.785 72.8262 277.878 69.791 275.048 69.791C272.136 69.791 270.188 72.8262 270.208 78.3633ZM319.509 66.0176C319.488 77.502 316.392 87.1201 302.938 94.1133L300.067 90.1758C305.974 87.0791 309.665 83.6133 311.818 79.4707L300.97 80.4551L300.272 76.0254L313.438 75.2461C313.869 73.667 314.136 71.9854 314.279 70.2012H302.282V66.0176H319.509ZM319.427 81.0703V76.8047H326.604V62.4492H331.813V99.7734H326.604V81.0703H319.427ZM380.376 79.6348V83.8594H346.333V79.6348H380.376ZM347.851 74.1797C354.864 73.5439 358.699 70.9805 359.561 68.3555H349.45V64.1719H377.3V68.3555H367.107C367.948 70.96 371.763 73.5439 378.94 74.1797L377.095 78.2812C370.04 77.6045 365.303 74.9385 363.313 71.3291C361.345 74.9385 356.648 77.6045 349.573 78.2812L347.851 74.1797ZM350.229 92.8828C350.229 88.4941 355.151 85.9512 363.313 85.9512C371.414 85.9512 376.274 88.4941 376.315 92.8828C376.274 97.292 371.414 99.7939 363.313 99.7734C355.151 99.7939 350.229 97.292 350.229 92.8828ZM355.562 92.8828C355.541 94.8105 358.146 95.7129 363.313 95.7129C368.379 95.7129 371.045 94.8105 371.065 92.8828C371.045 90.9346 368.379 90.0117 363.313 90.0117C358.146 90.0117 355.541 90.9346 355.562 92.8828ZM414.091 62.4492V84.5977H408.882V75.7793H403.058V71.5547H408.882V62.4492H414.091ZM382.386 80.4961C388.497 78.4453 391.286 73.5645 391.409 68.8887H383.903V64.7051H404.165V68.8887H396.741C396.844 73.2363 399.51 77.625 405.313 79.5527L402.729 83.6543C398.628 82.3213 395.777 79.6143 394.157 76.2715C392.517 80.0654 389.522 83.1211 385.093 84.6387L382.386 80.4961ZM388.497 92.6367C388.497 88.1045 393.378 85.4385 401.335 85.418C409.312 85.4385 414.193 88.1045 414.214 92.6367C414.193 97.1689 409.312 99.8145 401.335 99.8145C393.378 99.8145 388.497 97.1689 388.497 92.6367ZM393.706 92.6367C393.706 94.7695 396.393 95.8359 401.335 95.8359C406.298 95.8359 408.984 94.7695 409.005 92.6367C408.984 90.4834 406.298 89.417 401.335 89.4375C396.393 89.417 393.706 90.4834 393.706 92.6367Z" fill="white"/>
</svg>
