<svg width="581" height="106" viewBox="0 0 581 106" fill="none" xmlns="http://www.w3.org/2000/svg">
<path d="M2.90625 15.6406C4.24219 15.6406 5.32031 14.5625 5.32031 13.2266C5.32031 11.9141 4.24219 10.8359 2.90625 10.8359C1.59375 10.8359 0.515625 11.9141 0.515625 13.2266C0.515625 14.5625 1.59375 15.6406 2.90625 15.6406ZM39.7734 1.0625H37.9922V21.8984H39.7734V1.0625ZM21.6094 15.1719L21.8438 16.7422C24.5625 16.7539 28.9336 16.6484 32.2266 16.0391L32.1094 14.6797C31.418 14.7734 30.668 14.8438 29.8828 14.9141V5.25781H31.6406V3.73438H22.0547V5.25781H23.8125V15.1602C23.0039 15.1719 22.2539 15.1719 21.6094 15.1719ZM25.5 15.125V5.25781H28.1719V15.0195C27.2812 15.0664 26.3672 15.1016 25.5 15.125ZM31.0312 10.6484H33.9375V20.7969H35.6953V1.57812H33.9375V8.98438H31.0312V10.6484ZM59.7656 1.0625H57.9141V21.9453H59.7656V1.0625ZM43.3594 9.94531C43.3711 14.3867 45.5742 17.1992 48.6797 17.1875C51.7734 17.1992 54.0117 14.3867 54 9.94531C54.0117 5.51562 51.7734 2.69141 48.6797 2.67969C45.5742 2.69141 43.3711 5.51562 43.3594 9.94531ZM45.1406 9.94531C45.1406 6.55859 46.5938 4.33203 48.6797 4.32031C50.7773 4.33203 52.2188 6.55859 52.2188 9.94531C52.2188 13.332 50.7773 15.5586 48.6797 15.5469C46.5938 15.5586 45.1406 13.332 45.1406 9.94531ZM66.0234 2.39844H64.2891V12.1016H72.3984V2.39844H70.6641V5.70312H66.0234V2.39844ZM66.0234 10.5781V7.17969H70.6641V10.5781H66.0234ZM66.9844 16.3672H79.2188V21.8984H81.0234V14.8438H66.9844V16.3672ZM74.7656 13.4609H76.5V8.02344H79.2656V13.5781H81.0234V1.08594H79.2656V6.5H76.5V1.48438H74.7656V13.4609ZM107.906 1.0625H106.148V9.45312H103.078V1.53125H101.391V20.8203H103.078V10.9766H106.148V21.8984H107.906V1.0625ZM90.8672 16.7422H92.2031C95.4023 16.7305 97.5234 16.6484 100.031 16.1328L99.8672 14.5859C97.5469 15.0547 95.5664 15.1602 92.6953 15.1719V5.14062H98.6719V3.61719H90.8672V16.7422ZM117.797 4.4375V2.14062H115.992V4.29688C115.98 7.51953 113.883 10.3086 110.766 11.4688L111.75 12.9453C114.188 11.9961 116.051 10.0859 116.941 7.61328C117.855 9.79297 119.672 11.5156 121.969 12.3594L122.977 10.9062C119.953 9.875 117.797 7.27344 117.797 4.4375ZM113.531 18.0547C113.543 20.4805 116.156 21.8516 120.445 21.8516C124.723 21.8516 127.312 20.4805 127.312 18.0547C127.312 15.6758 124.723 14.2812 120.445 14.2812C116.156 14.2812 113.543 15.6758 113.531 18.0547ZM115.383 18.0547C115.359 16.6367 117.305 15.7578 120.445 15.7578C123.598 15.7578 125.52 16.6367 125.531 18.0547C125.52 19.5312 123.598 20.3867 120.445 20.3984C117.305 20.3867 115.359 19.5312 115.383 18.0547ZM125.297 13.7422H127.125V8.04688H130.266V6.5H127.125V1.0625H125.297V13.7422ZM138.539 4.4375V2.14062H136.734V4.29688C136.723 7.51953 134.625 10.3086 131.508 11.4688L132.492 12.9453C134.93 11.9961 136.793 10.0859 137.684 7.61328C138.598 9.79297 140.414 11.5156 142.711 12.3594L143.719 10.9062C140.695 9.875 138.539 7.27344 138.539 4.4375ZM134.273 18.0547C134.285 20.4805 136.898 21.8516 141.188 21.8516C145.465 21.8516 148.055 20.4805 148.055 18.0547C148.055 15.6758 145.465 14.2812 141.188 14.2812C136.898 14.2812 134.285 15.6758 134.273 18.0547ZM136.125 18.0547C136.102 16.6367 138.047 15.7578 141.188 15.7578C144.34 15.7578 146.262 16.6367 146.273 18.0547C146.262 19.5312 144.34 20.3867 141.188 20.3984C138.047 20.3867 136.102 19.5312 136.125 18.0547ZM146.039 13.7422H147.867V8.04688H151.008V6.5H147.867V1.0625H146.039V13.7422ZM171.305 11.1406H152.32V12.6641H160.898V15.125H154.641V21.6172H168.984V15.125H162.703V12.6641H171.305V11.1406ZM154.102 3.26562H157.312V7.64844H154.172V9.17188H169.43V7.64844H166.289V3.26562H169.5V1.74219H154.102V3.26562ZM156.469 20.1172V16.5781H167.18V20.1172H156.469ZM159.141 7.64844V3.26562H164.461V7.64844H159.141ZM182.555 1.4375C177.902 1.4375 175.172 2.71484 175.172 5.02344C175.172 7.39062 177.902 8.66797 182.555 8.67969C187.184 8.66797 189.902 7.39062 189.914 5.02344C189.902 2.71484 187.184 1.4375 182.555 1.4375ZM173.062 11.5859H192.047V10.0859H173.062V11.5859ZM175.359 14.7969H187.805V16.6953H175.406V21.6641H190.242V20.2109H177.234V18.0547H189.609V13.3906H175.359V14.7969ZM177.094 5.02344C177.07 3.65234 179.098 2.83203 182.555 2.82031C186.012 2.83203 188.027 3.65234 188.039 5.02344C188.027 6.47656 186.012 7.27344 182.555 7.27344C179.098 7.27344 177.07 6.47656 177.094 5.02344ZM216.656 2H209.602V3.5H214.852C214.84 4.75391 214.758 6.53516 214.242 8.98438L216.047 9.21875C216.656 6.32422 216.656 4.16797 216.656 2.89062V2ZM199.852 12.5H218.812V10.9766H210.656V6.78125H208.828V10.9766H199.852V12.5ZM201.492 3.5H206.039C206.016 4.70703 205.863 6.51172 205.125 8.98438L206.883 9.24219C207.832 6.16016 207.832 3.91016 207.844 2.70312V2H201.492V3.5ZM201.914 16.2266H214.57V21.7812H216.445V14.7266H201.914V16.2266ZM242.859 1.08594H241.008V15.0547H242.859V8.9375H245.977V7.39062H242.859V1.08594ZM226.5 12.9219L226.711 14.4219C230.379 14.4336 235.359 14.3984 239.883 13.6016L239.719 12.2656C237.891 12.5352 235.922 12.6992 233.977 12.793V11.3281C236.391 11.0938 237.914 9.98047 237.938 8.25781C237.914 6.35938 235.992 5.1875 233.039 5.1875C230.109 5.1875 228.152 6.35938 228.164 8.25781C228.152 9.99219 229.723 11.1055 232.148 11.3281V12.8633C230.109 12.9219 228.164 12.9219 226.5 12.9219ZM227.016 4.39062H239.086V2.98438H233.977V0.898438H232.148V2.98438H227.016V4.39062ZM229.055 17.5625H241.008V21.8984H242.859V16.0859H229.055V17.5625ZM229.922 8.25781C229.91 7.15625 231.117 6.47656 233.039 6.5C234.961 6.47656 236.18 7.15625 236.18 8.25781C236.18 9.34766 234.961 10.0859 233.039 10.0625C231.117 10.0859 229.91 9.34766 229.922 8.25781ZM264.539 1.08594H262.711V16.3203H264.539V1.08594ZM247.828 7.64844C247.816 10.6836 250.172 12.793 253.289 12.7812C256.406 12.793 258.738 10.6836 258.75 7.64844C258.738 4.64844 256.406 2.55078 253.289 2.53906C250.172 2.55078 247.816 4.64844 247.828 7.64844ZM249.633 7.64844C249.609 5.60938 251.18 4.15625 253.289 4.15625C255.363 4.15625 256.945 5.60938 256.945 7.64844C256.945 9.72266 255.363 11.1641 253.289 11.1641C251.18 11.1641 249.609 9.72266 249.633 7.64844ZM251.086 21.4531H265.195V19.9062H252.914V14.7734H251.086V21.4531ZM278.484 4.67188H274.195V1.69531H272.367V4.67188H268.031V6.17188H278.484V4.67188ZM268.781 12.3125C268.781 15.1133 270.668 17.082 273.258 17.0938C275.883 17.082 277.758 15.1133 277.781 12.3125C277.758 9.54688 275.883 7.58984 273.258 7.57812C270.668 7.58984 268.781 9.54688 268.781 12.3125ZM270.422 12.3125C270.422 10.4844 271.605 9.14844 273.258 9.125C274.922 9.14844 276.141 10.4844 276.141 12.3125C276.141 14.1641 274.922 15.4883 273.258 15.4766C271.605 15.4883 270.422 14.1641 270.422 12.3125ZM279.562 20.8672H281.297V11.375H284.062V21.8984H285.82V1.0625H284.062V9.85156H281.297V1.57812H279.562V20.8672ZM299.344 4.01562V3.875H306V2.375H290.602V3.875H297.281V4.01562C297.27 6.80469 293.566 9.17188 289.945 9.71094L290.672 11.1641C293.871 10.6133 297.047 8.87891 298.312 6.37109C299.578 8.87891 302.754 10.6133 306 11.1641L306.68 9.71094C303.047 9.17188 299.332 6.80469 299.344 4.01562ZM288.82 14.4688H297.375V21.8984H299.18V14.4688H307.805V12.9453H288.82V14.4688ZM315.75 6.99219V3.03125H313.969V7.0625C313.969 10.6367 312.211 14.3281 309.328 16.0156L310.5 17.3984C312.586 16.1328 314.133 13.7422 314.895 10.9648C315.621 13.5078 317.062 15.7344 319.078 16.9531L320.133 15.5234C317.367 13.8828 315.75 10.3086 315.75 6.99219ZM317.836 10.1094H321.375V20.8438H323.109V1.50781H321.375V8.53906H317.836V10.1094ZM325.641 21.8984H327.422V1.0625H325.641V21.8984ZM349.383 17.6797H344.648V12.0078C346.371 11.082 347.414 9.60547 347.414 7.74219C347.414 4.51953 344.25 2.39844 339.797 2.375C335.344 2.39844 332.18 4.51953 332.18 7.74219C332.18 9.64062 333.258 11.1406 335.039 12.0664V17.6797H330.305V19.2266H349.383V17.6797ZM333.961 7.74219C333.949 5.41016 336.375 3.875 339.797 3.89844C343.184 3.875 345.633 5.41016 345.633 7.74219C345.633 10.0742 343.184 11.6328 339.797 11.6328C336.375 11.6328 333.949 10.0742 333.961 7.74219ZM336.844 17.6797V12.7344C337.734 12.9688 338.73 13.0859 339.797 13.0859C340.887 13.0859 341.895 12.957 342.797 12.7227V17.6797H336.844ZM353.25 20.1406C354.082 20.1289 354.762 19.4492 354.75 18.6172C354.762 17.7969 354.082 17.1172 353.25 17.1172C352.43 17.1172 351.727 17.7969 351.75 18.6172C351.727 19.4492 352.43 20.1289 353.25 20.1406ZM2.90625 57.6406C4.24219 57.6406 5.32031 56.5625 5.32031 55.2266C5.32031 53.9141 4.24219 52.8359 2.90625 52.8359C1.59375 52.8359 0.515625 53.9141 0.515625 55.2266C0.515625 56.5625 1.59375 57.6406 2.90625 57.6406ZM39.7734 43.0625H37.9922V63.8984H39.7734V43.0625ZM21.6094 57.1719L21.8438 58.7422C24.5625 58.7539 28.9336 58.6484 32.2266 58.0391L32.1094 56.6797C31.418 56.7734 30.668 56.8438 29.8828 56.9141V47.2578H31.6406V45.7344H22.0547V47.2578H23.8125V57.1602C23.0039 57.1719 22.2539 57.1719 21.6094 57.1719ZM25.5 57.125V47.2578H28.1719V57.0195C27.2812 57.0664 26.3672 57.1016 25.5 57.125ZM31.0312 52.6484H33.9375V62.7969H35.6953V43.5781H33.9375V50.9844H31.0312V52.6484ZM59.7656 43.0625H57.9141V63.9453H59.7656V43.0625ZM43.3594 51.9453C43.3711 56.3867 45.5742 59.1992 48.6797 59.1875C51.7734 59.1992 54.0117 56.3867 54 51.9453C54.0117 47.5156 51.7734 44.6914 48.6797 44.6797C45.5742 44.6914 43.3711 47.5156 43.3594 51.9453ZM45.1406 51.9453C45.1406 48.5586 46.5938 46.332 48.6797 46.3203C50.7773 46.332 52.2188 48.5586 52.2188 51.9453C52.2188 55.332 50.7773 57.5586 48.6797 57.5469C46.5938 57.5586 45.1406 55.332 45.1406 51.9453ZM66.0234 44.3984H64.2891V54.1016H72.3984V44.3984H70.6641V47.7031H66.0234V44.3984ZM66.0234 52.5781V49.1797H70.6641V52.5781H66.0234ZM66.9844 58.3672H79.2188V63.8984H81.0234V56.8438H66.9844V58.3672ZM74.7656 55.4609H76.5V50.0234H79.2656V55.5781H81.0234V43.0859H79.2656V48.5H76.5V43.4844H74.7656V55.4609ZM97.3359 46.9062V46.0156H102V44.5156H90.7734V46.0156H95.4844V46.9297C95.4844 49.8711 93.2578 52.6484 90.1875 53.75L91.1484 55.2031C93.6211 54.2891 95.5547 52.3672 96.457 49.9766C97.3477 52.1211 99.1641 53.8672 101.508 54.7109L102.469 53.2578C99.4219 52.2031 97.3359 49.6133 97.3359 46.9062ZM93.3516 58.1797H105.516V63.8984H107.367V56.6562H93.3516V58.1797ZM101.344 50.0703H105.516V55.5547H107.367V43.0625H105.516V48.5234H101.344V50.0703ZM129.82 53.375H125.109V50.4336C126.75 49.7773 127.676 48.7227 127.688 47.3281C127.676 44.8789 124.863 43.4727 120.328 43.4609C115.758 43.4727 112.945 44.8789 112.945 47.3281C112.945 48.7344 113.883 49.7891 115.547 50.4336V53.375H110.836V54.8984H129.82V53.375ZM113.133 60.1719C113.121 62.5508 115.805 63.8516 120.328 63.8516C124.793 63.8516 127.477 62.5508 127.5 60.1719C127.477 57.793 124.793 56.4805 120.328 56.4922C115.805 56.4805 113.121 57.793 113.133 60.1719ZM114.844 47.3281C114.832 45.8281 116.918 44.9141 120.328 44.9141C123.703 44.9141 125.801 45.8281 125.812 47.3281C125.801 48.8516 123.703 49.7305 120.328 49.7422C116.918 49.7305 114.832 48.8516 114.844 47.3281ZM115.008 60.1719C114.984 58.7539 116.988 57.9219 120.328 57.8984C123.633 57.9219 125.637 58.7539 125.648 60.1719C125.637 61.5898 123.633 62.4336 120.328 62.4219C116.988 62.4336 114.984 61.5898 115.008 60.1719ZM117.375 53.375V50.9375C118.254 51.0898 119.238 51.1719 120.328 51.1719C121.418 51.1719 122.402 51.0898 123.281 50.9258V53.375H117.375ZM150.633 54.9453H131.555V56.4688H136.5V63.8984H138.398V56.4688H143.742V63.8984H145.594V56.4688H150.633V54.9453ZM133.711 48.4531C133.723 51.2305 136.664 52.9648 141.047 52.9531C145.418 52.9648 148.383 51.2305 148.383 48.4531C148.383 45.6758 145.418 43.918 141.047 43.9062C136.664 43.918 133.723 45.6758 133.711 48.4531ZM135.609 48.4531C135.586 46.6016 137.801 45.4062 141.047 45.4062C144.293 45.4062 146.496 46.6016 146.508 48.4531C146.496 50.293 144.293 51.4766 141.047 51.4766C137.801 51.4766 135.586 50.293 135.609 48.4531ZM171.375 55.1797H152.297V56.7031H160.875V63.8984H162.68V56.7031H171.375V55.1797ZM154.758 52.3438H168.891V44.2344H154.758V52.3438ZM156.562 50.8906V45.7344H167.062V50.8906H156.562ZM189.914 49.3906H177.469V43.8359H175.641V50.8672H189.914V49.3906ZM173.039 55.2031H192.117V53.7031H173.039V55.2031ZM175.523 63.3828H190.031V61.8594H177.352V57.3359H175.523V63.3828ZM217.102 43.0625H215.25V46.1094H210.434C210.562 45.4766 210.633 44.8086 210.633 44.1172H201.234V45.6406H208.605C208.254 49.0039 205.289 51.4883 200.18 52.6719L200.836 54.1953C205.465 53.082 208.699 50.8672 210 47.5859H215.25V50.0938H209.695V51.5469H215.25V53.7266H217.102V43.0625ZM203.602 56.1641H215.25V58.3438H203.648V63.7109H217.805V62.1875H205.477V59.75H217.102V54.6641H203.602V56.1641ZM238.383 43.0625H236.625V63.8984H238.383V43.0625ZM220.312 58.3438L221.484 59.7266C223.57 58.4258 225.082 55.9766 225.832 53.1055C226.559 55.7539 228.012 58.0039 230.062 59.2344L231.188 57.875C228.316 56.2109 226.688 52.6133 226.688 49.0156V47.0469H230.508V45.5234H220.898V47.0469H224.906V49.0156C224.918 52.8008 223.219 56.6094 220.312 58.3438ZM228.914 52.0859H232.43V62.8203H234.164V43.5781H232.43V50.5859H228.914V52.0859ZM264.609 43.0859H262.758V48.8516H258.469V50.375H262.758V58.3672H264.609V43.0859ZM247.43 54.1953L248.391 55.6953C250.863 54.7695 252.785 52.8594 253.688 50.4453C254.59 52.6016 256.406 54.3477 258.75 55.2031L259.711 53.7266C256.664 52.6836 254.578 50.0703 254.578 47.375V46.2969H259.242V44.7734H248.016V46.2969H252.727V47.375C252.727 50.3633 250.5 53.1172 247.43 54.1953ZM251.227 63.4531H265.195V61.9062H253.078V56.9844H251.227V63.4531ZM284.625 46.0156V45.875H291.281V44.375H275.883V45.875H282.562V46.0156C282.551 48.8047 278.848 51.1719 275.227 51.7109L275.953 53.1641C279.152 52.6133 282.328 50.8789 283.594 48.3711C284.859 50.8789 288.035 52.6133 291.281 53.1641L291.961 51.7109C288.328 51.1719 284.613 48.8047 284.625 46.0156ZM274.102 56.4688H282.656V63.8984H284.461V56.4688H293.086V54.9453H274.102V56.4688ZM313.898 53.7266H294.82V55.25H303.586V59.5156H305.414V55.25H313.898V53.7266ZM297.258 63.4531H311.766V61.9062H299.109V57.4531H297.258V63.4531ZM297.305 51.3359H311.414V44.0938H297.305V51.3359ZM299.109 49.8594V45.5469H309.586V49.8594H299.109ZM333.516 43.0625H331.734V63.8984H333.516V43.0625ZM315.352 57.1719L315.586 58.7422C318.305 58.7539 322.676 58.6484 325.969 58.0391L325.852 56.6797C325.16 56.7734 324.41 56.8438 323.625 56.9141V47.2578H325.383V45.7344H315.797V47.2578H317.555V57.1602C316.746 57.1719 315.996 57.1719 315.352 57.1719ZM319.242 57.125V47.2578H321.914V57.0195C321.023 57.0664 320.109 57.1016 319.242 57.125ZM324.773 52.6484H327.68V62.7969H329.438V43.5781H327.68V50.9844H324.773V52.6484ZM353.508 43.0625H351.656V63.9453H353.508V43.0625ZM337.102 51.9453C337.113 56.3867 339.316 59.1992 342.422 59.1875C345.516 59.1992 347.754 56.3867 347.742 51.9453C347.754 47.5156 345.516 44.6914 342.422 44.6797C339.316 44.6914 337.113 47.5156 337.102 51.9453ZM338.883 51.9453C338.883 48.5586 340.336 46.332 342.422 46.3203C344.52 46.332 345.961 48.5586 345.961 51.9453C345.961 55.332 344.52 57.5586 342.422 57.5469C340.336 57.5586 338.883 55.332 338.883 51.9453ZM364.523 49.4609V46.7422H369.492V45.2188H357.75V46.7422H362.672V49.4609C362.66 53.0703 360.059 57.0078 357.07 58.4375L358.172 59.8906C360.551 58.6953 362.66 56.0469 363.633 52.9883C364.605 55.8711 366.703 58.2734 369.141 59.375L370.172 57.9219C367.102 56.5977 364.535 53 364.523 49.4609ZM372.398 63.8984H374.25V43.0625H372.398V63.8984ZM395.672 43.0625H393.891V63.8984H395.672V43.0625ZM378.07 52.0625C378.082 56.4922 379.84 59.3164 382.547 59.3047C385.113 59.3164 386.859 56.7734 387.035 52.7188H389.719V62.8438H391.477V43.5078H389.719V51.1953H387.023C386.789 47.2695 385.078 44.832 382.547 44.8203C379.84 44.832 378.082 47.6328 378.07 52.0625ZM379.805 52.0625C379.781 48.6758 380.859 46.5547 382.547 46.5547C384.246 46.5547 385.324 48.6758 385.312 52.0625C385.324 55.4375 384.246 57.5703 382.547 57.5469C380.859 57.5703 379.781 55.4375 379.805 52.0625ZM405.891 48.6641V44.8672H404.016V48.6641C404.004 52.5078 401.59 56.5156 398.531 58.0156L399.727 59.4922C402.094 58.2383 404.051 55.5664 404.977 52.4492C405.902 55.4141 407.859 57.8984 410.227 59.1172L411.328 57.6172C408.305 56.2344 405.879 52.4375 405.891 48.6641ZM409.055 51.6875H414V63.9453H415.828V43.0625H414V50.1875H409.055V51.6875ZM441.586 43.0859H439.734V57.0547H441.586V50.9375H444.703V49.3906H441.586V43.0859ZM425.227 54.9219L425.438 56.4219C429.105 56.4336 434.086 56.3984 438.609 55.6016L438.445 54.2656C436.617 54.5352 434.648 54.6992 432.703 54.793V53.3281C435.117 53.0938 436.641 51.9805 436.664 50.2578C436.641 48.3594 434.719 47.1875 431.766 47.1875C428.836 47.1875 426.879 48.3594 426.891 50.2578C426.879 51.9922 428.449 53.1055 430.875 53.3281V54.8633C428.836 54.9219 426.891 54.9219 425.227 54.9219ZM425.742 46.3906H437.812V44.9844H432.703V42.8984H430.875V44.9844H425.742V46.3906ZM427.781 59.5625H439.734V63.8984H441.586V58.0859H427.781V59.5625ZM428.648 50.2578C428.637 49.1562 429.844 48.4766 431.766 48.5C433.688 48.4766 434.906 49.1562 434.906 50.2578C434.906 51.3477 433.688 52.0859 431.766 52.0625C429.844 52.0859 428.637 51.3477 428.648 50.2578ZM463.266 43.0859H461.438V58.3203H463.266V43.0859ZM446.555 49.6484C446.543 52.6836 448.898 54.793 452.016 54.7812C455.133 54.793 457.465 52.6836 457.477 49.6484C457.465 46.6484 455.133 44.5508 452.016 44.5391C448.898 44.5508 446.543 46.6484 446.555 49.6484ZM448.359 49.6484C448.336 47.6094 449.906 46.1562 452.016 46.1562C454.09 46.1562 455.672 47.6094 455.672 49.6484C455.672 51.7227 454.09 53.1641 452.016 53.1641C449.906 53.1641 448.336 51.7227 448.359 49.6484ZM449.812 63.4531H463.922V61.9062H451.641V56.7734H449.812V63.4531ZM488.953 43.0625H487.125V63.8984H488.953V53.0938H492.328V51.5469H488.953V43.0625ZM472.969 58.4844L474 59.9375C480.785 56.5859 483.551 51.207 483.562 45.3125H473.93V46.8594H481.699C481.277 51.793 478.348 55.8125 472.969 58.4844ZM510.398 48.8984H498V43.4844H496.172V50.4219H510.398V48.8984ZM493.57 54.3828H512.578V52.8594H493.57V54.3828ZM495.867 60.0312C495.855 62.4453 498.562 63.8047 503.062 63.8047C507.527 63.8047 510.211 62.4453 510.234 60.0312C510.211 57.6055 507.527 56.2461 503.062 56.2578C498.562 56.2461 495.855 57.6055 495.867 60.0312ZM497.742 60.0312C497.719 58.5547 499.723 57.7227 503.062 57.7109C506.367 57.7227 508.371 58.5547 508.383 60.0312C508.371 61.4844 506.367 62.3633 503.062 62.375C499.723 62.3633 497.719 61.4844 497.742 60.0312ZM530.602 43.0625H528.773V55.1797H530.602V49.9766H533.742V48.4062H530.602V43.0625ZM514.359 46.7422H526.781V45.2188H521.484V42.875H519.656V45.2188H514.359V46.7422ZM515.555 51.3594C515.543 53.5859 517.547 55.0273 520.57 55.0156C523.559 55.0273 525.562 53.5859 525.586 51.3594C525.562 49.1328 523.559 47.7148 520.57 47.7031C517.547 47.7148 515.543 49.1328 515.555 51.3594ZM517.312 51.3594C517.301 50.0117 518.602 49.1094 520.57 49.1328C522.516 49.1094 523.828 50.0117 523.852 51.3594C523.828 52.7188 522.516 53.6094 520.57 53.6094C518.602 53.6094 517.301 52.7188 517.312 51.3594ZM517.43 63.6172H530.602V56.0938H528.773V58.3203H519.258V56.0938H517.43V63.6172ZM519.258 62.1406V59.7734H528.773V62.1406H519.258ZM552.234 43.0625H550.406V63.8984H552.234V43.0625ZM536.414 58.5312H538.102C541.441 58.5312 544.734 58.2734 548.438 57.5L548.18 55.9297C544.688 56.668 541.406 56.9141 538.219 56.9375V45.125H536.414V58.5312ZM571.922 43.0625H570.094V63.9453H571.922V52.8594H575.414V51.3125H571.922V43.0625ZM556.711 58.7188H558.352C562.312 58.7188 565.043 58.6016 568.312 58.0156L568.078 56.4219C564.973 56.9961 562.312 57.1602 558.539 57.1719V46.625H566.438V45.1016H556.711V58.7188ZM578.742 62.1406C579.574 62.1289 580.254 61.4492 580.242 60.6172C580.254 59.7969 579.574 59.1172 578.742 59.1172C577.922 59.1172 577.219 59.7969 577.242 60.6172C577.219 61.4492 577.922 62.1289 578.742 62.1406ZM2.90625 99.6406C4.24219 99.6406 5.32031 98.5625 5.32031 97.2266C5.32031 95.9141 4.24219 94.8359 2.90625 94.8359C1.59375 94.8359 0.515625 95.9141 0.515625 97.2266C0.515625 98.5625 1.59375 99.6406 2.90625 99.6406ZM39.7734 85.0625H37.9922V105.898H39.7734V85.0625ZM21.6094 99.1719L21.8438 100.742C24.5625 100.754 28.9336 100.648 32.2266 100.039L32.1094 98.6797C31.418 98.7734 30.668 98.8438 29.8828 98.9141V89.2578H31.6406V87.7344H22.0547V89.2578H23.8125V99.1602C23.0039 99.1719 22.2539 99.1719 21.6094 99.1719ZM25.5 99.125V89.2578H28.1719V99.0195C27.2812 99.0664 26.3672 99.1016 25.5 99.125ZM31.0312 94.6484H33.9375V104.797H35.6953V85.5781H33.9375V92.9844H31.0312V94.6484ZM59.7656 85.0625H57.9141V105.945H59.7656V85.0625ZM43.3594 93.9453C43.3711 98.3867 45.5742 101.199 48.6797 101.188C51.7734 101.199 54.0117 98.3867 54 93.9453C54.0117 89.5156 51.7734 86.6914 48.6797 86.6797C45.5742 86.6914 43.3711 89.5156 43.3594 93.9453ZM45.1406 93.9453C45.1406 90.5586 46.5938 88.332 48.6797 88.3203C50.7773 88.332 52.2188 90.5586 52.2188 93.9453C52.2188 97.332 50.7773 99.5586 48.6797 99.5469C46.5938 99.5586 45.1406 97.332 45.1406 93.9453ZM66.0234 86.3984H64.2891V96.1016H72.3984V86.3984H70.6641V89.7031H66.0234V86.3984ZM66.0234 94.5781V91.1797H70.6641V94.5781H66.0234ZM66.9844 100.367H79.2188V105.898H81.0234V98.8438H66.9844V100.367ZM74.7656 97.4609H76.5V92.0234H79.2656V97.5781H81.0234V85.0859H79.2656V90.5H76.5V85.4844H74.7656V97.4609ZM103.055 96.0547H84.0703V97.5547H103.055V96.0547ZM86.1797 89.9375C86.1797 92.5273 89.0391 94.0859 93.5625 94.0859C98.0391 94.0859 100.91 92.5273 100.922 89.9375C100.91 87.3242 98.0391 85.7891 93.5625 85.8125C89.0391 85.7891 86.1797 87.3242 86.1797 89.9375ZM86.5312 105.453H100.945V103.906H88.3828V99.3828H86.5312V105.453ZM88.0781 89.9375C88.0664 88.3086 90.1992 87.2891 93.5625 87.2891C96.9023 87.2891 99.0352 88.3086 99.0469 89.9375C99.0352 91.5898 96.9023 92.5859 93.5625 92.5859C90.1992 92.5859 88.0664 91.5898 88.0781 89.9375ZM127.312 86.4219H113.227V87.9453H125.484V88.25C125.484 90.1953 125.484 92.375 124.852 95.375H110.836V96.8984H119.367V105.945H121.219V96.8984H129.82V95.375H126.715C127.312 92.3867 127.312 90.2188 127.312 88.25V86.4219ZM149.438 85.0625H147.656V93.3359H144.75V85.5078H142.992V104.844H144.75V94.8594H147.656V105.898H149.438V85.0625ZM132.352 100.297H140.32V87.5H132.352V100.297ZM134.086 98.8203V88.9766H138.586V98.8203H134.086ZM168.586 85.0859H166.734V99.0547H168.586V92.9375H171.703V91.3906H168.586V85.0859ZM152.227 96.9219L152.438 98.4219C156.105 98.4336 161.086 98.3984 165.609 97.6016L165.445 96.2656C163.617 96.5352 161.648 96.6992 159.703 96.793V95.3281C162.117 95.0938 163.641 93.9805 163.664 92.2578C163.641 90.3594 161.719 89.1875 158.766 89.1875C155.836 89.1875 153.879 90.3594 153.891 92.2578C153.879 93.9922 155.449 95.1055 157.875 95.3281V96.8633C155.836 96.9219 153.891 96.9219 152.227 96.9219ZM152.742 88.3906H164.812V86.9844H159.703V84.8984H157.875V86.9844H152.742V88.3906ZM154.781 101.562H166.734V105.898H168.586V100.086H154.781V101.562ZM155.648 92.2578C155.637 91.1562 156.844 90.4766 158.766 90.5C160.688 90.4766 161.906 91.1562 161.906 92.2578C161.906 93.3477 160.688 94.0859 158.766 94.0625C156.844 94.0859 155.637 93.3477 155.648 92.2578ZM190.336 85.0625H188.484V90.5H184.289V92.0234H188.484V97.4844H190.336V85.0625ZM173.156 95.8203L174.117 97.2969C176.602 96.3477 178.535 94.4023 179.426 91.9648C180.328 94.1094 182.145 95.8672 184.477 96.7109L185.438 95.2344C182.391 94.1914 180.305 91.6016 180.305 88.8828V88.1328H184.969V86.5859H173.742V88.1328H178.453V88.9062C178.453 91.8828 176.25 94.707 173.156 95.8203ZM176.438 102.008C176.426 104.469 179.086 105.875 183.422 105.898C187.746 105.875 190.406 104.469 190.406 102.008C190.406 99.5586 187.746 98.1289 183.422 98.1406C179.086 98.1289 176.426 99.5586 176.438 102.008ZM178.266 102.008C178.254 100.484 180.223 99.5703 183.422 99.5703C186.609 99.5703 188.578 100.484 188.578 102.008C188.578 103.52 186.609 104.434 183.422 104.422C180.223 104.434 178.254 103.52 178.266 102.008ZM217.711 87.4531H210.211V84.9453H208.406V87.4531H200.812V88.9766H217.711V87.4531ZM199.828 100.086H208.406V105.945H210.211V100.086H218.906V98.5625H199.828V100.086ZM202.523 93.6641C202.5 95.8672 205.055 97.1094 209.32 97.1328C213.551 97.1094 216.105 95.8672 216.117 93.6641C216.105 91.4141 213.551 90.1719 209.32 90.1719C205.055 90.1719 202.5 91.4141 202.523 93.6641ZM204.422 93.6641C204.398 92.3516 206.215 91.5898 209.32 91.5781C212.391 91.5898 214.195 92.3516 214.219 93.6641C214.195 94.9531 212.391 95.7148 209.32 95.7031C206.215 95.7148 204.398 94.9531 204.422 93.6641ZM233.648 91.4609V88.7422H238.336V87.2188H226.992V88.7422H231.844V91.4609C231.82 95.0117 229.242 98.9727 226.242 100.438L227.367 101.891C229.699 100.695 231.785 98 232.746 94.9414C233.684 97.7656 235.664 100.227 238.008 101.375L239.062 99.9219C236.039 98.4805 233.625 94.8008 233.648 91.4609ZM240.891 105.898H242.719V95.0703H246.211V93.5H242.719V85.0625H240.891V105.898ZM266.344 95.375H257.719V92.9375H264.117V91.4375H251.555V87.5234H263.977V86.0469H249.75V92.9375H255.938V95.375H247.336V96.8516H266.344V95.375ZM249.633 102.125C249.621 104.527 252.328 105.875 256.828 105.898C261.293 105.875 263.977 104.527 264 102.125C263.977 99.7461 261.293 98.3867 256.828 98.375C252.328 98.3867 249.621 99.7461 249.633 102.125ZM251.508 102.125C251.484 100.684 253.488 99.8281 256.828 99.8281C260.133 99.8281 262.137 100.684 262.148 102.125C262.137 103.59 260.133 104.434 256.828 104.422C253.488 104.434 251.484 103.59 251.508 102.125ZM270.773 85.9531H268.969V95.0234H278.672V85.9531H276.844V88.9531H270.773V85.9531ZM270.773 93.5234V90.3828H276.844V93.5234H270.773ZM271.078 98.3047H282.539V100.461H271.125V105.664H285.141V104.164H272.93V101.867H284.367V96.8281H271.078V98.3047ZM282.539 95.8438H284.367V91.1328H287.508V89.5859H284.367V85.0625H282.539V95.8438ZM293.133 96.9922H291.305V105.617H305.391V96.9922H303.562V99.7578H293.133V96.9922ZM288.82 95.1172H307.898V93.5938H304.816C305.391 90.9922 305.391 89.1406 305.391 87.5469V86.0234H291.234V87.5469H303.562C303.574 89.1406 303.574 91.0039 303.012 93.5938H288.82V95.1172ZM293.133 104.117V101.211H303.562V104.117H293.133ZM326.766 85.0859H324.914V97.0625H326.766V85.0859ZM309.633 95.0234L309.914 96.5469C313.676 96.5469 318.727 96.4766 323.297 95.7031L323.18 94.3672C321.352 94.625 319.395 94.7773 317.461 94.8711V92.7031H321.609V91.2266H313.383V87.6406H321.422V86.1172H311.531V92.7031H315.609V94.9531C313.465 95.0234 311.402 95.0234 309.633 95.0234ZM313.031 105.617H326.766V98H324.961V100.227H314.859V98H313.031V105.617ZM314.859 104.117V101.656H324.961V104.117H314.859ZM347.484 85.0625H345.656V105.898H347.484V85.0625ZM331.664 100.531H333.352C336.691 100.531 339.984 100.273 343.688 99.5L343.43 97.9297C339.938 98.668 336.656 98.9141 333.469 98.9375V87.125H331.664V100.531ZM367.172 85.0625H365.344V105.945H367.172V94.8594H370.664V93.3125H367.172V85.0625ZM351.961 100.719H353.602C357.562 100.719 360.293 100.602 363.562 100.016L363.328 98.4219C360.223 98.9961 357.562 99.1602 353.789 99.1719V88.625H361.688V87.1016H351.961V100.719ZM373.992 104.141C374.824 104.129 375.504 103.449 375.492 102.617C375.504 101.797 374.824 101.117 373.992 101.117C373.172 101.117 372.469 101.797 372.492 102.617C372.469 103.449 373.172 104.129 373.992 104.141Z" fill="white"/>
</svg>
