<svg width="606" height="63" viewBox="0 0 606 63" fill="none" xmlns="http://www.w3.org/2000/svg">
<path d="M2.90625 14.6406C4.24219 14.6406 5.32031 13.5625 5.32031 12.2266C5.32031 10.9141 4.24219 9.83594 2.90625 9.83594C1.59375 9.83594 0.515625 10.9141 0.515625 12.2266C0.515625 13.5625 1.59375 14.6406 2.90625 14.6406ZM23.1328 19H25.3359L33.0938 4V2.03125H21.9375V3.90625H30.9141V4.02344L23.1328 19ZM45.4688 7.46875H43.6641V10.4453H35.0859V11.9688H54.0703V10.4453H45.4688V7.46875ZM36.1406 7.04688L36.8203 8.5C40.2539 8.07812 43.4297 6.58984 44.5781 4.28125C45.7266 6.58984 48.9258 8.07812 52.3359 8.5L53.0156 7.04688C49.3828 6.66016 45.9023 4.86719 45.7734 2.54688H52.3828V1.04688H36.8203V2.54688H43.3828C43.2539 4.87891 39.7734 6.66016 36.1406 7.04688ZM37.3828 17.2656C37.3711 19.5859 40.0547 20.8516 44.5781 20.8516C49.0547 20.8516 51.7266 19.5859 51.75 17.2656C51.7266 14.957 49.0547 13.6797 44.5781 13.6797C40.0547 13.6797 37.3711 14.957 37.3828 17.2656ZM39.2578 17.2656C39.2344 15.9062 41.2031 15.1211 44.5781 15.1328C47.918 15.1211 49.8867 15.9062 49.8984 17.2656C49.8867 18.6367 47.918 19.4336 44.5781 19.4219C41.2031 19.4336 39.2344 18.6367 39.2578 17.2656ZM78.3984 1.375H64.2656V2.89844H76.6641V3.29688C76.6523 4.10547 76.6523 4.96094 76.6055 5.875L63.6797 6.32031L63.9141 7.9375L76.5 7.29297C76.3828 8.47656 76.1836 9.78906 75.8203 11.2656H61.8516V12.8125H70.4531V20.8984H72.3047V12.8125H80.8359V11.2656H77.6602C78.3984 7.85547 78.3984 5.45312 78.3984 3.29688V1.375ZM99.7734 1.02344H84.375V2.54688H87.5859V7.32812H84.4453V8.80469H91.1719V11.3594H82.5938V12.8594H101.578V11.3594H93V8.80469H99.7031V7.32812H96.5625V2.54688H99.7734V1.02344ZM85.0547 20.4531H99.4688V18.9062H86.9062V14.6875H85.0547V20.4531ZM89.4141 7.32812V2.54688H94.7344V7.32812H89.4141ZM122.32 11.0547H103.336V12.5547H122.32V11.0547ZM105.445 4.9375C105.445 7.52734 108.305 9.08594 112.828 9.08594C117.305 9.08594 120.176 7.52734 120.188 4.9375C120.176 2.32422 117.305 0.789062 112.828 0.8125C108.305 0.789062 105.445 2.32422 105.445 4.9375ZM105.797 20.4531H120.211V18.9062H107.648V14.3828H105.797V20.4531ZM107.344 4.9375C107.332 3.30859 109.465 2.28906 112.828 2.28906C116.168 2.28906 118.301 3.30859 118.312 4.9375C118.301 6.58984 116.168 7.58594 112.828 7.58594C109.465 7.58594 107.332 6.58984 107.344 4.9375ZM146.414 0.0625H144.562V12.5078H146.414V7.04688H149.531V5.5H146.414V0.0625ZM131.062 10.7969H132.68C137.086 10.7969 139.582 10.6797 142.5 10.0938L142.312 8.57031C139.512 9.14453 137.086 9.27344 132.867 9.29688V3.17969H140.32V1.65625H131.062V10.7969ZM132.797 16.8672C132.809 19.3984 135.457 20.8516 139.711 20.8516C143.965 20.8516 146.578 19.3984 146.578 16.8672C146.578 14.3711 143.965 12.918 139.711 12.9062C135.457 12.918 132.809 14.3711 132.797 16.8672ZM134.602 16.8672C134.613 15.332 136.57 14.4062 139.711 14.4297C142.828 14.4062 144.809 15.332 144.797 16.8672C144.809 18.4141 142.828 19.3633 139.711 19.375C136.57 19.3633 134.613 18.4141 134.602 16.8672ZM156.75 0.835938C153.598 0.847656 151.324 2.74609 151.336 5.45312C151.324 8.17188 153.598 10.0469 156.75 10.0469C159.867 10.0469 162.129 8.17188 162.141 5.45312C162.129 2.74609 159.867 0.847656 156.75 0.835938ZM153.141 5.45312C153.117 3.64844 154.652 2.37109 156.75 2.38281C158.812 2.37109 160.359 3.64844 160.359 5.45312C160.359 7.28125 158.812 8.54688 156.75 8.54688C154.652 8.54688 153.117 7.28125 153.141 5.45312ZM154.5 13.2578H166.219V15.4141H154.547V20.6172H168.797V19.1406H156.352V16.7969H168.047V11.7812H154.5V13.2578ZM166.219 10.7734H168.047V0.0625H166.219V10.7734ZM188.461 2.125H178.828V15.6719H188.461V2.125ZM180.633 14.1719V3.60156H186.656V14.1719H180.633ZM192.938 20.9453H194.789V0.0625H192.938V20.9453ZM211.359 5.66406V1.86719H209.555V5.66406C209.531 9.47266 207.117 13.4688 204.07 14.9688L205.242 16.4453C207.586 15.1914 209.555 12.5547 210.48 9.48438C211.406 12.3789 213.328 14.8516 215.625 16.0469L216.75 14.5703C213.785 13.1172 211.359 9.33203 211.359 5.66406ZM218.672 20.8984H220.5V10.1172H223.992V8.52344H220.5V0.0625H218.672V20.8984ZM244.102 10.375H239.391V7.43359C241.031 6.77734 241.957 5.72266 241.969 4.32812C241.957 1.87891 239.145 0.472656 234.609 0.460938C230.039 0.472656 227.227 1.87891 227.227 4.32812C227.227 5.73438 228.164 6.78906 229.828 7.43359V10.375H225.117V11.8984H244.102V10.375ZM227.414 17.1719C227.402 19.5508 230.086 20.8516 234.609 20.8516C239.074 20.8516 241.758 19.5508 241.781 17.1719C241.758 14.793 239.074 13.4805 234.609 13.4922C230.086 13.4805 227.402 14.793 227.414 17.1719ZM229.125 4.32812C229.113 2.82812 231.199 1.91406 234.609 1.91406C237.984 1.91406 240.082 2.82812 240.094 4.32812C240.082 5.85156 237.984 6.73047 234.609 6.74219C231.199 6.73047 229.113 5.85156 229.125 4.32812ZM229.289 17.1719C229.266 15.7539 231.27 14.9219 234.609 14.8984C237.914 14.9219 239.918 15.7539 239.93 17.1719C239.918 18.5898 237.914 19.4336 234.609 19.4219C231.27 19.4336 229.266 18.5898 229.289 17.1719ZM231.656 10.375V7.9375C232.535 8.08984 233.52 8.17188 234.609 8.17188C235.699 8.17188 236.684 8.08984 237.562 7.92578V10.375H231.656ZM259.289 5.66406V1.86719H257.461V5.66406C257.438 9.61328 254.871 13.5977 251.766 15.0156L252.938 16.5625C255.375 15.332 257.426 12.6953 258.387 9.55469C259.383 12.5195 261.434 14.9922 263.812 16.1406L264.938 14.6875C261.867 13.293 259.277 9.47266 259.289 5.66406ZM267.211 20.9453H269.062V0.0625H267.211V20.9453ZM297.727 16.6562H288.984V11.5469H287.18V16.6562H278.648V18.1797H297.727V16.6562ZM279.398 10.2578L280.219 11.7812C283.406 11.125 286.723 8.96875 288.094 5.98047C289.441 8.98047 292.793 11.125 295.969 11.7812L296.789 10.2578C293.156 9.63672 289.043 6.56641 289.031 3.08594V1.49219H287.109V3.08594C287.098 6.58984 283.043 9.63672 279.398 10.2578ZM310.055 1.1875H300.375V9.69531H310.055V8.07812H314.812V10.7734H316.641V0.0625H314.812V2.875H310.055V1.1875ZM302.203 8.21875V2.66406H308.25V8.21875H302.203ZM303.141 13.3047H314.812V15.4141H303.188V20.6172H317.438V19.1406H305.016V16.8203H316.641V11.8281H303.141V13.3047ZM310.055 6.60156V4.30469H314.812V6.60156H310.055ZM337.336 0.0859375H335.484V12.0625H337.336V0.0859375ZM320.203 10.0234L320.484 11.5469C324.246 11.5469 329.297 11.4766 333.867 10.7031L333.75 9.36719C331.922 9.625 329.965 9.77734 328.031 9.87109V7.70312H332.18V6.22656H323.953V2.64062H331.992V1.11719H322.102V7.70312H326.18V9.95312C324.035 10.0234 321.973 10.0234 320.203 10.0234ZM323.602 20.6172H337.336V13H335.531V15.2266H325.43V13H323.602V20.6172ZM325.43 19.1172V16.6562H335.531V19.1172H325.43ZM358.055 0.0625H356.227V20.8984H358.055V0.0625ZM342.234 15.5312H343.922C347.262 15.5312 350.555 15.2734 354.258 14.5L354 12.9297C350.508 13.668 347.227 13.9141 344.039 13.9375V2.125H342.234V15.5312ZM377.742 0.0625H375.914V20.9453H377.742V9.85938H381.234V8.3125H377.742V0.0625ZM362.531 15.7188H364.172C368.133 15.7188 370.863 15.6016 374.133 15.0156L373.898 13.4219C370.793 13.9961 368.133 14.1602 364.359 14.1719V3.625H372.258V2.10156H362.531V15.7188ZM384.562 19.1406C385.395 19.1289 386.074 18.4492 386.062 17.6172C386.074 16.7969 385.395 16.1172 384.562 16.1172C383.742 16.1172 383.039 16.7969 383.062 17.6172C383.039 18.4492 383.742 19.1289 384.562 19.1406ZM2.90625 56.6406C4.24219 56.6406 5.32031 55.5625 5.32031 54.2266C5.32031 52.9141 4.24219 51.8359 2.90625 51.8359C1.59375 51.8359 0.515625 52.9141 0.515625 54.2266C0.515625 55.5625 1.59375 56.6406 2.90625 56.6406ZM37.9688 42.0625H36.1406V62.9453H37.9688V51.8594H41.4609V50.3125H37.9688V42.0625ZM22.7578 57.7188H24.3984C28.3594 57.7188 31.0898 57.6016 34.3594 57.0156L34.125 55.4219C31.0195 55.9961 28.3594 56.1602 24.5859 56.1719V45.625H32.4844V44.1016H22.7578V57.7188ZM61.6406 52.6562H42.5625V54.1797H51.3281V58.4453H53.1797V54.1797H61.6406V52.6562ZM44.7188 46.7969C44.707 49.3633 47.625 50.957 52.0781 50.9453C56.5312 50.957 59.4141 49.3633 59.4141 46.7969C59.4141 44.207 56.5312 42.6133 52.0781 42.6016C47.625 42.6133 44.707 44.207 44.7188 46.7969ZM45.0234 62.4531H59.5078V60.8828H46.875V56.3594H45.0234V62.4531ZM46.6875 46.7969C46.6641 45.1328 48.832 44.1133 52.0781 44.1016C55.3125 44.1133 57.4688 45.1328 57.4688 46.7969C57.4688 48.4141 55.3125 49.4453 52.0781 49.4453C48.832 49.4453 46.6641 48.4141 46.6875 46.7969ZM82.4062 58.7734H73.7109V54.8359H80.4844V53.3125H67.5469V49.9141H79.9922V43.6094H65.6719V45.1328H78.1875V48.4141H65.7188V54.8359H71.9062V58.7734H63.3281V60.3203H82.4062V58.7734ZM100.898 52.0938H88.3359V45.5312H100.688V44.0078H86.5078V53.6172H100.898V52.0938ZM84.0703 60.0625H103.148V58.5156H84.0703V60.0625ZM127.125 42.0625H125.297V54.25H127.125V48.6484H130.266V47.1016H127.125V42.0625ZM111.727 52.9375H121.43V43.2578H119.602V46.4453H113.531V43.2578H111.727V52.9375ZM113.531 51.4609V47.9219H119.602V51.4609H113.531ZM114.047 62.6172H127.688V61.1172H115.875V56.8984H127.289V55.4219H114.047V62.6172ZM150.562 53.0547H131.578V54.5547H150.562V53.0547ZM133.688 46.9375C133.688 49.5273 136.547 51.0859 141.07 51.0859C145.547 51.0859 148.418 49.5273 148.43 46.9375C148.418 44.3242 145.547 42.7891 141.07 42.8125C136.547 42.7891 133.688 44.3242 133.688 46.9375ZM134.039 62.4531H148.453V60.9062H135.891V56.3828H134.039V62.4531ZM135.586 46.9375C135.574 45.3086 137.707 44.2891 141.07 44.2891C144.41 44.2891 146.543 45.3086 146.555 46.9375C146.543 48.5898 144.41 49.5859 141.07 49.5859C137.707 49.5859 135.574 48.5898 135.586 46.9375ZM174.891 43.375H160.758V44.8984H173.156V45.2969C173.145 46.1055 173.145 46.9609 173.098 47.875L160.172 48.3203L160.406 49.9375L172.992 49.293C172.875 50.4766 172.676 51.7891 172.312 53.2656H158.344V54.8125H166.945V62.8984H168.797V54.8125H177.328V53.2656H174.152C174.891 49.8555 174.891 47.4531 174.891 45.2969V43.375ZM196.266 43.0234H180.867V44.5469H184.078V49.3281H180.938V50.8047H187.664V53.3594H179.086V54.8594H198.07V53.3594H189.492V50.8047H196.195V49.3281H193.055V44.5469H196.266V43.0234ZM181.547 62.4531H195.961V60.9062H183.398V56.6875H181.547V62.4531ZM185.906 49.3281V44.5469H191.227V49.3281H185.906ZM218.812 53.0547H199.828V54.5547H218.812V53.0547ZM201.938 46.9375C201.938 49.5273 204.797 51.0859 209.32 51.0859C213.797 51.0859 216.668 49.5273 216.68 46.9375C216.668 44.3242 213.797 42.7891 209.32 42.8125C204.797 42.7891 201.938 44.3242 201.938 46.9375ZM202.289 62.4531H216.703V60.9062H204.141V56.3828H202.289V62.4531ZM203.836 46.9375C203.824 45.3086 205.957 44.2891 209.32 44.2891C212.66 44.2891 214.793 45.3086 214.805 46.9375C214.793 48.5898 212.66 49.5859 209.32 49.5859C205.957 49.5859 203.824 48.5898 203.836 46.9375ZM245.648 54.2266H226.57V55.7734H231.398V62.8984H233.273V55.7734H238.945V62.8984H240.773V55.7734H245.648V54.2266ZM229.008 51.7656H243.188V42.9062H241.336V45.7422H230.836V42.9062H229.008V51.7656ZM230.836 50.2656V47.2188H241.336V50.2656H230.836ZM258.82 43.9609H248.672V57.8828H250.336C254.344 57.8711 257.145 57.7539 260.438 57.2031L260.25 55.6797C257.062 56.2188 254.391 56.3594 250.5 56.3594V51.3203H258.07V49.8203H250.5V45.5078H258.82V43.9609ZM262.711 62.8984H264.562V42.0625H262.711V62.8984ZM280.055 44.3359H268.336V45.8594H270.633V56.1484C269.637 56.1602 268.699 56.1719 267.82 56.1719L268.055 57.7422C271.746 57.7188 276.727 57.6484 281.133 56.9453L281.039 55.5859C279.973 55.7148 278.859 55.8203 277.734 55.8906V45.8594H280.055V44.3359ZM272.414 56.125V45.8594H275.977V55.9961C274.781 56.0547 273.574 56.1016 272.414 56.125ZM282.375 62.8984H284.203V51.9766H287.695V50.4297H284.203V42.0625H282.375V62.8984ZM307.875 54.0156H288.797V55.5625H297.375V62.8984H299.18V55.5625H307.875V54.0156ZM290.953 47.5C290.965 50.2773 293.906 52.0352 298.289 52.0234C302.66 52.0352 305.625 50.2773 305.625 47.5C305.625 44.6758 302.66 42.918 298.289 42.9062C293.906 42.918 290.965 44.6758 290.953 47.5ZM292.852 47.5C292.828 45.6133 295.043 44.4062 298.289 44.4062C301.535 44.4062 303.738 45.6133 303.75 47.5C303.738 49.3516 301.535 50.5469 298.289 50.5469C295.043 50.5469 292.828 49.3516 292.852 47.5ZM326.742 42.0625H324.891V62.8984H326.742V42.0625ZM309.984 57.4375L311.016 58.8672C313.43 57.7305 315.445 55.3281 316.383 52.4219C317.355 55.1758 319.383 57.4258 321.797 58.4922L322.828 57.0625C319.688 55.7266 317.25 52.3516 317.25 48.8594V47.1953H322.102V45.6953H317.25V42.4609H315.422V45.6953H310.547V47.1953H315.445V48.8594C315.445 52.5156 313.078 56.0312 309.984 57.4375ZM338.367 52.8203H330.938V54.6719H338.367V52.8203ZM357.234 43.375H343.102V44.8984H355.5V45.2969C355.488 46.1055 355.488 46.9609 355.441 47.875L342.516 48.3203L342.75 49.9375L355.336 49.293C355.219 50.4766 355.02 51.7891 354.656 53.2656H340.688V54.8125H349.289V62.8984H351.141V54.8125H359.672V53.2656H356.496C357.234 49.8555 357.234 47.4531 357.234 45.2969V43.375ZM378.609 43.0234H363.211V44.5469H366.422V49.3281H363.281V50.8047H370.008V53.3594H361.43V54.8594H380.414V53.3594H371.836V50.8047H378.539V49.3281H375.398V44.5469H378.609V43.0234ZM363.891 62.4531H378.305V60.9062H365.742V56.6875H363.891V62.4531ZM368.25 49.3281V44.5469H373.57V49.3281H368.25ZM398.461 42.0625H396.633V54.625H398.461V49.1875H401.602V47.6172H398.461V42.0625ZM382.219 45.8125H394.641V44.2891H389.344V41.8984H387.516V44.2891H382.219V45.8125ZM383.414 50.5469C383.402 52.8086 385.406 54.2734 388.43 54.2734C391.418 54.2734 393.422 52.8086 393.445 50.5469C393.422 48.3203 391.418 46.8438 388.43 46.8438C385.406 46.8438 383.402 48.3203 383.414 50.5469ZM385.172 50.5469C385.16 49.1875 386.461 48.2734 388.43 48.2734C390.375 48.2734 391.688 49.1875 391.711 50.5469C391.688 51.9648 390.375 52.8438 388.43 52.8672C386.461 52.8438 385.16 51.9648 385.172 50.5469ZM385.312 62.6172H398.461V55.8203H385.312V62.6172ZM387.117 61.1172V57.2969H396.633V61.1172H387.117ZM420.773 42.0625H418.992V62.8984H420.773V42.0625ZM403.172 51.0625C403.184 55.4922 404.941 58.3164 407.648 58.3047C410.215 58.3164 411.961 55.7734 412.137 51.7188H414.82V61.8438H416.578V42.5078H414.82V50.1953H412.125C411.891 46.2695 410.18 43.832 407.648 43.8203C404.941 43.832 403.184 46.6328 403.172 51.0625ZM404.906 51.0625C404.883 47.6758 405.961 45.5547 407.648 45.5547C409.348 45.5547 410.426 47.6758 410.414 51.0625C410.426 54.4375 409.348 56.5703 407.648 56.5469C405.961 56.5703 404.883 54.4375 404.906 51.0625ZM430.992 47.6641V43.8672H429.117V47.6641C429.105 51.5078 426.691 55.5156 423.633 57.0156L424.828 58.4922C427.195 57.2383 429.152 54.5664 430.078 51.4492C431.004 54.4141 432.961 56.8984 435.328 58.1172L436.43 56.6172C433.406 55.2344 430.98 51.4375 430.992 47.6641ZM434.156 50.6875H439.102V62.9453H440.93V42.0625H439.102V49.1875H434.156V50.6875ZM466.688 42.0859H464.836V56.0547H466.688V49.9375H469.805V48.3906H466.688V42.0859ZM450.328 53.9219L450.539 55.4219C454.207 55.4336 459.188 55.3984 463.711 54.6016L463.547 53.2656C461.719 53.5352 459.75 53.6992 457.805 53.793V52.3281C460.219 52.0938 461.742 50.9805 461.766 49.2578C461.742 47.3594 459.82 46.1875 456.867 46.1875C453.938 46.1875 451.98 47.3594 451.992 49.2578C451.98 50.9922 453.551 52.1055 455.977 52.3281V53.8633C453.938 53.9219 451.992 53.9219 450.328 53.9219ZM450.844 45.3906H462.914V43.9844H457.805V41.8984H455.977V43.9844H450.844V45.3906ZM452.883 58.5625H464.836V62.8984H466.688V57.0859H452.883V58.5625ZM453.75 49.2578C453.738 48.1562 454.945 47.4766 456.867 47.5C458.789 47.4766 460.008 48.1562 460.008 49.2578C460.008 50.3477 458.789 51.0859 456.867 51.0625C454.945 51.0859 453.738 50.3477 453.75 49.2578ZM488.367 42.0859H486.539V57.3203H488.367V42.0859ZM471.656 48.6484C471.645 51.6836 474 53.793 477.117 53.7812C480.234 53.793 482.566 51.6836 482.578 48.6484C482.566 45.6484 480.234 43.5508 477.117 43.5391C474 43.5508 471.645 45.6484 471.656 48.6484ZM473.461 48.6484C473.438 46.6094 475.008 45.1562 477.117 45.1562C479.191 45.1562 480.773 46.6094 480.773 48.6484C480.773 50.7227 479.191 52.1641 477.117 52.1641C475.008 52.1641 473.438 50.7227 473.461 48.6484ZM474.914 62.4531H489.023V60.9062H476.742V55.7734H474.914V62.4531ZM514.055 42.0625H512.227V62.8984H514.055V52.0938H517.43V50.5469H514.055V42.0625ZM498.07 57.4844L499.102 58.9375C505.887 55.5859 508.652 50.207 508.664 44.3125H499.031V45.8594H506.801C506.379 50.793 503.449 54.8125 498.07 57.4844ZM535.5 47.8984H523.102V42.4844H521.273V49.4219H535.5V47.8984ZM518.672 53.3828H537.68V51.8594H518.672V53.3828ZM520.969 59.0312C520.957 61.4453 523.664 62.8047 528.164 62.8047C532.629 62.8047 535.312 61.4453 535.336 59.0312C535.312 56.6055 532.629 55.2461 528.164 55.2578C523.664 55.2461 520.957 56.6055 520.969 59.0312ZM522.844 59.0312C522.82 57.5547 524.824 56.7227 528.164 56.7109C531.469 56.7227 533.473 57.5547 533.484 59.0312C533.473 60.4844 531.469 61.3633 528.164 61.375C524.824 61.3633 522.82 60.4844 522.844 59.0312ZM555.703 42.0625H553.875V54.1797H555.703V48.9766H558.844V47.4062H555.703V42.0625ZM539.461 45.7422H551.883V44.2188H546.586V41.875H544.758V44.2188H539.461V45.7422ZM540.656 50.3594C540.645 52.5859 542.648 54.0273 545.672 54.0156C548.66 54.0273 550.664 52.5859 550.688 50.3594C550.664 48.1328 548.66 46.7148 545.672 46.7031C542.648 46.7148 540.645 48.1328 540.656 50.3594ZM542.414 50.3594C542.402 49.0117 543.703 48.1094 545.672 48.1328C547.617 48.1094 548.93 49.0117 548.953 50.3594C548.93 51.7188 547.617 52.6094 545.672 52.6094C543.703 52.6094 542.402 51.7188 542.414 50.3594ZM542.531 62.6172H555.703V55.0938H553.875V57.3203H544.359V55.0938H542.531V62.6172ZM544.359 61.1406V58.7734H553.875V61.1406H544.359ZM577.336 42.0625H575.508V62.8984H577.336V42.0625ZM561.516 57.5312H563.203C566.543 57.5312 569.836 57.2734 573.539 56.5L573.281 54.9297C569.789 55.668 566.508 55.9141 563.32 55.9375V44.125H561.516V57.5312ZM597.023 42.0625H595.195V62.9453H597.023V51.8594H600.516V50.3125H597.023V42.0625ZM581.812 57.7188H583.453C587.414 57.7188 590.145 57.6016 593.414 57.0156L593.18 55.4219C590.074 55.9961 587.414 56.1602 583.641 56.1719V45.625H591.539V44.1016H581.812V57.7188ZM603.844 61.1406C604.676 61.1289 605.355 60.4492 605.344 59.6172C605.355 58.7969 604.676 58.1172 603.844 58.1172C603.023 58.1172 602.32 58.7969 602.344 59.6172C602.32 60.4492 603.023 61.1289 603.844 61.1406Z" fill="white"/>
</svg>
