<svg width="565" height="432" viewBox="0 0 565 432" fill="none" xmlns="http://www.w3.org/2000/svg">
<path d="M106.529 101.824V108.031H110.057V110.164H106.529V116.289H103.904V101.824H106.529ZM88.291 114.512V103.629H99.2285V105.734H90.8613V112.406C95.6875 112.379 98.4082 112.242 101.498 111.613L101.744 113.719C98.4629 114.389 95.5371 114.512 90.2324 114.512H88.291ZM90.3691 121.512C90.3691 118.518 93.541 116.768 98.5996 116.754C103.604 116.768 106.721 118.518 106.721 121.512C106.721 124.533 103.604 126.283 98.5996 126.27C93.541 126.283 90.3691 124.533 90.3691 121.512ZM92.9395 121.512C92.9258 123.207 95.0586 124.205 98.5996 124.191C102.072 124.205 104.219 123.207 104.232 121.512C104.219 119.816 102.072 118.846 98.5996 118.859C95.0586 118.846 92.9258 119.816 92.9395 121.512ZM145.768 101.852V119.789H143.17V101.852H145.768ZM125.588 114.266C129.43 112.844 131.699 109.316 131.713 105.625V103.191H134.365V105.625C134.352 109.207 136.621 112.488 140.408 113.801L139.068 115.879C136.238 114.826 134.146 112.748 133.053 110.096C131.973 112.939 129.854 115.209 126.982 116.316L125.588 114.266ZM129.744 125.805V118.094H132.369V123.699H146.506V125.805H129.744ZM171.635 103.574C175.504 103.561 178.293 105.953 178.307 109.398C178.293 112.844 175.504 115.236 171.635 115.25C167.779 115.236 164.949 112.844 164.963 109.398C164.949 105.953 167.779 103.561 171.635 103.574ZM163.787 118.941C168.244 118.941 174.424 118.9 179.783 118.121L179.975 120.008C174.438 121.074 168.49 121.102 164.115 121.102L163.787 118.941ZM167.533 109.398C167.506 111.572 169.256 112.98 171.635 112.98C174.014 112.98 175.764 111.572 175.764 109.398C175.764 107.252 174.014 105.816 171.635 105.816C169.256 105.816 167.506 107.252 167.533 109.398ZM181.314 126.379V101.824H183.912V126.379H181.314ZM229.631 102.645C233.322 102.672 236.043 104.928 236.057 108.141C236.043 111.367 233.322 113.609 229.631 113.609C225.898 113.609 223.191 111.367 223.178 108.141C223.191 104.928 225.898 102.672 229.631 102.645ZM225.721 108.141C225.707 110.164 227.375 111.504 229.631 111.504C231.873 111.504 233.541 110.164 233.541 108.141C233.541 106.145 231.873 104.805 229.631 104.832C227.375 104.805 225.707 106.145 225.721 108.141ZM226.896 117.492V115.414H243.002V121.594H229.494V123.945H243.822V126.023H226.979V119.652H240.432V117.492H226.896ZM240.404 114.293V101.824H243.002V114.293H240.404ZM280.436 102.781V104.477C280.408 106.227 280.408 108.305 279.779 111.012L277.182 110.766C277.783 108.305 277.838 106.459 277.838 104.859H263.51V102.781H280.436ZM260.912 114.348V112.242H269.854V108.004H272.396V112.242H283.225V114.348H260.912ZM263.729 126.023V116.207H266.326V118.969H277.756V116.207H280.354V126.023H263.729ZM266.326 123.918H277.756V120.992H266.326V123.918ZM340.346 101.852V119.953H337.748V110.711H332.389V115.879H321.096V103.465H323.693V107.621H329.818V103.465H332.389V108.605H337.748V101.852H340.346ZM323.693 113.773H329.818V109.617H323.693V113.773ZM324.35 125.805V118.176H326.975V123.699H340.893V125.805H324.35ZM379.557 101.824V126.324H377.068V113.801H374.717V125.121H372.311V102.289H374.717V111.668H377.068V101.824H379.557ZM357.572 118.777C360.416 116.535 360.867 112.174 360.881 109.016V106.801H358.447V104.723H364.49V106.801H363.15V109.016C363.123 111.189 363.232 114.785 364.859 117.451C366.445 114.895 366.527 111.449 366.541 109.016V106.801H365.201V104.723H371.025V106.801H368.811V109.016C368.783 112.256 369.275 116.549 372.119 118.777L370.643 120.582C369.152 119.379 368.236 117.547 367.717 115.51C367.238 117.602 366.391 119.557 364.846 120.828C363.301 119.529 362.439 117.547 361.961 115.441C361.441 117.492 360.553 119.365 359.076 120.582L357.572 118.777ZM439.576 121.074V123.207H417.154V121.074H426.971V115.25H429.541V121.074H439.576ZM417.92 113.555C422.637 112.762 426.848 109.125 426.861 105.242V103.383H429.596V105.242C429.596 109.125 433.861 112.762 438.592 113.555L437.471 115.688C433.492 114.908 429.855 112.447 428.242 109.098C426.629 112.434 423.02 114.908 419.068 115.688L417.92 113.555ZM475.725 101.852V120.418H473.127V118.066H468.205V116.234H473.127V101.852H475.725ZM455.244 113.035C459.77 112.994 465.881 112.953 471.104 112.297L471.268 114.156C469.176 114.512 466.975 114.73 464.814 114.881V119.652H462.217V115.018C459.838 115.113 457.555 115.113 455.572 115.113L455.244 113.035ZM457.158 107.102C457.145 104.504 459.619 102.781 463.256 102.781C466.838 102.781 469.326 104.504 469.326 107.102C469.326 109.713 466.838 111.367 463.256 111.367C459.633 111.367 457.145 109.713 457.158 107.102ZM458.635 125.805V118.613H461.205V123.699H476.326V125.805H458.635ZM459.619 107.102C459.605 108.551 461.082 109.453 463.256 109.453C465.348 109.453 466.852 108.551 466.865 107.102C466.852 105.639 465.348 104.695 463.256 104.723C461.082 104.695 459.605 105.639 459.619 107.102Z" fill="white"/>
<path opacity="0.8" d="M8.57812 393.906C12.6719 393.922 15.5781 397.688 15.6094 403.594C15.5781 409.516 12.6719 413.266 8.57812 413.25C4.45312 413.266 1.5625 409.516 1.57812 403.594C1.5625 397.688 4.45312 393.922 8.57812 393.906ZM3.89062 403.594C3.90625 408.109 5.82812 411.078 8.57812 411.062C11.3594 411.078 13.2344 408.109 13.2344 403.594C13.2344 399.078 11.3594 396.109 8.57812 396.094C5.82812 396.109 3.90625 399.078 3.89062 403.594ZM20.2031 419.531V391.75H22.6406V402.844H27.2969V404.969H22.6406V419.531H20.2031ZM54.2344 413.906V415.969H28.7969V413.906H40.2344V407.125H31.7969V394.094H51.0781V407.125H42.6406V413.906H54.2344ZM34.2031 405.156H48.7031V396.062H34.2031V405.156ZM67.2969 394.844V404.438H59.7656V410.625C62.9688 410.594 66 410.5 69.7031 409.844L69.8906 411.875C65.9375 412.578 62.75 412.672 59.2344 412.688H57.3906V402.406H64.9531V396.875H57.3281V394.844H67.2969ZM68.6406 403.781V401.781H72.2031V392.438H74.5156V418.062H72.2031V403.781H68.6406ZM77.8594 419.531V391.75H80.2031V419.531H77.8594ZM117.547 407.969V410.031H111.047V419.531H108.609V410.031H101.047V419.531H98.5469V410.031H92.1094V407.969H117.547ZM95.3594 404.688V392.875H97.7969V396.656H111.797V392.875H114.266V404.688H95.3594ZM97.7969 402.688H111.797V398.625H97.7969V402.688ZM135.109 394.281V396.344H124.016V402.094H134.109V404.094H124.016V410.812C129.203 410.812 132.766 410.625 137.016 409.906L137.266 411.938C132.875 412.672 129.141 412.828 123.797 412.844H121.578V394.281H135.109ZM140.297 419.531V391.75H142.766V419.531H140.297ZM176.984 391.75V402.812H181.641V404.875H176.984V419.594H174.547V391.75H176.984ZM156.578 396.375V394.344H169.203V404.281H159.078V410.781C164.234 410.797 167.844 410.594 172.047 409.812L172.297 411.844C167.922 412.641 164.219 412.844 158.859 412.875H156.641V402.25H166.766V396.375H156.578ZM206.047 391.75V419.594H203.578V391.75H206.047ZM184.172 403.594C184.188 397.688 187.125 393.922 191.266 393.906C195.391 393.922 198.375 397.688 198.359 403.594C198.375 409.516 195.391 413.266 191.266 413.25C187.125 413.266 184.188 409.516 184.172 403.594ZM186.547 403.594C186.547 408.109 188.484 411.078 191.266 411.062C194.062 411.078 195.984 408.109 195.984 403.594C195.984 399.078 194.062 396.109 191.266 396.094C188.484 396.109 186.547 399.078 186.547 403.594ZM236.234 413.781V415.844H210.797V413.781H236.234ZM213.797 408.219V393.75H216.266V398.938H230.703V393.75H233.109V408.219H213.797ZM216.266 406.25H230.703V400.906H216.266V406.25ZM263.859 404.656V406.594H238.422V404.656H263.859ZM241.484 410.656V408.812H260.672V414.719H243.984V417.375H261.578V419.156H241.516V413.031H258.234V410.656H241.484ZM241.641 394.375V392.594H260.578V398.344H244.172V400.781H261.078V402.562H241.734V396.656H258.109V394.375H241.641ZM297.828 409.531V419.875H293.859V412.656H278.297V409.531H297.828ZM274.234 399.906C274.203 395.875 277.484 392.938 281.797 392.969C284.094 392.953 286.109 393.812 287.469 395.25H293.859V391.438H297.828V408.25H293.859V404.656H287.469C286.109 406.125 284.094 406.984 281.797 407C277.484 406.984 274.203 404.047 274.234 399.906ZM278.016 399.906C278 402.234 279.578 403.594 281.797 403.594C283.891 403.594 285.5 402.234 285.516 399.906C285.5 397.688 283.891 396.312 281.797 396.312C279.578 396.312 278 397.688 278.016 399.906ZM289.125 401.469H293.859V398.469H289.141C289.25 398.922 289.297 399.406 289.297 399.906C289.297 400.453 289.234 400.969 289.125 401.469ZM326.109 391.438V419.875H322.328V405.594H319.578V418.5H315.922V391.906H319.578V402.406H322.328V391.438H326.109ZM302.328 413.438V394.719H312.922V397.938H306.328V410.094C309.078 410.047 311.516 409.891 314.266 409.406L314.547 412.656C311.078 413.312 308.047 413.422 304.297 413.438H302.328ZM336.203 407.625V410.656H348.047V407.625H351.984V419.562H332.297V407.625H336.203ZM329.172 405.75V402.562H347.484C348.031 399.812 348.109 397.688 348.141 395.781H332.359V392.594H352.109V394.875C352.125 397.031 352.125 399.328 351.438 402.562H355.203V405.75H329.172ZM336.203 416.344H348.047V413.688H336.203V416.344ZM388.859 391.438V419.875H385.047V391.438H388.859ZM364.172 398.906V395.75H368.984V392.125H372.953V395.75H377.703V398.906H364.172ZM364.797 407.062C364.781 403.031 367.375 400.219 370.859 400.219C374.422 400.219 376.984 403.031 376.984 407.062V407.281H379.516V403.875H376.391V400.625H379.516V391.906H383.234V418.625H379.516V410.406H376.297C375.297 412.562 373.312 413.906 370.859 413.906C367.375 413.906 364.781 411.094 364.797 407.062ZM368.266 407.062C368.25 409.25 369.297 410.516 370.859 410.531C372.453 410.516 373.531 409.25 373.547 407.062C373.531 404.828 372.453 403.594 370.859 403.594C369.297 403.594 368.25 404.828 368.266 407.062ZM404.109 393.344V396.531H396.672V398.875H403.828V401.906H396.672V404.422C399.828 404.391 402.156 404.266 404.797 403.812L405.203 407C401.875 407.594 399.094 407.703 394.797 407.688H392.859V393.344H404.109ZM396.641 413.188V410H416.297V419.875H412.328V413.188H396.641ZM406.328 408.594V391.969H410.047V398.406H412.516V391.469H416.297V408.812H412.516V401.594H410.047V408.594H406.328ZM432.453 393.562C438.25 393.578 442.609 396.609 442.609 401.188C442.609 405.812 438.25 408.844 432.453 408.812C426.656 408.844 422.297 405.812 422.297 401.188C422.297 396.609 426.656 393.578 432.453 393.562ZM419.797 415.844V413.781H445.234V415.844H419.797ZM424.641 401.188C424.609 404.562 427.969 406.812 432.453 406.812C436.906 406.812 440.234 404.562 440.234 401.188C440.234 397.859 436.906 395.547 432.453 395.562C427.969 395.547 424.609 397.859 424.641 401.188ZM472.891 414.031V416.094H447.453V414.031H458.891V408.781H450.641V400.219H467.266V395.844H450.578V393.812H469.672V402.219H453.078V406.75H470.328V408.781H461.297V414.031H472.891ZM497.172 394.281V407.062H484.328V394.281H497.172ZM486.734 405.094H494.797V396.281H486.734V405.094ZM487.484 418.938V410.188H489.891V416.875H506.141V418.938H487.484ZM502.422 412.125V391.75H504.859V400.219H509.047V402.281H504.859V412.125H502.422ZM536.797 402.844V404.906H532.297V419.531H529.859V391.75H532.297V402.844H536.797ZM511.953 412.469V394.5H514.391V410.406C518.453 410.406 522.594 410.094 527.172 409.125L527.484 411.219C522.688 412.188 518.375 412.469 514.172 412.469H511.953ZM563.891 413.906V415.969H538.453V413.906H544.766V406.422C542.391 405.188 540.953 403.188 540.953 400.656C540.953 396.359 545.172 393.531 551.109 393.5C557.047 393.531 561.266 396.359 561.266 400.656C561.266 403.141 559.875 405.109 557.578 406.344V413.906H563.891ZM543.328 400.656C543.312 403.766 546.547 405.844 551.109 405.844C555.625 405.844 558.891 403.766 558.891 400.656C558.891 397.547 555.625 395.5 551.109 395.531C546.547 395.5 543.312 397.547 543.328 400.656ZM547.172 413.906H555.109V407.297C553.906 407.609 552.562 407.781 551.109 407.781C549.688 407.781 548.359 407.625 547.172 407.312V413.906Z" fill="white"/>
<path d="M144.165 186.48H120.565V183.6H144.165V186.48ZM169.845 183.68H188.965V186H185.525V242.64C185.525 243.387 185.739 243.867 186.165 244.08C186.592 244.293 187.099 244.4 187.685 244.4H189.445V246.88H151.685V244.4H153.605C154.352 244.4 154.805 244.187 154.965 243.76C155.179 243.333 155.285 242.933 155.285 242.56V225.12H150.405C150.299 229.813 149.819 233.6 148.965 236.48C148.165 239.307 147.019 241.493 145.525 243.04C144.085 244.587 142.299 245.6 140.165 246.08C138.032 246.613 135.632 246.88 132.965 246.88C130.245 246.88 127.765 246.587 125.525 246C123.285 245.467 121.392 244.347 119.845 242.64C118.299 240.933 117.099 238.507 116.245 235.36C115.392 232.213 114.965 228.053 114.965 222.88C114.965 217.707 115.392 213.547 116.245 210.4C117.099 207.2 118.299 204.747 119.845 203.04C121.392 201.28 123.285 200.107 125.525 199.52C127.765 198.933 130.245 198.64 132.965 198.64C134.779 198.64 136.459 198.773 138.005 199.04C139.552 199.253 140.965 199.68 142.245 200.32C143.579 200.907 144.725 201.76 145.685 202.88C146.699 203.947 147.552 205.333 148.245 207.04H155.285V186H152.165V183.68H167.925V242.96C167.979 243.493 168.165 243.84 168.485 244C168.805 244.213 169.179 244.347 169.605 244.4H171.445C172.085 244.293 172.485 244.027 172.645 243.6C172.805 243.227 172.885 242.88 172.885 242.56V186H169.845V183.68ZM150.005 194.88H114.005V192H150.005V194.88ZM133.845 244C135.339 244 136.379 243.493 136.965 242.48C137.552 241.52 137.845 240.24 137.845 238.64V206.88C137.845 205.28 137.552 204 136.965 203.04C136.379 202.027 135.339 201.52 133.845 201.52H132.085C130.539 201.52 129.472 202.027 128.885 203.04C128.352 204 128.085 205.28 128.085 206.88V238.64C128.085 240.24 128.352 241.52 128.885 242.48C129.472 243.493 130.539 244 132.085 244H133.845ZM149.365 210.72C149.685 212.16 149.925 213.76 150.085 215.52C150.299 217.28 150.432 219.253 150.485 221.44H155.285V210.72H149.365ZM249.445 183.68H268.165V186H265.045V222.32H252.405V202.64H246.965V222.32H234.325V186H231.365V183.68H246.965V198.96H252.405V186H249.445V183.68ZM195.285 186H228.325V188.96H212.885V201.28H227.925V204.24H212.885V217.28H230.165V220.24H198.325V188.32H195.285V186ZM248.885 249.2V229.84H199.285V226.88H265.045V249.2H248.885ZM346.195 183.68H369.475V186.16H365.315V203.44H375.875V206.72H365.315V242.64C365.315 243.387 365.528 243.867 365.955 244.08C366.381 244.293 366.888 244.4 367.475 244.4H370.035V246.88H346.195V244.4H348.915C349.661 244.4 350.115 244.187 350.275 243.76C350.488 243.333 350.595 242.933 350.595 242.56V186.16H346.195V183.68ZM294.915 239.28C294.915 238.267 295.101 237.307 295.475 236.4C295.848 235.493 296.355 234.72 296.995 234.08C297.688 233.387 298.488 232.853 299.395 232.48C300.301 232.107 301.261 231.92 302.275 231.92C303.288 231.92 304.248 232.107 305.155 232.48C306.061 232.853 306.835 233.387 307.475 234.08C308.168 234.72 308.701 235.493 309.075 236.4C309.448 237.307 309.635 238.267 309.635 239.28C309.635 240.613 309.288 241.893 308.595 243.12C312.488 242.427 315.448 240.987 317.475 238.8C319.555 236.56 321.048 233.867 321.955 230.72C322.861 227.573 323.368 224.107 323.475 220.32C323.581 216.48 323.635 212.613 323.635 208.72V188.64H307.315C306.301 188.64 305.448 188.853 304.755 189.28C304.061 189.707 303.821 190.56 304.035 191.84C304.248 193.067 303.928 194.133 303.075 195.04C302.221 195.947 300.941 196.4 299.235 196.4C297.528 196.4 296.328 195.92 295.635 194.96C294.941 193.947 294.595 192.747 294.595 191.36C294.595 189.973 295.208 188.693 296.435 187.52C297.715 186.293 299.661 185.68 302.275 185.68H339.075V213.28C339.075 218.293 338.115 222.827 336.195 226.88C334.275 230.933 331.661 234.4 328.355 237.28C325.101 240.16 321.261 242.4 316.835 244C312.461 245.6 307.821 246.427 302.915 246.48C301.795 246.48 300.728 246.293 299.715 245.92C298.755 245.547 297.901 245.04 297.155 244.4C296.461 243.76 295.901 242.987 295.475 242.08C295.101 241.227 294.915 240.293 294.915 239.28ZM379.635 184.4H443.315V187.36H399.235V205.68H443.555V208.64H382.675V186.72H379.635V184.4ZM450.435 220.48H376.675V217.52H450.435V220.48ZM382.515 228.32H443.155V249.2H426.595V231.28H382.515V228.32Z" fill="white"/>
<path d="M96.7253 289.04H125.765V275.68H142.325V309.6H80.1653V278H77.1253V275.68H96.7253V289.04ZM96.7253 306.64H125.765V292H96.7253V306.64ZM88.8853 338.88V320.64H74.5653V317.68H148.325V320.64H133.925V338.88H119.205V320.64H103.605V338.88H88.8853ZM155.365 275.68H197.925V278.64H175.525V294.8H196.965V297.76H175.525V328.56C175.525 329.093 175.685 329.573 176.005 330C176.325 330.373 176.832 330.56 177.525 330.56C179.339 330.56 181.632 330.347 184.405 329.92C187.179 329.44 190.059 328.853 193.045 328.16C196.032 327.467 198.939 326.747 201.765 326C204.645 325.253 207.072 324.587 209.045 324V276.16H204.645V273.68H227.925V276.16H223.765V332.64C223.765 333.387 223.979 333.867 224.405 334.08C224.832 334.293 225.339 334.4 225.925 334.4H228.485V336.88H204.645V334.4H207.365C208.112 334.4 208.565 334.187 208.725 333.76C208.939 333.333 209.045 332.933 209.045 332.56V327.44C206.859 328.08 204.085 328.827 200.725 329.68C197.365 330.533 193.712 331.333 189.765 332.08C185.872 332.88 181.845 333.547 177.685 334.08C173.579 334.613 169.685 334.88 166.005 334.88C163.712 334.88 162.112 334.267 161.205 333.04C160.352 331.813 159.925 330.16 159.925 328.08V278H155.365V275.68ZM275.075 298.88V328.4C275.075 328.933 275.235 329.413 275.555 329.84C275.875 330.267 276.381 330.453 277.075 330.4C278.408 330.347 280.008 330.187 281.875 329.92C283.795 329.6 285.795 329.227 287.875 328.8C290.008 328.373 292.195 327.893 294.435 327.36C296.675 326.827 298.808 326.293 300.835 325.76C302.915 325.227 304.781 324.747 306.435 324.32C308.141 323.84 309.528 323.44 310.595 323.12V276.16H306.195V273.68H329.475V276.16H325.315V295.44H335.875V299.12H325.315V332.64C325.315 333.387 325.528 333.867 325.955 334.08C326.381 334.293 326.888 334.4 327.475 334.4H330.035V336.88H306.195V334.4H308.915C309.661 334.4 310.115 334.187 310.275 333.76C310.488 333.333 310.595 332.933 310.595 332.56V326.48C308.355 327.173 305.421 328 301.795 328.96C298.221 329.92 294.355 330.853 290.195 331.76C286.088 332.613 281.875 333.333 277.555 333.92C273.235 334.56 269.235 334.88 265.555 334.88C263.261 334.88 261.661 334.267 260.755 333.04C259.901 331.813 259.475 330.16 259.475 328.08V295.92H281.155V278.64H259.155V275.68H296.755V298.88H275.075ZM386.995 273.68H410.275V276.16H406.115V332.64C406.115 333.387 406.328 333.867 406.755 334.08C407.181 334.293 407.688 334.4 408.275 334.4H410.835V336.88H386.995V334.4H389.715C390.461 334.4 390.915 334.187 391.075 333.76C391.288 333.333 391.395 332.933 391.395 332.56V276.16H386.995V273.68ZM336.515 305.68C336.515 298.907 336.968 293.467 337.875 289.36C338.781 285.253 340.168 282.107 342.035 279.92C343.955 277.68 346.355 276.213 349.235 275.52C352.115 274.773 355.528 274.4 359.475 274.4C363.421 274.4 366.808 274.773 369.635 275.52C372.461 276.213 374.755 277.68 376.515 279.92C378.328 282.107 379.661 285.253 380.515 289.36C381.368 293.467 381.795 298.907 381.795 305.68C381.795 312.453 381.368 317.893 380.515 322C379.715 326.107 378.408 329.253 376.595 331.44C374.781 333.627 372.461 335.067 369.635 335.76C366.808 336.507 363.421 336.88 359.475 336.88C355.581 336.88 352.168 336.507 349.235 335.76C346.355 335.067 343.981 333.627 342.115 331.44C340.248 329.253 338.835 326.107 337.875 322C336.968 317.893 336.515 312.453 336.515 305.68ZM361.635 334C362.808 334 363.768 333.813 364.515 333.44C365.315 333.067 365.955 332.56 366.435 331.92C366.915 331.28 367.261 330.587 367.475 329.84C367.688 329.04 367.795 328.24 367.795 327.44V283.84C367.795 283.04 367.688 282.267 367.475 281.52C367.261 280.72 366.915 280 366.435 279.36C365.955 278.72 365.315 278.213 364.515 277.84C363.768 277.467 362.808 277.28 361.635 277.28H357.235C356.061 277.28 355.075 277.467 354.275 277.84C353.528 278.213 352.915 278.72 352.435 279.36C351.955 280 351.608 280.72 351.395 281.52C351.181 282.267 351.075 283.04 351.075 283.84V327.44C351.075 328.24 351.181 329.04 351.395 329.84C351.608 330.587 351.955 331.28 352.435 331.92C352.915 332.56 353.528 333.067 354.275 333.44C355.075 333.813 356.061 334 357.235 334H361.635ZM438.835 293.44H467.875V275.68H484.435V317.6H422.275V278H419.235V275.68H438.835V293.44ZM438.835 314.64H467.875V296.4H438.835V314.64ZM490.435 337.04H416.675V334.08H490.435V337.04Z" fill="#FFA2D1"/>
<path d="M285.706 24.3817C258.286 71.8728 234.111 30 288.952 30C234.116 30 258.291 -11.8728 285.706 35.6183C258.286 -11.8728 306.635 -11.8728 279.22 35.6183C306.64 -11.8728 330.814 30 275.974 30C330.81 30 306.635 71.8728 279.22 24.3817C306.64 71.8728 258.291 71.8728 285.706 24.3817Z" fill="white"/>
</svg>
