<svg width="579" height="397" viewBox="0 0 579 397" fill="none" xmlns="http://www.w3.org/2000/svg">
<path d="M170.009 133.26H184.349V135H181.769V177.48C181.769 178.04 181.929 178.4 182.249 178.56C182.569 178.72 182.949 178.8 183.389 178.8H184.709V180.66H155.969V178.8H157.409C157.969 178.8 158.309 178.64 158.429 178.32C158.589 178 158.669 177.7 158.669 177.42V135H156.329V133.26H168.149V150.12H172.289V135H170.009V133.26ZM127.349 134.82H154.349V176.64C151.069 177.32 147.689 177.9 144.209 178.38C140.729 178.86 137.449 179.12 134.369 179.16C132.649 179.16 131.489 178.74 130.889 177.9C130.289 177.06 129.989 175.86 129.989 174.3V136.56H127.349V134.82ZM141.149 176.28C141.669 176.24 142.249 176.2 142.889 176.16C143.529 176.08 144.189 176 144.869 175.92V137.34H139.829V175.02C139.829 175.42 139.909 175.74 140.069 175.98C140.269 176.22 140.629 176.32 141.149 176.28ZM168.149 177.72C168.189 178.12 168.329 178.38 168.569 178.5C168.809 178.66 169.089 178.76 169.409 178.8H171.209C171.689 178.72 171.989 178.52 172.109 178.2C172.229 177.92 172.289 177.66 172.289 177.42V152.88H168.149V177.72ZM189.449 154.56C189.449 153 189.969 151.68 191.009 150.6C192.089 149.52 193.429 148.98 195.029 148.98C196.589 148.98 197.909 149.52 198.989 150.6C200.069 151.68 200.609 153 200.609 154.56C200.609 155.6 200.349 156.58 199.829 157.5C201.829 157.02 203.509 156.3 204.869 155.34C206.229 154.34 207.329 153.1 208.169 151.62C209.009 150.14 209.609 148.4 209.969 146.4C210.369 144.4 210.569 142.14 210.569 139.62V136.98H195.269V134.76H237.509V136.98H222.149V138.96C222.149 142.36 222.609 145.22 223.529 147.54C224.449 149.82 225.749 151.66 227.429 153.06C229.109 154.42 231.089 155.42 233.369 156.06C235.689 156.66 238.229 156.98 240.989 157.02V159.72C238.349 159.72 235.689 159.4 233.009 158.76C230.329 158.12 227.869 157.2 225.629 156C223.389 154.8 221.449 153.36 219.809 151.68C218.209 149.96 217.149 148.02 216.629 145.86C215.869 148.58 214.649 150.86 212.969 152.7C211.289 154.54 209.409 156.02 207.329 157.14C205.289 158.22 203.169 159 200.969 159.48C198.769 159.96 196.789 160.18 195.029 160.14C193.429 160.14 192.089 159.62 191.009 158.58C189.969 157.5 189.449 156.16 189.449 154.56ZM210.689 182.16V165.6H188.549V163.38H243.869V165.6H221.729V182.16H210.689ZM306.171 133.26H320.511V135H317.931V177.48C317.931 178.04 318.091 178.4 318.411 178.56C318.731 178.72 319.111 178.8 319.551 178.8H320.871V180.66H292.131V178.8H293.571C294.131 178.8 294.471 178.64 294.591 178.32C294.751 178 294.831 177.7 294.831 177.42V135H292.491V133.26H304.311V150.12H308.451V135H306.171V133.26ZM262.971 176.28C262.971 175.08 263.371 174.06 264.171 173.22C265.011 172.38 266.051 171.96 267.291 171.96C268.491 171.96 269.511 172.38 270.351 173.22C271.191 174.06 271.611 175.08 271.611 176.28V176.64C272.411 175.56 273.011 174.24 273.411 172.68C273.811 171.08 274.091 169.3 274.251 167.34C274.411 165.34 274.471 163.22 274.431 160.98C274.431 158.74 274.431 156.42 274.431 154.02V136.14H271.191V134.4H285.471V156.96C285.471 157.72 285.451 158.7 285.411 159.9C285.411 161.06 285.451 162.34 285.531 163.74C285.611 165.1 285.751 166.52 285.951 168C286.151 169.48 286.471 170.88 286.911 172.2C287.351 173.52 287.931 174.72 288.651 175.8C289.411 176.84 290.351 177.66 291.471 178.26V180.6C289.831 180.2 288.391 179.42 287.151 178.26C285.911 177.14 284.831 175.8 283.911 174.24C282.991 172.64 282.231 170.9 281.631 169.02C281.031 167.1 280.551 165.18 280.191 163.26C279.671 165.66 278.951 167.9 278.031 169.98C277.151 172.06 276.151 173.88 275.031 175.44C273.911 176.96 272.711 178.18 271.431 179.1C270.151 180.02 268.871 180.52 267.591 180.6H267.231C266.031 180.6 265.011 180.18 264.171 179.34C263.371 178.54 262.971 177.52 262.971 176.28ZM304.311 177.72C304.351 178.12 304.491 178.38 304.731 178.5C304.971 178.66 305.251 178.76 305.571 178.8H307.191C307.751 178.8 308.091 178.64 308.211 178.32C308.371 178 308.451 177.7 308.451 177.42V152.88H304.311V177.72ZM380.451 180.78H325.131V178.56H347.871V166.2H329.331V148.86H363.531V136.98H329.331V134.76H375.951V151.08H341.751V163.98H376.491V166.2H358.911V178.56H380.451V180.78ZM413.091 154.98C408.891 154.98 405.271 154.82 402.231 154.5C399.191 154.18 396.671 153.62 394.671 152.82C392.711 152.02 391.251 150.92 390.291 149.52C389.371 148.12 388.911 146.34 388.911 144.18C388.911 141.82 389.511 139.94 390.711 138.54C391.951 137.1 393.631 136 395.751 135.24C397.911 134.48 400.451 133.98 403.371 133.74C406.291 133.46 409.451 133.32 412.851 133.32C416.291 133.32 419.451 133.46 422.331 133.74C425.251 133.98 427.771 134.48 429.891 135.24C432.011 136 433.671 137.1 434.871 138.54C436.071 139.94 436.671 141.82 436.671 144.18C436.671 146.34 436.211 148.12 435.291 149.52C434.371 150.88 432.951 151.96 431.031 152.76C429.111 153.56 426.651 154.14 423.651 154.5C420.691 154.82 417.171 154.98 413.091 154.98ZM415.731 152.76C418.371 152.76 420.431 152.3 421.911 151.38C423.391 150.46 424.131 148.94 424.131 146.82V141.54C424.131 139.62 423.391 138.16 421.911 137.16C420.431 136.12 418.371 135.6 415.731 135.6H409.911C407.271 135.6 405.191 136.06 403.671 136.98C402.151 137.9 401.391 139.42 401.391 141.54V146.82C401.391 148.94 402.151 150.46 403.671 151.38C405.191 152.3 407.271 152.76 409.911 152.76H415.731ZM409.071 172.5V161.82H385.131V159.6H440.451V161.82H420.111V172.5H409.071ZM387.531 167.46H402.831V178.8C402.831 179.04 402.891 179.3 403.011 179.58C403.131 179.86 403.451 180 403.971 180H428.331C429.371 180 430.071 179.62 430.431 178.86C430.831 178.14 430.951 177.32 430.791 176.4C430.751 176.04 430.751 175.58 430.791 175.02C430.871 174.46 431.031 173.92 431.271 173.4C431.551 172.88 431.931 172.44 432.411 172.08C432.931 171.72 433.591 171.54 434.391 171.54C435.991 171.54 437.091 172 437.691 172.92C438.291 173.8 438.611 174.9 438.651 176.22C438.651 176.86 438.511 177.52 438.231 178.2C437.991 178.92 437.511 179.58 436.791 180.18C436.111 180.78 435.171 181.26 433.971 181.62C432.771 182.02 431.251 182.22 429.411 182.22H393.831C391.511 182.22 390.351 181.1 390.351 178.86V169.2H387.531V167.46Z" fill="white"/>
<path d="M99.989 234.48C99.989 232.92 100.509 231.6 101.549 230.52C102.629 229.44 103.969 228.9 105.569 228.9C107.129 228.9 108.449 229.44 109.529 230.52C110.609 231.6 111.149 232.92 111.149 234.48C111.149 235.36 110.969 236.16 110.609 236.88C112.529 236.12 114.129 235 115.409 233.52C116.689 232.04 117.709 230.26 118.469 228.18C119.229 226.1 119.769 223.78 120.089 221.22C120.409 218.62 120.569 215.84 120.569 212.88V208.14H117.329V206.04H132.149V212.04C132.149 216.48 132.569 220.26 133.409 223.38C134.289 226.5 135.529 229.04 137.129 231C138.729 232.96 140.649 234.4 142.889 235.32C145.129 236.24 147.629 236.72 150.389 236.76V239.46C147.749 239.46 145.109 239.06 142.469 238.26C139.869 237.42 137.469 236.3 135.269 234.9C133.109 233.5 131.249 231.86 129.689 229.98C128.169 228.1 127.149 226.08 126.629 223.92C125.869 226.6 124.689 228.96 123.089 231C121.489 233 119.709 234.68 117.749 236.04C115.789 237.36 113.749 238.36 111.629 239.04C109.509 239.72 107.569 240.06 105.809 240.06H105.569C103.969 240.06 102.629 239.54 101.549 238.5C100.509 237.42 99.989 236.08 99.989 234.48ZM153.869 252.78H98.549V250.56H153.869V252.78ZM182.669 223.32H189.269V207H186.929V205.26H198.749V249.72C198.789 250.16 198.969 250.44 199.289 250.56C199.609 250.72 199.969 250.8 200.369 250.8H201.029C201.589 250.8 201.929 250.64 202.049 250.32C202.209 250 202.289 249.7 202.289 249.42V207H200.009V205.26H214.349V207H211.769V249.48C211.769 250.04 211.929 250.4 212.249 250.56C212.569 250.72 212.949 250.8 213.389 250.8H214.709V252.66H186.569V250.8H188.009C188.569 250.8 188.909 250.64 189.029 250.32C189.189 250 189.269 249.7 189.269 249.42V226.08H182.669V250.56H185.429V252.66H156.989V250.56H160.469V209.04H156.989V206.88H185.489V209.04H182.669V223.32ZM170.009 250.56H173.369V209.04H170.009V250.56ZM256.589 205.26H274.049V207.12H270.929V230.64H259.889V221.88H249.509V219.42H259.889V214.02H249.509V211.56H259.889V207.12H256.589V205.26ZM231.149 208.44H227.309V206.7H242.729V212.64C242.729 215.68 243.069 218.14 243.749 220.02C244.429 221.9 245.349 223.38 246.509 224.46C247.669 225.54 249.029 226.28 250.589 226.68C252.189 227.08 253.889 227.34 255.689 227.46V229.68C253.449 229.68 251.329 229.48 249.329 229.08C247.369 228.68 245.589 228 243.989 227.04C242.389 226.04 241.009 224.74 239.849 223.14C238.689 221.54 237.809 219.54 237.209 217.14C236.689 219.62 235.749 221.7 234.389 223.38C233.029 225.06 231.469 226.42 229.709 227.46C227.949 228.46 226.089 229.18 224.129 229.62C222.169 230.02 220.309 230.2 218.549 230.16V227.94C220.989 227.94 223.009 227.52 224.609 226.68C226.249 225.84 227.549 224.72 228.509 223.32C229.469 221.92 230.149 220.32 230.549 218.52C230.949 216.68 231.149 214.74 231.149 212.7V208.44ZM268.889 243.6C270.489 243.6 271.589 244.06 272.189 244.98C272.789 245.86 273.109 246.96 273.149 248.28C273.149 248.92 273.009 249.58 272.729 250.26C272.489 250.98 272.009 251.62 271.289 252.18C270.609 252.78 269.669 253.26 268.469 253.62C267.269 254.02 265.749 254.22 263.909 254.22H227.849C225.529 254.22 224.369 253.1 224.369 250.86V241.86H259.289V235.5H224.189V233.28H270.929V241.8C270.209 241.56 269.469 241.44 268.709 241.44C267.789 241.44 266.929 241.66 266.129 242.1C265.369 242.5 264.789 243.16 264.389 244.08H236.009V250.8C236.009 251.04 236.069 251.3 236.189 251.58C236.309 251.86 236.629 252 237.149 252H262.829C263.989 252 264.729 251.6 265.049 250.8C265.369 250 265.449 249.14 265.289 248.22C265.249 247.86 265.249 247.42 265.289 246.9C265.369 246.34 265.529 245.82 265.769 245.34C266.049 244.86 266.429 244.46 266.909 244.14C267.429 243.78 268.089 243.6 268.889 243.6ZM332.571 229.32V221.46H301.131V219.24H332.571V208.98H308.031C307.271 208.98 306.631 209.14 306.111 209.46C305.591 209.78 305.411 210.42 305.571 211.38C305.731 212.3 305.491 213.1 304.851 213.78C304.211 214.46 303.251 214.8 301.971 214.8C300.691 214.8 299.791 214.44 299.271 213.72C298.751 212.96 298.491 212.06 298.491 211.02C298.491 209.98 298.951 209.02 299.871 208.14C300.831 207.22 302.291 206.76 304.251 206.76H344.931V229.32H332.571ZM317.271 254.16V234.96H295.131V232.74H350.451V234.96H328.311V254.16H317.271ZM358.851 205.8H406.671V208.02H401.271V225.3H406.671V227.52H388.311V235.08H410.451V237.3H355.131V235.08H377.271V227.52H358.851V225.3H364.251V208.02H358.851V205.8ZM376.671 225.3H388.851V208.02H376.671V225.3ZM358.131 241.74H373.431V250.8C373.431 251.04 373.491 251.3 373.611 251.58C373.731 251.86 374.051 252 374.571 252H397.971C399.011 252 399.711 251.62 400.071 250.86C400.471 250.14 400.591 249.32 400.431 248.4C400.391 248.04 400.391 247.58 400.431 247.02C400.511 246.46 400.671 245.92 400.911 245.4C401.191 244.88 401.571 244.44 402.051 244.08C402.571 243.72 403.231 243.54 404.031 243.54C405.631 243.54 406.731 244 407.331 244.92C407.931 245.8 408.251 246.9 408.291 248.22C408.291 248.86 408.151 249.52 407.871 250.2C407.631 250.92 407.151 251.58 406.431 252.18C405.751 252.78 404.811 253.26 403.611 253.62C402.411 254.02 400.891 254.22 399.051 254.22H364.431C362.111 254.22 360.951 253.1 360.951 250.86V243.48H358.131V241.74ZM464.091 208.02H448.551V208.2C448.551 211.6 449.011 214.4 449.931 216.6C450.851 218.8 452.151 220.54 453.831 221.82C455.511 223.1 457.491 224 459.771 224.52C462.091 225.04 464.631 225.32 467.391 225.36V227.58C464.751 227.58 462.111 227.38 459.471 226.98C456.831 226.54 454.371 225.86 452.091 224.94C449.851 223.98 447.911 222.76 446.271 221.28C444.631 219.76 443.471 217.94 442.791 215.82C442.151 217.94 440.991 219.76 439.311 221.28C437.671 222.76 435.711 223.98 433.431 224.94C431.191 225.86 428.731 226.54 426.051 226.98C423.411 227.38 420.771 227.58 418.131 227.58V225.36C420.851 225.32 423.351 225.06 425.631 224.58C427.951 224.06 429.951 223.18 431.631 221.94C433.311 220.7 434.611 219.04 435.531 216.96C436.491 214.84 436.971 212.14 436.971 208.86V208.02H421.851V205.8H464.091V208.02ZM470.451 236.4H415.131V234.18H437.271V225.48H448.311V234.18H470.451V236.4ZM418.131 240.18H433.431V250.8C433.431 251.04 433.491 251.3 433.611 251.58C433.731 251.86 434.051 252 434.571 252H458.331C459.371 252 460.071 251.62 460.431 250.86C460.831 250.14 460.951 249.32 460.791 248.4C460.751 248.04 460.751 247.58 460.791 247.02C460.871 246.46 461.031 245.92 461.271 245.4C461.551 244.88 461.931 244.44 462.411 244.08C462.931 243.72 463.591 243.54 464.391 243.54C465.991 243.54 467.091 244 467.691 244.92C468.291 245.8 468.611 246.9 468.651 248.22C468.651 248.86 468.511 249.52 468.231 250.2C467.991 250.92 467.511 251.58 466.791 252.18C466.111 252.78 465.171 253.26 463.971 253.62C462.771 254.02 461.251 254.22 459.411 254.22H424.431C422.111 254.22 420.951 253.1 420.951 250.86V241.92H418.131V240.18Z" fill="#FFA2D1"/>
<g opacity="0.8">
<path d="M21.4062 307V313.594H25.3438V307H28.9688V314.812H31.8125V304.906H35.5625V331.625H31.8125V318.062H28.9688V326.125H17.6562V307H21.4062ZM21.4062 322.875H25.3438V316.75H21.4062V322.875ZM37.6875 332.875V304.438H41.5V332.875H37.6875ZM59.4688 308.188C59.4531 312.359 63.1562 316.812 69.5938 317.906L67.8438 321.219C62.875 320.234 59.2031 317.438 57.3594 313.797C55.4844 317.406 51.7969 320.219 46.875 321.219L45.1562 317.906C51.4844 316.781 55.1875 312.312 55.2188 308.188V306.125H59.4688V308.188ZM44.5 329.375V326.094H70.5312V329.375H44.5ZM95.3438 319.125V322.281H75.2188V306.531H95.125V309.75H79.2812V312.75H94.4688V315.875H79.2812V319.125H95.3438ZM72.1562 329.562V326.312H98.1875V329.562H72.1562ZM133.219 326.188V329.438H107.188V326.188H133.219ZM109.938 321.438V306.25H113.938V310.969H126.344V306.25H130.312V321.438H109.938ZM113.938 318.312H126.344V314.062H113.938V318.312ZM159.281 304.469V325.562H155.5V315.75H153.031V324.969H149.312V304.969H153.031V312.531H155.5V304.469H159.281ZM135.969 309.875V306.75H146.812V315.594H139.844V318.516C142.953 318.484 145.281 318.328 147.969 317.812L148.312 320.969C144.984 321.562 142.188 321.656 137.969 321.656H136V312.656H142.969V309.875H135.969ZM140 332.375V323.562H144V329.188H160V332.375H140ZM185.688 317.594V320.781H165.562V306.812H185.469V310.031H169.5V317.594H185.688ZM162.5 329.406V326.125H188.531V329.406H162.5ZM212.5 308.188C212.484 312.359 216.188 316.812 222.625 317.906L220.875 321.219C215.906 320.234 212.234 317.438 210.391 313.797C208.516 317.406 204.828 320.219 199.906 321.219L198.188 317.906C204.516 316.781 208.219 312.312 208.25 308.188V306.125H212.5V308.188ZM197.531 329.375V326.094H223.562V329.375H197.531ZM250.062 304.438V332.875H246.219V304.438H250.062ZM224.875 323.094H227.25V310.875H225.406V307.656H238.438V310.875H236.625V322.703C237.422 322.625 238.188 322.547 238.906 322.438L239.188 325.312C234.688 326.266 228.875 326.375 225.312 326.375L224.875 323.094ZM230.781 323.031C231.516 323.016 232.25 322.984 233 322.953V310.875H230.781V323.031ZM237.781 318.344V314.781H240.531V305H244.312V331.531H240.531V318.344H237.781ZM276.812 304.438V319.219H272.844V314.594H268.188V311.469H272.844V309.656H268.188V306.594H272.844V304.438H276.812ZM252.625 316.438C257.359 315 259.453 311.328 259.469 307.719V305.156H263.5V307.719C263.484 311.156 265.469 314.672 269.969 316.094L267.906 319.156C264.797 318.109 262.672 316 261.484 313.359C260.234 316.172 257.969 318.406 254.688 319.469L252.625 316.438ZM257.906 323.312V320.25H276.812V327.812H261.875V329.5H277.625V332.562H257.938V324.906H272.875V323.312H257.906ZM310.938 306.031V308.594C310.922 311.547 310.922 314.844 309.969 319.438H313.812V322.656H302.844V332.812H298.844V322.656H287.875V319.438H306.062C306.406 317.922 306.641 316.531 306.797 315.25L290.469 316.062L290 312.656L307.062 312.188C307.109 311.125 307.109 310.141 307.125 309.188H290.906V306.031H310.938ZM339.156 305.469V308.688H335.438V313.594H338.969V316.688H330.469V319.344H341.469V322.469H315.531V319.344H326.469V316.688H318V313.594H321.5V308.688H317.812V305.469H339.156ZM318.656 332.375V324.312H322.656V329.188H338.531V332.375H318.656ZM325.5 313.594H331.438V308.688H325.5V313.594ZM366.375 304.75V332.594H363.906V304.75H366.375ZM344.5 316.594C344.516 310.688 347.453 306.922 351.594 306.906C355.719 306.922 358.703 310.688 358.688 316.594C358.703 322.516 355.719 326.266 351.594 326.25C347.453 326.266 344.516 322.516 344.5 316.594ZM346.875 316.594C346.875 321.109 348.812 324.078 351.594 324.062C354.391 324.078 356.312 321.109 356.312 316.594C356.312 312.078 354.391 309.109 351.594 309.094C348.812 309.109 346.875 312.078 346.875 316.594ZM402.969 304.75V332.531H400.594V317.812H396.719V331.125H394.375V305.344H396.719V315.781H400.594V304.75H402.969ZM380.188 325.062V308H390.812V325.062H380.188ZM382.5 323.094H388.5V309.969H382.5V323.094ZM420.844 308.688C420.828 312.406 425.781 315.562 430.625 316.281L429.719 318.219C425.391 317.484 421.156 315.172 419.469 311.828C417.781 315.172 413.547 317.484 409.281 318.219L408.312 316.281C413.141 315.562 418.078 312.406 418.094 308.688V308.5H409.188V306.5H429.719V308.5H420.844V308.688ZM406.812 322.625V320.594H432.125V322.625H420.625V332.531H418.219V322.625H406.812ZM456.125 306.375V308.375H446.188V315.688C451.641 315.719 454.922 315.516 458.719 314.75L459.031 316.719C455.047 317.562 451.656 317.719 445.938 317.688H443.781V306.375H456.125ZM446.5 322.156V320.156H464.219V327H448.969V330.156H465.25V332.156H446.562V325.062H461.781V322.156H446.5ZM461.781 318.781V304.75H464.219V310.656H468.406V312.688H464.219V318.781H461.781ZM491.656 304.75V315.812H496.312V317.875H491.656V332.594H489.219V304.75H491.656ZM471.25 309.375V307.344H483.875V317.281H473.75V323.781C478.906 323.797 482.516 323.594 486.719 322.812L486.969 324.844C482.594 325.641 478.891 325.844 473.531 325.875H471.312V315.25H481.438V309.375H471.25ZM520.844 304.75V332.531H518.375V320.562H512.688V318.5H518.375V314.656H512.688V312.594H518.375V304.75H520.844ZM497.625 325.281C501.594 323.297 504.953 317.953 504.969 313V309.656H498.625V307.625H513.781V309.656H507.438V313C507.453 317.359 510.766 322.594 514.719 324.594L513.25 326.469C510.203 324.875 507.547 321.438 506.266 317.625C505.031 321.812 502.312 325.438 499.25 327.156L497.625 325.281ZM550.906 326.906V328.969H525.469V326.906H531.781V319.422C529.406 318.188 527.969 316.188 527.969 313.656C527.969 309.359 532.188 306.531 538.125 306.5C544.062 306.531 548.281 309.359 548.281 313.656C548.281 316.141 546.891 318.109 544.594 319.344V326.906H550.906ZM530.344 313.656C530.328 316.766 533.562 318.844 538.125 318.844C542.641 318.844 545.906 316.766 545.906 313.656C545.906 310.547 542.641 308.5 538.125 308.531C533.562 308.5 530.328 310.547 530.344 313.656ZM534.188 326.906H542.125V320.297C540.922 320.609 539.578 320.781 538.125 320.781C536.703 320.781 535.375 320.625 534.188 320.312V326.906ZM191.906 378.906V380.969H166.469V378.906H177.906V372.125H169.469V359.094H188.75V372.125H180.312V378.906H191.906ZM171.875 370.156H186.375V361.062H171.875V370.156ZM216.281 367.156V369.125H197.625V358.406H215.906V360.438H200.125V367.156H216.281ZM194.094 374.812V372.812H219.531V374.812H207.938V384.438H205.531V374.812H194.094ZM251.312 356.75V367.75H255.969V369.812H251.312V384.594H248.875V356.75H251.312ZM231.031 377.625V359.469H244V361.5H233.469V375.562C238.5 375.547 242.047 375.328 246.188 374.562L246.5 376.688C242.141 377.469 238.5 377.625 233.219 377.625H231.031ZM287.219 356.75V363.469H291.406V365.531H287.219V373H284.781V356.75H287.219ZM266.688 371.25V358.344H269.094V362.594H277.188V358.344H279.625V371.25H266.688ZM269.094 369.281H277.188V364.562H269.094V369.281ZM269.781 384.156V374.562H287.438V376.531H272.219V382.156H287.969V384.156H269.781ZM300.594 358.906C304.688 358.922 307.594 362.688 307.625 368.594C307.594 374.516 304.688 378.266 300.594 378.25C296.469 378.266 293.578 374.516 293.594 368.594C293.578 362.688 296.469 358.922 300.594 358.906ZM295.906 368.594C295.922 373.109 297.844 376.078 300.594 376.062C303.375 376.078 305.25 373.109 305.25 368.594C305.25 364.078 303.375 361.109 300.594 361.094C297.844 361.109 295.922 364.078 295.906 368.594ZM312.219 384.531V356.75H314.656V367.844H319.312V369.969H314.656V384.531H312.219ZM342.312 356.75V368.062H346.812V370.125H342.312V384.531H339.875V356.75H342.312ZM321 377.312C328.172 373.75 332.078 368.391 332.641 361.812H322.281V359.75H335.125C335.109 367.609 331.422 374.781 322.375 379.25L321 377.312ZM356.719 364.656C356.719 369.078 358.875 373.844 362.562 376.031L361.156 377.938C358.469 376.312 356.547 373.344 355.578 369.953C354.562 373.656 352.5 376.844 349.719 378.531L348.156 376.688C352 374.438 354.344 369.516 354.344 364.75V359.375H356.719V364.656ZM359.5 368.812V366.719H364.219V357.344H366.531V383.125H364.219V368.812H359.5ZM369.906 384.531V356.75H372.281V384.531H369.906ZM401.562 378.906V380.969H376.125V378.906H382.438V371.422C380.062 370.188 378.625 368.188 378.625 365.656C378.625 361.359 382.844 358.531 388.781 358.5C394.719 358.531 398.938 361.359 398.938 365.656C398.938 368.141 397.547 370.109 395.25 371.344V378.906H401.562ZM381 365.656C380.984 368.766 384.219 370.844 388.781 370.844C393.297 370.844 396.562 368.766 396.562 365.656C396.562 362.547 393.297 360.5 388.781 360.531C384.219 360.5 380.984 362.547 381 365.656ZM384.844 378.906H392.781V372.297C391.578 372.609 390.234 372.781 388.781 372.781C387.359 372.781 386.031 372.625 384.844 372.312V378.906Z" fill="white"/>
</g>
<path d="M49.0271 87.6254C49.6254 88.0328 50.0864 88.6106 50.3497 89.2833L53.554 97.406C53.7345 97.8662 54.0083 98.2844 54.3584 98.6345C54.7084 98.9845 55.1272 99.2588 55.5884 99.4404L63.7185 102.648C64.3918 102.915 64.9691 103.377 65.3759 103.975C65.7826 104.573 66 105.278 66 106C66 106.722 65.7826 107.428 65.3759 108.025C64.9691 108.623 64.3918 109.085 63.7185 109.352L55.5884 112.56C55.1279 112.741 54.7096 113.014 54.3596 113.362C54.0096 113.711 53.7354 114.128 53.554 114.587L50.3497 122.717C49.1573 125.761 44.8501 125.761 43.6429 122.717L40.4385 114.594C40.2596 114.135 39.9871 113.718 39.6382 113.369C39.2893 113.02 38.8717 112.747 38.4116 112.567L30.2815 109.36C29.6082 109.093 29.0309 108.63 28.6241 108.033C28.2174 107.435 28 106.73 28 106.008C28 105.285 28.2174 104.58 28.6241 103.982C29.0309 103.385 29.6082 102.922 30.2815 102.655L38.4116 99.4478C38.8715 99.2654 39.2887 98.9907 39.6375 98.6407C39.9862 98.2907 40.2589 97.8729 40.4385 97.4134L43.6429 89.2833C43.9062 88.6106 44.3671 88.0328 44.9654 87.6254C45.5638 87.218 46.2716 87 46.9963 87C47.721 87 48.4288 87.218 49.0271 87.6254Z" fill="white"/>
<path d="M8.85352 48.2633C9.10544 48.4348 9.29953 48.6782 9.41038 48.9614L10.7596 52.3815C10.8356 52.5753 10.9509 52.7513 11.0983 52.8987C11.2456 53.0461 11.422 53.1616 11.6162 53.2381L15.0394 54.5886C15.3229 54.7011 15.5659 54.8957 15.7372 55.1474C15.9085 55.399 16 55.696 16 56.0001C16 56.3041 15.9085 56.6011 15.7372 56.8527C15.5659 57.1044 15.3229 57.299 15.0394 57.4115L11.6162 58.762C11.4223 58.8381 11.2461 58.9532 11.0988 59.1C10.9514 59.2468 10.8359 59.4223 10.7596 59.6155L9.41038 63.0387C8.90836 64.3204 7.09478 64.3204 6.58647 63.0387L5.23727 59.6186C5.16192 59.4253 5.04718 59.2497 4.90029 59.1028C4.7534 58.9559 4.57755 58.841 4.38383 58.7652L0.96062 57.4147C0.677139 57.3022 0.434052 57.1075 0.262798 56.8559C0.0915444 56.6042 0 56.3072 0 56.0032C0 55.6992 0.0915444 55.4021 0.262798 55.1505C0.434052 54.8989 0.677139 54.7042 0.96062 54.5917L4.38383 53.2412C4.57746 53.1644 4.75316 53.0487 4.89998 52.9013C5.04681 52.754 5.16162 52.5781 5.23727 52.3846L6.58647 48.9614C6.69733 48.6782 6.89141 48.4348 7.14334 48.2633C7.39527 48.0918 7.6933 48 7.99843 48C8.30357 48 8.60159 48.0918 8.85352 48.2633Z" fill="white"/>
<path d="M578.701 21.0901C578.766 23.8242 578.53 26.6763 578.101 29.5283C577.683 32.3053 577.082 35.0823 576.364 37.7628C574.305 45.622 571.346 52.7093 569.534 56.6228C569.255 57.2232 569.008 57.7593 568.783 58.1989H544.745C544.745 58.1989 543.093 54.5213 541.239 49.0102C540.767 47.627 540.284 46.1153 539.813 44.5284C538.097 38.8136 536.51 31.9622 536.103 25.3897C535.792 20.4575 536.156 15.6648 537.615 11.5905C539.33 6.8299 542.579 3.06648 548.058 1.23302C548.605 1.05075 549.162 0.879189 549.752 0.739803C551.735 0.257314 553.966 0 556.485 0C556.785 0 557.086 -1.1779e-05 557.386 0.0214322C557.772 0.0214322 558.158 0.0321529 558.533 0.0535968C562.565 0.246593 565.856 1.05075 568.537 2.33738C570.703 3.35597 572.472 4.69622 573.876 6.2938C577.254 10.1215 578.605 15.3646 578.701 21.0901Z" fill="#E73B73"/>
<path d="M547.865 74.2812H566.843L564.86 86.5686H550.578L547.865 74.2812Z" fill="#60B860"/>
<path d="M556.115 58.1989H544.739C544.739 58.1989 543.088 54.5213 541.233 49.0102C540.761 47.627 540.279 46.1153 539.807 44.5284C538.928 31.4905 539.785 14.0672 548.052 1.23302C548.599 1.05075 549.156 0.879189 549.746 0.739803C551.73 0.257314 553.96 0 556.479 0C556.78 0 557.08 -1.1779e-05 557.38 0.0214322C554.174 9.03862 546.09 36.2832 556.115 58.1989Z" fill="#3EBBC3"/>
<path d="M556.115 58.1989H544.739C544.739 58.1989 543.088 54.5213 541.233 49.0102C540.761 47.627 540.279 46.1153 539.807 44.5284C538.928 31.4905 539.785 14.0672 548.052 1.23302C548.599 1.05075 549.156 0.879189 549.746 0.739803C551.73 0.257314 553.96 0 556.479 0C556.78 0 557.08 -1.1779e-05 557.38 0.0214322C554.174 9.03862 546.09 36.2832 556.115 58.1989Z" fill="#EE808D"/>
<path d="M576.361 37.76C574.303 45.6192 571.344 52.7065 569.532 56.62C569.253 57.2204 569.006 57.7565 568.781 58.1961H559.785C569.8 36.3125 561.747 9.10014 558.531 0.0507812C562.562 0.243777 565.854 1.04793 568.534 2.33457C574.86 12.8957 576.49 26.2768 576.361 37.76Z" fill="#EE808D"/>
</svg>
