<svg width="620" height="432" viewBox="0 0 620 432" fill="none" xmlns="http://www.w3.org/2000/svg">
<path d="M152.629 101.824V108.031H156.156V110.164H152.629V116.289H150.004V101.824H152.629ZM134.391 114.512V103.629H145.328V105.734H136.961V112.406C141.787 112.379 144.508 112.242 147.598 111.613L147.844 113.719C144.562 114.389 141.637 114.512 136.332 114.512H134.391ZM136.469 121.512C136.469 118.518 139.641 116.768 144.699 116.754C149.703 116.768 152.82 118.518 152.82 121.512C152.82 124.533 149.703 126.283 144.699 126.27C139.641 126.283 136.469 124.533 136.469 121.512ZM139.039 121.512C139.025 123.207 141.158 124.205 144.699 124.191C148.172 124.205 150.318 123.207 150.332 121.512C150.318 119.816 148.172 118.846 144.699 118.859C141.158 118.846 139.025 119.816 139.039 121.512ZM191.867 101.852V119.789H189.27V101.852H191.867ZM171.688 114.266C175.529 112.844 177.799 109.316 177.812 105.625V103.191H180.465V105.625C180.451 109.207 182.721 112.488 186.508 113.801L185.168 115.879C182.338 114.826 180.246 112.748 179.152 110.096C178.072 112.939 175.953 115.209 173.082 116.316L171.688 114.266ZM175.844 125.805V118.094H178.469V123.699H192.605V125.805H175.844ZM217.734 103.574C221.604 103.561 224.393 105.953 224.406 109.398C224.393 112.844 221.604 115.236 217.734 115.25C213.879 115.236 211.049 112.844 211.062 109.398C211.049 105.953 213.879 103.561 217.734 103.574ZM209.887 118.941C214.344 118.941 220.523 118.9 225.883 118.121L226.074 120.008C220.537 121.074 214.59 121.102 210.215 121.102L209.887 118.941ZM213.633 109.398C213.605 111.572 215.355 112.98 217.734 112.98C220.113 112.98 221.863 111.572 221.863 109.398C221.863 107.252 220.113 105.816 217.734 105.816C215.355 105.816 213.605 107.252 213.633 109.398ZM227.414 126.379V101.824H230.012V126.379H227.414ZM276.25 108.523C276.25 112.434 277.891 116.604 281.172 118.613L279.723 120.609C277.426 119.229 275.881 116.781 275.033 113.951C274.145 117.055 272.449 119.707 270.07 121.156L268.457 119.215C271.916 117.137 273.748 112.803 273.734 108.633V104.066H276.25V108.523ZM278.52 112.598V110.438H282.32V102.289H284.781V125.121H282.32V112.598H278.52ZM287.379 126.324V101.824H289.867V126.324H287.379ZM348.246 101.852V119.953H345.648V110.711H340.289V115.879H328.996V103.465H331.594V107.621H337.719V103.465H340.289V108.605H345.648V101.852H348.246ZM331.594 113.773H337.719V109.617H331.594V113.773ZM332.25 125.805V118.176H334.875V123.699H348.793V125.805H332.25ZM387.457 101.824V126.324H384.969V113.801H382.617V125.121H380.211V102.289H382.617V111.668H384.969V101.824H387.457ZM365.473 118.777C368.316 116.535 368.768 112.174 368.781 109.016V106.801H366.348V104.723H372.391V106.801H371.051V109.016C371.023 111.189 371.133 114.785 372.76 117.451C374.346 114.895 374.428 111.449 374.441 109.016V106.801H373.102V104.723H378.926V106.801H376.711V109.016C376.684 112.256 377.176 116.549 380.02 118.777L378.543 120.582C377.053 119.379 376.137 117.547 375.617 115.51C375.139 117.602 374.291 119.557 372.746 120.828C371.201 119.529 370.34 117.547 369.861 115.441C369.342 117.492 368.453 119.365 366.977 120.582L365.473 118.777ZM447.477 121.074V123.207H425.055V121.074H434.871V115.25H437.441V121.074H447.477ZM425.82 113.555C430.537 112.762 434.748 109.125 434.762 105.242V103.383H437.496V105.242C437.496 109.125 441.762 112.762 446.492 113.555L445.371 115.688C441.393 114.908 437.756 112.447 436.143 109.098C434.529 112.434 430.92 114.908 426.969 115.688L425.82 113.555ZM483.625 101.852V120.418H481.027V118.066H476.105V116.234H481.027V101.852H483.625ZM463.145 113.035C467.67 112.994 473.781 112.953 479.004 112.297L479.168 114.156C477.076 114.512 474.875 114.73 472.715 114.881V119.652H470.117V115.018C467.738 115.113 465.455 115.113 463.473 115.113L463.145 113.035ZM465.059 107.102C465.045 104.504 467.52 102.781 471.156 102.781C474.738 102.781 477.227 104.504 477.227 107.102C477.227 109.713 474.738 111.367 471.156 111.367C467.533 111.367 465.045 109.713 465.059 107.102ZM466.535 125.805V118.613H469.105V123.699H484.227V125.805H466.535ZM467.52 107.102C467.506 108.551 468.982 109.453 471.156 109.453C473.248 109.453 474.752 108.551 474.766 107.102C474.752 105.639 473.248 104.695 471.156 104.723C468.982 104.695 467.506 105.639 467.52 107.102Z" fill="white"/>
<g opacity="0.8">
<path d="M10.7812 397.719C10.7969 401.156 13.5781 404.359 17.6562 405.625L16.5 407.531C13.3281 406.516 10.8594 404.375 9.64062 401.672C8.45312 404.719 5.90625 407.125 2.625 408.281L1.4375 406.312C5.51562 404.953 8.35938 401.531 8.375 397.719V397.062H2.09375V395.062H8.375V391.656H10.8438V395.062H17.0625V397.062H10.7812V397.719ZM4.6875 417.469C9.53125 416.625 14.0938 413.578 14.125 409.719V409.125H16.625V409.719C16.6094 413.656 21.1094 416.641 26.0938 417.469L25.0625 419.406C20.8594 418.656 17 416.484 15.3438 413.234C13.6719 416.453 9.79688 418.672 5.59375 419.406L4.6875 417.469ZM16.2188 401.719V399.656H21.875V391.75H24.3438V411.031H21.875V401.719H16.2188ZM58.9688 393.562V396C58.9688 398.625 58.9688 401.516 58.1719 405.5H62.3125V407.531H50.8438V419.594H48.375V407.531H37V405.5H55.6875C56.5312 401.5 56.5312 398.594 56.5312 396V395.594H40.1875V393.562H58.9688ZM88.4688 391.75V419.531H86.0938V404.812H82.2188V418.125H79.875V392.344H82.2188V402.781H86.0938V391.75H88.4688ZM65.6875 412.062V395H76.3125V412.062H65.6875ZM68 410.094H74V396.969H68V410.094ZM113.812 391.75V402.812H118.469V404.875H113.812V419.594H111.375V391.75H113.812ZM93.4062 396.375V394.344H106.031V404.281H95.9062V410.781C101.062 410.797 104.672 410.594 108.875 409.812L109.125 411.844C104.75 412.641 101.047 412.844 95.6875 412.875H93.4688V402.25H103.594V396.375H93.4062ZM134.031 394.188V396.656H140.531V391.781H143V412.062H140.531V404.656H134.031V407.156H121.281V394.188H134.031ZM123.719 405.188H131.625V396.219H123.719V405.188ZM125.031 418.938V410.25H127.5V416.875H143.625V418.938H125.031ZM134.031 402.625H140.531V398.719H134.031V402.625ZM177.938 391.469V400.188H181.781V403.438H177.938V412.688H173.938V391.469H177.938ZM155.375 397.594V394.438H161.844V391.406H165.812V394.438H172.25V397.594H155.375ZM156.75 404.094C156.75 400.797 159.672 398.594 163.812 398.594C167.938 398.594 170.812 400.797 170.812 404.094C170.812 407.375 167.938 409.531 163.812 409.531C159.672 409.531 156.75 407.375 156.75 404.094ZM159.5 419.375V411.062H163.469V416.188H178.969V419.375H159.5ZM160.656 404.094C160.641 405.656 161.906 406.5 163.812 406.5C165.734 406.5 167.031 405.656 167.031 404.094C167.031 402.516 165.734 401.641 163.812 401.625C161.906 401.641 160.641 402.516 160.656 404.094ZM207 391.438V408.312H203.031V401.594H198.594V398.375H203.031V391.438H207ZM182.844 405.188C187.5 403.625 189.625 399.906 189.719 396.344H184V393.156H199.438V396.344H193.781C193.859 399.656 195.891 403 200.312 404.469L198.344 407.594C195.219 406.578 193.047 404.516 191.812 401.969C190.562 404.859 188.281 407.188 184.906 408.344L182.844 405.188ZM187.5 414.438C187.5 410.984 191.219 408.953 197.281 408.938C203.359 408.953 207.078 410.984 207.094 414.438C207.078 417.891 203.359 419.906 197.281 419.906C191.219 419.906 187.5 417.891 187.5 414.438ZM191.469 414.438C191.469 416.062 193.516 416.875 197.281 416.875C201.062 416.875 203.109 416.062 203.125 414.438C203.109 412.797 201.062 411.984 197.281 412C193.516 411.984 191.469 412.797 191.469 414.438ZM226.625 393.812V397H224.312V404.891C225.453 404.797 226.562 404.688 227.625 404.562L227.906 407.5C222.219 408.469 215.719 408.562 210.969 408.562L210.531 405.375C211.5 405.375 212.547 405.359 213.625 405.344V397H211.281V393.812H226.625ZM214.812 419.375V410.406H218.781V416.188H234.281V419.375H214.812ZM217.469 405.25C218.453 405.219 219.469 405.188 220.469 405.141V397H217.469V405.25ZM229.25 412.406V391.469H233.25V399.469H237.094V402.781H233.25V412.406H229.25ZM268.625 398V401.125H260.688V403H271.656V406.156H245.719V403H256.688V401.125H248.969V392.375H268.406V395.562H252.938V398H268.625ZM248.719 410.625V407.688H268.5V414.938H252.656V416.625H269.25V419.656H248.75V412.156H264.562V410.625H248.719ZM299.312 404.906V408.062H288.312V409.969C293.297 410.312 296.219 412.031 296.219 414.906C296.219 418.109 292.5 419.891 286.312 419.875C280.078 419.891 276.375 418.109 276.375 414.906C276.375 412.031 279.312 410.297 284.344 409.969V408.062H273.375V404.906H299.312ZM275.656 395.562V392.375H297V395.562H293.281V399.906H296.812V403.094H275.844V399.906H279.344V395.562H275.656ZM280.375 414.906C280.359 416.281 282.375 416.938 286.312 416.938C290.172 416.938 292.172 416.281 292.188 414.906C292.172 413.547 290.172 412.891 286.312 412.875C282.375 412.891 280.359 413.547 280.375 414.906ZM283.344 399.906H289.281V395.562H283.344V399.906ZM324.844 391.438V419.938H320.812V391.438H324.844ZM301.875 403.562C301.859 397.359 305.031 393.438 309.406 393.438C313.688 393.438 316.875 397.359 316.875 403.562C316.875 409.812 313.688 413.719 309.406 413.719C305.031 413.719 301.859 409.812 301.875 403.562ZM305.719 403.562C305.703 407.797 307.188 410.109 309.406 410.094C311.562 410.109 313.016 407.797 313.031 403.562C313.016 399.344 311.562 397.031 309.406 397.031C307.188 397.031 305.703 399.344 305.719 403.562ZM359.156 399.125V402.281H339.406V392.188H343.406V399.125H359.156ZM336.062 407.969V404.844H362.062V407.969H351.344V413H347.375V407.969H336.062ZM339.125 419.375V410.812H343.094V416.188H359.375V419.375H339.125ZM374.188 397.875C374.172 402.969 376.344 408.109 380.906 410.312L378.5 413.5C375.453 411.984 373.391 409.172 372.219 405.75C370.969 409.422 368.781 412.438 365.562 414.031L363.094 410.812C367.922 408.594 370.188 403.156 370.188 397.875V393.625H374.188V397.875ZM382.156 419.875V391.438H386.156V402.406H390.344V405.781H386.156V419.875H382.156ZM413.938 391.469V398.188H417.781V401.5H413.938V408.344H409.938V391.469H413.938ZM392.375 396.031V392.844H405.438V401.5H396.375V404.062C401.062 404.031 404.25 403.891 407.875 403.25L408.312 406.375C404.234 407.172 400.578 407.312 394.812 407.312H392.406V398.5H401.562V396.031H392.375ZM395.312 419.562V409.531H413.938V419.562H395.312ZM399.219 416.375H410.031V412.656H399.219V416.375ZM431.156 394.375V401.781H434V391.844H437.75V418.562H434V404.969H431.156V412.719H419.844V394.375H431.156ZM423.562 409.594H427.438V397.531H423.562V409.594ZM439.875 419.875V391.438H443.688V419.875H439.875ZM470.5 391.438V419.938H466.469V391.438H470.5ZM447.531 403.562C447.516 397.359 450.688 393.438 455.062 393.438C459.344 393.438 462.531 397.359 462.531 403.562C462.531 409.812 459.344 413.719 455.062 413.719C450.688 413.719 447.516 409.812 447.531 403.562ZM451.375 403.562C451.359 407.797 452.844 410.109 455.062 410.094C457.219 410.109 458.672 407.797 458.688 403.562C458.672 399.344 457.219 397.031 455.062 397.031C452.844 397.031 451.359 399.344 451.375 403.562ZM488.938 394.156C488.922 402.906 486.562 410.234 476.312 415.562L474.125 412.562C478.625 410.203 481.438 407.562 483.078 404.406L474.812 405.156L474.281 401.781L484.312 401.188C484.641 399.984 484.844 398.703 484.953 397.344H475.812V394.156H488.938ZM488.875 405.625V402.375H494.344V391.438H498.312V419.875H494.344V405.625H488.875ZM527.688 404.656V406.594H502.25V404.656H527.688ZM505.312 410.656V408.812H524.5V414.719H507.812V417.375H525.406V419.156H505.344V413.031H522.062V410.656H505.312ZM505.469 394.375V392.594H524.406V398.344H508V400.781H524.906V402.562H505.562V396.656H521.938V394.375H505.469ZM560.406 405.125V407.156H541.219V394.344H560.125V396.375H543.656V405.125H560.406ZM537.969 415.75V413.688H563.406V415.75H537.969ZM588.625 391.75V419.594H586.188V407.75H580.406V405.688H586.188V400.156H580.625V398.094H586.188V391.75H588.625ZM566.594 396.312V394.281H578.812V404.156H569.125V411C573.297 411 576.75 410.844 580.969 410.188L581.188 412.25C576.75 412.938 573.188 413.094 568.75 413.094H566.688V402.156H576.406V396.312H566.594ZM618.719 413.906V415.969H593.281V413.906H599.594V406.422C597.219 405.188 595.781 403.188 595.781 400.656C595.781 396.359 600 393.531 605.938 393.5C611.875 393.531 616.094 396.359 616.094 400.656C616.094 403.141 614.703 405.109 612.406 406.344V413.906H618.719ZM598.156 400.656C598.141 403.766 601.375 405.844 605.938 405.844C610.453 405.844 613.719 403.766 613.719 400.656C613.719 397.547 610.453 395.5 605.938 395.531C601.375 395.5 598.141 397.547 598.156 400.656ZM602 413.906H609.938V407.297C608.734 407.609 607.391 407.781 605.938 407.781C604.516 407.781 603.188 407.625 602 407.312V413.906Z" fill="white"/>
</g>
<path d="M155.465 222.64H143.225V218.48H129.385V215.36H143.225V186H140.105V183.68H155.465V222.64ZM157.545 183.68H176.265V186H173.225V222.72H160.585V186H157.545V183.68ZM102.745 194.8C102.745 192.507 103.065 190.667 103.705 189.28C104.399 187.893 105.465 186.827 106.905 186.08C108.399 185.333 110.292 184.853 112.585 184.64C114.932 184.373 117.759 184.24 121.065 184.24C124.372 184.24 127.145 184.373 129.385 184.64C131.625 184.853 133.412 185.333 134.745 186.08C136.132 186.827 137.119 187.893 137.705 189.28C138.345 190.667 138.665 192.507 138.665 194.8C138.665 197.093 138.372 198.933 137.785 200.32C137.199 201.707 136.212 202.773 134.825 203.52C133.439 204.267 131.625 204.773 129.385 205.04C127.145 205.253 124.372 205.36 121.065 205.36C117.759 205.36 114.932 205.253 112.585 205.04C110.292 204.773 108.399 204.267 106.905 203.52C105.465 202.773 104.399 201.707 103.705 200.32C103.065 198.933 102.745 197.093 102.745 194.8ZM121.865 202.4C122.825 202.4 123.572 202.24 124.105 201.92C124.692 201.6 125.119 201.2 125.385 200.72C125.652 200.187 125.812 199.627 125.865 199.04C125.919 198.4 125.945 197.813 125.945 197.28V192C125.945 191.467 125.919 190.907 125.865 190.32C125.812 189.68 125.652 189.12 125.385 188.64C125.119 188.107 124.692 187.68 124.105 187.36C123.572 187.04 122.825 186.88 121.865 186.88H120.105C119.092 186.88 118.292 187.04 117.705 187.36C117.172 187.68 116.772 188.107 116.505 188.64C116.239 189.12 116.052 189.68 115.945 190.32C115.892 190.907 115.865 191.467 115.865 192V197.28C115.865 197.813 115.892 198.4 115.945 199.04C116.052 199.627 116.239 200.187 116.505 200.72C116.772 201.2 117.172 201.6 117.705 201.92C118.292 202.24 119.092 202.4 120.105 202.4H121.865ZM109.865 222.72V211.36H101.065V208.4H140.425V211.36H124.585V222.72H109.865ZM170.505 237.84C172.372 237.84 173.705 238.213 174.505 238.96C175.305 239.707 175.732 240.96 175.785 242.72C175.785 243.573 175.599 244.373 175.225 245.12C174.905 245.867 174.292 246.507 173.385 247.04C172.479 247.627 171.252 248.08 169.705 248.4C168.159 248.773 166.212 248.96 163.865 248.96H114.025C110.932 248.96 109.385 247.467 109.385 244.48V235.52H157.705V229.04H109.145V226.08H173.225V235.44C172.265 235.12 171.279 234.96 170.265 234.96C169.039 234.96 167.892 235.253 166.825 235.84C165.812 236.373 165.039 237.253 164.505 238.48H124.905V244.4C124.905 244.72 124.985 245.067 125.145 245.44C125.305 245.813 125.732 246 126.425 246H162.425C163.972 246 164.959 245.76 165.385 245.28C165.812 244.853 165.919 244.027 165.705 242.8C165.652 242.267 165.652 241.707 165.705 241.12C165.812 240.533 166.025 240 166.345 239.52C166.719 239.04 167.225 238.64 167.865 238.32C168.559 238 169.439 237.84 170.505 237.84ZM231.785 183.68H255.065V186.16H250.905V221.12H236.185V202H223.385C222.105 205.733 220.132 208.88 217.465 211.44C215.492 213.36 213.092 214.987 210.265 216.32C207.439 217.6 204.425 218.64 201.225 219.44C198.025 220.24 194.745 220.8 191.385 221.12C188.079 221.387 184.932 221.493 181.945 221.44V218.56C184.399 218.613 186.852 218.427 189.305 218C191.759 217.52 194.079 216.8 196.265 215.84C198.452 214.88 200.399 213.707 202.105 212.32C203.865 210.88 205.252 209.253 206.265 207.44C206.692 206.693 207.065 205.893 207.385 205.04C207.759 204.133 208.079 203.067 208.345 201.84H184.025V198.88H208.905C209.065 197.653 209.172 196.213 209.225 194.56C209.332 192.853 209.385 190.88 209.385 188.64H184.025V185.68H225.065V191.12C225.065 192.453 224.985 193.76 224.825 195.04C224.719 196.267 224.532 197.493 224.265 198.72H236.185V186.16H231.785V183.68ZM185.145 225.2H250.905V248.96H235.945V246.8C232.532 247.227 228.985 247.573 225.305 247.84C221.679 248.16 218.052 248.4 214.425 248.56C210.799 248.72 207.199 248.827 203.625 248.88C200.105 248.933 196.719 248.96 193.465 248.96C190.372 248.96 188.825 247.467 188.825 244.48V227.52H185.145V225.2ZM205.625 245.68C207.652 245.733 209.919 245.707 212.425 245.6C214.985 245.547 217.599 245.44 220.265 245.28C222.932 245.12 225.599 244.907 228.265 244.64C230.985 244.427 233.545 244.16 235.945 243.84V228.32H203.865V244.08C203.865 244.773 204.025 245.2 204.345 245.36C204.719 245.573 205.145 245.68 205.625 245.68ZM332.695 183.68H355.975V186.16H351.815V204.64H362.375V208.32H351.815V242.64C351.815 243.387 352.028 243.867 352.455 244.08C352.881 244.293 353.388 244.4 353.975 244.4H356.535V246.88H332.695V244.4H335.415C336.161 244.4 336.615 244.187 336.775 243.76C336.988 243.333 337.095 242.933 337.095 242.56V186.16H332.695V183.68ZM283.015 215.68C283.015 208.907 283.468 203.467 284.375 199.36C285.281 195.253 286.668 192.107 288.535 189.92C290.455 187.68 292.855 186.213 295.735 185.52C298.615 184.773 302.028 184.4 305.975 184.4C309.921 184.4 313.308 184.773 316.135 185.52C318.961 186.213 321.255 187.68 323.015 189.92C324.828 192.107 326.161 195.253 327.015 199.36C327.868 203.467 328.295 208.907 328.295 215.68C328.295 222.453 327.868 227.893 327.015 232C326.215 236.107 324.908 239.28 323.095 241.52C321.281 243.707 318.961 245.147 316.135 245.84C313.308 246.587 309.921 246.96 305.975 246.96C302.081 246.96 298.668 246.587 295.735 245.84C292.855 245.147 290.481 243.707 288.615 241.52C286.748 239.28 285.335 236.107 284.375 232C283.468 227.893 283.015 222.453 283.015 215.68ZM308.135 244C309.308 244 310.268 243.813 311.015 243.44C311.815 243.067 312.455 242.56 312.935 241.92C313.415 241.28 313.761 240.587 313.975 239.84C314.188 239.04 314.295 238.24 314.295 237.44V193.84C314.295 193.04 314.188 192.267 313.975 191.52C313.761 190.72 313.415 190 312.935 189.36C312.455 188.72 311.815 188.213 311.015 187.84C310.268 187.467 309.308 187.28 308.135 187.28H303.735C302.561 187.28 301.575 187.467 300.775 187.84C300.028 188.213 299.415 188.72 298.935 189.36C298.455 190 298.108 190.72 297.895 191.52C297.681 192.267 297.575 193.04 297.575 193.84V237.44C297.575 238.24 297.681 239.04 297.895 239.84C298.108 240.587 298.455 241.28 298.935 241.92C299.415 242.56 300.028 243.067 300.775 243.44C301.575 243.813 302.561 244 303.735 244H308.135ZM407.415 226.8V244.08H436.935V247.04H363.175V244.08H392.695V226.8H368.775V188H365.735V185.68H430.935V226.8H407.415ZM385.335 223.84H414.375V188.64H385.335V223.84ZM496.775 242.64C496.775 243.28 496.935 243.707 497.255 243.92C497.575 244.187 497.975 244.347 498.455 244.4H499.815C500.455 244.4 500.881 244.24 501.095 243.92C501.308 243.6 501.441 243.253 501.495 242.88V186H498.455V183.68H517.575V186H514.135V242.64C514.135 243.387 514.348 243.867 514.775 244.08C515.201 244.293 515.708 244.4 516.295 244.4H518.055V246.88H480.535V244.4H482.455C483.201 244.4 483.655 244.187 483.815 243.76C484.028 243.333 484.135 242.933 484.135 242.56V237.68C482.161 238.427 479.948 239.227 477.495 240.08C475.095 240.88 472.535 241.627 469.815 242.32C467.095 243.067 464.215 243.68 461.175 244.16C458.188 244.64 455.095 244.88 451.895 244.88C449.601 244.88 448.001 244.267 447.095 243.04C446.241 241.813 445.815 240.16 445.815 238.08V205.92H460.135V188.64H444.695V185.68H473.975V208.88H460.615V238.4C460.615 238.933 460.775 239.413 461.095 239.84C461.415 240.267 461.921 240.453 462.615 240.4C464.268 240.347 466.028 240.107 467.895 239.68C469.761 239.253 471.655 238.747 473.575 238.16C475.495 237.52 477.361 236.88 479.175 236.24C480.988 235.547 482.641 234.907 484.135 234.32V208.88H475.735V205.2H484.135V186H481.015V183.68H496.775V242.64Z" fill="white"/>
<path d="M154.982 337.04H81.2216V334.08H111.542V316.4C107.168 316.187 103.408 315.707 100.262 314.96C97.1682 314.16 94.6082 312.96 92.5816 311.36C90.6082 309.707 89.1416 307.6 88.1816 305.04C87.2216 302.427 86.7416 299.227 86.7416 295.44C86.7416 290.64 87.5149 286.827 89.0616 284C90.6616 281.173 92.8482 279.04 95.6216 277.6C98.4482 276.107 101.782 275.147 105.622 274.72C109.462 274.24 113.648 274 118.182 274C122.768 274 126.955 274.24 130.742 274.72C134.582 275.147 137.888 276.107 140.662 277.6C143.488 279.04 145.675 281.173 147.222 284C148.768 286.827 149.542 290.64 149.542 295.44C149.542 299.12 149.088 302.24 148.182 304.8C147.275 307.36 145.862 309.44 143.942 311.04C142.075 312.64 139.675 313.867 136.742 314.72C133.808 315.52 130.315 316.053 126.262 316.32V334.08H154.982V337.04ZM122.022 313.68C125.542 313.68 128.235 312.693 130.102 310.72C132.022 308.747 132.982 305.947 132.982 302.32V288.32C132.982 286.72 132.742 285.227 132.262 283.84C131.782 282.453 131.062 281.253 130.102 280.24C129.195 279.173 128.048 278.347 126.662 277.76C125.328 277.173 123.782 276.88 122.022 276.88H114.262C110.742 276.88 108.048 277.893 106.182 279.92C104.315 281.893 103.382 284.693 103.382 288.32V302.32C103.382 305.947 104.315 308.747 106.182 310.72C108.048 312.693 110.742 313.68 114.262 313.68H122.022ZM164.182 274.4H183.782V291.68H228.102V294.64H167.222V276.72H164.182V274.4ZM234.982 304.88H161.222V301.92H234.982V304.88ZM225.062 325.44C227.195 325.44 228.662 326.053 229.462 327.28C230.262 328.453 230.688 329.92 230.742 331.68C230.742 332.533 230.555 333.387 230.182 334.24C229.862 335.093 229.222 335.867 228.262 336.56C227.355 337.253 226.102 337.813 224.502 338.24C222.902 338.72 220.875 338.96 218.422 338.96H172.662C169.568 338.96 168.022 337.467 168.022 334.48V323.12H212.262V315.04H167.782V312.08H227.782V323.04C226.822 322.72 225.835 322.56 224.822 322.56C223.595 322.56 222.448 322.853 221.382 323.44C220.368 323.973 219.595 324.853 219.062 326.08H183.542V334.4C183.542 334.72 183.622 335.067 183.782 335.44C183.942 335.813 184.368 336 185.062 336H216.982C218.528 336 219.515 335.573 219.942 334.72C220.368 333.867 220.475 332.827 220.262 331.6C220.208 331.12 220.208 330.533 220.262 329.84C220.368 329.093 220.582 328.4 220.902 327.76C221.275 327.12 221.782 326.587 222.422 326.16C223.115 325.68 223.995 325.44 225.062 325.44ZM263.382 289.04H292.422V275.68H308.982V309.6H246.822V278H243.782V275.68H263.382V289.04ZM263.382 306.64H292.422V292H263.382V306.64ZM270.742 338.88V320.64H241.222V317.68H314.982V320.64H285.462V338.88H270.742ZM364.262 294.4H375.702V276.16H371.302V273.68H394.582V276.16H390.422V332.64C390.422 333.387 390.635 333.867 391.062 334.08C391.488 334.293 391.995 334.4 392.582 334.4H395.142V336.88H371.302V334.4H374.022C374.768 334.4 375.222 334.187 375.382 333.76C375.595 333.333 375.702 332.933 375.702 332.56V327.44C373.515 328.08 370.742 328.827 367.382 329.68C364.022 330.533 360.368 331.333 356.422 332.08C352.528 332.88 348.502 333.547 344.342 334.08C340.235 334.613 336.342 334.88 332.662 334.88C330.368 334.88 328.768 334.267 327.862 333.04C327.008 331.813 326.582 330.16 326.582 328.08V278H322.022V275.68H364.582V278.64H342.182V294.8H359.782V297.76H342.182V328.56C342.182 329.093 342.342 329.573 342.662 330C342.982 330.373 343.488 330.56 344.182 330.56C345.995 330.56 348.288 330.347 351.062 329.92C353.835 329.44 356.715 328.853 359.702 328.16C362.688 327.467 365.595 326.747 368.422 326C371.302 325.253 373.728 324.587 375.702 324V297.68H364.262V294.4ZM447.891 334.16H453.491V336.88H427.091V334.16H432.691V282.8L427.091 284.56V281.28L447.891 273.68V334.16ZM513.738 273.68H537.018V276.16H532.858V307.52H518.138V276.16H513.738V273.68ZM463.818 290.56C463.818 287.147 464.272 284.427 465.178 282.4C466.138 280.32 467.525 278.72 469.338 277.6C471.205 276.48 473.498 275.76 476.218 275.44C478.992 275.067 482.192 274.88 485.818 274.88C489.445 274.88 492.592 275.067 495.258 275.44C497.978 275.76 500.218 276.48 501.978 277.6C503.738 278.72 505.045 280.32 505.898 282.4C506.752 284.427 507.178 287.147 507.178 290.56C507.178 293.973 506.752 296.72 505.898 298.8C505.045 300.827 503.738 302.4 501.978 303.52C500.218 304.64 498.005 305.387 495.338 305.76C492.672 306.08 489.498 306.24 485.818 306.24C482.192 306.24 478.992 306.08 476.218 305.76C473.498 305.387 471.205 304.64 469.338 303.52C467.525 302.4 466.138 300.827 465.178 298.8C464.272 296.72 463.818 293.973 463.818 290.56ZM487.658 303.12C488.832 303.12 489.765 302.933 490.458 302.56C491.205 302.187 491.765 301.707 492.138 301.12C492.565 300.48 492.858 299.76 493.018 298.96C493.178 298.16 493.258 297.36 493.258 296.56V284.16C493.258 283.36 493.178 282.587 493.018 281.84C492.858 281.04 492.565 280.32 492.138 279.68C491.765 279.04 491.205 278.533 490.458 278.16C489.765 277.787 488.832 277.6 487.658 277.6H483.898C482.725 277.6 481.765 277.787 481.018 278.16C480.325 278.533 479.765 279.04 479.338 279.68C478.912 280.32 478.618 281.04 478.458 281.84C478.298 282.587 478.218 283.36 478.218 284.16V296.56C478.218 297.36 478.298 298.16 478.458 298.96C478.618 299.76 478.912 300.48 479.338 301.12C479.765 301.707 480.325 302.187 481.018 302.56C481.765 302.933 482.725 303.12 483.898 303.12H487.658ZM530.218 325.2C532.352 325.2 533.818 325.733 534.618 326.8C535.418 327.867 535.845 329.28 535.898 331.04C535.898 331.893 535.712 332.773 535.338 333.68C535.018 334.64 534.378 335.493 533.418 336.24C532.512 337.04 531.258 337.68 529.658 338.16C528.058 338.693 526.032 338.96 523.578 338.96H475.498C472.405 338.96 470.858 337.467 470.858 334.48V322.88H517.418V314.48H470.618V311.52H532.938V322.8C531.978 322.48 530.992 322.32 529.978 322.32C528.752 322.32 527.605 322.613 526.538 323.2C525.525 323.733 524.752 324.613 524.218 325.84H486.378V334.4C486.378 334.72 486.458 335.067 486.618 335.44C486.778 335.813 487.205 336 487.898 336H522.138C523.685 336 524.672 335.467 525.098 334.4C525.525 333.333 525.632 332.187 525.418 330.96C525.365 330.48 525.365 329.92 525.418 329.28C525.525 328.587 525.738 327.947 526.058 327.36C526.432 326.72 526.938 326.213 527.578 325.84C528.272 325.413 529.152 325.2 530.218 325.2Z" fill="#FFA2D1"/>
<path d="M313.706 24.3817C286.286 71.8728 262.111 30 316.952 30C262.116 30 286.291 -11.8728 313.706 35.6183C286.286 -11.8728 334.635 -11.8728 307.22 35.6183C334.64 -11.8728 358.814 30 303.974 30C358.81 30 334.635 71.8728 307.22 24.3817C334.64 71.8728 286.291 71.8728 313.706 24.3817Z" fill="white"/>
</svg>
