<svg width="590" height="116" viewBox="0 0 590 116" fill="none" xmlns="http://www.w3.org/2000/svg">
<rect x="1.5" y="1.5" width="587" height="113" rx="56.5" stroke="#FFA2D1" stroke-width="3"/>
<path d="M176.516 45.4375C180.859 45.4375 184 49.3594 184.016 55.5625C184 61.8125 180.859 65.7188 176.516 65.7188C172.156 65.7188 169 61.8125 169.016 55.5625C169 49.3594 172.156 45.4375 176.516 45.4375ZM172.859 55.5625C172.859 59.7969 174.344 62.1094 176.516 62.0938C178.734 62.1094 180.188 59.7969 180.203 55.5625C180.188 51.3438 178.734 49.0312 176.516 49.0312C174.344 49.0312 172.859 51.3438 172.859 55.5625ZM187.297 71.875V43.4375H191.297V54.1562H195.484V57.4688H191.297V71.875H187.297ZM205.641 50.5938C205.625 55.2031 206.906 59.9531 210.797 62.4375L208.641 65.5312C206.172 64.0469 204.625 61.5781 203.719 58.6719C202.703 61.8906 201 64.5938 198.422 66.1562L195.984 63.2188C200.203 60.6094 201.766 55.5938 201.766 50.7812V45.875H205.641V50.5938ZM207.797 56.2812V53.0312H211.484V43.8438H215.203V70.5625H211.484V56.2812H207.797ZM217.359 71.875V43.4375H221.172V71.875H217.359ZM249.047 43.4375V71.875H245.203V43.4375H249.047ZM223.859 62.0938H226.234V49.875H224.391V46.6562H237.422V49.875H235.609V61.7031C236.406 61.625 237.172 61.5469 237.891 61.4375L238.172 64.3125C233.672 65.2656 227.859 65.375 224.297 65.375L223.859 62.0938ZM229.766 62.0312C230.5 62.0156 231.234 61.9844 231.984 61.9531V49.875H229.766V62.0312ZM236.766 57.3438V53.7812H239.516V44H243.297V70.5312H239.516V57.3438H236.766ZM285.234 65.2812V68.4688H259.203V65.2812H270.078V58.8438H274.047V65.2812H285.234ZM259.828 56.4375C266.266 55.4375 269.891 51.1094 269.922 47.0938V45.0625H274.172V47.0938C274.156 51.1562 277.828 55.4375 284.328 56.4375L282.641 59.75C277.641 58.8438 273.922 56.1719 272.047 52.625C270.188 56.1562 266.484 58.8594 261.516 59.75L259.828 56.4375ZM312.859 57.5V60.6562H302.141V65.5625H298.203V60.6562H286.828V57.5H312.859ZM289.891 71.375V63.0938H293.859V68.1875H309.984V71.375H289.891ZM290.078 55.1562V44.6875H309.516V55.1562H290.078ZM293.984 52.0625H305.609V47.7812H293.984V52.0625ZM339.047 43.4375V71.875H335.203V57.6562H332.547V70.5H328.797V43.9062H332.547V54.4375H335.203V43.4375H339.047ZM315.672 64.9375V46.5938H319.672V61.4531C321.953 61.3906 324.469 61.1875 327.203 60.6562L327.609 64.0938C323.797 64.75 320.547 64.9531 317.609 64.9375H315.672ZM366.078 43.4375V71.875H362.047V43.4375H366.078ZM342.266 63.8125C349.609 60.3438 352.844 55.8438 353.484 49.5312H343.797V46.4062H357.547C357.531 55.0312 354.516 62.2031 344.359 67L342.266 63.8125Z" fill="white"/>
<path d="M381 58L416 58" stroke="white" stroke-width="2" stroke-linecap="square" stroke-linejoin="round"/>
<path d="M421 58L411 64L411 52L421 58Z" fill="white"/>
</svg>
