<svg width="560" height="432" viewBox="0 0 560 432" fill="none" xmlns="http://www.w3.org/2000/svg">
<path d="M122.629 101.824V108.031H126.156V110.164H122.629V116.289H120.004V101.824H122.629ZM104.391 114.512V103.629H115.328V105.734H106.961V112.406C111.787 112.379 114.508 112.242 117.598 111.613L117.844 113.719C114.562 114.389 111.637 114.512 106.332 114.512H104.391ZM106.469 121.512C106.469 118.518 109.641 116.768 114.699 116.754C119.703 116.768 122.82 118.518 122.82 121.512C122.82 124.533 119.703 126.283 114.699 126.27C109.641 126.283 106.469 124.533 106.469 121.512ZM109.039 121.512C109.025 123.207 111.158 124.205 114.699 124.191C118.172 124.205 120.318 123.207 120.332 121.512C120.318 119.816 118.172 118.846 114.699 118.859C111.158 118.846 109.025 119.816 109.039 121.512ZM161.867 101.852V119.789H159.27V101.852H161.867ZM141.688 114.266C145.529 112.844 147.799 109.316 147.812 105.625V103.191H150.465V105.625C150.451 109.207 152.721 112.488 156.508 113.801L155.168 115.879C152.338 114.826 150.246 112.748 149.152 110.096C148.072 112.939 145.953 115.209 143.082 116.316L141.688 114.266ZM145.844 125.805V118.094H148.469V123.699H162.605V125.805H145.844ZM187.734 103.574C191.604 103.561 194.393 105.953 194.406 109.398C194.393 112.844 191.604 115.236 187.734 115.25C183.879 115.236 181.049 112.844 181.062 109.398C181.049 105.953 183.879 103.561 187.734 103.574ZM179.887 118.941C184.344 118.941 190.523 118.9 195.883 118.121L196.074 120.008C190.537 121.074 184.59 121.102 180.215 121.102L179.887 118.941ZM183.633 109.398C183.605 111.572 185.355 112.98 187.734 112.98C190.113 112.98 191.863 111.572 191.863 109.398C191.863 107.252 190.113 105.816 187.734 105.816C185.355 105.816 183.605 107.252 183.633 109.398ZM197.414 126.379V101.824H200.012V126.379H197.414ZM258.418 110.848V112.898H241.793V103.219H258.117V105.324H244.418V110.848H258.418ZM238.758 117.984V115.879H261.18V117.984H251.172V126.27H248.629V117.984H238.758ZM318.246 101.852V119.953H315.648V110.711H310.289V115.879H298.996V103.465H301.594V107.621H307.719V103.465H310.289V108.605H315.648V101.852H318.246ZM301.594 113.773H307.719V109.617H301.594V113.773ZM302.25 125.805V118.176H304.875V123.699H318.793V125.805H302.25ZM357.457 101.824V126.324H354.969V113.801H352.617V125.121H350.211V102.289H352.617V111.668H354.969V101.824H357.457ZM335.473 118.777C338.316 116.535 338.768 112.174 338.781 109.016V106.801H336.348V104.723H342.391V106.801H341.051V109.016C341.023 111.189 341.133 114.785 342.76 117.451C344.346 114.895 344.428 111.449 344.441 109.016V106.801H343.102V104.723H348.926V106.801H346.711V109.016C346.684 112.256 347.176 116.549 350.02 118.777L348.543 120.582C347.053 119.379 346.137 117.547 345.617 115.51C345.139 117.602 344.291 119.557 342.746 120.828C341.201 119.529 340.34 117.547 339.861 115.441C339.342 117.492 338.453 119.365 336.977 120.582L335.473 118.777ZM417.477 121.074V123.207H395.055V121.074H404.871V115.25H407.441V121.074H417.477ZM395.82 113.555C400.537 112.762 404.748 109.125 404.762 105.242V103.383H407.496V105.242C407.496 109.125 411.762 112.762 416.492 113.555L415.371 115.688C411.393 114.908 407.756 112.447 406.143 109.098C404.529 112.434 400.92 114.908 396.969 115.688L395.82 113.555ZM453.625 101.852V120.418H451.027V118.066H446.105V116.234H451.027V101.852H453.625ZM433.145 113.035C437.67 112.994 443.781 112.953 449.004 112.297L449.168 114.156C447.076 114.512 444.875 114.73 442.715 114.881V119.652H440.117V115.018C437.738 115.113 435.455 115.113 433.473 115.113L433.145 113.035ZM435.059 107.102C435.045 104.504 437.52 102.781 441.156 102.781C444.738 102.781 447.227 104.504 447.227 107.102C447.227 109.713 444.738 111.367 441.156 111.367C437.533 111.367 435.045 109.713 435.059 107.102ZM436.535 125.805V118.613H439.105V123.699H454.227V125.805H436.535ZM437.52 107.102C437.506 108.551 438.982 109.453 441.156 109.453C443.248 109.453 444.752 108.551 444.766 107.102C444.752 105.639 443.248 104.695 441.156 104.723C438.982 104.695 437.506 105.639 437.52 107.102Z" fill="white"/>
<g opacity="0.8">
<path d="M24.0878 394.128V396.624C24.0878 399.312 24.0878 402.224 23.3518 406.224H27.1598V409.424H16.0238V420.88H12.0558V409.424H1.17575V406.224H19.3518C20.0558 402.544 20.1198 399.728 20.1198 397.264H4.18375V394.128H24.0878ZM53.472 392.4V420.88H49.696V406.544H47.136V419.536H43.36V392.848H47.136V403.28H49.696V392.4H53.472ZM29.664 413.712V395.408H40.928V413.712H29.664ZM33.376 410.576H37.216V398.544H33.376V410.576ZM86.4553 392.4V398.544H90.2953V401.744H86.4553V407.824H82.4233V392.4H86.4553ZM63.8633 397.584V394.576H70.3273V392.208H74.2953V394.576H80.7593V397.584H63.8633ZM65.2713 402.96C65.2713 400.112 68.0553 398.288 72.3113 398.288C76.5673 398.288 79.3193 400.112 79.3513 402.96C79.3193 405.84 76.5673 407.568 72.3113 407.568C68.0553 407.568 65.2713 405.84 65.2713 402.96ZM67.5753 411.792V408.976H86.4553V416.08H71.5433V417.744H87.2873V420.688H67.6393V413.392H82.4873V411.792H67.5753ZM69.1753 402.96C69.1433 404.144 70.3593 404.72 72.3113 404.752C74.2953 404.72 75.5113 404.144 75.5113 402.96C75.5113 401.744 74.2953 401.072 72.3113 401.104C70.3593 401.072 69.1433 401.744 69.1753 402.96ZM113.999 394.64C113.999 398 117.423 401.712 123.919 402.512L122.383 405.776C117.391 405.04 113.743 402.736 111.919 399.632C110.063 402.736 106.415 405.04 101.455 405.776L99.9185 402.512C106.383 401.712 109.807 398 109.775 394.64V393.296H113.999V394.64ZM98.8945 411.152V407.888H124.879V411.152H113.807V420.88H109.839V411.152H98.8945ZM152.535 407.696V410.896H126.551V407.696H137.559V405.648H129.751V397.776H145.431V396.048H129.751V392.976H149.399V400.656H133.719V402.576H149.911V405.648H141.527V407.696H152.535ZM129.431 415.632V412.496H149.591V420.752H145.559V415.632H129.431ZM175.918 394.96V398.16H166.958V410.832C171.086 410.8 174.094 410.576 177.454 409.936L177.838 413.2C173.934 413.936 170.51 414.096 165.294 414.096H162.926V394.96H175.918ZM174.51 405.52V402.256H181.678V392.4H185.646V420.944H181.678V405.52H174.51ZM219.589 393.744V396.368C219.557 399.152 219.557 402.064 218.821 406.032H222.597V409.232H196.613V406.032H214.789C215.045 404.752 215.237 403.536 215.333 402.448L199.493 403.024L199.045 399.824L215.557 399.472C215.557 398.608 215.557 397.744 215.557 396.944H199.813V393.744H219.589ZM199.621 420.368V411.28H203.653V417.168H219.973V420.368H199.621ZM257.87 405.968V408.016H232.59V405.968H257.87ZM233.998 402.384C238.83 401.776 243.502 399.376 243.662 396.24H234.894V394.192H255.63V396.24H246.798C246.926 399.376 251.534 401.776 256.462 402.384L255.566 404.304C251.022 403.728 246.766 401.712 245.23 398.64C243.694 401.712 239.438 403.728 234.894 404.304L233.998 402.384ZM235.598 415.504C235.63 412.272 239.214 410.448 245.198 410.448C251.182 410.448 254.766 412.272 254.798 415.504C254.766 418.672 251.182 420.464 245.198 420.496C239.214 420.464 235.63 418.672 235.598 415.504ZM238.094 415.504C238.094 417.392 240.75 418.512 245.198 418.512C249.614 418.512 252.302 417.392 252.302 415.504C252.302 413.52 249.614 412.4 245.198 412.368C240.75 412.4 238.094 413.52 238.094 415.504ZM283.222 392.784V409.296H280.79V402.064H275.158V400.016H280.79V392.784H283.222ZM260.31 407.12C264.47 405.616 267.414 401.84 267.414 397.84V396.816H261.142V394.768H276.118V396.816H269.91V397.84C269.878 401.456 272.662 404.912 276.758 406.288L275.478 408.272C272.342 407.152 269.91 404.816 268.694 401.968C267.478 405.232 264.918 407.792 261.59 409.04L260.31 407.12ZM264.726 415.376C264.694 412.08 268.246 410.192 274.006 410.192C279.798 410.192 283.35 412.08 283.35 415.376C283.35 418.608 279.798 420.496 274.006 420.496C268.246 420.496 264.694 418.608 264.726 415.376ZM267.158 415.376C267.126 417.36 269.782 418.576 274.006 418.576C278.262 418.576 280.918 417.36 280.918 415.376C280.918 413.328 278.262 412.112 274.006 412.112C269.782 412.112 267.126 413.328 267.158 415.376ZM319.71 392.784V420.56H317.342V392.784H319.71ZM295.838 399.568V397.584H301.534V393.488H303.966V397.584H309.662V399.568H295.838ZM296.862 407.888C296.83 404.08 299.294 401.456 302.686 401.488C306.11 401.456 308.574 404.08 308.574 407.888L308.542 408.528H312.158V404.24H308.254V402.192H312.158V393.36H314.462V419.152H312.158V410.512H308.126C307.262 412.816 305.246 414.288 302.686 414.288C299.294 414.288 296.83 411.664 296.862 407.888ZM298.974 407.888C299.006 410.384 300.542 412.176 302.686 412.176C304.862 412.176 306.398 410.384 306.398 407.888C306.398 405.328 304.862 403.6 302.686 403.6C300.542 403.6 299.006 405.328 298.974 407.888ZM335.526 394.768V396.816H327.142V400.336H335.27V402.256H327.142V406.096C331.206 406.096 333.734 405.936 336.678 405.328L336.934 407.376C333.67 408.016 331.046 408.144 326.502 408.144H324.774V394.768H335.526ZM328.422 413.072V411.088H347.11V420.56H344.678V413.072H328.422ZM338.598 409.424V393.296H340.902V400.016H344.806V392.784H347.11V409.616H344.806V402.064H340.902V409.424H338.598ZM363.823 393.232C370.031 393.264 373.647 394.96 373.615 398.032C373.647 401.168 370.031 402.896 363.823 402.896C357.647 402.896 353.999 401.168 353.967 398.032C353.999 394.96 357.647 393.264 363.823 393.232ZM351.215 406.8V404.816H376.495V406.8H351.215ZM354.286 411.088V409.168H373.231V415.376H356.719V418.256H374.063V420.24H354.351V413.584H370.863V411.088H354.286ZM356.591 398.032C356.527 399.952 359.247 401.04 363.823 401.04C368.463 401.04 371.151 399.952 371.119 398.032C371.151 396.208 368.463 395.12 363.823 395.088C359.247 395.12 356.527 396.208 356.591 398.032ZM409.719 392.784V420.56H407.287V392.784H409.719ZM387.895 404.56C387.895 398.672 390.839 394.928 394.999 394.896C399.095 394.928 402.071 398.672 402.103 404.56C402.071 410.512 399.095 414.256 394.999 414.288C390.839 414.256 387.895 410.512 387.895 404.56ZM390.263 404.56C390.263 409.104 392.183 412.08 394.999 412.048C397.751 412.08 399.671 409.104 399.671 404.56C399.671 400.08 397.751 397.104 394.999 397.072C392.183 397.104 390.263 400.08 390.263 404.56ZM436.799 393.872V401.104H420.095V404.688H437.439V406.736H417.599V399.184H434.303V395.856H417.535V393.872H436.799ZM414.463 411.664V409.616H439.871V411.664H428.351V420.56H425.919V411.664H414.463ZM449.607 394.896C453.415 394.928 456.135 398.16 456.519 403.344H462.727V392.784H465.159V420.56H462.727V405.392H456.551C456.263 410.864 453.511 414.256 449.607 414.288C445.511 414.256 442.631 410.512 442.695 404.56C442.631 398.672 445.511 394.928 449.607 394.896ZM444.999 404.56C444.999 409.104 446.887 412.08 449.607 412.048C452.359 412.08 454.247 409.104 454.215 404.56C454.247 400.08 452.359 397.104 449.607 397.072C446.887 397.104 444.999 400.08 444.999 404.56ZM500.24 406.096V408.144H481.04V395.344H499.984V397.392H483.472V406.096H500.24ZM477.84 416.72V414.672H503.248V416.72H477.84ZM528.472 392.784V420.56H526.04V408.784H520.28V406.672H526.04V401.168H520.472V399.12H526.04V392.784H528.472ZM506.456 397.328V395.28H518.68V405.136H508.952V411.984C513.144 412.016 516.6 411.824 520.792 411.216L521.048 413.264C516.6 413.936 513.016 414.096 508.568 414.096H506.52V403.152H516.248V397.328H506.456ZM558.56 414.928V416.976H533.152V414.928H539.424V407.408C537.056 406.192 535.616 404.176 535.648 401.68C535.616 397.36 539.84 394.544 545.76 394.512C551.712 394.544 555.936 397.36 555.936 401.68C555.936 404.144 554.528 406.128 552.224 407.344V414.928H558.56ZM538.016 401.68C537.984 404.752 541.216 406.832 545.76 406.864C550.304 406.832 553.568 404.752 553.568 401.68C553.568 398.544 550.304 396.496 545.76 396.496C541.216 396.496 537.984 398.544 538.016 401.68ZM541.856 414.928H549.792V408.304C548.576 408.624 547.232 408.784 545.76 408.784C544.352 408.784 543.04 408.624 541.856 408.336V414.928Z" fill="white"/>
</g>
<path d="M112.365 185.68H154.925V188.64H132.525V238.56C132.525 239.093 132.685 239.573 133.005 240C133.325 240.373 133.832 240.56 134.525 240.56C136.339 240.56 138.579 240.347 141.245 239.92C143.912 239.44 146.712 238.88 149.645 238.24C152.579 237.547 155.485 236.827 158.365 236.08C161.245 235.333 163.805 234.667 166.045 234.08V213.12H147.005V209.84H166.045V186.16H161.645V183.68H184.925V186.16H180.765V242.64C180.765 243.387 180.979 243.867 181.405 244.08C181.832 244.293 182.339 244.4 182.925 244.4H185.485V246.88H161.645V244.4H164.365C165.112 244.4 165.565 244.187 165.725 243.76C165.939 243.333 166.045 242.933 166.045 242.56V237.44C163.859 238.08 161.085 238.827 157.725 239.68C154.365 240.533 150.712 241.333 146.765 242.08C142.872 242.88 138.845 243.547 134.685 244.08C130.579 244.613 126.685 244.88 123.005 244.88C120.712 244.88 119.112 244.267 118.205 243.04C117.352 241.813 116.925 240.16 116.925 238.08V188H112.365V185.68ZM263.195 183.68H286.475V186.16H282.315V203.44H292.875V206.72H282.315V242.64C282.315 243.387 282.528 243.867 282.955 244.08C283.381 244.293 283.888 244.4 284.475 244.4H287.035V246.88H263.195V244.4H265.915C266.661 244.4 267.115 244.187 267.275 243.76C267.488 243.333 267.595 242.933 267.595 242.56V186.16H263.195V183.68ZM207.835 239.52C207.835 237.44 208.555 235.68 209.995 234.24C211.381 232.8 213.141 232.08 215.275 232.08C217.355 232.08 219.115 232.8 220.555 234.24C221.995 235.68 222.715 237.44 222.715 239.52C222.715 240.107 222.661 240.64 222.555 241.12C222.448 241.6 222.315 242.053 222.155 242.48C224.181 241.307 225.755 239.627 226.875 237.44C227.995 235.2 228.821 232.613 229.355 229.68C229.888 226.747 230.208 223.52 230.315 220C230.421 216.48 230.475 212.8 230.475 208.96V187.52H226.155V185.2H245.915V210.48C245.915 216.4 246.155 221.467 246.635 225.68C247.115 229.84 247.941 233.28 249.115 236C250.288 238.667 251.888 240.667 253.915 242C255.941 243.28 258.501 244 261.595 244.16V246.8C258.768 246.8 256.048 246.213 253.435 245.04C250.875 243.92 248.608 242.427 246.635 240.56C245.568 239.547 244.581 238.4 243.675 237.12C242.821 235.84 242.048 234.507 241.355 233.12C240.715 231.68 240.155 230.24 239.675 228.8C239.248 227.307 238.875 225.867 238.555 224.48C237.861 227.733 236.688 230.747 235.035 233.52C233.435 236.24 231.568 238.613 229.435 240.64C227.355 242.613 225.115 244.16 222.715 245.28C220.315 246.4 217.941 246.96 215.595 246.96H215.275C213.141 246.96 211.381 246.24 209.995 244.8C208.555 243.413 207.835 241.653 207.835 239.52ZM294.475 185.68H337.835V188.64H314.635V238.56C314.635 239.093 314.795 239.573 315.115 240C315.435 240.373 315.941 240.56 316.635 240.56C318.395 240.56 320.608 240.347 323.275 239.92C325.995 239.44 328.795 238.88 331.675 238.24C334.608 237.6 337.488 236.907 340.315 236.16C343.141 235.413 345.568 234.747 347.595 234.16V186.16H343.195V183.68H366.475V186.16H362.315V204.64H372.875V208.32H362.315V242.64C362.315 243.387 362.528 243.867 362.955 244.08C363.381 244.293 363.888 244.4 364.475 244.4H367.035V246.88H343.195V244.4H345.915C346.661 244.4 347.115 244.187 347.275 243.76C347.488 243.333 347.595 242.933 347.595 242.56V237.6C345.355 238.24 342.555 238.987 339.195 239.84C335.888 240.693 332.315 241.467 328.475 242.16C324.635 242.907 320.688 243.547 316.635 244.08C312.581 244.613 308.741 244.88 305.115 244.88C302.821 244.88 301.221 244.267 300.315 243.04C299.461 241.813 299.035 240.16 299.035 238.08V188H294.475V185.68ZM423.195 183.68H446.475V186.16H442.315V203.44H452.875V206.72H442.315V242.64C442.315 243.387 442.528 243.867 442.955 244.08C443.381 244.293 443.888 244.4 444.475 244.4H447.035V246.88H423.195V244.4H425.915C426.661 244.4 427.115 244.187 427.275 243.76C427.488 243.333 427.595 242.933 427.595 242.56V186.16H423.195V183.68ZM371.915 239.28C371.915 238.267 372.101 237.307 372.475 236.4C372.848 235.493 373.355 234.72 373.995 234.08C374.688 233.387 375.488 232.853 376.395 232.48C377.301 232.107 378.261 231.92 379.275 231.92C380.288 231.92 381.248 232.107 382.155 232.48C383.061 232.853 383.835 233.387 384.475 234.08C385.168 234.72 385.701 235.493 386.075 236.4C386.448 237.307 386.635 238.267 386.635 239.28C386.635 240.613 386.288 241.893 385.595 243.12C389.488 242.427 392.448 240.987 394.475 238.8C396.555 236.56 398.048 233.867 398.955 230.72C399.861 227.573 400.368 224.107 400.475 220.32C400.581 216.48 400.635 212.613 400.635 208.72V188.64H384.315C383.301 188.64 382.448 188.853 381.755 189.28C381.061 189.707 380.821 190.56 381.035 191.84C381.248 193.067 380.928 194.133 380.075 195.04C379.221 195.947 377.941 196.4 376.235 196.4C374.528 196.4 373.328 195.92 372.635 194.96C371.941 193.947 371.595 192.747 371.595 191.36C371.595 189.973 372.208 188.693 373.435 187.52C374.715 186.293 376.661 185.68 379.275 185.68H416.075V213.28C416.075 218.293 415.115 222.827 413.195 226.88C411.275 230.933 408.661 234.4 405.355 237.28C402.101 240.16 398.261 242.4 393.835 244C389.461 245.6 384.821 246.427 379.915 246.48C378.795 246.48 377.728 246.293 376.715 245.92C375.755 245.547 374.901 245.04 374.155 244.4C373.461 243.76 372.901 242.987 372.475 242.08C372.101 241.227 371.915 240.293 371.915 239.28Z" fill="white"/>
<path d="M112.365 275.68H155.725V278.64H132.525V328.56C132.525 329.093 132.685 329.573 133.005 330C133.325 330.373 133.832 330.56 134.525 330.56C136.285 330.56 138.499 330.347 141.165 329.92C143.885 329.44 146.685 328.88 149.565 328.24C152.499 327.6 155.379 326.907 158.205 326.16C161.032 325.413 163.459 324.747 165.485 324.16V276.16H161.085V273.68H184.365V276.16H180.205V294.64H190.765V298.32H180.205V332.64C180.205 333.387 180.419 333.867 180.845 334.08C181.272 334.293 181.779 334.4 182.365 334.4H184.925V336.88H161.085V334.4H163.805C164.552 334.4 165.005 334.187 165.165 333.76C165.379 333.333 165.485 332.933 165.485 332.56V327.6C163.245 328.24 160.445 328.987 157.085 329.84C153.779 330.693 150.205 331.467 146.365 332.16C142.525 332.907 138.579 333.547 134.525 334.08C130.472 334.613 126.632 334.88 123.005 334.88C120.712 334.88 119.112 334.267 118.205 333.04C117.352 331.813 116.925 330.16 116.925 328.08V278H112.365V275.68ZM263.195 273.68H286.475V276.16H282.315V287.36H292.875V291.04H282.315V307.52H267.595V276.16H263.195V273.68ZM230.475 277.92H225.355V275.6H245.915V284.48C245.915 288.533 246.368 291.813 247.275 294.32C248.181 296.827 249.408 298.8 250.955 300.24C252.501 301.68 254.315 302.667 256.395 303.2C258.528 303.733 260.795 304.08 263.195 304.24V307.2C260.208 307.2 257.381 306.933 254.715 306.4C252.101 305.867 249.728 304.96 247.595 303.68C245.461 302.347 243.621 300.613 242.075 298.48C240.528 296.347 239.355 293.68 238.555 290.48C237.861 293.787 236.608 296.56 234.795 298.8C232.981 301.04 230.901 302.853 228.555 304.24C226.208 305.573 223.728 306.533 221.115 307.12C218.501 307.653 216.021 307.893 213.675 307.84V304.88C216.928 304.88 219.621 304.32 221.755 303.2C223.941 302.08 225.675 300.587 226.955 298.72C228.235 296.853 229.141 294.72 229.675 292.32C230.208 289.867 230.475 287.28 230.475 284.56V277.92ZM279.595 325.2C281.728 325.2 283.195 325.733 283.995 326.8C284.795 327.867 285.221 329.28 285.275 331.04C285.275 331.893 285.088 332.773 284.715 333.68C284.395 334.64 283.755 335.493 282.795 336.24C281.888 337.04 280.635 337.68 279.035 338.16C277.435 338.693 275.408 338.96 272.955 338.96H224.875C221.781 338.96 220.235 337.467 220.235 334.48V322.88H266.795V314.48H219.995V311.52H282.315V322.8C281.355 322.48 280.368 322.32 279.355 322.32C278.128 322.32 276.981 322.613 275.915 323.2C274.901 323.733 274.128 324.613 273.595 325.84H235.755V334.4C235.755 334.72 235.835 335.067 235.995 335.44C236.155 335.813 236.581 336 237.275 336H271.515C273.061 336 274.048 335.467 274.475 334.4C274.901 333.333 275.008 332.187 274.795 330.96C274.741 330.48 274.741 329.92 274.795 329.28C274.901 328.587 275.115 327.947 275.435 327.36C275.808 326.72 276.315 326.213 276.955 325.84C277.648 325.413 278.528 325.2 279.595 325.2ZM343.195 273.68H366.475V276.16H362.315V290.48H372.875V294.16H362.315V316.32H347.595V276.16H343.195V273.68ZM293.515 276H338.555V310.64H297.195V278.32H293.515V276ZM311.675 307.68H324.075V278.96H311.675V307.68ZM296.635 316.4H320.955V318.72H316.395V334.08C316.395 334.4 316.475 334.747 316.635 335.12C316.795 335.493 317.221 335.68 317.915 335.68H351.355C352.741 335.68 353.675 335.173 354.155 334.16C354.688 333.2 354.848 332.107 354.635 330.88C354.581 330.4 354.581 329.813 354.635 329.12C354.741 328.373 354.955 327.68 355.275 327.04C355.648 326.4 356.155 325.867 356.795 325.44C357.488 324.96 358.368 324.72 359.435 324.72C361.568 324.72 363.035 325.333 363.835 326.56C364.635 327.733 365.061 329.2 365.115 330.96C365.115 331.813 364.928 332.693 364.555 333.6C364.235 334.56 363.595 335.44 362.635 336.24C361.728 337.04 360.475 337.68 358.875 338.16C357.275 338.693 355.248 338.96 352.795 338.96H304.875C301.781 338.96 300.235 337.467 300.235 334.48V318.72H296.635V316.4ZM380.395 274.64H440.155V299.92H423.515V291.52H379.995V288.56H423.515V277.6H380.395V274.64ZM447.435 307.6H373.675V304.64H447.435V307.6ZM377.275 316.16H440.075V338.96H425.115V337.04C421.861 337.413 418.528 337.707 415.115 337.92C411.755 338.187 408.368 338.4 404.955 338.56C401.595 338.72 398.261 338.827 394.955 338.88C391.701 338.933 388.581 338.96 385.595 338.96C382.501 338.96 380.955 337.467 380.955 334.48V318.48H377.275V316.16ZM397.755 335.68C399.568 335.68 401.568 335.653 403.755 335.6C405.995 335.547 408.315 335.44 410.715 335.28C413.115 335.173 415.541 335.013 417.995 334.8C420.448 334.587 422.821 334.347 425.115 334.08V319.28H395.995V334.08C395.995 334.773 396.155 335.2 396.475 335.36C396.848 335.573 397.275 335.68 397.755 335.68Z" fill="#FFA2D1"/>
<path d="M283.706 24.3817C256.286 71.8728 232.111 30 286.952 30C232.116 30 256.291 -11.8728 283.706 35.6183C256.286 -11.8728 304.635 -11.8728 277.22 35.6183C304.64 -11.8728 328.814 30 273.974 30C328.81 30 304.635 71.8728 277.22 24.3817C304.64 71.8728 256.291 71.8728 283.706 24.3817Z" fill="white"/>
</svg>
