<svg width="590" height="116" viewBox="0 0 590 116" fill="none" xmlns="http://www.w3.org/2000/svg">
<rect x="1.5" y="1.5" width="587" height="113" rx="56.5" stroke="#FFA2D1" stroke-width="3"/>
<path d="M180.359 51.1875C180.344 55.5156 182.656 60.5156 187.328 62.6875L185.109 65.8125C181.938 64.3594 179.688 61.4531 178.406 58.0469C177.141 61.7969 174.797 64.9844 171.516 66.5312L169.203 63.375C173.938 61.1719 176.328 55.8906 176.359 51.1875V49.4375H170.328V46.1875H186.078V49.4375H180.359V51.1875ZM188.297 71.875V43.4375H192.297V54.2812H196.484V57.625H192.297V71.875H188.297ZM206.641 50.5938C206.625 55.2031 207.906 59.9531 211.797 62.4375L209.641 65.5312C207.172 64.0469 205.625 61.5781 204.719 58.6719C203.703 61.8906 202 64.5938 199.422 66.1562L196.984 63.2188C201.203 60.6094 202.766 55.5938 202.766 50.7812V45.875H206.641V50.5938ZM208.797 56.2812V53.0312H212.484V43.8438H216.203V70.5625H212.484V56.2812H208.797ZM218.359 71.875V43.4375H222.172V71.875H218.359ZM248.984 43.4375V71.875H244.953V43.4375H248.984ZM225.766 50.9062V47.7188H232.234V43.8125H236.297V47.7188H242.766V50.9062H225.766ZM226.984 59.25C226.984 55.2812 230.109 52.4531 234.328 52.4688C238.531 52.4531 241.641 55.2812 241.641 59.25C241.641 63.2188 238.531 66.0156 234.328 66.0312C230.109 66.0156 226.984 63.2188 226.984 59.25ZM230.797 59.25C230.781 61.4531 232.25 62.7656 234.328 62.75C236.375 62.7656 237.828 61.4531 237.828 59.25C237.828 57.0625 236.375 55.7188 234.328 55.6875C232.25 55.7188 230.781 57.0625 230.797 59.25ZM286.234 65.3125V68.5625H260.203V65.3125H271.172V60.0625H262.953V45.25H266.953V49.6562H279.359V45.25H283.328V60.0625H275.141V65.3125H286.234ZM266.953 56.875H279.359V52.8438H266.953V56.875ZM311.828 43.4375V71.9375H307.859V56.9375H303.266V53.6875H307.859V43.4375H311.828ZM288.797 49.0312V45.8125H301.672V56.4688H292.828V62.0312C296.75 62 300.062 61.8594 303.734 61.2188L304.047 64.4688C299.828 65.1719 295.969 65.3281 291.203 65.3125H288.859V53.3125H297.797V49.0312H288.797ZM337.953 43.4375V54.3438H341.984V57.625H337.953V71.8125H333.953V43.4375H337.953ZM315.203 63.8438C321.938 60.4688 325.562 55.9375 326.312 49.5938H316.828V46.3438H330.359C330.328 54.8438 327.016 62.2031 317.453 66.9062L315.203 63.8438ZM367.078 43.4375V71.875H363.047V43.4375H367.078ZM343.266 63.8125C350.609 60.3438 353.844 55.8438 354.484 49.5312H344.797V46.4062H358.547C358.531 55.0312 355.516 62.2031 345.359 67L343.266 63.8125Z" fill="white"/>
<path d="M382 58L417 58" stroke="white" stroke-width="2" stroke-linecap="square" stroke-linejoin="round"/>
<path d="M422 58L412 64L412 52L422 58Z" fill="white"/>
</svg>
