<svg width="750" height="624" viewBox="0 0 750 624" fill="none" xmlns="http://www.w3.org/2000/svg">
<g clip-path="url(#clip0_1_631)">
<path d="M449.81 523.235C449.81 523.235 493.85 453.405 498.5 448.085C498.5 448.085 529.09 476.685 536.74 465.375C544.39 454.065 523.11 447.085 515.12 446.085C507.13 445.085 502.48 441.095 502.48 441.095L515.12 417.415C515.12 417.415 540.73 438.095 547.71 431.785C554.69 425.475 546.38 419.145 517.78 414.495C517.78 414.495 540.39 368.605 571.32 359.295C571.32 359.295 577.64 396.535 592.94 391.885C608.24 387.235 582.63 351.845 582.63 351.845C582.63 351.845 591.61 349.045 593.94 351.845C596.27 354.645 602.59 376.595 615.22 381.575C627.85 386.555 633.18 387.895 637.17 391.885C641.16 395.875 651.14 408.175 656.46 402.525C661.78 396.875 649.48 387.895 643.16 386.565C636.84 385.235 635.18 376.255 643.49 379.245C651.8 382.235 661.11 392.545 666.1 384.565C671.09 376.585 652.8 373.255 649.14 372.595C645.48 371.935 641.49 369.265 642.49 367.275C643.49 365.285 657.79 372.265 663.44 372.595C669.09 372.925 673.08 373.265 674.41 369.265C675.74 365.265 670.75 359.955 650.47 357.625C650.47 357.625 635.17 350.305 653.13 354.295C671.09 358.285 676.08 358.615 677.41 353.965C678.74 349.315 669.76 343.985 658.79 345.315C647.82 346.645 647.15 344.315 647.48 342.655C647.81 340.995 651.47 339.995 660.78 340.995C670.09 341.995 677.67 341.995 677.54 336.675C677.41 331.355 670.76 330.025 660.12 332.015C649.48 334.005 641.5 332.345 650.81 329.025C660.12 325.705 671.43 326.035 670.76 319.715C670.09 313.395 651.81 317.385 639.83 323.375C639.83 323.375 623.74 318.755 606.54 334.685C589.34 350.605 577.31 349.315 577.31 349.315C577.31 349.315 572.99 300.435 556.03 307.745C539.07 315.055 570 355.635 570 355.635C570 355.635 556.03 361.285 550.71 364.285C545.39 367.285 548.75 365.765 548.75 365.765C548.75 365.765 547.39 343.995 547.72 337.345C548.05 330.695 543.06 309.745 534.09 320.715C525.12 331.685 541.07 365.275 541.07 365.275C541.07 365.275 534.09 374.915 532.76 377.915C532.76 377.915 505.68 354.695 497.51 361.285C489.34 367.875 489.2 369.935 526.11 384.895L516.8 402.515C516.8 402.515 491.53 371.925 482.88 384.895C474.23 397.865 500.17 396.205 510.65 407.845C510.65 407.845 460.93 498.965 434 519.245L449.82 523.235H449.81Z" fill="#935AFF"/>
<path d="M632.568 459.423C637.008 458.983 663.607 451.893 657.397 440.803C651.307 429.933 627.717 451.073 626.837 451.863C627.667 450.833 646.807 426.973 629.017 423.073C613.907 419.753 616.878 439.743 618.318 446.563C615.038 435.013 602.857 427.943 602.857 427.943C642.327 400.013 594.287 395.483 578.477 414.823C562.667 434.163 570.938 465.193 570.938 465.193C563.287 465.303 539.457 473.243 539.457 473.243C536.797 456.903 547.847 443.023 552.477 435.923C557.117 428.833 551.197 409.883 536.357 422.623C521.507 435.363 528.817 479.823 528.817 479.823C518.177 484.703 467.188 509.533 467.188 509.533V528.153C470.727 521.943 507.887 497.343 507.887 497.343C550.798 540.123 567.007 510.503 565.617 505.093C563.117 495.343 552.478 505.543 539.018 505.543C528.388 505.543 516.397 492.243 516.397 492.243C528.077 482.173 569.607 472.283 569.607 472.283C573.158 494.013 589.117 514.853 605.077 519.733C621.037 524.603 629.908 517.513 629.467 507.643C629.018 497.783 611.727 500.663 597.607 496.673C583.487 492.683 578.917 470.513 578.917 470.513C578.917 470.513 573.597 472.283 578.917 468.593C584.237 464.903 599.758 466.083 599.758 466.083C596.208 473.173 592.668 484.703 602.418 486.913C612.178 489.133 619.267 468.513 619.267 468.513C619.267 468.513 619.267 501.993 634.337 499.333C649.097 496.733 634.538 471.183 633.918 470.103C634.728 470.773 661.048 492.873 667.158 476.723C673.357 460.313 632.568 459.423 632.568 459.423ZM605.967 459.873C601.977 459.873 576.257 462.533 576.257 462.533C570.937 439.923 591.777 435.043 591.777 435.043C592.307 440.603 599.318 446.573 605.967 451.003C612.617 455.433 609.958 459.873 605.967 459.873Z" fill="#3EBBC3"/>
<path d="M508.36 532.584C508.36 532.584 490.4 475.384 495.72 464.084C501.04 452.774 509.69 440.144 523.65 434.824C537.61 429.504 596.81 402.904 595.48 335.724C595.48 335.724 524.98 362.994 503.03 434.154C503.03 434.154 548.08 317.354 574.69 306.714C601.3 296.074 608.83 303.984 633.66 303.984C674.45 303.984 693.07 291.834 703.72 276.314C703.72 276.314 668.64 235.304 594.82 273.874C594.82 273.874 638.05 215.344 634.72 157.484C634.72 157.484 562.89 173.154 565.55 281.044C565.55 281.044 557.57 287.844 553.58 295.154C553.58 295.154 564.22 210.684 538.95 157.484C538.95 157.484 453.15 229.974 537.62 323.094C537.62 323.094 528.31 342.384 527.64 348.364C527.64 348.364 491.73 255.914 408.59 261.904C408.59 261.904 439.18 328.414 477.76 345.044C516.34 361.674 518.33 366.324 518.33 366.324C518.33 366.324 505.03 393.954 503.7 399.094C503.7 399.094 456.48 336.124 376 351.554C376 351.554 394.62 400.904 497.71 414.214C497.71 414.214 471.77 447.464 500.37 528.604L508.35 532.594L508.36 532.584Z" fill="#60B860"/>
<path d="M295.828 469.928C295.828 469.928 242.682 442.181 238.454 430.429C234.218 418.67 231.404 403.623 237.513 389.99C243.623 376.357 266.674 315.687 218.231 269.124C218.231 269.124 187.662 338.258 222.459 404.097C222.459 404.097 171.724 289.651 183.017 263.312C194.309 236.972 205.227 237.241 222.784 219.683C251.627 190.84 256.202 169.083 252.759 150.578C252.759 150.578 198.955 146.384 174.029 225.856C174.029 225.856 163.211 153.901 119.943 115.342C119.943 115.342 80.2315 177.214 158.402 251.623C158.402 251.623 157.568 262.074 159.915 270.065C159.915 270.065 107.71 202.812 52.223 183.062C52.223 183.062 42.8115 294.99 168.387 301.107C168.387 301.107 175.443 321.33 179.198 326.032C179.198 326.032 88.434 286.052 33.8807 349.077C33.8807 349.077 102.541 374.476 141.58 358.955C180.619 343.434 185.315 345.315 185.315 345.315C185.315 345.315 195.448 374.257 198.142 378.832C198.142 378.832 120.225 367.695 74.2282 435.513C74.2282 435.513 122.29 457.243 204.597 393.759C204.597 393.759 209.766 435.612 287.364 472.764L295.828 469.942L295.828 469.928Z" fill="#60B860"/>
<path d="M360.118 419.714C360.118 419.714 281.887 446.09 274.923 447.282C274.923 447.282 269.242 405.792 256.171 409.738C243.099 413.684 255.201 432.527 260.768 438.345C266.335 444.163 267.424 450.193 267.424 450.193L242.675 460.585C242.675 460.585 235.86 428.382 226.463 428.872C217.067 429.361 219.518 439.516 238.769 461.172C238.769 461.172 192.27 482.501 162.402 470.204C162.402 470.204 181 437.328 166.197 431.279C151.394 425.231 148.927 468.846 148.927 468.846C148.927 468.846 140.194 465.351 140.153 461.708C140.113 458.066 149.063 437.05 142.408 425.217C135.753 413.383 132.464 408.98 131.887 403.367C131.31 397.754 131.331 381.914 123.638 382.94C115.946 383.965 119.82 398.694 123.883 403.714C127.946 408.734 123.567 416.747 119.008 409.184C114.448 401.62 113.733 387.747 104.826 390.788C95.9192 393.83 108.006 407.955 110.428 410.777C112.851 413.598 114.261 418.188 112.23 419.1C110.198 420.013 103.51 405.574 99.3355 401.752C95.1609 397.931 92.2804 395.149 88.7244 397.413C85.1683 399.676 85.6882 406.944 99.9494 421.55C99.9494 421.55 107.199 436.884 95.7845 422.454C84.3706 408.025 80.7079 404.62 76.7417 407.388C72.7755 410.156 76.3779 419.957 85.7269 425.849C95.0759 431.74 94.1252 433.97 92.8217 435.049C91.5181 436.129 88.0479 434.595 81.457 427.944C74.8661 421.293 68.9861 416.509 65.7296 420.718C62.4732 424.927 66.7924 430.155 76.3019 435.326C85.8114 440.497 90.9541 446.821 81.637 443.521C72.3198 440.221 63.7547 432.828 60.286 438.153C56.8173 443.479 73.5155 451.919 86.5888 454.833C86.5888 454.833 96.1546 468.571 119.55 467.068C142.939 465.573 151.457 474.166 151.457 474.166C151.457 474.166 123.961 514.809 141.731 519.842C159.5 524.874 161.116 473.876 161.116 473.876C161.116 473.876 175.518 478.309 181.538 479.34C187.559 480.37 183.993 479.428 183.993 479.428C183.993 479.428 171.309 497.174 166.857 502.125C162.404 507.075 153.054 526.475 166.935 523.626C180.816 520.777 189.641 484.655 189.641 484.655C189.641 484.655 201.139 481.582 204.064 480.094C204.064 480.094 210.417 515.196 220.914 515.24C231.41 515.284 232.819 513.774 213.628 478.876L231.969 471.083C231.969 471.083 232.267 510.76 247.162 506.158C262.057 501.555 240.887 486.473 240.103 470.83C240.103 470.83 336.176 431.523 369.864 432.786L360.11 419.708L360.118 419.714Z" fill="#935AFF"/>
<path d="M542.837 128.552C542.837 128.552 549.487 125.892 546.387 117.022C543.287 108.152 532.637 101.062 511.357 94.8517C490.077 88.6417 484.757 70.4617 486.087 61.6017C487.417 52.7417 491.157 35.4417 516.557 47.8517C516.557 47.8517 539.297 28.7817 551.707 41.2017C564.117 53.6217 565.457 64.2617 561.457 90.4217C557.467 116.582 561.017 123.232 569.437 121.012C577.857 118.792 584.067 114.802 578.307 96.1817C572.547 77.5617 572.98 53.94 588.5 49.5C604.02 45.06 608.457 47.4117 610.677 53.1717C612.897 58.9317 614.667 60.7117 622.647 58.9317C630.627 57.1517 645.257 59.8217 643.927 72.2317C642.597 84.6417 632.847 96.6217 616.437 106.372C600.027 116.122 580.967 129.872 584.957 137.412C588.947 144.952 598.707 146.722 608.457 137.412C618.207 128.102 642.597 96.5417 650.137 90.3717C657.677 84.2017 673.197 77.1117 677.627 88.1917C682.057 99.2717 680.727 110.362 673.637 116.122C666.547 121.882 662.557 127.652 669.207 129.422C675.857 131.192 689.607 134.552 682.067 143.742C674.527 152.922 668.767 157.802 649.697 153.372C630.627 148.942 616.447 141.842 605.357 147.162C594.267 152.482 594.277 164.902 595.157 166.672C596.037 168.442 593.827 173.322 608.907 173.322C623.987 173.322 640.827 170.222 654.137 177.312C667.447 184.402 672.317 191.062 670.547 196.822C668.777 202.582 652.807 207.902 652.807 211.452C652.807 215.002 664.337 226.082 659.897 235.392C655.457 244.702 645.267 256.672 627.087 243.812C608.907 230.952 587.417 180.412 585.077 176.422C582.737 172.432 576.537 169.332 572.547 175.092C568.557 180.852 567.667 191.942 573.877 197.702C580.087 203.462 606.687 231.402 608.457 240.712C610.227 250.022 613.777 261.552 597.817 259.782C581.857 258.012 585.077 251.802 585.077 251.802C585.077 251.802 566.777 266.882 553.927 254.902C541.077 242.922 550.827 221.202 553.037 215.002C555.247 208.802 564.567 180.422 562.347 175.982C560.127 171.542 555.257 172.882 549.047 180.862C542.837 188.842 524.217 211.012 507.807 220.762C491.397 230.512 482.977 230.962 478.097 222.092C473.217 213.222 481.647 203.472 475.877 203.022C470.107 202.572 446.167 217.212 449.277 195.932C452.387 174.652 462.577 172.432 479.427 171.992C496.277 171.552 525.987 166.672 533.077 164.452C540.167 162.232 545.487 158.692 542.827 152.042C540.167 145.392 527.747 143.172 507.797 143.622C487.847 144.072 460.357 143.622 459.467 129.872C458.577 116.122 476.317 121.002 478.087 117.902C479.857 114.802 479.857 112.142 474.537 108.592C469.217 105.042 456.797 96.1817 470.547 90.8517C484.297 85.5217 490.497 85.0917 511.337 105.042C532.177 124.992 536.167 129.872 542.817 128.542L542.837 128.552Z" fill="#FF3778"/>
<path d="M222.275 179.692C201.098 184.076 226.786 300.325 226.786 300.325C226.786 300.325 217.128 281.494 211.729 263.315C206.329 245.135 176.458 205.572 165.055 190.022C153.646 174.464 127.225 153.234 139.317 146.726C151.403 140.21 179.001 150.429 180.903 149.084C182.806 147.738 177.826 137.824 162.887 131.683C147.954 125.551 135.58 142.032 135.58 142.032C135.58 142.032 139.384 122.647 127.755 102.761C116.662 83.7706 91.9629 74.4288 85.5355 75.1781L72.7069 53.1281C74.8448 51.0769 75.2207 47.712 73.4594 45.222C71.5133 42.4707 67.708 41.8184 64.9567 43.7645C62.2054 45.7106 61.5532 49.5159 63.4993 52.2672C64.7813 54.0796 66.8673 54.9681 68.9221 54.8253L81.8892 77.3653C80.3252 78.7043 78.3332 80.6155 76.1281 82.8489L59.6657 62.0342C61.1433 59.9846 61.2367 57.1381 59.6948 54.9583C57.7487 52.207 53.9434 51.5547 51.1921 53.5008C48.4408 55.4469 47.7886 59.2522 49.7347 62.0035C51.2708 64.1752 53.958 65.0303 56.3722 64.3393L73.4593 85.5696C72.2725 86.801 71.0565 88.0777 69.8194 89.3937L47.6243 70.6741C48.1205 68.9512 47.8596 67.0412 46.745 65.4656C44.7989 62.7143 40.9936 62.062 38.2424 64.0081C35.4911 65.9542 34.8388 69.7595 36.7849 72.5108C38.6271 75.1151 42.1402 75.8393 44.8457 74.2441L65.7105 93.819C64.229 95.4303 62.7802 97.0186 61.3909 98.5524L40.7346 84.7096C41.1491 83.0445 40.8739 81.2181 39.8056 79.7078C37.8595 76.9565 34.0542 76.3042 31.3029 78.2503C28.5516 80.1964 27.8993 84.0017 29.8454 86.753C31.7915 89.5043 35.368 90.1102 38.0916 88.3674L57.2241 103.19C55.9644 104.596 54.8426 105.867 53.9089 106.919L35.3499 100.094C35.6641 98.5117 35.3534 96.8083 34.3544 95.396C32.4083 92.6447 28.603 91.9924 25.8517 93.9385C23.1004 95.8846 22.4481 99.6899 24.3942 102.441C26.3403 105.192 30.1456 105.845 32.8969 103.899C33.3296 103.593 33.7055 103.241 34.0305 102.852L51.0901 110.138L51.0656 110.155C84.6691 157.662 117.93 155.73 117.93 155.73C117.93 155.73 115.048 185.059 122.042 187.449C129.028 189.844 132.939 180.966 131.554 177.866C130.17 174.766 127.251 156.474 127.251 156.474C152.212 175.883 192.591 246.303 192.591 246.303C192.591 246.303 165.52 224.725 154.559 219.029C143.597 213.333 94.6975 206.386 91.2921 206.75C87.8924 207.121 85.7619 223.694 106.245 250.349C126.728 277.004 170.179 276.819 184.109 273.481C198.039 270.144 209.931 273.137 211.129 282.884C212.32 292.637 215.123 297.171 219.06 299.273C222.997 301.376 222.7 307.294 222.026 309.804C221.351 312.314 228.916 332.22 240.721 366.227C252.518 400.238 262.102 454.569 262.102 454.569L269.835 453.986C269.835 453.986 265.2 419.795 263.335 412.553C261.476 405.318 235.399 309.714 235.399 309.714C257.456 229.758 243.402 175.343 222.226 179.727L222.275 179.692Z" fill="#FDBD1F"/>
<path d="M150.734 124.331C150.734 124.331 68.8318 65.2194 74.5218 57.497C80.2118 49.7746 130.735 89.9646 152.812 114.294C152.812 114.294 135.619 34.5616 155.336 36.2174C175.048 37.8819 163.806 110.317 163.806 110.317C163.806 110.317 179.016 42.1403 198.737 55.2537C218.457 68.3671 178.818 114.323 178.818 114.323C178.818 114.323 214.532 87.8543 228.448 87.9436C242.366 88.0242 252.508 92.9338 238.935 105.341C225.363 117.748 187.363 127.073 187.363 127.073C187.363 127.073 253.284 123.443 258.981 129.098C264.671 134.739 240.901 140.51 229.995 140.412C219.089 140.314 179.843 134.663 179.843 134.663C179.843 134.663 213.943 193.537 217.343 200.211C220.743 206.885 225.86 213.98 211.526 217.827C197.192 221.673 182.346 189.222 175.486 140.933C175.486 140.933 162.482 228.352 152.736 225.343C142.99 222.333 148.344 179.133 161.905 144.768C161.905 144.768 115.84 202.239 106.412 199.373C96.9839 196.506 119.255 172.573 123.584 167.322C127.914 162.071 148.664 142.94 153.687 140.733C153.687 140.733 99.2603 155.356 88.9995 155.549C78.7388 155.741 64.5939 151.434 79.971 144.973C95.348 138.512 149.11 133.19 149.11 133.19C149.11 133.19 102.313 131.353 86.3618 125.904C70.4106 120.455 63.6643 113.638 65.8648 111.884C68.0652 110.131 116.994 113.319 150.718 124.313L150.734 124.331Z" fill="#FF3778"/>
<path d="M144.411 330.123C144.411 330.123 96.8058 307.785 91.0643 327.898C85.3229 348.011 118.053 354.295 118.053 354.295C118.053 354.295 57.625 367.908 63.0631 386.044C68.5011 404.18 86.396 402.231 126.171 380.95C126.171 380.95 133.68 379.408 124.042 388.895C114.404 398.381 102.494 409.735 116.672 421.697C130.85 433.659 166.835 385.464 166.835 385.464C166.835 385.464 147.281 435.939 165.767 443.73C184.253 451.522 193.996 436.387 189.408 392.58C189.408 392.58 211.514 398.887 216.056 393.168C220.598 387.449 219.571 374.037 212.154 369.937C204.737 365.837 200.136 357.839 200.136 357.839C200.136 357.839 235.43 370.486 236.57 356.951C237.71 343.416 234.719 333.395 226.734 334.083C218.749 334.771 212.053 331.921 215.828 329.742C219.602 327.563 269.941 312.538 261.552 295.499C253.162 278.461 225.112 281.83 188.772 316.815C188.772 316.815 209.06 282.16 201.838 266.737C194.617 251.313 176.613 233.716 166.456 234.548C156.298 235.38 135.35 244.663 145.498 269.034C155.647 293.405 167.141 313.633 167.141 313.633C167.141 313.633 140.813 270.628 130.739 276.444C120.665 282.261 105.007 303.622 144.385 330.138L144.411 330.123Z" fill="#022D85"/>
<rect x="180" y="92" width="390" height="472" fill="white"/>
<path d="M294.93 196C304.88 196 311.93 194.25 311.93 185.9C311.93 177.55 304.88 175.8 294.93 175.8H282.28V176.65C284.48 176.65 285.88 179.3 285.88 182.4V204.15C285.88 207.55 284.68 210.15 282.58 210.15V211H299.03V210.15C296.88 210.15 293.13 209.8 293.13 204.15V196H294.93ZM293.13 176.65H294.93C299.83 176.65 303.73 177 303.73 185.9C303.73 194.75 299.83 195.15 294.93 195.15H293.13V176.65ZM324.009 205.85C323.559 207.05 322.409 208.4 320.709 208.4C317.459 208.4 317.459 205.1 317.459 205.1C317.459 202.55 319.109 200.2 324.009 199.1C324.009 199.1 324.009 205.75 324.009 205.85ZM332.709 208.4C330.259 208.4 330.309 204.9 330.309 204.9V197.45C330.309 191.55 328.509 187.45 321.959 187.45C321.959 187.45 319.359 187.25 317.109 188.45C314.359 189.9 313.709 191.25 313.209 192.1C312.709 192.95 312.759 194.15 313.359 195.1C314.259 196.4 316.009 196.7 317.309 195.85C318.609 194.95 318.959 193.2 318.059 191.9C317.609 191.25 316.959 190.9 316.209 190.8C315.859 190.75 316.059 189.9 317.659 189.1C321.109 187.3 324.009 189.9 324.009 195.1V198.2C315.259 200.4 311.059 200.9 311.059 206.35C311.059 211.45 316.809 211.45 316.809 211.45C320.359 211.45 323.309 209.6 324.059 207.4C324.609 211.45 329.059 211.45 329.059 211.45C332.209 211.45 334.509 209.5 334.909 207.9L334.059 207.55C333.759 208.4 332.709 208.4 332.709 208.4ZM350.362 187.9V188.75C356.162 188.7 352.862 196.35 352.862 196.35L350.212 203.1L344.912 191.8C344.912 191.8 343.612 188.75 346.212 188.75V187.9H334.412V188.75C335.162 188.75 336.762 188.75 337.562 190.7C337.562 190.7 343.912 204.3 347.012 211.45L345.112 216.6C344.312 218.7 343.112 219.05 342.912 218.45C342.662 217.6 342.112 216.8 341.212 216.4C339.462 215.6 337.412 216.4 336.612 218.15C335.862 219.9 336.612 221.95 338.362 222.75C339.562 223.3 341.312 223 342.212 222.25C343.162 221.5 344.662 220.1 345.962 216.7L353.612 196.55C356.812 188.85 359.112 188.75 360.162 188.75V187.9H350.362ZM376.313 210.6C373.463 210.6 370.363 208.55 370.363 202.25V195.9C370.363 192.35 372.163 189.55 375.563 189.55C379.663 189.55 381.513 192.15 381.513 200.15C381.513 207.8 379.963 210.6 376.313 210.6ZM378.063 187.45C375.663 187.45 371.963 188.7 370.363 191.7V173.7L361.613 175.55V176.4C363.663 177.15 364.163 177.9 364.163 179.6V210.75C364.163 211.55 367.263 210.45 369.063 208.9C370.713 210.55 373.363 211.45 376.363 211.45C383.363 211.45 388.663 207.8 388.663 199.75C388.663 191.85 383.663 187.45 378.063 187.45ZM405.552 205.85C405.102 207.05 403.952 208.4 402.252 208.4C399.002 208.4 399.002 205.1 399.002 205.1C399.002 202.55 400.652 200.2 405.552 199.1C405.552 199.1 405.552 205.75 405.552 205.85ZM414.252 208.4C411.802 208.4 411.852 204.9 411.852 204.9V197.45C411.852 191.55 410.052 187.45 403.502 187.45C403.502 187.45 400.902 187.25 398.652 188.45C395.902 189.9 395.252 191.25 394.752 192.1C394.252 192.95 394.302 194.15 394.902 195.1C395.802 196.4 397.552 196.7 398.852 195.85C400.152 194.95 400.502 193.2 399.602 191.9C399.152 191.25 398.502 190.9 397.752 190.8C397.402 190.75 397.602 189.9 399.202 189.1C402.652 187.3 405.552 189.9 405.552 195.1V198.2C396.802 200.4 392.602 200.9 392.602 206.35C392.602 211.45 398.352 211.45 398.352 211.45C401.902 211.45 404.852 209.6 405.602 207.4C406.152 211.45 410.602 211.45 410.602 211.45C413.752 211.45 416.052 209.5 416.452 207.9L415.602 207.55C415.302 208.4 414.252 208.4 414.252 208.4ZM439.419 204.55C438.269 206.2 434.319 207.55 431.819 207C428.369 206.25 425.469 203.85 425.469 198.45C425.469 189.85 430.319 188.3 432.119 188.3C434.119 188.3 435.219 189.15 434.769 189.35C434.019 189.75 433.419 190.4 433.219 191.35C432.719 193.1 433.769 194.95 435.569 195.4C437.369 195.9 439.169 194.75 439.669 193C440.019 191.8 439.519 190.4 438.669 189.65C437.819 188.9 435.669 187.45 432.119 187.45C423.569 187.45 419.169 193.6 419.169 199.35C419.169 205.2 423.619 211.45 430.169 211.45C436.419 211.45 439.419 207.55 440.119 205L439.419 204.55ZM450.29 204.95V173.7L441.54 175.55V176.4C443.54 177.15 444.04 177.9 444.04 179.65V204.95C444.04 207.5 443.94 209.6 442.04 210.15V211H452.34V210.15C450.54 209.7 450.29 207.7 450.29 204.95ZM463.64 207.65C463.64 207.65 463.54 207.65 456.14 197.2C462.79 189 467.89 188.85 468.79 188.75V187.9H456.64V188.75C463.14 188.55 455.99 195.8 455.99 195.8L451.29 200.9C451.29 200.9 452.59 202.9 454.09 205.1C457.44 210.1 457.89 211 461.34 211H468.39V210.15C467.54 210.1 465.29 209.95 463.64 207.65Z" fill="#05038B"/>
<path d="M316 326.7C316 337.48 322.58 337.62 327.48 337.62V340H285.34V337.62C291.08 337.62 298.64 337.06 298.64 326.7V266.08C298.64 253.48 285.62 262.72 285.62 262.72L284.22 260.48L311.52 240.18H316V326.7ZM383.876 240.32C411.036 242.42 418.596 264.96 418.596 291.56C418.596 317.88 411.036 339.02 383.876 340.98V338.32C393.256 336.22 396.476 325.16 396.476 291.56C396.476 257.96 392.696 245.64 383.876 243.12V240.32ZM340.336 291.56C340.336 265.1 347.756 242.56 375.056 240.32V243.12C365.816 245.64 362.456 257.96 362.456 291.56C362.456 324.88 365.956 335.94 375.056 338.32V340.98C347.756 338.88 340.336 317.88 340.336 291.56Z" fill="#05038B"/>
<path d="M436.731 341H439.981L462.781 305.8H459.531L436.731 341ZM438.231 307.05C432.731 307.05 431.281 311.25 431.281 316.15C431.281 321.1 432.731 324.95 438.231 324.95C443.681 324.95 445.131 321.1 445.131 316.15C445.131 311.25 443.681 307.05 438.231 307.05ZM438.231 324.1C436.031 324.1 435.681 322.95 435.681 316.15C435.681 309.35 435.981 307.9 438.231 307.9C440.381 307.9 440.731 309.35 440.731 316.15C440.731 322.95 440.481 324.1 438.231 324.1ZM461.281 321.85C455.781 321.85 454.331 326.05 454.331 330.95C454.331 335.9 455.781 339.75 461.281 339.75C466.731 339.75 468.181 335.9 468.181 330.95C468.181 326.05 466.731 321.85 461.281 321.85ZM461.281 338.9C459.081 338.9 458.731 337.75 458.731 330.95C458.731 324.15 459.031 322.7 461.281 322.7C463.431 322.7 463.781 324.15 463.781 330.95C463.781 337.75 463.531 338.9 461.281 338.9Z" fill="#05038B"/>
<path d="M292.781 410V393.031H294.891V408.125H302.766V410H292.781ZM306.75 410.141C305.93 410.129 305.227 409.449 305.25 408.617C305.227 407.797 305.93 407.117 306.75 407.117C307.582 407.117 308.262 407.797 308.25 408.617C308.262 409.449 307.582 410.129 306.75 410.141ZM311.672 410V393.031H317.438C321.41 393.031 323.227 395.398 323.227 398.422C323.227 401.434 321.41 403.836 317.461 403.836H313.781V410H311.672ZM313.781 401.961H317.367C320.074 401.961 321.129 400.438 321.141 398.422C321.129 396.395 320.074 394.906 317.344 394.906H313.781V401.961ZM325.289 406.391C325.289 403.473 327.867 402.805 330.07 402.641C330.891 402.582 332.941 402.465 333.516 402.453V401.422C333.516 399.805 332.555 398.867 330.633 398.867C329.027 398.867 328.055 399.605 327.773 400.578H325.664C325.922 398.527 327.914 397.109 330.727 397.109C332.391 397.109 335.52 397.602 335.508 401.609V410H333.516V408.266H333.422C333 409.121 331.84 410.293 329.625 410.305C327.211 410.293 325.289 408.875 325.289 406.391ZM327.305 406.484C327.316 407.832 328.43 408.512 329.977 408.5C332.25 408.512 333.516 406.988 333.516 405.383V404.105C332.918 404.141 330.914 404.293 330.305 404.328C328.477 404.445 327.316 405.09 327.305 406.484ZM339.562 414.781C339.129 414.77 338.695 414.758 338.438 414.734V412.93C338.648 412.953 339.105 412.965 339.422 412.977C340.242 412.965 340.934 412.918 341.602 411.055L341.977 410.094L337.266 397.273H339.469L342.938 407.375H343.078L346.547 397.273H348.75L343.359 411.828C342.609 413.832 341.367 414.77 339.562 414.781ZM369.281 407.773V409.32H350.203V407.773H358.781V403.836H352.594V397.414H365.062V394.133H352.547V392.609H366.867V398.914H354.422V402.312H367.359V403.836H360.586V407.773H369.281ZM394.242 391.062V401.727H392.391V399.547H386.836V398.094H392.391V395.586H387.141C385.84 398.867 382.605 401.082 377.977 402.195L377.32 400.672C382.43 399.488 385.395 397.004 385.746 393.641H378.375V392.117H387.773C387.773 392.809 387.703 393.477 387.574 394.109H392.391V391.062H394.242ZM380.742 404.164V402.664H394.242V407.75H382.617V410.188H394.945V411.711H380.789V406.344H392.391V404.164H380.742ZM415.523 391.062V411.898H413.766V391.062H415.523ZM397.453 406.344C400.359 404.609 402.059 400.801 402.047 397.016V395.047H398.039V393.523H407.648V395.047H403.828V397.016C403.828 400.613 405.457 404.211 408.328 405.875L407.203 407.234C405.152 406.004 403.699 403.754 402.973 401.105C402.223 403.977 400.711 406.426 398.625 407.727L397.453 406.344ZM406.055 400.086V398.586H409.57V391.578H411.305V410.82H409.57V400.086H406.055ZM434.578 391.062V399.664H438.07V401.188H434.578V411.898H432.75V391.062H434.578ZM418.336 395.938V394.414H423.703V391.32H425.531V394.414H430.734V395.938H418.336ZM419.531 402.453C419.52 399.641 421.676 397.672 424.641 397.672C427.582 397.672 429.727 399.641 429.75 402.453C429.727 405.277 427.582 407.234 424.641 407.234C421.676 407.234 419.52 405.277 419.531 402.453ZM421.289 402.453C421.277 404.352 422.695 405.688 424.641 405.664C426.562 405.688 427.969 404.352 427.992 402.453C427.969 400.566 426.562 399.207 424.641 399.219C422.695 399.207 421.277 400.566 421.289 402.453ZM449.742 392.891V394.742H454.617V391.086H456.469V406.297H454.617V400.742H449.742V402.617H440.18V392.891H449.742ZM442.008 401.141H447.938V394.414H442.008V401.141ZM442.992 411.453V404.938H444.844V409.906H456.938V411.453H442.992ZM449.742 399.219H454.617V396.289H449.742V399.219ZM278.355 425.062V435.727H276.504V433.547H270.949V432.094H276.504V429.586H271.254C269.953 432.867 266.719 435.082 262.09 436.195L261.434 434.672C266.543 433.488 269.508 431.004 269.859 427.641H262.488V426.117H271.887C271.887 426.809 271.816 427.477 271.688 428.109H276.504V425.062H278.355ZM264.855 438.164V436.664H278.355V441.75H266.73V444.188H279.059V445.711H264.902V440.344H276.504V438.164H264.855ZM299.637 425.062V445.898H297.879V425.062H299.637ZM281.566 440.344C284.473 438.609 286.172 434.801 286.16 431.016V429.047H282.152V427.523H291.762V429.047H287.941V431.016C287.941 434.613 289.57 438.211 292.441 439.875L291.316 441.234C289.266 440.004 287.812 437.754 287.086 435.105C286.336 437.977 284.824 440.426 282.738 441.727L281.566 440.344ZM290.168 434.086V432.586H293.684V425.578H295.418V444.82H293.684V434.086H290.168ZM325.16 426.188V427.734C325.16 429.352 325.16 431.25 324.609 433.852H327.668V435.375H308.59V433.852H322.758C323.344 431.227 323.344 429.352 323.332 427.734V427.711H311.004V426.188H325.16ZM310.934 445.617V438.258H325.254V445.617H310.934ZM312.762 444.117H323.426V439.711H312.762V444.117ZM334.324 426.375C337.078 426.387 339.094 428.402 339.105 431.297C339.094 434.203 337.078 436.172 334.324 436.172C331.535 436.172 329.555 434.203 329.566 431.297C329.555 428.402 331.535 426.387 334.324 426.375ZM331.23 431.297C331.207 433.23 332.531 434.637 334.324 434.625C336.094 434.637 337.406 433.23 337.418 431.297C337.406 429.363 336.094 427.969 334.324 427.969C332.531 427.969 331.207 429.363 331.23 431.297ZM332.988 440.133V438.656H347.027V445.898H345.223V440.133H332.988ZM340.77 437.344V425.484H342.504V430.453H345.27V425.086H347.027V437.484H345.27V431.977H342.504V437.344H340.77ZM356.895 426.586C360.164 426.598 362.484 428.59 362.496 431.484C362.484 434.391 360.164 436.371 356.895 436.383C353.602 436.371 351.258 434.391 351.27 431.484C351.258 428.59 353.602 426.598 356.895 426.586ZM350.191 439.781C354.035 439.793 359.344 439.758 363.949 439.078L364.09 440.438C359.32 441.328 354.199 441.352 350.449 441.352L350.191 439.781ZM353.074 431.484C353.062 433.43 354.668 434.766 356.895 434.766C359.098 434.766 360.703 433.43 360.691 431.484C360.703 429.551 359.098 428.203 356.895 428.203C354.668 428.203 353.062 429.551 353.074 431.484ZM365.332 445.945V425.062H367.16V445.945H365.332ZM384.738 436.055V439.898C386.754 439.793 388.793 439.629 390.715 439.336L390.855 440.695C386.086 441.562 380.965 441.598 377.215 441.586L376.957 440.062C378.703 440.051 380.766 440.039 382.934 439.969V436.055H384.738ZM377.59 435.328C380.672 434.414 382.84 432.129 382.887 429.328H378.105V427.805H382.934V425.227H384.738V427.805H389.637V429.328H384.738C384.797 432.012 387.023 434.215 390.105 435.094L389.238 436.547C386.742 435.797 384.773 434.191 383.836 432.082C382.934 434.309 380.988 435.973 378.48 436.734L377.59 435.328ZM392.098 445.945V425.062H393.926V445.945H392.098ZM415.395 425.062V445.898H413.637V434.977H410.566V444.82H408.879V425.531H410.566V433.453H413.637V425.062H415.395ZM398.355 440.742V427.617H406.16V429.141H400.184V439.172C403.055 439.16 405.035 439.055 407.355 438.586L407.52 440.133C405.012 440.648 402.891 440.73 399.691 440.742H398.355ZM431.098 427.031V444H428.965V429.234H428.871L424.746 431.977V429.844L428.965 427.031H431.098ZM441.176 444.234C437.414 444.234 435.234 441.07 435.246 435.516C435.234 430.008 437.438 426.797 441.176 426.797C444.902 426.797 447.105 430.008 447.105 435.516C447.105 441.07 444.938 444.234 441.176 444.234ZM437.285 435.516C437.297 439.91 438.715 442.359 441.176 442.359C443.625 442.359 445.055 439.91 445.043 435.516C445.055 431.121 443.613 428.637 441.176 428.625C438.738 428.637 437.297 431.121 437.285 435.516ZM453.504 434.906C451.312 434.918 450.094 433.254 450.105 430.828C450.094 428.438 451.359 426.773 453.504 426.773C455.73 426.773 456.891 428.438 456.902 430.828C456.891 433.254 455.684 434.918 453.504 434.906ZM451.77 444L463.441 427.031H465.34L453.668 444H451.77ZM451.816 430.828C451.816 432.41 452.367 433.453 453.504 433.453C454.652 433.453 455.191 432.41 455.191 430.828C455.191 429.27 454.688 428.203 453.504 428.227C452.391 428.238 451.816 429.27 451.816 430.828ZM460.465 440.18C460.441 437.766 461.695 436.113 463.863 436.102C466.055 436.113 467.238 437.766 467.238 440.18C467.238 442.594 466.031 444.246 463.863 444.234C461.648 444.246 460.441 442.594 460.465 440.18ZM462.152 440.18C462.164 441.75 462.715 442.793 463.863 442.781C465 442.793 465.527 441.75 465.527 440.18C465.527 438.598 465.035 437.531 463.863 437.555C462.727 437.566 462.164 438.598 462.152 440.18ZM488.918 434.742V436.195H469.84V434.742H488.918ZM472.137 439.242V437.859H486.527V442.289H474.012V444.281H487.207V445.617H472.16V441.023H484.699V439.242H472.137ZM472.254 427.031V425.695H486.457V430.008H474.152V431.836H486.832V433.172H472.324V428.742H484.605V427.031H472.254ZM327.305 464.664V466.141H320.977V468.156H329.555V469.656H310.57V468.156H319.148V466.141H313.102V459.883H327.094V461.406H314.953V464.664H327.305ZM312.867 472.844V471.438H327.117V476.078H314.742V478.188H327.75V479.664H312.914V474.719H325.312V472.844H312.867ZM348.562 459.062V479.945H346.734V471.062H342.398V469.516H346.734V465.367H342.562V463.82H346.734V459.062H348.562ZM332.039 462.484V460.961H341.203V468.367H333.938V473.5C337.066 473.5 339.656 473.383 342.82 472.891L342.984 474.438C339.656 474.953 336.984 475.07 333.656 475.07H332.109V466.867H339.398V462.484H332.039ZM368.883 469.094V470.617H354.492V461.008H368.672V462.531H356.32V469.094H368.883ZM352.055 477.062V475.516H371.133V477.062H352.055ZM390 459.086V470.523H388.172V459.086H390ZM373.852 461.617V460.094H383.367V465.719H375.68V468.555C379.406 468.531 382.184 468.449 385.57 467.898L385.781 469.422C382.277 469.973 379.43 470.078 375.586 470.102H373.898V464.266H381.539V461.617H373.852ZM376.453 479.617V471.578H378.305V474.062H388.172V471.578H390V479.617H376.453ZM378.305 478.117H388.172V475.539H378.305V478.117ZM410.719 459.062V479.898H408.891V459.062H410.719ZM394.898 474.531V461.125H396.703V472.938C399.891 472.914 403.172 472.668 406.664 471.93L406.922 473.5C403.219 474.273 399.926 474.531 396.586 474.531H394.898ZM430.406 459.062V467.312H433.898V468.859H430.406V479.945H428.578V459.062H430.406ZM415.195 474.719V461.102H424.922V462.625H417.023V473.172C420.797 473.16 423.457 472.996 426.562 472.422L426.797 474.016C423.527 474.602 420.797 474.719 416.836 474.719H415.195ZM437.227 478.141C436.406 478.129 435.703 477.449 435.727 476.617C435.703 475.797 436.406 475.117 437.227 475.117C438.059 475.117 438.738 475.797 438.727 476.617C438.738 477.449 438.059 478.129 437.227 478.141Z" fill="#05038B"/>
<path d="M236.854 10.2633C237.105 10.4348 237.3 10.6782 237.41 10.9614L238.76 14.3815C238.836 14.5753 238.951 14.7513 239.098 14.8987C239.246 15.0461 239.422 15.1616 239.616 15.2381L243.039 16.5886C243.323 16.7011 243.566 16.8957 243.737 17.1474C243.908 17.399 244 17.696 244 18.0001C244 18.3041 243.908 18.6011 243.737 18.8527C243.566 19.1044 243.323 19.299 243.039 19.4115L239.616 20.762C239.422 20.8381 239.246 20.9532 239.099 21.1C238.951 21.2468 238.836 21.4223 238.76 21.6155L237.41 25.0387C236.908 26.3204 235.095 26.3204 234.586 25.0387L233.237 21.6186C233.162 21.4253 233.047 21.2497 232.9 21.1028C232.753 20.9559 232.578 20.841 232.384 20.7652L228.961 19.4147C228.677 19.3022 228.434 19.1075 228.263 18.8559C228.092 18.6042 228 18.3072 228 18.0032C228 17.6992 228.092 17.4021 228.263 17.1505C228.434 16.8989 228.677 16.7042 228.961 16.5917L232.384 15.2412C232.577 15.1644 232.753 15.0487 232.9 14.9013C233.047 14.754 233.162 14.5781 233.237 14.3846L234.586 10.9614C234.697 10.6782 234.891 10.4348 235.143 10.2633C235.395 10.0918 235.693 10 235.998 10C236.304 10 236.602 10.0918 236.854 10.2633Z" fill="white"/>
<path d="M692.854 215.263C693.105 215.435 693.3 215.678 693.41 215.961L694.76 219.381C694.836 219.575 694.951 219.751 695.098 219.899C695.246 220.046 695.422 220.162 695.616 220.238L699.039 221.589C699.323 221.701 699.566 221.896 699.737 222.147C699.908 222.399 700 222.696 700 223C700 223.304 699.908 223.601 699.737 223.853C699.566 224.104 699.323 224.299 699.039 224.412L695.616 225.762C695.422 225.838 695.246 225.953 695.099 226.1C694.951 226.247 694.836 226.422 694.76 226.616L693.41 230.039C692.908 231.32 691.095 231.32 690.586 230.039L689.237 226.619C689.162 226.425 689.047 226.25 688.9 226.103C688.753 225.956 688.578 225.841 688.384 225.765L684.961 224.415C684.677 224.302 684.434 224.107 684.263 223.856C684.092 223.604 684 223.307 684 223.003C684 222.699 684.092 222.402 684.263 222.15C684.434 221.899 684.677 221.704 684.961 221.592L688.384 220.241C688.577 220.164 688.753 220.049 688.9 219.901C689.047 219.754 689.162 219.578 689.237 219.385L690.586 215.961C690.697 215.678 690.891 215.435 691.143 215.263C691.395 215.092 691.693 215 691.998 215C692.304 215 692.602 215.092 692.854 215.263Z" fill="white"/>
<path d="M602.854 548.263C603.105 548.435 603.3 548.678 603.41 548.961L604.76 552.381C604.836 552.575 604.951 552.751 605.098 552.899C605.246 553.046 605.422 553.162 605.616 553.238L609.039 554.589C609.323 554.701 609.566 554.896 609.737 555.147C609.908 555.399 610 555.696 610 556C610 556.304 609.908 556.601 609.737 556.853C609.566 557.104 609.323 557.299 609.039 557.412L605.616 558.762C605.422 558.838 605.246 558.953 605.099 559.1C604.951 559.247 604.836 559.422 604.76 559.616L603.41 563.039C602.908 564.32 601.095 564.32 600.586 563.039L599.237 559.619C599.162 559.425 599.047 559.25 598.9 559.103C598.753 558.956 598.578 558.841 598.384 558.765L594.961 557.415C594.677 557.302 594.434 557.107 594.263 556.856C594.092 556.604 594 556.307 594 556.003C594 555.699 594.092 555.402 594.263 555.15C594.434 554.899 594.677 554.704 594.961 554.592L598.384 553.241C598.577 553.164 598.753 553.049 598.9 552.901C599.047 552.754 599.162 552.578 599.237 552.385L600.586 548.961C600.697 548.678 600.891 548.435 601.143 548.263C601.395 548.092 601.693 548 601.998 548C602.304 548 602.602 548.092 602.854 548.263Z" fill="white"/>
<path d="M79.0271 503.624C79.6254 504.031 80.0864 504.609 80.3497 505.282L83.554 513.405C83.7345 513.865 84.0083 514.283 84.3584 514.633C84.7084 514.983 85.1272 515.257 85.5884 515.439L93.7185 518.646C94.3918 518.914 94.9691 519.376 95.3759 519.974C95.7826 520.571 96 521.277 96 521.999C96 522.721 95.7826 523.426 95.3759 524.024C94.9691 524.621 94.3918 525.084 93.7185 525.351L85.5884 528.558C85.1279 528.739 84.7096 529.012 84.3596 529.361C84.0096 529.71 83.7354 530.126 83.554 530.585L80.3497 538.715C79.1573 541.76 74.8501 541.76 73.6429 538.715L70.4385 530.593C70.2596 530.134 69.9871 529.717 69.6382 529.368C69.2893 529.019 68.8717 528.746 68.4116 528.566L60.2815 525.358C59.6082 525.091 59.0309 524.629 58.6241 524.031C58.2174 523.434 58 522.728 58 522.006C58 521.284 58.2174 520.579 58.6241 519.981C59.0309 519.383 59.6082 518.921 60.2815 518.654L68.4116 515.446C68.8715 515.264 69.2887 514.989 69.6375 514.639C69.9862 514.289 70.2589 513.871 70.4385 513.412L73.6429 505.282C73.9062 504.609 74.3671 504.031 74.9654 503.624C75.5638 503.216 76.2716 502.999 76.9963 502.999C77.721 502.999 78.4288 503.216 79.0271 503.624Z" fill="white"/>
<path d="M689.027 410.625C689.625 411.033 690.086 411.611 690.35 412.283L693.554 420.406C693.735 420.866 694.008 421.284 694.358 421.634C694.708 421.984 695.127 422.259 695.588 422.44L703.719 425.648C704.392 425.915 704.969 426.377 705.376 426.975C705.783 427.573 706 428.278 706 429C706 429.722 705.783 430.428 705.376 431.025C704.969 431.623 704.392 432.085 703.719 432.352L695.588 435.56C695.128 435.741 694.71 436.014 694.36 436.362C694.01 436.711 693.735 437.128 693.554 437.587L690.35 445.717C689.157 448.761 684.85 448.761 683.643 445.717L680.439 437.594C680.26 437.135 679.987 436.718 679.638 436.369C679.289 436.02 678.872 435.747 678.412 435.567L670.281 432.36C669.608 432.093 669.031 431.63 668.624 431.033C668.217 430.435 668 429.73 668 429.008C668 428.285 668.217 427.58 668.624 426.982C669.031 426.385 669.608 425.922 670.281 425.655L678.412 422.448C678.871 422.265 679.289 421.991 679.637 421.641C679.986 421.291 680.259 420.873 680.439 420.413L683.643 412.283C683.906 411.611 684.367 411.033 684.965 410.625C685.564 410.218 686.272 410 686.996 410C687.721 410 688.429 410.218 689.027 410.625Z" fill="white"/>
<path d="M282.027 28.6254C282.625 29.0328 283.086 29.6106 283.35 30.2833L286.554 38.406C286.735 38.8662 287.008 39.2844 287.358 39.6345C287.708 39.9845 288.127 40.2588 288.588 40.4404L296.719 43.6479C297.392 43.9151 297.969 44.3774 298.376 44.975C298.783 45.5726 299 46.2781 299 47.0001C299 47.7222 298.783 48.4276 298.376 49.0253C297.969 49.6229 297.392 50.0852 296.719 50.3524L288.588 53.5599C288.128 53.7406 287.71 54.0138 287.36 54.3625C287.01 54.7112 286.735 55.128 286.554 55.5868L283.35 63.7169C282.157 66.761 277.85 66.761 276.643 63.7169L273.439 55.5942C273.26 55.1352 272.987 54.7181 272.638 54.3692C272.289 54.0203 271.872 53.7473 271.412 53.5673L263.281 50.3598C262.608 50.0926 262.031 49.6303 261.624 49.0327C261.217 48.4351 261 47.7296 261 47.0075C261 46.2855 261.217 45.58 261.624 44.9824C262.031 44.3848 262.608 43.9225 263.281 43.6553L271.412 40.4478C271.871 40.2654 272.289 39.9907 272.637 39.6407C272.986 39.2907 273.259 38.8729 273.439 38.4134L276.643 30.2833C276.906 29.6106 277.367 29.0328 277.965 28.6254C278.564 28.218 279.272 28 279.996 28C280.721 28 281.429 28.218 282.027 28.6254Z" fill="white"/>
</g>
<defs>
<clipPath id="clip0_1_631">
<rect width="750" height="624" fill="white"/>
</clipPath>
</defs>
</svg>
