<svg width="524" height="348" viewBox="0 0 524 348" fill="none" xmlns="http://www.w3.org/2000/svg">
<rect width="524" height="348" rx="32" fill="url(#paint0_linear_62_4306)"/>
<g filter="url(#filter0_d_62_4306)">
<path d="M40 230C40 221.163 47.1634 214 56 214H468C476.837 214 484 221.163 484 230V296C484 304.837 476.837 312 468 312H56C47.1634 312 40 304.837 40 296V230Z" fill="#0D2E9B"/>
</g>
<circle cx="356" cy="263" r="24" fill="white"/>
<path d="M348 260L356 268L364 260" stroke="black" stroke-width="3"/>
<path d="M356 251V267" stroke="black" stroke-width="3"/>
<line x1="346" y1="273.5" x2="366" y2="273.5" stroke="black" stroke-width="3"/>
<path d="M148.579 250.184H168.515C168.515 254.216 168.355 259.848 167.459 264.2H172.163V266.664H160.195V278.12H157.187V266.664H145.283V264.2H164.515C164.835 262.888 165.059 260.904 165.219 258.888L148.227 259.592L147.779 257.128L165.347 256.552C165.443 255.048 165.475 253.608 165.475 252.616H148.579V250.184ZM197.409 252.104H175.585V249.672H197.409V252.104ZM196.897 277.224H176.609V269.32H179.617V274.792H196.897V277.224ZM200.001 267.208H173.121V264.744H184.993V261.48H175.617V259.016H180.321L179.457 253.608L182.465 253.16L183.137 259.016H189.857L190.593 253.128L193.633 253.576L192.609 259.016H197.377V261.48H188.001V264.744H200.001V267.208ZM231.303 248.36V259.976H235.943V262.472H231.303V278.12H228.327V248.36H231.303ZM212.583 268.328H213.831C217.735 268.328 223.207 268.04 226.215 267.368L226.567 269.832C223.463 270.472 218.343 270.824 212.935 270.856H209.607V251.496H223.655V253.96H212.583V268.328ZM259.844 277.224H239.684V268.584H242.692V274.76H259.844V277.224ZM249.604 251.816C245.284 251.816 242.468 253 242.468 255.208C242.468 257.384 245.252 258.568 249.572 258.568C253.924 258.568 256.772 257.384 256.772 255.208C256.772 253 253.956 251.816 249.604 251.816ZM251.268 271.688H248.26V265.896H236.164V263.432H263.044V265.896H251.268V271.688ZM259.844 255.176C259.844 258.824 256.004 261.032 249.604 261.032C243.172 261.032 239.396 258.824 239.396 255.176C239.396 251.56 243.172 249.352 249.604 249.352C256.004 249.352 259.844 251.56 259.844 255.176ZM290.882 274.344H264.002V271.88H275.874V267.176H267.234V257.608H284.546V253.256H267.17V250.792H287.554V260.072H270.242V264.712H288.354V267.176H278.882V271.88H290.882V274.344ZM318.719 274.088H291.839V271.624H318.719V274.088ZM315.519 265.384H295.327V251.272H315.231V253.736H298.335V262.952H315.519V265.384Z" fill="white"/>
<path d="M405.797 160.93C405.671 160.804 405.495 160.728 405.31 160.728H362.548V121.706C362.548 121.521 362.481 121.352 362.347 121.209C362.212 121.083 362.036 121.016 361.86 121.016H358.938C358.762 121.016 358.577 121.083 358.451 121.218C358.325 121.352 358.258 121.529 358.258 121.706V164.347C358.258 164.524 358.333 164.701 358.459 164.827C358.585 164.953 358.762 165.029 358.946 165.029H405.31C405.495 165.029 405.671 164.953 405.797 164.827C405.923 164.701 405.999 164.524 405.999 164.339V161.41C405.999 161.225 405.923 161.048 405.797 160.922V160.93Z" fill="white"/>
<path d="M348.955 121.017H346.033C345.848 121.017 345.68 121.084 345.537 121.219C345.411 121.362 345.336 121.53 345.336 121.707V146.538C345.336 150.586 344.681 153.894 343.38 156.352C342.372 158.271 341.02 159.719 339.257 160.771C337.057 162.076 334.328 162.707 330.911 162.707C322.364 162.631 319.341 159.332 317.662 156.462C316.268 154.004 315.588 150.797 315.588 146.647V146.597C315.588 146.529 315.588 146.47 315.588 146.403C315.588 146.327 315.588 146.277 315.588 146.226C315.588 146.117 315.588 146.016 315.588 145.915V145.629C315.588 142.018 315.588 126.606 315.588 121.699C315.588 121.513 315.521 121.345 315.386 121.202C315.252 121.076 315.084 121.008 314.908 121.008H311.978C311.801 121.008 311.625 121.084 311.491 121.21C311.356 121.345 311.289 121.513 311.289 121.699V146.378C311.289 148.827 311.314 153.92 313.909 158.566C315.63 161.714 320.105 167 330.684 167H330.726C330.785 167 330.844 167 330.911 167C335.05 167 338.585 166.15 341.423 164.466C345.756 161.908 347.695 157.817 348.56 154.829C349.61 151.218 349.61 147.834 349.61 146.201V145.612C349.61 142.051 349.61 126.202 349.61 121.682C349.61 121.497 349.542 121.328 349.408 121.194C349.282 121.067 349.106 121 348.921 121L348.955 121.017Z" fill="white"/>
<path d="M197.908 121.42C197.799 121.176 197.547 121.016 197.278 121.016H194.734C194.474 121.016 194.23 121.176 194.113 121.42L174.692 164.07C174.65 164.154 174.625 164.255 174.625 164.356C174.625 164.482 174.659 164.617 174.734 164.726C174.86 164.928 175.078 165.046 175.313 165.046H178.529C178.798 165.046 179.041 164.886 179.151 164.642L184.482 152.942H207.522L212.853 164.642C212.962 164.886 213.214 165.046 213.474 165.046H216.69C216.925 165.046 217.144 164.928 217.27 164.735C217.337 164.625 217.379 164.49 217.379 164.356C217.379 164.255 217.354 164.162 217.312 164.07L197.908 121.42ZM205.574 148.632H186.455L196.019 127.64L205.574 148.632Z" fill="white"/>
<path d="M169.805 121.016H166.875C166.698 121.016 166.522 121.091 166.388 121.218C166.262 121.352 166.186 121.521 166.186 121.706V148.632H130.964V121.706C130.964 121.521 130.888 121.352 130.762 121.218C130.636 121.091 130.46 121.024 130.275 121.024H127.345C127.169 121.024 126.992 121.091 126.858 121.226C126.732 121.361 126.657 121.529 126.657 121.714V148.624H118.688C118.504 148.624 118.327 148.691 118.202 148.826C118.076 148.952 118 149.129 118 149.306V152.243C118 152.429 118.067 152.597 118.202 152.732C118.336 152.858 118.504 152.934 118.688 152.934H126.673V164.364C126.673 164.549 126.749 164.726 126.875 164.844C127.001 164.979 127.169 165.046 127.362 165.046H130.292C130.468 165.046 130.645 164.97 130.779 164.844C130.905 164.718 130.981 164.541 130.981 164.356V152.934H166.203V164.356C166.203 164.533 166.278 164.709 166.404 164.836C166.53 164.962 166.707 165.038 166.891 165.038H169.822C169.998 165.038 170.174 164.962 170.309 164.836C170.435 164.709 170.51 164.533 170.51 164.347V121.706C170.51 121.521 170.443 121.344 170.309 121.218C170.183 121.091 170.006 121.024 169.822 121.024L169.805 121.016Z" fill="white"/>
<path d="M307.252 121.016H303.599C303.381 121.016 303.179 121.117 303.045 121.293L285.589 144.836L268.142 121.293C268.016 121.117 267.806 121.016 267.596 121.016H263.952C263.692 121.016 263.457 121.159 263.339 121.394C263.289 121.487 263.264 121.588 263.264 121.706C263.264 121.849 263.314 122 263.398 122.11L283.457 149.154V164.356C283.457 164.541 283.532 164.718 283.658 164.836C283.784 164.962 283.96 165.038 284.145 165.038H287.067C287.252 165.038 287.428 164.962 287.546 164.836C287.68 164.709 287.756 164.533 287.756 164.347V149.146L307.806 122.11C307.89 121.992 307.94 121.841 307.94 121.706C307.94 121.596 307.923 121.495 307.873 121.394C307.755 121.159 307.52 121.016 307.26 121.016H307.252Z" fill="white"/>
<path d="M259.1 121.016H256.17C255.792 121.016 255.481 121.327 255.481 121.706V158.75L225.742 121.277C225.607 121.108 225.414 121.016 225.204 121.016H222.224C222.047 121.016 221.871 121.083 221.737 121.218C221.611 121.352 221.535 121.521 221.535 121.706V164.356C221.535 164.533 221.611 164.718 221.737 164.836C221.871 164.97 222.039 165.038 222.224 165.038H225.146C225.33 165.038 225.507 164.962 225.633 164.836C225.758 164.709 225.834 164.533 225.834 164.347V128.313L254.784 164.785C254.919 164.945 255.112 165.038 255.322 165.038H259.1C259.285 165.038 259.461 164.962 259.587 164.836C259.713 164.709 259.789 164.533 259.789 164.347V121.706C259.789 121.521 259.713 121.344 259.587 121.218C259.461 121.091 259.285 121.024 259.108 121.024L259.1 121.016Z" fill="white"/>
<path d="M141.8 81.62C138.92 81.62 136.73 81.02 135.23 80.21V77.12C137 77.9 139.07 78.47 141.47 78.47C144.41 78.47 145.64 77.24 145.64 75.29C145.64 73.46 144.86 72.74 142.46 72.02L140.39 71.45C137.3 70.58 135.41 68.93 135.41 65.21C135.41 61.52 137.81 59 142.73 59C145.61 59 147.17 59.54 148.4 60.17V63.26C147.02 62.66 145.22 62.15 142.82 62.15C140.51 62.15 139.22 63.11 139.22 64.88C139.22 66.59 139.88 67.34 142.04 67.94L144.08 68.57C147.53 69.56 149.6 71 149.6 74.9C149.6 79.04 147.08 81.62 141.8 81.62ZM157.502 70.1H160.772C163.712 70.1 164.852 68.87 164.852 66.32C164.852 63.44 163.712 62.39 160.832 62.39H157.502V70.1ZM153.572 81.23V59.36H161.222C166.382 59.36 168.962 61.73 168.962 66.08C168.962 70.64 166.052 73.04 161.492 73.04H157.502V81.23H153.572ZM172.586 81.23V59.36H186.266V62.45H176.516V68.45H184.076V71.51H176.516V78.14H186.446V81.23H172.586ZM199.041 81.59C192.951 81.59 189.171 78.02 189.171 70.64V69.86C189.171 61.97 193.761 59 199.431 59C201.861 59 203.601 59.42 204.921 60.14V63.2C203.241 62.54 201.741 62.18 199.731 62.18C195.921 62.18 193.401 64.25 193.401 69.44V70.55C193.401 75.56 195.171 78.41 199.761 78.41C202.251 78.41 203.841 77.78 205.161 77.21V80.24C203.661 81.05 201.651 81.59 199.041 81.59ZM209.063 81.23V59.36H213.023V81.23H209.063ZM225.729 64.01L222.669 72.74H228.879L225.819 64.01H225.729ZM216.129 81.23L224.109 59.36H228.129L235.899 81.23H231.849L229.869 75.68H221.739L219.759 81.23H216.129ZM239.031 81.23V59.36H242.961V78.14H252.201V81.23H239.031ZM273.016 81.59C266.926 81.59 263.146 78.02 263.146 70.64V69.86C263.146 61.97 267.736 59 273.406 59C275.836 59 277.576 59.42 278.896 60.14V63.2C277.216 62.54 275.716 62.18 273.706 62.18C269.896 62.18 267.376 64.25 267.376 69.44V70.55C267.376 75.56 269.146 78.41 273.736 78.41C276.226 78.41 277.816 77.78 279.136 77.21V80.24C277.636 81.05 275.626 81.59 273.016 81.59ZM291.797 78.56C295.637 78.56 297.497 75.53 297.497 71.06V69.98C297.497 65.06 295.907 62.09 291.677 62.06C287.867 62.06 286.007 65.06 286.007 69.5V70.61C286.007 75.56 287.597 78.56 291.797 78.56ZM291.677 81.59C285.767 81.59 281.837 77.9 281.837 70.64V69.95C281.837 62.9 285.887 59 291.857 59C297.707 59 301.697 62.63 301.697 69.95V70.64C301.697 77.72 297.587 81.59 291.677 81.59ZM314.17 81.62C308.62 81.62 305.56 78.98 305.56 73.58V59.36H309.55V73.34C309.55 77.33 311.17 78.65 314.32 78.65C317.44 78.65 318.91 77.36 318.91 73.34V59.36H322.45V73.46C322.45 79.04 319.75 81.62 314.17 81.62ZM331.408 70.1H334.678C337.618 70.1 338.758 68.87 338.758 66.32C338.758 63.44 337.618 62.39 334.738 62.39H331.408V70.1ZM327.478 81.23V59.36H335.128C340.288 59.36 342.868 61.73 342.868 66.08C342.868 70.64 339.958 73.04 335.398 73.04H331.408V81.23H327.478ZM355.342 78.56C359.182 78.56 361.042 75.53 361.042 71.06V69.98C361.042 65.06 359.452 62.09 355.222 62.06C351.412 62.06 349.552 65.06 349.552 69.5V70.61C349.552 75.56 351.142 78.56 355.342 78.56ZM355.222 81.59C349.312 81.59 345.382 77.9 345.382 70.64V69.95C345.382 62.9 349.432 59 355.402 59C361.252 59 365.242 62.63 365.242 69.95V70.64C365.242 77.72 361.132 81.59 355.222 81.59ZM369.285 81.23V59.36H373.695L382.785 74.81H382.875V59.36H386.355V81.23H382.455L372.855 64.73H372.765V81.23H369.285Z" fill="white"/>
<defs>
<filter id="filter0_d_62_4306" x="24" y="214" width="476" height="130" filterUnits="userSpaceOnUse" color-interpolation-filters="sRGB">
<feFlood flood-opacity="0" result="BackgroundImageFix"/>
<feColorMatrix in="SourceAlpha" type="matrix" values="0 0 0 0 0 0 0 0 0 0 0 0 0 0 0 0 0 0 127 0" result="hardAlpha"/>
<feOffset dy="16"/>
<feGaussianBlur stdDeviation="8"/>
<feComposite in2="hardAlpha" operator="out"/>
<feColorMatrix type="matrix" values="0 0 0 0 0.00355905 0 0 0 0 0.231963 0 0 0 0 0.854167 0 0 0 0.2 0"/>
<feBlend mode="normal" in2="BackgroundImageFix" result="effect1_dropShadow_62_4306"/>
<feBlend mode="normal" in="SourceGraphic" in2="effect1_dropShadow_62_4306" result="shape"/>
</filter>
<linearGradient id="paint0_linear_62_4306" x1="262" y1="0" x2="262" y2="348" gradientUnits="userSpaceOnUse">
<stop stop-color="#00A4EA"/>
<stop offset="1" stop-color="#0088EA"/>
</linearGradient>
</defs>
</svg>
