<svg width="524" height="348" viewBox="0 0 524 348" fill="none" xmlns="http://www.w3.org/2000/svg">
<rect width="524" height="348" rx="32" fill="url(#paint0_linear_62_4327)"/>
<g filter="url(#filter0_d_62_4327)">
<path d="M40 230C40 221.163 47.1634 214 56 214H468C476.837 214 484 221.163 484 230V296C484 304.837 476.837 312 468 312H56C47.1634 312 40 304.837 40 296V230Z" fill="#0D2E9B"/>
</g>
<circle cx="356" cy="263" r="24" fill="white"/>
<path d="M348 260L356 268L364 260" stroke="black" stroke-width="3"/>
<path d="M356 251V267" stroke="black" stroke-width="3"/>
<line x1="346" y1="273.5" x2="366" y2="273.5" stroke="black" stroke-width="3"/>
<path d="M148.579 250.184H168.515C168.515 254.216 168.355 259.848 167.459 264.2H172.163V266.664H160.195V278.12H157.187V266.664H145.283V264.2H164.515C164.835 262.888 165.059 260.904 165.219 258.888L148.227 259.592L147.779 257.128L165.347 256.552C165.443 255.048 165.475 253.608 165.475 252.616H148.579V250.184ZM197.409 252.104H175.585V249.672H197.409V252.104ZM196.897 277.224H176.609V269.32H179.617V274.792H196.897V277.224ZM200.001 267.208H173.121V264.744H184.993V261.48H175.617V259.016H180.321L179.457 253.608L182.465 253.16L183.137 259.016H189.857L190.593 253.128L193.633 253.576L192.609 259.016H197.377V261.48H188.001V264.744H200.001V267.208ZM231.303 248.36V259.976H235.943V262.472H231.303V278.12H228.327V248.36H231.303ZM212.583 268.328H213.831C217.735 268.328 223.207 268.04 226.215 267.368L226.567 269.832C223.463 270.472 218.343 270.824 212.935 270.856H209.607V251.496H223.655V253.96H212.583V268.328ZM259.844 277.224H239.684V268.584H242.692V274.76H259.844V277.224ZM249.604 251.816C245.284 251.816 242.468 253 242.468 255.208C242.468 257.384 245.252 258.568 249.572 258.568C253.924 258.568 256.772 257.384 256.772 255.208C256.772 253 253.956 251.816 249.604 251.816ZM251.268 271.688H248.26V265.896H236.164V263.432H263.044V265.896H251.268V271.688ZM259.844 255.176C259.844 258.824 256.004 261.032 249.604 261.032C243.172 261.032 239.396 258.824 239.396 255.176C239.396 251.56 243.172 249.352 249.604 249.352C256.004 249.352 259.844 251.56 259.844 255.176ZM290.882 274.344H264.002V271.88H275.874V267.176H267.234V257.608H284.546V253.256H267.17V250.792H287.554V260.072H270.242V264.712H288.354V267.176H278.882V271.88H290.882V274.344ZM318.719 274.088H291.839V271.624H318.719V274.088ZM315.519 265.384H295.327V251.272H315.231V253.736H298.335V262.952H315.519V265.384Z" fill="white"/>
<path d="M140.57 134.016C140.57 125.606 147.579 122.592 155.355 122.592C156.642 122.592 159.119 122.745 160.405 122.899C160.367 123.475 159.829 124.953 157.967 124.896C154.069 124.723 145.121 124.089 145.121 132.057C145.121 135.84 148.251 138.509 150.651 140.045L155.855 143.328C159.964 145.862 163.996 149.645 163.996 155.808C163.996 162.969 158.581 167.865 150.133 167.865C144.66 167.865 140.513 165.389 139.034 162.989C136.692 159.264 138.823 155.961 140.551 154.579C141.588 159.917 145.064 165.849 150.997 165.849C156.469 165.849 159.138 162.259 159.138 158.361C159.138 155.481 158.562 152.313 153.8 149.261L147.617 145.229C144.353 143.078 140.59 139.373 140.59 134.035" fill="white"/>
<path d="M204.453 120C202.13 120.653 199.23 123.475 199.23 128.294V166.925H204.03V134.458C204.03 127.488 204.05 123.61 204.434 120" fill="white"/>
<path d="M187.171 158.341C187.171 163.41 183.004 164.505 180.527 164.505C176.092 164.505 174.537 162.508 174.537 158.015V139.871C172.175 140.505 169.679 143.519 169.717 146.687V159.589C169.717 163.948 172.636 167.653 177.724 167.653C180.854 167.653 184.425 166.348 186.902 164.332C187.555 163.794 191.971 160.3 191.971 152.697V140.581V139.89C189.61 140.524 187.113 143.538 187.152 146.706V158.361L187.171 158.341Z" fill="white"/>
<path d="M259.291 146.746C259.291 146.342 259.349 146.054 259.464 145.843C259.464 145.843 259.79 145.459 260.251 145.114C261.538 144.288 263.496 143.232 265.704 143.232C269.871 143.232 271.887 146.035 271.887 150.202V166.982H276.611L276.687 148.627C276.687 144.077 274.479 140.256 268.296 140.256C264.955 140.256 261.71 142.214 259.368 143.904C259.272 143.962 259.253 143.712 259.253 143.539V130.541C259.253 125.914 259.349 122.861 259.656 120C258.446 120.326 257.045 121.286 256.008 122.803C255.067 124.051 254.414 125.606 254.414 127.2V166.963H259.253V146.746H259.291Z" fill="white"/>
<path d="M328.703 154.311C328.703 162.451 334.559 167.731 342.048 167.731C350.189 167.731 355.796 161.875 355.796 153.735C355.796 145.594 349.882 140.275 342.586 140.275C334.905 140.275 328.722 146.131 328.722 154.311M334.329 153.466C334.329 146.304 337.516 141.677 341.798 141.677C348 141.677 350.208 149.242 350.208 154.771C350.208 159.783 348.442 166.291 342.72 166.291C336.998 166.291 334.329 159.379 334.329 153.466Z" fill="white"/>
<path d="M359.943 154.311C359.943 162.451 365.799 167.731 373.288 167.731C381.41 167.731 386.997 161.875 386.997 153.735C386.997 145.594 381.083 140.275 373.787 140.275C366.107 140.275 359.924 146.131 359.924 154.311M365.531 153.466C365.531 146.304 368.718 141.677 373 141.677C379.183 141.677 381.41 149.242 381.41 154.771C381.41 159.783 379.643 166.291 373.921 166.291C368.2 166.291 365.531 159.379 365.531 153.466Z" fill="white"/>
<path d="M309.31 147.668C309.31 141.351 314.782 140.199 319.563 140.199C320.235 140.199 322.308 140.353 322.942 140.391C322.942 141.121 322.231 142.273 320.926 142.273C318.775 142.273 313.438 141.217 313.438 146.113C313.438 148.782 316.183 150.202 318.449 151.508C321.905 153.466 325.111 155.674 325.111 160.302C325.111 165.236 320.542 167.713 315.742 167.713C312.67 167.713 310.078 166.887 308.907 165.159C307.582 163.162 308.657 161.358 309.579 160.263C310.481 163.719 312.708 165.831 316.375 165.831C318.737 165.831 320.753 164.468 320.753 161.684C320.753 158.67 318.142 157.057 315.742 155.694C311.959 153.543 309.291 151.258 309.291 147.687" fill="white"/>
<path d="M285.079 146.074H289.629C289.629 146.074 290.09 142.964 292.625 142.253C296.657 141.351 297.694 145.498 297.694 148.801V151.508C296.33 152.468 294.967 152.852 291.089 153.485C285.309 154.388 282.832 156.692 282.832 161.223C282.832 165.428 285.559 168.001 289.994 168.001C292.855 168.001 295.409 166.733 297.694 164.237V167.194H302.436V148.109C302.436 141.485 297.156 140.525 294.698 140.525C291.78 140.525 286.711 141.677 285.079 146.093M287.095 160.724C287.095 158.362 287.94 156.865 289.725 155.905C290.512 155.521 291.242 155.309 295.37 154.292C297.214 153.869 297.482 153.812 297.694 153.754V158.535C297.694 162.145 295.562 165.677 291.78 165.677C289.034 165.677 287.075 163.585 287.075 160.724" fill="white"/>
<path d="M249.018 141.159C247.828 140.928 245.504 141.427 243.949 145.421L238.323 159.802L231.852 141.062H228.511L222.367 159.859L214.955 141.178H209.752L220.236 167.347H221.618L229.145 146.707L236.461 167.347H237.997L245.485 148.704C246.81 145.402 248.154 142.272 249.018 141.159Z" fill="white"/>
<path d="M141.8 81.62C138.92 81.62 136.73 81.02 135.23 80.21V77.12C137 77.9 139.07 78.47 141.47 78.47C144.41 78.47 145.64 77.24 145.64 75.29C145.64 73.46 144.86 72.74 142.46 72.02L140.39 71.45C137.3 70.58 135.41 68.93 135.41 65.21C135.41 61.52 137.81 59 142.73 59C145.61 59 147.17 59.54 148.4 60.17V63.26C147.02 62.66 145.22 62.15 142.82 62.15C140.51 62.15 139.22 63.11 139.22 64.88C139.22 66.59 139.88 67.34 142.04 67.94L144.08 68.57C147.53 69.56 149.6 71 149.6 74.9C149.6 79.04 147.08 81.62 141.8 81.62ZM157.502 70.1H160.772C163.712 70.1 164.852 68.87 164.852 66.32C164.852 63.44 163.712 62.39 160.832 62.39H157.502V70.1ZM153.572 81.23V59.36H161.222C166.382 59.36 168.962 61.73 168.962 66.08C168.962 70.64 166.052 73.04 161.492 73.04H157.502V81.23H153.572ZM172.586 81.23V59.36H186.266V62.45H176.516V68.45H184.076V71.51H176.516V78.14H186.446V81.23H172.586ZM199.041 81.59C192.951 81.59 189.171 78.02 189.171 70.64V69.86C189.171 61.97 193.761 59 199.431 59C201.861 59 203.601 59.42 204.921 60.14V63.2C203.241 62.54 201.741 62.18 199.731 62.18C195.921 62.18 193.401 64.25 193.401 69.44V70.55C193.401 75.56 195.171 78.41 199.761 78.41C202.251 78.41 203.841 77.78 205.161 77.21V80.24C203.661 81.05 201.651 81.59 199.041 81.59ZM209.063 81.23V59.36H213.023V81.23H209.063ZM225.729 64.01L222.669 72.74H228.879L225.819 64.01H225.729ZM216.129 81.23L224.109 59.36H228.129L235.899 81.23H231.849L229.869 75.68H221.739L219.759 81.23H216.129ZM239.031 81.23V59.36H242.961V78.14H252.201V81.23H239.031ZM273.016 81.59C266.926 81.59 263.146 78.02 263.146 70.64V69.86C263.146 61.97 267.736 59 273.406 59C275.836 59 277.576 59.42 278.896 60.14V63.2C277.216 62.54 275.716 62.18 273.706 62.18C269.896 62.18 267.376 64.25 267.376 69.44V70.55C267.376 75.56 269.146 78.41 273.736 78.41C276.226 78.41 277.816 77.78 279.136 77.21V80.24C277.636 81.05 275.626 81.59 273.016 81.59ZM291.797 78.56C295.637 78.56 297.497 75.53 297.497 71.06V69.98C297.497 65.06 295.907 62.09 291.677 62.06C287.867 62.06 286.007 65.06 286.007 69.5V70.61C286.007 75.56 287.597 78.56 291.797 78.56ZM291.677 81.59C285.767 81.59 281.837 77.9 281.837 70.64V69.95C281.837 62.9 285.887 59 291.857 59C297.707 59 301.697 62.63 301.697 69.95V70.64C301.697 77.72 297.587 81.59 291.677 81.59ZM314.17 81.62C308.62 81.62 305.56 78.98 305.56 73.58V59.36H309.55V73.34C309.55 77.33 311.17 78.65 314.32 78.65C317.44 78.65 318.91 77.36 318.91 73.34V59.36H322.45V73.46C322.45 79.04 319.75 81.62 314.17 81.62ZM331.408 70.1H334.678C337.618 70.1 338.758 68.87 338.758 66.32C338.758 63.44 337.618 62.39 334.738 62.39H331.408V70.1ZM327.478 81.23V59.36H335.128C340.288 59.36 342.868 61.73 342.868 66.08C342.868 70.64 339.958 73.04 335.398 73.04H331.408V81.23H327.478ZM355.342 78.56C359.182 78.56 361.042 75.53 361.042 71.06V69.98C361.042 65.06 359.452 62.09 355.222 62.06C351.412 62.06 349.552 65.06 349.552 69.5V70.61C349.552 75.56 351.142 78.56 355.342 78.56ZM355.222 81.59C349.312 81.59 345.382 77.9 345.382 70.64V69.95C345.382 62.9 349.432 59 355.402 59C361.252 59 365.242 62.63 365.242 69.95V70.64C365.242 77.72 361.132 81.59 355.222 81.59ZM369.285 81.23V59.36H373.695L382.785 74.81H382.875V59.36H386.355V81.23H382.455L372.855 64.73H372.765V81.23H369.285Z" fill="white"/>
<defs>
<filter id="filter0_d_62_4327" x="24" y="214" width="476" height="130" filterUnits="userSpaceOnUse" color-interpolation-filters="sRGB">
<feFlood flood-opacity="0" result="BackgroundImageFix"/>
<feColorMatrix in="SourceAlpha" type="matrix" values="0 0 0 0 0 0 0 0 0 0 0 0 0 0 0 0 0 0 127 0" result="hardAlpha"/>
<feOffset dy="16"/>
<feGaussianBlur stdDeviation="8"/>
<feComposite in2="hardAlpha" operator="out"/>
<feColorMatrix type="matrix" values="0 0 0 0 0.00355905 0 0 0 0 0.231963 0 0 0 0 0.854167 0 0 0 0.2 0"/>
<feBlend mode="normal" in2="BackgroundImageFix" result="effect1_dropShadow_62_4327"/>
<feBlend mode="normal" in="SourceGraphic" in2="effect1_dropShadow_62_4327" result="shape"/>
</filter>
<linearGradient id="paint0_linear_62_4327" x1="262" y1="0" x2="262" y2="348" gradientUnits="userSpaceOnUse">
<stop stop-color="#00A4EA"/>
<stop offset="1" stop-color="#0088EA"/>
</linearGradient>
</defs>
</svg>
