<svg width="524" height="348" viewBox="0 0 524 348" fill="none" xmlns="http://www.w3.org/2000/svg">
<rect width="524" height="348" rx="32" fill="url(#paint0_linear_62_4254)"/>
<g filter="url(#filter0_d_62_4254)">
<path d="M40 230C40 221.163 47.1634 214 56 214H468C476.837 214 484 221.163 484 230V296C484 304.837 476.837 312 468 312H56C47.1634 312 40 304.837 40 296V230Z" fill="#0D2E9B"/>
</g>
<circle cx="356" cy="263" r="24" fill="white"/>
<path d="M348 260L356 268L364 260" stroke="black" stroke-width="3"/>
<path d="M356 251V267" stroke="black" stroke-width="3"/>
<line x1="346" y1="273.5" x2="366" y2="273.5" stroke="black" stroke-width="3"/>
<path d="M148.579 250.184H168.515C168.515 254.216 168.355 259.848 167.459 264.2H172.163V266.664H160.195V278.12H157.187V266.664H145.283V264.2H164.515C164.835 262.888 165.059 260.904 165.219 258.888L148.227 259.592L147.779 257.128L165.347 256.552C165.443 255.048 165.475 253.608 165.475 252.616H148.579V250.184ZM197.409 252.104H175.585V249.672H197.409V252.104ZM196.897 277.224H176.609V269.32H179.617V274.792H196.897V277.224ZM200.001 267.208H173.121V264.744H184.993V261.48H175.617V259.016H180.321L179.457 253.608L182.465 253.16L183.137 259.016H189.857L190.593 253.128L193.633 253.576L192.609 259.016H197.377V261.48H188.001V264.744H200.001V267.208ZM231.303 248.36V259.976H235.943V262.472H231.303V278.12H228.327V248.36H231.303ZM212.583 268.328H213.831C217.735 268.328 223.207 268.04 226.215 267.368L226.567 269.832C223.463 270.472 218.343 270.824 212.935 270.856H209.607V251.496H223.655V253.96H212.583V268.328ZM259.844 277.224H239.684V268.584H242.692V274.76H259.844V277.224ZM249.604 251.816C245.284 251.816 242.468 253 242.468 255.208C242.468 257.384 245.252 258.568 249.572 258.568C253.924 258.568 256.772 257.384 256.772 255.208C256.772 253 253.956 251.816 249.604 251.816ZM251.268 271.688H248.26V265.896H236.164V263.432H263.044V265.896H251.268V271.688ZM259.844 255.176C259.844 258.824 256.004 261.032 249.604 261.032C243.172 261.032 239.396 258.824 239.396 255.176C239.396 251.56 243.172 249.352 249.604 249.352C256.004 249.352 259.844 251.56 259.844 255.176ZM290.882 274.344H264.002V271.88H275.874V267.176H267.234V257.608H284.546V253.256H267.17V250.792H287.554V260.072H270.242V264.712H288.354V267.176H278.882V271.88H290.882V274.344ZM318.719 274.088H291.839V271.624H318.719V274.088ZM315.519 265.384H295.327V251.272H315.231V253.736H298.335V262.952H315.519V265.384Z" fill="white"/>
<path d="M193.672 131.414C193.672 131.146 193.576 130.92 193.375 130.729C193.18 130.535 192.94 130.439 192.657 130.439C192.374 130.439 192.144 130.535 191.946 130.729C191.748 130.923 191.652 131.146 191.652 131.414C191.652 131.683 191.751 131.923 191.946 132.114C192.147 132.308 192.377 132.404 192.657 132.404C192.936 132.404 193.177 132.305 193.375 132.114C193.576 131.923 193.672 131.694 193.672 131.414Z" fill="white"/>
<path d="M184.715 158.663H184.768C186.087 158.649 187.208 158.295 188.092 157.606C189.344 156.642 189.977 155.332 189.977 153.717C189.977 152.145 189.358 150.873 188.135 149.937C187.18 149.199 186.07 148.828 184.839 148.828C183.537 148.828 182.349 149.27 181.313 150.139C180.277 151.015 179.75 152.241 179.75 153.788C179.75 154.491 179.86 155.127 180.075 155.671C180.291 156.222 180.613 156.727 181.03 157.172C181.444 157.614 181.996 158.009 182.675 158.348L182.717 158.369L183.315 157.257L183.272 157.232C182.653 156.872 182.197 156.526 181.918 156.211C181.642 155.9 181.416 155.515 181.249 155.07C181.083 154.629 180.998 154.162 180.998 153.685C180.998 152.7 181.345 151.891 182.052 151.216C182.721 150.584 183.583 150.238 184.613 150.185H184.719V158.666L184.715 158.663ZM187.792 151.382C188.396 152.043 188.69 152.809 188.69 153.731C188.69 154.286 188.57 154.819 188.333 155.314C188.089 155.823 187.781 156.218 187.389 156.522C187.049 156.787 186.455 157.119 185.939 157.197V150.315C186.773 150.467 187.396 150.944 187.792 151.379V151.382Z" fill="white"/>
<path d="M188.157 126.098L187.786 125.908H189.614V124.555H180.115V125.915H185.247C185.519 125.915 185.784 125.936 186.032 125.975C187.184 126.155 188.008 127.003 188.136 128.14C188.175 128.497 188.175 129.083 188.171 129.32H189.614V128.815C189.596 127.448 189.144 126.611 188.157 126.102V126.098Z" fill="white"/>
<path d="M188.157 161.591L187.786 161.4H189.614V160.047H180.115V161.407H185.247C185.519 161.407 185.784 161.428 186.032 161.467C187.184 161.647 188.008 162.495 188.136 163.632C188.175 163.989 188.175 164.576 188.171 164.812H189.614V164.307C189.596 162.94 189.144 162.103 188.157 161.594V161.591Z" fill="white"/>
<path d="M189.614 130.744L180.115 130.74V132.1L189.614 132.097V130.744Z" fill="white"/>
<path d="M188.239 121.927C189.165 121.033 189.635 119.938 189.635 118.681C189.635 117.96 189.473 117.292 189.158 116.702C188.925 116.268 188.613 115.865 188.249 115.537L188.055 115.36H189.614V114H177V115.356H181.594L181.42 115.53C181.074 115.876 180.766 116.296 180.533 116.748C180.236 117.342 180.084 118.002 180.084 118.705C180.084 119.959 180.554 121.047 181.484 121.934C182.414 122.821 183.56 123.269 184.886 123.269C186.212 123.269 187.316 122.817 188.239 121.923V121.927ZM183.097 121.464C182.542 121.16 182.121 120.761 181.806 120.242C181.495 119.73 181.346 119.196 181.346 118.606C181.346 118.016 181.498 117.451 181.799 116.921C182.11 116.384 182.517 115.985 183.037 115.696C183.32 115.54 183.631 115.427 183.96 115.356C184.228 115.3 184.511 115.272 184.801 115.272C185.091 115.272 185.388 115.3 185.661 115.356C186.29 115.491 186.828 115.777 187.298 116.229C187.963 116.865 188.299 117.656 188.299 118.585C188.299 119.182 188.147 119.744 187.846 120.249C187.545 120.754 187.118 121.16 186.573 121.461C186.025 121.761 185.438 121.913 184.833 121.913C184.228 121.913 183.645 121.761 183.097 121.457V121.464Z" fill="white"/>
<path d="M189.613 172.643H188.053L188.248 172.467C188.609 172.138 188.923 171.735 189.157 171.301C189.475 170.711 189.638 170.043 189.638 169.323C189.638 168.062 189.167 166.97 188.241 166.076C187.318 165.183 186.19 164.73 184.888 164.73C183.562 164.73 182.416 165.179 181.486 166.066C180.556 166.952 180.086 168.04 180.086 169.294C180.086 169.997 180.238 170.658 180.535 171.252C180.765 171.704 181.073 172.124 181.419 172.47L181.592 172.643H180.114V174.003H189.613V172.647V172.643ZM183.958 172.643C183.629 172.573 183.318 172.46 183.035 172.304C182.515 172.015 182.112 171.615 181.798 171.078C181.497 170.552 181.341 169.983 181.341 169.393C181.341 168.803 181.493 168.27 181.801 167.758C182.116 167.239 182.537 166.839 183.092 166.536C183.644 166.232 184.227 166.08 184.828 166.08C185.429 166.08 186.02 166.232 186.568 166.532C187.113 166.832 187.541 167.239 187.841 167.744C188.142 168.249 188.294 168.811 188.294 169.411C188.294 170.34 187.958 171.131 187.293 171.767C186.819 172.219 186.285 172.506 185.656 172.64C185.387 172.696 185.097 172.725 184.796 172.725C184.496 172.725 184.224 172.696 183.955 172.64L183.958 172.643Z" fill="white"/>
<path d="M189.607 143.804C189.607 142.727 188.907 141.646 187.817 140.954C187.817 140.954 189.798 140.102 189.607 138C189.451 136.301 188.192 135.69 188.192 135.69H189.614V134.33H180.115V135.69H185.89C185.918 135.69 185.943 135.69 185.971 135.69C185.979 135.69 185.986 135.69 185.993 135.69C187.238 135.69 188.245 136.697 188.245 137.94C188.245 139.184 187.238 140.191 185.993 140.191H180.115V141.551H185.993C187.238 141.551 188.245 142.557 188.245 143.801C188.245 145.044 187.238 146.051 185.993 146.051H180.115V147.411H185.993C187.984 147.411 189.607 145.793 189.607 143.801V143.804Z" fill="white"/>
<path d="M342.955 114.106C336.748 114.194 331.879 116.459 328.922 122.164C328.922 119.769 328.922 114.106 328.922 114.106H321.135V117.568C318.101 115.417 314.398 114.148 310.402 114.148C304.447 114.148 299.139 116.964 295.737 121.33C292.335 116.964 287.027 114.148 281.072 114.148C277.065 114.148 273.352 115.424 270.314 117.586V114.106H262.502H259.461C253.254 114.194 248.385 116.459 245.428 122.164C245.428 119.769 245.428 114.106 245.428 114.106H237.641V120.246C233.238 116.098 227.955 114 221.922 114C218.223 114 214.81 114.827 211.783 116.455C209.672 117.586 207.6 119.14 205.817 121.097L205.81 114.106H198.002V174H205.81L205.817 155.903C207.692 157.786 209.856 159.298 212.056 160.421C215.111 161.943 218.481 162.714 222.081 162.714C228.054 162.714 233.281 160.633 237.641 156.525V162.551H245.464V136.417C245.471 135.135 245.559 133.842 245.757 132.578C246.609 127.092 250.627 123.11 256.154 122.499C258.382 122.252 262.481 122.323 262.506 122.326V162.551H270.321V132.698C270.321 126.774 275.148 121.952 281.079 121.952C287.009 121.952 291.836 126.774 291.836 132.698V162.555H299.652V132.698C299.652 126.774 304.479 121.952 310.409 121.952C316.106 121.952 320.778 126.399 321.142 131.998V162.555H328.961V161.838H328.986V135.379C329.025 134.439 329.11 133.5 329.255 132.574C330.107 127.088 334.124 123.107 339.652 122.496C341.883 122.248 346.003 122.323 346.003 122.323V114.106H342.962H342.955ZM235.417 146.913C233.946 149.594 232.004 151.639 229.479 153.162C227 154.659 224.412 155.387 221.565 155.387C218.7 155.387 215.946 154.645 213.389 153.186C210.786 151.674 208.844 149.717 207.451 147.206C206.698 145.825 206.146 144.334 205.807 142.741C205.527 141.437 205.386 140.07 205.386 138.639C205.386 137.163 205.527 135.775 205.807 134.46C206.454 131.422 207.858 128.805 210.047 126.526C213.124 123.315 216.968 121.687 221.473 121.687C224.376 121.687 227.092 122.422 229.55 123.873C232.001 125.329 233.978 127.402 235.427 130.041C236.892 132.705 237.634 135.545 237.634 138.484C237.634 141.405 236.888 144.242 235.413 146.916L235.417 146.913Z" fill="white"/>
<path d="M141.8 81.62C138.92 81.62 136.73 81.02 135.23 80.21V77.12C137 77.9 139.07 78.47 141.47 78.47C144.41 78.47 145.64 77.24 145.64 75.29C145.64 73.46 144.86 72.74 142.46 72.02L140.39 71.45C137.3 70.58 135.41 68.93 135.41 65.21C135.41 61.52 137.81 59 142.73 59C145.61 59 147.17 59.54 148.4 60.17V63.26C147.02 62.66 145.22 62.15 142.82 62.15C140.51 62.15 139.22 63.11 139.22 64.88C139.22 66.59 139.88 67.34 142.04 67.94L144.08 68.57C147.53 69.56 149.6 71 149.6 74.9C149.6 79.04 147.08 81.62 141.8 81.62ZM157.502 70.1H160.772C163.712 70.1 164.852 68.87 164.852 66.32C164.852 63.44 163.712 62.39 160.832 62.39H157.502V70.1ZM153.572 81.23V59.36H161.222C166.382 59.36 168.962 61.73 168.962 66.08C168.962 70.64 166.052 73.04 161.492 73.04H157.502V81.23H153.572ZM172.586 81.23V59.36H186.266V62.45H176.516V68.45H184.076V71.51H176.516V78.14H186.446V81.23H172.586ZM199.041 81.59C192.951 81.59 189.171 78.02 189.171 70.64V69.86C189.171 61.97 193.761 59 199.431 59C201.861 59 203.601 59.42 204.921 60.14V63.2C203.241 62.54 201.741 62.18 199.731 62.18C195.921 62.18 193.401 64.25 193.401 69.44V70.55C193.401 75.56 195.171 78.41 199.761 78.41C202.251 78.41 203.841 77.78 205.161 77.21V80.24C203.661 81.05 201.651 81.59 199.041 81.59ZM209.063 81.23V59.36H213.023V81.23H209.063ZM225.729 64.01L222.669 72.74H228.879L225.819 64.01H225.729ZM216.129 81.23L224.109 59.36H228.129L235.899 81.23H231.849L229.869 75.68H221.739L219.759 81.23H216.129ZM239.031 81.23V59.36H242.961V78.14H252.201V81.23H239.031ZM273.016 81.59C266.926 81.59 263.146 78.02 263.146 70.64V69.86C263.146 61.97 267.736 59 273.406 59C275.836 59 277.576 59.42 278.896 60.14V63.2C277.216 62.54 275.716 62.18 273.706 62.18C269.896 62.18 267.376 64.25 267.376 69.44V70.55C267.376 75.56 269.146 78.41 273.736 78.41C276.226 78.41 277.816 77.78 279.136 77.21V80.24C277.636 81.05 275.626 81.59 273.016 81.59ZM291.797 78.56C295.637 78.56 297.497 75.53 297.497 71.06V69.98C297.497 65.06 295.907 62.09 291.677 62.06C287.867 62.06 286.007 65.06 286.007 69.5V70.61C286.007 75.56 287.597 78.56 291.797 78.56ZM291.677 81.59C285.767 81.59 281.837 77.9 281.837 70.64V69.95C281.837 62.9 285.887 59 291.857 59C297.707 59 301.697 62.63 301.697 69.95V70.64C301.697 77.72 297.587 81.59 291.677 81.59ZM314.17 81.62C308.62 81.62 305.56 78.98 305.56 73.58V59.36H309.55V73.34C309.55 77.33 311.17 78.65 314.32 78.65C317.44 78.65 318.91 77.36 318.91 73.34V59.36H322.45V73.46C322.45 79.04 319.75 81.62 314.17 81.62ZM331.408 70.1H334.678C337.618 70.1 338.758 68.87 338.758 66.32C338.758 63.44 337.618 62.39 334.738 62.39H331.408V70.1ZM327.478 81.23V59.36H335.128C340.288 59.36 342.868 61.73 342.868 66.08C342.868 70.64 339.958 73.04 335.398 73.04H331.408V81.23H327.478ZM355.342 78.56C359.182 78.56 361.042 75.53 361.042 71.06V69.98C361.042 65.06 359.452 62.09 355.222 62.06C351.412 62.06 349.552 65.06 349.552 69.5V70.61C349.552 75.56 351.142 78.56 355.342 78.56ZM355.222 81.59C349.312 81.59 345.382 77.9 345.382 70.64V69.95C345.382 62.9 349.432 59 355.402 59C361.252 59 365.242 62.63 365.242 69.95V70.64C365.242 77.72 361.132 81.59 355.222 81.59ZM369.285 81.23V59.36H373.695L382.785 74.81H382.875V59.36H386.355V81.23H382.455L372.855 64.73H372.765V81.23H369.285Z" fill="white"/>
<defs>
<filter id="filter0_d_62_4254" x="24" y="214" width="476" height="130" filterUnits="userSpaceOnUse" color-interpolation-filters="sRGB">
<feFlood flood-opacity="0" result="BackgroundImageFix"/>
<feColorMatrix in="SourceAlpha" type="matrix" values="0 0 0 0 0 0 0 0 0 0 0 0 0 0 0 0 0 0 127 0" result="hardAlpha"/>
<feOffset dy="16"/>
<feGaussianBlur stdDeviation="8"/>
<feComposite in2="hardAlpha" operator="out"/>
<feColorMatrix type="matrix" values="0 0 0 0 0.00355905 0 0 0 0 0.231963 0 0 0 0 0.854167 0 0 0 0.2 0"/>
<feBlend mode="normal" in2="BackgroundImageFix" result="effect1_dropShadow_62_4254"/>
<feBlend mode="normal" in="SourceGraphic" in2="effect1_dropShadow_62_4254" result="shape"/>
</filter>
<linearGradient id="paint0_linear_62_4254" x1="262" y1="0" x2="262" y2="348" gradientUnits="userSpaceOnUse">
<stop stop-color="#00A4EA"/>
<stop offset="1" stop-color="#0088EA"/>
</linearGradient>
</defs>
</svg>
