<svg width="524" height="348" viewBox="0 0 524 348" fill="none" xmlns="http://www.w3.org/2000/svg">
<rect width="524" height="348" rx="32" fill="url(#paint0_linear_62_4222)"/>
<g filter="url(#filter0_d_62_4222)">
<path d="M40 230C40 221.163 47.1634 214 56 214H468C476.837 214 484 221.163 484 230V296C484 304.837 476.837 312 468 312H56C47.1634 312 40 304.837 40 296V230Z" fill="#0D2E9B"/>
</g>
<circle cx="356" cy="263" r="24" fill="white"/>
<path d="M348 260L356 268L364 260" stroke="black" stroke-width="3"/>
<path d="M356 251V267" stroke="black" stroke-width="3"/>
<line x1="346" y1="273.5" x2="366" y2="273.5" stroke="black" stroke-width="3"/>
<path d="M148.579 250.184H168.515C168.515 254.216 168.355 259.848 167.459 264.2H172.163V266.664H160.195V278.12H157.187V266.664H145.283V264.2H164.515C164.835 262.888 165.059 260.904 165.219 258.888L148.227 259.592L147.779 257.128L165.347 256.552C165.443 255.048 165.475 253.608 165.475 252.616H148.579V250.184ZM197.409 252.104H175.585V249.672H197.409V252.104ZM196.897 277.224H176.609V269.32H179.617V274.792H196.897V277.224ZM200.001 267.208H173.121V264.744H184.993V261.48H175.617V259.016H180.321L179.457 253.608L182.465 253.16L183.137 259.016H189.857L190.593 253.128L193.633 253.576L192.609 259.016H197.377V261.48H188.001V264.744H200.001V267.208ZM231.303 248.36V259.976H235.943V262.472H231.303V278.12H228.327V248.36H231.303ZM212.583 268.328H213.831C217.735 268.328 223.207 268.04 226.215 267.368L226.567 269.832C223.463 270.472 218.343 270.824 212.935 270.856H209.607V251.496H223.655V253.96H212.583V268.328ZM259.844 277.224H239.684V268.584H242.692V274.76H259.844V277.224ZM249.604 251.816C245.284 251.816 242.468 253 242.468 255.208C242.468 257.384 245.252 258.568 249.572 258.568C253.924 258.568 256.772 257.384 256.772 255.208C256.772 253 253.956 251.816 249.604 251.816ZM251.268 271.688H248.26V265.896H236.164V263.432H263.044V265.896H251.268V271.688ZM259.844 255.176C259.844 258.824 256.004 261.032 249.604 261.032C243.172 261.032 239.396 258.824 239.396 255.176C239.396 251.56 243.172 249.352 249.604 249.352C256.004 249.352 259.844 251.56 259.844 255.176ZM290.882 274.344H264.002V271.88H275.874V267.176H267.234V257.608H284.546V253.256H267.17V250.792H287.554V260.072H270.242V264.712H288.354V267.176H278.882V271.88H290.882V274.344ZM318.719 274.088H291.839V271.624H318.719V274.088ZM315.519 265.384H295.327V251.272H315.231V253.736H298.335V262.952H315.519V265.384Z" fill="white"/>
<path d="M242.072 141.188C242.124 141.188 242.188 141.188 242.241 141.167C242.442 141.124 242.622 140.998 242.727 140.818L251.59 126.888L260.411 139.573C260.527 139.742 260.717 139.858 260.918 139.9C261.13 139.942 261.331 139.89 261.511 139.774L264.958 137.357C265.128 137.23 265.244 137.061 265.286 136.85C265.318 136.65 265.286 136.439 265.159 136.27L252.034 117.475C251.886 117.264 251.632 117.137 251.379 117.137C251.125 117.137 250.871 117.274 250.733 117.496L237.873 137.726C237.64 138.085 237.746 138.57 238.116 138.803L241.649 141.061C241.775 141.135 241.924 141.188 242.061 141.188H242.072ZM267.433 130.624H279.194V139.014C279.194 139.225 279.279 139.425 279.416 139.562C279.564 139.71 279.765 139.795 279.977 139.795H284.207C284.419 139.795 284.62 139.71 284.757 139.562C284.905 139.425 284.979 139.214 284.979 139.014V118.382C284.979 118.182 284.895 117.981 284.757 117.834C284.609 117.686 284.408 117.602 284.207 117.602H279.977C279.776 117.602 279.564 117.686 279.416 117.834C279.279 117.981 279.194 118.182 279.194 118.382V124.851H267.433C267.222 124.851 267.021 124.936 266.883 125.073C266.735 125.221 266.651 125.421 266.651 125.632V129.843C266.651 130.044 266.735 130.244 266.883 130.392C267.031 130.54 267.232 130.624 267.433 130.624ZM287.158 160.542H247.635V157.914H284.006C284.207 157.914 284.419 157.83 284.567 157.682C284.704 157.534 284.789 157.334 284.789 157.133V144.121C284.789 143.91 284.704 143.71 284.567 143.573C284.419 143.425 284.218 143.34 284.006 143.34H243.076C242.875 143.34 242.674 143.425 242.526 143.573C242.378 143.72 242.294 143.921 242.294 144.121V148.332C242.294 148.543 242.378 148.744 242.526 148.891C242.674 149.039 242.875 149.113 243.076 149.113H278.993V152.131H242.622C242.41 152.131 242.209 152.216 242.072 152.363C241.923 152.5 241.839 152.712 241.839 152.912V165.534C241.839 165.734 241.923 165.945 242.072 166.082C242.22 166.23 242.421 166.314 242.622 166.314H287.147C287.359 166.314 287.549 166.23 287.708 166.082C287.856 165.935 287.94 165.745 287.94 165.534V161.323C287.94 161.122 287.856 160.911 287.708 160.774C287.56 160.626 287.359 160.552 287.147 160.552L287.158 160.542ZM200.676 138.539C202.95 140.681 206.081 141.979 209.486 141.979C212.892 141.979 216.022 140.681 218.296 138.539C220.57 136.397 222.03 133.357 222.03 130.012C222.03 126.656 220.57 123.617 218.296 121.474C216.022 119.322 212.892 118.024 209.497 118.024C206.102 118.024 202.971 119.322 200.687 121.474C198.413 123.606 196.954 126.635 196.954 129.991V130.022C196.954 133.368 198.413 136.397 200.687 138.528L200.676 138.539ZM204.695 125.748C205.901 124.619 207.583 123.902 209.486 123.902C211.39 123.902 213.072 124.63 214.277 125.748C215.483 126.888 216.16 128.366 216.171 130.012C216.171 131.648 215.483 133.125 214.277 134.275C213.072 135.405 211.401 136.122 209.497 136.122C207.593 136.122 205.912 135.405 204.706 134.265C203.511 133.125 202.823 131.648 202.813 130.001C202.813 128.355 203.5 126.888 204.706 125.738L204.695 125.748ZM235.335 157.555H212.141V146.158C212.141 145.958 212.056 145.747 211.908 145.609C211.771 145.462 211.559 145.377 211.358 145.377H207.339C207.128 145.377 206.927 145.462 206.789 145.609C206.641 145.747 206.557 145.958 206.557 146.158V157.555H180.783C180.571 157.555 180.37 157.64 180.233 157.788C180.085 157.935 180 158.136 180 158.347V162.558C180 162.769 180.085 162.969 180.233 163.106C180.381 163.254 180.582 163.338 180.783 163.338H235.335C235.546 163.338 235.736 163.254 235.885 163.106C236.033 162.959 236.117 162.769 236.117 162.558V158.347C236.117 158.136 236.033 157.935 235.885 157.788C235.736 157.64 235.535 157.555 235.335 157.555ZM342.217 145.82H319.838V141.177H335.829C336.041 141.177 336.231 141.103 336.379 140.955C336.527 140.808 336.612 140.607 336.612 140.407V136.185C336.612 135.974 336.527 135.784 336.379 135.637C336.231 135.489 336.03 135.405 335.829 135.405H307.337V132.08H328.426C328.638 132.08 328.839 131.996 328.976 131.859C329.124 131.711 329.209 131.51 329.209 131.299V117.77C329.209 117.57 329.124 117.369 328.976 117.222C328.839 117.084 328.638 117 328.426 117H304.905C304.704 117 304.492 117.095 304.355 117.222C304.207 117.369 304.122 117.57 304.122 117.77V121.981C304.122 122.192 304.207 122.382 304.355 122.53C304.503 122.678 304.704 122.762 304.905 122.762H323.423V126.297H302.335C301.901 126.297 301.541 126.645 301.541 127.078V140.396C301.541 140.597 301.626 140.797 301.774 140.945C301.922 141.093 302.123 141.167 302.335 141.167H314.053V145.81H292.488C292.287 145.81 292.086 145.894 291.938 146.031C291.79 146.179 291.706 146.38 291.706 146.58V150.791C291.706 151.002 291.79 151.202 291.938 151.35C292.086 151.498 292.287 151.572 292.488 151.572H342.217C342.418 151.572 342.619 151.487 342.767 151.35C342.915 151.202 343 151.002 343 150.791V146.58C343 146.369 342.915 146.169 342.767 146.031C342.619 145.884 342.418 145.799 342.217 145.799V145.82ZM341.53 155.329H292.234C292.023 155.329 291.822 155.413 291.684 155.561C291.536 155.698 291.452 155.909 291.452 156.11V160.331C291.452 160.542 291.536 160.742 291.684 160.89C291.822 161.027 292.033 161.112 292.234 161.112H336.517V170.219C336.517 170.43 336.601 170.631 336.749 170.768C336.887 170.916 337.088 171 337.299 171H341.519C341.731 171 341.932 170.916 342.069 170.768C342.217 170.631 342.291 170.42 342.291 170.219V156.11C342.291 155.909 342.217 155.709 342.069 155.561C341.921 155.413 341.72 155.329 341.519 155.329H341.53Z" fill="white"/>
<path d="M141.8 81.62C138.92 81.62 136.73 81.02 135.23 80.21V77.12C137 77.9 139.07 78.47 141.47 78.47C144.41 78.47 145.64 77.24 145.64 75.29C145.64 73.46 144.86 72.74 142.46 72.02L140.39 71.45C137.3 70.58 135.41 68.93 135.41 65.21C135.41 61.52 137.81 59 142.73 59C145.61 59 147.17 59.54 148.4 60.17V63.26C147.02 62.66 145.22 62.15 142.82 62.15C140.51 62.15 139.22 63.11 139.22 64.88C139.22 66.59 139.88 67.34 142.04 67.94L144.08 68.57C147.53 69.56 149.6 71 149.6 74.9C149.6 79.04 147.08 81.62 141.8 81.62ZM157.502 70.1H160.772C163.712 70.1 164.852 68.87 164.852 66.32C164.852 63.44 163.712 62.39 160.832 62.39H157.502V70.1ZM153.572 81.23V59.36H161.222C166.382 59.36 168.962 61.73 168.962 66.08C168.962 70.64 166.052 73.04 161.492 73.04H157.502V81.23H153.572ZM172.586 81.23V59.36H186.266V62.45H176.516V68.45H184.076V71.51H176.516V78.14H186.446V81.23H172.586ZM199.041 81.59C192.951 81.59 189.171 78.02 189.171 70.64V69.86C189.171 61.97 193.761 59 199.431 59C201.861 59 203.601 59.42 204.921 60.14V63.2C203.241 62.54 201.741 62.18 199.731 62.18C195.921 62.18 193.401 64.25 193.401 69.44V70.55C193.401 75.56 195.171 78.41 199.761 78.41C202.251 78.41 203.841 77.78 205.161 77.21V80.24C203.661 81.05 201.651 81.59 199.041 81.59ZM209.063 81.23V59.36H213.023V81.23H209.063ZM225.729 64.01L222.669 72.74H228.879L225.819 64.01H225.729ZM216.129 81.23L224.109 59.36H228.129L235.899 81.23H231.849L229.869 75.68H221.739L219.759 81.23H216.129ZM239.031 81.23V59.36H242.961V78.14H252.201V81.23H239.031ZM273.016 81.59C266.926 81.59 263.146 78.02 263.146 70.64V69.86C263.146 61.97 267.736 59 273.406 59C275.836 59 277.576 59.42 278.896 60.14V63.2C277.216 62.54 275.716 62.18 273.706 62.18C269.896 62.18 267.376 64.25 267.376 69.44V70.55C267.376 75.56 269.146 78.41 273.736 78.41C276.226 78.41 277.816 77.78 279.136 77.21V80.24C277.636 81.05 275.626 81.59 273.016 81.59ZM291.797 78.56C295.637 78.56 297.497 75.53 297.497 71.06V69.98C297.497 65.06 295.907 62.09 291.677 62.06C287.867 62.06 286.007 65.06 286.007 69.5V70.61C286.007 75.56 287.597 78.56 291.797 78.56ZM291.677 81.59C285.767 81.59 281.837 77.9 281.837 70.64V69.95C281.837 62.9 285.887 59 291.857 59C297.707 59 301.697 62.63 301.697 69.95V70.64C301.697 77.72 297.587 81.59 291.677 81.59ZM314.17 81.62C308.62 81.62 305.56 78.98 305.56 73.58V59.36H309.55V73.34C309.55 77.33 311.17 78.65 314.32 78.65C317.44 78.65 318.91 77.36 318.91 73.34V59.36H322.45V73.46C322.45 79.04 319.75 81.62 314.17 81.62ZM331.408 70.1H334.678C337.618 70.1 338.758 68.87 338.758 66.32C338.758 63.44 337.618 62.39 334.738 62.39H331.408V70.1ZM327.478 81.23V59.36H335.128C340.288 59.36 342.868 61.73 342.868 66.08C342.868 70.64 339.958 73.04 335.398 73.04H331.408V81.23H327.478ZM355.342 78.56C359.182 78.56 361.042 75.53 361.042 71.06V69.98C361.042 65.06 359.452 62.09 355.222 62.06C351.412 62.06 349.552 65.06 349.552 69.5V70.61C349.552 75.56 351.142 78.56 355.342 78.56ZM355.222 81.59C349.312 81.59 345.382 77.9 345.382 70.64V69.95C345.382 62.9 349.432 59 355.402 59C361.252 59 365.242 62.63 365.242 69.95V70.64C365.242 77.72 361.132 81.59 355.222 81.59ZM369.285 81.23V59.36H373.695L382.785 74.81H382.875V59.36H386.355V81.23H382.455L372.855 64.73H372.765V81.23H369.285Z" fill="white"/>
<defs>
<filter id="filter0_d_62_4222" x="24" y="214" width="476" height="130" filterUnits="userSpaceOnUse" color-interpolation-filters="sRGB">
<feFlood flood-opacity="0" result="BackgroundImageFix"/>
<feColorMatrix in="SourceAlpha" type="matrix" values="0 0 0 0 0 0 0 0 0 0 0 0 0 0 0 0 0 0 127 0" result="hardAlpha"/>
<feOffset dy="16"/>
<feGaussianBlur stdDeviation="8"/>
<feComposite in2="hardAlpha" operator="out"/>
<feColorMatrix type="matrix" values="0 0 0 0 0.00355905 0 0 0 0 0.231963 0 0 0 0 0.854167 0 0 0 0.2 0"/>
<feBlend mode="normal" in2="BackgroundImageFix" result="effect1_dropShadow_62_4222"/>
<feBlend mode="normal" in="SourceGraphic" in2="effect1_dropShadow_62_4222" result="shape"/>
</filter>
<linearGradient id="paint0_linear_62_4222" x1="262" y1="0" x2="262" y2="348" gradientUnits="userSpaceOnUse">
<stop stop-color="#00A4EA"/>
<stop offset="1" stop-color="#0088EA"/>
</linearGradient>
</defs>
</svg>
