<svg width="524" height="348" viewBox="0 0 524 348" fill="none" xmlns="http://www.w3.org/2000/svg">
<rect width="524" height="348" rx="32" fill="url(#paint0_linear_62_4158)"/>
<g filter="url(#filter0_d_62_4158)">
<path d="M40 230C40 221.163 47.1634 214 56 214H468C476.837 214 484 221.163 484 230V296C484 304.837 476.837 312 468 312H56C47.1634 312 40 304.837 40 296V230Z" fill="#0D2E9B"/>
</g>
<circle cx="356" cy="263" r="24" fill="white"/>
<path d="M348 260L356 268L364 260" stroke="black" stroke-width="3"/>
<path d="M356 251V267" stroke="black" stroke-width="3"/>
<line x1="346" y1="273.5" x2="366" y2="273.5" stroke="black" stroke-width="3"/>
<path d="M148.579 250.184H168.515C168.515 254.216 168.355 259.848 167.459 264.2H172.163V266.664H160.195V278.12H157.187V266.664H145.283V264.2H164.515C164.835 262.888 165.059 260.904 165.219 258.888L148.227 259.592L147.779 257.128L165.347 256.552C165.443 255.048 165.475 253.608 165.475 252.616H148.579V250.184ZM197.409 252.104H175.585V249.672H197.409V252.104ZM196.897 277.224H176.609V269.32H179.617V274.792H196.897V277.224ZM200.001 267.208H173.121V264.744H184.993V261.48H175.617V259.016H180.321L179.457 253.608L182.465 253.16L183.137 259.016H189.857L190.593 253.128L193.633 253.576L192.609 259.016H197.377V261.48H188.001V264.744H200.001V267.208ZM231.303 248.36V259.976H235.943V262.472H231.303V278.12H228.327V248.36H231.303ZM212.583 268.328H213.831C217.735 268.328 223.207 268.04 226.215 267.368L226.567 269.832C223.463 270.472 218.343 270.824 212.935 270.856H209.607V251.496H223.655V253.96H212.583V268.328ZM259.844 277.224H239.684V268.584H242.692V274.76H259.844V277.224ZM249.604 251.816C245.284 251.816 242.468 253 242.468 255.208C242.468 257.384 245.252 258.568 249.572 258.568C253.924 258.568 256.772 257.384 256.772 255.208C256.772 253 253.956 251.816 249.604 251.816ZM251.268 271.688H248.26V265.896H236.164V263.432H263.044V265.896H251.268V271.688ZM259.844 255.176C259.844 258.824 256.004 261.032 249.604 261.032C243.172 261.032 239.396 258.824 239.396 255.176C239.396 251.56 243.172 249.352 249.604 249.352C256.004 249.352 259.844 251.56 259.844 255.176ZM290.882 274.344H264.002V271.88H275.874V267.176H267.234V257.608H284.546V253.256H267.17V250.792H287.554V260.072H270.242V264.712H288.354V267.176H278.882V271.88H290.882V274.344ZM318.719 274.088H291.839V271.624H318.719V274.088ZM315.519 265.384H295.327V251.272H315.231V253.736H298.335V262.952H315.519V265.384Z" fill="white"/>
<path d="M305.237 122.701H300.139V164.936H305.237V122.701Z" fill="white"/>
<path d="M154.645 160.377C154.645 160.377 154.02 161.754 153.136 163.031C152.25 164.308 151.656 164.978 149.861 164.978C148.066 164.978 129 164.978 129 164.978V124.634C129 123.613 129.83 122.785 130.851 122.785H134.104V160.343L154.647 160.377H154.645Z" fill="white"/>
<path d="M212.444 122.773V164.977H217.512V135.079C217.512 135.079 240.112 164.074 240.168 164.15C240.224 164.225 240.827 164.949 242.11 164.949H242.67V122.784H237.731V154.189L213.432 122.428C213.103 122.018 212.441 122.251 212.441 122.773H212.444Z" fill="white"/>
<path d="M181.839 133.121C181.839 133.121 194.371 163.115 194.65 163.783C194.928 164.451 195.635 164.936 196.366 164.936C197.098 164.936 200.066 164.936 200.066 164.936L182.387 122.583C182.185 122.095 181.493 122.095 181.293 122.583L163.611 164.936H167.311C168.043 164.936 168.749 164.451 169.028 163.783C169.306 163.115 181.839 133.121 181.839 133.121Z" fill="white"/>
<path d="M257.929 122.785H284.82C284.82 122.785 284.195 124.163 283.312 125.439C282.428 126.716 281.832 127.387 280.037 127.387C278.241 127.387 263.011 127.387 263.011 127.387V141.323H282.24V145.268H263.011V160.377C263.011 160.377 278.154 160.377 279.949 160.377C281.745 160.377 282.338 161.047 283.225 162.324C284.111 163.601 284.733 164.978 284.733 164.978H257.842V122.785H284.82" fill="white"/>
<path d="M353.521 133.355C352.798 130.434 350.927 127.62 348.524 125.645C345.578 123.226 341.887 122 337.548 122C332.19 122 327.829 124.034 324.585 128.044C321.357 132.033 319.723 137.398 319.723 143.986C319.723 150.574 321.343 156.037 324.543 159.998C327.759 163.983 332.134 166 337.545 166C342.553 166 346.639 164.398 349.686 161.239C352.728 158.082 354.273 153.994 354.273 148.691V143.212C354.273 143.212 344.782 143.212 343.026 143.212C341.27 143.212 340.665 143.905 339.751 145.159C338.867 146.371 338.248 147.199 338.248 147.199H349.208V148.691C349.208 152.566 348.17 155.526 346.037 157.74C343.955 159.9 341.175 160.95 337.545 160.95C333.687 160.95 330.724 159.603 328.487 156.831C326.031 153.789 324.787 149.468 324.787 143.986C324.787 138.504 326.045 134.284 328.527 131.214C330.792 128.411 333.744 127.05 337.548 127.05C340.724 127.05 343.262 127.867 345.305 129.545C346.175 130.257 347.303 131.812 347.466 132.022C348.122 132.85 348.839 133.358 349.819 133.358H353.521V133.355Z" fill="white"/>
<path d="M368.109 122.785H395C395 122.785 394.375 124.163 393.492 125.439C392.608 126.716 392.012 127.387 390.216 127.387C388.421 127.387 373.19 127.387 373.19 127.387V141.323H392.42V145.268H373.19V160.377C373.19 160.377 388.334 160.377 390.129 160.377C391.924 160.377 392.518 161.047 393.404 162.324C394.291 163.601 394.912 164.978 394.912 164.978H368.021V122.785H395" fill="white"/>
<path d="M141.8 81.62C138.92 81.62 136.73 81.02 135.23 80.21V77.12C137 77.9 139.07 78.47 141.47 78.47C144.41 78.47 145.64 77.24 145.64 75.29C145.64 73.46 144.86 72.74 142.46 72.02L140.39 71.45C137.3 70.58 135.41 68.93 135.41 65.21C135.41 61.52 137.81 59 142.73 59C145.61 59 147.17 59.54 148.4 60.17V63.26C147.02 62.66 145.22 62.15 142.82 62.15C140.51 62.15 139.22 63.11 139.22 64.88C139.22 66.59 139.88 67.34 142.04 67.94L144.08 68.57C147.53 69.56 149.6 71 149.6 74.9C149.6 79.04 147.08 81.62 141.8 81.62ZM157.502 70.1H160.772C163.712 70.1 164.852 68.87 164.852 66.32C164.852 63.44 163.712 62.39 160.832 62.39H157.502V70.1ZM153.572 81.23V59.36H161.222C166.382 59.36 168.962 61.73 168.962 66.08C168.962 70.64 166.052 73.04 161.492 73.04H157.502V81.23H153.572ZM172.586 81.23V59.36H186.266V62.45H176.516V68.45H184.076V71.51H176.516V78.14H186.446V81.23H172.586ZM199.041 81.59C192.951 81.59 189.171 78.02 189.171 70.64V69.86C189.171 61.97 193.761 59 199.431 59C201.861 59 203.601 59.42 204.921 60.14V63.2C203.241 62.54 201.741 62.18 199.731 62.18C195.921 62.18 193.401 64.25 193.401 69.44V70.55C193.401 75.56 195.171 78.41 199.761 78.41C202.251 78.41 203.841 77.78 205.161 77.21V80.24C203.661 81.05 201.651 81.59 199.041 81.59ZM209.063 81.23V59.36H213.023V81.23H209.063ZM225.729 64.01L222.669 72.74H228.879L225.819 64.01H225.729ZM216.129 81.23L224.109 59.36H228.129L235.899 81.23H231.849L229.869 75.68H221.739L219.759 81.23H216.129ZM239.031 81.23V59.36H242.961V78.14H252.201V81.23H239.031ZM273.016 81.59C266.926 81.59 263.146 78.02 263.146 70.64V69.86C263.146 61.97 267.736 59 273.406 59C275.836 59 277.576 59.42 278.896 60.14V63.2C277.216 62.54 275.716 62.18 273.706 62.18C269.896 62.18 267.376 64.25 267.376 69.44V70.55C267.376 75.56 269.146 78.41 273.736 78.41C276.226 78.41 277.816 77.78 279.136 77.21V80.24C277.636 81.05 275.626 81.59 273.016 81.59ZM291.797 78.56C295.637 78.56 297.497 75.53 297.497 71.06V69.98C297.497 65.06 295.907 62.09 291.677 62.06C287.867 62.06 286.007 65.06 286.007 69.5V70.61C286.007 75.56 287.597 78.56 291.797 78.56ZM291.677 81.59C285.767 81.59 281.837 77.9 281.837 70.64V69.95C281.837 62.9 285.887 59 291.857 59C297.707 59 301.697 62.63 301.697 69.95V70.64C301.697 77.72 297.587 81.59 291.677 81.59ZM314.17 81.62C308.62 81.62 305.56 78.98 305.56 73.58V59.36H309.55V73.34C309.55 77.33 311.17 78.65 314.32 78.65C317.44 78.65 318.91 77.36 318.91 73.34V59.36H322.45V73.46C322.45 79.04 319.75 81.62 314.17 81.62ZM331.408 70.1H334.678C337.618 70.1 338.758 68.87 338.758 66.32C338.758 63.44 337.618 62.39 334.738 62.39H331.408V70.1ZM327.478 81.23V59.36H335.128C340.288 59.36 342.868 61.73 342.868 66.08C342.868 70.64 339.958 73.04 335.398 73.04H331.408V81.23H327.478ZM355.342 78.56C359.182 78.56 361.042 75.53 361.042 71.06V69.98C361.042 65.06 359.452 62.09 355.222 62.06C351.412 62.06 349.552 65.06 349.552 69.5V70.61C349.552 75.56 351.142 78.56 355.342 78.56ZM355.222 81.59C349.312 81.59 345.382 77.9 345.382 70.64V69.95C345.382 62.9 349.432 59 355.402 59C361.252 59 365.242 62.63 365.242 69.95V70.64C365.242 77.72 361.132 81.59 355.222 81.59ZM369.285 81.23V59.36H373.695L382.785 74.81H382.875V59.36H386.355V81.23H382.455L372.855 64.73H372.765V81.23H369.285Z" fill="white"/>
<defs>
<filter id="filter0_d_62_4158" x="24" y="214" width="476" height="130" filterUnits="userSpaceOnUse" color-interpolation-filters="sRGB">
<feFlood flood-opacity="0" result="BackgroundImageFix"/>
<feColorMatrix in="SourceAlpha" type="matrix" values="0 0 0 0 0 0 0 0 0 0 0 0 0 0 0 0 0 0 127 0" result="hardAlpha"/>
<feOffset dy="16"/>
<feGaussianBlur stdDeviation="8"/>
<feComposite in2="hardAlpha" operator="out"/>
<feColorMatrix type="matrix" values="0 0 0 0 0.00355905 0 0 0 0 0.231963 0 0 0 0 0.854167 0 0 0 0.2 0"/>
<feBlend mode="normal" in2="BackgroundImageFix" result="effect1_dropShadow_62_4158"/>
<feBlend mode="normal" in="SourceGraphic" in2="effect1_dropShadow_62_4158" result="shape"/>
</filter>
<linearGradient id="paint0_linear_62_4158" x1="262" y1="0" x2="262" y2="348" gradientUnits="userSpaceOnUse">
<stop stop-color="#00A4EA"/>
<stop offset="1" stop-color="#0088EA"/>
</linearGradient>
</defs>
</svg>
