<svg width="524" height="348" viewBox="0 0 524 348" fill="none" xmlns="http://www.w3.org/2000/svg">
<rect width="524" height="348" rx="32" fill="url(#paint0_linear_62_4279)"/>
<g filter="url(#filter0_d_62_4279)">
<path d="M40 230C40 221.163 47.1634 214 56 214H468C476.837 214 484 221.163 484 230V296C484 304.837 476.837 312 468 312H56C47.1634 312 40 304.837 40 296V230Z" fill="#0D2E9B"/>
</g>
<circle cx="356" cy="263" r="24" fill="white"/>
<path d="M348 260L356 268L364 260" stroke="black" stroke-width="3"/>
<path d="M356 251V267" stroke="black" stroke-width="3"/>
<line x1="346" y1="273.5" x2="366" y2="273.5" stroke="black" stroke-width="3"/>
<path d="M148.579 250.184H168.515C168.515 254.216 168.355 259.848 167.459 264.2H172.163V266.664H160.195V278.12H157.187V266.664H145.283V264.2H164.515C164.835 262.888 165.059 260.904 165.219 258.888L148.227 259.592L147.779 257.128L165.347 256.552C165.443 255.048 165.475 253.608 165.475 252.616H148.579V250.184ZM197.409 252.104H175.585V249.672H197.409V252.104ZM196.897 277.224H176.609V269.32H179.617V274.792H196.897V277.224ZM200.001 267.208H173.121V264.744H184.993V261.48H175.617V259.016H180.321L179.457 253.608L182.465 253.16L183.137 259.016H189.857L190.593 253.128L193.633 253.576L192.609 259.016H197.377V261.48H188.001V264.744H200.001V267.208ZM231.303 248.36V259.976H235.943V262.472H231.303V278.12H228.327V248.36H231.303ZM212.583 268.328H213.831C217.735 268.328 223.207 268.04 226.215 267.368L226.567 269.832C223.463 270.472 218.343 270.824 212.935 270.856H209.607V251.496H223.655V253.96H212.583V268.328ZM259.844 277.224H239.684V268.584H242.692V274.76H259.844V277.224ZM249.604 251.816C245.284 251.816 242.468 253 242.468 255.208C242.468 257.384 245.252 258.568 249.572 258.568C253.924 258.568 256.772 257.384 256.772 255.208C256.772 253 253.956 251.816 249.604 251.816ZM251.268 271.688H248.26V265.896H236.164V263.432H263.044V265.896H251.268V271.688ZM259.844 255.176C259.844 258.824 256.004 261.032 249.604 261.032C243.172 261.032 239.396 258.824 239.396 255.176C239.396 251.56 243.172 249.352 249.604 249.352C256.004 249.352 259.844 251.56 259.844 255.176ZM290.882 274.344H264.002V271.88H275.874V267.176H267.234V257.608H284.546V253.256H267.17V250.792H287.554V260.072H270.242V264.712H288.354V267.176H278.882V271.88H290.882V274.344ZM318.719 274.088H291.839V271.624H318.719V274.088ZM315.519 265.384H295.327V251.272H315.231V253.736H298.335V262.952H315.519V265.384Z" fill="white"/>
<path d="M328.013 121.823L327.397 120.354L326.782 121.823L307.891 165.567L307.699 166.003H313.247L318.491 153.83C318.663 153.415 319.066 153.162 319.51 153.162H335.255C335.708 153.162 336.112 153.435 336.273 153.851L341.256 166.013H347.166L328.013 121.823ZM327.508 133.033C333.389 146.949 333.55 147.354 333.197 147.901C332.985 148.205 332.642 148.398 332.269 148.398H322.294C321.931 148.398 321.588 148.205 321.376 147.901C321.174 147.597 321.134 147.212 321.295 146.867L327.115 133.023L327.317 132.577L327.508 133.023V133.033Z" fill="white"/>
<path d="M74.6805 121.863L63.969 147.739L52.9046 121.863H43L64.1002 167.999L84.2623 121.863H74.6805Z" fill="white"/>
<path d="M102.73 121.873H93.4609V166.185H102.73V121.873Z" fill="white"/>
<path d="M111.324 121.863V130.336H123.77V166.185H133.06V130.336H145.516V121.863H111.324Z" fill="white"/>
<path d="M440.029 121.873H434.766V165.982H440.029V121.873Z" fill="white"/>
<path d="M256.949 142.397C256.545 142.286 256.243 141.931 256.213 141.515C256.172 141.1 256.394 140.694 256.767 140.512C259.067 139.377 261.548 137.086 261.548 132.667C261.548 125.907 256.848 121.873 248.981 121.873H233.539V165.982H250.211C259.37 165.982 264.836 161.168 264.836 153.09C264.836 147.769 262.133 143.867 256.949 142.387M248.567 139.985H239.742C239.187 139.985 238.723 139.519 238.723 138.961V127.103C238.723 126.535 239.177 126.079 239.742 126.079H248.567C253.731 126.079 256.354 128.36 256.354 132.87C256.354 137.603 253.731 140.005 248.567 140.005M238.723 144.83C238.723 144.262 239.177 143.806 239.742 143.806H249.445C255.789 143.806 259.43 147.1 259.43 152.836C259.43 158.573 256.092 161.796 249.788 161.796H239.742C239.187 161.796 238.723 161.35 238.723 160.782V144.84V144.83Z" fill="white"/>
<path d="M280.274 161.583C279.699 161.583 279.245 161.117 279.245 160.56V147.292C279.245 146.735 279.699 146.279 280.274 146.279H297.35V142.002H280.274C279.699 142.002 279.245 141.536 279.245 140.978V127.295C279.245 126.738 279.699 126.282 280.274 126.282H299.872V121.873H273.98V165.982H300.82V161.583H280.264H280.274Z" fill="white"/>
<path d="M460.434 161.584C459.87 161.584 459.406 161.117 459.406 160.56V147.293C459.406 146.735 459.859 146.269 460.434 146.269H477.51V142.002H460.434C459.87 142.002 459.406 141.536 459.406 140.968V127.296C459.406 126.738 459.859 126.282 460.434 126.282H480.032V121.863H454.141V165.982H481V161.584H460.434Z" fill="white"/>
<path d="M381.359 121.863V150.303C381.359 157.986 377.415 162.05 369.962 162.05C362.508 162.05 358.484 157.986 358.484 150.303V121.863H353.219V150.708C353.219 160.651 359.482 166.59 369.962 166.59C380.441 166.59 386.644 160.651 386.644 150.708V121.863H381.369H381.359Z" fill="white"/>
<path d="M394.107 121.863V126.272H406.887C407.451 126.272 407.905 126.738 407.905 127.296V165.982H413.17V127.296C413.17 126.738 413.634 126.272 414.189 126.272H426.978V121.863H394.107Z" fill="white"/>
<path d="M202.844 157.712V121.863H193.555V166.185H216.057L224.741 157.681L202.844 157.712Z" fill="white"/>
<path d="M166.739 120L146.062 166.187H155.644L166.608 140.19L177.42 166.187H187.325L166.739 120Z" fill="white"/>
<path d="M141.8 81.62C138.92 81.62 136.73 81.02 135.23 80.21V77.12C137 77.9 139.07 78.47 141.47 78.47C144.41 78.47 145.64 77.24 145.64 75.29C145.64 73.46 144.86 72.74 142.46 72.02L140.39 71.45C137.3 70.58 135.41 68.93 135.41 65.21C135.41 61.52 137.81 59 142.73 59C145.61 59 147.17 59.54 148.4 60.17V63.26C147.02 62.66 145.22 62.15 142.82 62.15C140.51 62.15 139.22 63.11 139.22 64.88C139.22 66.59 139.88 67.34 142.04 67.94L144.08 68.57C147.53 69.56 149.6 71 149.6 74.9C149.6 79.04 147.08 81.62 141.8 81.62ZM157.502 70.1H160.772C163.712 70.1 164.852 68.87 164.852 66.32C164.852 63.44 163.712 62.39 160.832 62.39H157.502V70.1ZM153.572 81.23V59.36H161.222C166.382 59.36 168.962 61.73 168.962 66.08C168.962 70.64 166.052 73.04 161.492 73.04H157.502V81.23H153.572ZM172.586 81.23V59.36H186.266V62.45H176.516V68.45H184.076V71.51H176.516V78.14H186.446V81.23H172.586ZM199.041 81.59C192.951 81.59 189.171 78.02 189.171 70.64V69.86C189.171 61.97 193.761 59 199.431 59C201.861 59 203.601 59.42 204.921 60.14V63.2C203.241 62.54 201.741 62.18 199.731 62.18C195.921 62.18 193.401 64.25 193.401 69.44V70.55C193.401 75.56 195.171 78.41 199.761 78.41C202.251 78.41 203.841 77.78 205.161 77.21V80.24C203.661 81.05 201.651 81.59 199.041 81.59ZM209.063 81.23V59.36H213.023V81.23H209.063ZM225.729 64.01L222.669 72.74H228.879L225.819 64.01H225.729ZM216.129 81.23L224.109 59.36H228.129L235.899 81.23H231.849L229.869 75.68H221.739L219.759 81.23H216.129ZM239.031 81.23V59.36H242.961V78.14H252.201V81.23H239.031ZM273.016 81.59C266.926 81.59 263.146 78.02 263.146 70.64V69.86C263.146 61.97 267.736 59 273.406 59C275.836 59 277.576 59.42 278.896 60.14V63.2C277.216 62.54 275.716 62.18 273.706 62.18C269.896 62.18 267.376 64.25 267.376 69.44V70.55C267.376 75.56 269.146 78.41 273.736 78.41C276.226 78.41 277.816 77.78 279.136 77.21V80.24C277.636 81.05 275.626 81.59 273.016 81.59ZM291.797 78.56C295.637 78.56 297.497 75.53 297.497 71.06V69.98C297.497 65.06 295.907 62.09 291.677 62.06C287.867 62.06 286.007 65.06 286.007 69.5V70.61C286.007 75.56 287.597 78.56 291.797 78.56ZM291.677 81.59C285.767 81.59 281.837 77.9 281.837 70.64V69.95C281.837 62.9 285.887 59 291.857 59C297.707 59 301.697 62.63 301.697 69.95V70.64C301.697 77.72 297.587 81.59 291.677 81.59ZM314.17 81.62C308.62 81.62 305.56 78.98 305.56 73.58V59.36H309.55V73.34C309.55 77.33 311.17 78.65 314.32 78.65C317.44 78.65 318.91 77.36 318.91 73.34V59.36H322.45V73.46C322.45 79.04 319.75 81.62 314.17 81.62ZM331.408 70.1H334.678C337.618 70.1 338.758 68.87 338.758 66.32C338.758 63.44 337.618 62.39 334.738 62.39H331.408V70.1ZM327.478 81.23V59.36H335.128C340.288 59.36 342.868 61.73 342.868 66.08C342.868 70.64 339.958 73.04 335.398 73.04H331.408V81.23H327.478ZM355.342 78.56C359.182 78.56 361.042 75.53 361.042 71.06V69.98C361.042 65.06 359.452 62.09 355.222 62.06C351.412 62.06 349.552 65.06 349.552 69.5V70.61C349.552 75.56 351.142 78.56 355.342 78.56ZM355.222 81.59C349.312 81.59 345.382 77.9 345.382 70.64V69.95C345.382 62.9 349.432 59 355.402 59C361.252 59 365.242 62.63 365.242 69.95V70.64C365.242 77.72 361.132 81.59 355.222 81.59ZM369.285 81.23V59.36H373.695L382.785 74.81H382.875V59.36H386.355V81.23H382.455L372.855 64.73H372.765V81.23H369.285Z" fill="white"/>
<defs>
<filter id="filter0_d_62_4279" x="24" y="214" width="476" height="130" filterUnits="userSpaceOnUse" color-interpolation-filters="sRGB">
<feFlood flood-opacity="0" result="BackgroundImageFix"/>
<feColorMatrix in="SourceAlpha" type="matrix" values="0 0 0 0 0 0 0 0 0 0 0 0 0 0 0 0 0 0 127 0" result="hardAlpha"/>
<feOffset dy="16"/>
<feGaussianBlur stdDeviation="8"/>
<feComposite in2="hardAlpha" operator="out"/>
<feColorMatrix type="matrix" values="0 0 0 0 0.00355905 0 0 0 0 0.231963 0 0 0 0 0.854167 0 0 0 0.2 0"/>
<feBlend mode="normal" in2="BackgroundImageFix" result="effect1_dropShadow_62_4279"/>
<feBlend mode="normal" in="SourceGraphic" in2="effect1_dropShadow_62_4279" result="shape"/>
</filter>
<linearGradient id="paint0_linear_62_4279" x1="262" y1="0" x2="262" y2="348" gradientUnits="userSpaceOnUse">
<stop stop-color="#00A4EA"/>
<stop offset="1" stop-color="#0088EA"/>
</linearGradient>
</defs>
</svg>
