<svg width="524" height="348" viewBox="0 0 524 348" fill="none" xmlns="http://www.w3.org/2000/svg">
<rect width="524" height="348" rx="32" fill="url(#paint0_linear_62_4200)"/>
<g filter="url(#filter0_d_62_4200)">
<path d="M40 230C40 221.163 47.1634 214 56 214H468C476.837 214 484 221.163 484 230V296C484 304.837 476.837 312 468 312H56C47.1634 312 40 304.837 40 296V230Z" fill="#0D2E9B"/>
</g>
<circle cx="356" cy="263" r="24" fill="white"/>
<path d="M348 260L356 268L364 260" stroke="black" stroke-width="3"/>
<path d="M356 251V267" stroke="black" stroke-width="3"/>
<line x1="346" y1="273.5" x2="366" y2="273.5" stroke="black" stroke-width="3"/>
<path d="M148.579 250.184H168.515C168.515 254.216 168.355 259.848 167.459 264.2H172.163V266.664H160.195V278.12H157.187V266.664H145.283V264.2H164.515C164.835 262.888 165.059 260.904 165.219 258.888L148.227 259.592L147.779 257.128L165.347 256.552C165.443 255.048 165.475 253.608 165.475 252.616H148.579V250.184ZM197.409 252.104H175.585V249.672H197.409V252.104ZM196.897 277.224H176.609V269.32H179.617V274.792H196.897V277.224ZM200.001 267.208H173.121V264.744H184.993V261.48H175.617V259.016H180.321L179.457 253.608L182.465 253.16L183.137 259.016H189.857L190.593 253.128L193.633 253.576L192.609 259.016H197.377V261.48H188.001V264.744H200.001V267.208ZM231.303 248.36V259.976H235.943V262.472H231.303V278.12H228.327V248.36H231.303ZM212.583 268.328H213.831C217.735 268.328 223.207 268.04 226.215 267.368L226.567 269.832C223.463 270.472 218.343 270.824 212.935 270.856H209.607V251.496H223.655V253.96H212.583V268.328ZM259.844 277.224H239.684V268.584H242.692V274.76H259.844V277.224ZM249.604 251.816C245.284 251.816 242.468 253 242.468 255.208C242.468 257.384 245.252 258.568 249.572 258.568C253.924 258.568 256.772 257.384 256.772 255.208C256.772 253 253.956 251.816 249.604 251.816ZM251.268 271.688H248.26V265.896H236.164V263.432H263.044V265.896H251.268V271.688ZM259.844 255.176C259.844 258.824 256.004 261.032 249.604 261.032C243.172 261.032 239.396 258.824 239.396 255.176C239.396 251.56 243.172 249.352 249.604 249.352C256.004 249.352 259.844 251.56 259.844 255.176ZM290.882 274.344H264.002V271.88H275.874V267.176H267.234V257.608H284.546V253.256H267.17V250.792H287.554V260.072H270.242V264.712H288.354V267.176H278.882V271.88H290.882V274.344ZM318.719 274.088H291.839V271.624H318.719V274.088ZM315.519 265.384H295.327V251.272H315.231V253.736H298.335V262.952H315.519V265.384Z" fill="white"/>
<path d="M275.324 166.764C272.996 165.307 271.22 163.337 269.974 160.834C268.729 158.352 268.096 154.577 268.096 151.458C268.096 148.339 268.729 144.585 269.974 142.082C271.22 139.599 273.017 137.609 275.324 136.152C277.651 134.696 280.388 133.957 283.573 133.957C286.758 133.957 289.494 134.696 291.842 136.152C294.19 137.609 295.987 139.579 297.233 142.082C298.478 144.564 299.111 148.36 299.111 151.458C299.111 154.556 298.478 158.331 297.233 160.834C295.987 163.337 294.19 165.307 291.842 166.764C289.494 168.22 286.738 168.959 283.573 168.959C280.408 168.959 277.651 168.22 275.324 166.764ZM289.657 161.758C291.025 159.213 291.699 155.459 291.699 151.479C291.699 147.498 291.025 143.723 289.657 141.2C288.289 138.655 285.941 137.383 283.573 137.383C281.204 137.383 278.856 138.655 277.529 141.2C276.181 143.744 275.528 147.498 275.528 151.479C275.528 155.459 276.202 159.234 277.529 161.758C278.877 164.302 281.225 165.553 283.573 165.553C285.921 165.553 288.289 164.281 289.657 161.758Z" fill="white"/>
<path d="M332.044 136.87C329.921 134.962 326.939 133.998 323.101 133.998C319.262 133.998 315.546 135.085 313.096 137.219C312.647 136.316 312.136 134.655 307.95 134.655H303.785V136.522C304.949 136.727 305.745 137.24 306.215 138.06C306.848 139.168 307.154 140.851 307.154 143.149V168.282H314.239V140.153C316.016 138.532 318.568 137.732 320.896 137.732C322.917 137.732 325.02 138.471 326.286 139.927C327.532 141.384 328.165 143.662 328.165 146.76V168.302H335.25V146.267C335.25 141.918 334.188 138.779 332.064 136.87" fill="white"/>
<path d="M223.4 137.178C222.277 135.598 220.46 134.675 217.887 134.675H213.6V136.542C214.763 136.747 215.56 137.26 216.029 138.081C216.662 139.189 216.969 140.871 216.969 143.169V168.302H224.054V140.502C225.83 139.066 228.301 137.753 230.098 137.753C233.671 137.753 235.958 140.769 235.958 146.78V168.323H242.553V146.78C242.553 144.626 242.614 142.923 242.308 141.056C243.104 139.866 245.595 137.753 248.617 137.753C252.19 137.753 254.457 140.769 254.457 146.78V168.323H261.542V146.288C261.542 138.266 258.275 134.039 250.822 134.039C246.759 134.039 243.492 135.434 241.042 138.204C240.266 136.829 237.857 134.039 232.323 134.039C228.403 134.039 225.401 135.762 223.4 137.219" fill="white"/>
<path d="M384.479 166.805C382.233 165.368 380.539 163.399 379.355 160.916C378.17 158.413 377.578 154.618 377.578 151.479C377.578 148.155 378.17 144.257 379.395 141.774C380.6 139.291 382.274 137.363 384.418 136.009C386.562 134.655 389.012 133.998 391.789 133.998C396.118 133.998 399.569 135.25 402.141 137.773C404.714 140.297 406 144.687 406 148.996C406 151.294 405.796 152.627 405.796 152.627H384.582C384.582 156.669 385.786 160.239 387.216 162.373C388.645 164.507 390.973 165.574 393.606 165.574C398.67 165.574 401.835 162.353 403.121 160.547L404.857 161.901C403.55 164.096 401.917 165.84 399.936 167.092C397.956 168.343 395.465 168.979 392.463 168.979C389.462 168.979 386.725 168.261 384.5 166.825M399.507 149.263C399.507 145.139 398.976 142.123 397.935 140.235C396.894 138.348 394.852 136.911 392.3 136.911C389.747 136.911 387.501 138.409 386.338 140.399C385.174 142.389 384.602 145.344 384.602 149.242H399.528L399.507 149.263Z" fill="white"/>
<path d="M363.591 127.494C363.591 125.381 363.285 123.514 362.652 122.406C362.182 121.585 361.366 121.072 360.222 120.867V119H364.714C366.409 119 367.552 119.246 368.41 119.739C369.267 120.231 369.86 121.072 370.227 122.262C370.574 123.452 370.758 125.647 370.758 128.479V168.282H366.001L364.143 165.245H363.816C362.591 166.579 360.059 168.959 355.077 168.959C350.809 168.959 347.563 167.42 345.256 164.301C342.948 161.203 341.805 156.279 341.805 151.478C341.805 146.677 342.969 141.876 345.317 138.799C347.665 135.721 351.075 134.183 355.546 134.183C358.18 134.183 361.202 134.757 363.612 136.111V127.494H363.591ZM363.591 139.681C361.304 138.327 358.834 137.65 357.139 137.65C354.546 137.65 352.177 138.881 351.014 141.322C349.85 143.764 349.278 147.293 349.278 151.478C349.278 155.664 349.829 159.398 350.952 161.86C352.075 164.322 354.301 165.204 356.669 165.204C359.875 165.204 362.182 163.029 363.591 161.142V139.681Z" fill="white"/>
<path d="M159.327 122.241L144.34 156.669C144.34 156.669 130.251 125.36 129.945 124.724C129.639 124.088 128.618 122.221 124.289 122.221H117V123.985C117 123.985 118.858 124.539 119.491 125.647C120.124 126.755 120.43 128.13 120.43 130.448V168.425H125.494V130.469L142.359 168.445H144.667L160.777 131.412V168.445H167.474V122.241H159.307H159.327Z" fill="white"/>
<path d="M208.209 166.148C206.229 165.471 205.779 162.763 205.779 159.788V134.306H204.003C202.247 134.306 200.226 135.003 199.082 136.337C196.101 134.408 192.977 133.998 190.568 133.998C187.403 133.998 184.646 134.737 182.319 136.193C179.991 137.65 178.215 139.62 176.949 142.123C175.703 144.605 175.07 148.401 175.07 151.499C175.07 154.597 175.703 158.372 176.949 160.875C178.194 163.378 179.991 165.348 182.319 166.805C184.646 168.261 187.342 169 190.568 169C194.57 169 197.857 167.831 200.511 165.594C201.982 167.215 203.962 168.323 205.596 168.323H208.209V166.189V166.148ZM197.142 161.758C195.774 164.302 192.936 165.553 190.568 165.553C188.199 165.553 185.361 164.281 184.014 161.758C182.666 159.213 182.013 155.459 182.013 151.479C182.013 147.498 182.686 143.723 184.014 141.2C185.361 138.655 188.199 137.383 190.568 137.383C192.936 137.383 195.774 138.655 197.142 141.2C198.51 143.744 199.184 147.498 199.184 151.479C199.184 155.459 198.51 159.234 197.142 161.758Z" fill="white"/>
<path d="M141.8 81.62C138.92 81.62 136.73 81.02 135.23 80.21V77.12C137 77.9 139.07 78.47 141.47 78.47C144.41 78.47 145.64 77.24 145.64 75.29C145.64 73.46 144.86 72.74 142.46 72.02L140.39 71.45C137.3 70.58 135.41 68.93 135.41 65.21C135.41 61.52 137.81 59 142.73 59C145.61 59 147.17 59.54 148.4 60.17V63.26C147.02 62.66 145.22 62.15 142.82 62.15C140.51 62.15 139.22 63.11 139.22 64.88C139.22 66.59 139.88 67.34 142.04 67.94L144.08 68.57C147.53 69.56 149.6 71 149.6 74.9C149.6 79.04 147.08 81.62 141.8 81.62ZM157.502 70.1H160.772C163.712 70.1 164.852 68.87 164.852 66.32C164.852 63.44 163.712 62.39 160.832 62.39H157.502V70.1ZM153.572 81.23V59.36H161.222C166.382 59.36 168.962 61.73 168.962 66.08C168.962 70.64 166.052 73.04 161.492 73.04H157.502V81.23H153.572ZM172.586 81.23V59.36H186.266V62.45H176.516V68.45H184.076V71.51H176.516V78.14H186.446V81.23H172.586ZM199.041 81.59C192.951 81.59 189.171 78.02 189.171 70.64V69.86C189.171 61.97 193.761 59 199.431 59C201.861 59 203.601 59.42 204.921 60.14V63.2C203.241 62.54 201.741 62.18 199.731 62.18C195.921 62.18 193.401 64.25 193.401 69.44V70.55C193.401 75.56 195.171 78.41 199.761 78.41C202.251 78.41 203.841 77.78 205.161 77.21V80.24C203.661 81.05 201.651 81.59 199.041 81.59ZM209.063 81.23V59.36H213.023V81.23H209.063ZM225.729 64.01L222.669 72.74H228.879L225.819 64.01H225.729ZM216.129 81.23L224.109 59.36H228.129L235.899 81.23H231.849L229.869 75.68H221.739L219.759 81.23H216.129ZM239.031 81.23V59.36H242.961V78.14H252.201V81.23H239.031ZM273.016 81.59C266.926 81.59 263.146 78.02 263.146 70.64V69.86C263.146 61.97 267.736 59 273.406 59C275.836 59 277.576 59.42 278.896 60.14V63.2C277.216 62.54 275.716 62.18 273.706 62.18C269.896 62.18 267.376 64.25 267.376 69.44V70.55C267.376 75.56 269.146 78.41 273.736 78.41C276.226 78.41 277.816 77.78 279.136 77.21V80.24C277.636 81.05 275.626 81.59 273.016 81.59ZM291.797 78.56C295.637 78.56 297.497 75.53 297.497 71.06V69.98C297.497 65.06 295.907 62.09 291.677 62.06C287.867 62.06 286.007 65.06 286.007 69.5V70.61C286.007 75.56 287.597 78.56 291.797 78.56ZM291.677 81.59C285.767 81.59 281.837 77.9 281.837 70.64V69.95C281.837 62.9 285.887 59 291.857 59C297.707 59 301.697 62.63 301.697 69.95V70.64C301.697 77.72 297.587 81.59 291.677 81.59ZM314.17 81.62C308.62 81.62 305.56 78.98 305.56 73.58V59.36H309.55V73.34C309.55 77.33 311.17 78.65 314.32 78.65C317.44 78.65 318.91 77.36 318.91 73.34V59.36H322.45V73.46C322.45 79.04 319.75 81.62 314.17 81.62ZM331.408 70.1H334.678C337.618 70.1 338.758 68.87 338.758 66.32C338.758 63.44 337.618 62.39 334.738 62.39H331.408V70.1ZM327.478 81.23V59.36H335.128C340.288 59.36 342.868 61.73 342.868 66.08C342.868 70.64 339.958 73.04 335.398 73.04H331.408V81.23H327.478ZM355.342 78.56C359.182 78.56 361.042 75.53 361.042 71.06V69.98C361.042 65.06 359.452 62.09 355.222 62.06C351.412 62.06 349.552 65.06 349.552 69.5V70.61C349.552 75.56 351.142 78.56 355.342 78.56ZM355.222 81.59C349.312 81.59 345.382 77.9 345.382 70.64V69.95C345.382 62.9 349.432 59 355.402 59C361.252 59 365.242 62.63 365.242 69.95V70.64C365.242 77.72 361.132 81.59 355.222 81.59ZM369.285 81.23V59.36H373.695L382.785 74.81H382.875V59.36H386.355V81.23H382.455L372.855 64.73H372.765V81.23H369.285Z" fill="white"/>
<defs>
<filter id="filter0_d_62_4200" x="24" y="214" width="476" height="130" filterUnits="userSpaceOnUse" color-interpolation-filters="sRGB">
<feFlood flood-opacity="0" result="BackgroundImageFix"/>
<feColorMatrix in="SourceAlpha" type="matrix" values="0 0 0 0 0 0 0 0 0 0 0 0 0 0 0 0 0 0 127 0" result="hardAlpha"/>
<feOffset dy="16"/>
<feGaussianBlur stdDeviation="8"/>
<feComposite in2="hardAlpha" operator="out"/>
<feColorMatrix type="matrix" values="0 0 0 0 0.00355905 0 0 0 0 0.231963 0 0 0 0 0.854167 0 0 0 0.2 0"/>
<feBlend mode="normal" in2="BackgroundImageFix" result="effect1_dropShadow_62_4200"/>
<feBlend mode="normal" in="SourceGraphic" in2="effect1_dropShadow_62_4200" result="shape"/>
</filter>
<linearGradient id="paint0_linear_62_4200" x1="262" y1="0" x2="262" y2="348" gradientUnits="userSpaceOnUse">
<stop stop-color="#00A4EA"/>
<stop offset="1" stop-color="#0088EA"/>
</linearGradient>
</defs>
</svg>
