<svg width="524" height="348" viewBox="0 0 524 348" fill="none" xmlns="http://www.w3.org/2000/svg">
<rect width="524" height="348" rx="32" fill="url(#paint0_linear_62_4237)"/>
<g filter="url(#filter0_d_62_4237)">
<path d="M40 230C40 221.163 47.1634 214 56 214H468C476.837 214 484 221.163 484 230V296C484 304.837 476.837 312 468 312H56C47.1634 312 40 304.837 40 296V230Z" fill="#0D2E9B"/>
</g>
<circle cx="356" cy="263" r="24" fill="white"/>
<path d="M348 260L356 268L364 260" stroke="black" stroke-width="3"/>
<path d="M356 251V267" stroke="black" stroke-width="3"/>
<line x1="346" y1="273.5" x2="366" y2="273.5" stroke="black" stroke-width="3"/>
<path d="M148.579 250.184H168.515C168.515 254.216 168.355 259.848 167.459 264.2H172.163V266.664H160.195V278.12H157.187V266.664H145.283V264.2H164.515C164.835 262.888 165.059 260.904 165.219 258.888L148.227 259.592L147.779 257.128L165.347 256.552C165.443 255.048 165.475 253.608 165.475 252.616H148.579V250.184ZM197.409 252.104H175.585V249.672H197.409V252.104ZM196.897 277.224H176.609V269.32H179.617V274.792H196.897V277.224ZM200.001 267.208H173.121V264.744H184.993V261.48H175.617V259.016H180.321L179.457 253.608L182.465 253.16L183.137 259.016H189.857L190.593 253.128L193.633 253.576L192.609 259.016H197.377V261.48H188.001V264.744H200.001V267.208ZM231.303 248.36V259.976H235.943V262.472H231.303V278.12H228.327V248.36H231.303ZM212.583 268.328H213.831C217.735 268.328 223.207 268.04 226.215 267.368L226.567 269.832C223.463 270.472 218.343 270.824 212.935 270.856H209.607V251.496H223.655V253.96H212.583V268.328ZM259.844 277.224H239.684V268.584H242.692V274.76H259.844V277.224ZM249.604 251.816C245.284 251.816 242.468 253 242.468 255.208C242.468 257.384 245.252 258.568 249.572 258.568C253.924 258.568 256.772 257.384 256.772 255.208C256.772 253 253.956 251.816 249.604 251.816ZM251.268 271.688H248.26V265.896H236.164V263.432H263.044V265.896H251.268V271.688ZM259.844 255.176C259.844 258.824 256.004 261.032 249.604 261.032C243.172 261.032 239.396 258.824 239.396 255.176C239.396 251.56 243.172 249.352 249.604 249.352C256.004 249.352 259.844 251.56 259.844 255.176ZM290.882 274.344H264.002V271.88H275.874V267.176H267.234V257.608H284.546V253.256H267.17V250.792H287.554V260.072H270.242V264.712H288.354V267.176H278.882V271.88H290.882V274.344ZM318.719 274.088H291.839V271.624H318.719V274.088ZM315.519 265.384H295.327V251.272H315.231V253.736H298.335V262.952H315.519V265.384Z" fill="white"/>
<path d="M388.248 135.65L388.373 156.548L371.931 135.65H365.723V168.249H372.465L372.34 147.397L372.795 147.968L388.836 168.249H394.999V135.65H388.248Z" fill="white"/>
<path d="M343.911 134.903C337.453 134.903 332.056 138.149 329.108 143.188C321.092 155.541 307.607 163.649 296.767 164.38C293.98 164.567 291.201 163.827 290.096 161.214C302.477 155.256 313.975 147.086 314.349 141.262C314.581 137.694 311.731 135.357 306.654 135.357C298.469 135.357 287.451 142.172 282.855 150.297C281.947 151.911 281.261 153.57 280.896 155.265C280.896 155.265 280.352 157.494 280.673 159.51C280.735 160.099 280.851 160.661 280.985 161.205C280.985 161.205 277.565 162.819 273.922 163.711C270.591 164.54 268.266 164.46 267.687 163.675C267.01 162.757 267.767 161.865 268.186 160.518C268.863 158.351 270.314 152.036 262.619 151.358C274.563 150.19 284.396 143.108 285.616 135.366L276.647 135.402C275.658 143.715 264.997 148.95 257.979 148.807C260.757 144.348 263.608 139.79 276.522 119H267.242L251.316 144.883C246.32 153.731 234.18 164.46 230.617 164.46C229.415 164.46 228.862 163.907 228.862 162.703C228.862 158.716 233.734 152.161 238.206 145.525C240.414 142.234 242.329 139.398 243.345 137.436L244.529 135.357H235.195L232.122 140.388C230.564 136.999 228.275 135.536 224.578 135.536C217.016 135.536 209.526 140.316 203.826 148.62C201.136 152.535 193.093 164.621 188.283 165.058C187.01 165.174 186.003 164.924 185.772 163.702C185.237 160.928 188.248 158.012 191.062 154.31C194.295 150.065 197.644 145.677 197.644 141.521C197.644 138.577 195.248 135.536 191.24 135.536C185.585 135.536 181.594 137.48 175.849 143.135C176.045 142.359 176.152 141.654 176.152 141.003C176.152 137.685 173.329 135.527 169.65 135.527C166.738 135.527 163.407 135.803 158.268 139.237C157.965 139.433 157.662 139.648 157.35 139.87L154.411 141.842L158.918 135.349H133.142L132.055 138.256H147.891C142.529 147.461 135.146 159.118 129.65 167.956L129 169H138.316L138.86 167.983C145.477 156.174 160.646 139.264 166.524 139.264C168.074 139.264 168.145 140.539 168.145 141.628C168.145 144.642 164.351 150.172 158.927 158.377C157.101 161.133 154.553 164.933 152.639 167.956L151.953 168.991H161.661L162.267 167.992C166.346 160.625 180.659 139.264 187.704 139.264C188.666 139.264 189.628 139.915 189.628 141.369C189.628 143.135 187.785 145.204 185.317 148.424C181.906 152.874 178.308 158.44 178.308 162.703C178.308 166.494 180.917 168.938 184.961 168.938C189.646 168.938 192.665 167.288 200.174 159.216C199.755 163.167 201.599 166.315 203.817 167.76C204.992 168.518 206.426 168.938 208.083 168.938C212.296 168.938 216.74 166.69 220.686 162.569C220.642 162.962 220.624 163.363 220.624 163.72C220.624 166.797 223.118 168.938 226.689 168.938C231.73 168.938 236.406 166.77 242.133 161.08L237.012 168.991H245.839L246.863 167.118C248.146 164.71 250.568 160.67 255.155 153.294C262.414 153.276 259.217 160.759 259.217 163.292C259.217 166.77 261.408 168.938 264.935 168.938C269.255 168.938 275.65 167.225 282.41 164.558C282.41 164.558 282.463 164.639 282.561 164.781C283.122 165.522 285.42 168.037 291.245 168.75C291.637 168.795 292.056 168.839 292.483 168.875C292.653 168.884 292.831 168.893 293.009 168.902C306.066 169.535 318.732 161.258 326.685 151.956C326.685 152.054 326.667 152.152 326.667 152.25C326.667 161.642 334.211 169 343.831 169C353.45 169 361.119 161.508 361.119 151.947C361.119 142.386 353.548 134.894 343.875 134.894L343.911 134.903ZM212.661 163.916C212.581 163.916 212.501 163.916 212.421 163.916C210.06 163.916 208.956 162.65 208.956 158.877C208.956 151.813 217.301 138.488 224.578 138.488C227.197 138.488 228.212 139.692 228.212 142.787C228.212 148.638 219.395 163.586 212.652 163.907L212.661 163.916ZM289.82 154.685C289.82 154.685 290.64 150.306 294.06 145.793C297.24 141.333 301.265 138.907 304.57 138.907C305.843 138.907 306.654 139.701 306.663 140.932C306.725 146.783 298.878 152.955 289.491 157.432C289.517 156.692 289.615 155.577 289.829 154.685H289.82ZM343.991 162.783C338.13 162.783 333.713 158.11 333.713 151.92C333.713 146.694 337.302 141.146 343.947 141.146C350.591 141.146 354.145 146.667 354.145 152C354.145 157.334 350.35 162.783 344 162.783H343.991Z" fill="white"/>
<path d="M141.8 81.62C138.92 81.62 136.73 81.02 135.23 80.21V77.12C137 77.9 139.07 78.47 141.47 78.47C144.41 78.47 145.64 77.24 145.64 75.29C145.64 73.46 144.86 72.74 142.46 72.02L140.39 71.45C137.3 70.58 135.41 68.93 135.41 65.21C135.41 61.52 137.81 59 142.73 59C145.61 59 147.17 59.54 148.4 60.17V63.26C147.02 62.66 145.22 62.15 142.82 62.15C140.51 62.15 139.22 63.11 139.22 64.88C139.22 66.59 139.88 67.34 142.04 67.94L144.08 68.57C147.53 69.56 149.6 71 149.6 74.9C149.6 79.04 147.08 81.62 141.8 81.62ZM157.502 70.1H160.772C163.712 70.1 164.852 68.87 164.852 66.32C164.852 63.44 163.712 62.39 160.832 62.39H157.502V70.1ZM153.572 81.23V59.36H161.222C166.382 59.36 168.962 61.73 168.962 66.08C168.962 70.64 166.052 73.04 161.492 73.04H157.502V81.23H153.572ZM172.586 81.23V59.36H186.266V62.45H176.516V68.45H184.076V71.51H176.516V78.14H186.446V81.23H172.586ZM199.041 81.59C192.951 81.59 189.171 78.02 189.171 70.64V69.86C189.171 61.97 193.761 59 199.431 59C201.861 59 203.601 59.42 204.921 60.14V63.2C203.241 62.54 201.741 62.18 199.731 62.18C195.921 62.18 193.401 64.25 193.401 69.44V70.55C193.401 75.56 195.171 78.41 199.761 78.41C202.251 78.41 203.841 77.78 205.161 77.21V80.24C203.661 81.05 201.651 81.59 199.041 81.59ZM209.063 81.23V59.36H213.023V81.23H209.063ZM225.729 64.01L222.669 72.74H228.879L225.819 64.01H225.729ZM216.129 81.23L224.109 59.36H228.129L235.899 81.23H231.849L229.869 75.68H221.739L219.759 81.23H216.129ZM239.031 81.23V59.36H242.961V78.14H252.201V81.23H239.031ZM273.016 81.59C266.926 81.59 263.146 78.02 263.146 70.64V69.86C263.146 61.97 267.736 59 273.406 59C275.836 59 277.576 59.42 278.896 60.14V63.2C277.216 62.54 275.716 62.18 273.706 62.18C269.896 62.18 267.376 64.25 267.376 69.44V70.55C267.376 75.56 269.146 78.41 273.736 78.41C276.226 78.41 277.816 77.78 279.136 77.21V80.24C277.636 81.05 275.626 81.59 273.016 81.59ZM291.797 78.56C295.637 78.56 297.497 75.53 297.497 71.06V69.98C297.497 65.06 295.907 62.09 291.677 62.06C287.867 62.06 286.007 65.06 286.007 69.5V70.61C286.007 75.56 287.597 78.56 291.797 78.56ZM291.677 81.59C285.767 81.59 281.837 77.9 281.837 70.64V69.95C281.837 62.9 285.887 59 291.857 59C297.707 59 301.697 62.63 301.697 69.95V70.64C301.697 77.72 297.587 81.59 291.677 81.59ZM314.17 81.62C308.62 81.62 305.56 78.98 305.56 73.58V59.36H309.55V73.34C309.55 77.33 311.17 78.65 314.32 78.65C317.44 78.65 318.91 77.36 318.91 73.34V59.36H322.45V73.46C322.45 79.04 319.75 81.62 314.17 81.62ZM331.408 70.1H334.678C337.618 70.1 338.758 68.87 338.758 66.32C338.758 63.44 337.618 62.39 334.738 62.39H331.408V70.1ZM327.478 81.23V59.36H335.128C340.288 59.36 342.868 61.73 342.868 66.08C342.868 70.64 339.958 73.04 335.398 73.04H331.408V81.23H327.478ZM355.342 78.56C359.182 78.56 361.042 75.53 361.042 71.06V69.98C361.042 65.06 359.452 62.09 355.222 62.06C351.412 62.06 349.552 65.06 349.552 69.5V70.61C349.552 75.56 351.142 78.56 355.342 78.56ZM355.222 81.59C349.312 81.59 345.382 77.9 345.382 70.64V69.95C345.382 62.9 349.432 59 355.402 59C361.252 59 365.242 62.63 365.242 69.95V70.64C365.242 77.72 361.132 81.59 355.222 81.59ZM369.285 81.23V59.36H373.695L382.785 74.81H382.875V59.36H386.355V81.23H382.455L372.855 64.73H372.765V81.23H369.285Z" fill="white"/>
<defs>
<filter id="filter0_d_62_4237" x="24" y="214" width="476" height="130" filterUnits="userSpaceOnUse" color-interpolation-filters="sRGB">
<feFlood flood-opacity="0" result="BackgroundImageFix"/>
<feColorMatrix in="SourceAlpha" type="matrix" values="0 0 0 0 0 0 0 0 0 0 0 0 0 0 0 0 0 0 127 0" result="hardAlpha"/>
<feOffset dy="16"/>
<feGaussianBlur stdDeviation="8"/>
<feComposite in2="hardAlpha" operator="out"/>
<feColorMatrix type="matrix" values="0 0 0 0 0.00355905 0 0 0 0 0.231963 0 0 0 0 0.854167 0 0 0 0.2 0"/>
<feBlend mode="normal" in2="BackgroundImageFix" result="effect1_dropShadow_62_4237"/>
<feBlend mode="normal" in="SourceGraphic" in2="effect1_dropShadow_62_4237" result="shape"/>
</filter>
<linearGradient id="paint0_linear_62_4237" x1="262" y1="0" x2="262" y2="348" gradientUnits="userSpaceOnUse">
<stop stop-color="#00A4EA"/>
<stop offset="1" stop-color="#0088EA"/>
</linearGradient>
</defs>
</svg>
