<svg width="127" height="29" viewBox="0 0 127 29" fill="none" xmlns="http://www.w3.org/2000/svg">
<path d="M0.98 25.2V23.7L6.08 18.42C9.11 15.27 11.15 12.93 11.15 9.87C11.15 7.02 9.8 5.61 6.77 5.61C4.94 5.61 3.2 6.51 1.97 7.38L1.25 5.37C2.57 4.5 4.76 3.42 7.16 3.42C11.48 3.42 13.82 5.82 13.82 9.63C13.82 13.35 11.57 15.9 7.88 19.65L4.52 23.04H14.3V25.2H0.98ZM38.2515 27.84H19.7115V19.26H22.1415V25.83H38.2515V27.84ZM41.4315 11.25H37.1715V21.15H34.7415V0.899999H37.1715V9.21H41.4315V11.25ZM27.4815 14.25V5.37H19.1115V14.25H27.4815ZM29.9115 16.29H16.6815V3.36H29.9115V16.29ZM52.0791 21.21H49.6491V16.14C47.0091 16.26 44.2191 16.35 41.9091 16.35L41.5191 14.28C44.3991 14.31 47.7891 14.28 50.8191 14.16C53.9391 14.04 56.9691 13.77 59.6691 13.47L59.8791 15.36C58.1091 15.6 55.0191 15.81 52.0791 15.99V21.21ZM55.6791 7.38C55.6791 5.49 53.6691 4.2 50.6691 4.2C47.6691 4.2 45.6291 5.46 45.6291 7.38C45.6291 9.27 47.6691 10.5 50.6691 10.5C53.6691 10.5 55.6791 9.27 55.6791 7.38ZM65.3091 28.11H45.3591V20.04H47.7891V26.07H65.3091V28.11ZM64.7391 22.35H62.3091V19.32H56.4591V17.4H62.3091V0.899999H64.7391V22.35ZM58.0791 7.38C58.0791 10.56 54.9891 12.48 50.6691 12.48C46.3491 12.48 43.1991 10.59 43.1991 7.35C43.1991 4.2 46.3491 2.19 50.6691 2.19C54.9891 2.19 58.0791 4.2 58.0791 7.38ZM87.845 12.87C87.845 8.28 85.925 5.1 82.955 5.1C80.015 5.1 78.065 8.28 78.065 12.87C78.065 17.43 80.015 20.61 82.955 20.61C85.925 20.61 87.845 17.43 87.845 12.87ZM75.755 12.84C75.755 6.96 78.365 3 82.955 3C87.575 3 90.155 6.96 90.155 12.87C90.155 18.78 87.575 22.71 82.955 22.71C78.365 22.71 75.755 18.78 75.755 12.84ZM97.775 28.8H95.345V0.899999H97.775V28.8ZM126.633 10.5H122.373V18.09H119.943V0.899999H122.373V8.46H126.633V10.5ZM113.373 20.07C109.173 20.07 106.563 21.3 106.563 23.43C106.563 25.56 109.173 26.76 113.373 26.76C117.633 26.76 120.273 25.56 120.273 23.43C120.273 21.3 117.633 20.07 113.373 20.07ZM122.763 23.43C122.763 26.73 119.253 28.77 113.373 28.77C107.553 28.77 104.073 26.73 104.073 23.43C104.073 20.1 107.553 18.06 113.373 18.06C119.253 18.06 122.763 20.1 122.763 23.43ZM116.703 13.77L115.263 15.69C112.593 14.4 109.833 12 108.723 9.18C107.853 12.15 105.033 14.94 101.763 16.62L100.413 14.73C104.403 12.87 107.403 9.36 107.403 4.92V2.22H109.863V4.83C109.863 9.27 113.553 12.66 116.703 13.77Z" fill="#001D6C"/>
</svg>
