<svg width="129" height="29" viewBox="0 0 129 29" fill="none" xmlns="http://www.w3.org/2000/svg">
<path d="M3.63 18.63H11.04V7.53L3.63 18.63ZM11.04 25.71V20.7H0.93V18.81L11.4 3.51H13.38V18.63H16.95V20.7H13.38V25.71H11.04ZM39.9253 27.84H21.3853V19.26H23.8153V25.83H39.9253V27.84ZM43.1053 11.25H38.8453V21.15H36.4153V0.899999H38.8453V9.21H43.1053V11.25ZM29.1553 14.25V5.37H20.7853V14.25H29.1553ZM31.5853 16.29H18.3553V3.36H31.5853V16.29ZM53.753 21.21H51.323V16.14C48.683 16.26 45.893 16.35 43.583 16.35L43.193 14.28C46.073 14.31 49.463 14.28 52.493 14.16C55.613 14.04 58.643 13.77 61.343 13.47L61.553 15.36C59.783 15.6 56.693 15.81 53.753 15.99V21.21ZM57.353 7.38C57.353 5.49 55.343 4.2 52.343 4.2C49.343 4.2 47.303 5.46 47.303 7.38C47.303 9.27 49.343 10.5 52.343 10.5C55.343 10.5 57.353 9.27 57.353 7.38ZM66.983 28.11H47.033V20.04H49.463V26.07H66.983V28.11ZM66.413 22.35H63.983V19.32H58.133V17.4H63.983V0.899999H66.413V22.35ZM59.753 7.38C59.753 10.56 56.663 12.48 52.343 12.48C48.023 12.48 44.873 10.59 44.873 7.35C44.873 4.2 48.023 2.19 52.343 2.19C56.663 2.19 59.753 4.2 59.753 7.38ZM89.5188 12.87C89.5188 8.28 87.5988 5.1 84.6288 5.1C81.6888 5.1 79.7388 8.28 79.7388 12.87C79.7388 17.43 81.6888 20.61 84.6288 20.61C87.5988 20.61 89.5188 17.43 89.5188 12.87ZM77.4288 12.84C77.4288 6.96 80.0388 3 84.6288 3C89.2488 3 91.8288 6.96 91.8288 12.87C91.8288 18.78 89.2488 22.71 84.6288 22.71C80.0388 22.71 77.4288 18.78 77.4288 12.84ZM99.4488 28.8H97.0188V0.899999H99.4488V28.8ZM128.306 10.5H124.046V18.09H121.616V0.899999H124.046V8.46H128.306V10.5ZM115.046 20.07C110.846 20.07 108.236 21.3 108.236 23.43C108.236 25.56 110.846 26.76 115.046 26.76C119.306 26.76 121.946 25.56 121.946 23.43C121.946 21.3 119.306 20.07 115.046 20.07ZM124.436 23.43C124.436 26.73 120.926 28.77 115.046 28.77C109.226 28.77 105.746 26.73 105.746 23.43C105.746 20.1 109.226 18.06 115.046 18.06C120.926 18.06 124.436 20.1 124.436 23.43ZM118.376 13.77L116.936 15.69C114.266 14.4 111.506 12 110.396 9.18C109.526 12.15 106.706 14.94 103.436 16.62L102.086 14.73C106.076 12.87 109.076 9.36 109.076 4.92V2.22H111.536V4.83C111.536 9.27 115.226 12.66 118.376 13.77Z" fill="#001D6C"/>
</svg>
