<svg width="295" height="100" viewBox="0 0 295 100" fill="none" xmlns="http://www.w3.org/2000/svg">
<path d="M0 36C0 16.1178 16.1177 0 36 0H295V100H0V36Z" fill="white"/>
<path d="M84.98 60.2V58.7L90.08 53.42C93.11 50.27 95.15 47.93 95.15 44.87C95.15 42.02 93.8 40.61 90.77 40.61C88.94 40.61 87.2 41.51 85.97 42.38L85.25 40.37C86.57 39.5 88.76 38.42 91.16 38.42C95.48 38.42 97.82 40.82 97.82 44.63C97.82 48.35 95.57 50.9 91.88 54.65L88.52 58.04H98.3V60.2H84.98ZM122.251 62.84H103.711V54.26H106.141V60.83H122.251V62.84ZM125.431 46.25H121.171V56.15H118.741V35.9H121.171V44.21H125.431V46.25ZM111.481 49.25V40.37H103.111V49.25H111.481ZM113.911 51.29H100.681V38.36H113.911V51.29ZM136.079 56.21H133.649V51.14C131.009 51.26 128.219 51.35 125.909 51.35L125.519 49.28C128.399 49.31 131.789 49.28 134.819 49.16C137.939 49.04 140.969 48.77 143.669 48.47L143.879 50.36C142.109 50.6 139.019 50.81 136.079 50.99V56.21ZM139.679 42.38C139.679 40.49 137.669 39.2 134.669 39.2C131.669 39.2 129.629 40.46 129.629 42.38C129.629 44.27 131.669 45.5 134.669 45.5C137.669 45.5 139.679 44.27 139.679 42.38ZM149.309 63.11H129.359V55.04H131.789V61.07H149.309V63.11ZM148.739 57.35H146.309V54.32H140.459V52.4H146.309V35.9H148.739V57.35ZM142.079 42.38C142.079 45.56 138.989 47.48 134.669 47.48C130.349 47.48 127.199 45.59 127.199 42.35C127.199 39.2 130.349 37.19 134.669 37.19C138.989 37.19 142.079 39.2 142.079 42.38ZM171.845 47.87C171.845 43.28 169.925 40.1 166.955 40.1C164.015 40.1 162.065 43.28 162.065 47.87C162.065 52.43 164.015 55.61 166.955 55.61C169.925 55.61 171.845 52.43 171.845 47.87ZM159.755 47.84C159.755 41.96 162.365 38 166.955 38C171.575 38 174.155 41.96 174.155 47.87C174.155 53.78 171.575 57.71 166.955 57.71C162.365 57.71 159.755 53.78 159.755 47.84ZM181.775 63.8H179.345V35.9H181.775V63.8ZM210.633 45.5H206.373V53.09H203.943V35.9H206.373V43.46H210.633V45.5ZM197.373 55.07C193.173 55.07 190.563 56.3 190.563 58.43C190.563 60.56 193.173 61.76 197.373 61.76C201.633 61.76 204.273 60.56 204.273 58.43C204.273 56.3 201.633 55.07 197.373 55.07ZM206.763 58.43C206.763 61.73 203.253 63.77 197.373 63.77C191.553 63.77 188.073 61.73 188.073 58.43C188.073 55.1 191.553 53.06 197.373 53.06C203.253 53.06 206.763 55.1 206.763 58.43ZM200.703 48.77L199.263 50.69C196.593 49.4 193.833 47 192.723 44.18C191.853 47.15 189.033 49.94 185.763 51.62L184.413 49.73C188.403 47.87 191.403 44.36 191.403 39.92V37.22H193.863V39.83C193.863 44.27 197.553 47.66 200.703 48.77Z" fill="#001D6C"/>
</svg>
