<svg width="295" height="100" viewBox="0 0 295 100" fill="none" xmlns="http://www.w3.org/2000/svg">
<path d="M36 0.5H294.5V99.5H0.5V36C0.5 16.3939 16.3939 0.5 36 0.5Z" fill="#001D6C" stroke="black"/>
<path d="M84.92 60.2V58.55L89.84 53.45C92.87 50.3 94.97 47.87 94.97 44.87C94.97 42.08 93.62 40.73 90.62 40.73C88.85 40.73 87.11 41.6 85.88 42.44L85.19 40.25C86.54 39.38 88.73 38.36 91.16 38.36C95.57 38.36 97.94 40.73 97.94 44.57C97.94 48.35 95.48 51.08 91.97 54.62L88.79 57.86H98.36V60.2H84.92ZM122.221 62.9H103.621V54.17H106.441V60.59H122.221V62.9ZM125.461 46.58H121.261V56.15H118.441V35.9H121.261V44.24H125.461V46.58ZM111.091 49.04V40.55H103.501V49.04H111.091ZM113.911 51.29H100.711V38.3H113.911V51.29ZM139.079 42.41C139.079 40.76 137.369 39.47 134.699 39.47C132.059 39.47 130.319 40.73 130.319 42.41C130.319 44.06 132.059 45.29 134.699 45.29C137.369 45.29 139.079 44.06 139.079 42.41ZM136.349 56.12H133.529V51.17C130.799 51.29 128.369 51.32 125.939 51.38L125.489 49.04C128.699 49.04 131.699 49.01 134.759 48.89C138.329 48.71 141.089 48.53 143.699 48.23L143.909 50.36C142.049 50.63 139.139 50.87 136.349 51.02V56.12ZM149.459 63.08H129.209V54.95H132.029V60.8H149.459V63.08ZM148.919 57.35H146.129V54.38H140.639V52.28H146.129V35.9H148.919V57.35ZM142.109 42.41C142.109 45.56 139.019 47.54 134.699 47.54C130.439 47.54 127.289 45.59 127.289 42.38C127.289 39.23 130.439 37.19 134.699 37.19C139.019 37.19 142.109 39.23 142.109 42.41ZM171.335 47.87C171.335 43.55 169.865 40.43 167.015 40.43C164.165 40.43 162.695 43.55 162.695 47.87C162.695 52.16 164.165 55.28 167.015 55.28C169.865 55.28 171.335 52.16 171.335 47.87ZM159.815 47.84C159.815 42.32 162.065 38 167.015 38C171.965 38 174.155 42.32 174.155 47.87C174.155 53.39 171.965 57.71 167.015 57.71C162.065 57.71 159.815 53.39 159.815 47.84ZM181.835 63.8H179.015V35.9H181.835V63.8ZM210.633 45.53H206.463V52.91H203.643V35.9H206.463V43.19H210.633V45.53ZM197.433 55.19C193.413 55.19 190.953 56.36 190.953 58.34C190.953 60.32 193.413 61.49 197.433 61.49C201.483 61.49 203.973 60.32 203.973 58.34C203.973 56.36 201.483 55.19 197.433 55.19ZM206.853 58.34C206.853 61.7 203.343 63.8 197.433 63.8C191.553 63.8 188.043 61.7 188.043 58.34C188.043 54.98 191.553 52.88 197.433 52.88C203.343 52.88 206.853 54.98 206.853 58.34ZM200.763 48.47L199.113 50.69C196.593 49.55 193.953 47.27 192.783 44.54C191.943 47.48 189.123 50.09 186.093 51.53L184.353 49.31C188.343 47.6 191.283 44.24 191.283 39.86V37.19H194.163V39.74C194.163 44.15 197.583 47.39 200.763 48.47Z" fill="white"/>
</svg>
