<svg width="295" height="100" viewBox="0 0 295 100" fill="none" xmlns="http://www.w3.org/2000/svg">
<path d="M0 0H259C278.882 0 295 16.1178 295 36V100H0V0Z" fill="white"/>
<path d="M86.63 53.63H94.04V42.53L86.63 53.63ZM94.04 60.71V55.7H83.93V53.81L94.4 38.51H96.38V53.63H99.95V55.7H96.38V60.71H94.04ZM122.925 62.84H104.385V54.26H106.815V60.83H122.925V62.84ZM126.105 46.25H121.845V56.15H119.415V35.9H121.845V44.21H126.105V46.25ZM112.155 49.25V40.37H103.785V49.25H112.155ZM114.585 51.29H101.355V38.36H114.585V51.29ZM136.753 56.21H134.323V51.14C131.683 51.26 128.893 51.35 126.583 51.35L126.193 49.28C129.073 49.31 132.463 49.28 135.493 49.16C138.613 49.04 141.643 48.77 144.343 48.47L144.553 50.36C142.783 50.6 139.693 50.81 136.753 50.99V56.21ZM140.353 42.38C140.353 40.49 138.343 39.2 135.343 39.2C132.343 39.2 130.303 40.46 130.303 42.38C130.303 44.27 132.343 45.5 135.343 45.5C138.343 45.5 140.353 44.27 140.353 42.38ZM149.983 63.11H130.033V55.04H132.463V61.07H149.983V63.11ZM149.413 57.35H146.983V54.32H141.133V52.4H146.983V35.9H149.413V57.35ZM142.753 42.38C142.753 45.56 139.663 47.48 135.343 47.48C131.023 47.48 127.873 45.59 127.873 42.35C127.873 39.2 131.023 37.19 135.343 37.19C139.663 37.19 142.753 39.2 142.753 42.38ZM172.519 47.87C172.519 43.28 170.599 40.1 167.629 40.1C164.689 40.1 162.739 43.28 162.739 47.87C162.739 52.43 164.689 55.61 167.629 55.61C170.599 55.61 172.519 52.43 172.519 47.87ZM160.429 47.84C160.429 41.96 163.039 38 167.629 38C172.249 38 174.829 41.96 174.829 47.87C174.829 53.78 172.249 57.71 167.629 57.71C163.039 57.71 160.429 53.78 160.429 47.84ZM182.449 63.8H180.019V35.9H182.449V63.8ZM211.306 45.5H207.046V53.09H204.616V35.9H207.046V43.46H211.306V45.5ZM198.046 55.07C193.846 55.07 191.236 56.3 191.236 58.43C191.236 60.56 193.846 61.76 198.046 61.76C202.306 61.76 204.946 60.56 204.946 58.43C204.946 56.3 202.306 55.07 198.046 55.07ZM207.436 58.43C207.436 61.73 203.926 63.77 198.046 63.77C192.226 63.77 188.746 61.73 188.746 58.43C188.746 55.1 192.226 53.06 198.046 53.06C203.926 53.06 207.436 55.1 207.436 58.43ZM201.376 48.77L199.936 50.69C197.266 49.4 194.506 47 193.396 44.18C192.526 47.15 189.706 49.94 186.436 51.62L185.086 49.73C189.076 47.87 192.076 44.36 192.076 39.92V37.22H194.536V39.83C194.536 44.27 198.226 47.66 201.376 48.77Z" fill="#001D6C"/>
</svg>
