<svg width="129" height="29" viewBox="0 0 129 29" fill="none" xmlns="http://www.w3.org/2000/svg">
<path d="M3.66 18.84H11.04V8.1L3.66 18.84ZM11.01 25.68V21.06H0.75V19.11L11.52 3.42H13.65V18.84H17.22V21.06H13.65V25.68H11.01ZM40.1004 27.9H21.5004V19.17H24.3204V25.59H40.1004V27.9ZM43.3404 11.58H39.1404V21.15H36.3204V0.899999H39.1404V9.24H43.3404V11.58ZM28.9704 14.04V5.55H21.3804V14.04H28.9704ZM31.7904 16.29H18.5904V3.3H31.7904V16.29ZM56.958 7.41C56.958 5.76 55.248 4.47 52.578 4.47C49.938 4.47 48.198 5.73 48.198 7.41C48.198 9.06 49.938 10.29 52.578 10.29C55.248 10.29 56.958 9.06 56.958 7.41ZM54.228 21.12H51.408V16.17C48.678 16.29 46.248 16.32 43.818 16.38L43.368 14.04C46.578 14.04 49.578 14.01 52.638 13.89C56.208 13.71 58.968 13.53 61.578 13.23L61.788 15.36C59.928 15.63 57.018 15.87 54.228 16.02V21.12ZM67.338 28.08H47.088V19.95H49.908V25.8H67.338V28.08ZM66.798 22.35H64.008V19.38H58.518V17.28H64.008V0.899999H66.798V22.35ZM59.988 7.41C59.988 10.56 56.898 12.54 52.578 12.54C48.318 12.54 45.168 10.59 45.168 7.38C45.168 4.23 48.318 2.19 52.578 2.19C56.898 2.19 59.988 4.23 59.988 7.41ZM89.2139 12.87C89.2139 8.55 87.7439 5.43 84.8939 5.43C82.0439 5.43 80.5739 8.55 80.5739 12.87C80.5739 17.16 82.0439 20.28 84.8939 20.28C87.7439 20.28 89.2139 17.16 89.2139 12.87ZM77.6939 12.84C77.6939 7.32 79.9439 3 84.8939 3C89.8439 3 92.0339 7.32 92.0339 12.87C92.0339 18.39 89.8439 22.71 84.8939 22.71C79.9439 22.71 77.6939 18.39 77.6939 12.84ZM99.7139 28.8H96.8939V0.899999H99.7139V28.8ZM128.512 10.53H124.342V17.91H121.522V0.899999H124.342V8.19H128.512V10.53ZM115.312 20.19C111.292 20.19 108.832 21.36 108.832 23.34C108.832 25.32 111.292 26.49 115.312 26.49C119.362 26.49 121.852 25.32 121.852 23.34C121.852 21.36 119.362 20.19 115.312 20.19ZM124.732 23.34C124.732 26.7 121.222 28.8 115.312 28.8C109.432 28.8 105.922 26.7 105.922 23.34C105.922 19.98 109.432 17.88 115.312 17.88C121.222 17.88 124.732 19.98 124.732 23.34ZM118.642 13.47L116.992 15.69C114.472 14.55 111.832 12.27 110.662 9.54C109.822 12.48 107.002 15.09 103.972 16.53L102.232 14.31C106.222 12.6 109.162 9.24 109.162 4.86V2.19H112.042V4.74C112.042 9.15 115.462 12.39 118.642 13.47Z" fill="white"/>
</svg>
