<svg width="295" height="100" viewBox="0 0 295 100" fill="none" xmlns="http://www.w3.org/2000/svg">
<path d="M0 0H259C278.882 0 295 16.1178 295 36V100H0V0Z" fill="#001D6C"/>
<path d="M86.66 53.84H94.04V43.1L86.66 53.84ZM94.01 60.68V56.06H83.75V54.11L94.52 38.42H96.65V53.84H100.22V56.06H96.65V60.68H94.01ZM123.1 62.9H104.5V54.17H107.32V60.59H123.1V62.9ZM126.34 46.58H122.14V56.15H119.32V35.9H122.14V44.24H126.34V46.58ZM111.97 49.04V40.55H104.38V49.04H111.97ZM114.79 51.29H101.59V38.3H114.79V51.29ZM139.958 42.41C139.958 40.76 138.248 39.47 135.578 39.47C132.938 39.47 131.198 40.73 131.198 42.41C131.198 44.06 132.938 45.29 135.578 45.29C138.248 45.29 139.958 44.06 139.958 42.41ZM137.228 56.12H134.408V51.17C131.678 51.29 129.248 51.32 126.818 51.38L126.368 49.04C129.578 49.04 132.578 49.01 135.638 48.89C139.208 48.71 141.968 48.53 144.578 48.23L144.788 50.36C142.928 50.63 140.018 50.87 137.228 51.02V56.12ZM150.338 63.08H130.088V54.95H132.908V60.8H150.338V63.08ZM149.798 57.35H147.008V54.38H141.518V52.28H147.008V35.9H149.798V57.35ZM142.988 42.41C142.988 45.56 139.898 47.54 135.578 47.54C131.318 47.54 128.168 45.59 128.168 42.38C128.168 39.23 131.318 37.19 135.578 37.19C139.898 37.19 142.988 39.23 142.988 42.41ZM172.214 47.87C172.214 43.55 170.744 40.43 167.894 40.43C165.044 40.43 163.574 43.55 163.574 47.87C163.574 52.16 165.044 55.28 167.894 55.28C170.744 55.28 172.214 52.16 172.214 47.87ZM160.694 47.84C160.694 42.32 162.944 38 167.894 38C172.844 38 175.034 42.32 175.034 47.87C175.034 53.39 172.844 57.71 167.894 57.71C162.944 57.71 160.694 53.39 160.694 47.84ZM182.714 63.8H179.894V35.9H182.714V63.8ZM211.512 45.53H207.342V52.91H204.522V35.9H207.342V43.19H211.512V45.53ZM198.312 55.19C194.292 55.19 191.832 56.36 191.832 58.34C191.832 60.32 194.292 61.49 198.312 61.49C202.362 61.49 204.852 60.32 204.852 58.34C204.852 56.36 202.362 55.19 198.312 55.19ZM207.732 58.34C207.732 61.7 204.222 63.8 198.312 63.8C192.432 63.8 188.922 61.7 188.922 58.34C188.922 54.98 192.432 52.88 198.312 52.88C204.222 52.88 207.732 54.98 207.732 58.34ZM201.642 48.47L199.992 50.69C197.472 49.55 194.832 47.27 193.662 44.54C192.822 47.48 190.002 50.09 186.972 51.53L185.232 49.31C189.222 47.6 192.162 44.24 192.162 39.86V37.19H195.042V39.74C195.042 44.15 198.462 47.39 201.642 48.47Z" fill="white"/>
</svg>
