<svg width="100" height="100" viewBox="0 0 100 100" fill="none" xmlns="http://www.w3.org/2000/svg">
<circle opacity="0.7" cx="50" cy="50" r="48" fill="#00A4EA" stroke="white" stroke-width="4"/>
<path d="M31.3868 49.32L29.6828 51.648C27.9548 51 25.5788 48.96 24.5948 46.848C23.8988 49.152 21.4508 51.528 19.3148 52.248L17.5388 49.872C20.8508 48.648 23.0108 45.696 23.0108 42.288V39.6H26.1308V42.144C26.1308 45.6 28.7228 48.456 31.3868 49.32ZM37.1468 60.456H21.6668V53.304H24.6428V58.08H37.1468V60.456ZM36.6668 54.816H33.6668V45.936H29.7788V43.536H33.6668V38.304H36.6668V54.816ZM41.9209 41.376V39.048H48.5209V41.376H41.9209ZM59.7529 46.656H56.4889V52.248H53.5369V38.304H56.4889V44.208H59.7529V46.656ZM41.5369 53.328H56.5129V61.08H53.5369V55.704H41.5369V53.328ZM51.7609 49.488L50.2729 51.792C48.5209 51.264 46.1689 49.68 45.2329 47.76C44.4169 49.8 42.1369 51.696 39.9049 52.416C39.3769 51.648 38.8009 50.88 38.2489 50.112C41.0569 49.176 43.0729 47.568 43.5529 45H39.2089V42.648H51.2089V45H46.8649C47.4169 47.52 49.5289 48.864 51.7609 49.488ZM77.7751 60.456H62.2471V53.952H65.2231V58.104H77.7751V60.456ZM69.9031 43.176C68.7511 45.792 65.0311 47.856 61.7431 48.336L60.4951 46.008C64.3111 45.624 68.3671 43.152 68.3671 39.792V39.096H71.4631V39.792C71.4631 43.152 76.0711 45.84 79.3351 46.032L78.0631 48.36C75.0151 47.904 71.0551 45.792 69.9031 43.176ZM71.5831 56.088H68.6071V52.056H59.6071V49.68H80.1511V52.056H71.5831V56.088Z" fill="white"/>
</svg>
