<svg width="100" height="100" viewBox="0 0 100 100" fill="none" xmlns="http://www.w3.org/2000/svg">
<circle opacity="0.7" cx="50" cy="50" r="48" fill="#00A4EA" stroke="white" stroke-width="4"/>
<path d="M32.8939 35.536C32.8939 36.568 34.0219 37.288 35.3419 37.288C36.6619 37.288 37.7899 36.568 37.7899 35.536C37.7899 34.48 36.6619 33.736 35.3419 33.736C34.0219 33.736 32.8939 34.48 32.8939 35.536ZM47.1259 46.528H31.5739V40.528H34.5739V44.152H47.1259V46.528ZM46.5739 24.304V31.672H49.7419V34.144H46.5739V41.2H43.5979V24.304H46.5739ZM31.9819 27.328V25.048H38.7499V27.328H31.9819ZM40.7179 35.536C40.7179 37.96 38.4139 39.688 35.3419 39.688C32.2459 39.688 29.9419 37.96 29.9419 35.536C29.9419 33.136 32.2219 31.36 35.3419 31.36C38.4139 31.36 40.7179 33.136 40.7179 35.536ZM41.7979 30.712H28.5979V28.408H41.7979V30.712ZM60.66 40.336C57.588 40.336 55.764 41.128 55.764 42.52C55.764 43.84 57.588 44.632 60.66 44.632C63.804 44.632 65.604 43.84 65.604 42.52C65.604 41.128 63.804 40.336 60.66 40.336ZM62.076 32.152V29.752H65.484V24.304H68.484V37.84H65.484V32.152H62.076ZM50.46 28.36V25.912H62.436V28.36H58.116C58.356 31.528 60.636 33.664 63.132 34.48C62.604 35.272 62.052 36.04 61.5 36.832C59.772 36.16 57.564 34.456 56.58 32.368C55.884 34.576 53.484 36.712 51.3 37.48L49.524 35.152C52.692 34 54.804 31.6 54.972 28.36H50.46ZM68.628 42.52C68.628 45.28 65.7 47.008 60.66 47.008C55.644 47.008 52.716 45.28 52.716 42.52C52.716 39.688 55.644 37.936 60.66 37.936C65.7 37.936 68.628 39.688 68.628 42.52ZM48.4939 61.32L47.1979 63.744C43.8379 63.24 40.1899 61.08 39.0859 58.56C38.0779 61.08 34.4539 63.216 30.9979 63.768L29.7259 61.32C33.6619 60.888 37.5019 58.368 37.5019 54.96V53.808H40.6699V54.96C40.6699 58.368 44.8459 60.984 48.4939 61.32ZM40.5019 76.08H37.5019V67.992H28.7899V65.64H49.3339V67.992H40.5019V76.08ZM59.916 69.648C56.916 69.648 55.188 70.488 55.188 71.688C55.188 72.888 56.916 73.704 59.916 73.704C62.94 73.704 64.62 72.888 64.62 71.688C64.62 70.488 62.94 69.648 59.916 69.648ZM70.38 61.368V63.792H67.428V67.032H64.428V53.304H67.428V56.448H70.38V58.872H67.428V61.368H70.38ZM62.724 65.328C60.756 65.784 56.58 66.096 53.508 66.096H50.46V59.088H57.564V56.88H50.364V54.528H60.564V61.32H53.46V63.72C56.292 63.72 60.588 63.528 62.34 63.048C62.46 63.792 62.58 64.56 62.724 65.328ZM67.716 71.688C67.716 74.376 64.86 76.056 59.916 76.056C54.972 76.056 52.116 74.376 52.116 71.688C52.116 69.024 54.972 67.296 59.916 67.296C64.86 67.296 67.716 69.024 67.716 71.688Z" fill="white"/>
</svg>
