<svg width="461" height="418" viewBox="0 0 461 418" fill="none" xmlns="http://www.w3.org/2000/svg">
<rect x="141.5" y="362.5" width="178" height="55" rx="27.5" stroke="white"/>
<path d="M173.48 398.08V383.056L170.36 383.752V382.456L174.488 380.536H175.712V398.08H173.48ZM179.337 397.96V396.64L183.273 392.56C185.697 390.04 187.377 388.096 187.377 385.696C187.377 383.464 186.297 382.384 183.897 382.384C182.481 382.384 181.089 383.08 180.105 383.752L179.553 382C180.633 381.304 182.385 380.488 184.329 380.488C187.857 380.488 189.753 382.384 189.753 385.456C189.753 388.48 187.785 390.664 184.977 393.496L182.433 396.088H190.089V397.96H179.337ZM191.346 398.56V396.064H193.818V398.56H191.346ZM199.692 398.08V383.056L196.572 383.752V382.456L200.7 380.536H201.924V398.08H199.692ZM205.549 397.96V396.64L209.485 392.56C211.909 390.04 213.589 388.096 213.589 385.696C213.589 383.464 212.509 382.384 210.109 382.384C208.693 382.384 207.301 383.08 206.317 383.752L205.765 382C206.845 381.304 208.597 380.488 210.541 380.488C214.069 380.488 215.965 382.384 215.965 385.456C215.965 388.48 213.997 390.664 211.189 393.496L208.645 396.088H216.301V397.96H205.549ZM229.277 388.84L229.493 389.032C230.213 389.656 230.765 390.016 231.509 390.016C232.325 390.016 232.901 389.152 233.093 387.784L234.701 388.264C234.341 390.76 232.661 391.936 231.413 391.936C230.405 391.936 229.493 391.456 228.605 390.736C228.557 390.712 228.461 390.592 228.365 390.496C227.621 389.872 227.117 389.464 226.421 389.464C225.629 389.464 225.173 390.304 224.789 391.72L223.157 391.144C223.757 388.456 225.077 387.52 226.637 387.52C227.645 387.544 228.629 388.264 229.277 388.84ZM244.95 398.08V383.056L241.83 383.752V382.456L245.958 380.536H247.182V398.08H244.95ZM250.807 397.96V396.64L254.743 392.56C257.167 390.04 258.847 388.096 258.847 385.696C258.847 383.464 257.767 382.384 255.367 382.384C253.951 382.384 252.559 383.08 251.575 383.752L251.023 382C252.103 381.304 253.855 380.488 255.799 380.488C259.327 380.488 261.223 382.384 261.223 385.456C261.223 388.48 259.255 390.664 256.447 393.496L253.903 396.088H261.559V397.96H250.807ZM262.816 398.56V396.064H265.288V398.56H262.816ZM268.259 397.96V396.64L272.195 392.56C274.619 390.04 276.299 388.096 276.299 385.696C276.299 383.464 275.219 382.384 272.819 382.384C271.403 382.384 270.011 383.08 269.027 383.752L268.475 382C269.555 381.304 271.307 380.488 273.251 380.488C276.779 380.488 278.675 382.384 278.675 385.456C278.675 388.48 276.707 390.664 273.899 393.496L271.355 396.088H279.011V397.96H268.259ZM284.756 398.272C282.764 398.272 280.964 397.72 279.908 397L280.34 395.2C281.276 395.824 282.884 396.4 284.276 396.4C286.94 396.4 288.5 394.936 288.5 392.56C288.5 390.04 286.988 389.032 284.372 389.032C283.196 389.032 281.588 389.512 280.796 389.872L281.42 380.776H290.18V382.648H283.196L282.86 387.664C283.532 387.472 284.54 387.304 285.26 387.304C288.716 387.304 290.828 388.984 290.828 392.608C290.828 395.704 288.548 398.272 284.756 398.272Z" fill="white"/>
<path d="M42.1846 228.69L42.6946 231.24C39.7846 231.9 35.4946 232.23 30.3946 232.23L27.4246 232.26V219.06H40.0246V221.67H30.6646V229.59C34.9246 229.59 39.1246 229.38 42.1846 228.69ZM49.3546 244.17H30.5146V235.26H33.7846V241.53H49.3546V244.17ZM52.6546 227.25H48.5146V237.18H45.2146V216.63H48.5146V224.52H52.6546V227.25ZM60.2805 241.2V239.28L64.8705 234.48C67.8705 231.33 70.1505 228.75 70.1505 225.9C70.1505 223.14 68.7405 221.97 65.8605 221.97C64.2105 221.97 62.4405 222.75 61.2105 223.56L60.5505 221.04C61.9605 220.17 64.1505 219.24 66.6105 219.24C71.2305 219.24 73.6305 221.61 73.6305 225.51C73.6305 229.32 70.7505 232.38 67.6605 235.59L64.7205 238.53H73.9305V241.2H60.2805ZM89.4213 245.04H86.1513V234.93H74.9913V232.32H100.671V234.93H89.4213V245.04ZM98.2713 220.44H89.6313C90.2013 223.95 95.2113 226.53 99.4713 226.98L98.0013 229.56C94.0113 228.99 89.3013 226.32 87.8613 223.68C86.4813 226.47 81.8913 229.05 77.6913 229.68L76.1313 227.1C80.5113 226.65 85.5513 223.98 86.1213 220.44H77.3613V217.8H98.2713V220.44ZM102.169 218.85H115.219C115.099 226.8 109.489 232.05 102.409 234L100.759 231.39C105.919 230.31 110.809 226.65 111.649 221.58H102.169V218.85ZM127.369 227.64H123.169V237.42H119.899V216.63H123.169V224.91H127.369V227.64ZM123.949 244.26H105.079V235.26H108.349V241.62H123.949V244.26ZM145.795 228.81C145.795 224.25 144.115 221.52 141.685 221.52C139.285 221.52 137.635 224.25 137.635 228.81C137.635 233.37 139.285 236.1 141.685 236.1C144.115 236.1 145.795 233.37 145.795 228.81ZM134.425 228.81C134.425 222.81 137.125 218.85 141.685 218.85C146.245 218.85 148.915 222.81 148.915 228.84C148.915 234.81 146.245 238.74 141.685 238.74C137.125 238.74 134.425 234.81 134.425 228.81ZM156.175 216.63V227.73H160.585V230.46H156.175V245.07H152.905V216.63H156.175ZM179.452 229.71V221.49H166.642V229.71H179.452ZM185.872 241.47H160.192V238.86H171.352V232.32H163.372V218.88H182.722V232.32H174.622V238.86H185.872V241.47ZM199.16 234.87L199.58 237.45C197.03 238.05 193.16 238.26 189.74 238.29H187.34V227.25H194.09V222.36H187.25V219.75H197.36V229.86H190.61V235.59C193.82 235.59 196.4 235.41 199.16 234.87ZM204.65 243.69H201.56V229.83H198.47V227.13H201.56V217.23H204.65V243.69ZM210.26 245.07H207.11V216.63H210.26V245.07ZM228.558 221.82H212.808V219.18H228.558V221.82ZM232.548 230.28H227.898V227.55H232.548V216.63H235.818V245.07H232.548V230.28ZM229.518 234.87L229.758 237.42C227.808 237.78 224.538 238.05 220.998 238.23C218.148 238.38 215.088 238.47 212.328 238.47L211.908 235.68H216.018L215.058 224.13L218.298 223.77L218.988 235.62C219.888 235.59 220.818 235.56 221.748 235.5H222.108L222.798 223.71L226.008 223.92L225.048 235.32C226.878 235.2 228.378 235.05 229.518 234.87ZM255.825 236.04L253.875 238.5C251.445 236.94 248.415 233.43 247.365 230.31C246.405 233.67 243.555 237.24 240.435 239.13L238.425 236.73C242.835 233.88 245.625 229.17 245.625 223.74V219.09H249.015V223.56C249.015 229.02 251.655 233.43 255.825 236.04ZM261.915 245.07H258.645V216.63H261.915V245.07ZM281.323 221.22H265.633V218.61H281.323V221.22ZM288.013 233.4H284.713V216.66H288.013V233.4ZM288.043 245.07H284.743V237.45H268.873V234.87H288.043V245.07ZM271.183 222.57L271.603 229.65C272.803 229.62 274.033 229.56 275.233 229.5L275.683 222.54L278.863 222.84L278.203 229.35C279.673 229.23 281.053 229.11 282.253 228.96L282.523 231.45C280.483 231.84 276.913 232.14 273.553 232.29C270.763 232.44 267.763 232.5 265.183 232.53L264.703 229.77C265.933 229.77 267.253 229.74 268.663 229.71L267.913 222.87L271.183 222.57ZM310.459 234.69L310.879 237.33C308.509 237.87 304.819 238.11 301.369 238.11H298.519V220.08H309.229V222.72C306.769 222.72 304.249 222.69 301.819 222.69V235.41C305.389 235.41 308.299 235.17 310.459 234.69ZM321.559 245.07H318.409V230.67H315.529V243.69H312.439V217.2H315.529V227.94H318.409V216.63H321.559V245.07ZM346.877 221.52H326.057V218.91H346.877V221.52ZM346.847 231.66H326.087V229.02H330.287L329.747 223.2L333.047 222.81L333.407 229.02H339.737L340.577 222.87L343.757 223.41L342.827 229.02H346.847V231.66ZM349.367 241.41H323.687V238.8H330.227V233.07H333.497V238.8H339.467V233.07H342.737V238.8H349.367V241.41ZM373.162 229.29L371.272 231.84C368.932 230.85 366.022 228.48 364.792 225.78C363.922 228.75 360.952 231.39 358.102 232.59L356.092 230.01C360.172 228.36 363.082 224.97 363.082 220.59V217.89H366.442V220.44C366.442 224.88 369.922 228.21 373.162 229.29ZM375.802 239.43C375.802 237.51 373.462 236.4 369.472 236.4C365.542 236.4 363.232 237.51 363.232 239.43C363.232 241.32 365.542 242.43 369.472 242.43C373.462 242.43 375.802 241.32 375.802 239.43ZM379.162 239.43C379.162 242.82 375.592 245.07 369.472 245.07C363.412 245.07 359.872 242.82 359.872 239.43C359.872 235.98 363.412 233.73 369.472 233.73C375.592 233.73 379.162 235.98 379.162 239.43ZM382.942 226.26H378.772V233.46H375.502V216.63H378.772V223.53H382.942V226.26ZM401.9 242.1V237.93H389.33V242.1H401.9ZM405.86 219.93H385.25V217.29H405.86V219.93ZM405.83 228.03H385.31V225.39H389.57L388.82 221.01L392.03 220.83L392.66 225.39H398.48L399.2 220.8L402.41 221.13L401.57 225.39H405.83V228.03ZM405.17 244.71H386.06V235.38H393.95V232.8H382.79V230.16H408.47V232.8H397.22V235.38H405.17V244.71ZM421.788 219.33C417.678 219.33 415.278 220.32 415.278 221.88C415.278 223.38 417.678 224.37 421.788 224.37C425.898 224.37 428.328 223.38 428.328 221.88C428.328 220.32 425.898 219.33 421.788 219.33ZM421.788 216.81C428.058 216.81 431.688 218.85 431.688 221.88C431.688 224.88 428.058 226.92 421.788 226.92C415.518 226.92 411.948 224.88 411.948 221.88C411.948 218.85 415.518 216.81 421.788 216.81ZM432.228 244.89H412.158V237.87H427.878V235.89H412.008V233.31H431.148V240.24H415.428V242.31H432.228V244.89ZM434.568 231.24H408.888V228.63H434.568V231.24ZM6.57414 265.71V263.1H14.5541V265.71H6.57414ZM20.1041 281.43L20.3441 283.95C14.4041 284.7 8.13414 284.88 1.68414 284.94L1.17414 282.21C3.63414 282.21 6.33414 282.24 9.00414 282.15V277.14H12.2741V282.03C15.1241 281.91 18.0041 281.7 20.1041 281.43ZM24.9641 261.63V290.07H21.6941V261.63H24.9641ZM2.79414 270.12V267.51H18.2141V270.12H12.3341C12.8441 272.73 16.0841 274.89 19.0241 275.31L17.4041 277.92C14.8541 277.32 11.9141 275.28 10.6841 273.12C9.75414 275.55 6.81414 277.98 3.69414 278.85L1.95414 276.21C5.52414 275.4 8.49414 272.97 8.94414 270.12H2.79414ZM40.1718 279.69L40.5918 282.33C38.2218 282.87 34.5318 283.11 31.0818 283.11H28.2318V265.08H38.9418V267.72C36.4818 267.72 33.9618 267.69 31.5318 267.69V280.41C35.1018 280.41 38.0118 280.17 40.1718 279.69ZM51.2718 290.07H48.1218V275.67H45.2418V288.69H42.1518V262.2H45.2418V272.94H48.1218V261.63H51.2718V290.07ZM69.7577 278.16C69.7577 276.33 68.6177 275.04 66.7577 275.04C64.9577 275.04 63.7877 276.33 63.7877 278.16C63.7877 279.99 64.9577 281.22 66.7577 281.22C68.6177 281.22 69.7577 279.93 69.7577 278.16ZM72.7277 278.16C72.7277 281.46 70.2977 283.86 66.7577 283.86C63.3077 283.86 60.8177 281.28 60.8177 278.16C60.8177 274.8 63.3077 272.43 66.7577 272.43C70.2977 272.43 72.7277 274.86 72.7277 278.16ZM73.8677 271.14H60.1277V268.5H73.8677V271.14ZM70.7477 266.55H63.3977V263.91H70.7477V266.55ZM78.9077 288.72H75.8177V281.55H73.1477V278.97H75.8177V274.71H72.9977V272.16H75.8177V262.2H78.9077V288.72ZM84.2777 290.07H81.1577V261.63H84.2777V290.07ZM110.345 290.07H107.075V282.45H90.9653V279.84H110.345V290.07ZM98.0453 269.1V271.65H90.7553V274.59C94.4453 274.59 97.3253 274.38 99.5153 273.9L99.9353 276.45C97.5053 276.96 93.6653 277.2 90.1553 277.23L87.5153 277.2V263.67H98.4653V266.31H90.7553V269.1H98.0453ZM110.345 278.34H107.225V271.26H104.405V278.07H101.315V262.14H104.405V268.53H107.225V261.63H110.345V278.34ZM132.333 271.08C132.333 268.38 129.573 266.55 125.343 266.55C121.143 266.55 118.383 268.38 118.383 271.08C118.383 273.78 121.143 275.55 125.343 275.55C129.543 275.55 132.333 273.78 132.333 271.08ZM135.663 271.05C135.663 275.22 131.583 278.22 125.343 278.22C119.163 278.22 115.053 275.22 115.053 271.05C115.053 266.91 119.163 263.88 125.343 263.88C131.583 263.88 135.663 266.91 135.663 271.05ZM138.183 286.29H112.503V283.68H138.183V286.29ZM161.791 279.09H153.031V283.86H164.281V286.47H138.601V283.86H149.761V279.09H141.901V269.91H157.711V266.22H141.781V263.61H160.981V272.55H145.171V276.45H161.791V279.09ZM182.436 274.59V266.49H175.776V274.59H182.436ZM185.706 277.17H172.506V263.91H185.706V277.17ZM194.526 289.2H175.506V280.17H178.776V286.56H194.526V289.2ZM193.686 261.63V269.88H197.856V272.61H193.686V282.24H190.386V261.63H193.686ZM213.634 270.84L214.144 273.57C210.664 274.41 205.564 274.68 201.814 274.74H198.784V263.1H202.024V271.98C206.224 271.98 210.274 271.59 213.634 270.84ZM220.714 289.86H201.484V282.27H216.484V279.87H201.304V277.23H219.754V284.73H204.754V287.25H220.714V289.86ZM223.924 269.94H219.754V275.73H216.484V261.63H219.754V267.21H223.924V269.94ZM255.31 271.71L253.81 274.38C249.61 273.66 244.99 270.9 243.58 267.72C242.32 270.9 237.7 273.63 233.38 274.41L231.94 271.71C236.98 271.14 241.87 267.81 241.87 263.7V262.29H245.32V263.7C245.32 267.81 250.72 271.29 255.31 271.71ZM245.14 290.1H241.87V279.78H230.71V277.17H256.39V279.78H245.14V290.1ZM279.046 269.97C279.046 273.99 275.776 276.51 271.726 276.51C267.706 276.51 264.406 273.99 264.406 269.97C264.406 266.04 267.676 263.19 271.726 263.19C275.746 263.19 279.046 265.98 279.046 269.97ZM289.846 287.61L288.076 289.98C286.186 289.14 283.696 286.95 282.946 284.85C282.376 286.98 279.886 289.38 277.696 290.46L275.836 288.27C279.136 286.77 281.326 283.86 281.326 280.2V278.91H284.506V280.17C284.506 283.77 286.696 286.5 289.846 287.61ZM275.836 269.94C275.836 267.69 274.276 265.89 271.726 265.89C269.266 265.89 267.616 267.72 267.616 269.94C267.616 272.31 269.296 274.02 271.726 274.02C274.186 274.02 275.836 272.28 275.836 269.94ZM283.816 261.63H287.116V277.53H283.816V261.63ZM277.636 285.36L275.536 287.64C274.516 287.1 273.106 285.96 272.536 284.7C271.816 286.98 269.596 289.14 266.986 290.28L265.216 288.06C268.216 286.8 270.796 284.01 270.796 280.41V279.06H273.976V280.26C273.976 283.11 275.986 284.85 277.636 285.36ZM312.524 289.32H293.144V280.95H296.414V286.68H312.524V289.32ZM312.344 272.34H293.294V262.56H296.564V269.7H312.344V272.34ZM315.494 278.46H289.814V275.82H315.494V278.46ZM347.689 274.53L345.979 277.08C341.749 276 337.129 272.73 335.659 269.28C334.399 272.61 329.839 275.97 325.309 277.05L323.719 274.44C328.369 273.66 333.979 269.85 333.979 264.96V263.25H337.399V264.96C337.399 269.82 343.399 273.72 347.689 274.53ZM348.499 286.5H322.819V283.86H329.359V277.56H332.629V283.86H338.599V277.56H341.869V283.86H348.499V286.5ZM365.657 266.28H349.967V263.67H365.657V266.28ZM372.347 278.7H369.047V261.63H372.347V278.7ZM362.807 281.55C358.877 281.55 356.507 282.6 356.507 284.49C356.507 286.35 358.877 287.43 362.807 287.43C366.857 287.43 369.167 286.35 369.167 284.49C369.167 282.6 366.857 281.55 362.807 281.55ZM355.487 267.6L355.907 274.59L359.597 274.47L359.987 267.57L363.197 267.9L362.507 274.29C364.037 274.2 365.417 274.08 366.587 273.9L366.857 276.39C364.817 276.78 361.247 277.08 357.887 277.23C355.097 277.38 352.097 277.44 349.517 277.47L349.037 274.71C350.267 274.71 351.587 274.68 352.997 274.65L352.247 267.9L355.487 267.6ZM372.527 284.49C372.527 287.85 368.987 290.07 362.807 290.07C356.657 290.07 353.147 287.85 353.147 284.49C353.147 281.1 356.657 278.88 362.807 278.88C368.987 278.88 372.527 281.1 372.527 284.49ZM394.793 279.69L395.213 282.33C392.843 282.87 389.153 283.11 385.703 283.11H382.853V265.08H393.563V267.72C391.103 267.72 388.583 267.69 386.153 267.69V280.41C389.723 280.41 392.633 280.17 394.793 279.69ZM405.893 290.07H402.743V275.67H399.863V288.69H396.773V262.2H399.863V272.94H402.743V261.63H405.893V290.07ZM416.181 264.12V261.57H425.511V264.12H416.181ZM432.561 272.19L431.211 274.86C427.071 274.5 422.481 272.67 420.861 270.24C419.301 272.73 415.011 274.5 410.481 274.8L409.101 272.16C413.601 272.1 417.951 270.42 419.031 268.17H410.571V265.56H431.121V268.17H422.751C423.861 270.45 428.481 272.1 432.561 272.19ZM411.021 281.1H419.181V278.82H408.021V276.18H433.701V278.82H422.451V281.1H430.401V290.16H427.131V283.71H411.021V281.1ZM458.088 290.07H454.968V261.63H458.088V290.07ZM452.448 288.72H449.358V274.47H445.488V271.74H449.358V262.2H452.448V288.72ZM448.188 281.1L446.268 283.47C444.348 282.24 441.858 279.21 441.108 276.51C440.478 279.33 438.018 282.57 435.558 284.1L433.518 281.91C437.268 279.42 439.548 275.28 439.548 269.64V267.54H434.538V264.9H447.408V267.54H442.728V269.55C442.728 275.19 445.008 279.24 448.188 281.1Z" fill="white"/>
<path d="M183.285 32V27.957L193.246 18.6406C194.47 17.5078 195.395 16.5638 196.02 15.8086C196.645 15.0534 197.068 14.3763 197.289 13.7773C197.523 13.1784 197.641 12.5534 197.641 11.9023V11.8633C197.641 11.0951 197.458 10.418 197.094 9.83203C196.729 9.23307 196.221 8.76432 195.57 8.42578C194.932 8.08724 194.197 7.91797 193.363 7.91797C192.4 7.91797 191.553 8.11328 190.824 8.50391C190.095 8.88151 189.522 9.40885 189.105 10.0859C188.689 10.75 188.467 11.5052 188.441 12.3516L188.422 12.5273H182.953V12.3711C182.953 10.6003 183.402 9.03776 184.301 7.68359C185.199 6.31641 186.43 5.2487 187.992 4.48047C189.568 3.71224 191.345 3.32812 193.324 3.32812C195.316 3.32812 197.068 3.67969 198.578 4.38281C200.089 5.07292 201.267 6.03646 202.113 7.27344C202.96 8.51042 203.383 9.92969 203.383 11.5312V11.5703C203.383 12.7031 203.174 13.7578 202.758 14.7344C202.354 15.6979 201.684 16.7266 200.746 17.8203C199.809 18.901 198.526 20.1901 196.898 21.6875L188.734 29.1289L191 25.1641V29.1289L188.754 27.3125H203.773V32H183.285ZM218.441 32.4883C216.059 32.4883 214.008 31.8958 212.289 30.7109C210.57 29.526 209.249 27.8464 208.324 25.6719C207.413 23.4844 206.957 20.8997 206.957 17.918V17.8789C206.957 14.8841 207.413 12.2995 208.324 10.125C209.249 7.95052 210.57 6.27734 212.289 5.10547C214.008 3.92057 216.059 3.32812 218.441 3.32812C220.824 3.32812 222.868 3.92057 224.574 5.10547C226.293 6.27734 227.615 7.95052 228.539 10.125C229.464 12.2995 229.926 14.8841 229.926 17.8789V17.918C229.926 20.8997 229.464 23.4844 228.539 25.6719C227.615 27.8464 226.293 29.526 224.574 30.7109C222.868 31.8958 220.824 32.4883 218.441 32.4883ZM218.441 27.7617C219.613 27.7617 220.609 27.3711 221.43 26.5898C222.25 25.8086 222.875 24.6823 223.305 23.2109C223.747 21.7396 223.969 19.9753 223.969 17.918V17.8789C223.969 15.8086 223.747 14.0443 223.305 12.5859C222.875 11.1146 222.25 9.99479 221.43 9.22656C220.609 8.44531 219.613 8.05469 218.441 8.05469C217.27 8.05469 216.267 8.44531 215.434 9.22656C214.613 9.99479 213.988 11.1146 213.559 12.5859C213.129 14.0443 212.914 15.8086 212.914 17.8789V17.918C212.914 19.9753 213.129 21.7396 213.559 23.2109C213.988 24.6823 214.613 25.8086 215.434 26.5898C216.267 27.3711 217.27 27.7617 218.441 27.7617ZM233.363 32V27.957L243.324 18.6406C244.548 17.5078 245.473 16.5638 246.098 15.8086C246.723 15.0534 247.146 14.3763 247.367 13.7773C247.602 13.1784 247.719 12.5534 247.719 11.9023V11.8633C247.719 11.0951 247.536 10.418 247.172 9.83203C246.807 9.23307 246.299 8.76432 245.648 8.42578C245.01 8.08724 244.275 7.91797 243.441 7.91797C242.478 7.91797 241.632 8.11328 240.902 8.50391C240.173 8.88151 239.6 9.40885 239.184 10.0859C238.767 10.75 238.546 11.5052 238.52 12.3516L238.5 12.5273H233.031V12.3711C233.031 10.6003 233.48 9.03776 234.379 7.68359C235.277 6.31641 236.508 5.2487 238.07 4.48047C239.646 3.71224 241.423 3.32812 243.402 3.32812C245.395 3.32812 247.146 3.67969 248.656 4.38281C250.167 5.07292 251.345 6.03646 252.191 7.27344C253.038 8.51042 253.461 9.92969 253.461 11.5312V11.5703C253.461 12.7031 253.253 13.7578 252.836 14.7344C252.432 15.6979 251.762 16.7266 250.824 17.8203C249.887 18.901 248.604 20.1901 246.977 21.6875L238.812 29.1289L241.078 25.1641V29.1289L238.832 27.3125H253.852V32H233.363ZM267.992 32.4883C265.857 32.4883 263.995 32.1432 262.406 31.4531C260.818 30.75 259.555 29.7799 258.617 28.543C257.693 27.306 257.165 25.8802 257.035 24.2656L257.016 24.0117H262.641L262.68 24.2266C262.771 24.9036 263.038 25.5091 263.48 26.043C263.936 26.5638 264.542 26.9805 265.297 27.293C266.065 27.5924 266.957 27.7422 267.973 27.7422C268.988 27.7422 269.867 27.5794 270.609 27.2539C271.352 26.9154 271.924 26.4531 272.328 25.8672C272.745 25.2682 272.953 24.5846 272.953 23.8164V23.7773C272.953 22.4232 272.478 21.388 271.527 20.6719C270.577 19.9557 269.249 19.5977 267.543 19.5977H264.32V15.3984H267.465C268.454 15.3984 269.314 15.2357 270.043 14.9102C270.772 14.5846 271.332 14.1354 271.723 13.5625C272.126 12.9766 272.328 12.306 272.328 11.5508V11.5117C272.328 10.7435 272.152 10.0924 271.801 9.55859C271.462 9.01172 270.961 8.59505 270.297 8.30859C269.646 8.00911 268.858 7.85938 267.934 7.85938C267.022 7.85938 266.215 8.00911 265.512 8.30859C264.809 8.60807 264.249 9.03125 263.832 9.57812C263.415 10.112 263.161 10.7435 263.07 11.4727L263.051 11.6484H257.641L257.66 11.4141C257.79 9.77344 258.292 8.35417 259.164 7.15625C260.049 5.94531 261.241 5.00781 262.738 4.34375C264.236 3.66667 265.967 3.32812 267.934 3.32812C269.965 3.32812 271.723 3.64062 273.207 4.26562C274.704 4.8776 275.863 5.73698 276.684 6.84375C277.504 7.95052 277.914 9.24609 277.914 10.7305V10.7695C277.914 11.9414 277.654 12.9701 277.133 13.8555C276.612 14.7409 275.902 15.4701 275.004 16.043C274.118 16.6159 273.129 17.0195 272.035 17.2539V17.3711C274.132 17.5664 275.805 18.2435 277.055 19.4023C278.318 20.5612 278.949 22.0977 278.949 24.0117V24.0508C278.949 25.7305 278.493 27.2018 277.582 28.4648C276.671 29.7279 275.395 30.7174 273.754 31.4336C272.113 32.1367 270.193 32.4883 267.992 32.4883Z" fill="white"/>
<g clip-path="url(#clip0_62_7516)">
<path d="M133.046 124.332C137.547 124.332 141.196 120.678 141.196 116.169C141.196 111.661 137.547 108.006 133.046 108.006C128.544 108.006 124.895 111.661 124.895 116.169C124.895 120.678 128.544 124.332 133.046 124.332Z" fill="white"/>
<path d="M227.31 124.332C231.812 124.332 235.461 120.678 235.461 116.169C235.461 111.661 231.812 108.006 227.31 108.006C222.809 108.006 219.16 111.661 219.16 116.169C219.16 120.678 222.809 124.332 227.31 124.332Z" fill="white"/>
<path d="M330.08 124.332C334.582 124.332 338.231 120.678 338.231 116.169C338.231 111.661 334.582 108.006 330.08 108.006C325.579 108.006 321.93 111.661 321.93 116.169C321.93 120.678 325.579 124.332 330.08 124.332Z" fill="white"/>
<path d="M358.431 124.332C362.932 124.332 366.581 120.678 366.581 116.169C366.581 111.661 362.932 108.006 358.431 108.006C353.929 108.006 350.28 111.661 350.28 116.169C350.28 120.678 353.929 124.332 358.431 124.332Z" fill="white"/>
<path d="M390.324 124.332C394.826 124.332 398.475 120.678 398.475 116.169C398.475 111.661 394.826 108.006 390.324 108.006C385.823 108.006 382.174 111.661 382.174 116.169C382.174 120.678 385.823 124.332 390.324 124.332Z" fill="white"/>
<path d="M103.279 84.5041C103.279 80.0036 106.936 76.3408 111.43 76.3408C115.923 76.3408 119.581 80.0036 119.581 84.5041V137.047C119.581 146.651 112.493 154.63 103.279 156V84.5041Z" fill="white"/>
<path d="M164.033 151.813C161.857 151.813 159.808 150.961 158.27 149.42C155.095 146.24 155.095 141.058 158.27 137.878L185.614 110.492C187.152 108.952 189.2 108.1 191.376 108.1C193.552 108.1 195.601 108.952 197.139 110.492C200.314 113.672 200.314 118.854 197.139 122.034L169.795 149.42C168.257 150.961 166.209 151.813 164.033 151.813Z" fill="white"/>
<path d="M218.303 151.245C216.127 151.245 214.079 150.393 212.541 148.852L185.828 122.105C184.29 120.565 183.439 118.513 183.439 116.334C183.439 114.155 184.29 112.103 185.828 110.563C187.366 109.023 189.414 108.171 191.59 108.171C193.766 108.171 195.814 109.023 197.352 110.563L224.058 137.31C225.596 138.851 226.446 140.902 226.446 143.081C226.446 145.261 225.596 147.312 224.058 148.852C222.52 150.393 220.472 151.245 218.296 151.245H218.303Z" fill="white"/>
<path d="M314.487 96.5858C309.994 96.5858 306.337 92.923 306.337 88.4225C306.337 83.9221 309.994 80.2593 314.487 80.2593H374.023C378.516 80.2593 382.173 83.9221 382.173 88.4225C382.173 92.923 378.516 96.5858 374.023 96.5858H314.487Z" fill="white"/>
<path d="M314.487 151.245C309.994 151.245 306.337 147.582 306.337 143.081C306.337 138.581 309.994 134.918 314.487 134.918H374.023C378.516 134.918 382.173 138.581 382.173 143.081C382.173 147.582 378.516 151.245 374.023 151.245H314.487Z" fill="white"/>
<path d="M403.436 84.1633C403.436 79.6628 407.094 76 411.587 76C416.081 76 419.738 79.6628 419.738 84.1633V137.047C419.738 146.651 412.65 154.63 403.436 156V84.1633Z" fill="white"/>
<path d="M424.699 84.1633C424.699 79.6628 428.357 76 432.85 76C437.344 76 441.001 79.6628 441.001 84.1633V136.373C441.001 145.977 433.913 153.956 424.699 155.326V84.1633Z" fill="white"/>
<path d="M240.423 84.1633C240.423 79.6628 244.08 76 248.573 76C253.067 76 256.724 79.6628 256.724 84.1633V137.047C256.724 146.651 249.636 154.63 240.423 156V84.1633Z" fill="white"/>
<path d="M261.686 84.1633C261.686 79.6628 265.343 76 269.836 76C274.33 76 277.987 79.6628 277.987 84.1633V136.373C277.987 145.977 270.899 153.956 261.686 155.326V84.1633Z" fill="white"/>
<path d="M55.4377 151.244C35.8974 151.244 20 135.322 20 115.752C20 96.1812 35.8974 80.2593 55.4377 80.2593H57.564C77.1043 80.2593 93.0017 96.1812 93.0017 115.752C93.0017 135.322 77.1043 151.244 57.564 151.244H55.4377Z" fill="white"/>
<path d="M191.872 127.819C187.379 127.819 183.722 124.156 183.722 119.656V88.4225C183.722 83.9221 187.379 80.2593 191.872 80.2593C196.366 80.2593 200.023 83.9221 200.023 88.4225V119.656C200.023 124.156 196.366 127.819 191.872 127.819Z" fill="white"/>
</g>
<defs>
<clipPath id="clip0_62_7516">
<rect width="421" height="80" fill="white" transform="translate(20 76)"/>
</clipPath>
</defs>
</svg>
